# https://github.com/mikedh/trimesh
v 0.00921342 0.00787303 0.01627714
v 0.01117206 0.00512753 0.01627714
v 0.01064514 0.00512753 0.01627792
v 0.00985790 0.00591431 0.01627830
v 0.00789822 0.00787303 0.01632233
v 0.01511347 0.00787303 0.01627714
v 0.01511347 0.00512753 0.01627714
v 0.00985790 0.00512753 0.01634473
v 0.00664809 0.00787303 0.01653901
v 0.01614842 0.00787303 0.01653514
v 0.01614842 0.00512753 0.01653514
v 0.00934043 0.00512753 0.01644090
v 0.00633110 0.00787303 0.01665603
v 0.00882715 0.00512753 0.01659771
v 0.01639089 0.00787303 0.01700132
v 0.01662391 0.00512753 0.01745012
v 0.00640352 0.00774992 0.01668114
v 0.00617785 0.00787303 0.01690747
v 0.00858573 0.00512753 0.01705501
v 0.01662391 0.00787303 0.01745012
v 0.01666904 0.00512753 0.01823725
v 0.00602040 0.00787303 0.01745012
v 0.00847342 0.00512753 0.01745012
v 0.01669843 0.00787303 0.01876407
v 0.01669843 0.00512753 0.01876407
v 0.00599731 0.00787303 0.01803024
v 0.00845348 0.00512753 0.01812872
v 0.01645702 0.00787303 0.01930286
v 0.01641398 0.00512753 0.01939749
v 0.00597737 0.00787303 0.01876407
v 0.00843668 0.00512753 0.01876407
v 0.01622294 0.00512753 0.01982195
v 0.01622294 0.00787303 0.01982195
v 0.00638043 0.00772950 0.01958558
v 0.00629856 0.00787303 0.01963000
v 0.00879461 0.00512753 0.01971806
v 0.01565824 0.00787303 0.02002627
v 0.01511347 0.00512753 0.02022286
v 0.00724849 0.00787303 0.01995327
v 0.00985790 0.00512753 0.02011085
v 0.01511347 0.00787303 0.02022286
v 0.01117206 0.00512753 0.02022286
v 0.00854375 0.00722846 0.02014561
v 0.00854375 0.00787303 0.02018346
v 0.00985790 0.00591431 0.02020857
v 0.00985790 0.00787303 0.02022286
v 0.00985790 0.00722846 0.02022286
f 1 2 3
f 1 3 4
f 1 4 5
f 1 5 9
f 1 9 13
f 1 13 18
f 1 18 22
f 1 22 26
f 1 26 30
f 1 30 35
f 1 35 39
f 1 39 44
f 1 44 46
f 1 46 41
f 1 41 37
f 1 37 33
f 1 33 28
f 1 28 24
f 1 24 20
f 1 20 15
f 1 15 10
f 1 10 6
f 1 6 7
f 1 7 2
f 2 7 11
f 2 11 16
f 2 16 21
f 2 21 25
f 2 25 29
f 2 29 32
f 2 32 38
f 2 38 42
f 2 42 40
f 2 40 36
f 2 36 31
f 2 31 27
f 2 27 23
f 2 23 19
f 2 19 14
f 2 14 12
f 2 12 8
f 2 8 3
f 3 8 4
f 4 8 5
f 5 8 9
f 6 10 11
f 6 11 7
f 8 12 9
f 9 12 14
f 9 14 13
f 10 15 11
f 11 15 16
f 13 17 18
f 13 14 17
f 14 19 17
f 15 20 16
f 16 20 21
f 17 19 18
f 18 19 22
f 19 23 22
f 20 24 21
f 21 24 25
f 22 23 26
f 23 27 26
f 24 28 25
f 25 28 29
f 26 27 30
f 27 31 30
f 28 32 29
f 28 33 32
f 30 34 35
f 30 31 34
f 31 36 34
f 32 37 38
f 32 33 37
f 34 36 35
f 35 36 40
f 35 40 39
f 37 41 38
f 38 41 46
f 38 46 47
f 38 47 42
f 39 40 43
f 39 43 44
f 40 42 45
f 40 45 43
f 42 47 45
f 43 45 44
f 44 45 47
f 44 47 46

