# https://github.com/mikedh/trimesh
v 0.01785247 0.01550917 0.01876407
v 0.01782456 0.01550917 0.01853311
v 0.01742521 0.01550917 0.01941409
v 0.01622367 0.00787405 0.01982195
v 0.01669801 0.00787405 0.01876407
v 0.01666139 0.00787405 0.01811984
v 0.01662302 0.00787405 0.01745012
v 0.01760309 0.01550917 0.01745012
v 0.01726129 0.01550917 0.01957515
v 0.01689856 0.01550917 0.01977831
v 0.01511282 0.00787405 0.02022286
v 0.01639109 0.00787405 0.01700132
v 0.01698575 0.01550917 0.01668848
v 0.01614869 0.00787405 0.01653514
v 0.01550868 0.01550917 0.02015372
v 0.01511282 0.01248502 0.02022286
v 0.00985673 0.00787405 0.02022286
v 0.01644166 0.01550917 0.01652703
v 0.01511282 0.00787405 0.01627714
v 0.01511282 0.01550917 0.02019312
v 0.01419379 0.01550917 0.02021745
v 0.01379967 0.01550917 0.02022286
v 0.00003689 0.01248502 0.02022286
v 0.00003689 0.01117176 0.02018308
v 0.00854359 0.00787405 0.02018346
v 0.01511282 0.01550917 0.01627714
v 0.00921149 0.00787405 0.01627714
v 0.00003689 0.01550917 0.02022286
v 0.00003689 0.01071134 0.01999382
v 0.00003689 0.01019710 0.01978217
v 0.00724962 0.00787405 0.01995327
v 0.00003689 0.01550917 0.01627714
v 0.00789835 0.00787405 0.01632233
v 0.00003689 0.01117176 0.01628487
v 0.00197261 0.01117176 0.01627830
v 0.00003689 0.01248502 0.01627714
v 0.00003689 0.00987869 0.01876407
v 0.00629920 0.00787405 0.01963000
v 0.00664798 0.00787405 0.01653901
v 0.00003689 0.01024045 0.01654287
v 0.00597658 0.00787405 0.01876407
v 0.00003689 0.00992279 0.01745012
v 0.00602018 0.00787405 0.01745012
v 0.00599751 0.00787405 0.01803024
v 0.00633233 0.00787405 0.01665603
v 0.00617887 0.00787405 0.01690747
f 1 2 8
f 1 8 13
f 1 13 18
f 1 18 26
f 1 26 32
f 1 32 28
f 1 28 22
f 1 22 21
f 1 21 20
f 1 20 15
f 1 15 10
f 1 10 9
f 1 9 3
f 1 3 4
f 1 4 5
f 1 5 6
f 1 6 7
f 1 7 2
f 2 7 8
f 3 9 4
f 4 9 10
f 4 10 11
f 4 11 17
f 4 17 25
f 4 25 31
f 4 31 38
f 4 38 41
f 4 41 44
f 4 44 43
f 4 43 46
f 4 46 45
f 4 45 39
f 4 39 33
f 4 33 27
f 4 27 19
f 4 19 14
f 4 14 12
f 4 12 7
f 4 7 6
f 4 6 5
f 7 12 8
f 8 12 14
f 8 14 13
f 10 15 11
f 11 15 16
f 11 16 22
f 11 22 28
f 11 28 23
f 11 23 17
f 13 14 18
f 14 19 18
f 15 20 16
f 16 20 21
f 16 21 22
f 17 23 24
f 17 24 25
f 18 19 26
f 19 27 36
f 19 36 32
f 19 32 26
f 23 28 32
f 23 32 36
f 23 36 34
f 23 34 40
f 23 40 42
f 23 42 37
f 23 37 30
f 23 30 29
f 23 29 24
f 24 29 25
f 25 29 30
f 25 30 31
f 27 33 34
f 27 34 35
f 27 35 36
f 30 37 38
f 30 38 31
f 33 39 40
f 33 40 34
f 34 36 35
f 37 41 38
f 37 42 43
f 37 43 44
f 37 44 41
f 39 45 40
f 40 45 42
f 42 45 46
f 42 46 43

