# https://github.com/mikedh/trimesh
v 0.03866393 0.02516020 0.02072418
v 0.03866393 0.02516020 0.01685000
v 0.03653610 0.02516020 0.02072418
v 0.03866393 0.02072586 0.02072418
v 0.03653610 0.02516020 0.01709203
v 0.03866393 0.02297776 0.01649000
v 0.03653610 0.02262204 0.01642340
v 0.03653610 0.02291669 0.01649871
v 0.03653610 0.02072586 0.02072418
v 0.03866393 0.01774343 0.02022271
v 0.03866393 0.02168540 0.01627758
v 0.03653610 0.02168540 0.01627758
v 0.03653610 0.01774343 0.02022271
v 0.03866393 0.01763656 0.02019006
v 0.03866393 0.02037166 0.01627714
v 0.03653610 0.02037166 0.01627714
v 0.03653610 0.01736251 0.02010605
v 0.03866393 0.01736251 0.02010605
v 0.03866393 0.01774343 0.01627714
v 0.03653610 0.01774343 0.01627714
v 0.03653610 0.01736251 0.01635463
v 0.03866393 0.01736251 0.01635463
v 0.03866393 0.01739305 0.01634810
f 1 2 5
f 1 5 3
f 1 3 9
f 1 9 4
f 1 4 10
f 1 10 14
f 1 14 18
f 1 18 22
f 1 22 23
f 1 23 19
f 1 19 15
f 1 15 11
f 1 11 6
f 1 6 2
f 2 6 7
f 2 7 8
f 2 8 5
f 3 5 8
f 3 8 7
f 3 7 12
f 3 12 16
f 3 16 20
f 3 20 21
f 3 21 17
f 3 17 13
f 3 13 9
f 4 9 13
f 4 13 10
f 6 11 7
f 7 11 12
f 10 13 14
f 11 15 16
f 11 16 12
f 13 17 14
f 14 17 18
f 15 19 20
f 15 20 16
f 17 21 22
f 17 22 18
f 19 23 20
f 20 23 21
f 21 23 22

