# https://github.com/mikedh/trimesh
v 0.04215173 0.02023238 0.02072429
v 0.04289360 0.01792061 0.02072429
v 0.04215173 0.02042540 0.02106134
v 0.04215173 0.02872286 0.02072429
v 0.04313790 0.01781473 0.02072429
v 0.04320905 0.01826693 0.02189495
v 0.04303230 0.01857135 0.02189495
v 0.04215173 0.02109599 0.02189495
v 0.04215173 0.02872286 0.02189495
v 0.04402877 0.02872286 0.02072429
v 0.04402877 0.01793274 0.02189495
v 0.04402877 0.01755222 0.02072429
v 0.04402877 0.02872286 0.02189495
v 0.04534248 0.02868094 0.02139276
v 0.04534248 0.02867653 0.02072429
v 0.04453036 0.01785333 0.02189495
v 0.04437107 0.01750259 0.02072429
v 0.04534248 0.01773531 0.02189495
v 0.04534248 0.02868094 0.02189495
v 0.04636132 0.02811954 0.02139276
v 0.04635640 0.02811513 0.02072429
v 0.04534248 0.01745627 0.02072429
v 0.04572192 0.01785443 0.02189495
v 0.04636132 0.02811954 0.02189495
v 0.04672241 0.02694270 0.02139276
v 0.04671749 0.02694270 0.02072429
v 0.04560469 0.01754781 0.02072429
v 0.04633582 0.01806951 0.02189495
v 0.04672241 0.02694270 0.02189495
v 0.04672241 0.02562799 0.02072429
v 0.04638146 0.01788531 0.02072429
v 0.04669735 0.01905774 0.02189495
v 0.04672241 0.02037246 0.02189495
v 0.04672241 0.02037246 0.02072429
v 0.04670362 0.01905774 0.02072429
v 0.04671301 0.01986951 0.02189495
f 1 2 3
f 1 3 8
f 1 8 9
f 1 9 4
f 1 4 10
f 1 10 15
f 1 15 21
f 1 21 26
f 1 26 30
f 1 30 34
f 1 34 35
f 1 35 31
f 1 31 27
f 1 27 22
f 1 22 17
f 1 17 12
f 1 12 5
f 1 5 2
f 2 5 6
f 2 6 7
f 2 7 8
f 2 8 3
f 4 9 13
f 4 13 10
f 5 11 6
f 5 12 11
f 6 11 16
f 6 16 18
f 6 18 23
f 6 23 28
f 6 28 32
f 6 32 36
f 6 36 33
f 6 33 29
f 6 29 24
f 6 24 19
f 6 19 13
f 6 13 9
f 6 9 8
f 6 8 7
f 10 13 19
f 10 19 14
f 10 14 15
f 11 12 16
f 12 17 18
f 12 18 16
f 14 19 24
f 14 24 20
f 14 20 15
f 15 20 21
f 17 22 18
f 18 22 23
f 20 25 26
f 20 26 21
f 20 24 29
f 20 29 25
f 22 27 23
f 23 27 28
f 25 29 33
f 25 33 34
f 25 34 30
f 25 30 26
f 27 31 28
f 28 31 32
f 31 35 32
f 32 35 36
f 33 36 35
f 33 35 34

