# https://github.com/mikedh/trimesh
v -0.04136240 -0.02037224 0.02782286
v -0.04534182 -0.02037224 0.02782286
v -0.04136240 -0.02694206 0.02782286
v -0.04136240 -0.01869216 0.02731455
v -0.04402899 -0.01870700 0.02749327
v -0.04630099 -0.02037224 0.02756464
v -0.04534182 -0.02562767 0.02782286
v -0.04517601 -0.01865930 0.02744047
v -0.04620025 -0.01931437 0.02747876
v -0.04402899 -0.02694206 0.02782286
v -0.04402899 -0.02806353 0.02756464
v -0.04136240 -0.02804657 0.02756812
v -0.04136240 -0.01830844 0.02489140
v -0.04578310 -0.01807207 0.02402217
v -0.04666304 -0.02037224 0.02664958
v -0.04630099 -0.02562767 0.02756464
v -0.04534182 -0.02694206 0.02782228
v -0.04608586 -0.01876530 0.02664958
v -0.04658538 -0.01905786 0.02402217
v -0.04534182 -0.02803173 0.02756406
v -0.04402899 -0.02862426 0.02664958
v -0.04136240 -0.02862426 0.02664958
v -0.04320939 -0.01826816 0.02189495
v -0.04427928 -0.01789293 0.02189495
v -0.04136240 -0.02114498 0.02189495
v -0.04588647 -0.01793321 0.02230171
v -0.04672286 -0.02037224 0.02533529
v -0.04666304 -0.02562767 0.02664958
v -0.04669662 -0.01905786 0.02230171
v -0.04629942 -0.02694206 0.02756406
v -0.04626111 -0.02794693 0.02706388
v -0.04534182 -0.02853946 0.02664958
v -0.04402899 -0.02872072 0.02533529
v -0.04136240 -0.02871966 0.02535386
v -0.04672286 -0.02037224 0.02189495
v -0.04136240 -0.02872072 0.02189495
v -0.04672286 -0.02562767 0.02533529
v -0.04665517 -0.02694206 0.02664958
v -0.04635084 -0.02805399 0.02533529
v -0.04534182 -0.02861578 0.02533529
v -0.04402899 -0.02872072 0.02189495
v -0.04534182 -0.02864864 0.02402217
v -0.04534182 -0.02868044 0.02230171
v -0.04636133 -0.02811865 0.02230171
v -0.04672286 -0.02694206 0.02230171
v -0.04671708 -0.02694206 0.02402217
v -0.04671184 -0.02694206 0.02533529
v -0.04635608 -0.02808685 0.02402217
f 1 2 7
f 1 7 10
f 1 10 3
f 1 3 12
f 1 12 22
f 1 22 34
f 1 34 36
f 1 36 25
f 1 25 13
f 1 13 4
f 1 4 5
f 1 5 2
f 2 6 16
f 2 16 7
f 2 5 8
f 2 8 9
f 2 9 6
f 3 10 11
f 3 11 12
f 4 13 14
f 4 14 8
f 4 8 5
f 6 9 15
f 6 15 28
f 6 28 16
f 7 16 17
f 7 17 10
f 8 14 18
f 8 18 9
f 9 18 19
f 9 19 15
f 10 17 11
f 11 17 20
f 11 20 21
f 11 21 22
f 11 22 12
f 13 23 24
f 13 24 14
f 13 25 23
f 14 26 18
f 14 24 26
f 15 27 37
f 15 37 28
f 15 19 29
f 15 29 27
f 16 28 30
f 16 30 17
f 17 30 20
f 18 26 19
f 19 26 29
f 20 30 31
f 20 31 32
f 20 32 21
f 21 32 33
f 21 33 34
f 21 34 22
f 23 25 36
f 23 36 41
f 23 41 35
f 23 35 24
f 24 35 26
f 26 35 29
f 27 35 45
f 27 45 37
f 27 29 35
f 28 37 38
f 28 38 30
f 30 38 31
f 31 39 32
f 31 38 39
f 32 40 33
f 32 39 40
f 33 41 36
f 33 36 34
f 33 40 42
f 33 42 43
f 33 43 41
f 35 41 44
f 35 44 45
f 37 45 46
f 37 46 47
f 37 47 38
f 38 47 39
f 39 47 48
f 39 48 40
f 40 48 42
f 41 43 44
f 42 48 44
f 42 44 43
f 44 48 47
f 44 47 46
f 44 46 45

