# https://github.com/mikedh/trimesh
v 0.04127714 -0.01248454 0.01876368
v 0.04134751 -0.01380005 0.01745051
v 0.04128780 -0.01380005 0.01876368
v 0.04166787 -0.01248454 0.01981770
v 0.04127714 0.01248311 0.01876368
v 0.04174037 -0.01380005 0.01653514
v 0.04134751 0.01379592 0.01745051
v 0.04168067 -0.01380005 0.01980496
v 0.04271533 -0.01380005 0.02020586
v 0.04271533 -0.01248454 0.02021822
v 0.04219080 -0.00000207 0.02001816
v 0.04166787 0.01248311 0.01981770
v 0.04128780 0.01379592 0.01876368
v 0.04222705 -0.00000207 0.01640614
v 0.04271533 -0.01380005 0.01627714
v 0.04174037 0.01379592 0.01653514
v 0.04402772 -0.01380005 0.02022286
v 0.04271533 0.01248311 0.02021822
v 0.04271533 0.01379592 0.02020586
v 0.04168067 0.01379592 0.01980496
v 0.04271533 0.01379592 0.01627714
v 0.04534224 -0.01380005 0.01627714
v 0.04534224 -0.01380005 0.02020625
v 0.04402772 0.01379592 0.02022286
v 0.04534224 0.01379592 0.01627714
v 0.04630121 -0.01380005 0.01653514
v 0.04636038 -0.01380005 0.01980573
v 0.04585131 -0.00000207 0.02000618
v 0.04534224 0.01379592 0.02020625
v 0.04630121 0.01379592 0.01653514
v 0.04666209 -0.01380005 0.01745051
v 0.04672286 -0.01380005 0.01876368
v 0.04636038 0.01379592 0.01980573
v 0.04666209 0.01379592 0.01745051
v 0.04672286 0.01379592 0.01876368
f 1 2 3
f 1 3 4
f 1 4 12
f 1 12 5
f 1 5 7
f 1 7 2
f 2 6 15
f 2 15 22
f 2 22 26
f 2 26 31
f 2 31 32
f 2 32 27
f 2 27 23
f 2 23 17
f 2 17 9
f 2 9 8
f 2 8 3
f 2 7 16
f 2 16 6
f 3 8 4
f 4 8 9
f 4 9 10
f 4 10 11
f 4 11 12
f 5 12 13
f 5 13 7
f 6 14 15
f 6 16 14
f 7 13 20
f 7 20 19
f 7 19 24
f 7 24 29
f 7 29 33
f 7 33 35
f 7 35 34
f 7 34 30
f 7 30 25
f 7 25 21
f 7 21 16
f 9 17 10
f 10 17 24
f 10 24 18
f 10 18 11
f 11 18 12
f 12 18 19
f 12 19 20
f 12 20 13
f 14 16 21
f 14 21 15
f 15 21 25
f 15 25 22
f 17 23 29
f 17 29 24
f 18 24 19
f 22 25 30
f 22 30 26
f 23 27 28
f 23 28 29
f 26 30 34
f 26 34 31
f 27 32 35
f 27 35 33
f 27 33 28
f 28 33 29
f 31 34 35
f 31 35 32

