# https://github.com/mikedh/trimesh
v 0.00003689 0.01550917 0.01627714
v 0.00003689 0.01550917 0.02022286
v 0.00003689 0.01736157 0.01627714
v 0.01511477 0.01550917 0.01627714
v 0.00003689 0.01736157 0.02022286
v 0.01380019 0.01550917 0.02022286
v 0.01511477 0.01736157 0.01627714
v 0.01644451 0.01550917 0.01652703
v 0.03873931 0.01736157 0.01635439
v 0.03873931 0.01646974 0.01653514
v 0.03873931 0.01583160 0.01742772
v 0.03873931 0.01581564 0.01745012
v 0.01473593 0.01736157 0.02022286
v 0.01419798 0.01550917 0.02021745
v 0.03873931 0.01736157 0.02010622
v 0.01605051 0.01736157 0.02021745
v 0.01698625 0.01550917 0.01668848
v 0.03873931 0.01577901 0.01876407
v 0.01511477 0.01550917 0.02019312
v 0.03873931 0.01643329 0.01982195
v 0.01760376 0.01550917 0.01745012
v 0.01551256 0.01550917 0.02015372
v 0.01690290 0.01550917 0.01977831
v 0.01726280 0.01550917 0.01957515
v 0.01742949 0.01550917 0.01941409
v 0.01785380 0.01550917 0.01876407
v 0.01782728 0.01550917 0.01853311
f 1 2 5
f 1 5 3
f 1 3 7
f 1 7 4
f 1 4 8
f 1 8 17
f 1 17 21
f 1 21 27
f 1 27 26
f 1 26 25
f 1 25 24
f 1 24 23
f 1 23 22
f 1 22 19
f 1 19 14
f 1 14 6
f 1 6 2
f 2 6 13
f 2 13 5
f 3 5 13
f 3 13 16
f 3 16 15
f 3 15 9
f 3 9 7
f 4 7 9
f 4 9 10
f 4 10 11
f 4 11 12
f 4 12 8
f 6 14 15
f 6 15 16
f 6 16 13
f 8 12 17
f 9 15 20
f 9 20 18
f 9 18 12
f 9 12 11
f 9 11 10
f 12 18 17
f 14 19 15
f 15 19 20
f 17 18 21
f 18 20 19
f 18 19 22
f 18 22 23
f 18 23 24
f 18 24 25
f 18 25 26
f 18 26 27
f 18 27 21

