# https://github.com/mikedh/trimesh
v -0.04124547 -0.01736175 0.01631144
v -0.04124547 -0.01658278 0.01638171
v -0.04046681 -0.01736175 0.01631144
v -0.04124547 -0.01736175 0.02015016
v -0.03944697 -0.01736175 0.01635766
v -0.04124547 -0.01536210 0.01657823
v -0.03944697 -0.01736175 0.02010620
v -0.04124547 -0.01641432 0.02003255
v -0.03944697 -0.01638978 0.01655719
v -0.04124547 -0.01418717 0.01745036
v -0.03944697 -0.01635695 0.01980146
v -0.04124547 -0.01525465 0.01972706
v -0.03944697 -0.01579751 0.01745036
v -0.04124547 -0.01397427 0.01876400
v -0.03944697 -0.01607342 0.01934266
v -0.03944697 -0.01577463 0.01876212
f 1 2 3
f 1 3 5
f 1 5 7
f 1 7 4
f 1 4 8
f 1 8 12
f 1 12 14
f 1 14 10
f 1 10 6
f 1 6 2
f 2 5 3
f 2 6 5
f 4 7 8
f 5 6 9
f 5 9 13
f 5 13 16
f 5 16 15
f 5 15 11
f 5 11 7
f 6 10 9
f 7 11 12
f 7 12 8
f 9 10 13
f 10 14 13
f 11 15 14
f 11 14 12
f 13 14 16
f 14 15 16

