# https://github.com/mikedh/trimesh
v -0.04672232 0.00000000 0.01876388
v -0.04669283 0.00000000 0.01810750
v -0.04636095 0.00000000 0.01980568
v -0.04640599 0.01736175 0.02002351
v -0.04650732 0.01736175 0.01972991
v -0.04672232 0.01736175 0.01876388
v -0.04666281 0.00000000 0.01745030
v -0.04670517 0.01736175 0.01838298
v -0.04666281 0.01736175 0.01745030
v -0.04534279 0.00000000 0.02020634
v -0.04534279 0.01736175 0.02048346
v -0.04630144 0.00000000 0.01653533
v -0.04655826 0.01736175 0.01718470
v -0.04402813 0.00000000 0.02022281
v -0.04402813 0.01736175 0.02047152
v -0.04271454 0.00000000 0.02021828
v -0.04534279 0.00000000 0.01627714
v -0.04630144 0.01736175 0.01653533
v -0.04602317 0.01736175 0.01646038
v -0.04273813 0.01736175 0.02036364
v -0.04219072 0.00000000 0.02001815
v -0.04124547 0.01736175 0.02017751
v -0.04271454 0.00000000 0.01627714
v -0.04534279 0.01736175 0.01627714
v -0.04166742 0.00000000 0.01981762
v -0.04124547 0.01658170 0.02008116
v -0.04124547 0.01736175 0.01633191
v -0.04147226 0.00000000 0.01929095
v -0.04127764 0.00000000 0.01876388
v -0.04173981 0.00000000 0.01653533
v -0.04271454 0.01736175 0.01627714
v -0.04140042 0.01736175 0.01631173
v -0.04124547 0.01529860 0.01976450
v -0.04124547 0.01723769 0.01634303
v -0.04135002 0.00000000 0.01745030
v -0.04154465 0.00000000 0.01699281
v -0.04131356 0.00000000 0.01810750
v -0.04124547 0.01641345 0.01641715
v -0.04124547 0.01532409 0.01661480
v -0.04124547 0.01418545 0.01745030
v -0.04124547 0.01399851 0.01853657
v -0.04124547 0.01397302 0.01876388
f 1 2 7
f 1 7 12
f 1 12 17
f 1 17 23
f 1 23 30
f 1 30 36
f 1 36 35
f 1 35 37
f 1 37 29
f 1 29 28
f 1 28 25
f 1 25 21
f 1 21 16
f 1 16 14
f 1 14 10
f 1 10 3
f 1 3 4
f 1 4 5
f 1 5 6
f 1 6 2
f 2 6 8
f 2 8 9
f 2 9 7
f 3 10 11
f 3 11 4
f 4 11 15
f 4 15 20
f 4 20 22
f 4 22 27
f 4 27 32
f 4 32 31
f 4 31 24
f 4 24 19
f 4 19 18
f 4 18 13
f 4 13 9
f 4 9 8
f 4 8 6
f 4 6 5
f 7 9 13
f 7 13 12
f 10 14 11
f 11 14 16
f 11 16 15
f 12 13 18
f 12 18 19
f 12 19 17
f 15 16 20
f 16 21 22
f 16 22 20
f 17 19 24
f 17 24 31
f 17 31 23
f 21 25 22
f 22 26 33
f 22 33 42
f 22 42 41
f 22 41 40
f 22 40 39
f 22 39 38
f 22 38 34
f 22 34 27
f 22 25 28
f 22 28 29
f 22 29 26
f 23 31 32
f 23 32 27
f 23 27 30
f 26 29 33
f 27 34 35
f 27 35 36
f 27 36 30
f 29 37 38
f 29 38 39
f 29 39 40
f 29 40 41
f 29 41 42
f 29 42 33
f 34 38 35
f 35 38 37

