# https://github.com/mikedh/trimesh
v 0.04271467 -0.01556121 0.01627714
v 0.04140347 -0.01556121 0.01652801
v 0.04271467 -0.01380023 0.01627714
v 0.04534224 -0.01556121 0.01627714
v 0.04173954 -0.01380023 0.01653536
v 0.04084617 -0.01556121 0.01670660
v 0.04534224 -0.01380023 0.01627714
v 0.04566858 -0.01556121 0.01636489
v 0.04031870 -0.01556121 0.01745032
v 0.04134768 -0.01380023 0.01745032
v 0.04630114 -0.01380023 0.01653536
v 0.04630114 -0.01556121 0.01653536
v 0.04009747 -0.01556121 0.01874912
v 0.04009552 -0.01556121 0.01876419
v 0.04128799 -0.01380023 0.01876419
v 0.04666252 -0.01380023 0.01745032
v 0.04642442 -0.01556121 0.01684653
v 0.04042770 -0.01556121 0.01938383
v 0.04167986 -0.01380023 0.01980516
v 0.04672286 -0.01380023 0.01876419
v 0.04668328 -0.01556121 0.01789716
v 0.04666252 -0.01556121 0.01745032
v 0.04057822 -0.01556121 0.01955893
v 0.04271467 -0.01380023 0.02020563
v 0.04091040 -0.01556121 0.01976999
v 0.04636083 -0.01380023 0.01980555
v 0.04636083 -0.01556121 0.01980787
v 0.04659959 -0.01556121 0.01912059
v 0.04672286 -0.01556121 0.01876419
v 0.04226765 -0.01556121 0.02014881
v 0.04271467 -0.01556121 0.02019906
v 0.04358144 -0.01556121 0.02021838
v 0.04402846 -0.01556121 0.02022573
v 0.04402846 -0.01380023 0.02022264
v 0.04601503 -0.01556121 0.01994664
v 0.04534224 -0.01380023 0.02020640
v 0.04534224 -0.01556121 0.02021104
f 1 2 3
f 1 3 7
f 1 7 4
f 1 4 8
f 1 8 12
f 1 12 17
f 1 17 22
f 1 22 21
f 1 21 29
f 1 29 28
f 1 28 27
f 1 27 35
f 1 35 37
f 1 37 33
f 1 33 32
f 1 32 31
f 1 31 30
f 1 30 25
f 1 25 23
f 1 23 18
f 1 18 14
f 1 14 13
f 1 13 9
f 1 9 6
f 1 6 2
f 2 5 3
f 2 6 5
f 3 5 10
f 3 10 15
f 3 15 19
f 3 19 24
f 3 24 34
f 3 34 36
f 3 36 26
f 3 26 20
f 3 20 16
f 3 16 11
f 3 11 7
f 4 7 8
f 5 6 9
f 5 9 10
f 7 11 8
f 8 11 12
f 9 13 10
f 10 13 14
f 10 14 15
f 11 16 17
f 11 17 12
f 14 18 19
f 14 19 15
f 16 20 21
f 16 21 22
f 16 22 17
f 18 23 19
f 19 23 25
f 19 25 24
f 20 26 27
f 20 27 28
f 20 28 29
f 20 29 21
f 24 25 30
f 24 30 31
f 24 31 32
f 24 32 33
f 24 33 34
f 26 35 27
f 26 36 35
f 33 37 34
f 34 37 36
f 35 36 37

