# https://github.com/mikedh/trimesh
v 0.04271281 -0.01736175 0.01627714
v 0.04271281 -0.01556139 0.01627714
v 0.04534256 -0.01736175 0.01627714
v 0.02051517 -0.01736175 0.01635456
v 0.04140178 -0.01556139 0.01652792
v 0.04534256 -0.01556139 0.01627714
v 0.02051517 -0.01660653 0.01650733
v 0.02051517 -0.01646976 0.01653533
v 0.02051517 -0.01588604 0.01735189
v 0.02051517 -0.01581571 0.01745030
v 0.04566839 -0.01556139 0.01636485
v 0.04602244 -0.01736175 0.01646038
v 0.02051517 -0.01736175 0.02010586
v 0.04084505 -0.01556139 0.01670663
v 0.02051517 -0.01578293 0.01862305
v 0.04629953 -0.01556139 0.01653533
v 0.04629953 -0.01736175 0.01653533
v 0.02051517 -0.01726200 0.02007539
v 0.04402640 -0.01736175 0.02047152
v 0.04402640 -0.01556139 0.02022610
v 0.04357999 -0.01556139 0.02021869
v 0.04271281 -0.01556139 0.02019892
v 0.04031653 -0.01556139 0.01745030
v 0.02051517 -0.01577905 0.01876388
v 0.04642268 -0.01556139 0.01684622
v 0.04666128 -0.01736175 0.01745030
v 0.02051517 -0.01643328 0.01982174
v 0.04534256 -0.01736175 0.02048346
v 0.04534256 -0.01556139 0.02021087
v 0.04226640 -0.01556139 0.02014869
v 0.02051517 -0.01636296 0.01970850
v 0.04009332 -0.01556139 0.01876388
v 0.04090919 -0.01556139 0.01976985
v 0.04057566 -0.01556139 0.01955902
v 0.04042685 -0.01556139 0.01938401
v 0.04666128 -0.01556139 0.01745030
v 0.04672286 -0.01736175 0.01876388
v 0.04640472 -0.01736175 0.02002351
v 0.04636111 -0.01556139 0.01980774
v 0.04601475 -0.01556139 0.01994650
v 0.04672286 -0.01556139 0.01876388
v 0.04650735 -0.01736175 0.01972991
v 0.04659971 -0.01556139 0.01912048
f 1 2 6
f 1 6 3
f 1 3 12
f 1 12 17
f 1 17 26
f 1 26 37
f 1 37 42
f 1 42 38
f 1 38 28
f 1 28 19
f 1 19 13
f 1 13 4
f 1 4 2
f 2 5 14
f 2 14 23
f 2 23 32
f 2 32 35
f 2 35 34
f 2 34 33
f 2 33 30
f 2 30 22
f 2 22 21
f 2 21 20
f 2 20 29
f 2 29 40
f 2 40 39
f 2 39 43
f 2 43 41
f 2 41 36
f 2 36 25
f 2 25 16
f 2 16 11
f 2 11 6
f 2 4 7
f 2 7 8
f 2 8 9
f 2 9 10
f 2 10 5
f 3 6 11
f 3 11 12
f 4 13 18
f 4 18 27
f 4 27 31
f 4 31 24
f 4 24 15
f 4 15 10
f 4 10 9
f 4 9 8
f 4 8 7
f 5 10 14
f 10 15 14
f 11 16 12
f 12 16 17
f 13 19 20
f 13 20 21
f 13 21 22
f 13 22 18
f 14 15 24
f 14 24 23
f 16 25 17
f 17 25 26
f 18 22 27
f 19 28 20
f 20 28 29
f 22 30 24
f 22 24 31
f 22 31 27
f 23 24 32
f 24 30 33
f 24 33 34
f 24 34 35
f 24 35 32
f 25 36 26
f 26 36 41
f 26 41 37
f 28 38 39
f 28 39 40
f 28 40 29
f 37 41 42
f 38 42 39
f 39 42 43
f 41 43 42

