# https://github.com/mikedh/trimesh
v -0.01511420 0.00000000 0.01627714
v -0.01614864 0.00000000 0.01653514
v -0.01511420 0.00315552 0.01627714
v -0.01248589 0.00000000 0.01627714
v -0.01662437 0.00000000 0.01745012
v -0.01614864 0.00315552 0.01653514
v -0.01248589 0.00315552 0.01627714
v -0.01117174 0.00315552 0.01627753
v -0.01117174 0.00197127 0.01627830
v -0.01117174 0.00000000 0.01628487
v -0.01669948 0.00000000 0.01876407
v -0.01662437 0.00315552 0.01745012
v -0.00989264 0.00315552 0.01656643
v -0.01024032 0.00000000 0.01654248
v -0.01669948 0.00315552 0.01876407
v -0.01622375 0.00000000 0.01982195
v -0.00943623 0.00315552 0.01745012
v -0.00992269 0.00000000 0.01745012
v -0.01622375 0.00315552 0.01982195
v -0.01511420 0.00000000 0.02022286
v -0.00943480 0.00315552 0.01746982
v -0.00987834 0.00000000 0.01876407
v -0.01511420 0.00315552 0.02022286
v -0.01248589 0.00000000 0.02022286
v -0.00939116 0.00315552 0.01876407
v -0.00939188 0.00315552 0.01876909
v -0.01003715 0.00000000 0.01927351
v -0.01130194 0.00315552 0.02022286
v -0.01117174 0.00000000 0.02018346
v -0.01117174 0.00197127 0.02020857
v -0.01117174 0.00315552 0.02022131
v -0.00985401 0.00315552 0.01977715
v -0.01019668 0.00000000 0.01978256
v -0.01068385 0.00000000 0.01998301
v -0.01001283 0.00315552 0.01983779
f 1 2 6
f 1 6 3
f 1 3 7
f 1 7 4
f 1 4 10
f 1 10 14
f 1 14 18
f 1 18 22
f 1 22 27
f 1 27 33
f 1 33 34
f 1 34 29
f 1 29 24
f 1 24 20
f 1 20 16
f 1 16 11
f 1 11 5
f 1 5 2
f 2 5 12
f 2 12 6
f 3 6 12
f 3 12 15
f 3 15 19
f 3 19 23
f 3 23 28
f 3 28 31
f 3 31 35
f 3 35 32
f 3 32 26
f 3 26 25
f 3 25 21
f 3 21 17
f 3 17 13
f 3 13 8
f 3 8 7
f 4 7 8
f 4 8 9
f 4 9 10
f 5 11 15
f 5 15 12
f 8 13 9
f 9 13 10
f 10 13 14
f 11 16 19
f 11 19 15
f 13 17 14
f 14 17 18
f 16 20 23
f 16 23 19
f 17 21 18
f 18 21 22
f 20 24 28
f 20 28 23
f 21 25 22
f 22 25 26
f 22 26 27
f 24 29 30
f 24 30 31
f 24 31 28
f 26 32 33
f 26 33 27
f 29 34 32
f 29 32 35
f 29 35 30
f 30 35 31
f 32 34 33

