# https://github.com/mikedh/trimesh
v -0.03877029 -0.01736159 0.01635434
v -0.03944489 -0.01736159 0.01635765
v -0.03877029 -0.01646994 0.01653524
v -0.01824144 -0.01736159 0.01635434
v -0.03944489 -0.01638987 0.01655731
v -0.03944489 -0.01736159 0.02010589
v -0.01824144 -0.01637054 0.01655878
v -0.01905719 -0.01646994 0.01653524
v -0.01824144 -0.01702702 0.01642310
v -0.01824144 -0.01736159 0.02011067
v -0.03944489 -0.01579771 0.01745006
v -0.01824144 -0.01613245 0.01689154
v -0.03944489 -0.01635723 0.01980145
v -0.01874376 -0.01736159 0.02011067
v -0.01824144 -0.01675352 0.01993161
v -0.03944489 -0.01577497 0.01876235
v -0.01824144 -0.01570270 0.01876419
v -0.01824144 -0.01577367 0.01752617
v -0.01824144 -0.01578050 0.01745006
v -0.03944489 -0.01607349 0.01934257
v -0.01824144 -0.01663349 0.01989484
v -0.01824144 -0.01634131 0.01980512
v -0.01824144 -0.01574931 0.01888920
v -0.03944489 -0.01577530 0.01876419
f 1 2 3
f 1 3 8
f 1 8 4
f 1 4 10
f 1 10 14
f 1 14 6
f 1 6 2
f 2 5 3
f 2 6 13
f 2 13 20
f 2 20 24
f 2 24 16
f 2 16 11
f 2 11 5
f 3 5 7
f 3 7 8
f 4 8 9
f 4 9 7
f 4 7 12
f 4 12 19
f 4 19 18
f 4 18 17
f 4 17 23
f 4 23 22
f 4 22 21
f 4 21 15
f 4 15 10
f 5 11 12
f 5 12 7
f 6 14 15
f 6 15 13
f 7 9 8
f 10 15 14
f 11 16 17
f 11 17 18
f 11 18 19
f 11 19 12
f 13 15 21
f 13 21 22
f 13 22 23
f 13 23 20
f 16 24 17
f 17 24 23
f 20 23 24

