# https://github.com/mikedh/trimesh
v 0.00003689 0.01736175 0.02022286
v 0.00003689 0.01248659 0.02022286
v 0.00003689 0.01736175 0.01627714
v -0.01379823 0.01736175 0.02022286
v 0.00003689 0.01117291 0.02018308
v -0.00944169 0.00764376 0.02022286
v 0.00003689 0.01248659 0.01627714
v -0.01604677 0.01736175 0.01627714
v -0.01511263 0.01736175 0.02021745
v -0.01511263 0.01248659 0.02022286
v -0.00854227 0.00764376 0.02016956
v -0.00812894 0.00764376 0.02014484
v 0.00003689 0.01071250 0.01999382
v -0.01511263 0.00764376 0.02022286
v 0.00003689 0.01117291 0.01628525
v -0.00197357 0.01117291 0.01627830
v -0.00985502 0.00764376 0.01627714
v -0.01511263 0.00764376 0.01627714
v -0.01685359 0.01736175 0.01630959
v -0.01642703 0.01736175 0.02017960
v -0.00686744 0.00764376 0.01979298
v 0.00003689 0.01019787 0.01978217
v -0.01685359 0.01736175 0.02011046
v -0.01622367 0.00764376 0.01982195
v 0.00003689 0.01024163 0.01654287
v -0.00854227 0.00764376 0.01630881
v -0.01614762 0.00764376 0.01653514
v -0.01685359 0.01685188 0.01635207
v -0.00654835 0.00764376 0.01962111
v 0.00003689 0.01004757 0.01930170
v -0.01685359 0.01638862 0.01999267
v -0.01654938 0.00764376 0.01909739
v 0.00003689 0.00992391 0.01745051
v -0.00660456 0.00764376 0.01665333
v -0.00726755 0.00764376 0.01648918
v -0.01662378 0.00764376 0.01745051
v -0.01685359 0.01554771 0.01657222
v -0.00645576 0.00764376 0.01948825
v 0.00003689 0.00988015 0.01876368
v -0.01685359 0.01532607 0.01967480
v -0.01669653 0.00764376 0.01876368
v 0.00003689 0.00990013 0.01814417
v -0.00631853 0.00764376 0.01745051
v -0.01685359 0.01543451 0.01666028
v -0.00628381 0.00764376 0.01876098
v -0.01685359 0.01467066 0.01876368
v -0.01685359 0.01485330 0.01745051
f 1 2 5
f 1 5 13
f 1 13 22
f 1 22 30
f 1 30 39
f 1 39 42
f 1 42 33
f 1 33 25
f 1 25 15
f 1 15 7
f 1 7 3
f 1 3 8
f 1 8 19
f 1 19 23
f 1 23 20
f 1 20 9
f 1 9 4
f 1 4 10
f 1 10 14
f 1 14 6
f 1 6 2
f 2 6 5
f 3 7 17
f 3 17 18
f 3 18 8
f 4 9 10
f 5 6 11
f 5 11 12
f 5 12 13
f 6 14 24
f 6 24 32
f 6 32 41
f 6 41 36
f 6 36 27
f 6 27 18
f 6 18 17
f 6 17 26
f 6 26 35
f 6 35 34
f 6 34 43
f 6 43 45
f 6 45 38
f 6 38 29
f 6 29 21
f 6 21 12
f 6 12 11
f 7 15 16
f 7 16 17
f 8 18 19
f 9 20 10
f 10 20 14
f 12 21 22
f 12 22 13
f 14 20 23
f 14 23 24
f 15 25 26
f 15 26 17
f 15 17 16
f 18 27 19
f 19 28 37
f 19 37 44
f 19 44 47
f 19 47 46
f 19 46 40
f 19 40 31
f 19 31 23
f 19 27 28
f 21 29 22
f 22 29 30
f 23 31 24
f 24 31 32
f 25 33 34
f 25 34 35
f 25 35 26
f 27 36 28
f 28 36 37
f 29 38 39
f 29 39 30
f 31 40 41
f 31 41 32
f 33 42 43
f 33 43 34
f 36 41 37
f 37 41 44
f 38 45 39
f 39 45 43
f 39 43 42
f 40 46 41
f 41 46 47
f 41 47 44

