# https://github.com/mikedh/trimesh
v 0.04138104 -0.02031608 0.02048841
v 0.04138104 -0.02114400 0.02189495
v 0.04138104 -0.02038604 0.02048620
v 0.04008319 -0.02031691 0.02048620
v 0.00573908 -0.02031691 0.02048620
v 0.04138104 -0.02872286 0.02189495
v 0.00573908 -0.02114647 0.02189495
v 0.04138104 -0.02872286 0.02048620
v 0.00573908 -0.02872286 0.02048620
v 0.00573908 -0.02872286 0.02189495
f 1 2 6
f 1 6 8
f 1 8 3
f 1 3 4
f 1 4 5
f 1 5 2
f 2 5 7
f 2 7 10
f 2 10 6
f 3 8 9
f 3 9 5
f 3 5 4
f 5 9 10
f 5 10 7
f 6 10 9
f 6 9 8

