# https://github.com/mikedh/trimesh
v 0.04138104 -0.02872175 0.02048620
v 0.04402894 -0.02872175 0.02048620
v 0.04138104 -0.02872175 0.02189495
v 0.04138104 -0.02038572 0.02048620
v 0.04443575 -0.02870951 0.02048620
v 0.04402894 -0.02872175 0.02189495
v 0.04138104 -0.02114395 0.02189495
v 0.04138104 -0.02031568 0.02048841
v 0.04138940 -0.02031234 0.02048620
v 0.04453039 -0.02870618 0.02189495
v 0.04534243 -0.02867505 0.02048620
v 0.04534243 -0.02868061 0.02139282
v 0.04534243 -0.02868061 0.02189495
v 0.04320905 -0.01826781 0.02189495
v 0.04277558 -0.01780420 0.02048620
v 0.04565826 -0.02850161 0.02048620
v 0.04636102 -0.02811917 0.02139282
v 0.04636102 -0.02811917 0.02189495
v 0.04370580 -0.01805212 0.02189495
v 0.04402894 -0.01793316 0.02189495
v 0.04402894 -0.01741842 0.02048620
v 0.04635422 -0.02811361 0.02048620
v 0.04660364 -0.02730758 0.02048620
v 0.04671606 -0.02694181 0.02048620
v 0.04672286 -0.02694181 0.02139282
v 0.04672286 -0.02694181 0.02189495
v 0.04534243 -0.01773527 0.02189495
v 0.04534034 -0.01736505 0.02048620
v 0.04672286 -0.02603572 0.02048620
v 0.04672286 -0.02037238 0.02189495
v 0.04633592 -0.01806991 0.02189495
v 0.04639762 -0.01782310 0.02048620
v 0.04672286 -0.02037238 0.02048620
v 0.04671397 -0.01946518 0.02048620
v 0.04670613 -0.01905716 0.02048620
v 0.04669724 -0.01905716 0.02189495
v 0.04647396 -0.01844013 0.02189495
v 0.04650429 -0.01811883 0.02048620
f 1 2 6
f 1 6 3
f 1 3 7
f 1 7 8
f 1 8 4
f 1 4 9
f 1 9 15
f 1 15 21
f 1 21 28
f 1 28 32
f 1 32 38
f 1 38 35
f 1 35 34
f 1 34 33
f 1 33 29
f 1 29 24
f 1 24 23
f 1 23 22
f 1 22 16
f 1 16 11
f 1 11 5
f 1 5 2
f 2 5 6
f 3 6 10
f 3 10 13
f 3 13 18
f 3 18 26
f 3 26 30
f 3 30 36
f 3 36 37
f 3 37 31
f 3 31 27
f 3 27 20
f 3 20 19
f 3 19 14
f 3 14 7
f 4 8 9
f 5 10 6
f 5 11 12
f 5 12 13
f 5 13 10
f 7 14 15
f 7 15 8
f 8 15 9
f 11 16 12
f 12 16 17
f 12 17 18
f 12 18 13
f 14 19 15
f 15 19 20
f 15 20 21
f 16 22 17
f 17 22 23
f 17 23 24
f 17 24 25
f 17 25 26
f 17 26 18
f 20 27 21
f 21 27 28
f 24 29 25
f 25 29 33
f 25 33 30
f 25 30 26
f 27 31 28
f 28 31 32
f 30 33 34
f 30 34 35
f 30 35 36
f 31 37 32
f 32 37 36
f 32 36 38
f 35 38 36

