# https://github.com/mikedh/trimesh
v -0.04005115 -0.02447274 0.01631050
v -0.04005115 -0.02299978 0.01628526
v -0.03754099 -0.02168604 0.01627759
v -0.03993688 -0.02447274 0.01633215
v -0.04005115 -0.02447274 0.02088291
v -0.04005115 -0.02168604 0.01627759
v -0.03754099 -0.02030208 0.01627759
v -0.03754099 -0.02270951 0.01653232
v -0.03909992 -0.02447274 0.01655982
v -0.03754099 -0.02447274 0.02088291
v -0.04005115 -0.02096956 0.02088291
v -0.04005115 -0.02030412 0.01627759
v -0.03884067 -0.02030208 0.01627759
v -0.03754099 -0.02030208 0.02047941
v -0.03754099 -0.02447274 0.01750974
v -0.03754099 -0.02096956 0.02088291
v -0.04005115 -0.02030208 0.02047941
v -0.04005115 -0.02030208 0.02037932
f 1 2 3
f 1 3 4
f 1 4 9
f 1 9 15
f 1 15 10
f 1 10 5
f 1 5 11
f 1 11 17
f 1 17 18
f 1 18 12
f 1 12 6
f 1 6 2
f 2 6 3
f 3 6 12
f 3 12 13
f 3 13 7
f 3 7 14
f 3 14 16
f 3 16 10
f 3 10 15
f 3 15 8
f 3 8 4
f 4 8 9
f 5 10 16
f 5 16 11
f 7 13 18
f 7 18 17
f 7 17 14
f 8 15 9
f 11 16 14
f 11 14 17
f 12 18 13

