# https://github.com/mikedh/trimesh
v 0.00573908 -0.02030208 0.02047941
v 0.00573908 -0.02096974 0.02088291
v 0.00573908 -0.02030208 0.01627759
v -0.03480397 -0.02030208 0.02047941
v 0.00573908 -0.02872286 0.02088291
v -0.03354989 -0.02096974 0.02088291
v 0.00573908 -0.02694243 0.01627759
v -0.03358164 -0.02030208 0.01627759
v -0.03480397 -0.02030208 0.02041224
v -0.03480397 -0.02096974 0.02088246
v 0.00573908 -0.02872286 0.01876397
v -0.03480397 -0.02872286 0.02088291
v -0.03480397 -0.02120713 0.02088291
v 0.00573908 -0.02791424 0.01650076
v -0.03480397 -0.02696303 0.01628210
v -0.03480397 -0.02694243 0.01627759
v -0.03480397 -0.02030373 0.01627759
v 0.00573908 -0.02862477 0.01745023
v -0.03480397 -0.02872286 0.01876397
v -0.03480397 -0.02862724 0.01747502
v 0.00573908 -0.02806344 0.01653502
v -0.03480397 -0.02806344 0.01653502
v 0.00573908 -0.02855058 0.01732805
v -0.03480397 -0.02862477 0.01745023
v -0.03480397 -0.02807415 0.01655215
f 1 2 5
f 1 5 11
f 1 11 18
f 1 18 23
f 1 23 21
f 1 21 14
f 1 14 7
f 1 7 3
f 1 3 8
f 1 8 9
f 1 9 4
f 1 4 6
f 1 6 2
f 2 6 13
f 2 13 12
f 2 12 5
f 3 7 16
f 3 16 17
f 3 17 8
f 4 9 17
f 4 17 16
f 4 16 15
f 4 15 22
f 4 22 25
f 4 25 24
f 4 24 20
f 4 20 19
f 4 19 12
f 4 12 13
f 4 13 10
f 4 10 6
f 5 12 19
f 5 19 11
f 6 10 13
f 7 14 15
f 7 15 16
f 8 17 9
f 11 19 20
f 11 20 18
f 14 21 15
f 15 21 22
f 18 20 24
f 18 24 23
f 21 23 25
f 21 25 22
f 23 24 25

