# https://github.com/mikedh/trimesh
v -0.04124523 0.01397427 0.01876423
v -0.03875527 0.01577861 0.01876423
v -0.03875527 0.01643322 0.01982177
v -0.04124523 0.01529975 0.01976454
v -0.04124523 0.01399981 0.01853645
v -0.03875527 0.01581542 0.01745030
v -0.03875527 0.01644450 0.01982553
v -0.03875527 0.01644914 0.01982704
v -0.03875527 0.01736175 0.02010601
v -0.04124523 0.01658278 0.02008116
v -0.04124523 0.01418717 0.01745030
v -0.03875527 0.01646970 0.01653507
v -0.04046667 0.01736175 0.02017604
v -0.03875527 0.01736175 0.01635436
v -0.04124523 0.01736175 0.02017792
v -0.04124523 0.01532529 0.01661488
v -0.03875527 0.01735048 0.01635662
v -0.04124523 0.01641498 0.01641723
v -0.04124523 0.01723806 0.01634306
v -0.04124523 0.01736175 0.01633215
f 1 2 3
f 1 3 4
f 1 4 10
f 1 10 15
f 1 15 20
f 1 20 19
f 1 19 18
f 1 18 16
f 1 16 11
f 1 11 5
f 1 5 6
f 1 6 2
f 2 6 12
f 2 12 17
f 2 17 14
f 2 14 9
f 2 9 8
f 2 8 7
f 2 7 3
f 3 7 4
f 4 7 8
f 4 8 9
f 4 9 10
f 5 11 6
f 6 11 12
f 9 13 10
f 9 14 20
f 9 20 15
f 9 15 13
f 10 13 15
f 11 16 12
f 12 16 17
f 14 17 16
f 14 16 18
f 14 18 19
f 14 19 20

