# https://github.com/mikedh/trimesh
v 0.01117179 -0.00591445 0.01627714
v 0.01248590 -0.00866206 0.01634705
v 0.01116800 -0.00591445 0.01627753
v 0.01117179 -0.00562024 0.01627714
v 0.01380000 -0.00866206 0.01627714
v 0.01118099 -0.00866206 0.01651892
v 0.01116800 -0.00866027 0.01651854
v 0.01116800 -0.00562024 0.01627753
v 0.01511411 -0.00562024 0.01627714
v 0.01511411 -0.00866206 0.01627714
v 0.01116800 -0.00866206 0.01662668
v 0.01116800 -0.00562024 0.01976865
v 0.01614828 -0.00562024 0.01653514
v 0.01614828 -0.00866206 0.01653514
v 0.01116800 -0.00866206 0.01883861
v 0.01116800 -0.00562262 0.01985942
v 0.01117612 -0.00562024 0.01985980
v 0.01662422 -0.00562024 0.01745012
v 0.01619160 -0.00866206 0.01661818
v 0.01116800 -0.00601986 0.01973196
v 0.01269652 -0.00866206 0.01972076
v 0.01366085 -0.00866206 0.02008188
v 0.01380000 -0.00866206 0.02011317
v 0.01248590 -0.00562024 0.02005253
v 0.01669948 -0.00562024 0.01876407
v 0.01663126 -0.00866206 0.01756946
v 0.01662422 -0.00866206 0.01745012
v 0.01380000 -0.00591445 0.02020470
v 0.01499499 -0.00866206 0.02021977
v 0.01380000 -0.00562024 0.02020857
v 0.01669948 -0.00866206 0.01876407
v 0.01633021 -0.00562024 0.01958519
v 0.01511411 -0.00866206 0.02022286
v 0.01511411 -0.00562024 0.02022286
v 0.01622354 -0.00866206 0.01982195
v 0.01622354 -0.00562024 0.01982195
f 1 2 3
f 1 3 8
f 1 8 4
f 1 4 9
f 1 9 10
f 1 10 5
f 1 5 2
f 2 6 7
f 2 7 3
f 2 5 10
f 2 10 14
f 2 14 19
f 2 19 27
f 2 27 26
f 2 26 31
f 2 31 35
f 2 35 33
f 2 33 29
f 2 29 23
f 2 23 22
f 2 22 21
f 2 21 15
f 2 15 11
f 2 11 6
f 3 7 11
f 3 11 15
f 3 15 20
f 3 20 16
f 3 16 12
f 3 12 8
f 4 8 12
f 4 12 17
f 4 17 24
f 4 24 30
f 4 30 34
f 4 34 36
f 4 36 32
f 4 32 25
f 4 25 18
f 4 18 13
f 4 13 9
f 6 11 7
f 9 13 14
f 9 14 10
f 12 16 17
f 13 18 19
f 13 19 14
f 15 21 20
f 16 20 21
f 16 21 22
f 16 22 23
f 16 23 24
f 16 24 17
f 18 25 26
f 18 26 27
f 18 27 19
f 23 28 24
f 23 29 28
f 24 28 30
f 25 31 26
f 25 32 31
f 28 29 30
f 29 33 30
f 30 33 34
f 31 32 35
f 32 36 35
f 33 35 36
f 33 36 34

