# https://github.com/mikedh/trimesh
v -0.00854209 -0.00956201 0.01627714
v -0.00854209 -0.00854290 0.01627714
v -0.00752363 -0.00956201 0.01627714
v -0.01097533 -0.00956201 0.01634360
v -0.00854209 -0.00829821 0.01628598
v -0.00620980 -0.00956201 0.01628828
v -0.01097533 -0.00956201 0.01948707
v -0.01097533 -0.00849144 0.01654220
v -0.00880933 -0.00829821 0.01631748
v -0.00747316 -0.00829821 0.01632286
v -0.00490093 -0.00956201 0.01641966
v -0.01097533 -0.00915118 0.01921625
v -0.00964164 -0.00956201 0.01985624
v -0.00854209 -0.00829821 0.01996226
v -0.00946459 -0.00829821 0.01959310
v -0.01097533 -0.00830353 0.01691559
v -0.00991384 -0.00829821 0.01648958
v -0.00619904 -0.00829821 0.01652761
v -0.00379229 -0.00956201 0.01659829
v -0.01097533 -0.00844653 0.01867230
v -0.00854209 -0.00956201 0.02011131
v -0.00824756 -0.00956201 0.02014627
v -0.00722826 -0.00854290 0.02012783
v -0.00723571 -0.00829821 0.02005830
v -0.01097533 -0.00829821 0.01822323
v -0.01097533 -0.00829821 0.01692635
v -0.00608487 -0.00829821 0.01656986
v -0.00389157 -0.00918099 0.01677077
v -0.00359869 -0.00956201 0.01665591
v -0.00722826 -0.00956201 0.02020159
v -0.00591857 -0.00956201 0.02012476
v -0.00460061 -0.00956201 0.01990925
v -0.00593181 -0.00851618 0.01982858
v -0.00605674 -0.00829821 0.01976097
v -0.00548256 -0.00829821 0.01732894
v -0.00271508 -0.00956201 0.01745033
v -0.00355732 -0.00956201 0.01965533
v -0.00386096 -0.00916887 0.01946940
v -0.00536342 -0.00829821 0.01876411
v -0.00542464 -0.00829821 0.01745033
v -0.00252396 -0.00956201 0.01876411
v -0.00537749 -0.00829821 0.01844949
f 1 2 3
f 1 3 6
f 1 6 11
f 1 11 19
f 1 19 29
f 1 29 36
f 1 36 41
f 1 41 37
f 1 37 32
f 1 32 31
f 1 31 30
f 1 30 22
f 1 22 21
f 1 21 13
f 1 13 7
f 1 7 4
f 1 4 2
f 2 4 5
f 2 5 6
f 2 6 3
f 4 7 12
f 4 12 20
f 4 20 25
f 4 25 26
f 4 26 16
f 4 16 8
f 4 8 9
f 4 9 5
f 5 9 17
f 5 17 26
f 5 26 25
f 5 25 15
f 5 15 14
f 5 14 24
f 5 24 34
f 5 34 39
f 5 39 42
f 5 42 40
f 5 40 35
f 5 35 27
f 5 27 18
f 5 18 10
f 5 10 6
f 6 10 11
f 7 13 14
f 7 14 15
f 7 15 12
f 8 16 17
f 8 17 9
f 10 18 11
f 11 18 19
f 12 15 20
f 13 21 14
f 14 21 22
f 14 22 23
f 14 23 24
f 15 25 20
f 16 26 17
f 18 27 28
f 18 28 29
f 18 29 19
f 22 30 23
f 23 30 31
f 23 31 32
f 23 32 24
f 24 32 33
f 24 33 34
f 27 35 28
f 28 36 29
f 28 35 36
f 32 37 33
f 33 37 34
f 34 37 38
f 34 38 39
f 35 40 36
f 36 40 41
f 37 41 38
f 38 41 39
f 39 41 42
f 40 42 41

