# https://github.com/mikedh/trimesh
v 0.03866414 0.01752791 0.02015611
v 0.03866414 0.01756298 0.01631458
v 0.03874066 0.01578044 0.01876315
v 0.03874066 0.01642625 0.01980831
v 0.04271322 0.01379627 0.02020574
v 0.03866414 0.02072772 0.02072418
v 0.03866414 0.02037267 0.01627714
v 0.04271322 0.01379627 0.01627714
v 0.03874066 0.01648615 0.01653223
v 0.03874066 0.01582427 0.01743940
v 0.04128780 0.01379627 0.01876315
v 0.04168064 0.01379627 0.01980526
v 0.04402742 0.01379627 0.02022271
v 0.04419859 0.01752791 0.02072418
v 0.04301455 0.01786981 0.02072418
v 0.03866414 0.02872286 0.02072418
v 0.03866414 0.02168620 0.01627758
v 0.04008719 0.02694178 0.01627714
v 0.04534240 0.01379627 0.01627714
v 0.04154496 0.01379627 0.01699365
v 0.04585120 0.01379627 0.02000550
v 0.04592693 0.01769448 0.02072418
v 0.04402742 0.02872286 0.02072418
v 0.03866414 0.02872286 0.01876402
v 0.03866414 0.02834297 0.01699321
v 0.03871857 0.02696369 0.01632981
v 0.04402742 0.02694178 0.01627714
v 0.04630162 0.01736427 0.01653528
v 0.04648147 0.01379627 0.01699365
v 0.04534240 0.02562532 0.01627714
v 0.04672286 0.01379627 0.01876315
v 0.04670314 0.01906061 0.02072418
v 0.04402742 0.02872286 0.01876402
v 0.04672049 0.02562532 0.02072418
v 0.04635289 0.02811212 0.02040119
v 0.04534240 0.02867318 0.02040119
v 0.04402742 0.02834297 0.01699321
v 0.04534240 0.02694178 0.01628062
v 0.04648147 0.02562532 0.01699321
v 0.04670156 0.01736427 0.01829781
v 0.04672049 0.02562532 0.01876402
v 0.04672049 0.02037267 0.02072418
v 0.04534240 0.02861766 0.01876402
v 0.04534240 0.02825823 0.01699495
v 0.04671418 0.02694178 0.02040119
v 0.04669604 0.02694178 0.01876402
v 0.04633475 0.02805660 0.01876402
v 0.04635684 0.02742832 0.01701672
f 1 2 3
f 1 3 4
f 1 4 5
f 1 5 6
f 1 6 16
f 1 16 24
f 1 24 25
f 1 25 17
f 1 17 7
f 1 7 2
f 2 7 8
f 2 8 9
f 2 9 10
f 2 10 3
f 3 10 11
f 3 11 12
f 3 12 4
f 4 12 5
f 5 12 11
f 5 11 20
f 5 20 8
f 5 8 19
f 5 19 29
f 5 29 31
f 5 31 21
f 5 21 13
f 5 13 14
f 5 14 15
f 5 15 6
f 6 15 14
f 6 14 22
f 6 22 32
f 6 32 42
f 6 42 34
f 6 34 23
f 6 23 16
f 7 17 18
f 7 18 27
f 7 27 30
f 7 30 19
f 7 19 8
f 8 20 9
f 9 20 10
f 10 20 11
f 13 21 22
f 13 22 14
f 16 23 33
f 16 33 24
f 17 25 26
f 17 26 18
f 18 26 25
f 18 25 37
f 18 37 27
f 19 28 29
f 19 30 28
f 21 31 32
f 21 32 22
f 23 34 35
f 23 35 36
f 23 36 33
f 24 33 37
f 24 37 25
f 27 38 30
f 27 37 38
f 28 30 38
f 28 38 39
f 28 39 29
f 29 39 40
f 29 40 31
f 31 40 41
f 31 41 34
f 31 34 42
f 31 42 32
f 33 36 43
f 33 43 44
f 33 44 37
f 34 41 45
f 34 45 35
f 35 45 46
f 35 46 47
f 35 47 43
f 35 43 36
f 37 44 38
f 38 44 48
f 38 48 39
f 39 48 46
f 39 46 41
f 39 41 40
f 41 46 45
f 43 47 44
f 44 47 48
f 46 48 47

