# https://github.com/mikedh/trimesh
v 0.03242379 0.02516020 0.01627714
v 0.03242379 0.02516020 0.02072418
v 0.03242379 0.02694257 0.01627714
v 0.03351476 0.02516020 0.01627714
v 0.03242379 0.02872286 0.02072418
v 0.03866353 0.02516020 0.02072418
v 0.03242379 0.02787299 0.01649131
v 0.03482867 0.02694257 0.01627714
v 0.03482867 0.02516020 0.01629107
v 0.03242379 0.02872286 0.01876402
v 0.03866353 0.02872286 0.02072418
v 0.03866353 0.02516020 0.01685000
v 0.03242379 0.02806375 0.01653528
v 0.03866353 0.02806375 0.01653528
v 0.03866353 0.02703429 0.01634157
v 0.03866353 0.02694257 0.01632807
v 0.03866353 0.02581059 0.01652309
v 0.03866353 0.02572096 0.01655008
v 0.03242379 0.02862521 0.01745028
v 0.03866353 0.02872286 0.01876402
v 0.03866353 0.02863323 0.01755736
v 0.03242379 0.02852966 0.01729444
v 0.03866353 0.02810978 0.01660971
v 0.03866353 0.02862521 0.01745028
f 1 2 5
f 1 5 10
f 1 10 19
f 1 19 22
f 1 22 13
f 1 13 7
f 1 7 3
f 1 3 8
f 1 8 4
f 1 4 9
f 1 9 12
f 1 12 6
f 1 6 2
f 2 6 11
f 2 11 5
f 3 7 8
f 4 8 9
f 5 11 20
f 5 20 10
f 6 12 18
f 6 18 17
f 6 17 16
f 6 16 15
f 6 15 14
f 6 14 23
f 6 23 24
f 6 24 21
f 6 21 20
f 6 20 11
f 7 13 14
f 7 14 8
f 8 14 15
f 8 15 16
f 8 16 9
f 9 16 17
f 9 17 18
f 9 18 12
f 10 20 21
f 10 21 19
f 13 22 23
f 13 23 14
f 19 21 24
f 19 24 22
f 22 24 23

