# https://github.com/mikedh/trimesh
v 0.01669841 -0.00866206 0.01876368
v 0.01687559 -0.01478373 0.01876368
v 0.01682085 -0.01478373 0.01741690
v 0.01663071 -0.00866206 0.01756946
v 0.01622306 -0.00866206 0.01982195
v 0.01639304 -0.01478373 0.01977947
v 0.01662351 -0.00866206 0.01745051
v 0.01635703 -0.01478373 0.01656141
v 0.01616977 -0.00866206 0.01657686
v 0.01511392 -0.00866206 0.02022286
v 0.01511392 -0.01248489 0.02022286
v 0.01511392 -0.01478373 0.02019235
v 0.01604445 -0.01478373 0.01648300
v 0.01511392 -0.00866206 0.01627714
v 0.00723035 -0.00866206 0.02013711
v 0.00591523 -0.00985763 0.02020857
v 0.00723035 -0.00985763 0.02022286
v 0.01379879 -0.01478373 0.02022286
v 0.01412865 -0.01478373 0.02021822
v 0.01511392 -0.01478373 0.01627714
v 0.00854548 -0.00866206 0.01627714
v 0.00711224 -0.00866206 0.02013557
v 0.00215998 -0.01117186 0.02021050
v 0.00328641 -0.01117186 0.02022286
v 0.00215998 -0.01478373 0.02022286
v 0.00215998 -0.01478373 0.01627714
v 0.00723035 -0.00866206 0.01631847
v 0.00328641 -0.01117186 0.01627714
v 0.00215998 -0.01117186 0.01627830
v 0.00578703 -0.00866206 0.01985285
v 0.00215998 -0.01007517 0.01980303
v 0.00215998 -0.01098728 0.02014947
v 0.00215998 -0.01229671 0.02022286
v 0.00215998 -0.01248489 0.01627714
v 0.00594403 -0.00866206 0.01649729
v 0.00215998 -0.01013390 0.01654094
v 0.00550902 -0.00866206 0.01977097
v 0.00215998 -0.01000146 0.01964042
v 0.00385683 -0.00916845 0.01947164
v 0.00559113 -0.00866206 0.01655368
v 0.00215998 -0.00971920 0.01745051
v 0.00388852 -0.00918044 0.01676920
v 0.00498614 -0.00866206 0.01931290
v 0.00215998 -0.00965987 0.01876368
v 0.00480608 -0.00866206 0.01745051
v 0.00215998 -0.00966646 0.01855782
v 0.00474558 -0.00866206 0.01876368
v 0.00475423 -0.00866206 0.01856980
f 1 2 3
f 1 3 4
f 1 4 7
f 1 7 9
f 1 9 14
f 1 14 21
f 1 21 27
f 1 27 35
f 1 35 40
f 1 40 45
f 1 45 48
f 1 48 47
f 1 47 43
f 1 43 37
f 1 37 30
f 1 30 22
f 1 22 15
f 1 15 10
f 1 10 5
f 1 5 2
f 2 5 6
f 2 6 12
f 2 12 19
f 2 19 18
f 2 18 25
f 2 25 26
f 2 26 20
f 2 20 13
f 2 13 8
f 2 8 3
f 3 7 4
f 3 8 9
f 3 9 7
f 5 10 6
f 6 10 11
f 6 11 12
f 8 13 14
f 8 14 9
f 10 15 16
f 10 16 17
f 10 17 24
f 10 24 33
f 10 33 25
f 10 25 18
f 10 18 11
f 11 18 19
f 11 19 12
f 13 20 14
f 14 20 26
f 14 26 34
f 14 34 28
f 14 28 21
f 15 22 16
f 16 22 23
f 16 23 24
f 16 24 17
f 21 28 29
f 21 29 27
f 22 30 31
f 22 31 32
f 22 32 23
f 23 32 31
f 23 31 38
f 23 38 44
f 23 44 46
f 23 46 41
f 23 41 36
f 23 36 29
f 23 29 34
f 23 34 26
f 23 26 25
f 23 25 33
f 23 33 24
f 27 29 36
f 27 36 35
f 28 34 29
f 30 37 31
f 31 37 39
f 31 39 38
f 35 36 40
f 36 41 42
f 36 42 40
f 37 43 39
f 38 39 44
f 39 43 44
f 40 42 45
f 41 46 45
f 41 45 42
f 43 47 44
f 44 47 48
f 44 48 45
f 44 45 46

