# https://github.com/mikedh/trimesh
v 0.01669948 0.00512727 0.01876407
v 0.01669948 0.00000000 0.01876407
v 0.01662426 0.00512727 0.01745012
v 0.01622307 0.00512727 0.01982195
v 0.01662426 0.00000000 0.01745012
v 0.01622307 0.00000000 0.01982195
v 0.01614865 0.00512727 0.01653514
v 0.01566900 0.00000000 0.02002240
v 0.01511413 0.00512727 0.02022286
v 0.01614865 0.00000000 0.01653514
v 0.01573371 0.00512727 0.01643163
v 0.01511413 0.00000000 0.02022286
v 0.01117178 0.00512727 0.02022286
v 0.01511413 0.00000000 0.01627714
v 0.01511413 0.00512727 0.01627714
v 0.01248617 0.00000000 0.02022286
v 0.00985739 0.00512727 0.02011085
v 0.01117178 0.00328534 0.02022286
v 0.01248617 0.00000000 0.01627714
v 0.01117178 0.00512727 0.01627714
v 0.01117178 0.00197191 0.02020818
v 0.01117178 0.00000000 0.02018230
v 0.00879537 0.00512727 0.01971806
v 0.01117178 0.00000000 0.01628525
v 0.01117178 0.00197191 0.01627830
v 0.01117178 0.00328534 0.01627714
v 0.01064441 0.00512727 0.01627792
v 0.01019792 0.00000000 0.01978140
v 0.00843705 0.00512727 0.01876407
v 0.01024160 0.00000000 0.01654325
v 0.00933973 0.00512727 0.01644090
v 0.00985739 0.00512727 0.01634473
v 0.00988085 0.00000000 0.01876407
v 0.00845403 0.00512727 0.01812872
v 0.00992453 0.00000000 0.01745012
v 0.00858507 0.00512727 0.01705501
v 0.00882691 0.00512727 0.01659771
v 0.00847264 0.00512727 0.01745012
f 1 2 5
f 1 5 3
f 1 3 7
f 1 7 11
f 1 11 15
f 1 15 20
f 1 20 27
f 1 27 32
f 1 32 31
f 1 31 37
f 1 37 36
f 1 36 38
f 1 38 34
f 1 34 29
f 1 29 23
f 1 23 17
f 1 17 13
f 1 13 9
f 1 9 4
f 1 4 6
f 1 6 2
f 2 6 8
f 2 8 12
f 2 12 16
f 2 16 22
f 2 22 28
f 2 28 33
f 2 33 35
f 2 35 30
f 2 30 24
f 2 24 19
f 2 19 14
f 2 14 10
f 2 10 5
f 3 5 10
f 3 10 7
f 4 8 6
f 4 9 8
f 7 10 11
f 8 9 12
f 9 13 18
f 9 18 16
f 9 16 12
f 10 14 11
f 11 14 15
f 13 17 18
f 14 19 26
f 14 26 20
f 14 20 15
f 16 18 21
f 16 21 22
f 17 23 22
f 17 22 21
f 17 21 18
f 19 24 25
f 19 25 26
f 20 26 27
f 22 23 28
f 23 29 28
f 24 30 31
f 24 31 32
f 24 32 27
f 24 27 25
f 25 27 26
f 28 29 33
f 29 34 33
f 30 35 36
f 30 36 37
f 30 37 31
f 33 34 38
f 33 38 35
f 35 38 36

