# https://github.com/mikedh/trimesh
v -0.01511394 -0.01736151 0.01627714
v -0.01824144 -0.01736151 0.01635439
v -0.01511394 -0.01486612 0.01627714
v 0.00003689 -0.01736151 0.01627714
v -0.01824144 -0.01736151 0.02011046
v -0.01824144 -0.01725989 0.01637524
v -0.01824144 -0.01702684 0.01642314
v -0.01824144 -0.01637044 0.01655870
v -0.01637352 -0.01486612 0.01656295
v 0.00003689 -0.01486612 0.01627714
v 0.00003689 -0.01736151 0.02022286
v -0.01824144 -0.01675348 0.01993125
v -0.01736116 -0.01736151 0.02017960
v -0.01511394 -0.01486612 0.02019119
v -0.01824144 -0.01613226 0.01689163
v -0.01685839 -0.01486612 0.01745012
v -0.01824144 -0.01578049 0.01745012
v 0.00003689 -0.01486612 0.02022286
v -0.01473284 -0.01736151 0.02022286
v -0.01824144 -0.01634112 0.01980534
v -0.01604610 -0.01736151 0.02021745
v -0.01379889 -0.01486612 0.02022286
v -0.01617671 -0.01486612 0.01986251
v -0.01686018 -0.01486612 0.01745823
v -0.01824144 -0.01577365 0.01752621
v -0.01824144 -0.01574946 0.01888921
v -0.01640931 -0.01486612 0.01977715
v -0.01697290 -0.01486612 0.01876407
v -0.01824144 -0.01570256 0.01876407
f 1 2 3
f 1 3 10
f 1 10 4
f 1 4 11
f 1 11 19
f 1 19 21
f 1 21 13
f 1 13 5
f 1 5 2
f 2 5 12
f 2 12 20
f 2 20 26
f 2 26 29
f 2 29 25
f 2 25 17
f 2 17 15
f 2 15 8
f 2 8 7
f 2 7 6
f 2 6 3
f 3 6 7
f 3 7 8
f 3 8 9
f 3 9 16
f 3 16 24
f 3 24 28
f 3 28 27
f 3 27 23
f 3 23 14
f 3 14 22
f 3 22 18
f 3 18 10
f 4 10 18
f 4 18 11
f 5 13 14
f 5 14 12
f 8 15 9
f 9 15 17
f 9 17 16
f 11 18 22
f 11 22 19
f 12 14 20
f 13 21 14
f 14 23 20
f 14 21 22
f 16 17 24
f 17 25 24
f 19 22 21
f 20 23 27
f 20 27 26
f 24 25 29
f 24 29 28
f 26 27 29
f 27 28 29

