# https://github.com/mikedh/trimesh
v -0.03480397 -0.02447274 0.01629067
v -0.03482861 -0.02447274 0.01629112
v -0.03754099 -0.02168604 0.01627759
v -0.03480397 -0.02302427 0.01627759
v -0.03480397 -0.02447274 0.02088291
v -0.03584214 -0.02447274 0.01654674
v -0.03754099 -0.02270951 0.01653232
v -0.03754099 -0.02030208 0.01627759
v -0.03480397 -0.02030371 0.01627759
v -0.03480397 -0.02120675 0.02088291
v -0.03754099 -0.02447274 0.02088291
v -0.03754099 -0.02447274 0.01750974
v -0.03482861 -0.02030208 0.01627759
v -0.03754099 -0.02030208 0.02047941
v -0.03480397 -0.02030208 0.02041224
v -0.03482861 -0.02096956 0.02088291
v -0.03480397 -0.02096956 0.02088246
v -0.03754099 -0.02096956 0.02088291
v -0.03480397 -0.02030208 0.02047941
f 1 2 3
f 1 3 4
f 1 4 9
f 1 9 15
f 1 15 19
f 1 19 17
f 1 17 10
f 1 10 5
f 1 5 11
f 1 11 12
f 1 12 6
f 1 6 2
f 2 6 7
f 2 7 3
f 3 7 12
f 3 12 11
f 3 11 18
f 3 18 14
f 3 14 8
f 3 8 13
f 3 13 9
f 3 9 4
f 5 10 16
f 5 16 18
f 5 18 11
f 6 12 7
f 8 14 19
f 8 19 15
f 8 15 13
f 9 13 15
f 10 17 16
f 14 18 16
f 14 16 19
f 16 17 19

