# https://github.com/mikedh/trimesh
v -0.01093648 -0.00591446 0.01627733
v -0.01093648 -0.00617006 0.01631582
v -0.01093648 -0.00564458 0.01627733
v -0.01012681 -0.00564458 0.01627807
v -0.00985674 -0.00591446 0.01627844
v -0.00854240 -0.00829795 0.01628584
v -0.00880974 -0.00829795 0.01631730
v -0.00991403 -0.00829795 0.01648977
v -0.01093648 -0.00728569 0.01653307
v -0.01093648 -0.00564458 0.01982299
v -0.00985674 -0.00564458 0.01630101
v -0.00747358 -0.00829795 0.01632285
v -0.01093648 -0.00829795 0.01692428
v -0.00992985 -0.00564458 0.01988739
v -0.01093648 -0.00602018 0.01975193
v -0.00854240 -0.00829795 0.01996252
v -0.00723624 -0.00829795 0.02005838
v -0.00883157 -0.00564458 0.01649162
v -0.00619907 -0.00829795 0.01652752
v -0.01093648 -0.00829795 0.01822300
v -0.00861497 -0.00564458 0.01975748
v -0.01093648 -0.00654851 0.01939884
v -0.00946446 -0.00829795 0.01959315
v -0.00605666 -0.00829795 0.01976081
v -0.00864279 -0.00564458 0.01654936
v -0.00608504 -0.00829795 0.01656971
v -0.00638129 -0.00772987 0.01958501
v -0.00773055 -0.00638097 0.01958464
v -0.00812557 -0.00564458 0.01876410
v -0.00536321 -0.00829795 0.01876410
v -0.00816594 -0.00564458 0.01744392
v -0.00775074 -0.00640383 0.01668186
v -0.00640475 -0.00775039 0.01668186
v -0.00548270 -0.00829795 0.01732881
v -0.00812666 -0.00564458 0.01871858
v -0.00542432 -0.00829795 0.01745021
v -0.00816430 -0.00564458 0.01745021
f 1 2 9
f 1 9 13
f 1 13 20
f 1 20 22
f 1 22 15
f 1 15 10
f 1 10 3
f 1 3 4
f 1 4 5
f 1 5 6
f 1 6 7
f 1 7 2
f 2 7 8
f 2 8 9
f 3 10 14
f 3 14 21
f 3 21 29
f 3 29 35
f 3 35 37
f 3 37 31
f 3 31 25
f 3 25 18
f 3 18 11
f 3 11 4
f 4 11 5
f 5 11 12
f 5 12 6
f 6 12 19
f 6 19 26
f 6 26 34
f 6 34 36
f 6 36 30
f 6 30 24
f 6 24 17
f 6 17 16
f 6 16 23
f 6 23 20
f 6 20 13
f 6 13 8
f 6 8 7
f 8 13 9
f 10 15 16
f 10 16 17
f 10 17 14
f 11 18 19
f 11 19 12
f 14 17 21
f 15 22 23
f 15 23 16
f 17 24 21
f 18 25 19
f 19 25 26
f 20 23 22
f 21 24 27
f 21 27 28
f 21 28 29
f 24 30 27
f 25 31 32
f 25 32 33
f 25 33 26
f 26 33 34
f 27 30 28
f 28 30 29
f 29 30 35
f 30 36 37
f 30 37 35
f 31 37 36
f 31 36 34
f 31 34 32
f 32 34 33

