# https://github.com/mikedh/trimesh
v 0.04138104 0.02872212 0.02533529
v 0.04138104 0.02872212 0.02189495
v 0.00573908 0.02872212 0.02533529
v 0.04138104 0.02872109 0.02535444
v 0.04138104 0.02114477 0.02189495
v 0.00573908 0.02872212 0.02189495
v 0.00573908 0.02862396 0.02664958
v 0.04138104 0.02862396 0.02664958
v 0.04138104 0.01834941 0.02443821
v 0.00573908 0.01833919 0.02444808
v 0.00573908 0.02114682 0.02189495
v 0.00573908 0.02855034 0.02677143
v 0.04138104 0.02861578 0.02666292
v 0.04138104 0.01833919 0.02444808
v 0.00573908 0.01828602 0.02521634
v 0.00573908 0.02806264 0.02756464
v 0.04138104 0.02806264 0.02756464
v 0.04138104 0.01827784 0.02533529
v 0.00573908 0.01827784 0.02533529
v 0.00573908 0.02694204 0.02782286
v 0.04138104 0.02804730 0.02756870
v 0.04138104 0.01829420 0.02664958
v 0.00573908 0.01829420 0.02664958
v 0.00573908 0.02037181 0.02782286
v 0.04138104 0.02694204 0.02782286
v 0.04138104 0.01835554 0.02736445
v 0.00573908 0.01835554 0.02736445
v 0.00573908 0.01905796 0.02762267
v 0.04138104 0.02037181 0.02782286
v 0.04138104 0.01905796 0.02762267
f 1 2 6
f 1 6 3
f 1 3 4
f 1 4 8
f 1 8 13
f 1 13 17
f 1 17 21
f 1 21 25
f 1 25 29
f 1 29 30
f 1 30 26
f 1 26 22
f 1 22 18
f 1 18 14
f 1 14 9
f 1 9 5
f 1 5 2
f 2 5 11
f 2 11 6
f 3 6 11
f 3 11 10
f 3 10 15
f 3 15 19
f 3 19 23
f 3 23 27
f 3 27 28
f 3 28 24
f 3 24 20
f 3 20 16
f 3 16 12
f 3 12 7
f 3 7 4
f 4 7 8
f 5 9 10
f 5 10 11
f 7 12 8
f 8 12 13
f 9 14 10
f 10 14 15
f 12 16 17
f 12 17 13
f 14 18 15
f 15 18 19
f 16 20 21
f 16 21 17
f 18 22 23
f 18 23 19
f 20 24 29
f 20 29 25
f 20 25 21
f 22 26 27
f 22 27 23
f 24 28 30
f 24 30 29
f 26 30 28
f 26 28 27

