# https://github.com/mikedh/trimesh
v -0.02910051 0.02872286 0.02077455
v -0.02910051 0.02408905 0.02077455
v -0.02910051 0.02872286 0.01876401
v -0.03765441 0.02872286 0.02077455
v -0.02910051 0.02408905 0.01627714
v -0.03765441 0.02408905 0.02077455
v -0.02910051 0.02868793 0.01829340
v -0.03765441 0.02872286 0.01876401
v -0.02910051 0.02694254 0.01627714
v -0.03351394 0.02408905 0.01627714
v -0.03765441 0.02408905 0.01740502
v -0.02910051 0.02862534 0.01745036
v -0.03765441 0.02862534 0.01745036
v -0.02910051 0.02806380 0.01653512
v -0.03482851 0.02694254 0.01627714
v -0.03482851 0.02408905 0.01628859
v -0.03765441 0.02601996 0.01661612
v -0.03586509 0.02408905 0.01653776
v -0.03765441 0.02814817 0.01667247
v -0.03765441 0.02806380 0.01653512
v -0.03765441 0.02694254 0.01636431
f 1 2 5
f 1 5 9
f 1 9 14
f 1 14 12
f 1 12 7
f 1 7 3
f 1 3 8
f 1 8 4
f 1 4 6
f 1 6 2
f 2 6 11
f 2 11 18
f 2 18 16
f 2 16 10
f 2 10 5
f 3 7 8
f 4 8 13
f 4 13 19
f 4 19 20
f 4 20 21
f 4 21 17
f 4 17 11
f 4 11 6
f 5 10 15
f 5 15 9
f 7 12 13
f 7 13 8
f 9 15 20
f 9 20 14
f 10 16 15
f 11 17 18
f 12 14 19
f 12 19 13
f 14 20 19
f 15 16 21
f 15 21 20
f 16 18 21
f 17 21 18

