# https://github.com/mikedh/trimesh
v -0.04672286 0.02037232 0.02077455
v -0.04671668 0.01975352 0.02077455
v -0.04672286 0.02037232 0.02189484
v -0.04672286 0.02632362 0.02077455
v -0.04670331 0.01905764 0.02077455
v -0.04669713 0.01905764 0.02189484
v -0.04672286 0.02694242 0.02189484
v -0.04672286 0.02694242 0.02139276
v -0.04671822 0.02694242 0.02077455
v -0.04656543 0.01841792 0.02077455
v -0.04637766 0.01789821 0.02077455
v -0.04647386 0.01843994 0.02189484
v -0.04636120 0.02811947 0.02189484
v -0.04636120 0.02811947 0.02139276
v -0.04652685 0.02756563 0.02077455
v -0.04534258 0.01747430 0.02077455
v -0.04633599 0.01806998 0.02189484
v -0.04573151 0.02846631 0.02189484
v -0.04635657 0.02811506 0.02077455
v -0.04534258 0.02867991 0.02139276
v -0.04534258 0.02867661 0.02077455
v -0.04588224 0.02837932 0.02077455
v -0.04402867 0.01757780 0.02077455
v -0.04534258 0.01773525 0.02189484
v -0.04534258 0.02867991 0.02189484
v -0.04453026 0.02870634 0.02189484
v -0.04472421 0.02869973 0.02077455
v -0.04291848 0.01794556 0.02077455
v -0.04402867 0.01793344 0.02189484
v -0.04402867 0.02872176 0.02077455
v -0.04402867 0.02872176 0.02189484
v -0.04320914 0.01826707 0.02189484
v -0.04370559 0.01805236 0.02189484
v -0.04146772 0.02078082 0.02077455
v -0.04146772 0.02114087 0.02189484
v -0.04146772 0.02872176 0.02077455
v -0.04146772 0.02872176 0.02189484
f 1 2 3
f 1 3 7
f 1 7 8
f 1 8 4
f 1 4 9
f 1 9 15
f 1 15 19
f 1 19 22
f 1 22 21
f 1 21 27
f 1 27 30
f 1 30 36
f 1 36 34
f 1 34 28
f 1 28 23
f 1 23 16
f 1 16 11
f 1 11 10
f 1 10 5
f 1 5 2
f 2 5 3
f 3 5 6
f 3 6 12
f 3 12 17
f 3 17 24
f 3 24 29
f 3 29 33
f 3 33 32
f 3 32 35
f 3 35 37
f 3 37 31
f 3 31 26
f 3 26 25
f 3 25 18
f 3 18 13
f 3 13 7
f 4 8 9
f 5 10 6
f 6 10 11
f 6 11 12
f 7 13 14
f 7 14 8
f 8 14 15
f 8 15 9
f 11 16 17
f 11 17 12
f 13 18 14
f 14 19 15
f 14 18 20
f 14 20 21
f 14 21 22
f 14 22 19
f 16 23 24
f 16 24 17
f 18 25 20
f 20 25 26
f 20 26 27
f 20 27 21
f 23 28 29
f 23 29 24
f 26 30 27
f 26 31 30
f 28 32 33
f 28 33 29
f 28 34 35
f 28 35 32
f 30 31 37
f 30 37 36
f 34 36 37
f 34 37 35

