# https://github.com/mikedh/trimesh
v -0.04005114 -0.02872244 0.01876408
v -0.03740398 -0.02872244 0.01876408
v -0.04005114 -0.02872244 0.02088291
v -0.04005114 -0.02862800 0.01748449
v -0.03740398 -0.02862925 0.01750342
v -0.03740398 -0.02872244 0.02088291
v -0.04005114 -0.02447274 0.02088291
v -0.04005114 -0.02862509 0.01745024
v -0.03740398 -0.02862509 0.01745024
v -0.03740398 -0.02447274 0.02088291
v -0.04005114 -0.02447274 0.01631082
v -0.03740398 -0.02808676 0.01657224
v -0.04005114 -0.02806387 0.01653528
v -0.03740398 -0.02447274 0.01752686
v -0.03993685 -0.02447274 0.01633200
v -0.03740398 -0.02694268 0.01636941
v -0.04005114 -0.02694268 0.01627837
v -0.03740398 -0.02806387 0.01653528
v -0.04005114 -0.02697180 0.01628423
v -0.03740398 -0.02606237 0.01662542
v -0.03909982 -0.02447274 0.01656007
f 1 2 6
f 1 6 3
f 1 3 7
f 1 7 11
f 1 11 17
f 1 17 19
f 1 19 13
f 1 13 8
f 1 8 4
f 1 4 2
f 2 4 5
f 2 5 9
f 2 9 12
f 2 12 18
f 2 18 16
f 2 16 20
f 2 20 14
f 2 14 10
f 2 10 6
f 3 6 10
f 3 10 7
f 4 8 9
f 4 9 5
f 7 10 14
f 7 14 21
f 7 21 15
f 7 15 11
f 8 12 9
f 8 13 12
f 11 15 16
f 11 16 17
f 12 13 18
f 13 19 18
f 14 20 21
f 15 21 16
f 16 18 17
f 16 21 20
f 17 18 19

