# https://github.com/mikedh/trimesh
v 0.04534229 -0.02037277 0.02782286
v 0.04138399 -0.02037277 0.02782286
v 0.04534229 -0.02562820 0.02782286
v 0.04630116 -0.02037277 0.02756464
v 0.04620031 -0.01931439 0.02747876
v 0.04517612 -0.01865960 0.02744047
v 0.04402912 -0.01870683 0.02749327
v 0.04138399 -0.01905784 0.02762267
v 0.04138399 -0.02694206 0.02782286
v 0.04402912 -0.02694206 0.02782286
v 0.04534229 -0.02694206 0.02782228
v 0.04630116 -0.02562820 0.02756464
v 0.04666224 -0.02037277 0.02664958
v 0.04658491 -0.01905784 0.02402217
v 0.04608639 -0.01876480 0.02664958
v 0.04578280 -0.01807245 0.02402217
v 0.04138399 -0.01832792 0.02700760
v 0.04138399 -0.02806270 0.02756464
v 0.04402912 -0.02806270 0.02756464
v 0.04534229 -0.02803158 0.02756406
v 0.04629907 -0.02694206 0.02756406
v 0.04666224 -0.02562820 0.02664958
v 0.04672234 -0.02037277 0.02533529
v 0.04653317 -0.01861559 0.02230171
v 0.04672234 -0.02037277 0.02189495
v 0.04534229 -0.01775686 0.02230171
v 0.04138399 -0.01830860 0.02489372
v 0.04138399 -0.02862410 0.02664958
v 0.04402912 -0.02862410 0.02664958
v 0.04626093 -0.02794677 0.02706388
v 0.04534229 -0.02853930 0.02664958
v 0.04665545 -0.02694206 0.02664958
v 0.04672234 -0.02562820 0.02533529
v 0.04353845 -0.01813041 0.02189495
v 0.04671711 -0.02694206 0.02402217
v 0.04668732 -0.02705477 0.02230171
v 0.04427942 -0.02871319 0.02189495
v 0.04139235 -0.02114455 0.02189727
v 0.04138399 -0.02863805 0.02189495
v 0.04138399 -0.02872178 0.02533529
v 0.04402912 -0.02872178 0.02533529
v 0.04635028 -0.02805412 0.02533529
v 0.04534229 -0.02861551 0.02533529
v 0.04671188 -0.02694206 0.02533529
v 0.04636073 -0.02811852 0.02230171
v 0.04534229 -0.02867992 0.02230171
v 0.04534229 -0.02864771 0.02402217
v 0.04635551 -0.02808632 0.02402217
f 1 2 9
f 1 9 10
f 1 10 3
f 1 3 12
f 1 12 4
f 1 4 5
f 1 5 6
f 1 6 7
f 1 7 8
f 1 8 2
f 2 8 17
f 2 17 27
f 2 27 39
f 2 39 40
f 2 40 28
f 2 28 18
f 2 18 9
f 3 10 11
f 3 11 12
f 4 12 22
f 4 22 13
f 4 13 5
f 5 14 15
f 5 15 6
f 5 13 14
f 6 15 16
f 6 16 17
f 6 17 7
f 7 17 8
f 9 18 19
f 9 19 10
f 10 19 11
f 11 19 20
f 11 20 21
f 11 21 12
f 12 21 22
f 13 22 33
f 13 33 23
f 13 23 14
f 14 24 15
f 14 23 25
f 14 25 24
f 15 24 16
f 16 26 17
f 16 24 26
f 17 26 27
f 18 28 29
f 18 29 19
f 19 29 20
f 20 30 21
f 20 29 31
f 20 31 30
f 21 30 32
f 21 32 22
f 22 32 33
f 23 33 25
f 24 25 26
f 25 34 26
f 25 33 35
f 25 35 36
f 25 36 37
f 25 37 39
f 25 39 34
f 26 34 27
f 27 34 38
f 27 38 39
f 28 40 41
f 28 41 29
f 29 41 31
f 30 31 42
f 30 42 32
f 31 41 43
f 31 43 42
f 32 42 44
f 32 44 33
f 33 44 35
f 34 39 38
f 35 44 45
f 35 45 36
f 36 45 37
f 37 40 39
f 37 45 46
f 37 46 41
f 37 41 40
f 41 46 47
f 41 47 43
f 42 43 48
f 42 48 44
f 43 47 48
f 44 48 45
f 45 48 47
f 45 47 46

