# https://github.com/mikedh/trimesh
v -0.04137012 -0.02030208 0.01627714
v -0.04137012 -0.02030208 0.02048205
v -0.04137012 -0.01774311 0.01627714
v 0.00573908 -0.02030208 0.01627714
v -0.04137012 -0.01774311 0.02022521
v 0.00573908 -0.02030208 0.02047917
v 0.00573908 -0.01736204 0.02022274
v -0.01473517 -0.01736204 0.02022274
v -0.04137012 -0.01737067 0.01631089
v -0.01511791 -0.01736204 0.01627714
v 0.00573908 -0.01736204 0.01627714
v -0.04137012 -0.01736204 0.02017253
v -0.04137012 -0.01736204 0.01631172
f 1 2 5
f 1 5 12
f 1 12 13
f 1 13 9
f 1 9 3
f 1 3 10
f 1 10 11
f 1 11 4
f 1 4 6
f 1 6 2
f 2 6 7
f 2 7 8
f 2 8 5
f 3 9 10
f 4 11 7
f 4 7 6
f 5 8 12
f 7 11 10
f 7 10 13
f 7 13 12
f 7 12 8
f 9 13 10

