# https://github.com/mikedh/trimesh
v -0.04672286 0.01736286 0.01876357
v -0.04666162 0.01736286 0.01745036
v -0.04645569 0.01736286 0.01987648
v -0.04646990 0.01815901 0.02077455
v -0.04670066 0.01905857 0.02077455
v -0.04671931 0.02006376 0.02077455
v -0.04672286 0.02562791 0.01876357
v -0.04616013 0.01736286 0.01649770
v -0.04666162 0.02562791 0.01745036
v -0.04662877 0.02025168 0.01736628
v -0.04629948 0.02439143 0.01653512
v -0.04402727 0.01736286 0.02047123
v -0.04534089 0.01741957 0.02062883
v -0.04402727 0.01757969 0.02077455
v -0.04402727 0.02872243 0.02077455
v -0.04637936 0.02787180 0.02060022
v -0.04671576 0.02678766 0.02042633
v -0.04669445 0.02694111 0.01876357
v -0.04663588 0.02694111 0.01745036
v -0.04534089 0.01736286 0.01627714
v -0.04629149 0.02694111 0.01653864
v -0.04629948 0.02562791 0.01653512
v -0.04271275 0.01736286 0.01627714
v -0.03765530 0.01753966 0.02015955
v -0.04291690 0.01794663 0.02077455
v -0.03765530 0.02872243 0.02077455
v -0.04402727 0.02872243 0.01876357
v -0.04518645 0.02868018 0.02042633
v -0.04633410 0.02805749 0.01876357
v -0.04624711 0.02791739 0.01703830
v -0.04534089 0.02562791 0.01627714
v -0.04534089 0.02801413 0.01653864
v -0.04534089 0.02694111 0.01628066
v -0.03765530 0.02037400 0.01627714
v -0.03765530 0.01755412 0.01631588
v -0.03765530 0.02081321 0.02077455
v -0.03765530 0.02872243 0.01876357
v -0.04402727 0.02862347 0.01745036
v -0.04534089 0.02861902 0.01876357
v -0.04534089 0.02850227 0.01745036
v -0.04402727 0.02694111 0.01627714
v -0.04402727 0.02806194 0.01653512
v -0.03765530 0.02168719 0.01627758
v -0.04008728 0.02694111 0.01627714
v -0.03765530 0.02862347 0.01745036
v -0.03765530 0.02810420 0.01660380
v -0.03765530 0.02694111 0.01636431
f 1 2 8
f 1 8 20
f 1 20 23
f 1 23 12
f 1 12 3
f 1 3 4
f 1 4 5
f 1 5 6
f 1 6 7
f 1 7 9
f 1 9 2
f 2 9 10
f 2 10 11
f 2 11 8
f 3 12 13
f 3 13 4
f 4 13 14
f 4 14 25
f 4 25 36
f 4 36 26
f 4 26 15
f 4 15 6
f 4 6 5
f 6 15 16
f 6 16 17
f 6 17 7
f 7 17 18
f 7 18 19
f 7 19 9
f 8 11 20
f 9 19 21
f 9 21 22
f 9 22 10
f 10 22 11
f 11 22 31
f 11 31 20
f 12 23 24
f 12 24 14
f 12 14 13
f 14 24 25
f 15 26 37
f 15 37 27
f 15 27 28
f 15 28 16
f 16 18 17
f 16 28 29
f 16 29 18
f 18 29 19
f 19 29 30
f 19 30 21
f 20 31 41
f 20 41 44
f 20 44 34
f 20 34 23
f 21 30 32
f 21 32 33
f 21 33 22
f 22 33 31
f 23 34 35
f 23 35 24
f 24 35 34
f 24 34 43
f 24 43 47
f 24 47 46
f 24 46 45
f 24 45 37
f 24 37 26
f 24 26 36
f 24 36 25
f 27 37 45
f 27 45 38
f 27 38 39
f 27 39 28
f 28 39 29
f 29 39 40
f 29 40 30
f 30 40 32
f 31 33 41
f 32 40 38
f 32 38 42
f 32 42 33
f 33 42 41
f 34 44 43
f 38 45 46
f 38 46 42
f 38 40 39
f 41 42 44
f 42 46 44
f 43 44 47
f 44 46 47

