# https://github.com/mikedh/trimesh
v 0.04138398 -0.01827784 0.02535154
v 0.04138398 -0.01829522 0.02664958
v 0.04138398 -0.01827784 0.02533529
v 0.02909778 -0.01827784 0.02533529
v -0.04135551 -0.01827886 0.02533529
v -0.04135551 -0.01829522 0.02664958
v 0.04138398 -0.01835657 0.02736445
v -0.04135551 -0.01835452 0.02734414
v 0.04138398 -0.01833918 0.02445910
v -0.04135551 -0.01834021 0.02444808
v -0.04135551 -0.01827988 0.02530976
v 0.04138398 -0.01836474 0.02736794
v -0.04135551 -0.01835657 0.02736445
v 0.04138398 -0.01834021 0.02444808
v -0.04135551 -0.02114470 0.02189495
v 0.02909778 -0.01860808 0.02745729
v 0.04138398 -0.01905897 0.02762267
v -0.04135551 -0.01905897 0.02762267
v 0.02908968 -0.01860808 0.02745729
v 0.04138398 -0.02114470 0.02189901
v 0.04066317 -0.02114572 0.02189495
v -0.04135551 -0.02872184 0.02189495
v 0.04138398 -0.02037277 0.02782286
v -0.04135551 -0.02037277 0.02782286
v 0.04138398 -0.02855620 0.02189495
v -0.04135551 -0.02872184 0.02533529
v 0.04138398 -0.02872184 0.02189495
v 0.04138398 -0.02694181 0.02782286
v -0.04135551 -0.02694181 0.02782286
v 0.04138398 -0.02872184 0.02533529
v -0.04135551 -0.02862368 0.02664958
v 0.04138398 -0.02806238 0.02756464
v -0.04135551 -0.02803068 0.02757219
v 0.04138398 -0.02862368 0.02664958
v -0.04135551 -0.02860835 0.02667569
v 0.04138398 -0.02806953 0.02755362
v -0.04135551 -0.02806238 0.02756464
f 1 2 7
f 1 7 12
f 1 12 17
f 1 17 23
f 1 23 28
f 1 28 32
f 1 32 36
f 1 36 34
f 1 34 30
f 1 30 27
f 1 27 25
f 1 25 20
f 1 20 14
f 1 14 9
f 1 9 3
f 1 3 4
f 1 4 5
f 1 5 6
f 1 6 2
f 2 6 8
f 2 8 7
f 3 9 4
f 4 9 10
f 4 10 11
f 4 11 5
f 5 11 10
f 5 10 15
f 5 15 22
f 5 22 26
f 5 26 31
f 5 31 35
f 5 35 37
f 5 37 33
f 5 33 29
f 5 29 24
f 5 24 18
f 5 18 13
f 5 13 8
f 5 8 6
f 7 8 13
f 7 13 12
f 9 14 10
f 10 14 15
f 12 16 17
f 12 13 18
f 12 18 19
f 12 19 16
f 14 20 21
f 14 21 15
f 15 21 25
f 15 25 27
f 15 27 22
f 16 19 18
f 16 18 17
f 17 18 24
f 17 24 23
f 20 25 21
f 22 27 30
f 22 30 26
f 23 24 29
f 23 29 28
f 26 30 34
f 26 34 31
f 28 29 33
f 28 33 32
f 31 34 35
f 32 33 37
f 32 37 36
f 34 36 35
f 35 36 37

