# https://github.com/mikedh/trimesh
v -0.00987790 0.00000000 0.01876407
v -0.00812551 -0.00564458 0.01876407
v -0.00816496 -0.00564458 0.01745012
v -0.00992239 0.00000000 0.01745012
v -0.01003736 0.00000000 0.01927351
v -0.00861564 -0.00564458 0.01975745
v -0.01019683 0.00000000 0.01978256
v -0.00816663 -0.00564458 0.01744394
v -0.01024047 0.00000000 0.01654248
v -0.01117206 0.00000000 0.02018346
v -0.00985776 -0.00459976 0.02002820
v -0.01117206 -0.00459976 0.02018771
v -0.00993078 -0.00564458 0.01988722
v -0.00864334 -0.00564458 0.01654905
v -0.01117206 0.00000000 0.01628487
v -0.00883217 -0.00564458 0.01649150
v -0.01248551 0.00000000 0.02022286
v -0.01117206 -0.00197196 0.02020857
v -0.01117206 -0.00328530 0.02022286
v -0.01352956 -0.00564458 0.02020509
v -0.00985776 -0.00564458 0.01630109
v -0.01012717 -0.00564458 0.01627830
v -0.01117206 -0.00197196 0.01627830
v -0.01248551 0.00000000 0.01627714
v -0.01511410 0.00000000 0.02022286
v -0.01484386 -0.00564458 0.02022286
v -0.01117206 -0.00564458 0.01627714
v -0.01117206 -0.00328530 0.01627714
v -0.01511410 0.00000000 0.01627714
v -0.01622362 0.00000000 0.01982195
v -0.01511410 -0.00564458 0.02022286
v -0.01511410 -0.00564458 0.01627714
v -0.01614808 0.00000000 0.01653514
v -0.01646113 0.00000000 0.01929320
v -0.01622362 -0.00564458 0.01982195
v -0.01614808 -0.00564458 0.01653514
v -0.01624628 -0.00564458 0.01672285
v -0.01638644 0.00000000 0.01699283
v -0.01669864 0.00000000 0.01876407
v -0.01660129 -0.00564458 0.01898113
v -0.01662395 -0.00564458 0.01745012
v -0.01662395 0.00000000 0.01745012
v -0.01666172 0.00000000 0.01810748
v -0.01669864 -0.00564458 0.01876407
f 1 2 3
f 1 3 4
f 1 4 9
f 1 9 15
f 1 15 24
f 1 24 29
f 1 29 33
f 1 33 38
f 1 38 42
f 1 42 43
f 1 43 39
f 1 39 34
f 1 34 30
f 1 30 25
f 1 25 17
f 1 17 10
f 1 10 7
f 1 7 5
f 1 5 2
f 2 6 13
f 2 13 20
f 2 20 26
f 2 26 31
f 2 31 35
f 2 35 40
f 2 40 44
f 2 44 41
f 2 41 37
f 2 37 36
f 2 36 32
f 2 32 27
f 2 27 22
f 2 22 21
f 2 21 16
f 2 16 14
f 2 14 8
f 2 8 3
f 2 5 7
f 2 7 6
f 3 8 4
f 4 8 9
f 6 7 10
f 6 10 11
f 6 11 12
f 6 12 13
f 8 14 9
f 9 14 16
f 9 16 15
f 10 17 18
f 10 18 11
f 11 18 19
f 11 19 12
f 12 19 20
f 12 20 13
f 15 16 21
f 15 21 22
f 15 22 23
f 15 23 24
f 17 19 18
f 17 25 31
f 17 31 26
f 17 26 19
f 19 26 20
f 22 27 28
f 22 28 23
f 23 28 24
f 24 28 27
f 24 27 32
f 24 32 29
f 25 30 35
f 25 35 31
f 29 32 36
f 29 36 33
f 30 34 35
f 33 36 37
f 33 37 38
f 34 39 40
f 34 40 35
f 37 41 42
f 37 42 38
f 39 43 44
f 39 44 40
f 41 44 43
f 41 43 42

