# https://github.com/mikedh/trimesh
v -0.02910051 0.01774305 0.01627714
v -0.02910051 0.01736175 0.01635442
v -0.02910051 0.02041694 0.01627714
v -0.01604406 0.01736175 0.01627714
v -0.02910051 0.01736175 0.02010599
v -0.02910051 0.02041694 0.02054418
v 0.03242379 0.02041694 0.01627714
v 0.01510955 0.01736175 0.01627714
v -0.02910051 0.01774305 0.02022253
v -0.01511059 0.01736175 0.02021752
v -0.01379772 0.01736175 0.02022253
v 0.03242379 0.02041694 0.02054418
v 0.03242379 0.01774305 0.01627714
v 0.03242379 0.01736175 0.01635442
v 0.01473014 0.01736175 0.02022253
v 0.03242379 0.01774305 0.02022253
v 0.03242379 0.01736175 0.02010599
v 0.01604301 0.01736175 0.02021752
v 0.03242379 0.01742665 0.02012604
f 1 2 5
f 1 5 9
f 1 9 6
f 1 6 3
f 1 3 7
f 1 7 13
f 1 13 8
f 1 8 4
f 1 4 2
f 2 4 8
f 2 8 14
f 2 14 17
f 2 17 18
f 2 18 15
f 2 15 11
f 2 11 10
f 2 10 5
f 3 6 12
f 3 12 7
f 5 10 9
f 6 9 11
f 6 11 15
f 6 15 12
f 7 12 16
f 7 16 19
f 7 19 17
f 7 17 14
f 7 14 13
f 8 13 14
f 9 10 11
f 12 15 16
f 15 18 16
f 16 18 19
f 17 19 18

