# https://github.com/mikedh/trimesh
v -0.04672286 -0.02694243 0.02139183
v -0.04672286 -0.02694243 0.02189495
v -0.04672286 -0.02562771 0.01876466
v -0.04671306 -0.02694243 0.02007770
v -0.04636107 -0.02811866 0.02139183
v -0.04636107 -0.02811866 0.02189495
v -0.04672286 -0.02037214 0.02189495
v -0.04672286 -0.02030208 0.01876466
v -0.04666278 -0.02562771 0.01745052
v -0.04663731 -0.02694243 0.01745052
v -0.04669543 -0.02694243 0.01876466
v -0.04635062 -0.02811207 0.02007770
v -0.04534233 -0.02867258 0.02007770
v -0.04534233 -0.02868082 0.02139183
v -0.04534233 -0.02868082 0.02189495
v -0.04672090 -0.02030208 0.02189495
v -0.04666278 -0.02030208 0.01745052
v -0.04630099 -0.02562771 0.01653557
v -0.04629250 -0.02694243 0.01653942
v -0.04618932 -0.02784418 0.01662630
v -0.04630622 -0.02799090 0.01745052
v -0.04633430 -0.02805849 0.01876466
v -0.04534233 -0.02862065 0.01876466
v -0.04402776 -0.02872286 0.01876466
v -0.04402776 -0.02872286 0.02189495
v -0.04249834 -0.02030208 0.02189495
v -0.04630099 -0.02030208 0.01653557
v -0.04534233 -0.02562771 0.01627769
v -0.04534233 -0.02694243 0.01628154
v -0.04534233 -0.02801563 0.01653942
v -0.04534233 -0.02850278 0.01745052
v -0.04402776 -0.02862477 0.01745052
v -0.04005139 -0.02872286 0.01876466
v -0.04005139 -0.02872286 0.02189495
v -0.04005139 -0.02030208 0.02047854
v -0.04005139 -0.02114696 0.02189495
v -0.04534233 -0.02030208 0.01627769
v -0.04402776 -0.02694243 0.01627769
v -0.04402776 -0.02806261 0.01653557
v -0.04005139 -0.02862477 0.01745052
v -0.04005139 -0.02030208 0.02037901
v -0.04006903 -0.02030373 0.01627769
v -0.04008666 -0.02694243 0.01627769
v -0.04005139 -0.02806261 0.01653557
v -0.04005139 -0.02168603 0.01627769
v -0.04005139 -0.02695726 0.01628209
f 1 2 7
f 1 7 8
f 1 8 3
f 1 3 4
f 1 4 5
f 1 5 6
f 1 6 2
f 2 6 15
f 2 15 25
f 2 25 34
f 2 34 36
f 2 36 26
f 2 26 16
f 2 16 7
f 3 8 17
f 3 17 9
f 3 9 10
f 3 10 11
f 3 11 4
f 4 12 5
f 4 11 12
f 5 13 14
f 5 14 15
f 5 15 6
f 5 12 13
f 7 16 8
f 8 16 26
f 8 26 35
f 8 35 41
f 8 41 37
f 8 37 27
f 8 27 17
f 9 18 19
f 9 19 10
f 9 17 27
f 9 27 18
f 10 19 20
f 10 20 21
f 10 21 11
f 11 21 22
f 11 22 12
f 12 22 23
f 12 23 13
f 13 23 24
f 13 24 14
f 14 24 25
f 14 25 15
f 18 28 29
f 18 29 19
f 18 27 37
f 18 37 28
f 19 29 20
f 20 30 31
f 20 31 21
f 20 29 30
f 21 31 23
f 21 23 22
f 23 31 32
f 23 32 24
f 24 32 40
f 24 40 33
f 24 33 34
f 24 34 25
f 26 36 35
f 28 38 29
f 28 37 42
f 28 42 45
f 28 45 43
f 28 43 38
f 29 38 39
f 29 39 30
f 30 39 32
f 30 32 31
f 32 39 44
f 32 44 40
f 33 40 44
f 33 44 46
f 33 46 45
f 33 45 41
f 33 41 35
f 33 35 36
f 33 36 34
f 37 41 42
f 38 43 44
f 38 44 39
f 41 45 42
f 43 45 46
f 43 46 44

