# https://github.com/mikedh/trimesh
v 0.03653610 0.02516020 0.02072418
v 0.03653610 0.02516020 0.01709203
v 0.03242379 0.02516020 0.02072418
v 0.03653610 0.02072586 0.02072418
v 0.03625151 0.02516020 0.01676990
v 0.03653610 0.02291669 0.01649871
v 0.03242379 0.02516020 0.01627714
v 0.03242379 0.02072586 0.02072418
v 0.03653610 0.01774343 0.02022271
v 0.03600314 0.02516020 0.01653832
v 0.03653610 0.02262204 0.01642340
v 0.03351467 0.02516020 0.01627714
v 0.03242379 0.01774343 0.01627714
v 0.03242379 0.01774343 0.02022271
v 0.03242379 0.01742740 0.02012608
v 0.03653610 0.01736251 0.02010605
v 0.03482854 0.02516020 0.01629107
v 0.03653610 0.02168540 0.01627758
v 0.03653610 0.02037166 0.01627714
v 0.03653610 0.01774343 0.01627714
v 0.03242379 0.01752664 0.01632111
v 0.03242379 0.01736251 0.02010605
v 0.03653610 0.01736251 0.01635463
v 0.03242379 0.01736251 0.01635463
f 1 2 5
f 1 5 10
f 1 10 17
f 1 17 12
f 1 12 7
f 1 7 3
f 1 3 8
f 1 8 4
f 1 4 9
f 1 9 16
f 1 16 23
f 1 23 20
f 1 20 19
f 1 19 18
f 1 18 11
f 1 11 6
f 1 6 2
f 2 6 5
f 3 7 13
f 3 13 21
f 3 21 24
f 3 24 22
f 3 22 15
f 3 15 14
f 3 14 8
f 4 8 14
f 4 14 9
f 5 6 11
f 5 11 10
f 7 12 19
f 7 19 20
f 7 20 13
f 9 14 15
f 9 15 16
f 10 11 18
f 10 18 17
f 12 17 18
f 12 18 19
f 13 20 21
f 15 22 16
f 16 22 24
f 16 24 23
f 20 23 21
f 21 23 24

