# https://github.com/mikedh/trimesh
v 0.00003689 -0.01736175 0.01627714
v 0.00003689 -0.01736175 0.02022286
v 0.00003689 -0.01478493 0.01627714
v 0.01604707 -0.01736175 0.01627714
v 0.00003689 -0.01478493 0.02022286
v 0.01379827 -0.01736175 0.02022286
v 0.01511308 -0.01478493 0.01627714
v 0.02051260 -0.01736175 0.01635439
v 0.01379827 -0.01478493 0.02022286
v 0.01511308 -0.01736175 0.02021745
v 0.01604306 -0.01478493 0.01648300
v 0.02051260 -0.01646985 0.01653514
v 0.02051260 -0.01660656 0.01650734
v 0.02051260 -0.01736175 0.02010622
v 0.01412897 -0.01478493 0.02021822
v 0.01635573 -0.01478493 0.01656102
v 0.02051260 -0.01588593 0.01735202
v 0.02051260 -0.01726187 0.02007570
v 0.01511308 -0.01478493 0.02019235
v 0.01680268 -0.01478493 0.01738330
v 0.02051260 -0.01581581 0.01745012
v 0.02051260 -0.01643303 0.01982195
v 0.01639381 -0.01478493 0.01977947
v 0.01683676 -0.01478493 0.01745012
v 0.02051260 -0.01577899 0.01876407
v 0.01687484 -0.01478493 0.01876407
v 0.01687484 -0.01478493 0.01875557
f 1 2 5
f 1 5 3
f 1 3 7
f 1 7 4
f 1 4 8
f 1 8 14
f 1 14 10
f 1 10 6
f 1 6 2
f 2 6 9
f 2 9 5
f 3 5 9
f 3 9 15
f 3 15 19
f 3 19 23
f 3 23 26
f 3 26 27
f 3 27 24
f 3 24 20
f 3 20 16
f 3 16 11
f 3 11 7
f 4 7 8
f 6 10 9
f 7 11 12
f 7 12 13
f 7 13 8
f 8 13 12
f 8 12 17
f 8 17 21
f 8 21 25
f 8 25 22
f 8 22 18
f 8 18 14
f 9 10 15
f 10 14 15
f 11 16 12
f 12 16 17
f 14 18 19
f 14 19 15
f 16 20 21
f 16 21 17
f 18 22 19
f 19 22 23
f 20 24 21
f 21 24 25
f 22 25 23
f 23 25 26
f 24 27 25
f 25 27 26

