# https://github.com/mikedh/trimesh
v -0.03875527 0.01736160 0.01635471
v -0.03875527 0.01646995 0.01653503
v -0.03875527 0.01736160 0.02010625
v -0.01908342 0.01736160 0.01635471
v -0.01908342 0.01649536 0.01652989
v -0.03875527 0.01581566 0.01745024
v -0.01908342 0.01646995 0.01653503
v -0.01908342 0.01582867 0.01743188
v -0.03875527 0.01643323 0.01982199
v -0.01908342 0.01736160 0.02010625
v -0.03875527 0.01581519 0.01746640
v -0.01908342 0.01581566 0.01745024
v -0.03875527 0.01578699 0.01877714
v -0.01908342 0.01643323 0.01982199
v -0.03875527 0.01577894 0.01876392
v -0.01908342 0.01577894 0.01876392
f 1 2 6
f 1 6 11
f 1 11 15
f 1 15 13
f 1 13 9
f 1 9 3
f 1 3 10
f 1 10 4
f 1 4 5
f 1 5 2
f 2 5 7
f 2 7 8
f 2 8 6
f 3 9 14
f 3 14 10
f 4 10 14
f 4 14 16
f 4 16 12
f 4 12 8
f 4 8 7
f 4 7 5
f 6 8 12
f 6 12 11
f 9 13 14
f 11 12 16
f 11 16 15
f 13 15 16
f 13 16 14

