# https://github.com/mikedh/trimesh
v -0.04139375 0.02694206 0.02782286
v -0.04139375 0.02806485 0.02756232
v -0.04402883 0.02806270 0.02756464
v -0.04402883 0.02694206 0.02782286
v -0.04139375 0.02037277 0.02782286
v -0.04139375 0.02862410 0.02664958
v -0.04402883 0.02862410 0.02664958
v -0.04534220 0.02803158 0.02756406
v -0.04534220 0.02694206 0.02782228
v -0.04534220 0.02562820 0.02782286
v -0.04534220 0.02037277 0.02782286
v -0.04139375 0.01906106 0.02762325
v -0.04139375 0.02872178 0.02533529
v -0.04534220 0.02853930 0.02664958
v -0.04402883 0.02872178 0.02533529
v -0.04626125 0.02794677 0.02706388
v -0.04629932 0.02694206 0.02756406
v -0.04630089 0.02562820 0.02756464
v -0.04630089 0.02037277 0.02756464
v -0.04620022 0.01931439 0.02747876
v -0.04517634 0.01865960 0.02744047
v -0.04402883 0.01870683 0.02749327
v -0.04139375 0.01832577 0.02700702
v -0.04139375 0.02868636 0.02189495
v -0.04427920 0.02871319 0.02189495
v -0.04534220 0.02861551 0.02533529
v -0.04635044 0.02805412 0.02533529
v -0.04534220 0.02867992 0.02230171
v -0.04534220 0.02864771 0.02402217
v -0.04665557 0.02694206 0.02664958
v -0.04666235 0.02562820 0.02664958
v -0.04666235 0.02037277 0.02664958
v -0.04658464 0.01905784 0.02402217
v -0.04608599 0.01876480 0.02664958
v -0.04578295 0.01807245 0.02402217
v -0.04534220 0.01775686 0.02230171
v -0.04139375 0.01830860 0.02489546
v -0.04139740 0.02114455 0.02189611
v -0.04353854 0.01813041 0.02189495
v -0.04672234 0.02037277 0.02189495
v -0.04668739 0.02705477 0.02230171
v -0.04636087 0.02811852 0.02230171
v -0.04635566 0.02808632 0.02402217
v -0.04671191 0.02694206 0.02533529
v -0.04672234 0.02562820 0.02533529
v -0.04672234 0.02037277 0.02533529
v -0.04653352 0.01861559 0.02230171
v -0.04671764 0.02694206 0.02402217
f 1 2 3
f 1 3 4
f 1 4 10
f 1 10 11
f 1 11 5
f 1 5 12
f 1 12 23
f 1 23 37
f 1 37 24
f 1 24 13
f 1 13 6
f 1 6 2
f 2 6 7
f 2 7 3
f 3 8 9
f 3 9 4
f 3 7 8
f 4 9 10
f 5 11 12
f 6 13 15
f 6 15 7
f 7 14 8
f 7 15 14
f 8 16 17
f 8 17 9
f 8 14 16
f 9 17 18
f 9 18 10
f 10 18 19
f 10 19 11
f 11 19 20
f 11 20 21
f 11 21 22
f 11 22 12
f 12 22 23
f 13 24 25
f 13 25 15
f 14 15 26
f 14 26 27
f 14 27 16
f 15 25 28
f 15 28 29
f 15 29 26
f 16 27 30
f 16 30 17
f 17 30 31
f 17 31 18
f 18 31 32
f 18 32 19
f 19 32 20
f 20 33 34
f 20 34 21
f 20 32 33
f 21 34 35
f 21 35 23
f 21 23 22
f 23 35 36
f 23 36 37
f 24 37 38
f 24 38 39
f 24 39 40
f 24 40 25
f 25 40 41
f 25 41 42
f 25 42 28
f 26 43 27
f 26 29 43
f 27 44 30
f 27 43 44
f 28 42 29
f 29 42 43
f 30 44 45
f 30 45 31
f 31 45 46
f 31 46 32
f 32 46 33
f 33 47 34
f 33 46 40
f 33 40 47
f 34 47 35
f 35 47 36
f 36 47 40
f 36 40 39
f 36 39 37
f 37 39 38
f 40 46 45
f 40 45 48
f 40 48 41
f 41 48 42
f 42 48 44
f 42 44 43
f 44 48 45

