# https://github.com/mikedh/trimesh
v 0.03242379 0.02872204 0.02189495
v 0.03242379 0.02114623 0.02189495
v 0.03242379 0.02872204 0.01876435
v -0.02910051 0.02872204 0.02189495
v 0.03242379 0.02041694 0.02054439
v -0.02910051 0.02114623 0.02189495
v 0.03242379 0.02870578 0.01854054
v -0.02910051 0.02868790 0.01829364
v -0.02910051 0.02872204 0.01876435
v 0.03242379 0.02041694 0.01627769
v -0.02910051 0.02041694 0.02054439
v 0.03242379 0.02862529 0.01745008
v -0.02910051 0.02862529 0.01745008
v 0.03242379 0.02694232 0.01627769
v -0.02910051 0.02041694 0.01627769
v 0.03242379 0.02806349 0.01653505
v -0.02910051 0.02806349 0.01653505
v -0.02910051 0.02694232 0.01627769
v -0.02910051 0.02766185 0.01644266
f 1 2 5
f 1 5 10
f 1 10 14
f 1 14 16
f 1 16 12
f 1 12 7
f 1 7 3
f 1 3 9
f 1 9 4
f 1 4 6
f 1 6 2
f 2 6 11
f 2 11 5
f 3 7 8
f 3 8 9
f 4 9 8
f 4 8 13
f 4 13 17
f 4 17 19
f 4 19 18
f 4 18 15
f 4 15 11
f 4 11 6
f 5 11 15
f 5 15 10
f 7 12 8
f 8 12 13
f 10 15 18
f 10 18 14
f 12 16 17
f 12 17 13
f 14 18 19
f 14 19 16
f 16 19 17

