# https://github.com/mikedh/trimesh
v -0.04137065 -0.02030208 0.02048170
v -0.04137065 -0.01774311 0.02022489
v -0.04249873 -0.02030208 0.02189495
v -0.04137065 -0.02030208 0.01627769
v -0.04137065 -0.01736204 0.02017265
v -0.04303264 -0.01857144 0.02189495
v -0.04672128 -0.02030208 0.02189495
v -0.04534276 -0.02030208 0.01627769
v -0.04137065 -0.01774311 0.01627769
v -0.04140051 -0.01736204 0.02017815
v -0.04534276 -0.01773505 0.02189495
v -0.04453063 -0.01785248 0.02189495
v -0.04402868 -0.01793278 0.02189495
v -0.04320921 -0.01826693 0.02189495
v -0.04137065 -0.01736204 0.01631179
v -0.04669718 -0.01905699 0.02189495
v -0.04672286 -0.01736204 0.01876435
v -0.04672286 -0.02030208 0.01876435
v -0.04534276 -0.01736204 0.01627769
v -0.04539306 -0.02030208 0.01629089
v -0.04137065 -0.01737067 0.01631069
v -0.04178143 -0.01736204 0.01627769
v -0.04233368 -0.01736204 0.02031783
v -0.04572210 -0.01785420 0.02189495
v -0.04273817 -0.01736204 0.02036347
v -0.04394013 -0.01736204 0.02046960
v -0.04402868 -0.01736204 0.02047125
v -0.04534276 -0.01736204 0.02048335
v -0.04640587 -0.01736204 0.02002363
v -0.04633565 -0.01806920 0.02189495
v -0.04668041 -0.01736204 0.01783117
v -0.04666260 -0.02030208 0.01745008
v -0.04562045 -0.01736204 0.01635193
v -0.04630159 -0.02030208 0.01653505
v -0.04666260 -0.01736204 0.01745008
v -0.04640639 -0.01736204 0.01680065
v -0.04630159 -0.01736204 0.01653505
f 1 2 3
f 1 3 7
f 1 7 18
f 1 18 32
f 1 32 34
f 1 34 20
f 1 20 8
f 1 8 4
f 1 4 9
f 1 9 21
f 1 21 15
f 1 15 5
f 1 5 2
f 2 5 3
f 3 6 14
f 3 14 13
f 3 13 12
f 3 12 11
f 3 11 24
f 3 24 30
f 3 30 16
f 3 16 7
f 3 5 6
f 4 8 19
f 4 19 22
f 4 22 9
f 5 10 11
f 5 11 12
f 5 12 13
f 5 13 14
f 5 14 6
f 5 15 22
f 5 22 19
f 5 19 33
f 5 33 37
f 5 37 36
f 5 36 35
f 5 35 31
f 5 31 17
f 5 17 29
f 5 29 28
f 5 28 27
f 5 27 26
f 5 26 25
f 5 25 23
f 5 23 10
f 7 16 17
f 7 17 18
f 8 20 19
f 9 22 21
f 10 23 11
f 11 23 25
f 11 25 26
f 11 26 27
f 11 27 28
f 11 28 29
f 11 29 24
f 15 21 22
f 16 30 17
f 17 30 29
f 17 31 18
f 18 31 32
f 19 20 33
f 20 34 33
f 24 29 30
f 31 35 32
f 32 35 36
f 32 36 34
f 33 34 37
f 34 36 37

