# https://github.com/mikedh/trimesh
v -0.00252424 -0.00956253 0.01876368
v -0.00271715 -0.00956253 0.01745051
v -0.00355810 -0.00956253 0.01965510
v 0.00215811 -0.00965961 0.01876368
v -0.00359930 -0.00956253 0.01665603
v -0.00460133 -0.00956253 0.01990924
v 0.00215811 -0.01000121 0.01964042
v 0.00215811 -0.00966636 0.01855782
v -0.00379409 -0.00956253 0.01659849
v 0.00215811 -0.00971880 0.01745051
v -0.00591987 -0.00956253 0.02012476
v 0.00215811 -0.01007545 0.01980303
v -0.00490287 -0.00956253 0.01641966
v 0.00215811 -0.01013411 0.01654094
v -0.00723093 -0.00956253 0.02020123
v 0.00215811 -0.01098759 0.02014947
v -0.00621205 -0.00956253 0.01628834
v 0.00215811 -0.01117188 0.01627830
v -0.01511225 -0.00956253 0.02022286
v -0.00723093 -0.00985793 0.02022286
v -0.00591613 -0.00985793 0.02020818
v 0.00215811 -0.01117188 0.02021050
v -0.00752311 -0.00956253 0.01627714
v 0.00215811 -0.01248532 0.01627714
v -0.01511225 -0.01248532 0.02022286
v -0.01622291 -0.00956253 0.01982195
v -0.01617608 -0.01486560 0.01986251
v 0.00215811 -0.01229635 0.02022286
v -0.01511225 -0.00956253 0.01627714
v 0.00215811 -0.01478462 0.01627714
v -0.01511225 -0.01486560 0.02019119
v -0.01379745 -0.01486560 0.02022286
v -0.01659187 -0.00956253 0.01900122
v -0.01697395 -0.01486560 0.01876368
v -0.01640833 -0.01486560 0.01977715
v 0.00215811 -0.01478462 0.02022286
v -0.01511225 -0.01486560 0.01627714
v -0.01637274 -0.01486560 0.01656295
v -0.01614799 -0.00956253 0.01653514
v 0.00003607 -0.01486560 0.01627714
v 0.00003607 -0.01486560 0.02022286
v -0.01669863 -0.00956253 0.01876368
v -0.01685783 -0.01486560 0.01745051
v -0.01662371 -0.00956253 0.01745051
f 1 2 5
f 1 5 9
f 1 9 13
f 1 13 17
f 1 17 23
f 1 23 29
f 1 29 39
f 1 39 44
f 1 44 42
f 1 42 33
f 1 33 26
f 1 26 19
f 1 19 15
f 1 15 11
f 1 11 6
f 1 6 3
f 1 3 4
f 1 4 2
f 2 4 5
f 3 6 4
f 4 7 12
f 4 12 16
f 4 16 22
f 4 22 28
f 4 28 36
f 4 36 30
f 4 30 24
f 4 24 18
f 4 18 14
f 4 14 10
f 4 10 8
f 4 8 5
f 4 6 7
f 5 8 10
f 5 10 9
f 6 11 12
f 6 12 7
f 9 10 14
f 9 14 13
f 11 15 16
f 11 16 12
f 13 14 17
f 14 18 17
f 15 19 20
f 15 20 21
f 15 21 22
f 15 22 16
f 17 18 23
f 18 24 23
f 19 25 32
f 19 32 41
f 19 41 36
f 19 36 28
f 19 28 20
f 19 26 27
f 19 27 25
f 20 28 22
f 20 22 21
f 23 24 30
f 23 30 40
f 23 40 37
f 23 37 29
f 25 27 31
f 25 31 32
f 26 33 34
f 26 34 35
f 26 35 27
f 27 35 34
f 27 34 43
f 27 43 38
f 27 38 37
f 27 37 40
f 27 40 41
f 27 41 32
f 27 32 31
f 29 37 38
f 29 38 39
f 30 36 41
f 30 41 40
f 33 42 34
f 34 42 44
f 34 44 43
f 38 43 39
f 39 43 44

