# https://github.com/mikedh/trimesh
v -0.01511390 -0.00829795 0.01627714
v -0.01511390 -0.00564458 0.01627714
v -0.01380020 -0.00829795 0.01627714
v -0.01614839 -0.00829795 0.01653514
v -0.01614839 -0.00564458 0.01653514
v -0.01117167 -0.00564458 0.01627714
v -0.01117167 -0.00591446 0.01627714
v -0.01093759 -0.00591446 0.01627753
v -0.01248594 -0.00829795 0.01635400
v -0.01662446 -0.00829795 0.01745012
v -0.01662446 -0.00564458 0.01745012
v -0.01093759 -0.00564458 0.01627753
v -0.01118239 -0.00829795 0.01655098
v -0.01093759 -0.00617006 0.01631577
v -0.01669948 -0.00829795 0.01876407
v -0.01669948 -0.00564458 0.01876407
v -0.01093759 -0.00564458 0.01982311
v -0.01093759 -0.00728569 0.01653321
v -0.01093759 -0.00829795 0.01692446
v -0.01661092 -0.00829795 0.01896105
v -0.01622341 -0.00564458 0.01982195
v -0.01093759 -0.00602018 0.01975166
v -0.01221632 -0.00564458 0.02004558
v -0.01380020 -0.00829795 0.02010776
v -0.01093759 -0.00829795 0.01822335
v -0.01622341 -0.00829795 0.01982195
v -0.01511390 -0.00564458 0.02022286
v -0.01109778 -0.00829795 0.01867176
v -0.01093759 -0.00654851 0.01939864
v -0.01357909 -0.00829795 0.02003129
v -0.01269351 -0.00829795 0.01969952
v -0.01353058 -0.00564458 0.02020509
v -0.01486910 -0.00829795 0.02020355
v -0.01511390 -0.00829795 0.02022286
v -0.01484428 -0.00564458 0.02022286
f 1 2 6
f 1 6 7
f 1 7 3
f 1 3 9
f 1 9 13
f 1 13 19
f 1 19 25
f 1 25 28
f 1 28 31
f 1 31 30
f 1 30 24
f 1 24 33
f 1 33 34
f 1 34 26
f 1 26 20
f 1 20 15
f 1 15 10
f 1 10 4
f 1 4 5
f 1 5 2
f 2 5 11
f 2 11 16
f 2 16 21
f 2 21 27
f 2 27 35
f 2 35 32
f 2 32 23
f 2 23 17
f 2 17 12
f 2 12 6
f 3 7 8
f 3 8 9
f 4 10 11
f 4 11 5
f 6 12 8
f 6 8 7
f 8 13 9
f 8 12 17
f 8 17 22
f 8 22 29
f 8 29 25
f 8 25 19
f 8 19 18
f 8 18 14
f 8 14 13
f 10 15 16
f 10 16 11
f 13 14 18
f 13 18 19
f 15 20 16
f 16 20 21
f 17 23 24
f 17 24 22
f 20 26 21
f 21 26 34
f 21 34 27
f 22 28 29
f 22 24 30
f 22 30 31
f 22 31 28
f 23 32 24
f 24 32 33
f 25 29 28
f 27 34 35
f 32 35 34
f 32 34 33

