# https://github.com/mikedh/trimesh
v 0.04402946 0.02694206 0.02782286
v 0.04402946 0.02806353 0.02756464
v 0.04138104 0.02694206 0.02782286
v 0.04534191 0.02562767 0.02782286
v 0.04534191 0.02694206 0.02782228
v 0.04138104 0.02805505 0.02756638
v 0.04534191 0.02803173 0.02756406
v 0.04402946 0.02862426 0.02664958
v 0.04138104 0.02862426 0.02664958
v 0.04138104 0.02036270 0.02782112
v 0.04534191 0.02037224 0.02782286
v 0.04630089 0.02562767 0.02756464
v 0.04629932 0.02694206 0.02756406
v 0.04626115 0.02794693 0.02706388
v 0.04534191 0.02853946 0.02664958
v 0.04402946 0.02872072 0.02533529
v 0.04138104 0.02872072 0.02534458
v 0.04138104 0.01869216 0.02731339
v 0.04402946 0.01870700 0.02749327
v 0.04517616 0.01865930 0.02744047
v 0.04620049 0.01931437 0.02747876
v 0.04630089 0.02037224 0.02756464
v 0.04666220 0.02562767 0.02664958
v 0.04665593 0.02694206 0.02664958
v 0.04635056 0.02805399 0.02533529
v 0.04534191 0.02861578 0.02533529
v 0.04402946 0.02872072 0.02189495
v 0.04534191 0.02864864 0.02402217
v 0.04534191 0.02868044 0.02230171
v 0.04138104 0.02872072 0.02189495
v 0.04138104 0.01831056 0.02488908
v 0.04578271 0.01807207 0.02402217
v 0.04608650 0.01876530 0.02664958
v 0.04658534 0.01905786 0.02402217
v 0.04666220 0.02037224 0.02664958
v 0.04672286 0.02562767 0.02533529
v 0.04671240 0.02694206 0.02533529
v 0.04635527 0.02808685 0.02402217
v 0.04636102 0.02811865 0.02230171
v 0.04672286 0.02037224 0.02189495
v 0.04138104 0.02114498 0.02189495
v 0.04320957 0.01826816 0.02189495
v 0.04427940 0.01789293 0.02189495
v 0.04588624 0.01793321 0.02230171
v 0.04669724 0.01905786 0.02230171
v 0.04672286 0.02037224 0.02533529
v 0.04672286 0.02694206 0.02230171
v 0.04671710 0.02694206 0.02402217
f 1 2 3
f 1 3 11
f 1 11 4
f 1 4 5
f 1 5 2
f 2 6 3
f 2 5 7
f 2 7 8
f 2 8 9
f 2 9 6
f 3 6 9
f 3 9 17
f 3 17 30
f 3 30 41
f 3 41 31
f 3 31 18
f 3 18 10
f 3 10 11
f 4 11 22
f 4 22 12
f 4 12 5
f 5 13 7
f 5 12 13
f 7 13 14
f 7 14 15
f 7 15 8
f 8 15 16
f 8 16 17
f 8 17 9
f 10 18 19
f 10 19 11
f 11 19 20
f 11 20 21
f 11 21 22
f 12 22 35
f 12 35 23
f 12 23 13
f 13 23 24
f 13 24 14
f 14 25 15
f 14 24 25
f 15 26 16
f 15 25 26
f 16 27 30
f 16 30 17
f 16 26 28
f 16 28 29
f 16 29 27
f 18 31 32
f 18 32 20
f 18 20 19
f 20 32 33
f 20 33 21
f 21 33 34
f 21 34 35
f 21 35 22
f 23 35 46
f 23 46 36
f 23 36 24
f 24 36 37
f 24 37 25
f 25 37 38
f 25 38 26
f 26 38 28
f 27 29 39
f 27 39 40
f 27 40 43
f 27 43 42
f 27 42 41
f 27 41 30
f 28 38 39
f 28 39 29
f 31 42 43
f 31 43 32
f 31 41 42
f 32 43 44
f 32 44 33
f 33 44 34
f 34 45 35
f 34 44 45
f 35 45 46
f 36 47 48
f 36 48 37
f 36 46 40
f 36 40 47
f 37 48 39
f 37 39 38
f 39 48 47
f 39 47 40
f 40 46 45
f 40 45 44
f 40 44 43

