# https://github.com/mikedh/trimesh
v -0.00628242 0.00764237 0.01876407
v -0.00631709 0.00764237 0.01745012
v -0.00645271 0.00764237 0.01948825
v -0.00939245 0.00315552 0.01876909
v -0.00939143 0.00315552 0.01876407
v -0.00660464 0.00764237 0.01665333
v -0.00943528 0.00315552 0.01746982
v -0.00943630 0.00315552 0.01745012
v -0.00654856 0.00764237 0.01962111
v -0.00985437 0.00315552 0.01977715
v -0.00916812 0.00385787 0.01947126
v -0.00726540 0.00764237 0.01648918
v -0.00918036 0.00388905 0.01676920
v -0.00989311 0.00315552 0.01656643
v -0.00686568 0.00764237 0.01979298
v -0.01001344 0.00315552 0.01983779
v -0.00854306 0.00722817 0.01632310
v -0.00854306 0.00764237 0.01630843
v -0.01117179 0.00315552 0.01627753
v -0.00812907 0.00764237 0.02014484
v -0.01117179 0.00315552 0.02022131
v -0.00985742 0.00591396 0.01627830
v -0.00985742 0.00722817 0.01627714
v -0.00985742 0.00764237 0.01627714
v -0.01117179 0.00328597 0.01627714
v -0.01248514 0.00315552 0.01627714
v -0.00854306 0.00764237 0.02016956
v -0.00985742 0.00591396 0.02020857
v -0.00944343 0.00764237 0.02022286
v -0.01117179 0.00328597 0.02022286
v -0.01130231 0.00315552 0.02022286
v -0.01511388 0.00764237 0.01627714
v -0.01511388 0.00315552 0.01627714
v -0.01511388 0.00764237 0.02022286
v -0.01511388 0.00315552 0.02022286
v -0.01604587 0.00315552 0.01650965
v -0.01614783 0.00764237 0.01653514
v -0.01622329 0.00764237 0.01982195
v -0.01522400 0.00315552 0.02018308
v -0.01614783 0.00315552 0.01653514
v -0.01657712 0.00315552 0.01735974
v -0.01662403 0.00764237 0.01745012
v -0.01669948 0.00764237 0.01876407
v -0.01622329 0.00315552 0.01982195
v -0.01662403 0.00315552 0.01745012
v -0.01669948 0.00315552 0.01876407
f 1 2 6
f 1 6 12
f 1 12 18
f 1 18 24
f 1 24 32
f 1 32 37
f 1 37 42
f 1 42 43
f 1 43 38
f 1 38 34
f 1 34 29
f 1 29 27
f 1 27 20
f 1 20 15
f 1 15 9
f 1 9 3
f 1 3 4
f 1 4 5
f 1 5 2
f 2 5 7
f 2 7 8
f 2 8 6
f 3 9 10
f 3 10 11
f 3 11 4
f 4 11 10
f 4 10 16
f 4 16 21
f 4 21 31
f 4 31 35
f 4 35 39
f 4 39 44
f 4 44 46
f 4 46 45
f 4 45 41
f 4 41 40
f 4 40 36
f 4 36 33
f 4 33 26
f 4 26 19
f 4 19 14
f 4 14 8
f 4 8 7
f 4 7 5
f 6 8 13
f 6 13 14
f 6 14 12
f 8 14 13
f 9 15 10
f 10 15 16
f 12 17 18
f 12 14 19
f 12 19 17
f 15 20 21
f 15 21 16
f 17 19 18
f 18 19 22
f 18 22 23
f 18 23 24
f 19 25 22
f 19 26 25
f 20 27 28
f 20 28 21
f 21 28 29
f 21 29 30
f 21 30 31
f 22 25 23
f 23 25 26
f 23 26 33
f 23 33 32
f 23 32 24
f 27 29 28
f 29 34 35
f 29 35 31
f 29 31 30
f 32 33 36
f 32 36 37
f 34 38 39
f 34 39 35
f 36 40 37
f 37 40 41
f 37 41 42
f 38 43 46
f 38 46 44
f 38 44 39
f 41 45 42
f 42 45 46
f 42 46 43

