# https://github.com/mikedh/trimesh
v -0.02910051 0.02408795 0.02077455
v -0.02910051 0.02081144 0.02077455
v -0.02910051 0.02408795 0.01627714
v -0.03765441 0.02408795 0.02077455
v -0.02910051 0.01774366 0.02022250
v -0.03765441 0.02081144 0.02077455
v -0.02910051 0.01950439 0.01627714
v -0.03351394 0.02408795 0.01627714
v -0.03765441 0.02408795 0.01740502
v -0.02910051 0.01736175 0.02010584
v -0.03765441 0.01774366 0.02022250
v -0.02910051 0.01774366 0.01627758
v -0.03765441 0.01950439 0.01627714
v -0.03482851 0.02408795 0.01628859
v -0.03765441 0.02037224 0.01627714
v -0.03765441 0.02168522 0.01627758
v -0.03586425 0.02408795 0.01653776
v -0.03765441 0.02273678 0.01652808
v -0.02910051 0.01736175 0.01635506
v -0.03765441 0.01736175 0.02010584
v -0.02910051 0.01760670 0.01630488
v -0.03765441 0.01774366 0.01627758
v -0.03765441 0.02188276 0.01630884
v -0.03765441 0.01736175 0.01635506
v -0.03765441 0.01741904 0.01634318
f 1 2 5
f 1 5 10
f 1 10 19
f 1 19 21
f 1 21 12
f 1 12 7
f 1 7 3
f 1 3 8
f 1 8 14
f 1 14 17
f 1 17 9
f 1 9 4
f 1 4 6
f 1 6 2
f 2 6 11
f 2 11 5
f 3 7 13
f 3 13 15
f 3 15 8
f 4 9 18
f 4 18 23
f 4 23 16
f 4 16 15
f 4 15 13
f 4 13 22
f 4 22 25
f 4 25 24
f 4 24 20
f 4 20 11
f 4 11 6
f 5 11 20
f 5 20 10
f 7 12 22
f 7 22 13
f 8 15 16
f 8 16 14
f 9 17 18
f 10 20 24
f 10 24 19
f 12 21 22
f 14 16 23
f 14 23 18
f 14 18 17
f 19 24 25
f 19 25 21
f 21 25 22

