# https://github.com/mikedh/trimesh
v 0.01669948 0.00000000 0.01876407
v 0.01669948 -0.00561994 0.01876407
v 0.01662411 0.00000000 0.01745012
v 0.01622297 0.00000000 0.01982195
v 0.01633016 -0.00561994 0.01958519
v 0.01662411 -0.00561994 0.01745012
v 0.01651775 -0.00561994 0.01724542
v 0.01614844 0.00000000 0.01653514
v 0.01622297 -0.00561994 0.01982195
v 0.01511418 0.00000000 0.02022286
v 0.01614844 -0.00561994 0.01653514
v 0.01511418 0.00000000 0.01627714
v 0.01511418 -0.00561994 0.02022286
v 0.01248541 0.00000000 0.02022286
v 0.01511418 -0.00561994 0.01627714
v 0.01248541 0.00000000 0.01627714
v 0.01379937 -0.00561994 0.02020857
v 0.01117144 -0.00328527 0.02022286
v 0.01117144 0.00000000 0.02018230
v 0.01117144 -0.00197160 0.02020818
v 0.01117144 -0.00561994 0.01627714
v 0.01117144 -0.00328527 0.01627714
v 0.01117144 -0.00197160 0.01627830
v 0.01117144 0.00000000 0.01628525
v 0.01117144 -0.00459948 0.02018771
v 0.00882991 -0.00561994 0.01984513
v 0.00985747 -0.00459948 0.02002820
v 0.01019748 0.00000000 0.01978140
v 0.00985747 -0.00561994 0.01630341
v 0.00865237 -0.00561994 0.01655098
v 0.01024102 0.00000000 0.01654325
v 0.00862390 -0.00561994 0.01975552
v 0.00988092 0.00000000 0.01876407
v 0.00814487 -0.00561994 0.01876407
v 0.00818088 -0.00561994 0.01745012
v 0.00992446 0.00000000 0.01745012
f 1 2 6
f 1 6 3
f 1 3 8
f 1 8 12
f 1 12 16
f 1 16 24
f 1 24 31
f 1 31 36
f 1 36 33
f 1 33 28
f 1 28 19
f 1 19 14
f 1 14 10
f 1 10 4
f 1 4 5
f 1 5 2
f 2 5 9
f 2 9 13
f 2 13 17
f 2 17 26
f 2 26 32
f 2 32 34
f 2 34 35
f 2 35 30
f 2 30 29
f 2 29 21
f 2 21 15
f 2 15 11
f 2 11 7
f 2 7 6
f 3 6 7
f 3 7 8
f 4 9 5
f 4 10 13
f 4 13 9
f 7 11 8
f 8 11 15
f 8 15 12
f 10 14 18
f 10 18 13
f 12 15 21
f 12 21 22
f 12 22 16
f 13 18 17
f 14 19 20
f 14 20 18
f 16 22 23
f 16 23 24
f 17 18 25
f 17 25 26
f 18 20 27
f 18 27 25
f 19 28 26
f 19 26 27
f 19 27 20
f 21 29 22
f 22 29 23
f 23 29 24
f 24 29 30
f 24 30 31
f 25 27 26
f 26 28 32
f 28 33 34
f 28 34 32
f 30 35 31
f 31 35 36
f 33 36 35
f 33 35 34

