# https://github.com/mikedh/trimesh
v -0.04139323 0.02113655 0.02219357
v -0.04008297 0.01905725 0.02379706
v -0.04139323 0.01917594 0.02370999
v -0.04139323 0.02113655 0.02782286
v 0.00573908 0.02113655 0.02219853
v 0.00573908 0.01905725 0.02379706
v -0.04008297 0.01833868 0.02444782
v -0.04139323 0.01833812 0.02445223
v 0.00573908 0.01843441 0.02436076
v -0.04139323 0.02037123 0.02782286
v 0.00573908 0.02113655 0.02782286
v 0.00573908 0.01833868 0.02444782
v -0.04139323 0.01827681 0.02533552
v -0.04139323 0.01905725 0.02762283
v 0.00573908 0.02037123 0.02782286
v 0.00573908 0.01828549 0.02521705
v -0.04139323 0.01829389 0.02664972
v 0.00573908 0.01827737 0.02533552
v 0.00573908 0.01829165 0.02647449
v 0.00573908 0.01829389 0.02664972
v -0.04139323 0.01835519 0.02736495
v 0.00573908 0.01905725 0.02762283
v 0.00573908 0.01835519 0.02736495
f 1 2 3
f 1 3 8
f 1 8 13
f 1 13 17
f 1 17 21
f 1 21 14
f 1 14 10
f 1 10 4
f 1 4 11
f 1 11 5
f 1 5 6
f 1 6 2
f 2 7 8
f 2 8 3
f 2 6 9
f 2 9 7
f 4 10 15
f 4 15 11
f 5 11 15
f 5 15 22
f 5 22 23
f 5 23 20
f 5 20 19
f 5 19 18
f 5 18 16
f 5 16 12
f 5 12 9
f 5 9 6
f 7 9 12
f 7 12 8
f 8 12 13
f 10 14 22
f 10 22 15
f 12 16 13
f 13 16 18
f 13 18 19
f 13 19 20
f 13 20 17
f 14 21 23
f 14 23 22
f 17 20 23
f 17 23 21

