# https://github.com/mikedh/trimesh
v -0.01685359 0.01467203 0.01876402
v -0.01685359 0.01532761 0.01967494
v -0.01908342 0.01643315 0.01982192
v -0.01908342 0.01641998 0.01980071
v -0.01908342 0.01577915 0.01876402
v -0.01908342 0.01577967 0.01873797
v -0.01908342 0.01581574 0.01745011
v -0.01685359 0.01485475 0.01745011
v -0.01685359 0.01639023 0.01999272
v -0.01908342 0.01736175 0.02010621
v -0.01908342 0.01646974 0.01653509
v -0.01685359 0.01543609 0.01665975
v -0.01685359 0.01736175 0.02011067
v -0.01777556 0.01736175 0.02011067
v -0.01908342 0.01736175 0.01635462
v -0.01908342 0.01649528 0.01652988
v -0.01685359 0.01554877 0.01657230
v -0.01685359 0.01736175 0.01630922
v -0.01736194 0.01736175 0.01630922
v -0.01685359 0.01685335 0.01635202
f 1 2 3
f 1 3 4
f 1 4 5
f 1 5 6
f 1 6 7
f 1 7 8
f 1 8 12
f 1 12 17
f 1 17 20
f 1 20 18
f 1 18 13
f 1 13 9
f 1 9 2
f 2 9 10
f 2 10 3
f 3 10 15
f 3 15 16
f 3 16 11
f 3 11 7
f 3 7 6
f 3 6 5
f 3 5 4
f 7 11 8
f 8 11 12
f 9 13 14
f 9 14 10
f 10 14 13
f 10 13 18
f 10 18 19
f 10 19 15
f 11 16 17
f 11 17 12
f 15 19 20
f 15 20 17
f 15 17 16
f 18 20 19

