# https://github.com/mikedh/trimesh
v -0.02127607 0.00197973 0.05006471
v -0.01701842 0.00197973 0.05006471
v -0.02127607 0.00197973 0.05080882
v -0.02127607 0.00741858 0.05006471
v -0.01700042 0.00197973 0.05079994
v -0.01701842 0.00741858 0.05006471
v -0.01716282 0.00197973 0.05080882
v -0.02127607 0.00644794 0.05080882
v -0.02127607 0.00730996 0.05015197
v -0.02105716 0.00741911 0.05006471
v -0.01700042 0.00649959 0.05079994
v -0.02096926 0.00741911 0.05006471
v -0.01733025 0.00233540 0.05080882
v -0.02095168 0.00630631 0.05080882
v -0.02127607 0.00648362 0.05080810
v -0.02127607 0.00652941 0.05077641
v -0.02127607 0.00650598 0.05079491
v -0.02127607 0.00649959 0.05079994
v -0.02060971 0.00609707 0.05080882
v -0.02027904 0.00587131 0.05080882
v -0.01995926 0.00563065 0.05080882
v -0.01965078 0.00537508 0.05080882
v -0.01934983 0.00510194 0.05080882
v -0.01894340 0.00469037 0.05080882
v -0.01856795 0.00426069 0.05080882
v -0.01821970 0.00380919 0.05080882
v -0.01789782 0.00333798 0.05080882
v -0.01759855 0.00284175 0.05080882
f 1 2 5
f 1 5 7
f 1 7 3
f 1 3 8
f 1 8 15
f 1 15 18
f 1 18 17
f 1 17 16
f 1 16 9
f 1 9 4
f 1 4 10
f 1 10 12
f 1 12 6
f 1 6 2
f 2 6 11
f 2 11 5
f 3 7 13
f 3 13 28
f 3 28 27
f 3 27 26
f 3 26 25
f 3 25 24
f 3 24 23
f 3 23 22
f 3 22 21
f 3 21 20
f 3 20 19
f 3 19 14
f 3 14 8
f 4 9 10
f 5 11 7
f 6 12 11
f 7 11 13
f 8 14 11
f 8 11 15
f 9 16 10
f 10 16 12
f 11 12 16
f 11 16 17
f 11 17 18
f 11 18 15
f 11 14 19
f 11 19 20
f 11 20 21
f 11 21 22
f 11 22 23
f 11 23 24
f 11 24 25
f 11 25 26
f 11 26 27
f 11 27 28
f 11 28 13

