# https://github.com/mikedh/trimesh
v -0.02286333 0.00741911 0.05006471
v -0.02485562 0.00734830 0.05080882
v -0.02127675 0.00741858 0.05006471
v -0.02826481 0.00741858 0.05006471
v -0.02471126 0.00734510 0.05080882
v -0.02590239 0.00725033 0.05080882
v -0.02127675 0.00730996 0.05015197
v -0.02127675 0.00197973 0.05006471
v -0.02395389 0.00730038 0.05080882
v -0.02378079 0.00728281 0.05080882
v -0.02360360 0.00725672 0.05080882
v -0.02341887 0.00722211 0.05080882
v -0.02322183 0.00717685 0.05080882
v -0.02300837 0.00711988 0.05080882
v -0.02277028 0.00704800 0.05080882
v -0.02188292 0.00676421 0.05080882
v -0.02160173 0.00664069 0.05080882
v -0.02826481 0.00197973 0.05006471
v -0.02826481 0.00728866 0.05016895
v -0.02785158 0.00668381 0.05080882
v -0.02783926 0.00668914 0.05080882
v -0.02750950 0.00682651 0.05080882
v -0.02679865 0.00705439 0.05080882
v -0.02661666 0.00711083 0.05080882
v -0.02646683 0.00715076 0.05080882
v -0.02638746 0.00716833 0.05080882
v -0.02626842 0.00719442 0.05080882
v -0.02618632 0.00721093 0.05080882
v -0.02608712 0.00722850 0.05080882
v -0.02599338 0.00724128 0.05080882
v -0.02127675 0.00652941 0.05077641
v -0.02127675 0.00197973 0.05080882
v -0.02130480 0.00649906 0.05080882
v -0.02127675 0.00649959 0.05079994
v -0.02127675 0.00650598 0.05079491
v -0.02826481 0.00197973 0.05080882
v -0.02826481 0.00715822 0.05027339
v -0.02826481 0.00698411 0.05041273
v -0.02826481 0.00668381 0.05065281
v -0.02826481 0.00649906 0.05079994
v -0.02823950 0.00649959 0.05080882
v -0.02127675 0.00644794 0.05080882
v -0.02127675 0.00648362 0.05080810
v -0.02826481 0.00648575 0.05080882
f 1 2 3
f 1 3 8
f 1 8 18
f 1 18 4
f 1 4 2
f 2 5 3
f 2 4 6
f 2 6 30
f 2 30 29
f 2 29 28
f 2 28 27
f 2 27 26
f 2 26 25
f 2 25 24
f 2 24 23
f 2 23 22
f 2 22 21
f 2 21 20
f 2 20 41
f 2 41 44
f 2 44 36
f 2 36 32
f 2 32 42
f 2 42 33
f 2 33 17
f 2 17 16
f 2 16 15
f 2 15 14
f 2 14 13
f 2 13 12
f 2 12 11
f 2 11 10
f 2 10 9
f 2 9 5
f 3 7 31
f 3 31 35
f 3 35 34
f 3 34 43
f 3 43 42
f 3 42 32
f 3 32 8
f 3 5 9
f 3 9 10
f 3 10 11
f 3 11 12
f 3 12 13
f 3 13 14
f 3 14 15
f 3 15 16
f 3 16 17
f 3 17 7
f 4 18 36
f 4 36 44
f 4 44 40
f 4 40 39
f 4 39 38
f 4 38 37
f 4 37 19
f 4 19 20
f 4 20 21
f 4 21 22
f 4 22 23
f 4 23 24
f 4 24 25
f 4 25 26
f 4 26 27
f 4 27 28
f 4 28 29
f 4 29 30
f 4 30 6
f 7 17 31
f 8 32 36
f 8 36 18
f 17 33 34
f 17 34 35
f 17 35 31
f 19 37 20
f 20 37 38
f 20 38 39
f 20 39 40
f 20 40 41
f 33 42 43
f 33 43 34
f 40 44 41

