# https://github.com/mikedh/trimesh
v -0.03223524 0.00197973 0.05006471
v -0.02826550 0.00197973 0.05006471
v -0.03223524 0.00197973 0.05080882
v -0.03223524 0.00741858 0.05006471
v -0.02826550 0.00197973 0.05080882
v -0.02826550 0.00741858 0.05006471
v -0.03223524 0.00243550 0.05080882
v -0.03223524 0.00657200 0.05074218
v -0.02900458 0.00741911 0.05006471
v -0.02826550 0.00648575 0.05080882
v -0.02883710 0.00741911 0.05006471
v -0.02826550 0.00728866 0.05016895
v -0.03201491 0.00283696 0.05080882
v -0.03223524 0.00649959 0.05079994
v -0.02826550 0.00668381 0.05065281
v -0.02826550 0.00698411 0.05041273
v -0.02826550 0.00649906 0.05079994
v -0.02864164 0.00628076 0.05080882
v -0.02826550 0.00715821 0.05027339
v -0.03175923 0.00325439 0.05080882
v -0.03053714 0.00479260 0.05080882
v -0.03018819 0.00513336 0.05080882
v -0.02982099 0.00545548 0.05080882
v -0.02943862 0.00575524 0.05080882
v -0.02903178 0.00603957 0.05080882
v -0.03148450 0.00365851 0.05080882
v -0.03148294 0.00366064 0.05080882
v -0.03118762 0.00405251 0.05080882
v -0.03087482 0.00442735 0.05080882
v -0.03086704 0.00443587 0.05080882
f 1 2 5
f 1 5 3
f 1 3 7
f 1 7 14
f 1 14 8
f 1 8 4
f 1 4 9
f 1 9 11
f 1 11 6
f 1 6 2
f 2 6 12
f 2 12 19
f 2 19 16
f 2 16 15
f 2 15 17
f 2 17 10
f 2 10 5
f 3 5 10
f 3 10 18
f 3 18 25
f 3 25 24
f 3 24 23
f 3 23 22
f 3 22 21
f 3 21 30
f 3 30 29
f 3 29 28
f 3 28 27
f 3 27 26
f 3 26 20
f 3 20 13
f 3 13 7
f 4 8 9
f 6 11 12
f 7 13 14
f 8 14 15
f 8 15 16
f 8 16 9
f 9 16 11
f 10 17 14
f 10 14 18
f 11 16 19
f 11 19 12
f 13 20 14
f 14 21 22
f 14 22 23
f 14 23 24
f 14 24 25
f 14 25 18
f 14 17 15
f 14 20 26
f 14 26 27
f 14 27 28
f 14 28 29
f 14 29 30
f 14 30 21

