# https://github.com/mikedh/trimesh
v -0.03908329 -0.01195175 0.04233805
v -0.03887202 -0.01168565 0.04040116
v -0.03872139 -0.01416262 0.04042941
v -0.03904906 -0.01246129 0.04233805
v -0.03908329 0.01026452 0.04233805
v -0.03857174 -0.01447118 0.04040116
v -0.03887104 0.01074293 0.04040116
v -0.03877616 -0.01410034 0.04185554
v -0.03887104 -0.01375781 0.04233805
v -0.03908133 0.01067499 0.04233805
v -0.03839568 -0.01464669 0.04078016
v -0.03860206 -0.01434945 0.04230336
v -0.03876149 -0.01414280 0.04233805
v -0.03835557 -0.01470330 0.04040116
v -0.03906373 0.01112509 0.04233805
v -0.03871356 0.01317177 0.04040116
v -0.03835362 -0.01455893 0.04226563
v -0.03805236 -0.01470613 0.04233805
v -0.03811202 -0.01485617 0.04040116
v -0.03823820 -0.01472029 0.04116769
v -0.03903927 0.01140251 0.04233805
v -0.03898450 0.01189791 0.04233805
v -0.03873019 0.01311233 0.04061218
v -0.03877616 0.01289152 0.04186881
v -0.03859912 0.01342372 0.04040116
v -0.03818343 -0.01475992 0.04106076
v -0.03805138 -0.01482220 0.04105773
v -0.03789391 -0.01492694 0.04040116
v -0.03776186 -0.01478257 0.04233805
v -0.03871161 0.01293965 0.04233805
v -0.03843382 0.01362188 0.04040116
v -0.03766209 -0.01495808 0.04040116
v -0.03749581 -0.01480238 0.04233805
v -0.03848273 0.01318876 0.04233445
v -0.03749581 0.01353129 0.04233805
v -0.03831352 0.01368698 0.04057768
v -0.03820397 0.01379172 0.04040116
v -0.02910067 -0.01496374 0.04040116
v -0.02910067 -0.01480238 0.04233805
v -0.03805432 0.01343504 0.04232763
v -0.03826168 0.01334162 0.04232099
v -0.02909089 0.01353129 0.04233805
v -0.02909089 0.01395025 0.04040116
v -0.03765622 0.01394742 0.04040116
v -0.03778533 0.01350581 0.04232857
v -0.03790662 0.01391062 0.04040116
v -0.02909089 -0.01039763 0.04040116
v -0.02909089 -0.01039763 0.04233805
f 1 2 3
f 1 3 4
f 1 4 9
f 1 9 13
f 1 13 18
f 1 18 29
f 1 29 33
f 1 33 39
f 1 39 48
f 1 48 42
f 1 42 35
f 1 35 30
f 1 30 22
f 1 22 21
f 1 21 15
f 1 15 10
f 1 10 5
f 1 5 2
f 2 6 3
f 2 5 7
f 2 7 16
f 2 16 25
f 2 25 31
f 2 31 37
f 2 37 46
f 2 46 44
f 2 44 43
f 2 43 47
f 2 47 38
f 2 38 32
f 2 32 28
f 2 28 19
f 2 19 14
f 2 14 6
f 3 6 8
f 3 8 9
f 3 9 4
f 5 10 7
f 6 11 12
f 6 12 13
f 6 13 8
f 6 14 11
f 7 10 15
f 7 15 16
f 8 13 9
f 11 17 12
f 11 14 17
f 12 17 18
f 12 18 13
f 14 19 20
f 14 20 17
f 15 21 16
f 16 21 22
f 16 22 23
f 16 23 24
f 16 24 25
f 17 20 26
f 17 26 18
f 18 26 19
f 18 19 27
f 18 27 28
f 18 28 29
f 19 28 27
f 19 26 20
f 22 30 24
f 22 24 23
f 24 30 25
f 25 30 31
f 28 32 29
f 29 32 33
f 30 34 31
f 30 35 34
f 31 36 37
f 31 34 36
f 32 38 33
f 33 38 39
f 34 35 40
f 34 40 41
f 34 41 36
f 35 42 43
f 35 43 44
f 35 44 45
f 35 45 40
f 36 41 37
f 37 41 40
f 37 40 46
f 38 47 48
f 38 48 39
f 40 45 46
f 42 48 47
f 42 47 43
f 44 46 45

