# https://github.com/mikedh/trimesh
v -0.01806119 -0.00987057 0.05006471
v -0.01701842 -0.00987057 0.05006471
v -0.01806119 -0.00910383 0.05080882
v -0.01806119 0.00197973 0.05006471
v -0.01700003 -0.00839972 0.05079994
v -0.01699951 -0.00705415 0.05006471
v -0.01794561 -0.00892983 0.05080882
v -0.01806119 0.00197973 0.05080882
v -0.01701842 0.00197973 0.05006471
v -0.01699951 -0.00712723 0.05080649
v -0.01699951 -0.00712723 0.05080882
v -0.01718513 -0.00756222 0.05080882
v -0.01738656 -0.00798561 0.05080882
v -0.01760596 -0.00839972 0.05080882
v -0.01699951 0.00139975 0.05006471
v -0.01716258 0.00197973 0.05080882
v -0.01700003 0.00197973 0.05079994
v -0.01699951 0.00159810 0.05080882
v -0.01699951 0.00159578 0.05079899
v -0.01715790 0.00196929 0.05080882
f 1 2 3
f 1 3 8
f 1 8 4
f 1 4 9
f 1 9 15
f 1 15 6
f 1 6 2
f 2 5 3
f 2 6 5
f 3 5 7
f 3 7 14
f 3 14 13
f 3 13 12
f 3 12 11
f 3 11 18
f 3 18 20
f 3 20 16
f 3 16 8
f 4 8 16
f 4 16 17
f 4 17 9
f 5 10 11
f 5 11 12
f 5 12 13
f 5 13 14
f 5 14 7
f 5 6 10
f 6 15 19
f 6 19 18
f 6 18 11
f 6 11 10
f 9 17 15
f 15 17 19
f 16 20 17
f 17 20 18
f 17 18 19

