# https://github.com/mikedh/trimesh
v -0.02400349 -0.00825825 0.04270972
v -0.02400349 -0.00642787 0.04075910
v -0.02400282 -0.01039605 0.04075910
v -0.02399949 -0.01477316 0.04270972
v -0.02400349 0.01345248 0.04270972
v -0.02400349 0.01387553 0.04075910
v -0.02399949 -0.01493674 0.04075910
v -0.01885064 -0.01477316 0.04270972
v -0.01874145 0.01344120 0.04270972
v -0.01841657 0.01385579 0.04075910
v -0.01847982 -0.01492546 0.04075910
v -0.01853907 -0.01473932 0.04270972
v -0.01831205 0.01334531 0.04270972
v -0.01858900 0.01352863 0.04228469
v -0.01838728 0.01350043 0.04220812
v -0.01802578 0.01373451 0.04076005
v -0.01762101 0.01336505 0.04075910
v -0.01771621 -0.01459549 0.04075910
v -0.01805973 -0.01482111 0.04076349
v -0.01823150 -0.01465471 0.04270972
v -0.01807438 -0.01479291 0.04105906
v -0.01820953 0.01341300 0.04229443
v -0.01751249 0.01235820 0.04270972
v -0.01772686 0.01286868 0.04270743
v -0.01804575 0.01322686 0.04262570
v -0.01810833 0.01344966 0.04197327
v -0.01792192 0.01328891 0.04209432
v -0.01779876 0.01354273 0.04087843
v -0.01750717 0.01311969 0.04075910
v -0.01786134 0.01315917 0.04233567
v -0.01770822 0.01294765 0.04240574
v -0.01774683 -0.01458420 0.04106574
v -0.01795255 -0.01471676 0.04116713
v -0.01745923 -0.01420064 0.04075910
v -0.01756775 -0.01415270 0.04270895
v -0.01797585 -0.01456164 0.04247582
v -0.01781008 -0.01440934 0.04270972
v -0.01728614 0.01152903 0.04270972
v -0.01741862 0.01259793 0.04075910
v -0.01729479 -0.01308944 0.04075910
v -0.01734273 -0.01338275 0.04270972
v -0.01747721 -0.01409911 0.04183809
v -0.01720359 0.01068012 0.04270972
v -0.01723155 0.01116803 0.04270895
v -0.01725485 0.01075627 0.04075910
v -0.01725152 -0.01173569 0.04075910
v -0.01720226 -0.01200080 0.04270972
v -0.01722223 -0.01251692 0.04270972
f 1 2 3
f 1 3 4
f 1 4 8
f 1 8 12
f 1 12 20
f 1 20 37
f 1 37 41
f 1 41 48
f 1 48 47
f 1 47 43
f 1 43 38
f 1 38 23
f 1 23 13
f 1 13 9
f 1 9 5
f 1 5 6
f 1 6 2
f 2 6 10
f 2 10 17
f 2 17 29
f 2 29 39
f 2 39 45
f 2 45 46
f 2 46 40
f 2 40 34
f 2 34 18
f 2 18 11
f 2 11 7
f 2 7 3
f 3 7 4
f 4 7 8
f 5 9 6
f 6 9 10
f 7 11 8
f 8 11 12
f 9 13 14
f 9 14 10
f 10 14 15
f 10 15 16
f 10 16 17
f 11 18 19
f 11 19 12
f 12 19 21
f 12 21 20
f 13 22 15
f 13 15 14
f 13 23 24
f 13 24 25
f 13 25 22
f 15 22 16
f 16 22 26
f 16 26 25
f 16 25 27
f 16 27 28
f 16 28 17
f 17 28 30
f 17 30 31
f 17 31 29
f 18 32 33
f 18 33 19
f 18 34 35
f 18 35 32
f 19 33 21
f 20 21 36
f 20 36 37
f 21 33 36
f 22 25 26
f 23 38 29
f 23 29 31
f 23 31 24
f 24 31 30
f 24 30 25
f 25 30 27
f 27 30 28
f 29 38 39
f 32 36 33
f 32 35 37
f 32 37 36
f 34 40 41
f 34 41 42
f 34 42 35
f 35 42 41
f 35 41 37
f 38 43 44
f 38 44 39
f 39 44 45
f 40 46 47
f 40 47 48
f 40 48 41
f 43 47 46
f 43 46 45
f 43 45 44

