# https://github.com/mikedh/trimesh
v -0.02400349 -0.01039761 0.03880019
v -0.02399952 -0.01510000 0.03880019
v -0.02399952 -0.01493596 0.04075890
v -0.02400283 -0.01039761 0.04075890
v -0.02400349 -0.00642907 0.04075890
v -0.02400349 0.01430000 0.03880019
v -0.01819951 -0.01508849 0.03880019
v -0.01848109 -0.01492733 0.04075890
v -0.02400349 0.01387408 0.04075890
v -0.01819951 0.01428849 0.03880019
v -0.01781549 -0.01496186 0.03880019
v -0.01799924 -0.01487265 0.04021165
v -0.01806137 -0.01482373 0.04075890
v -0.01841631 0.01385394 0.04075890
v -0.01809971 0.01422518 0.03901821
v -0.01805476 0.01421366 0.03901821
v -0.01781549 0.01416186 0.03880019
v -0.01783532 -0.01490431 0.03936508
v -0.01751805 -0.01471437 0.03880019
v -0.01771833 -0.01459638 0.04075890
v -0.01802502 0.01373307 0.04075890
v -0.01807591 0.01382228 0.04054338
v -0.01813672 0.01406977 0.03967207
v -0.01795694 0.01406402 0.03945405
v -0.01791067 0.01410143 0.03923623
v -0.01751805 0.01391437 0.03880019
v -0.01780227 0.01404099 0.03923623
v -0.01765884 0.01399783 0.03901821
v -0.01739049 -0.01450717 0.03880019
v -0.01750417 -0.01432011 0.04075890
v -0.01771700 0.01349133 0.04075890
v -0.01781747 0.01366112 0.04054856
v -0.01792124 0.01373882 0.04054549
v -0.01795694 0.01388271 0.04011003
v -0.01741098 0.01371580 0.03888245
v -0.01731448 0.01342226 0.03880019
v -0.01770511 0.01355176 0.04055239
v -0.01760398 0.01341650 0.04055699
v -0.01780029 0.01394315 0.03956546
v -0.01780425 0.01384818 0.03989316
v -0.01731448 -0.01422226 0.03880019
v -0.01741428 -0.01408125 0.04075890
v -0.01748501 0.01304238 0.04075890
v -0.01752004 0.01321793 0.04062238
v -0.01725499 0.01075163 0.04075890
v -0.01725102 -0.01173581 0.04075890
v -0.01741891 0.01259920 0.04075890
v -0.01729398 -0.01308839 0.04075890
f 1 2 3
f 1 3 4
f 1 4 5
f 1 5 9
f 1 9 6
f 1 6 10
f 1 10 17
f 1 17 26
f 1 26 36
f 1 36 41
f 1 41 29
f 1 29 19
f 1 19 11
f 1 11 7
f 1 7 2
f 2 7 8
f 2 8 3
f 3 8 13
f 3 13 20
f 3 20 30
f 3 30 42
f 3 42 48
f 3 48 46
f 3 46 45
f 3 45 47
f 3 47 43
f 3 43 31
f 3 31 21
f 3 21 14
f 3 14 9
f 3 9 5
f 3 5 4
f 6 9 10
f 7 11 12
f 7 12 13
f 7 13 8
f 9 14 10
f 10 15 16
f 10 16 17
f 10 14 15
f 11 18 12
f 11 19 18
f 12 18 13
f 13 18 20
f 14 21 22
f 14 22 23
f 14 23 15
f 15 23 16
f 16 23 22
f 16 22 24
f 16 24 25
f 16 25 17
f 17 25 27
f 17 27 28
f 17 28 26
f 18 19 20
f 19 29 30
f 19 30 20
f 21 31 32
f 21 32 33
f 21 33 22
f 22 33 34
f 22 34 25
f 22 25 24
f 25 34 27
f 26 35 36
f 26 28 37
f 26 37 38
f 26 38 35
f 27 39 28
f 27 34 33
f 27 33 39
f 28 39 40
f 28 40 32
f 28 32 37
f 29 41 42
f 29 42 30
f 31 37 32
f 31 43 44
f 31 44 38
f 31 38 37
f 32 40 33
f 33 40 39
f 35 38 44
f 35 44 43
f 35 43 36
f 36 45 46
f 36 46 41
f 36 43 47
f 36 47 45
f 41 46 48
f 41 48 42

