# https://github.com/mikedh/trimesh
v -0.03256027 -0.00260639 0.06082189
v -0.03217929 -0.00106187 0.06175000
v -0.03194732 0.00022405 0.06023586
v -0.03255350 -0.00464862 0.06026314
v -0.03246545 -0.00414382 0.06175000
v -0.03143257 0.00091660 0.06175000
v -0.03102111 0.00197757 0.06048293
v -0.02883851 0.00446084 0.06023586
v -0.03192361 -0.00695654 0.06023586
v -0.03208447 -0.00612051 0.06175000
v -0.03028285 0.00270732 0.06175000
v -0.02879110 0.00421464 0.06175000
v -0.02699456 0.00547221 0.06122385
v -0.02472222 0.00634189 0.06023586
v -0.02707245 -0.01137045 0.06023586
v -0.02951920 -0.01008276 0.06025335
v -0.03098047 -0.00860910 0.06027232
v -0.03126494 -0.00790946 0.06175000
v -0.02511675 0.00608152 0.06175000
v -0.02317459 0.00634366 0.06175000
v -0.02172517 0.00630115 0.06026314
v -0.01914804 0.00527383 0.06023586
v -0.02472053 -0.01175126 0.06023586
v -0.02672195 -0.01127303 0.06175000
v -0.02851002 -0.01055568 0.06175000
v -0.03005257 -0.00941501 0.06175000
v -0.02133233 0.00616122 0.06175000
v -0.01902274 0.00521361 0.06175000
v -0.01726007 0.00376651 0.06175000
v -0.01753945 0.00395249 0.06027232
v -0.01633047 0.00216532 0.06023586
v -0.02478148 -0.01152809 0.06175000
v -0.02253285 -0.01142182 0.06023586
v -0.02279700 -0.01130669 0.06175000
v -0.01617300 0.00215646 0.06175000
v -0.01557529 0.00034980 0.06101101
v -0.01541612 -0.00159147 0.06023586
v -0.02009288 -0.01036793 0.06023586
v -0.02086669 -0.01062122 0.06175000
v -0.01526203 -0.00172077 0.06175000
v -0.01553634 -0.00356639 0.06023586
v -0.01894993 -0.00937250 0.06175000
v -0.01845889 -0.00910327 0.06023586
v -0.01549062 -0.00377894 0.06175000
v -0.01601384 -0.00528980 0.06023586
v -0.01732441 -0.00771994 0.06175000
v -0.01686724 -0.00707521 0.06023586
v -0.01637619 -0.00619490 0.06175000
f 1 2 3
f 1 3 4
f 1 4 5
f 1 5 2
f 2 6 3
f 2 5 10
f 2 10 18
f 2 18 26
f 2 26 25
f 2 25 24
f 2 24 32
f 2 32 34
f 2 34 39
f 2 39 42
f 2 42 46
f 2 46 48
f 2 48 44
f 2 44 40
f 2 40 35
f 2 35 29
f 2 29 28
f 2 28 27
f 2 27 20
f 2 20 19
f 2 19 12
f 2 12 11
f 2 11 6
f 3 6 7
f 3 7 8
f 3 8 14
f 3 14 22
f 3 22 31
f 3 31 37
f 3 37 41
f 3 41 45
f 3 45 47
f 3 47 43
f 3 43 38
f 3 38 33
f 3 33 23
f 3 23 15
f 3 15 9
f 3 9 4
f 4 9 10
f 4 10 5
f 6 11 7
f 7 11 8
f 8 12 13
f 8 13 14
f 8 11 12
f 9 15 16
f 9 16 17
f 9 17 18
f 9 18 10
f 12 19 13
f 13 19 14
f 14 20 21
f 14 21 22
f 14 19 20
f 15 23 24
f 15 24 25
f 15 25 16
f 16 25 26
f 16 26 17
f 17 26 18
f 20 27 21
f 21 27 22
f 22 27 28
f 22 28 29
f 22 29 30
f 22 30 31
f 23 32 24
f 23 33 34
f 23 34 32
f 29 35 31
f 29 31 30
f 31 35 36
f 31 36 37
f 33 38 39
f 33 39 34
f 35 40 36
f 36 40 37
f 37 40 41
f 38 42 39
f 38 43 42
f 40 44 41
f 41 44 45
f 42 43 46
f 43 47 46
f 44 48 45
f 45 48 47
f 46 47 48

