# https://github.com/mikedh/trimesh
v -0.03887346 -0.01168688 0.04040116
v -0.03887346 0.01048686 0.04040116
v -0.03869822 0.01333017 0.03880016
v -0.03869248 -0.01419060 0.03880016
v -0.03873940 -0.01410139 0.04040116
v -0.03886963 0.01075450 0.04040116
v -0.03871546 0.01316901 0.04040116
v -0.03867237 0.01351435 0.03880016
v -0.03864364 -0.01442083 0.03880016
v -0.03866662 -0.01434888 0.03897709
v -0.03866184 -0.01432011 0.04040116
v -0.03857374 0.01345679 0.04040116
v -0.03860917 0.01370717 0.03880016
v -0.03829892 -0.01489567 0.03880016
v -0.03855172 -0.01461365 0.03881786
v -0.03857182 -0.01449853 0.04014133
v -0.03851437 -0.01455321 0.04040116
v -0.03837840 0.01367551 0.04040116
v -0.03848181 0.01391437 0.03880016
v -0.03809495 -0.01501367 0.03880016
v -0.03821178 -0.01490431 0.03936512
v -0.03835637 -0.01470574 0.04040116
v -0.03842819 -0.01477480 0.03887083
v -0.03820412 0.01379350 0.04040116
v -0.03824434 0.01403812 0.03923661
v -0.03829892 0.01409567 0.03880016
v -0.03783162 -0.01508561 0.03880016
v -0.03790535 -0.01505108 0.03908240
v -0.03804995 -0.01492733 0.03992898
v -0.03810644 -0.01487841 0.04021185
v -0.03819550 -0.01485826 0.03992929
v -0.03811219 -0.01485538 0.04040116
v -0.03790631 0.01391149 0.04040116
v -0.03801164 0.01404963 0.03967259
v -0.03809495 0.01421366 0.03880016
v -0.03786609 -0.01498201 0.03992867
v -0.02910047 -0.01510000 0.03880016
v -0.03766213 -0.01495899 0.04040116
v -0.03789386 -0.01492733 0.04040116
v -0.03765639 0.01394890 0.04040116
v -0.03793600 0.01407265 0.03967259
v -0.03802792 0.01419352 0.03901846
v -0.03783162 0.01428561 0.03880016
v -0.02910047 -0.01496474 0.04040116
v -0.02909089 -0.01039761 0.03880016
v -0.02909089 -0.01039761 0.04040116
v -0.02909089 0.01395178 0.04040116
v -0.02909089 0.01430000 0.03880016
f 1 2 3
f 1 3 4
f 1 4 5
f 1 5 11
f 1 11 17
f 1 17 22
f 1 22 32
f 1 32 39
f 1 39 38
f 1 38 44
f 1 44 46
f 1 46 47
f 1 47 40
f 1 40 33
f 1 33 24
f 1 24 18
f 1 18 12
f 1 12 7
f 1 7 6
f 1 6 2
f 2 6 3
f 3 6 7
f 3 7 8
f 3 8 13
f 3 13 19
f 3 19 26
f 3 26 35
f 3 35 43
f 3 43 48
f 3 48 45
f 3 45 37
f 3 37 27
f 3 27 20
f 3 20 14
f 3 14 9
f 3 9 4
f 4 9 10
f 4 10 5
f 5 10 9
f 5 9 11
f 7 12 13
f 7 13 8
f 9 14 15
f 9 15 11
f 11 15 16
f 11 16 17
f 12 18 19
f 12 19 13
f 14 20 21
f 14 21 22
f 14 22 23
f 14 23 15
f 15 23 16
f 16 23 17
f 17 23 22
f 18 24 25
f 18 25 26
f 18 26 19
f 20 27 28
f 20 28 29
f 20 29 30
f 20 30 21
f 21 30 31
f 21 31 22
f 22 31 32
f 24 33 34
f 24 34 35
f 24 35 25
f 25 35 26
f 27 36 28
f 27 37 38
f 27 38 36
f 28 36 29
f 29 39 30
f 29 36 39
f 30 39 32
f 30 32 31
f 33 40 41
f 33 41 34
f 34 41 42
f 34 42 35
f 35 42 43
f 36 38 39
f 37 44 38
f 37 45 46
f 37 46 44
f 40 47 48
f 40 48 43
f 40 43 41
f 41 43 42
f 45 48 47
f 45 47 46

