# https://github.com/mikedh/trimesh
v -0.03134415 -0.01075930 0.04961997
v -0.02975798 -0.01152669 0.04961997
v -0.02975798 -0.01144842 0.05002558
v -0.02975798 -0.01144270 0.05004983
v -0.02975798 -0.01143888 0.05006471
v -0.03006264 -0.01116399 0.05006471
v -0.03087024 -0.01042523 0.05006471
v -0.03134415 -0.01060849 0.04969559
v -0.03134415 0.00797504 0.04961997
v -0.02975798 0.00797504 0.04961997
v -0.02975798 0.00741763 0.05006471
v -0.03124244 -0.00998999 0.05006471
v -0.03134415 -0.01050350 0.04974818
v -0.03134415 0.00741763 0.05006471
v -0.03134415 -0.00986973 0.05006471
v -0.03134415 -0.00992127 0.05003920
v -0.03134415 -0.00994227 0.05002871
f 1 2 3
f 1 3 4
f 1 4 5
f 1 5 6
f 1 6 7
f 1 7 8
f 1 8 13
f 1 13 17
f 1 17 16
f 1 16 15
f 1 15 14
f 1 14 9
f 1 9 10
f 1 10 2
f 2 10 11
f 2 11 5
f 2 5 4
f 2 4 3
f 5 11 14
f 5 14 15
f 5 15 12
f 5 12 7
f 5 7 6
f 7 12 13
f 7 13 8
f 9 14 11
f 9 11 10
f 12 15 16
f 12 16 17
f 12 17 13

