# https://github.com/mikedh/trimesh
v -0.01857026 -0.01160630 0.04919587
v -0.01803212 -0.01160827 0.04919587
v -0.01857026 -0.01152164 0.04923856
v -0.01857026 0.00850516 0.04919587
v -0.01857026 -0.00988161 0.05005902
v -0.01857026 -0.01095068 0.04952441
v -0.01704012 -0.01160630 0.04919587
v -0.01701851 -0.00986980 0.05006471
v -0.01857026 0.00741838 0.05006471
v -0.01704012 0.00850516 0.04919587
v -0.01857026 -0.00986980 0.05006471
v -0.01701608 -0.00702486 0.04920003
v -0.01701608 -0.00710558 0.05006471
v -0.01701851 0.00741838 0.05006471
v -0.01701608 0.00122448 0.04920003
v -0.01701608 0.00037986 0.05006471
v -0.01701608 0.00145089 0.05006429
f 1 2 3
f 1 3 6
f 1 6 5
f 1 5 11
f 1 11 9
f 1 9 4
f 1 4 10
f 1 10 7
f 1 7 2
f 2 5 6
f 2 6 3
f 2 7 8
f 2 8 5
f 4 9 14
f 4 14 10
f 5 8 11
f 7 12 8
f 7 10 15
f 7 15 12
f 8 12 13
f 8 13 16
f 8 16 14
f 8 14 9
f 8 9 11
f 10 14 15
f 12 15 17
f 12 17 16
f 12 16 13
f 14 17 15
f 14 16 17

