# https://github.com/mikedh/trimesh
v -0.02975782 -0.01160741 0.04919587
v -0.02022255 -0.01160741 0.04919587
v -0.02499859 -0.01330000 0.04920003
v -0.02541860 -0.01328719 0.04920003
v -0.02583862 -0.01324877 0.04920003
v -0.02625677 -0.01318901 0.04920003
v -0.02666931 -0.01310577 0.04920003
v -0.02708093 -0.01299691 0.04920003
v -0.02748694 -0.01286245 0.04920003
v -0.02788642 -0.01270877 0.04920003
v -0.02827844 -0.01253161 0.04920003
v -0.02866392 -0.01233098 0.04920003
v -0.02904100 -0.01210900 0.04920003
v -0.02940874 -0.01186141 0.04920003
v -0.02945915 -0.01168425 0.05006471
v -0.02975409 -0.01147081 0.04991393
v -0.02975782 0.00741875 0.05006471
v -0.02975782 0.00846034 0.04922989
v -0.02213969 0.00850517 0.04919587
v -0.02059123 -0.01186141 0.04920003
v -0.02095804 -0.01210900 0.04920003
v -0.02133606 -0.01233098 0.04920003
v -0.02172154 -0.01253161 0.04920003
v -0.02211449 -0.01270877 0.04920003
v -0.02251397 -0.01286245 0.04920003
v -0.02291998 -0.01299691 0.04920003
v -0.02333066 -0.01310577 0.04920003
v -0.02374508 -0.01318901 0.04920003
v -0.02416136 -0.01324877 0.04920003
v -0.02458044 -0.01328719 0.04920003
v -0.02022255 0.00843260 0.04925276
v -0.02022255 0.00743369 0.05005187
v -0.02026829 -0.01153698 0.05006471
v -0.02089924 -0.01197880 0.05006471
v -0.02457017 -0.01315913 0.05006471
v -0.02572475 -0.01313138 0.05006471
v -0.02619610 -0.01306522 0.05006471
v -0.02744121 -0.01275146 0.05006471
v -0.02781362 -0.01260845 0.05006471
v -0.02882259 -0.01209192 0.05006471
v -0.02919220 -0.01187421 0.05006471
v -0.02022255 0.00779014 0.04976764
v -0.02022255 0.00810603 0.04951480
v -0.02122685 -0.01217303 0.05006471
v -0.02231329 -0.01266821 0.05006471
v -0.02288731 -0.01287312 0.05006471
v -0.02326533 -0.01296917 0.05006471
v -0.02417069 -0.01312498 0.05006471
f 1 2 3
f 1 3 4
f 1 4 5
f 1 5 6
f 1 6 7
f 1 7 8
f 1 8 9
f 1 9 10
f 1 10 11
f 1 11 12
f 1 12 13
f 1 13 14
f 1 14 15
f 1 15 16
f 1 16 17
f 1 17 18
f 1 18 19
f 1 19 2
f 2 20 21
f 2 21 22
f 2 22 23
f 2 23 24
f 2 24 25
f 2 25 26
f 2 26 27
f 2 27 28
f 2 28 29
f 2 29 30
f 2 30 3
f 2 19 31
f 2 31 43
f 2 43 42
f 2 42 32
f 2 32 33
f 2 33 34
f 2 34 20
f 3 30 35
f 3 35 36
f 3 36 4
f 4 36 5
f 5 36 37
f 5 37 6
f 6 37 7
f 7 37 38
f 7 38 8
f 8 38 9
f 9 38 39
f 9 39 10
f 10 39 11
f 11 40 12
f 11 39 40
f 12 40 13
f 13 40 41
f 13 41 14
f 14 41 15
f 15 17 16
f 15 41 40
f 15 40 39
f 15 39 38
f 15 38 37
f 15 37 36
f 15 36 35
f 15 35 48
f 15 48 47
f 15 47 46
f 15 46 45
f 15 45 44
f 15 44 34
f 15 34 33
f 15 33 17
f 17 33 32
f 17 32 42
f 17 42 19
f 17 19 18
f 19 42 43
f 19 43 31
f 20 34 21
f 21 34 44
f 21 44 22
f 22 44 23
f 23 44 45
f 23 45 24
f 24 45 25
f 25 45 46
f 25 46 26
f 26 46 27
f 27 46 47
f 27 47 28
f 28 47 48
f 28 48 29
f 29 48 30
f 30 48 35

