# https://github.com/mikedh/trimesh
v -0.03290498 -0.00428709 0.05701425
v -0.03265198 -0.00594297 0.05632598
v -0.03210521 -0.00698460 0.05798836
v -0.03279122 -0.00246099 0.05810336
v -0.03282857 -0.00136386 0.05632598
v -0.03195748 -0.00774316 0.05632598
v -0.03071792 -0.00925473 0.05810336
v -0.03236161 -0.00019641 0.05810336
v -0.03237180 0.00044004 0.05632598
v -0.03040209 -0.00985233 0.05632598
v -0.02933912 -0.01059794 0.05772878
v -0.02781259 -0.01140275 0.05810336
v -0.03165184 0.00151867 0.05810336
v -0.03096923 0.00302284 0.05633468
v -0.02694151 0.00624765 0.05632598
v -0.02601438 -0.01214651 0.05632598
v -0.02842728 -0.01132505 0.05654171
v -0.02603985 -0.01191524 0.05810336
v -0.03065679 0.00306724 0.05810336
v -0.02891122 0.00479898 0.05810336
v -0.02862765 0.00530777 0.05643628
v -0.02696188 0.00597382 0.05810336
v -0.02506858 0.00651777 0.05810336
v -0.02491746 0.00675459 0.05632598
v -0.02396486 -0.01199110 0.05790503
v -0.02325339 -0.01208916 0.05632598
v -0.02013920 -0.01062754 0.05793547
v -0.01793686 -0.00861458 0.05803708
v -0.01653429 -0.00641661 0.05810336
v -0.02224476 0.00653442 0.05810336
v -0.02255550 0.00669168 0.05632598
v -0.02201383 -0.01159702 0.05772687
v -0.02059937 -0.01106418 0.05632598
v -0.01826288 -0.00913632 0.05632598
v -0.01671088 -0.00676999 0.05632598
v -0.01595866 -0.00455166 0.05632598
v -0.01576678 -0.00403177 0.05810336
v -0.02028353 0.00590722 0.05810336
v -0.01980469 0.00560750 0.05632598
v -0.01555792 -0.00215017 0.05810336
v -0.01570735 -0.00207246 0.05632598
v -0.01877399 0.00494884 0.05810336
v -0.01813723 0.00424949 0.05632598
v -0.01576168 -0.00018161 0.05787336
v -0.01630335 0.00161118 0.05787336
v -0.01733745 0.00342247 0.05810336
v -0.01597733 0.00011071 0.05632598
v -0.01687050 0.00241414 0.05632598
f 1 2 3
f 1 3 4
f 1 4 5
f 1 5 2
f 2 6 3
f 2 5 9
f 2 9 15
f 2 15 24
f 2 24 31
f 2 31 39
f 2 39 43
f 2 43 48
f 2 48 47
f 2 47 41
f 2 41 36
f 2 36 35
f 2 35 34
f 2 34 33
f 2 33 26
f 2 26 16
f 2 16 10
f 2 10 6
f 3 6 7
f 3 7 4
f 4 7 12
f 4 12 18
f 4 18 29
f 4 29 37
f 4 37 40
f 4 40 46
f 4 46 42
f 4 42 38
f 4 38 30
f 4 30 23
f 4 23 22
f 4 22 20
f 4 20 19
f 4 19 13
f 4 13 8
f 4 8 5
f 5 8 9
f 6 10 7
f 7 10 11
f 7 11 12
f 8 13 9
f 9 13 14
f 9 14 15
f 10 16 17
f 10 17 11
f 11 17 12
f 12 16 18
f 12 17 16
f 13 19 14
f 14 19 20
f 14 20 21
f 14 21 15
f 15 21 22
f 15 22 23
f 15 23 24
f 16 25 18
f 16 26 25
f 18 25 27
f 18 27 28
f 18 28 29
f 20 22 21
f 23 30 24
f 24 30 31
f 25 26 32
f 25 32 27
f 26 33 32
f 27 32 33
f 27 33 34
f 27 34 28
f 28 34 35
f 28 35 29
f 29 35 36
f 29 36 37
f 30 38 31
f 31 38 39
f 36 40 37
f 36 41 40
f 38 42 39
f 39 42 43
f 40 41 44
f 40 44 45
f 40 45 46
f 41 47 44
f 42 46 43
f 43 46 48
f 44 47 45
f 45 47 48
f 45 48 46

