# https://github.com/mikedh/trimesh
v -0.03973281 0.00957778 0.04833327
v -0.03800777 0.00850149 0.04919587
v -0.03940884 0.01150567 0.04679335
v -0.03952238 0.01121441 0.04702561
v -0.03961926 0.01080109 0.04735521
v -0.03908279 0.01067626 0.04233805
v -0.03908279 -0.01195078 0.04233805
v -0.03972343 -0.01289946 0.04833730
v -0.03800777 -0.01160681 0.04919587
v -0.02909089 0.00850149 0.04919587
v -0.02909089 0.01279001 0.04576696
v -0.03910362 0.01203549 0.04636977
v -0.03926613 0.01177752 0.04657317
v -0.03869528 0.01295922 0.04236625
v -0.03898487 0.01189680 0.04233805
v -0.03912133 0.01111177 0.04284084
v -0.03907237 0.01143910 0.04264886
v -0.03905571 0.01122828 0.04233805
v -0.03904946 -0.01245841 0.04233805
v -0.03887133 -0.01375939 0.04233805
v -0.03966510 -0.01323234 0.04835677
v -0.03914842 -0.01284676 0.04344701
v -0.03954843 -0.01348199 0.04825674
v -0.03930571 -0.01380377 0.04809698
v -0.03748692 -0.01433914 0.04782981
v -0.02909089 -0.01434746 0.04782511
v -0.02909089 -0.01169280 0.04915223
v -0.02909089 0.01353342 0.04233805
v -0.03749629 0.01353342 0.04233805
v -0.03753796 0.01277336 0.04577837
v -0.03821194 0.01262634 0.04589518
v -0.03855986 0.01248210 0.04601064
v -0.03892758 0.01226296 0.04618584
v -0.03827860 0.01331983 0.04233805
v -0.03867861 -0.01424760 0.04233805
v -0.03837757 -0.01453609 0.04233805
v -0.03902966 -0.01403678 0.04798018
v -0.03808589 -0.01427534 0.04786136
v -0.03778901 -0.01431140 0.04784189
v -0.03749629 -0.01480516 0.04233805
v -0.03718170 -0.01434746 0.04782511
v -0.02910027 -0.01480516 0.04233805
v -0.02909089 -0.01039737 0.04233805
v -0.03780359 0.01349736 0.04233805
v -0.03791297 0.01271233 0.04582536
v -0.03791922 -0.01474413 0.04233805
v -0.03851611 -0.01419212 0.04790231
f 1 2 3
f 1 3 4
f 1 4 5
f 1 5 6
f 1 6 7
f 1 7 8
f 1 8 9
f 1 9 2
f 2 10 11
f 2 11 12
f 2 12 3
f 2 9 10
f 3 13 14
f 3 14 4
f 3 12 13
f 4 14 15
f 4 15 5
f 5 16 6
f 5 15 17
f 5 17 16
f 6 16 18
f 6 18 15
f 6 15 34
f 6 34 44
f 6 44 29
f 6 29 28
f 6 28 43
f 6 43 42
f 6 42 40
f 6 40 46
f 6 46 36
f 6 36 35
f 6 35 20
f 6 20 19
f 6 19 7
f 7 19 8
f 8 20 21
f 8 21 9
f 8 19 22
f 8 22 20
f 9 21 23
f 9 23 24
f 9 24 25
f 9 25 26
f 9 26 27
f 9 27 10
f 10 27 26
f 10 26 43
f 10 43 28
f 10 28 11
f 11 28 29
f 11 29 30
f 11 30 12
f 12 30 31
f 12 31 32
f 12 32 33
f 12 33 14
f 12 14 13
f 14 33 34
f 14 34 15
f 15 18 17
f 16 17 18
f 19 20 22
f 20 35 21
f 21 35 23
f 23 35 24
f 24 35 36
f 24 36 37
f 24 37 38
f 24 38 25
f 25 38 39
f 25 39 40
f 25 40 41
f 25 41 26
f 26 41 40
f 26 40 42
f 26 42 43
f 29 44 30
f 30 45 31
f 30 44 45
f 31 45 44
f 31 44 32
f 32 44 34
f 32 34 33
f 36 46 37
f 37 46 47
f 37 47 38
f 38 47 46
f 38 46 40
f 38 40 39

