# https://github.com/mikedh/trimesh
v -0.03223524 -0.01160630 0.04919587
v -0.03134415 -0.01160827 0.04919587
v -0.03223524 -0.01140351 0.04929801
v -0.03223524 0.00850320 0.04919587
v -0.03134415 -0.00997021 0.05001488
v -0.03223524 -0.01102747 0.04948605
v -0.03134415 0.00850517 0.04919587
v -0.03223524 0.00741838 0.05006471
v -0.03223524 -0.00986980 0.05006471
v -0.03134415 -0.00986980 0.05006471
v -0.03134415 0.00741838 0.05006471
f 1 2 3
f 1 3 6
f 1 6 9
f 1 9 8
f 1 8 4
f 1 4 7
f 1 7 2
f 2 5 6
f 2 6 3
f 2 7 11
f 2 11 10
f 2 10 5
f 4 8 7
f 5 9 6
f 5 10 9
f 7 8 11
f 8 9 10
f 8 10 11

