# https://github.com/mikedh/trimesh
v -0.01699944 0.00159853 0.05080882
v -0.01637613 -0.00052333 0.05080882
v -0.01662865 0.00023607 0.05006457
v -0.01681604 0.00062815 0.04920000
v -0.01701585 0.00122439 0.04920000
v -0.01701585 0.00145161 0.05006426
v -0.01701585 0.00038043 0.05006457
v -0.01699944 -0.00712808 0.05080882
v -0.01648715 -0.00075567 0.04920000
v -0.01637696 -0.00052333 0.05079985
v -0.01650389 -0.00025083 0.05006457
v -0.01657843 0.00006437 0.05006457
v -0.01616499 -0.00275452 0.05080882
v -0.01638337 -0.00146552 0.04920000
v -0.01659609 0.00011562 0.05000000
v -0.01663148 -0.00005778 0.04920000
v -0.01701585 -0.00702472 0.04920000
v -0.01701585 -0.00710587 0.05006457
v -0.01681604 -0.00642848 0.04920000
v -0.01662865 -0.00588520 0.05006457
v -0.01637762 -0.00499683 0.05080882
v -0.01651505 -0.00022777 0.05000000
v -0.01644409 -0.00057373 0.05000000
v -0.01643859 -0.00056945 0.05006457
v -0.01622746 -0.00282201 0.05006457
v -0.01632091 -0.00218135 0.04920000
v -0.01637621 -0.00499085 0.05080882
v -0.01638337 -0.00433481 0.04920000
v -0.01632091 -0.00361898 0.04920000
v -0.01663148 -0.00574341 0.04920000
v -0.01659609 -0.00577587 0.05000000
v -0.01637696 -0.00499255 0.05079985
v -0.01630009 -0.00289889 0.04920000
v -0.01648715 -0.00504381 0.04920000
v -0.01651505 -0.00543162 0.05000000
v -0.01650389 -0.00539660 0.05006457
v -0.01643859 -0.00507712 0.05006457
v -0.01644409 -0.00508481 0.05000000
f 1 2 3
f 1 3 4
f 1 4 5
f 1 5 6
f 1 6 7
f 1 7 18
f 1 18 8
f 1 8 21
f 1 21 27
f 1 27 13
f 1 13 2
f 2 9 10
f 2 10 11
f 2 11 12
f 2 12 3
f 2 13 14
f 2 14 9
f 3 12 15
f 3 15 4
f 4 15 16
f 4 16 9
f 4 9 14
f 4 14 26
f 4 26 33
f 4 33 29
f 4 29 28
f 4 28 34
f 4 34 30
f 4 30 19
f 4 19 17
f 4 17 5
f 5 17 18
f 5 18 7
f 5 7 6
f 8 18 17
f 8 17 19
f 8 19 20
f 8 20 21
f 9 16 22
f 9 22 23
f 9 23 24
f 9 24 10
f 10 24 11
f 11 22 15
f 11 15 12
f 11 24 23
f 11 23 22
f 13 25 26
f 13 26 14
f 13 27 28
f 13 28 29
f 13 29 25
f 15 22 16
f 19 30 31
f 19 31 20
f 20 31 21
f 21 32 27
f 21 31 32
f 25 29 33
f 25 33 26
f 27 32 28
f 28 32 34
f 30 34 35
f 30 35 31
f 31 35 36
f 31 36 32
f 32 36 37
f 32 37 34
f 34 37 38
f 34 38 35
f 35 38 36
f 36 38 37

