# https://github.com/mikedh/trimesh
v -0.03134415 -0.01160630 0.04919587
v -0.02975798 -0.01160630 0.04919587
v -0.02975798 -0.01160630 0.04920002
v -0.02975798 -0.01160236 0.04922588
v -0.02975798 -0.01152558 0.04961993
v -0.03134415 -0.01124207 0.04937886
v -0.03134415 0.00850320 0.04919587
v -0.02975798 0.00850320 0.04919587
v -0.03134415 -0.01075971 0.04961993
v -0.02975798 0.00797359 0.04961993
v -0.03134415 0.00818228 0.04945383
v -0.02975798 0.00841066 0.04927018
v -0.03134415 0.00797359 0.04961993
v -0.02975798 0.00806809 0.04954458
v -0.02975798 0.00811928 0.04950361
f 1 2 3
f 1 3 4
f 1 4 5
f 1 5 6
f 1 6 9
f 1 9 13
f 1 13 11
f 1 11 7
f 1 7 8
f 1 8 2
f 2 8 12
f 2 12 15
f 2 15 14
f 2 14 10
f 2 10 5
f 2 5 4
f 2 4 3
f 5 9 6
f 5 10 13
f 5 13 9
f 7 11 8
f 8 11 12
f 10 14 11
f 10 11 13
f 11 14 15
f 11 15 12

