# https://github.com/mikedh/trimesh
v -0.03800770 -0.01160630 0.04919587
v -0.03346941 -0.01160827 0.04919587
v -0.03480021 -0.00839910 0.05079998
v -0.03800770 0.00850320 0.04919587
v -0.03223524 -0.01160630 0.04919587
v -0.03223524 -0.01140351 0.04929802
v -0.03223524 -0.01102747 0.04948606
v -0.03223524 -0.00898187 0.05050868
v -0.03223524 -0.00839910 0.05079998
v -0.03223524 -0.00834003 0.05080882
v -0.03249405 -0.00782814 0.05080882
v -0.03274608 -0.00724143 0.05080882
v -0.03294895 -0.00668426 0.05080882
v -0.03311283 -0.00615071 0.05080882
v -0.03324789 -0.00562306 0.05080882
v -0.03335808 -0.00508755 0.05080882
v -0.03344341 -0.00454612 0.05080882
v -0.03350331 -0.00400273 0.05080882
v -0.03353778 -0.00345540 0.05080882
v -0.03354739 -0.00291003 0.05080882
v -0.03480021 0.00649894 0.05079998
v -0.03223524 0.00850517 0.04919587
v -0.03223524 0.00243333 0.05080882
v -0.03354739 -0.00290216 0.05080882
v -0.03353213 -0.00235483 0.05080882
v -0.03349145 -0.00180750 0.05080882
v -0.03342590 -0.00126607 0.05080882
v -0.03333492 -0.00072465 0.05080882
v -0.03321964 -0.00019110 0.05080882
v -0.03321681 -0.00017929 0.05080882
v -0.03307723 0.00034639 0.05080882
v -0.03291222 0.00086813 0.05080882
v -0.03272348 0.00137805 0.05080882
v -0.03250874 0.00188010 0.05080882
v -0.03227084 0.00237033 0.05080882
v -0.03223524 0.00649894 0.05079998
v -0.03223524 0.00657179 0.05074220
f 1 2 3
f 1 3 21
f 1 21 4
f 1 4 22
f 1 22 5
f 1 5 2
f 2 5 6
f 2 6 7
f 2 7 8
f 2 8 3
f 3 8 9
f 3 9 10
f 3 10 11
f 3 11 12
f 3 12 13
f 3 13 14
f 3 14 15
f 3 15 16
f 3 16 17
f 3 17 18
f 3 18 19
f 3 19 20
f 3 20 24
f 3 24 21
f 4 21 22
f 5 22 37
f 5 37 36
f 5 36 23
f 5 23 10
f 5 10 9
f 5 9 8
f 5 8 7
f 5 7 6
f 10 23 35
f 10 35 34
f 10 34 33
f 10 33 32
f 10 32 31
f 10 31 30
f 10 30 29
f 10 29 28
f 10 28 27
f 10 27 26
f 10 26 25
f 10 25 24
f 10 24 20
f 10 20 19
f 10 19 18
f 10 18 17
f 10 17 16
f 10 16 15
f 10 15 14
f 10 14 13
f 10 13 12
f 10 12 11
f 21 25 26
f 21 26 27
f 21 27 28
f 21 28 29
f 21 29 30
f 21 30 31
f 21 31 32
f 21 32 33
f 21 33 34
f 21 34 35
f 21 35 23
f 21 23 36
f 21 36 37
f 21 37 22
f 21 24 25

