# https://github.com/mikedh/trimesh
v -0.02400349 -0.01457805 0.04500044
v -0.02399940 -0.01477143 0.04270972
v -0.02400349 -0.01445374 0.04651024
v -0.02400349 -0.00825748 0.04270972
v -0.01871211 -0.01476038 0.04270972
v -0.01956958 -0.01434324 0.04782575
v -0.02400349 -0.01434324 0.04782575
v -0.02400349 0.01345013 0.04270972
v -0.01780897 -0.01440678 0.04270972
v -0.01823634 -0.01465540 0.04272115
v -0.01852534 -0.01424656 0.04787464
v -0.01913675 -0.01432391 0.04783464
v -0.01778375 -0.01406699 0.04796479
v -0.01716484 -0.01332941 0.04833431
v -0.02400349 -0.01314985 0.04842319
v -0.02400349 0.01278714 0.04576867
v -0.01921241 0.01278437 0.04577058
v -0.01874142 0.01343908 0.04270972
v -0.01757313 -0.01416092 0.04270972
v -0.01754518 -0.01388191 0.04805622
v -0.01730321 -0.01358908 0.04820352
v -0.01734274 -0.01338190 0.04270972
v -0.01707282 -0.01295924 0.04851906
v -0.01704010 -0.01160562 0.04919587
v -0.02400349 -0.01160562 0.04919587
v -0.02400349 -0.01260564 0.04869557
v -0.01846195 0.01260481 0.04591533
v -0.02400349 0.00850252 0.04919587
v -0.01882116 0.01272636 0.04581692
v -0.01890977 0.01285344 0.04535979
v -0.01831404 0.01334516 0.04271924
v -0.01800731 0.01317665 0.04270972
v -0.01722209 -0.01251448 0.04270972
v -0.01720233 -0.01199789 0.04270972
v -0.01720233 0.01067660 0.04270972
v -0.01704078 0.00850252 0.04919587
v -0.01708850 0.01075118 0.04739719
v -0.01778375 0.01212690 0.04629691
v -0.01814091 0.01242249 0.04605946
v -0.01772785 0.01287277 0.04270972
v -0.01747702 0.01178988 0.04656420
v -0.01728548 0.01152744 0.04270972
v -0.01722414 0.01111031 0.04276432
v -0.01712667 0.01103019 0.04717244
v -0.01719347 0.01126501 0.04698578
v -0.01728821 0.01148877 0.04680673
v -0.01751451 0.01236171 0.04270972
f 1 2 3
f 1 3 7
f 1 7 15
f 1 15 26
f 1 26 25
f 1 25 28
f 1 28 16
f 1 16 8
f 1 8 4
f 1 4 2
f 2 5 6
f 2 6 3
f 2 4 8
f 2 8 18
f 2 18 32
f 2 32 40
f 2 40 47
f 2 47 42
f 2 42 35
f 2 35 34
f 2 34 33
f 2 33 22
f 2 22 19
f 2 19 9
f 2 9 5
f 3 6 7
f 5 9 10
f 5 10 11
f 5 11 12
f 5 12 6
f 6 12 11
f 6 11 7
f 7 11 13
f 7 13 14
f 7 14 15
f 8 16 17
f 8 17 18
f 9 19 20
f 9 20 13
f 9 13 10
f 10 13 11
f 13 20 21
f 13 21 14
f 14 21 19
f 14 19 22
f 14 22 23
f 14 23 24
f 14 24 25
f 14 25 26
f 14 26 15
f 16 27 17
f 16 28 27
f 17 27 29
f 17 29 30
f 17 30 18
f 18 31 32
f 18 30 31
f 19 21 20
f 22 33 23
f 23 33 34
f 23 34 24
f 24 34 35
f 24 35 36
f 24 36 28
f 24 28 25
f 27 28 36
f 27 36 37
f 27 37 38
f 27 38 39
f 27 39 31
f 27 31 29
f 29 31 30
f 31 39 32
f 32 39 38
f 32 38 41
f 32 41 40
f 35 42 43
f 35 43 37
f 35 37 36
f 37 43 44
f 37 44 45
f 37 45 38
f 38 45 46
f 38 46 41
f 40 41 46
f 40 46 45
f 40 45 47
f 42 47 44
f 42 44 43
f 44 47 45

