# https://github.com/mikedh/trimesh
v -0.02655453 0.00850373 0.04919546
v -0.02655453 0.00917769 0.04865708
v -0.02909089 0.00867357 0.04906066
v -0.02909089 0.00850373 0.04919546
v -0.02655453 -0.01160714 0.04919546
v -0.02655453 0.01279009 0.04576795
v -0.02909089 0.01279009 0.04576795
v -0.02909089 -0.01160714 0.04919546
v -0.02909089 -0.01216248 0.04891805
v -0.02655453 -0.01246441 0.04876681
v -0.02655453 0.01295723 0.04499738
v -0.02909089 0.01295723 0.04499738
v -0.02909089 -0.01434610 0.04782569
v -0.02655453 -0.01434610 0.04782569
v -0.02655453 -0.01039941 0.04499738
v -0.02909089 -0.01039941 0.04499738
v -0.02909089 -0.01458333 0.04500025
v -0.02655453 -0.01458333 0.04500025
f 1 2 3
f 1 3 4
f 1 4 8
f 1 8 5
f 1 5 10
f 1 10 14
f 1 14 18
f 1 18 15
f 1 15 11
f 1 11 6
f 1 6 2
f 2 6 3
f 3 6 7
f 3 7 12
f 3 12 16
f 3 16 17
f 3 17 13
f 3 13 9
f 3 9 8
f 3 8 4
f 5 8 9
f 5 9 10
f 6 11 12
f 6 12 7
f 9 13 14
f 9 14 10
f 11 15 16
f 11 16 12
f 13 17 18
f 13 18 14
f 15 18 17
f 15 17 16

