# https://github.com/mikedh/trimesh
v -0.03148901 -0.00987030 0.05006471
v -0.03098560 -0.01014454 0.05080882
v -0.03143249 -0.00958568 0.05080882
v -0.03148901 0.00197973 0.05080882
v -0.03148901 0.00197973 0.05006471
v -0.03006159 -0.01116440 0.05006471
v -0.03071353 -0.01046473 0.05080882
v -0.01806129 0.00197973 0.05080882
v -0.01806129 0.00197973 0.05006471
v -0.02973168 -0.01146236 0.05006471
v -0.02917307 -0.01176773 0.05080882
v -0.01806129 -0.00910391 0.05080882
v -0.01806129 -0.00987030 0.05006471
v -0.02945961 -0.01168323 0.05006471
v -0.02928874 -0.01181071 0.05006471
v -0.02901009 -0.01198712 0.05006471
v -0.02873013 -0.01214128 0.05006471
v -0.02774960 -0.01252077 0.05080882
v -0.01819273 -0.00929959 0.05080882
v -0.02031414 -0.01157650 0.05006471
v -0.01845824 -0.00967463 0.05080882
v -0.01872374 -0.01001260 0.05080882
v -0.01906811 -0.01039950 0.05080882
v -0.01925475 -0.01058776 0.05080882
v -0.02031940 -0.01150535 0.05080882
v -0.02781269 -0.01260823 0.05006471
v -0.02743940 -0.01275053 0.05006471
v -0.02739997 -0.01265270 0.05080882
v -0.02071240 -0.01185074 0.05006471
v -0.02084647 -0.01186556 0.05080882
v -0.02619600 -0.01306628 0.05006471
v -0.02585952 -0.01300995 0.05080882
v -0.02089904 -0.01197822 0.05006471
v -0.02113432 -0.01203603 0.05080882
v -0.02584900 -0.01312113 0.05006471
v -0.02559795 -0.01314484 0.05006471
v -0.02438347 -0.01304553 0.05080882
v -0.02120398 -0.01215759 0.05006471
v -0.02259065 -0.01268383 0.05080882
v -0.02225417 -0.01264380 0.05006471
v -0.02467526 -0.01316411 0.05006471
v -0.02302045 -0.01281279 0.05080882
v -0.02437427 -0.01314929 0.05006471
v -0.02407459 -0.01311075 0.05006471
v -0.02281015 -0.01275498 0.05080882
v -0.02255253 -0.01276684 0.05006471
v -0.02325967 -0.01296844 0.05006471
v -0.02288770 -0.01287209 0.05006471
f 1 2 3
f 1 3 4
f 1 4 5
f 1 5 9
f 1 9 13
f 1 13 20
f 1 20 29
f 1 29 33
f 1 33 38
f 1 38 40
f 1 40 46
f 1 46 48
f 1 48 47
f 1 47 44
f 1 44 43
f 1 43 41
f 1 41 36
f 1 36 35
f 1 35 31
f 1 31 27
f 1 27 26
f 1 26 17
f 1 17 16
f 1 16 15
f 1 15 14
f 1 14 10
f 1 10 6
f 1 6 7
f 1 7 2
f 2 7 11
f 2 11 18
f 2 18 28
f 2 28 32
f 2 32 37
f 2 37 42
f 2 42 45
f 2 45 39
f 2 39 34
f 2 34 30
f 2 30 25
f 2 25 24
f 2 24 23
f 2 23 22
f 2 22 21
f 2 21 19
f 2 19 12
f 2 12 8
f 2 8 4
f 2 4 3
f 4 8 9
f 4 9 5
f 6 10 7
f 7 10 11
f 8 12 13
f 8 13 9
f 10 14 11
f 11 14 15
f 11 15 16
f 11 16 17
f 11 17 18
f 12 19 13
f 13 19 21
f 13 21 22
f 13 22 23
f 13 23 24
f 13 24 25
f 13 25 20
f 17 26 18
f 18 26 27
f 18 27 28
f 20 25 29
f 25 30 29
f 27 31 28
f 28 31 32
f 29 30 33
f 30 34 33
f 31 35 32
f 32 35 36
f 32 36 37
f 33 34 38
f 34 39 40
f 34 40 38
f 36 41 37
f 37 41 43
f 37 43 44
f 37 44 42
f 39 45 46
f 39 46 40
f 42 44 47
f 42 47 48
f 42 48 45
f 45 48 46

