# https://github.com/mikedh/trimesh
v -0.02400374 0.00850373 0.04919546
v -0.02400374 0.00865469 0.04907504
v -0.02655453 0.00850373 0.04919546
v -0.02400374 -0.01160714 0.04919546
v -0.02655453 0.00917769 0.04865708
v -0.02400374 0.01279009 0.04576795
v -0.02655453 -0.01160714 0.04919546
v -0.02400374 -0.01315185 0.04842324
v -0.02655453 0.01279009 0.04576795
v -0.02400374 0.01295723 0.04499738
v -0.02655453 -0.01246441 0.04876681
v -0.02655453 -0.01434610 0.04782569
v -0.02400374 -0.01434610 0.04782569
v -0.02655453 0.01295723 0.04499738
v -0.02400374 -0.01039941 0.04499738
v -0.02655453 -0.01458333 0.04500025
v -0.02400374 -0.01449707 0.04603220
v -0.02655453 -0.01039941 0.04499738
v -0.02400374 -0.01458333 0.04500025
f 1 2 3
f 1 3 7
f 1 7 4
f 1 4 8
f 1 8 13
f 1 13 17
f 1 17 19
f 1 19 15
f 1 15 10
f 1 10 6
f 1 6 2
f 2 5 3
f 2 6 5
f 3 5 9
f 3 9 14
f 3 14 18
f 3 18 16
f 3 16 12
f 3 12 11
f 3 11 7
f 4 7 8
f 5 6 9
f 6 10 14
f 6 14 9
f 7 11 8
f 8 12 13
f 8 11 12
f 10 15 18
f 10 18 14
f 12 16 17
f 12 17 13
f 15 19 16
f 15 16 18
f 16 19 17

