# https://github.com/mikedh/trimesh
v -0.03278647 -0.00246812 0.05815992
v -0.03230187 -0.00021514 0.05874261
v -0.03168974 0.00137520 0.05838720
v -0.03065253 0.00306901 0.05813049
v -0.03109462 -0.00881675 0.05810357
v -0.03275076 -0.00452865 0.05838720
v -0.03261474 -0.00256978 0.06023566
v -0.03195500 0.00022965 0.06016178
v -0.03101300 0.00204873 0.06023566
v -0.02897938 0.00450866 0.05936704
v -0.02696106 0.00597373 0.05810649
v -0.02509918 -0.01199742 0.05810357
v -0.02991458 -0.01004036 0.05830664
v -0.03098920 -0.00859890 0.06023566
v -0.03192439 -0.00695591 0.06023566
v -0.03214544 -0.00679978 0.05844459
v -0.02497675 0.00654923 0.05810357
v -0.03255692 -0.00463940 0.06023566
v -0.02688285 0.00568689 0.06023566
v -0.02474040 0.00634772 0.06015969
v -0.02472340 -0.01175052 0.06023399
v -0.02687094 -0.01144008 0.06023566
v -0.02718721 -0.01157442 0.05844417
v -0.01792709 -0.00860071 0.05810357
v -0.02010524 -0.01057592 0.05829558
v -0.02254524 -0.01166701 0.05828556
v -0.02952009 -0.01008393 0.06023566
v -0.02242962 0.00644757 0.06023566
v -0.02224428 0.00653471 0.05810357
v -0.02252654 -0.01142011 0.06023566
v -0.01845760 -0.00910359 0.06023566
v -0.01656510 -0.00650205 0.05810357
v -0.01706671 -0.00740977 0.06023566
v -0.02008653 -0.01036351 0.06023566
v -0.02094011 0.00612623 0.06023566
v -0.01965124 0.00553076 0.05810357
v -0.01580334 -0.00426541 0.05810357
v -0.01631685 -0.00605363 0.06023566
v -0.01920575 0.00532562 0.06023566
v -0.01751050 0.00391138 0.06023566
v -0.01768734 0.00388233 0.05810357
v -0.01568262 -0.00417646 0.06023566
v -0.01555849 -0.00215223 0.05810357
v -0.01633045 0.00216492 0.06023566
v -0.01651749 0.00215584 0.05844459
v -0.01574043 -0.00019517 0.05810357
v -0.01541566 -0.00159125 0.06023566
v -0.01565881 0.00039667 0.06023566
f 1 2 3
f 1 3 4
f 1 4 5
f 1 5 6
f 1 6 7
f 1 7 2
f 2 7 8
f 2 8 3
f 3 9 4
f 3 8 9
f 4 9 10
f 4 10 11
f 4 11 5
f 5 12 13
f 5 13 14
f 5 14 15
f 5 15 16
f 5 16 6
f 5 11 17
f 5 17 29
f 5 29 36
f 5 36 41
f 5 41 46
f 5 46 43
f 5 43 37
f 5 37 32
f 5 32 24
f 5 24 12
f 6 16 18
f 6 18 7
f 7 18 15
f 7 15 14
f 7 14 27
f 7 27 22
f 7 22 30
f 7 30 34
f 7 34 31
f 7 31 33
f 7 33 38
f 7 38 42
f 7 42 47
f 7 47 48
f 7 48 44
f 7 44 40
f 7 40 39
f 7 39 35
f 7 35 28
f 7 28 19
f 7 19 9
f 7 9 8
f 9 19 10
f 10 19 11
f 11 19 20
f 11 20 17
f 12 21 22
f 12 22 23
f 12 23 13
f 12 24 25
f 12 25 26
f 12 26 21
f 13 27 14
f 13 23 27
f 15 18 16
f 17 20 28
f 17 28 29
f 19 28 20
f 21 26 30
f 21 30 22
f 22 27 23
f 24 31 25
f 24 32 33
f 24 33 31
f 25 31 34
f 25 34 26
f 26 34 30
f 28 35 29
f 29 35 36
f 32 37 38
f 32 38 33
f 35 39 36
f 36 39 40
f 36 40 41
f 37 42 38
f 37 43 42
f 40 44 41
f 41 44 45
f 41 45 46
f 42 43 47
f 43 46 47
f 44 48 45
f 45 48 46
f 46 48 47

