# https://github.com/mikedh/trimesh
v -0.02022255 -0.01154164 0.04962238
v -0.01857026 -0.01075468 0.04962238
v -0.02022255 -0.01149962 0.05006471
v -0.02022255 0.00797203 0.04962238
v -0.01857026 -0.00988176 0.05005904
v -0.01865986 -0.00997917 0.05006471
v -0.01902781 -0.01040704 0.05006471
v -0.01926718 -0.01065917 0.05006471
v -0.01931813 -0.01071265 0.05006471
v -0.01951399 -0.01089602 0.05006471
v -0.01956736 -0.01094569 0.05006471
v -0.01857026 0.00797203 0.04962238
v -0.02022255 0.00741810 0.05006471
v -0.02022255 0.00774090 0.04980726
v -0.01857026 -0.00987030 0.05006471
v -0.02022255 0.00751360 0.04998907
v -0.01857026 0.00741810 0.05006471
v -0.02022255 0.00745057 0.05003917
f 1 2 3
f 1 3 13
f 1 13 18
f 1 18 16
f 1 16 14
f 1 14 4
f 1 4 12
f 1 12 2
f 2 5 6
f 2 6 7
f 2 7 8
f 2 8 9
f 2 9 10
f 2 10 11
f 2 11 3
f 2 12 17
f 2 17 15
f 2 15 5
f 3 11 10
f 3 10 9
f 3 9 8
f 3 8 7
f 3 7 6
f 3 6 15
f 3 15 17
f 3 17 13
f 4 14 12
f 5 15 6
f 12 14 16
f 12 16 17
f 13 17 18
f 16 18 17

