# https://github.com/mikedh/trimesh
v -0.03340075 -0.00417812 0.05148969
v -0.03282372 -0.00697460 0.05080990
v -0.03288383 -0.00503216 0.05561217
v -0.03294222 -0.00144918 0.05553010
v -0.03330973 -0.00168553 0.05234281
v -0.03297485 0.00048730 0.05119110
v -0.03157175 -0.00933611 0.05080990
v -0.03230507 -0.00736984 0.05439892
v -0.03182421 0.00304345 0.05080990
v -0.03037475 -0.00987435 0.05617155
v -0.03096552 0.00307722 0.05609866
v -0.03234114 0.00080707 0.05544425
v -0.03103250 -0.00970950 0.05321482
v -0.01749274 -0.00810471 0.05080990
v -0.02511959 -0.01302634 0.05082178
v -0.02845301 -0.01201540 0.05162090
v -0.03028888 -0.01056950 0.05283956
v -0.03064437 -0.01018618 0.05300370
v -0.03143436 0.00314077 0.05315272
v -0.02945595 0.00506136 0.05447829
v -0.02884629 0.00591739 0.05180340
v -0.02637499 0.00715276 0.05090007
v -0.02404967 0.00726399 0.05080990
v -0.02720963 -0.01189226 0.05618073
v -0.02779697 0.00577836 0.05632220
v -0.01802513 -0.00889916 0.05458952
v -0.01981119 -0.01099056 0.05090385
v -0.01627169 -0.00387027 0.05080990
v -0.01595913 -0.00454953 0.05632544
v -0.01669245 -0.00669654 0.05572772
v -0.02544932 -0.01269069 0.05330337
v -0.02342626 -0.01264501 0.05252477
v -0.02491866 0.00675355 0.05632544
v -0.02229623 0.00664233 0.05626118
v -0.02205065 0.00673567 0.05341892
v -0.02053764 0.00593526 0.05080990
v -0.02351556 -0.01212265 0.05608246
v -0.02056340 -0.01106405 0.05622177
v -0.01991424 -0.01094885 0.05344537
v -0.02055653 -0.01132622 0.05385951
v -0.01771772 0.00298983 0.05114953
v -0.01631119 -0.00052364 0.05148969
v -0.01585609 -0.00107579 0.05595936
v -0.01687792 0.00242378 0.05632544
v -0.01896968 0.00492829 0.05632544
v -0.02043117 0.00600081 0.05353770
v -0.01709431 0.00237611 0.05353770
v -0.01670619 0.00153201 0.05353770
f 1 2 3
f 1 3 4
f 1 4 5
f 1 5 6
f 1 6 2
f 2 7 8
f 2 8 3
f 2 6 9
f 2 9 23
f 2 23 36
f 2 36 28
f 2 28 14
f 2 14 7
f 3 8 10
f 3 10 11
f 3 11 4
f 4 11 12
f 4 12 6
f 4 6 5
f 6 12 9
f 7 13 8
f 7 14 15
f 7 15 16
f 7 16 17
f 7 17 18
f 7 18 13
f 8 13 10
f 9 12 19
f 9 19 20
f 9 20 21
f 9 21 22
f 9 22 23
f 10 13 18
f 10 18 17
f 10 17 16
f 10 16 24
f 10 24 25
f 10 25 11
f 11 25 20
f 11 20 19
f 11 19 12
f 14 26 27
f 14 27 15
f 14 28 29
f 14 29 30
f 14 30 26
f 15 31 16
f 15 27 32
f 15 32 31
f 16 31 24
f 20 25 21
f 21 25 22
f 22 25 33
f 22 33 23
f 23 33 34
f 23 34 35
f 23 35 36
f 24 31 37
f 24 37 38
f 24 38 29
f 24 29 25
f 25 29 33
f 26 30 38
f 26 38 39
f 26 39 27
f 27 39 40
f 27 40 32
f 28 36 41
f 28 41 42
f 28 42 43
f 28 43 29
f 29 38 30
f 29 43 44
f 29 44 45
f 29 45 33
f 31 32 37
f 32 40 38
f 32 38 37
f 33 45 34
f 34 45 46
f 34 46 35
f 35 46 36
f 36 46 45
f 36 45 41
f 38 40 39
f 41 44 47
f 41 47 48
f 41 48 42
f 41 45 44
f 42 48 43
f 43 48 44
f 44 48 47

