ISO-10303-21;
HEADER;
FILE_DESCRIPTION(('Open CASCADE Model'),'2;1');
FILE_NAME('Open CASCADE Shape Model','2026-10-04T12:49:58',('Author'),(
    'Open CASCADE'),'Open CASCADE STEP processor 7.9','Open CASCADE 7.9'
  ,'Unknown');
FILE_SCHEMA(('AUTOMOTIVE_DESIGN { 1 0 10303 214 1 1 1 1 }'));
ENDSEC;
DATA;
#1 = APPLICATION_PROTOCOL_DEFINITION('international standard',
  'automotive_design',2000,#2);
#2 = APPLICATION_CONTEXT(
  'core data for automotive mechanical design processes');
#3 = SHAPE_DEFINITION_REPRESENTATION(#4,#10);
#4 = PRODUCT_DEFINITION_SHAPE('','',#5);
#5 = PRODUCT_DEFINITION('design','',#6,#9);
#6 = PRODUCT_DEFINITION_FORMATION('','',#7);
#7 = PRODUCT('Open CASCADE STEP translator 7.9 6',
  'Open CASCADE STEP translator 7.9 6','',(#8));
#8 = PRODUCT_CONTEXT('',#2,'mechanical');
#9 = PRODUCT_DEFINITION_CONTEXT('part definition',#2,'design');
#10 = ADVANCED_BREP_SHAPE_REPRESENTATION('',(#11,#15),#1075);
#11 = AXIS2_PLACEMENT_3D('',#12,#13,#14);
#12 = CARTESIAN_POINT('',(0.,0.,0.));
#13 = DIRECTION('',(0.,0.,1.));
#14 = DIRECTION('',(1.,0.,-0.));
#15 = MANIFOLD_SOLID_BREP('',#16);
#16 = CLOSED_SHELL('',(#17,#136,#600,#1049));
#17 = ADVANCED_FACE('',(#18),#31,.F.);
#18 = FACE_BOUND('',#19,.F.);
#19 = EDGE_LOOP('',(#20,#59,#97,#98));
#20 = ORIENTED_EDGE('',*,*,#21,.T.);
#21 = EDGE_CURVE('',#22,#24,#26,.T.);
#22 = VERTEX_POINT('',#23);
#23 = CARTESIAN_POINT('',(22.789996966407,18.54004806732,37.591841943149
    ));
#24 = VERTEX_POINT('',#25);
#25 = CARTESIAN_POINT('',(22.789996966407,18.54004806732,42.620548988139
    ));
#26 = SEAM_CURVE('',#27,(#30,#52),.PCURVE_S1.);
#27 = B_SPLINE_CURVE_WITH_KNOTS('',1,(#28,#29),.UNSPECIFIED.,.F.,.F.,(2,
    2),(0.,5.02870704499),.PIECEWISE_BEZIER_KNOTS.);
#28 = CARTESIAN_POINT('',(22.789996966407,18.54004806732,37.591841943149
    ));
#29 = CARTESIAN_POINT('',(22.789996966407,18.54004806732,42.620548988139
    ));
#30 = PCURVE('',#31,#46);
#31 = ( BOUNDED_SURFACE() B_SPLINE_SURFACE(2,1,(
    (#32,#33)
    ,(#34,#35)
    ,(#36,#37)
    ,(#38,#39)
    ,(#40,#41)
    ,(#42,#43)
,(#44,#45
    )),.UNSPECIFIED.,.T.,.F.,.F.) B_SPLINE_SURFACE_WITH_KNOTS((3,2,2,3),
  (2,2),(0.,2.094395102393,4.188790204786,6.28318530718),(-5.02870704499
,0.),.PIECEWISE_BEZIER_KNOTS.) GEOMETRIC_REPRESENTATION_ITEM() 
RATIONAL_B_SPLINE_SURFACE((
    (1.,1.)
    ,(0.5,0.5)
    ,(1.,1.)
    ,(0.5,0.5)
    ,(1.,1.)
    ,(0.5,0.5)
,(1.,1.))) REPRESENTATION_ITEM('') SURFACE() );
#32 = CARTESIAN_POINT('',(22.789996966407,18.54004806732,42.620548988139
    ));
#33 = CARTESIAN_POINT('',(22.789996966407,18.54004806732,37.591841943149
    ));
#34 = CARTESIAN_POINT('',(1.261507003429,17.48548228928,42.079683846134)
  );
#35 = CARTESIAN_POINT('',(1.261507003429,17.48548228928,37.050976801145)
  );
#36 = CARTESIAN_POINT('',(13.414315679773,-10.33414327456,
    40.415896749614));
#37 = CARTESIAN_POINT('',(13.414315679773,-10.33414327456,
    35.387189704625));
#38 = CARTESIAN_POINT('',(25.567124356117,-38.15376883841,
    38.752109653094));
#39 = CARTESIAN_POINT('',(25.567124356117,-38.15376883841,
    33.723402608104));
#40 = CARTESIAN_POINT('',(34.942805642751,-9.279577496529,
    40.956761891619));
#41 = CARTESIAN_POINT('',(34.942805642751,-9.279577496529,
    35.928054846629));
#42 = CARTESIAN_POINT('',(44.318486929386,19.594613845361,
    43.161414130143));
#43 = CARTESIAN_POINT('',(44.318486929386,19.594613845361,
    38.132707085154));
#44 = CARTESIAN_POINT('',(22.789996966407,18.54004806732,42.620548988139
    ));
#45 = CARTESIAN_POINT('',(22.789996966407,18.54004806732,37.591841943149
    ));
#46 = DEFINITIONAL_REPRESENTATION('',(#47),#51);
#47 = B_SPLINE_CURVE_WITH_KNOTS('',2,(#48,#49,#50),.UNSPECIFIED.,.F.,.F.
  ,(3,3),(0.,5.02870704499),.PIECEWISE_BEZIER_KNOTS.);
#48 = CARTESIAN_POINT('',(0.,0.));
#49 = CARTESIAN_POINT('',(-2.232099375439E-17,-2.514353522495));
#50 = CARTESIAN_POINT('',(0.,-5.02870704499));
#51 = ( GEOMETRIC_REPRESENTATION_CONTEXT(2) 
PARAMETRIC_REPRESENTATION_CONTEXT() REPRESENTATION_CONTEXT('2D SPACE',''
  ) );
#52 = PCURVE('',#31,#53);
#53 = DEFINITIONAL_REPRESENTATION('',(#54),#58);
#54 = B_SPLINE_CURVE_WITH_KNOTS('',2,(#55,#56,#57),.UNSPECIFIED.,.F.,.F.
  ,(3,3),(0.,5.02870704499),.PIECEWISE_BEZIER_KNOTS.);
#55 = CARTESIAN_POINT('',(6.28318530718,0.));
#56 = CARTESIAN_POINT('',(6.28318530718,-2.514353522495));
#57 = CARTESIAN_POINT('',(6.28318530718,-5.02870704499));
#58 = ( GEOMETRIC_REPRESENTATION_CONTEXT(2) 
PARAMETRIC_REPRESENTATION_CONTEXT() REPRESENTATION_CONTEXT('2D SPACE',''
  ) );
#59 = ORIENTED_EDGE('',*,*,#60,.T.);
#60 = EDGE_CURVE('',#24,#24,#61,.T.);
#61 = SURFACE_CURVE('',#62,(#70,#81),.PCURVE_S1.);
#62 = ( BOUNDED_CURVE() B_SPLINE_CURVE(2,(#63,#64,#65,#66,#67,#68,#69),
.UNSPECIFIED.,.T.,.F.) B_SPLINE_CURVE_WITH_KNOTS((1,2,2,2,2,1),(
    -2.094395102393,0.,2.094395102393,4.188790204786,6.28318530718,
8.377580409573),.UNSPECIFIED.) CURVE() GEOMETRIC_REPRESENTATION_ITEM() 
RATIONAL_B_SPLINE_CURVE((1.,0.5,1.,0.5,1.,0.5,1.)) REPRESENTATION_ITEM(
  '') );
#63 = CARTESIAN_POINT('',(22.789996966407,18.54004806732,42.620548988139
    ));
#64 = CARTESIAN_POINT('',(1.261507003429,17.48548228928,42.079683846134)
  );
#65 = CARTESIAN_POINT('',(13.414315679773,-10.33414327456,
    40.415896749614));
#66 = CARTESIAN_POINT('',(25.567124356117,-38.15376883841,
    38.752109653094));
#67 = CARTESIAN_POINT('',(34.942805642751,-9.279577496529,
    40.956761891619));
#68 = CARTESIAN_POINT('',(44.318486929386,19.594613845361,
    43.161414130143));
#69 = CARTESIAN_POINT('',(22.789996966407,18.54004806732,42.620548988139
    ));
#70 = PCURVE('',#31,#71);
#71 = DEFINITIONAL_REPRESENTATION('',(#72),#80);
#72 = B_SPLINE_CURVE_WITH_KNOTS('',2,(#73,#74,#75,#76,#77,#78,#79),
  .UNSPECIFIED.,.F.,.F.,(3,2,2,3),(0.,2.094395102393,4.188790204786,
    6.28318530718),.PIECEWISE_BEZIER_KNOTS.);
#73 = CARTESIAN_POINT('',(0.,-5.02870704499));
#74 = CARTESIAN_POINT('',(1.047197551197,-5.02870704499));
#75 = CARTESIAN_POINT('',(2.094395102393,-5.02870704499));
#76 = CARTESIAN_POINT('',(3.14159265359,-5.02870704499));
#77 = CARTESIAN_POINT('',(4.188790204786,-5.02870704499));
#78 = CARTESIAN_POINT('',(5.235987755983,-5.02870704499));
#79 = CARTESIAN_POINT('',(6.28318530718,-5.02870704499));
#80 = ( GEOMETRIC_REPRESENTATION_CONTEXT(2) 
PARAMETRIC_REPRESENTATION_CONTEXT() REPRESENTATION_CONTEXT('2D SPACE',''
  ) );
#81 = PCURVE('',#82,#87);
#82 = B_SPLINE_SURFACE_WITH_KNOTS('',1,1,(
    (#83,#84)
    ,(#85,#86)),.UNSPECIFIED.,.F.,.F.,.F.,(2,2),(2,2),(-12.44438278992,
    12.444382789922),(-19.93296027519,17.908236040638),
  .PIECEWISE_BEZIER_KNOTS.);
#83 = CARTESIAN_POINT('',(12.211935750842,-19.86468370566,
    39.729320796111));
#84 = CARTESIAN_POINT('',(10.360517491036,17.931194231491,
    42.308280352807));
#85 = CARTESIAN_POINT('',(37.070894701586,-18.646976034,40.353858066774)
  );
#86 = CARTESIAN_POINT('',(35.219476441779,19.14890190315,42.93281762347)
  );
#87 = DEFINITIONAL_REPRESENTATION('',(#88),#96);
#88 = ( BOUNDED_CURVE() B_SPLINE_CURVE(2,(#89,#90,#91,#92,#93,#94,#95),
.UNSPECIFIED.,.T.,.F.) B_SPLINE_CURVE_WITH_KNOTS((3,2,2,3),(0.,
    2.094395102393,4.188790204786,6.28318530718),
.PIECEWISE_BEZIER_KNOTS.) CURVE() GEOMETRIC_REPRESENTATION_ITEM() 
RATIONAL_B_SPLINE_CURVE((1.,0.5,1.,0.5,1.,0.5,1.)) REPRESENTATION_ITEM(
  '') );
#89 = CARTESIAN_POINT('',(1.8416120377E-15,17.908236040638));
#90 = CARTESIAN_POINT('',(-21.55430326098,17.908236040638));
#91 = CARTESIAN_POINT('',(-10.77715163049,-10.47266119623));
#92 = CARTESIAN_POINT('',(-7.508207786889E-15,-38.85355843311));
#93 = CARTESIAN_POINT('',(10.77715163049,-10.47266119623));
#94 = CARTESIAN_POINT('',(21.55430326098,17.908236040638));
#95 = CARTESIAN_POINT('',(1.8416120377E-15,17.908236040638));
#96 = ( GEOMETRIC_REPRESENTATION_CONTEXT(2) 
PARAMETRIC_REPRESENTATION_CONTEXT() REPRESENTATION_CONTEXT('2D SPACE',''
  ) );
#97 = ORIENTED_EDGE('',*,*,#21,.F.);
#98 = ORIENTED_EDGE('',*,*,#99,.F.);
#99 = EDGE_CURVE('',#22,#22,#100,.T.);
#100 = SURFACE_CURVE('',#101,(#109,#120),.PCURVE_S1.);
#101 = ( BOUNDED_CURVE() B_SPLINE_CURVE(2,(#102,#103,#104,#105,#106,#107
,#108),.UNSPECIFIED.,.T.,.F.) B_SPLINE_CURVE_WITH_KNOTS((1,2,2,2,2,1),(
    -2.094395102393,0.,2.094395102393,4.188790204786,6.28318530718,
8.377580409573),.UNSPECIFIED.) CURVE() GEOMETRIC_REPRESENTATION_ITEM() 
RATIONAL_B_SPLINE_CURVE((1.,0.5,1.,0.5,1.,0.5,1.)) REPRESENTATION_ITEM(
  '') );
#102 = CARTESIAN_POINT('',(22.789996966407,18.54004806732,
    37.591841943149));
#103 = CARTESIAN_POINT('',(1.261507003429,17.48548228928,37.050976801145
    ));
#104 = CARTESIAN_POINT('',(13.414315679773,-10.33414327456,
    35.387189704625));
#105 = CARTESIAN_POINT('',(25.567124356117,-38.15376883841,
    33.723402608104));
#106 = CARTESIAN_POINT('',(34.942805642751,-9.279577496529,
    35.928054846629));
#107 = CARTESIAN_POINT('',(44.318486929386,19.594613845361,
    38.132707085154));
#108 = CARTESIAN_POINT('',(22.789996966407,18.54004806732,
    37.591841943149));
#109 = PCURVE('',#31,#110);
#110 = DEFINITIONAL_REPRESENTATION('',(#111),#119);
#111 = B_SPLINE_CURVE_WITH_KNOTS('',2,(#112,#113,#114,#115,#116,#117,
    #118),.UNSPECIFIED.,.F.,.F.,(3,2,2,3),(0.,2.094395102393,
    4.188790204786,6.28318530718),.PIECEWISE_BEZIER_KNOTS.);
#112 = CARTESIAN_POINT('',(0.,0.));
#113 = CARTESIAN_POINT('',(1.047197551197,-1.059450955621E-15));
#114 = CARTESIAN_POINT('',(2.094395102393,0.));
#115 = CARTESIAN_POINT('',(3.14159265359,-3.146133054449E-16));
#116 = CARTESIAN_POINT('',(4.188790204786,0.));
#117 = CARTESIAN_POINT('',(5.235987755983,1.434081149102E-16));
#118 = CARTESIAN_POINT('',(6.28318530718,0.));
#119 = ( GEOMETRIC_REPRESENTATION_CONTEXT(2) 
PARAMETRIC_REPRESENTATION_CONTEXT() REPRESENTATION_CONTEXT('2D SPACE',''
  ) );
#120 = PCURVE('',#121,#126);
#121 = B_SPLINE_SURFACE_WITH_KNOTS('',1,1,(
    (#122,#123)
    ,(#124,#125
    )),.UNSPECIFIED.,.F.,.F.,.F.,(2,2),(2,2),(-12.44438278992,
    12.444382789922),(-19.93296027519,17.908236040638),
  .PIECEWISE_BEZIER_KNOTS.);
#122 = CARTESIAN_POINT('',(12.211935750842,-19.86468370566,
    34.700613751121));
#123 = CARTESIAN_POINT('',(10.360517491036,17.931194231491,
    37.279573307818));
#124 = CARTESIAN_POINT('',(37.070894701586,-18.646976034,35.325151021784
    ));
#125 = CARTESIAN_POINT('',(35.219476441779,19.14890190315,
    37.904110578481));
#126 = DEFINITIONAL_REPRESENTATION('',(#127),#135);
#127 = ( BOUNDED_CURVE() B_SPLINE_CURVE(2,(#128,#129,#130,#131,#132,#133
,#134),.UNSPECIFIED.,.T.,.F.) B_SPLINE_CURVE_WITH_KNOTS((3,2,2,3),(0.,
    2.094395102393,4.188790204786,6.28318530718),
.PIECEWISE_BEZIER_KNOTS.) CURVE() GEOMETRIC_REPRESENTATION_ITEM() 
RATIONAL_B_SPLINE_CURVE((1.,0.5,1.,0.5,1.,0.5,1.)) REPRESENTATION_ITEM(
  '') );
#128 = CARTESIAN_POINT('',(1.8416120377E-15,17.908236040638));
#129 = CARTESIAN_POINT('',(-21.55430326098,17.908236040638));
#130 = CARTESIAN_POINT('',(-10.77715163049,-10.47266119623));
#131 = CARTESIAN_POINT('',(-7.508207786889E-15,-38.85355843311));
#132 = CARTESIAN_POINT('',(10.77715163049,-10.47266119623));
#133 = CARTESIAN_POINT('',(21.55430326098,17.908236040638));
#134 = CARTESIAN_POINT('',(1.8416120377E-15,17.908236040638));
#135 = ( GEOMETRIC_REPRESENTATION_CONTEXT(2) 
PARAMETRIC_REPRESENTATION_CONTEXT() REPRESENTATION_CONTEXT('2D SPACE',''
  ) );
#136 = ADVANCED_FACE('',(#137,#140),#121,.F.);
#137 = FACE_BOUND('',#138,.F.);
#138 = EDGE_LOOP('',(#139));
#139 = ORIENTED_EDGE('',*,*,#99,.T.);
#140 = FACE_BOUND('',#141,.F.);
#141 = EDGE_LOOP('',(#142));
#142 = ORIENTED_EDGE('',*,*,#143,.T.);
#143 = EDGE_CURVE('',#144,#144,#146,.T.);
#144 = VERTEX_POINT('',#145);
#145 = CARTESIAN_POINT('',(22.848708162883,17.341485179772,
    37.510059341928));
#146 = SURFACE_CURVE('',#147,(#306,#468),.PCURVE_S1.);
#147 = B_SPLINE_CURVE_WITH_KNOTS('',7,(#148,#149,#150,#151,#152,#153,
    #154,#155,#156,#157,#158,#159,#160,#161,#162,#163,#164,#165,#166,
    #167,#168,#169,#170,#171,#172,#173,#174,#175,#176,#177,#178,#179,
    #180,#181,#182,#183,#184,#185,#186,#187,#188,#189,#190,#191,#192,
    #193,#194,#195,#196,#197,#198,#199,#200,#201,#202,#203,#204,#205,
    #206,#207,#208,#209,#210,#211,#212,#213,#214,#215,#216,#217,#218,
    #219,#220,#221,#222,#223,#224,#225,#226,#227,#228,#229,#230,#231,
    #232,#233,#234,#235,#236,#237,#238,#239,#240,#241,#242,#243,#244,
    #245,#246,#247,#248,#249,#250,#251,#252,#253,#254,#255,#256,#257,
    #258,#259,#260,#261,#262,#263,#264,#265,#266,#267,#268,#269,#270,
    #271,#272,#273,#274,#275,#276,#277,#278,#279,#280,#281,#282,#283,
    #284,#285,#286,#287,#288,#289,#290,#291,#292,#293,#294,#295,#296,
    #297,#298,#299,#300,#301,#302,#303,#304,#305),.UNSPECIFIED.,.T.,.F.,
  (8,6,6,6,6,6,6,6,6,6,6,6,6,6,6,6,6,6,6,6,6,6,6,6,6,6,8),(0.,
    4.01049318765E-02,6.756258204255E-02,0.106638257613,0.140263247705,
    0.168195863742,0.249995962794,0.331796061846,0.359728677883,
    0.393353667974,0.432429343545,0.459886993711,0.473602027305,
    0.499998573139,0.517751531533,0.540111306246,0.567569057914,
    0.606644877934,0.640269992325,0.668202711619,0.750003113058,
    0.831803514497,0.859736233791,0.893361348183,0.932437168203,
    0.95989491987,1.),.UNSPECIFIED.);
#148 = CARTESIAN_POINT('',(22.848708162883,17.341485179772,
    37.510059341928));
#149 = CARTESIAN_POINT('',(23.37512885188,17.367271740698,
    37.523284729964));
#150 = CARTESIAN_POINT('',(23.904188330777,17.347711520501,
    37.533425002565));
#151 = CARTESIAN_POINT('',(24.430397165353,17.282406859076,
    37.540333324444));
#152 = CARTESIAN_POINT('',(24.949308555738,17.173122444009,
    37.544035362301));
#153 = CARTESIAN_POINT('',(25.457353397949,17.022795401621,
    37.544657101966));
#154 = CARTESIAN_POINT('',(25.951750977011,16.835051763209,
    37.54238939983));
#155 = CARTESIAN_POINT('',(26.758153650211,16.462331590949,
    37.534082603956));
#156 = CARTESIAN_POINT('',(27.078618230816,16.295103072309,
    37.529457230155));
#157 = CARTESIAN_POINT('',(27.391288274604,16.113295240459,
    37.523652170415));
#158 = CARTESIAN_POINT('',(27.695811412901,15.918085862061,
    37.516741385406));
#159 = CARTESIAN_POINT('',(27.991982237985,15.710599374405,
    37.508798333433));
#160 = CARTESIAN_POINT('',(28.279716255246,15.491865414224,
    37.499892530571));
#161 = CARTESIAN_POINT('',(28.956535517271,14.936792407062,
    37.476133325376));
#162 = CARTESIAN_POINT('',(29.33689813928,14.589929860954,
    37.460361131868));
#163 = CARTESIAN_POINT('',(29.700238490621,14.224794364506,
    37.442952783374));
#164 = CARTESIAN_POINT('',(30.046817170951,13.843677056022,
    37.424072714268));
#165 = CARTESIAN_POINT('',(30.37701276686,13.448548497733,
    37.403865707262));
#166 = CARTESIAN_POINT('',(30.691296910107,13.041036568027,
    37.382454819422));
#167 = CARTESIAN_POINT('',(31.247426136727,12.262166747591,
    37.340564450761));
#168 = CARTESIAN_POINT('',(31.493217249938,11.89375586582,
    37.320374934524));
#169 = CARTESIAN_POINT('',(31.727900076433,11.5180195971,37.299436413389
    ));
#170 = CARTESIAN_POINT('',(31.951771012681,11.13570788489,
    37.277807297434));
#171 = CARTESIAN_POINT('',(32.165109639823,10.747475391311,
    37.255539028529));
#172 = CARTESIAN_POINT('',(32.368182912839,10.353884161097,
    37.232676355971));
#173 = CARTESIAN_POINT('',(32.721631474979,9.624386369677,
    37.189803400422));
#174 = CARTESIAN_POINT('',(32.875101525829,9.290006756114,
    37.169966177313));
#175 = CARTESIAN_POINT('',(33.021803004032,8.952545578878,
    37.149768335096));
#176 = CARTESIAN_POINT('',(33.161866479507,8.612256619849,
    37.129230297525));
#177 = CARTESIAN_POINT('',(33.29541120478,8.269370007811,37.108370603323
    ));
#178 = CARTESIAN_POINT('',(33.422546729455,7.924092917502,
    37.087205989706));
#179 = CARTESIAN_POINT('',(33.897216039891,6.559013975493,37.00292233521
    ));
#180 = CARTESIAN_POINT('',(34.196856871309,5.522805582974,36.9376256992)
  );
#181 = CARTESIAN_POINT('',(34.445024337624,4.472240714898,
    36.870215736425));
#182 = CARTESIAN_POINT('',(34.643297753221,3.410965828483,36.80097945642
    ));
#183 = CARTESIAN_POINT('',(34.792746116937,2.342156520368,
    36.730160150422));
#184 = CARTESIAN_POINT('',(34.893902137554,1.268515016573,
    36.657956653037));
#185 = CARTESIAN_POINT('',(34.999342921524,-0.884011555526,
    36.511081404276));
#186 = CARTESIAN_POINT('',(35.00360333134,-1.962399457943,
    36.436443576459));
#187 = CARTESIAN_POINT('',(34.959330324337,-3.040698141701,
    36.360757364473));
#188 = CARTESIAN_POINT('',(34.865729640305,-4.116270381864,
    36.284188265185));
#189 = CARTESIAN_POINT('',(34.721427032204,-5.186060263414,
    36.206918187608));
#190 = CARTESIAN_POINT('',(34.524494360605,-6.246593140528,
    36.129146022722));
#191 = CARTESIAN_POINT('',(34.185513259726,-7.651528471934,
    36.024420844179));
#192 = CARTESIAN_POINT('',(34.092731987036,-8.007578111962,
    35.997731210923));
#193 = CARTESIAN_POINT('',(33.993338564904,-8.361875120135,
    35.971019358749));
#194 = CARTESIAN_POINT('',(33.887203720011,-8.714224020373,
    35.944296024869));
#195 = CARTESIAN_POINT('',(33.774186279163,-9.064407440758,
    35.917573205272));
#196 = CARTESIAN_POINT('',(33.654131494221,-9.412185575618,
    35.890864155601));
#197 = CARTESIAN_POINT('',(33.373672395319,-10.17273511878,
    35.832065393937));
#198 = CARTESIAN_POINT('',(33.210038899891,-10.58428935565,
    35.799989863965));
#199 = CARTESIAN_POINT('',(33.035665460692,-10.99151379328,
    35.767981016775));
#200 = CARTESIAN_POINT('',(32.850231469461,-11.39387516852,
    35.736068840182));
#201 = CARTESIAN_POINT('',(32.653394700272,-11.79074927826,
    35.704289154256));
#202 = CARTESIAN_POINT('',(32.444786880081,-12.18141873765,
    35.672683670431));
#203 = CARTESIAN_POINT('',(31.967442817409,-13.01091289659,
    35.604829117644));
#204 = CARTESIAN_POINT('',(31.694491411381,-13.44719036047,
    35.56866497775));
#205 = CARTESIAN_POINT('',(31.404494442454,-13.87269884117,
    35.532876732105));
#206 = CARTESIAN_POINT('',(31.096823436429,-14.28586434861,
    35.497559799563));
#207 = CARTESIAN_POINT('',(30.770909026682,-14.68476275573,
    35.462835147191));
#208 = CARTESIAN_POINT('',(30.426267937218,-15.06713936271,
    35.428848520806));
#209 = CARTESIAN_POINT('',(29.806938905059,-15.68570375439,
    35.372525887688));
#210 = CARTESIAN_POINT('',(29.541960337664,-15.93151215304,
    35.349734161053));
#211 = CARTESIAN_POINT('',(29.267486084163,-16.1669514963,35.32745466319
    ));
#212 = CARTESIAN_POINT('',(28.983499603292,-16.39098881876,
    35.30575861738));
#213 = CARTESIAN_POINT('',(28.690095422723,-16.6024849909,
    35.284727017274));
#214 = CARTESIAN_POINT('',(28.38750911537,-16.80023344594,
    35.264448594534));
#215 = CARTESIAN_POINT('',(27.920638553776,-17.07431100728,
    35.235311018595));
#216 = CARTESIAN_POINT('',(27.762935135833,-17.16187271376,
    35.225816458651));
#217 = CARTESIAN_POINT('',(27.60310250079,-17.24554485718,
    35.216545173576));
#218 = CARTESIAN_POINT('',(27.441207687358,-17.3251731338,
    35.207509313012));
#219 = CARTESIAN_POINT('',(27.277331152117,-17.40060489638,
    35.198721203363));
#220 = CARTESIAN_POINT('',(27.111568082106,-17.47169185888,
    35.190193188879));
#221 = CARTESIAN_POINT('',(26.621578118487,-17.66647586088,
    35.166048164326));
#222 = CARTESIAN_POINT('',(26.292497264155,-17.77806314304,
    35.151164869183));
#223 = CARTESIAN_POINT('',(25.957652745128,-17.87200858826,
    35.137378885771));
#224 = CARTESIAN_POINT('',(25.618040207148,-17.94743286114,
    35.124772784565));
#225 = CARTESIAN_POINT('',(25.274793693497,-18.00366329612,
    35.113417821371));
#226 = CARTESIAN_POINT('',(24.929197856747,-18.04029412447,
    35.103370029055));
#227 = CARTESIAN_POINT('',(24.349670131698,-18.06868211971,
    35.088810420604));
#228 = CARTESIAN_POINT('',(24.116190902565,-18.07120729642,
    35.083562235852));
#229 = CARTESIAN_POINT('',(23.88268888678,-18.06482104907,
    35.078931102122));
#230 = CARTESIAN_POINT('',(23.649568996784,-18.04957037847,
    35.074922560549));
#231 = CARTESIAN_POINT('',(23.417218833663,-18.02556448577,
    35.071537465745));
#232 = CARTESIAN_POINT('',(23.186009007799,-17.99296850859,
    35.068772426832));
#233 = CARTESIAN_POINT('',(22.666967918074,-17.90039458711,
    35.063909562719));
#234 = CARTESIAN_POINT('',(22.37998762726,-17.83550032198,
    35.062170920494));
#235 = CARTESIAN_POINT('',(22.09605147842,-17.75774305696,
    35.061389806902));
#236 = CARTESIAN_POINT('',(21.815744997586,-17.66765587174,
    35.061542003154));
#237 = CARTESIAN_POINT('',(21.539551051209,-17.56584181457,
    35.062596211107));
#238 = CARTESIAN_POINT('',(21.267860551889,-17.45293938618,
    35.064516677786));
#239 = CARTESIAN_POINT('',(20.673258542411,-17.17811339346,
    35.070641725646));
#240 = CARTESIAN_POINT('',(20.352793961807,-17.01088487482,
    35.075267099447));
#241 = CARTESIAN_POINT('',(20.040123918018,-16.82907704297,
    35.081072159187));
#242 = CARTESIAN_POINT('',(19.735600779721,-16.63386766458,
    35.087982944196));
#243 = CARTESIAN_POINT('',(19.439429954638,-16.42638117692,
    35.095925996169));
#244 = CARTESIAN_POINT('',(19.151695937376,-16.20764721674,
    35.104831799031));
#245 = CARTESIAN_POINT('',(18.474876675351,-15.65257420958,
    35.128591004226));
#246 = CARTESIAN_POINT('',(18.094514053342,-15.30571166347,
    35.144363197734));
#247 = CARTESIAN_POINT('',(17.731173702001,-14.94057616702,
    35.161771546228));
#248 = CARTESIAN_POINT('',(17.384595021671,-14.55945885854,
    35.180651615334));
#249 = CARTESIAN_POINT('',(17.054399425762,-14.16433030025,
    35.20085862234));
#250 = CARTESIAN_POINT('',(16.740115282515,-13.75681837054,
    35.22226951018));
#251 = CARTESIAN_POINT('',(16.183986055895,-12.97794855011,
    35.264159878841));
#252 = CARTESIAN_POINT('',(15.938194942684,-12.60953766834,
    35.284349395078));
#253 = CARTESIAN_POINT('',(15.703512116188,-12.23380139962,
    35.305287916213));
#254 = CARTESIAN_POINT('',(15.479641179941,-11.8514896874,
    35.326917032168));
#255 = CARTESIAN_POINT('',(15.266302552798,-11.46325719383,
    35.349185301073));
#256 = CARTESIAN_POINT('',(15.063229279782,-11.06966596361,
    35.37204797363));
#257 = CARTESIAN_POINT('',(14.709780717643,-10.34016817219,
    35.414920929179));
#258 = CARTESIAN_POINT('',(14.556310666792,-10.00578855863,
    35.434758152289));
#259 = CARTESIAN_POINT('',(14.409609188589,-9.668327381398,
    35.454955994506));
#260 = CARTESIAN_POINT('',(14.269545713114,-9.328038422369,
    35.475494032077));
#261 = CARTESIAN_POINT('',(14.136000987841,-8.98515181033,
    35.496353726279));
#262 = CARTESIAN_POINT('',(14.008865463167,-8.639874720022,
    35.517518339896));
#263 = CARTESIAN_POINT('',(13.534196152735,-7.27479577801,
    35.601801994393));
#264 = CARTESIAN_POINT('',(13.234555321294,-6.238587385502,
    35.667098630401));
#265 = CARTESIAN_POINT('',(12.986387855029,-5.188022517402,
    35.734508593178));
#266 = CARTESIAN_POINT('',(12.788114439368,-4.126747631017,
    35.80374487318));
#267 = CARTESIAN_POINT('',(12.638666075702,-3.057938322879,
    35.874564179181));
#268 = CARTESIAN_POINT('',(12.537510055063,-1.984296819094,
    35.946767676565));
#269 = CARTESIAN_POINT('',(12.432069271099,0.168229753011,
    36.093642925326));
#270 = CARTESIAN_POINT('',(12.427808861276,1.246617655408,
    36.168280753142));
#271 = CARTESIAN_POINT('',(12.472081868292,2.324916339212,
    36.243966965131));
#272 = CARTESIAN_POINT('',(12.565682552309,3.400488579313,
    36.320536064414));
#273 = CARTESIAN_POINT('',(12.709985160421,4.470278460914,
    36.397806141995));
#274 = CARTESIAN_POINT('',(12.906917832016,5.530811338005,36.47557830688
    ));
#275 = CARTESIAN_POINT('',(13.245898932895,6.935746669415,
    36.580303485423));
#276 = CARTESIAN_POINT('',(13.338680205585,7.291796309444,
    36.606993118679));
#277 = CARTESIAN_POINT('',(13.438073627718,7.646093317617,
    36.633704970853));
#278 = CARTESIAN_POINT('',(13.54420847261,7.998442217855,36.660428304733
    ));
#279 = CARTESIAN_POINT('',(13.657225913458,8.34862563824,36.68715112433)
  );
#280 = CARTESIAN_POINT('',(13.777280698401,8.6964037731,36.713860174001)
  );
#281 = CARTESIAN_POINT('',(14.057739797302,9.456953316265,
    36.772658935665));
#282 = CARTESIAN_POINT('',(14.22137329273,9.868507553138,36.804734465637
    ));
#283 = CARTESIAN_POINT('',(14.395746731929,10.275731990769,
    36.836743312827));
#284 = CARTESIAN_POINT('',(14.581180723161,10.67809336601,36.86865548942
    ));
#285 = CARTESIAN_POINT('',(14.778017492349,11.074967475747,
    36.900435175346));
#286 = CARTESIAN_POINT('',(14.98662531254,11.465636935131,
    36.932040659171));
#287 = CARTESIAN_POINT('',(15.463969375213,12.295131094073,
    36.999895211958));
#288 = CARTESIAN_POINT('',(15.73692078124,12.731408557961,
    37.036059351852));
#289 = CARTESIAN_POINT('',(16.026917750167,13.156917038659,
    37.071847597497));
#290 = CARTESIAN_POINT('',(16.334588756193,13.570082546098,
    37.107164530039));
#291 = CARTESIAN_POINT('',(16.66050316594,13.968980953212,
    37.141889182411));
#292 = CARTESIAN_POINT('',(17.005144255403,14.351357560194,
    37.175875808796));
#293 = CARTESIAN_POINT('',(17.624473287562,14.969921951873,
    37.232198441914));
#294 = CARTESIAN_POINT('',(17.889451854957,15.215730350528,
    37.254990168549));
#295 = CARTESIAN_POINT('',(18.163926108459,15.451169693783,
    37.277269666412));
#296 = CARTESIAN_POINT('',(18.44791258933,15.675207016245,
    37.298965712222));
#297 = CARTESIAN_POINT('',(18.741316769898,15.886703188389,
    37.319997312328));
#298 = CARTESIAN_POINT('',(19.043903077252,16.084451643424,
    37.340275735068));
#299 = CARTESIAN_POINT('',(19.810017358339,16.534201025272,
    37.38808923147));
#300 = CARTESIAN_POINT('',(20.283698917536,16.76936569187,
    37.414678205626));
#301 = CARTESIAN_POINT('',(20.774619307323,16.968626707316,
    37.439153696331));
#302 = CARTESIAN_POINT('',(21.28036551488,17.128103627194,
    37.461194363982));
#303 = CARTESIAN_POINT('',(21.797672582813,17.244524561163,
    37.480502529085));
#304 = CARTESIAN_POINT('',(22.322287471731,17.315698662828,
    37.496833956893));
#305 = CARTESIAN_POINT('',(22.848708162883,17.341485179772,
    37.510059341928));
#306 = PCURVE('',#121,#307);
#307 = DEFINITIONAL_REPRESENTATION('',(#308),#467);
#308 = B_SPLINE_CURVE_WITH_KNOTS('',7,(#309,#310,#311,#312,#313,#314,
    #315,#316,#317,#318,#319,#320,#321,#322,#323,#324,#325,#326,#327,
    #328,#329,#330,#331,#332,#333,#334,#335,#336,#337,#338,#339,#340,
    #341,#342,#343,#344,#345,#346,#347,#348,#349,#350,#351,#352,#353,
    #354,#355,#356,#357,#358,#359,#360,#361,#362,#363,#364,#365,#366,
    #367,#368,#369,#370,#371,#372,#373,#374,#375,#376,#377,#378,#379,
    #380,#381,#382,#383,#384,#385,#386,#387,#388,#389,#390,#391,#392,
    #393,#394,#395,#396,#397,#398,#399,#400,#401,#402,#403,#404,#405,
    #406,#407,#408,#409,#410,#411,#412,#413,#414,#415,#416,#417,#418,
    #419,#420,#421,#422,#423,#424,#425,#426,#427,#428,#429,#430,#431,
    #432,#433,#434,#435,#436,#437,#438,#439,#440,#441,#442,#443,#444,
    #445,#446,#447,#448,#449,#450,#451,#452,#453,#454,#455,#456,#457,
    #458,#459,#460,#461,#462,#463,#464,#465,#466),.UNSPECIFIED.,.F.,.F.,
  (8,6,6,6,6,6,6,6,6,6,6,6,6,6,6,6,6,6,6,6,6,6,6,6,6,6,8),(0.,
    4.01049318765E-02,6.756258204255E-02,0.106638257613,0.140263247705,
    0.168195863742,0.249995962794,0.331796061846,0.359728677883,
    0.393353667974,0.432429343545,0.459886993711,0.473602027305,
    0.499998573139,0.517751531533,0.540111306246,0.567569057914,
    0.606644877934,0.640269992325,0.668202711619,0.750003113058,
    0.831803514497,0.859736233791,0.893361348183,0.932437168203,
    0.95989491987,1.),.UNSPECIFIED.);
#309 = CARTESIAN_POINT('',(5.329070518201E-15,16.708236040638));
#310 = CARTESIAN_POINT('',(0.527051884095,16.708236062658));
#311 = CARTESIAN_POINT('',(1.054520761413,16.662814505147));
#312 = CARTESIAN_POINT('',(1.576904315925,16.571842760278));
#313 = CARTESIAN_POINT('',(2.089847412322,16.437300966377));
#314 = CARTESIAN_POINT('',(2.589928922792,16.262297354252));
#315 = CARTESIAN_POINT('',(3.074548869721,16.050589661939));
#316 = CARTESIAN_POINT('',(3.8617500941,15.638861802192));
#317 = CARTESIAN_POINT('',(4.173649066326,15.456154506245));
#318 = CARTESIAN_POINT('',(4.47704952899,15.259266712667));
#319 = CARTESIAN_POINT('',(4.771657158819,15.049392017622));
#320 = CARTESIAN_POINT('',(5.057321808299,14.827663561561));
#321 = CARTESIAN_POINT('',(5.334009460017,14.595113882111));
#322 = CARTESIAN_POINT('',(5.982860667234,14.007591569665));
#323 = CARTESIAN_POINT('',(6.345797173447,13.642534803433));
#324 = CARTESIAN_POINT('',(6.690837772442,13.260059801996));
#325 = CARTESIAN_POINT('',(7.01835484801,12.862442209707));
#326 = CARTESIAN_POINT('',(7.328822945068,12.451631706139));
#327 = CARTESIAN_POINT('',(7.622792776125,12.029231145087));
#328 = CARTESIAN_POINT('',(8.140149003335,11.224084917341));
#329 = CARTESIAN_POINT('',(8.367620888935,10.844089666841));
#330 = CARTESIAN_POINT('',(8.583639389174,10.457321286233));
#331 = CARTESIAN_POINT('',(8.788537237288,10.064514319355));
#332 = CARTESIAN_POINT('',(8.982625709592,9.666308965523));
#333 = CARTESIAN_POINT('',(9.16619893996,9.263253535331));
#334 = CARTESIAN_POINT('',(9.483532807524,8.517336562565));
#335 = CARTESIAN_POINT('',(9.620459207616,8.175848724666));
#336 = CARTESIAN_POINT('',(9.750474372485,7.831614172722));
#337 = CARTESIAN_POINT('',(9.873721132213,7.48487999642));
#338 = CARTESIAN_POINT('',(9.99032985579,7.135870214395));
#339 = CARTESIAN_POINT('',(10.100420097853,6.784786393451));
#340 = CARTESIAN_POINT('',(10.507733099001,5.398118592108));
#341 = CARTESIAN_POINT('',(10.756317553676,4.348490929803));
#342 = CARTESIAN_POINT('',(10.952787882545,3.287042370877));
#343 = CARTESIAN_POINT('',(11.098899915171,2.217337736041));
#344 = CARTESIAN_POINT('',(11.195876739396,1.142496517026));
#345 = CARTESIAN_POINT('',(11.244382635138,6.519164037456E-02));
#346 = CARTESIAN_POINT('',(11.244382635144,-2.089915874929));
#347 = CARTESIAN_POINT('',(11.195876739374,-3.167220751575));
#348 = CARTESIAN_POINT('',(11.098899915211,-4.242061970601));
#349 = CARTESIAN_POINT('',(10.952787882506,-5.311766605423));
#350 = CARTESIAN_POINT('',(10.756317553698,-6.373215164361));
#351 = CARTESIAN_POINT('',(10.507733098997,-7.42284282666));
#352 = CARTESIAN_POINT('',(10.100420097854,-8.809510628004));
#353 = CARTESIAN_POINT('',(9.990329855791,-9.160594448948));
#354 = CARTESIAN_POINT('',(9.873721132214,-9.509604230974));
#355 = CARTESIAN_POINT('',(9.750474372486,-9.856338407276));
#356 = CARTESIAN_POINT('',(9.620459207617,-10.20057295922));
#357 = CARTESIAN_POINT('',(9.483532807525,-10.54206079711));
#358 = CARTESIAN_POINT('',(9.166198939961,-11.28797776988));
#359 = CARTESIAN_POINT('',(8.982625709593,-11.69103320007));
#360 = CARTESIAN_POINT('',(8.788537237289,-12.0892385539));
#361 = CARTESIAN_POINT('',(8.583639389176,-12.48204552078));
#362 = CARTESIAN_POINT('',(8.367620888937,-12.86881390139));
#363 = CARTESIAN_POINT('',(8.140149003336,-13.24880915189));
#364 = CARTESIAN_POINT('',(7.622792776127,-14.05395537964));
#365 = CARTESIAN_POINT('',(7.328822945069,-14.47635594069));
#366 = CARTESIAN_POINT('',(7.018354848011,-14.88716644426));
#367 = CARTESIAN_POINT('',(6.690837772444,-15.28478403655));
#368 = CARTESIAN_POINT('',(6.345797173449,-15.66725903798));
#369 = CARTESIAN_POINT('',(5.982860667236,-16.03231580421));
#370 = CARTESIAN_POINT('',(5.33400946002,-16.61983811666));
#371 = CARTESIAN_POINT('',(5.0573218083,-16.85238779611));
#372 = CARTESIAN_POINT('',(4.771657158821,-17.07411625217));
#373 = CARTESIAN_POINT('',(4.477049528992,-17.28399094722));
#374 = CARTESIAN_POINT('',(4.173649066327,-17.4808787408));
#375 = CARTESIAN_POINT('',(3.861750094102,-17.66358603674));
#376 = CARTESIAN_POINT('',(3.382029135794,-17.9144932568));
#377 = CARTESIAN_POINT('',(3.220230538679,-17.99423430296));
#378 = CARTESIAN_POINT('',(3.056495575151,-18.06998627012));
#379 = CARTESIAN_POINT('',(2.890898753101,-18.14159831925));
#380 = CARTESIAN_POINT('',(2.723527901174,-18.20892192234));
#381 = CARTESIAN_POINT('',(2.554485347454,-18.27181362807));
#382 = CARTESIAN_POINT('',(2.055552191224,-18.44239111045));
#383 = CARTESIAN_POINT('',(1.721405923013,-18.53774414747));
#384 = CARTESIAN_POINT('',(1.382366037099,-18.61519448227));
#385 = CARTESIAN_POINT('',(1.039470009206,-18.67391254547));
#386 = CARTESIAN_POINT('',(0.693883435323,-18.71328196132));
#387 = CARTESIAN_POINT('',(0.346909282173,-18.73296029993));
#388 = CARTESIAN_POINT('',(-0.23331331509,-18.7329603261));
#389 = CARTESIAN_POINT('',(-0.466636477755,-18.7240592746));
#390 = CARTESIAN_POINT('',(-0.699546399476,-18.70625635644));
#391 = CARTESIAN_POINT('',(-0.931640952293,-18.6796183269));
#392 = CARTESIAN_POINT('',(-1.162538342085,-18.6442732201));
#393 = CARTESIAN_POINT('',(-1.391876481831,-18.6004041084));
#394 = CARTESIAN_POINT('',(-1.905766699802,-18.48254645003));
#395 = CARTESIAN_POINT('',(-2.1892282882,-18.40368910501));
#396 = CARTESIAN_POINT('',(-2.469020045174,-18.31213310241));
#397 = CARTESIAN_POINT('',(-2.74458322737,-18.20843953098));
#398 = CARTESIAN_POINT('',(-3.015465051352,-18.09323434147));
#399 = CARTESIAN_POINT('',(-3.281306311959,-17.96717439575));
#400 = CARTESIAN_POINT('',(-3.861750094099,-17.66358603674));
#401 = CARTESIAN_POINT('',(-4.173649066325,-17.4808787408));
#402 = CARTESIAN_POINT('',(-4.477049528989,-17.28399094722));
#403 = CARTESIAN_POINT('',(-4.771657158818,-17.07411625218));
#404 = CARTESIAN_POINT('',(-5.057321808297,-16.85238779611));
#405 = CARTESIAN_POINT('',(-5.334009460017,-16.61983811666));
#406 = CARTESIAN_POINT('',(-5.982860667233,-16.03231580422));
#407 = CARTESIAN_POINT('',(-6.345797173446,-15.66725903799));
#408 = CARTESIAN_POINT('',(-6.690837772441,-15.28478403655));
#409 = CARTESIAN_POINT('',(-7.018354848009,-14.88716644426));
#410 = CARTESIAN_POINT('',(-7.328822945067,-14.47635594069));
#411 = CARTESIAN_POINT('',(-7.622792776124,-14.05395537964));
#412 = CARTESIAN_POINT('',(-8.140149003334,-13.24880915189));
#413 = CARTESIAN_POINT('',(-8.367620888934,-12.86881390139));
#414 = CARTESIAN_POINT('',(-8.583639389174,-12.48204552079));
#415 = CARTESIAN_POINT('',(-8.788537237287,-12.08923855391));
#416 = CARTESIAN_POINT('',(-8.982625709591,-11.69103320008));
#417 = CARTESIAN_POINT('',(-9.16619893996,-11.28797776988));
#418 = CARTESIAN_POINT('',(-9.483532807524,-10.54206079712));
#419 = CARTESIAN_POINT('',(-9.620459207616,-10.20057295922));
#420 = CARTESIAN_POINT('',(-9.750474372485,-9.85633840728));
#421 = CARTESIAN_POINT('',(-9.873721132213,-9.509604230978));
#422 = CARTESIAN_POINT('',(-9.990329855789,-9.160594448952));
#423 = CARTESIAN_POINT('',(-10.10042009785,-8.809510628008));
#424 = CARTESIAN_POINT('',(-10.50773309899,-7.422842826663));
#425 = CARTESIAN_POINT('',(-10.75631755369,-6.373215164369));
#426 = CARTESIAN_POINT('',(-10.95278788251,-5.31176660542));
#427 = CARTESIAN_POINT('',(-11.0988999152,-4.242061970612));
#428 = CARTESIAN_POINT('',(-11.19587673937,-3.167220751576));
#429 = CARTESIAN_POINT('',(-11.24438263514,-2.089915874933));
#430 = CARTESIAN_POINT('',(-11.24438263514,6.519164037555E-02));
#431 = CARTESIAN_POINT('',(-11.19587673938,1.142496517003));
#432 = CARTESIAN_POINT('',(-11.0988999152,2.217337736075));
#433 = CARTESIAN_POINT('',(-10.95278788251,3.287042370835));
#434 = CARTESIAN_POINT('',(-10.75631755369,4.348490929823));
#435 = CARTESIAN_POINT('',(-10.50773309899,5.398118592099));
#436 = CARTESIAN_POINT('',(-10.10042009785,6.784786393448));
#437 = CARTESIAN_POINT('',(-9.990329855791,7.135870214392));
#438 = CARTESIAN_POINT('',(-9.873721132214,7.484879996418));
#439 = CARTESIAN_POINT('',(-9.750474372486,7.83161417272));
#440 = CARTESIAN_POINT('',(-9.620459207617,8.175848724664));
#441 = CARTESIAN_POINT('',(-9.483532807525,8.517336562562));
#442 = CARTESIAN_POINT('',(-9.166198939961,9.263253535329));
#443 = CARTESIAN_POINT('',(-8.982625709593,9.66630896552));
#444 = CARTESIAN_POINT('',(-8.788537237289,10.064514319352));
#445 = CARTESIAN_POINT('',(-8.583639389175,10.457321286231));
#446 = CARTESIAN_POINT('',(-8.367620888936,10.844089666839));
#447 = CARTESIAN_POINT('',(-8.140149003336,11.224084917338));
#448 = CARTESIAN_POINT('',(-7.622792776126,12.029231145085));
#449 = CARTESIAN_POINT('',(-7.328822945069,12.451631706137));
#450 = CARTESIAN_POINT('',(-7.018354848011,12.862442209705));
#451 = CARTESIAN_POINT('',(-6.690837772443,13.260059801995));
#452 = CARTESIAN_POINT('',(-6.345797173449,13.642534803431));
#453 = CARTESIAN_POINT('',(-5.982860667236,14.007591569663));
#454 = CARTESIAN_POINT('',(-5.334009460019,14.595113882109));
#455 = CARTESIAN_POINT('',(-5.0573218083,14.827663561562));
#456 = CARTESIAN_POINT('',(-4.771657158821,15.04939201762));
#457 = CARTESIAN_POINT('',(-4.477049528992,15.259266712665));
#458 = CARTESIAN_POINT('',(-4.173649066327,15.456154506247));
#459 = CARTESIAN_POINT('',(-3.861750094101,15.63886180219));
#460 = CARTESIAN_POINT('',(-3.074548869723,16.050589661942));
#461 = CARTESIAN_POINT('',(-2.589928922794,16.26229735424));
#462 = CARTESIAN_POINT('',(-2.089847412321,16.437300966399));
#463 = CARTESIAN_POINT('',(-1.576904315928,16.571842760255));
#464 = CARTESIAN_POINT('',(-1.054520761412,16.66281450516));
#465 = CARTESIAN_POINT('',(-0.527051884096,16.708236062654));
#466 = CARTESIAN_POINT('',(1.7763568394E-15,16.708236040638));
#467 = ( GEOMETRIC_REPRESENTATION_CONTEXT(2) 
PARAMETRIC_REPRESENTATION_CONTEXT() REPRESENTATION_CONTEXT('2D SPACE',''
  ) );
#468 = PCURVE('',#469,#484);
#469 = ( BOUNDED_SURFACE() B_SPLINE_SURFACE(2,1,(
    (#470,#471)
    ,(#472,#473)
    ,(#474,#475)
    ,(#476,#477)
    ,(#478,#479)
    ,(#480,#481)
,(#482,#483
    )),.UNSPECIFIED.,.T.,.F.,.F.) B_SPLINE_SURFACE_WITH_KNOTS((3,2,2,3),
  (2,2),(0.,2.094395102393,4.188790204786,6.28318530718),(-6.02870704499
,-1.),.PIECEWISE_BEZIER_KNOTS.) GEOMETRIC_REPRESENTATION_ITEM() 
RATIONAL_B_SPLINE_SURFACE((
    (1.,1.)
    ,(0.5,0.5)
    ,(1.,1.)
    ,(0.5,0.5)
    ,(1.,1.)
    ,(0.5,0.5)
,(1.,1.))) REPRESENTATION_ITEM('') SURFACE() );
#470 = CARTESIAN_POINT('',(22.848708162883,17.341485179772,
    42.538766386918));
#471 = CARTESIAN_POINT('',(22.848708162883,17.341485179772,
    37.510059341928));
#472 = CARTESIAN_POINT('',(3.396190017205,16.388610177001,
    42.050056356288));
#473 = CARTESIAN_POINT('',(3.396190017205,16.388610177001,
    37.021349311299));
#474 = CARTESIAN_POINT('',(14.422945990185,-9.684016443161,
    40.482865605912));
#475 = CARTESIAN_POINT('',(14.422945990185,-9.684016443161,
    35.454158560923));
#476 = CARTESIAN_POINT('',(25.449701963166,-35.75664306332,
    38.915674855537));
#477 = CARTESIAN_POINT('',(25.449701963166,-35.75664306332,
    33.886967810547));
#478 = CARTESIAN_POINT('',(33.875464135864,-8.731141440389,
    40.971575636542));
#479 = CARTESIAN_POINT('',(33.875464135864,-8.731141440389,
    35.942868591552));
#480 = CARTESIAN_POINT('',(42.301226308561,18.294360182543,
    43.027476417547));
#481 = CARTESIAN_POINT('',(42.301226308561,18.294360182543,
    37.998769372557));
#482 = CARTESIAN_POINT('',(22.848708162883,17.341485179772,
    42.538766386918));
#483 = CARTESIAN_POINT('',(22.848708162883,17.341485179772,
    37.510059341928));
#484 = DEFINITIONAL_REPRESENTATION('',(#485),#599);
#485 = B_SPLINE_CURVE_WITH_KNOTS('',8,(#486,#487,#488,#489,#490,#491,
    #492,#493,#494,#495,#496,#497,#498,#499,#500,#501,#502,#503,#504,
    #505,#506,#507,#508,#509,#510,#511,#512,#513,#514,#515,#516,#517,
    #518,#519,#520,#521,#522,#523,#524,#525,#526,#527,#528,#529,#530,
    #531,#532,#533,#534,#535,#536,#537,#538,#539,#540,#541,#542,#543,
    #544,#545,#546,#547,#548,#549,#550,#551,#552,#553,#554,#555,#556,
    #557,#558,#559,#560,#561,#562,#563,#564,#565,#566,#567,#568,#569,
    #570,#571,#572,#573,#574,#575,#576,#577,#578,#579,#580,#581,#582,
    #583,#584,#585,#586,#587,#588,#589,#590,#591,#592,#593,#594,#595,
    #596,#597,#598),.UNSPECIFIED.,.F.,.F.,(9,8,8,8,8,8,8,8,8,8,8,8,8,8,9
    ),(0.,6.25E-02,0.1796875,0.2822265625,0.327087402344,0.348115921021,
    0.429601430893,0.500901252031,0.625675939023,0.649071192835,
    0.654554455446,0.827277227723,0.913638613862,0.956819306931,1.),
  .UNSPECIFIED.);
#486 = CARTESIAN_POINT('',(6.28318530718,-1.));
#487 = CARTESIAN_POINT('',(6.205899709559,-1.000000000002));
#488 = CARTESIAN_POINT('',(6.13177842923,-1.000000000001));
#489 = CARTESIAN_POINT('',(6.06133927024,-1.000000000002));
#490 = CARTESIAN_POINT('',(5.994365547442,-0.999999999997));
#491 = CARTESIAN_POINT('',(5.930903236147,-0.999999999997));
#492 = CARTESIAN_POINT('',(5.870854928541,-1.000000000005));
#493 = CARTESIAN_POINT('',(5.813586567056,-1.000000000001));
#494 = CARTESIAN_POINT('',(5.758962924897,-1.));
#495 = CARTESIAN_POINT('',(5.65652492501,-1.));
#496 = CARTESIAN_POINT('',(5.563274597609,-1.000000000001));
#497 = CARTESIAN_POINT('',(5.476939182416,-1.));
#498 = CARTESIAN_POINT('',(5.395658652792,-0.999999999999));
#499 = CARTESIAN_POINT('',(5.318003987101,-1.));
#500 = CARTESIAN_POINT('',(5.242916887424,-1.000000000001));
#501 = CARTESIAN_POINT('',(5.169570945637,-1.));
#502 = CARTESIAN_POINT('',(5.097154256844,-1.));
#503 = CARTESIAN_POINT('',(5.033792068865,-1.));
#504 = CARTESIAN_POINT('',(4.971139348664,-1.));
#505 = CARTESIAN_POINT('',(4.908674261537,-1.));
#506 = CARTESIAN_POINT('',(4.845927668113,-1.));
#507 = CARTESIAN_POINT('',(4.782443060123,-1.));
#508 = CARTESIAN_POINT('',(4.717736496186,-1.));
#509 = CARTESIAN_POINT('',(4.65125653758,-1.));
#510 = CARTESIAN_POINT('',(4.582344184022,-1.));
#511 = CARTESIAN_POINT('',(4.552195007215,-1.));
#512 = CARTESIAN_POINT('',(4.521575576802,-1.));
#513 = CARTESIAN_POINT('',(4.490434279615,-1.));
#514 = CARTESIAN_POINT('',(4.458711295005,-1.));
#515 = CARTESIAN_POINT('',(4.42633859484,-1.));
#516 = CARTESIAN_POINT('',(4.393239943509,-1.));
#517 = CARTESIAN_POINT('',(4.359330897919,-1.));
#518 = CARTESIAN_POINT('',(4.324518807495,-1.));
#519 = CARTESIAN_POINT('',(4.308198702098,-1.));
#520 = CARTESIAN_POINT('',(4.291681307483,-1.));
#521 = CARTESIAN_POINT('',(4.274955314788,-1.));
#522 = CARTESIAN_POINT('',(4.25800941515,-1.));
#523 = CARTESIAN_POINT('',(4.240832299708,-1.));
#524 = CARTESIAN_POINT('',(4.223412659597,-1.));
#525 = CARTESIAN_POINT('',(4.205739185958,-1.));
#526 = CARTESIAN_POINT('',(4.187800569926,-1.));
#527 = CARTESIAN_POINT('',(4.118345788959,-1.));
#528 = CARTESIAN_POINT('',(4.050136981365,-1.));
#529 = CARTESIAN_POINT('',(3.982766090655,-1.));
#530 = CARTESIAN_POINT('',(3.915833104749,-1.));
#531 = CARTESIAN_POINT('',(3.848946055976,-1.));
#532 = CARTESIAN_POINT('',(3.781721021069,-1.));
#533 = CARTESIAN_POINT('',(3.713782121172,-1.));
#534 = CARTESIAN_POINT('',(3.644761521832,-1.));
#535 = CARTESIAN_POINT('',(3.584374809947,-1.));
#536 = CARTESIAN_POINT('',(3.523158242839,-1.));
#537 = CARTESIAN_POINT('',(3.460956927803,-1.));
#538 = CARTESIAN_POINT('',(3.397545687701,-1.));
#539 = CARTESIAN_POINT('',(3.332880528914,-1.));
#540 = CARTESIAN_POINT('',(3.267206352946,-1.));
#541 = CARTESIAN_POINT('',(3.20102091169,-1.));
#542 = CARTESIAN_POINT('',(3.134895006359,-1.));
#543 = CARTESIAN_POINT('',(3.019172087671,-0.999999999995));
#544 = CARTESIAN_POINT('',(2.903567628142,-1.000000000069));
#545 = CARTESIAN_POINT('',(2.790848226912,-0.999999999818));
#546 = CARTESIAN_POINT('',(2.684014423983,-1.000000000044));
#547 = CARTESIAN_POINT('',(2.579424919997,-0.999999999891));
#548 = CARTESIAN_POINT('',(2.476959747612,-1.000000000087));
#549 = CARTESIAN_POINT('',(2.374628547477,-0.99999999999));
#550 = CARTESIAN_POINT('',(2.271230819192,-1.));
#551 = CARTESIAN_POINT('',(2.251842965697,-1.));
#552 = CARTESIAN_POINT('',(2.232416505044,-1.));
#553 = CARTESIAN_POINT('',(2.212941951887,-1.));
#554 = CARTESIAN_POINT('',(2.193409820884,-1.));
#555 = CARTESIAN_POINT('',(2.173810626689,-1.));
#556 = CARTESIAN_POINT('',(2.154134883958,-1.));
#557 = CARTESIAN_POINT('',(2.134373107346,-1.));
#558 = CARTESIAN_POINT('',(2.114515811509,-1.));
#559 = CARTESIAN_POINT('',(2.109858044735,-1.));
#560 = CARTESIAN_POINT('',(2.105209659719,-1.));
#561 = CARTESIAN_POINT('',(2.100541966675,-1.));
#562 = CARTESIAN_POINT('',(2.095857567192,-1.));
#563 = CARTESIAN_POINT('',(2.091175531155,-1.));
#564 = CARTESIAN_POINT('',(2.086516573681,-1.));
#565 = CARTESIAN_POINT('',(2.081888232045,-1.));
#566 = CARTESIAN_POINT('',(2.077270042607,-1.));
#567 = CARTESIAN_POINT('',(1.931826620726,-1.000000000001));
#568 = CARTESIAN_POINT('',(1.803804516075,-1.000000000003));
#569 = CARTESIAN_POINT('',(1.686035311956,-1.000000000004));
#570 = CARTESIAN_POINT('',(1.575083324954,-1.000000000001));
#571 = CARTESIAN_POINT('',(1.468376669719,-1.000000000003));
#572 = CARTESIAN_POINT('',(1.363630381362,-1.000000000007));
#573 = CARTESIAN_POINT('',(1.258886472532,-0.999999999999));
#574 = CARTESIAN_POINT('',(1.151495802218,-1.));
#575 = CARTESIAN_POINT('',(1.097796857455,-1.));
#576 = CARTESIAN_POINT('',(1.043436850428,-1.));
#577 = CARTESIAN_POINT('',(0.988089187086,-1.));
#578 = CARTESIAN_POINT('',(0.931397137052,-1.));
#579 = CARTESIAN_POINT('',(0.872946143582,-1.));
#580 = CARTESIAN_POINT('',(0.812236133514,-1.));
#581 = CARTESIAN_POINT('',(0.748653827229,-1.));
#582 = CARTESIAN_POINT('',(0.681445048596,-1.));
#583 = CARTESIAN_POINT('',(0.647838201446,-1.));
#584 = CARTESIAN_POINT('',(0.613332755899,-1.));
#585 = CARTESIAN_POINT('',(0.577825624992,-1.));
#586 = CARTESIAN_POINT('',(0.541213721759,-1.));
#587 = CARTESIAN_POINT('',(0.503393959233,-1.));
#588 = CARTESIAN_POINT('',(0.464263250451,-1.));
#589 = CARTESIAN_POINT('',(0.423718508446,-1.));
#590 = CARTESIAN_POINT('',(0.381656646253,-1.));
#591 = CARTESIAN_POINT('',(0.339604509529,-1.));
#592 = CARTESIAN_POINT('',(0.296018404622,-1.));
#593 = CARTESIAN_POINT('',(0.250840693662,-1.));
#594 = CARTESIAN_POINT('',(0.204012179891,-1.));
#595 = CARTESIAN_POINT('',(0.155490829082,-1.));
#596 = CARTESIAN_POINT('',(0.105270490961,-1.));
#597 = CARTESIAN_POINT('',(5.33996206334E-02,-1.));
#598 = CARTESIAN_POINT('',(0.,-1.));
#599 = ( GEOMETRIC_REPRESENTATION_CONTEXT(2) 
PARAMETRIC_REPRESENTATION_CONTEXT() REPRESENTATION_CONTEXT('2D SPACE',''
  ) );
#600 = ADVANCED_FACE('',(#601,#604),#82,.T.);
#601 = FACE_BOUND('',#602,.T.);
#602 = EDGE_LOOP('',(#603));
#603 = ORIENTED_EDGE('',*,*,#60,.T.);
#604 = FACE_BOUND('',#605,.T.);
#605 = EDGE_LOOP('',(#606));
#606 = ORIENTED_EDGE('',*,*,#607,.T.);
#607 = EDGE_CURVE('',#608,#608,#610,.T.);
#608 = VERTEX_POINT('',#609);
#609 = CARTESIAN_POINT('',(22.848708162883,17.341485179772,
    42.538766386918));
#610 = SURFACE_CURVE('',#611,(#770,#932),.PCURVE_S1.);
#611 = B_SPLINE_CURVE_WITH_KNOTS('',7,(#612,#613,#614,#615,#616,#617,
    #618,#619,#620,#621,#622,#623,#624,#625,#626,#627,#628,#629,#630,
    #631,#632,#633,#634,#635,#636,#637,#638,#639,#640,#641,#642,#643,
    #644,#645,#646,#647,#648,#649,#650,#651,#652,#653,#654,#655,#656,
    #657,#658,#659,#660,#661,#662,#663,#664,#665,#666,#667,#668,#669,
    #670,#671,#672,#673,#674,#675,#676,#677,#678,#679,#680,#681,#682,
    #683,#684,#685,#686,#687,#688,#689,#690,#691,#692,#693,#694,#695,
    #696,#697,#698,#699,#700,#701,#702,#703,#704,#705,#706,#707,#708,
    #709,#710,#711,#712,#713,#714,#715,#716,#717,#718,#719,#720,#721,
    #722,#723,#724,#725,#726,#727,#728,#729,#730,#731,#732,#733,#734,
    #735,#736,#737,#738,#739,#740,#741,#742,#743,#744,#745,#746,#747,
    #748,#749,#750,#751,#752,#753,#754,#755,#756,#757,#758,#759,#760,
    #761,#762,#763,#764,#765,#766,#767,#768,#769),.UNSPECIFIED.,.T.,.F.,
  (8,6,6,6,6,6,6,6,6,6,6,6,6,6,6,6,6,6,6,6,6,6,6,6,6,6,8),(0.,
    4.01049318765E-02,6.756258204255E-02,0.106638257613,0.140263247705,
    0.168195863742,0.249995962794,0.331796061846,0.359728677883,
    0.393353667974,0.432429343545,0.459886993711,0.473602027305,
    0.499998573139,0.517751531533,0.540111306246,0.567569057914,
    0.606644877934,0.640269992325,0.668202711619,0.750003113058,
    0.831803514497,0.859736233791,0.893361348183,0.932437168203,
    0.95989491987,1.),.UNSPECIFIED.);
#612 = CARTESIAN_POINT('',(22.848708162883,17.341485179772,
    42.538766386918));
#613 = CARTESIAN_POINT('',(23.37512885188,17.367271740698,
    42.551991774954));
#614 = CARTESIAN_POINT('',(23.904188330777,17.347711520501,
    42.562132047555));
#615 = CARTESIAN_POINT('',(24.430397165353,17.282406859076,
    42.569040369434));
#616 = CARTESIAN_POINT('',(24.949308555738,17.173122444009,
    42.572742407291));
#617 = CARTESIAN_POINT('',(25.457353397949,17.022795401621,
    42.573364146955));
#618 = CARTESIAN_POINT('',(25.951750977011,16.835051763209,
    42.571096444819));
#619 = CARTESIAN_POINT('',(26.758153650211,16.462331590949,
    42.562789648945));
#620 = CARTESIAN_POINT('',(27.078618230816,16.295103072309,
    42.558164275145));
#621 = CARTESIAN_POINT('',(27.391288274604,16.113295240459,
    42.552359215404));
#622 = CARTESIAN_POINT('',(27.695811412901,15.918085862061,
    42.545448430395));
#623 = CARTESIAN_POINT('',(27.991982237985,15.710599374405,
    42.537505378423));
#624 = CARTESIAN_POINT('',(28.279716255246,15.491865414224,
    42.528599575561));
#625 = CARTESIAN_POINT('',(28.956535517271,14.936792407062,
    42.504840370366));
#626 = CARTESIAN_POINT('',(29.33689813928,14.589929860954,
    42.489068176857));
#627 = CARTESIAN_POINT('',(29.700238490621,14.224794364506,
    42.471659828363));
#628 = CARTESIAN_POINT('',(30.046817170951,13.843677056022,
    42.452779759258));
#629 = CARTESIAN_POINT('',(30.37701276686,13.448548497733,
    42.432572752251));
#630 = CARTESIAN_POINT('',(30.691296910107,13.041036568027,
    42.411161864411));
#631 = CARTESIAN_POINT('',(31.247426136727,12.262166747591,
    42.369271495751));
#632 = CARTESIAN_POINT('',(31.493217249938,11.89375586582,
    42.349081979513));
#633 = CARTESIAN_POINT('',(31.727900076433,11.5180195971,42.328143458379
    ));
#634 = CARTESIAN_POINT('',(31.951771012681,11.13570788489,
    42.306514342423));
#635 = CARTESIAN_POINT('',(32.165109639823,10.747475391311,
    42.284246073518));
#636 = CARTESIAN_POINT('',(32.368182912839,10.353884161097,
    42.261383400961));
#637 = CARTESIAN_POINT('',(32.721631474979,9.624386369677,
    42.218510445412));
#638 = CARTESIAN_POINT('',(32.875101525829,9.290006756114,
    42.198673222302));
#639 = CARTESIAN_POINT('',(33.021803004032,8.952545578878,
    42.178475380085));
#640 = CARTESIAN_POINT('',(33.161866479507,8.612256619849,
    42.157937342514));
#641 = CARTESIAN_POINT('',(33.29541120478,8.269370007811,42.137077648313
    ));
#642 = CARTESIAN_POINT('',(33.422546729455,7.924092917502,
    42.115913034696));
#643 = CARTESIAN_POINT('',(33.897216039891,6.559013975493,
    42.031629380199));
#644 = CARTESIAN_POINT('',(34.196856871309,5.522805582974,41.96633274419
    ));
#645 = CARTESIAN_POINT('',(34.445024337624,4.472240714898,
    41.898922781415));
#646 = CARTESIAN_POINT('',(34.643297753221,3.410965828483,41.82968650141
    ));
#647 = CARTESIAN_POINT('',(34.792746116937,2.342156520368,
    41.758867195411));
#648 = CARTESIAN_POINT('',(34.893902137554,1.268515016573,
    41.686663698027));
#649 = CARTESIAN_POINT('',(34.999342921524,-0.884011555526,
    41.539788449266));
#650 = CARTESIAN_POINT('',(35.00360333134,-1.962399457943,
    41.465150621448));
#651 = CARTESIAN_POINT('',(34.959330324337,-3.040698141701,
    41.389464409463));
#652 = CARTESIAN_POINT('',(34.865729640305,-4.116270381864,
    41.312895310175));
#653 = CARTESIAN_POINT('',(34.721427032204,-5.186060263414,
    41.235625232598));
#654 = CARTESIAN_POINT('',(34.524494360605,-6.246593140528,
    41.157853067711));
#655 = CARTESIAN_POINT('',(34.185513259726,-7.651528471934,
    41.053127889168));
#656 = CARTESIAN_POINT('',(34.092731987036,-8.007578111962,
    41.026438255913));
#657 = CARTESIAN_POINT('',(33.993338564904,-8.361875120135,
    40.999726403738));
#658 = CARTESIAN_POINT('',(33.887203720011,-8.714224020373,
    40.973003069859));
#659 = CARTESIAN_POINT('',(33.774186279163,-9.064407440758,
    40.946280250262));
#660 = CARTESIAN_POINT('',(33.654131494221,-9.412185575618,
    40.91957120059));
#661 = CARTESIAN_POINT('',(33.373672395319,-10.17273511878,
    40.860772438926));
#662 = CARTESIAN_POINT('',(33.210038899891,-10.58428935565,
    40.828696908954));
#663 = CARTESIAN_POINT('',(33.035665460692,-10.99151379328,
    40.796688061765));
#664 = CARTESIAN_POINT('',(32.850231469461,-11.39387516852,
    40.764775885172));
#665 = CARTESIAN_POINT('',(32.653394700272,-11.79074927826,
    40.732996199246));
#666 = CARTESIAN_POINT('',(32.444786880081,-12.18141873765,
    40.70139071542));
#667 = CARTESIAN_POINT('',(31.967442817409,-13.01091289659,
    40.633536162633));
#668 = CARTESIAN_POINT('',(31.694491411381,-13.44719036047,
    40.59737202274));
#669 = CARTESIAN_POINT('',(31.404494442454,-13.87269884117,
    40.561583777095));
#670 = CARTESIAN_POINT('',(31.096823436429,-14.28586434861,
    40.526266844552));
#671 = CARTESIAN_POINT('',(30.770909026682,-14.68476275573,
    40.49154219218));
#672 = CARTESIAN_POINT('',(30.426267937218,-15.06713936271,
    40.457555565796));
#673 = CARTESIAN_POINT('',(29.806938905059,-15.68570375439,
    40.401232932678));
#674 = CARTESIAN_POINT('',(29.541960337664,-15.93151215304,
    40.378441206042));
#675 = CARTESIAN_POINT('',(29.267486084163,-16.1669514963,
    40.356161708179));
#676 = CARTESIAN_POINT('',(28.983499603292,-16.39098881876,
    40.334465662369));
#677 = CARTESIAN_POINT('',(28.690095422723,-16.6024849909,
    40.313434062264));
#678 = CARTESIAN_POINT('',(28.38750911537,-16.80023344594,
    40.293155639523));
#679 = CARTESIAN_POINT('',(27.920638553776,-17.07431100728,
    40.264018063584));
#680 = CARTESIAN_POINT('',(27.762935135833,-17.16187271376,
    40.254523503641));
#681 = CARTESIAN_POINT('',(27.60310250079,-17.24554485718,
    40.245252218566));
#682 = CARTESIAN_POINT('',(27.441207687358,-17.3251731338,
    40.236216358002));
#683 = CARTESIAN_POINT('',(27.277331152117,-17.40060489638,
    40.227428248352));
#684 = CARTESIAN_POINT('',(27.111568082106,-17.47169185888,
    40.218900233869));
#685 = CARTESIAN_POINT('',(26.621578118487,-17.66647586088,
    40.194755209316));
#686 = CARTESIAN_POINT('',(26.292497264155,-17.77806314304,
    40.179871914172));
#687 = CARTESIAN_POINT('',(25.957652745128,-17.87200858826,
    40.166085930761));
#688 = CARTESIAN_POINT('',(25.618040207148,-17.94743286114,
    40.153479829555));
#689 = CARTESIAN_POINT('',(25.274793693497,-18.00366329612,
    40.142124866361));
#690 = CARTESIAN_POINT('',(24.929197856747,-18.04029412447,
    40.132077074045));
#691 = CARTESIAN_POINT('',(24.349670131698,-18.06868211971,
    40.117517465594));
#692 = CARTESIAN_POINT('',(24.116190902565,-18.07120729642,
    40.112269280841));
#693 = CARTESIAN_POINT('',(23.88268888678,-18.06482104907,
    40.107638147111));
#694 = CARTESIAN_POINT('',(23.649568996784,-18.04957037847,
    40.103629605539));
#695 = CARTESIAN_POINT('',(23.417218833663,-18.02556448577,
    40.100244510735));
#696 = CARTESIAN_POINT('',(23.186009007799,-17.99296850859,
    40.097479471822));
#697 = CARTESIAN_POINT('',(22.666967918074,-17.90039458711,
    40.092616607708));
#698 = CARTESIAN_POINT('',(22.37998762726,-17.83550032198,
    40.090877965484));
#699 = CARTESIAN_POINT('',(22.09605147842,-17.75774305696,
    40.090096851892));
#700 = CARTESIAN_POINT('',(21.815744997586,-17.66765587174,
    40.090249048144));
#701 = CARTESIAN_POINT('',(21.539551051209,-17.56584181457,
    40.091303256097));
#702 = CARTESIAN_POINT('',(21.267860551889,-17.45293938618,
    40.093223722776));
#703 = CARTESIAN_POINT('',(20.673258542411,-17.17811339346,
    40.099348770636));
#704 = CARTESIAN_POINT('',(20.352793961807,-17.01088487482,
    40.103974144436));
#705 = CARTESIAN_POINT('',(20.040123918018,-16.82907704297,
    40.109779204177));
#706 = CARTESIAN_POINT('',(19.735600779721,-16.63386766458,
    40.116689989186));
#707 = CARTESIAN_POINT('',(19.439429954638,-16.42638117692,
    40.124633041159));
#708 = CARTESIAN_POINT('',(19.151695937376,-16.20764721674,
    40.133538844021));
#709 = CARTESIAN_POINT('',(18.474876675351,-15.65257420958,
    40.157298049215));
#710 = CARTESIAN_POINT('',(18.094514053342,-15.30571166347,
    40.173070242724));
#711 = CARTESIAN_POINT('',(17.731173702001,-14.94057616702,
    40.190478591218));
#712 = CARTESIAN_POINT('',(17.384595021671,-14.55945885854,
    40.209358660324));
#713 = CARTESIAN_POINT('',(17.054399425762,-14.16433030025,
    40.22956566733));
#714 = CARTESIAN_POINT('',(16.740115282515,-13.75681837054,
    40.25097655517));
#715 = CARTESIAN_POINT('',(16.183986055895,-12.97794855011,
    40.29286692383));
#716 = CARTESIAN_POINT('',(15.938194942684,-12.60953766834,
    40.313056440068));
#717 = CARTESIAN_POINT('',(15.703512116188,-12.23380139962,
    40.333994961202));
#718 = CARTESIAN_POINT('',(15.479641179941,-11.8514896874,
    40.355624077158));
#719 = CARTESIAN_POINT('',(15.266302552798,-11.46325719383,
    40.377892346063));
#720 = CARTESIAN_POINT('',(15.063229279782,-11.06966596361,
    40.40075501862));
#721 = CARTESIAN_POINT('',(14.709780717643,-10.34016817219,
    40.443627974169));
#722 = CARTESIAN_POINT('',(14.556310666792,-10.00578855863,
    40.463465197279));
#723 = CARTESIAN_POINT('',(14.409609188589,-9.668327381398,
    40.483663039496));
#724 = CARTESIAN_POINT('',(14.269545713114,-9.328038422369,
    40.504201077067));
#725 = CARTESIAN_POINT('',(14.136000987841,-8.98515181033,
    40.525060771268));
#726 = CARTESIAN_POINT('',(14.008865463167,-8.639874720022,
    40.546225384885));
#727 = CARTESIAN_POINT('',(13.534196152735,-7.27479577801,
    40.630509039382));
#728 = CARTESIAN_POINT('',(13.234555321294,-6.238587385502,
    40.69580567539));
#729 = CARTESIAN_POINT('',(12.986387855029,-5.188022517402,
    40.763215638168));
#730 = CARTESIAN_POINT('',(12.788114439368,-4.126747631017,
    40.83245191817));
#731 = CARTESIAN_POINT('',(12.638666075702,-3.057938322879,
    40.903271224171));
#732 = CARTESIAN_POINT('',(12.537510055063,-1.984296819094,
    40.975474721554));
#733 = CARTESIAN_POINT('',(12.432069271099,0.168229753011,
    41.122349970316));
#734 = CARTESIAN_POINT('',(12.427808861276,1.246617655408,
    41.196987798132));
#735 = CARTESIAN_POINT('',(12.472081868292,2.324916339212,
    41.272674010121));
#736 = CARTESIAN_POINT('',(12.565682552309,3.400488579313,
    41.349243109404));
#737 = CARTESIAN_POINT('',(12.709985160421,4.470278460914,
    41.426513186985));
#738 = CARTESIAN_POINT('',(12.906917832016,5.530811338005,
    41.504285351869));
#739 = CARTESIAN_POINT('',(13.245898932895,6.935746669415,
    41.609010530413));
#740 = CARTESIAN_POINT('',(13.338680205585,7.291796309444,
    41.635700163668));
#741 = CARTESIAN_POINT('',(13.438073627718,7.646093317617,
    41.662412015843));
#742 = CARTESIAN_POINT('',(13.54420847261,7.998442217855,41.689135349722
    ));
#743 = CARTESIAN_POINT('',(13.657225913458,8.34862563824,41.715858169319
    ));
#744 = CARTESIAN_POINT('',(13.777280698401,8.6964037731,41.742567218991)
  );
#745 = CARTESIAN_POINT('',(14.057739797302,9.456953316265,
    41.801365980655));
#746 = CARTESIAN_POINT('',(14.22137329273,9.868507553138,41.833441510627
    ));
#747 = CARTESIAN_POINT('',(14.395746731929,10.275731990769,
    41.865450357816));
#748 = CARTESIAN_POINT('',(14.581180723161,10.67809336601,
    41.897362534409));
#749 = CARTESIAN_POINT('',(14.778017492349,11.074967475747,
    41.929142220335));
#750 = CARTESIAN_POINT('',(14.98662531254,11.465636935131,
    41.960747704161));
#751 = CARTESIAN_POINT('',(15.463969375213,12.295131094073,
    42.028602256948));
#752 = CARTESIAN_POINT('',(15.73692078124,12.731408557961,
    42.064766396841));
#753 = CARTESIAN_POINT('',(16.026917750167,13.156917038659,
    42.100554642487));
#754 = CARTESIAN_POINT('',(16.334588756193,13.570082546098,
    42.135871575029));
#755 = CARTESIAN_POINT('',(16.66050316594,13.968980953212,
    42.170596227401));
#756 = CARTESIAN_POINT('',(17.005144255403,14.351357560194,
    42.204582853786));
#757 = CARTESIAN_POINT('',(17.624473287562,14.969921951873,
    42.260905486903));
#758 = CARTESIAN_POINT('',(17.889451854957,15.215730350528,
    42.283697213539));
#759 = CARTESIAN_POINT('',(18.163926108459,15.451169693783,
    42.305976711402));
#760 = CARTESIAN_POINT('',(18.44791258933,15.675207016245,
    42.327672757212));
#761 = CARTESIAN_POINT('',(18.741316769898,15.886703188389,
    42.348704357317));
#762 = CARTESIAN_POINT('',(19.043903077252,16.084451643424,
    42.368982780058));
#763 = CARTESIAN_POINT('',(19.810017358339,16.534201025272,
    42.41679627646));
#764 = CARTESIAN_POINT('',(20.283698917536,16.76936569187,
    42.443385250616));
#765 = CARTESIAN_POINT('',(20.774619307323,16.968626707316,
    42.467860741321));
#766 = CARTESIAN_POINT('',(21.28036551488,17.128103627194,
    42.489901408972));
#767 = CARTESIAN_POINT('',(21.797672582813,17.244524561163,
    42.509209574075));
#768 = CARTESIAN_POINT('',(22.322287471731,17.315698662828,
    42.525541001882));
#769 = CARTESIAN_POINT('',(22.848708162883,17.341485179772,
    42.538766386918));
#770 = PCURVE('',#82,#771);
#771 = DEFINITIONAL_REPRESENTATION('',(#772),#931);
#772 = B_SPLINE_CURVE_WITH_KNOTS('',7,(#773,#774,#775,#776,#777,#778,
    #779,#780,#781,#782,#783,#784,#785,#786,#787,#788,#789,#790,#791,
    #792,#793,#794,#795,#796,#797,#798,#799,#800,#801,#802,#803,#804,
    #805,#806,#807,#808,#809,#810,#811,#812,#813,#814,#815,#816,#817,
    #818,#819,#820,#821,#822,#823,#824,#825,#826,#827,#828,#829,#830,
    #831,#832,#833,#834,#835,#836,#837,#838,#839,#840,#841,#842,#843,
    #844,#845,#846,#847,#848,#849,#850,#851,#852,#853,#854,#855,#856,
    #857,#858,#859,#860,#861,#862,#863,#864,#865,#866,#867,#868,#869,
    #870,#871,#872,#873,#874,#875,#876,#877,#878,#879,#880,#881,#882,
    #883,#884,#885,#886,#887,#888,#889,#890,#891,#892,#893,#894,#895,
    #896,#897,#898,#899,#900,#901,#902,#903,#904,#905,#906,#907,#908,
    #909,#910,#911,#912,#913,#914,#915,#916,#917,#918,#919,#920,#921,
    #922,#923,#924,#925,#926,#927,#928,#929,#930),.UNSPECIFIED.,.F.,.F.,
  (8,6,6,6,6,6,6,6,6,6,6,6,6,6,6,6,6,6,6,6,6,6,6,6,6,6,8),(0.,
    4.01049318765E-02,6.756258204255E-02,0.106638257613,0.140263247705,
    0.168195863742,0.249995962794,0.331796061846,0.359728677883,
    0.393353667974,0.432429343545,0.459886993711,0.473602027305,
    0.499998573139,0.517751531533,0.540111306246,0.567569057914,
    0.606644877934,0.640269992325,0.668202711619,0.750003113058,
    0.831803514497,0.859736233791,0.893361348183,0.932437168203,
    0.95989491987,1.),.UNSPECIFIED.);
#773 = CARTESIAN_POINT('',(5.329070518201E-15,16.708236040638));
#774 = CARTESIAN_POINT('',(0.527051884095,16.708236062658));
#775 = CARTESIAN_POINT('',(1.054520761413,16.662814505147));
#776 = CARTESIAN_POINT('',(1.576904315925,16.571842760278));
#777 = CARTESIAN_POINT('',(2.089847412322,16.437300966377));
#778 = CARTESIAN_POINT('',(2.589928922792,16.262297354252));
#779 = CARTESIAN_POINT('',(3.074548869721,16.050589661939));
#780 = CARTESIAN_POINT('',(3.8617500941,15.638861802192));
#781 = CARTESIAN_POINT('',(4.173649066326,15.456154506245));
#782 = CARTESIAN_POINT('',(4.47704952899,15.259266712667));
#783 = CARTESIAN_POINT('',(4.771657158819,15.049392017622));
#784 = CARTESIAN_POINT('',(5.057321808299,14.827663561561));
#785 = CARTESIAN_POINT('',(5.334009460017,14.595113882111));
#786 = CARTESIAN_POINT('',(5.982860667234,14.007591569665));
#787 = CARTESIAN_POINT('',(6.345797173447,13.642534803433));
#788 = CARTESIAN_POINT('',(6.690837772442,13.260059801996));
#789 = CARTESIAN_POINT('',(7.01835484801,12.862442209707));
#790 = CARTESIAN_POINT('',(7.328822945068,12.451631706139));
#791 = CARTESIAN_POINT('',(7.622792776125,12.029231145087));
#792 = CARTESIAN_POINT('',(8.140149003335,11.224084917341));
#793 = CARTESIAN_POINT('',(8.367620888935,10.844089666841));
#794 = CARTESIAN_POINT('',(8.583639389174,10.457321286233));
#795 = CARTESIAN_POINT('',(8.788537237288,10.064514319355));
#796 = CARTESIAN_POINT('',(8.982625709592,9.666308965523));
#797 = CARTESIAN_POINT('',(9.16619893996,9.263253535331));
#798 = CARTESIAN_POINT('',(9.483532807524,8.517336562565));
#799 = CARTESIAN_POINT('',(9.620459207616,8.175848724666));
#800 = CARTESIAN_POINT('',(9.750474372485,7.831614172722));
#801 = CARTESIAN_POINT('',(9.873721132213,7.48487999642));
#802 = CARTESIAN_POINT('',(9.99032985579,7.135870214395));
#803 = CARTESIAN_POINT('',(10.100420097853,6.784786393451));
#804 = CARTESIAN_POINT('',(10.507733099001,5.398118592108));
#805 = CARTESIAN_POINT('',(10.756317553676,4.348490929803));
#806 = CARTESIAN_POINT('',(10.952787882545,3.287042370877));
#807 = CARTESIAN_POINT('',(11.098899915171,2.217337736041));
#808 = CARTESIAN_POINT('',(11.195876739396,1.142496517026));
#809 = CARTESIAN_POINT('',(11.244382635138,6.519164037456E-02));
#810 = CARTESIAN_POINT('',(11.244382635144,-2.089915874929));
#811 = CARTESIAN_POINT('',(11.195876739374,-3.167220751575));
#812 = CARTESIAN_POINT('',(11.098899915211,-4.242061970601));
#813 = CARTESIAN_POINT('',(10.952787882506,-5.311766605423));
#814 = CARTESIAN_POINT('',(10.756317553698,-6.373215164361));
#815 = CARTESIAN_POINT('',(10.507733098997,-7.42284282666));
#816 = CARTESIAN_POINT('',(10.100420097854,-8.809510628004));
#817 = CARTESIAN_POINT('',(9.990329855791,-9.160594448948));
#818 = CARTESIAN_POINT('',(9.873721132214,-9.509604230974));
#819 = CARTESIAN_POINT('',(9.750474372486,-9.856338407276));
#820 = CARTESIAN_POINT('',(9.620459207617,-10.20057295922));
#821 = CARTESIAN_POINT('',(9.483532807525,-10.54206079711));
#822 = CARTESIAN_POINT('',(9.166198939961,-11.28797776988));
#823 = CARTESIAN_POINT('',(8.982625709593,-11.69103320007));
#824 = CARTESIAN_POINT('',(8.788537237289,-12.0892385539));
#825 = CARTESIAN_POINT('',(8.583639389176,-12.48204552078));
#826 = CARTESIAN_POINT('',(8.367620888937,-12.86881390139));
#827 = CARTESIAN_POINT('',(8.140149003336,-13.24880915189));
#828 = CARTESIAN_POINT('',(7.622792776127,-14.05395537964));
#829 = CARTESIAN_POINT('',(7.328822945069,-14.47635594069));
#830 = CARTESIAN_POINT('',(7.018354848011,-14.88716644426));
#831 = CARTESIAN_POINT('',(6.690837772444,-15.28478403655));
#832 = CARTESIAN_POINT('',(6.345797173449,-15.66725903798));
#833 = CARTESIAN_POINT('',(5.982860667236,-16.03231580421));
#834 = CARTESIAN_POINT('',(5.33400946002,-16.61983811666));
#835 = CARTESIAN_POINT('',(5.0573218083,-16.85238779611));
#836 = CARTESIAN_POINT('',(4.771657158821,-17.07411625217));
#837 = CARTESIAN_POINT('',(4.477049528992,-17.28399094722));
#838 = CARTESIAN_POINT('',(4.173649066327,-17.4808787408));
#839 = CARTESIAN_POINT('',(3.861750094102,-17.66358603674));
#840 = CARTESIAN_POINT('',(3.382029135794,-17.9144932568));
#841 = CARTESIAN_POINT('',(3.220230538679,-17.99423430296));
#842 = CARTESIAN_POINT('',(3.056495575151,-18.06998627012));
#843 = CARTESIAN_POINT('',(2.890898753101,-18.14159831925));
#844 = CARTESIAN_POINT('',(2.723527901174,-18.20892192234));
#845 = CARTESIAN_POINT('',(2.554485347454,-18.27181362807));
#846 = CARTESIAN_POINT('',(2.055552191224,-18.44239111045));
#847 = CARTESIAN_POINT('',(1.721405923013,-18.53774414747));
#848 = CARTESIAN_POINT('',(1.382366037099,-18.61519448227));
#849 = CARTESIAN_POINT('',(1.039470009206,-18.67391254547));
#850 = CARTESIAN_POINT('',(0.693883435323,-18.71328196132));
#851 = CARTESIAN_POINT('',(0.346909282173,-18.73296029993));
#852 = CARTESIAN_POINT('',(-0.23331331509,-18.7329603261));
#853 = CARTESIAN_POINT('',(-0.466636477755,-18.7240592746));
#854 = CARTESIAN_POINT('',(-0.699546399476,-18.70625635644));
#855 = CARTESIAN_POINT('',(-0.931640952293,-18.6796183269));
#856 = CARTESIAN_POINT('',(-1.162538342085,-18.6442732201));
#857 = CARTESIAN_POINT('',(-1.391876481831,-18.6004041084));
#858 = CARTESIAN_POINT('',(-1.905766699802,-18.48254645003));
#859 = CARTESIAN_POINT('',(-2.1892282882,-18.40368910501));
#860 = CARTESIAN_POINT('',(-2.469020045174,-18.31213310241));
#861 = CARTESIAN_POINT('',(-2.74458322737,-18.20843953098));
#862 = CARTESIAN_POINT('',(-3.015465051352,-18.09323434147));
#863 = CARTESIAN_POINT('',(-3.281306311959,-17.96717439575));
#864 = CARTESIAN_POINT('',(-3.861750094099,-17.66358603674));
#865 = CARTESIAN_POINT('',(-4.173649066325,-17.4808787408));
#866 = CARTESIAN_POINT('',(-4.477049528989,-17.28399094722));
#867 = CARTESIAN_POINT('',(-4.771657158818,-17.07411625218));
#868 = CARTESIAN_POINT('',(-5.057321808297,-16.85238779611));
#869 = CARTESIAN_POINT('',(-5.334009460017,-16.61983811666));
#870 = CARTESIAN_POINT('',(-5.982860667233,-16.03231580422));
#871 = CARTESIAN_POINT('',(-6.345797173446,-15.66725903799));
#872 = CARTESIAN_POINT('',(-6.690837772441,-15.28478403655));
#873 = CARTESIAN_POINT('',(-7.018354848009,-14.88716644426));
#874 = CARTESIAN_POINT('',(-7.328822945067,-14.47635594069));
#875 = CARTESIAN_POINT('',(-7.622792776124,-14.05395537964));
#876 = CARTESIAN_POINT('',(-8.140149003334,-13.24880915189));
#877 = CARTESIAN_POINT('',(-8.367620888934,-12.86881390139));
#878 = CARTESIAN_POINT('',(-8.583639389174,-12.48204552079));
#879 = CARTESIAN_POINT('',(-8.788537237287,-12.08923855391));
#880 = CARTESIAN_POINT('',(-8.982625709591,-11.69103320008));
#881 = CARTESIAN_POINT('',(-9.16619893996,-11.28797776988));
#882 = CARTESIAN_POINT('',(-9.483532807524,-10.54206079712));
#883 = CARTESIAN_POINT('',(-9.620459207616,-10.20057295922));
#884 = CARTESIAN_POINT('',(-9.750474372485,-9.85633840728));
#885 = CARTESIAN_POINT('',(-9.873721132213,-9.509604230978));
#886 = CARTESIAN_POINT('',(-9.990329855789,-9.160594448952));
#887 = CARTESIAN_POINT('',(-10.10042009785,-8.809510628008));
#888 = CARTESIAN_POINT('',(-10.50773309899,-7.422842826663));
#889 = CARTESIAN_POINT('',(-10.75631755369,-6.373215164369));
#890 = CARTESIAN_POINT('',(-10.95278788251,-5.31176660542));
#891 = CARTESIAN_POINT('',(-11.0988999152,-4.242061970612));
#892 = CARTESIAN_POINT('',(-11.19587673937,-3.167220751576));
#893 = CARTESIAN_POINT('',(-11.24438263514,-2.089915874933));
#894 = CARTESIAN_POINT('',(-11.24438263514,6.519164037555E-02));
#895 = CARTESIAN_POINT('',(-11.19587673938,1.142496517003));
#896 = CARTESIAN_POINT('',(-11.0988999152,2.217337736075));
#897 = CARTESIAN_POINT('',(-10.95278788251,3.287042370835));
#898 = CARTESIAN_POINT('',(-10.75631755369,4.348490929823));
#899 = CARTESIAN_POINT('',(-10.50773309899,5.398118592099));
#900 = CARTESIAN_POINT('',(-10.10042009785,6.784786393448));
#901 = CARTESIAN_POINT('',(-9.990329855791,7.135870214392));
#902 = CARTESIAN_POINT('',(-9.873721132214,7.484879996418));
#903 = CARTESIAN_POINT('',(-9.750474372486,7.83161417272));
#904 = CARTESIAN_POINT('',(-9.620459207617,8.175848724664));
#905 = CARTESIAN_POINT('',(-9.483532807525,8.517336562562));
#906 = CARTESIAN_POINT('',(-9.166198939961,9.263253535329));
#907 = CARTESIAN_POINT('',(-8.982625709593,9.66630896552));
#908 = CARTESIAN_POINT('',(-8.788537237289,10.064514319352));
#909 = CARTESIAN_POINT('',(-8.583639389175,10.457321286231));
#910 = CARTESIAN_POINT('',(-8.367620888936,10.844089666839));
#911 = CARTESIAN_POINT('',(-8.140149003336,11.224084917338));
#912 = CARTESIAN_POINT('',(-7.622792776126,12.029231145085));
#913 = CARTESIAN_POINT('',(-7.328822945069,12.451631706137));
#914 = CARTESIAN_POINT('',(-7.018354848011,12.862442209705));
#915 = CARTESIAN_POINT('',(-6.690837772443,13.260059801995));
#916 = CARTESIAN_POINT('',(-6.345797173449,13.642534803431));
#917 = CARTESIAN_POINT('',(-5.982860667236,14.007591569663));
#918 = CARTESIAN_POINT('',(-5.334009460019,14.595113882109));
#919 = CARTESIAN_POINT('',(-5.0573218083,14.827663561562));
#920 = CARTESIAN_POINT('',(-4.771657158821,15.04939201762));
#921 = CARTESIAN_POINT('',(-4.477049528992,15.259266712665));
#922 = CARTESIAN_POINT('',(-4.173649066327,15.456154506247));
#923 = CARTESIAN_POINT('',(-3.861750094101,15.63886180219));
#924 = CARTESIAN_POINT('',(-3.074548869723,16.050589661942));
#925 = CARTESIAN_POINT('',(-2.589928922794,16.26229735424));
#926 = CARTESIAN_POINT('',(-2.089847412321,16.437300966399));
#927 = CARTESIAN_POINT('',(-1.576904315928,16.571842760255));
#928 = CARTESIAN_POINT('',(-1.054520761412,16.66281450516));
#929 = CARTESIAN_POINT('',(-0.527051884096,16.708236062654));
#930 = CARTESIAN_POINT('',(1.7763568394E-15,16.708236040638));
#931 = ( GEOMETRIC_REPRESENTATION_CONTEXT(2) 
PARAMETRIC_REPRESENTATION_CONTEXT() REPRESENTATION_CONTEXT('2D SPACE',''
  ) );
#932 = PCURVE('',#469,#933);
#933 = DEFINITIONAL_REPRESENTATION('',(#934),#1048);
#934 = B_SPLINE_CURVE_WITH_KNOTS('',8,(#935,#936,#937,#938,#939,#940,
    #941,#942,#943,#944,#945,#946,#947,#948,#949,#950,#951,#952,#953,
    #954,#955,#956,#957,#958,#959,#960,#961,#962,#963,#964,#965,#966,
    #967,#968,#969,#970,#971,#972,#973,#974,#975,#976,#977,#978,#979,
    #980,#981,#982,#983,#984,#985,#986,#987,#988,#989,#990,#991,#992,
    #993,#994,#995,#996,#997,#998,#999,#1000,#1001,#1002,#1003,#1004,
    #1005,#1006,#1007,#1008,#1009,#1010,#1011,#1012,#1013,#1014,#1015,
    #1016,#1017,#1018,#1019,#1020,#1021,#1022,#1023,#1024,#1025,#1026,
    #1027,#1028,#1029,#1030,#1031,#1032,#1033,#1034,#1035,#1036,#1037,
    #1038,#1039,#1040,#1041,#1042,#1043,#1044,#1045,#1046,#1047),
  .UNSPECIFIED.,.F.,.F.,(9,8,8,8,8,8,8,8,8,8,8,8,8,8,9),(0.,6.25E-02,
    0.1796875,0.2822265625,0.327087402344,0.348115921021,0.429601430893,
    0.500901252031,0.625675939023,0.649071192835,0.654554455446,
    0.827277227723,0.913638613862,0.956819306931,1.),.UNSPECIFIED.);
#935 = CARTESIAN_POINT('',(6.28318530718,-6.02870704499));
#936 = CARTESIAN_POINT('',(6.205899709559,-6.028707044993));
#937 = CARTESIAN_POINT('',(6.13177842923,-6.028707045017));
#938 = CARTESIAN_POINT('',(6.06133927024,-6.028707044932));
#939 = CARTESIAN_POINT('',(5.994365547442,-6.028707044912));
#940 = CARTESIAN_POINT('',(5.930903236147,-6.028707044972));
#941 = CARTESIAN_POINT('',(5.870854928541,-6.028707045007));
#942 = CARTESIAN_POINT('',(5.813586567056,-6.028707044997));
#943 = CARTESIAN_POINT('',(5.758962924897,-6.02870704499));
#944 = CARTESIAN_POINT('',(5.65652492501,-6.028707044991));
#945 = CARTESIAN_POINT('',(5.563274597609,-6.028707044988));
#946 = CARTESIAN_POINT('',(5.476939182416,-6.028707044994));
#947 = CARTESIAN_POINT('',(5.395658652792,-6.028707044998));
#948 = CARTESIAN_POINT('',(5.318003987101,-6.028707044995));
#949 = CARTESIAN_POINT('',(5.242916887424,-6.028707044989));
#950 = CARTESIAN_POINT('',(5.169570945637,-6.028707044991));
#951 = CARTESIAN_POINT('',(5.097154256844,-6.02870704499));
#952 = CARTESIAN_POINT('',(5.033792068865,-6.02870704499));
#953 = CARTESIAN_POINT('',(4.971139348664,-6.02870704499));
#954 = CARTESIAN_POINT('',(4.908674261537,-6.02870704499));
#955 = CARTESIAN_POINT('',(4.845927668113,-6.02870704499));
#956 = CARTESIAN_POINT('',(4.782443060123,-6.02870704499));
#957 = CARTESIAN_POINT('',(4.717736496186,-6.02870704499));
#958 = CARTESIAN_POINT('',(4.65125653758,-6.02870704499));
#959 = CARTESIAN_POINT('',(4.582344184022,-6.02870704499));
#960 = CARTESIAN_POINT('',(4.552195007215,-6.02870704499));
#961 = CARTESIAN_POINT('',(4.521575576802,-6.02870704499));
#962 = CARTESIAN_POINT('',(4.490434279615,-6.02870704499));
#963 = CARTESIAN_POINT('',(4.458711295005,-6.02870704499));
#964 = CARTESIAN_POINT('',(4.42633859484,-6.02870704499));
#965 = CARTESIAN_POINT('',(4.393239943509,-6.02870704499));
#966 = CARTESIAN_POINT('',(4.359330897919,-6.02870704499));
#967 = CARTESIAN_POINT('',(4.324518807495,-6.02870704499));
#968 = CARTESIAN_POINT('',(4.308198702098,-6.02870704499));
#969 = CARTESIAN_POINT('',(4.291681307483,-6.02870704499));
#970 = CARTESIAN_POINT('',(4.274955314788,-6.02870704499));
#971 = CARTESIAN_POINT('',(4.25800941515,-6.02870704499));
#972 = CARTESIAN_POINT('',(4.240832299708,-6.02870704499));
#973 = CARTESIAN_POINT('',(4.223412659597,-6.02870704499));
#974 = CARTESIAN_POINT('',(4.205739185958,-6.02870704499));
#975 = CARTESIAN_POINT('',(4.187800569926,-6.02870704499));
#976 = CARTESIAN_POINT('',(4.118345788959,-6.02870704499));
#977 = CARTESIAN_POINT('',(4.050136981365,-6.02870704499));
#978 = CARTESIAN_POINT('',(3.982766090655,-6.02870704499));
#979 = CARTESIAN_POINT('',(3.915833104749,-6.02870704499));
#980 = CARTESIAN_POINT('',(3.848946055976,-6.02870704499));
#981 = CARTESIAN_POINT('',(3.781721021069,-6.02870704499));
#982 = CARTESIAN_POINT('',(3.713782121172,-6.02870704499));
#983 = CARTESIAN_POINT('',(3.644761521832,-6.02870704499));
#984 = CARTESIAN_POINT('',(3.584374809947,-6.028707044993));
#985 = CARTESIAN_POINT('',(3.523158242839,-6.028707044984));
#986 = CARTESIAN_POINT('',(3.460956927803,-6.028707044993));
#987 = CARTESIAN_POINT('',(3.397545687701,-6.028707045001));
#988 = CARTESIAN_POINT('',(3.332880528914,-6.028707044992));
#989 = CARTESIAN_POINT('',(3.267206352946,-6.028707044982));
#990 = CARTESIAN_POINT('',(3.20102091169,-6.028707044993));
#991 = CARTESIAN_POINT('',(3.134895006359,-6.02870704499));
#992 = CARTESIAN_POINT('',(3.019172087671,-6.028707044981));
#993 = CARTESIAN_POINT('',(2.903567628142,-6.02870704481));
#994 = CARTESIAN_POINT('',(2.790848226912,-6.028707043937));
#995 = CARTESIAN_POINT('',(2.684014423983,-6.028707042977));
#996 = CARTESIAN_POINT('',(2.579424919997,-6.028707043966));
#997 = CARTESIAN_POINT('',(2.476959747612,-6.028707045101));
#998 = CARTESIAN_POINT('',(2.374628547477,-6.02870704501));
#999 = CARTESIAN_POINT('',(2.271230819192,-6.02870704499));
#1000 = CARTESIAN_POINT('',(2.251842965697,-6.02870704499));
#1001 = CARTESIAN_POINT('',(2.232416505044,-6.02870704499));
#1002 = CARTESIAN_POINT('',(2.212941951887,-6.02870704499));
#1003 = CARTESIAN_POINT('',(2.193409820884,-6.02870704499));
#1004 = CARTESIAN_POINT('',(2.173810626689,-6.02870704499));
#1005 = CARTESIAN_POINT('',(2.154134883958,-6.02870704499));
#1006 = CARTESIAN_POINT('',(2.134373107346,-6.02870704499));
#1007 = CARTESIAN_POINT('',(2.114515811509,-6.02870704499));
#1008 = CARTESIAN_POINT('',(2.109858044735,-6.02870704499));
#1009 = CARTESIAN_POINT('',(2.105209659719,-6.02870704499));
#1010 = CARTESIAN_POINT('',(2.100541966675,-6.02870704499));
#1011 = CARTESIAN_POINT('',(2.095857567192,-6.02870704499));
#1012 = CARTESIAN_POINT('',(2.091175531155,-6.02870704499));
#1013 = CARTESIAN_POINT('',(2.086516573681,-6.02870704499));
#1014 = CARTESIAN_POINT('',(2.081888232045,-6.02870704499));
#1015 = CARTESIAN_POINT('',(2.077270042607,-6.02870704499));
#1016 = CARTESIAN_POINT('',(1.931826620726,-6.028707044992));
#1017 = CARTESIAN_POINT('',(1.803804516075,-6.028707045019));
#1018 = CARTESIAN_POINT('',(1.686035311956,-6.028707044929));
#1019 = CARTESIAN_POINT('',(1.575083324954,-6.028707044916));
#1020 = CARTESIAN_POINT('',(1.468376669719,-6.028707044978));
#1021 = CARTESIAN_POINT('',(1.363630381362,-6.028707045002));
#1022 = CARTESIAN_POINT('',(1.258886472532,-6.028707044997));
#1023 = CARTESIAN_POINT('',(1.151495802218,-6.02870704499));
#1024 = CARTESIAN_POINT('',(1.097796857455,-6.02870704499));
#1025 = CARTESIAN_POINT('',(1.043436850428,-6.02870704499));
#1026 = CARTESIAN_POINT('',(0.988089187086,-6.02870704499));
#1027 = CARTESIAN_POINT('',(0.931397137052,-6.02870704499));
#1028 = CARTESIAN_POINT('',(0.872946143582,-6.02870704499));
#1029 = CARTESIAN_POINT('',(0.812236133514,-6.02870704499));
#1030 = CARTESIAN_POINT('',(0.748653827229,-6.02870704499));
#1031 = CARTESIAN_POINT('',(0.681445048596,-6.02870704499));
#1032 = CARTESIAN_POINT('',(0.647838201446,-6.02870704499));
#1033 = CARTESIAN_POINT('',(0.613332755899,-6.02870704499));
#1034 = CARTESIAN_POINT('',(0.577825624992,-6.02870704499));
#1035 = CARTESIAN_POINT('',(0.541213721759,-6.02870704499));
#1036 = CARTESIAN_POINT('',(0.503393959233,-6.02870704499));
#1037 = CARTESIAN_POINT('',(0.464263250451,-6.02870704499));
#1038 = CARTESIAN_POINT('',(0.423718508446,-6.02870704499));
#1039 = CARTESIAN_POINT('',(0.381656646253,-6.02870704499));
#1040 = CARTESIAN_POINT('',(0.339604509529,-6.02870704499));
#1041 = CARTESIAN_POINT('',(0.296018404622,-6.02870704499));
#1042 = CARTESIAN_POINT('',(0.250840693662,-6.02870704499));
#1043 = CARTESIAN_POINT('',(0.204012179891,-6.02870704499));
#1044 = CARTESIAN_POINT('',(0.155490829082,-6.02870704499));
#1045 = CARTESIAN_POINT('',(0.105270490961,-6.02870704499));
#1046 = CARTESIAN_POINT('',(5.33996206334E-02,-6.02870704499));
#1047 = CARTESIAN_POINT('',(0.,-6.02870704499));
#1048 = ( GEOMETRIC_REPRESENTATION_CONTEXT(2) 
PARAMETRIC_REPRESENTATION_CONTEXT() REPRESENTATION_CONTEXT('2D SPACE',''
  ) );
#1049 = ADVANCED_FACE('',(#1050),#469,.T.);
#1050 = FACE_BOUND('',#1051,.T.);
#1051 = EDGE_LOOP('',(#1052,#1053,#1073,#1074));
#1052 = ORIENTED_EDGE('',*,*,#143,.T.);
#1053 = ORIENTED_EDGE('',*,*,#1054,.T.);
#1054 = EDGE_CURVE('',#144,#608,#1055,.T.);
#1055 = SEAM_CURVE('',#1056,(#1059,#1066),.PCURVE_S1.);
#1056 = B_SPLINE_CURVE_WITH_KNOTS('',1,(#1057,#1058),.UNSPECIFIED.,.F.,
  .F.,(2,2),(1.,6.02870704499),.PIECEWISE_BEZIER_KNOTS.);
#1057 = CARTESIAN_POINT('',(22.848708162883,17.341485179772,
    37.510059341928));
#1058 = CARTESIAN_POINT('',(22.848708162883,17.341485179772,
    42.538766386918));
#1059 = PCURVE('',#469,#1060);
#1060 = DEFINITIONAL_REPRESENTATION('',(#1061),#1065);
#1061 = B_SPLINE_CURVE_WITH_KNOTS('',2,(#1062,#1063,#1064),
  .UNSPECIFIED.,.F.,.F.,(3,3),(1.,6.02870704499),
  .PIECEWISE_BEZIER_KNOTS.);
#1062 = CARTESIAN_POINT('',(6.28318530718,-1.));
#1063 = CARTESIAN_POINT('',(6.28318530718,-3.514353522495));
#1064 = CARTESIAN_POINT('',(6.28318530718,-6.02870704499));
#1065 = ( GEOMETRIC_REPRESENTATION_CONTEXT(2) 
PARAMETRIC_REPRESENTATION_CONTEXT() REPRESENTATION_CONTEXT('2D SPACE',''
  ) );
#1066 = PCURVE('',#469,#1067);
#1067 = DEFINITIONAL_REPRESENTATION('',(#1068),#1072);
#1068 = B_SPLINE_CURVE_WITH_KNOTS('',2,(#1069,#1070,#1071),
  .UNSPECIFIED.,.F.,.F.,(3,3),(1.,6.02870704499),
  .PIECEWISE_BEZIER_KNOTS.);
#1069 = CARTESIAN_POINT('',(0.,-1.));
#1070 = CARTESIAN_POINT('',(8.881784197001E-16,-3.514353522495));
#1071 = CARTESIAN_POINT('',(0.,-6.02870704499));
#1072 = ( GEOMETRIC_REPRESENTATION_CONTEXT(2) 
PARAMETRIC_REPRESENTATION_CONTEXT() REPRESENTATION_CONTEXT('2D SPACE',''
  ) );
#1073 = ORIENTED_EDGE('',*,*,#607,.F.);
#1074 = ORIENTED_EDGE('',*,*,#1054,.F.);
#1075 = ( GEOMETRIC_REPRESENTATION_CONTEXT(3) 
GLOBAL_UNCERTAINTY_ASSIGNED_CONTEXT((#1079)) 
GLOBAL_UNIT_ASSIGNED_CONTEXT((#1076,#1077,#1078)) REPRESENTATION_CONTEXT
('Context #1','3D Context with UNIT and UNCERTAINTY') );
#1076 = ( LENGTH_UNIT() NAMED_UNIT(*) SI_UNIT(.MILLI.,.METRE.) );
#1077 = ( NAMED_UNIT(*) PLANE_ANGLE_UNIT() SI_UNIT($,.RADIAN.) );
#1078 = ( NAMED_UNIT(*) SI_UNIT($,.STERADIAN.) SOLID_ANGLE_UNIT() );
#1079 = UNCERTAINTY_MEASURE_WITH_UNIT(LENGTH_MEASURE(1.E-05),#1076,
  'distance_accuracy_value','confusion accuracy');
#1080 = PRODUCT_RELATED_PRODUCT_CATEGORY('part',$,(#7));
ENDSEC;
END-ISO-10303-21;
