ISO-10303-21;
HEADER;
FILE_DESCRIPTION(('Open CASCADE Model'),'2;1');
FILE_NAME('Open CASCADE Shape Model','2026-10-04T12:49:56',('Author'),(
    'Open CASCADE'),'Open CASCADE STEP processor 7.9','Open CASCADE 7.9'
  ,'Unknown');
FILE_SCHEMA(('AUTOMOTIVE_DESIGN { 1 0 10303 214 1 1 1 1 }'));
ENDSEC;
DATA;
#1 = APPLICATION_PROTOCOL_DEFINITION('international standard',
  'automotive_design',2000,#2);
#2 = APPLICATION_CONTEXT(
  'core data for automotive mechanical design processes');
#3 = SHAPE_DEFINITION_REPRESENTATION(#4,#10);
#4 = PRODUCT_DEFINITION_SHAPE('','',#5);
#5 = PRODUCT_DEFINITION('design','',#6,#9);
#6 = PRODUCT_DEFINITION_FORMATION('','',#7);
#7 = PRODUCT('Open CASCADE STEP translator 7.9 3',
  'Open CASCADE STEP translator 7.9 3','',(#8));
#8 = PRODUCT_CONTEXT('',#2,'mechanical');
#9 = PRODUCT_DEFINITION_CONTEXT('part definition',#2,'design');
#10 = ADVANCED_BREP_SHAPE_REPRESENTATION('',(#11,#15),#1099);
#11 = AXIS2_PLACEMENT_3D('',#12,#13,#14);
#12 = CARTESIAN_POINT('',(0.,0.,0.));
#13 = DIRECTION('',(0.,0.,1.));
#14 = DIRECTION('',(1.,0.,-0.));
#15 = MANIFOLD_SOLID_BREP('',#16);
#16 = CLOSED_SHELL('',(#17,#136,#612,#1073));
#17 = ADVANCED_FACE('',(#18),#31,.F.);
#18 = FACE_BOUND('',#19,.F.);
#19 = EDGE_LOOP('',(#20,#59,#97,#98));
#20 = ORIENTED_EDGE('',*,*,#21,.T.);
#21 = EDGE_CURVE('',#22,#24,#26,.T.);
#22 = VERTEX_POINT('',#23);
#23 = CARTESIAN_POINT('',(-28.08349853925,19.152438698242,
    37.506525608041));
#24 = VERTEX_POINT('',#25);
#25 = CARTESIAN_POINT('',(-28.08349853925,19.152438698242,
    41.637260048738));
#26 = SEAM_CURVE('',#27,(#30,#52),.PCURVE_S1.);
#27 = B_SPLINE_CURVE_WITH_KNOTS('',1,(#28,#29),.UNSPECIFIED.,.F.,.F.,(2,
    2),(0.,4.130734440697),.PIECEWISE_BEZIER_KNOTS.);
#28 = CARTESIAN_POINT('',(-28.08349853925,19.152438698242,
    37.506525608041));
#29 = CARTESIAN_POINT('',(-28.08349853925,19.152438698242,
    41.637260048738));
#30 = PCURVE('',#31,#46);
#31 = ( BOUNDED_SURFACE() B_SPLINE_SURFACE(2,1,(
    (#32,#33)
    ,(#34,#35)
    ,(#36,#37)
    ,(#38,#39)
    ,(#40,#41)
    ,(#42,#43)
,(#44,#45
    )),.UNSPECIFIED.,.T.,.F.,.F.) B_SPLINE_SURFACE_WITH_KNOTS((3,2,2,3),
  (2,2),(0.,2.094395102393,4.188790204786,6.28318530718),(
    -4.130734440697,0.),.PIECEWISE_BEZIER_KNOTS.) 
GEOMETRIC_REPRESENTATION_ITEM() RATIONAL_B_SPLINE_SURFACE((
    (1.,1.)
    ,(0.5,0.5)
    ,(1.,1.)
    ,(0.5,0.5)
    ,(1.,1.)
    ,(0.5,0.5)
,(1.,1.))) REPRESENTATION_ITEM('') SURFACE() );
#32 = CARTESIAN_POINT('',(-28.08349853925,19.152438698242,
    41.637260048738));
#33 = CARTESIAN_POINT('',(-28.08349853925,19.152438698242,
    37.506525608041));
#34 = CARTESIAN_POINT('',(-48.43937696997,18.256395179181,
    43.214469686443));
#35 = CARTESIAN_POINT('',(-48.43937696997,18.256395179181,
    39.083735245746));
#36 = CARTESIAN_POINT('',(-36.99710957364,-10.01797232131,
    41.281724467161));
#37 = CARTESIAN_POINT('',(-36.99710957364,-10.01797232131,
    37.150990026464));
#38 = CARTESIAN_POINT('',(-25.5548421773,-38.2923398218,39.348979247879)
  );
#39 = CARTESIAN_POINT('',(-25.5548421773,-38.2923398218,35.218244807182)
  );
#40 = CARTESIAN_POINT('',(-16.64123114291,-9.121928802249,
    39.704514829456));
#41 = CARTESIAN_POINT('',(-16.64123114291,-9.121928802249,
    35.573780388759));
#42 = CARTESIAN_POINT('',(-7.727620108527,20.048482217303,
    40.060050411033));
#43 = CARTESIAN_POINT('',(-7.727620108527,20.048482217303,
    35.929315970336));
#44 = CARTESIAN_POINT('',(-28.08349853925,19.152438698242,
    41.637260048738));
#45 = CARTESIAN_POINT('',(-28.08349853925,19.152438698242,
    37.506525608041));
#46 = DEFINITIONAL_REPRESENTATION('',(#47),#51);
#47 = B_SPLINE_CURVE_WITH_KNOTS('',2,(#48,#49,#50),.UNSPECIFIED.,.F.,.F.
  ,(3,3),(0.,4.130734440697),.PIECEWISE_BEZIER_KNOTS.);
#48 = CARTESIAN_POINT('',(0.,0.));
#49 = CARTESIAN_POINT('',(0.,-2.065367220348));
#50 = CARTESIAN_POINT('',(0.,-4.130734440697));
#51 = ( GEOMETRIC_REPRESENTATION_CONTEXT(2) 
PARAMETRIC_REPRESENTATION_CONTEXT() REPRESENTATION_CONTEXT('2D SPACE',''
  ) );
#52 = PCURVE('',#31,#53);
#53 = DEFINITIONAL_REPRESENTATION('',(#54),#58);
#54 = B_SPLINE_CURVE_WITH_KNOTS('',2,(#55,#56,#57),.UNSPECIFIED.,.F.,.F.
  ,(3,3),(0.,4.130734440697),.PIECEWISE_BEZIER_KNOTS.);
#55 = CARTESIAN_POINT('',(6.28318530718,0.));
#56 = CARTESIAN_POINT('',(6.28318530718,-2.065367220348));
#57 = CARTESIAN_POINT('',(6.28318530718,-4.130734440697));
#58 = ( GEOMETRIC_REPRESENTATION_CONTEXT(2) 
PARAMETRIC_REPRESENTATION_CONTEXT() REPRESENTATION_CONTEXT('2D SPACE',''
  ) );
#59 = ORIENTED_EDGE('',*,*,#60,.T.);
#60 = EDGE_CURVE('',#24,#24,#61,.T.);
#61 = SURFACE_CURVE('',#62,(#70,#81),.PCURVE_S1.);
#62 = ( BOUNDED_CURVE() B_SPLINE_CURVE(2,(#63,#64,#65,#66,#67,#68,#69),
.UNSPECIFIED.,.T.,.F.) B_SPLINE_CURVE_WITH_KNOTS((1,2,2,2,2,1),(
    -2.094395102393,0.,2.094395102393,4.188790204786,6.28318530718,
8.377580409573),.UNSPECIFIED.) CURVE() GEOMETRIC_REPRESENTATION_ITEM() 
RATIONAL_B_SPLINE_CURVE((1.,0.5,1.,0.5,1.,0.5,1.)) REPRESENTATION_ITEM(
  '') );
#63 = CARTESIAN_POINT('',(-28.08349853925,19.152438698242,
    41.637260048738));
#64 = CARTESIAN_POINT('',(-48.43937696997,18.256395179181,
    43.214469686443));
#65 = CARTESIAN_POINT('',(-36.99710957364,-10.01797232131,
    41.281724467161));
#66 = CARTESIAN_POINT('',(-25.5548421773,-38.2923398218,39.348979247879)
  );
#67 = CARTESIAN_POINT('',(-16.64123114291,-9.121928802249,
    39.704514829456));
#68 = CARTESIAN_POINT('',(-7.727620108527,20.048482217303,
    40.060050411033));
#69 = CARTESIAN_POINT('',(-28.08349853925,19.152438698242,
    41.637260048738));
#70 = PCURVE('',#31,#71);
#71 = DEFINITIONAL_REPRESENTATION('',(#72),#80);
#72 = B_SPLINE_CURVE_WITH_KNOTS('',2,(#73,#74,#75,#76,#77,#78,#79),
  .UNSPECIFIED.,.F.,.F.,(3,2,2,3),(0.,2.094395102393,4.188790204786,
    6.28318530718),.PIECEWISE_BEZIER_KNOTS.);
#73 = CARTESIAN_POINT('',(0.,-4.130734440697));
#74 = CARTESIAN_POINT('',(1.047197551197,-4.130734440697));
#75 = CARTESIAN_POINT('',(2.094395102393,-4.130734440697));
#76 = CARTESIAN_POINT('',(3.14159265359,-4.130734440697));
#77 = CARTESIAN_POINT('',(4.188790204786,-4.130734440697));
#78 = CARTESIAN_POINT('',(5.235987755983,-4.130734440697));
#79 = CARTESIAN_POINT('',(6.28318530718,-4.130734440697));
#80 = ( GEOMETRIC_REPRESENTATION_CONTEXT(2) 
PARAMETRIC_REPRESENTATION_CONTEXT() REPRESENTATION_CONTEXT('2D SPACE',''
  ) );
#81 = PCURVE('',#82,#87);
#82 = B_SPLINE_SURFACE_WITH_KNOTS('',1,1,(
    (#83,#84)
    ,(#85,#86)),.UNSPECIFIED.,.F.,.F.,.F.,(2,2),(2,2),(-11.76385255311,
    11.763852553118),(-20.3592957945,17.974308159398),
  .PIECEWISE_BEZIER_KNOTS.);
#83 = CARTESIAN_POINT('',(-38.15019952286,-19.66141128205,
    41.022341923729));
#84 = CARTESIAN_POINT('',(-39.83597043082,18.635107731307,
    42.547862457635));
#85 = CARTESIAN_POINT('',(-14.64525573972,-18.62674934818,
    39.201137105934));
#86 = CARTESIAN_POINT('',(-16.33102664768,19.669769665178,40.72665763984
    ));
#87 = DEFINITIONAL_REPRESENTATION('',(#88),#96);
#88 = ( BOUNDED_CURVE() B_SPLINE_CURVE(2,(#89,#90,#91,#92,#93,#94,#95),
.UNSPECIFIED.,.T.,.F.) B_SPLINE_CURVE_WITH_KNOTS((3,2,2,3),(0.,
    2.094395102393,4.188790204786,6.28318530718),
.PIECEWISE_BEZIER_KNOTS.) CURVE() GEOMETRIC_REPRESENTATION_ITEM() 
RATIONAL_B_SPLINE_CURVE((1.,0.5,1.,0.5,1.,0.5,1.)) REPRESENTATION_ITEM(
  '') );
#89 = CARTESIAN_POINT('',(1.887679374998E-15,17.974308159398));
#90 = CARTESIAN_POINT('',(-20.37559031475,17.974308159398));
#91 = CARTESIAN_POINT('',(-10.18779515737,-10.77589480603));
#92 = CARTESIAN_POINT('',(-7.377460958939E-15,-39.52609777146));
#93 = CARTESIAN_POINT('',(10.187795157375,-10.77589480603));
#94 = CARTESIAN_POINT('',(20.37559031475,17.974308159398));
#95 = CARTESIAN_POINT('',(1.887679374998E-15,17.974308159398));
#96 = ( GEOMETRIC_REPRESENTATION_CONTEXT(2) 
PARAMETRIC_REPRESENTATION_CONTEXT() REPRESENTATION_CONTEXT('2D SPACE',''
  ) );
#97 = ORIENTED_EDGE('',*,*,#21,.F.);
#98 = ORIENTED_EDGE('',*,*,#99,.F.);
#99 = EDGE_CURVE('',#22,#22,#100,.T.);
#100 = SURFACE_CURVE('',#101,(#109,#120),.PCURVE_S1.);
#101 = ( BOUNDED_CURVE() B_SPLINE_CURVE(2,(#102,#103,#104,#105,#106,#107
,#108),.UNSPECIFIED.,.T.,.F.) B_SPLINE_CURVE_WITH_KNOTS((1,2,2,2,2,1),(
    -2.094395102393,0.,2.094395102393,4.188790204786,6.28318530718,
8.377580409573),.UNSPECIFIED.) CURVE() GEOMETRIC_REPRESENTATION_ITEM() 
RATIONAL_B_SPLINE_CURVE((1.,0.5,1.,0.5,1.,0.5,1.)) REPRESENTATION_ITEM(
  '') );
#102 = CARTESIAN_POINT('',(-28.08349853925,19.152438698242,
    37.506525608041));
#103 = CARTESIAN_POINT('',(-48.43937696997,18.256395179181,
    39.083735245746));
#104 = CARTESIAN_POINT('',(-36.99710957364,-10.01797232131,
    37.150990026464));
#105 = CARTESIAN_POINT('',(-25.5548421773,-38.2923398218,35.218244807182
    ));
#106 = CARTESIAN_POINT('',(-16.64123114291,-9.121928802249,
    35.573780388759));
#107 = CARTESIAN_POINT('',(-7.727620108527,20.048482217303,
    35.929315970336));
#108 = CARTESIAN_POINT('',(-28.08349853925,19.152438698242,
    37.506525608041));
#109 = PCURVE('',#31,#110);
#110 = DEFINITIONAL_REPRESENTATION('',(#111),#119);
#111 = B_SPLINE_CURVE_WITH_KNOTS('',2,(#112,#113,#114,#115,#116,#117,
    #118),.UNSPECIFIED.,.F.,.F.,(3,2,2,3),(0.,2.094395102393,
    4.188790204786,6.28318530718),.PIECEWISE_BEZIER_KNOTS.);
#112 = CARTESIAN_POINT('',(0.,0.));
#113 = CARTESIAN_POINT('',(1.047197551197,4.293784465779E-32));
#114 = CARTESIAN_POINT('',(2.094395102393,0.));
#115 = CARTESIAN_POINT('',(3.14159265359,0.));
#116 = CARTESIAN_POINT('',(4.188790204786,0.));
#117 = CARTESIAN_POINT('',(5.235987755983,3.146133054449E-16));
#118 = CARTESIAN_POINT('',(6.28318530718,0.));
#119 = ( GEOMETRIC_REPRESENTATION_CONTEXT(2) 
PARAMETRIC_REPRESENTATION_CONTEXT() REPRESENTATION_CONTEXT('2D SPACE',''
  ) );
#120 = PCURVE('',#121,#126);
#121 = B_SPLINE_SURFACE_WITH_KNOTS('',1,1,(
    (#122,#123)
    ,(#124,#125
    )),.UNSPECIFIED.,.F.,.F.,.F.,(2,2),(2,2),(-11.76385255311,
    11.763852553118),(-20.3592957945,17.974308159398),
  .PIECEWISE_BEZIER_KNOTS.);
#122 = CARTESIAN_POINT('',(-38.15019952286,-19.66141128205,
    36.891607483032));
#123 = CARTESIAN_POINT('',(-39.83597043082,18.635107731307,
    38.417128016938));
#124 = CARTESIAN_POINT('',(-14.64525573972,-18.62674934818,
    35.070402665238));
#125 = CARTESIAN_POINT('',(-16.33102664768,19.669769665178,
    36.595923199143));
#126 = DEFINITIONAL_REPRESENTATION('',(#127),#135);
#127 = ( BOUNDED_CURVE() B_SPLINE_CURVE(2,(#128,#129,#130,#131,#132,#133
,#134),.UNSPECIFIED.,.T.,.F.) B_SPLINE_CURVE_WITH_KNOTS((3,2,2,3),(0.,
    2.094395102393,4.188790204786,6.28318530718),
.PIECEWISE_BEZIER_KNOTS.) CURVE() GEOMETRIC_REPRESENTATION_ITEM() 
RATIONAL_B_SPLINE_CURVE((1.,0.5,1.,0.5,1.,0.5,1.)) REPRESENTATION_ITEM(
  '') );
#128 = CARTESIAN_POINT('',(1.887679374998E-15,17.974308159398));
#129 = CARTESIAN_POINT('',(-20.37559031475,17.974308159398));
#130 = CARTESIAN_POINT('',(-10.18779515737,-10.77589480603));
#131 = CARTESIAN_POINT('',(-7.377460958939E-15,-39.52609777146));
#132 = CARTESIAN_POINT('',(10.187795157375,-10.77589480603));
#133 = CARTESIAN_POINT('',(20.37559031475,17.974308159398));
#134 = CARTESIAN_POINT('',(1.887679374998E-15,17.974308159398));
#135 = ( GEOMETRIC_REPRESENTATION_CONTEXT(2) 
PARAMETRIC_REPRESENTATION_CONTEXT() REPRESENTATION_CONTEXT('2D SPACE',''
  ) );
#136 = ADVANCED_FACE('',(#137,#140),#121,.F.);
#137 = FACE_BOUND('',#138,.F.);
#138 = EDGE_LOOP('',(#139));
#139 = ORIENTED_EDGE('',*,*,#99,.T.);
#140 = FACE_BOUND('',#141,.F.);
#141 = EDGE_LOOP('',(#142));
#142 = ORIENTED_EDGE('',*,*,#143,.T.);
#143 = EDGE_CURVE('',#144,#144,#146,.T.);
#144 = VERTEX_POINT('',#145);
#145 = CARTESIAN_POINT('',(-28.03072695294,17.953599609924,
    37.458770519767));
#146 = SURFACE_CURVE('',#147,(#306,#468),.PCURVE_S1.);
#147 = B_SPLINE_CURVE_WITH_KNOTS('',7,(#148,#149,#150,#151,#152,#153,
    #154,#155,#156,#157,#158,#159,#160,#161,#162,#163,#164,#165,#166,
    #167,#168,#169,#170,#171,#172,#173,#174,#175,#176,#177,#178,#179,
    #180,#181,#182,#183,#184,#185,#186,#187,#188,#189,#190,#191,#192,
    #193,#194,#195,#196,#197,#198,#199,#200,#201,#202,#203,#204,#205,
    #206,#207,#208,#209,#210,#211,#212,#213,#214,#215,#216,#217,#218,
    #219,#220,#221,#222,#223,#224,#225,#226,#227,#228,#229,#230,#231,
    #232,#233,#234,#235,#236,#237,#238,#239,#240,#241,#242,#243,#244,
    #245,#246,#247,#248,#249,#250,#251,#252,#253,#254,#255,#256,#257,
    #258,#259,#260,#261,#262,#263,#264,#265,#266,#267,#268,#269,#270,
    #271,#272,#273,#274,#275,#276,#277,#278,#279,#280,#281,#282,#283,
    #284,#285,#286,#287,#288,#289,#290,#291,#292,#293,#294,#295,#296,
    #297,#298,#299,#300,#301,#302,#303,#304,#305),.UNSPECIFIED.,.T.,.F.,
  (8,6,6,6,6,6,6,6,6,6,6,6,6,6,6,6,6,6,6,6,6,6,6,6,6,6,8),(0.,
    3.51840220509E-02,5.988646681921E-02,9.599635537209E-02,
    0.130252987063,0.159371710422,0.249996364676,0.34062101893,
    0.36973974229,0.40399637398,0.440106262534,0.464808707303,
    0.477117459074,0.499998634517,0.515403699212,0.535189567169,
    0.559892103642,0.596002126247,0.63025888511,0.659377716568,
    0.750002707251,0.840627697935,0.869746529393,0.904003288256,
    0.940113310861,0.964815847334,1.),.UNSPECIFIED.);
#148 = CARTESIAN_POINT('',(-28.03072695294,17.953599609924,
    37.458770519767));
#149 = CARTESIAN_POINT('',(-27.57395251165,17.973706813039,
    37.423378842133));
#150 = CARTESIAN_POINT('',(-27.11507753069,17.954599509016,
    37.386395471283));
#151 = CARTESIAN_POINT('',(-26.65886191039,17.895963017892,
    37.348185390042));
#152 = CARTESIAN_POINT('',(-26.20910865783,17.799413379558,
    37.309108096307));
#153 = CARTESIAN_POINT('',(-25.76880695737,17.667667563145,
    37.269498751692));
#154 = CARTESIAN_POINT('',(-25.34023687652,17.50397488078,
    37.229655791873));
#155 = CARTESIAN_POINT('',(-24.63352583251,17.176891373877,
    37.161877082991));
#156 = CARTESIAN_POINT('',(-24.34851064718,17.027892131935,
    37.133920888708));
#157 = CARTESIAN_POINT('',(-24.07043144,16.865933352236,37.106042083047)
  );
#158 = CARTESIAN_POINT('',(-23.79955970418,16.692130168682,
    37.078302675076));
#159 = CARTESIAN_POINT('',(-23.53603152555,16.507536062194,
    37.05075172429));
#160 = CARTESIAN_POINT('',(-23.27987246631,16.313103204878,
    37.023425866832));
#161 = CARTESIAN_POINT('',(-22.66723154097,15.81226399091,
    36.956769811848));
#162 = CARTESIAN_POINT('',(-22.31915464614,15.495699392117,
    36.917735010326));
#163 = CARTESIAN_POINT('',(-21.98649733216,15.162521417116,
    36.879315668559));
#164 = CARTESIAN_POINT('',(-21.66887801287,14.814947064282,
    36.841562205242));
#165 = CARTESIAN_POINT('',(-21.36582247103,14.454851137452,
    36.804505273702));
#166 = CARTESIAN_POINT('',(-21.07677931103,14.083752993354,
    36.76815650216));
#167 = CARTESIAN_POINT('',(-20.53966057385,13.341383890963,
    36.698692475556));
#168 = CARTESIAN_POINT('',(-20.29030434148,12.971183711041,
    36.665514870078));
#169 = CARTESIAN_POINT('',(-20.05259518892,12.593228629386,
    36.63297642252));
#170 = CARTESIAN_POINT('',(-19.82610603337,12.208409081286,
    36.601075728612));
#171 = CARTESIAN_POINT('',(-19.61044163644,11.81748405352,36.56980912381
    ));
#172 = CARTESIAN_POINT('',(-19.40522779702,11.421087852952,
    36.539170074712));
#173 = CARTESIAN_POINT('',(-19.04426351837,10.678566718843,
    36.483631170166));
#174 = CARTESIAN_POINT('',(-18.88571986703,10.333838951863,
    36.458561213558));
#175 = CARTESIAN_POINT('',(-18.73427301779,9.985871698253,
    36.433934720175));
#176 = CARTESIAN_POINT('',(-18.58973533418,9.634957095164,36.40974747151
    ));
#177 = CARTESIAN_POINT('',(-18.4519379225,9.281354721002,36.385995547652
    ));
#178 = CARTESIAN_POINT('',(-18.32072722171,8.92529306159,36.362675110908
    ));
#179 = CARTESIAN_POINT('',(-17.8076605557,7.451783169934,36.268533760716
    ));
#180 = CARTESIAN_POINT('',(-17.48195702025,6.315189362231,
    36.201457488751));
#181 = CARTESIAN_POINT('',(-17.21429830459,5.162550784447,36.13838823691
    ));
#182 = CARTESIAN_POINT('',(-17.00223059327,3.998249949713,
    36.079291271522));
#183 = CARTESIAN_POINT('',(-16.84405505103,2.825978199699,
    36.024166437875));
#184 = CARTESIAN_POINT('',(-16.73892213702,1.648719757207,
    35.973055039037));
#185 = CARTESIAN_POINT('',(-16.63503917154,-0.711242645597,
    35.879047249361));
#186 = CARTESIAN_POINT('',(-16.63632262664,-1.893185420357,
    35.836181179927));
#187 = CARTESIAN_POINT('',(-16.69088171835,-3.0748215164,35.797539403796
    ));
#188 = CARTESIAN_POINT('',(-16.79982491809,-4.253252900608,
    35.763314934302));
#189 = CARTESIAN_POINT('',(-16.96516883936,-5.424951781155,
    35.733795496313));
#190 = CARTESIAN_POINT('',(-17.18974288749,-6.585768206636,
    35.709355709488));
#191 = CARTESIAN_POINT('',(-17.57135138379,-8.098660721032,
    35.684535380908));
#192 = CARTESIAN_POINT('',(-17.67076831555,-8.464874356748,
    35.67908438301));
#193 = CARTESIAN_POINT('',(-17.77696257328,-8.829216977509,
    35.674237367324));
#194 = CARTESIAN_POINT('',(-17.89010720057,-9.191474474271,
    35.670015802066));
#195 = CARTESIAN_POINT('',(-18.01039324638,-9.551403112911,
    35.666443656322));
#196 = CARTESIAN_POINT('',(-18.13803329081,-9.908728373372,
    35.663547721073));
#197 = CARTESIAN_POINT('',(-18.4323579022,-10.68009460817,
    35.658781764321));
#198 = CARTESIAN_POINT('',(-18.60194764319,-11.09298925268,
    35.657183162742));
#199 = CARTESIAN_POINT('',(-18.78242825926,-11.50135215092,
    35.656610577585));
#200 = CARTESIAN_POINT('',(-18.97422823916,-11.90458432957,
    35.657119669283));
#201 = CARTESIAN_POINT('',(-19.17780798287,-12.30196446609,
    35.658773069676));
#202 = CARTESIAN_POINT('',(-19.39367116169,-12.692643096,35.661641490974
    ));
#203 = CARTESIAN_POINT('',(-19.8634822541,-13.47933614889,
    35.670196177105));
#204 = CARTESIAN_POINT('',(-20.11879995619,-13.87439646314,
    35.676025452606));
#205 = CARTESIAN_POINT('',(-20.38904258051,-14.25972834862,
    35.683388681858));
#206 = CARTESIAN_POINT('',(-20.6748928921,-14.633866775,35.692393118041)
  );
#207 = CARTESIAN_POINT('',(-20.97698800846,-14.99498585818,
    35.703155522671));
#208 = CARTESIAN_POINT('',(-21.29590284206,-15.34091070382,
    35.715800425659));
#209 = CARTESIAN_POINT('',(-21.86216665639,-15.89364401586,
    35.74048800508));
#210 = CARTESIAN_POINT('',(-22.10025059497,-16.10983290972,
    35.751456973472));
#211 = CARTESIAN_POINT('',(-22.34653965739,-16.31686861392,
    35.763407568579));
#212 = CARTESIAN_POINT('',(-22.60109204537,-16.5138003931,
    35.776378955516));
#213 = CARTESIAN_POINT('',(-22.86386476624,-16.69956688351,
    35.790406318453));
#214 = CARTESIAN_POINT('',(-23.13468536094,-16.87303340894,
    35.80551726825));
#215 = CARTESIAN_POINT('',(-23.55199764021,-17.11277432939,
    35.829803779513));
#216 = CARTESIAN_POINT('',(-23.69269266402,-17.18916180553,
    35.838153285109));
#217 = CARTESIAN_POINT('',(-23.83525231369,-17.26206230524,
    35.846777012307));
#218 = CARTESIAN_POINT('',(-23.97961937365,-17.33132997977,
    35.855675738477));
#219 = CARTESIAN_POINT('',(-24.12572362705,-17.39682013242,
    35.864849170936));
#220 = CARTESIAN_POINT('',(-24.27348052352,-17.45839203655,
    35.874295739154));
#221 = CARTESIAN_POINT('',(-24.7003462486,-17.62283721808,
    35.902075007732));
#222 = CARTESIAN_POINT('',(-24.98331287878,-17.71577775281,
    35.921073879172));
#223 = CARTESIAN_POINT('',(-25.27098321672,-17.79384042298,
    35.940985589354));
#224 = CARTESIAN_POINT('',(-25.56253967883,-17.85627124454,
    35.961772891961));
#225 = CARTESIAN_POINT('',(-25.85704574115,-17.90249405981,
    35.983382670049));
#226 = CARTESIAN_POINT('',(-26.15343529238,-17.93216481316,
    36.005743120966));
#227 = CARTESIAN_POINT('',(-26.65050155644,-17.95404514707,
    36.044256697765));
#228 = CARTESIAN_POINT('',(-26.85084354455,-17.95532850003,
    36.060053491009));
#229 = CARTESIAN_POINT('',(-27.0511725306,-17.94907501154,
    36.076123245385));
#230 = CARTESIAN_POINT('',(-27.25115158715,-17.93532812337,
    36.092437736739));
#231 = CARTESIAN_POINT('',(-27.45045919398,-17.91418530187,
    36.108967995378));
#232 = CARTESIAN_POINT('',(-27.64878892162,-17.88579234672,
    36.125684487937));
#233 = CARTESIAN_POINT('',(-28.09894797381,-17.80480107815,
    36.164228274416));
#234 = CARTESIAN_POINT('',(-28.34997508669,-17.74761010753,
    36.186159086253));
#235 = CARTESIAN_POINT('',(-28.59832065453,-17.67916351548,
    36.208287015546));
#236 = CARTESIAN_POINT('',(-28.84348113964,-17.59995610528,
    36.230554253773));
#237 = CARTESIAN_POINT('',(-29.08504878094,-17.51054509345,
    36.252908297684));
#238 = CARTESIAN_POINT('',(-29.32270110934,-17.4115164473,
    36.275302343906));
#239 = CARTESIAN_POINT('',(-29.84770033803,-17.16853299075,
    36.325653599185));
#240 = CARTESIAN_POINT('',(-30.13271552335,-17.01953374881,
    36.353609793467));
#241 = CARTESIAN_POINT('',(-30.41079473053,-16.85757496911,
    36.381488599129));
#242 = CARTESIAN_POINT('',(-30.68166646635,-16.68377178556,
    36.409228007099));
#243 = CARTESIAN_POINT('',(-30.94519464498,-16.49917767907,
    36.436778957886));
#244 = CARTESIAN_POINT('',(-31.20135370422,-16.30474482175,
    36.464104815344));
#245 = CARTESIAN_POINT('',(-31.81399462957,-15.80390560778,
    36.530760870328));
#246 = CARTESIAN_POINT('',(-32.16207152439,-15.48734100899,
    36.56979567185));
#247 = CARTESIAN_POINT('',(-32.49472883837,-15.15416303399,
    36.608215013617));
#248 = CARTESIAN_POINT('',(-32.81234815766,-14.80658868116,
    36.645968476934));
#249 = CARTESIAN_POINT('',(-33.11540369951,-14.44649275433,
    36.683025408474));
#250 = CARTESIAN_POINT('',(-33.4044468595,-14.07539461023,
    36.719374180016));
#251 = CARTESIAN_POINT('',(-33.94156559669,-13.33302550784,
    36.788838206619));
#252 = CARTESIAN_POINT('',(-34.19092182905,-12.96282532791,
    36.822015812097));
#253 = CARTESIAN_POINT('',(-34.42863098161,-12.58487024626,
    36.854554259655));
#254 = CARTESIAN_POINT('',(-34.65512013716,-12.20005069816,
    36.886454953564));
#255 = CARTESIAN_POINT('',(-34.87078453409,-11.80912567039,
    36.917721558366));
#256 = CARTESIAN_POINT('',(-35.07599837351,-11.41272946983,
    36.948360607463));
#257 = CARTESIAN_POINT('',(-35.43696265217,-10.67020833572,
    37.003899512009));
#258 = CARTESIAN_POINT('',(-35.5955063035,-10.32548056874,
    37.028969468618));
#259 = CARTESIAN_POINT('',(-35.74695315275,-9.977513315132,
    37.053595962001));
#260 = CARTESIAN_POINT('',(-35.89149083636,-9.626598712044,
    37.077783210665));
#261 = CARTESIAN_POINT('',(-36.02928824803,-9.272996337881,
    37.101535134523));
#262 = CARTESIAN_POINT('',(-36.16049894882,-8.916934678469,
    37.124855571268));
#263 = CARTESIAN_POINT('',(-36.67356561483,-7.443424786815,
    37.218996921459));
#264 = CARTESIAN_POINT('',(-36.99926915029,-6.306830979101,
    37.286073193425));
#265 = CARTESIAN_POINT('',(-37.26692786593,-5.15419240134,
    37.349142445264));
#266 = CARTESIAN_POINT('',(-37.47899557728,-3.989891566578,
    37.408239410656));
#267 = CARTESIAN_POINT('',(-37.63717111949,-2.817619816586,37.4633642443
    ));
#268 = CARTESIAN_POINT('',(-37.74230403352,-1.640361374084,
    37.514475643139));
#269 = CARTESIAN_POINT('',(-37.846186999,0.719601028718,37.608483432815)
  );
#270 = CARTESIAN_POINT('',(-37.84490354389,1.901543803479,
    37.651349502249));
#271 = CARTESIAN_POINT('',(-37.79034445218,3.083179899521,
    37.689991278379));
#272 = CARTESIAN_POINT('',(-37.68140125245,4.26161128373,37.724215747874
    ));
#273 = CARTESIAN_POINT('',(-37.51605733117,5.433310164277,
    37.753735185862));
#274 = CARTESIAN_POINT('',(-37.29148328305,6.594126589757,
    37.778174972688));
#275 = CARTESIAN_POINT('',(-36.90987478675,8.107019104154,
    37.802995301268));
#276 = CARTESIAN_POINT('',(-36.81045785498,8.47323273987,37.808446299166
    ));
#277 = CARTESIAN_POINT('',(-36.70426359726,8.837575360631,
    37.813293314851));
#278 = CARTESIAN_POINT('',(-36.59111896997,9.199832857393,
    37.817514880109));
#279 = CARTESIAN_POINT('',(-36.47083292415,9.559761496033,
    37.821087025854));
#280 = CARTESIAN_POINT('',(-36.34319287972,9.917086756495,
    37.823982961103));
#281 = CARTESIAN_POINT('',(-36.04886826834,10.688452991297,
    37.828748917855));
#282 = CARTESIAN_POINT('',(-35.87927852734,11.101347635806,
    37.830347519433));
#283 = CARTESIAN_POINT('',(-35.69879791127,11.509710534049,
    37.830920104591));
#284 = CARTESIAN_POINT('',(-35.50699793137,11.91294271269,
    37.830411012893));
#285 = CARTESIAN_POINT('',(-35.30341818766,12.31032284922,37.8287576125)
  );
#286 = CARTESIAN_POINT('',(-35.08755500885,12.701001479127,
    37.825889191202));
#287 = CARTESIAN_POINT('',(-34.61774391643,13.48769453202,
    37.817334505071));
#288 = CARTESIAN_POINT('',(-34.36242621435,13.882754846264,
    37.81150522957));
#289 = CARTESIAN_POINT('',(-34.09218359002,14.268086731743,
    37.804142000318));
#290 = CARTESIAN_POINT('',(-33.80633327843,14.642225158123,
    37.795137564135));
#291 = CARTESIAN_POINT('',(-33.50423816207,15.003344241305,
    37.784375159504));
#292 = CARTESIAN_POINT('',(-33.18532332847,15.349269086947,
    37.771730256516));
#293 = CARTESIAN_POINT('',(-32.61905951414,15.902002398984,
    37.747042677096));
#294 = CARTESIAN_POINT('',(-32.38097557556,16.118191292847,
    37.736073708704));
#295 = CARTESIAN_POINT('',(-32.13468651315,16.325226997042,
    37.724123113596));
#296 = CARTESIAN_POINT('',(-31.88013412516,16.522158776224,
    37.711151726659));
#297 = CARTESIAN_POINT('',(-31.6173614043,16.707925266633,
    37.697124363723));
#298 = CARTESIAN_POINT('',(-31.34654080959,16.88139179207,
    37.682013413925));
#299 = CARTESIAN_POINT('',(-30.67130323483,17.269307166669,
    37.642716287797));
#300 = CARTESIAN_POINT('',(-30.25877406778,17.470024118585,
    37.61738938307));
#301 = CARTESIAN_POINT('',(-29.83175156402,17.639948598462,
    37.589796906915));
#302 = CARTESIAN_POINT('',(-29.39222146306,17.77564351801,
    37.559970945966));
#303 = CARTESIAN_POINT('',(-28.94292265412,17.874139764561,
    37.528020159931));
#304 = CARTESIAN_POINT('',(-28.48750143742,17.933493387857,
    37.49416223648));
#305 = CARTESIAN_POINT('',(-28.03072695294,17.953599609924,
    37.458770519767));
#306 = PCURVE('',#121,#307);
#307 = DEFINITIONAL_REPRESENTATION('',(#308),#467);
#308 = B_SPLINE_CURVE_WITH_KNOTS('',7,(#309,#310,#311,#312,#313,#314,
    #315,#316,#317,#318,#319,#320,#321,#322,#323,#324,#325,#326,#327,
    #328,#329,#330,#331,#332,#333,#334,#335,#336,#337,#338,#339,#340,
    #341,#342,#343,#344,#345,#346,#347,#348,#349,#350,#351,#352,#353,
    #354,#355,#356,#357,#358,#359,#360,#361,#362,#363,#364,#365,#366,
    #367,#368,#369,#370,#371,#372,#373,#374,#375,#376,#377,#378,#379,
    #380,#381,#382,#383,#384,#385,#386,#387,#388,#389,#390,#391,#392,
    #393,#394,#395,#396,#397,#398,#399,#400,#401,#402,#403,#404,#405,
    #406,#407,#408,#409,#410,#411,#412,#413,#414,#415,#416,#417,#418,
    #419,#420,#421,#422,#423,#424,#425,#426,#427,#428,#429,#430,#431,
    #432,#433,#434,#435,#436,#437,#438,#439,#440,#441,#442,#443,#444,
    #445,#446,#447,#448,#449,#450,#451,#452,#453,#454,#455,#456,#457,
    #458,#459,#460,#461,#462,#463,#464,#465,#466),.UNSPECIFIED.,.F.,.F.,
  (8,6,6,6,6,6,6,6,6,6,6,6,6,6,6,6,6,6,6,6,6,6,6,6,6,6,8),(0.,
    3.51840220509E-02,5.988646681921E-02,9.599635537209E-02,
    0.130252987063,0.159371710422,0.249996364676,0.34062101893,
    0.36973974229,0.40399637398,0.440106262534,0.464808707303,
    0.477117459074,0.499998634517,0.515403699212,0.535189567169,
    0.559892103642,0.596002126247,0.63025888511,0.659377716568,
    0.750002707251,0.840627697935,0.869746529393,0.904003288256,
    0.940113310861,0.964815847334,1.),.UNSPECIFIED.);
#309 = CARTESIAN_POINT('',(3.552713678801E-15,16.774308159398));
#310 = CARTESIAN_POINT('',(0.457216786478,16.774308650397));
#311 = CARTESIAN_POINT('',(0.914807570713,16.735040197398));
#312 = CARTESIAN_POINT('',(1.368003218767,16.65639774778));
#313 = CARTESIAN_POINT('',(1.813075470173,16.540163020294));
#314 = CARTESIAN_POINT('',(2.247157514714,16.389181808939));
#315 = CARTESIAN_POINT('',(2.668114383451,16.206800551354));
#316 = CARTESIAN_POINT('',(3.359757806946,15.848954921294));
#317 = CARTESIAN_POINT('',(3.637944822429,15.687565905609));
#318 = CARTESIAN_POINT('',(3.908632657006,15.513534908374));
#319 = CARTESIAN_POINT('',(4.171599119608,15.327987923955));
#320 = CARTESIAN_POINT('',(4.426754584264,15.131983398659));
#321 = CARTESIAN_POINT('',(4.674115386545,14.92647370757));
#322 = CARTESIAN_POINT('',(5.264138560378,14.399177324124));
#323 = CARTESIAN_POINT('',(5.59795736972,14.067611836701));
#324 = CARTESIAN_POINT('',(5.915640920345,13.720127141741));
#325 = CARTESIAN_POINT('',(6.217667924683,13.358921312078));
#326 = CARTESIAN_POINT('',(6.504594588197,12.985846483485));
#327 = CARTESIAN_POINT('',(6.777038588757,12.602396294476));
#328 = CARTESIAN_POINT('',(7.280991040463,11.837124873057));
#329 = CARTESIAN_POINT('',(7.513825996739,11.456317064615));
#330 = CARTESIAN_POINT('',(7.734684108842,11.068274052468));
#331 = CARTESIAN_POINT('',(7.944031204472,10.673866628942));
#332 = CARTESIAN_POINT('',(8.142295517105,10.273835665422));
#333 = CARTESIAN_POINT('',(8.329878780312,9.868798399139));
#334 = CARTESIAN_POINT('',(8.657840504166,9.111121718258));
#335 = CARTESIAN_POINT('',(8.801070916927,8.759755283371));
#336 = CARTESIAN_POINT('',(8.93706893253,8.405464587073));
#337 = CARTESIAN_POINT('',(9.066034853016,8.048533232331));
#338 = CARTESIAN_POINT('',(9.188148823997,7.689213119105));
#339 = CARTESIAN_POINT('',(9.303574305934,7.327725759125));
#340 = CARTESIAN_POINT('',(9.751345072349,5.833078594969));
#341 = CARTESIAN_POINT('',(10.026750298416,4.683261114598));
#342 = CARTESIAN_POINT('',(10.243461268819,3.51996698396));
#343 = CARTESIAN_POINT('',(10.404122151908,2.347466566651));
#344 = CARTESIAN_POINT('',(10.510592471089,1.169372924712));
#345 = CARTESIAN_POINT('',(10.563852180493,-1.136996575221E-02));
#346 = CARTESIAN_POINT('',(10.563852180495,-2.373617669353));
#347 = CARTESIAN_POINT('',(10.510592471081,-3.554360559831));
#348 = CARTESIAN_POINT('',(10.404122151925,-4.732454201738));
#349 = CARTESIAN_POINT('',(10.2434612688,-5.904954619088));
#350 = CARTESIAN_POINT('',(10.026750298429,-7.068248749694));
#351 = CARTESIAN_POINT('',(9.751345072346,-8.218066230081));
#352 = CARTESIAN_POINT('',(9.303574305935,-9.712713394233));
#353 = CARTESIAN_POINT('',(9.188148823998,-10.07420075421));
#354 = CARTESIAN_POINT('',(9.066034853017,-10.43352086744));
#355 = CARTESIAN_POINT('',(8.937068932531,-10.79045222218));
#356 = CARTESIAN_POINT('',(8.801070916928,-11.14474291848));
#357 = CARTESIAN_POINT('',(8.657840504167,-11.49610935336));
#358 = CARTESIAN_POINT('',(8.329878780314,-12.25378603424));
#359 = CARTESIAN_POINT('',(8.142295517106,-12.65882330052));
#360 = CARTESIAN_POINT('',(7.944031204474,-13.05885426405));
#361 = CARTESIAN_POINT('',(7.734684108843,-13.45326168757));
#362 = CARTESIAN_POINT('',(7.51382599674,-13.84130469972));
#363 = CARTESIAN_POINT('',(7.280991040465,-14.22211250816));
#364 = CARTESIAN_POINT('',(6.777038588757,-14.98738392958));
#365 = CARTESIAN_POINT('',(6.5045945882,-15.37083411859));
#366 = CARTESIAN_POINT('',(6.217667924684,-15.74390894718));
#367 = CARTESIAN_POINT('',(5.915640920346,-16.10511477685));
#368 = CARTESIAN_POINT('',(5.597957369723,-16.45259947181));
#369 = CARTESIAN_POINT('',(5.264138560379,-16.78416495923));
#370 = CARTESIAN_POINT('',(4.674115386548,-17.31146134268));
#371 = CARTESIAN_POINT('',(4.426754584264,-17.51697103377));
#372 = CARTESIAN_POINT('',(4.17159911961,-17.71297555906));
#373 = CARTESIAN_POINT('',(3.908632657008,-17.89852254348));
#374 = CARTESIAN_POINT('',(3.637944822429,-18.07255354072));
#375 = CARTESIAN_POINT('',(3.359757806948,-18.2339425564));
#376 = CARTESIAN_POINT('',(2.9323063227,-18.45509968602));
#377 = CARTESIAN_POINT('',(2.788388170729,-18.52522601323));
#378 = CARTESIAN_POINT('',(2.642760541189,-18.59178673803));
#379 = CARTESIAN_POINT('',(2.495487008184,-18.65463866887));
#380 = CARTESIAN_POINT('',(2.346644083858,-18.71364033694));
#381 = CARTESIAN_POINT('',(2.196322425429,-18.76865486995));
#382 = CARTESIAN_POINT('',(1.762637967283,-18.91416897831));
#383 = CARTESIAN_POINT('',(1.475857903619,-18.9945757683));
#384 = CARTESIAN_POINT('',(1.185032956442,-19.05991223518));
#385 = CARTESIAN_POINT('',(0.891013075841,-19.10946107869));
#386 = CARTESIAN_POINT('',(0.594759217063,-19.14268788338));
#387 = CARTESIAN_POINT('',(0.297351590304,-19.15929581014));
#388 = CARTESIAN_POINT('',(-0.200196015332,-19.1592958304));
#389 = CARTESIAN_POINT('',(-0.400400624455,-19.15176763804));
#390 = CARTESIAN_POINT('',(-0.60026080154,-19.13671046736));
#391 = CARTESIAN_POINT('',(-0.799441855484,-19.11418253492));
#392 = CARTESIAN_POINT('',(-0.997626863354,-19.08429535207));
#393 = CARTESIAN_POINT('',(-1.194516103838,-19.04720805306));
#394 = CARTESIAN_POINT('',(-1.640677962174,-18.94649879819));
#395 = CARTESIAN_POINT('',(-1.888947176271,-18.8783239065));
#396 = CARTESIAN_POINT('',(-2.134042458678,-18.79902220684));
#397 = CARTESIAN_POINT('',(-2.375482518496,-18.70911016757));
#398 = CARTESIAN_POINT('',(-2.612884493446,-18.60916239795));
#399 = CARTESIAN_POINT('',(-2.845951995081,-18.49977847943));
#400 = CARTESIAN_POINT('',(-3.359757806946,-18.2339425564));
#401 = CARTESIAN_POINT('',(-3.637944822426,-18.07255354072));
#402 = CARTESIAN_POINT('',(-3.908632657006,-17.89852254348));
#403 = CARTESIAN_POINT('',(-4.171599119608,-17.71297555906));
#404 = CARTESIAN_POINT('',(-4.426754584261,-17.51697103377));
#405 = CARTESIAN_POINT('',(-4.674115386545,-17.31146134268));
#406 = CARTESIAN_POINT('',(-5.264138560377,-16.78416495923));
#407 = CARTESIAN_POINT('',(-5.59795736972,-16.45259947181));
#408 = CARTESIAN_POINT('',(-5.915640920344,-16.10511477685));
#409 = CARTESIAN_POINT('',(-6.217667924682,-15.74390894719));
#410 = CARTESIAN_POINT('',(-6.504594588197,-15.37083411859));
#411 = CARTESIAN_POINT('',(-6.777038588755,-14.98738392958));
#412 = CARTESIAN_POINT('',(-7.280991040463,-14.22211250817));
#413 = CARTESIAN_POINT('',(-7.513825996736,-13.84130469972));
#414 = CARTESIAN_POINT('',(-7.734684108842,-13.45326168758));
#415 = CARTESIAN_POINT('',(-7.944031204472,-13.05885426405));
#416 = CARTESIAN_POINT('',(-8.142295517102,-12.65882330053));
#417 = CARTESIAN_POINT('',(-8.329878780313,-12.25378603425));
#418 = CARTESIAN_POINT('',(-8.657840504165,-11.49610935337));
#419 = CARTESIAN_POINT('',(-8.801070916927,-11.14474291848));
#420 = CARTESIAN_POINT('',(-8.93706893253,-10.79045222218));
#421 = CARTESIAN_POINT('',(-9.066034853015,-10.43352086744));
#422 = CARTESIAN_POINT('',(-9.188148823997,-10.07420075421));
#423 = CARTESIAN_POINT('',(-9.303574305934,-9.712713394237));
#424 = CARTESIAN_POINT('',(-9.751345072346,-8.218066230083));
#425 = CARTESIAN_POINT('',(-10.02675029842,-7.068248749701));
#426 = CARTESIAN_POINT('',(-10.2434612688,-5.904954619087));
#427 = CARTESIAN_POINT('',(-10.40412215192,-4.732454201748));
#428 = CARTESIAN_POINT('',(-10.51059247108,-3.554360559832));
#429 = CARTESIAN_POINT('',(-10.56385218049,-2.373617669357));
#430 = CARTESIAN_POINT('',(-10.56385218049,-1.136996575959E-02));
#431 = CARTESIAN_POINT('',(-10.51059247108,1.169372924721));
#432 = CARTESIAN_POINT('',(-10.40412215192,2.347466566625));
#433 = CARTESIAN_POINT('',(-10.2434612688,3.519966983978));
#434 = CARTESIAN_POINT('',(-10.02675029842,4.683261114583));
#435 = CARTESIAN_POINT('',(-9.751345072348,5.833078594969));
#436 = CARTESIAN_POINT('',(-9.303574305935,7.327725759122));
#437 = CARTESIAN_POINT('',(-9.188148823998,7.689213119102));
#438 = CARTESIAN_POINT('',(-9.066034853016,8.048533232329));
#439 = CARTESIAN_POINT('',(-8.937068932531,8.40546458707));
#440 = CARTESIAN_POINT('',(-8.801070916928,8.759755283368));
#441 = CARTESIAN_POINT('',(-8.657840504167,9.111121718255));
#442 = CARTESIAN_POINT('',(-8.329878780314,9.868798399136));
#443 = CARTESIAN_POINT('',(-8.142295517104,10.27383566542));
#444 = CARTESIAN_POINT('',(-7.944031204474,10.67386662894));
#445 = CARTESIAN_POINT('',(-7.734684108844,11.068274052465));
#446 = CARTESIAN_POINT('',(-7.513825996738,11.456317064612));
#447 = CARTESIAN_POINT('',(-7.280991040465,11.837124873056));
#448 = CARTESIAN_POINT('',(-6.777038588757,12.602396294475));
#449 = CARTESIAN_POINT('',(-6.5045945882,12.985846483482));
#450 = CARTESIAN_POINT('',(-6.217667924683,13.358921312077));
#451 = CARTESIAN_POINT('',(-5.915640920345,13.72012714174));
#452 = CARTESIAN_POINT('',(-5.597957369723,14.067611836698));
#453 = CARTESIAN_POINT('',(-5.264138560379,14.399177324123));
#454 = CARTESIAN_POINT('',(-4.674115386548,14.926473707568));
#455 = CARTESIAN_POINT('',(-4.426754584263,15.13198339866));
#456 = CARTESIAN_POINT('',(-4.17159911961,15.327987923953));
#457 = CARTESIAN_POINT('',(-3.908632657008,15.513534908373));
#458 = CARTESIAN_POINT('',(-3.637944822429,15.687565905609));
#459 = CARTESIAN_POINT('',(-3.359757806948,15.848954921293));
#460 = CARTESIAN_POINT('',(-2.668114383452,16.206800551354));
#461 = CARTESIAN_POINT('',(-2.247157514714,16.389181808939));
#462 = CARTESIAN_POINT('',(-1.813075470174,16.540163020293));
#463 = CARTESIAN_POINT('',(-1.368003218768,16.656397747779));
#464 = CARTESIAN_POINT('',(-0.914807570712,16.735040197399));
#465 = CARTESIAN_POINT('',(-0.457216786478,16.774308650396));
#466 = CARTESIAN_POINT('',(1.7763568394E-15,16.774308159398));
#467 = ( GEOMETRIC_REPRESENTATION_CONTEXT(2) 
PARAMETRIC_REPRESENTATION_CONTEXT() REPRESENTATION_CONTEXT('2D SPACE',''
  ) );
#468 = PCURVE('',#469,#484);
#469 = ( BOUNDED_SURFACE() B_SPLINE_SURFACE(2,1,(
    (#470,#471)
    ,(#472,#473)
    ,(#474,#475)
    ,(#476,#477)
    ,(#478,#479)
    ,(#480,#481)
,(#482,#483
    )),.UNSPECIFIED.,.T.,.F.,.F.) B_SPLINE_SURFACE_WITH_KNOTS((3,2,2,3),
  (2,2),(0.,2.094395102393,4.188790204786,6.28318530718),(
    -5.130734440697,-1.),.PIECEWISE_BEZIER_KNOTS.) 
GEOMETRIC_REPRESENTATION_ITEM() RATIONAL_B_SPLINE_SURFACE((
    (1.,1.)
    ,(0.5,0.5)
    ,(1.,1.)
    ,(0.5,0.5)
    ,(1.,1.)
    ,(0.5,0.5)
,(1.,1.))) REPRESENTATION_ITEM('') SURFACE() );
#470 = CARTESIAN_POINT('',(-28.03072695294,17.953599609924,
    41.589504960463));
#471 = CARTESIAN_POINT('',(-28.03072695294,17.953599609924,
    37.458770519767));
#472 = CARTESIAN_POINT('',(-46.3101551726,17.148959159545,
    43.005827545504));
#473 = CARTESIAN_POINT('',(-46.3101551726,17.148959159545,
    38.875093104807));
#474 = CARTESIAN_POINT('',(-35.98527026126,-9.372851242811,
    41.225158484966));
#475 = CARTESIAN_POINT('',(-35.98527026126,-9.372851242811,
    37.094424044269));
#476 = CARTESIAN_POINT('',(-25.66038534992,-35.89466164516,
    39.444489424427));
#477 = CARTESIAN_POINT('',(-25.66038534992,-35.89466164516,
    35.31375498373));
#478 = CARTESIAN_POINT('',(-17.7058420416,-8.568210792431,
    39.808835899925));
#479 = CARTESIAN_POINT('',(-17.7058420416,-8.568210792431,
    35.678101459228));
#480 = CARTESIAN_POINT('',(-9.751298733285,18.758240060304,
    40.173182375423));
#481 = CARTESIAN_POINT('',(-9.751298733285,18.758240060304,
    36.042447934726));
#482 = CARTESIAN_POINT('',(-28.03072695294,17.953599609924,
    41.589504960463));
#483 = CARTESIAN_POINT('',(-28.03072695294,17.953599609924,
    37.458770519767));
#484 = DEFINITIONAL_REPRESENTATION('',(#485),#611);
#485 = B_SPLINE_CURVE_WITH_KNOTS('',8,(#486,#487,#488,#489,#490,#491,
    #492,#493,#494,#495,#496,#497,#498,#499,#500,#501,#502,#503,#504,
    #505,#506,#507,#508,#509,#510,#511,#512,#513,#514,#515,#516,#517,
    #518,#519,#520,#521,#522,#523,#524,#525,#526,#527,#528,#529,#530,
    #531,#532,#533,#534,#535,#536,#537,#538,#539,#540,#541,#542,#543,
    #544,#545,#546,#547,#548,#549,#550,#551,#552,#553,#554,#555,#556,
    #557,#558,#559,#560,#561,#562,#563,#564,#565,#566,#567,#568,#569,
    #570,#571,#572,#573,#574,#575,#576,#577,#578,#579,#580,#581,#582,
    #583,#584,#585,#586,#587,#588,#589,#590,#591,#592,#593,#594,#595,
    #596,#597,#598,#599,#600,#601,#602,#603,#604,#605,#606,#607,#608,
    #609,#610),.UNSPECIFIED.,.F.,.F.,(9,7,7,7,7,8,8,8,8,8,8,8,8,8,8,8,9)
  ,(0.,6.25E-02,0.1796875,0.2822265625,0.327087402344,0.348115921021,
    0.358301609755,0.438513908535,0.508699669968,0.631524752476,
    0.643039603961,0.648617110149,0.659597825457,0.744698369093,
    0.872349184546,0.936174592273,1.),.UNSPECIFIED.);
#486 = CARTESIAN_POINT('',(6.28318530718,-1.));
#487 = CARTESIAN_POINT('',(6.201842782288,-0.999999999996));
#488 = CARTESIAN_POINT('',(6.123966457279,-1.000000000018));
#489 = CARTESIAN_POINT('',(6.050602146279,-0.999999999949));
#490 = CARTESIAN_POINT('',(5.981017866172,-0.999999999964));
#491 = CARTESIAN_POINT('',(5.916350137559,-0.999999999964));
#492 = CARTESIAN_POINT('',(5.855070738762,-0.999999999964));
#493 = CARTESIAN_POINT('',(5.797271815685,-1.000000000006));
#494 = CARTESIAN_POINT('',(5.639452244232,-1.));
#495 = CARTESIAN_POINT('',(5.546860968722,-1.));
#496 = CARTESIAN_POINT('',(5.461652322916,-1.));
#497 = CARTESIAN_POINT('',(5.381687294174,-1.));
#498 = CARTESIAN_POINT('',(5.305447526641,-1.));
#499 = CARTESIAN_POINT('',(5.231843330989,-1.));
#500 = CARTESIAN_POINT('',(5.160021694157,-1.));
#501 = CARTESIAN_POINT('',(5.02718409883,-1.));
#502 = CARTESIAN_POINT('',(4.965916766115,-0.999999999999));
#503 = CARTESIAN_POINT('',(4.904888481564,-1.));
#504 = CARTESIAN_POINT('',(4.84361518433,-1.000000000002));
#505 = CARTESIAN_POINT('',(4.781635180808,-1.));
#506 = CARTESIAN_POINT('',(4.718490557934,-0.999999999999));
#507 = CARTESIAN_POINT('',(4.653667391064,-1.));
#508 = CARTESIAN_POINT('',(4.557107564243,-1.));
#509 = CARTESIAN_POINT('',(4.527268043944,-1.));
#510 = CARTESIAN_POINT('',(4.496925835937,-1.));
#511 = CARTESIAN_POINT('',(4.466022657708,-1.));
#512 = CARTESIAN_POINT('',(4.434492293837,-1.));
#513 = CARTESIAN_POINT('',(4.402260595994,-1.));
#514 = CARTESIAN_POINT('',(4.369245482943,-1.));
#515 = CARTESIAN_POINT('',(4.319470331797,-1.));
#516 = CARTESIAN_POINT('',(4.303392491521,-1.));
#517 = CARTESIAN_POINT('',(4.287112101908,-1.));
#518 = CARTESIAN_POINT('',(4.270617845157,-1.));
#519 = CARTESIAN_POINT('',(4.25389840347,-1.));
#520 = CARTESIAN_POINT('',(4.236942459044,-1.));
#521 = CARTESIAN_POINT('',(4.219738694081,-1.));
#522 = CARTESIAN_POINT('',(4.20227579078,-1.));
#523 = CARTESIAN_POINT('',(4.193814164635,-1.));
#524 = CARTESIAN_POINT('',(4.185332139459,-1.000000000002));
#525 = CARTESIAN_POINT('',(4.176540275163,-1.000000000022));
#526 = CARTESIAN_POINT('',(4.168344847276,-0.999999999891));
#527 = CARTESIAN_POINT('',(4.159599072562,-0.999999999971));
#528 = CARTESIAN_POINT('',(4.151221679233,-1.000000000018));
#529 = CARTESIAN_POINT('',(4.142715495656,-1.000000000011));
#530 = CARTESIAN_POINT('',(4.13425549748,-1.));
#531 = CARTESIAN_POINT('',(4.067608314537,-1.));
#532 = CARTESIAN_POINT('',(4.001732415368,-1.));
#533 = CARTESIAN_POINT('',(3.93625773776,-1.));
#534 = CARTESIAN_POINT('',(3.87078234514,-1.));
#535 = CARTESIAN_POINT('',(3.804881474967,-1.));
#536 = CARTESIAN_POINT('',(3.738116587133,-1.));
#537 = CARTESIAN_POINT('',(3.670044412355,-1.));
#538 = CARTESIAN_POINT('',(3.60022600057,-1.));
#539 = CARTESIAN_POINT('',(3.539143226704,-1.));
#540 = CARTESIAN_POINT('',(3.476702539603,-1.000000000001));
#541 = CARTESIAN_POINT('',(3.412784107991,-1.));
#542 = CARTESIAN_POINT('',(3.347048392292,-0.999999999999));
#543 = CARTESIAN_POINT('',(3.279530735897,-1.));
#544 = CARTESIAN_POINT('',(3.210842309851,-1.000000000001));
#545 = CARTESIAN_POINT('',(3.141977410976,-1.));
#546 = CARTESIAN_POINT('',(3.073727113408,-1.));
#547 = CARTESIAN_POINT('',(2.95428889992,-1.000000000004));
#548 = CARTESIAN_POINT('',(2.836574730747,-0.999999999989));
#549 = CARTESIAN_POINT('',(2.725089219763,-1.000000000065));
#550 = CARTESIAN_POINT('',(2.620238329167,-0.999999999847));
#551 = CARTESIAN_POINT('',(2.51775258292,-0.999999999964));
#552 = CARTESIAN_POINT('',(2.417535102097,-0.999999999993));
#553 = CARTESIAN_POINT('',(2.317434550137,-1.000000000014));
#554 = CARTESIAN_POINT('',(2.216241314945,-1.));
#555 = CARTESIAN_POINT('',(2.206754012815,-1.));
#556 = CARTESIAN_POINT('',(2.197256786595,-1.));
#557 = CARTESIAN_POINT('',(2.187748460197,-1.));
#558 = CARTESIAN_POINT('',(2.178227857534,-1.));
#559 = CARTESIAN_POINT('',(2.16869380252,-1.));
#560 = CARTESIAN_POINT('',(2.159145119068,-1.));
#561 = CARTESIAN_POINT('',(2.149580631091,-1.));
#562 = CARTESIAN_POINT('',(2.139999162502,-1.));
#563 = CARTESIAN_POINT('',(2.135358608691,-1.));
#564 = CARTESIAN_POINT('',(2.130713673488,-1.));
#565 = CARTESIAN_POINT('',(2.126064356892,-1.));
#566 = CARTESIAN_POINT('',(2.121410658904,-1.));
#567 = CARTESIAN_POINT('',(2.116752579522,-1.));
#568 = CARTESIAN_POINT('',(2.112090118748,-1.));
#569 = CARTESIAN_POINT('',(2.107423276582,-1.));
#570 = CARTESIAN_POINT('',(2.102752053023,-1.));
#571 = CARTESIAN_POINT('',(2.093563181887,-1.000000000001));
#572 = CARTESIAN_POINT('',(2.084275230187,-1.000000000004));
#573 = CARTESIAN_POINT('',(2.075206378529,-0.999999999997));
#574 = CARTESIAN_POINT('',(2.066155972292,-0.999999999994));
#575 = CARTESIAN_POINT('',(2.057138721684,-0.999999999994));
#576 = CARTESIAN_POINT('',(2.048248200469,-0.999999999996));
#577 = CARTESIAN_POINT('',(2.039386921953,-1.000000000001));
#578 = CARTESIAN_POINT('',(2.030600270766,-1.));
#579 = CARTESIAN_POINT('',(1.962496436202,-1.));
#580 = CARTESIAN_POINT('',(1.898222568611,-1.));
#581 = CARTESIAN_POINT('',(1.836992276934,-1.));
#582 = CARTESIAN_POINT('',(1.778209489475,-1.));
#583 = CARTESIAN_POINT('',(1.721418243251,-1.));
#584 = CARTESIAN_POINT('',(1.666252473333,-1.));
#585 = CARTESIAN_POINT('',(1.612385802186,-1.));
#586 = CARTESIAN_POINT('',(1.559481329014,-1.));
#587 = CARTESIAN_POINT('',(1.480122172657,-1.));
#588 = CARTESIAN_POINT('',(1.402986297219,-1.));
#589 = CARTESIAN_POINT('',(1.327022183438,-1.));
#590 = CARTESIAN_POINT('',(1.251362691876,-1.));
#591 = CARTESIAN_POINT('',(1.175178664898,-1.));
#592 = CARTESIAN_POINT('',(1.097532528657,-1.));
#593 = CARTESIAN_POINT('',(1.017231895067,-1.));
#594 = CARTESIAN_POINT('',(0.932683163792,-1.));
#595 = CARTESIAN_POINT('',(0.890411974828,-1.));
#596 = CARTESIAN_POINT('',(0.847060798069,-1.));
#597 = CARTESIAN_POINT('',(0.80244180564,-1.));
#598 = CARTESIAN_POINT('',(0.756314681638,-1.));
#599 = CARTESIAN_POINT('',(0.708386622131,-1.));
#600 = CARTESIAN_POINT('',(0.658312335159,-1.));
#601 = CARTESIAN_POINT('',(0.605694040735,-1.));
#602 = CARTESIAN_POINT('',(0.550081470845,-1.));
#603 = CARTESIAN_POINT('',(0.494464056711,-1.000000000004));
#604 = CARTESIAN_POINT('',(0.435874904534,-0.999999999987));
#605 = CARTESIAN_POINT('',(0.373688057773,-1.00000000008));
#606 = CARTESIAN_POINT('',(0.308040601341,-0.999999999833));
#607 = CARTESIAN_POINT('',(0.237254209549,-0.999999999971));
#608 = CARTESIAN_POINT('',(0.162516171726,-0.999999999989));
#609 = CARTESIAN_POINT('',(8.306771324169E-02,-1.000000000015));
#610 = CARTESIAN_POINT('',(0.,-1.));
#611 = ( GEOMETRIC_REPRESENTATION_CONTEXT(2) 
PARAMETRIC_REPRESENTATION_CONTEXT() REPRESENTATION_CONTEXT('2D SPACE',''
  ) );
#612 = ADVANCED_FACE('',(#613,#616),#82,.T.);
#613 = FACE_BOUND('',#614,.T.);
#614 = EDGE_LOOP('',(#615));
#615 = ORIENTED_EDGE('',*,*,#60,.T.);
#616 = FACE_BOUND('',#617,.T.);
#617 = EDGE_LOOP('',(#618));
#618 = ORIENTED_EDGE('',*,*,#619,.T.);
#619 = EDGE_CURVE('',#620,#620,#622,.T.);
#620 = VERTEX_POINT('',#621);
#621 = CARTESIAN_POINT('',(-28.03072695294,17.953599609924,
    41.589504960463));
#622 = SURFACE_CURVE('',#623,(#782,#944),.PCURVE_S1.);
#623 = B_SPLINE_CURVE_WITH_KNOTS('',7,(#624,#625,#626,#627,#628,#629,
    #630,#631,#632,#633,#634,#635,#636,#637,#638,#639,#640,#641,#642,
    #643,#644,#645,#646,#647,#648,#649,#650,#651,#652,#653,#654,#655,
    #656,#657,#658,#659,#660,#661,#662,#663,#664,#665,#666,#667,#668,
    #669,#670,#671,#672,#673,#674,#675,#676,#677,#678,#679,#680,#681,
    #682,#683,#684,#685,#686,#687,#688,#689,#690,#691,#692,#693,#694,
    #695,#696,#697,#698,#699,#700,#701,#702,#703,#704,#705,#706,#707,
    #708,#709,#710,#711,#712,#713,#714,#715,#716,#717,#718,#719,#720,
    #721,#722,#723,#724,#725,#726,#727,#728,#729,#730,#731,#732,#733,
    #734,#735,#736,#737,#738,#739,#740,#741,#742,#743,#744,#745,#746,
    #747,#748,#749,#750,#751,#752,#753,#754,#755,#756,#757,#758,#759,
    #760,#761,#762,#763,#764,#765,#766,#767,#768,#769,#770,#771,#772,
    #773,#774,#775,#776,#777,#778,#779,#780,#781),.UNSPECIFIED.,.T.,.F.,
  (8,6,6,6,6,6,6,6,6,6,6,6,6,6,6,6,6,6,6,6,6,6,6,6,6,6,8),(0.,
    3.51840220509E-02,5.988646681921E-02,9.599635537209E-02,
    0.130252987063,0.159371710422,0.249996364676,0.34062101893,
    0.36973974229,0.40399637398,0.440106262534,0.464808707303,
    0.477117459074,0.499998634517,0.515403699212,0.535189567169,
    0.559892103642,0.596002126247,0.63025888511,0.659377716568,
    0.750002707251,0.840627697935,0.869746529393,0.904003288256,
    0.940113310861,0.964815847334,1.),.UNSPECIFIED.);
#624 = CARTESIAN_POINT('',(-28.03072695294,17.953599609924,
    41.589504960463));
#625 = CARTESIAN_POINT('',(-27.57395251165,17.973706813039,
    41.55411328283));
#626 = CARTESIAN_POINT('',(-27.11507753069,17.954599509016,
    41.51712991198));
#627 = CARTESIAN_POINT('',(-26.65886191039,17.895963017892,
    41.478919830738));
#628 = CARTESIAN_POINT('',(-26.20910865783,17.799413379558,
    41.439842537004));
#629 = CARTESIAN_POINT('',(-25.76880695737,17.667667563145,
    41.400233192389));
#630 = CARTESIAN_POINT('',(-25.34023687652,17.50397488078,
    41.360390232569));
#631 = CARTESIAN_POINT('',(-24.63352583251,17.176891373877,
    41.292611523687));
#632 = CARTESIAN_POINT('',(-24.34851064718,17.027892131935,
    41.264655329405));
#633 = CARTESIAN_POINT('',(-24.07043144,16.865933352236,41.236776523743)
  );
#634 = CARTESIAN_POINT('',(-23.79955970418,16.692130168682,
    41.209037115773));
#635 = CARTESIAN_POINT('',(-23.53603152555,16.507536062194,
    41.181486164986));
#636 = CARTESIAN_POINT('',(-23.27987246631,16.313103204878,
    41.154160307529));
#637 = CARTESIAN_POINT('',(-22.66723154097,15.81226399091,
    41.087504252545));
#638 = CARTESIAN_POINT('',(-22.31915464614,15.495699392117,
    41.048469451023));
#639 = CARTESIAN_POINT('',(-21.98649733216,15.162521417116,
    41.010050109256));
#640 = CARTESIAN_POINT('',(-21.66887801287,14.814947064282,
    40.972296645939));
#641 = CARTESIAN_POINT('',(-21.36582247103,14.454851137452,
    40.935239714399));
#642 = CARTESIAN_POINT('',(-21.07677931103,14.083752993354,
    40.898890942856));
#643 = CARTESIAN_POINT('',(-20.53966057385,13.341383890963,
    40.829426916253));
#644 = CARTESIAN_POINT('',(-20.29030434148,12.971183711041,
    40.796249310775));
#645 = CARTESIAN_POINT('',(-20.05259518892,12.593228629386,
    40.763710863217));
#646 = CARTESIAN_POINT('',(-19.82610603337,12.208409081286,
    40.731810169309));
#647 = CARTESIAN_POINT('',(-19.61044163644,11.81748405352,
    40.700543564507));
#648 = CARTESIAN_POINT('',(-19.40522779702,11.421087852952,
    40.669904515409));
#649 = CARTESIAN_POINT('',(-19.04426351837,10.678566718843,
    40.614365610863));
#650 = CARTESIAN_POINT('',(-18.88571986703,10.333838951863,
    40.589295654255));
#651 = CARTESIAN_POINT('',(-18.73427301779,9.985871698253,
    40.564669160872));
#652 = CARTESIAN_POINT('',(-18.58973533418,9.634957095164,
    40.540481912207));
#653 = CARTESIAN_POINT('',(-18.4519379225,9.281354721002,40.516729988349
    ));
#654 = CARTESIAN_POINT('',(-18.32072722171,8.92529306159,40.493409551604
    ));
#655 = CARTESIAN_POINT('',(-17.8076605557,7.451783169934,40.399268201413
    ));
#656 = CARTESIAN_POINT('',(-17.48195702025,6.315189362231,
    40.332191929448));
#657 = CARTESIAN_POINT('',(-17.21429830459,5.162550784447,
    40.269122677607));
#658 = CARTESIAN_POINT('',(-17.00223059327,3.998249949713,
    40.210025712218));
#659 = CARTESIAN_POINT('',(-16.84405505103,2.825978199699,
    40.154900878572));
#660 = CARTESIAN_POINT('',(-16.73892213702,1.648719757207,
    40.103789479734));
#661 = CARTESIAN_POINT('',(-16.63503917154,-0.711242645597,
    40.009781690058));
#662 = CARTESIAN_POINT('',(-16.63632262664,-1.893185420357,
    39.966915620624));
#663 = CARTESIAN_POINT('',(-16.69088171835,-3.0748215164,39.928273844493
    ));
#664 = CARTESIAN_POINT('',(-16.79982491809,-4.253252900608,
    39.894049374999));
#665 = CARTESIAN_POINT('',(-16.96516883936,-5.424951781155,
    39.86452993701));
#666 = CARTESIAN_POINT('',(-17.18974288749,-6.585768206636,
    39.840090150185));
#667 = CARTESIAN_POINT('',(-17.57135138379,-8.098660721032,
    39.815269821605));
#668 = CARTESIAN_POINT('',(-17.67076831555,-8.464874356748,
    39.809818823706));
#669 = CARTESIAN_POINT('',(-17.77696257328,-8.829216977509,
    39.804971808021));
#670 = CARTESIAN_POINT('',(-17.89010720057,-9.191474474271,
    39.800750242763));
#671 = CARTESIAN_POINT('',(-18.01039324638,-9.551403112911,
    39.797178097019));
#672 = CARTESIAN_POINT('',(-18.13803329081,-9.908728373372,
    39.79428216177));
#673 = CARTESIAN_POINT('',(-18.4323579022,-10.68009460817,
    39.789516205017));
#674 = CARTESIAN_POINT('',(-18.60194764319,-11.09298925268,
    39.787917603439));
#675 = CARTESIAN_POINT('',(-18.78242825926,-11.50135215092,
    39.787345018282));
#676 = CARTESIAN_POINT('',(-18.97422823916,-11.90458432957,
    39.78785410998));
#677 = CARTESIAN_POINT('',(-19.17780798287,-12.30196446609,
    39.789507510373));
#678 = CARTESIAN_POINT('',(-19.39367116169,-12.692643096,39.792375931671
    ));
#679 = CARTESIAN_POINT('',(-19.8634822541,-13.47933614889,
    39.800930617801));
#680 = CARTESIAN_POINT('',(-20.11879995619,-13.87439646314,
    39.806759893302));
#681 = CARTESIAN_POINT('',(-20.38904258051,-14.25972834862,
    39.814123122555));
#682 = CARTESIAN_POINT('',(-20.6748928921,-14.633866775,39.823127558737)
  );
#683 = CARTESIAN_POINT('',(-20.97698800846,-14.99498585818,
    39.833889963368));
#684 = CARTESIAN_POINT('',(-21.29590284206,-15.34091070382,
    39.846534866356));
#685 = CARTESIAN_POINT('',(-21.86216665639,-15.89364401586,
    39.871222445776));
#686 = CARTESIAN_POINT('',(-22.10025059497,-16.10983290972,
    39.882191414169));
#687 = CARTESIAN_POINT('',(-22.34653965739,-16.31686861392,
    39.894142009276));
#688 = CARTESIAN_POINT('',(-22.60109204537,-16.5138003931,
    39.907113396213));
#689 = CARTESIAN_POINT('',(-22.86386476624,-16.69956688351,
    39.921140759149));
#690 = CARTESIAN_POINT('',(-23.13468536094,-16.87303340894,
    39.936251708947));
#691 = CARTESIAN_POINT('',(-23.55199764021,-17.11277432939,
    39.96053822021));
#692 = CARTESIAN_POINT('',(-23.69269266402,-17.18916180553,
    39.968887725806));
#693 = CARTESIAN_POINT('',(-23.83525231369,-17.26206230524,
    39.977511453004));
#694 = CARTESIAN_POINT('',(-23.97961937365,-17.33132997977,
    39.986410179174));
#695 = CARTESIAN_POINT('',(-24.12572362705,-17.39682013242,
    39.995583611633));
#696 = CARTESIAN_POINT('',(-24.27348052352,-17.45839203655,
    40.005030179851));
#697 = CARTESIAN_POINT('',(-24.7003462486,-17.62283721808,
    40.032809448429));
#698 = CARTESIAN_POINT('',(-24.98331287878,-17.71577775281,
    40.051808319869));
#699 = CARTESIAN_POINT('',(-25.27098321672,-17.79384042298,
    40.071720030051));
#700 = CARTESIAN_POINT('',(-25.56253967883,-17.85627124454,
    40.092507332658));
#701 = CARTESIAN_POINT('',(-25.85704574115,-17.90249405981,
    40.114117110746));
#702 = CARTESIAN_POINT('',(-26.15343529238,-17.93216481316,
    40.136477561663));
#703 = CARTESIAN_POINT('',(-26.65050155644,-17.95404514707,
    40.174991138462));
#704 = CARTESIAN_POINT('',(-26.85084354455,-17.95532850003,
    40.190787931706));
#705 = CARTESIAN_POINT('',(-27.0511725306,-17.94907501154,
    40.206857686082));
#706 = CARTESIAN_POINT('',(-27.25115158715,-17.93532812337,
    40.223172177435));
#707 = CARTESIAN_POINT('',(-27.45045919398,-17.91418530187,
    40.239702436075));
#708 = CARTESIAN_POINT('',(-27.64878892162,-17.88579234672,
    40.256418928634));
#709 = CARTESIAN_POINT('',(-28.09894797381,-17.80480107815,
    40.294962715113));
#710 = CARTESIAN_POINT('',(-28.34997508669,-17.74761010753,
    40.31689352695));
#711 = CARTESIAN_POINT('',(-28.59832065453,-17.67916351548,
    40.339021456243));
#712 = CARTESIAN_POINT('',(-28.84348113964,-17.59995610528,
    40.36128869447));
#713 = CARTESIAN_POINT('',(-29.08504878094,-17.51054509345,
    40.383642738381));
#714 = CARTESIAN_POINT('',(-29.32270110934,-17.4115164473,
    40.406036784603));
#715 = CARTESIAN_POINT('',(-29.84770033803,-17.16853299075,
    40.456388039882));
#716 = CARTESIAN_POINT('',(-30.13271552335,-17.01953374881,
    40.484344234164));
#717 = CARTESIAN_POINT('',(-30.41079473053,-16.85757496911,
    40.512223039826));
#718 = CARTESIAN_POINT('',(-30.68166646635,-16.68377178556,
    40.539962447796));
#719 = CARTESIAN_POINT('',(-30.94519464498,-16.49917767907,
    40.567513398583));
#720 = CARTESIAN_POINT('',(-31.20135370422,-16.30474482175,
    40.594839256041));
#721 = CARTESIAN_POINT('',(-31.81399462957,-15.80390560778,
    40.661495311024));
#722 = CARTESIAN_POINT('',(-32.16207152439,-15.48734100899,
    40.700530112547));
#723 = CARTESIAN_POINT('',(-32.49472883837,-15.15416303399,
    40.738949454314));
#724 = CARTESIAN_POINT('',(-32.81234815766,-14.80658868116,
    40.776702917631));
#725 = CARTESIAN_POINT('',(-33.11540369951,-14.44649275433,
    40.81375984917));
#726 = CARTESIAN_POINT('',(-33.4044468595,-14.07539461023,
    40.850108620713));
#727 = CARTESIAN_POINT('',(-33.94156559669,-13.33302550784,
    40.919572647316));
#728 = CARTESIAN_POINT('',(-34.19092182905,-12.96282532791,
    40.952750252794));
#729 = CARTESIAN_POINT('',(-34.42863098161,-12.58487024626,
    40.985288700352));
#730 = CARTESIAN_POINT('',(-34.65512013716,-12.20005069816,
    41.017189394261));
#731 = CARTESIAN_POINT('',(-34.87078453409,-11.80912567039,
    41.048455999062));
#732 = CARTESIAN_POINT('',(-35.07599837351,-11.41272946983,
    41.07909504816));
#733 = CARTESIAN_POINT('',(-35.43696265217,-10.67020833572,
    41.134633952706));
#734 = CARTESIAN_POINT('',(-35.5955063035,-10.32548056874,
    41.159703909314));
#735 = CARTESIAN_POINT('',(-35.74695315275,-9.977513315132,
    41.184330402698));
#736 = CARTESIAN_POINT('',(-35.89149083636,-9.626598712044,
    41.208517651362));
#737 = CARTESIAN_POINT('',(-36.02928824803,-9.272996337881,
    41.23226957522));
#738 = CARTESIAN_POINT('',(-36.16049894882,-8.916934678469,
    41.255590011965));
#739 = CARTESIAN_POINT('',(-36.67356561483,-7.443424786815,
    41.349731362156));
#740 = CARTESIAN_POINT('',(-36.99926915029,-6.306830979101,
    41.416807634122));
#741 = CARTESIAN_POINT('',(-37.26692786593,-5.15419240134,
    41.479876885961));
#742 = CARTESIAN_POINT('',(-37.47899557728,-3.989891566578,
    41.538973851353));
#743 = CARTESIAN_POINT('',(-37.63717111949,-2.817619816586,
    41.594098684997));
#744 = CARTESIAN_POINT('',(-37.74230403352,-1.640361374084,
    41.645210083836));
#745 = CARTESIAN_POINT('',(-37.846186999,0.719601028718,41.739217873511)
  );
#746 = CARTESIAN_POINT('',(-37.84490354389,1.901543803479,
    41.782083942946));
#747 = CARTESIAN_POINT('',(-37.79034445218,3.083179899521,
    41.820725719076));
#748 = CARTESIAN_POINT('',(-37.68140125245,4.26161128373,41.854950188571
    ));
#749 = CARTESIAN_POINT('',(-37.51605733117,5.433310164277,
    41.884469626559));
#750 = CARTESIAN_POINT('',(-37.29148328305,6.594126589757,
    41.908909413384));
#751 = CARTESIAN_POINT('',(-36.90987478675,8.107019104154,
    41.933729741965));
#752 = CARTESIAN_POINT('',(-36.81045785498,8.47323273987,41.939180739863
    ));
#753 = CARTESIAN_POINT('',(-36.70426359726,8.837575360631,
    41.944027755548));
#754 = CARTESIAN_POINT('',(-36.59111896997,9.199832857393,
    41.948249320806));
#755 = CARTESIAN_POINT('',(-36.47083292415,9.559761496033,41.95182146655
    ));
#756 = CARTESIAN_POINT('',(-36.34319287972,9.917086756495,41.9547174018)
  );
#757 = CARTESIAN_POINT('',(-36.04886826834,10.688452991297,
    41.959483358552));
#758 = CARTESIAN_POINT('',(-35.87927852734,11.101347635806,
    41.96108196013));
#759 = CARTESIAN_POINT('',(-35.69879791127,11.509710534049,
    41.961654545287));
#760 = CARTESIAN_POINT('',(-35.50699793137,11.91294271269,41.96114545359
    ));
#761 = CARTESIAN_POINT('',(-35.30341818766,12.31032284922,
    41.959492053197));
#762 = CARTESIAN_POINT('',(-35.08755500885,12.701001479127,
    41.956623631899));
#763 = CARTESIAN_POINT('',(-34.61774391643,13.48769453202,
    41.948068945768));
#764 = CARTESIAN_POINT('',(-34.36242621435,13.882754846264,
    41.942239670267));
#765 = CARTESIAN_POINT('',(-34.09218359002,14.268086731743,
    41.934876441014));
#766 = CARTESIAN_POINT('',(-33.80633327843,14.642225158123,
    41.925872004832));
#767 = CARTESIAN_POINT('',(-33.50423816207,15.003344241305,
    41.915109600201));
#768 = CARTESIAN_POINT('',(-33.18532332847,15.349269086947,
    41.902464697213));
#769 = CARTESIAN_POINT('',(-32.61905951414,15.902002398984,
    41.877777117793));
#770 = CARTESIAN_POINT('',(-32.38097557556,16.118191292847,41.8668081494
    ));
#771 = CARTESIAN_POINT('',(-32.13468651315,16.325226997042,
    41.854857554293));
#772 = CARTESIAN_POINT('',(-31.88013412516,16.522158776224,
    41.841886167356));
#773 = CARTESIAN_POINT('',(-31.6173614043,16.707925266633,41.82785880442
    ));
#774 = CARTESIAN_POINT('',(-31.34654080959,16.88139179207,
    41.812747854622));
#775 = CARTESIAN_POINT('',(-30.67130323483,17.269307166669,
    41.773450728494));
#776 = CARTESIAN_POINT('',(-30.25877406778,17.470024118585,
    41.748123823767));
#777 = CARTESIAN_POINT('',(-29.83175156402,17.639948598462,
    41.720531347612));
#778 = CARTESIAN_POINT('',(-29.39222146306,17.77564351801,
    41.690705386663));
#779 = CARTESIAN_POINT('',(-28.94292265412,17.874139764561,
    41.658754600628));
#780 = CARTESIAN_POINT('',(-28.48750143742,17.933493387857,
    41.624896677177));
#781 = CARTESIAN_POINT('',(-28.03072695294,17.953599609924,
    41.589504960463));
#782 = PCURVE('',#82,#783);
#783 = DEFINITIONAL_REPRESENTATION('',(#784),#943);
#784 = B_SPLINE_CURVE_WITH_KNOTS('',7,(#785,#786,#787,#788,#789,#790,
    #791,#792,#793,#794,#795,#796,#797,#798,#799,#800,#801,#802,#803,
    #804,#805,#806,#807,#808,#809,#810,#811,#812,#813,#814,#815,#816,
    #817,#818,#819,#820,#821,#822,#823,#824,#825,#826,#827,#828,#829,
    #830,#831,#832,#833,#834,#835,#836,#837,#838,#839,#840,#841,#842,
    #843,#844,#845,#846,#847,#848,#849,#850,#851,#852,#853,#854,#855,
    #856,#857,#858,#859,#860,#861,#862,#863,#864,#865,#866,#867,#868,
    #869,#870,#871,#872,#873,#874,#875,#876,#877,#878,#879,#880,#881,
    #882,#883,#884,#885,#886,#887,#888,#889,#890,#891,#892,#893,#894,
    #895,#896,#897,#898,#899,#900,#901,#902,#903,#904,#905,#906,#907,
    #908,#909,#910,#911,#912,#913,#914,#915,#916,#917,#918,#919,#920,
    #921,#922,#923,#924,#925,#926,#927,#928,#929,#930,#931,#932,#933,
    #934,#935,#936,#937,#938,#939,#940,#941,#942),.UNSPECIFIED.,.F.,.F.,
  (8,6,6,6,6,6,6,6,6,6,6,6,6,6,6,6,6,6,6,6,6,6,6,6,6,6,8),(0.,
    3.51840220509E-02,5.988646681921E-02,9.599635537209E-02,
    0.130252987063,0.159371710422,0.249996364676,0.34062101893,
    0.36973974229,0.40399637398,0.440106262534,0.464808707303,
    0.477117459074,0.499998634517,0.515403699212,0.535189567169,
    0.559892103642,0.596002126247,0.63025888511,0.659377716568,
    0.750002707251,0.840627697935,0.869746529393,0.904003288256,
    0.940113310861,0.964815847334,1.),.UNSPECIFIED.);
#785 = CARTESIAN_POINT('',(3.552713678801E-15,16.774308159398));
#786 = CARTESIAN_POINT('',(0.457216786478,16.774308650397));
#787 = CARTESIAN_POINT('',(0.914807570713,16.735040197398));
#788 = CARTESIAN_POINT('',(1.368003218767,16.65639774778));
#789 = CARTESIAN_POINT('',(1.813075470173,16.540163020294));
#790 = CARTESIAN_POINT('',(2.247157514714,16.389181808939));
#791 = CARTESIAN_POINT('',(2.668114383451,16.206800551354));
#792 = CARTESIAN_POINT('',(3.359757806946,15.848954921294));
#793 = CARTESIAN_POINT('',(3.637944822429,15.687565905609));
#794 = CARTESIAN_POINT('',(3.908632657006,15.513534908374));
#795 = CARTESIAN_POINT('',(4.171599119608,15.327987923955));
#796 = CARTESIAN_POINT('',(4.426754584264,15.131983398659));
#797 = CARTESIAN_POINT('',(4.674115386545,14.92647370757));
#798 = CARTESIAN_POINT('',(5.264138560378,14.399177324124));
#799 = CARTESIAN_POINT('',(5.59795736972,14.067611836701));
#800 = CARTESIAN_POINT('',(5.915640920345,13.720127141741));
#801 = CARTESIAN_POINT('',(6.217667924683,13.358921312078));
#802 = CARTESIAN_POINT('',(6.504594588197,12.985846483485));
#803 = CARTESIAN_POINT('',(6.777038588757,12.602396294476));
#804 = CARTESIAN_POINT('',(7.280991040463,11.837124873057));
#805 = CARTESIAN_POINT('',(7.513825996739,11.456317064615));
#806 = CARTESIAN_POINT('',(7.734684108842,11.068274052468));
#807 = CARTESIAN_POINT('',(7.944031204472,10.673866628942));
#808 = CARTESIAN_POINT('',(8.142295517105,10.273835665422));
#809 = CARTESIAN_POINT('',(8.329878780312,9.868798399139));
#810 = CARTESIAN_POINT('',(8.657840504166,9.111121718258));
#811 = CARTESIAN_POINT('',(8.801070916927,8.759755283371));
#812 = CARTESIAN_POINT('',(8.93706893253,8.405464587073));
#813 = CARTESIAN_POINT('',(9.066034853016,8.048533232331));
#814 = CARTESIAN_POINT('',(9.188148823997,7.689213119105));
#815 = CARTESIAN_POINT('',(9.303574305934,7.327725759125));
#816 = CARTESIAN_POINT('',(9.751345072349,5.833078594969));
#817 = CARTESIAN_POINT('',(10.026750298416,4.683261114598));
#818 = CARTESIAN_POINT('',(10.243461268819,3.51996698396));
#819 = CARTESIAN_POINT('',(10.404122151908,2.347466566651));
#820 = CARTESIAN_POINT('',(10.510592471089,1.169372924712));
#821 = CARTESIAN_POINT('',(10.563852180493,-1.136996575221E-02));
#822 = CARTESIAN_POINT('',(10.563852180495,-2.373617669353));
#823 = CARTESIAN_POINT('',(10.510592471081,-3.554360559831));
#824 = CARTESIAN_POINT('',(10.404122151925,-4.732454201738));
#825 = CARTESIAN_POINT('',(10.2434612688,-5.904954619088));
#826 = CARTESIAN_POINT('',(10.026750298429,-7.068248749694));
#827 = CARTESIAN_POINT('',(9.751345072346,-8.218066230081));
#828 = CARTESIAN_POINT('',(9.303574305935,-9.712713394233));
#829 = CARTESIAN_POINT('',(9.188148823998,-10.07420075421));
#830 = CARTESIAN_POINT('',(9.066034853017,-10.43352086744));
#831 = CARTESIAN_POINT('',(8.937068932531,-10.79045222218));
#832 = CARTESIAN_POINT('',(8.801070916928,-11.14474291848));
#833 = CARTESIAN_POINT('',(8.657840504167,-11.49610935336));
#834 = CARTESIAN_POINT('',(8.329878780314,-12.25378603424));
#835 = CARTESIAN_POINT('',(8.142295517106,-12.65882330052));
#836 = CARTESIAN_POINT('',(7.944031204474,-13.05885426405));
#837 = CARTESIAN_POINT('',(7.734684108843,-13.45326168757));
#838 = CARTESIAN_POINT('',(7.51382599674,-13.84130469972));
#839 = CARTESIAN_POINT('',(7.280991040465,-14.22211250816));
#840 = CARTESIAN_POINT('',(6.777038588757,-14.98738392958));
#841 = CARTESIAN_POINT('',(6.5045945882,-15.37083411859));
#842 = CARTESIAN_POINT('',(6.217667924684,-15.74390894718));
#843 = CARTESIAN_POINT('',(5.915640920346,-16.10511477685));
#844 = CARTESIAN_POINT('',(5.597957369723,-16.45259947181));
#845 = CARTESIAN_POINT('',(5.264138560379,-16.78416495923));
#846 = CARTESIAN_POINT('',(4.674115386548,-17.31146134268));
#847 = CARTESIAN_POINT('',(4.426754584264,-17.51697103377));
#848 = CARTESIAN_POINT('',(4.17159911961,-17.71297555906));
#849 = CARTESIAN_POINT('',(3.908632657008,-17.89852254348));
#850 = CARTESIAN_POINT('',(3.637944822429,-18.07255354072));
#851 = CARTESIAN_POINT('',(3.359757806948,-18.2339425564));
#852 = CARTESIAN_POINT('',(2.9323063227,-18.45509968602));
#853 = CARTESIAN_POINT('',(2.788388170729,-18.52522601323));
#854 = CARTESIAN_POINT('',(2.642760541189,-18.59178673803));
#855 = CARTESIAN_POINT('',(2.495487008184,-18.65463866887));
#856 = CARTESIAN_POINT('',(2.346644083858,-18.71364033694));
#857 = CARTESIAN_POINT('',(2.196322425429,-18.76865486995));
#858 = CARTESIAN_POINT('',(1.762637967283,-18.91416897831));
#859 = CARTESIAN_POINT('',(1.475857903619,-18.9945757683));
#860 = CARTESIAN_POINT('',(1.185032956442,-19.05991223518));
#861 = CARTESIAN_POINT('',(0.891013075841,-19.10946107869));
#862 = CARTESIAN_POINT('',(0.594759217063,-19.14268788338));
#863 = CARTESIAN_POINT('',(0.297351590304,-19.15929581014));
#864 = CARTESIAN_POINT('',(-0.200196015332,-19.1592958304));
#865 = CARTESIAN_POINT('',(-0.400400624455,-19.15176763804));
#866 = CARTESIAN_POINT('',(-0.60026080154,-19.13671046736));
#867 = CARTESIAN_POINT('',(-0.799441855484,-19.11418253492));
#868 = CARTESIAN_POINT('',(-0.997626863354,-19.08429535207));
#869 = CARTESIAN_POINT('',(-1.194516103838,-19.04720805306));
#870 = CARTESIAN_POINT('',(-1.640677962174,-18.94649879819));
#871 = CARTESIAN_POINT('',(-1.888947176271,-18.8783239065));
#872 = CARTESIAN_POINT('',(-2.134042458678,-18.79902220684));
#873 = CARTESIAN_POINT('',(-2.375482518496,-18.70911016757));
#874 = CARTESIAN_POINT('',(-2.612884493446,-18.60916239795));
#875 = CARTESIAN_POINT('',(-2.845951995081,-18.49977847943));
#876 = CARTESIAN_POINT('',(-3.359757806946,-18.2339425564));
#877 = CARTESIAN_POINT('',(-3.637944822426,-18.07255354072));
#878 = CARTESIAN_POINT('',(-3.908632657006,-17.89852254348));
#879 = CARTESIAN_POINT('',(-4.171599119608,-17.71297555906));
#880 = CARTESIAN_POINT('',(-4.426754584261,-17.51697103377));
#881 = CARTESIAN_POINT('',(-4.674115386545,-17.31146134268));
#882 = CARTESIAN_POINT('',(-5.264138560377,-16.78416495923));
#883 = CARTESIAN_POINT('',(-5.59795736972,-16.45259947181));
#884 = CARTESIAN_POINT('',(-5.915640920344,-16.10511477685));
#885 = CARTESIAN_POINT('',(-6.217667924682,-15.74390894719));
#886 = CARTESIAN_POINT('',(-6.504594588197,-15.37083411859));
#887 = CARTESIAN_POINT('',(-6.777038588755,-14.98738392958));
#888 = CARTESIAN_POINT('',(-7.280991040463,-14.22211250817));
#889 = CARTESIAN_POINT('',(-7.513825996736,-13.84130469972));
#890 = CARTESIAN_POINT('',(-7.734684108842,-13.45326168758));
#891 = CARTESIAN_POINT('',(-7.944031204472,-13.05885426405));
#892 = CARTESIAN_POINT('',(-8.142295517102,-12.65882330053));
#893 = CARTESIAN_POINT('',(-8.329878780313,-12.25378603425));
#894 = CARTESIAN_POINT('',(-8.657840504165,-11.49610935337));
#895 = CARTESIAN_POINT('',(-8.801070916927,-11.14474291848));
#896 = CARTESIAN_POINT('',(-8.93706893253,-10.79045222218));
#897 = CARTESIAN_POINT('',(-9.066034853015,-10.43352086744));
#898 = CARTESIAN_POINT('',(-9.188148823997,-10.07420075421));
#899 = CARTESIAN_POINT('',(-9.303574305934,-9.712713394237));
#900 = CARTESIAN_POINT('',(-9.751345072346,-8.218066230083));
#901 = CARTESIAN_POINT('',(-10.02675029842,-7.068248749701));
#902 = CARTESIAN_POINT('',(-10.2434612688,-5.904954619087));
#903 = CARTESIAN_POINT('',(-10.40412215192,-4.732454201748));
#904 = CARTESIAN_POINT('',(-10.51059247108,-3.554360559832));
#905 = CARTESIAN_POINT('',(-10.56385218049,-2.373617669357));
#906 = CARTESIAN_POINT('',(-10.56385218049,-1.136996575959E-02));
#907 = CARTESIAN_POINT('',(-10.51059247108,1.169372924721));
#908 = CARTESIAN_POINT('',(-10.40412215192,2.347466566625));
#909 = CARTESIAN_POINT('',(-10.2434612688,3.519966983978));
#910 = CARTESIAN_POINT('',(-10.02675029842,4.683261114583));
#911 = CARTESIAN_POINT('',(-9.751345072348,5.833078594969));
#912 = CARTESIAN_POINT('',(-9.303574305935,7.327725759122));
#913 = CARTESIAN_POINT('',(-9.188148823998,7.689213119102));
#914 = CARTESIAN_POINT('',(-9.066034853016,8.048533232329));
#915 = CARTESIAN_POINT('',(-8.937068932531,8.40546458707));
#916 = CARTESIAN_POINT('',(-8.801070916928,8.759755283368));
#917 = CARTESIAN_POINT('',(-8.657840504167,9.111121718255));
#918 = CARTESIAN_POINT('',(-8.329878780314,9.868798399136));
#919 = CARTESIAN_POINT('',(-8.142295517104,10.27383566542));
#920 = CARTESIAN_POINT('',(-7.944031204474,10.67386662894));
#921 = CARTESIAN_POINT('',(-7.734684108844,11.068274052465));
#922 = CARTESIAN_POINT('',(-7.513825996738,11.456317064612));
#923 = CARTESIAN_POINT('',(-7.280991040465,11.837124873056));
#924 = CARTESIAN_POINT('',(-6.777038588757,12.602396294475));
#925 = CARTESIAN_POINT('',(-6.5045945882,12.985846483482));
#926 = CARTESIAN_POINT('',(-6.217667924683,13.358921312077));
#927 = CARTESIAN_POINT('',(-5.915640920345,13.72012714174));
#928 = CARTESIAN_POINT('',(-5.597957369723,14.067611836698));
#929 = CARTESIAN_POINT('',(-5.264138560379,14.399177324123));
#930 = CARTESIAN_POINT('',(-4.674115386548,14.926473707568));
#931 = CARTESIAN_POINT('',(-4.426754584263,15.13198339866));
#932 = CARTESIAN_POINT('',(-4.17159911961,15.327987923953));
#933 = CARTESIAN_POINT('',(-3.908632657008,15.513534908373));
#934 = CARTESIAN_POINT('',(-3.637944822429,15.687565905609));
#935 = CARTESIAN_POINT('',(-3.359757806948,15.848954921293));
#936 = CARTESIAN_POINT('',(-2.668114383452,16.206800551354));
#937 = CARTESIAN_POINT('',(-2.247157514714,16.389181808939));
#938 = CARTESIAN_POINT('',(-1.813075470174,16.540163020293));
#939 = CARTESIAN_POINT('',(-1.368003218768,16.656397747779));
#940 = CARTESIAN_POINT('',(-0.914807570712,16.735040197399));
#941 = CARTESIAN_POINT('',(-0.457216786478,16.774308650396));
#942 = CARTESIAN_POINT('',(1.7763568394E-15,16.774308159398));
#943 = ( GEOMETRIC_REPRESENTATION_CONTEXT(2) 
PARAMETRIC_REPRESENTATION_CONTEXT() REPRESENTATION_CONTEXT('2D SPACE',''
  ) );
#944 = PCURVE('',#469,#945);
#945 = DEFINITIONAL_REPRESENTATION('',(#946),#1072);
#946 = B_SPLINE_CURVE_WITH_KNOTS('',8,(#947,#948,#949,#950,#951,#952,
    #953,#954,#955,#956,#957,#958,#959,#960,#961,#962,#963,#964,#965,
    #966,#967,#968,#969,#970,#971,#972,#973,#974,#975,#976,#977,#978,
    #979,#980,#981,#982,#983,#984,#985,#986,#987,#988,#989,#990,#991,
    #992,#993,#994,#995,#996,#997,#998,#999,#1000,#1001,#1002,#1003,
    #1004,#1005,#1006,#1007,#1008,#1009,#1010,#1011,#1012,#1013,#1014,
    #1015,#1016,#1017,#1018,#1019,#1020,#1021,#1022,#1023,#1024,#1025,
    #1026,#1027,#1028,#1029,#1030,#1031,#1032,#1033,#1034,#1035,#1036,
    #1037,#1038,#1039,#1040,#1041,#1042,#1043,#1044,#1045,#1046,#1047,
    #1048,#1049,#1050,#1051,#1052,#1053,#1054,#1055,#1056,#1057,#1058,
    #1059,#1060,#1061,#1062,#1063,#1064,#1065,#1066,#1067,#1068,#1069,
    #1070,#1071),.UNSPECIFIED.,.F.,.F.,(9,7,7,7,7,8,8,8,8,8,8,8,8,8,8,8,
    9),(0.,6.25E-02,0.1796875,0.2822265625,0.327087402344,0.348115921021
    ,0.358301609755,0.438513908535,0.508699669968,0.631524752476,
    0.643039603961,0.648617110149,0.659597825457,0.744698369093,
    0.872349184546,0.936174592273,1.),.UNSPECIFIED.);
#947 = CARTESIAN_POINT('',(6.28318530718,-5.130734440697));
#948 = CARTESIAN_POINT('',(6.201842782288,-5.1307344407));
#949 = CARTESIAN_POINT('',(6.123966457279,-5.130734440711));
#950 = CARTESIAN_POINT('',(6.050602146279,-5.130734439561));
#951 = CARTESIAN_POINT('',(5.981017866172,-5.130734439706));
#952 = CARTESIAN_POINT('',(5.916350137559,-5.130734439939));
#953 = CARTESIAN_POINT('',(5.855070738762,-5.130734440667));
#954 = CARTESIAN_POINT('',(5.797271815685,-5.130734440711));
#955 = CARTESIAN_POINT('',(5.639452244232,-5.130734440697));
#956 = CARTESIAN_POINT('',(5.546860968722,-5.130734440697));
#957 = CARTESIAN_POINT('',(5.461652322916,-5.130734440697));
#958 = CARTESIAN_POINT('',(5.381687294174,-5.130734440697));
#959 = CARTESIAN_POINT('',(5.305447526641,-5.130734440697));
#960 = CARTESIAN_POINT('',(5.231843330989,-5.130734440697));
#961 = CARTESIAN_POINT('',(5.160021694157,-5.130734440697));
#962 = CARTESIAN_POINT('',(5.02718409883,-5.130734440697));
#963 = CARTESIAN_POINT('',(4.965916766115,-5.130734440701));
#964 = CARTESIAN_POINT('',(4.904888481564,-5.130734440696));
#965 = CARTESIAN_POINT('',(4.84361518433,-5.130734440692));
#966 = CARTESIAN_POINT('',(4.781635180808,-5.130734440694));
#967 = CARTESIAN_POINT('',(4.718490557934,-5.130734440699));
#968 = CARTESIAN_POINT('',(4.653667391064,-5.130734440697));
#969 = CARTESIAN_POINT('',(4.557107564243,-5.130734440697));
#970 = CARTESIAN_POINT('',(4.527268043944,-5.130734440697));
#971 = CARTESIAN_POINT('',(4.496925835937,-5.130734440697));
#972 = CARTESIAN_POINT('',(4.466022657708,-5.130734440697));
#973 = CARTESIAN_POINT('',(4.434492293837,-5.130734440697));
#974 = CARTESIAN_POINT('',(4.402260595994,-5.130734440697));
#975 = CARTESIAN_POINT('',(4.369245482943,-5.130734440697));
#976 = CARTESIAN_POINT('',(4.319470331797,-5.130734440697));
#977 = CARTESIAN_POINT('',(4.303392491521,-5.130734440697));
#978 = CARTESIAN_POINT('',(4.287112101908,-5.130734440697));
#979 = CARTESIAN_POINT('',(4.270617845157,-5.130734440697));
#980 = CARTESIAN_POINT('',(4.25389840347,-5.130734440697));
#981 = CARTESIAN_POINT('',(4.236942459044,-5.130734440697));
#982 = CARTESIAN_POINT('',(4.219738694081,-5.130734440697));
#983 = CARTESIAN_POINT('',(4.20227579078,-5.130734440697));
#984 = CARTESIAN_POINT('',(4.193814164635,-5.1307344407));
#985 = CARTESIAN_POINT('',(4.185332139459,-5.130734440711));
#986 = CARTESIAN_POINT('',(4.176540275163,-5.130734439561));
#987 = CARTESIAN_POINT('',(4.168344847276,-5.130734439706));
#988 = CARTESIAN_POINT('',(4.159599072562,-5.130734439939));
#989 = CARTESIAN_POINT('',(4.151221679233,-5.130734440667));
#990 = CARTESIAN_POINT('',(4.142715495656,-5.130734440711));
#991 = CARTESIAN_POINT('',(4.13425549748,-5.130734440697));
#992 = CARTESIAN_POINT('',(4.067608314537,-5.130734440697));
#993 = CARTESIAN_POINT('',(4.001732415368,-5.130734440697));
#994 = CARTESIAN_POINT('',(3.93625773776,-5.130734440697));
#995 = CARTESIAN_POINT('',(3.87078234514,-5.130734440697));
#996 = CARTESIAN_POINT('',(3.804881474967,-5.130734440697));
#997 = CARTESIAN_POINT('',(3.738116587133,-5.130734440697));
#998 = CARTESIAN_POINT('',(3.670044412355,-5.130734440697));
#999 = CARTESIAN_POINT('',(3.60022600057,-5.130734440697));
#1000 = CARTESIAN_POINT('',(3.539143226704,-5.130734440699));
#1001 = CARTESIAN_POINT('',(3.476702539603,-5.130734440698));
#1002 = CARTESIAN_POINT('',(3.412784107991,-5.130734440695));
#1003 = CARTESIAN_POINT('',(3.347048392292,-5.130734440693));
#1004 = CARTESIAN_POINT('',(3.279530735897,-5.130734440693));
#1005 = CARTESIAN_POINT('',(3.210842309851,-5.130734440696));
#1006 = CARTESIAN_POINT('',(3.141977410976,-5.130734440698));
#1007 = CARTESIAN_POINT('',(3.073727113408,-5.130734440697));
#1008 = CARTESIAN_POINT('',(2.95428889992,-5.1307344407));
#1009 = CARTESIAN_POINT('',(2.836574730747,-5.130734440711));
#1010 = CARTESIAN_POINT('',(2.725089219763,-5.130734439561));
#1011 = CARTESIAN_POINT('',(2.620238329167,-5.130734439706));
#1012 = CARTESIAN_POINT('',(2.51775258292,-5.130734439939));
#1013 = CARTESIAN_POINT('',(2.417535102097,-5.130734440667));
#1014 = CARTESIAN_POINT('',(2.317434550137,-5.130734440711));
#1015 = CARTESIAN_POINT('',(2.216241314945,-5.130734440697));
#1016 = CARTESIAN_POINT('',(2.206754012815,-5.130734440697));
#1017 = CARTESIAN_POINT('',(2.197256786595,-5.130734440697));
#1018 = CARTESIAN_POINT('',(2.187748460197,-5.130734440697));
#1019 = CARTESIAN_POINT('',(2.178227857534,-5.130734440697));
#1020 = CARTESIAN_POINT('',(2.16869380252,-5.130734440697));
#1021 = CARTESIAN_POINT('',(2.159145119068,-5.130734440697));
#1022 = CARTESIAN_POINT('',(2.149580631091,-5.130734440697));
#1023 = CARTESIAN_POINT('',(2.139999162502,-5.130734440697));
#1024 = CARTESIAN_POINT('',(2.135358608691,-5.130734440697));
#1025 = CARTESIAN_POINT('',(2.130713673488,-5.130734440697));
#1026 = CARTESIAN_POINT('',(2.126064356892,-5.130734440697));
#1027 = CARTESIAN_POINT('',(2.121410658904,-5.130734440697));
#1028 = CARTESIAN_POINT('',(2.116752579522,-5.130734440697));
#1029 = CARTESIAN_POINT('',(2.112090118748,-5.130734440697));
#1030 = CARTESIAN_POINT('',(2.107423276582,-5.130734440697));
#1031 = CARTESIAN_POINT('',(2.102752053023,-5.130734440697));
#1032 = CARTESIAN_POINT('',(2.093563181887,-5.130734440696));
#1033 = CARTESIAN_POINT('',(2.084275230187,-5.130734440696));
#1034 = CARTESIAN_POINT('',(2.075206378529,-5.13073444071));
#1035 = CARTESIAN_POINT('',(2.066155972292,-5.130734440696));
#1036 = CARTESIAN_POINT('',(2.057138721684,-5.130734440689));
#1037 = CARTESIAN_POINT('',(2.048248200469,-5.130734440711));
#1038 = CARTESIAN_POINT('',(2.039386921953,-5.130734440702));
#1039 = CARTESIAN_POINT('',(2.030600270766,-5.130734440697));
#1040 = CARTESIAN_POINT('',(1.962496436202,-5.130734440697));
#1041 = CARTESIAN_POINT('',(1.898222568611,-5.130734440697));
#1042 = CARTESIAN_POINT('',(1.836992276934,-5.130734440697));
#1043 = CARTESIAN_POINT('',(1.778209489475,-5.130734440697));
#1044 = CARTESIAN_POINT('',(1.721418243251,-5.130734440697));
#1045 = CARTESIAN_POINT('',(1.666252473333,-5.130734440697));
#1046 = CARTESIAN_POINT('',(1.612385802186,-5.130734440697));
#1047 = CARTESIAN_POINT('',(1.559481329014,-5.130734440697));
#1048 = CARTESIAN_POINT('',(1.480122172657,-5.130734440697));
#1049 = CARTESIAN_POINT('',(1.402986297219,-5.130734440697));
#1050 = CARTESIAN_POINT('',(1.327022183438,-5.130734440697));
#1051 = CARTESIAN_POINT('',(1.251362691876,-5.130734440697));
#1052 = CARTESIAN_POINT('',(1.175178664898,-5.130734440697));
#1053 = CARTESIAN_POINT('',(1.097532528657,-5.130734440697));
#1054 = CARTESIAN_POINT('',(1.017231895067,-5.130734440697));
#1055 = CARTESIAN_POINT('',(0.932683163792,-5.130734440697));
#1056 = CARTESIAN_POINT('',(0.890411974828,-5.130734440697));
#1057 = CARTESIAN_POINT('',(0.847060798069,-5.130734440697));
#1058 = CARTESIAN_POINT('',(0.80244180564,-5.130734440697));
#1059 = CARTESIAN_POINT('',(0.756314681638,-5.130734440697));
#1060 = CARTESIAN_POINT('',(0.708386622131,-5.130734440697));
#1061 = CARTESIAN_POINT('',(0.658312335159,-5.130734440697));
#1062 = CARTESIAN_POINT('',(0.605694040735,-5.130734440697));
#1063 = CARTESIAN_POINT('',(0.550081470845,-5.130734440697));
#1064 = CARTESIAN_POINT('',(0.494464056711,-5.1307344407));
#1065 = CARTESIAN_POINT('',(0.435874904534,-5.130734440711));
#1066 = CARTESIAN_POINT('',(0.373688057773,-5.130734439561));
#1067 = CARTESIAN_POINT('',(0.308040601341,-5.130734439706));
#1068 = CARTESIAN_POINT('',(0.237254209549,-5.130734439939));
#1069 = CARTESIAN_POINT('',(0.162516171726,-5.130734440667));
#1070 = CARTESIAN_POINT('',(8.306771324169E-02,-5.130734440711));
#1071 = CARTESIAN_POINT('',(0.,-5.130734440697));
#1072 = ( GEOMETRIC_REPRESENTATION_CONTEXT(2) 
PARAMETRIC_REPRESENTATION_CONTEXT() REPRESENTATION_CONTEXT('2D SPACE',''
  ) );
#1073 = ADVANCED_FACE('',(#1074),#469,.T.);
#1074 = FACE_BOUND('',#1075,.T.);
#1075 = EDGE_LOOP('',(#1076,#1077,#1097,#1098));
#1076 = ORIENTED_EDGE('',*,*,#143,.T.);
#1077 = ORIENTED_EDGE('',*,*,#1078,.T.);
#1078 = EDGE_CURVE('',#144,#620,#1079,.T.);
#1079 = SEAM_CURVE('',#1080,(#1083,#1090),.PCURVE_S1.);
#1080 = B_SPLINE_CURVE_WITH_KNOTS('',1,(#1081,#1082),.UNSPECIFIED.,.F.,
  .F.,(2,2),(1.,5.130734440697),.PIECEWISE_BEZIER_KNOTS.);
#1081 = CARTESIAN_POINT('',(-28.03072695294,17.953599609924,
    37.458770519767));
#1082 = CARTESIAN_POINT('',(-28.03072695294,17.953599609924,
    41.589504960463));
#1083 = PCURVE('',#469,#1084);
#1084 = DEFINITIONAL_REPRESENTATION('',(#1085),#1089);
#1085 = B_SPLINE_CURVE_WITH_KNOTS('',2,(#1086,#1087,#1088),
  .UNSPECIFIED.,.F.,.F.,(3,3),(1.,5.130734440697),
  .PIECEWISE_BEZIER_KNOTS.);
#1086 = CARTESIAN_POINT('',(6.28318530718,-1.));
#1087 = CARTESIAN_POINT('',(6.28318530718,-3.065367220348));
#1088 = CARTESIAN_POINT('',(6.28318530718,-5.130734440697));
#1089 = ( GEOMETRIC_REPRESENTATION_CONTEXT(2) 
PARAMETRIC_REPRESENTATION_CONTEXT() REPRESENTATION_CONTEXT('2D SPACE',''
  ) );
#1090 = PCURVE('',#469,#1091);
#1091 = DEFINITIONAL_REPRESENTATION('',(#1092),#1096);
#1092 = B_SPLINE_CURVE_WITH_KNOTS('',2,(#1093,#1094,#1095),
  .UNSPECIFIED.,.F.,.F.,(3,3),(1.,5.130734440697),
  .PIECEWISE_BEZIER_KNOTS.);
#1093 = CARTESIAN_POINT('',(8.881784197001E-16,-1.));
#1094 = CARTESIAN_POINT('',(1.7763568394E-15,-3.065367220348));
#1095 = CARTESIAN_POINT('',(8.881784197001E-16,-5.130734440697));
#1096 = ( GEOMETRIC_REPRESENTATION_CONTEXT(2) 
PARAMETRIC_REPRESENTATION_CONTEXT() REPRESENTATION_CONTEXT('2D SPACE',''
  ) );
#1097 = ORIENTED_EDGE('',*,*,#619,.F.);
#1098 = ORIENTED_EDGE('',*,*,#1078,.F.);
#1099 = ( GEOMETRIC_REPRESENTATION_CONTEXT(3) 
GLOBAL_UNCERTAINTY_ASSIGNED_CONTEXT((#1103)) 
GLOBAL_UNIT_ASSIGNED_CONTEXT((#1100,#1101,#1102)) REPRESENTATION_CONTEXT
('Context #1','3D Context with UNIT and UNCERTAINTY') );
#1100 = ( LENGTH_UNIT() NAMED_UNIT(*) SI_UNIT(.MILLI.,.METRE.) );
#1101 = ( NAMED_UNIT(*) PLANE_ANGLE_UNIT() SI_UNIT($,.RADIAN.) );
#1102 = ( NAMED_UNIT(*) SI_UNIT($,.STERADIAN.) SOLID_ANGLE_UNIT() );
#1103 = UNCERTAINTY_MEASURE_WITH_UNIT(LENGTH_MEASURE(2.E-05),#1100,
  'distance_accuracy_value','confusion accuracy');
#1104 = PRODUCT_RELATED_PRODUCT_CATEGORY('part',$,(#7));
ENDSEC;
END-ISO-10303-21;
