ISO-10303-21;
HEADER;
FILE_DESCRIPTION(('Open CASCADE Model'),'2;1');
FILE_NAME('Open CASCADE Shape Model','2026-10-04T12:49:57',('Author'),(
    'Open CASCADE'),'Open CASCADE STEP processor 7.9','Open CASCADE 7.9'
  ,'Unknown');
FILE_SCHEMA(('AUTOMOTIVE_DESIGN { 1 0 10303 214 1 1 1 1 }'));
ENDSEC;
DATA;
#1 = APPLICATION_PROTOCOL_DEFINITION('international standard',
  'automotive_design',2000,#2);
#2 = APPLICATION_CONTEXT(
  'core data for automotive mechanical design processes');
#3 = SHAPE_DEFINITION_REPRESENTATION(#4,#10);
#4 = PRODUCT_DEFINITION_SHAPE('','',#5);
#5 = PRODUCT_DEFINITION('design','',#6,#9);
#6 = PRODUCT_DEFINITION_FORMATION('','',#7);
#7 = PRODUCT('Open CASCADE STEP translator 7.9 4',
  'Open CASCADE STEP translator 7.9 4','',(#8));
#8 = PRODUCT_CONTEXT('',#2,'mechanical');
#9 = PRODUCT_DEFINITION_CONTEXT('part definition',#2,'design');
#10 = ADVANCED_BREP_SHAPE_REPRESENTATION('',(#11,#15),#321);
#11 = AXIS2_PLACEMENT_3D('',#12,#13,#14);
#12 = CARTESIAN_POINT('',(0.,0.,0.));
#13 = DIRECTION('',(0.,0.,1.));
#14 = DIRECTION('',(1.,0.,-0.));
#15 = MANIFOLD_SOLID_BREP('',#16);
#16 = CLOSED_SHELL('',(#17,#288,#317));
#17 = ADVANCED_FACE('',(#18),#31,.T.);
#18 = FACE_BOUND('',#19,.T.);
#19 = EDGE_LOOP('',(#20,#75,#102,#103,#162));
#20 = ORIENTED_EDGE('',*,*,#21,.F.);
#21 = EDGE_CURVE('',#22,#24,#26,.T.);
#22 = VERTEX_POINT('',#23);
#23 = CARTESIAN_POINT('',(11.948333945968,6.208103490512,62.2));
#24 = VERTEX_POINT('',#25);
#25 = CARTESIAN_POINT('',(11.28955572099,6.792047382574,81.071550373353)
  );
#26 = SEAM_CURVE('',#27,(#30,#68),.PCURVE_S1.);
#27 = B_SPLINE_CURVE_WITH_KNOTS('',1,(#28,#29),.UNSPECIFIED.,.F.,.F.,(2,
    2),(0.,1.),.PIECEWISE_BEZIER_KNOTS.);
#28 = CARTESIAN_POINT('',(11.948333945968,6.208103490512,62.2));
#29 = CARTESIAN_POINT('',(11.28955572099,6.792047382574,81.071550373353)
  );
#30 = PCURVE('',#31,#62);
#31 = B_SPLINE_SURFACE_WITH_KNOTS('',14,1,(
    (#32,#33)
    ,(#34,#35)
    ,(#36,#37)
    ,(#38,#39)
    ,(#40,#41)
    ,(#42,#43)
    ,(#44,#45)
    ,(#46,#47)
    ,(#48,#49)
    ,(#50,#51)
    ,(#52,#53)
    ,(#54,#55)
    ,(#56,#57)
    ,(#58,#59)
    ,(#60,#61
    )),.UNSPECIFIED.,.T.,.F.,.F.,(15,15),(2,2),(0.,6.28318530718),(0.,1.
    ),.PIECEWISE_BEZIER_KNOTS.);
#32 = CARTESIAN_POINT('',(11.948333945968,6.208103490512,62.2));
#33 = CARTESIAN_POINT('',(11.28955572099,6.792047382574,81.071550373353)
  );
#34 = CARTESIAN_POINT('',(8.449321952489,4.753902055645,62.199999999998)
  );
#35 = CARTESIAN_POINT('',(8.450344574186,5.612061451896,81.071550373353)
  );
#36 = CARTESIAN_POINT('',(5.80724604554,1.23778892666,62.200000000016));
#37 = CARTESIAN_POINT('',(6.304225270748,2.764396673739,81.071550373361)
  );
#38 = CARTESIAN_POINT('',(4.907605806163,-3.972222312079,62.199999999936
    ));
#39 = CARTESIAN_POINT('',(5.569720718188,-1.452328857145,81.071550373308
    ));
#40 = CARTESIAN_POINT('',(6.379500568053,-9.891464988105,62.200000000178
    ));
#41 = CARTESIAN_POINT('',(6.757976460821,-6.24074674131,81.071550373506)
  );
#42 = CARTESIAN_POINT('',(10.278393832848,-15.05060381839,
    62.199999999634));
#43 = CARTESIAN_POINT('',(9.915345367521,-10.4118344211,81.07155037301)
  );
#44 = CARTESIAN_POINT('',(15.878884642216,-17.89843575167,
    62.200000000581));
#45 = CARTESIAN_POINT('',(14.454940486386,-12.71105058671,
    81.071550373918));
#46 = CARTESIAN_POINT('',(21.760895723713,-17.40229223928,
    62.199999999274));
#47 = CARTESIAN_POINT('',(19.225977901106,-12.30409413435,
    81.071550372648));
#48 = CARTESIAN_POINT('',(26.261887796955,-13.58322388216,
    62.200000000727));
#49 = CARTESIAN_POINT('',(22.880044015381,-9.209548544547,
    81.071550374041));
#50 = CARTESIAN_POINT('',(28.194139011219,-7.60475842151,62.199999999414
    ));
#51 = CARTESIAN_POINT('',(24.452758645474,-4.370035396807,
    81.071550372821));
#52 = CARTESIAN_POINT('',(27.287823836137,-1.201893830946,
    62.200000000377));
#53 = CARTESIAN_POINT('',(23.723664087608,0.81025146514,81.07155037368)
  );
#54 = CARTESIAN_POINT('',(24.130688545108,4.016957077358,62.199999999811
    ));
#55 = CARTESIAN_POINT('',(21.167949844028,5.030348886909,81.071550373197
    ));
#56 = CARTESIAN_POINT('',(19.8032966026,7.054595739701,62.200000000069)
  );
#57 = CARTESIAN_POINT('',(17.661071954012,7.484341267577,81.071550373408
    ));
#58 = CARTESIAN_POINT('',(15.447345939436,7.662304925386,62.199999999985
    ));
#59 = CARTESIAN_POINT('',(14.128766867786,7.972033313254,81.071550373342
    ));
#60 = CARTESIAN_POINT('',(11.948333945968,6.208103490512,62.2));
#61 = CARTESIAN_POINT('',(11.28955572099,6.792047382574,81.071550373353)
  );
#62 = DEFINITIONAL_REPRESENTATION('',(#63),#67);
#63 = LINE('',#64,#65);
#64 = CARTESIAN_POINT('',(0.,0.));
#65 = VECTOR('',#66,1.);
#66 = DIRECTION('',(0.,1.));
#67 = ( GEOMETRIC_REPRESENTATION_CONTEXT(2) 
PARAMETRIC_REPRESENTATION_CONTEXT() REPRESENTATION_CONTEXT('2D SPACE',''
  ) );
#68 = PCURVE('',#31,#69);
#69 = DEFINITIONAL_REPRESENTATION('',(#70),#74);
#70 = LINE('',#71,#72);
#71 = CARTESIAN_POINT('',(6.28318530718,0.));
#72 = VECTOR('',#73,1.);
#73 = DIRECTION('',(0.,1.));
#74 = ( GEOMETRIC_REPRESENTATION_CONTEXT(2) 
PARAMETRIC_REPRESENTATION_CONTEXT() REPRESENTATION_CONTEXT('2D SPACE',''
  ) );
#75 = ORIENTED_EDGE('',*,*,#76,.T.);
#76 = EDGE_CURVE('',#22,#22,#77,.T.);
#77 = SURFACE_CURVE('',#78,(#83,#90),.PCURVE_S1.);
#78 = ELLIPSE('',#79,10.29390036999,8.442905271305);
#79 = AXIS2_PLACEMENT_3D('',#80,#81,#82);
#80 = CARTESIAN_POINT('',(15.898913213,-3.297542635985,62.2));
#81 = DIRECTION('',(0.,0.,1.));
#82 = DIRECTION('',(-0.383778657752,0.923425114372,0.));
#83 = PCURVE('',#31,#84);
#84 = DEFINITIONAL_REPRESENTATION('',(#85),#89);
#85 = LINE('',#86,#87);
#86 = CARTESIAN_POINT('',(0.,0.));
#87 = VECTOR('',#88,1.);
#88 = DIRECTION('',(1.,0.));
#89 = ( GEOMETRIC_REPRESENTATION_CONTEXT(2) 
PARAMETRIC_REPRESENTATION_CONTEXT() REPRESENTATION_CONTEXT('2D SPACE',''
  ) );
#90 = PCURVE('',#91,#96);
#91 = PLANE('',#92);
#92 = AXIS2_PLACEMENT_3D('',#93,#94,#95);
#93 = CARTESIAN_POINT('',(15.898913213,-3.297542635985,62.2));
#94 = DIRECTION('',(0.,0.,1.));
#95 = DIRECTION('',(-0.383778657752,0.923425114372,0.));
#96 = DEFINITIONAL_REPRESENTATION('',(#97),#101);
#97 = ELLIPSE('',#98,10.29390036999,8.442905271305);
#98 = AXIS2_PLACEMENT_2D('',#99,#100);
#99 = CARTESIAN_POINT('',(0.,0.));
#100 = DIRECTION('',(1.,0.));
#101 = ( GEOMETRIC_REPRESENTATION_CONTEXT(2) 
PARAMETRIC_REPRESENTATION_CONTEXT() REPRESENTATION_CONTEXT('2D SPACE',''
  ) );
#102 = ORIENTED_EDGE('',*,*,#21,.T.);
#103 = ORIENTED_EDGE('',*,*,#104,.F.);
#104 = EDGE_CURVE('',#105,#24,#107,.T.);
#105 = VERTEX_POINT('',#106);
#106 = CARTESIAN_POINT('',(20.811036014643,1.733067587086,
    81.071550373353));
#107 = SURFACE_CURVE('',#108,(#113,#120),.PCURVE_S1.);
#108 = ELLIPSE('',#109,8.32572992317,6.850845553653);
#109 = AXIS2_PLACEMENT_3D('',#110,#111,#112);
#110 = CARTESIAN_POINT('',(14.484793175713,-0.896140723964,
    81.071550373353));
#111 = DIRECTION('',(0.,0.,1.));
#112 = DIRECTION('',(-0.383778657752,0.923425114372,0.));
#113 = PCURVE('',#31,#114);
#114 = DEFINITIONAL_REPRESENTATION('',(#115),#119);
#115 = LINE('',#116,#117);
#116 = CARTESIAN_POINT('',(0.,1.));
#117 = VECTOR('',#118,1.);
#118 = DIRECTION('',(1.,0.));
#119 = ( GEOMETRIC_REPRESENTATION_CONTEXT(2) 
PARAMETRIC_REPRESENTATION_CONTEXT() REPRESENTATION_CONTEXT('2D SPACE',''
  ) );
#120 = PCURVE('',#121,#143);
#121 = ( BOUNDED_SURFACE() B_SPLINE_SURFACE(2,2,(
    (#122,#123,#124)
    ,(#125,#126,#127)
    ,(#128,#129,#130)
    ,(#131,#132,#133)
    ,(#134,#135,#136)
    ,(#137,#138,#139)
    ,(#140,#141,#142
)),.UNSPECIFIED.,.T.,.F.,.F.) B_SPLINE_SURFACE_WITH_KNOTS((1,2,2,2,2,1),
  (3,3),(-2.094395102393,0.,2.094395102393,4.188790204786,6.28318530718,
    8.377580409573),(0.,1.570796326795),.UNSPECIFIED.) 
GEOMETRIC_REPRESENTATION_ITEM() RATIONAL_B_SPLINE_SURFACE((
    (1.,0.707106781187,1.)
    ,(0.5,0.353553390593,0.5)
    ,(1.,0.707106781187,1.)
    ,(0.5,0.353553390593,0.5)
    ,(1.,0.707106781187,1.)
    ,(0.5,0.353553390593,0.5)
,(1.,0.707106781187,1.))) REPRESENTATION_ITEM('') SURFACE() );
#122 = CARTESIAN_POINT('',(20.811036014643,1.733067587086,
    81.071550373353));
#123 = CARTESIAN_POINT('',(20.311857958533,2.580751734666,
    87.733123353563));
#124 = CARTESIAN_POINT('',(13.985615119603,-4.845657638388E-02,
    87.733123353563));
#125 = CARTESIAN_POINT('',(15.276722400816,15.049400005755,
    81.071550373353));
#126 = CARTESIAN_POINT('',(14.777544344706,15.897084153335,
    87.733123353563));
#127 = CARTESIAN_POINT('',(13.985615119603,-4.845657638388E-02,
    87.733123353563));
#128 = CARTESIAN_POINT('',(8.554514949335,4.447421329846,81.071550373353
    ));
#129 = CARTESIAN_POINT('',(8.055336893224,5.295105477426,87.733123353563
    ));
#130 = CARTESIAN_POINT('',(13.985615119603,-4.845657638388E-02,
    87.733123353563));
#131 = CARTESIAN_POINT('',(1.832307497853,-6.154557346063,
    81.071550373353));
#132 = CARTESIAN_POINT('',(1.333129441743,-5.306873198483,
    87.733123353563));
#133 = CARTESIAN_POINT('',(13.985615119603,-4.845657638388E-02,
    87.733123353563));
#134 = CARTESIAN_POINT('',(14.088828563162,-8.868911088823,
    81.071550373353));
#135 = CARTESIAN_POINT('',(13.589650507051,-8.021226941243,
    87.733123353563));
#136 = CARTESIAN_POINT('',(13.985615119603,-4.845657638388E-02,
    87.733123353563));
#137 = CARTESIAN_POINT('',(26.34534962847,-11.58326483158,
    81.071550373353));
#138 = CARTESIAN_POINT('',(25.84617157236,-10.735580684,87.733123353563)
  );
#139 = CARTESIAN_POINT('',(13.985615119603,-4.845657638388E-02,
    87.733123353563));
#140 = CARTESIAN_POINT('',(20.811036014643,1.733067587086,
    81.071550373353));
#141 = CARTESIAN_POINT('',(20.311857958533,2.580751734666,
    87.733123353563));
#142 = CARTESIAN_POINT('',(13.985615119603,-4.845657638388E-02,
    87.733123353563));
#143 = DEFINITIONAL_REPRESENTATION('',(#144),#161);
#144 = B_SPLINE_CURVE_WITH_KNOTS('',8,(#145,#146,#147,#148,#149,#150,
    #151,#152,#153,#154,#155,#156,#157,#158,#159,#160),.UNSPECIFIED.,.F.
  ,.F.,(9,7,9),(4.712388980385,5.497787143782,6.28318530718),
  .UNSPECIFIED.);
#145 = CARTESIAN_POINT('',(0.,2.313340719137E-18));
#146 = CARTESIAN_POINT('',(0.118712885943,1.346265040032E-15));
#147 = CARTESIAN_POINT('',(0.229735773915,-9.125895094811E-15));
#148 = CARTESIAN_POINT('',(0.334811884328,2.103347107108E-14));
#149 = CARTESIAN_POINT('',(0.435211478642,-1.12157944858E-14));
#150 = CARTESIAN_POINT('',(0.531959283191,-8.163702435137E-15));
#151 = CARTESIAN_POINT('',(0.625912641319,1.153110184905E-14));
#152 = CARTESIAN_POINT('',(0.717828488024,-2.126884077772E-15));
#153 = CARTESIAN_POINT('',(0.898984188973,1.837346673828E-15));
#154 = CARTESIAN_POINT('',(0.988224058753,-1.136463424921E-14));
#155 = CARTESIAN_POINT('',(1.076825784855,2.465751980909E-14));
#156 = CARTESIAN_POINT('',(1.165432476368,-7.943794896328E-15));
#157 = CARTESIAN_POINT('',(1.254677517625,-2.381230878469E-14));
#158 = CARTESIAN_POINT('',(1.345218356854,3.059892766246E-14));
#159 = CARTESIAN_POINT('',(1.437776561614,-9.644680482696E-15));
#160 = CARTESIAN_POINT('',(1.533203626075,2.378574067325E-15));
#161 = ( GEOMETRIC_REPRESENTATION_CONTEXT(2) 
PARAMETRIC_REPRESENTATION_CONTEXT() REPRESENTATION_CONTEXT('2D SPACE',''
  ) );
#162 = ORIENTED_EDGE('',*,*,#163,.F.);
#163 = EDGE_CURVE('',#24,#105,#164,.T.);
#164 = SURFACE_CURVE('',#165,(#170,#177),.PCURVE_S1.);
#165 = ELLIPSE('',#166,8.32572992317,6.850845553653);
#166 = AXIS2_PLACEMENT_3D('',#167,#168,#169);
#167 = CARTESIAN_POINT('',(14.484793175713,-0.896140723964,
    81.071550373353));
#168 = DIRECTION('',(0.,0.,1.));
#169 = DIRECTION('',(-0.383778657752,0.923425114372,0.));
#170 = PCURVE('',#31,#171);
#171 = DEFINITIONAL_REPRESENTATION('',(#172),#176);
#172 = LINE('',#173,#174);
#173 = CARTESIAN_POINT('',(0.,1.));
#174 = VECTOR('',#175,1.);
#175 = DIRECTION('',(1.,0.));
#176 = ( GEOMETRIC_REPRESENTATION_CONTEXT(2) 
PARAMETRIC_REPRESENTATION_CONTEXT() REPRESENTATION_CONTEXT('2D SPACE',''
  ) );
#177 = PCURVE('',#121,#178);
#178 = DEFINITIONAL_REPRESENTATION('',(#179),#287);
#179 = B_SPLINE_CURVE_WITH_KNOTS('',8,(#180,#181,#182,#183,#184,#185,
    #186,#187,#188,#189,#190,#191,#192,#193,#194,#195,#196,#197,#198,
    #199,#200,#201,#202,#203,#204,#205,#206,#207,#208,#209,#210,#211,
    #212,#213,#214,#215,#216,#217,#218,#219,#220,#221,#222,#223,#224,
    #225,#226,#227,#228,#229,#230,#231,#232,#233,#234,#235,#236,#237,
    #238,#239,#240,#241,#242,#243,#244,#245,#246,#247,#248,#249,#250,
    #251,#252,#253,#254,#255,#256,#257,#258,#259,#260,#261,#262,#263,
    #264,#265,#266,#267,#268,#269,#270,#271,#272,#273,#274,#275,#276,
    #277,#278,#279,#280,#281,#282,#283,#284,#285,#286),.UNSPECIFIED.,.F.
  ,.F.,(9,7,7,7,7,7,7,7,7,7,7,7,7,7,7,9),(0.,0.294524311274,
    0.432582582184,0.499454557156,0.515911332246,0.52000945495,
    0.52410357558,1.047639251181,1.963826683482,2.307396970594,
    2.608020971818,2.616241159352,2.620335198065,3.143348643645,
    3.927868812015,4.712388980385),.UNSPECIFIED.);
#180 = CARTESIAN_POINT('',(1.533203626075,4.144413569968E-17));
#181 = CARTESIAN_POINT('',(1.568988776706,7.531710123571E-16));
#182 = CARTESIAN_POINT('',(1.605177369703,5.011793149575E-15));
#183 = CARTESIAN_POINT('',(1.641814309706,1.127611025841E-16));
#184 = CARTESIAN_POINT('',(1.678947107558,-3.163251608209E-15));
#185 = CARTESIAN_POINT('',(1.716626346465,1.247639564468E-15));
#186 = CARTESIAN_POINT('',(1.754906292524,5.905881822366E-15));
#187 = CARTESIAN_POINT('',(1.793845649635,4.972002152577E-16));
#188 = CARTESIAN_POINT('',(1.852100401091,3.968210305587E-15));
#189 = CARTESIAN_POINT('',(1.870851304658,3.079139765972E-15));
#190 = CARTESIAN_POINT('',(1.889767769012,4.695000477952E-16));
#191 = CARTESIAN_POINT('',(1.90885664884,-1.778166736305E-15));
#192 = CARTESIAN_POINT('',(1.928125079566,-1.888980865592E-15));
#193 = CARTESIAN_POINT('',(1.947580502915,4.741057504717E-16));
#194 = CARTESIAN_POINT('',(1.967230692475,3.080140333924E-15));
#195 = CARTESIAN_POINT('',(1.996700117846,4.333894365112E-15));
#196 = CARTESIAN_POINT('',(2.006364061526,2.713117162719E-15));
#197 = CARTESIAN_POINT('',(2.016076532768,-3.633234938228E-16));
#198 = CARTESIAN_POINT('',(2.025838475656,-2.077984672518E-15));
#199 = CARTESIAN_POINT('',(2.035650855895,-1.294988622738E-15));
#200 = CARTESIAN_POINT('',(2.04551466081,1.439977224787E-15));
#201 = CARTESIAN_POINT('',(2.055430899343,3.899660257958E-15));
#202 = CARTESIAN_POINT('',(2.067854083854,1.037010969485E-15));
#203 = CARTESIAN_POINT('',(2.070310803371,6.268143703072E-16));
#204 = CARTESIAN_POINT('',(2.072770776216,7.053628350227E-16));
#205 = CARTESIAN_POINT('',(2.075234017993,1.033366312869E-15));
#206 = CARTESIAN_POINT('',(2.077700544311,1.371534753083E-15));
#207 = CARTESIAN_POINT('',(2.080170370775,1.480578104902E-15));
#208 = CARTESIAN_POINT('',(2.082643512991,1.121206317564E-15));
#209 = CARTESIAN_POINT('',(2.08573668571,1.002115370538E-15));
#210 = CARTESIAN_POINT('',(2.086353592192,1.760495935968E-15));
#211 = CARTESIAN_POINT('',(2.086970706011,2.329271036597E-15));
#212 = CARTESIAN_POINT('',(2.087588027168,2.708440672424E-15));
#213 = CARTESIAN_POINT('',(2.088205555663,2.89800484345E-15));
#214 = CARTESIAN_POINT('',(2.088823291496,2.897963549675E-15));
#215 = CARTESIAN_POINT('',(2.089441234666,2.708316791098E-15));
#216 = CARTESIAN_POINT('',(2.090676924312,-7.57228249382E-15));
#217 = CARTESIAN_POINT('',(2.091294743652,1.821454649005E-14));
#218 = CARTESIAN_POINT('',(2.091912505959,-1.98137088238E-14));
#219 = CARTESIAN_POINT('',(2.092531006769,4.582679584678E-15));
#220 = CARTESIAN_POINT('',(2.093149134118,1.690877143411E-14));
#221 = CARTESIAN_POINT('',(2.093767665858,-5.268764403437E-15));
#222 = CARTESIAN_POINT('',(2.094386809852,3.130745381853E-15));
#223 = CARTESIAN_POINT('',(2.174114751276,-2.657697628966E-16));
#224 = CARTESIAN_POINT('',(2.249810119807,2.265665100836E-15));
#225 = CARTESIAN_POINT('',(2.322607374251,-6.598133240615E-15));
#226 = CARTESIAN_POINT('',(2.392929212076,5.877290768999E-15));
#227 = CARTESIAN_POINT('',(2.461134682336,1.040452321898E-14));
#228 = CARTESIAN_POINT('',(2.527536712099,-8.304303105994E-15));
#229 = CARTESIAN_POINT('',(2.592413033503,3.995233841861E-15));
#230 = CARTESIAN_POINT('',(2.767320876574,6.780923090103E-15));
#231 = CARTESIAN_POINT('',(2.874725910406,-1.24510676478E-14));
#232 = CARTESIAN_POINT('',(2.979581924204,8.293210237362E-15));
#233 = CARTESIAN_POINT('',(3.082999941469,5.177505549962E-15));
#234 = CARTESIAN_POINT('',(3.185992222963,-8.92245331506E-15));
#235 = CARTESIAN_POINT('',(3.289550162996,1.036035342308E-15));
#236 = CARTESIAN_POINT('',(3.394714338092,3.057471663557E-15));
#237 = CARTESIAN_POINT('',(3.543183771319,4.76213831058E-15));
#238 = CARTESIAN_POINT('',(3.584071097983,-5.262402810213E-17));
#239 = CARTESIAN_POINT('',(3.625417735901,-4.296109716095E-15));
#240 = CARTESIAN_POINT('',(3.667290676933,-2.304625371722E-16));
#241 = CARTESIAN_POINT('',(3.709761053467,7.9051818101E-15));
#242 = CARTESIAN_POINT('',(3.752905196424,7.490395874173E-15));
#243 = CARTESIAN_POINT('',(3.796805956216,-5.718468394786E-15));
#244 = CARTESIAN_POINT('',(3.880709075659,2.169097832084E-15));
#245 = CARTESIAN_POINT('',(3.920512797839,-2.992095048855E-15));
#246 = CARTESIAN_POINT('',(3.961026378722,-2.518311384658E-15));
#247 = CARTESIAN_POINT('',(4.002315577808,1.933637304426E-15));
#248 = CARTESIAN_POINT('',(4.044451766836,4.26232007968E-15));
#249 = CARTESIAN_POINT('',(4.087513028453,6.60716184691E-16));
#250 = CARTESIAN_POINT('',(4.131585575302,-4.751022610357E-15));
#251 = CARTESIAN_POINT('',(4.178000877842,-1.109605192827E-15));
#252 = CARTESIAN_POINT('',(4.179237094111,-3.24364458225E-15));
#253 = CARTESIAN_POINT('',(4.180474140305,-2.855621615207E-15));
#254 = CARTESIAN_POINT('',(4.181712018402,-9.999628177555E-16));
#255 = CARTESIAN_POINT('',(4.182950730382,1.268905284048E-15));
#256 = CARTESIAN_POINT('',(4.184190278223,2.896556164144E-15));
#257 = CARTESIAN_POINT('',(4.185430663904,2.828563296476E-15));
#258 = CARTESIAN_POINT('',(4.187290041724,1.376968912195E-14));
#259 = CARTESIAN_POINT('',(4.18790875499,-5.577716850862E-14));
#260 = CARTESIAN_POINT('',(4.188526182057,1.409106073829E-13));
#261 = CARTESIAN_POINT('',(4.189147250552,-1.701854224656E-13));
#262 = CARTESIAN_POINT('',(4.189764447219,1.118911769044E-13));
#263 = CARTESIAN_POINT('',(4.190383338326,-3.923103182168E-14));
#264 = CARTESIAN_POINT('',(4.191001430712,5.795609018516E-15));
#265 = CARTESIAN_POINT('',(4.270566223713,1.693096098771E-15));
#266 = CARTESIAN_POINT('',(4.34611669304,-4.258168695375E-15));
#267 = CARTESIAN_POINT('',(4.418783503452,3.509704010639E-15));
#268 = CARTESIAN_POINT('',(4.488986973705,9.391539428347E-16));
#269 = CARTESIAN_POINT('',(4.557084275772,-3.520804938708E-15));
#270 = CARTESIAN_POINT('',(4.623386806775,2.234125435641E-15));
#271 = CARTESIAN_POINT('',(4.688171033606,-4.819440115555E-16));
#272 = CARTESIAN_POINT('',(4.846963750067,-1.595333296704E-16));
#273 = CARTESIAN_POINT('',(4.93938831669,7.395412352955E-16));
#274 = CARTESIAN_POINT('',(5.02980901566,-1.165458479667E-15));
#275 = CARTESIAN_POINT('',(5.118944288733,3.108791726448E-16));
#276 = CARTESIAN_POINT('',(5.207449077008,1.161783845322E-15));
#277 = CARTESIAN_POINT('',(5.295954604003,-1.409540971531E-15));
#278 = CARTESIAN_POINT('',(5.385101999778,5.604494539044E-16));
#279 = CARTESIAN_POINT('',(5.566076140101,1.230410384904E-16));
#280 = CARTESIAN_POINT('',(5.657902901134,-1.293108811643E-15));
#281 = CARTESIAN_POINT('',(5.751766838133,5.601038252638E-15));
#282 = CARTESIAN_POINT('',(5.848422811658,-1.326352472904E-14));
#283 = CARTESIAN_POINT('',(5.948725836235,1.865564601137E-14));
#284 = CARTESIAN_POINT('',(6.053697767871,-1.534225444811E-14));
#285 = CARTESIAN_POINT('',(6.164605130016,6.546339517101E-15));
#286 = CARTESIAN_POINT('',(6.28318530718,3.470011078705E-18));
#287 = ( GEOMETRIC_REPRESENTATION_CONTEXT(2) 
PARAMETRIC_REPRESENTATION_CONTEXT() REPRESENTATION_CONTEXT('2D SPACE',''
  ) );
#288 = ADVANCED_FACE('',(#289),#121,.T.);
#289 = FACE_BOUND('',#290,.T.);
#290 = EDGE_LOOP('',(#291,#314,#315,#316));
#291 = ORIENTED_EDGE('',*,*,#292,.T.);
#292 = EDGE_CURVE('',#105,#293,#295,.T.);
#293 = VERTEX_POINT('',#294);
#294 = CARTESIAN_POINT('',(13.985615119603,-4.845657638388E-02,
    87.733123353563));
#295 = SEAM_CURVE('',#296,(#300,#307),.PCURVE_S1.);
#296 = ( BOUNDED_CURVE() B_SPLINE_CURVE(2,(#297,#298,#299),
.UNSPECIFIED.,.F.,.F.) B_SPLINE_CURVE_WITH_KNOTS((3,3),(6.28318530718,
7.853981633974),.PIECEWISE_BEZIER_KNOTS.) CURVE() 
GEOMETRIC_REPRESENTATION_ITEM() RATIONAL_B_SPLINE_CURVE((1.,
0.707106781187,1.)) REPRESENTATION_ITEM('') );
#297 = CARTESIAN_POINT('',(20.811036014643,1.733067587086,
    81.071550373353));
#298 = CARTESIAN_POINT('',(20.311857958533,2.580751734666,
    87.733123353563));
#299 = CARTESIAN_POINT('',(13.985615119603,-4.845657638388E-02,
    87.733123353563));
#300 = PCURVE('',#121,#301);
#301 = DEFINITIONAL_REPRESENTATION('',(#302),#306);
#302 = B_SPLINE_CURVE_WITH_KNOTS('',2,(#303,#304,#305),.UNSPECIFIED.,.F.
  ,.F.,(3,3),(6.28318530718,7.853981633974),.PIECEWISE_BEZIER_KNOTS.);
#303 = CARTESIAN_POINT('',(6.28318530718,0.));
#304 = CARTESIAN_POINT('',(6.28318530718,0.785398163397));
#305 = CARTESIAN_POINT('',(6.28318530718,1.570796326795));
#306 = ( GEOMETRIC_REPRESENTATION_CONTEXT(2) 
PARAMETRIC_REPRESENTATION_CONTEXT() REPRESENTATION_CONTEXT('2D SPACE',''
  ) );
#307 = PCURVE('',#121,#308);
#308 = DEFINITIONAL_REPRESENTATION('',(#309),#313);
#309 = B_SPLINE_CURVE_WITH_KNOTS('',2,(#310,#311,#312),.UNSPECIFIED.,.F.
  ,.F.,(3,3),(6.28318530718,7.853981633974),.PIECEWISE_BEZIER_KNOTS.);
#310 = CARTESIAN_POINT('',(0.,0.));
#311 = CARTESIAN_POINT('',(8.881784197001E-16,0.785398163397));
#312 = CARTESIAN_POINT('',(0.,1.570796326795));
#313 = ( GEOMETRIC_REPRESENTATION_CONTEXT(2) 
PARAMETRIC_REPRESENTATION_CONTEXT() REPRESENTATION_CONTEXT('2D SPACE',''
  ) );
#314 = ORIENTED_EDGE('',*,*,#292,.F.);
#315 = ORIENTED_EDGE('',*,*,#104,.T.);
#316 = ORIENTED_EDGE('',*,*,#163,.T.);
#317 = ADVANCED_FACE('',(#318),#91,.F.);
#318 = FACE_BOUND('',#319,.F.);
#319 = EDGE_LOOP('',(#320));
#320 = ORIENTED_EDGE('',*,*,#76,.T.);
#321 = ( GEOMETRIC_REPRESENTATION_CONTEXT(3) 
GLOBAL_UNCERTAINTY_ASSIGNED_CONTEXT((#325)) GLOBAL_UNIT_ASSIGNED_CONTEXT
((#322,#323,#324)) REPRESENTATION_CONTEXT('Context #1',
  '3D Context with UNIT and UNCERTAINTY') );
#322 = ( LENGTH_UNIT() NAMED_UNIT(*) SI_UNIT(.MILLI.,.METRE.) );
#323 = ( NAMED_UNIT(*) PLANE_ANGLE_UNIT() SI_UNIT($,.RADIAN.) );
#324 = ( NAMED_UNIT(*) SI_UNIT($,.STERADIAN.) SOLID_ANGLE_UNIT() );
#325 = UNCERTAINTY_MEASURE_WITH_UNIT(LENGTH_MEASURE(5.E-07),#322,
  'distance_accuracy_value','confusion accuracy');
#326 = PRODUCT_RELATED_PRODUCT_CATEGORY('part',$,(#7));
ENDSEC;
END-ISO-10303-21;
