ISO-10303-21;
HEADER;
FILE_DESCRIPTION(('Open CASCADE Model'),'2;1');
FILE_NAME('Open CASCADE Shape Model','2026-10-04T12:49:55',('Author'),(
    'Open CASCADE'),'Open CASCADE STEP processor 7.9','Open CASCADE 7.9'
  ,'Unknown');
FILE_SCHEMA(('AUTOMOTIVE_DESIGN { 1 0 10303 214 1 1 1 1 }'));
ENDSEC;
DATA;
#1 = APPLICATION_PROTOCOL_DEFINITION('international standard',
  'automotive_design',2000,#2);
#2 = APPLICATION_CONTEXT(
  'core data for automotive mechanical design processes');
#3 = SHAPE_DEFINITION_REPRESENTATION(#4,#10);
#4 = PRODUCT_DEFINITION_SHAPE('','',#5);
#5 = PRODUCT_DEFINITION('design','',#6,#9);
#6 = PRODUCT_DEFINITION_FORMATION('','',#7);
#7 = PRODUCT('Open CASCADE STEP translator 7.9 1',
  'Open CASCADE STEP translator 7.9 1','',(#8));
#8 = PRODUCT_CONTEXT('',#2,'mechanical');
#9 = PRODUCT_DEFINITION_CONTEXT('part definition',#2,'design');
#10 = ADVANCED_BREP_SHAPE_REPRESENTATION('',(#11,#15),#385);
#11 = AXIS2_PLACEMENT_3D('',#12,#13,#14);
#12 = CARTESIAN_POINT('',(0.,0.,0.));
#13 = DIRECTION('',(0.,0.,1.));
#14 = DIRECTION('',(1.,0.,-0.));
#15 = MANIFOLD_SOLID_BREP('',#16);
#16 = CLOSED_SHELL('',(#17,#198,#224,#356));
#17 = ADVANCED_FACE('',(#18),#33,.T.);
#18 = FACE_BOUND('',#19,.T.);
#19 = EDGE_LOOP('',(#20,#70,#119,#178));
#20 = ORIENTED_EDGE('',*,*,#21,.T.);
#21 = EDGE_CURVE('',#22,#24,#26,.T.);
#22 = VERTEX_POINT('',#23);
#23 = CARTESIAN_POINT('',(-18.7078249949,4.884195972565,61.7));
#24 = VERTEX_POINT('',#25);
#25 = CARTESIAN_POINT('',(-30.60409883698,2.056719312194,61.7));
#26 = SURFACE_CURVE('',#27,(#32,#58),.PCURVE_S1.);
#27 = ELLIPSE('',#28,9.090446681582,8.178003100994);
#28 = AXIS2_PLACEMENT_3D('',#29,#30,#31);
#29 = CARTESIAN_POINT('',(-23.87693009009,-2.593542548249,61.7));
#30 = DIRECTION('',(0.,-0.,1.));
#31 = DIRECTION('',(0.568630483874,0.822593078508,0.));
#32 = PCURVE('',#33,#52);
#33 = B_SPLINE_SURFACE_WITH_KNOTS('',8,1,(
    (#34,#35)
    ,(#36,#37)
    ,(#38,#39)
    ,(#40,#41)
    ,(#42,#43)
    ,(#44,#45)
    ,(#46,#47)
    ,(#48,#49)
    ,(#50,#51
    )),.UNSPECIFIED.,.F.,.F.,.F.,(9,9),(2,2),(0.,1.570796326795),(0.,1.)
  ,.PIECEWISE_BEZIER_KNOTS.);
#34 = CARTESIAN_POINT('',(-18.7078249949,4.884195972565,61.7));
#35 = CARTESIAN_POINT('',(-18.11688484519,4.105895618799,75.576296965142
    ));
#36 = CARTESIAN_POINT('',(-20.02870148957,5.797272753693,61.7));
#37 = CARTESIAN_POINT('',(-19.50498583015,5.065442392732,75.576296965142
    ));
#38 = CARTESIAN_POINT('',(-21.57733324873,6.380874763359,61.699999999999
    ));
#39 = CARTESIAN_POINT('',(-21.09988572634,5.72583035145,75.576296965145)
  );
#40 = CARTESIAN_POINT('',(-23.27611628504,6.581361799506,61.700000000001
    ));
#41 = CARTESIAN_POINT('',(-22.82003130038,6.030688874041,75.576296965137
    ));
#42 = CARTESIAN_POINT('',(-25.02874228668,6.372187923697,61.699999999999
    ));
#43 = CARTESIAN_POINT('',(-24.56688845163,5.948250254664,75.576296965148
    ));
#44 = CARTESIAN_POINT('',(-26.72966205867,5.760531663944,61.700000000001
    ));
#45 = CARTESIAN_POINT('',(-26.23489319679,5.478308788944,75.576296965138
    ));
#46 = CARTESIAN_POINT('',(-28.27779133095,4.788326618219,61.7));
#47 = CARTESIAN_POINT('',(-27.72529059809,4.654120332751,75.576296965145
    ));
#48 = CARTESIAN_POINT('',(-29.58914742494,3.524969837347,61.7));
#49 = CARTESIAN_POINT('',(-28.95834324229,3.536289375665,75.576296965142
    ));
#50 = CARTESIAN_POINT('',(-30.60409883698,2.056719312194,61.7));
#51 = CARTESIAN_POINT('',(-29.87990607476,2.203136776747,75.576296965143
    ));
#52 = DEFINITIONAL_REPRESENTATION('',(#53),#57);
#53 = LINE('',#54,#55);
#54 = CARTESIAN_POINT('',(0.,0.));
#55 = VECTOR('',#56,1.);
#56 = DIRECTION('',(1.,0.));
#57 = ( GEOMETRIC_REPRESENTATION_CONTEXT(2) 
PARAMETRIC_REPRESENTATION_CONTEXT() REPRESENTATION_CONTEXT('2D SPACE',''
  ) );
#58 = PCURVE('',#59,#64);
#59 = PLANE('',#60);
#60 = AXIS2_PLACEMENT_3D('',#61,#62,#63);
#61 = CARTESIAN_POINT('',(-23.87693009009,-2.593542548249,61.7));
#62 = DIRECTION('',(0.,-0.,1.));
#63 = DIRECTION('',(0.568630483874,0.822593078508,0.));
#64 = DEFINITIONAL_REPRESENTATION('',(#65),#69);
#65 = ELLIPSE('',#66,9.090446681582,8.178003100994);
#66 = AXIS2_PLACEMENT_2D('',#67,#68);
#67 = CARTESIAN_POINT('',(0.,0.));
#68 = DIRECTION('',(1.,0.));
#69 = ( GEOMETRIC_REPRESENTATION_CONTEXT(2) 
PARAMETRIC_REPRESENTATION_CONTEXT() REPRESENTATION_CONTEXT('2D SPACE',''
  ) );
#70 = ORIENTED_EDGE('',*,*,#71,.T.);
#71 = EDGE_CURVE('',#24,#72,#74,.T.);
#72 = VERTEX_POINT('',#73);
#73 = CARTESIAN_POINT('',(-29.87990607476,2.203136776747,75.576296965143
    ));
#74 = SURFACE_CURVE('',#75,(#78,#85),.PCURVE_S1.);
#75 = B_SPLINE_CURVE_WITH_KNOTS('',1,(#76,#77),.UNSPECIFIED.,.F.,.F.,(2,
    2),(0.,1.),.PIECEWISE_BEZIER_KNOTS.);
#76 = CARTESIAN_POINT('',(-30.60409883698,2.056719312194,61.7));
#77 = CARTESIAN_POINT('',(-29.87990607476,2.203136776747,75.576296965143
    ));
#78 = PCURVE('',#33,#79);
#79 = DEFINITIONAL_REPRESENTATION('',(#80),#84);
#80 = LINE('',#81,#82);
#81 = CARTESIAN_POINT('',(1.570796326795,0.));
#82 = VECTOR('',#83,1.);
#83 = DIRECTION('',(0.,1.));
#84 = ( GEOMETRIC_REPRESENTATION_CONTEXT(2) 
PARAMETRIC_REPRESENTATION_CONTEXT() REPRESENTATION_CONTEXT('2D SPACE',''
  ) );
#85 = PCURVE('',#86,#113);
#86 = B_SPLINE_SURFACE_WITH_KNOTS('',12,1,(
    (#87,#88)
    ,(#89,#90)
    ,(#91,#92)
    ,(#93,#94)
    ,(#95,#96)
    ,(#97,#98)
    ,(#99,#100)
    ,(#101,#102)
    ,(#103,#104)
    ,(#105,#106)
    ,(#107,#108)
    ,(#109,#110)
    ,(#111,#112
    )),.UNSPECIFIED.,.F.,.F.,.F.,(13,13),(2,2),(1.570796326795,
    6.28318530718),(0.,1.),.PIECEWISE_BEZIER_KNOTS.);
#87 = CARTESIAN_POINT('',(-30.60409883698,2.056719312194,61.7));
#88 = CARTESIAN_POINT('',(-29.87990607476,2.203136776747,75.576296965143
    ));
#89 = CARTESIAN_POINT('',(-32.63400166106,-0.879781738113,
    61.699999999999));
#90 = CARTESIAN_POINT('',(-31.72303173971,-0.463168421089,
    75.576296965148));
#91 = CARTESIAN_POINT('',(-33.5321777568,-4.598604856753,61.700000000004
    ));
#92 = CARTESIAN_POINT('',(-32.37683287576,-3.951611257231,
    75.576296965119));
#93 = CARTESIAN_POINT('',(-32.88885851992,-8.506936791602,
    61.699999999987));
#94 = CARTESIAN_POINT('',(-31.46924707696,-7.72392338752,75.576296965195
    ));
#95 = CARTESIAN_POINT('',(-30.57336574035,-11.81892204675,61.70000000003
    ));
#96 = CARTESIAN_POINT('',(-28.92151410959,-11.03898083529,
    75.576296965061));
#97 = CARTESIAN_POINT('',(-26.86121236338,-13.73853844934,61.69999999995
    ));
#98 = CARTESIAN_POINT('',(-25.0636480214,-13.11880685741,75.576296965237
    ));
#99 = CARTESIAN_POINT('',(-22.44766495057,-13.71897258955,
    61.700000000062));
#100 = CARTESIAN_POINT('',(-20.63072525282,-13.39516003046,
    75.576296965059));
#101 = CARTESIAN_POINT('',(-18.29078015141,-11.70153952259,
    61.699999999941));
#102 = CARTESIAN_POINT('',(-16.58921498511,-11.74800236115,75.5762969652
    ));
#103 = CARTESIAN_POINT('',(-15.27720992423,-8.183369928699,
    61.700000000043));
#104 = CARTESIAN_POINT('',(-13.79669368393,-8.59242520663,
    75.576296965111));
#105 = CARTESIAN_POINT('',(-13.92468670396,-3.99957979018,
    61.699999999976));
#106 = CARTESIAN_POINT('',(-12.71749685383,-4.690684065354,
    75.576296965156));
#107 = CARTESIAN_POINT('',(-14.29392967673,-2.610609327916E-02,
    61.700000000009));
#108 = CARTESIAN_POINT('',(-13.35407637319,-0.874534592228,
    75.576296965138));
#109 = CARTESIAN_POINT('',(-16.06607200557,3.058042410311,
    61.699999999998));
#110 = CARTESIAN_POINT('',(-15.34068287528,2.186802070931,
    75.576296965144));
#111 = CARTESIAN_POINT('',(-18.7078249949,4.884195972565,61.7));
#112 = CARTESIAN_POINT('',(-18.11688484519,4.105895618799,
    75.576296965143));
#113 = DEFINITIONAL_REPRESENTATION('',(#114),#118);
#114 = LINE('',#115,#116);
#115 = CARTESIAN_POINT('',(1.570796326795,0.));
#116 = VECTOR('',#117,1.);
#117 = DIRECTION('',(0.,1.));
#118 = ( GEOMETRIC_REPRESENTATION_CONTEXT(2) 
PARAMETRIC_REPRESENTATION_CONTEXT() REPRESENTATION_CONTEXT('2D SPACE',''
  ) );
#119 = ORIENTED_EDGE('',*,*,#120,.F.);
#120 = EDGE_CURVE('',#121,#72,#123,.T.);
#121 = VERTEX_POINT('',#122);
#122 = CARTESIAN_POINT('',(-18.11688484519,4.105895618799,
    75.576296965143));
#123 = SURFACE_CURVE('',#124,(#129,#136),.PCURVE_S1.);
#124 = ELLIPSE('',#125,8.594213164735,8.254008707136);
#125 = AXIS2_PLACEMENT_3D('',#126,#127,#128);
#126 = CARTESIAN_POINT('',(-22.81036581023,-2.683794813635,
    75.576296965143));
#127 = DIRECTION('',(0.,0.,1.));
#128 = DIRECTION('',(-0.822593078508,0.568630483874,0.));
#129 = PCURVE('',#33,#130);
#130 = DEFINITIONAL_REPRESENTATION('',(#131),#135);
#131 = LINE('',#132,#133);
#132 = CARTESIAN_POINT('',(-4.712388980385,1.));
#133 = VECTOR('',#134,1.);
#134 = DIRECTION('',(1.,0.));
#135 = ( GEOMETRIC_REPRESENTATION_CONTEXT(2) 
PARAMETRIC_REPRESENTATION_CONTEXT() REPRESENTATION_CONTEXT('2D SPACE',''
  ) );
#136 = PCURVE('',#137,#159);
#137 = ( BOUNDED_SURFACE() B_SPLINE_SURFACE(2,2,(
    (#138,#139,#140)
    ,(#141,#142,#143)
    ,(#144,#145,#146)
    ,(#147,#148,#149)
    ,(#150,#151,#152)
    ,(#153,#154,#155)
    ,(#156,#157,#158
)),.UNSPECIFIED.,.T.,.F.,.F.) B_SPLINE_SURFACE_WITH_KNOTS((1,2,2,2,2,1),
  (3,3),(-2.094395102393,0.,2.094395102393,4.188790204786,6.28318530718,
    8.377580409573),(0.,1.570796326795),.UNSPECIFIED.) 
GEOMETRIC_REPRESENTATION_ITEM() RATIONAL_B_SPLINE_SURFACE((
    (1.,0.707106781187,1.)
    ,(0.5,0.353553390593,0.5)
    ,(1.,0.707106781187,1.)
    ,(0.5,0.353553390593,0.5)
    ,(1.,0.707106781187,1.)
    ,(0.5,0.353553390593,0.5)
,(1.,0.707106781187,1.))) REPRESENTATION_ITEM('') SURFACE() );
#138 = CARTESIAN_POINT('',(-18.11688484519,4.105895618799,
    75.576296965143));
#139 = CARTESIAN_POINT('',(-17.20617801741,4.028831951974,
    87.424845270358));
#140 = CARTESIAN_POINT('',(-21.89965898245,-2.760858480459,
    87.424845270358));
#141 = CARTESIAN_POINT('',(-30.36168776951,12.570309426453,
    75.576296965143));
#142 = CARTESIAN_POINT('',(-29.45098094173,12.493245759629,
    87.424845270358));
#143 = CARTESIAN_POINT('',(-21.89965898245,-2.760858480459,
    87.424845270358));
#144 = CARTESIAN_POINT('',(-31.27950775491,-1.846433126024,
    75.576296965143));
#145 = CARTESIAN_POINT('',(-30.36880092713,-1.923496792849,
    87.424845270358));
#146 = CARTESIAN_POINT('',(-21.89965898245,-2.760858480459,
    87.424845270358));
#147 = CARTESIAN_POINT('',(-32.19732774031,-16.2631756785,
    75.576296965143));
#148 = CARTESIAN_POINT('',(-31.28662091253,-16.34023934532,
    87.424845270358));
#149 = CARTESIAN_POINT('',(-21.89965898245,-2.760858480459,
    87.424845270358));
#150 = CARTESIAN_POINT('',(-19.03470483059,-10.31084693367,
    75.576296965143));
#151 = CARTESIAN_POINT('',(-18.12399800281,-10.3879106005,
    87.424845270358));
#152 = CARTESIAN_POINT('',(-21.89965898245,-2.760858480459,
    87.424845270358));
#153 = CARTESIAN_POINT('',(-5.872081920871,-4.358518188855,
    75.576296965143));
#154 = CARTESIAN_POINT('',(-4.96137509309,-4.43558185568,87.424845270358
    ));
#155 = CARTESIAN_POINT('',(-21.89965898245,-2.760858480459,
    87.424845270358));
#156 = CARTESIAN_POINT('',(-18.11688484519,4.105895618799,
    75.576296965143));
#157 = CARTESIAN_POINT('',(-17.20617801741,4.028831951974,
    87.424845270358));
#158 = CARTESIAN_POINT('',(-21.89965898245,-2.760858480459,
    87.424845270358));
#159 = DEFINITIONAL_REPRESENTATION('',(#160),#177);
#160 = B_SPLINE_CURVE_WITH_KNOTS('',8,(#161,#162,#163,#164,#165,#166,
    #167,#168,#169,#170,#171,#172,#173,#174,#175,#176),.UNSPECIFIED.,.F.
  ,.F.,(9,7,9),(4.712388980385,5.497787143782,6.28318530718),
  .UNSPECIFIED.);
#161 = CARTESIAN_POINT('',(0.,-1.314848227157E-15));
#162 = CARTESIAN_POINT('',(0.118712885942,1.114422518113E-14));
#163 = CARTESIAN_POINT('',(0.229735773884,-3.935718282674E-14));
#164 = CARTESIAN_POINT('',(0.334811884342,7.440046611491E-14));
#165 = CARTESIAN_POINT('',(0.435211478656,-7.884903969078E-14));
#166 = CARTESIAN_POINT('',(0.531959283209,3.821397480525E-14));
#167 = CARTESIAN_POINT('',(0.625912641295,-8.899122289896E-15));
#168 = CARTESIAN_POINT('',(0.71782848802,2.217365295614E-15));
#169 = CARTESIAN_POINT('',(0.898984188972,-1.995809039387E-15));
#170 = CARTESIAN_POINT('',(0.988224058755,4.86472657302E-15));
#171 = CARTESIAN_POINT('',(1.076825784848,-2.723480578864E-15));
#172 = CARTESIAN_POINT('',(1.165432476368,-4.395329826568E-15));
#173 = CARTESIAN_POINT('',(1.254677517632,4.225192675747E-16));
#174 = CARTESIAN_POINT('',(1.345218356851,1.225286956922E-15));
#175 = CARTESIAN_POINT('',(1.437776561614,8.386301693542E-16));
#176 = CARTESIAN_POINT('',(1.533203626075,-1.713205614724E-16));
#177 = ( GEOMETRIC_REPRESENTATION_CONTEXT(2) 
PARAMETRIC_REPRESENTATION_CONTEXT() REPRESENTATION_CONTEXT('2D SPACE',''
  ) );
#178 = ORIENTED_EDGE('',*,*,#179,.F.);
#179 = EDGE_CURVE('',#22,#121,#180,.T.);
#180 = SURFACE_CURVE('',#181,(#184,#191),.PCURVE_S1.);
#181 = B_SPLINE_CURVE_WITH_KNOTS('',1,(#182,#183),.UNSPECIFIED.,.F.,.F.,
  (2,2),(0.,1.),.PIECEWISE_BEZIER_KNOTS.);
#182 = CARTESIAN_POINT('',(-18.7078249949,4.884195972565,61.7));
#183 = CARTESIAN_POINT('',(-18.11688484519,4.105895618799,
    75.576296965142));
#184 = PCURVE('',#33,#185);
#185 = DEFINITIONAL_REPRESENTATION('',(#186),#190);
#186 = LINE('',#187,#188);
#187 = CARTESIAN_POINT('',(0.,0.));
#188 = VECTOR('',#189,1.);
#189 = DIRECTION('',(0.,1.));
#190 = ( GEOMETRIC_REPRESENTATION_CONTEXT(2) 
PARAMETRIC_REPRESENTATION_CONTEXT() REPRESENTATION_CONTEXT('2D SPACE',''
  ) );
#191 = PCURVE('',#86,#192);
#192 = DEFINITIONAL_REPRESENTATION('',(#193),#197);
#193 = LINE('',#194,#195);
#194 = CARTESIAN_POINT('',(6.28318530718,0.));
#195 = VECTOR('',#196,1.);
#196 = DIRECTION('',(0.,1.));
#197 = ( GEOMETRIC_REPRESENTATION_CONTEXT(2) 
PARAMETRIC_REPRESENTATION_CONTEXT() REPRESENTATION_CONTEXT('2D SPACE',''
  ) );
#198 = ADVANCED_FACE('',(#199),#59,.F.);
#199 = FACE_BOUND('',#200,.F.);
#200 = EDGE_LOOP('',(#201,#202));
#201 = ORIENTED_EDGE('',*,*,#21,.T.);
#202 = ORIENTED_EDGE('',*,*,#203,.T.);
#203 = EDGE_CURVE('',#24,#22,#204,.T.);
#204 = SURFACE_CURVE('',#205,(#210,#217),.PCURVE_S1.);
#205 = ELLIPSE('',#206,9.090446681582,8.178003100994);
#206 = AXIS2_PLACEMENT_3D('',#207,#208,#209);
#207 = CARTESIAN_POINT('',(-23.87693009009,-2.593542548249,61.7));
#208 = DIRECTION('',(0.,-0.,1.));
#209 = DIRECTION('',(0.568630483874,0.822593078508,0.));
#210 = PCURVE('',#59,#211);
#211 = DEFINITIONAL_REPRESENTATION('',(#212),#216);
#212 = ELLIPSE('',#213,9.090446681582,8.178003100994);
#213 = AXIS2_PLACEMENT_2D('',#214,#215);
#214 = CARTESIAN_POINT('',(0.,0.));
#215 = DIRECTION('',(1.,0.));
#216 = ( GEOMETRIC_REPRESENTATION_CONTEXT(2) 
PARAMETRIC_REPRESENTATION_CONTEXT() REPRESENTATION_CONTEXT('2D SPACE',''
  ) );
#217 = PCURVE('',#86,#218);
#218 = DEFINITIONAL_REPRESENTATION('',(#219),#223);
#219 = LINE('',#220,#221);
#220 = CARTESIAN_POINT('',(0.,0.));
#221 = VECTOR('',#222,1.);
#222 = DIRECTION('',(1.,0.));
#223 = ( GEOMETRIC_REPRESENTATION_CONTEXT(2) 
PARAMETRIC_REPRESENTATION_CONTEXT() REPRESENTATION_CONTEXT('2D SPACE',''
  ) );
#224 = ADVANCED_FACE('',(#225),#86,.T.);
#225 = FACE_BOUND('',#226,.T.);
#226 = EDGE_LOOP('',(#227,#228,#229,#355));
#227 = ORIENTED_EDGE('',*,*,#203,.T.);
#228 = ORIENTED_EDGE('',*,*,#179,.T.);
#229 = ORIENTED_EDGE('',*,*,#230,.F.);
#230 = EDGE_CURVE('',#72,#121,#231,.T.);
#231 = SURFACE_CURVE('',#232,(#237,#244),.PCURVE_S1.);
#232 = ELLIPSE('',#233,8.594213164735,8.254008707136);
#233 = AXIS2_PLACEMENT_3D('',#234,#235,#236);
#234 = CARTESIAN_POINT('',(-22.81036581023,-2.683794813635,
    75.576296965143));
#235 = DIRECTION('',(0.,0.,1.));
#236 = DIRECTION('',(-0.822593078508,0.568630483874,0.));
#237 = PCURVE('',#86,#238);
#238 = DEFINITIONAL_REPRESENTATION('',(#239),#243);
#239 = LINE('',#240,#241);
#240 = CARTESIAN_POINT('',(1.570796326795,1.));
#241 = VECTOR('',#242,1.);
#242 = DIRECTION('',(1.,0.));
#243 = ( GEOMETRIC_REPRESENTATION_CONTEXT(2) 
PARAMETRIC_REPRESENTATION_CONTEXT() REPRESENTATION_CONTEXT('2D SPACE',''
  ) );
#244 = PCURVE('',#137,#245);
#245 = DEFINITIONAL_REPRESENTATION('',(#246),#354);
#246 = B_SPLINE_CURVE_WITH_KNOTS('',8,(#247,#248,#249,#250,#251,#252,
    #253,#254,#255,#256,#257,#258,#259,#260,#261,#262,#263,#264,#265,
    #266,#267,#268,#269,#270,#271,#272,#273,#274,#275,#276,#277,#278,
    #279,#280,#281,#282,#283,#284,#285,#286,#287,#288,#289,#290,#291,
    #292,#293,#294,#295,#296,#297,#298,#299,#300,#301,#302,#303,#304,
    #305,#306,#307,#308,#309,#310,#311,#312,#313,#314,#315,#316,#317,
    #318,#319,#320,#321,#322,#323,#324,#325,#326,#327,#328,#329,#330,
    #331,#332,#333,#334,#335,#336,#337,#338,#339,#340,#341,#342,#343,
    #344,#345,#346,#347,#348,#349,#350,#351,#352,#353),.UNSPECIFIED.,.F.
  ,.F.,(9,7,7,7,7,7,7,7,7,7,7,7,7,7,7,9),(0.,0.294524311274,
    0.432582582184,0.499454557156,0.515911332246,0.52000945495,
    0.52410357558,1.047639251181,1.963826683482,2.307396970594,
    2.608020971818,2.616241159352,2.620335198065,3.143348643645,
    3.927868812015,4.712388980385),.UNSPECIFIED.);
#247 = CARTESIAN_POINT('',(1.533203626075,2.257371601239E-16));
#248 = CARTESIAN_POINT('',(1.568988776706,-4.808283489776E-15));
#249 = CARTESIAN_POINT('',(1.605177369703,7.826462452141E-15));
#250 = CARTESIAN_POINT('',(1.641814309706,-2.219991154086E-15));
#251 = CARTESIAN_POINT('',(1.678947107558,-8.635868635808E-15));
#252 = CARTESIAN_POINT('',(1.716626346465,2.684655215064E-15));
#253 = CARTESIAN_POINT('',(1.754906292524,1.033678471262E-14));
#254 = CARTESIAN_POINT('',(1.793845649635,-1.033654530476E-14));
#255 = CARTESIAN_POINT('',(1.852100401091,-4.540941423227E-15));
#256 = CARTESIAN_POINT('',(1.870851304658,5.328812578977E-16));
#257 = CARTESIAN_POINT('',(1.889767769013,3.017036713726E-15));
#258 = CARTESIAN_POINT('',(1.908856648841,8.217848842838E-16));
#259 = CARTESIAN_POINT('',(1.928125079566,-2.428319720086E-15));
#260 = CARTESIAN_POINT('',(1.947580502915,-2.371528509739E-15));
#261 = CARTESIAN_POINT('',(1.967230692475,1.114000693261E-15));
#262 = CARTESIAN_POINT('',(1.996700117846,-1.426651044997E-16));
#263 = CARTESIAN_POINT('',(2.006364061526,-5.339422471302E-16));
#264 = CARTESIAN_POINT('',(2.016076532768,-1.031871018782E-15));
#265 = CARTESIAN_POINT('',(2.025838475656,-9.727716135331E-16));
#266 = CARTESIAN_POINT('',(2.035650855895,-2.381416645251E-16));
#267 = CARTESIAN_POINT('',(2.04551466081,7.453437560358E-16));
#268 = CARTESIAN_POINT('',(2.055430899343,1.005832136879E-15));
#269 = CARTESIAN_POINT('',(2.067854083854,-1.060908263964E-15));
#270 = CARTESIAN_POINT('',(2.070310803371,-1.096468904664E-15));
#271 = CARTESIAN_POINT('',(2.072770776216,-1.069904448324E-15));
#272 = CARTESIAN_POINT('',(2.075234017993,-9.707309488365E-16));
#273 = CARTESIAN_POINT('',(2.077700544311,-7.884644600953E-16));
#274 = CARTESIAN_POINT('',(2.080170370775,-5.126210359936E-16));
#275 = CARTESIAN_POINT('',(2.082643512991,-1.327167304246E-16));
#276 = CARTESIAN_POINT('',(2.08573668571,-6.520825558898E-17));
#277 = CARTESIAN_POINT('',(2.086353592192,-4.303191574816E-16));
#278 = CARTESIAN_POINT('',(2.086970706011,-7.336003029596E-16));
#279 = CARTESIAN_POINT('',(2.087588027168,-9.750516920229E-16));
#280 = CARTESIAN_POINT('',(2.088205555663,-1.154673324671E-15));
#281 = CARTESIAN_POINT('',(2.088823291496,-1.272465200905E-15));
#282 = CARTESIAN_POINT('',(2.089441234666,-1.328427320725E-15));
#283 = CARTESIAN_POINT('',(2.090676924283,1.312701667564E-15));
#284 = CARTESIAN_POINT('',(2.091294743768,-2.419770687348E-15));
#285 = CARTESIAN_POINT('',(2.091912505726,8.64852010774E-15));
#286 = CARTESIAN_POINT('',(2.092531006769,-1.851761911796E-14));
#287 = CARTESIAN_POINT('',(2.093149133885,2.339593061628E-14));
#288 = CARTESIAN_POINT('',(2.093767665974,-1.971325790295E-14));
#289 = CARTESIAN_POINT('',(2.094386809823,6.505555585065E-15));
#290 = CARTESIAN_POINT('',(2.174114751282,4.839822017369E-15));
#291 = CARTESIAN_POINT('',(2.249810119809,-9.089666613025E-15));
#292 = CARTESIAN_POINT('',(2.32260737427,9.762351575931E-15));
#293 = CARTESIAN_POINT('',(2.392929212067,1.474414532713E-15));
#294 = CARTESIAN_POINT('',(2.461134682318,-8.340661883599E-15));
#295 = CARTESIAN_POINT('',(2.527536712121,9.43691820327E-15));
#296 = CARTESIAN_POINT('',(2.592413033499,-6.844632048805E-16));
#297 = CARTESIAN_POINT('',(2.767320876582,2.067553718509E-16));
#298 = CARTESIAN_POINT('',(2.874725910385,1.181439110711E-14));
#299 = CARTESIAN_POINT('',(2.979581924231,-1.793507158459E-14));
#300 = CARTESIAN_POINT('',(3.082999941453,5.222982178061E-15));
#301 = CARTESIAN_POINT('',(3.185992222905,2.004128795036E-14));
#302 = CARTESIAN_POINT('',(3.289550162996,-1.856297529186E-14));
#303 = CARTESIAN_POINT('',(3.394714338085,7.142243448464E-15));
#304 = CARTESIAN_POINT('',(3.543183771319,6.211262221849E-15));
#305 = CARTESIAN_POINT('',(3.584071097985,-5.340756581837E-15));
#306 = CARTESIAN_POINT('',(3.625417735904,1.211351604295E-15));
#307 = CARTESIAN_POINT('',(3.667290676936,6.468327803359E-15));
#308 = CARTESIAN_POINT('',(3.70976105347,-1.460289720611E-15));
#309 = CARTESIAN_POINT('',(3.752905196425,-7.355322746916E-15));
#310 = CARTESIAN_POINT('',(3.796805956215,7.649413393501E-15));
#311 = CARTESIAN_POINT('',(3.880709075659,1.07249774377E-14));
#312 = CARTESIAN_POINT('',(3.92051279784,-6.040950854567E-15));
#313 = CARTESIAN_POINT('',(3.961026378721,-4.319321034388E-15));
#314 = CARTESIAN_POINT('',(4.002315577805,3.995194684685E-15));
#315 = CARTESIAN_POINT('',(4.044451766835,3.520632885069E-15));
#316 = CARTESIAN_POINT('',(4.087513028454,-1.701128643874E-15));
#317 = CARTESIAN_POINT('',(4.131585575302,2.773049149836E-15));
#318 = CARTESIAN_POINT('',(4.178000877842,6.314889419317E-16));
#319 = CARTESIAN_POINT('',(4.179237094111,7.107512652654E-16));
#320 = CARTESIAN_POINT('',(4.180474140305,9.494676690446E-16));
#321 = CARTESIAN_POINT('',(4.181712018402,1.228044571147E-15));
#322 = CARTESIAN_POINT('',(4.182950730382,1.426888389449E-15));
#323 = CARTESIAN_POINT('',(4.184190278223,1.426405541829E-15));
#324 = CARTESIAN_POINT('',(4.185430663904,1.107002446164E-15));
#325 = CARTESIAN_POINT('',(4.187290041695,1.07181052763E-14));
#326 = CARTESIAN_POINT('',(4.187908755222,-2.87493694018E-14));
#327 = CARTESIAN_POINT('',(4.188526181591,2.260069763898E-14));
#328 = CARTESIAN_POINT('',(4.189147251018,1.181385941233E-14));
#329 = CARTESIAN_POINT('',(4.189764446754,-2.755151433433E-14));
#330 = CARTESIAN_POINT('',(4.190383338326,2.012386332981E-14));
#331 = CARTESIAN_POINT('',(4.191001430683,-1.029792984253E-14));
#332 = CARTESIAN_POINT('',(4.270566223716,-1.129133735305E-14));
#333 = CARTESIAN_POINT('',(4.346116693032,1.933443358486E-14));
#334 = CARTESIAN_POINT('',(4.418783503498,-1.498396224619E-14));
#335 = CARTESIAN_POINT('',(4.488986973676,-4.139988752664E-15));
#336 = CARTESIAN_POINT('',(4.557084275689,1.397271339004E-14));
#337 = CARTESIAN_POINT('',(4.623386806783,-1.243426319323E-14));
#338 = CARTESIAN_POINT('',(4.688171033604,6.333334774986E-15));
#339 = CARTESIAN_POINT('',(4.846963750067,9.924698959312E-15));
#340 = CARTESIAN_POINT('',(4.93938831669,-2.329505429548E-14));
#341 = CARTESIAN_POINT('',(5.02980901566,1.812222663111E-14));
#342 = CARTESIAN_POINT('',(5.118944288733,4.272826493564E-15));
#343 = CARTESIAN_POINT('',(5.207449077008,-1.999131192887E-14));
#344 = CARTESIAN_POINT('',(5.295954604003,1.117379247755E-14));
#345 = CARTESIAN_POINT('',(5.385101999778,-2.157659469729E-15));
#346 = CARTESIAN_POINT('',(5.566076140229,6.831426612158E-15));
#347 = CARTESIAN_POINT('',(5.657902900581,-2.186541593888E-14));
#348 = CARTESIAN_POINT('',(5.751766839006,3.096030927112E-14));
#349 = CARTESIAN_POINT('',(5.848422809388,-3.366093514826E-14));
#350 = CARTESIAN_POINT('',(5.948725837341,2.281797335861E-14));
#351 = CARTESIAN_POINT('',(6.053697767318,-1.338731074021E-14));
#352 = CARTESIAN_POINT('',(6.164605130143,5.72875630423E-15));
#353 = CARTESIAN_POINT('',(6.28318530718,-1.570834856447E-15));
#354 = ( GEOMETRIC_REPRESENTATION_CONTEXT(2) 
PARAMETRIC_REPRESENTATION_CONTEXT() REPRESENTATION_CONTEXT('2D SPACE',''
  ) );
#355 = ORIENTED_EDGE('',*,*,#71,.F.);
#356 = ADVANCED_FACE('',(#357),#137,.T.);
#357 = FACE_BOUND('',#358,.T.);
#358 = EDGE_LOOP('',(#359,#382,#383,#384));
#359 = ORIENTED_EDGE('',*,*,#360,.T.);
#360 = EDGE_CURVE('',#121,#361,#363,.T.);
#361 = VERTEX_POINT('',#362);
#362 = CARTESIAN_POINT('',(-21.89965898245,-2.760858480459,
    87.424845270358));
#363 = SEAM_CURVE('',#364,(#368,#375),.PCURVE_S1.);
#364 = ( BOUNDED_CURVE() B_SPLINE_CURVE(2,(#365,#366,#367),
.UNSPECIFIED.,.F.,.F.) B_SPLINE_CURVE_WITH_KNOTS((3,3),(6.28318530718,
7.853981633974),.PIECEWISE_BEZIER_KNOTS.) CURVE() 
GEOMETRIC_REPRESENTATION_ITEM() RATIONAL_B_SPLINE_CURVE((1.,
0.707106781187,1.)) REPRESENTATION_ITEM('') );
#365 = CARTESIAN_POINT('',(-18.11688484519,4.105895618799,
    75.576296965143));
#366 = CARTESIAN_POINT('',(-17.20617801741,4.028831951974,
    87.424845270358));
#367 = CARTESIAN_POINT('',(-21.89965898245,-2.760858480459,
    87.424845270358));
#368 = PCURVE('',#137,#369);
#369 = DEFINITIONAL_REPRESENTATION('',(#370),#374);
#370 = B_SPLINE_CURVE_WITH_KNOTS('',2,(#371,#372,#373),.UNSPECIFIED.,.F.
  ,.F.,(3,3),(6.28318530718,7.853981633974),.PIECEWISE_BEZIER_KNOTS.);
#371 = CARTESIAN_POINT('',(6.28318530718,0.));
#372 = CARTESIAN_POINT('',(6.28318530718,0.785398163397));
#373 = CARTESIAN_POINT('',(6.28318530718,1.570796326795));
#374 = ( GEOMETRIC_REPRESENTATION_CONTEXT(2) 
PARAMETRIC_REPRESENTATION_CONTEXT() REPRESENTATION_CONTEXT('2D SPACE',''
  ) );
#375 = PCURVE('',#137,#376);
#376 = DEFINITIONAL_REPRESENTATION('',(#377),#381);
#377 = B_SPLINE_CURVE_WITH_KNOTS('',2,(#378,#379,#380),.UNSPECIFIED.,.F.
  ,.F.,(3,3),(6.28318530718,7.853981633974),.PIECEWISE_BEZIER_KNOTS.);
#378 = CARTESIAN_POINT('',(0.,0.));
#379 = CARTESIAN_POINT('',(8.881784197001E-16,0.785398163397));
#380 = CARTESIAN_POINT('',(0.,1.570796326795));
#381 = ( GEOMETRIC_REPRESENTATION_CONTEXT(2) 
PARAMETRIC_REPRESENTATION_CONTEXT() REPRESENTATION_CONTEXT('2D SPACE',''
  ) );
#382 = ORIENTED_EDGE('',*,*,#360,.F.);
#383 = ORIENTED_EDGE('',*,*,#120,.T.);
#384 = ORIENTED_EDGE('',*,*,#230,.T.);
#385 = ( GEOMETRIC_REPRESENTATION_CONTEXT(3) 
GLOBAL_UNCERTAINTY_ASSIGNED_CONTEXT((#389)) GLOBAL_UNIT_ASSIGNED_CONTEXT
((#386,#387,#388)) REPRESENTATION_CONTEXT('Context #1',
  '3D Context with UNIT and UNCERTAINTY') );
#386 = ( LENGTH_UNIT() NAMED_UNIT(*) SI_UNIT(.MILLI.,.METRE.) );
#387 = ( NAMED_UNIT(*) PLANE_ANGLE_UNIT() SI_UNIT($,.RADIAN.) );
#388 = ( NAMED_UNIT(*) SI_UNIT($,.STERADIAN.) SOLID_ANGLE_UNIT() );
#389 = UNCERTAINTY_MEASURE_WITH_UNIT(LENGTH_MEASURE(1.E-06),#386,
  'distance_accuracy_value','confusion accuracy');
#390 = PRODUCT_RELATED_PRODUCT_CATEGORY('part',$,(#7));
ENDSEC;
END-ISO-10303-21;
