# https://github.com/mikedh/trimesh
v -0.00500000 0.05400000 0.03775000
v -0.00500537 0.05417941 0.03775000
v -0.00502146 0.05435818 0.03775000
v -0.00504821 0.05453567 0.03775000
v -0.00508553 0.05471124 0.03775000
v -0.00513328 0.05488427 0.03775000
v -0.00519130 0.05505412 0.03775000
v -0.00525936 0.05522021 0.03775000
v -0.00533724 0.05538193 0.03775000
v -0.00542465 0.05553870 0.03775000
v -0.00552128 0.05568996 0.03775000
v -0.00562679 0.05583517 0.03775000
v -0.00574079 0.05597382 0.03775000
v -0.00586287 0.05610539 0.03775000
v -0.00599261 0.05622943 0.03775000
v -0.00612953 0.05634549 0.03775000
v -0.00627315 0.05645316 0.03775000
v -0.00642295 0.05655204 0.03775000
v -0.00657839 0.05664179 0.03775000
v -0.00673893 0.05672208 0.03775000
v -0.00690398 0.05679262 0.03775000
v -0.00707295 0.05685317 0.03775000
v -0.00724524 0.05690350 0.03775000
v -0.00742023 0.05694345 0.03775000
v -0.00759730 0.05697285 0.03775000
v -0.00777581 0.05699161 0.03775000
v -0.00795512 0.05699966 0.03775000
v -0.00813459 0.05699698 0.03775000
v -0.00831359 0.05698357 0.03775000
v -0.00849145 0.05695947 0.03775000
v -0.00866756 0.05692478 0.03775000
v -0.00884128 0.05687963 0.03775000
v -0.00901199 0.05682416 0.03775000
v -0.00917908 0.05675858 0.03775000
v -0.00934194 0.05668313 0.03775000
v -0.00950000 0.05659808 0.03775000
v -0.00965269 0.05650372 0.03775000
v -0.00979947 0.05640040 0.03775000
v -0.00993980 0.05628849 0.03775000
v -0.01007319 0.05616838 0.03775000
v -0.01019916 0.05604052 0.03775000
v -0.01031725 0.05590535 0.03775000
v -0.01042705 0.05576336 0.03775000
v -0.01052816 0.05561505 0.03775000
v -0.01062022 0.05546097 0.03775000
v -0.01070291 0.05530165 0.03775000
v -0.01077591 0.05513768 0.03775000
v -0.01083898 0.05496963 0.03775000
v -0.01089189 0.05479811 0.03775000
v -0.01093444 0.05462374 0.03775000
v -0.01096649 0.05444713 0.03775000
v -0.01098792 0.05426892 0.03775000
v -0.01099866 0.05408975 0.03775000
v -0.01099866 0.05391025 0.03775000
v -0.01098792 0.05373108 0.03775000
v -0.01096649 0.05355287 0.03775000
v -0.01093444 0.05337626 0.03775000
v -0.01089189 0.05320189 0.03775000
v -0.01083898 0.05303037 0.03775000
v -0.01077591 0.05286232 0.03775000
v -0.01070291 0.05269835 0.03775000
v -0.01062022 0.05253903 0.03775000
v -0.01052816 0.05238495 0.03775000
v -0.01042705 0.05223664 0.03775000
v -0.01031725 0.05209465 0.03775000
v -0.01019916 0.05195948 0.03775000
v -0.01007319 0.05183162 0.03775000
v -0.00993980 0.05171151 0.03775000
v -0.00979947 0.05159960 0.03775000
v -0.00965269 0.05149628 0.03775000
v -0.00950000 0.05140192 0.03775000
v -0.00934194 0.05131687 0.03775000
v -0.00917908 0.05124142 0.03775000
v -0.00901199 0.05117584 0.03775000
v -0.00884128 0.05112037 0.03775000
v -0.00866756 0.05107522 0.03775000
v -0.00849145 0.05104053 0.03775000
v -0.00831359 0.05101643 0.03775000
v -0.00813459 0.05100302 0.03775000
v -0.00795512 0.05100034 0.03775000
v -0.00777581 0.05100839 0.03775000
v -0.00759730 0.05102715 0.03775000
v -0.00742023 0.05105655 0.03775000
v -0.00724524 0.05109650 0.03775000
v -0.00707295 0.05114683 0.03775000
v -0.00690398 0.05120738 0.03775000
v -0.00673893 0.05127792 0.03775000
v -0.00657839 0.05135821 0.03775000
v -0.00642295 0.05144796 0.03775000
v -0.00627315 0.05154684 0.03775000
v -0.00612953 0.05165451 0.03775000
v -0.00599261 0.05177057 0.03775000
v -0.00586287 0.05189461 0.03775000
v -0.00574079 0.05202618 0.03775000
v -0.00562679 0.05216483 0.03775000
v -0.00552128 0.05231004 0.03775000
v -0.00542465 0.05246130 0.03775000
v -0.00533724 0.05261807 0.03775000
v -0.00525936 0.05277979 0.03775000
v -0.00519130 0.05294588 0.03775000
v -0.00513328 0.05311573 0.03775000
v -0.00508553 0.05328876 0.03775000
v -0.00504821 0.05346433 0.03775000
v -0.00502146 0.05364182 0.03775000
v -0.00500537 0.05382059 0.03775000
v -0.00500000 0.05400000 0.03725000
v -0.00500537 0.05417941 0.03725000
v -0.00502146 0.05435818 0.03725000
v -0.00504821 0.05453567 0.03725000
v -0.00508553 0.05471124 0.03725000
v -0.00513328 0.05488427 0.03725000
v -0.00519130 0.05505412 0.03725000
v -0.00525936 0.05522021 0.03725000
v -0.00533724 0.05538193 0.03725000
v -0.00542465 0.05553870 0.03725000
v -0.00552128 0.05568996 0.03725000
v -0.00562679 0.05583517 0.03725000
v -0.00574079 0.05597382 0.03725000
v -0.00586287 0.05610539 0.03725000
v -0.00599261 0.05622943 0.03725000
v -0.00612953 0.05634549 0.03725000
v -0.00627315 0.05645316 0.03725000
v -0.00642295 0.05655204 0.03725000
v -0.00657839 0.05664179 0.03725000
v -0.00673893 0.05672208 0.03725000
v -0.00690398 0.05679262 0.03725000
v -0.00707295 0.05685317 0.03725000
v -0.00724524 0.05690350 0.03725000
v -0.00742023 0.05694345 0.03725000
v -0.00759730 0.05697285 0.03725000
v -0.00777581 0.05699161 0.03725000
v -0.00795512 0.05699966 0.03725000
v -0.00813459 0.05699698 0.03725000
v -0.00831359 0.05698357 0.03725000
v -0.00849145 0.05695947 0.03725000
v -0.00866756 0.05692478 0.03725000
v -0.00884128 0.05687963 0.03725000
v -0.00901199 0.05682416 0.03725000
v -0.00917908 0.05675858 0.03725000
v -0.00934194 0.05668313 0.03725000
v -0.00950000 0.05659808 0.03725000
v -0.00965269 0.05650372 0.03725000
v -0.00979947 0.05640040 0.03725000
v -0.00993980 0.05628849 0.03725000
v -0.01007319 0.05616838 0.03725000
v -0.01019916 0.05604052 0.03725000
v -0.01031725 0.05590535 0.03725000
v -0.01042705 0.05576336 0.03725000
v -0.01052816 0.05561505 0.03725000
v -0.01062022 0.05546097 0.03725000
v -0.01070291 0.05530165 0.03725000
v -0.01077591 0.05513768 0.03725000
v -0.01083898 0.05496963 0.03725000
v -0.01089189 0.05479811 0.03725000
v -0.01093444 0.05462374 0.03725000
v -0.01096649 0.05444713 0.03725000
v -0.01098792 0.05426892 0.03725000
v -0.01099866 0.05408975 0.03725000
v -0.01099866 0.05391025 0.03725000
v -0.01098792 0.05373108 0.03725000
v -0.01096649 0.05355287 0.03725000
v -0.01093444 0.05337626 0.03725000
v -0.01089189 0.05320189 0.03725000
v -0.01083898 0.05303037 0.03725000
v -0.01077591 0.05286232 0.03725000
v -0.01070291 0.05269835 0.03725000
v -0.01062022 0.05253903 0.03725000
v -0.01052816 0.05238495 0.03725000
v -0.01042705 0.05223664 0.03725000
v -0.01031725 0.05209465 0.03725000
v -0.01019916 0.05195948 0.03725000
v -0.01007319 0.05183162 0.03725000
v -0.00993980 0.05171151 0.03725000
v -0.00979947 0.05159960 0.03725000
v -0.00965269 0.05149628 0.03725000
v -0.00950000 0.05140192 0.03725000
v -0.00934194 0.05131687 0.03725000
v -0.00917908 0.05124142 0.03725000
v -0.00901199 0.05117584 0.03725000
v -0.00884128 0.05112037 0.03725000
v -0.00866756 0.05107522 0.03725000
v -0.00849145 0.05104053 0.03725000
v -0.00831359 0.05101643 0.03725000
v -0.00813459 0.05100302 0.03725000
v -0.00795512 0.05100034 0.03725000
v -0.00777581 0.05100839 0.03725000
v -0.00759730 0.05102715 0.03725000
v -0.00742023 0.05105655 0.03725000
v -0.00724524 0.05109650 0.03725000
v -0.00707295 0.05114683 0.03725000
v -0.00690398 0.05120738 0.03725000
v -0.00673893 0.05127792 0.03725000
v -0.00657839 0.05135821 0.03725000
v -0.00642295 0.05144796 0.03725000
v -0.00627315 0.05154684 0.03725000
v -0.00612953 0.05165451 0.03725000
v -0.00599261 0.05177057 0.03725000
v -0.00586287 0.05189461 0.03725000
v -0.00574079 0.05202618 0.03725000
v -0.00562679 0.05216483 0.03725000
v -0.00552128 0.05231004 0.03725000
v -0.00542465 0.05246130 0.03725000
v -0.00533724 0.05261807 0.03725000
v -0.00525936 0.05277979 0.03725000
v -0.00519130 0.05294588 0.03725000
v -0.00513328 0.05311573 0.03725000
v -0.00508553 0.05328876 0.03725000
v -0.00504821 0.05346433 0.03725000
v -0.00502146 0.05364182 0.03725000
v -0.00500537 0.05382059 0.03725000
f 62 61 167
f 167 61 166
f 65 64 170
f 170 64 169
f 208 104 103
f 208 209 104
f 1 105 210
f 210 106 1
f 210 105 104
f 104 209 210
f 176 72 71
f 177 72 176
f 176 71 70
f 70 175 176
f 199 94 93
f 93 198 199
f 4 3 109
f 3 108 109
f 107 2 1
f 1 106 107
f 3 2 107
f 107 108 3
f 148 44 43
f 149 44 148
f 168 64 63
f 169 64 168
f 63 62 168
f 62 167 168
f 67 66 171
f 172 67 171
f 171 66 65
f 65 170 171
f 165 61 60
f 166 61 165
f 164 165 59
f 59 165 60
f 163 164 59
f 59 58 163
f 160 55 54
f 160 54 159
f 56 55 160
f 160 161 56
f 36 35 141
f 141 35 140
f 37 36 141
f 141 142 37
f 14 13 118
f 118 119 14
f 190 85 84
f 84 189 190
f 193 88 87
f 193 87 192
f 89 88 193
f 193 194 89
f 195 91 90
f 196 91 195
f 90 89 195
f 89 194 195
f 183 78 77
f 183 77 182
f 79 78 183
f 183 184 79
f 80 79 185
f 79 184 185
f 179 180 74
f 74 180 75
f 73 72 178
f 178 72 177
f 178 74 73
f 179 74 178
f 69 174 175
f 69 175 70
f 173 68 67
f 173 67 172
f 173 69 68
f 174 69 173
f 202 97 96
f 202 96 201
f 98 97 202
f 202 203 98
f 96 95 200
f 201 96 200
f 200 95 94
f 94 199 200
f 92 198 93
f 92 197 198
f 196 197 92
f 92 91 196
f 101 100 205
f 206 101 205
f 150 151 45
f 45 151 46
f 149 150 45
f 45 44 149
f 43 42 147
f 147 148 43
f 47 151 152
f 46 151 47
f 48 47 153
f 153 47 152
f 158 54 53
f 159 54 158
f 163 58 162
f 58 57 162
f 56 161 162
f 162 57 56
f 23 22 127
f 127 128 23
f 20 19 124
f 125 20 124
f 124 19 18
f 18 123 124
f 17 16 122
f 122 16 121
f 122 18 17
f 122 123 18
f 30 29 134
f 135 30 134
f 134 29 28
f 28 133 134
f 132 28 27
f 132 133 28
f 33 137 138
f 32 137 33
f 139 35 34
f 140 35 139
f 34 33 139
f 139 33 138
f 142 143 38
f 37 142 38
f 40 39 144
f 145 40 144
f 39 38 144
f 144 38 143
f 11 10 115
f 116 11 115
f 115 10 9
f 9 114 115
f 117 12 11
f 117 11 116
f 13 12 117
f 117 118 13
f 14 119 15
f 119 120 15
f 15 120 121
f 121 16 15
f 112 7 6
f 112 6 111
f 207 102 101
f 207 101 206
f 207 208 103
f 103 102 207
f 87 86 191
f 192 87 191
f 191 86 85
f 85 190 191
f 83 189 84
f 83 188 189
f 187 188 83
f 83 82 187
f 82 81 186
f 187 82 186
f 186 81 80
f 80 185 186
f 77 76 181
f 182 77 181
f 181 76 75
f 75 180 181
f 99 98 204
f 98 203 204
f 204 100 99
f 204 205 100
f 6 5 110
f 111 6 110
f 4 109 110
f 110 5 4
f 146 41 40
f 146 40 145
f 42 41 146
f 146 147 42
f 49 48 154
f 48 153 154
f 126 21 20
f 126 20 125
f 22 21 126
f 126 127 22
f 23 128 24
f 128 129 24
f 24 129 130
f 130 25 24
f 131 26 25
f 131 25 130
f 27 26 131
f 131 132 27
f 136 31 30
f 136 30 135
f 32 31 136
f 136 137 32
f 113 9 8
f 113 114 9
f 8 7 113
f 7 112 113
f 96 97 50
f 50 98 99
f 67 68 50
f 50 55 56
f 8 9 50
f 46 47 50
f 50 102 103
f 30 31 50
f 50 76 77
f 50 83 84
f 99 100 50
f 50 69 70
f 50 86 87
f 53 54 50
f 80 81 50
f 37 38 50
f 50 66 67
f 1 2 50
f 63 64 50
f 20 21 50
f 103 104 50
f 50 105 1
f 50 10 11
f 50 79 80
f 93 94 50
f 60 61 50
f 73 74 50
f 50 3 4
f 40 41 50
f 50 26 27
f 50 39 40
f 50 62 63
f 50 45 46
f 56 57 50
f 27 28 50
f 50 13 14
f 104 105 50
f 84 85 50
f 50 89 90
f 87 88 50
f 77 78 50
f 70 71 50
f 50 72 73
f 50 95 96
f 90 91 50
f 50 7 8
f 65 66 50
f 50 2 3
f 50 42 43
f 4 5 50
f 50 33 34
f 54 55 50
f 50 61 62
f 50 64 65
f 50 59 60
f 50 22 23
f 17 18 50
f 50 19 20
f 50 29 30
f 50 36 37
f 34 35 50
f 11 12 50
f 50 16 17
f 50 92 93
f 85 86 50
f 14 15 50
f 50 88 89
f 50 78 79
f 75 76 50
f 71 72 50
f 94 95 50
f 50 97 98
f 50 100 101
f 50 41 42
f 43 44 50
f 50 48 49
f 58 59 50
f 50 57 58
f 50 21 22
f 50 52 53
f 18 19 50
f 28 29 50
f 50 31 32
f 50 35 36
f 50 12 13
f 9 10 50
f 6 7 50
f 101 102 50
f 50 81 82
f 50 74 75
f 68 69 50
f 91 92 50
f 50 5 6
f 44 45 50
f 50 47 48
f 23 24 50
f 25 26 50
f 32 33 50
f 50 38 39
f 50 15 16
f 82 83 50
f 51 52 50
f 50 24 25
f 157 52 51
f 157 51 156
f 157 158 53
f 53 52 157
f 163 162 155
f 121 120 155
f 172 171 155
f 155 173 172
f 155 204 203
f 155 112 111
f 106 210 155
f 155 167 166
f 166 165 155
f 155 160 159
f 196 195 155
f 192 191 155
f 177 176 155
f 149 148 155
f 206 205 155
f 169 168 155
f 155 122 121
f 155 126 125
f 155 141 140
f 145 144 155
f 155 188 187
f 155 178 177
f 155 202 201
f 155 197 196
f 155 107 106
f 155 153 152
f 155 170 169
f 155 164 163
f 159 158 155
f 130 129 155
f 140 139 155
f 116 115 155
f 209 208 155
f 155 210 209
f 155 207 206
f 155 193 192
f 155 183 182
f 187 186 155
f 175 174 155
f 155 176 175
f 201 200 155
f 155 199 198
f 198 197 155
f 155 109 108
f 108 107 155
f 155 150 149
f 152 151 155
f 111 110 155
f 155 168 167
f 155 171 170
f 155 165 164
f 161 160 155
f 155 157 156
f 125 124 155
f 135 134 155
f 155 131 130
f 155 143 142
f 142 141 155
f 155 117 116
f 119 118 155
f 155 120 119
f 155 190 189
f 189 188 155
f 194 193 155
f 155 195 194
f 184 183 155
f 155 185 184
f 155 180 179
f 179 178 155
f 174 173 155
f 203 202 155
f 155 200 199
f 182 181 155
f 155 151 150
f 148 147 155
f 155 146 145
f 114 113 155
f 155 162 161
f 128 127 155
f 155 129 128
f 155 124 123
f 123 122 155
f 155 134 133
f 133 132 155
f 138 137 155
f 155 139 138
f 155 144 143
f 155 115 114
f 118 117 155
f 155 136 135
f 208 207 155
f 155 191 190
f 155 186 185
f 155 181 180
f 205 204 155
f 155 110 109
f 147 146 155
f 155 154 153
f 127 126 155
f 132 131 155
f 137 136 155
f 155 113 112
f 158 157 155
f 51 50 155
f 156 51 155
f 49 154 155
f 155 50 49

