v -0.00389440040845 -0.00225469409425 0.0263
v -0.0086335344104 -0.00194989322387 0.0263
v -0.00993140994022 -0.00148563003447 0.0263
v -0.0098157660893 -0.00156388285479 0.0263
v -0.0096959336908 -0.00163555712082 0.0263
v -0.00957228656435 -0.00170042924322 0.0263
v -0.00944521042973 -0.00175829685205 0.0263
v -0.00931510170357 -0.00180897942813 0.0263
v -0.00918236626271 -0.0018523188661 0.0263
v -0.00904741817812 -0.00188817996769 0.0263
v -0.00891067842313 -0.00191645086346 0.0263
v -0.00877257356023 -0.00193704336176 0.0263
v -0.0177288454161 0.00411436996553 0.0263
v -0.0185833826659 0.00519593701781 0.0263
v -0.0185267907883 0.00506828764049 0.0263
v -0.0184631604026 0.00494399694027 0.0263
v -0.0183926900052 0.00482345264455 0.0263
v -0.0183155994299 0.00470703079375 0.0263
v -0.0182321291624 0.00459509456824 0.0263
v -0.0181425395898 0.0044879931554 0.0263
v -0.0180471101888 0.00438606066028 0.0263
v -0.0179461386533 0.00428961506341 0.0263
v -0.017839939966 0.00419895722883 0.0263
v -0.0203861035248 0.00958939717624 0.0263
v -0.0206461994687 0.00965011627834 0.0263
v -0.0209022349948 0.00972615915282 0.0263
v -0.021153308141 0.00981725791582 0.0263
v -0.0213985344267 0.00992309164457 0.0263
v -0.0216370499688 0.010043287508 0.0263
v -0.0218680145244 0.0101774220799 0.0263
v -0.0220906144517 0.0103250228312 0.0263
v -0.0223040655753 0.0104855697937 0.0263
v -0.0225076159497 0.0106584973926 0.0263
v -0.0227005485075 0.0108431964384 0.0263
v -0.0228821835857 0.0110390162733 0.0263
v -0.0230518813203 0.011245267063 0.0263
v -0.0232090439 0.0114612222271 0.0263
v -0.0233531176723 0.0116861209988 0.0263
v -0.0234835950941 0.0119191711045 0.0263
v -0.0236000165195 0.0121595515552 0.0263
v -0.0237019718191 0.0124064155385 0.0263
v -0.0237891018246 0.0126588934019 0.0263
v -0.0238610995944 0.0129160957163 0.0263
v -0.0239177114949 0.0131771164091 0.0263
v -0.0239587380934 0.0134410359567 0.0263
v -0.0239840348616 0.013706924623 0.0263
v -0.0239935126839 0.0139738457355 0.0263
v -0.0239871381719 0.0142408589841 0.0263
v -0.0239649337817 0.0145070237347 0.0263
v -0.0239269777349 0.0147714023417 0.0263
v -0.0238734037432 0.0150330634523 0.0263
v -0.023804400537 0.0152910852865 0.0263
v -0.0237202112007 0.0155445588848 0.0263
v -0.0236211323168 0.0157925913103 0.0263
v -0.0235075129202 0.0160343087944 0.0263
v -0.0233797532696 0.0162688598145 0.0263
v -0.0232383034365 0.0164954180942 0.0263
v -0.0230836617206 0.0167131855138 0.0263
v -0.0229163728937 0.0169213949223 0.0263
v -0.0227370262811 0.0171193128394 0.0263
v -0.022546253685 0.0173062420398 0.0263
v -0.0223447271593 0.0174815240092 0.0263
v -0.0221331566416 0.0176445412642 0.0263
v -0.0219122874528 0.0177947195276 0.0263
v -0.0216828976708 0.0179315297512 0.0263
v -0.0214457953902 0.0180544899801 0.0263
v -0.0212018158748 0.0181631670497 0.0263
v -0.020951818616 0.0182571781125 0.0263
v -0.020696684304 0.0183361919864 0.0263
v -0.0204373117263 0.018399930321 0.0263
v -0.0201746146007 0.0184481685791 0.0263
v -0.0199095183567 0.0184807368269 0.0263
v -0.0196429568754 0.0184975203329 0.0263
v -0.0193758691998 0.0184984599722 0.0263
v -0.0191091962265 0.0184835524347 0.0263
v -0.0188438773911 0.0184528502365 0.0263
v -0.018580847359 0.0184064615355 0.0263
v -0.0183210327325 0.0183445497497 0.0263
v -0.0180653487867 0.018267332982 0.0263
v -0.017814696245 0.0181750832518 0.0263
v -0.0175699581064 0.0180681255363 0.0263
v -0.0173319965345 0.0179468366264 0.0263
v -0.0171016498205 0.0178116437985 0.0263
v -0.0168797294299 0.0176630233101 0.0263
v -0.0166670171438 0.0175014987215 0.0263
v -0.0164642623053 0.0173276390515 0.0263
v -0.0162721791792 0.0171420567732 0.0263
v -0.0160914444359 0.0169454056558 0.0263
v -0.0159226947681 0.016738378462 0.0263
v -0.015766524647 0.0165217045073 0.0263
v -0.0156234842288 0.0162961470908 0.0263
v -0.0154940774165 0.0160625008063 0.0263
v -0.0153787600842 0.0158215887429 0.0263
v -0.0152779384721 0.0155742595859 0.0263
v -0.0151919677546 0.0153213846265 0.0263
v -0.0151211507892 0.0150638546927 0.0263
v -0.0150657370501 0.0148025770112 0.0263
v -0.0150259217489 0.0145384720109 0.0263
v -0.0150018451468 0.0142724700812 0.0263
v -0.0149935920609 0.0140055082938 0.0263
v -0.0150011915652 0.0137385271018 0.0263
v -0.0150246168882 0.0134724670266 0.0263
v -0.0150637855071 0.0132082653448 0.0263
v -0.0151185594387 0.0129468527862 0.0263
v -0.0151887457254 0.0126891502551 0.0263
v -0.0152740971149 0.0124360655861 0.0263
v -0.0153743129313 0.012188490346 0.0263
v -0.0154890401342 0.0119472966929 0.0263
v -0.0156178745626 0.011713334304 0.0263
v -0.0157603623585 0.011487427382 0.0263
v -0.0142298154499 0.00775728977902 0.0263
v -0.00759710657307 0.00299377877272 0.0263
v -0.00357348480143 0.00273499659487 0.0263
v -0.00375377647907 -0.00248176593279 0.0263
v -0.00359992874418 -0.00270009500515 0.0263
v -0.00343339917864 -0.00290891218158 0.0263
v -0.00325477443288 -0.00310748184083 0.0263
v -0.00306468376624 -0.00329510446161 0.0263
v -0.00286379683022 -0.00347111908687 0.0263
v -0.0026528213094 -0.0036349056522 0.0263
v -0.00243250042844 -0.00378588717022 0.0263
v -0.00220361033384 -0.00392353176317 0.0263
v -0.00196695735974 -0.0040473545366 0.0263
v -0.00172337518735 -0.0041569192876 0.0263
v -0.00147372190804 -0.00425184004141 0.0263
v -0.00121887700052 -0.00433178241116 0.0263
v -0.000959738232538 -0.00439646477582 0.0263
v -0.000697218498264 -0.00444565927233 0.0263
v -0.000432242602342 -0.00447919259831 0.0263
v -0.000165744001981 -0.00449694662252 0.0263
v 0.000101338481428 -0.00449885880109 0.0263
v 0.000368063969587 -0.0044849223978 0.0263
v 0.000633492841824 -0.00445518650781 0.0263
v 0.000896690045185 -0.00440975588473 0.0263
v 0.00115672838844 -0.00434879057157 0.0263
v 0.00141269180839 -0.00427250533698 0.0263
v 0.00166367859699 -0.00418116891861 0.0263
v 0.00190880457785 -0.00407510307644 0.0263
v 0.00214720622107 -0.00395468145926 0.0263
v 0.00237804368521 -0.00382032828841 0.0263
v 0.00260050377596 -0.0036725168633 0.0263
v 0.00281380281081 -0.00351176789408 0.0263
v 0.00301718937981 -0.0033386476673 0.0263
v 0.00320994699267 -0.00315376605097 0.0263
v 0.00339139660277 -0.00295777434614 0.0263
v 0.00356089899936 -0.00275136299247 0.0263
v 0.0037178570593 -0.00253525913598 0.0263
v 0.00386171785068 -0.00231022406744 0.0263
v 0.00399197458062 -0.00207705054048 0.0263
v 0.00410816838066 -0.00183655997891 0.0263
v 0.00420988992323 -0.001589599583 0.0263
v 0.00429678086363 -0.00133703934495 0.0263
v 0.00436853510242 -0.00107976898407 0.0263
v 0.00442489986372 -0.000818694812511 0.0263
v 0.00446567658574 -0.000554736542491 0.0263
v 0.00449072162021 -0.000288824046322 0.0263
v 0.00449994673849 -2.18940806691e-05 0.0263
v 0.00449331944231 0.000245113013461 0.0263
v 0.00447086307832 0.000511256623354 0.0263
v 0.00443265675581 0.000775599178178 0.0263
v 0.00437883506803 0.00103720945186 0.0263
v 0.00430958761804 0.0012951658436 0.0263
v 0.0042251583508 0.00154855962451 0.0263
v 0.00412584469377 0.00179649813886 0.0263
v 0.00401199650914 0.00203810794873 0.0263
v 0.00388401486135 0.00227253791098 0.0263
v 0.00374235060421 0.00249896217562 0.0263
v 0.00358750279263 0.00271658309516 0.0263
v 0.00342001692455 0.00292463403451 0.0263
v 0.00324048301926 0.00312238207173 0.0263
v 0.0030495335389 0.00330913057994 0.0263
v 0.00284784116038 0.00348422168142 0.0263
v 0.0026361164057 0.00364703856514 0.0263
v 0.00241510513892 0.00379700765972 0.0263
v 0.00218558593864 0.00393360065396 0.0263
v 0.00194836735521 0.00405633635799 0.0263
v 0.00170428506236 0.00416478239843 0.0263
v 0.0014541989133 0.0042585567415 0.0263
v 0.00119898991163 0.00433732903891 0.0263
v 0.000939557107751 0.00440082179158 0.0263
v 0.000676814431658 0.00444881132721 0.0263
v 0.000411687473371 0.00448112858823 0.0263
v 0.000145110222262 0.00449765972739 0.0263
v -0.000121978223205 0.00449834650878 0.0263
v -0.000388636963731 0.00448318651301 0.0263
v -0.000653926613781 0.00445223314571 0.0263
v -0.000916912610853 0.00440559544943 0.0263
v -0.00117666850776 0.00434343771946 0.0263
v -0.00143227923629 0.00426597892509 0.0263
v -0.00168284433088 0.00417349193818 0.0263
v -0.00192748110067 0.00406630257194 0.0263
v -0.00216532773915 0.00394478843312 0.0263
v -0.00239554636007 0.00380937759178 0.0263
v -0.00261732594917 0.0036605470733 0.0263
v -0.0028298852212 0.00349882117789 0.0263
v -0.00303247537226 0.00332476963362 0.0263
v -0.00322438271768 0.00313900558934 0.0263
v -0.00340493120617 0.00294218345473 0.0263
v -0.0216866174172 0.015575 0.0263
v -0.0217768837228 0.0154410287268 0.0263
v -0.0218589764248 0.0153018989447 0.0263
v -0.0219326016526 0.0151581087022 0.0263
v -0.0219974958471 0.0150101727312 0.0263
v -0.0220534267037 0.014858620604 0.0263
v -0.0221001940046 0.0147039948379 0.0263
v -0.022137630335 0.014546848953 0.0263
v -0.0221656016826 0.0143877454907 0.0263
v -0.0221840079171 0.0142272540002 0.0263
v -0.022192783149 0.0140659489994 0.0263
v -0.0221918959653 0.0139044079183 0.0263
v -0.0221813495418 0.013743209032 0.0263
v -0.0221611816321 0.0135829293907 0.0263
v -0.022131464432 0.013424142754 0.0263
v -0.0220923043213 0.0132674175367 0.0263
v -0.0220438414832 0.0131133147746 0.0263
v -0.0219862494019 0.0129623861154 0.0263
v -0.0219197342422 0.0128151718447 0.0263
v -0.0218445341111 0.0126721989512 0.0263
v -0.0217609182055 0.0125339792408 0.0263
v -0.0216691858488 0.0124010075044 0.0263
v -0.0215696654188 0.012273759746 0.0263
v -0.021462713173 0.0121526914797 0.0263
v -0.0213487119725 0.0120382360985 0.0263
v -0.0212280699122 0.0119308033229 0.0263
v -0.0211012188593 0.0118307777344 0.0263
v -0.0209686129076 0.0117385173986 0.0263
v -0.020830726752 0.0116543525836 0.0263
v -0.0206880539892 0.0115785845776 0.0263
v -0.0205411053506 0.0115114846103 0.0263
v -0.0203904068743 0.0114532928822 0.0263
v -0.0202364980216 0.0114042177047 0.0263
v -0.0200799297463 0.0113644347541 0.0263
v -0.0199212625222 0.0113340864431 0.0263
v -0.0197610643368 0.0113132814107 0.0263
v -0.019599908658 0.0113020941335 0.0263
v -0.0194383723813 0.0113005646592 0.0263
v -0.0192770337646 0.0113086984627 0.0263
v -0.0191164703584 0.0113264664273 0.0263
v -0.0189572569379 0.0113538049482 0.0263
v -0.0187999634459 0.0113906161606 0.0263
v -0.0186451529522 0.0114367682899 0.0263
v -0.0184933796383 0.0114920961235 0.0263
v -0.0183451868132 0.0115564016021 0.0263
v -0.0182011049688 0.0116294545287 0.0263
v -0.0180616498806 0.0117109933929 0.0263
v -0.0179273207617 0.0118007263067 0.0263
v -0.0177985984756 0.0118983320495 0.0263
v -0.0176759438144 0.0120034612181 0.0263
v -0.0175597958502 0.0121157374773 0.0263
v -0.0174505703625 0.0122347589074 0.0263
v -0.0173486583501 0.0123600994424 0.0263
v -0.0172544246317 0.0124913103959 0.0263
v -0.0171682065394 0.0126279220665 0.0263
v -0.0170903127118 0.01276944542 0.0263
v -0.0170210219884 0.0129153738396 0.0263
v -0.016960582412 0.0130651849393 0.0263
v -0.0169092103408 0.0132183424343 0.0263
v -0.0168670896732 0.0133742980606 0.0263
v -0.0168343711905 0.0135324935374 0.0263
v -0.0168111720163 0.013692362566 0.0263
v -0.0167975751976 0.0138533328567 0.0263
v -0.0167936294075 0.0140148281778 0.0263
v -0.0167993487709 0.0141762704178 0.0263
v -0.0168147128139 0.0143370816555 0.0263
v -0.0168396665373 0.0144966862284 0.0263
v -0.0168741206132 0.0146545127934 0.0263
v -0.016917951705 0.0148099963726 0.0263
v -0.0169710029087 0.0149625803749 0.0263
v -0.0170330843149 0.0151117185893 0.0263
v -0.0171039736881 0.0152568771397 0.0263
v -0.0171834172628 0.0153975363962 0.0263
v -0.0172711306516 0.015533192835 0.0263
v -0.0173667998634 0.0156633608414 0.0263
v -0.0174700824273 0.0157875744478 0.0263
v -0.0175806086184 0.0159053890015 0.0263
v -0.0176979827816 0.0160163827571 0.0263
v -0.017821784748 0.0161201583858 0.0263
v -0.0179515713386 0.0162163443977 0.0263
v -0.0180868779511 0.0163045964719 0.0263
v -0.018227220223 0.0163845986888 0.0263
v -0.0183720957653 0.0164560646613 0.0263
v -0.0185209859612 0.0165187385598 0.0263
v -0.0186733578224 0.0165723960279 0.0263
v -0.0188286658973 0.0166168449859 0.0263
v -0.0189863542232 0.016651926318 0.0263
v -0.0191458583168 0.0166775144421 0.0263
v -0.019306607195 0.0166935177595 0.0263
v -0.0194680254183 0.0166998789823 0.0263
v -0.0196295351516 0.0166965753391 0.0263
v -0.0197905582317 0.016683618656 0.0263
v -0.019950518238 0.0166610553147 0.0263
v -0.0201088425551 0.0166289660859 0.0263
v -0.0202649644231 0.0165874658409 0.0263
v -0.0204183249661 0.0165367031397 0.0263
v -0.0205683751932 0.0164768596996 0.0263
v -0.0207145779636 0.0164081497447 0.0263
v -0.0208564099093 0.0163308192386 0.0263
v -0.0209933633088 0.0162451450046 0.0263
v -0.0211249479043 0.0161514337342 0.0263
v -0.0212506926573 0.0160500208894 0.0263
v -0.021370147434 0.0159412695018 0.0263
v -0.0214828846175 0.0158255688733 0.0263
v -0.0215885006379 0.015703333182 0.0263
v -0.00219302872758 0.001575 0.0263
v -0.00228329503321 0.00144102872675 0.0263
v -0.00236538773521 0.00130189894466 0.0263
v -0.00243901296302 0.00115810870224 0.0263
v -0.00250390715744 0.00101017273124 0.0263
v -0.00255983801408 0.000858620604027 0.0263
v -0.00260660531501 0.000703994837898 0.0263
v -0.00264404164541 0.000546848952962 0.0263
v -0.00267201299294 0.0003877454907 0.0263
v -0.00269041922744 0.000227254000216 0.0263
v -0.00269919445937 6.5948999391e-05 0.0263
v -0.00269830727567 -9.55920817354e-05 0.0263
v -0.00268776085222 -0.000256790968019 0.0263
v -0.0026675929425 -0.000417070609283 0.0263
v -0.00263787574238 -0.000575857246011 0.0263
v -0.00259871563172 -0.000732582463253 0.0263
v -0.00255025279356 -0.000886685225408 0.0263
v -0.00249266071228 -0.00103761388458 0.0263
v -0.00242614555258 -0.00118482815535 0.0263
v -0.00235094542147 -0.00132780104882 0.0263
v -0.00226732951591 -0.00146602075915 0.0263
v -0.00217559715914 -0.00159899249565 0.0263
v -0.00207607672918 -0.00172624025401 0.0263
v -0.00196912448335 -0.00184730852028 0.0263
v -0.00185512328292 -0.00196176390148 0.0263
v -0.00173448122261 -0.00206919667707 0.0263
v -0.00160763016968 -0.00216922226559 0.0263
v -0.00147502421799 -0.00226148260138 0.0263
v -0.00133713806241 -0.0023456474164 0.0263
v -0.0011944652996 -0.00242141542244 0.0263
v -0.00104751666103 -0.00248851538972 0.0263
v -0.000896818184681 -0.00254670711776 0.0263
v -0.000742909331986 -0.00259578229527 0.0263
v -0.000586341056693 -0.00263556524587 0.0263
v -0.000427673832593 -0.00266591355691 0.0263
v -0.000267475647169 -0.00268671858932 0.0263
v -0.000106319968348 -0.00269790586647 0.0263
v 5.52163083656e-05 -0.00269943534082 0.0263
v 0.000216554925026 -0.00269130153726 0.0263
v 0.000377118331259 -0.00267353357268 0.0263
v 0.000536331751741 -0.00264619505178 0.0263
v 0.00069362524375 -0.00260938383938 0.0263
v 0.000848435737406 -0.00256323171007 0.0263
v 0.00100020905132 -0.00250790387648 0.0263
v 0.00114840187642 -0.0024435983979 0.0263
v 0.00129248372086 -0.00237054547126 0.0263
v 0.00143193880902 -0.00228900660707 0.0263
v 0.00156626792788 -0.00219927369331 0.0263
v 0.00169499021406 -0.00210166795052 0.0263
v 0.00181764487519 -0.00199653878192 0.0263
v 0.0019337928394 -0.00188426252265 0.0263
v 0.00204301832714 -0.00176524109259 0.0263
v 0.00214493033951 -0.00163990055756 0.0263
v 0.00223916405794 -0.00150868960414 0.0263
v 0.00232538215019 -0.0013720779335 0.0263
v 0.00240327597786 -0.00123055457996 0.0263
v 0.00247256670126 -0.00108462616039 0.0263
v 0.0025330062776 -0.000934815060673 0.0263
v 0.00258437834886 -0.000781657565654 0.0263
v 0.00262649901637 -0.000625701939418 0.0263
v 0.00265921749908 -0.000467506462631 0.0263
v 0.0026824166733 -0.000307637434042 0.0263
v 0.00269601349201 -0.000146667143282 0.0263
v 0.00269995928213 1.48281777859e-05 0.0263
v 0.00269423991875 0.000176270417826 0.0263
v 0.00267887587572 0.000337081655518 0.0263
v 0.00265392215232 0.000496686228368 0.0263
v 0.00261946807639 0.000654512793428 0.0263
v 0.0025756369846 0.000809996372557 0.0263
v 0.00252258578087 0.000962580374895 0.0263
v 0.00246050437475 0.00111171858932 0.0263
v 0.00238961500156 0.00125687713972 0.0263
v 0.00231017142684 0.00139753639616 0.0263
v 0.002222458038 0.00153319283502 0.0263
v 0.00212678882618 0.00166336084144 0.0263
v 0.00202350626234 0.00178757444776 0.0263
v 0.00191298007126 0.00190538900148 0.0263
v 0.001795605908 0.00201638275711 0.0263
v 0.00167180394162 0.00212015838578 0.0263
v 0.00154201735102 0.00221634439769 0.0263
v 0.00140671073851 0.00230459647187 0.0263
v 0.00126636846665 0.00238459868881 0.0263
v 0.00112149292434 0.00245606466133 0.0263
v 0.000972602728439 0.0025187385598 0.0263
v 0.00082023086719 0.00257239602793 0.0263
v 0.000664922792315 0.00261684498591 0.0263
v 0.000507234466415 0.002651926318 0.0263
v 0.00034773037277 0.00267751444214 0.0263
v 0.00018698149464 0.00269351775949 0.0263
v 2.55632712863e-05 0.00269987898232 0.0263
v -0.000135946461943 0.00269657533911 0.0263
v -0.000296969542122 0.00268361865604 0.0263
v -0.000456929548415 0.00266105531468 0.0263
v -0.000615253865513 0.00262896608593 0.0263
v -0.000771375733453 0.0025874658409 0.0263
v -0.000924736276467 0.0025367031397 0.0263
v -0.00107478650361 0.00247685969963 0.0263
v -0.00122098927402 0.00240814974466 0.0263
v -0.00136282121972 0.00233081923861 0.0263
v -0.00149977461915 0.00224514500462 0.0263
v -0.00163135921469 0.0021514337342 0.0263
v -0.00175710396763 0.00205002088939 0.0263
v -0.00187655874441 0.00194126950184 0.0263
v -0.00198929592791 0.00182556887331 0.0263
v -0.00209491194828 0.00170333318201 0.0263
v -0.00389440040845 -0.00225469409425 0.0263
v -0.0086335344104 -0.00194989322387 0.0263
v -0.00389440040845 -0.00225469409425 0.0295
v -0.0086335344104 -0.00194989322387 0.0295
v -0.00389440040845 -0.00225469409425 0.0295
v -0.00375377647907 -0.00248176593279 0.0295
v -0.00359992874418 -0.00270009500515 0.0295
v -0.00343339917864 -0.00290891218158 0.0295
v -0.00325477443288 -0.00310748184083 0.0295
v -0.00306468376624 -0.00329510446161 0.0295
v -0.00286379683022 -0.00347111908687 0.0295
v -0.0026528213094 -0.0036349056522 0.0295
v -0.00243250042844 -0.00378588717022 0.0295
v -0.00220361033384 -0.00392353176317 0.0295
v -0.00196695735974 -0.0040473545366 0.0295
v -0.00172337518735 -0.0041569192876 0.0295
v -0.00147372190804 -0.00425184004141 0.0295
v -0.00121887700052 -0.00433178241116 0.0295
v -0.000959738232538 -0.00439646477582 0.0295
v -0.000697218498264 -0.00444565927233 0.0295
v -0.000432242602342 -0.00447919259831 0.0295
v -0.000165744001981 -0.00449694662252 0.0295
v 0.000101338481428 -0.00449885880109 0.0295
v 0.000368063969587 -0.0044849223978 0.0295
v 0.000633492841824 -0.00445518650781 0.0295
v 0.000896690045185 -0.00440975588473 0.0295
v 0.00115672838844 -0.00434879057157 0.0295
v 0.00141269180839 -0.00427250533698 0.0295
v 0.00166367859699 -0.00418116891861 0.0295
v 0.00190880457785 -0.00407510307644 0.0295
v 0.00214720622107 -0.00395468145926 0.0295
v 0.00237804368521 -0.00382032828841 0.0295
v 0.00260050377596 -0.0036725168633 0.0295
v 0.00281380281081 -0.00351176789408 0.0295
v 0.00301718937981 -0.0033386476673 0.0295
v 0.00320994699267 -0.00315376605097 0.0295
v 0.00339139660277 -0.00295777434614 0.0295
v 0.00356089899936 -0.00275136299247 0.0295
v 0.0037178570593 -0.00253525913598 0.0295
v 0.00386171785068 -0.00231022406744 0.0295
v 0.00399197458062 -0.00207705054048 0.0295
v 0.00410816838066 -0.00183655997891 0.0295
v 0.00420988992323 -0.001589599583 0.0295
v 0.00429678086363 -0.00133703934495 0.0295
v 0.00436853510242 -0.00107976898407 0.0295
v 0.00442489986372 -0.000818694812511 0.0295
v 0.00446567658574 -0.000554736542491 0.0295
v 0.00449072162021 -0.000288824046322 0.0295
v 0.00449994673849 -2.18940806691e-05 0.0295
v 0.00449331944231 0.000245113013461 0.0295
v 0.00447086307832 0.000511256623354 0.0295
v 0.00443265675581 0.000775599178178 0.0295
v 0.00437883506803 0.00103720945186 0.0295
v 0.00430958761804 0.0012951658436 0.0295
v 0.0042251583508 0.00154855962451 0.0295
v 0.00412584469377 0.00179649813886 0.0295
v 0.00401199650914 0.00203810794873 0.0295
v 0.00388401486135 0.00227253791098 0.0295
v 0.00374235060421 0.00249896217562 0.0295
v 0.00358750279263 0.00271658309516 0.0295
v 0.00342001692455 0.00292463403451 0.0295
v 0.00324048301926 0.00312238207173 0.0295
v 0.0030495335389 0.00330913057994 0.0295
v 0.00284784116038 0.00348422168142 0.0295
v 0.0026361164057 0.00364703856514 0.0295
v 0.00241510513892 0.00379700765972 0.0295
v 0.00218558593864 0.00393360065396 0.0295
v 0.00194836735521 0.00405633635799 0.0295
v 0.00170428506236 0.00416478239843 0.0295
v 0.0014541989133 0.0042585567415 0.0295
v 0.00119898991163 0.00433732903891 0.0295
v 0.000939557107751 0.00440082179158 0.0295
v 0.000676814431658 0.00444881132721 0.0295
v 0.000411687473371 0.00448112858823 0.0295
v 0.000145110222262 0.00449765972739 0.0295
v -0.000121978223205 0.00449834650878 0.0295
v -0.000388636963731 0.00448318651301 0.0295
v -0.000653926613781 0.00445223314571 0.0295
v -0.000916912610853 0.00440559544943 0.0295
v -0.00117666850776 0.00434343771946 0.0295
v -0.00143227923629 0.00426597892509 0.0295
v -0.00168284433088 0.00417349193818 0.0295
v -0.00192748110067 0.00406630257194 0.0295
v -0.00216532773915 0.00394478843312 0.0295
v -0.00239554636007 0.00380937759178 0.0295
v -0.00261732594917 0.0036605470733 0.0295
v -0.0028298852212 0.00349882117789 0.0295
v -0.00303247537226 0.00332476963362 0.0295
v -0.00322438271768 0.00313900558934 0.0295
v -0.00340493120617 0.00294218345473 0.0295
v -0.00357348480143 0.00273499659487 0.0295
v -0.00389440040845 -0.00225469409425 0.0263
v -0.00375377647907 -0.00248176593279 0.0263
v -0.00359992874418 -0.00270009500515 0.0263
v -0.00343339917864 -0.00290891218158 0.0263
v -0.00325477443288 -0.00310748184083 0.0263
v -0.00306468376624 -0.00329510446161 0.0263
v -0.00286379683022 -0.00347111908687 0.0263
v -0.0026528213094 -0.0036349056522 0.0263
v -0.00243250042844 -0.00378588717022 0.0263
v -0.00220361033384 -0.00392353176317 0.0263
v -0.00196695735974 -0.0040473545366 0.0263
v -0.00172337518735 -0.0041569192876 0.0263
v -0.00147372190804 -0.00425184004141 0.0263
v -0.00121887700052 -0.00433178241116 0.0263
v -0.000959738232538 -0.00439646477582 0.0263
v -0.000697218498264 -0.00444565927233 0.0263
v -0.000432242602342 -0.00447919259831 0.0263
v -0.000165744001981 -0.00449694662252 0.0263
v 0.000101338481428 -0.00449885880109 0.0263
v 0.000368063969587 -0.0044849223978 0.0263
v 0.000633492841824 -0.00445518650781 0.0263
v 0.000896690045185 -0.00440975588473 0.0263
v 0.00115672838844 -0.00434879057157 0.0263
v 0.00141269180839 -0.00427250533698 0.0263
v 0.00166367859699 -0.00418116891861 0.0263
v 0.00190880457785 -0.00407510307644 0.0263
v 0.00214720622107 -0.00395468145926 0.0263
v 0.00237804368521 -0.00382032828841 0.0263
v 0.00260050377596 -0.0036725168633 0.0263
v 0.00281380281081 -0.00351176789408 0.0263
v 0.00301718937981 -0.0033386476673 0.0263
v 0.00320994699267 -0.00315376605097 0.0263
v 0.00339139660277 -0.00295777434614 0.0263
v 0.00356089899936 -0.00275136299247 0.0263
v 0.0037178570593 -0.00253525913598 0.0263
v 0.00386171785068 -0.00231022406744 0.0263
v 0.00399197458062 -0.00207705054048 0.0263
v 0.00410816838066 -0.00183655997891 0.0263
v 0.00420988992323 -0.001589599583 0.0263
v 0.00429678086363 -0.00133703934495 0.0263
v 0.00436853510242 -0.00107976898407 0.0263
v 0.00442489986372 -0.000818694812511 0.0263
v 0.00446567658574 -0.000554736542491 0.0263
v 0.00449072162021 -0.000288824046322 0.0263
v 0.00449994673849 -2.18940806691e-05 0.0263
v 0.00449331944231 0.000245113013461 0.0263
v 0.00447086307832 0.000511256623354 0.0263
v 0.00443265675581 0.000775599178178 0.0263
v 0.00437883506803 0.00103720945186 0.0263
v 0.00430958761804 0.0012951658436 0.0263
v 0.0042251583508 0.00154855962451 0.0263
v 0.00412584469377 0.00179649813886 0.0263
v 0.00401199650914 0.00203810794873 0.0263
v 0.00388401486135 0.00227253791098 0.0263
v 0.00374235060421 0.00249896217562 0.0263
v 0.00358750279263 0.00271658309516 0.0263
v 0.00342001692455 0.00292463403451 0.0263
v 0.00324048301926 0.00312238207173 0.0263
v 0.0030495335389 0.00330913057994 0.0263
v 0.00284784116038 0.00348422168142 0.0263
v 0.0026361164057 0.00364703856514 0.0263
v 0.00241510513892 0.00379700765972 0.0263
v 0.00218558593864 0.00393360065396 0.0263
v 0.00194836735521 0.00405633635799 0.0263
v 0.00170428506236 0.00416478239843 0.0263
v 0.0014541989133 0.0042585567415 0.0263
v 0.00119898991163 0.00433732903891 0.0263
v 0.000939557107751 0.00440082179158 0.0263
v 0.000676814431658 0.00444881132721 0.0263
v 0.000411687473371 0.00448112858823 0.0263
v 0.000145110222262 0.00449765972739 0.0263
v -0.000121978223205 0.00449834650878 0.0263
v -0.000388636963731 0.00448318651301 0.0263
v -0.000653926613781 0.00445223314571 0.0263
v -0.000916912610853 0.00440559544943 0.0263
v -0.00117666850776 0.00434343771946 0.0263
v -0.00143227923629 0.00426597892509 0.0263
v -0.00168284433088 0.00417349193818 0.0263
v -0.00192748110067 0.00406630257194 0.0263
v -0.00216532773915 0.00394478843312 0.0263
v -0.00239554636007 0.00380937759178 0.0263
v -0.00261732594917 0.0036605470733 0.0263
v -0.0028298852212 0.00349882117789 0.0263
v -0.00303247537226 0.00332476963362 0.0263
v -0.00322438271768 0.00313900558934 0.0263
v -0.00340493120617 0.00294218345473 0.0263
v -0.00357348480143 0.00273499659487 0.0263
v -0.0086335344104 -0.00194989322387 0.0263
v -0.0086335344104 -0.00194989322387 0.0295
v -0.00877257356023 -0.00193704336176 0.0295
v -0.00891067842313 -0.00191645086346 0.0295
v -0.00904741817812 -0.00188817996769 0.0295
v -0.00918236626271 -0.0018523188661 0.0295
v -0.00931510170357 -0.00180897942813 0.0295
v -0.00944521042973 -0.00175829685205 0.0295
v -0.00957228656435 -0.00170042924322 0.0295
v -0.0096959336908 -0.00163555712082 0.0295
v -0.0098157660893 -0.00156388285479 0.0295
v -0.00993140994022 -0.00148563003447 0.0295
v -0.00993140994022 -0.00148563003447 0.0263
v -0.0098157660893 -0.00156388285479 0.0263
v -0.0096959336908 -0.00163555712082 0.0263
v -0.00957228656435 -0.00170042924322 0.0263
v -0.00944521042973 -0.00175829685205 0.0263
v -0.00931510170357 -0.00180897942813 0.0263
v -0.00918236626271 -0.0018523188661 0.0263
v -0.00904741817812 -0.00188817996769 0.0263
v -0.00891067842313 -0.00191645086346 0.0263
v -0.00877257356023 -0.00193704336176 0.0263
v -0.00759710657307 0.00299377877272 0.0263
v -0.00357348480143 0.00273499659487 0.0263
v -0.00759710657307 0.00299377877272 0.0295
v -0.00357348480143 0.00273499659487 0.0295
v -0.00993140994022 -0.00148563003447 0.0263
v -0.00993140994022 -0.00148563003447 0.0295
v -0.0177288454161 0.00411436996553 0.0295
v -0.0177288454161 0.00411436996553 0.0263
v -0.0142298154499 0.00775728977902 0.0263
v -0.00759710657307 0.00299377877272 0.0263
v -0.0142298154499 0.00775728977902 0.0295
v -0.00759710657307 0.00299377877272 0.0295
v -0.0177288454161 0.00411436996553 0.0263
v -0.0177288454161 0.00411436996553 0.0295
v -0.017839939966 0.00419895722883 0.0295
v -0.0179461386533 0.00428961506341 0.0295
v -0.0180471101888 0.00438606066028 0.0295
v -0.0181425395898 0.0044879931554 0.0295
v -0.0182321291624 0.00459509456824 0.0295
v -0.0183155994299 0.00470703079375 0.0295
v -0.0183926900052 0.00482345264455 0.0295
v -0.0184631604026 0.00494399694027 0.0295
v -0.0185267907883 0.00506828764049 0.0295
v -0.0185833826659 0.00519593701781 0.0295
v -0.0185833826659 0.00519593701781 0.0263
v -0.0185267907883 0.00506828764049 0.0263
v -0.0184631604026 0.00494399694027 0.0263
v -0.0183926900052 0.00482345264455 0.0263
v -0.0183155994299 0.00470703079375 0.0263
v -0.0182321291624 0.00459509456824 0.0263
v -0.0181425395898 0.0044879931554 0.0263
v -0.0180471101888 0.00438606066028 0.0263
v -0.0179461386533 0.00428961506341 0.0263
v -0.017839939966 0.00419895722883 0.0263
v -0.0157603623585 0.011487427382 0.0263
v -0.0142298154499 0.00775728977902 0.0263
v -0.0157603623585 0.011487427382 0.0295
v -0.0142298154499 0.00775728977902 0.0295
v -0.0185833826659 0.00519593701781 0.0263
v -0.0203861035248 0.00958939717624 0.0263
v -0.0185833826659 0.00519593701781 0.0295
v -0.0203861035248 0.00958939717624 0.0295
v -0.0203861035248 0.00958939717624 0.0263
v -0.0206461994687 0.00965011627834 0.0263
v -0.0209022349948 0.00972615915282 0.0263
v -0.021153308141 0.00981725791582 0.0263
v -0.0213985344267 0.00992309164457 0.0263
v -0.0216370499688 0.010043287508 0.0263
v -0.0218680145244 0.0101774220799 0.0263
v -0.0220906144517 0.0103250228312 0.0263
v -0.0223040655753 0.0104855697937 0.0263
v -0.0225076159497 0.0106584973926 0.0263
v -0.0227005485075 0.0108431964384 0.0263
v -0.0228821835857 0.0110390162733 0.0263
v -0.0230518813203 0.011245267063 0.0263
v -0.0232090439 0.0114612222271 0.0263
v -0.0233531176723 0.0116861209988 0.0263
v -0.0234835950941 0.0119191711045 0.0263
v -0.0236000165195 0.0121595515552 0.0263
v -0.0237019718191 0.0124064155385 0.0263
v -0.0237891018246 0.0126588934019 0.0263
v -0.0238610995944 0.0129160957163 0.0263
v -0.0239177114949 0.0131771164091 0.0263
v -0.0239587380934 0.0134410359567 0.0263
v -0.0239840348616 0.013706924623 0.0263
v -0.0239935126839 0.0139738457355 0.0263
v -0.0239871381719 0.0142408589841 0.0263
v -0.0239649337817 0.0145070237347 0.0263
v -0.0239269777349 0.0147714023417 0.0263
v -0.0238734037432 0.0150330634523 0.0263
v -0.023804400537 0.0152910852865 0.0263
v -0.0237202112007 0.0155445588848 0.0263
v -0.0236211323168 0.0157925913103 0.0263
v -0.0235075129202 0.0160343087944 0.0263
v -0.0233797532696 0.0162688598145 0.0263
v -0.0232383034365 0.0164954180942 0.0263
v -0.0230836617206 0.0167131855138 0.0263
v -0.0229163728937 0.0169213949223 0.0263
v -0.0227370262811 0.0171193128394 0.0263
v -0.022546253685 0.0173062420398 0.0263
v -0.0223447271593 0.0174815240092 0.0263
v -0.0221331566416 0.0176445412642 0.0263
v -0.0219122874528 0.0177947195276 0.0263
v -0.0216828976708 0.0179315297512 0.0263
v -0.0214457953902 0.0180544899801 0.0263
v -0.0212018158748 0.0181631670497 0.0263
v -0.020951818616 0.0182571781125 0.0263
v -0.020696684304 0.0183361919864 0.0263
v -0.0204373117263 0.018399930321 0.0263
v -0.0201746146007 0.0184481685791 0.0263
v -0.0199095183567 0.0184807368269 0.0263
v -0.0196429568754 0.0184975203329 0.0263
v -0.0193758691998 0.0184984599722 0.0263
v -0.0191091962265 0.0184835524347 0.0263
v -0.0188438773911 0.0184528502365 0.0263
v -0.018580847359 0.0184064615355 0.0263
v -0.0183210327325 0.0183445497497 0.0263
v -0.0180653487867 0.018267332982 0.0263
v -0.017814696245 0.0181750832518 0.0263
v -0.0175699581064 0.0180681255363 0.0263
v -0.0173319965345 0.0179468366264 0.0263
v -0.0171016498205 0.0178116437985 0.0263
v -0.0168797294299 0.0176630233101 0.0263
v -0.0166670171438 0.0175014987215 0.0263
v -0.0164642623053 0.0173276390515 0.0263
v -0.0162721791792 0.0171420567732 0.0263
v -0.0160914444359 0.0169454056558 0.0263
v -0.0159226947681 0.016738378462 0.0263
v -0.015766524647 0.0165217045073 0.0263
v -0.0156234842288 0.0162961470908 0.0263
v -0.0154940774165 0.0160625008063 0.0263
v -0.0153787600842 0.0158215887429 0.0263
v -0.0152779384721 0.0155742595859 0.0263
v -0.0151919677546 0.0153213846265 0.0263
v -0.0151211507892 0.0150638546927 0.0263
v -0.0150657370501 0.0148025770112 0.0263
v -0.0150259217489 0.0145384720109 0.0263
v -0.0150018451468 0.0142724700812 0.0263
v -0.0149935920609 0.0140055082938 0.0263
v -0.0150011915652 0.0137385271018 0.0263
v -0.0150246168882 0.0134724670266 0.0263
v -0.0150637855071 0.0132082653448 0.0263
v -0.0151185594387 0.0129468527862 0.0263
v -0.0151887457254 0.0126891502551 0.0263
v -0.0152740971149 0.0124360655861 0.0263
v -0.0153743129313 0.012188490346 0.0263
v -0.0154890401342 0.0119472966929 0.0263
v -0.0156178745626 0.011713334304 0.0263
v -0.0157603623585 0.011487427382 0.0263
v -0.0203861035248 0.00958939717624 0.0295
v -0.0157603623585 0.011487427382 0.0295
v -0.0156178745626 0.011713334304 0.0295
v -0.0154890401342 0.0119472966929 0.0295
v -0.0153743129313 0.012188490346 0.0295
v -0.0152740971149 0.0124360655861 0.0295
v -0.0151887457254 0.0126891502551 0.0295
v -0.0151185594387 0.0129468527862 0.0295
v -0.0150637855071 0.0132082653448 0.0295
v -0.0150246168882 0.0134724670266 0.0295
v -0.0150011915652 0.0137385271018 0.0295
v -0.0149935920609 0.0140055082938 0.0295
v -0.0150018451468 0.0142724700812 0.0295
v -0.0150259217489 0.0145384720109 0.0295
v -0.0150657370501 0.0148025770112 0.0295
v -0.0151211507892 0.0150638546927 0.0295
v -0.0151919677546 0.0153213846265 0.0295
v -0.0152779384721 0.0155742595859 0.0295
v -0.0153787600842 0.0158215887429 0.0295
v -0.0154940774165 0.0160625008063 0.0295
v -0.0156234842288 0.0162961470908 0.0295
v -0.015766524647 0.0165217045073 0.0295
v -0.0159226947681 0.016738378462 0.0295
v -0.0160914444359 0.0169454056558 0.0295
v -0.0162721791792 0.0171420567732 0.0295
v -0.0164642623053 0.0173276390515 0.0295
v -0.0166670171438 0.0175014987215 0.0295
v -0.0168797294299 0.0176630233101 0.0295
v -0.0171016498205 0.0178116437985 0.0295
v -0.0173319965345 0.0179468366264 0.0295
v -0.0175699581064 0.0180681255363 0.0295
v -0.017814696245 0.0181750832518 0.0295
v -0.0180653487867 0.018267332982 0.0295
v -0.0183210327325 0.0183445497497 0.0295
v -0.018580847359 0.0184064615355 0.0295
v -0.0188438773911 0.0184528502365 0.0295
v -0.0191091962265 0.0184835524347 0.0295
v -0.0193758691998 0.0184984599722 0.0295
v -0.0196429568754 0.0184975203329 0.0295
v -0.0199095183567 0.0184807368269 0.0295
v -0.0201746146007 0.0184481685791 0.0295
v -0.0204373117263 0.018399930321 0.0295
v -0.020696684304 0.0183361919864 0.0295
v -0.020951818616 0.0182571781125 0.0295
v -0.0212018158748 0.0181631670497 0.0295
v -0.0214457953902 0.0180544899801 0.0295
v -0.0216828976708 0.0179315297512 0.0295
v -0.0219122874528 0.0177947195276 0.0295
v -0.0221331566416 0.0176445412642 0.0295
v -0.0223447271593 0.0174815240092 0.0295
v -0.022546253685 0.0173062420398 0.0295
v -0.0227370262811 0.0171193128394 0.0295
v -0.0229163728937 0.0169213949223 0.0295
v -0.0230836617206 0.0167131855138 0.0295
v -0.0232383034365 0.0164954180942 0.0295
v -0.0233797532696 0.0162688598145 0.0295
v -0.0235075129202 0.0160343087944 0.0295
v -0.0236211323168 0.0157925913103 0.0295
v -0.0237202112007 0.0155445588848 0.0295
v -0.023804400537 0.0152910852865 0.0295
v -0.0238734037432 0.0150330634523 0.0295
v -0.0239269777349 0.0147714023417 0.0295
v -0.0239649337817 0.0145070237347 0.0295
v -0.0239871381719 0.0142408589841 0.0295
v -0.0239935126839 0.0139738457355 0.0295
v -0.0239840348616 0.013706924623 0.0295
v -0.0239587380934 0.0134410359567 0.0295
v -0.0239177114949 0.0131771164091 0.0295
v -0.0238610995944 0.0129160957163 0.0295
v -0.0237891018246 0.0126588934019 0.0295
v -0.0237019718191 0.0124064155385 0.0295
v -0.0236000165195 0.0121595515552 0.0295
v -0.0234835950941 0.0119191711045 0.0295
v -0.0233531176723 0.0116861209988 0.0295
v -0.0232090439 0.0114612222271 0.0295
v -0.0230518813203 0.011245267063 0.0295
v -0.0228821835857 0.0110390162733 0.0295
v -0.0227005485075 0.0108431964384 0.0295
v -0.0225076159497 0.0106584973926 0.0295
v -0.0223040655753 0.0104855697937 0.0295
v -0.0220906144517 0.0103250228312 0.0295
v -0.0218680145244 0.0101774220799 0.0295
v -0.0216370499688 0.010043287508 0.0295
v -0.0213985344267 0.00992309164457 0.0295
v -0.021153308141 0.00981725791582 0.0295
v -0.0209022349948 0.00972615915282 0.0295
v -0.0206461994687 0.00965011627834 0.0295
v -0.0216866174172 0.015575 0.0295
v -0.0217768837228 0.0154410287268 0.0295
v -0.0218589764248 0.0153018989447 0.0295
v -0.0219326016526 0.0151581087022 0.0295
v -0.0219974958471 0.0150101727312 0.0295
v -0.0220534267037 0.014858620604 0.0295
v -0.0221001940046 0.0147039948379 0.0295
v -0.022137630335 0.014546848953 0.0295
v -0.0221656016826 0.0143877454907 0.0295
v -0.0221840079171 0.0142272540002 0.0295
v -0.022192783149 0.0140659489994 0.0295
v -0.0221918959653 0.0139044079183 0.0295
v -0.0221813495418 0.013743209032 0.0295
v -0.0221611816321 0.0135829293907 0.0295
v -0.022131464432 0.013424142754 0.0295
v -0.0220923043213 0.0132674175367 0.0295
v -0.0220438414832 0.0131133147746 0.0295
v -0.0219862494019 0.0129623861154 0.0295
v -0.0219197342422 0.0128151718447 0.0295
v -0.0218445341111 0.0126721989512 0.0295
v -0.0217609182055 0.0125339792408 0.0295
v -0.0216691858488 0.0124010075044 0.0295
v -0.0215696654188 0.012273759746 0.0295
v -0.021462713173 0.0121526914797 0.0295
v -0.0213487119725 0.0120382360985 0.0295
v -0.0212280699122 0.0119308033229 0.0295
v -0.0211012188593 0.0118307777344 0.0295
v -0.0209686129076 0.0117385173986 0.0295
v -0.020830726752 0.0116543525836 0.0295
v -0.0206880539892 0.0115785845776 0.0295
v -0.0205411053506 0.0115114846103 0.0295
v -0.0203904068743 0.0114532928822 0.0295
v -0.0202364980216 0.0114042177047 0.0295
v -0.0200799297463 0.0113644347541 0.0295
v -0.0199212625222 0.0113340864431 0.0295
v -0.0197610643368 0.0113132814107 0.0295
v -0.019599908658 0.0113020941335 0.0295
v -0.0194383723813 0.0113005646592 0.0295
v -0.0192770337646 0.0113086984627 0.0295
v -0.0191164703584 0.0113264664273 0.0295
v -0.0189572569379 0.0113538049482 0.0295
v -0.0187999634459 0.0113906161606 0.0295
v -0.0186451529522 0.0114367682899 0.0295
v -0.0184933796383 0.0114920961235 0.0295
v -0.0183451868132 0.0115564016021 0.0295
v -0.0182011049688 0.0116294545287 0.0295
v -0.0180616498806 0.0117109933929 0.0295
v -0.0179273207617 0.0118007263067 0.0295
v -0.0177985984756 0.0118983320495 0.0295
v -0.0176759438144 0.0120034612181 0.0295
v -0.0175597958502 0.0121157374773 0.0295
v -0.0174505703625 0.0122347589074 0.0295
v -0.0173486583501 0.0123600994424 0.0295
v -0.0172544246317 0.0124913103959 0.0295
v -0.0171682065394 0.0126279220665 0.0295
v -0.0170903127118 0.01276944542 0.0295
v -0.0170210219884 0.0129153738396 0.0295
v -0.016960582412 0.0130651849393 0.0295
v -0.0169092103408 0.0132183424343 0.0295
v -0.0168670896732 0.0133742980606 0.0295
v -0.0168343711905 0.0135324935374 0.0295
v -0.0168111720163 0.013692362566 0.0295
v -0.0167975751976 0.0138533328567 0.0295
v -0.0167936294075 0.0140148281778 0.0295
v -0.0167993487709 0.0141762704178 0.0295
v -0.0168147128139 0.0143370816555 0.0295
v -0.0168396665373 0.0144966862284 0.0295
v -0.0168741206132 0.0146545127934 0.0295
v -0.016917951705 0.0148099963726 0.0295
v -0.0169710029087 0.0149625803749 0.0295
v -0.0170330843149 0.0151117185893 0.0295
v -0.0171039736881 0.0152568771397 0.0295
v -0.0171834172628 0.0153975363962 0.0295
v -0.0172711306516 0.015533192835 0.0295
v -0.0173667998634 0.0156633608414 0.0295
v -0.0174700824273 0.0157875744478 0.0295
v -0.0175806086184 0.0159053890015 0.0295
v -0.0176979827816 0.0160163827571 0.0295
v -0.017821784748 0.0161201583858 0.0295
v -0.0179515713386 0.0162163443977 0.0295
v -0.0180868779511 0.0163045964719 0.0295
v -0.018227220223 0.0163845986888 0.0295
v -0.0183720957653 0.0164560646613 0.0295
v -0.0185209859612 0.0165187385598 0.0295
v -0.0186733578224 0.0165723960279 0.0295
v -0.0188286658973 0.0166168449859 0.0295
v -0.0189863542232 0.016651926318 0.0295
v -0.0191458583168 0.0166775144421 0.0295
v -0.019306607195 0.0166935177595 0.0295
v -0.0194680254183 0.0166998789823 0.0295
v -0.0196295351516 0.0166965753391 0.0295
v -0.0197905582317 0.016683618656 0.0295
v -0.019950518238 0.0166610553147 0.0295
v -0.0201088425551 0.0166289660859 0.0295
v -0.0202649644231 0.0165874658409 0.0295
v -0.0204183249661 0.0165367031397 0.0295
v -0.0205683751932 0.0164768596996 0.0295
v -0.0207145779636 0.0164081497447 0.0295
v -0.0208564099093 0.0163308192386 0.0295
v -0.0209933633088 0.0162451450046 0.0295
v -0.0211249479043 0.0161514337342 0.0295
v -0.0212506926573 0.0160500208894 0.0295
v -0.021370147434 0.0159412695018 0.0295
v -0.0214828846175 0.0158255688733 0.0295
v -0.0215885006379 0.015703333182 0.0295
v -0.0216866174172 0.015575 0.0295
v -0.0216866174172 0.015575 0.0263
v -0.0217768837228 0.0154410287268 0.0263
v -0.0218589764248 0.0153018989447 0.0263
v -0.0219326016526 0.0151581087022 0.0263
v -0.0219974958471 0.0150101727312 0.0263
v -0.0220534267037 0.014858620604 0.0263
v -0.0221001940046 0.0147039948379 0.0263
v -0.022137630335 0.014546848953 0.0263
v -0.0221656016826 0.0143877454907 0.0263
v -0.0221840079171 0.0142272540002 0.0263
v -0.022192783149 0.0140659489994 0.0263
v -0.0221918959653 0.0139044079183 0.0263
v -0.0221813495418 0.013743209032 0.0263
v -0.0221611816321 0.0135829293907 0.0263
v -0.022131464432 0.013424142754 0.0263
v -0.0220923043213 0.0132674175367 0.0263
v -0.0220438414832 0.0131133147746 0.0263
v -0.0219862494019 0.0129623861154 0.0263
v -0.0219197342422 0.0128151718447 0.0263
v -0.0218445341111 0.0126721989512 0.0263
v -0.0217609182055 0.0125339792408 0.0263
v -0.0216691858488 0.0124010075044 0.0263
v -0.0215696654188 0.012273759746 0.0263
v -0.021462713173 0.0121526914797 0.0263
v -0.0213487119725 0.0120382360985 0.0263
v -0.0212280699122 0.0119308033229 0.0263
v -0.0211012188593 0.0118307777344 0.0263
v -0.0209686129076 0.0117385173986 0.0263
v -0.020830726752 0.0116543525836 0.0263
v -0.0206880539892 0.0115785845776 0.0263
v -0.0205411053506 0.0115114846103 0.0263
v -0.0203904068743 0.0114532928822 0.0263
v -0.0202364980216 0.0114042177047 0.0263
v -0.0200799297463 0.0113644347541 0.0263
v -0.0199212625222 0.0113340864431 0.0263
v -0.0197610643368 0.0113132814107 0.0263
v -0.019599908658 0.0113020941335 0.0263
v -0.0194383723813 0.0113005646592 0.0263
v -0.0192770337646 0.0113086984627 0.0263
v -0.0191164703584 0.0113264664273 0.0263
v -0.0189572569379 0.0113538049482 0.0263
v -0.0187999634459 0.0113906161606 0.0263
v -0.0186451529522 0.0114367682899 0.0263
v -0.0184933796383 0.0114920961235 0.0263
v -0.0183451868132 0.0115564016021 0.0263
v -0.0182011049688 0.0116294545287 0.0263
v -0.0180616498806 0.0117109933929 0.0263
v -0.0179273207617 0.0118007263067 0.0263
v -0.0177985984756 0.0118983320495 0.0263
v -0.0176759438144 0.0120034612181 0.0263
v -0.0175597958502 0.0121157374773 0.0263
v -0.0174505703625 0.0122347589074 0.0263
v -0.0173486583501 0.0123600994424 0.0263
v -0.0172544246317 0.0124913103959 0.0263
v -0.0171682065394 0.0126279220665 0.0263
v -0.0170903127118 0.01276944542 0.0263
v -0.0170210219884 0.0129153738396 0.0263
v -0.016960582412 0.0130651849393 0.0263
v -0.0169092103408 0.0132183424343 0.0263
v -0.0168670896732 0.0133742980606 0.0263
v -0.0168343711905 0.0135324935374 0.0263
v -0.0168111720163 0.013692362566 0.0263
v -0.0167975751976 0.0138533328567 0.0263
v -0.0167936294075 0.0140148281778 0.0263
v -0.0167993487709 0.0141762704178 0.0263
v -0.0168147128139 0.0143370816555 0.0263
v -0.0168396665373 0.0144966862284 0.0263
v -0.0168741206132 0.0146545127934 0.0263
v -0.016917951705 0.0148099963726 0.0263
v -0.0169710029087 0.0149625803749 0.0263
v -0.0170330843149 0.0151117185893 0.0263
v -0.0171039736881 0.0152568771397 0.0263
v -0.0171834172628 0.0153975363962 0.0263
v -0.0172711306516 0.015533192835 0.0263
v -0.0173667998634 0.0156633608414 0.0263
v -0.0174700824273 0.0157875744478 0.0263
v -0.0175806086184 0.0159053890015 0.0263
v -0.0176979827816 0.0160163827571 0.0263
v -0.017821784748 0.0161201583858 0.0263
v -0.0179515713386 0.0162163443977 0.0263
v -0.0180868779511 0.0163045964719 0.0263
v -0.018227220223 0.0163845986888 0.0263
v -0.0183720957653 0.0164560646613 0.0263
v -0.0185209859612 0.0165187385598 0.0263
v -0.0186733578224 0.0165723960279 0.0263
v -0.0188286658973 0.0166168449859 0.0263
v -0.0189863542232 0.016651926318 0.0263
v -0.0191458583168 0.0166775144421 0.0263
v -0.019306607195 0.0166935177595 0.0263
v -0.0194680254183 0.0166998789823 0.0263
v -0.0196295351516 0.0166965753391 0.0263
v -0.0197905582317 0.016683618656 0.0263
v -0.019950518238 0.0166610553147 0.0263
v -0.0201088425551 0.0166289660859 0.0263
v -0.0202649644231 0.0165874658409 0.0263
v -0.0204183249661 0.0165367031397 0.0263
v -0.0205683751932 0.0164768596996 0.0263
v -0.0207145779636 0.0164081497447 0.0263
v -0.0208564099093 0.0163308192386 0.0263
v -0.0209933633088 0.0162451450046 0.0263
v -0.0211249479043 0.0161514337342 0.0263
v -0.0212506926573 0.0160500208894 0.0263
v -0.021370147434 0.0159412695018 0.0263
v -0.0214828846175 0.0158255688733 0.0263
v -0.0215885006379 0.015703333182 0.0263
v -0.0216866174172 0.015575 0.0263
v -0.00219302872758 0.001575 0.0295
v -0.00228329503321 0.00144102872675 0.0295
v -0.00236538773521 0.00130189894466 0.0295
v -0.00243901296302 0.00115810870224 0.0295
v -0.00250390715744 0.00101017273124 0.0295
v -0.00255983801408 0.000858620604027 0.0295
v -0.00260660531501 0.000703994837898 0.0295
v -0.00264404164541 0.000546848952962 0.0295
v -0.00267201299294 0.0003877454907 0.0295
v -0.00269041922744 0.000227254000216 0.0295
v -0.00269919445937 6.5948999391e-05 0.0295
v -0.00269830727567 -9.55920817354e-05 0.0295
v -0.00268776085222 -0.000256790968019 0.0295
v -0.0026675929425 -0.000417070609283 0.0295
v -0.00263787574238 -0.000575857246011 0.0295
v -0.00259871563172 -0.000732582463253 0.0295
v -0.00255025279356 -0.000886685225408 0.0295
v -0.00249266071228 -0.00103761388458 0.0295
v -0.00242614555258 -0.00118482815535 0.0295
v -0.00235094542147 -0.00132780104882 0.0295
v -0.00226732951591 -0.00146602075915 0.0295
v -0.00217559715914 -0.00159899249565 0.0295
v -0.00207607672918 -0.00172624025401 0.0295
v -0.00196912448335 -0.00184730852028 0.0295
v -0.00185512328292 -0.00196176390148 0.0295
v -0.00173448122261 -0.00206919667707 0.0295
v -0.00160763016968 -0.00216922226559 0.0295
v -0.00147502421799 -0.00226148260138 0.0295
v -0.00133713806241 -0.0023456474164 0.0295
v -0.0011944652996 -0.00242141542244 0.0295
v -0.00104751666103 -0.00248851538972 0.0295
v -0.000896818184681 -0.00254670711776 0.0295
v -0.000742909331986 -0.00259578229527 0.0295
v -0.000586341056693 -0.00263556524587 0.0295
v -0.000427673832593 -0.00266591355691 0.0295
v -0.000267475647169 -0.00268671858932 0.0295
v -0.000106319968348 -0.00269790586647 0.0295
v 5.52163083656e-05 -0.00269943534082 0.0295
v 0.000216554925026 -0.00269130153726 0.0295
v 0.000377118331259 -0.00267353357268 0.0295
v 0.000536331751741 -0.00264619505178 0.0295
v 0.00069362524375 -0.00260938383938 0.0295
v 0.000848435737406 -0.00256323171007 0.0295
v 0.00100020905132 -0.00250790387648 0.0295
v 0.00114840187642 -0.0024435983979 0.0295
v 0.00129248372086 -0.00237054547126 0.0295
v 0.00143193880902 -0.00228900660707 0.0295
v 0.00156626792788 -0.00219927369331 0.0295
v 0.00169499021406 -0.00210166795052 0.0295
v 0.00181764487519 -0.00199653878192 0.0295
v 0.0019337928394 -0.00188426252265 0.0295
v 0.00204301832714 -0.00176524109259 0.0295
v 0.00214493033951 -0.00163990055756 0.0295
v 0.00223916405794 -0.00150868960414 0.0295
v 0.00232538215019 -0.0013720779335 0.0295
v 0.00240327597786 -0.00123055457996 0.0295
v 0.00247256670126 -0.00108462616039 0.0295
v 0.0025330062776 -0.000934815060673 0.0295
v 0.00258437834886 -0.000781657565654 0.0295
v 0.00262649901637 -0.000625701939418 0.0295
v 0.00265921749908 -0.000467506462631 0.0295
v 0.0026824166733 -0.000307637434042 0.0295
v 0.00269601349201 -0.000146667143282 0.0295
v 0.00269995928213 1.48281777859e-05 0.0295
v 0.00269423991875 0.000176270417826 0.0295
v 0.00267887587572 0.000337081655518 0.0295
v 0.00265392215232 0.000496686228368 0.0295
v 0.00261946807639 0.000654512793428 0.0295
v 0.0025756369846 0.000809996372557 0.0295
v 0.00252258578087 0.000962580374895 0.0295
v 0.00246050437475 0.00111171858932 0.0295
v 0.00238961500156 0.00125687713972 0.0295
v 0.00231017142684 0.00139753639616 0.0295
v 0.002222458038 0.00153319283502 0.0295
v 0.00212678882618 0.00166336084144 0.0295
v 0.00202350626234 0.00178757444776 0.0295
v 0.00191298007126 0.00190538900148 0.0295
v 0.001795605908 0.00201638275711 0.0295
v 0.00167180394162 0.00212015838578 0.0295
v 0.00154201735102 0.00221634439769 0.0295
v 0.00140671073851 0.00230459647187 0.0295
v 0.00126636846665 0.00238459868881 0.0295
v 0.00112149292434 0.00245606466133 0.0295
v 0.000972602728439 0.0025187385598 0.0295
v 0.00082023086719 0.00257239602793 0.0295
v 0.000664922792315 0.00261684498591 0.0295
v 0.000507234466415 0.002651926318 0.0295
v 0.00034773037277 0.00267751444214 0.0295
v 0.00018698149464 0.00269351775949 0.0295
v 2.55632712863e-05 0.00269987898232 0.0295
v -0.000135946461943 0.00269657533911 0.0295
v -0.000296969542122 0.00268361865604 0.0295
v -0.000456929548415 0.00266105531468 0.0295
v -0.000615253865513 0.00262896608593 0.0295
v -0.000771375733453 0.0025874658409 0.0295
v -0.000924736276467 0.0025367031397 0.0295
v -0.00107478650361 0.00247685969963 0.0295
v -0.00122098927402 0.00240814974466 0.0295
v -0.00136282121972 0.00233081923861 0.0295
v -0.00149977461915 0.00224514500462 0.0295
v -0.00163135921469 0.0021514337342 0.0295
v -0.00175710396763 0.00205002088939 0.0295
v -0.00187655874441 0.00194126950184 0.0295
v -0.00198929592791 0.00182556887331 0.0295
v -0.00209491194828 0.00170333318201 0.0295
v -0.00219302872758 0.001575 0.0295
v -0.00219302872758 0.001575 0.0263
v -0.00228329503321 0.00144102872675 0.0263
v -0.00236538773521 0.00130189894466 0.0263
v -0.00243901296302 0.00115810870224 0.0263
v -0.00250390715744 0.00101017273124 0.0263
v -0.00255983801408 0.000858620604027 0.0263
v -0.00260660531501 0.000703994837898 0.0263
v -0.00264404164541 0.000546848952962 0.0263
v -0.00267201299294 0.0003877454907 0.0263
v -0.00269041922744 0.000227254000216 0.0263
v -0.00269919445937 6.5948999391e-05 0.0263
v -0.00269830727567 -9.55920817354e-05 0.0263
v -0.00268776085222 -0.000256790968019 0.0263
v -0.0026675929425 -0.000417070609283 0.0263
v -0.00263787574238 -0.000575857246011 0.0263
v -0.00259871563172 -0.000732582463253 0.0263
v -0.00255025279356 -0.000886685225408 0.0263
v -0.00249266071228 -0.00103761388458 0.0263
v -0.00242614555258 -0.00118482815535 0.0263
v -0.00235094542147 -0.00132780104882 0.0263
v -0.00226732951591 -0.00146602075915 0.0263
v -0.00217559715914 -0.00159899249565 0.0263
v -0.00207607672918 -0.00172624025401 0.0263
v -0.00196912448335 -0.00184730852028 0.0263
v -0.00185512328292 -0.00196176390148 0.0263
v -0.00173448122261 -0.00206919667707 0.0263
v -0.00160763016968 -0.00216922226559 0.0263
v -0.00147502421799 -0.00226148260138 0.0263
v -0.00133713806241 -0.0023456474164 0.0263
v -0.0011944652996 -0.00242141542244 0.0263
v -0.00104751666103 -0.00248851538972 0.0263
v -0.000896818184681 -0.00254670711776 0.0263
v -0.000742909331986 -0.00259578229527 0.0263
v -0.000586341056693 -0.00263556524587 0.0263
v -0.000427673832593 -0.00266591355691 0.0263
v -0.000267475647169 -0.00268671858932 0.0263
v -0.000106319968348 -0.00269790586647 0.0263
v 5.52163083656e-05 -0.00269943534082 0.0263
v 0.000216554925026 -0.00269130153726 0.0263
v 0.000377118331259 -0.00267353357268 0.0263
v 0.000536331751741 -0.00264619505178 0.0263
v 0.00069362524375 -0.00260938383938 0.0263
v 0.000848435737406 -0.00256323171007 0.0263
v 0.00100020905132 -0.00250790387648 0.0263
v 0.00114840187642 -0.0024435983979 0.0263
v 0.00129248372086 -0.00237054547126 0.0263
v 0.00143193880902 -0.00228900660707 0.0263
v 0.00156626792788 -0.00219927369331 0.0263
v 0.00169499021406 -0.00210166795052 0.0263
v 0.00181764487519 -0.00199653878192 0.0263
v 0.0019337928394 -0.00188426252265 0.0263
v 0.00204301832714 -0.00176524109259 0.0263
v 0.00214493033951 -0.00163990055756 0.0263
v 0.00223916405794 -0.00150868960414 0.0263
v 0.00232538215019 -0.0013720779335 0.0263
v 0.00240327597786 -0.00123055457996 0.0263
v 0.00247256670126 -0.00108462616039 0.0263
v 0.0025330062776 -0.000934815060673 0.0263
v 0.00258437834886 -0.000781657565654 0.0263
v 0.00262649901637 -0.000625701939418 0.0263
v 0.00265921749908 -0.000467506462631 0.0263
v 0.0026824166733 -0.000307637434042 0.0263
v 0.00269601349201 -0.000146667143282 0.0263
v 0.00269995928213 1.48281777859e-05 0.0263
v 0.00269423991875 0.000176270417826 0.0263
v 0.00267887587572 0.000337081655518 0.0263
v 0.00265392215232 0.000496686228368 0.0263
v 0.00261946807639 0.000654512793428 0.0263
v 0.0025756369846 0.000809996372557 0.0263
v 0.00252258578087 0.000962580374895 0.0263
v 0.00246050437475 0.00111171858932 0.0263
v 0.00238961500156 0.00125687713972 0.0263
v 0.00231017142684 0.00139753639616 0.0263
v 0.002222458038 0.00153319283502 0.0263
v 0.00212678882618 0.00166336084144 0.0263
v 0.00202350626234 0.00178757444776 0.0263
v 0.00191298007126 0.00190538900148 0.0263
v 0.001795605908 0.00201638275711 0.0263
v 0.00167180394162 0.00212015838578 0.0263
v 0.00154201735102 0.00221634439769 0.0263
v 0.00140671073851 0.00230459647187 0.0263
v 0.00126636846665 0.00238459868881 0.0263
v 0.00112149292434 0.00245606466133 0.0263
v 0.000972602728439 0.0025187385598 0.0263
v 0.00082023086719 0.00257239602793 0.0263
v 0.000664922792315 0.00261684498591 0.0263
v 0.000507234466415 0.002651926318 0.0263
v 0.00034773037277 0.00267751444214 0.0263
v 0.00018698149464 0.00269351775949 0.0263
v 2.55632712863e-05 0.00269987898232 0.0263
v -0.000135946461943 0.00269657533911 0.0263
v -0.000296969542122 0.00268361865604 0.0263
v -0.000456929548415 0.00266105531468 0.0263
v -0.000615253865513 0.00262896608593 0.0263
v -0.000771375733453 0.0025874658409 0.0263
v -0.000924736276467 0.0025367031397 0.0263
v -0.00107478650361 0.00247685969963 0.0263
v -0.00122098927402 0.00240814974466 0.0263
v -0.00136282121972 0.00233081923861 0.0263
v -0.00149977461915 0.00224514500462 0.0263
v -0.00163135921469 0.0021514337342 0.0263
v -0.00175710396763 0.00205002088939 0.0263
v -0.00187655874441 0.00194126950184 0.0263
v -0.00198929592791 0.00182556887331 0.0263
v -0.00209491194828 0.00170333318201 0.0263
v -0.00219302872758 0.001575 0.0263
v -0.00389440040845 -0.00225469409425 0.0295
v -0.0086335344104 -0.00194989322387 0.0295
v -0.00877257356023 -0.00193704336176 0.0295
v -0.00891067842313 -0.00191645086346 0.0295
v -0.00904741817812 -0.00188817996769 0.0295
v -0.00918236626271 -0.0018523188661 0.0295
v -0.00931510170357 -0.00180897942813 0.0295
v -0.00944521042973 -0.00175829685205 0.0295
v -0.00957228656435 -0.00170042924322 0.0295
v -0.0096959336908 -0.00163555712082 0.0295
v -0.0098157660893 -0.00156388285479 0.0295
v -0.00993140994022 -0.00148563003447 0.0295
v -0.0177288454161 0.00411436996553 0.0295
v -0.017839939966 0.00419895722883 0.0295
v -0.0179461386533 0.00428961506341 0.0295
v -0.0180471101888 0.00438606066028 0.0295
v -0.0181425395898 0.0044879931554 0.0295
v -0.0182321291624 0.00459509456824 0.0295
v -0.0183155994299 0.00470703079375 0.0295
v -0.0183926900052 0.00482345264455 0.0295
v -0.0184631604026 0.00494399694027 0.0295
v -0.0185267907883 0.00506828764049 0.0295
v -0.0185833826659 0.00519593701781 0.0295
v -0.0203861035248 0.00958939717624 0.0295
v -0.0157603623585 0.011487427382 0.0295
v -0.0156178745626 0.011713334304 0.0295
v -0.0154890401342 0.0119472966929 0.0295
v -0.0153743129313 0.012188490346 0.0295
v -0.0152740971149 0.0124360655861 0.0295
v -0.0151887457254 0.0126891502551 0.0295
v -0.0151185594387 0.0129468527862 0.0295
v -0.0150637855071 0.0132082653448 0.0295
v -0.0150246168882 0.0134724670266 0.0295
v -0.0150011915652 0.0137385271018 0.0295
v -0.0149935920609 0.0140055082938 0.0295
v -0.0150018451468 0.0142724700812 0.0295
v -0.0150259217489 0.0145384720109 0.0295
v -0.0150657370501 0.0148025770112 0.0295
v -0.0151211507892 0.0150638546927 0.0295
v -0.0151919677546 0.0153213846265 0.0295
v -0.0152779384721 0.0155742595859 0.0295
v -0.0153787600842 0.0158215887429 0.0295
v -0.0154940774165 0.0160625008063 0.0295
v -0.0156234842288 0.0162961470908 0.0295
v -0.015766524647 0.0165217045073 0.0295
v -0.0159226947681 0.016738378462 0.0295
v -0.0160914444359 0.0169454056558 0.0295
v -0.0162721791792 0.0171420567732 0.0295
v -0.0164642623053 0.0173276390515 0.0295
v -0.0166670171438 0.0175014987215 0.0295
v -0.0168797294299 0.0176630233101 0.0295
v -0.0171016498205 0.0178116437985 0.0295
v -0.0173319965345 0.0179468366264 0.0295
v -0.0175699581064 0.0180681255363 0.0295
v -0.017814696245 0.0181750832518 0.0295
v -0.0180653487867 0.018267332982 0.0295
v -0.0183210327325 0.0183445497497 0.0295
v -0.018580847359 0.0184064615355 0.0295
v -0.0188438773911 0.0184528502365 0.0295
v -0.0191091962265 0.0184835524347 0.0295
v -0.0193758691998 0.0184984599722 0.0295
v -0.0196429568754 0.0184975203329 0.0295
v -0.0199095183567 0.0184807368269 0.0295
v -0.0201746146007 0.0184481685791 0.0295
v -0.0204373117263 0.018399930321 0.0295
v -0.020696684304 0.0183361919864 0.0295
v -0.020951818616 0.0182571781125 0.0295
v -0.0212018158748 0.0181631670497 0.0295
v -0.0214457953902 0.0180544899801 0.0295
v -0.0216828976708 0.0179315297512 0.0295
v -0.0219122874528 0.0177947195276 0.0295
v -0.0221331566416 0.0176445412642 0.0295
v -0.0223447271593 0.0174815240092 0.0295
v -0.022546253685 0.0173062420398 0.0295
v -0.0227370262811 0.0171193128394 0.0295
v -0.0229163728937 0.0169213949223 0.0295
v -0.0230836617206 0.0167131855138 0.0295
v -0.0232383034365 0.0164954180942 0.0295
v -0.0233797532696 0.0162688598145 0.0295
v -0.0235075129202 0.0160343087944 0.0295
v -0.0236211323168 0.0157925913103 0.0295
v -0.0237202112007 0.0155445588848 0.0295
v -0.023804400537 0.0152910852865 0.0295
v -0.0238734037432 0.0150330634523 0.0295
v -0.0239269777349 0.0147714023417 0.0295
v -0.0239649337817 0.0145070237347 0.0295
v -0.0239871381719 0.0142408589841 0.0295
v -0.0239935126839 0.0139738457355 0.0295
v -0.0239840348616 0.013706924623 0.0295
v -0.0239587380934 0.0134410359567 0.0295
v -0.0239177114949 0.0131771164091 0.0295
v -0.0238610995944 0.0129160957163 0.0295
v -0.0237891018246 0.0126588934019 0.0295
v -0.0237019718191 0.0124064155385 0.0295
v -0.0236000165195 0.0121595515552 0.0295
v -0.0234835950941 0.0119191711045 0.0295
v -0.0233531176723 0.0116861209988 0.0295
v -0.0232090439 0.0114612222271 0.0295
v -0.0230518813203 0.011245267063 0.0295
v -0.0228821835857 0.0110390162733 0.0295
v -0.0227005485075 0.0108431964384 0.0295
v -0.0225076159497 0.0106584973926 0.0295
v -0.0223040655753 0.0104855697937 0.0295
v -0.0220906144517 0.0103250228312 0.0295
v -0.0218680145244 0.0101774220799 0.0295
v -0.0216370499688 0.010043287508 0.0295
v -0.0213985344267 0.00992309164457 0.0295
v -0.021153308141 0.00981725791582 0.0295
v -0.0209022349948 0.00972615915282 0.0295
v -0.0206461994687 0.00965011627834 0.0295
v -0.0142298154499 0.00775728977902 0.0295
v -0.00759710657307 0.00299377877272 0.0295
v -0.00357348480143 0.00273499659487 0.0295
v -0.00375377647907 -0.00248176593279 0.0295
v -0.00359992874418 -0.00270009500515 0.0295
v -0.00343339917864 -0.00290891218158 0.0295
v -0.00325477443288 -0.00310748184083 0.0295
v -0.00306468376624 -0.00329510446161 0.0295
v -0.00286379683022 -0.00347111908687 0.0295
v -0.0026528213094 -0.0036349056522 0.0295
v -0.00243250042844 -0.00378588717022 0.0295
v -0.00220361033384 -0.00392353176317 0.0295
v -0.00196695735974 -0.0040473545366 0.0295
v -0.00172337518735 -0.0041569192876 0.0295
v -0.00147372190804 -0.00425184004141 0.0295
v -0.00121887700052 -0.00433178241116 0.0295
v -0.000959738232538 -0.00439646477582 0.0295
v -0.000697218498264 -0.00444565927233 0.0295
v -0.000432242602342 -0.00447919259831 0.0295
v -0.000165744001981 -0.00449694662252 0.0295
v 0.000101338481428 -0.00449885880109 0.0295
v 0.000368063969587 -0.0044849223978 0.0295
v 0.000633492841824 -0.00445518650781 0.0295
v 0.000896690045185 -0.00440975588473 0.0295
v 0.00115672838844 -0.00434879057157 0.0295
v 0.00141269180839 -0.00427250533698 0.0295
v 0.00166367859699 -0.00418116891861 0.0295
v 0.00190880457785 -0.00407510307644 0.0295
v 0.00214720622107 -0.00395468145926 0.0295
v 0.00237804368521 -0.00382032828841 0.0295
v 0.00260050377596 -0.0036725168633 0.0295
v 0.00281380281081 -0.00351176789408 0.0295
v 0.00301718937981 -0.0033386476673 0.0295
v 0.00320994699267 -0.00315376605097 0.0295
v 0.00339139660277 -0.00295777434614 0.0295
v 0.00356089899936 -0.00275136299247 0.0295
v 0.0037178570593 -0.00253525913598 0.0295
v 0.00386171785068 -0.00231022406744 0.0295
v 0.00399197458062 -0.00207705054048 0.0295
v 0.00410816838066 -0.00183655997891 0.0295
v 0.00420988992323 -0.001589599583 0.0295
v 0.00429678086363 -0.00133703934495 0.0295
v 0.00436853510242 -0.00107976898407 0.0295
v 0.00442489986372 -0.000818694812511 0.0295
v 0.00446567658574 -0.000554736542491 0.0295
v 0.00449072162021 -0.000288824046322 0.0295
v 0.00449994673849 -2.18940806691e-05 0.0295
v 0.00449331944231 0.000245113013461 0.0295
v 0.00447086307832 0.000511256623354 0.0295
v 0.00443265675581 0.000775599178178 0.0295
v 0.00437883506803 0.00103720945186 0.0295
v 0.00430958761804 0.0012951658436 0.0295
v 0.0042251583508 0.00154855962451 0.0295
v 0.00412584469377 0.00179649813886 0.0295
v 0.00401199650914 0.00203810794873 0.0295
v 0.00388401486135 0.00227253791098 0.0295
v 0.00374235060421 0.00249896217562 0.0295
v 0.00358750279263 0.00271658309516 0.0295
v 0.00342001692455 0.00292463403451 0.0295
v 0.00324048301926 0.00312238207173 0.0295
v 0.0030495335389 0.00330913057994 0.0295
v 0.00284784116038 0.00348422168142 0.0295
v 0.0026361164057 0.00364703856514 0.0295
v 0.00241510513892 0.00379700765972 0.0295
v 0.00218558593864 0.00393360065396 0.0295
v 0.00194836735521 0.00405633635799 0.0295
v 0.00170428506236 0.00416478239843 0.0295
v 0.0014541989133 0.0042585567415 0.0295
v 0.00119898991163 0.00433732903891 0.0295
v 0.000939557107751 0.00440082179158 0.0295
v 0.000676814431658 0.00444881132721 0.0295
v 0.000411687473371 0.00448112858823 0.0295
v 0.000145110222262 0.00449765972739 0.0295
v -0.000121978223205 0.00449834650878 0.0295
v -0.000388636963731 0.00448318651301 0.0295
v -0.000653926613781 0.00445223314571 0.0295
v -0.000916912610853 0.00440559544943 0.0295
v -0.00117666850776 0.00434343771946 0.0295
v -0.00143227923629 0.00426597892509 0.0295
v -0.00168284433088 0.00417349193818 0.0295
v -0.00192748110067 0.00406630257194 0.0295
v -0.00216532773915 0.00394478843312 0.0295
v -0.00239554636007 0.00380937759178 0.0295
v -0.00261732594917 0.0036605470733 0.0295
v -0.0028298852212 0.00349882117789 0.0295
v -0.00303247537226 0.00332476963362 0.0295
v -0.00322438271768 0.00313900558934 0.0295
v -0.00340493120617 0.00294218345473 0.0295
v -0.0216866174172 0.015575 0.0295
v -0.0217768837228 0.0154410287268 0.0295
v -0.0218589764248 0.0153018989447 0.0295
v -0.0219326016526 0.0151581087022 0.0295
v -0.0219974958471 0.0150101727312 0.0295
v -0.0220534267037 0.014858620604 0.0295
v -0.0221001940046 0.0147039948379 0.0295
v -0.022137630335 0.014546848953 0.0295
v -0.0221656016826 0.0143877454907 0.0295
v -0.0221840079171 0.0142272540002 0.0295
v -0.022192783149 0.0140659489994 0.0295
v -0.0221918959653 0.0139044079183 0.0295
v -0.0221813495418 0.013743209032 0.0295
v -0.0221611816321 0.0135829293907 0.0295
v -0.022131464432 0.013424142754 0.0295
v -0.0220923043213 0.0132674175367 0.0295
v -0.0220438414832 0.0131133147746 0.0295
v -0.0219862494019 0.0129623861154 0.0295
v -0.0219197342422 0.0128151718447 0.0295
v -0.0218445341111 0.0126721989512 0.0295
v -0.0217609182055 0.0125339792408 0.0295
v -0.0216691858488 0.0124010075044 0.0295
v -0.0215696654188 0.012273759746 0.0295
v -0.021462713173 0.0121526914797 0.0295
v -0.0213487119725 0.0120382360985 0.0295
v -0.0212280699122 0.0119308033229 0.0295
v -0.0211012188593 0.0118307777344 0.0295
v -0.0209686129076 0.0117385173986 0.0295
v -0.020830726752 0.0116543525836 0.0295
v -0.0206880539892 0.0115785845776 0.0295
v -0.0205411053506 0.0115114846103 0.0295
v -0.0203904068743 0.0114532928822 0.0295
v -0.0202364980216 0.0114042177047 0.0295
v -0.0200799297463 0.0113644347541 0.0295
v -0.0199212625222 0.0113340864431 0.0295
v -0.0197610643368 0.0113132814107 0.0295
v -0.019599908658 0.0113020941335 0.0295
v -0.0194383723813 0.0113005646592 0.0295
v -0.0192770337646 0.0113086984627 0.0295
v -0.0191164703584 0.0113264664273 0.0295
v -0.0189572569379 0.0113538049482 0.0295
v -0.0187999634459 0.0113906161606 0.0295
v -0.0186451529522 0.0114367682899 0.0295
v -0.0184933796383 0.0114920961235 0.0295
v -0.0183451868132 0.0115564016021 0.0295
v -0.0182011049688 0.0116294545287 0.0295
v -0.0180616498806 0.0117109933929 0.0295
v -0.0179273207617 0.0118007263067 0.0295
v -0.0177985984756 0.0118983320495 0.0295
v -0.0176759438144 0.0120034612181 0.0295
v -0.0175597958502 0.0121157374773 0.0295
v -0.0174505703625 0.0122347589074 0.0295
v -0.0173486583501 0.0123600994424 0.0295
v -0.0172544246317 0.0124913103959 0.0295
v -0.0171682065394 0.0126279220665 0.0295
v -0.0170903127118 0.01276944542 0.0295
v -0.0170210219884 0.0129153738396 0.0295
v -0.016960582412 0.0130651849393 0.0295
v -0.0169092103408 0.0132183424343 0.0295
v -0.0168670896732 0.0133742980606 0.0295
v -0.0168343711905 0.0135324935374 0.0295
v -0.0168111720163 0.013692362566 0.0295
v -0.0167975751976 0.0138533328567 0.0295
v -0.0167936294075 0.0140148281778 0.0295
v -0.0167993487709 0.0141762704178 0.0295
v -0.0168147128139 0.0143370816555 0.0295
v -0.0168396665373 0.0144966862284 0.0295
v -0.0168741206132 0.0146545127934 0.0295
v -0.016917951705 0.0148099963726 0.0295
v -0.0169710029087 0.0149625803749 0.0295
v -0.0170330843149 0.0151117185893 0.0295
v -0.0171039736881 0.0152568771397 0.0295
v -0.0171834172628 0.0153975363962 0.0295
v -0.0172711306516 0.015533192835 0.0295
v -0.0173667998634 0.0156633608414 0.0295
v -0.0174700824273 0.0157875744478 0.0295
v -0.0175806086184 0.0159053890015 0.0295
v -0.0176979827816 0.0160163827571 0.0295
v -0.017821784748 0.0161201583858 0.0295
v -0.0179515713386 0.0162163443977 0.0295
v -0.0180868779511 0.0163045964719 0.0295
v -0.018227220223 0.0163845986888 0.0295
v -0.0183720957653 0.0164560646613 0.0295
v -0.0185209859612 0.0165187385598 0.0295
v -0.0186733578224 0.0165723960279 0.0295
v -0.0188286658973 0.0166168449859 0.0295
v -0.0189863542232 0.016651926318 0.0295
v -0.0191458583168 0.0166775144421 0.0295
v -0.019306607195 0.0166935177595 0.0295
v -0.0194680254183 0.0166998789823 0.0295
v -0.0196295351516 0.0166965753391 0.0295
v -0.0197905582317 0.016683618656 0.0295
v -0.019950518238 0.0166610553147 0.0295
v -0.0201088425551 0.0166289660859 0.0295
v -0.0202649644231 0.0165874658409 0.0295
v -0.0204183249661 0.0165367031397 0.0295
v -0.0205683751932 0.0164768596996 0.0295
v -0.0207145779636 0.0164081497447 0.0295
v -0.0208564099093 0.0163308192386 0.0295
v -0.0209933633088 0.0162451450046 0.0295
v -0.0211249479043 0.0161514337342 0.0295
v -0.0212506926573 0.0160500208894 0.0295
v -0.021370147434 0.0159412695018 0.0295
v -0.0214828846175 0.0158255688733 0.0295
v -0.0215885006379 0.015703333182 0.0295
v -0.00219302872758 0.001575 0.0295
v -0.00228329503321 0.00144102872675 0.0295
v -0.00236538773521 0.00130189894466 0.0295
v -0.00243901296302 0.00115810870224 0.0295
v -0.00250390715744 0.00101017273124 0.0295
v -0.00255983801408 0.000858620604027 0.0295
v -0.00260660531501 0.000703994837898 0.0295
v -0.00264404164541 0.000546848952962 0.0295
v -0.00267201299294 0.0003877454907 0.0295
v -0.00269041922744 0.000227254000216 0.0295
v -0.00269919445937 6.5948999391e-05 0.0295
v -0.00269830727567 -9.55920817354e-05 0.0295
v -0.00268776085222 -0.000256790968019 0.0295
v -0.0026675929425 -0.000417070609283 0.0295
v -0.00263787574238 -0.000575857246011 0.0295
v -0.00259871563172 -0.000732582463253 0.0295
v -0.00255025279356 -0.000886685225408 0.0295
v -0.00249266071228 -0.00103761388458 0.0295
v -0.00242614555258 -0.00118482815535 0.0295
v -0.00235094542147 -0.00132780104882 0.0295
v -0.00226732951591 -0.00146602075915 0.0295
v -0.00217559715914 -0.00159899249565 0.0295
v -0.00207607672918 -0.00172624025401 0.0295
v -0.00196912448335 -0.00184730852028 0.0295
v -0.00185512328292 -0.00196176390148 0.0295
v -0.00173448122261 -0.00206919667707 0.0295
v -0.00160763016968 -0.00216922226559 0.0295
v -0.00147502421799 -0.00226148260138 0.0295
v -0.00133713806241 -0.0023456474164 0.0295
v -0.0011944652996 -0.00242141542244 0.0295
v -0.00104751666103 -0.00248851538972 0.0295
v -0.000896818184681 -0.00254670711776 0.0295
v -0.000742909331986 -0.00259578229527 0.0295
v -0.000586341056693 -0.00263556524587 0.0295
v -0.000427673832593 -0.00266591355691 0.0295
v -0.000267475647169 -0.00268671858932 0.0295
v -0.000106319968348 -0.00269790586647 0.0295
v 5.52163083656e-05 -0.00269943534082 0.0295
v 0.000216554925026 -0.00269130153726 0.0295
v 0.000377118331259 -0.00267353357268 0.0295
v 0.000536331751741 -0.00264619505178 0.0295
v 0.00069362524375 -0.00260938383938 0.0295
v 0.000848435737406 -0.00256323171007 0.0295
v 0.00100020905132 -0.00250790387648 0.0295
v 0.00114840187642 -0.0024435983979 0.0295
v 0.00129248372086 -0.00237054547126 0.0295
v 0.00143193880902 -0.00228900660707 0.0295
v 0.00156626792788 -0.00219927369331 0.0295
v 0.00169499021406 -0.00210166795052 0.0295
v 0.00181764487519 -0.00199653878192 0.0295
v 0.0019337928394 -0.00188426252265 0.0295
v 0.00204301832714 -0.00176524109259 0.0295
v 0.00214493033951 -0.00163990055756 0.0295
v 0.00223916405794 -0.00150868960414 0.0295
v 0.00232538215019 -0.0013720779335 0.0295
v 0.00240327597786 -0.00123055457996 0.0295
v 0.00247256670126 -0.00108462616039 0.0295
v 0.0025330062776 -0.000934815060673 0.0295
v 0.00258437834886 -0.000781657565654 0.0295
v 0.00262649901637 -0.000625701939418 0.0295
v 0.00265921749908 -0.000467506462631 0.0295
v 0.0026824166733 -0.000307637434042 0.0295
v 0.00269601349201 -0.000146667143282 0.0295
v 0.00269995928213 1.48281777859e-05 0.0295
v 0.00269423991875 0.000176270417826 0.0295
v 0.00267887587572 0.000337081655518 0.0295
v 0.00265392215232 0.000496686228368 0.0295
v 0.00261946807639 0.000654512793428 0.0295
v 0.0025756369846 0.000809996372557 0.0295
v 0.00252258578087 0.000962580374895 0.0295
v 0.00246050437475 0.00111171858932 0.0295
v 0.00238961500156 0.00125687713972 0.0295
v 0.00231017142684 0.00139753639616 0.0295
v 0.002222458038 0.00153319283502 0.0295
v 0.00212678882618 0.00166336084144 0.0295
v 0.00202350626234 0.00178757444776 0.0295
v 0.00191298007126 0.00190538900148 0.0295
v 0.001795605908 0.00201638275711 0.0295
v 0.00167180394162 0.00212015838578 0.0295
v 0.00154201735102 0.00221634439769 0.0295
v 0.00140671073851 0.00230459647187 0.0295
v 0.00126636846665 0.00238459868881 0.0295
v 0.00112149292434 0.00245606466133 0.0295
v 0.000972602728439 0.0025187385598 0.0295
v 0.00082023086719 0.00257239602793 0.0295
v 0.000664922792315 0.00261684498591 0.0295
v 0.000507234466415 0.002651926318 0.0295
v 0.00034773037277 0.00267751444214 0.0295
v 0.00018698149464 0.00269351775949 0.0295
v 2.55632712863e-05 0.00269987898232 0.0295
v -0.000135946461943 0.00269657533911 0.0295
v -0.000296969542122 0.00268361865604 0.0295
v -0.000456929548415 0.00266105531468 0.0295
v -0.000615253865513 0.00262896608593 0.0295
v -0.000771375733453 0.0025874658409 0.0295
v -0.000924736276467 0.0025367031397 0.0295
v -0.00107478650361 0.00247685969963 0.0295
v -0.00122098927402 0.00240814974466 0.0295
v -0.00136282121972 0.00233081923861 0.0295
v -0.00149977461915 0.00224514500462 0.0295
v -0.00163135921469 0.0021514337342 0.0295
v -0.00175710396763 0.00205002088939 0.0295
v -0.00187655874441 0.00194126950184 0.0295
v -0.00198929592791 0.00182556887331 0.0295
v -0.00209491194828 0.00170333318201 0.0295
f 291 70 71
f 290 291 71
f 290 71 72
f 292 70 291
f 292 69 70
f 289 290 72
f 289 72 73
f 293 68 69
f 293 69 292
f 288 289 73
f 288 73 74
f 294 68 293
f 294 67 68
f 287 74 75
f 287 288 74
f 295 66 67
f 295 67 294
f 286 75 76
f 286 287 75
f 296 65 66
f 296 66 295
f 285 286 76
f 285 76 77
f 297 65 296
f 297 64 65
f 284 77 78
f 284 285 77
f 298 63 64
f 298 64 297
f 283 284 78
f 283 78 79
f 299 63 298
f 299 62 63
f 282 79 80
f 282 283 79
f 300 62 299
f 300 61 62
f 281 282 80
f 281 80 81
f 301 60 61
f 301 61 300
f 280 81 82
f 280 281 81
f 302 60 301
f 302 59 60
f 279 82 83
f 279 280 82
f 303 59 302
f 303 58 59
f 278 279 83
f 278 83 84
f 199 58 303
f 199 57 58
f 277 278 84
f 277 84 85
f 200 57 199
f 200 56 57
f 276 277 85
f 276 85 86
f 201 56 200
f 201 55 56
f 275 276 86
f 275 86 87
f 202 55 201
f 202 54 55
f 274 275 87
f 274 87 88
f 203 53 54
f 203 54 202
f 273 274 88
f 273 88 89
f 204 52 53
f 204 53 203
f 272 273 89
f 272 89 90
f 205 51 52
f 205 52 204
f 271 272 90
f 271 90 91
f 206 50 51
f 206 51 205
f 270 271 91
f 270 91 92
f 207 49 50
f 207 50 206
f 269 270 92
f 269 92 93
f 208 49 207
f 208 48 49
f 268 269 93
f 268 93 94
f 209 47 48
f 209 48 208
f 267 94 95
f 267 268 94
f 210 46 47
f 210 47 209
f 266 267 95
f 266 95 96
f 211 46 210
f 45 46 211
f 265 266 96
f 265 96 97
f 212 45 211
f 44 45 212
f 264 265 97
f 213 44 212
f 98 264 97
f 263 264 98
f 43 213 214
f 43 44 213
f 99 262 263
f 99 263 98
f 42 214 215
f 42 43 214
f 100 262 99
f 100 261 262
f 41 215 216
f 41 42 215
f 101 261 100
f 101 260 261
f 40 216 217
f 40 41 216
f 102 259 260
f 102 260 101
f 39 217 218
f 39 40 217
f 103 258 259
f 103 259 102
f 38 218 219
f 38 39 218
f 104 257 258
f 104 258 103
f 37 219 220
f 37 38 219
f 105 256 257
f 105 257 104
f 36 220 221
f 36 37 220
f 106 256 105
f 106 255 256
f 35 221 222
f 35 36 221
f 107 255 106
f 107 254 255
f 34 35 222
f 34 222 223
f 108 254 107
f 108 253 254
f 33 223 224
f 33 34 223
f 109 253 108
f 32 224 225
f 32 33 224
f 110 243 244
f 110 244 245
f 110 245 246
f 110 246 247
f 110 247 248
f 110 248 249
f 110 249 250
f 110 250 251
f 110 251 252
f 110 252 253
f 110 253 109
f 31 225 226
f 31 32 225
f 30 226 227
f 30 31 226
f 29 227 228
f 29 30 227
f 28 228 229
f 28 29 228
f 27 28 229
f 27 229 230
f 26 230 231
f 26 27 230
f 25 26 231
f 25 231 232
f 24 232 233
f 24 233 234
f 24 234 235
f 24 235 236
f 24 236 237
f 24 237 238
f 24 238 239
f 24 239 240
f 24 240 241
f 24 241 242
f 24 25 232
f 111 242 243
f 111 24 242
f 111 243 110
f 14 24 111
f 16 15 14
f 17 16 14
f 18 17 14
f 19 18 14
f 21 20 19
f 21 19 14
f 23 21 14
f 23 22 21
f 13 23 14
f 13 14 111
f 396 187 186
f 395 396 186
f 395 186 185
f 397 187 396
f 397 188 187
f 394 395 185
f 394 185 184
f 398 188 397
f 398 189 188
f 393 394 184
f 393 184 183
f 399 189 398
f 399 190 189
f 392 183 182
f 392 393 183
f 400 190 399
f 400 191 190
f 391 182 181
f 391 392 182
f 401 191 400
f 401 192 191
f 390 391 181
f 390 181 180
f 402 192 401
f 402 193 192
f 389 390 180
f 389 180 179
f 403 194 193
f 403 193 402
f 388 389 179
f 388 179 178
f 404 194 403
f 404 195 194
f 387 178 177
f 387 388 178
f 405 195 404
f 405 196 195
f 386 387 177
f 386 177 176
f 406 196 405
f 406 197 196
f 385 386 176
f 385 176 175
f 407 197 406
f 407 198 197
f 384 385 175
f 384 175 174
f 408 198 407
f 408 113 198
f 383 384 174
f 383 174 173
f 304 113 408
f 382 383 173
f 382 173 172
f 305 113 304
f 381 382 172
f 381 172 171
f 306 113 305
f 380 381 171
f 380 171 170
f 307 113 306
f 379 380 170
f 379 170 169
f 308 113 307
f 378 379 169
f 378 169 168
f 309 113 308
f 377 378 168
f 377 168 167
f 310 113 309
f 376 377 167
f 376 167 166
f 311 113 310
f 375 166 165
f 375 376 166
f 312 113 311
f 374 165 164
f 374 375 165
f 313 112 113
f 313 113 312
f 373 164 163
f 373 374 164
f 314 112 313
f 372 373 163
f 372 163 162
f 371 162 161
f 371 372 162
f 3 111 112
f 3 13 111
f 370 371 161
f 160 370 161
f 5 4 3
f 369 370 160
f 6 5 3
f 159 369 160
f 368 369 159
f 10 7 6
f 10 8 7
f 10 9 8
f 158 368 159
f 158 367 368
f 2 6 3
f 2 11 10
f 2 12 11
f 2 3 112
f 2 10 6
f 157 367 158
f 157 366 367
f 156 366 157
f 156 365 366
f 155 365 156
f 155 364 365
f 154 363 364
f 154 364 155
f 1 314 315
f 1 315 316
f 1 316 317
f 1 317 318
f 1 318 319
f 1 319 320
f 1 320 321
f 1 321 322
f 1 322 323
f 1 323 324
f 1 2 112
f 1 112 314
f 153 362 363
f 153 363 154
f 114 324 325
f 114 1 324
f 152 361 362
f 152 362 153
f 115 325 326
f 115 114 325
f 151 360 361
f 151 361 152
f 116 326 327
f 116 115 326
f 150 360 151
f 150 359 360
f 117 116 327
f 117 327 328
f 149 359 150
f 149 358 359
f 118 117 328
f 118 328 329
f 148 358 149
f 148 357 358
f 119 329 330
f 119 118 329
f 147 356 357
f 147 357 148
f 120 330 331
f 120 119 330
f 146 355 356
f 146 356 147
f 121 120 331
f 121 331 332
f 145 354 355
f 145 355 146
f 122 332 333
f 122 121 332
f 144 353 354
f 144 354 145
f 123 122 333
f 123 333 334
f 143 352 353
f 143 353 144
f 124 123 334
f 124 334 335
f 142 351 352
f 142 352 143
f 125 124 335
f 125 335 336
f 141 350 351
f 141 351 142
f 126 336 337
f 126 125 336
f 140 350 141
f 140 349 350
f 127 126 337
f 127 337 338
f 139 348 349
f 139 349 140
f 128 127 338
f 128 338 339
f 138 347 348
f 138 348 139
f 129 339 340
f 129 128 339
f 137 347 138
f 137 346 347
f 130 340 341
f 130 129 340
f 136 346 137
f 136 345 346
f 131 341 342
f 131 130 341
f 135 345 136
f 132 131 342
f 132 342 343
f 134 344 345
f 134 345 135
f 133 132 343
f 133 344 134
f 133 343 344
f 410 409 411
f 410 411 412
f 413 500 501
f 414 413 501
f 415 414 501
f 415 501 502
f 416 415 502
f 416 502 503
f 417 503 504
f 417 416 503
f 418 504 505
f 418 417 504
f 419 505 506
f 419 506 507
f 419 418 505
f 420 419 507
f 421 420 507
f 421 507 508
f 422 421 508
f 422 508 509
f 423 422 509
f 423 509 510
f 423 510 511
f 424 423 511
f 425 424 511
f 425 511 512
f 426 425 512
f 426 512 513
f 427 513 514
f 427 426 513
f 428 514 515
f 428 427 514
f 429 515 516
f 429 428 515
f 430 516 517
f 430 429 516
f 431 517 518
f 431 430 517
f 432 518 519
f 432 431 518
f 433 519 520
f 433 432 519
f 434 520 521
f 434 433 520
f 435 521 522
f 435 434 521
f 436 522 523
f 436 435 522
f 437 523 524
f 437 524 525
f 437 436 523
f 438 437 525
f 439 525 526
f 439 526 527
f 439 438 525
f 440 439 527
f 441 527 528
f 441 440 527
f 442 528 529
f 442 441 528
f 443 529 530
f 443 530 531
f 443 442 529
f 444 443 531
f 445 444 531
f 445 531 532
f 445 532 533
f 446 445 533
f 446 533 534
f 447 446 534
f 448 447 534
f 448 534 535
f 449 535 536
f 449 448 535
f 450 536 537
f 450 537 538
f 450 449 536
f 451 538 539
f 451 450 538
f 452 451 539
f 453 539 540
f 453 452 539
f 454 540 541
f 454 453 540
f 455 541 542
f 455 542 543
f 455 454 541
f 456 543 544
f 456 455 543
f 457 456 544
f 458 544 545
f 458 545 546
f 458 457 544
f 459 546 547
f 459 458 546
f 460 459 547
f 461 547 548
f 461 548 549
f 461 460 547
f 462 461 549
f 463 549 550
f 463 550 551
f 463 462 549
f 464 463 551
f 465 551 552
f 465 552 553
f 465 464 551
f 466 465 553
f 467 553 554
f 467 466 553
f 468 554 555
f 468 467 554
f 469 555 556
f 469 556 557
f 469 468 555
f 470 469 557
f 471 470 557
f 471 557 558
f 472 471 558
f 472 558 559
f 472 559 560
f 473 472 560
f 473 560 561
f 474 473 561
f 474 561 562
f 475 474 562
f 476 475 562
f 476 562 563
f 477 476 563
f 477 563 564
f 477 564 565
f 478 477 565
f 478 565 566
f 479 478 566
f 480 479 566
f 480 566 567
f 481 480 567
f 481 567 568
f 482 481 568
f 482 568 569
f 482 569 570
f 483 482 570
f 484 570 571
f 484 483 570
f 485 571 572
f 485 484 571
f 486 572 573
f 486 485 572
f 487 573 574
f 487 486 573
f 488 574 575
f 488 487 574
f 489 575 576
f 489 488 575
f 490 576 577
f 490 577 578
f 490 489 576
f 491 490 578
f 492 578 579
f 492 491 578
f 493 579 580
f 493 492 579
f 494 580 581
f 494 493 580
f 495 494 581
f 495 581 582
f 496 495 582
f 496 582 583
f 497 496 583
f 497 583 584
f 498 497 584
f 498 584 585
f 499 498 585
f 499 585 586
f 598 599 600
f 597 600 601
f 597 598 600
f 596 597 601
f 595 601 602
f 595 596 601
f 594 602 603
f 594 595 602
f 593 603 604
f 593 594 603
f 592 604 605
f 592 593 604
f 591 605 606
f 591 592 605
f 590 606 607
f 590 591 606
f 589 607 608
f 589 590 607
f 588 608 587
f 588 589 608
f 610 609 611
f 610 611 612
f 616 613 614
f 616 614 615
f 620 617 619
f 618 617 620
f 631 632 633
f 631 633 634
f 630 634 635
f 630 631 634
f 629 635 636
f 629 636 637
f 629 630 635
f 628 637 638
f 628 629 637
f 627 638 639
f 627 628 638
f 626 639 640
f 626 627 639
f 625 640 641
f 625 626 640
f 624 641 642
f 624 625 641
f 623 624 642
f 622 642 621
f 622 623 642
f 646 643 645
f 644 643 646
f 648 647 649
f 648 649 650
f 739 737 736
f 740 736 735
f 740 739 736
f 741 735 734
f 741 740 735
f 742 734 733
f 742 741 734
f 743 733 732
f 743 742 733
f 744 732 731
f 744 743 732
f 745 731 730
f 745 744 731
f 746 745 730
f 746 730 729
f 747 746 729
f 747 729 728
f 748 747 728
f 748 728 727
f 749 748 727
f 749 727 726
f 750 749 726
f 750 726 725
f 751 750 725
f 751 725 724
f 752 751 724
f 752 724 723
f 753 752 723
f 753 723 722
f 754 753 722
f 754 722 721
f 755 754 721
f 755 721 720
f 756 755 720
f 756 720 719
f 757 756 719
f 757 719 718
f 758 757 718
f 758 718 717
f 759 758 717
f 759 717 716
f 760 759 716
f 760 716 715
f 761 715 714
f 761 760 715
f 762 761 714
f 763 713 712
f 763 714 713
f 763 762 714
f 764 712 711
f 764 763 712
f 765 764 711
f 766 711 710
f 766 765 711
f 767 709 708
f 767 710 709
f 767 766 710
f 768 767 708
f 769 707 706
f 769 708 707
f 769 768 708
f 770 706 705
f 770 769 706
f 771 770 705
f 772 771 705
f 772 704 703
f 772 705 704
f 773 772 703
f 773 703 702
f 774 773 702
f 775 774 702
f 775 701 700
f 775 702 701
f 776 775 700
f 777 776 700
f 777 699 698
f 777 700 699
f 778 777 698
f 778 698 697
f 779 778 697
f 780 779 697
f 780 696 695
f 780 697 696
f 781 780 695
f 782 694 693
f 782 695 694
f 782 781 695
f 783 693 692
f 783 782 693
f 784 783 692
f 785 691 690
f 785 692 691
f 785 784 692
f 786 690 689
f 786 785 690
f 787 786 689
f 788 688 687
f 788 689 688
f 788 787 689
f 789 788 687
f 790 687 686
f 790 789 687
f 791 686 685
f 791 790 686
f 792 684 683
f 792 685 684
f 792 791 685
f 793 792 683
f 794 683 682
f 794 793 683
f 795 794 682
f 795 682 681
f 796 795 681
f 796 681 680
f 797 796 680
f 797 680 679
f 798 797 679
f 798 679 678
f 799 798 678
f 799 677 676
f 799 678 677
f 800 799 676
f 801 800 676
f 801 675 674
f 801 676 675
f 802 801 674
f 803 802 674
f 803 674 673
f 804 672 671
f 804 673 672
f 804 803 673
f 805 804 671
f 806 670 669
f 806 671 670
f 806 805 671
f 807 806 669
f 808 668 667
f 808 669 668
f 808 807 669
f 809 667 666
f 809 808 667
f 810 809 666
f 811 665 664
f 811 666 665
f 811 810 666
f 812 811 664
f 813 664 663
f 813 812 664
f 814 662 661
f 814 663 662
f 814 813 663
f 815 814 661
f 816 661 660
f 816 815 661
f 817 659 658
f 817 660 659
f 817 816 660
f 818 817 658
f 819 657 656
f 819 658 657
f 819 818 658
f 820 819 656
f 821 656 655
f 821 820 656
f 822 655 654
f 822 821 655
f 823 654 653
f 823 822 654
f 824 652 651
f 824 653 652
f 824 823 653
f 738 824 651
f 826 931 825
f 826 932 931
f 827 933 932
f 827 932 826
f 828 934 933
f 828 933 827
f 829 935 934
f 829 934 828
f 830 936 935
f 830 935 829
f 831 937 936
f 831 936 830
f 832 938 937
f 832 937 831
f 833 939 938
f 833 938 832
f 834 940 939
f 834 939 833
f 835 941 940
f 835 940 834
f 836 942 941
f 836 941 835
f 837 943 942
f 837 944 943
f 837 942 836
f 838 944 837
f 839 945 944
f 839 944 838
f 840 946 945
f 840 945 839
f 841 947 946
f 841 946 840
f 842 948 947
f 842 947 841
f 843 949 948
f 843 948 842
f 844 950 949
f 844 949 843
f 845 951 950
f 845 950 844
f 846 952 951
f 846 951 845
f 847 952 846
f 847 953 952
f 848 953 847
f 848 954 953
f 848 955 954
f 849 955 848
f 850 955 849
f 850 956 955
f 850 957 956
f 851 957 850
f 852 957 851
f 852 958 957
f 852 959 958
f 853 959 852
f 854 959 853
f 854 960 959
f 854 961 960
f 855 962 961
f 855 961 854
f 856 963 962
f 856 962 855
f 857 963 856
f 858 964 963
f 858 965 964
f 858 963 857
f 859 966 965
f 859 965 858
f 860 966 859
f 861 967 966
f 861 966 860
f 862 968 967
f 862 967 861
f 863 969 968
f 863 968 862
f 864 970 969
f 864 971 970
f 864 969 863
f 865 971 864
f 866 972 971
f 866 971 865
f 867 973 972
f 867 974 973
f 867 972 866
f 868 974 867
f 869 975 974
f 869 974 868
f 870 976 975
f 870 975 869
f 871 977 976
f 871 976 870
f 872 978 977
f 872 977 871
f 873 978 872
f 873 979 978
f 874 979 873
f 874 980 979
f 875 980 874
f 875 981 980
f 876 981 875
f 876 982 981
f 877 982 876
f 877 983 982
f 878 983 877
f 878 984 983
f 879 984 878
f 879 985 984
f 880 985 879
f 880 986 985
f 881 986 880
f 881 987 986
f 881 988 987
f 882 988 881
f 883 988 882
f 883 989 988
f 884 989 883
f 884 990 989
f 885 990 884
f 885 991 990
f 886 991 885
f 886 992 991
f 887 992 886
f 887 993 992
f 888 993 887
f 888 994 993
f 889 994 888
f 889 995 994
f 890 996 995
f 890 997 996
f 890 995 889
f 891 997 890
f 892 998 997
f 892 997 891
f 893 999 998
f 893 1000 999
f 893 998 892
f 894 1000 893
f 895 1001 1000
f 895 1000 894
f 896 1002 1001
f 896 1001 895
f 897 1002 896
f 897 1003 1002
f 898 1003 897
f 898 1004 1003
f 898 1005 1004
f 899 1005 898
f 900 1005 899
f 900 1006 1005
f 901 1006 900
f 901 1007 1006
f 902 1007 901
f 902 1008 1007
f 903 1008 902
f 903 1009 1008
f 904 1009 903
f 904 1010 1009
f 904 1011 1010
f 905 1011 904
f 906 1011 905
f 906 1012 1011
f 907 1012 906
f 907 1013 1012
f 908 1013 907
f 908 1014 1013
f 909 1014 908
f 909 1015 1014
f 910 1015 909
f 910 1016 1015
f 911 1016 910
f 911 1017 1016
f 912 1017 911
f 912 1018 1017
f 913 1018 912
f 913 1019 1018
f 914 1019 913
f 914 1020 1019
f 915 1020 914
f 915 1021 1020
f 916 1021 915
f 916 1022 1021
f 917 1022 916
f 917 1023 1022
f 918 1023 917
f 918 1024 1023
f 919 1024 918
f 919 1025 1024
f 920 1025 919
f 920 1026 1025
f 921 1027 1026
f 921 1026 920
f 922 1028 1027
f 922 1027 921
f 923 1028 922
f 923 1029 1028
f 924 1030 1029
f 924 1029 923
f 925 1031 1030
f 925 1030 924
f 926 1032 1031
f 926 1031 925
f 927 1033 1032
f 927 1032 926
f 928 1034 1033
f 928 1033 927
f 929 1035 1034
f 929 1034 928
f 930 1035 929
f 930 1036 1035
f 1038 1143 1037
f 1038 1144 1143
f 1039 1145 1144
f 1039 1144 1038
f 1040 1146 1145
f 1040 1145 1039
f 1041 1147 1146
f 1041 1146 1040
f 1042 1148 1147
f 1042 1147 1041
f 1043 1149 1148
f 1043 1148 1042
f 1044 1150 1149
f 1044 1149 1043
f 1045 1151 1150
f 1045 1150 1044
f 1046 1152 1151
f 1046 1151 1045
f 1047 1153 1152
f 1047 1152 1046
f 1048 1154 1153
f 1048 1153 1047
f 1049 1155 1154
f 1049 1156 1155
f 1049 1154 1048
f 1050 1156 1049
f 1051 1157 1156
f 1051 1156 1050
f 1052 1158 1157
f 1052 1157 1051
f 1053 1159 1158
f 1053 1158 1052
f 1054 1160 1159
f 1054 1159 1053
f 1055 1161 1160
f 1055 1160 1054
f 1056 1162 1161
f 1056 1161 1055
f 1057 1163 1162
f 1057 1162 1056
f 1058 1164 1163
f 1058 1163 1057
f 1059 1164 1058
f 1059 1165 1164
f 1060 1165 1059
f 1060 1166 1165
f 1060 1167 1166
f 1061 1167 1060
f 1062 1167 1061
f 1062 1168 1167
f 1062 1169 1168
f 1063 1169 1062
f 1064 1169 1063
f 1064 1170 1169
f 1064 1171 1170
f 1065 1171 1064
f 1066 1171 1065
f 1066 1172 1171
f 1066 1173 1172
f 1067 1174 1173
f 1067 1173 1066
f 1068 1175 1174
f 1068 1174 1067
f 1069 1175 1068
f 1070 1176 1175
f 1070 1177 1176
f 1070 1175 1069
f 1071 1178 1177
f 1071 1177 1070
f 1072 1178 1071
f 1073 1179 1178
f 1073 1178 1072
f 1074 1180 1179
f 1074 1179 1073
f 1075 1181 1180
f 1075 1180 1074
f 1076 1182 1181
f 1076 1183 1182
f 1076 1181 1075
f 1077 1183 1076
f 1078 1184 1183
f 1078 1183 1077
f 1079 1185 1184
f 1079 1186 1185
f 1079 1184 1078
f 1080 1186 1079
f 1081 1187 1186
f 1081 1186 1080
f 1082 1188 1187
f 1082 1187 1081
f 1083 1189 1188
f 1083 1188 1082
f 1084 1190 1189
f 1084 1189 1083
f 1085 1190 1084
f 1085 1191 1190
f 1086 1191 1085
f 1086 1192 1191
f 1087 1192 1086
f 1087 1193 1192
f 1088 1193 1087
f 1088 1194 1193
f 1089 1194 1088
f 1089 1195 1194
f 1090 1195 1089
f 1090 1196 1195
f 1091 1196 1090
f 1091 1197 1196
f 1092 1197 1091
f 1092 1198 1197
f 1093 1198 1092
f 1093 1199 1198
f 1093 1200 1199
f 1094 1200 1093
f 1095 1200 1094
f 1095 1201 1200
f 1096 1201 1095
f 1096 1202 1201
f 1097 1202 1096
f 1097 1203 1202
f 1098 1203 1097
f 1098 1204 1203
f 1099 1204 1098
f 1099 1205 1204
f 1100 1205 1099
f 1100 1206 1205
f 1101 1206 1100
f 1101 1207 1206
f 1102 1208 1207
f 1102 1209 1208
f 1102 1207 1101
f 1103 1209 1102
f 1104 1210 1209
f 1104 1209 1103
f 1105 1211 1210
f 1105 1212 1211
f 1105 1210 1104
f 1106 1212 1105
f 1107 1213 1212
f 1107 1212 1106
f 1108 1214 1213
f 1108 1213 1107
f 1109 1214 1108
f 1109 1215 1214
f 1110 1215 1109
f 1110 1216 1215
f 1110 1217 1216
f 1111 1217 1110
f 1112 1217 1111
f 1112 1218 1217
f 1113 1218 1112
f 1113 1219 1218
f 1114 1219 1113
f 1114 1220 1219
f 1115 1220 1114
f 1115 1221 1220
f 1116 1221 1115
f 1116 1222 1221
f 1116 1223 1222
f 1117 1223 1116
f 1118 1223 1117
f 1118 1224 1223
f 1119 1224 1118
f 1119 1225 1224
f 1120 1225 1119
f 1120 1226 1225
f 1121 1226 1120
f 1121 1227 1226
f 1122 1227 1121
f 1122 1228 1227
f 1123 1228 1122
f 1123 1229 1228
f 1124 1229 1123
f 1124 1230 1229
f 1125 1230 1124
f 1125 1231 1230
f 1126 1231 1125
f 1126 1232 1231
f 1127 1232 1126
f 1127 1233 1232
f 1128 1233 1127
f 1128 1234 1233
f 1129 1234 1128
f 1129 1235 1234
f 1130 1235 1129
f 1130 1236 1235
f 1131 1236 1130
f 1131 1237 1236
f 1132 1237 1131
f 1132 1238 1237
f 1133 1239 1238
f 1133 1238 1132
f 1134 1240 1239
f 1134 1239 1133
f 1135 1240 1134
f 1135 1241 1240
f 1136 1242 1241
f 1136 1241 1135
f 1137 1243 1242
f 1137 1242 1136
f 1138 1244 1243
f 1138 1243 1137
f 1139 1245 1244
f 1139 1244 1138
f 1140 1246 1245
f 1140 1245 1139
f 1141 1247 1246
f 1141 1246 1140
f 1142 1247 1141
f 1142 1248 1247
f 1539 1312 1313
f 1538 1312 1539
f 1538 1311 1312
f 1540 1539 1313
f 1540 1313 1314
f 1537 1310 1311
f 1537 1311 1538
f 1541 1314 1315
f 1541 1540 1314
f 1536 1309 1310
f 1536 1310 1537
f 1542 1315 1316
f 1542 1541 1315
f 1535 1309 1536
f 1535 1308 1309
f 1543 1316 1317
f 1543 1542 1316
f 1534 1307 1308
f 1534 1308 1535
f 1544 1543 1317
f 1544 1317 1318
f 1533 1307 1534
f 1533 1306 1307
f 1545 1318 1319
f 1545 1544 1318
f 1532 1305 1306
f 1532 1306 1533
f 1546 1319 1320
f 1546 1545 1319
f 1531 1305 1532
f 1531 1304 1305
f 1547 1546 1320
f 1547 1320 1321
f 1530 1304 1531
f 1530 1303 1304
f 1548 1547 1321
f 1548 1321 1322
f 1529 1302 1303
f 1529 1303 1530
f 1549 1548 1322
f 1549 1322 1323
f 1528 1301 1302
f 1528 1302 1529
f 1550 1549 1323
f 1550 1323 1324
f 1527 1300 1301
f 1527 1301 1528
f 1551 1550 1324
f 1551 1324 1325
f 1526 1300 1527
f 1526 1299 1300
f 1447 1551 1325
f 1447 1325 1326
f 1525 1298 1299
f 1525 1299 1526
f 1448 1447 1326
f 1448 1326 1327
f 1524 1298 1525
f 1524 1297 1298
f 1449 1448 1327
f 1449 1327 1328
f 1523 1296 1297
f 1523 1297 1524
f 1450 1449 1328
f 1450 1328 1329
f 1522 1296 1523
f 1522 1295 1296
f 1451 1450 1329
f 1451 1329 1330
f 1521 1294 1295
f 1521 1295 1522
f 1452 1451 1330
f 1452 1330 1331
f 1520 1294 1521
f 1520 1293 1294
f 1453 1452 1331
f 1453 1331 1332
f 1519 1292 1293
f 1519 1293 1520
f 1454 1453 1332
f 1454 1332 1333
f 1518 1291 1292
f 1518 1292 1519
f 1455 1454 1333
f 1455 1333 1334
f 1517 1290 1291
f 1517 1291 1518
f 1456 1334 1335
f 1456 1455 1334
f 1516 1289 1290
f 1516 1290 1517
f 1457 1456 1335
f 1457 1335 1336
f 1515 1288 1289
f 1515 1289 1516
f 1458 1336 1337
f 1458 1457 1336
f 1514 1287 1288
f 1514 1288 1515
f 1459 1458 1337
f 1338 1459 1337
f 1513 1286 1287
f 1513 1287 1514
f 1460 1459 1338
f 1339 1460 1338
f 1512 1286 1513
f 1461 1460 1339
f 1285 1286 1512
f 1511 1285 1512
f 1340 1461 1339
f 1340 1462 1461
f 1284 1511 1510
f 1284 1285 1511
f 1341 1463 1462
f 1341 1462 1340
f 1283 1284 1510
f 1283 1510 1509
f 1342 1464 1463
f 1342 1463 1341
f 1282 1283 1509
f 1282 1509 1508
f 1343 1465 1464
f 1343 1464 1342
f 1281 1508 1507
f 1281 1282 1508
f 1344 1466 1465
f 1344 1465 1343
f 1280 1507 1506
f 1280 1281 1507
f 1345 1467 1466
f 1345 1466 1344
f 1279 1506 1505
f 1279 1280 1506
f 1346 1468 1467
f 1346 1467 1345
f 1278 1505 1504
f 1278 1279 1505
f 1347 1469 1468
f 1347 1468 1346
f 1277 1278 1504
f 1277 1504 1503
f 1348 1470 1469
f 1348 1469 1347
f 1276 1277 1503
f 1276 1503 1502
f 1349 1470 1348
f 1349 1471 1470
f 1275 1276 1502
f 1275 1502 1501
f 1350 1472 1471
f 1350 1471 1349
f 1274 1275 1501
f 1351 1473 1472
f 1351 1472 1350
f 1273 1492 1491
f 1273 1493 1492
f 1273 1494 1493
f 1273 1495 1494
f 1273 1496 1495
f 1273 1497 1496
f 1273 1498 1497
f 1273 1499 1498
f 1273 1500 1499
f 1273 1501 1500
f 1273 1274 1501
f 1352 1474 1473
f 1352 1473 1351
f 1353 1475 1474
f 1353 1474 1352
f 1354 1476 1475
f 1354 1475 1353
f 1355 1477 1476
f 1355 1476 1354
f 1356 1477 1355
f 1356 1478 1477
f 1357 1478 1356
f 1357 1479 1478
f 1358 1479 1357
f 1358 1480 1479
f 1272 1481 1480
f 1272 1482 1481
f 1272 1483 1482
f 1272 1484 1483
f 1272 1485 1484
f 1272 1486 1485
f 1272 1487 1486
f 1272 1488 1487
f 1272 1489 1488
f 1272 1490 1489
f 1272 1480 1358
f 1359 1491 1490
f 1359 1490 1272
f 1359 1273 1491
f 1271 1359 1272
f 1269 1271 1270
f 1267 1269 1268
f 1266 1269 1267
f 1265 1269 1266
f 1264 1269 1265
f 1264 1271 1269
f 1263 1271 1264
f 1261 1271 1263
f 1261 1263 1262
f 1261 1359 1271
f 1644 1434 1435
f 1643 1434 1644
f 1643 1433 1434
f 1645 1644 1435
f 1645 1435 1436
f 1642 1433 1643
f 1642 1432 1433
f 1646 1645 1436
f 1646 1436 1437
f 1641 1432 1642
f 1641 1431 1432
f 1647 1646 1437
f 1647 1437 1438
f 1640 1431 1641
f 1640 1430 1431
f 1648 1647 1438
f 1648 1438 1439
f 1639 1429 1430
f 1639 1430 1640
f 1649 1648 1439
f 1649 1439 1440
f 1638 1428 1429
f 1638 1429 1639
f 1650 1649 1440
f 1650 1440 1441
f 1637 1428 1638
f 1637 1427 1428
f 1651 1650 1441
f 1651 1441 1442
f 1636 1427 1637
f 1636 1426 1427
f 1652 1651 1442
f 1652 1442 1443
f 1635 1426 1636
f 1635 1425 1426
f 1653 1652 1443
f 1653 1443 1444
f 1634 1425 1635
f 1634 1424 1425
f 1654 1653 1444
f 1654 1444 1445
f 1633 1424 1634
f 1633 1423 1424
f 1655 1654 1445
f 1655 1445 1446
f 1632 1423 1633
f 1632 1422 1423
f 1656 1655 1446
f 1656 1446 1361
f 1631 1422 1632
f 1631 1421 1422
f 1552 1656 1361
f 1630 1421 1631
f 1630 1420 1421
f 1553 1552 1361
f 1629 1420 1630
f 1629 1419 1420
f 1554 1553 1361
f 1628 1419 1629
f 1628 1418 1419
f 1555 1554 1361
f 1627 1418 1628
f 1627 1417 1418
f 1556 1555 1361
f 1626 1417 1627
f 1626 1416 1417
f 1557 1556 1361
f 1625 1416 1626
f 1625 1415 1416
f 1558 1557 1361
f 1624 1415 1625
f 1624 1414 1415
f 1559 1558 1361
f 1623 1413 1414
f 1623 1414 1624
f 1560 1559 1361
f 1622 1412 1413
f 1622 1413 1623
f 1561 1361 1360
f 1561 1560 1361
f 1621 1411 1412
f 1621 1412 1622
f 1562 1561 1360
f 1620 1410 1411
f 1620 1411 1621
f 1619 1409 1410
f 1619 1410 1620
f 1260 1360 1359
f 1260 1359 1261
f 1618 1409 1619
f 1408 1409 1618
f 1258 1260 1259
f 1617 1408 1618
f 1407 1408 1617
f 1616 1407 1617
f 1255 1260 1258
f 1255 1257 1256
f 1255 1258 1257
f 1254 1260 1255
f 1252 1254 1253
f 1252 1260 1254
f 1406 1407 1616
f 1406 1616 1615
f 1250 1252 1251
f 1250 1260 1252
f 1250 1360 1260
f 1405 1406 1615
f 1405 1615 1614
f 1404 1405 1614
f 1404 1614 1613
f 1403 1404 1613
f 1403 1613 1612
f 1402 1612 1611
f 1402 1403 1612
f 1249 1563 1562
f 1249 1564 1563
f 1249 1565 1564
f 1249 1566 1565
f 1249 1567 1566
f 1249 1568 1567
f 1249 1569 1568
f 1249 1570 1569
f 1249 1571 1570
f 1249 1572 1571
f 1249 1360 1250
f 1249 1562 1360
f 1401 1611 1610
f 1401 1402 1611
f 1362 1573 1572
f 1362 1572 1249
f 1400 1610 1609
f 1400 1401 1610
f 1363 1574 1573
f 1363 1573 1362
f 1399 1609 1608
f 1399 1400 1609
f 1364 1575 1574
f 1364 1574 1363
f 1398 1399 1608
f 1398 1608 1607
f 1365 1575 1364
f 1365 1576 1575
f 1397 1398 1607
f 1397 1607 1606
f 1366 1577 1576
f 1366 1576 1365
f 1396 1397 1606
f 1396 1606 1605
f 1367 1578 1577
f 1367 1577 1366
f 1395 1605 1604
f 1395 1396 1605
f 1368 1579 1578
f 1368 1578 1367
f 1394 1604 1603
f 1394 1395 1604
f 1369 1579 1368
f 1369 1580 1579
f 1393 1394 1603
f 1393 1603 1602
f 1370 1581 1580
f 1370 1580 1369
f 1392 1602 1601
f 1392 1393 1602
f 1371 1581 1370
f 1371 1582 1581
f 1391 1601 1600
f 1391 1392 1601
f 1372 1583 1582
f 1372 1582 1371
f 1390 1600 1599
f 1390 1391 1600
f 1373 1584 1583
f 1373 1583 1372
f 1389 1599 1598
f 1389 1390 1599
f 1374 1585 1584
f 1374 1584 1373
f 1388 1389 1598
f 1388 1598 1597
f 1375 1586 1585
f 1375 1585 1374
f 1387 1597 1596
f 1387 1388 1597
f 1376 1587 1586
f 1376 1586 1375
f 1386 1596 1595
f 1386 1387 1596
f 1377 1587 1376
f 1377 1588 1587
f 1385 1595 1594
f 1385 1386 1595
f 1378 1589 1588
f 1378 1588 1377
f 1384 1385 1594
f 1384 1594 1593
f 1379 1590 1589
f 1379 1589 1378
f 1383 1384 1593
f 1380 1590 1379
f 1380 1591 1590
f 1382 1593 1592
f 1382 1383 1593
f 1381 1591 1380
f 1381 1382 1592
f 1381 1592 1591
