v -0.062 0.086212927614 0.105024867473
v -0.062 0.0860892734589 0.104971650126
v -0.062 0.0859626580102 0.104925923064
v -0.062 0.0858335345185 0.104887849976
v -0.062 0.0857023652123 0.104857567156
v -0.062 0.0855696196437 0.104835183007
v -0.062 0.0854357730074 0.104820777659
v -0.062 0.0853013044395 0.10481440268
v -0.062 0.0851666953027 0.10481608089
v -0.062 0.0850324274627 0.104825806282
v -0.062 0.0848989815636 0.104843544042
v -0.062 0.084766835307 0.104869230672
v -0.062 0.0846364617423 0.104902774222
v -0.062 0.0845083275729 0.104944054613
v -0.062 0.0843828914859 0.104992924074
v -0.062 0.0842606025101 0.105049207664
v -0.062 0.084141898408 0.105112703902
v -0.062 0.0840272041098 0.105183185489
v -0.062 0.0839169301911 0.105260400118
v -0.062 0.0838114714039 0.105344071381
v -0.062 0.0837112052634 0.105433899757
v -0.062 0.0836164906964 0.105529563684
v -0.062 0.0835276667563 0.105630720709
v -0.062 0.0834450514099 0.105737008717
v -0.062 0.0833689403986 0.105848047225
v -0.062 0.0832996061801 0.105963438742
v -0.062 0.083237296953 0.106082770197
v -0.062 0.083182235768 0.106205614416
v -0.062 0.0831346197299 0.106331531647
v -0.062 0.0830946192919 0.106460071139
v -0.062 0.083062377645 0.106590772754
v -0.062 0.083038010206 0.106723168616
v -0.062 0.083021604204 0.106856784779
v -0.062 0.0830132183682 0.106991142934
v -0.062 0.0830128827178 0.107125762114
v -0.062 0.0830205984543 0.107260160415
v -0.062 0.0830363379574 0.107393856729
v -0.062 0.0830600448837 0.107526372455
v -0.062 0.0830916343685 0.107657233223
v -0.062 0.0831309933298 0.107785970584
v -0.062 0.0831779808727 0.107912123693
v -0.062 0.0832324287939 0.108035240954
v -0.062 0.083294142184 0.10815488164
v -0.062 0.0833629001251 0.108270617467
v -0.062 0.0834384564816 0.108382034131
v -0.062 0.0835205407814 0.10848873279
v -0.062 0.083608859184 0.10859033149
v -0.062 0.0837030955324 0.108686466534
v -0.062 0.083802912485 0.108776793784
v -0.062 0.0839079527229 0.108860989892
v -0.062 0.0840178402295 0.108938753457
v -0.062 0.0841321816358 0.109009806105
v -0.062 0.0842505676294 0.109073893488
v -0.062 0.0843725744191 0.109130786189
v -0.062 0.0844977652524 0.109180280546
v -0.062 0.0846256919784 0.109222199382
v -0.062 0.0847558966528 0.10925639264
v -0.062 0.0848879131765 0.109282737916
v -0.062 0.0850212689647 0.109301140901
v -0.062 0.0851554866383 0.109311535716
v -0.062 0.0852900857329 0.109313885152
v -0.062 0.0854245844185 0.109308180798
v -0.062 0.0855585012249 0.109294443074
v -0.062 0.0856913567646 0.109272721157
v -0.062 0.0858226754493 0.109243092806
v -0.062 0.0859519871921 0.109205664084
v -0.062 0.0860788290906 0.109160568975
v -0.062 0.0862027470838 0.109107968907
v -0.062 0.0863232975772 0.109048052176
v -0.062 0.0864400490315 0.108981033269
v -0.062 0.0865525835068 0.108907152094
v -0.062 0.0866604981589 0.108826673128
v -0.062 0.0867634066812 0.108739884464
v -0.062 0.086860940688 0.108647096784
v -0.062 0.0869527510329 0.108548642243
v -0.062 0.0870385090587 0.108444873283
v -0.062 0.0871179077739 0.108336161369
v -0.062 0.0871906629516 0.108222895663
v -0.062 0.0872565141473 0.108105481626
v -0.062 0.0873152256307 0.107984339569
v -0.062 0.0873665872301 0.107859903151
v -0.062 0.0874104150841 0.107732617821
v -0.062 0.0874465523004 0.107602939227
v -0.062 0.0874748695172 0.107471331585
v -0.062 0.0874952653662 0.107338266017
v -0.062 0.0875076668356 0.107204218862
v -0.062 0.0875120295313 0.107069669975
v -0.062 0.0875083378359 0.106935101006
v -0.062 0.0874966049649 0.106800993677
v -0.062 0.0874768729188 0.106667828056
v -0.062 0.0874492123333 0.106536080843
v -0.062 0.087413722226 0.106406223659
v -0.062 0.0873705296423 0.106278721357
v -0.062 0.0873197892005 0.106154030365
v -0.062 0.0872616825382 0.106032597042
v -0.062 0.0871964176621 0.105914856089
v -0.062 0.0871242282036 0.105801228987
v -0.062 0.0870453725822 0.105692122493
v -0.062 0.0869601330805 0.105587927179
v -0.062 0.0868688148339 0.105489016037
v -0.062 0.086771744738 0.105395743144
v -0.062 0.0866692702785 0.105308442393
v -0.062 0.0865617582874 0.105227426296
v -0.062 0.0864495936297 0.105152984872
v -0.062 0.0863331778257 0.1050853846
v -0.062 0.086212927614 0.105024867473
v -0.047 0.086212927614 0.105024867473
v -0.047 0.0860892734589 0.104971650126
v -0.047 0.0859626580102 0.104925923064
v -0.047 0.0858335345185 0.104887849976
v -0.047 0.0857023652123 0.104857567156
v -0.047 0.0855696196437 0.104835183007
v -0.047 0.0854357730074 0.104820777659
v -0.047 0.0853013044395 0.10481440268
v -0.047 0.0851666953027 0.10481608089
v -0.047 0.0850324274627 0.104825806282
v -0.047 0.0848989815636 0.104843544042
v -0.047 0.084766835307 0.104869230672
v -0.047 0.0846364617423 0.104902774222
v -0.047 0.0845083275729 0.104944054613
v -0.047 0.0843828914859 0.104992924074
v -0.047 0.0842606025101 0.105049207664
v -0.047 0.084141898408 0.105112703902
v -0.047 0.0840272041098 0.105183185489
v -0.047 0.0839169301911 0.105260400118
v -0.047 0.0838114714039 0.105344071381
v -0.047 0.0837112052634 0.105433899757
v -0.047 0.0836164906964 0.105529563684
v -0.047 0.0835276667563 0.105630720709
v -0.047 0.0834450514099 0.105737008717
v -0.047 0.0833689403986 0.105848047225
v -0.047 0.0832996061801 0.105963438742
v -0.047 0.083237296953 0.106082770197
v -0.047 0.083182235768 0.106205614416
v -0.047 0.0831346197299 0.106331531647
v -0.047 0.0830946192919 0.106460071139
v -0.047 0.083062377645 0.106590772754
v -0.047 0.083038010206 0.106723168616
v -0.047 0.083021604204 0.106856784779
v -0.047 0.0830132183682 0.106991142934
v -0.047 0.0830128827178 0.107125762114
v -0.047 0.0830205984543 0.107260160415
v -0.047 0.0830363379574 0.107393856729
v -0.047 0.0830600448837 0.107526372455
v -0.047 0.0830916343685 0.107657233223
v -0.047 0.0831309933298 0.107785970584
v -0.047 0.0831779808727 0.107912123693
v -0.047 0.0832324287939 0.108035240954
v -0.047 0.083294142184 0.10815488164
v -0.047 0.0833629001251 0.108270617467
v -0.047 0.0834384564816 0.108382034131
v -0.047 0.0835205407814 0.10848873279
v -0.047 0.083608859184 0.10859033149
v -0.047 0.0837030955324 0.108686466534
v -0.047 0.083802912485 0.108776793784
v -0.047 0.0839079527229 0.108860989892
v -0.047 0.0840178402295 0.108938753457
v -0.047 0.0841321816358 0.109009806105
v -0.047 0.0842505676294 0.109073893488
v -0.047 0.0843725744191 0.109130786189
v -0.047 0.0844977652524 0.109180280546
v -0.047 0.0846256919784 0.109222199382
v -0.047 0.0847558966528 0.10925639264
v -0.047 0.0848879131765 0.109282737916
v -0.047 0.0850212689647 0.109301140901
v -0.047 0.0851554866383 0.109311535716
v -0.047 0.0852900857329 0.109313885152
v -0.047 0.0854245844185 0.109308180798
v -0.047 0.0855585012249 0.109294443074
v -0.047 0.0856913567646 0.109272721157
v -0.047 0.0858226754493 0.109243092806
v -0.047 0.0859519871921 0.109205664084
v -0.047 0.0860788290906 0.109160568975
v -0.047 0.0862027470838 0.109107968907
v -0.047 0.0863232975772 0.109048052176
v -0.047 0.0864400490315 0.108981033269
v -0.047 0.0865525835068 0.108907152094
v -0.047 0.0866604981589 0.108826673128
v -0.047 0.0867634066812 0.108739884464
v -0.047 0.086860940688 0.108647096784
v -0.047 0.0869527510329 0.108548642243
v -0.047 0.0870385090587 0.108444873283
v -0.047 0.0871179077739 0.108336161369
v -0.047 0.0871906629516 0.108222895663
v -0.047 0.0872565141473 0.108105481626
v -0.047 0.0873152256307 0.107984339569
v -0.047 0.0873665872301 0.107859903151
v -0.047 0.0874104150841 0.107732617821
v -0.047 0.0874465523004 0.107602939227
v -0.047 0.0874748695172 0.107471331585
v -0.047 0.0874952653662 0.107338266017
v -0.047 0.0875076668356 0.107204218862
v -0.047 0.0875120295313 0.107069669975
v -0.047 0.0875083378359 0.106935101006
v -0.047 0.0874966049649 0.106800993677
v -0.047 0.0874768729188 0.106667828056
v -0.047 0.0874492123333 0.106536080843
v -0.047 0.087413722226 0.106406223659
v -0.047 0.0873705296423 0.106278721357
v -0.047 0.0873197892005 0.106154030365
v -0.047 0.0872616825382 0.106032597042
v -0.047 0.0871964176621 0.105914856089
v -0.047 0.0871242282036 0.105801228987
v -0.047 0.0870453725822 0.105692122493
v -0.047 0.0869601330805 0.105587927179
v -0.047 0.0868688148339 0.105489016037
v -0.047 0.086771744738 0.105395743144
v -0.047 0.0866692702785 0.105308442393
v -0.047 0.0865617582874 0.105227426296
v -0.047 0.0864495936297 0.105152984872
v -0.047 0.0863331778257 0.1050853846
v -0.047 0.086212927614 0.105024867473
v -0.062 0.086212927614 0.105024867473
v -0.062 0.0860892734589 0.104971650126
v -0.062 0.0859626580102 0.104925923064
v -0.062 0.0858335345185 0.104887849976
v -0.062 0.0857023652123 0.104857567156
v -0.062 0.0855696196437 0.104835183007
v -0.062 0.0854357730074 0.104820777659
v -0.062 0.0853013044395 0.10481440268
v -0.062 0.0851666953027 0.10481608089
v -0.062 0.0850324274627 0.104825806282
v -0.062 0.0848989815636 0.104843544042
v -0.062 0.084766835307 0.104869230672
v -0.062 0.0846364617423 0.104902774222
v -0.062 0.0845083275729 0.104944054613
v -0.062 0.0843828914859 0.104992924074
v -0.062 0.0842606025101 0.105049207664
v -0.062 0.084141898408 0.105112703902
v -0.062 0.0840272041098 0.105183185489
v -0.062 0.0839169301911 0.105260400118
v -0.062 0.0838114714039 0.105344071381
v -0.062 0.0837112052634 0.105433899757
v -0.062 0.0836164906964 0.105529563684
v -0.062 0.0835276667563 0.105630720709
v -0.062 0.0834450514099 0.105737008717
v -0.062 0.0833689403986 0.105848047225
v -0.062 0.0832996061801 0.105963438742
v -0.062 0.083237296953 0.106082770197
v -0.062 0.083182235768 0.106205614416
v -0.062 0.0831346197299 0.106331531647
v -0.062 0.0830946192919 0.106460071139
v -0.062 0.083062377645 0.106590772754
v -0.062 0.083038010206 0.106723168616
v -0.062 0.083021604204 0.106856784779
v -0.062 0.0830132183682 0.106991142934
v -0.062 0.0830128827178 0.107125762114
v -0.062 0.0830205984543 0.107260160415
v -0.062 0.0830363379574 0.107393856729
v -0.062 0.0830600448837 0.107526372455
v -0.062 0.0830916343685 0.107657233223
v -0.062 0.0831309933298 0.107785970584
v -0.062 0.0831779808727 0.107912123693
v -0.062 0.0832324287939 0.108035240954
v -0.062 0.083294142184 0.10815488164
v -0.062 0.0833629001251 0.108270617467
v -0.062 0.0834384564816 0.108382034131
v -0.062 0.0835205407814 0.10848873279
v -0.062 0.083608859184 0.10859033149
v -0.062 0.0837030955324 0.108686466534
v -0.062 0.083802912485 0.108776793784
v -0.062 0.0839079527229 0.108860989892
v -0.062 0.0840178402295 0.108938753457
v -0.062 0.0841321816358 0.109009806105
v -0.062 0.0842505676294 0.109073893488
v -0.062 0.0843725744191 0.109130786189
v -0.062 0.0844977652524 0.109180280546
v -0.062 0.0846256919784 0.109222199382
v -0.062 0.0847558966528 0.10925639264
v -0.062 0.0848879131765 0.109282737916
v -0.062 0.0850212689647 0.109301140901
v -0.062 0.0851554866383 0.109311535716
v -0.062 0.0852900857329 0.109313885152
v -0.062 0.0854245844185 0.109308180798
v -0.062 0.0855585012249 0.109294443074
v -0.062 0.0856913567646 0.109272721157
v -0.062 0.0858226754493 0.109243092806
v -0.062 0.0859519871921 0.109205664084
v -0.062 0.0860788290906 0.109160568975
v -0.062 0.0862027470838 0.109107968907
v -0.062 0.0863232975772 0.109048052176
v -0.062 0.0864400490315 0.108981033269
v -0.062 0.0865525835068 0.108907152094
v -0.062 0.0866604981589 0.108826673128
v -0.062 0.0867634066812 0.108739884464
v -0.062 0.086860940688 0.108647096784
v -0.062 0.0869527510329 0.108548642243
v -0.062 0.0870385090587 0.108444873283
v -0.062 0.0871179077739 0.108336161369
v -0.062 0.0871906629516 0.108222895663
v -0.062 0.0872565141473 0.108105481626
v -0.062 0.0873152256307 0.107984339569
v -0.062 0.0873665872301 0.107859903151
v -0.062 0.0874104150841 0.107732617821
v -0.062 0.0874465523004 0.107602939227
v -0.062 0.0874748695172 0.107471331585
v -0.062 0.0874952653662 0.107338266017
v -0.062 0.0875076668356 0.107204218862
v -0.062 0.0875120295313 0.107069669975
v -0.062 0.0875083378359 0.106935101006
v -0.062 0.0874966049649 0.106800993677
v -0.062 0.0874768729188 0.106667828056
v -0.062 0.0874492123333 0.106536080843
v -0.062 0.087413722226 0.106406223659
v -0.062 0.0873705296423 0.106278721357
v -0.062 0.0873197892005 0.106154030365
v -0.062 0.0872616825382 0.106032597042
v -0.062 0.0871964176621 0.105914856089
v -0.062 0.0871242282036 0.105801228987
v -0.062 0.0870453725822 0.105692122493
v -0.062 0.0869601330805 0.105587927179
v -0.062 0.0868688148339 0.105489016037
v -0.062 0.086771744738 0.105395743144
v -0.062 0.0866692702785 0.105308442393
v -0.062 0.0865617582874 0.105227426296
v -0.062 0.0864495936297 0.105152984872
v -0.062 0.0863331778257 0.1050853846
v -0.047 0.086212927614 0.105024867473
v -0.047 0.0860892734589 0.104971650126
v -0.047 0.0859626580102 0.104925923064
v -0.047 0.0858335345185 0.104887849976
v -0.047 0.0857023652123 0.104857567156
v -0.047 0.0855696196437 0.104835183007
v -0.047 0.0854357730074 0.104820777659
v -0.047 0.0853013044395 0.10481440268
v -0.047 0.0851666953027 0.10481608089
v -0.047 0.0850324274627 0.104825806282
v -0.047 0.0848989815636 0.104843544042
v -0.047 0.084766835307 0.104869230672
v -0.047 0.0846364617423 0.104902774222
v -0.047 0.0845083275729 0.104944054613
v -0.047 0.0843828914859 0.104992924074
v -0.047 0.0842606025101 0.105049207664
v -0.047 0.084141898408 0.105112703902
v -0.047 0.0840272041098 0.105183185489
v -0.047 0.0839169301911 0.105260400118
v -0.047 0.0838114714039 0.105344071381
v -0.047 0.0837112052634 0.105433899757
v -0.047 0.0836164906964 0.105529563684
v -0.047 0.0835276667563 0.105630720709
v -0.047 0.0834450514099 0.105737008717
v -0.047 0.0833689403986 0.105848047225
v -0.047 0.0832996061801 0.105963438742
v -0.047 0.083237296953 0.106082770197
v -0.047 0.083182235768 0.106205614416
v -0.047 0.0831346197299 0.106331531647
v -0.047 0.0830946192919 0.106460071139
v -0.047 0.083062377645 0.106590772754
v -0.047 0.083038010206 0.106723168616
v -0.047 0.083021604204 0.106856784779
v -0.047 0.0830132183682 0.106991142934
v -0.047 0.0830128827178 0.107125762114
v -0.047 0.0830205984543 0.107260160415
v -0.047 0.0830363379574 0.107393856729
v -0.047 0.0830600448837 0.107526372455
v -0.047 0.0830916343685 0.107657233223
v -0.047 0.0831309933298 0.107785970584
v -0.047 0.0831779808727 0.107912123693
v -0.047 0.0832324287939 0.108035240954
v -0.047 0.083294142184 0.10815488164
v -0.047 0.0833629001251 0.108270617467
v -0.047 0.0834384564816 0.108382034131
v -0.047 0.0835205407814 0.10848873279
v -0.047 0.083608859184 0.10859033149
v -0.047 0.0837030955324 0.108686466534
v -0.047 0.083802912485 0.108776793784
v -0.047 0.0839079527229 0.108860989892
v -0.047 0.0840178402295 0.108938753457
v -0.047 0.0841321816358 0.109009806105
v -0.047 0.0842505676294 0.109073893488
v -0.047 0.0843725744191 0.109130786189
v -0.047 0.0844977652524 0.109180280546
v -0.047 0.0846256919784 0.109222199382
v -0.047 0.0847558966528 0.10925639264
v -0.047 0.0848879131765 0.109282737916
v -0.047 0.0850212689647 0.109301140901
v -0.047 0.0851554866383 0.109311535716
v -0.047 0.0852900857329 0.109313885152
v -0.047 0.0854245844185 0.109308180798
v -0.047 0.0855585012249 0.109294443074
v -0.047 0.0856913567646 0.109272721157
v -0.047 0.0858226754493 0.109243092806
v -0.047 0.0859519871921 0.109205664084
v -0.047 0.0860788290906 0.109160568975
v -0.047 0.0862027470838 0.109107968907
v -0.047 0.0863232975772 0.109048052176
v -0.047 0.0864400490315 0.108981033269
v -0.047 0.0865525835068 0.108907152094
v -0.047 0.0866604981589 0.108826673128
v -0.047 0.0867634066812 0.108739884464
v -0.047 0.086860940688 0.108647096784
v -0.047 0.0869527510329 0.108548642243
v -0.047 0.0870385090587 0.108444873283
v -0.047 0.0871179077739 0.108336161369
v -0.047 0.0871906629516 0.108222895663
v -0.047 0.0872565141473 0.108105481626
v -0.047 0.0873152256307 0.107984339569
v -0.047 0.0873665872301 0.107859903151
v -0.047 0.0874104150841 0.107732617821
v -0.047 0.0874465523004 0.107602939227
v -0.047 0.0874748695172 0.107471331585
v -0.047 0.0874952653662 0.107338266017
v -0.047 0.0875076668356 0.107204218862
v -0.047 0.0875120295313 0.107069669975
v -0.047 0.0875083378359 0.106935101006
v -0.047 0.0874966049649 0.106800993677
v -0.047 0.0874768729188 0.106667828056
v -0.047 0.0874492123333 0.106536080843
v -0.047 0.087413722226 0.106406223659
v -0.047 0.0873705296423 0.106278721357
v -0.047 0.0873197892005 0.106154030365
v -0.047 0.0872616825382 0.106032597042
v -0.047 0.0871964176621 0.105914856089
v -0.047 0.0871242282036 0.105801228987
v -0.047 0.0870453725822 0.105692122493
v -0.047 0.0869601330805 0.105587927179
v -0.047 0.0868688148339 0.105489016037
v -0.047 0.086771744738 0.105395743144
v -0.047 0.0866692702785 0.105308442393
v -0.047 0.0865617582874 0.105227426296
v -0.047 0.0864495936297 0.105152984872
v -0.047 0.0863331778257 0.1050853846
f 2 1 107
f 2 107 108
f 3 108 109
f 3 2 108
f 4 109 110
f 4 110 111
f 4 3 109
f 5 111 112
f 5 4 111
f 6 5 112
f 7 112 113
f 7 6 112
f 8 113 114
f 8 114 115
f 8 7 113
f 9 8 115
f 10 115 116
f 10 116 117
f 10 9 115
f 11 10 117
f 12 117 118
f 12 118 119
f 12 11 117
f 13 119 120
f 13 12 119
f 14 13 120
f 15 120 121
f 15 14 120
f 16 121 122
f 16 122 123
f 16 15 121
f 17 16 123
f 18 123 124
f 18 17 123
f 19 124 125
f 19 18 124
f 20 125 126
f 20 19 125
f 21 126 127
f 21 20 126
f 22 127 128
f 22 21 127
f 23 22 128
f 23 128 129
f 24 23 129
f 24 129 130
f 25 24 130
f 25 130 131
f 25 131 132
f 26 25 132
f 27 26 132
f 27 132 133
f 28 27 133
f 28 133 134
f 29 28 134
f 29 134 135
f 30 29 135
f 30 135 136
f 30 136 137
f 31 30 137
f 32 137 138
f 32 31 137
f 33 138 139
f 33 32 138
f 34 139 140
f 34 33 139
f 35 140 141
f 35 141 142
f 35 34 140
f 36 35 142
f 37 142 143
f 37 36 142
f 38 143 144
f 38 37 143
f 39 144 145
f 39 38 144
f 40 145 146
f 40 146 147
f 40 39 145
f 41 40 147
f 42 147 148
f 42 41 147
f 43 148 149
f 43 42 148
f 44 149 150
f 44 43 149
f 45 150 151
f 45 44 150
f 46 151 152
f 46 152 153
f 46 45 151
f 47 46 153
f 48 153 154
f 48 47 153
f 49 48 154
f 49 154 155
f 49 155 156
f 50 49 156
f 51 50 156
f 51 156 157
f 52 51 157
f 52 157 158
f 52 158 159
f 53 52 159
f 54 53 159
f 54 159 160
f 55 54 160
f 55 160 161
f 56 55 161
f 56 161 162
f 56 162 163
f 57 56 163
f 58 57 163
f 58 163 164
f 59 58 164
f 59 164 165
f 59 165 166
f 60 59 166
f 61 60 166
f 61 166 167
f 62 61 167
f 62 167 168
f 62 168 169
f 63 62 169
f 64 63 169
f 64 169 170
f 65 64 170
f 65 170 171
f 66 171 172
f 66 65 171
f 67 172 173
f 67 66 172
f 68 173 174
f 68 67 173
f 69 174 175
f 69 68 174
f 70 175 176
f 70 69 175
f 71 176 177
f 71 70 176
f 72 177 178
f 72 71 177
f 73 72 178
f 73 178 179
f 74 73 179
f 74 179 180
f 75 74 180
f 75 180 181
f 76 75 181
f 76 181 182
f 77 76 182
f 77 182 183
f 78 77 183
f 78 183 184
f 79 78 184
f 79 184 185
f 80 79 185
f 80 185 186
f 81 80 186
f 81 186 187
f 82 81 187
f 82 187 188
f 83 82 188
f 83 188 189
f 84 83 189
f 84 189 190
f 85 84 190
f 85 190 191
f 86 85 191
f 86 191 192
f 87 86 192
f 87 192 193
f 88 87 193
f 88 193 194
f 89 88 194
f 89 194 195
f 90 89 195
f 90 195 196
f 91 90 196
f 91 196 197
f 92 91 197
f 92 197 198
f 93 92 198
f 93 198 199
f 94 93 199
f 94 199 200
f 95 94 200
f 95 200 201
f 96 95 201
f 96 201 202
f 97 202 203
f 97 96 202
f 98 203 204
f 98 97 203
f 99 98 204
f 99 204 205
f 100 205 206
f 100 99 205
f 101 206 207
f 101 100 206
f 102 207 208
f 102 208 209
f 102 101 207
f 103 102 209
f 104 209 210
f 104 103 209
f 105 210 211
f 105 104 210
f 106 211 212
f 106 105 211
f 276 277 278
f 270 271 272
f 270 272 273
f 288 286 287
f 289 286 288
f 290 286 289
f 290 285 286
f 266 267 268
f 293 291 292
f 296 291 293
f 296 290 291
f 296 293 294
f 296 294 295
f 259 260 261
f 259 261 262
f 259 262 263
f 299 297 298
f 257 258 259
f 301 299 300
f 301 297 299
f 256 266 268
f 256 270 273
f 256 263 264
f 256 264 265
f 256 265 266
f 256 268 269
f 256 269 270
f 256 273 274
f 256 274 275
f 256 275 276
f 256 257 259
f 256 259 263
f 303 301 302
f 303 297 301
f 254 255 256
f 253 254 256
f 253 276 278
f 253 278 279
f 253 279 280
f 253 256 276
f 305 303 304
f 251 252 253
f 248 251 253
f 248 249 250
f 248 250 251
f 248 253 280
f 248 280 281
f 248 281 282
f 248 282 283
f 248 283 284
f 310 307 308
f 310 308 309
f 246 248 284
f 246 247 248
f 246 284 285
f 312 307 310
f 312 306 307
f 312 310 311
f 244 245 246
f 244 246 285
f 244 285 290
f 315 313 314
f 315 306 312
f 315 305 306
f 315 312 313
f 241 242 243
f 241 243 244
f 317 315 316
f 317 305 315
f 239 240 241
f 238 244 290
f 238 241 244
f 238 239 241
f 238 290 296
f 238 296 297
f 215 213 214
f 215 317 213
f 216 317 215
f 236 237 238
f 217 317 216
f 235 236 238
f 218 317 217
f 233 234 235
f 233 235 238
f 220 218 219
f 220 317 218
f 231 232 233
f 231 238 297
f 231 233 238
f 229 230 231
f 224 220 221
f 224 221 222
f 224 222 223
f 228 229 231
f 225 220 224
f 225 305 317
f 225 317 220
f 227 297 303
f 227 303 305
f 227 231 297
f 227 228 231
f 226 227 305
f 226 305 225
f 381 383 382
f 375 377 376
f 375 378 377
f 393 392 391
f 394 393 391
f 395 394 391
f 395 391 390
f 371 373 372
f 398 397 396
f 401 398 396
f 401 396 395
f 401 399 398
f 401 400 399
f 364 366 365
f 364 367 366
f 364 368 367
f 404 403 402
f 362 364 363
f 406 405 404
f 406 404 402
f 361 373 371
f 361 378 375
f 361 369 368
f 361 370 369
f 361 371 370
f 361 374 373
f 361 375 374
f 361 379 378
f 361 380 379
f 361 381 380
f 361 364 362
f 361 368 364
f 408 407 406
f 408 406 402
f 359 361 360
f 358 361 359
f 358 383 381
f 358 384 383
f 358 385 384
f 358 381 361
f 410 409 408
f 356 358 357
f 353 358 356
f 353 355 354
f 353 356 355
f 353 385 358
f 353 386 385
f 353 387 386
f 353 388 387
f 353 389 388
f 415 413 412
f 415 414 413
f 351 389 353
f 351 353 352
f 351 390 389
f 417 415 412
f 417 412 411
f 417 416 415
f 349 351 350
f 349 390 351
f 349 395 390
f 420 419 418
f 420 417 411
f 420 411 410
f 420 418 417
f 346 348 347
f 346 349 348
f 422 421 420
f 422 420 410
f 344 346 345
f 343 395 349
f 343 349 346
f 343 346 344
f 343 401 395
f 343 402 401
f 320 319 318
f 320 318 422
f 321 320 422
f 341 343 342
f 322 321 422
f 340 343 341
f 323 322 422
f 338 340 339
f 338 343 340
f 325 324 323
f 325 323 422
f 336 338 337
f 336 402 343
f 336 343 338
f 334 336 335
f 329 326 325
f 329 327 326
f 329 328 327
f 333 336 334
f 330 329 325
f 330 422 410
f 330 325 422
f 332 408 402
f 332 410 408
f 332 402 336
f 332 336 333
f 331 410 332
f 331 330 410
