v -0.0054 0.054 0.03975
v -0.0054046536626 0.0541554908003 0.03975
v -0.00541859799151 0.0543104249838 0.03975
v -0.00544178306964 0.0544642479265 0.03975
v -0.00547412590044 0.0546164089821 0.03975
v -0.00551551070496 0.0547663634535 0.03975
v -0.00556578933634 0.0549135745426 0.03975
v -0.00562478181013 0.055057515272 0.03975
v -0.00569227694859 0.0551976703712 0.03975
v -0.00576803313664 0.0553335381213 0.03975
v -0.00585177918678 0.055464632151 0.03975
v -0.00594321530989 0.0555904831777 0.03975
v -0.00604201418839 0.0557106406874 0.03975
v -0.00614782214793 0.0558246745475 0.03975
v -0.00626026042347 0.0559321765462 0.03975
v -0.00637892651517 0.0560327618544 0.03975
v -0.00650339562922 0.0561260704027 0.03975
v -0.00663322219849 0.0562117681708 0.03975
v -0.00676794147757 0.0562895483828 0.03975
v -0.0069070712064 0.0563591326059 0.03975
v -0.00705011333665 0.0564202717465 0.03975
v -0.00719655581463 0.0564727469424 0.03975
v -0.00734587441426 0.056516370346 0.03975
v -0.00749753461373 0.0565509857968 0.03975
v -0.00765099350887 0.0565764693806 0.03975
v -0.00780570175668 0.0565927298727 0.03975
v -0.00796110554176 0.0565997090647 0.03975
v -0.00811664855891 0.056597381973 0.03975
v -0.0082717740045 0.056585756928 0.03975
v -0.00842592656968 0.0565648755442 0.03975
v -0.00857855442829 0.0565348125717 0.03975
v -0.0087291112122 0.056495675628 0.03975
v -0.0088770579672 0.0564476048133 0.03975
v -0.0090218650823 0.0563907722086 0.03975
v -0.00916301418562 0.0563253812599 0.03975
v -0.0093 0.0562516660498 0.03975
v -0.00943233215178 0.0561698904597 0.03975
v -0.00955953692619 0.0560803472248 0.03975
v -0.00968115896316 0.0559833568868 0.03975
v -0.00979676288737 0.055879266646 0.03975
v -0.00990593486676 0.0557684491182 0.03975
v -0.010008284094 0.0556513010016 0.03975
v -0.0101034441854 0.055528241656 0.03975
v -0.0101910744925 0.0553997116018 0.03975
v -0.0102708613216 0.0552661709435 0.03975
v -0.0103425190565 0.0551280977217 0.03975
v -0.0104057911812 0.0549859862029 0.03975
v -0.0104604511979 0.0548403451094 0.03975
v -0.0105063034378 0.0546916957985 0.03975
v -0.0105431837619 0.0545405703961 0.03975
v -0.0105709601482 0.0543875098921 0.03975
v -0.0105895331644 0.0542330622031 0.03975
v -0.0105988363239 0.054077780212 0.03975
v -0.0105988363239 0.053922219788 0.03975
v -0.0105895331644 0.0537669377969 0.03975
v -0.0105709601482 0.0536124901079 0.03975
v -0.0105431837619 0.0534594296039 0.03975
v -0.0105063034378 0.0533083042015 0.03975
v -0.0104604511979 0.0531596548906 0.03975
v -0.0104057911812 0.0530140137971 0.03975
v -0.0103425190565 0.0528719022783 0.03975
v -0.0102708613216 0.0527338290565 0.03975
v -0.0101910744925 0.0526002883982 0.03975
v -0.0101034441854 0.052471758344 0.03975
v -0.010008284094 0.0523486989984 0.03975
v -0.00990593486676 0.0522315508818 0.03975
v -0.00979676288737 0.052120733354 0.03975
v -0.00968115896316 0.0520166431132 0.03975
v -0.00955953692619 0.0519196527752 0.03975
v -0.00943233215178 0.0518301095403 0.03975
v -0.0093 0.0517483339502 0.03975
v -0.00916301418562 0.0516746187401 0.03975
v -0.0090218650823 0.0516092277914 0.03975
v -0.0088770579672 0.0515523951867 0.03975
v -0.0087291112122 0.051504324372 0.03975
v -0.00857855442829 0.0514651874283 0.03975
v -0.00842592656968 0.0514351244558 0.03975
v -0.0082717740045 0.051414243072 0.03975
v -0.00811664855891 0.051402618027 0.03975
v -0.00796110554176 0.0514002909353 0.03975
v -0.00780570175668 0.0514072701273 0.03975
v -0.00765099350887 0.0514235306194 0.03975
v -0.00749753461373 0.0514490142032 0.03975
v -0.00734587441426 0.051483629654 0.03975
v -0.00719655581463 0.0515272530576 0.03975
v -0.00705011333665 0.0515797282535 0.03975
v -0.0069070712064 0.0516408673941 0.03975
v -0.00676794147757 0.0517104516172 0.03975
v -0.00663322219849 0.0517882318292 0.03975
v -0.00650339562922 0.0518739295973 0.03975
v -0.00637892651517 0.0519672381456 0.03975
v -0.00626026042347 0.0520678234538 0.03975
v -0.00614782214793 0.0521753254525 0.03975
v -0.00604201418839 0.0522893593126 0.03975
v -0.00594321530989 0.0524095168223 0.03975
v -0.00585177918678 0.052535367849 0.03975
v -0.00576803313664 0.0526664618787 0.03975
v -0.00569227694859 0.0528023296288 0.03975
v -0.00562478181013 0.052942484728 0.03975
v -0.00556578933634 0.0530864254574 0.03975
v -0.00551551070496 0.0532336365465 0.03975
v -0.00547412590044 0.0533835910179 0.03975
v -0.00544178306964 0.0535357520735 0.03975
v -0.00541859799151 0.0536895750162 0.03975
v -0.0054046536626 0.0538445091997 0.03975
v -0.0054 0.054 0.03975
v -0.0054 0.054 0.03775
v -0.0054046536626 0.0541554908003 0.03775
v -0.00541859799151 0.0543104249838 0.03775
v -0.00544178306964 0.0544642479265 0.03775
v -0.00547412590044 0.0546164089821 0.03775
v -0.00551551070496 0.0547663634535 0.03775
v -0.00556578933634 0.0549135745426 0.03775
v -0.00562478181013 0.055057515272 0.03775
v -0.00569227694859 0.0551976703712 0.03775
v -0.00576803313664 0.0553335381213 0.03775
v -0.00585177918678 0.055464632151 0.03775
v -0.00594321530989 0.0555904831777 0.03775
v -0.00604201418839 0.0557106406874 0.03775
v -0.00614782214793 0.0558246745475 0.03775
v -0.00626026042347 0.0559321765462 0.03775
v -0.00637892651517 0.0560327618544 0.03775
v -0.00650339562922 0.0561260704027 0.03775
v -0.00663322219849 0.0562117681708 0.03775
v -0.00676794147757 0.0562895483828 0.03775
v -0.0069070712064 0.0563591326059 0.03775
v -0.00705011333665 0.0564202717465 0.03775
v -0.00719655581463 0.0564727469424 0.03775
v -0.00734587441426 0.056516370346 0.03775
v -0.00749753461373 0.0565509857968 0.03775
v -0.00765099350887 0.0565764693806 0.03775
v -0.00780570175668 0.0565927298727 0.03775
v -0.00796110554176 0.0565997090647 0.03775
v -0.00811664855891 0.056597381973 0.03775
v -0.0082717740045 0.056585756928 0.03775
v -0.00842592656968 0.0565648755442 0.03775
v -0.00857855442829 0.0565348125717 0.03775
v -0.0087291112122 0.056495675628 0.03775
v -0.0088770579672 0.0564476048133 0.03775
v -0.0090218650823 0.0563907722086 0.03775
v -0.00916301418562 0.0563253812599 0.03775
v -0.0093 0.0562516660498 0.03775
v -0.00943233215178 0.0561698904597 0.03775
v -0.00955953692619 0.0560803472248 0.03775
v -0.00968115896316 0.0559833568868 0.03775
v -0.00979676288737 0.055879266646 0.03775
v -0.00990593486676 0.0557684491182 0.03775
v -0.010008284094 0.0556513010016 0.03775
v -0.0101034441854 0.055528241656 0.03775
v -0.0101910744925 0.0553997116018 0.03775
v -0.0102708613216 0.0552661709435 0.03775
v -0.0103425190565 0.0551280977217 0.03775
v -0.0104057911812 0.0549859862029 0.03775
v -0.0104604511979 0.0548403451094 0.03775
v -0.0105063034378 0.0546916957985 0.03775
v -0.0105431837619 0.0545405703961 0.03775
v -0.0105709601482 0.0543875098921 0.03775
v -0.0105895331644 0.0542330622031 0.03775
v -0.0105988363239 0.054077780212 0.03775
v -0.0105988363239 0.053922219788 0.03775
v -0.0105895331644 0.0537669377969 0.03775
v -0.0105709601482 0.0536124901079 0.03775
v -0.0105431837619 0.0534594296039 0.03775
v -0.0105063034378 0.0533083042015 0.03775
v -0.0104604511979 0.0531596548906 0.03775
v -0.0104057911812 0.0530140137971 0.03775
v -0.0103425190565 0.0528719022783 0.03775
v -0.0102708613216 0.0527338290565 0.03775
v -0.0101910744925 0.0526002883982 0.03775
v -0.0101034441854 0.052471758344 0.03775
v -0.010008284094 0.0523486989984 0.03775
v -0.00990593486676 0.0522315508818 0.03775
v -0.00979676288737 0.052120733354 0.03775
v -0.00968115896316 0.0520166431132 0.03775
v -0.00955953692619 0.0519196527752 0.03775
v -0.00943233215178 0.0518301095403 0.03775
v -0.0093 0.0517483339502 0.03775
v -0.00916301418562 0.0516746187401 0.03775
v -0.0090218650823 0.0516092277914 0.03775
v -0.0088770579672 0.0515523951867 0.03775
v -0.0087291112122 0.051504324372 0.03775
v -0.00857855442829 0.0514651874283 0.03775
v -0.00842592656968 0.0514351244558 0.03775
v -0.0082717740045 0.051414243072 0.03775
v -0.00811664855891 0.051402618027 0.03775
v -0.00796110554176 0.0514002909353 0.03775
v -0.00780570175668 0.0514072701273 0.03775
v -0.00765099350887 0.0514235306194 0.03775
v -0.00749753461373 0.0514490142032 0.03775
v -0.00734587441426 0.051483629654 0.03775
v -0.00719655581463 0.0515272530576 0.03775
v -0.00705011333665 0.0515797282535 0.03775
v -0.0069070712064 0.0516408673941 0.03775
v -0.00676794147757 0.0517104516172 0.03775
v -0.00663322219849 0.0517882318292 0.03775
v -0.00650339562922 0.0518739295973 0.03775
v -0.00637892651517 0.0519672381456 0.03775
v -0.00626026042347 0.0520678234538 0.03775
v -0.00614782214793 0.0521753254525 0.03775
v -0.00604201418839 0.0522893593126 0.03775
v -0.00594321530989 0.0524095168223 0.03775
v -0.00585177918678 0.052535367849 0.03775
v -0.00576803313664 0.0526664618787 0.03775
v -0.00569227694859 0.0528023296288 0.03775
v -0.00562478181013 0.052942484728 0.03775
v -0.00556578933634 0.0530864254574 0.03775
v -0.00551551070496 0.0532336365465 0.03775
v -0.00547412590044 0.0533835910179 0.03775
v -0.00544178306964 0.0535357520735 0.03775
v -0.00541859799151 0.0536895750162 0.03775
v -0.0054046536626 0.0538445091997 0.03775
v -0.0054 0.054 0.03775
v -0.0054 0.054 0.03975
v -0.0054046536626 0.0541554908003 0.03975
v -0.00541859799151 0.0543104249838 0.03975
v -0.00544178306964 0.0544642479265 0.03975
v -0.00547412590044 0.0546164089821 0.03975
v -0.00551551070496 0.0547663634535 0.03975
v -0.00556578933634 0.0549135745426 0.03975
v -0.00562478181013 0.055057515272 0.03975
v -0.00569227694859 0.0551976703712 0.03975
v -0.00576803313664 0.0553335381213 0.03975
v -0.00585177918678 0.055464632151 0.03975
v -0.00594321530989 0.0555904831777 0.03975
v -0.00604201418839 0.0557106406874 0.03975
v -0.00614782214793 0.0558246745475 0.03975
v -0.00626026042347 0.0559321765462 0.03975
v -0.00637892651517 0.0560327618544 0.03975
v -0.00650339562922 0.0561260704027 0.03975
v -0.00663322219849 0.0562117681708 0.03975
v -0.00676794147757 0.0562895483828 0.03975
v -0.0069070712064 0.0563591326059 0.03975
v -0.00705011333665 0.0564202717465 0.03975
v -0.00719655581463 0.0564727469424 0.03975
v -0.00734587441426 0.056516370346 0.03975
v -0.00749753461373 0.0565509857968 0.03975
v -0.00765099350887 0.0565764693806 0.03975
v -0.00780570175668 0.0565927298727 0.03975
v -0.00796110554176 0.0565997090647 0.03975
v -0.00811664855891 0.056597381973 0.03975
v -0.0082717740045 0.056585756928 0.03975
v -0.00842592656968 0.0565648755442 0.03975
v -0.00857855442829 0.0565348125717 0.03975
v -0.0087291112122 0.056495675628 0.03975
v -0.0088770579672 0.0564476048133 0.03975
v -0.0090218650823 0.0563907722086 0.03975
v -0.00916301418562 0.0563253812599 0.03975
v -0.0093 0.0562516660498 0.03975
v -0.00943233215178 0.0561698904597 0.03975
v -0.00955953692619 0.0560803472248 0.03975
v -0.00968115896316 0.0559833568868 0.03975
v -0.00979676288737 0.055879266646 0.03975
v -0.00990593486676 0.0557684491182 0.03975
v -0.010008284094 0.0556513010016 0.03975
v -0.0101034441854 0.055528241656 0.03975
v -0.0101910744925 0.0553997116018 0.03975
v -0.0102708613216 0.0552661709435 0.03975
v -0.0103425190565 0.0551280977217 0.03975
v -0.0104057911812 0.0549859862029 0.03975
v -0.0104604511979 0.0548403451094 0.03975
v -0.0105063034378 0.0546916957985 0.03975
v -0.0105431837619 0.0545405703961 0.03975
v -0.0105709601482 0.0543875098921 0.03975
v -0.0105895331644 0.0542330622031 0.03975
v -0.0105988363239 0.054077780212 0.03975
v -0.0105988363239 0.053922219788 0.03975
v -0.0105895331644 0.0537669377969 0.03975
v -0.0105709601482 0.0536124901079 0.03975
v -0.0105431837619 0.0534594296039 0.03975
v -0.0105063034378 0.0533083042015 0.03975
v -0.0104604511979 0.0531596548906 0.03975
v -0.0104057911812 0.0530140137971 0.03975
v -0.0103425190565 0.0528719022783 0.03975
v -0.0102708613216 0.0527338290565 0.03975
v -0.0101910744925 0.0526002883982 0.03975
v -0.0101034441854 0.052471758344 0.03975
v -0.010008284094 0.0523486989984 0.03975
v -0.00990593486676 0.0522315508818 0.03975
v -0.00979676288737 0.052120733354 0.03975
v -0.00968115896316 0.0520166431132 0.03975
v -0.00955953692619 0.0519196527752 0.03975
v -0.00943233215178 0.0518301095403 0.03975
v -0.0093 0.0517483339502 0.03975
v -0.00916301418562 0.0516746187401 0.03975
v -0.0090218650823 0.0516092277914 0.03975
v -0.0088770579672 0.0515523951867 0.03975
v -0.0087291112122 0.051504324372 0.03975
v -0.00857855442829 0.0514651874283 0.03975
v -0.00842592656968 0.0514351244558 0.03975
v -0.0082717740045 0.051414243072 0.03975
v -0.00811664855891 0.051402618027 0.03975
v -0.00796110554176 0.0514002909353 0.03975
v -0.00780570175668 0.0514072701273 0.03975
v -0.00765099350887 0.0514235306194 0.03975
v -0.00749753461373 0.0514490142032 0.03975
v -0.00734587441426 0.051483629654 0.03975
v -0.00719655581463 0.0515272530576 0.03975
v -0.00705011333665 0.0515797282535 0.03975
v -0.0069070712064 0.0516408673941 0.03975
v -0.00676794147757 0.0517104516172 0.03975
v -0.00663322219849 0.0517882318292 0.03975
v -0.00650339562922 0.0518739295973 0.03975
v -0.00637892651517 0.0519672381456 0.03975
v -0.00626026042347 0.0520678234538 0.03975
v -0.00614782214793 0.0521753254525 0.03975
v -0.00604201418839 0.0522893593126 0.03975
v -0.00594321530989 0.0524095168223 0.03975
v -0.00585177918678 0.052535367849 0.03975
v -0.00576803313664 0.0526664618787 0.03975
v -0.00569227694859 0.0528023296288 0.03975
v -0.00562478181013 0.052942484728 0.03975
v -0.00556578933634 0.0530864254574 0.03975
v -0.00551551070496 0.0532336365465 0.03975
v -0.00547412590044 0.0533835910179 0.03975
v -0.00544178306964 0.0535357520735 0.03975
v -0.00541859799151 0.0536895750162 0.03975
v -0.0054046536626 0.0538445091997 0.03975
v -0.00875055534995 0.0553 0.03975
v -0.00724944465005 0.0553 0.03975
v -0.00649888930011 0.054 0.03975
v -0.00724944465005 0.0527 0.03975
v -0.00875055534995 0.0527 0.03975
v -0.00950111069989 0.054 0.03975
v -0.0054 0.054 0.03775
v -0.0054046536626 0.0541554908003 0.03775
v -0.00541859799151 0.0543104249838 0.03775
v -0.00544178306964 0.0544642479265 0.03775
v -0.00547412590044 0.0546164089821 0.03775
v -0.00551551070496 0.0547663634535 0.03775
v -0.00556578933634 0.0549135745426 0.03775
v -0.00562478181013 0.055057515272 0.03775
v -0.00569227694859 0.0551976703712 0.03775
v -0.00576803313664 0.0553335381213 0.03775
v -0.00585177918678 0.055464632151 0.03775
v -0.00594321530989 0.0555904831777 0.03775
v -0.00604201418839 0.0557106406874 0.03775
v -0.00614782214793 0.0558246745475 0.03775
v -0.00626026042347 0.0559321765462 0.03775
v -0.00637892651517 0.0560327618544 0.03775
v -0.00650339562922 0.0561260704027 0.03775
v -0.00663322219849 0.0562117681708 0.03775
v -0.00676794147757 0.0562895483828 0.03775
v -0.0069070712064 0.0563591326059 0.03775
v -0.00705011333665 0.0564202717465 0.03775
v -0.00719655581463 0.0564727469424 0.03775
v -0.00734587441426 0.056516370346 0.03775
v -0.00749753461373 0.0565509857968 0.03775
v -0.00765099350887 0.0565764693806 0.03775
v -0.00780570175668 0.0565927298727 0.03775
v -0.00796110554176 0.0565997090647 0.03775
v -0.00811664855891 0.056597381973 0.03775
v -0.0082717740045 0.056585756928 0.03775
v -0.00842592656968 0.0565648755442 0.03775
v -0.00857855442829 0.0565348125717 0.03775
v -0.0087291112122 0.056495675628 0.03775
v -0.0088770579672 0.0564476048133 0.03775
v -0.0090218650823 0.0563907722086 0.03775
v -0.00916301418562 0.0563253812599 0.03775
v -0.0093 0.0562516660498 0.03775
v -0.00943233215178 0.0561698904597 0.03775
v -0.00955953692619 0.0560803472248 0.03775
v -0.00968115896316 0.0559833568868 0.03775
v -0.00979676288737 0.055879266646 0.03775
v -0.00990593486676 0.0557684491182 0.03775
v -0.010008284094 0.0556513010016 0.03775
v -0.0101034441854 0.055528241656 0.03775
v -0.0101910744925 0.0553997116018 0.03775
v -0.0102708613216 0.0552661709435 0.03775
v -0.0103425190565 0.0551280977217 0.03775
v -0.0104057911812 0.0549859862029 0.03775
v -0.0104604511979 0.0548403451094 0.03775
v -0.0105063034378 0.0546916957985 0.03775
v -0.0105431837619 0.0545405703961 0.03775
v -0.0105709601482 0.0543875098921 0.03775
v -0.0105895331644 0.0542330622031 0.03775
v -0.0105988363239 0.054077780212 0.03775
v -0.0105988363239 0.053922219788 0.03775
v -0.0105895331644 0.0537669377969 0.03775
v -0.0105709601482 0.0536124901079 0.03775
v -0.0105431837619 0.0534594296039 0.03775
v -0.0105063034378 0.0533083042015 0.03775
v -0.0104604511979 0.0531596548906 0.03775
v -0.0104057911812 0.0530140137971 0.03775
v -0.0103425190565 0.0528719022783 0.03775
v -0.0102708613216 0.0527338290565 0.03775
v -0.0101910744925 0.0526002883982 0.03775
v -0.0101034441854 0.052471758344 0.03775
v -0.010008284094 0.0523486989984 0.03775
v -0.00990593486676 0.0522315508818 0.03775
v -0.00979676288737 0.052120733354 0.03775
v -0.00968115896316 0.0520166431132 0.03775
v -0.00955953692619 0.0519196527752 0.03775
v -0.00943233215178 0.0518301095403 0.03775
v -0.0093 0.0517483339502 0.03775
v -0.00916301418562 0.0516746187401 0.03775
v -0.0090218650823 0.0516092277914 0.03775
v -0.0088770579672 0.0515523951867 0.03775
v -0.0087291112122 0.051504324372 0.03775
v -0.00857855442829 0.0514651874283 0.03775
v -0.00842592656968 0.0514351244558 0.03775
v -0.0082717740045 0.051414243072 0.03775
v -0.00811664855891 0.051402618027 0.03775
v -0.00796110554176 0.0514002909353 0.03775
v -0.00780570175668 0.0514072701273 0.03775
v -0.00765099350887 0.0514235306194 0.03775
v -0.00749753461373 0.0514490142032 0.03775
v -0.00734587441426 0.051483629654 0.03775
v -0.00719655581463 0.0515272530576 0.03775
v -0.00705011333665 0.0515797282535 0.03775
v -0.0069070712064 0.0516408673941 0.03775
v -0.00676794147757 0.0517104516172 0.03775
v -0.00663322219849 0.0517882318292 0.03775
v -0.00650339562922 0.0518739295973 0.03775
v -0.00637892651517 0.0519672381456 0.03775
v -0.00626026042347 0.0520678234538 0.03775
v -0.00614782214793 0.0521753254525 0.03775
v -0.00604201418839 0.0522893593126 0.03775
v -0.00594321530989 0.0524095168223 0.03775
v -0.00585177918678 0.052535367849 0.03775
v -0.00576803313664 0.0526664618787 0.03775
v -0.00569227694859 0.0528023296288 0.03775
v -0.00562478181013 0.052942484728 0.03775
v -0.00556578933634 0.0530864254574 0.03775
v -0.00551551070496 0.0532336365465 0.03775
v -0.00547412590044 0.0533835910179 0.03775
v -0.00544178306964 0.0535357520735 0.03775
v -0.00541859799151 0.0536895750162 0.03775
v -0.0054046536626 0.0538445091997 0.03775
v -0.0067 0.054 0.03775
v -0.0067023268313 0.0540777454001 0.03775
v -0.00670929899576 0.0541552124919 0.03775
v -0.00672089153482 0.0542321239632 0.03775
v -0.00673706295022 0.054308204491 0.03775
v -0.00675775535248 0.0543831817267 0.03775
v -0.00678289466817 0.0544567872713 0.03775
v -0.00681239090506 0.054528757636 0.03775
v -0.00684613847429 0.0545988351856 0.03775
v -0.00688401656832 0.0546667690606 0.03775
v -0.00692588959339 0.0547323160755 0.03775
v -0.00697160765495 0.0547952415888 0.03775
v -0.0070210070942 0.0548553203437 0.03775
v -0.00707391107396 0.0549123372737 0.03775
v -0.00713013021173 0.0549660882731 0.03775
v -0.00718946325758 0.0550163809272 0.03775
v -0.00725169781461 0.0550630352014 0.03775
v -0.00731661109925 0.0551058840854 0.03775
v -0.00738397073879 0.0551447741914 0.03775
v -0.0074535356032 0.0551795663029 0.03775
v -0.00752505666832 0.0552101358732 0.03775
v -0.00759827790731 0.0552363734712 0.03775
v -0.00767293720713 0.055258185173 0.03775
v -0.00774876730687 0.0552754928984 0.03775
v -0.00782549675444 0.0552882346903 0.03775
v -0.00790285087834 0.0552963649363 0.03775
v -0.00798055277088 0.0552998545324 0.03775
v -0.00805832427946 0.0552986909865 0.03775
v -0.00813588700225 0.055292878464 0.03775
v -0.00821296328484 0.0552824377721 0.03775
v -0.00828927721414 0.0552674062858 0.03775
v -0.0083645556061 0.055247837814 0.03775
v -0.0084385289836 0.0552238024067 0.03775
v -0.00851093254115 0.0551953861043 0.03775
v -0.00858150709281 0.05516269063 0.03775
v -0.00865 0.0551258330249 0.03775
v -0.00871616607589 0.0550849452298 0.03775
v -0.00877976846309 0.0550401736124 0.03775
v -0.00884057948158 0.0549916784434 0.03775
v -0.00889838144368 0.054939633323 0.03775
v -0.00895296743338 0.0548842245591 0.03775
v -0.00900414204699 0.0548256505008 0.03775
v -0.00905172209269 0.054764120828 0.03775
v -0.00909553724625 0.0546998558009 0.03775
v -0.0091354306608 0.0546330854717 0.03775
v -0.00917125952827 0.0545640488609 0.03775
v -0.00920289559062 0.0544929931014 0.03775
v -0.00923022559894 0.0544201725547 0.03775
v -0.0092531517189 0.0543458478992 0.03775
v -0.00927159188095 0.0542702851981 0.03775
v -0.00928548007409 0.054193754946 0.03775
v -0.00929476658219 0.0541165311016 0.03775
v -0.00929941816197 0.054038890106 0.03775
v -0.00929941816197 0.053961109894 0.03775
v -0.00929476658219 0.0538834688984 0.03775
v -0.00928548007409 0.053806245054 0.03775
v -0.00927159188095 0.0537297148019 0.03775
v -0.0092531517189 0.0536541521008 0.03775
v -0.00923022559894 0.0535798274453 0.03775
v -0.00920289559062 0.0535070068986 0.03775
v -0.00917125952827 0.0534359511391 0.03775
v -0.0091354306608 0.0533669145283 0.03775
v -0.00909553724625 0.0533001441991 0.03775
v -0.00905172209269 0.053235879172 0.03775
v -0.00900414204699 0.0531743494992 0.03775
v -0.00895296743338 0.0531157754409 0.03775
v -0.00889838144368 0.053060366677 0.03775
v -0.00884057948158 0.0530083215566 0.03775
v -0.00877976846309 0.0529598263876 0.03775
v -0.00871616607589 0.0529150547702 0.03775
v -0.00865 0.0528741669751 0.03775
v -0.00858150709281 0.05283730937 0.03775
v -0.00851093254115 0.0528046138957 0.03775
v -0.0084385289836 0.0527761975933 0.03775
v -0.0083645556061 0.052752162186 0.03775
v -0.00828927721414 0.0527325937142 0.03775
v -0.00821296328484 0.0527175622279 0.03775
v -0.00813588700225 0.052707121536 0.03775
v -0.00805832427946 0.0527013090135 0.03775
v -0.00798055277088 0.0527001454676 0.03775
v -0.00790285087834 0.0527036350637 0.03775
v -0.00782549675444 0.0527117653097 0.03775
v -0.00774876730687 0.0527245071016 0.03775
v -0.00767293720713 0.052741814827 0.03775
v -0.00759827790731 0.0527636265288 0.03775
v -0.00752505666832 0.0527898641268 0.03775
v -0.0074535356032 0.0528204336971 0.03775
v -0.00738397073879 0.0528552258086 0.03775
v -0.00731661109925 0.0528941159146 0.03775
v -0.00725169781461 0.0529369647986 0.03775
v -0.00718946325758 0.0529836190728 0.03775
v -0.00713013021173 0.0530339117269 0.03775
v -0.00707391107396 0.0530876627263 0.03775
v -0.0070210070942 0.0531446796563 0.03775
v -0.00697160765495 0.0532047584112 0.03775
v -0.00692588959339 0.0532676839245 0.03775
v -0.00688401656832 0.0533332309394 0.03775
v -0.00684613847429 0.0534011648144 0.03775
v -0.00681239090506 0.053471242364 0.03775
v -0.00678289466817 0.0535432127287 0.03775
v -0.00675775535248 0.0536168182733 0.03775
v -0.00673706295022 0.053691795509 0.03775
v -0.00672089153482 0.0537678760368 0.03775
v -0.00670929899576 0.0538447875081 0.03775
v -0.0067023268313 0.0539222545999 0.03775
v -0.00724944465005 0.0553 0.03855
v -0.00875055534995 0.0553 0.03855
v -0.00724944465005 0.0553 0.03975
v -0.00875055534995 0.0553 0.03975
v -0.00875055534995 0.0553 0.03855
v -0.00950111069989 0.054 0.03855
v -0.00875055534995 0.0553 0.03975
v -0.00950111069989 0.054 0.03975
v -0.00950111069989 0.054 0.03855
v -0.00875055534995 0.0527 0.03855
v -0.00950111069989 0.054 0.03975
v -0.00875055534995 0.0527 0.03975
v -0.00875055534995 0.0527 0.03855
v -0.00724944465005 0.0527 0.03855
v -0.00875055534995 0.0527 0.03975
v -0.00724944465005 0.0527 0.03975
v -0.00724944465005 0.0527 0.03855
v -0.00649888930011 0.054 0.03855
v -0.00724944465005 0.0527 0.03975
v -0.00649888930011 0.054 0.03975
v -0.00649888930011 0.054 0.03855
v -0.00724944465005 0.0553 0.03855
v -0.00649888930011 0.054 0.03975
v -0.00724944465005 0.0553 0.03975
v -0.0067 0.054 0.03775
v -0.0067023268313 0.0540777454001 0.03775
v -0.00670929899576 0.0541552124919 0.03775
v -0.00672089153482 0.0542321239632 0.03775
v -0.00673706295022 0.054308204491 0.03775
v -0.00675775535248 0.0543831817267 0.03775
v -0.00678289466817 0.0544567872713 0.03775
v -0.00681239090506 0.054528757636 0.03775
v -0.00684613847429 0.0545988351856 0.03775
v -0.00688401656832 0.0546667690606 0.03775
v -0.00692588959339 0.0547323160755 0.03775
v -0.00697160765495 0.0547952415888 0.03775
v -0.0070210070942 0.0548553203437 0.03775
v -0.00707391107396 0.0549123372737 0.03775
v -0.00713013021173 0.0549660882731 0.03775
v -0.00718946325758 0.0550163809272 0.03775
v -0.00725169781461 0.0550630352014 0.03775
v -0.00731661109925 0.0551058840854 0.03775
v -0.00738397073879 0.0551447741914 0.03775
v -0.0074535356032 0.0551795663029 0.03775
v -0.00752505666832 0.0552101358732 0.03775
v -0.00759827790731 0.0552363734712 0.03775
v -0.00767293720713 0.055258185173 0.03775
v -0.00774876730687 0.0552754928984 0.03775
v -0.00782549675444 0.0552882346903 0.03775
v -0.00790285087834 0.0552963649363 0.03775
v -0.00798055277088 0.0552998545324 0.03775
v -0.00805832427946 0.0552986909865 0.03775
v -0.00813588700225 0.055292878464 0.03775
v -0.00821296328484 0.0552824377721 0.03775
v -0.00828927721414 0.0552674062858 0.03775
v -0.0083645556061 0.055247837814 0.03775
v -0.0084385289836 0.0552238024067 0.03775
v -0.00851093254115 0.0551953861043 0.03775
v -0.00858150709281 0.05516269063 0.03775
v -0.00865 0.0551258330249 0.03775
v -0.00871616607589 0.0550849452298 0.03775
v -0.00877976846309 0.0550401736124 0.03775
v -0.00884057948158 0.0549916784434 0.03775
v -0.00889838144368 0.054939633323 0.03775
v -0.00895296743338 0.0548842245591 0.03775
v -0.00900414204699 0.0548256505008 0.03775
v -0.00905172209269 0.054764120828 0.03775
v -0.00909553724625 0.0546998558009 0.03775
v -0.0091354306608 0.0546330854717 0.03775
v -0.00917125952827 0.0545640488609 0.03775
v -0.00920289559062 0.0544929931014 0.03775
v -0.00923022559894 0.0544201725547 0.03775
v -0.0092531517189 0.0543458478992 0.03775
v -0.00927159188095 0.0542702851981 0.03775
v -0.00928548007409 0.054193754946 0.03775
v -0.00929476658219 0.0541165311016 0.03775
v -0.00929941816197 0.054038890106 0.03775
v -0.00929941816197 0.053961109894 0.03775
v -0.00929476658219 0.0538834688984 0.03775
v -0.00928548007409 0.053806245054 0.03775
v -0.00927159188095 0.0537297148019 0.03775
v -0.0092531517189 0.0536541521008 0.03775
v -0.00923022559894 0.0535798274453 0.03775
v -0.00920289559062 0.0535070068986 0.03775
v -0.00917125952827 0.0534359511391 0.03775
v -0.0091354306608 0.0533669145283 0.03775
v -0.00909553724625 0.0533001441991 0.03775
v -0.00905172209269 0.053235879172 0.03775
v -0.00900414204699 0.0531743494992 0.03775
v -0.00895296743338 0.0531157754409 0.03775
v -0.00889838144368 0.053060366677 0.03775
v -0.00884057948158 0.0530083215566 0.03775
v -0.00877976846309 0.0529598263876 0.03775
v -0.00871616607589 0.0529150547702 0.03775
v -0.00865 0.0528741669751 0.03775
v -0.00858150709281 0.05283730937 0.03775
v -0.00851093254115 0.0528046138957 0.03775
v -0.0084385289836 0.0527761975933 0.03775
v -0.0083645556061 0.052752162186 0.03775
v -0.00828927721414 0.0527325937142 0.03775
v -0.00821296328484 0.0527175622279 0.03775
v -0.00813588700225 0.052707121536 0.03775
v -0.00805832427946 0.0527013090135 0.03775
v -0.00798055277088 0.0527001454676 0.03775
v -0.00790285087834 0.0527036350637 0.03775
v -0.00782549675444 0.0527117653097 0.03775
v -0.00774876730687 0.0527245071016 0.03775
v -0.00767293720713 0.052741814827 0.03775
v -0.00759827790731 0.0527636265288 0.03775
v -0.00752505666832 0.0527898641268 0.03775
v -0.0074535356032 0.0528204336971 0.03775
v -0.00738397073879 0.0528552258086 0.03775
v -0.00731661109925 0.0528941159146 0.03775
v -0.00725169781461 0.0529369647986 0.03775
v -0.00718946325758 0.0529836190728 0.03775
v -0.00713013021173 0.0530339117269 0.03775
v -0.00707391107396 0.0530876627263 0.03775
v -0.0070210070942 0.0531446796563 0.03775
v -0.00697160765495 0.0532047584112 0.03775
v -0.00692588959339 0.0532676839245 0.03775
v -0.00688401656832 0.0533332309394 0.03775
v -0.00684613847429 0.0534011648144 0.03775
v -0.00681239090506 0.053471242364 0.03775
v -0.00678289466817 0.0535432127287 0.03775
v -0.00675775535248 0.0536168182733 0.03775
v -0.00673706295022 0.053691795509 0.03775
v -0.00672089153482 0.0537678760368 0.03775
v -0.00670929899576 0.0538447875081 0.03775
v -0.0067023268313 0.0539222545999 0.03775
v -0.0067 0.054 0.03775
v -0.0067 0.054 0.03275
v -0.0067023268313 0.0540777454001 0.03275
v -0.00670929899576 0.0541552124919 0.03275
v -0.00672089153482 0.0542321239632 0.03275
v -0.00673706295022 0.054308204491 0.03275
v -0.00675775535248 0.0543831817267 0.03275
v -0.00678289466817 0.0544567872713 0.03275
v -0.00681239090506 0.054528757636 0.03275
v -0.00684613847429 0.0545988351856 0.03275
v -0.00688401656832 0.0546667690606 0.03275
v -0.00692588959339 0.0547323160755 0.03275
v -0.00697160765495 0.0547952415888 0.03275
v -0.0070210070942 0.0548553203437 0.03275
v -0.00707391107396 0.0549123372737 0.03275
v -0.00713013021173 0.0549660882731 0.03275
v -0.00718946325758 0.0550163809272 0.03275
v -0.00725169781461 0.0550630352014 0.03275
v -0.00731661109925 0.0551058840854 0.03275
v -0.00738397073879 0.0551447741914 0.03275
v -0.0074535356032 0.0551795663029 0.03275
v -0.00752505666832 0.0552101358732 0.03275
v -0.00759827790731 0.0552363734712 0.03275
v -0.00767293720713 0.055258185173 0.03275
v -0.00774876730687 0.0552754928984 0.03275
v -0.00782549675444 0.0552882346903 0.03275
v -0.00790285087834 0.0552963649363 0.03275
v -0.00798055277088 0.0552998545324 0.03275
v -0.00805832427946 0.0552986909865 0.03275
v -0.00813588700225 0.055292878464 0.03275
v -0.00821296328484 0.0552824377721 0.03275
v -0.00828927721414 0.0552674062858 0.03275
v -0.0083645556061 0.055247837814 0.03275
v -0.0084385289836 0.0552238024067 0.03275
v -0.00851093254115 0.0551953861043 0.03275
v -0.00858150709281 0.05516269063 0.03275
v -0.00865 0.0551258330249 0.03275
v -0.00871616607589 0.0550849452298 0.03275
v -0.00877976846309 0.0550401736124 0.03275
v -0.00884057948158 0.0549916784434 0.03275
v -0.00889838144368 0.054939633323 0.03275
v -0.00895296743338 0.0548842245591 0.03275
v -0.00900414204699 0.0548256505008 0.03275
v -0.00905172209269 0.054764120828 0.03275
v -0.00909553724625 0.0546998558009 0.03275
v -0.0091354306608 0.0546330854717 0.03275
v -0.00917125952827 0.0545640488609 0.03275
v -0.00920289559062 0.0544929931014 0.03275
v -0.00923022559894 0.0544201725547 0.03275
v -0.0092531517189 0.0543458478992 0.03275
v -0.00927159188095 0.0542702851981 0.03275
v -0.00928548007409 0.054193754946 0.03275
v -0.00929476658219 0.0541165311016 0.03275
v -0.00929941816197 0.054038890106 0.03275
v -0.00929941816197 0.053961109894 0.03275
v -0.00929476658219 0.0538834688984 0.03275
v -0.00928548007409 0.053806245054 0.03275
v -0.00927159188095 0.0537297148019 0.03275
v -0.0092531517189 0.0536541521008 0.03275
v -0.00923022559894 0.0535798274453 0.03275
v -0.00920289559062 0.0535070068986 0.03275
v -0.00917125952827 0.0534359511391 0.03275
v -0.0091354306608 0.0533669145283 0.03275
v -0.00909553724625 0.0533001441991 0.03275
v -0.00905172209269 0.053235879172 0.03275
v -0.00900414204699 0.0531743494992 0.03275
v -0.00895296743338 0.0531157754409 0.03275
v -0.00889838144368 0.053060366677 0.03275
v -0.00884057948158 0.0530083215566 0.03275
v -0.00877976846309 0.0529598263876 0.03275
v -0.00871616607589 0.0529150547702 0.03275
v -0.00865 0.0528741669751 0.03275
v -0.00858150709281 0.05283730937 0.03275
v -0.00851093254115 0.0528046138957 0.03275
v -0.0084385289836 0.0527761975933 0.03275
v -0.0083645556061 0.052752162186 0.03275
v -0.00828927721414 0.0527325937142 0.03275
v -0.00821296328484 0.0527175622279 0.03275
v -0.00813588700225 0.052707121536 0.03275
v -0.00805832427946 0.0527013090135 0.03275
v -0.00798055277088 0.0527001454676 0.03275
v -0.00790285087834 0.0527036350637 0.03275
v -0.00782549675444 0.0527117653097 0.03275
v -0.00774876730687 0.0527245071016 0.03275
v -0.00767293720713 0.052741814827 0.03275
v -0.00759827790731 0.0527636265288 0.03275
v -0.00752505666832 0.0527898641268 0.03275
v -0.0074535356032 0.0528204336971 0.03275
v -0.00738397073879 0.0528552258086 0.03275
v -0.00731661109925 0.0528941159146 0.03275
v -0.00725169781461 0.0529369647986 0.03275
v -0.00718946325758 0.0529836190728 0.03275
v -0.00713013021173 0.0530339117269 0.03275
v -0.00707391107396 0.0530876627263 0.03275
v -0.0070210070942 0.0531446796563 0.03275
v -0.00697160765495 0.0532047584112 0.03275
v -0.00692588959339 0.0532676839245 0.03275
v -0.00688401656832 0.0533332309394 0.03275
v -0.00684613847429 0.0534011648144 0.03275
v -0.00681239090506 0.053471242364 0.03275
v -0.00678289466817 0.0535432127287 0.03275
v -0.00675775535248 0.0536168182733 0.03275
v -0.00673706295022 0.053691795509 0.03275
v -0.00672089153482 0.0537678760368 0.03275
v -0.00670929899576 0.0538447875081 0.03275
v -0.0067023268313 0.0539222545999 0.03275
v -0.0067 0.054 0.03275
v -0.00649888930011 0.054 0.03855
v -0.00724944465005 0.0553 0.03855
v -0.00875055534995 0.0553 0.03855
v -0.00950111069989 0.054 0.03855
v -0.00875055534995 0.0527 0.03855
v -0.00724944465005 0.0527 0.03855
v -0.0067 0.054 0.03275
v -0.0067023268313 0.0540777454001 0.03275
v -0.00670929899576 0.0541552124919 0.03275
v -0.00672089153482 0.0542321239632 0.03275
v -0.00673706295022 0.054308204491 0.03275
v -0.00675775535248 0.0543831817267 0.03275
v -0.00678289466817 0.0544567872713 0.03275
v -0.00681239090506 0.054528757636 0.03275
v -0.00684613847429 0.0545988351856 0.03275
v -0.00688401656832 0.0546667690606 0.03275
v -0.00692588959339 0.0547323160755 0.03275
v -0.00697160765495 0.0547952415888 0.03275
v -0.0070210070942 0.0548553203437 0.03275
v -0.00707391107396 0.0549123372737 0.03275
v -0.00713013021173 0.0549660882731 0.03275
v -0.00718946325758 0.0550163809272 0.03275
v -0.00725169781461 0.0550630352014 0.03275
v -0.00731661109925 0.0551058840854 0.03275
v -0.00738397073879 0.0551447741914 0.03275
v -0.0074535356032 0.0551795663029 0.03275
v -0.00752505666832 0.0552101358732 0.03275
v -0.00759827790731 0.0552363734712 0.03275
v -0.00767293720713 0.055258185173 0.03275
v -0.00774876730687 0.0552754928984 0.03275
v -0.00782549675444 0.0552882346903 0.03275
v -0.00790285087834 0.0552963649363 0.03275
v -0.00798055277088 0.0552998545324 0.03275
v -0.00805832427946 0.0552986909865 0.03275
v -0.00813588700225 0.055292878464 0.03275
v -0.00821296328484 0.0552824377721 0.03275
v -0.00828927721414 0.0552674062858 0.03275
v -0.0083645556061 0.055247837814 0.03275
v -0.0084385289836 0.0552238024067 0.03275
v -0.00851093254115 0.0551953861043 0.03275
v -0.00858150709281 0.05516269063 0.03275
v -0.00865 0.0551258330249 0.03275
v -0.00871616607589 0.0550849452298 0.03275
v -0.00877976846309 0.0550401736124 0.03275
v -0.00884057948158 0.0549916784434 0.03275
v -0.00889838144368 0.054939633323 0.03275
v -0.00895296743338 0.0548842245591 0.03275
v -0.00900414204699 0.0548256505008 0.03275
v -0.00905172209269 0.054764120828 0.03275
v -0.00909553724625 0.0546998558009 0.03275
v -0.0091354306608 0.0546330854717 0.03275
v -0.00917125952827 0.0545640488609 0.03275
v -0.00920289559062 0.0544929931014 0.03275
v -0.00923022559894 0.0544201725547 0.03275
v -0.0092531517189 0.0543458478992 0.03275
v -0.00927159188095 0.0542702851981 0.03275
v -0.00928548007409 0.054193754946 0.03275
v -0.00929476658219 0.0541165311016 0.03275
v -0.00929941816197 0.054038890106 0.03275
v -0.00929941816197 0.053961109894 0.03275
v -0.00929476658219 0.0538834688984 0.03275
v -0.00928548007409 0.053806245054 0.03275
v -0.00927159188095 0.0537297148019 0.03275
v -0.0092531517189 0.0536541521008 0.03275
v -0.00923022559894 0.0535798274453 0.03275
v -0.00920289559062 0.0535070068986 0.03275
v -0.00917125952827 0.0534359511391 0.03275
v -0.0091354306608 0.0533669145283 0.03275
v -0.00909553724625 0.0533001441991 0.03275
v -0.00905172209269 0.053235879172 0.03275
v -0.00900414204699 0.0531743494992 0.03275
v -0.00895296743338 0.0531157754409 0.03275
v -0.00889838144368 0.053060366677 0.03275
v -0.00884057948158 0.0530083215566 0.03275
v -0.00877976846309 0.0529598263876 0.03275
v -0.00871616607589 0.0529150547702 0.03275
v -0.00865 0.0528741669751 0.03275
v -0.00858150709281 0.05283730937 0.03275
v -0.00851093254115 0.0528046138957 0.03275
v -0.0084385289836 0.0527761975933 0.03275
v -0.0083645556061 0.052752162186 0.03275
v -0.00828927721414 0.0527325937142 0.03275
v -0.00821296328484 0.0527175622279 0.03275
v -0.00813588700225 0.052707121536 0.03275
v -0.00805832427946 0.0527013090135 0.03275
v -0.00798055277088 0.0527001454676 0.03275
v -0.00790285087834 0.0527036350637 0.03275
v -0.00782549675444 0.0527117653097 0.03275
v -0.00774876730687 0.0527245071016 0.03275
v -0.00767293720713 0.052741814827 0.03275
v -0.00759827790731 0.0527636265288 0.03275
v -0.00752505666832 0.0527898641268 0.03275
v -0.0074535356032 0.0528204336971 0.03275
v -0.00738397073879 0.0528552258086 0.03275
v -0.00731661109925 0.0528941159146 0.03275
v -0.00725169781461 0.0529369647986 0.03275
v -0.00718946325758 0.0529836190728 0.03275
v -0.00713013021173 0.0530339117269 0.03275
v -0.00707391107396 0.0530876627263 0.03275
v -0.0070210070942 0.0531446796563 0.03275
v -0.00697160765495 0.0532047584112 0.03275
v -0.00692588959339 0.0532676839245 0.03275
v -0.00688401656832 0.0533332309394 0.03275
v -0.00684613847429 0.0534011648144 0.03275
v -0.00681239090506 0.053471242364 0.03275
v -0.00678289466817 0.0535432127287 0.03275
v -0.00675775535248 0.0536168182733 0.03275
v -0.00673706295022 0.053691795509 0.03275
v -0.00672089153482 0.0537678760368 0.03275
v -0.00670929899576 0.0538447875081 0.03275
v -0.0067023268313 0.0539222545999 0.03275
f 2 1 107
f 2 107 108
f 3 108 109
f 3 2 108
f 4 109 110
f 4 3 109
f 5 110 111
f 5 4 110
f 6 111 112
f 6 5 111
f 7 112 113
f 7 6 112
f 8 113 114
f 8 7 113
f 9 114 115
f 9 115 116
f 9 8 114
f 10 9 116
f 11 116 117
f 11 10 116
f 12 117 118
f 12 11 117
f 13 118 119
f 13 12 118
f 14 119 120
f 14 13 119
f 15 120 121
f 15 14 120
f 16 121 122
f 16 15 121
f 17 122 123
f 17 16 122
f 18 123 124
f 18 17 123
f 19 124 125
f 19 18 124
f 20 125 126
f 20 19 125
f 21 126 127
f 21 20 126
f 22 127 128
f 22 21 127
f 23 22 128
f 23 128 129
f 24 23 129
f 24 129 130
f 25 24 130
f 25 130 131
f 26 25 131
f 26 131 132
f 26 132 133
f 27 26 133
f 28 27 133
f 28 133 134
f 29 28 134
f 29 134 135
f 30 29 135
f 30 135 136
f 31 30 136
f 31 136 137
f 32 137 138
f 32 31 137
f 33 138 139
f 33 139 140
f 33 32 138
f 34 33 140
f 35 140 141
f 35 34 140
f 36 141 142
f 36 35 141
f 37 142 143
f 37 36 142
f 38 143 144
f 38 37 143
f 39 144 145
f 39 145 146
f 39 38 144
f 40 39 146
f 41 146 147
f 41 40 146
f 42 147 148
f 42 41 147
f 43 148 149
f 43 42 148
f 44 149 150
f 44 43 149
f 45 150 151
f 45 44 150
f 46 151 152
f 46 45 151
f 47 152 153
f 47 46 152
f 48 153 154
f 48 47 153
f 49 48 154
f 49 154 155
f 50 49 155
f 50 155 156
f 51 50 156
f 51 156 157
f 52 51 157
f 52 157 158
f 53 52 158
f 53 158 159
f 54 53 159
f 54 159 160
f 55 54 160
f 55 160 161
f 56 55 161
f 56 161 162
f 57 56 162
f 57 162 163
f 58 57 163
f 58 163 164
f 59 58 164
f 59 164 165
f 60 59 165
f 60 165 166
f 61 60 166
f 61 166 167
f 62 61 167
f 62 167 168
f 63 62 168
f 63 168 169
f 64 63 169
f 64 169 170
f 65 64 170
f 65 170 171
f 66 171 172
f 66 65 171
f 67 172 173
f 67 66 172
f 68 173 174
f 68 67 173
f 69 174 175
f 69 68 174
f 70 175 176
f 70 69 175
f 71 176 177
f 71 70 176
f 72 177 178
f 72 71 177
f 73 72 178
f 73 178 179
f 74 73 179
f 74 179 180
f 75 74 180
f 75 180 181
f 76 75 181
f 76 181 182
f 77 76 182
f 77 182 183
f 78 77 183
f 78 183 184
f 79 78 184
f 79 184 185
f 80 79 185
f 80 185 186
f 80 186 187
f 81 80 187
f 82 81 187
f 82 187 188
f 83 82 188
f 83 188 189
f 84 83 189
f 84 189 190
f 85 84 190
f 85 190 191
f 86 85 191
f 86 191 192
f 87 86 192
f 87 192 193
f 88 87 193
f 88 193 194
f 89 88 194
f 89 194 195
f 90 89 195
f 90 195 196
f 91 90 196
f 91 196 197
f 92 91 197
f 92 197 198
f 93 92 198
f 93 198 199
f 94 93 199
f 94 199 200
f 95 94 200
f 95 200 201
f 96 95 201
f 96 201 202
f 97 202 203
f 97 96 202
f 98 203 204
f 98 97 203
f 99 98 204
f 99 204 205
f 100 205 206
f 100 99 205
f 101 206 207
f 101 100 206
f 102 207 208
f 102 101 207
f 103 208 209
f 103 102 208
f 104 209 210
f 104 103 209
f 105 210 211
f 105 104 210
f 106 105 211
f 106 211 212
f 322 274 275
f 322 275 276
f 322 276 277
f 322 277 278
f 322 278 279
f 322 279 280
f 322 280 281
f 322 281 282
f 322 282 283
f 322 283 284
f 322 284 285
f 322 285 286
f 322 286 287
f 322 287 288
f 322 288 289
f 322 289 290
f 322 290 291
f 322 291 292
f 323 260 261
f 323 261 262
f 323 262 263
f 323 274 322
f 323 263 264
f 323 264 265
f 323 265 266
f 323 266 267
f 323 267 268
f 323 268 269
f 323 269 270
f 323 270 271
f 323 271 272
f 323 272 273
f 323 273 274
f 259 260 323
f 258 259 323
f 257 258 323
f 321 292 293
f 321 322 292
f 321 293 294
f 321 294 295
f 321 295 296
f 321 296 297
f 321 297 298
f 321 298 299
f 321 299 300
f 321 300 301
f 321 301 302
f 303 321 302
f 304 321 303
f 305 321 304
f 306 321 305
f 307 321 306
f 318 257 323
f 318 250 251
f 318 251 252
f 318 252 253
f 318 253 254
f 318 254 255
f 318 255 256
f 318 256 257
f 308 321 307
f 249 250 318
f 309 321 308
f 248 249 318
f 247 248 318
f 246 247 318
f 320 321 309
f 320 309 310
f 320 310 311
f 312 320 311
f 245 246 318
f 313 320 312
f 244 245 318
f 314 320 313
f 243 244 318
f 315 320 314
f 242 243 318
f 316 320 315
f 241 242 318
f 317 320 316
f 240 241 318
f 213 320 317
f 239 318 319
f 239 240 318
f 214 320 213
f 238 239 319
f 215 320 214
f 237 238 319
f 216 320 215
f 236 237 319
f 217 320 216
f 235 236 319
f 218 320 217
f 234 235 319
f 219 320 218
f 233 234 319
f 220 320 219
f 232 233 319
f 221 320 220
f 231 232 319
f 222 319 320
f 222 320 221
f 230 231 319
f 223 319 222
f 229 230 319
f 224 319 223
f 228 229 319
f 225 319 224
f 227 228 319
f 226 319 225
f 226 227 319
f 494 495 390
f 494 390 389
f 496 390 495
f 496 391 390
f 493 389 388
f 493 494 389
f 497 391 496
f 497 392 391
f 492 388 387
f 492 493 388
f 498 393 392
f 498 394 393
f 498 392 497
f 491 492 387
f 491 387 386
f 499 394 498
f 490 491 386
f 490 386 385
f 500 395 394
f 500 396 395
f 500 394 499
f 489 385 384
f 489 490 385
f 501 396 500
f 488 489 384
f 488 384 383
f 502 397 396
f 502 396 501
f 487 383 382
f 487 488 383
f 503 397 502
f 503 398 397
f 486 487 382
f 486 382 381
f 504 398 503
f 504 399 398
f 485 380 379
f 485 381 380
f 485 486 381
f 505 399 504
f 505 400 399
f 484 485 379
f 506 400 505
f 506 401 400
f 483 484 379
f 483 379 378
f 507 401 506
f 507 402 401
f 482 483 378
f 482 378 377
f 508 403 402
f 508 404 403
f 508 402 507
f 481 482 377
f 481 377 376
f 509 404 508
f 480 481 376
f 480 376 375
f 510 405 404
f 510 404 509
f 479 480 375
f 479 375 374
f 511 405 510
f 511 406 405
f 478 374 373
f 478 479 374
f 512 406 511
f 512 407 406
f 477 373 372
f 477 478 373
f 513 407 512
f 513 408 407
f 476 477 372
f 476 372 371
f 514 408 513
f 514 409 408
f 475 370 369
f 475 371 370
f 475 476 371
f 515 409 514
f 515 410 409
f 474 475 369
f 516 410 515
f 516 411 410
f 473 368 367
f 473 369 368
f 473 474 369
f 517 412 411
f 517 411 516
f 472 473 367
f 518 413 412
f 518 412 517
f 471 367 366
f 471 472 367
f 519 413 518
f 519 414 413
f 470 366 365
f 470 471 366
f 364 470 365
f 520 414 519
f 520 415 414
f 469 470 364
f 521 415 520
f 416 415 521
f 363 468 469
f 363 469 364
f 417 416 521
f 417 521 522
f 362 468 363
f 362 467 468
f 418 417 522
f 418 522 523
f 361 467 362
f 361 465 466
f 361 466 467
f 419 418 523
f 419 523 524
f 419 524 525
f 360 465 361
f 420 419 525
f 359 463 464
f 359 464 465
f 359 465 360
f 421 525 526
f 421 420 525
f 358 463 359
f 422 526 527
f 422 527 528
f 422 421 526
f 357 462 463
f 357 463 358
f 423 422 528
f 356 461 462
f 356 462 357
f 424 528 529
f 424 423 528
f 355 461 356
f 355 459 460
f 355 460 461
f 425 529 530
f 425 530 531
f 425 424 529
f 354 459 355
f 426 425 531
f 353 457 458
f 353 458 459
f 353 459 354
f 427 531 532
f 427 426 531
f 352 456 457
f 352 457 353
f 428 532 533
f 428 427 532
f 351 455 456
f 351 456 352
f 324 533 429
f 324 428 533
f 350 454 455
f 350 455 351
f 325 429 430
f 325 430 431
f 325 324 429
f 349 454 350
f 326 325 431
f 348 454 349
f 348 453 454
f 327 431 432
f 327 432 433
f 327 326 431
f 347 452 453
f 347 453 348
f 328 327 433
f 346 451 452
f 346 452 347
f 329 433 434
f 329 328 433
f 345 451 346
f 345 449 450
f 345 450 451
f 330 434 435
f 330 329 434
f 344 449 345
f 331 435 436
f 331 330 435
f 343 449 344
f 343 448 449
f 332 436 437
f 332 331 436
f 342 448 343
f 342 447 448
f 333 437 438
f 333 332 437
f 341 447 342
f 341 446 447
f 334 333 438
f 334 438 439
f 340 446 341
f 340 445 446
f 335 334 439
f 335 439 440
f 335 440 441
f 339 445 340
f 339 444 445
f 336 335 441
f 338 442 443
f 338 443 444
f 338 444 339
f 337 442 338
f 337 441 442
f 337 336 441
f 535 534 536
f 535 536 537
f 539 538 540
f 539 540 541
f 543 542 544
f 543 544 545
f 547 546 548
f 547 548 549
f 551 550 552
f 551 552 553
f 555 554 556
f 555 556 557
f 559 558 664
f 559 664 665
f 560 665 666
f 560 559 665
f 561 666 667
f 561 560 666
f 562 667 668
f 562 668 669
f 562 561 667
f 563 562 669
f 564 669 670
f 564 563 669
f 565 670 671
f 565 564 670
f 566 671 672
f 566 672 673
f 566 565 671
f 567 673 674
f 567 566 673
f 568 567 674
f 569 674 675
f 569 568 674
f 570 675 676
f 570 676 677
f 570 569 675
f 571 677 678
f 571 570 677
f 572 571 678
f 573 678 679
f 573 572 678
f 574 679 680
f 574 573 679
f 575 680 681
f 575 681 682
f 575 574 680
f 576 575 682
f 577 682 683
f 577 576 682
f 578 683 684
f 578 684 685
f 578 577 683
f 579 578 685
f 580 579 685
f 580 685 686
f 581 580 686
f 581 686 687
f 582 581 687
f 582 687 688
f 583 582 688
f 583 688 689
f 584 583 689
f 584 689 690
f 585 584 690
f 585 690 691
f 586 585 691
f 586 691 692
f 586 692 693
f 587 586 693
f 588 587 693
f 588 693 694
f 589 694 695
f 589 588 694
f 590 695 696
f 590 589 695
f 591 696 697
f 591 590 696
f 592 697 698
f 592 591 697
f 593 698 699
f 593 592 698
f 594 699 700
f 594 593 699
f 595 700 701
f 595 701 702
f 595 594 700
f 596 595 702
f 597 702 703
f 597 703 704
f 597 596 702
f 598 597 704
f 599 704 705
f 599 598 704
f 600 705 706
f 600 706 707
f 600 599 705
f 601 600 707
f 602 707 708
f 602 601 707
f 603 708 709
f 603 709 710
f 603 602 708
f 604 603 710
f 605 710 711
f 605 711 712
f 605 604 710
f 606 605 712
f 607 606 712
f 607 712 713
f 607 713 714
f 608 607 714
f 609 608 714
f 609 714 715
f 610 609 715
f 610 715 716
f 610 716 717
f 611 610 717
f 612 611 717
f 612 717 718
f 612 718 719
f 613 612 719
f 614 613 719
f 614 719 720
f 615 614 720
f 615 720 721
f 615 721 722
f 616 615 722
f 617 616 722
f 617 722 723
f 618 617 723
f 618 723 724
f 618 724 725
f 619 618 725
f 619 725 726
f 620 619 726
f 620 726 727
f 621 620 727
f 622 621 727
f 622 727 728
f 622 728 729
f 623 729 730
f 623 622 729
f 624 623 730
f 625 730 731
f 625 731 732
f 625 624 730
f 626 625 732
f 627 732 733
f 627 733 734
f 627 626 732
f 628 734 735
f 628 627 734
f 629 735 736
f 629 628 735
f 630 629 736
f 631 630 736
f 631 736 737
f 631 737 738
f 632 631 738
f 633 632 738
f 633 738 739
f 633 739 740
f 634 633 740
f 634 740 741
f 635 634 741
f 636 635 741
f 636 741 742
f 637 636 742
f 637 742 743
f 637 743 744
f 638 637 744
f 639 638 744
f 639 744 745
f 640 639 745
f 640 745 746
f 641 640 746
f 641 746 747
f 642 641 747
f 642 747 748
f 643 642 748
f 643 748 749
f 644 643 749
f 644 749 750
f 645 644 750
f 645 750 751
f 646 645 751
f 646 751 752
f 646 752 753
f 647 646 753
f 648 647 753
f 648 753 754
f 648 754 755
f 649 648 755
f 650 649 755
f 650 755 756
f 651 650 756
f 651 756 757
f 652 651 757
f 652 757 758
f 653 652 758
f 653 758 759
f 654 759 760
f 654 653 759
f 655 760 761
f 655 654 760
f 656 655 761
f 656 761 762
f 657 762 763
f 657 656 762
f 658 763 764
f 658 657 763
f 659 764 765
f 659 658 764
f 660 765 766
f 660 659 765
f 661 766 767
f 661 660 766
f 662 767 768
f 662 661 767
f 663 662 768
f 663 768 769
f 775 773 774
f 770 773 775
f 771 772 773
f 771 773 770
f 849 847 846
f 849 848 847
f 850 849 846
f 850 845 844
f 850 846 845
f 833 835 834
f 833 836 835
f 833 837 836
f 833 838 837
f 833 839 838
f 833 840 839
f 833 841 840
f 859 858 857
f 824 826 825
f 860 859 857
f 860 856 855
f 860 857 856
f 823 827 826
f 823 826 824
f 863 861 860
f 863 862 861
f 820 822 821
f 820 823 822
f 867 866 865
f 816 818 817
f 816 819 818
f 816 820 819
f 868 867 865
f 868 864 863
f 868 865 864
f 815 841 833
f 815 828 827
f 815 829 828
f 815 830 829
f 815 831 830
f 815 832 831
f 815 833 832
f 815 842 841
f 815 843 842
f 815 820 816
f 815 827 823
f 815 823 820
f 869 868 863
f 813 815 814
f 812 815 813
f 872 871 870
f 873 869 863
f 873 872 870
f 873 870 869
f 810 812 811
f 876 875 874
f 807 809 808
f 807 810 809
f 877 876 874
f 877 874 873
f 776 878 877
f 776 879 878
f 776 880 879
f 802 804 803
f 802 805 804
f 802 806 805
f 800 802 801
f 779 777 776
f 779 778 777
f 780 779 776
f 798 812 810
f 798 800 799
f 798 807 806
f 798 810 807
f 798 806 802
f 798 844 843
f 798 802 800
f 798 815 812
f 798 843 815
f 781 776 877
f 781 780 776
f 797 850 844
f 797 844 798
f 797 851 850
f 797 852 851
f 797 853 852
f 797 854 853
f 797 855 854
f 797 860 855
f 797 863 860
f 795 797 796
f 784 782 781
f 784 783 782
f 793 795 794
f 786 785 784
f 786 784 781
f 791 793 792
f 791 797 795
f 791 795 793
f 788 787 786
f 788 877 873
f 788 781 877
f 788 786 781
f 789 788 873
f 789 797 791
f 789 791 790
f 789 873 863
f 789 863 797
