# https://github.com/mikedh/trimesh
v 0.00338367 0.00978109 0.02281728
v 0.00231336 0.00978109 0.02347585
v 0.00237793 0.00912962 0.02281728
v -0.00341555 0.00978109 0.02281728
v 0.00167438 0.00944895 0.02347585
v -0.00233260 0.00978109 0.02347585
v 0.00184810 0.00901197 0.02281728
v -0.00341622 0.00975332 0.02281728
v 0.00153526 0.00944162 0.02347585
v -0.00288839 0.00930838 0.02281728
v -0.00187267 0.00953351 0.02347585
v 0.00132027 0.00899299 0.02281728
v -0.00135416 0.00944162 0.02347585
v -0.00234858 0.00909745 0.02281728
v -0.00167431 0.00944895 0.02347585
v -0.00132088 0.00899299 0.02281728
v -0.00184804 0.00901197 0.02281728
v -0.00183273 0.00901012 0.02281728
f 1 2 3
f 1 3 7
f 1 7 12
f 1 12 16
f 1 16 18
f 1 18 17
f 1 17 14
f 1 14 10
f 1 10 8
f 1 8 4
f 1 4 6
f 1 6 2
f 2 5 3
f 2 6 11
f 2 11 15
f 2 15 13
f 2 13 9
f 2 9 5
f 3 5 7
f 4 8 6
f 5 9 7
f 6 8 10
f 6 10 11
f 7 9 12
f 9 13 16
f 9 16 12
f 10 14 15
f 10 15 11
f 13 15 16
f 14 17 15
f 15 17 18
f 15 18 16

