# https://github.com/mikedh/trimesh
v -0.00343521 0.00855526 0.01870930
v -0.00396360 0.00838857 0.01871051
v -0.00396360 0.00872189 0.01871291
v -0.00237902 0.00896995 0.01870930
v -0.00185063 0.00838857 0.01870930
v -0.00449199 0.00838857 0.01872697
v -0.00501920 0.00838857 0.01878559
v -0.00449199 0.00884589 0.01881972
v -0.00343521 0.00896995 0.01874343
v -0.00290741 0.00896995 0.01871532
v -0.00185063 0.00896995 0.01870930
v -0.00132165 0.00884589 0.01871653
v -0.00132165 0.00838857 0.01873219
v -0.00546612 0.00838857 0.02266237
v -0.00590359 0.00840855 0.01922848
v -0.00554936 0.00847314 0.01895745
v -0.00494717 0.00885630 0.01896146
v -0.00395829 0.00896995 0.01880647
v -0.00087179 0.00896995 0.02280090
v 0.00001083 0.00893211 0.01893295
v -0.00086588 0.00838857 0.01892211
v -0.00588942 0.00844804 0.02244635
v -0.00601517 0.00846045 0.02204803
v -0.00482556 0.00838857 0.02278725
v -0.00436801 0.00896995 0.02276275
v -0.00490467 0.00896995 0.02257323
v -0.00602048 0.00846045 0.02096390
v -0.00525594 0.00896995 0.02096390
v -0.00519868 0.00896995 0.02049571
v -0.00507647 0.00895379 0.01946458
v -0.00132165 0.00896995 0.02281134
v -0.00165522 0.00838857 0.02279247
v -0.00121893 0.00838857 0.02274067
v 0.00001083 0.00891998 0.02255355
v 0.00001083 0.00877771 0.01927988
v -0.00068995 0.00838857 0.01937905
v -0.00525240 0.00896995 0.02202514
v -0.00525653 0.00896995 0.02149793
v -0.00429658 0.00838857 0.02279046
v -0.00396360 0.00896995 0.02279046
v -0.00218361 0.00838857 0.02279247
v -0.00086588 0.00838857 0.02254432
v 0.00001083 0.00874818 0.02202153
v 0.00001083 0.00874232 0.01990747
v -0.00068345 0.00838857 0.01990747
v -0.00072183 0.00838857 0.02213436
v -0.00068463 0.00838857 0.02160996
v 0.00001083 0.00874232 0.02149271
f 1 2 3
f 1 3 4
f 1 4 11
f 1 11 5
f 1 5 2
f 2 6 3
f 2 5 13
f 2 13 21
f 2 21 36
f 2 36 45
f 2 45 47
f 2 47 46
f 2 46 42
f 2 42 33
f 2 33 32
f 2 32 41
f 2 41 39
f 2 39 24
f 2 24 14
f 2 14 7
f 2 7 6
f 3 6 7
f 3 7 8
f 3 8 9
f 3 9 10
f 3 10 4
f 4 10 9
f 4 9 18
f 4 18 29
f 4 29 28
f 4 28 38
f 4 38 37
f 4 37 26
f 4 26 25
f 4 25 40
f 4 40 31
f 4 31 19
f 4 19 11
f 5 11 12
f 5 12 13
f 7 14 15
f 7 15 16
f 7 16 8
f 8 17 18
f 8 18 9
f 8 16 17
f 11 19 20
f 11 20 12
f 12 20 13
f 13 20 21
f 14 22 23
f 14 23 15
f 14 24 25
f 14 25 26
f 14 26 22
f 15 23 27
f 15 27 28
f 15 28 29
f 15 29 30
f 15 30 17
f 15 17 16
f 17 30 18
f 18 30 29
f 19 31 32
f 19 32 33
f 19 33 34
f 19 34 20
f 20 34 43
f 20 43 48
f 20 48 44
f 20 44 35
f 20 35 21
f 21 35 36
f 22 26 37
f 22 37 23
f 23 37 38
f 23 38 27
f 24 39 31
f 24 31 40
f 24 40 25
f 27 38 28
f 31 39 41
f 31 41 32
f 33 42 34
f 34 42 43
f 35 44 36
f 36 44 45
f 42 46 43
f 43 46 47
f 43 47 48
f 44 48 45
f 45 48 47

