# https://github.com/mikedh/trimesh
v -0.00453718 -0.00814644 0.01870930
v -0.00396359 -0.00871995 0.01871270
v -0.00506555 -0.00814644 0.01871567
v -0.00185070 -0.00810117 0.01870930
v -0.00343522 -0.00871995 0.01870930
v -0.00449196 -0.00871995 0.01875686
v -0.00240644 -0.00922101 0.01870930
v -0.00293481 -0.00922101 0.01872119
v -0.00559452 -0.00814644 0.01879848
v -0.00619906 -0.00811915 0.01912545
v -0.00136755 -0.00810117 0.01873775
v -0.00082073 -0.00922101 0.01872204
v -0.00134970 -0.00922101 0.01870930
v -0.00502033 -0.00810117 0.02278924
v -0.00346259 -0.00922101 0.01877767
v -0.00427895 -0.00919481 0.01898022
v -0.00492811 -0.00888504 0.01897513
v -0.00568853 -0.00851059 0.01905071
v -0.00634067 -0.00822109 0.02096414
v -0.00634067 -0.00822109 0.02202106
v -0.00618120 -0.00812551 0.02253021
v -0.00091415 -0.00810117 0.01894328
v -0.00026618 -0.00904562 0.01888213
v -0.00044944 -0.00918845 0.02285038
v -0.00123307 -0.00922101 0.02304699
v -0.00449196 -0.00810117 0.02279051
v -0.00554930 -0.00814644 0.02275357
v -0.00460918 -0.00922101 0.01949361
v -0.00504116 -0.00922101 0.02096414
v -0.00488467 -0.00922101 0.02021847
v -0.00504116 -0.00922101 0.02154334
v -0.00496678 -0.00922101 0.02223211
v -0.00588548 -0.00850609 0.02240154
v -0.00449196 -0.00922101 0.02269284
v -0.00076480 -0.00810117 0.01937896
v -0.00026201 -0.00874813 0.01937896
v -0.00026201 -0.00886848 0.02249199
v -0.00089808 -0.00810117 0.02247670
v -0.00128425 -0.00810117 0.02275059
v -0.00180548 -0.00810117 0.02278881
v -0.00182392 -0.00922101 0.02300580
v -0.00396359 -0.00922101 0.02279051
v -0.00075944 -0.00810117 0.01990806
v -0.00026201 -0.00874188 0.01990806
v -0.00026201 -0.00874769 0.02201979
v -0.00076420 -0.00810117 0.02202106
v -0.00075944 -0.00810117 0.02149239
v -0.00026201 -0.00874188 0.02149239
f 1 2 3
f 1 3 4
f 1 4 13
f 1 13 7
f 1 7 5
f 1 5 2
f 2 6 3
f 2 5 7
f 2 7 8
f 2 8 6
f 3 9 10
f 3 10 4
f 3 6 9
f 4 11 12
f 4 12 13
f 4 10 14
f 4 14 26
f 4 26 40
f 4 40 39
f 4 39 38
f 4 38 46
f 4 46 47
f 4 47 43
f 4 43 35
f 4 35 22
f 4 22 11
f 6 8 15
f 6 15 16
f 6 16 17
f 6 17 9
f 7 13 12
f 7 12 25
f 7 25 41
f 7 41 42
f 7 42 34
f 7 34 32
f 7 32 31
f 7 31 29
f 7 29 30
f 7 30 28
f 7 28 15
f 7 15 8
f 9 17 18
f 9 18 10
f 10 18 19
f 10 19 20
f 10 20 21
f 10 21 14
f 11 22 23
f 11 23 12
f 12 23 24
f 12 24 25
f 14 21 27
f 14 27 25
f 14 25 26
f 15 28 16
f 16 28 17
f 17 28 18
f 18 29 19
f 18 28 30
f 18 30 29
f 19 29 31
f 19 31 20
f 20 31 32
f 20 32 33
f 20 33 21
f 21 33 34
f 21 34 27
f 22 35 36
f 22 36 23
f 23 36 37
f 23 37 24
f 24 37 38
f 24 38 39
f 24 39 25
f 25 39 40
f 25 40 26
f 25 27 41
f 27 34 42
f 27 42 41
f 32 34 33
f 35 43 36
f 36 44 48
f 36 48 45
f 36 45 37
f 36 43 44
f 37 45 46
f 37 46 38
f 43 47 48
f 43 48 44
f 45 48 47
f 45 47 46

