# https://github.com/mikedh/trimesh
v -0.00854242 -0.00282415 0.01870930
v -0.00854242 -0.00184881 0.01870930
v -0.00755070 -0.00282415 0.01870930
v -0.00854242 -0.00282415 0.02279070
v -0.00854242 -0.00149894 0.01871529
v -0.00755070 -0.00184881 0.01870930
v -0.00755070 -0.00282415 0.02279070
v -0.00854242 -0.00184881 0.02279070
v -0.00854242 -0.00132054 0.01872568
v -0.00755070 -0.00132054 0.01873687
v -0.00755070 -0.00184881 0.02279070
v -0.00755070 -0.00173558 0.02278990
v -0.00854242 -0.00132054 0.02278151
v -0.00854242 -0.00095098 0.01884074
v -0.00755070 -0.00085463 0.01893143
v -0.00755070 -0.00132054 0.02277592
v -0.00755070 -0.00118588 0.02272877
v -0.00854242 -0.00082172 0.02256098
v -0.00854242 -0.00082194 0.01890586
v -0.00755070 -0.00064354 0.01937888
v -0.00755070 -0.00084965 0.02253541
v -0.00854242 -0.00061951 0.02202124
v -0.00755070 -0.00074378 0.02231808
v -0.00854242 -0.00062276 0.01936969
v -0.00854242 -0.00061951 0.01937888
v -0.00755070 -0.00063272 0.01990743
v -0.00755070 -0.00063748 0.02202124
v -0.00854242 -0.00061929 0.02201046
v -0.00854242 -0.00061237 0.01990743
v -0.00755070 -0.00063272 0.02149269
v -0.00755070 -0.00063510 0.02180391
v -0.00854242 -0.00061237 0.02149269
f 1 2 6
f 1 6 3
f 1 3 7
f 1 7 4
f 1 4 8
f 1 8 13
f 1 13 18
f 1 18 22
f 1 22 28
f 1 28 32
f 1 32 29
f 1 29 25
f 1 25 24
f 1 24 19
f 1 19 14
f 1 14 9
f 1 9 5
f 1 5 2
f 2 5 6
f 3 6 10
f 3 10 15
f 3 15 20
f 3 20 26
f 3 26 30
f 3 30 31
f 3 31 27
f 3 27 23
f 3 23 21
f 3 21 17
f 3 17 16
f 3 16 12
f 3 12 11
f 3 11 7
f 4 7 11
f 4 11 8
f 5 9 10
f 5 10 6
f 8 12 13
f 8 11 12
f 9 14 10
f 10 14 15
f 12 16 13
f 13 16 17
f 13 17 18
f 14 19 15
f 15 19 20
f 17 21 18
f 18 21 23
f 18 23 22
f 19 24 20
f 20 24 25
f 20 25 26
f 22 23 27
f 22 27 28
f 25 29 26
f 26 29 32
f 26 32 30
f 27 31 32
f 27 32 28
f 30 32 31

