# https://github.com/mikedh/trimesh
v -0.00026428 -0.01074759 0.02012914
v -0.00002350 -0.01074759 0.02012914
v -0.00396381 -0.01241208 0.02020932
v -0.00396381 -0.01074759 0.02020795
v -0.00002350 -0.01074759 0.02361386
v -0.00002350 -0.01136271 0.02023491
v -0.00237863 -0.01241208 0.02021205
v -0.00290687 -0.01241208 0.02020932
v -0.00449252 -0.01241208 0.02039901
v -0.00449252 -0.01074759 0.02039901
v -0.00002350 -0.01241208 0.02361386
v -0.00350184 -0.01074759 0.02361386
v -0.00002350 -0.01156346 0.02034681
v -0.00184993 -0.01241208 0.02028403
v -0.00477343 -0.01241208 0.02064465
v -0.00453871 -0.01074759 0.02043927
v -0.00450978 -0.01241208 0.02361386
v -0.00002350 -0.01241208 0.02191585
v -0.00477343 -0.01074759 0.02234573
v -0.00351630 -0.01076242 0.02361386
v -0.00002350 -0.01180250 0.02048055
v -0.00134782 -0.01241208 0.02046724
v -0.00477390 -0.01241208 0.02064909
v -0.00477343 -0.01074759 0.02064465
v -0.00432452 -0.01195681 0.02361386
v -0.00477343 -0.01241208 0.02234675
v -0.00132076 -0.01241208 0.02047714
v -0.00089612 -0.01224848 0.02054981
v -0.00478790 -0.01074759 0.02207450
v -0.00419573 -0.01169609 0.02361386
v -0.00419387 -0.01169251 0.02361386
v -0.00398574 -0.01136271 0.02361386
v -0.00375522 -0.01103030 0.02361386
v -0.00352284 -0.01076959 0.02361386
v -0.00479070 -0.01241208 0.02096467
v -0.00479070 -0.01074759 0.02096467
v -0.00479070 -0.01241208 0.02202127
v -0.00479070 -0.01074759 0.02202127
f 1 2 8
f 1 8 3
f 1 3 4
f 1 4 10
f 1 10 16
f 1 16 24
f 1 24 36
f 1 36 38
f 1 38 29
f 1 29 19
f 1 19 12
f 1 12 5
f 1 5 2
f 2 5 11
f 2 11 18
f 2 18 21
f 2 21 13
f 2 13 6
f 2 6 7
f 2 7 8
f 3 9 4
f 3 8 7
f 3 7 14
f 3 14 22
f 3 22 27
f 3 27 18
f 3 18 11
f 3 11 17
f 3 17 26
f 3 26 37
f 3 37 35
f 3 35 23
f 3 23 15
f 3 15 9
f 4 9 10
f 5 12 20
f 5 20 34
f 5 34 33
f 5 33 32
f 5 32 31
f 5 31 30
f 5 30 25
f 5 25 17
f 5 17 11
f 6 13 14
f 6 14 7
f 9 15 16
f 9 16 10
f 12 19 20
f 13 21 14
f 14 21 22
f 15 23 24
f 15 24 16
f 17 25 19
f 17 19 26
f 18 27 28
f 18 28 21
f 19 29 26
f 19 25 30
f 19 30 31
f 19 31 32
f 19 32 33
f 19 33 34
f 19 34 20
f 21 28 27
f 21 27 22
f 23 35 36
f 23 36 24
f 26 29 37
f 29 38 37
f 35 37 38
f 35 38 36

