# https://github.com/mikedh/trimesh
v -0.00026405 -0.00999834 0.01885640
v -0.00026405 -0.01016048 0.01894216
v -0.00048767 -0.00999834 0.01886070
v 0.00026393 -0.00999834 0.01885640
v -0.00026405 -0.01042699 0.01985650
v -0.00079262 -0.01014722 0.01895215
v 0.00026393 -0.01016048 0.01894216
v -0.00079262 -0.00999834 0.01887069
v 0.00079250 -0.00999834 0.01887069
v -0.00079262 -0.01041029 0.01985650
v 0.00026393 -0.01042699 0.01985650
v -0.00100489 -0.00999834 0.01888146
v -0.00132120 -0.01037672 0.01985650
v -0.00132120 -0.01012058 0.01897907
v -0.00132120 -0.00999834 0.01890692
v 0.00079250 -0.01014722 0.01895215
v 0.00132108 -0.00999834 0.01890692
v 0.00077457 -0.01041113 0.01985650
v -0.00182227 -0.01034034 0.01985650
v -0.00184977 -0.01007991 0.01903967
v -0.00200045 -0.00999834 0.01900932
v -0.00150895 -0.00999834 0.01892845
v 0.00079250 -0.01041029 0.01985650
v 0.00132108 -0.01012058 0.01897907
v 0.00172947 -0.01035482 0.01985650
v 0.00184965 -0.00999834 0.01898504
v -0.00234367 -0.01023686 0.01985650
v -0.00215472 -0.01005108 0.01909235
v -0.00219717 -0.00999834 0.01905886
v 0.00184965 -0.01007991 0.01903967
v 0.00215460 -0.01005108 0.01909235
v 0.00182275 -0.01034034 0.01985650
v 0.00219765 -0.00999834 0.01905886
v -0.00290692 -0.01006053 0.01985650
v -0.00305760 -0.00999834 0.01985650
v 0.00235371 -0.01023430 0.01985650
v 0.00234355 -0.01023686 0.01985650
v 0.00233099 -0.01023937 0.01985650
v 0.00305091 -0.00999834 0.01985650
v 0.00290680 -0.01006053 0.01985650
v 0.00271068 -0.01013501 0.01985650
f 1 2 3
f 1 3 8
f 1 8 12
f 1 12 15
f 1 15 22
f 1 22 21
f 1 21 29
f 1 29 35
f 1 35 39
f 1 39 33
f 1 33 26
f 1 26 17
f 1 17 9
f 1 9 4
f 1 4 7
f 1 7 2
f 2 5 6
f 2 6 3
f 2 7 11
f 2 11 5
f 3 6 8
f 4 9 7
f 5 10 6
f 5 11 18
f 5 18 23
f 5 23 25
f 5 25 32
f 5 32 38
f 5 38 37
f 5 37 36
f 5 36 41
f 5 41 40
f 5 40 39
f 5 39 35
f 5 35 34
f 5 34 27
f 5 27 19
f 5 19 13
f 5 13 10
f 6 12 8
f 6 10 13
f 6 13 14
f 6 14 15
f 6 15 12
f 7 9 16
f 7 16 11
f 9 17 16
f 11 16 18
f 13 19 14
f 14 19 20
f 14 20 21
f 14 21 22
f 14 22 15
f 16 23 18
f 16 17 24
f 16 24 25
f 16 25 23
f 17 26 24
f 19 27 28
f 19 28 20
f 20 28 29
f 20 29 21
f 24 26 30
f 24 30 25
f 25 30 31
f 25 31 32
f 26 33 30
f 27 34 28
f 28 34 35
f 28 35 29
f 30 33 31
f 31 36 37
f 31 37 38
f 31 38 32
f 31 33 39
f 31 39 40
f 31 40 41
f 31 41 36

