# https://github.com/mikedh/trimesh
v 0.00185053 -0.00922101 0.01870930
v 0.00185053 -0.00810117 0.01870930
v 0.00237916 -0.00922101 0.01870930
v 0.00132190 -0.00922101 0.01871058
v 0.00132190 -0.00871995 0.01871865
v 0.00079262 -0.00922101 0.01873055
v 0.00128506 -0.00810117 0.01875774
v 0.00633095 -0.00810117 0.01937893
v 0.00610735 -0.00811915 0.01897613
v 0.00502036 -0.00814644 0.01871567
v 0.00449173 -0.00814644 0.01870930
v 0.00290714 -0.00922101 0.01872120
v 0.00343512 -0.00871995 0.01870930
v 0.00396375 -0.00871995 0.01871270
v -0.00012763 -0.00918834 0.02279843
v -0.00026140 -0.00904562 0.01888308
v 0.00136972 -0.00922101 0.02304997
v 0.00089861 -0.00810117 0.01898038
v 0.00511084 -0.00810117 0.02278909
v 0.00630768 -0.00817330 0.02223036
v 0.00634064 -0.00822109 0.02096419
v 0.00503781 -0.00922101 0.02094124
v 0.00495832 -0.00922101 0.02043223
v 0.00568793 -0.00851059 0.01905049
v 0.00492795 -0.00888504 0.01897528
v 0.00554964 -0.00814644 0.01879513
v 0.00449173 -0.00871995 0.01875689
v 0.00343512 -0.00922101 0.01877771
v -0.00026140 -0.00886848 0.02249209
v 0.00132190 -0.00810117 0.02277209
v -0.00026140 -0.00874813 0.01937893
v 0.00185053 -0.00810117 0.02279036
v 0.00399089 -0.00922101 0.02278994
v 0.00559423 -0.00814644 0.02275297
v 0.00458221 -0.00810117 0.02279036
v 0.00076484 -0.00810117 0.01942439
v 0.00588504 -0.00850609 0.02240159
v 0.00504169 -0.00922101 0.02146726
v 0.00441677 -0.00919481 0.01914056
v -0.00026140 -0.00874769 0.02201961
v 0.00091347 -0.00810117 0.02251971
v -0.00026140 -0.00874188 0.01990791
v 0.00450789 -0.00922101 0.02268711
v 0.00076031 -0.00810117 0.01990791
v 0.00497319 -0.00922101 0.02222016
v 0.00076484 -0.00810117 0.02202089
v -0.00026140 -0.00874188 0.02149232
v 0.00076031 -0.00810117 0.02153779
f 1 2 11
f 1 11 13
f 1 13 3
f 1 3 12
f 1 12 28
f 1 28 23
f 1 23 22
f 1 22 38
f 1 38 45
f 1 45 43
f 1 43 33
f 1 33 17
f 1 17 6
f 1 6 4
f 1 4 2
f 2 4 5
f 2 5 6
f 2 6 7
f 2 7 18
f 2 18 36
f 2 36 44
f 2 44 48
f 2 48 46
f 2 46 41
f 2 41 30
f 2 30 32
f 2 32 35
f 2 35 19
f 2 19 8
f 2 8 9
f 2 9 10
f 2 10 11
f 3 13 14
f 3 14 12
f 4 6 5
f 6 15 16
f 6 16 7
f 6 17 15
f 7 16 18
f 8 19 20
f 8 20 21
f 8 21 22
f 8 22 23
f 8 23 24
f 8 24 9
f 9 24 25
f 9 25 26
f 9 26 10
f 10 26 27
f 10 27 14
f 10 14 11
f 11 14 13
f 12 14 27
f 12 27 28
f 15 29 16
f 15 17 30
f 15 30 29
f 16 29 40
f 16 40 47
f 16 47 42
f 16 42 31
f 16 31 18
f 17 32 30
f 17 33 34
f 17 34 19
f 17 19 35
f 17 35 32
f 18 31 36
f 19 34 20
f 20 34 37
f 20 37 21
f 21 37 38
f 21 38 22
f 23 28 39
f 23 39 24
f 24 39 25
f 25 39 28
f 25 28 27
f 25 27 26
f 29 30 41
f 29 41 40
f 31 42 36
f 33 43 34
f 34 43 37
f 36 42 44
f 37 43 45
f 37 45 38
f 40 41 46
f 40 46 47
f 42 47 48
f 42 48 44
f 46 48 47

