# https://github.com/mikedh/trimesh
v 0.00477813 0.01419379 0.02175133
v 0.00175551 0.01419379 0.02175133
v 0.00476939 0.01438480 0.02175133
v 0.00476939 0.01438448 0.02202197
v 0.00476939 0.01438360 0.02255048
v 0.00476869 0.01437978 0.02572111
v 0.00477533 0.01419379 0.02572111
v 0.00120540 0.01500814 0.02193996
v 0.00160723 0.01500814 0.02175133
v 0.00120540 0.01419379 0.02204384
v 0.00473966 0.01464868 0.02202197
v 0.00473966 0.01464892 0.02175133
v 0.00473931 0.01464429 0.02466408
v 0.00473896 0.01464373 0.02519260
v 0.00473441 0.01464397 0.02572111
v 0.00476484 0.01434398 0.02599904
v 0.00476694 0.01419379 0.02600268
v 0.00120540 0.01500814 0.02640590
v 0.00467216 0.01500814 0.02175133
v 0.00120540 0.01419379 0.02640590
v 0.00467216 0.01500814 0.02360751
v 0.00467182 0.01500814 0.02473470
v 0.00469979 0.01486121 0.02175133
v 0.00467147 0.01500814 0.02519260
v 0.00467077 0.01500814 0.02526322
v 0.00466272 0.01500814 0.02572111
v 0.00444555 0.01500814 0.02613572
v 0.00453438 0.01452654 0.02611567
v 0.00464314 0.01419379 0.02607057
v 0.00284838 0.01500814 0.02640590
v 0.00302779 0.01419379 0.02640590
v 0.00396398 0.01500814 0.02629063
v 0.00450745 0.01419379 0.02614347
v 0.00302184 0.01453595 0.02640590
v 0.00289559 0.01500814 0.02640544
v 0.00303723 0.01419435 0.02640590
v 0.00396398 0.01419379 0.02629063
v 0.00302219 0.01453372 0.02640590
f 1 2 9
f 1 9 19
f 1 19 23
f 1 23 12
f 1 12 3
f 1 3 4
f 1 4 5
f 1 5 6
f 1 6 7
f 1 7 17
f 1 17 29
f 1 29 33
f 1 33 37
f 1 37 31
f 1 31 20
f 1 20 10
f 1 10 2
f 2 8 9
f 2 10 8
f 3 11 4
f 3 12 11
f 4 11 5
f 5 11 13
f 5 13 6
f 6 13 14
f 6 14 15
f 6 15 16
f 6 16 7
f 7 16 17
f 8 18 30
f 8 30 35
f 8 35 32
f 8 32 27
f 8 27 26
f 8 26 25
f 8 25 24
f 8 24 22
f 8 22 21
f 8 21 19
f 8 19 9
f 8 10 20
f 8 20 18
f 11 12 21
f 11 21 22
f 11 22 13
f 12 23 21
f 13 22 24
f 13 24 14
f 14 24 15
f 15 25 26
f 15 26 16
f 15 24 25
f 16 27 28
f 16 28 29
f 16 29 17
f 16 26 27
f 18 20 31
f 18 31 36
f 18 36 38
f 18 38 34
f 18 34 30
f 19 21 23
f 27 32 33
f 27 33 28
f 28 33 29
f 30 34 35
f 31 37 36
f 32 35 34
f 32 34 38
f 32 38 36
f 32 36 37
f 32 37 33

