# https://github.com/mikedh/trimesh
v -0.00867283 -0.00282415 0.01870930
v -0.00980402 -0.00282415 0.01917193
v -0.00927020 -0.00260064 0.01872328
v -0.00924974 -0.00132058 0.01870930
v -0.00854252 -0.00162910 0.01871489
v -0.00863191 -0.00282415 0.02279070
v -0.01006968 -0.00253413 0.02088503
v -0.01006483 -0.00199863 0.01906926
v -0.00999267 -0.00282415 0.02131571
v -0.00977782 -0.00184856 0.01883954
v -0.00996342 -0.00079230 0.01885033
v -0.00996970 -0.00006712 0.01884114
v -0.00924974 -0.00079230 0.01872169
v -0.00903560 0.00012979 0.01887789
v -0.00854252 -0.00088657 0.01887350
v -0.00854252 -0.00184856 0.02279070
v -0.00924974 -0.00132058 0.02279070
v -0.00924974 -0.00260064 0.02278950
v -0.00979792 -0.00260064 0.02255419
v -0.01021992 -0.00184856 0.02096414
v -0.01005137 -0.00259023 0.02209915
v -0.01021992 -0.00184856 0.02202124
v -0.00994959 -0.00132058 0.01887789
v -0.01020053 -0.00132058 0.01937888
v -0.01025546 -0.00079230 0.01937888
v -0.01028077 -0.00006712 0.01937888
v -0.01037608 -0.00006712 0.02121143
v -0.00911781 0.00012979 0.02263849
v -0.00874481 0.00012979 0.01967731
v -0.00854252 -0.00062142 0.01937449
v -0.00854252 -0.00082209 0.02256098
v -0.00863191 -0.00132058 0.02278391
v -0.00977782 -0.00006712 0.02278511
v -0.00977782 -0.00079230 0.02278351
v -0.00995444 -0.00184856 0.02261611
v -0.01030087 -0.00132058 0.02096414
v -0.01019784 -0.00079230 0.02253102
v -0.01030087 -0.00132058 0.02202124
v -0.01035059 -0.00079230 0.02096414
v -0.01035346 -0.00079230 0.02149229
v -0.01035346 -0.00079230 0.02202124
v -0.01030051 -0.00006712 0.02226055
v -0.00876348 0.00012979 0.02208157
v -0.00854252 -0.00061274 0.01990504
v -0.00874302 0.00012979 0.02156021
v -0.00854252 -0.00061968 0.02202124
v -0.00997472 -0.00132058 0.02265007
v -0.00854252 -0.00061274 0.02149229
f 1 2 3
f 1 3 4
f 1 4 5
f 1 5 6
f 1 6 9
f 1 9 2
f 2 7 8
f 2 8 3
f 2 9 7
f 3 10 11
f 3 11 12
f 3 12 4
f 3 8 10
f 4 13 5
f 4 12 13
f 5 13 14
f 5 14 15
f 5 15 30
f 5 30 44
f 5 44 48
f 5 48 46
f 5 46 31
f 5 31 16
f 5 16 6
f 6 16 17
f 6 17 18
f 6 18 19
f 6 19 9
f 7 20 8
f 7 9 21
f 7 21 22
f 7 22 20
f 8 11 23
f 8 23 10
f 8 20 24
f 8 24 25
f 8 25 26
f 8 26 11
f 9 19 21
f 10 23 11
f 11 26 12
f 12 14 13
f 12 26 14
f 14 26 27
f 14 27 28
f 14 28 43
f 14 43 45
f 14 45 29
f 14 29 15
f 15 29 30
f 16 31 32
f 16 32 33
f 16 33 17
f 17 33 18
f 18 33 34
f 18 34 35
f 18 35 19
f 19 35 21
f 20 36 24
f 20 22 38
f 20 38 36
f 21 37 22
f 21 35 37
f 22 37 38
f 24 36 25
f 25 36 39
f 25 39 26
f 26 39 27
f 27 39 40
f 27 40 41
f 27 41 42
f 27 42 28
f 28 42 33
f 28 33 32
f 28 32 31
f 28 31 43
f 29 44 30
f 29 45 44
f 31 46 43
f 33 42 37
f 33 37 34
f 34 47 35
f 34 37 47
f 35 47 37
f 36 38 41
f 36 41 40
f 36 40 39
f 37 42 41
f 37 41 38
f 43 46 45
f 44 45 48
f 45 46 48

