# https://github.com/mikedh/trimesh
v -0.00357626 -0.00999822 0.02281272
v -0.00262766 -0.00999822 0.02360714
v -0.00342729 -0.00978460 0.02281272
v 0.00360215 -0.00999822 0.02281272
v -0.00210980 -0.00999822 0.02360831
v -0.00237892 -0.00985383 0.02360831
v -0.00277170 -0.00938369 0.02281272
v 0.00346303 -0.00977738 0.02281272
v 0.00262756 -0.00999822 0.02360714
v 0.00208440 -0.00999822 0.02360831
v -0.00248642 -0.00922112 0.02281272
v -0.00188986 -0.00960910 0.02360831
v 0.00288825 -0.00929620 0.02281272
v 0.00237671 -0.00985292 0.02360831
v -0.00162496 -0.00949582 0.02360831
v -0.00237821 -0.00922112 0.02284769
v 0.00266621 -0.00922112 0.02281272
v 0.00162556 -0.00949605 0.02360831
v 0.00188906 -0.00960849 0.02360831
v -0.00130173 -0.00922112 0.02305253
v -0.00182311 -0.00922112 0.02300658
v 0.00139017 -0.00949575 0.02360831
v 0.00203030 -0.00922112 0.02297511
v 0.00182301 -0.00922112 0.02300658
v 0.00143584 -0.00922112 0.02304801
v 0.00130163 -0.00922112 0.02305253
f 1 2 3
f 1 3 7
f 1 7 11
f 1 11 17
f 1 17 13
f 1 13 8
f 1 8 4
f 1 4 9
f 1 9 10
f 1 10 5
f 1 5 2
f 2 5 6
f 2 6 7
f 2 7 3
f 4 8 9
f 5 10 14
f 5 14 19
f 5 19 18
f 5 18 22
f 5 22 15
f 5 15 12
f 5 12 6
f 6 11 7
f 6 12 11
f 8 13 9
f 9 14 10
f 9 13 14
f 11 12 15
f 11 15 16
f 11 16 21
f 11 21 20
f 11 20 26
f 11 26 25
f 11 25 24
f 11 24 23
f 11 23 17
f 13 17 18
f 13 18 19
f 13 19 14
f 15 20 21
f 15 21 16
f 15 22 20
f 17 23 18
f 18 23 24
f 18 24 25
f 18 25 26
f 18 26 22
f 20 22 26

