# https://github.com/mikedh/trimesh
v 0.00479070 -0.01242300 0.02198668
v 0.00479070 -0.01294462 0.02198668
v 0.00479070 -0.01242300 0.02162491
v -0.00002350 -0.01242300 0.02198668
v 0.00479070 -0.01294462 0.02162491
v 0.00098354 -0.01294462 0.02198668
v 0.00093171 -0.01242300 0.02162491
v -0.00002350 -0.01242300 0.02192053
v -0.00002350 -0.01258389 0.02198668
v 0.00161312 -0.01294462 0.02162491
f 1 2 5
f 1 5 3
f 1 3 7
f 1 7 8
f 1 8 4
f 1 4 9
f 1 9 6
f 1 6 2
f 2 6 10
f 2 10 5
f 3 5 10
f 3 10 7
f 4 8 9
f 6 9 10
f 7 10 8
f 8 10 9

