# https://github.com/mikedh/trimesh
v 0.00000471 -0.01242003 0.03009070
v -0.00013011 -0.01195625 0.03008778
v -0.00079306 -0.01242003 0.03009070
v -0.00184958 -0.01403378 0.03009070
v -0.00132174 -0.01403378 0.03005897
v 0.00000471 -0.01298498 0.02988964
v 0.00000471 -0.01317660 0.02678309
v -0.00013123 -0.01122525 0.02678309
v -0.00013011 -0.01125988 0.02947781
v -0.00013011 -0.01148834 0.02990939
v -0.00079306 -0.01189137 0.03006415
v -0.00132174 -0.01242003 0.03008714
v -0.00132174 -0.01294814 0.03009070
v -0.00184958 -0.01347653 0.03009070
v -0.00237799 -0.01401921 0.03001040
v -0.00270904 -0.01401921 0.02980805
v -0.00277575 -0.01401921 0.02942115
v -0.00284693 -0.01401921 0.02678309
v -0.00078468 -0.01403378 0.02678309
v -0.00092314 -0.01403378 0.02985629
v 0.00000471 -0.01314773 0.02948720
v 0.00000471 -0.01317660 0.02889211
v -0.00079306 -0.01132999 0.02678309
v -0.00079306 -0.01134016 0.02942115
v -0.00079306 -0.01148367 0.02986147
v -0.00134826 -0.01185453 0.02990712
v -0.00184958 -0.01294814 0.03008293
v -0.00189815 -0.01237247 0.02991975
v -0.00237799 -0.01347653 0.02996799
v -0.00266884 -0.01333000 0.02973779
v -0.00272663 -0.01347653 0.02942115
v -0.00280227 -0.01347515 0.02678309
v -0.00078468 -0.01403378 0.02890959
v -0.00078943 -0.01403378 0.02942115
v -0.00185852 -0.01188614 0.02678309
v -0.00145210 -0.01159446 0.02684881
v -0.00125586 -0.01152353 0.02942115
v -0.00118971 -0.01155789 0.02978895
v -0.00175412 -0.01200628 0.02981582
v -0.00239390 -0.01298361 0.02985597
v -0.00222809 -0.01251707 0.02981032
v -0.00260436 -0.01303666 0.02942115
v -0.00269983 -0.01313178 0.02678309
v -0.00227191 -0.01234993 0.02678309
v -0.00210276 -0.01216903 0.02942115
v -0.00183842 -0.01193150 0.02942115
v -0.00151965 -0.01166731 0.02942115
v -0.00228531 -0.01243350 0.02942115
f 1 2 3
f 1 3 13
f 1 13 14
f 1 14 4
f 1 4 5
f 1 5 6
f 1 6 21
f 1 21 22
f 1 22 7
f 1 7 8
f 1 8 9
f 1 9 10
f 1 10 2
f 2 11 12
f 2 12 3
f 2 10 11
f 3 12 13
f 4 14 15
f 4 15 16
f 4 16 17
f 4 17 18
f 4 18 19
f 4 19 33
f 4 33 34
f 4 34 20
f 4 20 5
f 5 20 6
f 6 20 21
f 7 22 33
f 7 33 19
f 7 19 18
f 7 18 32
f 7 32 43
f 7 43 44
f 7 44 35
f 7 35 23
f 7 23 8
f 8 23 24
f 8 24 9
f 9 24 25
f 9 25 10
f 10 25 11
f 11 25 26
f 11 26 12
f 12 27 14
f 12 14 13
f 12 26 28
f 12 28 27
f 14 27 15
f 15 27 29
f 15 29 16
f 16 29 30
f 16 30 17
f 17 30 31
f 17 31 32
f 17 32 18
f 20 34 21
f 21 34 22
f 22 34 33
f 23 35 36
f 23 36 37
f 23 37 24
f 24 37 38
f 24 38 25
f 25 38 26
f 26 38 39
f 26 39 28
f 27 28 40
f 27 40 29
f 28 39 41
f 28 41 40
f 29 40 30
f 30 40 41
f 30 41 42
f 30 42 31
f 31 42 32
f 32 42 43
f 35 44 45
f 35 45 46
f 35 46 47
f 35 47 36
f 36 47 37
f 37 47 38
f 38 47 39
f 39 47 46
f 39 46 45
f 39 45 41
f 41 45 48
f 41 48 42
f 42 48 43
f 43 48 44
f 44 48 45

