# https://github.com/mikedh/trimesh
v -0.00251758 0.01281456 0.02680906
v -0.00220611 0.01225232 0.02680906
v -0.00249984 0.01281456 0.02942069
v 0.00251724 0.01281456 0.02680906
v -0.00219477 0.01230161 0.02942069
v -0.00185077 0.01188428 0.02680906
v -0.00183895 0.01193264 0.02942069
v -0.00228102 0.01266607 0.02982475
v -0.00186063 0.01281456 0.03004413
v 0.00248767 0.01281456 0.02946598
v 0.00219492 0.01230161 0.02942069
v 0.00219098 0.01226803 0.02691152
v 0.00183614 0.01187418 0.02680906
v -0.00175418 0.01200774 0.02981608
v -0.00143876 0.01157829 0.02680906
v -0.00138800 0.01159663 0.02942069
v -0.00189858 0.01237360 0.02991950
v -0.00132098 0.01242149 0.03008717
v -0.00132098 0.01281456 0.03008941
v 0.00178735 0.01281456 0.03006404
v 0.00226195 0.01266607 0.02983342
v 0.00175482 0.01200774 0.02981608
v 0.00183959 0.01193264 0.02942069
v 0.00138864 0.01159663 0.02942069
v 0.00145912 0.01160083 0.02686334
v 0.00079280 0.01133184 0.02680906
v -0.00126873 0.01170796 0.02984788
v -0.00079216 0.01133184 0.02680906
v -0.00079216 0.01134101 0.02942069
v -0.00079216 0.01148499 0.02986137
v -0.00079216 0.01189330 0.03006404
v -0.00026384 0.01189330 0.03008749
v -0.00079216 0.01242149 0.03009038
v 0.00125311 0.01281456 0.03008974
v 0.00132112 0.01242149 0.03008717
v 0.00189823 0.01237360 0.02991950
v 0.00126888 0.01170796 0.02984788
v 0.00079280 0.01148499 0.02986137
v 0.00079280 0.01134101 0.02942069
v 0.00026399 0.01122611 0.02680906
v -0.00026384 0.01122611 0.02680906
v -0.00026384 0.01123668 0.02942069
v -0.00026384 0.01143337 0.02988481
v 0.00026399 0.01189330 0.03008749
v 0.00079280 0.01242149 0.03009038
v 0.00079280 0.01189330 0.03006404
v 0.00026399 0.01143337 0.02988481
v 0.00026399 0.01123668 0.02942069
f 1 2 3
f 1 3 9
f 1 9 19
f 1 19 34
f 1 34 20
f 1 20 10
f 1 10 4
f 1 4 13
f 1 13 26
f 1 26 40
f 1 40 41
f 1 41 28
f 1 28 15
f 1 15 6
f 1 6 2
f 2 5 3
f 2 6 7
f 2 7 5
f 3 8 9
f 3 5 8
f 4 10 11
f 4 11 12
f 4 12 13
f 5 7 14
f 5 14 8
f 6 15 16
f 6 16 7
f 7 16 14
f 8 14 17
f 8 17 9
f 9 17 18
f 9 18 19
f 10 20 21
f 10 21 11
f 11 21 22
f 11 22 23
f 11 23 13
f 11 13 12
f 13 23 24
f 13 24 25
f 13 25 26
f 14 16 27
f 14 27 17
f 15 28 29
f 15 29 16
f 16 29 30
f 16 30 27
f 17 27 31
f 17 31 18
f 18 31 32
f 18 32 33
f 18 33 19
f 19 33 34
f 20 35 36
f 20 36 21
f 20 34 35
f 21 36 22
f 22 24 23
f 22 36 37
f 22 37 24
f 24 37 38
f 24 38 39
f 24 39 25
f 25 39 26
f 26 39 40
f 27 30 31
f 28 41 29
f 29 41 42
f 29 42 30
f 30 42 43
f 30 43 31
f 31 43 32
f 32 43 47
f 32 47 44
f 32 44 45
f 32 45 33
f 33 45 34
f 34 45 35
f 35 45 44
f 35 44 46
f 35 46 36
f 36 46 37
f 37 46 38
f 38 46 47
f 38 47 48
f 38 48 39
f 39 48 40
f 40 48 42
f 40 42 41
f 42 48 47
f 42 47 43
f 44 47 46

