# https://github.com/mikedh/trimesh
v -0.00170001 0.01419371 0.02187693
v -0.00160850 0.01419371 0.02190995
v -0.00170001 0.01419371 0.02190995
v -0.00170001 0.01479952 0.02172226
v -0.00140595 0.01515083 0.02172226
v -0.00140595 0.01489977 0.02190995
v -0.00170001 0.01847165 0.02190995
v -0.00170001 0.01847207 0.02172226
v -0.00140595 0.01857019 0.02172226
v -0.00140595 0.01857061 0.02190995
v -0.00166622 0.01848621 0.02190995
v -0.00170001 0.01847207 0.02184246
v -0.00161049 0.01850978 0.02172226
v -0.00148030 0.01854833 0.02172226
v -0.00161043 0.01850978 0.02190995
f 1 2 3
f 1 3 7
f 1 7 12
f 1 12 8
f 1 8 4
f 1 4 5
f 1 5 2
f 2 6 10
f 2 10 15
f 2 15 11
f 2 11 7
f 2 7 3
f 2 5 6
f 4 8 13
f 4 13 14
f 4 14 9
f 4 9 5
f 5 9 10
f 5 10 6
f 7 11 12
f 8 12 13
f 9 14 10
f 10 14 13
f 10 13 15
f 11 15 12
f 12 15 13

