# https://github.com/mikedh/trimesh
v 0.00479070 -0.01242300 0.02162491
v 0.00479070 -0.01347679 0.02162491
v 0.00479070 -0.01242300 0.02096436
v 0.00093203 -0.01242300 0.02162491
v 0.00478994 -0.01357635 0.02162491
v 0.00479070 -0.01347679 0.02096436
v 0.00477370 -0.01242300 0.02064440
v 0.00102722 -0.01242300 0.02096436
v 0.00188244 -0.01384946 0.02096436
v 0.00180500 -0.01384946 0.02162491
v 0.00478768 -0.01384946 0.02162491
v 0.00478768 -0.01384946 0.02096436
v 0.00477219 -0.01384946 0.02064870
v 0.00477370 -0.01347679 0.02064440
v 0.00449228 -0.01242300 0.02039900
v 0.00109597 -0.01242300 0.02078269
v 0.00199841 -0.01384946 0.02047785
v 0.00196365 -0.01384946 0.02062140
v 0.00449228 -0.01384946 0.02040330
v 0.00449228 -0.01347679 0.02039900
v 0.00396381 -0.01242300 0.02020930
v 0.00134831 -0.01242300 0.02047313
v 0.00226585 -0.01384946 0.02030477
v 0.00396381 -0.01384946 0.02020930
v 0.00290688 -0.01242300 0.02020930
v 0.00185335 -0.01242300 0.02028468
v 0.00237880 -0.01384946 0.02023244
v 0.00290688 -0.01384946 0.02020930
v 0.00238182 -0.01242300 0.02021193
v 0.00237880 -0.01242300 0.02021207
v 0.00275125 -0.01384946 0.02021609
f 1 2 6
f 1 6 3
f 1 3 7
f 1 7 15
f 1 15 21
f 1 21 25
f 1 25 29
f 1 29 30
f 1 30 26
f 1 26 22
f 1 22 16
f 1 16 8
f 1 8 4
f 1 4 10
f 1 10 11
f 1 11 5
f 1 5 2
f 2 5 6
f 3 6 14
f 3 14 7
f 4 8 9
f 4 9 10
f 5 11 12
f 5 12 6
f 6 12 13
f 6 13 14
f 7 14 20
f 7 20 15
f 8 16 17
f 8 17 18
f 8 18 9
f 9 18 17
f 9 17 23
f 9 23 27
f 9 27 31
f 9 31 28
f 9 28 24
f 9 24 19
f 9 19 13
f 9 13 12
f 9 12 11
f 9 11 10
f 13 19 14
f 14 19 20
f 15 20 24
f 15 24 21
f 16 22 17
f 17 22 23
f 19 24 20
f 21 24 28
f 21 28 25
f 22 26 27
f 22 27 23
f 25 28 29
f 26 30 27
f 27 30 29
f 27 29 31
f 28 31 29

