# https://github.com/mikedh/trimesh
v 0.00026129 0.01281472 0.02360310
v 0.00026129 0.01281472 0.02208134
v -0.00037614 0.01281472 0.02360329
v 0.00026129 0.01082372 0.02360310
v 0.00026129 0.01213124 0.02167490
v -0.00138644 0.01281472 0.02171756
v -0.00037614 0.01082372 0.02360329
v -0.00462602 0.01281472 0.02360329
v 0.00026080 0.01082372 0.02167490
v 0.00026129 0.01082898 0.02167490
v -0.00037614 0.01213182 0.02167490
v -0.00479070 0.01281472 0.02171756
v -0.00357320 0.01082372 0.02360329
v -0.00477339 0.01281472 0.02237527
v -0.00477339 0.01082372 0.02234601
v -0.00451229 0.01241753 0.02360329
v -0.00037614 0.01082372 0.02167490
v -0.00479070 0.01082372 0.02171756
v -0.00479070 0.01281472 0.02202169
v -0.00375716 0.01103069 0.02360329
v -0.00479070 0.01082372 0.02202169
v -0.00398562 0.01136161 0.02360329
v -0.00419332 0.01169137 0.02360329
v -0.00432486 0.01195739 0.02360329
f 1 2 6
f 1 6 12
f 1 12 19
f 1 19 14
f 1 14 8
f 1 8 3
f 1 3 7
f 1 7 4
f 1 4 10
f 1 10 5
f 1 5 2
f 2 5 6
f 3 8 16
f 3 16 24
f 3 24 23
f 3 23 22
f 3 22 20
f 3 20 13
f 3 13 7
f 4 9 10
f 4 7 13
f 4 13 15
f 4 15 21
f 4 21 18
f 4 18 17
f 4 17 9
f 5 10 9
f 5 9 17
f 5 17 11
f 5 11 6
f 6 11 12
f 8 14 15
f 8 15 16
f 11 17 18
f 11 18 12
f 12 18 21
f 12 21 19
f 13 20 15
f 14 19 21
f 14 21 15
f 15 20 22
f 15 22 23
f 15 23 24
f 15 24 16

