# https://github.com/mikedh/trimesh
v -0.00008700 0.01317877 0.02677267
v -0.00073436 0.01419371 0.02677267
v -0.00008700 0.01281472 0.02677267
v -0.00008700 0.01317877 0.02307901
v -0.00283436 0.01419371 0.02677267
v -0.00073436 0.01419371 0.02307901
v -0.00252311 0.01281472 0.02677267
v -0.00008700 0.01281472 0.02208170
v -0.00008700 0.01316851 0.02255018
v -0.00074081 0.01419371 0.02255018
v -0.00285139 0.01400730 0.02677267
v -0.00450754 0.01419371 0.02614359
v -0.00449234 0.01400730 0.02615893
v -0.00270406 0.01312936 0.02677267
v -0.00441914 0.01281472 0.02613285
v -0.00153274 0.01281472 0.02154775
v -0.00183431 0.01419371 0.02154775
v -0.00008700 0.01298102 0.02214972
v -0.00088492 0.01419371 0.02215841
v -0.00285139 0.01399906 0.02677267
v -0.00476676 0.01419371 0.02600243
v -0.00476906 0.01400730 0.02600652
v -0.00476538 0.01366228 0.02599987
v -0.00453562 0.01348329 0.02611597
v -0.00443755 0.01295037 0.02613796
v -0.00280765 0.01347897 0.02677267
v -0.00280581 0.01347101 0.02677267
v -0.00461804 0.01281472 0.02572114
v -0.00479070 0.01281472 0.02154775
v -0.00477827 0.01419371 0.02154775
v -0.00477228 0.01419371 0.02587508
v -0.00478195 0.01400730 0.02572114
v -0.00476952 0.01362178 0.02572114
v -0.00473683 0.01335775 0.02572114
v -0.00465626 0.01295037 0.02572114
v -0.00479070 0.01281472 0.02202186
v -0.00479070 0.01347897 0.02154775
v -0.00478656 0.01400730 0.02154775
v -0.00477827 0.01419371 0.02228167
v -0.00477551 0.01419371 0.02572114
v -0.00478656 0.01400730 0.02202186
v -0.00479070 0.01347897 0.02202186
f 1 2 5
f 1 5 11
f 1 11 20
f 1 20 26
f 1 26 27
f 1 27 14
f 1 14 7
f 1 7 3
f 1 3 8
f 1 8 18
f 1 18 9
f 1 9 4
f 1 4 6
f 1 6 2
f 2 6 10
f 2 10 19
f 2 19 17
f 2 17 30
f 2 30 39
f 2 39 40
f 2 40 31
f 2 31 21
f 2 21 12
f 2 12 5
f 3 7 15
f 3 15 28
f 3 28 36
f 3 36 29
f 3 29 16
f 3 16 8
f 4 9 10
f 4 10 6
f 5 12 13
f 5 13 11
f 7 14 15
f 8 16 17
f 8 17 18
f 9 18 10
f 10 18 19
f 11 13 20
f 12 21 13
f 13 21 22
f 13 22 23
f 13 23 24
f 13 24 25
f 13 25 26
f 13 26 20
f 14 27 15
f 15 25 23
f 15 23 28
f 15 27 25
f 16 29 37
f 16 37 38
f 16 38 30
f 16 30 17
f 17 19 18
f 21 31 32
f 21 32 22
f 22 32 23
f 23 25 24
f 23 32 33
f 23 33 34
f 23 34 35
f 23 35 28
f 25 27 26
f 28 35 36
f 29 36 42
f 29 42 37
f 30 38 41
f 30 41 39
f 31 40 32
f 32 40 41
f 32 41 42
f 32 42 36
f 32 36 33
f 33 36 34
f 34 36 35
f 37 42 41
f 37 41 38
f 39 41 40

