# https://github.com/mikedh/trimesh
v 0.00284607 0.00825872 0.02279051
v 0.00184966 0.00825872 0.02279131
v 0.00284607 0.00729261 0.02279051
v 0.00284607 0.00825872 0.01870930
v 0.00132141 0.00825872 0.02277492
v 0.00147779 0.00729261 0.02278851
v 0.00184966 0.00729261 0.02279051
v 0.00284607 0.00729261 0.01870930
v 0.00184966 0.00825872 0.01870930
v 0.00090128 0.00825872 0.02252799
v 0.00077839 0.00729261 0.02256954
v 0.00087886 0.00729261 0.02262708
v 0.00132141 0.00729261 0.02278331
v 0.00184966 0.00729261 0.01870930
v 0.00178440 0.00825872 0.01871050
v 0.00074711 0.00825872 0.02202133
v 0.00033904 0.00729261 0.02202133
v 0.00132141 0.00729261 0.01872608
v 0.00132141 0.00825872 0.01873727
v 0.00074194 0.00825872 0.02149270
v 0.00033018 0.00729261 0.02149270
v 0.00033609 0.00729261 0.02188348
v 0.00078331 0.00729261 0.01890149
v 0.00125246 0.00825872 0.01875885
v 0.00074194 0.00825872 0.01990761
v 0.00033018 0.00729261 0.01990761
v 0.00035185 0.00729261 0.01937898
v 0.00090128 0.00825872 0.01893586
v 0.00074588 0.00825872 0.01947727
v 0.00074711 0.00825872 0.01937898
v 0.00086384 0.00825872 0.01902256
f 1 2 3
f 1 3 8
f 1 8 4
f 1 4 9
f 1 9 15
f 1 15 19
f 1 19 24
f 1 24 28
f 1 28 31
f 1 31 30
f 1 30 29
f 1 29 25
f 1 25 20
f 1 20 16
f 1 16 10
f 1 10 5
f 1 5 2
f 2 5 6
f 2 6 7
f 2 7 3
f 3 7 6
f 3 6 13
f 3 13 12
f 3 12 11
f 3 11 17
f 3 17 22
f 3 22 21
f 3 21 26
f 3 26 27
f 3 27 23
f 3 23 18
f 3 18 14
f 3 14 8
f 4 8 14
f 4 14 9
f 5 10 11
f 5 11 12
f 5 12 13
f 5 13 6
f 9 14 15
f 10 16 17
f 10 17 11
f 14 18 15
f 15 18 19
f 16 20 21
f 16 21 22
f 16 22 17
f 18 23 24
f 18 24 19
f 20 25 26
f 20 26 21
f 23 27 28
f 23 28 24
f 25 29 26
f 26 29 30
f 26 30 27
f 27 30 31
f 27 31 28

