# https://github.com/mikedh/trimesh
v 0.00161255 -0.00689604 0.01870930
v 0.00185075 -0.00810106 0.01870930
v 0.00108355 -0.00689604 0.01871969
v 0.00185075 -0.00689604 0.02279070
v 0.00652080 -0.00692588 0.02278870
v 0.00753822 -0.00694016 0.01919151
v 0.00660571 -0.00701529 0.01872768
v 0.00607746 -0.00701529 0.01870930
v 0.00128493 -0.00810106 0.01875764
v 0.00449198 -0.00810106 0.01870930
v 0.00000076 -0.00699689 0.01890666
v 0.00000076 -0.00697932 0.02257616
v 0.00132250 -0.00701529 0.02278790
v 0.00185075 -0.00810106 0.02279070
v 0.00554922 -0.00766286 0.02279070
v 0.00607746 -0.00766286 0.02278191
v 0.00732406 -0.00697755 0.02257776
v 0.00766145 -0.00698757 0.02207278
v 0.00767723 -0.00698746 0.02096414
v 0.00713997 -0.00739923 0.01937888
v 0.00677854 -0.00757286 0.01896619
v 0.00713621 -0.00701624 0.01886990
v 0.00607746 -0.00766286 0.01874845
v 0.00554922 -0.00766286 0.01870930
v 0.00089945 -0.00810106 0.01898017
v 0.00502022 -0.00810106 0.01871449
v 0.00000076 -0.00725321 0.01937888
v 0.00000076 -0.00726052 0.02169085
v 0.00076495 -0.00810106 0.02202124
v 0.00091373 -0.00810106 0.02251983
v 0.00132250 -0.00810106 0.02277232
v 0.00458215 -0.00810106 0.02279070
v 0.00511114 -0.00810106 0.02278950
v 0.00563864 -0.00810106 0.02275554
v 0.00681836 -0.00760837 0.02251344
v 0.00721060 -0.00746871 0.02202124
v 0.00746834 -0.00721133 0.02149229
v 0.00721060 -0.00746847 0.02096414
v 0.00671166 -0.00779143 0.01937888
v 0.00632468 -0.00804964 0.01918951
v 0.00554922 -0.00810106 0.01878681
v 0.00076495 -0.00810106 0.01942442
v 0.00000076 -0.00726182 0.01990783
v 0.00076044 -0.00810106 0.02153783
v 0.00633219 -0.00808243 0.02245751
v 0.00665004 -0.00797332 0.02202124
v 0.00665004 -0.00797332 0.02096414
v 0.00076044 -0.00810106 0.01990783
f 1 2 3
f 1 3 4
f 1 4 5
f 1 5 6
f 1 6 7
f 1 7 8
f 1 8 24
f 1 24 10
f 1 10 2
f 2 9 3
f 2 10 26
f 2 26 41
f 2 41 34
f 2 34 33
f 2 33 32
f 2 32 14
f 2 14 31
f 2 31 30
f 2 30 29
f 2 29 44
f 2 44 48
f 2 48 42
f 2 42 25
f 2 25 9
f 3 11 12
f 3 12 4
f 3 9 11
f 4 12 13
f 4 13 14
f 4 14 32
f 4 32 15
f 4 15 5
f 5 15 16
f 5 16 17
f 5 17 18
f 5 18 6
f 6 18 19
f 6 19 20
f 6 20 21
f 6 21 22
f 6 22 7
f 7 23 24
f 7 24 8
f 7 22 23
f 9 25 11
f 10 24 26
f 11 27 43
f 11 43 28
f 11 28 12
f 11 25 27
f 12 28 29
f 12 29 30
f 12 30 31
f 12 31 13
f 13 31 14
f 15 32 33
f 15 33 16
f 16 33 34
f 16 34 35
f 16 35 17
f 17 35 18
f 18 35 36
f 18 36 37
f 18 37 19
f 19 37 38
f 19 38 20
f 20 38 39
f 20 39 21
f 21 39 40
f 21 40 41
f 21 41 23
f 21 23 22
f 23 41 26
f 23 26 24
f 25 42 27
f 27 42 43
f 28 43 44
f 28 44 29
f 34 41 45
f 34 45 35
f 35 45 36
f 36 38 37
f 36 45 46
f 36 46 47
f 36 47 38
f 38 47 39
f 39 47 40
f 40 47 45
f 40 45 41
f 42 48 43
f 43 48 44
f 45 47 46

