# https://github.com/mikedh/trimesh
v -0.00840131 0.00185112 0.01870930
v -0.00840131 0.00311010 0.01870930
v -0.00657492 0.00129116 0.01870930
v -0.00840131 0.00132268 0.01873127
v -0.00840131 0.00311010 0.02279070
v -0.00396415 0.00311010 0.01870930
v -0.00710401 0.00129116 0.01871969
v -0.00502117 0.00129116 0.01870930
v -0.00840131 0.00129116 0.01874725
v -0.00840131 0.00185112 0.02279070
v -0.00396415 0.00311010 0.02279070
v -0.00396415 0.00290766 0.01870930
v -0.00343564 0.00311010 0.01873647
v -0.00449266 0.00185112 0.01870930
v -0.00449266 0.00130701 0.01871330
v -0.00396184 0.00129116 0.01894461
v -0.00840131 0.00130701 0.02277192
v -0.00607761 0.00129116 0.02279070
v -0.00840131 0.00164227 0.02278870
v -0.00660669 0.00130701 0.02279030
v -0.00396415 0.00290766 0.02279070
v -0.00376199 0.00311010 0.02279030
v -0.00291984 0.00311010 0.01887430
v -0.00343564 0.00290766 0.01875325
v -0.00258714 0.00311010 0.01903490
v -0.00378221 0.00129116 0.01937888
v -0.00713462 0.00132268 0.02278750
v -0.00502117 0.00129116 0.02279070
v -0.00449266 0.00185112 0.02279070
v -0.00450825 0.00129116 0.02278790
v -0.00449266 0.00132268 0.02278790
v -0.00396415 0.00237921 0.02278431
v -0.00343564 0.00311010 0.02276513
v -0.00256693 0.00311010 0.01911121
v -0.00378047 0.00129116 0.01990783
v -0.00250685 0.00311010 0.01937888
v -0.00250050 0.00311010 0.01990783
v -0.00401556 0.00129116 0.02253541
v -0.00273154 0.00311010 0.02253301
v -0.00323406 0.00311010 0.02274915
v -0.00378047 0.00129116 0.02149748
v -0.00250050 0.00311010 0.02149229
v -0.00396184 0.00129116 0.02250305
v -0.00258425 0.00311010 0.02239718
v -0.00378221 0.00129116 0.02202124
v -0.00250685 0.00311010 0.02202124
f 1 2 6
f 1 6 12
f 1 12 14
f 1 14 8
f 1 8 3
f 1 3 4
f 1 4 9
f 1 9 17
f 1 17 19
f 1 19 10
f 1 10 5
f 1 5 2
f 2 5 11
f 2 11 22
f 2 22 33
f 2 33 40
f 2 40 39
f 2 39 44
f 2 44 46
f 2 46 42
f 2 42 37
f 2 37 36
f 2 36 34
f 2 34 25
f 2 25 23
f 2 23 13
f 2 13 6
f 3 7 4
f 3 8 16
f 3 16 26
f 3 26 35
f 3 35 41
f 3 41 45
f 3 45 43
f 3 43 38
f 3 38 30
f 3 30 28
f 3 28 18
f 3 18 9
f 3 9 7
f 4 7 9
f 5 10 18
f 5 18 28
f 5 28 29
f 5 29 21
f 5 21 11
f 6 13 12
f 8 14 15
f 8 15 16
f 9 18 17
f 10 19 20
f 10 20 18
f 11 21 22
f 12 15 14
f 12 13 15
f 13 23 24
f 13 24 15
f 15 24 23
f 15 23 16
f 16 23 25
f 16 25 26
f 17 18 20
f 17 20 27
f 17 27 19
f 19 27 20
f 21 29 22
f 22 29 30
f 22 30 31
f 22 31 32
f 22 32 33
f 25 34 26
f 26 34 36
f 26 36 37
f 26 37 35
f 28 30 29
f 30 38 39
f 30 39 40
f 30 40 31
f 31 40 32
f 32 40 33
f 35 37 42
f 35 42 41
f 38 43 39
f 39 43 44
f 41 42 45
f 42 46 45
f 43 45 44
f 44 45 46

