# https://github.com/mikedh/trimesh
v -0.00096453 -0.01241208 0.02149249
v -0.00185591 -0.01384918 0.02149249
v -0.00186340 -0.01384946 0.02133697
v -0.00188250 -0.01384946 0.02096439
v -0.00098139 -0.01241208 0.02124025
v -0.00478208 -0.01241208 0.02149249
v -0.00464089 -0.01384946 0.02149249
v -0.00199860 -0.01384946 0.02047787
v -0.00100910 -0.01241208 0.02096439
v -0.00479070 -0.01241208 0.02097205
v -0.00479070 -0.01241222 0.02149249
v -0.00478770 -0.01384946 0.02149249
v -0.00237875 -0.01384946 0.02023242
v -0.00132071 -0.01241208 0.02047687
v -0.00479070 -0.01241208 0.02096439
v -0.00479070 -0.01294885 0.02149249
v -0.00479032 -0.01347717 0.02149249
v -0.00479070 -0.01347675 0.02096439
v -0.00478770 -0.01384946 0.02096439
v -0.00290683 -0.01384946 0.02020930
v -0.00237875 -0.01241982 0.02021194
v -0.00184991 -0.01241208 0.02028404
v -0.00477385 -0.01241208 0.02064909
v -0.00477347 -0.01347675 0.02064444
v -0.00477235 -0.01384946 0.02064871
v -0.00477722 -0.01384946 0.02074318
v -0.00290683 -0.01241208 0.02020930
v -0.00396374 -0.01384946 0.02020930
v -0.00237875 -0.01241208 0.02021194
v -0.00477347 -0.01241208 0.02064444
v -0.00449670 -0.01241208 0.02040250
v -0.00449258 -0.01347675 0.02039898
v -0.00449258 -0.01384946 0.02040326
v -0.00457535 -0.01384946 0.02047561
v -0.00396374 -0.01241208 0.02020930
v -0.00411992 -0.01384946 0.02026533
v -0.00397161 -0.01241208 0.02021207
v -0.00449258 -0.01241208 0.02039898
f 1 2 3
f 1 3 4
f 1 4 5
f 1 5 9
f 1 9 14
f 1 14 22
f 1 22 29
f 1 29 27
f 1 27 35
f 1 35 37
f 1 37 38
f 1 38 31
f 1 31 30
f 1 30 23
f 1 23 15
f 1 15 10
f 1 10 6
f 1 6 11
f 1 11 16
f 1 16 17
f 1 17 12
f 1 12 7
f 1 7 2
f 2 7 3
f 3 7 12
f 3 12 19
f 3 19 26
f 3 26 25
f 3 25 34
f 3 34 33
f 3 33 36
f 3 36 28
f 3 28 20
f 3 20 13
f 3 13 8
f 3 8 4
f 4 8 9
f 4 9 5
f 6 10 11
f 8 13 14
f 8 14 9
f 10 15 18
f 10 18 16
f 10 16 11
f 12 17 18
f 12 18 19
f 13 20 21
f 13 21 22
f 13 22 14
f 15 23 18
f 16 18 17
f 18 23 24
f 18 24 25
f 18 25 26
f 18 26 19
f 20 27 29
f 20 29 21
f 20 28 35
f 20 35 27
f 21 29 22
f 23 30 24
f 24 30 31
f 24 31 32
f 24 32 33
f 24 33 34
f 24 34 25
f 28 36 32
f 28 32 37
f 28 37 35
f 31 38 32
f 32 38 37
f 32 36 33

