# https://github.com/mikedh/trimesh
v 0.00479070 0.01347897 0.02202183
v 0.00479070 0.01281472 0.02202183
v 0.00479070 0.01347829 0.02149373
v 0.00478592 0.01400662 0.02149373
v 0.00478592 0.01400716 0.02202183
v 0.00478115 0.01400716 0.02572060
v 0.00479070 0.01281472 0.02149373
v 0.00476969 0.01362178 0.02572060
v 0.00473675 0.01335775 0.02572060
v 0.00465606 0.01295037 0.02572060
v 0.00461786 0.01281472 0.02572060
v 0.00477781 0.01419330 0.02149373
v 0.00477781 0.01419371 0.02176088
v 0.00477781 0.01419371 0.02202183
v 0.00477542 0.01419371 0.02572060
v 0.00476539 0.01366228 0.02599963
v 0.00476635 0.01419371 0.02600170
v 0.00476921 0.01400716 0.02600584
v 0.00155115 0.01281485 0.02149373
v -0.00008700 0.01281472 0.02208125
v 0.00458157 0.01281472 0.02582240
v 0.00454672 0.01419371 0.02149373
v 0.00449229 0.01400716 0.02615879
v 0.00453574 0.01348342 0.02611538
v 0.00443738 0.01295037 0.02613760
v 0.00441876 0.01281472 0.02613244
v 0.00464316 0.01419371 0.02606991
v 0.00185529 0.01419371 0.02149373
v -0.00008700 0.01298102 0.02214998
v -0.00008700 0.01281472 0.02677267
v 0.00450757 0.01419371 0.02614277
v 0.00283503 0.01419371 0.02677267
v 0.00285079 0.01401553 0.02677267
v 0.00285079 0.01400716 0.02677267
v 0.00280782 0.01347897 0.02677267
v 0.00431611 0.01281472 0.02617171
v 0.00088462 0.01419371 0.02215825
v -0.00008700 0.01316027 0.02253236
v 0.00081635 0.01419371 0.02232722
v 0.00252039 0.01281472 0.02677267
v -0.00008700 0.01317890 0.02677267
v 0.00073470 0.01419371 0.02677267
v 0.00270326 0.01312950 0.02677267
v -0.00008700 0.01316864 0.02255045
v 0.00074139 0.01419371 0.02255045
v -0.00008700 0.01317890 0.02307906
v 0.00073470 0.01419371 0.02307906
v 0.00073804 0.01419371 0.02278349
f 1 2 7
f 1 7 3
f 1 3 4
f 1 4 5
f 1 5 6
f 1 6 2
f 2 6 8
f 2 8 9
f 2 9 10
f 2 10 11
f 2 11 21
f 2 21 26
f 2 26 36
f 2 36 40
f 2 40 30
f 2 30 20
f 2 20 7
f 3 7 19
f 3 19 28
f 3 28 22
f 3 22 12
f 3 12 4
f 4 12 13
f 4 13 5
f 5 13 14
f 5 14 15
f 5 15 6
f 6 16 8
f 6 15 17
f 6 17 18
f 6 18 16
f 7 20 19
f 8 16 9
f 9 16 10
f 10 16 11
f 11 16 21
f 12 22 13
f 13 22 28
f 13 28 37
f 13 37 39
f 13 39 45
f 13 45 48
f 13 48 47
f 13 47 42
f 13 42 32
f 13 32 31
f 13 31 27
f 13 27 17
f 13 17 15
f 13 15 14
f 16 18 23
f 16 23 24
f 16 24 25
f 16 25 26
f 16 26 21
f 17 27 18
f 18 27 23
f 19 20 28
f 20 29 28
f 20 30 41
f 20 41 46
f 20 46 44
f 20 44 38
f 20 38 29
f 23 31 32
f 23 32 33
f 23 33 34
f 23 34 35
f 23 35 25
f 23 25 24
f 23 27 31
f 25 35 36
f 25 36 26
f 28 29 37
f 29 38 39
f 29 39 37
f 30 40 43
f 30 43 35
f 30 35 34
f 30 34 33
f 30 33 32
f 30 32 42
f 30 42 41
f 35 43 36
f 36 43 40
f 38 44 39
f 39 44 45
f 41 42 47
f 41 47 46
f 44 46 45
f 45 46 48
f 46 47 48

