# https://github.com/mikedh/trimesh
v -0.00080566 0.00738983 0.02255659
v -0.00026712 0.00732490 0.02175677
v -0.00090603 0.00738983 0.01886871
v -0.00158644 0.00738983 0.02278551
v 0.00001083 0.00642970 0.02273836
v -0.00012911 0.00724028 0.01946517
v 0.00001083 0.00634340 0.01872049
v -0.00165014 0.00738983 0.01871609
v 0.00001083 0.00466232 0.02271879
v -0.00554922 0.00738983 0.01870930
v -0.00615146 0.00732616 0.02278790
v -0.00819172 0.00449392 0.02279070
v -0.00359968 0.00311027 0.02277352
v 0.00001083 0.00502259 0.01870930
v -0.00265869 0.00311027 0.02246510
v 0.00001083 0.00399040 0.02175677
v -0.00647284 0.00693532 0.01872968
v -0.00732215 0.00714142 0.01917952
v -0.00739839 0.00728343 0.02122821
v -0.00819172 0.00449392 0.01870930
v -0.00819172 0.00502259 0.01871569
v -0.00753061 0.00588051 0.01872209
v -0.00728354 0.00719881 0.02240437
v -0.00753061 0.00588051 0.02278790
v -0.00883932 0.00361966 0.02278670
v -0.00370102 0.00311027 0.01872288
v -0.00974363 0.00327365 0.02230170
v -0.00984883 0.00327365 0.02122821
v 0.00001083 0.00418393 0.01904609
v -0.00871964 0.00396568 0.01871250
v -0.00250427 0.00311027 0.02174079
v 0.00001083 0.00398998 0.01990783
v -0.00250137 0.00311027 0.01990783
v -0.00826217 0.00582731 0.01894901
v -0.00786165 0.00654322 0.01917793
v -0.00796588 0.00665716 0.02096414
v -0.00791184 0.00660145 0.02226574
v -0.00836062 0.00595214 0.02229770
v -0.00851117 0.00485502 0.02272198
v -0.00273204 0.00311027 0.01905008
v -0.00898408 0.00327365 0.01873607
v -0.00946182 0.00422708 0.02212272
v -0.00945603 0.00427944 0.02096414
v -0.00960369 0.00356395 0.01919551
v -0.00908639 0.00461373 0.01919830
v -0.00890301 0.00533258 0.02096414
v -0.00843493 0.00605268 0.02096414
v -0.00890301 0.00533258 0.02202124
f 1 2 3
f 1 3 8
f 1 8 10
f 1 10 4
f 1 4 5
f 1 5 2
f 2 6 3
f 2 5 6
f 3 6 7
f 3 7 8
f 4 9 5
f 4 10 11
f 4 11 12
f 4 12 13
f 4 13 9
f 5 7 6
f 5 9 16
f 5 16 32
f 5 32 29
f 5 29 14
f 5 14 7
f 7 14 8
f 8 14 10
f 9 13 15
f 9 15 16
f 10 17 18
f 10 18 19
f 10 19 11
f 10 14 20
f 10 20 21
f 10 21 22
f 10 22 17
f 11 19 23
f 11 23 24
f 11 24 12
f 12 24 25
f 12 25 13
f 13 26 40
f 13 40 33
f 13 33 31
f 13 31 15
f 13 25 27
f 13 27 28
f 13 28 26
f 14 29 26
f 14 26 30
f 14 30 20
f 15 31 16
f 16 31 33
f 16 33 32
f 17 22 34
f 17 34 18
f 18 34 35
f 18 35 36
f 18 36 19
f 19 36 37
f 19 37 23
f 20 30 21
f 21 30 34
f 21 34 22
f 23 37 38
f 23 38 39
f 23 39 24
f 24 39 25
f 25 39 27
f 26 29 40
f 26 28 41
f 26 41 30
f 27 39 42
f 27 42 28
f 28 42 43
f 28 43 44
f 28 44 41
f 29 32 40
f 30 41 44
f 30 44 34
f 32 33 40
f 34 44 45
f 34 45 35
f 35 45 46
f 35 46 47
f 35 47 36
f 36 47 37
f 37 47 48
f 37 48 38
f 38 48 42
f 38 42 39
f 42 48 43
f 43 48 46
f 43 46 45
f 43 45 44
f 46 48 47

