# https://github.com/mikedh/trimesh
v 0.00000232 -0.01482854 0.02678309
v -0.00037683 -0.01465920 0.02678309
v 0.00000232 -0.01559332 0.02678309
v 0.00000232 -0.01482854 0.02307904
v -0.00276358 -0.01465920 0.02678309
v -0.00037683 -0.01465920 0.02307904
v -0.00223129 -0.01559332 0.02678309
v 0.00000232 -0.01559332 0.02191700
v 0.00000232 -0.01483722 0.02255031
v -0.00269861 -0.01487572 0.02678309
v -0.00451037 -0.01465920 0.02612144
v -0.00443612 -0.01506253 0.02613806
v -0.00396369 -0.01559103 0.02626999
v -0.00040839 -0.01465920 0.02255031
v -0.00249674 -0.01523150 0.02678309
v -0.00230693 -0.01559332 0.02678260
v -0.00070447 -0.01559332 0.02179093
v -0.00171987 -0.01465920 0.02179093
v 0.00000232 -0.01530538 0.02203428
v 0.00000232 -0.01488761 0.02244427
v -0.00059448 -0.01465920 0.02220042
v -0.00049099 -0.01465920 0.02233139
v -0.00269768 -0.01487801 0.02678309
v -0.00473313 -0.01465920 0.02572123
v -0.00436326 -0.01559103 0.02611704
v -0.00436280 -0.01559332 0.02611704
v -0.00396415 -0.01559332 0.02626951
v -0.00430572 -0.01559332 0.02179093
v -0.00473777 -0.01465920 0.02179093
v -0.00067709 -0.01465920 0.02215205
v 0.00000232 -0.01502879 0.02214716
v -0.00473360 -0.01465920 0.02570706
v -0.00465331 -0.01506253 0.02572123
v -0.00450341 -0.01559103 0.02572123
v -0.00450249 -0.01559332 0.02572123
v -0.00450759 -0.01559195 0.02179093
v -0.00450713 -0.01559332 0.02201913
v -0.00473824 -0.01465920 0.02517930
v -0.00470482 -0.01483521 0.02179093
v -0.00466213 -0.01506253 0.02519250
v -0.00450759 -0.01559103 0.02519250
v -0.00450666 -0.01559332 0.02519250
v -0.00459484 -0.01529304 0.02179093
v -0.00450805 -0.01559103 0.02202157
v -0.00450713 -0.01559332 0.02466425
v -0.00466213 -0.01506253 0.02202157
v -0.00466166 -0.01506253 0.02179093
v -0.00450805 -0.01559103 0.02466425
f 1 2 5
f 1 5 10
f 1 10 23
f 1 23 15
f 1 15 7
f 1 7 3
f 1 3 8
f 1 8 19
f 1 19 31
f 1 31 20
f 1 20 9
f 1 9 4
f 1 4 6
f 1 6 2
f 2 6 14
f 2 14 22
f 2 22 21
f 2 21 30
f 2 30 18
f 2 18 29
f 2 29 38
f 2 38 32
f 2 32 24
f 2 24 11
f 2 11 5
f 3 7 16
f 3 16 27
f 3 27 26
f 3 26 35
f 3 35 42
f 3 42 45
f 3 45 37
f 3 37 28
f 3 28 17
f 3 17 8
f 4 9 6
f 5 11 12
f 5 12 13
f 5 13 10
f 6 9 14
f 7 15 16
f 8 17 18
f 8 18 19
f 9 20 21
f 9 21 22
f 9 22 14
f 10 13 23
f 11 24 25
f 11 25 12
f 12 25 26
f 12 26 13
f 13 26 27
f 13 27 23
f 15 23 16
f 16 23 27
f 17 28 36
f 17 36 43
f 17 43 47
f 17 47 39
f 17 39 29
f 17 29 18
f 18 30 31
f 18 31 19
f 20 31 21
f 21 31 30
f 24 32 33
f 24 33 25
f 25 33 26
f 26 33 34
f 26 34 35
f 28 37 36
f 29 39 38
f 32 38 40
f 32 40 33
f 33 40 34
f 34 40 41
f 34 41 42
f 34 42 35
f 36 37 44
f 36 44 43
f 37 45 48
f 37 48 44
f 38 39 46
f 38 46 40
f 39 47 46
f 40 46 44
f 40 44 48
f 40 48 41
f 41 48 45
f 41 45 42
f 43 44 46
f 43 46 47

