# https://github.com/mikedh/trimesh
v -0.00298166 -0.01002946 0.01985660
v -0.00234367 -0.01023691 0.01985660
v -0.00396398 -0.01074743 0.02020805
v -0.00396304 -0.00999830 0.02015994
v 0.00348736 -0.00999830 0.01998734
v 0.00284374 -0.01008226 0.01985660
v -0.00185111 -0.01033466 0.01985660
v -0.00449219 -0.01074743 0.02039902
v -0.00132101 -0.01037675 0.01985660
v -0.00079280 -0.01041019 0.01985660
v -0.00026364 -0.01042691 0.01985660
v -0.00026364 -0.01074743 0.02012946
v -0.00450064 -0.00999830 0.02036634
v 0.00396304 -0.00999830 0.02015994
v 0.00444904 -0.01074743 0.02038286
v 0.00392270 -0.01074743 0.02020695
v 0.00234836 -0.01023566 0.01985660
v -0.00478210 -0.01074743 0.02081805
v -0.00477460 -0.00999830 0.02064471
v 0.00026364 -0.01042691 0.01985660
v 0.00028147 -0.01074743 0.02012946
v 0.00455318 -0.00999830 0.02041224
v 0.00477460 -0.00999830 0.02064471
v 0.00478210 -0.01074743 0.02080483
v 0.00078341 -0.01041063 0.01985660
v 0.00177511 -0.01034771 0.01985660
v -0.00479055 -0.01074743 0.02202115
v -0.00479243 -0.00999830 0.02096458
v 0.00479243 -0.00999830 0.02096458
v 0.00478210 -0.01074743 0.02216988
v -0.00479243 -0.00999830 0.02202115
v -0.00477366 -0.01074743 0.02234506
v 0.00479243 -0.00999830 0.02202115
v 0.00477460 -0.00999830 0.02234506
v 0.00350143 -0.01074743 0.02360839
v -0.00477460 -0.00999830 0.02234506
v -0.00071305 -0.01074743 0.02360839
v -0.00350143 -0.01074713 0.02360765
v 0.00449219 -0.00999830 0.02259773
v 0.00325562 -0.01049151 0.02360839
v -0.00449219 -0.00999830 0.02259773
v -0.00325562 -0.01049077 0.02360839
v 0.00208472 -0.00999830 0.02360839
v 0.00264859 -0.01001047 0.02360765
v 0.00293287 -0.01022672 0.02360839
v -0.00293381 -0.01022730 0.02360839
v -0.00264766 -0.01001025 0.02360765
v -0.00210912 -0.00999830 0.02360839
f 1 2 3
f 1 3 4
f 1 4 5
f 1 5 6
f 1 6 17
f 1 17 26
f 1 26 25
f 1 25 20
f 1 20 11
f 1 11 10
f 1 10 9
f 1 9 7
f 1 7 2
f 2 7 3
f 3 8 4
f 3 7 9
f 3 9 10
f 3 10 11
f 3 11 12
f 3 12 21
f 3 21 16
f 3 16 15
f 3 15 24
f 3 24 30
f 3 30 35
f 3 35 37
f 3 37 32
f 3 32 27
f 3 27 18
f 3 18 8
f 4 8 13
f 4 13 19
f 4 19 28
f 4 28 31
f 4 31 36
f 4 36 41
f 4 41 48
f 4 48 43
f 4 43 39
f 4 39 34
f 4 34 33
f 4 33 29
f 4 29 23
f 4 23 22
f 4 22 14
f 4 14 5
f 5 14 15
f 5 15 16
f 5 16 6
f 6 16 17
f 8 18 19
f 8 19 13
f 11 20 21
f 11 21 12
f 14 22 15
f 15 22 23
f 15 23 24
f 16 21 20
f 16 20 25
f 16 25 26
f 16 26 17
f 18 27 28
f 18 28 19
f 23 29 24
f 24 29 33
f 24 33 30
f 27 31 28
f 27 32 31
f 30 33 34
f 30 34 35
f 31 32 36
f 32 37 38
f 32 38 36
f 34 39 35
f 35 39 40
f 35 40 45
f 35 45 43
f 35 43 48
f 35 48 46
f 35 46 42
f 35 42 37
f 36 38 41
f 37 42 38
f 38 42 41
f 39 43 44
f 39 44 45
f 39 45 40
f 41 42 46
f 41 46 47
f 41 47 48
f 43 45 44
f 46 48 47

