# https://github.com/mikedh/trimesh
v -0.00026705 0.00978117 0.01874029
v -0.00079228 0.00978117 0.01875104
v -0.00026410 0.01016305 0.01894179
v 0.00026408 0.00978117 0.01874029
v -0.00132121 0.00978117 0.01877967
v -0.00079228 0.01014853 0.01895254
v -0.00026557 0.01043163 0.01986079
v 0.00026187 0.01043182 0.01986079
v 0.00026408 0.01016305 0.01894179
v 0.00078932 0.00978117 0.01875093
v -0.00132121 0.01012064 0.01898095
v -0.00184939 0.00978117 0.01884329
v -0.00172563 0.01035540 0.01986079
v -0.00079228 0.01041278 0.01986079
v -0.00077829 0.01041355 0.01986079
v 0.00079227 0.01041278 0.01986079
v 0.00079227 0.01014853 0.01895254
v 0.00079227 0.00978117 0.01875104
v -0.00184939 0.01007917 0.01904446
v -0.00248365 0.00978117 0.01893751
v -0.00214700 0.01005109 0.01909679
v -0.00181550 0.01034107 0.01986079
v 0.00132119 0.01037788 0.01986079
v 0.00132119 0.01012064 0.01898095
v 0.00131824 0.00978117 0.01877934
v -0.00290649 0.00978117 0.01916216
v -0.00345678 0.00978117 0.01960258
v -0.00376396 0.00978117 0.01986079
v -0.00348109 0.00987938 0.01986079
v -0.00271054 0.01013847 0.01986079
v -0.00234811 0.01023630 0.01986079
v -0.00234000 0.01023840 0.01986079
v 0.00181548 0.01034107 0.01986079
v 0.00184642 0.00978117 0.01884263
v 0.00132119 0.00978117 0.01877967
v 0.00184937 0.01007917 0.01904446
v 0.00248363 0.00978117 0.01893751
v 0.00376174 0.00978117 0.01986079
v 0.00233999 0.01023840 0.01986079
v 0.00214698 0.01005109 0.01909679
v 0.00276135 0.00978117 0.01906223
v 0.00307664 0.00978117 0.01925211
v 0.00348107 0.00987938 0.01986079
v 0.00290648 0.01006529 0.01986079
f 1 2 3
f 1 3 9
f 1 9 4
f 1 4 10
f 1 10 18
f 1 18 25
f 1 25 35
f 1 35 34
f 1 34 37
f 1 37 41
f 1 41 42
f 1 42 38
f 1 38 28
f 1 28 27
f 1 27 26
f 1 26 20
f 1 20 12
f 1 12 5
f 1 5 2
f 2 5 6
f 2 6 3
f 3 6 7
f 3 7 8
f 3 8 9
f 4 9 10
f 5 11 6
f 5 12 11
f 6 11 13
f 6 13 14
f 6 14 15
f 6 15 7
f 7 15 14
f 7 14 13
f 7 13 22
f 7 22 32
f 7 32 31
f 7 31 30
f 7 30 29
f 7 29 28
f 7 28 38
f 7 38 43
f 7 43 44
f 7 44 39
f 7 39 33
f 7 33 23
f 7 23 16
f 7 16 8
f 8 16 17
f 8 17 9
f 9 17 10
f 10 17 18
f 11 19 13
f 11 12 20
f 11 20 19
f 13 19 21
f 13 21 22
f 16 23 17
f 17 23 24
f 17 24 25
f 17 25 18
f 19 20 21
f 20 26 21
f 21 26 27
f 21 27 28
f 21 28 29
f 21 29 30
f 21 30 31
f 21 31 32
f 21 32 22
f 23 33 24
f 24 34 35
f 24 35 25
f 24 33 36
f 24 36 37
f 24 37 34
f 33 39 40
f 33 40 36
f 36 40 37
f 37 40 41
f 38 42 40
f 38 40 43
f 39 44 40
f 40 44 43
f 40 42 41

