# https://github.com/mikedh/trimesh
v -0.00002350 -0.01074743 0.02012880
v -0.00002350 -0.01136281 0.02023493
v -0.00002350 -0.01074743 0.02364882
v 0.00026443 -0.01074743 0.02012880
v 0.00290668 -0.01242284 0.02020943
v 0.00237889 -0.01242284 0.02021219
v -0.00002350 -0.01156357 0.02034691
v 0.00185345 -0.01242284 0.02028489
v -0.00002350 -0.01242284 0.02364882
v 0.00346793 -0.01074743 0.02364882
v 0.00029977 -0.01074743 0.02012949
v 0.00396367 -0.01242284 0.02020943
v -0.00002350 -0.01180237 0.02048060
v 0.00134828 -0.01242284 0.02047336
v 0.00134828 -0.01242268 0.02047233
v -0.00002350 -0.01242284 0.02192051
v 0.00451361 -0.01242284 0.02364882
v 0.00350327 -0.01074907 0.02364882
v 0.00477373 -0.01074743 0.02234570
v 0.00388215 -0.01074743 0.02020564
v 0.00396367 -0.01074743 0.02020805
v 0.00396697 -0.01242284 0.02021046
v 0.00477373 -0.01242284 0.02234673
v 0.00477373 -0.01241972 0.02234673
v 0.00451267 -0.01241989 0.02364882
v 0.00351976 -0.01076613 0.02364882
v 0.00477656 -0.01074743 0.02229229
v 0.00375538 -0.01103035 0.02364882
v 0.00398535 -0.01136281 0.02364882
v 0.00400184 -0.01138873 0.02364882
v 0.00419411 -0.01169248 0.02364882
v 0.00431427 -0.01193604 0.02364882
v 0.00432417 -0.01195687 0.02364882
v 0.00433925 -0.01199329 0.02364882
v 0.00440570 -0.01074743 0.02036655
v 0.00449240 -0.01242284 0.02039894
v 0.00479070 -0.01242284 0.02202147
v 0.00479070 -0.01074743 0.02202147
v 0.00449240 -0.01074743 0.02039894
v 0.00477373 -0.01242284 0.02064461
v 0.00479070 -0.01242284 0.02096470
v 0.00479070 -0.01074743 0.02096470
v 0.00477373 -0.01074743 0.02064461
f 1 2 7
f 1 7 13
f 1 13 16
f 1 16 9
f 1 9 3
f 1 3 10
f 1 10 19
f 1 19 27
f 1 27 38
f 1 38 42
f 1 42 43
f 1 43 39
f 1 39 35
f 1 35 21
f 1 21 20
f 1 20 11
f 1 11 4
f 1 4 12
f 1 12 5
f 1 5 6
f 1 6 2
f 2 6 8
f 2 8 7
f 3 9 17
f 3 17 25
f 3 25 34
f 3 34 33
f 3 33 32
f 3 32 31
f 3 31 30
f 3 30 29
f 3 29 28
f 3 28 26
f 3 26 18
f 3 18 10
f 4 11 12
f 5 12 22
f 5 22 36
f 5 36 40
f 5 40 41
f 5 41 37
f 5 37 23
f 5 23 17
f 5 17 9
f 5 9 16
f 5 16 14
f 5 14 8
f 5 8 6
f 7 8 13
f 8 14 15
f 8 15 13
f 10 18 19
f 11 20 12
f 12 20 21
f 12 21 22
f 13 15 16
f 14 16 15
f 17 23 24
f 17 24 19
f 17 19 25
f 18 26 19
f 19 24 27
f 19 26 28
f 19 28 29
f 19 29 30
f 19 30 31
f 19 31 32
f 19 32 33
f 19 33 34
f 19 34 25
f 21 35 22
f 22 35 36
f 23 37 38
f 23 38 24
f 24 38 27
f 35 39 36
f 36 39 43
f 36 43 40
f 37 41 42
f 37 42 38
f 40 43 42
f 40 42 41

