# https://github.com/mikedh/trimesh
v 0.00449331 -0.00286698 0.01870930
v 0.00396484 -0.00286698 0.01871050
v 0.00449331 -0.00184841 0.01870930
v 0.00753307 -0.00286698 0.01870930
v 0.00343543 -0.00286698 0.01876643
v 0.00396484 -0.00237735 0.01872288
v 0.00456047 0.00013008 0.01873647
v 0.00502178 0.00013008 0.01870930
v 0.00753307 -0.00178328 0.01871090
v 0.00753307 -0.00286698 0.02279070
v 0.00607779 0.00013008 0.01870930
v 0.00295967 -0.00286698 0.01895939
v 0.00415841 0.00013008 0.01891745
v 0.00753307 -0.00132093 0.01873647
v 0.00607779 0.00013008 0.02279070
v 0.00398396 -0.00286698 0.02279030
v 0.00753307 -0.00184841 0.02279070
v 0.00666410 0.00013008 0.01875684
v 0.00277449 -0.00286698 0.01937888
v 0.00399002 0.00013008 0.01937888
v 0.00705730 0.00013008 0.01893343
v 0.00753307 -0.00116838 0.01878081
v 0.00495415 0.00013008 0.02278830
v 0.00660626 0.00013008 0.02278271
v 0.00396484 -0.00237735 0.02278391
v 0.00345502 -0.00286698 0.02274196
v 0.00753307 -0.00132093 0.02277672
v 0.00276890 -0.00286698 0.01990783
v 0.00399002 0.00013008 0.02202124
v 0.00725414 0.00013008 0.01944680
v 0.00753307 -0.00085007 0.01892943
v 0.00444387 0.00013008 0.02274116
v 0.00706243 0.00013008 0.02253022
v 0.00297133 -0.00286698 0.02251224
v 0.00753307 -0.00084479 0.02253781
v 0.00276936 -0.00286698 0.02154023
v 0.00410943 0.00013008 0.02252103
v 0.00277962 -0.00286698 0.02205041
v 0.00726160 0.00013008 0.01990783
v 0.00753307 -0.00063386 0.01937888
v 0.00753307 -0.00073067 0.01914397
v 0.00720796 0.00013008 0.02215148
v 0.00753307 -0.00062770 0.02202124
v 0.00725787 0.00013008 0.02202124
v 0.00726114 0.00013008 0.02156021
v 0.00753307 -0.00062271 0.02149229
v 0.00753307 -0.00062271 0.01990783
v 0.00753307 -0.00062740 0.01962937
f 1 2 3
f 1 3 8
f 1 8 11
f 1 11 4
f 1 4 10
f 1 10 16
f 1 16 26
f 1 26 34
f 1 34 38
f 1 38 36
f 1 36 28
f 1 28 19
f 1 19 12
f 1 12 5
f 1 5 2
f 2 5 6
f 2 6 7
f 2 7 8
f 2 8 3
f 4 9 14
f 4 14 22
f 4 22 31
f 4 31 41
f 4 41 40
f 4 40 48
f 4 48 47
f 4 47 46
f 4 46 43
f 4 43 35
f 4 35 27
f 4 27 17
f 4 17 10
f 4 11 9
f 5 12 7
f 5 7 6
f 7 13 20
f 7 20 29
f 7 29 37
f 7 37 32
f 7 32 23
f 7 23 15
f 7 15 24
f 7 24 33
f 7 33 42
f 7 42 44
f 7 44 45
f 7 45 39
f 7 39 30
f 7 30 21
f 7 21 18
f 7 18 11
f 7 11 8
f 7 12 13
f 9 11 14
f 10 15 16
f 10 17 15
f 11 18 14
f 12 19 13
f 13 19 20
f 14 18 21
f 14 21 22
f 15 23 16
f 15 17 24
f 16 23 25
f 16 25 26
f 17 27 24
f 19 28 20
f 20 28 29
f 21 30 31
f 21 31 22
f 23 32 25
f 24 27 33
f 25 32 26
f 26 32 34
f 27 35 33
f 28 36 29
f 29 36 38
f 29 38 37
f 30 39 40
f 30 40 41
f 30 41 31
f 32 37 34
f 33 35 42
f 34 37 38
f 35 43 44
f 35 44 42
f 39 45 46
f 39 46 47
f 39 47 48
f 39 48 40
f 43 46 45
f 43 45 44

