# https://github.com/mikedh/trimesh
v 0.00285174 0.01400732 0.02677299
v 0.00280778 0.01347873 0.02677299
v 0.00285117 0.01401553 0.02677299
v 0.00277703 0.01400732 0.02942099
v 0.00270404 0.01312935 0.02677299
v 0.00272760 0.01347873 0.02942099
v 0.00265978 0.01316909 0.02942099
v 0.00284973 0.01403029 0.02677299
v 0.00277473 0.01403029 0.02942099
v 0.00270864 0.01403029 0.02980716
v 0.00270978 0.01400732 0.02980911
v 0.00268507 0.01347873 0.02976689
v 0.00252070 0.01281484 0.02677299
v 0.00255059 0.01290480 0.02942099
v 0.00250001 0.01281484 0.02942099
v 0.00265404 0.01318421 0.02971102
v 0.00078617 0.01403029 0.02677299
v 0.00237817 0.01403029 0.03000983
v 0.00237817 0.01400732 0.03001178
v 0.00237817 0.01347873 0.02996955
v 0.00239426 0.01298500 0.02985653
v -0.00008368 0.01281484 0.02677299
v 0.00247558 0.01281484 0.02951160
v 0.00233391 0.01281484 0.02983964
v -0.00008339 0.01317790 0.02677299
v -0.00008368 0.01317790 0.02677429
v 0.00078617 0.01403029 0.02889256
v 0.00184970 0.01403029 0.03009070
v 0.00184970 0.01347873 0.03009070
v 0.00184970 0.01295037 0.03008290
v 0.00225632 0.01281484 0.02987439
v -0.00008368 0.01281484 0.02995072
v -0.00008368 0.01317790 0.02889256
v -0.00008368 0.01317612 0.02938916
v -0.00008368 0.01317600 0.02942099
v 0.00079106 0.01403029 0.02942099
v 0.00118589 0.01281484 0.03009070
v 0.00132153 0.01403029 0.03005887
v 0.00132153 0.01295037 0.03009070
v 0.00132153 0.01281484 0.03008972
v 0.00171407 0.01281484 0.03008420
v 0.00186120 0.01281484 0.03004458
v 0.00065743 0.01281484 0.03005432
v -0.00008368 0.01287314 0.02992993
v -0.00008368 0.01307889 0.02966165
v 0.00092439 0.01403029 0.02985653
v -0.00008368 0.01298703 0.02988933
f 1 2 5
f 1 5 13
f 1 13 22
f 1 22 25
f 1 25 17
f 1 17 8
f 1 8 3
f 1 3 4
f 1 4 2
f 2 4 6
f 2 6 7
f 2 7 5
f 3 8 4
f 4 9 10
f 4 10 11
f 4 11 12
f 4 12 6
f 4 8 9
f 5 7 14
f 5 14 15
f 5 15 13
f 6 12 16
f 6 16 7
f 7 16 14
f 8 17 27
f 8 27 36
f 8 36 46
f 8 46 38
f 8 38 28
f 8 28 18
f 8 18 10
f 8 10 9
f 10 18 11
f 11 18 19
f 11 19 20
f 11 20 12
f 12 20 21
f 12 21 16
f 13 15 23
f 13 23 24
f 13 24 31
f 13 31 42
f 13 42 41
f 13 41 40
f 13 40 37
f 13 37 43
f 13 43 32
f 13 32 22
f 14 16 15
f 15 16 23
f 16 21 24
f 16 24 23
f 17 25 26
f 17 26 33
f 17 33 27
f 18 28 19
f 19 28 29
f 19 29 30
f 19 30 20
f 20 30 21
f 21 31 24
f 21 30 31
f 22 26 25
f 22 32 44
f 22 44 47
f 22 47 45
f 22 45 35
f 22 35 34
f 22 34 33
f 22 33 26
f 27 33 34
f 27 34 35
f 27 35 36
f 28 37 39
f 28 39 29
f 28 38 37
f 29 39 40
f 29 40 41
f 29 41 30
f 30 41 42
f 30 42 31
f 32 43 38
f 32 38 44
f 35 45 46
f 35 46 36
f 37 40 39
f 37 38 43
f 38 46 47
f 38 47 44
f 45 47 46

