# https://github.com/mikedh/trimesh
v -0.00002350 -0.01258386 0.02198668
v 0.00117345 -0.01384946 0.02205429
v 0.00089259 -0.01384946 0.02215946
v -0.00002350 -0.01297943 0.02214960
v -0.00002350 -0.01242300 0.02198668
v 0.00139117 -0.01384946 0.02198668
v 0.00083746 -0.01384946 0.02229796
v -0.00002350 -0.01316723 0.02255055
v -0.00002350 -0.01310244 0.02241158
v -0.00002350 -0.01242300 0.02678309
v 0.00479070 -0.01242300 0.02198668
v 0.00478787 -0.01384946 0.02198668
v 0.00075169 -0.01384946 0.02255055
v -0.00002350 -0.01317128 0.02277215
v -0.00002350 -0.01317673 0.02678309
v 0.00231574 -0.01242300 0.02678309
v 0.00479070 -0.01242300 0.02202189
v 0.00479070 -0.01347679 0.02198668
v 0.00478787 -0.01384946 0.02202189
v 0.00074887 -0.01384946 0.02274305
v -0.00002350 -0.01317673 0.02307874
v 0.00074557 -0.01384946 0.02678121
v 0.00102784 -0.01384946 0.02678309
v 0.00269886 -0.01312981 0.02678309
v 0.00396367 -0.01242300 0.02627086
v 0.00477656 -0.01384946 0.02572108
v 0.00479070 -0.01347679 0.02202189
v 0.00477373 -0.01242300 0.02234726
v 0.00473556 -0.01336216 0.02572108
v 0.00476478 -0.01366501 0.02599949
v 0.00476902 -0.01362648 0.02572108
v 0.00074557 -0.01384946 0.02307874
v 0.00283458 -0.01384946 0.02678309
v 0.00269980 -0.01313205 0.02678309
v 0.00280253 -0.01347679 0.02678309
v 0.00443680 -0.01294843 0.02613800
v 0.00436564 -0.01242300 0.02611828
v 0.00476714 -0.01384946 0.02600325
v 0.00465451 -0.01294843 0.02572108
v 0.00450795 -0.01242300 0.02572108
v 0.00453481 -0.01348405 0.02611593
v 0.00461728 -0.01384946 0.02608588
v 0.00450513 -0.01384946 0.02614598
v 0.00280300 -0.01348140 0.02678309
f 1 2 3
f 1 3 4
f 1 4 9
f 1 9 8
f 1 8 14
f 1 14 21
f 1 21 15
f 1 15 10
f 1 10 5
f 1 5 11
f 1 11 18
f 1 18 12
f 1 12 6
f 1 6 2
f 2 6 12
f 2 12 19
f 2 19 26
f 2 26 38
f 2 38 42
f 2 42 43
f 2 43 33
f 2 33 23
f 2 23 22
f 2 22 32
f 2 32 20
f 2 20 13
f 2 13 7
f 2 7 3
f 3 7 8
f 3 8 9
f 3 9 4
f 5 10 16
f 5 16 25
f 5 25 37
f 5 37 40
f 5 40 28
f 5 28 17
f 5 17 11
f 7 13 8
f 8 13 14
f 10 15 23
f 10 23 33
f 10 33 44
f 10 44 35
f 10 35 34
f 10 34 24
f 10 24 16
f 11 17 27
f 11 27 18
f 12 18 27
f 12 27 19
f 13 20 21
f 13 21 14
f 15 21 32
f 15 32 22
f 15 22 23
f 16 24 25
f 17 26 27
f 17 28 29
f 17 29 30
f 17 30 31
f 17 31 26
f 19 27 26
f 20 32 21
f 24 34 25
f 25 35 36
f 25 36 37
f 25 34 35
f 26 31 30
f 26 30 38
f 28 39 29
f 28 40 39
f 29 39 30
f 30 39 40
f 30 40 37
f 30 37 36
f 30 36 41
f 30 41 42
f 30 42 38
f 33 43 44
f 35 44 36
f 36 44 43
f 36 43 41
f 41 43 42

