# https://github.com/mikedh/trimesh
v 0.00168796 -0.01384947 0.02678309
v 0.00102751 -0.01384947 0.02678309
v 0.00168796 -0.01468323 0.02678309
v 0.00168796 -0.01384947 0.02188131
v 0.00074539 -0.01384947 0.02678116
v 0.00079213 -0.01400169 0.02678309
v 0.00079108 -0.01468323 0.02678309
v 0.00168796 -0.01468323 0.02186155
v 0.00168796 -0.01468225 0.02185914
v 0.00079423 -0.01468323 0.02212279
v 0.00117322 -0.01384947 0.02205434
v 0.00034683 -0.01468323 0.02678261
v 0.00074539 -0.01384947 0.02307904
v 0.00065704 -0.01443061 0.02678309
v 0.00054703 -0.01468323 0.02221147
v 0.00089255 -0.01384947 0.02215942
v 0.00034683 -0.01468323 0.02358898
v 0.00074881 -0.01384947 0.02274310
v 0.00034697 -0.01468323 0.02307904
v 0.00037965 -0.01468323 0.02255031
v 0.00083716 -0.01384947 0.02229775
v 0.00075156 -0.01384947 0.02255031
v 0.00034775 -0.01468323 0.02305928
f 1 2 6
f 1 6 14
f 1 14 7
f 1 7 3
f 1 3 8
f 1 8 9
f 1 9 4
f 1 4 11
f 1 11 16
f 1 16 21
f 1 21 22
f 1 22 18
f 1 18 13
f 1 13 5
f 1 5 2
f 2 5 6
f 3 7 12
f 3 12 17
f 3 17 19
f 3 19 23
f 3 23 20
f 3 20 15
f 3 15 10
f 3 10 8
f 4 9 10
f 4 10 11
f 5 12 6
f 5 13 17
f 5 17 12
f 6 12 14
f 7 14 12
f 8 10 9
f 10 15 11
f 11 15 16
f 13 18 19
f 13 19 17
f 15 20 16
f 16 20 21
f 18 22 19
f 19 22 23
f 20 23 22
f 20 22 21

