# https://github.com/mikedh/trimesh
v -0.00165414 0.01419371 0.02190995
v -0.00170001 0.01847165 0.02360733
v -0.00165513 0.01849049 0.02190995
v -0.00000821 0.01561281 0.02190995
v -0.00088442 0.01419371 0.02215842
v -0.00170001 0.01419371 0.02677267
v -0.00170001 0.01847120 0.02519238
v -0.00126530 0.01860800 0.02190995
v -0.00165447 0.01848959 0.02572120
v -0.00132111 0.01859500 0.02519238
v -0.00132111 0.01859500 0.02360733
v -0.00020876 0.01877530 0.02190995
v -0.00000821 0.01877485 0.02196612
v -0.00000821 0.01503109 0.02214699
v -0.00000821 0.01489115 0.02243973
v -0.00000821 0.01483912 0.02255016
v -0.00074067 0.01419371 0.02255016
v -0.00073438 0.01419371 0.02677267
v -0.00170001 0.01623042 0.02677267
v -0.00170001 0.01846627 0.02589589
v -0.00079300 0.01871610 0.02190995
v -0.00079300 0.01871610 0.02360733
v -0.00132111 0.01859410 0.02572120
v -0.00160098 0.01850574 0.02599537
v -0.00079300 0.01871520 0.02572120
v -0.00026456 0.01877575 0.02307898
v -0.00000821 0.01877530 0.02572120
v -0.00000821 0.01483419 0.02281195
v -0.00000821 0.01482970 0.02307898
v -0.00073438 0.01419371 0.02307898
v -0.00000821 0.01482970 0.02677267
v -0.00136284 0.01646724 0.02677267
v -0.00170001 0.01785674 0.02626383
v -0.00170001 0.01838150 0.02605154
v -0.00026456 0.01877530 0.02572120
v -0.00132111 0.01854700 0.02604726
v -0.00079300 0.01860755 0.02611056
v -0.00000821 0.01863716 0.02613103
v -0.00000821 0.01676729 0.02677267
v -0.00079300 0.01667445 0.02677267
v -0.00079300 0.01823529 0.02626336
v -0.00132111 0.01823529 0.02620005
v -0.00170001 0.01827879 0.02611485
v -0.00026456 0.01863716 0.02613103
v -0.00000821 0.01843039 0.02620957
v -0.00026456 0.01676729 0.02677267
v -0.00000821 0.01823529 0.02628335
v -0.00026456 0.01823529 0.02628335
f 1 2 3
f 1 3 8
f 1 8 21
f 1 21 12
f 1 12 4
f 1 4 5
f 1 5 17
f 1 17 30
f 1 30 18
f 1 18 6
f 1 6 2
f 2 7 3
f 2 6 19
f 2 19 33
f 2 33 43
f 2 43 34
f 2 34 20
f 2 20 7
f 3 7 9
f 3 9 10
f 3 10 11
f 3 11 8
f 4 12 13
f 4 13 27
f 4 27 38
f 4 38 45
f 4 45 47
f 4 47 39
f 4 39 31
f 4 31 29
f 4 29 28
f 4 28 16
f 4 16 15
f 4 15 14
f 4 14 5
f 5 14 15
f 5 15 16
f 5 16 17
f 6 18 31
f 6 31 39
f 6 39 46
f 6 46 40
f 6 40 32
f 6 32 19
f 7 20 9
f 8 11 10
f 8 10 22
f 8 22 21
f 9 23 10
f 9 20 24
f 9 24 23
f 10 23 25
f 10 25 22
f 12 21 26
f 12 26 13
f 13 26 27
f 16 28 17
f 17 28 29
f 17 29 30
f 18 30 29
f 18 29 31
f 19 32 33
f 20 34 24
f 21 22 26
f 22 25 35
f 22 35 26
f 23 24 25
f 24 34 36
f 24 36 25
f 25 36 37
f 25 37 35
f 26 35 27
f 27 35 44
f 27 44 38
f 32 40 41
f 32 41 42
f 32 42 33
f 33 42 43
f 34 43 36
f 35 37 44
f 36 43 37
f 37 43 42
f 37 42 41
f 37 41 44
f 38 44 45
f 39 47 48
f 39 48 46
f 40 46 41
f 41 46 48
f 41 48 44
f 44 48 45
f 45 48 47

