# https://github.com/mikedh/trimesh
v 0.00479070 0.01281472 0.02166841
v 0.00479070 0.01082372 0.02166841
v 0.00479070 0.01281472 0.02096444
v 0.00140694 0.01281472 0.02166841
v 0.00479070 0.01082372 0.02096444
v 0.00026307 0.01082372 0.02166841
v 0.00477385 0.01082372 0.02065193
v 0.00477341 0.01281472 0.02064448
v 0.00157498 0.01281472 0.02096444
v 0.00030075 0.01219243 0.02166841
v 0.00026129 0.01082800 0.02166841
v 0.00026129 0.01082372 0.02163579
v 0.00477341 0.01082372 0.02064448
v 0.00456458 0.01281472 0.02046201
v 0.00169025 0.01281472 0.02056032
v 0.00026129 0.01198351 0.02096444
v 0.00026129 0.01212617 0.02166841
v 0.00026129 0.01082372 0.02026598
v 0.00449232 0.01082372 0.02039900
v 0.00449232 0.01281472 0.02039900
v 0.00185386 0.01281472 0.02043639
v 0.00026129 0.01180285 0.02048197
v 0.00026129 0.01180401 0.02048465
v 0.00026129 0.01082488 0.02014696
v 0.00026440 0.01082372 0.02014666
v 0.00396383 0.01082372 0.02020923
v 0.00396383 0.01281472 0.02020937
v 0.00237880 0.01281472 0.02022055
v 0.00026129 0.01136726 0.02023783
v 0.00026129 0.01136473 0.02023649
v 0.00290685 0.01281472 0.02020937
f 1 2 5
f 1 5 3
f 1 3 8
f 1 8 14
f 1 14 20
f 1 20 27
f 1 27 31
f 1 31 28
f 1 28 21
f 1 21 15
f 1 15 9
f 1 9 4
f 1 4 10
f 1 10 17
f 1 17 11
f 1 11 6
f 1 6 2
f 2 6 12
f 2 12 18
f 2 18 25
f 2 25 26
f 2 26 19
f 2 19 13
f 2 13 7
f 2 7 5
f 3 5 7
f 3 7 8
f 4 9 10
f 6 11 12
f 7 13 8
f 8 13 14
f 9 15 10
f 10 16 17
f 10 15 16
f 11 17 16
f 11 16 23
f 11 23 22
f 11 22 29
f 11 29 30
f 11 30 24
f 11 24 18
f 11 18 12
f 13 19 14
f 14 19 20
f 15 21 22
f 15 22 23
f 15 23 16
f 18 24 25
f 19 26 20
f 20 26 27
f 21 28 22
f 22 28 29
f 24 30 28
f 24 28 25
f 25 28 31
f 25 31 27
f 25 27 26
f 28 30 29

