# https://github.com/mikedh/trimesh
v -0.00317143 0.01419371 0.02020994
v -0.00468052 0.01442538 0.02074961
v -0.00396380 0.01436518 0.02020994
v -0.00173768 0.01638583 0.02020994
v -0.00170001 0.01539024 0.02044123
v -0.00203550 0.01419371 0.02066031
v -0.00170001 0.01419371 0.02677202
v -0.00470354 0.01455615 0.02558861
v -0.00472866 0.01466452 0.02175763
v -0.00458424 0.01532921 0.02096548
v -0.00444430 0.01506516 0.02045922
v -0.00475467 0.01451879 0.02281512
v -0.00343515 0.01585773 0.02021059
v -0.00290740 0.01638583 0.02020994
v -0.00396380 0.01506516 0.02021316
v -0.00177506 0.01744245 0.02021187
v -0.00175712 0.01837451 0.02075025
v -0.00172841 0.01811711 0.02609359
v -0.00170001 0.01419371 0.02187713
v -0.00176968 0.01618073 0.02677202
v -0.00276029 0.01462217 0.02677202
v -0.00450500 0.01559368 0.02545627
v -0.00466138 0.01506516 0.02466411
v -0.00429928 0.01532921 0.02616554
v -0.00470055 0.01485757 0.02373833
v -0.00441410 0.01582119 0.02466411
v -0.00438151 0.01588762 0.02347492
v -0.00422244 0.01624716 0.02122953
v -0.00415576 0.01582949 0.02042902
v -0.00264308 0.01717840 0.02023500
v -0.00269182 0.01777251 0.02061469
v -0.00292355 0.01777874 0.02149358
v -0.00178762 0.01843513 0.02144925
v -0.00178702 0.01843430 0.02466411
v -0.00237876 0.01814492 0.02519222
v -0.00241344 0.01788336 0.02607431
v -0.00293880 0.01741961 0.02609744
v -0.00227022 0.01566052 0.02677202
v -0.00411270 0.01634390 0.02568434
v -0.00357688 0.01688819 0.02605889
v -0.00408280 0.01648132 0.02426707
v -0.00351259 0.01723943 0.02149358
v -0.00358974 0.01690812 0.02062690
v -0.00297946 0.01773058 0.02453177
v -0.00269062 0.01795187 0.02228637
v -0.00251929 0.01806396 0.02413473
v -0.00187463 0.01839776 0.02360663
v -0.00363070 0.01710782 0.02519222
f 1 2 3
f 1 3 14
f 1 14 4
f 1 4 5
f 1 5 6
f 1 6 19
f 1 19 7
f 1 7 8
f 1 8 2
f 2 9 10
f 2 10 11
f 2 11 3
f 2 8 12
f 2 12 9
f 3 13 14
f 3 11 15
f 3 15 13
f 4 16 17
f 4 17 5
f 4 14 16
f 5 17 18
f 5 18 7
f 5 7 19
f 5 19 6
f 7 18 20
f 7 20 38
f 7 38 21
f 7 21 8
f 8 22 23
f 8 23 12
f 8 21 24
f 8 24 22
f 9 12 25
f 9 25 10
f 10 25 23
f 10 23 22
f 10 22 26
f 10 26 27
f 10 27 28
f 10 28 29
f 10 29 11
f 11 29 15
f 12 23 25
f 13 15 29
f 13 29 30
f 13 30 14
f 14 30 16
f 16 30 17
f 17 30 31
f 17 31 32
f 17 32 33
f 17 33 34
f 17 34 18
f 18 34 35
f 18 35 36
f 18 36 20
f 20 37 38
f 20 36 37
f 21 38 24
f 22 24 39
f 22 39 26
f 24 38 40
f 24 40 39
f 26 41 28
f 26 28 27
f 26 39 41
f 28 42 43
f 28 43 29
f 28 41 42
f 29 43 30
f 30 43 31
f 31 43 42
f 31 42 32
f 32 42 44
f 32 44 45
f 32 45 33
f 33 45 46
f 33 46 35
f 33 35 47
f 33 47 34
f 34 47 35
f 35 46 44
f 35 44 48
f 35 48 36
f 36 40 37
f 36 48 40
f 37 40 38
f 39 40 48
f 39 48 41
f 41 48 42
f 42 48 44
f 44 46 45

