# https://github.com/mikedh/trimesh
v -0.00343540 -0.01559103 0.02020930
v -0.00343540 -0.01465920 0.02020930
v -0.00343303 -0.01559332 0.02020930
v -0.00396173 -0.01559332 0.02023624
v -0.00396370 -0.01506253 0.02021255
v -0.00396370 -0.01465920 0.02021023
v -0.00383854 -0.01465920 0.02020946
v -0.00290670 -0.01465920 0.02020930
v -0.00290433 -0.01559332 0.02020930
v -0.00396410 -0.01559332 0.02023717
v -0.00396370 -0.01559103 0.02023624
v -0.00444502 -0.01506253 0.02045809
v -0.00451531 -0.01465920 0.02047946
v -0.00439646 -0.01465920 0.02041893
v -0.00278153 -0.01465920 0.02021271
v -0.00237642 -0.01559332 0.02021178
v -0.00436763 -0.01559332 0.02048225
v -0.00436803 -0.01559103 0.02048178
v -0.00473247 -0.01465920 0.02095212
v -0.00237879 -0.01465920 0.02023020
v -0.00184772 -0.01559332 0.02028021
v -0.00450662 -0.01559332 0.02096218
v -0.00450820 -0.01559103 0.02096451
v -0.00466179 -0.01506253 0.02096451
v -0.00473761 -0.01465920 0.02096451
v -0.00226112 -0.01465920 0.02028609
v -0.00132612 -0.01559332 0.02047110
v -0.00133639 -0.01559332 0.02046692
v -0.00450701 -0.01559332 0.02096451
v -0.00450780 -0.01559195 0.02179077
v -0.00450820 -0.01559103 0.02149290
v -0.00466179 -0.01506253 0.02179077
v -0.00470483 -0.01483521 0.02179077
v -0.00473800 -0.01465920 0.02179077
v -0.00196459 -0.01465920 0.02047652
v -0.00107776 -0.01559332 0.02076851
v -0.00450701 -0.01559332 0.02149290
v -0.00430564 -0.01559332 0.02179077
v -0.00172018 -0.01465920 0.02179077
v -0.00192432 -0.01465920 0.02060873
v -0.00070463 -0.01559332 0.02179077
v -0.00100077 -0.01559332 0.02096451
v -0.00183785 -0.01465920 0.02096451
f 1 2 8
f 1 8 9
f 1 9 3
f 1 3 4
f 1 4 5
f 1 5 6
f 1 6 7
f 1 7 2
f 2 7 6
f 2 6 14
f 2 14 13
f 2 13 19
f 2 19 25
f 2 25 34
f 2 34 39
f 2 39 43
f 2 43 40
f 2 40 35
f 2 35 26
f 2 26 20
f 2 20 15
f 2 15 8
f 3 9 16
f 3 16 21
f 3 21 28
f 3 28 27
f 3 27 36
f 3 36 42
f 3 42 41
f 3 41 38
f 3 38 37
f 3 37 29
f 3 29 22
f 3 22 17
f 3 17 10
f 3 10 4
f 4 10 11
f 4 11 5
f 5 11 12
f 5 12 13
f 5 13 14
f 5 14 6
f 8 15 16
f 8 16 9
f 10 17 18
f 10 18 11
f 11 18 12
f 12 18 19
f 12 19 13
f 15 20 16
f 16 20 21
f 17 22 23
f 17 23 24
f 17 24 18
f 18 24 25
f 18 25 19
f 20 26 27
f 20 27 28
f 20 28 21
f 22 29 23
f 23 29 30
f 23 30 31
f 23 31 32
f 23 32 24
f 24 32 33
f 24 33 34
f 24 34 25
f 26 35 27
f 27 35 36
f 29 37 30
f 30 32 31
f 30 37 38
f 30 38 41
f 30 41 39
f 30 39 34
f 30 34 33
f 30 33 32
f 35 40 41
f 35 41 42
f 35 42 36
f 39 41 43
f 40 43 41

