# https://github.com/mikedh/trimesh
v 0.00477801 0.01419371 0.02149297
v 0.00477801 0.01419344 0.02149373
v 0.00478626 0.01400730 0.02149297
v 0.00478657 0.01400730 0.02096442
v 0.00477801 0.01419371 0.02096442
v 0.00454704 0.01419371 0.02149373
v 0.00478626 0.01400662 0.02149373
v 0.00479070 0.01347897 0.02149297
v 0.00479070 0.01347897 0.02096442
v 0.00477166 0.01400730 0.02065060
v 0.00476817 0.01419371 0.02066192
v 0.00477484 0.01419371 0.02080386
v 0.00185506 0.01419371 0.02149373
v 0.00479070 0.01347816 0.02149373
v 0.00479070 0.01281472 0.02096442
v 0.00477801 0.01281472 0.02072654
v 0.00477357 0.01347897 0.02064444
v 0.00449247 0.01400730 0.02040518
v 0.00450897 0.01419371 0.02043423
v 0.00188203 0.01419371 0.02096442
v 0.00157460 0.01281472 0.02096442
v 0.00154986 0.01281499 0.02149373
v 0.00479070 0.01281472 0.02149373
v 0.00477357 0.01281472 0.02064444
v 0.00456449 0.01281472 0.02046189
v 0.00449247 0.01347897 0.02039902
v 0.00430624 0.01419371 0.02033616
v 0.00195659 0.01419371 0.02064935
v 0.00169009 0.01281472 0.02056021
v 0.00155557 0.01281472 0.02137379
v 0.00199815 0.01419371 0.02047785
v 0.00155017 0.01281472 0.02149297
v 0.00155176 0.01281472 0.02149373
v 0.00449247 0.01281472 0.02039902
v 0.00409938 0.01281472 0.02025796
v 0.00396391 0.01419371 0.02020943
v 0.00185348 0.01281472 0.02043636
v 0.00224371 0.01419371 0.02031894
v 0.00396391 0.01281472 0.02020943
v 0.00290711 0.01419371 0.02020943
v 0.00237855 0.01419371 0.02023244
v 0.00237855 0.01281472 0.02022049
v 0.00290711 0.01281472 0.02020943
v 0.00272087 0.01419371 0.02021747
f 1 2 3
f 1 3 4
f 1 4 5
f 1 5 12
f 1 12 11
f 1 11 19
f 1 19 27
f 1 27 36
f 1 36 40
f 1 40 44
f 1 44 41
f 1 41 38
f 1 38 31
f 1 31 28
f 1 28 20
f 1 20 13
f 1 13 6
f 1 6 2
f 2 7 3
f 2 6 13
f 2 13 22
f 2 22 33
f 2 33 23
f 2 23 14
f 2 14 7
f 3 7 8
f 3 8 4
f 4 8 9
f 4 9 10
f 4 10 11
f 4 11 12
f 4 12 5
f 7 14 8
f 8 14 23
f 8 23 15
f 8 15 9
f 9 15 16
f 9 16 17
f 9 17 10
f 10 17 18
f 10 18 11
f 11 18 19
f 13 20 21
f 13 21 22
f 15 23 33
f 15 33 32
f 15 32 30
f 15 30 21
f 15 21 29
f 15 29 37
f 15 37 42
f 15 42 43
f 15 43 39
f 15 39 35
f 15 35 34
f 15 34 25
f 15 25 24
f 15 24 16
f 16 24 17
f 17 24 25
f 17 25 26
f 17 26 18
f 18 26 27
f 18 27 19
f 20 28 21
f 21 30 22
f 21 28 31
f 21 31 29
f 22 30 32
f 22 32 33
f 25 34 26
f 26 34 35
f 26 35 36
f 26 36 27
f 29 31 37
f 31 38 37
f 35 39 36
f 36 39 43
f 36 43 40
f 37 38 41
f 37 41 42
f 40 43 42
f 40 42 44
f 41 44 42

