# https://github.com/mikedh/trimesh
v 0.00120540 0.01419371 0.02640590
v 0.00302779 0.01419371 0.02640590
v 0.00120540 0.01419371 0.02657535
v 0.00120540 0.01674243 0.02640590
v 0.00303747 0.01419446 0.02640590
v 0.00303675 0.01419371 0.02640612
v 0.00149126 0.01419371 0.02677267
v 0.00120540 0.01419471 0.02677267
v 0.00120540 0.01671074 0.02648635
v 0.00131910 0.01672122 0.02640590
v 0.00302205 0.01453379 0.02640590
v 0.00290997 0.01419371 0.02664655
v 0.00291194 0.01419371 0.02664281
v 0.00283500 0.01419371 0.02677267
v 0.00120540 0.01652910 0.02677267
v 0.00177012 0.01659323 0.02640590
v 0.00302187 0.01453603 0.02640590
v 0.00280380 0.01453603 0.02677267
v 0.00130924 0.01649292 0.02677267
v 0.00133721 0.01648195 0.02677267
v 0.00155313 0.01636518 0.02677267
v 0.00180438 0.01657102 0.02640590
v 0.00280183 0.01454377 0.02677267
v 0.00288809 0.01503455 0.02640590
v 0.00184724 0.01612415 0.02677267
v 0.00204809 0.01634497 0.02640590
v 0.00213435 0.01587764 0.02677267
v 0.00288360 0.01504952 0.02640590
v 0.00270068 0.01487911 0.02677267
v 0.00231583 0.01609496 0.02640590
v 0.00227782 0.01566980 0.02677267
v 0.00234453 0.01606552 0.02640590
f 1 2 6
f 1 6 13
f 1 13 12
f 1 12 14
f 1 14 7
f 1 7 3
f 1 3 8
f 1 8 15
f 1 15 9
f 1 9 4
f 1 4 10
f 1 10 16
f 1 16 22
f 1 22 26
f 1 26 30
f 1 30 32
f 1 32 28
f 1 28 24
f 1 24 17
f 1 17 11
f 1 11 5
f 1 5 2
f 2 5 6
f 3 7 8
f 4 9 10
f 5 11 12
f 5 12 13
f 5 13 6
f 7 14 18
f 7 18 23
f 7 23 29
f 7 29 31
f 7 31 27
f 7 27 25
f 7 25 21
f 7 21 20
f 7 20 19
f 7 19 15
f 7 15 8
f 9 15 16
f 9 16 10
f 11 17 12
f 12 17 14
f 14 17 18
f 15 19 16
f 16 19 20
f 16 20 21
f 16 21 22
f 17 23 18
f 17 24 23
f 21 25 22
f 22 25 27
f 22 27 26
f 23 24 28
f 23 28 29
f 26 27 30
f 27 31 32
f 27 32 30
f 28 32 29
f 29 32 31

