# https://github.com/mikedh/trimesh
v -0.00239164 -0.00923489 0.01870930
v -0.00031882 -0.00988754 0.01879927
v -0.00291971 -0.00923489 0.01872095
v -0.00424533 -0.00922112 0.01901376
v 0.00413379 -0.00922112 0.01893423
v 0.00237782 -0.00923489 0.01870930
v 0.00026354 -0.00988754 0.01879847
v -0.00209848 -0.00999814 0.01903425
v -0.00084492 -0.00988754 0.01881333
v 0.00202347 -0.00999814 0.01902220
v -0.00184974 -0.00977694 0.01883703
v -0.00290688 -0.00968802 0.01892419
v -0.00352478 -0.00940345 0.01890049
v -0.00449999 -0.00999814 0.02036577
v -0.00460857 -0.00922112 0.01949376
v 0.00451973 -0.00922112 0.01933429
v 0.00455231 -0.00999814 0.02041196
v 0.00360078 -0.00957194 0.01902140
v 0.00290688 -0.00968802 0.01892419
v 0.00343496 -0.00923489 0.01877919
v 0.00290688 -0.00923489 0.01872095
v 0.00079261 -0.00988754 0.01881052
v -0.00136707 -0.00988754 0.01884707
v 0.00132068 -0.00988754 0.01884185
v 0.00184974 -0.00977694 0.01883703
v -0.00478130 -0.00999814 0.02077065
v -0.00488396 -0.00922112 0.02021836
v 0.00495799 -0.00922112 0.02043245
v 0.00478328 -0.00999814 0.02080439
v -0.00478328 -0.00999814 0.02218331
v -0.00504189 -0.00922112 0.02149245
v -0.00503991 -0.00922112 0.02096385
v 0.00503695 -0.00922112 0.02094096
v 0.00504189 -0.00922112 0.02149245
v 0.00475169 -0.00999814 0.02224356
v -0.00496588 -0.00922112 0.02223232
v -0.00449210 -0.00999814 0.02259743
v 0.00497279 -0.00922112 0.02222027
v 0.00450789 -0.00922112 0.02268700
v 0.00418019 -0.00999814 0.02271873
v -0.00449210 -0.00922112 0.02269222
v -0.00397784 -0.00999814 0.02279425
v 0.00398968 -0.00922112 0.02279023
v 0.00353169 -0.00988777 0.02281272
v -0.00396303 -0.00922112 0.02279023
v -0.00350109 -0.00989135 0.02281272
v 0.00277659 -0.00925870 0.02281272
v -0.00262853 -0.00930244 0.02281272
f 1 2 3
f 1 3 4
f 1 4 5
f 1 5 6
f 1 6 7
f 1 7 2
f 2 8 9
f 2 9 3
f 2 7 10
f 2 10 8
f 3 9 11
f 3 11 12
f 3 12 13
f 3 13 4
f 4 13 12
f 4 12 14
f 4 14 15
f 4 15 27
f 4 27 32
f 4 32 31
f 4 31 36
f 4 36 41
f 4 41 45
f 4 45 43
f 4 43 39
f 4 39 38
f 4 38 34
f 4 34 33
f 4 33 28
f 4 28 16
f 4 16 5
f 5 16 17
f 5 17 18
f 5 18 19
f 5 19 20
f 5 20 21
f 5 21 6
f 6 21 7
f 7 21 22
f 7 22 10
f 8 14 12
f 8 12 23
f 8 23 9
f 8 10 17
f 8 17 29
f 8 29 35
f 8 35 40
f 8 40 42
f 8 42 37
f 8 37 30
f 8 30 26
f 8 26 14
f 9 23 11
f 10 22 24
f 10 24 25
f 10 25 19
f 10 19 18
f 10 18 17
f 11 23 12
f 14 26 15
f 15 26 27
f 16 28 29
f 16 29 17
f 19 25 20
f 20 25 21
f 21 25 24
f 21 24 22
f 26 30 31
f 26 31 32
f 26 32 27
f 28 33 29
f 29 33 34
f 29 34 35
f 30 36 31
f 30 37 36
f 34 38 35
f 35 38 39
f 35 39 40
f 36 37 41
f 37 42 41
f 39 43 40
f 40 43 44
f 40 44 42
f 41 42 45
f 42 46 45
f 42 44 46
f 43 47 44
f 43 45 47
f 44 47 48
f 44 48 46
f 45 46 48
f 45 48 47

