# https://github.com/mikedh/trimesh
v 0.00284610 -0.01398153 0.02678309
v 0.00277490 -0.01398153 0.02942115
v 0.00280077 -0.01453558 0.02678309
v 0.00077875 -0.01395706 0.02678309
v 0.00184956 -0.01395706 0.03009070
v 0.00272511 -0.01453420 0.02942115
v 0.00270870 -0.01398153 0.02980708
v 0.00266838 -0.01467966 0.02973617
v 0.00269841 -0.01487598 0.02678309
v 0.00260218 -0.01497057 0.02942115
v 0.00000471 -0.01482869 0.02678309
v 0.00077875 -0.01395706 0.02889211
v 0.00132166 -0.01395706 0.03005929
v 0.00000471 -0.01559088 0.03009070
v 0.00184956 -0.01453420 0.03009070
v 0.00237828 -0.01398153 0.03000976
v 0.00237828 -0.01453420 0.02996670
v 0.00239275 -0.01502611 0.02985435
v 0.00222615 -0.01548997 0.02980934
v 0.00227148 -0.01565137 0.02678309
v 0.00228261 -0.01557164 0.02942115
v 0.00000471 -0.01482924 0.02900867
v 0.00013460 -0.01676607 0.02678309
v 0.00078376 -0.01395706 0.02942115
v 0.00091837 -0.01395706 0.02985726
v 0.00000471 -0.01515809 0.02993885
v 0.00013460 -0.01617518 0.03006188
v 0.00079321 -0.01559088 0.03009070
v 0.00013460 -0.01676415 0.02942115
v 0.00013460 -0.01659725 0.02982715
v 0.00132166 -0.01506268 0.03009070
v 0.00132166 -0.01559088 0.03008681
v 0.00184956 -0.01506268 0.03008228
v 0.00189573 -0.01563598 0.02991878
v 0.00175054 -0.01600058 0.02981550
v 0.00209765 -0.01583588 0.02942115
v 0.00183203 -0.01613283 0.02678309
v 0.00210210 -0.01584192 0.02699710
v 0.00000471 -0.01485288 0.02947522
v 0.00079321 -0.01667094 0.02678309
v 0.00079321 -0.01611936 0.03006091
v 0.00079321 -0.01652108 0.02985823
v 0.00079321 -0.01665911 0.02942115
v 0.00134419 -0.01615373 0.02990453
v 0.00118315 -0.01644904 0.02978539
v 0.00183315 -0.01607344 0.02942115
v 0.00137784 -0.01640972 0.02942115
v 0.00145127 -0.01640642 0.02683651
f 1 2 3
f 1 3 9
f 1 9 20
f 1 20 37
f 1 37 40
f 1 40 23
f 1 23 11
f 1 11 4
f 1 4 5
f 1 5 2
f 2 6 3
f 2 5 7
f 2 7 8
f 2 8 6
f 3 6 10
f 3 10 9
f 4 11 12
f 4 12 24
f 4 24 25
f 4 25 13
f 4 13 5
f 5 13 14
f 5 14 28
f 5 28 31
f 5 31 15
f 5 15 16
f 5 16 7
f 6 8 10
f 7 16 17
f 7 17 8
f 8 17 18
f 8 18 19
f 8 19 10
f 9 10 21
f 9 21 20
f 10 19 21
f 11 22 12
f 11 23 14
f 11 14 26
f 11 26 39
f 11 39 22
f 12 22 24
f 13 25 26
f 13 26 14
f 14 27 28
f 14 23 29
f 14 29 30
f 14 30 27
f 15 31 32
f 15 32 33
f 15 33 16
f 16 33 17
f 17 33 18
f 18 34 19
f 18 33 34
f 19 34 35
f 19 35 36
f 19 36 21
f 20 21 36
f 20 36 38
f 20 38 37
f 22 39 24
f 23 40 29
f 24 39 25
f 25 39 26
f 27 41 28
f 27 30 42
f 27 42 41
f 28 32 31
f 28 41 32
f 29 40 43
f 29 43 42
f 29 42 30
f 32 41 44
f 32 44 34
f 32 34 33
f 34 44 35
f 35 45 46
f 35 46 36
f 35 44 45
f 36 46 37
f 36 37 38
f 37 46 47
f 37 47 48
f 37 48 40
f 40 48 43
f 41 42 44
f 42 43 45
f 42 45 44
f 43 48 47
f 43 47 45
f 45 47 46

