# https://github.com/mikedh/trimesh
v 0.00753363 -0.00286698 0.01870930
v 0.00753363 -0.00184891 0.01870930
v 0.00854623 -0.00286698 0.01870930
v 0.00753363 -0.00286698 0.02279070
v 0.00753363 -0.00171866 0.01871210
v 0.00854623 -0.00184891 0.01870930
v 0.00854623 -0.00286698 0.02279070
v 0.00753363 -0.00184891 0.02279070
v 0.00753363 -0.00132041 0.01873647
v 0.00854623 -0.00132041 0.01872528
v 0.00854623 -0.00184891 0.02279070
v 0.00854623 -0.00149532 0.02278790
v 0.00753363 -0.00132041 0.02277672
v 0.00753363 -0.00116783 0.01878081
v 0.00854623 -0.00082088 0.01890546
v 0.00854623 -0.00132041 0.02278151
v 0.00854623 -0.00094693 0.02264048
v 0.00753363 -0.00084476 0.02253781
v 0.00753363 -0.00084985 0.01892943
v 0.00753363 -0.00073066 0.01914397
v 0.00854623 -0.00061789 0.01937888
v 0.00854623 -0.00082088 0.02256138
v 0.00753363 -0.00062762 0.02202124
v 0.00753363 -0.00063381 0.01937888
v 0.00753363 -0.00062740 0.01962937
v 0.00854623 -0.00060794 0.01990743
v 0.00854623 -0.00061921 0.02202644
v 0.00854623 -0.00061789 0.02202124
v 0.00854623 -0.00060794 0.02149269
v 0.00753363 -0.00062275 0.02149269
v 0.00753363 -0.00062275 0.01990743
f 1 2 6
f 1 6 3
f 1 3 7
f 1 7 4
f 1 4 8
f 1 8 13
f 1 13 18
f 1 18 23
f 1 23 30
f 1 30 31
f 1 31 25
f 1 25 24
f 1 24 20
f 1 20 19
f 1 19 14
f 1 14 9
f 1 9 5
f 1 5 2
f 2 5 6
f 3 6 10
f 3 10 15
f 3 15 21
f 3 21 26
f 3 26 29
f 3 29 28
f 3 28 27
f 3 27 22
f 3 22 17
f 3 17 16
f 3 16 12
f 3 12 11
f 3 11 7
f 4 7 11
f 4 11 8
f 5 9 10
f 5 10 6
f 8 12 13
f 8 11 12
f 9 14 10
f 10 14 15
f 12 16 13
f 13 16 17
f 13 17 18
f 14 19 15
f 15 19 20
f 15 20 21
f 17 22 18
f 18 22 23
f 20 24 21
f 21 24 25
f 21 25 26
f 22 27 23
f 23 27 28
f 23 28 29
f 23 29 30
f 25 31 26
f 26 31 30
f 26 30 29

