# https://github.com/mikedh/trimesh
v 0.00284607 0.00896994 0.02279487
v 0.00184974 0.00896994 0.02280612
v 0.00284607 0.00825879 0.02279046
v 0.00284607 0.00896994 0.01871372
v 0.00132160 0.00896994 0.02281134
v 0.00184974 0.00825879 0.02279126
v 0.00284607 0.00825879 0.01870930
v 0.00284607 0.00878286 0.01870930
v 0.00265874 0.00896994 0.01870930
v 0.00079069 0.00896994 0.02277118
v 0.00132160 0.00825879 0.02277520
v 0.00184974 0.00825879 0.01870930
v 0.00160163 0.00896994 0.01870930
v 0.00001083 0.00896994 0.02261338
v 0.00090115 0.00825879 0.02252786
v 0.00178452 0.00825879 0.01871051
v 0.00132160 0.00896994 0.01871412
v 0.00001083 0.00887017 0.02249413
v 0.00001083 0.00896994 0.01891288
v 0.00001083 0.00874825 0.02202153
v 0.00074712 0.00825879 0.02202153
v 0.00132160 0.00825879 0.01873741
v 0.00107349 0.00896994 0.01871974
v 0.00125250 0.00825879 0.01875869
v 0.00001083 0.00891814 0.01894018
v 0.00001083 0.00874540 0.02176776
v 0.00001083 0.00874233 0.02149271
v 0.00074184 0.00825879 0.02149271
v 0.00090115 0.00825879 0.01893576
v 0.00001083 0.00887044 0.01896588
v 0.00001083 0.00874233 0.01990747
v 0.00074184 0.00825879 0.01990747
v 0.00086396 0.00825879 0.01902249
v 0.00001083 0.00880695 0.01918070
v 0.00001083 0.00874853 0.01937905
v 0.00074712 0.00825879 0.01937905
v 0.00074573 0.00825879 0.01947743
f 1 2 3
f 1 3 7
f 1 7 8
f 1 8 4
f 1 4 9
f 1 9 13
f 1 13 17
f 1 17 23
f 1 23 19
f 1 19 14
f 1 14 10
f 1 10 5
f 1 5 2
f 2 5 3
f 3 5 6
f 3 6 11
f 3 11 15
f 3 15 21
f 3 21 28
f 3 28 32
f 3 32 37
f 3 37 36
f 3 36 33
f 3 33 29
f 3 29 24
f 3 24 22
f 3 22 16
f 3 16 12
f 3 12 7
f 4 8 9
f 5 10 11
f 5 11 6
f 7 12 13
f 7 13 9
f 7 9 8
f 10 14 11
f 11 14 15
f 12 16 17
f 12 17 13
f 14 18 15
f 14 19 25
f 14 25 30
f 14 30 34
f 14 34 35
f 14 35 31
f 14 31 27
f 14 27 26
f 14 26 20
f 14 20 18
f 15 18 20
f 15 20 21
f 16 22 23
f 16 23 17
f 19 23 22
f 19 22 24
f 19 24 25
f 20 26 21
f 21 26 27
f 21 27 28
f 24 29 30
f 24 30 25
f 27 31 32
f 27 32 28
f 29 33 30
f 30 33 34
f 31 35 36
f 31 36 37
f 31 37 32
f 33 36 35
f 33 35 34

