# https://github.com/mikedh/trimesh
v -0.00170626 -0.01465920 0.02678309
v -0.00170626 -0.01392650 0.02678245
v -0.00278287 -0.01459651 0.02678309
v -0.00473398 -0.01465642 0.02571427
v -0.00473791 -0.01465920 0.02465060
v -0.00170626 -0.01465920 0.02182637
v -0.00450503 -0.01384954 0.02614604
v -0.00284169 -0.01392634 0.02678180
v -0.00170626 -0.01384954 0.02360687
v -0.00449206 -0.01400551 0.02615891
v -0.00452283 -0.01459294 0.02611837
v -0.00473911 -0.01465389 0.02519241
v -0.00476506 -0.01434575 0.02599933
v -0.00476928 -0.01438403 0.02572135
v -0.00473881 -0.01465420 0.02148725
v -0.00473549 -0.01465658 0.02095895
v -0.00445586 -0.01465920 0.02044932
v -0.00170686 -0.01384978 0.02187527
v -0.00183778 -0.01465920 0.02096475
v -0.00477531 -0.01384954 0.02578505
v -0.00476807 -0.01392753 0.02600448
v -0.00188273 -0.01384954 0.02096475
v -0.00474002 -0.01464881 0.02466411
v -0.00474002 -0.01464905 0.02360687
v -0.00478195 -0.01400551 0.02572135
v -0.00478708 -0.01392753 0.02202198
v -0.00476958 -0.01438506 0.02202198
v -0.00476958 -0.01438466 0.02096475
v -0.00476536 -0.01434615 0.02067132
v -0.00453851 -0.01452692 0.02048664
v -0.00449206 -0.01400551 0.02040621
v -0.00393248 -0.01459651 0.02021059
v -0.00343505 -0.01465920 0.02020930
v -0.00194457 -0.01465920 0.02054327
v -0.00199886 -0.01384954 0.02047892
v -0.00478798 -0.01384954 0.02157155
v -0.00476958 -0.01438498 0.02149304
v -0.00478708 -0.01392753 0.02096475
v -0.00477139 -0.01400551 0.02065137
v -0.00453368 -0.01384954 0.02043967
v -0.00411951 -0.01384954 0.02026528
v -0.00396386 -0.01392753 0.02020930
v -0.00290715 -0.01384954 0.02020930
v -0.00284471 -0.01465920 0.02021123
v -0.00231983 -0.01465920 0.02025885
v -0.00237865 -0.01384954 0.02023311
v -0.00477471 -0.01384954 0.02069642
f 1 2 3
f 1 3 4
f 1 4 5
f 1 5 17
f 1 17 33
f 1 33 44
f 1 44 45
f 1 45 34
f 1 34 19
f 1 19 6
f 1 6 9
f 1 9 2
f 2 7 8
f 2 8 3
f 2 9 7
f 3 8 10
f 3 10 11
f 3 11 4
f 4 12 5
f 4 11 13
f 4 13 14
f 4 14 12
f 5 12 15
f 5 15 16
f 5 16 17
f 6 18 9
f 6 19 18
f 7 10 8
f 7 9 22
f 7 22 35
f 7 35 46
f 7 46 43
f 7 43 41
f 7 41 40
f 7 40 47
f 7 47 36
f 7 36 20
f 7 20 21
f 7 21 10
f 9 18 22
f 10 21 13
f 10 13 11
f 12 23 24
f 12 24 15
f 12 14 23
f 13 21 25
f 13 25 14
f 14 25 26
f 14 26 27
f 14 27 23
f 15 28 16
f 15 24 28
f 16 28 29
f 16 29 17
f 17 29 30
f 17 30 31
f 17 31 32
f 17 32 33
f 18 19 22
f 19 34 35
f 19 35 22
f 20 25 21
f 20 36 25
f 23 27 24
f 24 27 37
f 24 37 28
f 25 36 26
f 26 36 38
f 26 38 27
f 27 38 37
f 28 37 38
f 28 38 29
f 29 39 31
f 29 31 30
f 29 38 39
f 31 40 41
f 31 41 32
f 31 39 40
f 32 42 33
f 32 41 42
f 33 42 43
f 33 43 44
f 34 45 35
f 35 45 46
f 36 47 38
f 38 47 39
f 39 47 40
f 41 43 42
f 43 46 44
f 44 46 45

