# https://github.com/mikedh/trimesh
v -0.00348074 0.00987954 0.01986079
v -0.00385893 0.00978117 0.01990290
v -0.00395747 0.01082372 0.02020931
v -0.00271026 0.01013855 0.01986079
v 0.00348074 0.00987954 0.01986079
v -0.00448582 0.00978117 0.02029565
v -0.00448582 0.01082372 0.02039684
v 0.00385800 0.00978117 0.01990290
v -0.00036224 0.01082372 0.02014810
v -0.00026558 0.01043164 0.01986079
v -0.00078455 0.01041317 0.01986079
v -0.00176993 0.01034816 0.01986079
v -0.00233582 0.01023907 0.01986079
v 0.00290640 0.01006538 0.01986079
v 0.00396404 0.01082372 0.02020967
v -0.00478425 0.00978117 0.02080516
v -0.00478144 0.01082372 0.02080091
v 0.00449521 0.01082372 0.02040215
v 0.00421649 0.00978117 0.02009963
v 0.00026371 0.01082372 0.02014704
v 0.00026183 0.01043164 0.01986079
v 0.00233957 0.01023856 0.01986079
v 0.00181498 0.01034102 0.01986079
v 0.00132135 0.01037786 0.01986079
v 0.00079206 0.01041276 0.01986079
v -0.00479364 0.00978117 0.02202127
v -0.00478988 0.01082372 0.02202127
v 0.00478144 0.01082372 0.02080658
v 0.00477393 0.00978117 0.02064381
v 0.00449521 0.00978117 0.02031192
v -0.00477487 0.00978117 0.02234537
v -0.00477299 0.01082372 0.02234148
v 0.00478144 0.01082372 0.02218721
v 0.00479364 0.00978117 0.02149123
v 0.00479270 0.00978117 0.02096367
v -0.00449239 0.00978117 0.02259765
v -0.00357083 0.01073156 0.02347550
v 0.00361024 0.01082372 0.02347550
v 0.00446518 0.01082372 0.02264683
v 0.00477487 0.00978117 0.02234396
v 0.00479364 0.00978117 0.02202127
v -0.00240808 0.00981056 0.02347550
v -0.00281443 0.01005170 0.02347550
v -0.00329961 0.01044695 0.02347550
v 0.00449239 0.00978117 0.02259765
v 0.00234520 0.00979270 0.02347550
v 0.00329961 0.01044695 0.02347550
v 0.00271120 0.00997221 0.02347550
f 1 2 3
f 1 3 4
f 1 4 13
f 1 13 12
f 1 12 11
f 1 11 10
f 1 10 21
f 1 21 25
f 1 25 24
f 1 24 23
f 1 23 22
f 1 22 14
f 1 14 5
f 1 5 8
f 1 8 2
f 2 6 7
f 2 7 3
f 2 8 19
f 2 19 30
f 2 30 29
f 2 29 35
f 2 35 34
f 2 34 41
f 2 41 40
f 2 40 45
f 2 45 36
f 2 36 31
f 2 31 26
f 2 26 16
f 2 16 6
f 3 7 17
f 3 17 27
f 3 27 32
f 3 32 38
f 3 38 39
f 3 39 33
f 3 33 28
f 3 28 18
f 3 18 15
f 3 15 20
f 3 20 9
f 3 9 10
f 3 10 11
f 3 11 12
f 3 12 13
f 3 13 4
f 5 14 15
f 5 15 8
f 6 16 17
f 6 17 7
f 8 15 18
f 8 18 19
f 9 20 10
f 10 20 21
f 14 22 15
f 15 22 23
f 15 23 24
f 15 24 25
f 15 25 21
f 15 21 20
f 16 26 17
f 17 26 27
f 18 28 29
f 18 29 30
f 18 30 19
f 26 31 32
f 26 32 27
f 28 33 41
f 28 41 34
f 28 34 35
f 28 35 29
f 31 36 37
f 31 37 32
f 32 37 38
f 33 39 40
f 33 40 41
f 36 42 43
f 36 43 44
f 36 44 37
f 36 45 46
f 36 46 42
f 37 44 43
f 37 43 42
f 37 42 46
f 37 46 48
f 37 48 47
f 37 47 38
f 38 47 45
f 38 45 40
f 38 40 39
f 45 47 48
f 45 48 46

