# https://github.com/mikedh/trimesh
v 0.00284607 0.00729251 0.02279070
v 0.00284607 0.00729251 0.01870930
v 0.00184946 0.00729251 0.02279070
v 0.00284607 0.00449370 0.02279070
v 0.00184946 0.00729251 0.01870930
v 0.00284607 0.00399572 0.01871050
v 0.00001083 0.00502252 0.01870930
v 0.00139959 0.00729251 0.02278551
v 0.00001083 0.00660768 0.02278231
v 0.00001083 0.00607842 0.02279070
v 0.00184946 0.00449370 0.02279070
v 0.00284607 0.00396531 0.02278990
v 0.00001083 0.00607842 0.01870930
v 0.00132160 0.00729251 0.01872648
v 0.00284607 0.00346689 0.01876124
v 0.00237815 0.00396531 0.01872209
v 0.00001083 0.00449370 0.01874046
v 0.00082871 0.00729251 0.02259813
v 0.00001083 0.00706336 0.02253022
v 0.00001083 0.00684477 0.02265127
v 0.00001083 0.00502252 0.02279070
v 0.00237815 0.00396531 0.02278431
v 0.00284607 0.00343604 0.02272598
v 0.00001083 0.00449370 0.02277352
v 0.00001083 0.00671565 0.01877962
v 0.00001083 0.00705807 0.01893343
v 0.00078375 0.00729251 0.01890186
v 0.00284607 0.00298742 0.01895061
v 0.00001083 0.00411030 0.01894341
v 0.00033776 0.00729251 0.02195213
v 0.00001083 0.00725814 0.02202124
v 0.00284607 0.00297112 0.02249466
v 0.00001083 0.00411030 0.02252103
v 0.00001083 0.00725285 0.01937888
v 0.00035192 0.00729251 0.01937888
v 0.00284607 0.00279925 0.01936490
v 0.00001083 0.00401908 0.01927461
v 0.00033055 0.00729251 0.02149229
v 0.00001083 0.00726167 0.02149229
v 0.00284607 0.00279572 0.02199607
v 0.00001083 0.00399043 0.02202124
v 0.00001083 0.00725726 0.01963257
v 0.00001083 0.00726167 0.01990783
v 0.00033055 0.00729251 0.01990783
v 0.00284607 0.00279043 0.01990783
v 0.00001083 0.00398999 0.01990783
v 0.00284607 0.00279043 0.02149229
v 0.00001083 0.00398999 0.02149229
f 1 2 5
f 1 5 14
f 1 14 27
f 1 27 35
f 1 35 44
f 1 44 38
f 1 38 30
f 1 30 18
f 1 18 8
f 1 8 3
f 1 3 10
f 1 10 21
f 1 21 11
f 1 11 4
f 1 4 12
f 1 12 23
f 1 23 32
f 1 32 40
f 1 40 47
f 1 47 45
f 1 45 36
f 1 36 28
f 1 28 15
f 1 15 6
f 1 6 2
f 2 6 7
f 2 7 13
f 2 13 5
f 3 8 9
f 3 9 10
f 4 11 12
f 5 13 14
f 6 15 16
f 6 16 17
f 6 17 7
f 7 17 29
f 7 29 37
f 7 37 46
f 7 46 48
f 7 48 41
f 7 41 33
f 7 33 24
f 7 24 21
f 7 21 10
f 7 10 9
f 7 9 20
f 7 20 19
f 7 19 31
f 7 31 39
f 7 39 43
f 7 43 42
f 7 42 34
f 7 34 26
f 7 26 25
f 7 25 13
f 8 18 19
f 8 19 20
f 8 20 9
f 11 21 12
f 12 22 23
f 12 21 24
f 12 24 22
f 13 25 14
f 14 25 26
f 14 26 27
f 15 28 17
f 15 17 16
f 17 28 29
f 18 30 31
f 18 31 19
f 22 24 23
f 23 24 32
f 24 33 32
f 26 34 27
f 27 34 35
f 28 36 29
f 29 36 37
f 30 38 39
f 30 39 31
f 32 33 40
f 33 41 40
f 34 42 35
f 35 42 43
f 35 43 44
f 36 45 46
f 36 46 37
f 38 44 43
f 38 43 39
f 40 41 47
f 41 48 47
f 45 47 48
f 45 48 46

