# https://github.com/mikedh/trimesh
v -0.00657498 0.00129116 0.01870930
v -0.00710370 0.00129116 0.01871969
v -0.00502183 0.00129116 0.01870930
v -0.00607882 0.00013030 0.01870930
v -0.00840131 0.00129116 0.01874725
v -0.00449311 0.00129116 0.01871370
v -0.00502183 0.00013030 0.01870930
v -0.00647095 0.00013030 0.01872528
v -0.00840131 0.00086228 0.01892064
v -0.00840131 0.00129116 0.02276593
v -0.00660619 0.00013030 0.01873087
v -0.00444381 0.00013030 0.01876643
v -0.00396122 0.00129116 0.01894461
v -0.00840131 0.00068397 0.01937888
v -0.00700013 0.00013030 0.01890786
v -0.00840131 0.00110149 0.02269442
v -0.00660619 0.00013030 0.02278271
v -0.00607882 0.00013030 0.02279070
v -0.00660619 0.00079364 0.02278750
v -0.00660619 0.00129116 0.02279030
v -0.00410957 0.00013030 0.01894341
v -0.00378211 0.00129116 0.01944280
v -0.00722808 0.00013030 0.01932215
v -0.00726155 0.00013030 0.01990783
v -0.00840131 0.00067761 0.01990783
v -0.00840131 0.00086228 0.02254460
v -0.00706254 0.00013030 0.02253022
v -0.00502183 0.00013030 0.02279070
v -0.00607882 0.00129116 0.02279070
v -0.00399016 0.00013030 0.01937888
v -0.00378121 0.00129116 0.01990783
v -0.00726155 0.00013030 0.02149229
v -0.00840131 0.00067761 0.02149229
v -0.00840131 0.00074295 0.02222819
v -0.00725793 0.00013030 0.02202124
v -0.00840131 0.00068386 0.02202124
v -0.00462834 0.00013030 0.02277791
v -0.00450848 0.00129116 0.02278790
v -0.00502183 0.00129116 0.02279070
v -0.00398971 0.00013030 0.01990783
v -0.00378121 0.00129116 0.02149748
v -0.00840131 0.00067954 0.02170683
v -0.00449311 0.00013030 0.02277352
v -0.00398790 0.00129116 0.02251903
v -0.00398971 0.00013030 0.02149229
v -0.00378211 0.00129116 0.02195732
v -0.00399016 0.00013030 0.02202124
v -0.00415841 0.00013030 0.02255339
f 1 2 5
f 1 5 10
f 1 10 20
f 1 20 29
f 1 29 39
f 1 39 38
f 1 38 44
f 1 44 46
f 1 46 41
f 1 41 31
f 1 31 22
f 1 22 13
f 1 13 6
f 1 6 3
f 1 3 7
f 1 7 4
f 1 4 2
f 2 4 5
f 3 6 7
f 4 7 12
f 4 12 21
f 4 21 30
f 4 30 40
f 4 40 45
f 4 45 47
f 4 47 48
f 4 48 43
f 4 43 37
f 4 37 28
f 4 28 18
f 4 18 17
f 4 17 27
f 4 27 35
f 4 35 32
f 4 32 24
f 4 24 23
f 4 23 15
f 4 15 11
f 4 11 8
f 4 8 5
f 5 9 14
f 5 14 25
f 5 25 33
f 5 33 42
f 5 42 36
f 5 36 34
f 5 34 26
f 5 26 16
f 5 16 10
f 5 8 11
f 5 11 9
f 6 12 7
f 6 13 12
f 9 11 15
f 9 15 14
f 10 16 17
f 10 17 18
f 10 18 19
f 10 19 20
f 12 13 21
f 13 22 21
f 14 15 23
f 14 23 24
f 14 24 25
f 16 26 17
f 17 26 27
f 18 20 19
f 18 28 39
f 18 39 29
f 18 29 20
f 21 22 30
f 22 31 30
f 24 32 33
f 24 33 25
f 26 34 27
f 27 34 36
f 27 36 35
f 28 37 38
f 28 38 39
f 30 31 40
f 31 41 45
f 31 45 40
f 32 35 33
f 33 35 42
f 35 36 42
f 37 43 38
f 38 43 44
f 41 46 47
f 41 47 45
f 43 48 44
f 44 48 46
f 46 48 47

