# https://github.com/mikedh/trimesh
v -0.00037643 -0.01465920 0.02678309
v -0.00074546 -0.01384954 0.02678309
v -0.00170626 -0.01465920 0.02678309
v -0.00037643 -0.01465920 0.02307902
v -0.00138604 -0.01384954 0.02678309
v -0.00074546 -0.01384954 0.02307902
v -0.00170626 -0.01400339 0.02678309
v -0.00170626 -0.01465920 0.02182622
v -0.00040806 -0.01465920 0.02255015
v -0.00075158 -0.01384954 0.02255015
v -0.00170626 -0.01384954 0.02678260
v -0.00170626 -0.01384994 0.02187523
v -0.00067699 -0.01465920 0.02215228
v -0.00049085 -0.01465920 0.02233132
v -0.00089256 -0.01384954 0.02215956
v -0.00170626 -0.01384954 0.02360741
v -0.00143498 -0.01384954 0.02197275
v -0.00059433 -0.01465920 0.02220032
f 1 2 5
f 1 5 7
f 1 7 3
f 1 3 8
f 1 8 13
f 1 13 18
f 1 18 14
f 1 14 9
f 1 9 4
f 1 4 6
f 1 6 2
f 2 6 10
f 2 10 15
f 2 15 17
f 2 17 16
f 2 16 11
f 2 11 5
f 3 7 11
f 3 11 16
f 3 16 12
f 3 12 8
f 4 9 10
f 4 10 6
f 5 11 7
f 8 12 13
f 9 14 15
f 9 15 10
f 12 16 17
f 12 17 15
f 12 15 13
f 13 15 18
f 14 18 15

