# https://github.com/mikedh/trimesh
v 0.00479070 -0.01294462 0.02198668
v 0.00479070 -0.01347685 0.02198668
v 0.00479070 -0.01294462 0.02162491
v 0.00098325 -0.01294462 0.02198668
v 0.00478809 -0.01382484 0.02198668
v 0.00478995 -0.01357640 0.02162491
v 0.00479070 -0.01347685 0.02162491
v 0.00161274 -0.01294462 0.02162491
v 0.00180505 -0.01384946 0.02162491
v 0.00139136 -0.01384946 0.02198668
v 0.00478772 -0.01384946 0.02198668
v 0.00478772 -0.01384946 0.02162491
f 1 2 7
f 1 7 3
f 1 3 8
f 1 8 4
f 1 4 10
f 1 10 11
f 1 11 5
f 1 5 2
f 2 5 6
f 2 6 7
f 3 7 6
f 3 6 12
f 3 12 9
f 3 9 8
f 4 8 9
f 4 9 10
f 5 11 12
f 5 12 6
f 9 12 11
f 9 11 10

