# https://github.com/mikedh/trimesh
v 0.00284405 -0.01395679 0.02678309
v 0.00077867 -0.01395679 0.02678309
v 0.00280264 -0.01347649 0.02678309
v 0.00277235 -0.01395679 0.02942115
v 0.00000499 -0.01317644 0.02678309
v 0.00077867 -0.01395679 0.02889211
v 0.00269926 -0.01313071 0.02678309
v 0.00260422 -0.01303658 0.02942115
v 0.00272650 -0.01347649 0.02942115
v 0.00266897 -0.01332994 0.02973779
v 0.00270732 -0.01395679 0.02980481
v 0.00000499 -0.01228564 0.03008973
v 0.00013477 -0.01122503 0.02678309
v 0.00000499 -0.01317644 0.02889211
v 0.00078367 -0.01395679 0.02942115
v 0.00000499 -0.01317457 0.02942115
v 0.00220960 -0.01223644 0.02678309
v 0.00228519 -0.01243326 0.02942115
v 0.00222822 -0.01251697 0.02981032
v 0.00239385 -0.01298336 0.02985597
v 0.00237801 -0.01347649 0.02996799
v 0.00237801 -0.01395679 0.03000781
v 0.00132170 -0.01395679 0.03005929
v 0.00184971 -0.01395679 0.03009070
v 0.00079312 -0.01242016 0.03009070
v 0.00013477 -0.01189146 0.03008714
v 0.00013477 -0.01148845 0.02990939
v 0.00013477 -0.01123600 0.02942115
v 0.00000499 -0.01298496 0.02988964
v 0.00079312 -0.01134029 0.02942115
v 0.00079062 -0.01132960 0.02678309
v 0.00091846 -0.01395679 0.02985726
v 0.00185388 -0.01188023 0.02678309
v 0.00210261 -0.01216905 0.02942115
v 0.00175411 -0.01200645 0.02981582
v 0.00189807 -0.01237256 0.02991975
v 0.00184971 -0.01294806 0.03008293
v 0.00184971 -0.01347649 0.03009070
v 0.00132170 -0.01242016 0.03008714
v 0.00132170 -0.01294806 0.03009070
v 0.00079312 -0.01189146 0.03006415
v 0.00079312 -0.01148390 0.02986147
v 0.00125583 -0.01152348 0.02942115
v 0.00144759 -0.01157750 0.02678309
v 0.00118969 -0.01155798 0.02978895
v 0.00151956 -0.01166736 0.02942115
v 0.00183832 -0.01193157 0.02942115
v 0.00134810 -0.01185482 0.02990712
f 1 2 5
f 1 5 13
f 1 13 31
f 1 31 44
f 1 44 33
f 1 33 17
f 1 17 7
f 1 7 3
f 1 3 4
f 1 4 11
f 1 11 22
f 1 22 24
f 1 24 23
f 1 23 32
f 1 32 15
f 1 15 6
f 1 6 2
f 2 6 14
f 2 14 5
f 3 7 8
f 3 8 9
f 3 9 4
f 4 9 10
f 4 10 11
f 5 12 13
f 5 14 16
f 5 16 29
f 5 29 12
f 6 15 16
f 6 16 14
f 7 17 18
f 7 18 8
f 8 18 19
f 8 19 10
f 8 10 9
f 10 19 20
f 10 20 21
f 10 21 11
f 11 21 22
f 12 23 24
f 12 24 25
f 12 25 26
f 12 26 27
f 12 27 28
f 12 28 13
f 12 29 23
f 13 28 30
f 13 30 31
f 15 32 16
f 16 32 29
f 17 33 34
f 17 34 18
f 18 34 19
f 19 35 36
f 19 36 20
f 19 34 35
f 20 36 37
f 20 37 21
f 21 37 22
f 22 37 38
f 22 38 24
f 23 29 32
f 24 38 40
f 24 40 25
f 25 39 26
f 25 40 39
f 26 39 41
f 26 41 27
f 27 41 42
f 27 42 28
f 28 42 30
f 30 43 44
f 30 44 31
f 30 42 45
f 30 45 43
f 33 44 46
f 33 46 47
f 33 47 34
f 34 47 35
f 35 47 46
f 35 46 45
f 35 45 48
f 35 48 36
f 36 48 39
f 36 39 37
f 37 39 38
f 38 39 40
f 39 48 41
f 41 48 42
f 42 48 45
f 43 45 46
f 43 46 44

