# https://github.com/mikedh/trimesh
v -0.00920124 0.00013008 0.01878960
v -0.01037334 0.00019804 0.02096414
v -0.01028000 0.00019804 0.01937888
v -0.00996940 0.00019804 0.01884114
v -0.00924984 0.00105853 0.01871569
v -0.00856126 0.00132280 0.01872528
v -0.00840131 0.00077355 0.01914996
v -0.00880137 0.00013008 0.01919910
v -0.00911778 0.00013008 0.02263849
v -0.01037953 0.00019804 0.02175677
v -0.01035049 0.00079426 0.02096414
v -0.01025212 0.00079426 0.01937888
v -0.01006468 0.00200127 0.01906926
v -0.00996243 0.00079426 0.01885193
v -0.00924984 0.00237901 0.01870930
v -0.00840131 0.00185046 0.01870930
v -0.00840131 0.00067787 0.01990783
v -0.00874231 0.00013008 0.01990783
v -0.00876361 0.00013008 0.02208157
v -0.00840131 0.00103752 0.02264008
v -0.00840131 0.00174604 0.02278950
v -0.00977789 0.00079426 0.02278351
v -0.00999438 0.00019804 0.02265886
v -0.01019771 0.00079426 0.02253102
v -0.01030053 0.00132280 0.02202124
v -0.01035320 0.00079426 0.02175677
v -0.01030053 0.00132280 0.02096414
v -0.01019751 0.00132280 0.01937888
v -0.01007610 0.00251377 0.02089662
v -0.00983211 0.00300877 0.01937888
v -0.00946110 0.00300877 0.01883435
v -0.00977789 0.00185046 0.01884034
v -0.00994888 0.00132280 0.01887989
v -0.01021959 0.00185046 0.02096414
v -0.00856126 0.00310998 0.01870930
v -0.00856126 0.00310998 0.02279070
v -0.00840131 0.00069625 0.02186224
v -0.00874231 0.00013008 0.02149229
v -0.00924984 0.00132280 0.02279070
v -0.00924984 0.00237901 0.02279070
v -0.00914857 0.00305923 0.02278670
v -0.00977789 0.00237901 0.02262930
v -0.00996456 0.00158678 0.02263289
v -0.01007571 0.00244639 0.02223258
v -0.01021959 0.00185046 0.02202124
v -0.00993358 0.00301168 0.02125298
v -0.00964835 0.00310998 0.02255539
v -0.00992119 0.00301168 0.02206758
f 1 2 3
f 1 3 4
f 1 4 5
f 1 5 6
f 1 6 7
f 1 7 8
f 1 8 18
f 1 18 38
f 1 38 19
f 1 19 9
f 1 9 10
f 1 10 2
f 2 11 3
f 2 10 11
f 3 11 12
f 3 12 13
f 3 13 4
f 4 13 14
f 4 14 15
f 4 15 5
f 5 15 16
f 5 16 6
f 6 16 7
f 7 17 18
f 7 18 8
f 7 16 21
f 7 21 20
f 7 20 37
f 7 37 17
f 9 19 20
f 9 20 21
f 9 21 22
f 9 22 23
f 9 23 10
f 10 23 24
f 10 24 25
f 10 25 26
f 10 26 11
f 11 26 27
f 11 27 12
f 12 27 28
f 12 28 13
f 13 29 30
f 13 30 31
f 13 31 32
f 13 32 33
f 13 33 14
f 13 28 34
f 13 34 29
f 14 33 32
f 14 32 15
f 15 35 16
f 15 32 31
f 15 31 35
f 16 35 36
f 16 36 21
f 17 37 38
f 17 38 18
f 19 38 37
f 19 37 20
f 21 36 39
f 21 39 22
f 22 39 40
f 22 40 41
f 22 41 42
f 22 42 43
f 22 43 24
f 22 24 23
f 24 44 25
f 24 43 44
f 25 44 45
f 25 45 34
f 25 34 27
f 25 27 26
f 27 34 28
f 29 34 45
f 29 45 44
f 29 44 46
f 29 46 30
f 30 35 31
f 30 46 47
f 30 47 35
f 35 47 36
f 36 47 41
f 36 41 40
f 36 40 39
f 41 47 42
f 42 47 44
f 42 44 43
f 44 47 48
f 44 48 46
f 46 48 47

