# https://github.com/mikedh/trimesh
v -0.00554856 0.00752748 0.01870930
v -0.00607821 0.00752748 0.01873928
v -0.00449189 0.00819334 0.01870930
v -0.00185021 0.00838857 0.01870930
v -0.00164986 0.00738983 0.01871610
v -0.00554856 0.00829091 0.01885638
v -0.00501956 0.00829091 0.01875127
v -0.00449189 0.00838857 0.01872729
v -0.00703173 0.00744829 0.01918932
v -0.00659795 0.00752640 0.01887437
v -0.00396355 0.00838857 0.01871090
v -0.00343588 0.00838857 0.01870930
v -0.00132188 0.00838857 0.01873248
v -0.00090529 0.00738983 0.01886877
v -0.00729490 0.00738983 0.02149268
v -0.00649546 0.00794405 0.01920610
v -0.00599225 0.00830723 0.01919811
v -0.00615161 0.00836511 0.02096390
v -0.00612582 0.00837684 0.02207461
v -0.00429616 0.00838857 0.02279004
v -0.00718580 0.00749238 0.02096390
v -0.00086562 0.00838857 0.01892233
v -0.00055682 0.00738983 0.01937237
v -0.00700528 0.00746002 0.02249388
v -0.00717786 0.00749238 0.02204743
v -0.00665680 0.00796829 0.02202105
v -0.00185021 0.00738983 0.02279004
v -0.00665680 0.00796829 0.02096390
v -0.00654505 0.00785899 0.02250986
v -0.00598101 0.00829413 0.02252065
v -0.00218348 0.00838857 0.02279204
v -0.00550756 0.00829091 0.02270571
v -0.00492302 0.00829091 0.02278804
v -0.00568609 0.00752748 0.02279004
v -0.00068907 0.00838857 0.01937957
v -0.00054029 0.00738983 0.01990754
v -0.00621509 0.00752748 0.02278245
v -0.00132188 0.00738983 0.02278005
v -0.00165515 0.00838857 0.02279204
v -0.00068312 0.00838857 0.01990794
v -0.00053963 0.00738983 0.02043592
v -0.00121872 0.00838857 0.02274048
v -0.00080545 0.00738983 0.02255623
v -0.00053963 0.00738983 0.02149188
v -0.00068444 0.00838857 0.02161018
v -0.00086562 0.00838857 0.02254384
v -0.00054558 0.00738983 0.02202105
v -0.00072147 0.00838857 0.02213416
f 1 2 3
f 1 3 12
f 1 12 4
f 1 4 5
f 1 5 2
f 2 6 7
f 2 7 8
f 2 8 3
f 2 5 9
f 2 9 10
f 2 10 6
f 3 8 11
f 3 11 12
f 4 12 11
f 4 11 8
f 4 8 20
f 4 20 31
f 4 31 39
f 4 39 42
f 4 42 46
f 4 46 48
f 4 48 45
f 4 45 40
f 4 40 35
f 4 35 22
f 4 22 13
f 4 13 5
f 5 13 14
f 5 14 23
f 5 23 36
f 5 36 41
f 5 41 44
f 5 44 47
f 5 47 43
f 5 43 38
f 5 38 27
f 5 27 15
f 5 15 9
f 6 8 7
f 6 10 16
f 6 16 17
f 6 17 8
f 8 17 18
f 8 18 19
f 8 19 20
f 9 15 21
f 9 21 16
f 9 16 10
f 13 22 14
f 14 22 23
f 15 24 25
f 15 25 26
f 15 26 21
f 15 27 24
f 16 18 17
f 16 21 28
f 16 28 18
f 18 28 26
f 18 26 19
f 19 26 29
f 19 29 30
f 19 30 20
f 20 30 32
f 20 32 33
f 20 33 34
f 20 34 31
f 21 26 28
f 22 35 23
f 23 35 36
f 24 37 29
f 24 29 26
f 24 26 25
f 24 27 37
f 27 38 39
f 27 39 31
f 27 31 34
f 27 34 37
f 29 37 32
f 29 32 30
f 32 37 33
f 33 37 34
f 35 40 36
f 36 40 41
f 38 42 39
f 38 43 42
f 40 44 41
f 40 45 44
f 42 43 46
f 43 47 46
f 44 45 47
f 45 48 47
f 46 47 48

