# https://github.com/mikedh/trimesh
v -0.00183414 0.01419371 0.02154775
v -0.00153242 0.01281472 0.02154775
v -0.00157484 0.01281472 0.02096434
v -0.00188198 0.01419371 0.02096434
v -0.00477826 0.01419371 0.02154775
v -0.00479070 0.01281472 0.02154775
v -0.00160354 0.01281472 0.02074240
v -0.00199839 0.01419371 0.02047788
v -0.00477826 0.01419371 0.02096434
v -0.00478496 0.01404658 0.02154775
v -0.00479070 0.01347897 0.02154775
v -0.00479070 0.01281472 0.02096434
v -0.00168998 0.01281472 0.02056029
v -0.00237856 0.01419371 0.02023236
v -0.00174802 0.01281472 0.02047552
v -0.00478655 0.01400730 0.02096434
v -0.00476805 0.01419371 0.02066183
v -0.00478655 0.01400730 0.02154775
v -0.00479070 0.01347897 0.02096434
v -0.00477348 0.01281472 0.02064440
v -0.00224302 0.01281472 0.02023957
v -0.00237856 0.01281472 0.02022057
v -0.00290705 0.01419371 0.02020930
v -0.00477156 0.01400730 0.02065056
v -0.00464175 0.01419371 0.02055086
v -0.00449249 0.01400730 0.02040517
v -0.00477348 0.01347897 0.02064440
v -0.00449249 0.01281472 0.02039901
v -0.00277150 0.01281472 0.02021009
v -0.00290705 0.01281472 0.02020930
v -0.00343553 0.01419371 0.02020930
v -0.00450876 0.01419371 0.02043425
v -0.00449249 0.01347897 0.02039901
v -0.00396401 0.01419371 0.02020943
v -0.00435694 0.01281472 0.02035027
v -0.00396401 0.01281472 0.02020930
v -0.00396401 0.01400730 0.02020930
f 1 2 3
f 1 3 4
f 1 4 8
f 1 8 14
f 1 14 23
f 1 23 31
f 1 31 34
f 1 34 32
f 1 32 25
f 1 25 17
f 1 17 9
f 1 9 5
f 1 5 10
f 1 10 18
f 1 18 11
f 1 11 6
f 1 6 2
f 2 6 12
f 2 12 20
f 2 20 28
f 2 28 35
f 2 35 36
f 2 36 30
f 2 30 29
f 2 29 22
f 2 22 21
f 2 21 15
f 2 15 13
f 2 13 7
f 2 7 3
f 3 7 4
f 4 7 8
f 5 9 10
f 6 11 19
f 6 19 12
f 7 13 8
f 8 13 15
f 8 15 14
f 9 16 10
f 9 17 16
f 10 16 18
f 11 18 16
f 11 16 19
f 12 19 27
f 12 27 20
f 14 15 21
f 14 21 22
f 14 22 23
f 16 17 24
f 16 24 19
f 17 25 26
f 17 26 24
f 19 24 27
f 20 27 33
f 20 33 28
f 22 29 23
f 23 29 30
f 23 30 36
f 23 36 37
f 23 37 31
f 24 26 27
f 25 32 26
f 26 33 27
f 26 32 34
f 26 34 33
f 28 33 35
f 31 37 34
f 33 34 37
f 33 37 35
f 35 37 36

