# https://github.com/mikedh/trimesh
v 0.00003613 0.01600736 0.03008713
v -0.00011443 0.01652639 0.02990591
v -0.00026442 0.01612124 0.03008615
v -0.00079294 0.01559284 0.03009070
v -0.00183810 0.01403041 0.03009005
v -0.00131043 0.01403041 0.03005433
v 0.00003613 0.01546610 0.03004621
v 0.00003613 0.01482998 0.02677299
v -0.00011443 0.01676781 0.02677299
v -0.00011443 0.01676487 0.02942073
v -0.00079294 0.01652264 0.02985752
v -0.00079294 0.01612124 0.03006017
v -0.00132145 0.01559284 0.03008648
v -0.00184940 0.01453630 0.03009070
v -0.00132145 0.01506471 0.03009070
v -0.00236661 0.01403041 0.03001211
v -0.00092033 0.01403041 0.02984421
v 0.00003613 0.01502532 0.02989195
v 0.00003613 0.01482998 0.02889235
v -0.00078616 0.01403041 0.02677299
v -0.00079294 0.01667457 0.02677299
v -0.00079294 0.01665956 0.02942073
v -0.00134348 0.01615527 0.02990429
v -0.00118219 0.01645029 0.02978510
v -0.00189572 0.01563759 0.02991858
v -0.00184940 0.01506471 0.03008193
v -0.00237819 0.01453630 0.02996567
v -0.00270191 0.01403041 0.02981141
v -0.00079096 0.01403041 0.02940644
v 0.00003613 0.01486588 0.02950354
v -0.00078616 0.01403041 0.02889235
v -0.00284964 0.01403041 0.02677299
v -0.00183838 0.01613009 0.02677299
v -0.00144856 0.01640929 0.02682982
v -0.00137653 0.01641090 0.02942073
v -0.00175025 0.01600200 0.02981498
v -0.00183273 0.01607462 0.02942073
v -0.00222594 0.01549129 0.02980914
v -0.00239260 0.01502719 0.02985363
v -0.00266773 0.01468100 0.02973509
v -0.00277394 0.01403041 0.02942820
v -0.00280360 0.01453630 0.02677299
v -0.00226972 0.01566010 0.02677299
v -0.00209685 0.01583695 0.02942073
v -0.00228158 0.01557274 0.02942073
v -0.00260163 0.01497092 0.02942073
v -0.00272394 0.01453630 0.02942073
v -0.00270078 0.01487928 0.02677299
f 1 2 3
f 1 3 4
f 1 4 5
f 1 5 6
f 1 6 7
f 1 7 18
f 1 18 30
f 1 30 19
f 1 19 8
f 1 8 9
f 1 9 10
f 1 10 2
f 2 11 12
f 2 12 3
f 2 10 11
f 3 12 13
f 3 13 4
f 4 14 5
f 4 13 15
f 4 15 14
f 5 14 16
f 5 16 28
f 5 28 41
f 5 41 32
f 5 32 20
f 5 20 31
f 5 31 29
f 5 29 17
f 5 17 6
f 6 17 18
f 6 18 7
f 8 19 31
f 8 31 20
f 8 20 32
f 8 32 42
f 8 42 48
f 8 48 43
f 8 43 33
f 8 33 21
f 8 21 9
f 9 21 10
f 10 21 22
f 10 22 11
f 11 23 12
f 11 22 24
f 11 24 23
f 12 23 13
f 13 14 15
f 13 23 25
f 13 25 26
f 13 26 14
f 14 26 16
f 16 26 27
f 16 27 28
f 17 29 30
f 17 30 18
f 19 30 29
f 19 29 31
f 21 33 34
f 21 34 22
f 22 34 35
f 22 35 24
f 23 24 36
f 23 36 25
f 24 35 37
f 24 37 36
f 25 36 38
f 25 38 39
f 25 39 26
f 26 39 27
f 27 39 40
f 27 40 28
f 28 40 41
f 32 41 42
f 33 43 44
f 33 44 37
f 33 37 35
f 33 35 34
f 36 37 44
f 36 44 38
f 38 44 45
f 38 45 46
f 38 46 40
f 38 40 39
f 40 46 47
f 40 47 41
f 41 47 42
f 42 47 46
f 42 46 48
f 43 48 45
f 43 45 44
f 45 48 46

