# https://github.com/mikedh/trimesh
v 0.00478798 -0.01384947 0.02141583
v 0.00478707 -0.01392749 0.02096475
v 0.00477160 -0.01392749 0.02065008
v 0.00449242 -0.01392749 0.02040492
v 0.00290752 -0.01384947 0.02020930
v 0.00456131 -0.01384947 0.02611580
v 0.00476795 -0.01392749 0.02600448
v 0.00477918 -0.01392749 0.02572135
v 0.00478707 -0.01392749 0.02202198
v 0.00476977 -0.01438509 0.02202198
v 0.00476977 -0.01438501 0.02149304
v 0.00476977 -0.01438460 0.02096475
v 0.00476553 -0.01434608 0.02067132
v 0.00453855 -0.01452694 0.02048664
v 0.00451124 -0.01468323 0.02047892
v 0.00396382 -0.01460855 0.02021059
v 0.00396382 -0.01392749 0.02020930
v 0.00290752 -0.01468323 0.02020930
v 0.00237861 -0.01468323 0.02022989
v 0.00232247 -0.01384947 0.02026914
v 0.00283499 -0.01384947 0.02678309
v 0.00449242 -0.01400551 0.02615891
v 0.00476492 -0.01434567 0.02599933
v 0.00476886 -0.01438403 0.02572135
v 0.00476947 -0.01438436 0.02519241
v 0.00476977 -0.01438485 0.02307986
v 0.00476977 -0.01438501 0.02255092
v 0.00474004 -0.01464903 0.02360687
v 0.00473609 -0.01466600 0.02096475
v 0.00343521 -0.01468323 0.02020930
v 0.00473366 -0.01468323 0.02413517
v 0.00195833 -0.01468323 0.02047635
v 0.00198109 -0.01384947 0.02055035
v 0.00284835 -0.01400551 0.02678309
v 0.00168796 -0.01384947 0.02678309
v 0.00277916 -0.01460920 0.02678309
v 0.00450608 -0.01468323 0.02612224
v 0.00453521 -0.01452669 0.02611580
v 0.00472092 -0.01467441 0.02573872
v 0.00473670 -0.01466592 0.02519241
v 0.00474004 -0.01464878 0.02466411
v 0.00474004 -0.01464895 0.02413517
v 0.00473640 -0.01466625 0.02149304
v 0.00183028 -0.01468323 0.02096475
v 0.00188247 -0.01384947 0.02096475
v 0.00168796 -0.01468323 0.02678309
v 0.00168796 -0.01384947 0.02188170
v 0.00168796 -0.01468274 0.02186111
f 1 2 3
f 1 3 4
f 1 4 5
f 1 5 20
f 1 20 33
f 1 33 45
f 1 45 47
f 1 47 35
f 1 35 21
f 1 21 6
f 1 6 7
f 1 7 8
f 1 8 9
f 1 9 2
f 2 9 10
f 2 10 11
f 2 11 12
f 2 12 13
f 2 13 3
f 3 13 4
f 4 14 15
f 4 15 16
f 4 16 17
f 4 17 5
f 4 13 14
f 5 17 30
f 5 30 18
f 5 18 19
f 5 19 20
f 6 21 22
f 6 22 7
f 7 22 23
f 7 23 8
f 8 23 24
f 8 24 9
f 9 24 25
f 9 25 26
f 9 26 27
f 9 27 10
f 10 27 28
f 10 28 11
f 11 28 12
f 12 29 13
f 12 28 29
f 13 29 15
f 13 15 14
f 15 30 16
f 15 29 31
f 15 31 37
f 15 37 46
f 15 46 44
f 15 44 32
f 15 32 19
f 15 19 18
f 15 18 30
f 16 30 17
f 19 32 20
f 20 32 33
f 21 34 22
f 21 35 46
f 21 46 36
f 21 36 34
f 22 34 36
f 22 36 37
f 22 37 38
f 22 38 23
f 23 38 37
f 23 37 39
f 23 39 24
f 24 39 40
f 24 40 41
f 24 41 25
f 25 41 26
f 26 41 42
f 26 42 27
f 27 42 28
f 28 42 31
f 28 31 43
f 28 43 29
f 29 43 31
f 31 42 41
f 31 41 40
f 31 40 39
f 31 39 37
f 32 44 33
f 33 44 45
f 35 47 48
f 35 48 46
f 36 46 37
f 44 48 47
f 44 47 45
f 44 46 48

