# https://github.com/mikedh/trimesh
v 0.00265719 0.01500814 0.02021658
v 0.00120540 0.01644171 0.02022386
v 0.00343534 0.01585753 0.02021051
v 0.00371464 0.01501547 0.02021840
v 0.00467231 0.01500814 0.02202195
v 0.00190550 0.01500814 0.02045430
v 0.00124918 0.01801033 0.02027965
v 0.00264327 0.01684791 0.02022204
v 0.00120540 0.01567049 0.02047371
v 0.00120540 0.01500814 0.02640590
v 0.00211455 0.01770672 0.02026934
v 0.00415581 0.01582927 0.02042883
v 0.00453691 0.01531140 0.02084728
v 0.00425524 0.01618103 0.02122933
v 0.00458680 0.01530791 0.02534221
v 0.00466655 0.01503676 0.02417056
v 0.00286997 0.01501687 0.02640529
v 0.00120540 0.01500814 0.02194069
v 0.00136897 0.01857322 0.02175754
v 0.00151863 0.01846713 0.02073994
v 0.00126241 0.01673240 0.02640590
v 0.00143651 0.01855891 0.02519241
v 0.00212439 0.01627246 0.02640590
v 0.00270911 0.01786097 0.02071689
v 0.00358975 0.01690828 0.02062653
v 0.00351238 0.01723980 0.02202195
v 0.00408251 0.01648184 0.02255076
v 0.00422266 0.01624698 0.02387098
v 0.00428816 0.01611472 0.02492801
v 0.00419823 0.01612275 0.02591286
v 0.00430614 0.01517565 0.02608509
v 0.00343534 0.01612205 0.02628886
v 0.00146603 0.01855263 0.02334277
v 0.00187394 0.01839803 0.02466360
v 0.00279124 0.01788051 0.02149374
v 0.00155698 0.01770672 0.02628886
v 0.00151829 0.01837884 0.02599898
v 0.00237891 0.01814503 0.02519241
v 0.00308580 0.01764670 0.02255076
v 0.00351204 0.01724015 0.02387098
v 0.00374925 0.01697598 0.02360658
v 0.00397561 0.01665039 0.02466360
v 0.00397289 0.01665039 0.02545682
v 0.00357686 0.01688804 0.02605902
v 0.00293886 0.01741952 0.02609783
v 0.00262054 0.01799253 0.02413539
v 0.00241353 0.01788365 0.02607478
v 0.00363048 0.01710789 0.02519241
f 1 2 3
f 1 3 4
f 1 4 5
f 1 5 10
f 1 10 18
f 1 18 6
f 1 6 2
f 2 7 8
f 2 8 3
f 2 6 9
f 2 9 18
f 2 18 10
f 2 10 7
f 3 8 11
f 3 11 12
f 3 12 4
f 4 12 13
f 4 13 5
f 5 13 14
f 5 14 15
f 5 15 16
f 5 16 17
f 5 17 10
f 6 18 9
f 7 19 20
f 7 20 11
f 7 11 8
f 7 10 21
f 7 21 22
f 7 22 19
f 10 17 23
f 10 23 21
f 11 20 24
f 11 24 25
f 11 25 12
f 12 25 14
f 12 14 13
f 14 26 27
f 14 27 28
f 14 28 29
f 14 29 15
f 14 25 26
f 15 29 30
f 15 30 31
f 15 31 16
f 16 31 17
f 17 32 23
f 17 31 32
f 19 33 34
f 19 34 35
f 19 35 20
f 19 22 33
f 20 35 24
f 21 23 36
f 21 36 37
f 21 37 22
f 22 37 38
f 22 38 34
f 22 34 33
f 23 32 36
f 24 35 26
f 24 26 25
f 26 39 40
f 26 40 41
f 26 41 27
f 26 35 39
f 27 41 42
f 27 42 28
f 28 42 43
f 28 43 29
f 29 43 30
f 30 44 31
f 30 43 44
f 31 44 32
f 32 44 45
f 32 45 36
f 34 38 35
f 35 38 46
f 35 46 39
f 36 45 47
f 36 47 37
f 37 47 38
f 38 48 46
f 38 47 48
f 39 46 48
f 39 48 40
f 40 48 41
f 41 48 43
f 41 43 42
f 43 48 44
f 44 48 47
f 44 47 45

