# https://github.com/mikedh/trimesh
v -0.00000805 0.01877520 0.02179553
v 0.00026431 0.01877487 0.02179553
v -0.00000805 0.01877454 0.02096453
v -0.00000805 0.01594552 0.02179553
v 0.00049035 0.01874958 0.02179553
v 0.00079276 0.01871531 0.02096453
v 0.00026431 0.01877420 0.02096453
v 0.00026431 0.01863711 0.02046876
v -0.00000805 0.01863711 0.02046876
v -0.00000805 0.01595184 0.02170641
v 0.00037098 0.01570161 0.02179553
v 0.00079276 0.01871531 0.02179553
v 0.00096915 0.01867538 0.02179553
v 0.00120540 0.01862147 0.02096453
v 0.00120540 0.01858421 0.02067030
v 0.00120540 0.01856058 0.02056595
v 0.00079276 0.01860750 0.02048863
v 0.00079276 0.01823549 0.02024315
v 0.00026431 0.01823549 0.02022328
v -0.00000805 0.01844245 0.02034966
v -0.00000805 0.01596981 0.02145953
v 0.00120540 0.01547035 0.02096453
v 0.00078409 0.01553424 0.02179553
v -0.00000805 0.01599476 0.02119045
v -0.00000805 0.01601639 0.02096453
v 0.00101880 0.01866406 0.02179553
v 0.00120540 0.01862147 0.02179553
v 0.00120540 0.01831701 0.02037435
v 0.00120540 0.01823549 0.02032047
v 0.00120540 0.01782288 0.02021675
v -0.00000805 0.01823549 0.02022328
v 0.00120540 0.01770708 0.02020946
v 0.00120540 0.01548100 0.02091966
v 0.00120540 0.01537585 0.02179553
v -0.00000805 0.01611322 0.02071299
v 0.00088862 0.01576018 0.02054810
v -0.00000805 0.01770708 0.02020946
v 0.00120540 0.01676607 0.02020946
v 0.00120540 0.01564039 0.02049174
v -0.00000805 0.01620406 0.02047730
v -0.00000805 0.01717835 0.02020946
v 0.00120540 0.01665028 0.02021008
v 0.00120540 0.01570028 0.02045478
v -0.00000805 0.01665028 0.02023182
v 0.00079276 0.01665028 0.02021225
v 0.00120540 0.01623767 0.02021675
v 0.00120540 0.01611189 0.02025759
f 1 2 7
f 1 7 3
f 1 3 9
f 1 9 20
f 1 20 31
f 1 31 37
f 1 37 41
f 1 41 44
f 1 44 40
f 1 40 35
f 1 35 25
f 1 25 24
f 1 24 21
f 1 21 10
f 1 10 4
f 1 4 11
f 1 11 23
f 1 23 34
f 1 34 27
f 1 27 26
f 1 26 13
f 1 13 12
f 1 12 5
f 1 5 2
f 2 5 6
f 2 6 7
f 3 7 8
f 3 8 9
f 4 10 11
f 5 12 6
f 6 13 14
f 6 14 15
f 6 15 16
f 6 16 17
f 6 17 7
f 6 12 13
f 7 17 8
f 8 17 18
f 8 18 19
f 8 19 20
f 8 20 9
f 10 21 11
f 11 22 23
f 11 21 24
f 11 24 25
f 11 25 22
f 13 26 14
f 14 26 27
f 14 27 34
f 14 34 22
f 14 22 33
f 14 33 39
f 14 39 43
f 14 43 47
f 14 47 46
f 14 46 42
f 14 42 38
f 14 38 32
f 14 32 30
f 14 30 29
f 14 29 28
f 14 28 16
f 14 16 15
f 16 28 17
f 17 28 29
f 17 29 18
f 18 29 30
f 18 30 19
f 19 31 20
f 19 30 32
f 19 32 37
f 19 37 31
f 22 25 33
f 22 34 23
f 25 35 36
f 25 36 33
f 32 38 41
f 32 41 37
f 33 36 39
f 35 40 36
f 36 40 39
f 38 42 41
f 39 40 43
f 40 44 43
f 41 42 45
f 41 45 46
f 41 46 44
f 42 46 45
f 43 44 47
f 44 46 47

