# https://github.com/mikedh/trimesh
v 0.00924924 0.00132277 0.02279030
v 0.00801723 0.00155097 0.02276035
v 0.00905961 0.00013071 0.02261978
v 0.01000938 0.00049239 0.02260220
v 0.00924924 0.00264462 0.02278910
v 0.00872124 0.00370013 0.02278990
v 0.00810500 0.00475749 0.02278990
v 0.00801723 0.00163094 0.01872248
v 0.00801723 0.00081532 0.02222921
v 0.00810500 0.00555035 0.02275595
v 0.00805603 0.00641456 0.02226874
v 0.01037686 0.00018176 0.02126197
v 0.00874526 0.00013071 0.02175677
v 0.00884134 0.00013071 0.01913342
v 0.01035307 0.00079440 0.02175677
v 0.01011216 0.00158727 0.02232705
v 0.00943263 0.00354082 0.02261978
v 0.00883187 0.00468614 0.02265492
v 0.00924924 0.00105889 0.01871569
v 0.00954743 0.00016454 0.01875043
v 0.00801723 0.00083192 0.01916097
v 0.00805649 0.00630200 0.01918294
v 0.00810500 0.00484483 0.01871210
v 0.00872124 0.00370013 0.01871130
v 0.00801723 0.00074827 0.02149240
v 0.00855170 0.00584314 0.02212777
v 0.00824150 0.00630631 0.02096405
v 0.01022441 0.00019837 0.01917495
v 0.01032535 0.00105889 0.02096405
v 0.00874225 0.00013071 0.01990776
v 0.00801723 0.00074827 0.01990776
v 0.01021956 0.00185176 0.02096405
v 0.01006596 0.00248039 0.02221563
v 0.00945666 0.00427832 0.02202114
v 0.00903605 0.00511424 0.02202114
v 0.00924924 0.00264462 0.01871569
v 0.00977771 0.00185176 0.01884069
v 0.00890463 0.00533199 0.02096405
v 0.00908710 0.00461232 0.01919811
v 0.00830825 0.00566353 0.01892176
v 0.00968902 0.00290850 0.01892455
v 0.01006481 0.00200246 0.01906912
v 0.01005603 0.00258127 0.02093011
v 0.00983846 0.00330524 0.02129432
v 0.00945666 0.00427832 0.02096405
v 0.00986502 0.00290850 0.01937902
f 1 2 3
f 1 3 4
f 1 4 5
f 1 5 6
f 1 6 7
f 1 7 2
f 2 8 21
f 2 21 31
f 2 31 25
f 2 25 9
f 2 9 3
f 2 7 10
f 2 10 11
f 2 11 8
f 3 12 4
f 3 9 13
f 3 13 30
f 3 30 14
f 3 14 12
f 4 12 15
f 4 15 16
f 4 16 17
f 4 17 5
f 5 17 18
f 5 18 10
f 5 10 6
f 6 10 7
f 8 19 20
f 8 20 21
f 8 11 22
f 8 22 23
f 8 23 24
f 8 24 19
f 9 25 13
f 10 18 11
f 11 18 26
f 11 26 27
f 11 27 22
f 12 14 20
f 12 20 28
f 12 28 29
f 12 29 15
f 13 25 30
f 14 30 31
f 14 31 21
f 14 21 20
f 15 29 32
f 15 32 33
f 15 33 16
f 16 33 17
f 17 34 35
f 17 35 18
f 17 33 34
f 18 35 26
f 19 24 36
f 19 36 20
f 20 36 37
f 20 37 28
f 22 27 38
f 22 38 39
f 22 39 40
f 22 40 23
f 23 40 24
f 24 40 41
f 24 41 36
f 25 31 30
f 26 35 38
f 26 38 27
f 28 37 42
f 28 42 29
f 29 42 32
f 32 42 43
f 32 43 33
f 33 43 44
f 33 44 34
f 34 44 45
f 34 45 35
f 35 45 38
f 36 41 37
f 37 41 42
f 38 45 39
f 39 45 46
f 39 46 41
f 39 41 40
f 41 46 42
f 42 46 43
f 43 46 44
f 44 46 45

