# https://github.com/mikedh/trimesh
v -0.00343538 0.01058929 0.02347613
v -0.00264906 0.00994581 0.02347613
v -0.00293255 0.01022812 0.02572114
v -0.00335537 0.01065768 0.02589632
v -0.00291185 0.01082356 0.02625090
v 0.00361117 0.01082356 0.02347613
v -0.00177307 0.00949152 0.02347613
v -0.00244903 0.00994565 0.02593287
v -0.00286426 0.01032858 0.02609090
v -0.00237729 0.01030746 0.02622671
v -0.00184894 0.01030746 0.02628998
v -0.00237729 0.01082356 0.02628886
v 0.00289934 0.01082356 0.02625455
v 0.00335251 0.01065768 0.02590082
v 0.00329940 0.01044689 0.02347613
v -0.00135370 0.00944191 0.02347613
v -0.00079154 0.00928432 0.02519250
v -0.00079154 0.00928464 0.02572114
v -0.00132059 0.00940498 0.02572114
v -0.00178479 0.00965959 0.02595480
v -0.00132059 0.00961953 0.02613252
v -0.00079154 0.00958948 0.02619156
v -0.00026319 0.00977915 0.02628632
v -0.00027630 0.01082356 0.02634875
v 0.00236547 0.01082356 0.02629026
v 0.00184953 0.01030746 0.02628998
v 0.00237788 0.01030746 0.02622671
v 0.00286416 0.01032858 0.02609090
v 0.00293245 0.01022812 0.02572114
v 0.00254480 0.00988822 0.02347613
v -0.00026319 0.00925490 0.02466443
v -0.00026319 0.00922501 0.02519250
v 0.00160467 0.00944551 0.02347613
v 0.00026378 0.00925490 0.02466443
v -0.00026319 0.00922564 0.02572114
v -0.00026319 0.00937055 0.02613392
v 0.00026378 0.00977915 0.02628632
v 0.00026378 0.01082356 0.02634875
v 0.00079213 0.00958948 0.02619156
v 0.00132118 0.00961953 0.02613252
v 0.00244962 0.00994565 0.02593287
v 0.00132118 0.00940498 0.02572114
v 0.00026378 0.00922501 0.02519250
v 0.00079213 0.00928464 0.02572114
v 0.00079213 0.00928432 0.02519250
v 0.00026378 0.00922564 0.02572114
v 0.00026378 0.00937055 0.02613392
v 0.00178469 0.00965959 0.02595480
f 1 2 3
f 1 3 4
f 1 4 5
f 1 5 6
f 1 6 15
f 1 15 30
f 1 30 33
f 1 33 16
f 1 16 7
f 1 7 2
f 2 7 8
f 2 8 3
f 3 8 9
f 3 9 4
f 4 9 5
f 5 9 10
f 5 10 11
f 5 11 12
f 5 12 24
f 5 24 38
f 5 38 25
f 5 25 13
f 5 13 6
f 6 13 14
f 6 14 15
f 7 16 17
f 7 17 18
f 7 18 19
f 7 19 8
f 8 19 20
f 8 20 21
f 8 21 9
f 9 21 10
f 10 21 22
f 10 22 11
f 11 22 23
f 11 23 24
f 11 24 12
f 13 25 26
f 13 26 27
f 13 27 28
f 13 28 14
f 14 28 29
f 14 29 15
f 15 29 30
f 16 31 32
f 16 32 17
f 16 33 34
f 16 34 31
f 17 32 18
f 18 32 35
f 18 35 36
f 18 36 19
f 19 36 21
f 19 21 20
f 21 36 22
f 22 36 23
f 23 36 47
f 23 47 37
f 23 37 38
f 23 38 24
f 25 38 26
f 26 38 37
f 26 37 39
f 26 39 27
f 27 39 40
f 27 40 28
f 28 41 29
f 28 40 41
f 29 41 30
f 30 41 42
f 30 42 33
f 31 34 43
f 31 43 32
f 32 43 46
f 32 46 35
f 33 42 44
f 33 44 45
f 33 45 43
f 33 43 34
f 35 46 47
f 35 47 36
f 37 47 39
f 39 47 40
f 40 47 42
f 40 42 48
f 40 48 41
f 41 48 42
f 42 47 44
f 43 45 44
f 43 44 46
f 44 47 46

