# https://github.com/mikedh/trimesh
v 0.00000279 -0.01559332 0.02678309
v -0.00450694 -0.01559332 0.02519241
v -0.00413966 -0.01572565 0.02609264
v -0.00219866 -0.01574090 0.02678245
v -0.00164113 -0.01627551 0.02678309
v -0.00013097 -0.01676622 0.02678309
v -0.00013097 -0.01860418 0.02596394
v 0.00000279 -0.01744063 0.02020930
v 0.00000279 -0.01559332 0.02191774
v -0.00432109 -0.01604791 0.02413517
v -0.00402754 -0.01656445 0.02545688
v -0.00450694 -0.01559332 0.02096217
v -0.00357727 -0.01688671 0.02605917
v -0.00293807 -0.01741852 0.02609843
v -0.00079357 -0.01841986 0.02618723
v -0.00079092 -0.01667219 0.02678309
v -0.00241276 -0.01788214 0.02607526
v -0.00137847 -0.01846781 0.02591053
v -0.00079357 -0.01871503 0.02545688
v -0.00013097 -0.01877419 0.02334369
v -0.00013097 -0.01877388 0.02096475
v -0.00013097 -0.01837720 0.02033028
v -0.00171838 -0.01744063 0.02021123
v -0.00343380 -0.01585673 0.02021059
v -0.00185037 -0.01611983 0.02020930
v -0.00132197 -0.01611983 0.02021895
v 0.00000279 -0.01642590 0.02035601
v -0.00110831 -0.01567645 0.02051045
v -0.00184816 -0.01559332 0.02028137
v -0.00425576 -0.01618023 0.02281539
v -0.00425576 -0.01617992 0.02096475
v -0.00374943 -0.01697483 0.02413517
v -0.00374899 -0.01697483 0.02519241
v -0.00264010 -0.01559332 0.02021059
v -0.00415555 -0.01582871 0.02042873
v -0.00279195 -0.01787965 0.02519241
v -0.00212759 -0.01827103 0.02347560
v -0.00105755 -0.01865494 0.02202198
v -0.00079357 -0.01871503 0.02096475
v -0.00079357 -0.01841986 0.02036567
v -0.00277430 -0.01691287 0.02022281
v -0.00359007 -0.01690726 0.02062628
v -0.00324928 -0.01751348 0.02202198
v -0.00351326 -0.01723824 0.02466411
v -0.00292394 -0.01777783 0.02255092
v -0.00265952 -0.01798146 0.02307986
v -0.00156696 -0.01837315 0.02065008
v -0.00269131 -0.01777129 0.02061405
f 1 2 3
f 1 3 4
f 1 4 5
f 1 5 16
f 1 16 6
f 1 6 7
f 1 7 8
f 1 8 27
f 1 27 9
f 1 9 29
f 1 29 34
f 1 34 12
f 1 12 2
f 2 10 11
f 2 11 3
f 2 12 10
f 3 13 4
f 3 11 13
f 4 13 14
f 4 14 5
f 5 15 16
f 5 14 17
f 5 17 15
f 6 16 15
f 6 15 7
f 7 15 18
f 7 18 19
f 7 19 20
f 7 20 8
f 8 21 22
f 8 22 23
f 8 23 24
f 8 24 25
f 8 25 26
f 8 26 27
f 8 20 21
f 9 27 28
f 9 28 29
f 10 30 11
f 10 12 31
f 10 31 30
f 11 30 31
f 11 31 32
f 11 32 33
f 11 33 13
f 12 34 35
f 12 35 31
f 13 17 14
f 13 33 36
f 13 36 17
f 15 17 18
f 17 36 18
f 18 36 37
f 18 37 19
f 19 37 38
f 19 38 39
f 19 39 20
f 20 39 21
f 21 39 40
f 21 40 22
f 22 40 23
f 23 40 41
f 23 41 24
f 24 35 34
f 24 34 25
f 24 41 35
f 25 34 26
f 26 34 29
f 26 29 27
f 27 29 28
f 31 35 42
f 31 42 43
f 31 43 32
f 32 44 33
f 32 43 44
f 33 44 36
f 35 41 42
f 36 44 43
f 36 43 45
f 36 45 46
f 36 46 37
f 37 46 47
f 37 47 38
f 38 47 39
f 39 47 40
f 40 47 48
f 40 48 41
f 41 48 42
f 42 48 43
f 43 48 45
f 45 48 46
f 46 48 47

