# https://github.com/mikedh/trimesh
v 0.00251735 0.00911030 0.01870930
v 0.00079246 0.00978006 0.01875072
v 0.00304634 0.00911030 0.01871855
v 0.00437088 0.00900724 0.01887617
v -0.00395716 0.00897001 0.01880661
v -0.00264188 0.00911030 0.01871413
v 0.00000000 0.00978006 0.01873986
v 0.00449747 0.00978109 0.02031451
v 0.00132042 0.00978006 0.01877927
v 0.00357431 0.00911030 0.01876359
v 0.00360209 0.00957340 0.01902214
v 0.00489370 0.00897771 0.01913754
v -0.00504808 0.00897001 0.01946486
v -0.00467449 0.00902265 0.01897308
v -0.00343537 0.00911030 0.01876278
v 0.00522201 0.00897001 0.02069973
v -0.00132042 0.00978006 0.01877927
v -0.00079246 0.00978006 0.01875072
v -0.00448615 0.00978109 0.02029561
v 0.00478255 0.00978109 0.02080307
v 0.00271907 0.00976950 0.01903058
v 0.00184839 0.00978006 0.01884280
v -0.00522715 0.00897001 0.02073029
v -0.00478358 0.00978109 0.02080508
v -0.00360209 0.00957340 0.01902214
v -0.00184942 0.00978006 0.01884280
v 0.00525700 0.00897001 0.02149268
v -0.00280037 0.00975799 0.01904707
v 0.00525391 0.00897001 0.02202145
v 0.00396333 0.00978109 0.02279068
v 0.00463744 0.00978077 0.02239058
v -0.00525700 0.00897001 0.02149268
v -0.00525185 0.00897001 0.02202547
v -0.00463744 0.00978109 0.02239098
v 0.00498736 0.00897001 0.02252006
v 0.00396333 0.00897001 0.02279068
v 0.00449233 0.00897001 0.02273881
v 0.00338185 0.00978109 0.02281722
v -0.00490399 0.00897001 0.02257354
v -0.00396333 0.00978109 0.02279068
v 0.00237841 0.00912967 0.02281722
v 0.00184839 0.00901201 0.02281722
v 0.00132042 0.00898160 0.02281400
v -0.00416505 0.00897001 0.02277660
v -0.00341581 0.00976712 0.02281722
v -0.00234857 0.00909751 0.02281722
v -0.00158904 0.00899629 0.02281561
v -0.00288785 0.00930838 0.02281722
f 1 2 3
f 1 3 4
f 1 4 5
f 1 5 6
f 1 6 7
f 1 7 2
f 2 8 9
f 2 9 3
f 2 7 8
f 3 9 10
f 3 10 4
f 4 10 11
f 4 11 12
f 4 12 5
f 5 13 14
f 5 14 15
f 5 15 6
f 5 12 16
f 5 16 27
f 5 27 29
f 5 29 35
f 5 35 37
f 5 37 36
f 5 36 44
f 5 44 39
f 5 39 33
f 5 33 32
f 5 32 23
f 5 23 13
f 6 15 17
f 6 17 18
f 6 18 7
f 7 18 19
f 7 19 8
f 8 20 12
f 8 12 11
f 8 11 21
f 8 21 22
f 8 22 9
f 8 19 24
f 8 24 34
f 8 34 40
f 8 40 38
f 8 38 30
f 8 30 20
f 9 22 10
f 10 22 11
f 11 22 21
f 12 20 16
f 13 23 24
f 13 24 19
f 13 19 14
f 14 19 25
f 14 25 15
f 15 25 26
f 15 26 17
f 16 20 27
f 17 26 19
f 17 19 18
f 19 26 28
f 19 28 25
f 20 29 27
f 20 30 31
f 20 31 29
f 23 32 24
f 24 32 33
f 24 33 34
f 25 28 26
f 29 31 35
f 30 36 37
f 30 37 35
f 30 35 31
f 30 38 36
f 33 39 34
f 34 39 40
f 36 38 41
f 36 41 42
f 36 42 43
f 36 43 44
f 38 40 45
f 38 45 48
f 38 48 46
f 38 46 42
f 38 42 41
f 39 44 40
f 40 44 45
f 42 46 47
f 42 47 43
f 43 47 44
f 44 47 46
f 44 46 48
f 44 48 45

