# https://github.com/mikedh/trimesh
v 0.00163685 -0.00689604 0.01870930
v 0.00607755 -0.00689604 0.01870930
v 0.00652073 -0.00689604 0.02278870
v 0.00169093 -0.00675091 0.02279030
v 0.00163685 -0.00368060 0.02215987
v 0.00163685 -0.00364511 0.01990783
v 0.00169093 -0.00381036 0.01903690
v 0.00169093 -0.00475610 0.01870970
v 0.00422894 -0.00287684 0.01870970
v 0.00819175 -0.00449225 0.01870930
v 0.00766300 -0.00554842 0.01870930
v 0.00687027 -0.00675091 0.01874925
v 0.00790033 -0.00673592 0.02122821
v 0.00786239 -0.00665428 0.02228612
v 0.00714232 -0.00675091 0.02273357
v 0.00766300 -0.00607690 0.02278191
v 0.00766300 -0.00554842 0.02279070
v 0.00169093 -0.00430571 0.02272398
v 0.00819175 -0.00449225 0.02279070
v 0.00872050 -0.00369914 0.02279030
v 0.00901353 -0.00287211 0.02278630
v 0.00372037 -0.00286698 0.02276593
v 0.00163685 -0.00364511 0.02149229
v 0.00287598 -0.00286698 0.02228132
v 0.00276942 -0.00286698 0.02154023
v 0.00277185 -0.00286698 0.01966653
v 0.00319808 -0.00287684 0.01885992
v 0.00977962 -0.00288670 0.01915196
v 0.00911686 -0.00315607 0.01874885
v 0.00872050 -0.00369914 0.01871090
v 0.00766300 -0.00607690 0.01874925
v 0.00819175 -0.00501994 0.01871609
v 0.00782364 -0.00660143 0.01918751
v 0.00843554 -0.00605205 0.02096414
v 0.00890455 -0.00533072 0.02202124
v 0.00836127 -0.00595070 0.02229770
v 0.00883109 -0.00468511 0.02265487
v 0.00819175 -0.00501994 0.02278950
v 0.00943250 -0.00353981 0.02262011
v 0.00988295 -0.00287842 0.02226215
v 0.00988375 -0.00316277 0.02109598
v 0.00956569 -0.00372635 0.01928979
v 0.00908619 -0.00461175 0.01919830
v 0.00826198 -0.00582528 0.01894981
v 0.00890455 -0.00533072 0.02096414
v 0.00945671 -0.00427771 0.02202124
v 0.00979738 -0.00343529 0.02175677
v 0.00945671 -0.00427771 0.02096414
f 1 2 3
f 1 3 4
f 1 4 5
f 1 5 23
f 1 23 6
f 1 6 7
f 1 7 8
f 1 8 9
f 1 9 10
f 1 10 11
f 1 11 2
f 2 11 12
f 2 12 13
f 2 13 3
f 3 13 14
f 3 14 15
f 3 15 16
f 3 16 17
f 3 17 4
f 4 18 5
f 4 17 19
f 4 19 20
f 4 20 21
f 4 21 22
f 4 22 18
f 5 18 24
f 5 24 25
f 5 25 23
f 6 23 25
f 6 25 26
f 6 26 7
f 7 26 27
f 7 27 8
f 8 27 9
f 9 27 26
f 9 26 28
f 9 28 29
f 9 29 30
f 9 30 10
f 10 30 11
f 11 31 12
f 11 30 32
f 11 32 31
f 12 31 33
f 12 33 13
f 13 34 35
f 13 35 14
f 13 33 34
f 14 16 15
f 14 35 36
f 14 36 16
f 16 36 37
f 16 37 38
f 16 38 17
f 17 38 20
f 17 20 19
f 18 22 24
f 20 38 39
f 20 39 21
f 21 39 40
f 21 40 28
f 21 28 26
f 21 26 22
f 22 26 25
f 22 25 24
f 28 40 41
f 28 41 42
f 28 42 43
f 28 43 44
f 28 44 29
f 29 44 32
f 29 32 30
f 31 32 44
f 31 44 33
f 33 44 43
f 33 43 45
f 33 45 34
f 34 45 35
f 35 46 37
f 35 37 36
f 35 45 48
f 35 48 46
f 37 46 39
f 37 39 38
f 39 46 40
f 40 46 47
f 40 47 41
f 41 47 48
f 41 48 42
f 42 48 45
f 42 45 43
f 46 48 47

