# https://github.com/mikedh/trimesh
v -0.00755070 -0.00282415 0.01870930
v -0.00755070 -0.00282415 0.02279070
v -0.00755070 -0.00184856 0.01870930
v -0.00502140 0.00012979 0.01870930
v -0.00400550 -0.00282415 0.01871050
v -0.00449328 -0.00282415 0.02279070
v -0.00607763 0.00012979 0.02279070
v -0.00755070 -0.00179218 0.02279030
v -0.00755070 -0.00132058 0.01873687
v -0.00653852 0.00012979 0.01872808
v -0.00607763 0.00012979 0.01870930
v -0.00444413 0.00012979 0.01876643
v -0.00396424 -0.00237712 0.01872288
v -0.00347646 -0.00282415 0.01876443
v -0.00396424 -0.00282415 0.02278950
v -0.00449328 -0.00184856 0.02279070
v -0.00660621 0.00012979 0.02278271
v -0.00502140 0.00012979 0.02279070
v -0.00755070 -0.00125321 0.02275235
v -0.00755070 -0.00085476 0.01893143
v -0.00699987 0.00012979 0.01890786
v -0.00409407 0.00012979 0.01899895
v -0.00300259 -0.00282415 0.01895460
v -0.00343519 -0.00282415 0.02271679
v -0.00396424 -0.00237712 0.02278391
v -0.00449328 0.00012979 0.02277352
v -0.00706246 0.00012979 0.02253022
v -0.00755070 -0.00084985 0.02253541
v -0.00755070 -0.00064368 0.01937888
v -0.00725349 0.00012979 0.01937888
v -0.00398974 0.00012979 0.01937888
v -0.00282037 -0.00282415 0.01937768
v -0.00298219 -0.00282415 0.02248547
v -0.00410937 0.00012979 0.02252103
v -0.00725906 0.00012979 0.02195333
v -0.00755070 -0.00074402 0.02231808
v -0.00755070 -0.00063298 0.01990783
v -0.00726184 0.00012979 0.01990783
v -0.00398928 0.00012979 0.01990783
v -0.00281388 -0.00282415 0.01990783
v -0.00281991 -0.00282415 0.02202124
v -0.00398974 0.00012979 0.02202124
v -0.00726184 0.00012979 0.02149229
v -0.00755070 -0.00063761 0.02202124
v -0.00755070 -0.00063298 0.02149229
v -0.00398928 0.00012979 0.02149229
v -0.00281388 -0.00282415 0.02149229
v -0.00755070 -0.00063530 0.02180391
f 1 2 8
f 1 8 19
f 1 19 28
f 1 28 36
f 1 36 44
f 1 44 48
f 1 48 45
f 1 45 37
f 1 37 29
f 1 29 20
f 1 20 9
f 1 9 3
f 1 3 11
f 1 11 4
f 1 4 5
f 1 5 14
f 1 14 23
f 1 23 32
f 1 32 40
f 1 40 47
f 1 47 41
f 1 41 33
f 1 33 24
f 1 24 15
f 1 15 6
f 1 6 2
f 2 6 16
f 2 16 18
f 2 18 7
f 2 7 8
f 3 9 10
f 3 10 11
f 4 12 13
f 4 13 5
f 4 11 10
f 4 10 21
f 4 21 30
f 4 30 38
f 4 38 43
f 4 43 35
f 4 35 27
f 4 27 17
f 4 17 7
f 4 7 18
f 4 18 26
f 4 26 34
f 4 34 42
f 4 42 46
f 4 46 39
f 4 39 31
f 4 31 22
f 4 22 12
f 5 13 14
f 6 15 16
f 7 17 8
f 8 17 19
f 9 20 21
f 9 21 10
f 12 22 23
f 12 23 14
f 12 14 13
f 15 24 25
f 15 25 26
f 15 26 18
f 15 18 16
f 17 27 19
f 19 27 28
f 20 29 30
f 20 30 21
f 22 31 32
f 22 32 23
f 24 33 26
f 24 26 25
f 26 33 34
f 27 35 28
f 28 35 36
f 29 37 38
f 29 38 30
f 31 39 40
f 31 40 32
f 33 41 34
f 34 41 42
f 35 43 44
f 35 44 36
f 37 45 43
f 37 43 38
f 39 46 47
f 39 47 40
f 41 47 42
f 42 47 46
f 43 45 48
f 43 48 44

