# https://github.com/mikedh/trimesh
v 0.00117428 0.01419371 0.02205277
v 0.00088458 0.01419371 0.02215849
v -0.00000805 0.01562760 0.02190418
v -0.00000805 0.01594559 0.02179553
v 0.00037098 0.01570205 0.02179553
v 0.00078409 0.01553476 0.02179553
v 0.00120540 0.01537598 0.02179553
v 0.00120540 0.01419371 0.02657487
v 0.00081616 0.01419371 0.02232706
v -0.00000805 0.01486513 0.02249514
v -0.00000805 0.01503108 0.02214680
v -0.00000805 0.01877435 0.02179553
v 0.00120540 0.01862096 0.02179553
v 0.00120540 0.01652911 0.02677267
v 0.00120314 0.01419461 0.02677267
v 0.00073397 0.01419371 0.02677267
v 0.00074050 0.01419371 0.02255019
v -0.00000805 0.01483418 0.02281230
v -0.00000805 0.01877525 0.02202159
v 0.00026431 0.01877435 0.02179553
v 0.00101880 0.01866402 0.02179553
v 0.00120540 0.01862186 0.02213754
v 0.00120540 0.01823569 0.02621386
v 0.00079276 0.01823569 0.02626258
v 0.00080084 0.01667353 0.02677267
v -0.00000805 0.01482970 0.02677267
v 0.00073397 0.01419371 0.02307879
v 0.00073717 0.01419371 0.02278355
v -0.00000805 0.01482970 0.02307879
v 0.00026431 0.01877525 0.02255019
v -0.00000805 0.01877570 0.02360739
v 0.00049035 0.01874969 0.02179553
v 0.00079276 0.01871560 0.02179553
v 0.00079276 0.01871605 0.02413599
v 0.00120540 0.01862186 0.02425195
v 0.00120540 0.01855997 0.02606088
v 0.00079276 0.01860706 0.02611058
v 0.00026431 0.01863756 0.02613104
v 0.00026431 0.01823569 0.02628353
v 0.00026859 0.01676727 0.02677267
v -0.00000805 0.01676727 0.02677267
v 0.00026431 0.01877525 0.02572082
v -0.00000805 0.01877525 0.02572082
v 0.00079276 0.01871560 0.02572082
v 0.00120540 0.01862096 0.02572082
v -0.00000805 0.01863756 0.02613104
v -0.00000805 0.01823569 0.02628353
f 1 2 3
f 1 3 4
f 1 4 5
f 1 5 6
f 1 6 7
f 1 7 8
f 1 8 16
f 1 16 27
f 1 27 28
f 1 28 17
f 1 17 9
f 1 9 2
f 2 9 10
f 2 10 11
f 2 11 3
f 3 11 10
f 3 10 18
f 3 18 29
f 3 29 26
f 3 26 41
f 3 41 47
f 3 47 46
f 3 46 43
f 3 43 31
f 3 31 19
f 3 19 12
f 3 12 4
f 4 12 20
f 4 20 32
f 4 32 33
f 4 33 21
f 4 21 13
f 4 13 7
f 4 7 6
f 4 6 5
f 7 13 22
f 7 22 35
f 7 35 45
f 7 45 36
f 7 36 23
f 7 23 14
f 7 14 8
f 8 14 15
f 8 15 16
f 9 17 10
f 10 17 18
f 12 19 20
f 13 21 22
f 14 23 24
f 14 24 25
f 14 25 40
f 14 40 41
f 14 41 26
f 14 26 16
f 14 16 15
f 16 26 29
f 16 29 27
f 17 28 29
f 17 29 18
f 19 30 20
f 19 31 30
f 20 30 32
f 21 33 22
f 22 33 34
f 22 34 35
f 23 36 37
f 23 37 24
f 24 37 38
f 24 38 39
f 24 39 40
f 24 40 25
f 27 29 28
f 30 31 42
f 30 42 34
f 30 34 32
f 31 43 42
f 32 34 33
f 34 42 44
f 34 44 35
f 35 44 45
f 36 45 44
f 36 44 37
f 37 44 42
f 37 42 38
f 38 46 47
f 38 47 39
f 38 42 43
f 38 43 46
f 39 47 41
f 39 41 40

