# https://github.com/mikedh/trimesh
v -0.00026454 0.01877543 0.02190995
v -0.00000818 0.01877465 0.02181606
v -0.00000835 0.01877426 0.02096474
v -0.00026471 0.01877426 0.02096474
v -0.00079299 0.01871510 0.02096474
v -0.00079299 0.01871510 0.02172201
v -0.00079282 0.01871510 0.02190995
v -0.00000818 0.01561286 0.02190995
v -0.00000835 0.01844189 0.02034980
v -0.00000835 0.01863687 0.02046883
v -0.00000818 0.01595107 0.02172217
v -0.00000835 0.01823484 0.02022345
v -0.00026471 0.01863687 0.02046883
v -0.00079299 0.01860691 0.02048864
v -0.00108313 0.01864972 0.02172217
v -0.00132094 0.01854658 0.02058769
v -0.00132094 0.01859484 0.02096474
v -0.00128649 0.01860146 0.02190995
v -0.00140573 0.01490025 0.02190995
v -0.00170001 0.01479945 0.02172201
v -0.00170001 0.01503608 0.02096474
v -0.00170001 0.01518903 0.02054723
v -0.00000835 0.01620443 0.02047748
v -0.00026471 0.01823484 0.02022345
v -0.00000835 0.01665083 0.02023194
v -0.00000835 0.01717819 0.02020930
v -0.00000835 0.01770632 0.02020930
v -0.00079299 0.01823484 0.02024343
v -0.00132094 0.01823484 0.02034231
v -0.00132094 0.01859484 0.02149294
v -0.00170001 0.01824457 0.02046217
v -0.00165066 0.01844383 0.02063546
v -0.00165496 0.01849015 0.02096474
v -0.00161025 0.01850961 0.02149294
v -0.00140573 0.01856993 0.02172217
v -0.00165496 0.01849054 0.02172201
v -0.00170001 0.01847186 0.02131366
v -0.00170001 0.01559146 0.02033532
v -0.00132094 0.01770632 0.02020930
v -0.00170001 0.01770632 0.02021363
v -0.00132094 0.01612231 0.02021812
v -0.00079299 0.01665083 0.02021047
v -0.00132094 0.01665083 0.02020930
v -0.00170001 0.01612231 0.02021197
v -0.00170001 0.01717819 0.02020930
v -0.00170001 0.01665083 0.02020930
f 1 2 3
f 1 3 4
f 1 4 5
f 1 5 6
f 1 6 7
f 1 7 18
f 1 18 19
f 1 19 8
f 1 8 2
f 2 9 10
f 2 10 3
f 2 8 11
f 2 11 12
f 2 12 9
f 3 10 13
f 3 13 4
f 4 13 14
f 4 14 5
f 5 15 6
f 5 14 16
f 5 16 17
f 5 17 15
f 6 15 7
f 7 15 18
f 8 19 20
f 8 20 21
f 8 21 22
f 8 22 23
f 8 23 11
f 9 13 10
f 9 12 24
f 9 24 13
f 11 23 25
f 11 25 26
f 11 26 27
f 11 27 12
f 12 27 39
f 12 39 24
f 13 24 28
f 13 28 14
f 14 28 29
f 14 29 16
f 15 17 30
f 15 30 18
f 16 29 31
f 16 31 32
f 16 32 33
f 16 33 17
f 17 33 34
f 17 34 35
f 17 35 30
f 18 30 35
f 18 35 36
f 18 36 19
f 19 36 20
f 20 36 37
f 20 37 31
f 20 31 40
f 20 40 45
f 20 45 46
f 20 46 44
f 20 44 38
f 20 38 22
f 20 22 21
f 22 38 25
f 22 25 23
f 24 39 40
f 24 40 28
f 25 38 41
f 25 41 26
f 26 41 42
f 26 42 43
f 26 43 46
f 26 46 45
f 26 45 39
f 26 39 27
f 28 40 29
f 29 40 31
f 31 37 32
f 32 37 33
f 33 37 34
f 34 37 36
f 34 36 35
f 38 44 41
f 39 45 40
f 41 44 42
f 42 44 43
f 43 44 46

