# https://github.com/mikedh/trimesh
v 0.00863366 -0.00286698 0.01870930
v 0.00854623 -0.00184841 0.01870930
v 0.00924966 -0.00132093 0.01870930
v 0.00924966 -0.00262202 0.01871529
v 0.00978484 -0.00286698 0.01915236
v 0.00865319 -0.00286698 0.02279070
v 0.00854623 -0.00162808 0.02278750
v 0.00854623 -0.00082103 0.01890546
v 0.00863366 -0.00132093 0.01872169
v 0.00924966 -0.00079198 0.01872169
v 0.00954744 0.00003151 0.01875005
v 0.00996330 -0.00079198 0.01885033
v 0.00977786 -0.00184841 0.01883954
v 0.01006507 -0.00199861 0.01906926
v 0.01006811 -0.00253958 0.02089622
v 0.00997996 -0.00286698 0.02149229
v 0.00978574 -0.00262202 0.02256058
v 0.00925951 -0.00262202 0.02278630
v 0.00924966 -0.00132093 0.02279070
v 0.00977786 -0.00079198 0.02278351
v 0.00905973 0.00013008 0.02262011
v 0.00854623 -0.00088381 0.02260093
v 0.00854623 -0.00061801 0.01937888
v 0.00884114 0.00013008 0.01913318
v 0.01037647 -0.00006677 0.02124499
v 0.01022489 -0.00006677 0.01917473
v 0.00994950 -0.00132093 0.01887789
v 0.01025553 -0.00079198 0.01937888
v 0.01020052 -0.00132093 0.01937888
v 0.01021987 -0.00184841 0.02096414
v 0.01021987 -0.00184841 0.02202124
v 0.01007188 -0.00245832 0.02223418
v 0.00995434 -0.00184841 0.02261611
v 0.00997459 -0.00132093 0.02265007
v 0.01019783 -0.00079198 0.02253102
v 0.00999429 -0.00006677 0.02265886
v 0.00874798 0.00013008 0.02202124
v 0.01036858 -0.00006677 0.02205400
v 0.00854623 -0.00061860 0.02202364
v 0.00854623 -0.00060804 0.01990783
v 0.00874206 0.00013008 0.01990783
v 0.01035335 -0.00079198 0.02202124
v 0.01035335 -0.00079198 0.02149229
v 0.01035067 -0.00079198 0.02096414
v 0.01030086 -0.00132093 0.02096414
v 0.01030086 -0.00132093 0.02202124
v 0.00874206 0.00013008 0.02149229
v 0.00854623 -0.00060804 0.02149229
f 1 2 3
f 1 3 4
f 1 4 5
f 1 5 16
f 1 16 6
f 1 6 7
f 1 7 2
f 2 8 9
f 2 9 10
f 2 10 3
f 2 7 22
f 2 22 39
f 2 39 48
f 2 48 40
f 2 40 23
f 2 23 8
f 3 10 11
f 3 11 4
f 4 11 12
f 4 12 13
f 4 13 14
f 4 14 5
f 5 15 16
f 5 14 15
f 6 16 17
f 6 17 18
f 6 18 19
f 6 19 7
f 7 19 20
f 7 20 21
f 7 21 22
f 8 11 9
f 8 23 24
f 8 24 11
f 9 11 10
f 11 24 21
f 11 21 25
f 11 25 26
f 11 26 12
f 12 26 14
f 12 14 27
f 12 27 13
f 13 27 14
f 14 26 28
f 14 28 29
f 14 29 30
f 14 30 15
f 15 30 31
f 15 31 32
f 15 32 16
f 16 32 17
f 17 33 18
f 17 32 33
f 18 20 19
f 18 33 20
f 20 33 34
f 20 34 35
f 20 35 36
f 20 36 21
f 21 37 22
f 21 36 38
f 21 38 25
f 21 24 41
f 21 41 47
f 21 47 37
f 22 37 39
f 23 40 41
f 23 41 24
f 25 38 42
f 25 42 43
f 25 43 44
f 25 44 28
f 25 28 26
f 28 44 45
f 28 45 29
f 29 45 30
f 30 45 46
f 30 46 31
f 31 46 32
f 32 46 35
f 32 35 33
f 33 35 34
f 35 46 42
f 35 42 38
f 35 38 36
f 37 47 39
f 39 47 48
f 40 48 47
f 40 47 41
f 42 46 45
f 42 45 43
f 43 45 44

