# https://github.com/mikedh/trimesh
v 0.00448073 -0.01565854 0.02202198
v 0.00436808 -0.01591927 0.02096475
v 0.00406476 -0.01582077 0.02037017
v 0.00106924 -0.01570885 0.02050852
v 0.00000279 -0.01565854 0.02189715
v 0.00448029 -0.01565854 0.02527091
v 0.00432118 -0.01604796 0.02307986
v 0.00375618 -0.01691584 0.02086629
v 0.00419012 -0.01631235 0.02255092
v 0.00316531 -0.01690547 0.02030968
v 0.00317057 -0.01588938 0.02021059
v 0.00198227 -0.01588938 0.02022603
v 0.00132171 -0.01611992 0.02021895
v 0.00000279 -0.01640261 0.02041586
v 0.00000279 -0.01565854 0.02678309
v 0.00391704 -0.01672982 0.02545688
v 0.00419012 -0.01631235 0.02492794
v 0.00226192 -0.01566433 0.02678309
v 0.00415286 -0.01593055 0.02601156
v 0.00374960 -0.01697469 0.02202198
v 0.00324903 -0.01751384 0.02307986
v 0.00297026 -0.01766052 0.02070156
v 0.00237764 -0.01717687 0.02021123
v 0.00241271 -0.01788191 0.02052589
v 0.00000279 -0.01744065 0.02020930
v 0.00079309 -0.01664840 0.02021123
v 0.00013385 -0.01871320 0.02590023
v 0.00013385 -0.01823321 0.02628375
v 0.00013385 -0.01676641 0.02678309
v 0.00279186 -0.01787947 0.02519241
v 0.00351335 -0.01723847 0.02360687
v 0.00357734 -0.01688656 0.02605917
v 0.00160049 -0.01629801 0.02678309
v 0.00293826 -0.01741839 0.02609843
v 0.00279186 -0.01787947 0.02255092
v 0.00187663 -0.01839697 0.02149304
v 0.00156674 -0.01837318 0.02065008
v 0.00171840 -0.01744065 0.02021123
v 0.00079309 -0.01841984 0.02036567
v 0.00013385 -0.01837715 0.02033028
v 0.00013385 -0.01877388 0.02096475
v 0.00079309 -0.01871503 0.02545688
v 0.00137869 -0.01846772 0.02591053
v 0.00079309 -0.01841984 0.02618723
v 0.00079309 -0.01667158 0.02678309
v 0.00146724 -0.01855158 0.02281539
v 0.00241271 -0.01788191 0.02607526
v 0.00079309 -0.01871503 0.02122922
f 1 2 3
f 1 3 4
f 1 4 5
f 1 5 15
f 1 15 6
f 1 6 7
f 1 7 2
f 2 8 3
f 2 7 9
f 2 9 8
f 3 10 11
f 3 11 4
f 3 8 10
f 4 11 12
f 4 12 13
f 4 13 14
f 4 14 5
f 5 14 25
f 5 25 15
f 6 16 17
f 6 17 7
f 6 15 18
f 6 18 19
f 6 19 16
f 7 17 9
f 8 9 20
f 8 20 21
f 8 21 22
f 8 22 10
f 9 17 16
f 9 16 20
f 10 23 11
f 10 22 24
f 10 24 23
f 11 25 26
f 11 26 13
f 11 13 12
f 11 23 25
f 13 26 14
f 14 26 25
f 15 27 28
f 15 28 29
f 15 29 45
f 15 45 33
f 15 33 18
f 15 25 27
f 16 30 31
f 16 31 20
f 16 19 32
f 16 32 30
f 18 33 34
f 18 34 32
f 18 32 19
f 20 31 21
f 21 31 30
f 21 30 35
f 21 35 22
f 22 36 37
f 22 37 24
f 22 35 36
f 23 38 25
f 23 24 39
f 23 39 38
f 24 37 39
f 25 38 40
f 25 40 41
f 25 41 27
f 27 42 43
f 27 43 44
f 27 44 28
f 27 41 42
f 28 44 45
f 28 45 29
f 30 46 36
f 30 36 35
f 30 32 47
f 30 47 43
f 30 43 46
f 32 34 47
f 33 45 44
f 33 44 47
f 33 47 34
f 36 48 37
f 36 46 48
f 37 48 41
f 37 41 39
f 38 39 40
f 39 41 40
f 41 48 42
f 42 48 46
f 42 46 43
f 43 47 44

