# https://github.com/mikedh/trimesh
v -0.00002350 -0.01241208 0.02678262
v -0.00230350 -0.01241208 0.02678262
v -0.00002350 -0.01317664 0.02678262
v -0.00002350 -0.01241208 0.02191619
v -0.00396428 -0.01241208 0.02626894
v -0.00396381 -0.01241982 0.02627050
v -0.00269968 -0.01313190 0.02678262
v -0.00074586 -0.01384946 0.02678262
v -0.00002350 -0.01317664 0.02307972
v -0.00002350 -0.01267814 0.02202545
v -0.00185693 -0.01384932 0.02149313
v -0.00096471 -0.01241208 0.02149261
v -0.00436326 -0.01241208 0.02611671
v -0.00436466 -0.01241982 0.02611774
v -0.00280281 -0.01347661 0.02678262
v -0.00443652 -0.01294842 0.02613794
v -0.00138656 -0.01384946 0.02678262
v -0.00074586 -0.01384946 0.02307972
v -0.00075192 -0.01384946 0.02255051
v -0.00002350 -0.01317129 0.02277214
v -0.00002350 -0.01297938 0.02214972
v -0.00464044 -0.01384946 0.02149261
v -0.00089332 -0.01384946 0.02216060
v -0.00478183 -0.01241208 0.02149261
v -0.00450232 -0.01241208 0.02572731
v -0.00450698 -0.01241982 0.02572110
v -0.00476503 -0.01366487 0.02599916
v -0.00450465 -0.01384946 0.02614570
v -0.00283407 -0.01384946 0.02678158
v -0.00453498 -0.01348407 0.02611515
v -0.00002350 -0.01316707 0.02255051
v -0.00478743 -0.01384946 0.02149261
v -0.00479070 -0.01241236 0.02149261
v -0.00479070 -0.01241208 0.02149313
v -0.00450371 -0.01241208 0.02572110
v -0.00477343 -0.01241208 0.02234753
v -0.00465444 -0.01294842 0.02572110
v -0.00477390 -0.01384946 0.02584796
v -0.00476690 -0.01384946 0.02600331
v -0.00473564 -0.01336222 0.02572110
v -0.00479070 -0.01241208 0.02202234
v -0.00476923 -0.01362646 0.02572110
v -0.00479070 -0.01347661 0.02149313
v -0.00478930 -0.01347717 0.02149261
v -0.00478743 -0.01384946 0.02202234
v -0.00479070 -0.01294885 0.02149261
v -0.00477623 -0.01384946 0.02572110
v -0.00479070 -0.01347661 0.02202234
f 1 2 7
f 1 7 15
f 1 15 17
f 1 17 8
f 1 8 3
f 1 3 9
f 1 9 20
f 1 20 31
f 1 31 21
f 1 21 10
f 1 10 4
f 1 4 12
f 1 12 24
f 1 24 34
f 1 34 41
f 1 41 36
f 1 36 35
f 1 35 25
f 1 25 13
f 1 13 5
f 1 5 2
f 2 5 6
f 2 6 7
f 3 8 18
f 3 18 9
f 4 10 11
f 4 11 12
f 5 13 14
f 5 14 6
f 6 15 7
f 6 14 16
f 6 16 15
f 8 17 29
f 8 29 28
f 8 28 39
f 8 39 38
f 8 38 47
f 8 47 45
f 8 45 32
f 8 32 22
f 8 22 23
f 8 23 19
f 8 19 18
f 9 18 19
f 9 19 20
f 10 21 11
f 11 22 12
f 11 21 23
f 11 23 22
f 12 22 32
f 12 32 44
f 12 44 46
f 12 46 33
f 12 33 24
f 13 25 26
f 13 26 27
f 13 27 14
f 14 27 16
f 15 16 28
f 15 28 29
f 15 29 17
f 16 27 30
f 16 30 28
f 19 31 20
f 19 23 31
f 21 31 23
f 24 33 34
f 25 35 26
f 26 35 36
f 26 36 37
f 26 37 27
f 27 38 39
f 27 39 28
f 27 28 30
f 27 37 40
f 27 40 41
f 27 41 42
f 27 42 38
f 32 43 44
f 32 45 48
f 32 48 43
f 33 46 43
f 33 43 48
f 33 48 41
f 33 41 34
f 36 41 40
f 36 40 37
f 38 42 47
f 41 47 42
f 41 48 47
f 43 46 44
f 45 47 48

