# https://github.com/mikedh/trimesh
v -0.00138644 0.01281472 0.02171720
v -0.00044587 0.01223823 0.02171720
v 0.00026129 0.01213143 0.02167477
v -0.00160403 0.01281472 0.02074238
v -0.00479070 0.01281472 0.02171720
v -0.00037614 0.01214975 0.02171720
v 0.00026129 0.01082898 0.02167477
v 0.00026129 0.01198331 0.02096422
v -0.00169057 0.01281472 0.02056036
v -0.00479070 0.01281472 0.02096437
v -0.00479070 0.01082372 0.02171720
v -0.00037614 0.01082372 0.02171720
v 0.00026080 0.01082372 0.02167477
v 0.00026129 0.01082372 0.02163573
v 0.00026129 0.01180285 0.02048195
v -0.00174843 0.01281472 0.02047565
v -0.00477339 0.01281472 0.02064460
v -0.00479070 0.01082372 0.02096437
v 0.00026129 0.01082372 0.02026611
v 0.00026129 0.01136493 0.02023644
v -0.00224344 0.01281472 0.02023967
v -0.00477339 0.01082372 0.02064460
v -0.00449201 0.01281472 0.02039909
v 0.00008475 0.01082372 0.02014681
v 0.00026129 0.01082488 0.02014697
v -0.00237844 0.01281472 0.02022076
v -0.00449201 0.01082372 0.02039909
v -0.00435651 0.01281472 0.02035036
v -0.00447965 0.01082372 0.02039448
v -0.00026438 0.01082372 0.02014681
v -0.00290659 0.01281472 0.02020954
v -0.00277109 0.01281472 0.02021015
v -0.00396387 0.01281472 0.02020954
v -0.00396387 0.01082372 0.02020923
v -0.00037614 0.01082372 0.02014804
v -0.00395200 0.01082372 0.02020892
v -0.00046219 0.01082372 0.02014912
f 1 2 3
f 1 3 4
f 1 4 9
f 1 9 16
f 1 16 21
f 1 21 26
f 1 26 32
f 1 32 31
f 1 31 33
f 1 33 28
f 1 28 23
f 1 23 17
f 1 17 10
f 1 10 5
f 1 5 11
f 1 11 12
f 1 12 6
f 1 6 2
f 2 6 3
f 3 6 12
f 3 12 7
f 3 7 14
f 3 14 19
f 3 19 25
f 3 25 20
f 3 20 15
f 3 15 8
f 3 8 4
f 4 8 9
f 5 10 18
f 5 18 11
f 7 13 14
f 7 12 13
f 8 15 16
f 8 16 9
f 10 17 22
f 10 22 18
f 11 18 22
f 11 22 27
f 11 27 29
f 11 29 34
f 11 34 36
f 11 36 37
f 11 37 35
f 11 35 30
f 11 30 24
f 11 24 19
f 11 19 14
f 11 14 13
f 11 13 12
f 15 20 21
f 15 21 16
f 17 23 27
f 17 27 22
f 19 24 25
f 20 25 26
f 20 26 21
f 23 28 29
f 23 29 27
f 24 30 33
f 24 33 31
f 24 31 25
f 25 31 32
f 25 32 26
f 28 33 34
f 28 34 29
f 30 35 33
f 33 36 34
f 33 35 37
f 33 37 36

