# https://github.com/mikedh/trimesh
v -0.00456945 0.01261612 0.02360347
v -0.00425903 0.01182428 0.02360347
v -0.00456855 0.01261807 0.02519309
v -0.00251639 0.01281472 0.02680906
v 0.00456957 0.01261807 0.02360442
v 0.00425915 0.01182565 0.02360347
v -0.00425635 0.01182623 0.02572118
v -0.00398529 0.01136161 0.02360347
v -0.00408816 0.01152961 0.02519309
v -0.00456140 0.01261807 0.02572118
v -0.00439143 0.01261807 0.02612533
v -0.00396292 0.01242143 0.02627061
v -0.00220597 0.01225207 0.02680906
v 0.00251651 0.01281472 0.02680906
v 0.00456778 0.01261807 0.02522666
v 0.00408829 0.01152961 0.02519309
v 0.00398720 0.01136493 0.02360347
v -0.00397903 0.01136493 0.02572118
v -0.00378669 0.01120999 0.02606226
v -0.00414542 0.01194551 0.02610682
v -0.00366503 0.01092720 0.02360347
v -0.00366145 0.01092818 0.02572118
v -0.00343512 0.01136493 0.02624771
v -0.00290553 0.01082995 0.02625492
v -0.00185351 0.01188626 0.02680906
v 0.00227408 0.01237037 0.02680906
v 0.00396305 0.01242143 0.02627061
v 0.00436561 0.01261807 0.02613537
v 0.00455347 0.01261807 0.02574660
v 0.00398004 0.01136493 0.02572118
v 0.00366426 0.01092701 0.02360347
v -0.00340560 0.01084301 0.02610368
v -0.00237684 0.01082372 0.02628912
v -0.00026295 0.01122636 0.02680906
v -0.00079254 0.01133199 0.02680906
v -0.00143842 0.01157833 0.02680906
v 0.00183574 0.01187378 0.02680906
v 0.00343435 0.01136493 0.02624771
v 0.00383691 0.01136493 0.02609489
v 0.00420100 0.01188587 0.02591384
v 0.00354886 0.01091726 0.02599417
v 0.00290029 0.01082995 0.02625680
v 0.00236533 0.01082372 0.02629069
v -0.00027636 0.01082372 0.02634843
v 0.00026307 0.01082372 0.02634843
v 0.00027827 0.01122928 0.02680906
v 0.00137503 0.01154462 0.02680906
v 0.00079176 0.01133199 0.02680906
f 1 2 3
f 1 3 4
f 1 4 5
f 1 5 6
f 1 6 17
f 1 17 31
f 1 31 21
f 1 21 8
f 1 8 2
f 2 7 3
f 2 8 9
f 2 9 7
f 3 7 10
f 3 10 4
f 4 10 11
f 4 11 12
f 4 12 13
f 4 13 25
f 4 25 36
f 4 36 35
f 4 35 34
f 4 34 46
f 4 46 48
f 4 48 47
f 4 47 37
f 4 37 26
f 4 26 14
f 4 14 5
f 5 14 15
f 5 15 6
f 6 15 16
f 6 16 17
f 7 9 18
f 7 18 19
f 7 19 20
f 7 20 10
f 8 18 9
f 8 21 22
f 8 22 18
f 10 20 11
f 11 20 12
f 12 20 23
f 12 23 13
f 13 23 24
f 13 24 25
f 14 26 27
f 14 27 28
f 14 28 29
f 14 29 15
f 15 29 16
f 16 30 17
f 16 29 30
f 17 30 31
f 18 22 19
f 19 22 32
f 19 32 23
f 19 23 20
f 21 33 24
f 21 24 32
f 21 32 22
f 21 31 33
f 23 32 24
f 24 33 34
f 24 34 35
f 24 35 36
f 24 36 25
f 26 37 38
f 26 38 27
f 27 39 28
f 27 38 39
f 28 39 40
f 28 40 29
f 29 40 30
f 30 39 41
f 30 41 31
f 30 40 39
f 31 41 42
f 31 42 43
f 31 43 33
f 33 43 45
f 33 45 44
f 33 44 34
f 34 44 45
f 34 45 46
f 37 47 42
f 37 42 38
f 38 42 39
f 39 42 41
f 42 47 48
f 42 48 46
f 42 46 43
f 43 46 45

