# https://github.com/mikedh/trimesh
v 0.00290690 -0.01565854 0.02020946
v 0.00290690 -0.01468340 0.02020946
v 0.00343543 -0.01559095 0.02020946
v 0.00343543 -0.01565854 0.02020962
v 0.00237880 -0.01565854 0.02021151
v 0.00237880 -0.01468340 0.02022984
v 0.00343543 -0.01468340 0.02020946
v 0.00237880 -0.01559095 0.02021183
v 0.00396396 -0.01468340 0.02021041
v 0.00396396 -0.01506257 0.02021262
v 0.00396396 -0.01559095 0.02023632
v 0.00396866 -0.01565854 0.02025955
v 0.00185027 -0.01565854 0.02027140
v 0.00134225 -0.01565854 0.02043383
v 0.00115425 -0.01565854 0.02050161
v 0.00195837 -0.01468340 0.02047617
v 0.00451129 -0.01468340 0.02047823
v 0.00444506 -0.01506257 0.02045800
v 0.00436815 -0.01559095 0.02048170
v 0.00435448 -0.01565854 0.02049671
v 0.00036851 -0.01565854 0.02182349
v 0.00037919 -0.01564259 0.02182349
v 0.00183019 -0.01468340 0.02096457
v 0.00473304 -0.01468340 0.02096457
v 0.00466169 -0.01506257 0.02096457
v 0.00450787 -0.01559095 0.02096457
v 0.00448053 -0.01565854 0.02096457
v 0.00448053 -0.01565854 0.02182349
v 0.00169688 -0.01468340 0.02182349
v 0.00473347 -0.01468340 0.02182349
v 0.00469117 -0.01490774 0.02182349
v 0.00466169 -0.01506257 0.02182349
v 0.00450830 -0.01559095 0.02182349
f 1 2 7
f 1 7 3
f 1 3 4
f 1 4 12
f 1 12 20
f 1 20 27
f 1 27 28
f 1 28 21
f 1 21 15
f 1 15 14
f 1 14 13
f 1 13 5
f 1 5 2
f 2 6 16
f 2 16 23
f 2 23 29
f 2 29 30
f 2 30 24
f 2 24 17
f 2 17 9
f 2 9 7
f 2 5 8
f 2 8 6
f 3 7 9
f 3 9 4
f 4 9 10
f 4 10 11
f 4 11 12
f 5 13 8
f 6 8 13
f 6 13 14
f 6 14 15
f 6 15 16
f 9 17 10
f 10 17 18
f 10 18 11
f 11 18 19
f 11 19 12
f 12 19 20
f 15 21 22
f 15 22 16
f 16 22 23
f 17 24 18
f 18 24 19
f 19 24 25
f 19 25 20
f 20 25 26
f 20 26 27
f 21 28 33
f 21 33 32
f 21 32 31
f 21 31 30
f 21 30 29
f 21 29 22
f 22 29 23
f 24 30 25
f 25 30 31
f 25 31 32
f 25 32 33
f 25 33 26
f 26 33 27
f 27 33 28

