# https://github.com/mikedh/trimesh
v 0.00284966 0.01403041 0.02677299
v 0.00078633 0.01403041 0.02677299
v 0.00280257 0.01454003 0.02677299
v 0.00277448 0.01403041 0.02942073
v 0.00003668 0.01482994 0.02677299
v 0.00078633 0.01403041 0.02889235
v 0.00270039 0.01487924 0.02677299
v 0.00260152 0.01497088 0.02942073
v 0.00272408 0.01453628 0.02942073
v 0.00266762 0.01468097 0.02973509
v 0.00270838 0.01403041 0.02980686
v 0.00003668 0.01546603 0.03004621
v 0.00015263 0.01676768 0.02677299
v 0.00003668 0.01482994 0.02889235
v 0.00079129 0.01403041 0.02942073
v 0.00220604 0.01577335 0.02677299
v 0.00228178 0.01557267 0.02942073
v 0.00222560 0.01549121 0.02980914
v 0.00239249 0.01502714 0.02985363
v 0.00237817 0.01453628 0.02996567
v 0.00237817 0.01403041 0.03000951
v 0.00003668 0.01502527 0.02989195
v 0.00132172 0.01403041 0.03005855
v 0.00009369 0.01600727 0.03008713
v 0.00015070 0.01676473 0.02942073
v 0.00080120 0.01667336 0.02677299
v 0.00003668 0.01486584 0.02950354
v 0.00092459 0.01403041 0.02985623
v 0.00184168 0.01612837 0.02677299
v 0.00209671 0.01583686 0.02942073
v 0.00174997 0.01600217 0.02981498
v 0.00189566 0.01563751 0.02991858
v 0.00184967 0.01506466 0.03008193
v 0.00184967 0.01453628 0.03009070
v 0.00184967 0.01403041 0.03009070
v 0.00132172 0.01559276 0.03008648
v 0.00079322 0.01612141 0.03006017
v 0.00015070 0.01652626 0.02990591
v 0.00079322 0.01559276 0.03009070
v 0.00079322 0.01665970 0.02942073
v 0.00079322 0.01652278 0.02985752
v 0.00144014 0.01642498 0.02677299
v 0.00150817 0.01633897 0.02942073
v 0.00183259 0.01607479 0.02942073
v 0.00118209 0.01645044 0.02978510
v 0.00134375 0.01615544 0.02990429
v 0.00132172 0.01506466 0.03009070
v 0.00124461 0.01648313 0.02942073
f 1 2 5
f 1 5 13
f 1 13 26
f 1 26 42
f 1 42 29
f 1 29 16
f 1 16 7
f 1 7 3
f 1 3 4
f 1 4 11
f 1 11 21
f 1 21 35
f 1 35 23
f 1 23 28
f 1 28 15
f 1 15 6
f 1 6 2
f 2 6 14
f 2 14 5
f 3 7 8
f 3 8 9
f 3 9 4
f 4 9 10
f 4 10 11
f 5 12 13
f 5 14 27
f 5 27 22
f 5 22 12
f 6 15 14
f 7 16 17
f 7 17 8
f 8 17 18
f 8 18 10
f 8 10 9
f 10 18 19
f 10 19 20
f 10 20 11
f 11 20 21
f 12 22 23
f 12 23 24
f 12 24 25
f 12 25 13
f 13 25 26
f 14 15 27
f 15 28 27
f 16 29 30
f 16 30 17
f 17 30 18
f 18 31 32
f 18 32 19
f 18 30 31
f 19 32 33
f 19 33 20
f 20 33 21
f 21 33 34
f 21 34 35
f 22 28 23
f 22 27 28
f 23 35 24
f 24 36 37
f 24 37 38
f 24 38 25
f 24 35 39
f 24 39 36
f 25 40 26
f 25 38 41
f 25 41 40
f 26 40 42
f 29 42 43
f 29 43 44
f 29 44 30
f 30 44 31
f 31 44 43
f 31 43 45
f 31 45 46
f 31 46 32
f 32 46 36
f 32 36 33
f 33 36 34
f 34 36 47
f 34 47 39
f 34 39 35
f 36 39 47
f 36 46 37
f 37 46 41
f 37 41 38
f 40 48 42
f 40 41 45
f 40 45 48
f 41 46 45
f 42 48 43
f 43 48 45

