# https://github.com/mikedh/trimesh
v -0.00554922 -0.00766286 0.01870930
v -0.00607746 -0.00766286 0.01874845
v -0.00652080 -0.00695573 0.01872129
v -0.00185075 -0.00689604 0.01870930
v -0.00458215 -0.00810106 0.01870930
v -0.00511114 -0.00810106 0.01871449
v -0.00563864 -0.00810106 0.01879320
v -0.00677854 -0.00757286 0.01896619
v -0.00729326 -0.00696021 0.01892783
v -0.00757654 -0.00695160 0.01937888
v -0.00161255 -0.00689604 0.02279070
v -0.00108355 -0.00689604 0.02278750
v -0.00000076 -0.00699689 0.01890666
v -0.00132250 -0.00701529 0.01871769
v -0.00185075 -0.00810106 0.01870930
v -0.00554922 -0.00810106 0.02275714
v -0.00622399 -0.00808243 0.02252902
v -0.00631792 -0.00806426 0.01920989
v -0.00671166 -0.00779143 0.01937888
v -0.00713997 -0.00739923 0.01937888
v -0.00721060 -0.00746847 0.02096414
v -0.00767723 -0.00698746 0.02096414
v -0.00767723 -0.00698757 0.02202124
v -0.00185075 -0.00810106 0.02279070
v -0.00735562 -0.00699170 0.02254939
v -0.00660571 -0.00701529 0.02278710
v -0.00607746 -0.00701529 0.02279070
v -0.00128493 -0.00810106 0.02275075
v -0.00000076 -0.00697932 0.02257616
v -0.00000076 -0.00725321 0.01937888
v -0.00091448 -0.00810106 0.01894341
v -0.00136759 -0.00810106 0.01873767
v -0.00607746 -0.00766286 0.02278191
v -0.00502022 -0.00810106 0.02278950
v -0.00665004 -0.00797332 0.02202124
v -0.00681836 -0.00760837 0.02251344
v -0.00665004 -0.00797332 0.02096414
v -0.00721060 -0.00746871 0.02202124
v -0.00746834 -0.00721133 0.02149229
v -0.00449198 -0.00810106 0.02279070
v -0.00554922 -0.00766286 0.02279070
v -0.00089795 -0.00810106 0.02247708
v -0.00076495 -0.00810106 0.02202124
v -0.00000076 -0.00726052 0.02169085
v -0.00000076 -0.00726182 0.01990783
v -0.00076570 -0.00810106 0.01937888
v -0.00076044 -0.00810106 0.02149229
v -0.00076044 -0.00810106 0.01990783
f 1 2 3
f 1 3 4
f 1 4 15
f 1 15 5
f 1 5 6
f 1 6 2
f 2 6 7
f 2 7 8
f 2 8 9
f 2 9 3
f 3 9 10
f 3 10 4
f 4 11 12
f 4 12 13
f 4 13 14
f 4 14 15
f 4 10 11
f 5 15 32
f 5 32 31
f 5 31 46
f 5 46 48
f 5 48 47
f 5 47 43
f 5 43 42
f 5 42 28
f 5 28 24
f 5 24 40
f 5 40 34
f 5 34 16
f 5 16 7
f 5 7 6
f 7 16 17
f 7 17 18
f 7 18 8
f 8 19 20
f 8 20 10
f 8 10 9
f 8 18 19
f 10 20 21
f 10 21 22
f 10 22 23
f 10 23 11
f 11 24 12
f 11 23 25
f 11 25 26
f 11 26 27
f 11 27 41
f 11 41 40
f 11 40 24
f 12 24 28
f 12 28 29
f 12 29 13
f 13 29 44
f 13 44 45
f 13 45 30
f 13 30 31
f 13 31 32
f 13 32 14
f 14 32 15
f 16 33 17
f 16 34 33
f 17 35 18
f 17 33 36
f 17 36 35
f 18 35 37
f 18 37 19
f 19 21 20
f 19 37 21
f 21 37 38
f 21 38 39
f 21 39 22
f 22 39 23
f 23 39 38
f 23 38 36
f 23 36 25
f 25 36 33
f 25 33 26
f 26 33 41
f 26 41 27
f 28 42 29
f 29 42 43
f 29 43 44
f 30 45 46
f 30 46 31
f 33 34 41
f 34 40 41
f 35 36 38
f 35 38 37
f 43 47 44
f 44 47 45
f 45 47 48
f 45 48 46

