# https://github.com/mikedh/trimesh
v -0.00425855 -0.01182447 0.02361420
v -0.00450940 -0.01241186 0.02361513
v -0.00450851 -0.01241186 0.02520144
v -0.00419408 -0.01169246 0.02413594
v -0.00398475 -0.01136286 0.02361420
v -0.00002338 -0.01241186 0.02361420
v -0.00002338 -0.01242251 0.02364894
v -0.00002338 -0.01242251 0.02678309
v -0.00443167 -0.01241186 0.02592107
v -0.00420026 -0.01188498 0.02591394
v -0.00397857 -0.01136286 0.02572131
v -0.00408809 -0.01152799 0.02519306
v -0.00363322 -0.01089452 0.02361792
v -0.00002338 -0.01074759 0.02363157
v 0.00399274 -0.01137597 0.02364894
v 0.00426213 -0.01183365 0.02364894
v 0.00451386 -0.01242251 0.02364894
v -0.00227478 -0.01235856 0.02678309
v -0.00396355 -0.01241186 0.02626911
v 0.00451121 -0.01242251 0.02519306
v 0.00396359 -0.01242104 0.02627035
v 0.00221741 -0.01225624 0.02678309
v -0.00363587 -0.01136286 0.02617109
v -0.00349808 -0.01085188 0.02595085
v -0.00288246 -0.01079105 0.02624770
v -0.00229156 -0.01074759 0.02629051
v 0.00035023 -0.01074743 0.02633952
v 0.00349901 -0.01074743 0.02519306
v 0.00356083 -0.01081958 0.02387414
v 0.00375426 -0.01103095 0.02519306
v 0.00397861 -0.01136302 0.02572069
v 0.00408813 -0.01152815 0.02519306
v 0.00419235 -0.01169246 0.02413625
v -0.00185789 -0.01188563 0.02678309
v 0.00420030 -0.01188498 0.02591363
v 0.00443525 -0.01242104 0.02591952
v 0.00363591 -0.01136302 0.02617109
v 0.00290193 -0.01079105 0.02624181
v 0.00185263 -0.01187957 0.02678309
v -0.00136239 -0.01153323 0.02678309
v -0.00079269 -0.01133006 0.02678309
v -0.00026451 -0.01122511 0.02678309
v -0.00014351 -0.01074759 0.02633952
v 0.00026279 -0.01122511 0.02678309
v 0.00237728 -0.01074743 0.02627965
v 0.00359528 -0.01091141 0.02589161
v 0.00079009 -0.01132957 0.02678309
v 0.00144722 -0.01157751 0.02678309
f 1 2 3
f 1 3 4
f 1 4 5
f 1 5 6
f 1 6 2
f 2 6 7
f 2 7 8
f 2 8 3
f 3 9 10
f 3 10 11
f 3 11 12
f 3 12 4
f 3 8 9
f 4 12 5
f 5 12 11
f 5 11 13
f 5 13 6
f 6 14 15
f 6 15 16
f 6 16 17
f 6 17 7
f 6 13 14
f 7 17 20
f 7 20 8
f 8 18 19
f 8 19 9
f 8 20 21
f 8 21 22
f 8 22 39
f 8 39 48
f 8 48 47
f 8 47 44
f 8 44 42
f 8 42 41
f 8 41 40
f 8 40 34
f 8 34 18
f 9 19 23
f 9 23 10
f 10 23 24
f 10 24 11
f 11 24 13
f 13 24 25
f 13 25 26
f 13 26 14
f 14 26 27
f 14 27 28
f 14 28 29
f 14 29 15
f 15 29 30
f 15 30 31
f 15 31 32
f 15 32 33
f 15 33 16
f 16 33 20
f 16 20 17
f 18 34 25
f 18 25 23
f 18 23 19
f 20 33 32
f 20 32 31
f 20 31 35
f 20 35 36
f 20 36 21
f 21 36 37
f 21 37 22
f 22 38 39
f 22 37 38
f 23 25 24
f 25 34 40
f 25 40 41
f 25 41 26
f 26 41 42
f 26 42 43
f 26 43 27
f 27 44 45
f 27 45 28
f 27 43 42
f 27 42 44
f 28 45 38
f 28 38 46
f 28 46 30
f 28 30 29
f 30 46 31
f 31 46 35
f 35 46 37
f 35 37 36
f 37 46 38
f 38 45 47
f 38 47 48
f 38 48 39
f 44 47 45

