# https://github.com/mikedh/trimesh
v -0.00008397 0.01281484 0.02995040
v -0.00008397 0.01287325 0.02992962
v -0.00129961 0.01403029 0.03005010
v -0.00132155 0.01403029 0.03005855
v -0.00079298 0.01281484 0.03005400
v -0.00008397 0.01281484 0.02677299
v -0.00008397 0.01298711 0.02988903
v -0.00092438 0.01403029 0.02985623
v -0.00182683 0.01403029 0.03008940
v -0.00132155 0.01295047 0.03009070
v -0.00132155 0.01281484 0.03008940
v -0.00252311 0.01281484 0.02677299
v -0.00078593 0.01403029 0.02677299
v -0.00008478 0.01317795 0.02677396
v -0.00008397 0.01317795 0.02889235
v -0.00091598 0.01403029 0.02983187
v -0.00008397 0.01307896 0.02966137
v -0.00184986 0.01403029 0.03009070
v -0.00184986 0.01347872 0.03009070
v -0.00184986 0.01295047 0.03008258
v -0.00186097 0.01281484 0.03004426
v -0.00270382 0.01312941 0.02677299
v -0.00250008 0.01281484 0.02942073
v -0.00284958 0.01403029 0.02677299
v -0.00078593 0.01403029 0.02889235
v -0.00008397 0.01317616 0.02938890
v -0.00008397 0.01317604 0.02942073
v -0.00079108 0.01403029 0.02942073
v -0.00235541 0.01403029 0.03001471
v -0.00237844 0.01400721 0.03001146
v -0.00237844 0.01347872 0.02996924
v -0.00239415 0.01298509 0.02985623
v -0.00233373 0.01281484 0.02983934
v -0.00280677 0.01347479 0.02677299
v -0.00255020 0.01290490 0.02942073
v -0.00265993 0.01316914 0.02942073
v -0.00265424 0.01318425 0.02971073
v -0.00285174 0.01400721 0.02677299
v -0.00277724 0.01400721 0.02942073
v -0.00277480 0.01403029 0.02942073
v -0.00237844 0.01403029 0.03000951
v -0.00270978 0.01400721 0.02980881
v -0.00268512 0.01347872 0.02976659
v -0.00285120 0.01399900 0.02677299
v -0.00272739 0.01347872 0.02942073
v -0.00270869 0.01403029 0.02980686
v -0.00277317 0.01403029 0.02943567
v -0.00269542 0.01403029 0.02981563
f 1 2 3
f 1 3 4
f 1 4 5
f 1 5 11
f 1 11 21
f 1 21 33
f 1 33 23
f 1 23 12
f 1 12 6
f 1 6 15
f 1 15 26
f 1 26 27
f 1 27 17
f 1 17 7
f 1 7 2
f 2 7 3
f 3 7 8
f 3 8 16
f 3 16 28
f 3 28 25
f 3 25 13
f 3 13 24
f 3 24 40
f 3 40 47
f 3 47 46
f 3 46 48
f 3 48 41
f 3 41 29
f 3 29 18
f 3 18 9
f 3 9 4
f 4 9 10
f 4 10 5
f 5 10 11
f 6 12 22
f 6 22 34
f 6 34 44
f 6 44 38
f 6 38 24
f 6 24 13
f 6 13 14
f 6 14 15
f 7 16 8
f 7 17 16
f 9 18 10
f 10 19 11
f 10 18 19
f 11 19 20
f 11 20 21
f 12 23 22
f 13 25 15
f 13 15 14
f 15 25 26
f 16 17 27
f 16 27 28
f 18 29 30
f 18 30 19
f 19 30 20
f 20 30 31
f 20 31 32
f 20 32 21
f 21 32 33
f 22 23 35
f 22 35 36
f 22 36 34
f 23 37 35
f 23 33 37
f 24 38 39
f 24 39 40
f 25 28 27
f 25 27 26
f 29 41 30
f 30 41 42
f 30 42 31
f 31 42 43
f 31 43 32
f 32 43 37
f 32 37 33
f 34 36 45
f 34 45 39
f 34 39 44
f 35 37 36
f 36 37 45
f 37 43 45
f 38 44 39
f 39 45 43
f 39 43 42
f 39 42 46
f 39 46 47
f 39 47 40
f 41 48 42
f 42 48 46

