# https://github.com/mikedh/trimesh
v -0.00819187 -0.00449204 0.01870930
v -0.00871955 -0.00369934 0.01871090
v -0.00158693 -0.00689564 0.01871250
v -0.00713463 -0.00607664 0.01870930
v -0.00766231 -0.00554818 0.01870930
v -0.00819187 -0.00501971 0.01871609
v -0.00908770 -0.00298516 0.01876044
v -0.00374107 -0.00282455 0.01873767
v -0.00025499 -0.00466102 0.01877522
v -0.00025499 -0.00641381 0.01875285
v -0.00134811 -0.00689564 0.02278910
v -0.00665226 -0.00685938 0.01873367
v -0.00796249 -0.00595110 0.01884953
v -0.00908675 -0.00461160 0.01919830
v -0.00956535 -0.00372644 0.01928979
v -0.00987308 -0.00286560 0.01937888
v -0.00281503 -0.00282455 0.02149229
v -0.00291226 -0.00282455 0.01916594
v -0.00989857 -0.00284686 0.02224976
v -0.00025499 -0.00399028 0.01963696
v -0.00025499 -0.00501971 0.02279070
v -0.00028709 -0.00641381 0.02275394
v -0.00634170 -0.00682311 0.02278990
v -0.00738761 -0.00675575 0.02263289
v -0.00790019 -0.00673543 0.02122821
v -0.00781523 -0.00660152 0.01918592
v -0.00890457 -0.00533097 0.02096414
v -0.00945679 -0.00427803 0.02096414
v -0.00988630 -0.00315215 0.02106841
v -0.00025499 -0.00398948 0.02175677
v -0.00281503 -0.00282455 0.01989665
v -0.00898386 -0.00284527 0.02278950
v -0.00422910 -0.00284527 0.02279030
v -0.00316902 -0.00284527 0.02249266
v -0.00979662 -0.00343511 0.02175677
v -0.00945679 -0.00427803 0.02202124
v -0.00943225 -0.00353993 0.02262011
v -0.00713463 -0.00607664 0.02279070
v -0.00025499 -0.00429835 0.02264368
v -0.00819187 -0.00449204 0.02279070
v -0.00766231 -0.00607664 0.02278191
v -0.00837595 -0.00563227 0.02259933
v -0.00823152 -0.00626276 0.02213990
v -0.00843542 -0.00605193 0.02096414
v -0.00890457 -0.00533097 0.02202124
v -0.00871955 -0.00369934 0.02279030
v -0.00851093 -0.00485272 0.02272198
v -0.00766231 -0.00554818 0.02279070
f 1 2 3
f 1 3 4
f 1 4 5
f 1 5 2
f 2 5 6
f 2 6 7
f 2 7 8
f 2 8 3
f 3 8 9
f 3 9 10
f 3 10 11
f 3 11 12
f 3 12 4
f 4 12 5
f 5 12 6
f 6 13 14
f 6 14 7
f 6 12 13
f 7 14 15
f 7 15 16
f 7 16 8
f 8 17 31
f 8 31 18
f 8 18 9
f 8 16 19
f 8 19 17
f 9 20 30
f 9 30 39
f 9 39 21
f 9 21 10
f 9 18 20
f 10 21 22
f 10 22 11
f 11 22 21
f 11 21 23
f 11 23 12
f 12 23 24
f 12 24 25
f 12 25 26
f 12 26 13
f 13 26 14
f 14 27 15
f 14 26 27
f 15 28 29
f 15 29 16
f 15 27 28
f 16 29 19
f 17 30 31
f 17 19 32
f 17 32 33
f 17 33 34
f 17 34 30
f 18 31 20
f 19 29 35
f 19 35 36
f 19 36 37
f 19 37 32
f 20 31 30
f 21 38 23
f 21 39 33
f 21 33 40
f 21 40 48
f 21 48 38
f 23 38 41
f 23 41 24
f 24 41 42
f 24 42 43
f 24 43 25
f 25 43 44
f 25 44 26
f 26 44 27
f 27 44 45
f 27 45 36
f 27 36 28
f 28 35 29
f 28 36 35
f 30 34 39
f 32 37 46
f 32 46 33
f 33 39 34
f 33 46 40
f 36 45 42
f 36 42 37
f 37 42 47
f 37 47 46
f 38 48 41
f 40 46 48
f 41 48 46
f 41 46 47
f 41 47 42
f 42 45 43
f 43 45 44

