# https://github.com/mikedh/trimesh
v 0.01230000 -0.00800000 0.01435000
v 0.01229767 -0.00792225 0.01435000
v 0.01229070 -0.00784479 0.01435000
v 0.01227911 -0.00776788 0.01435000
v 0.01226294 -0.00769180 0.01435000
v 0.01224224 -0.00761682 0.01435000
v 0.01221711 -0.00754321 0.01435000
v 0.01218761 -0.00747124 0.01435000
v 0.01215386 -0.00740116 0.01435000
v 0.01211598 -0.00733323 0.01435000
v 0.01207411 -0.00726768 0.01435000
v 0.01202839 -0.00720476 0.01435000
v 0.01197899 -0.00714468 0.01435000
v 0.01192609 -0.00708766 0.01435000
v 0.01186987 -0.00703391 0.01435000
v 0.01181054 -0.00698362 0.01435000
v 0.01174830 -0.00693696 0.01435000
v 0.01168339 -0.00689412 0.01435000
v 0.01161603 -0.00685523 0.01435000
v 0.01154646 -0.00682043 0.01435000
v 0.01147494 -0.00678986 0.01435000
v 0.01140172 -0.00676363 0.01435000
v 0.01132706 -0.00674181 0.01435000
v 0.01125123 -0.00672451 0.01435000
v 0.01117450 -0.00671177 0.01435000
v 0.01109715 -0.00670364 0.01435000
v 0.01101945 -0.00670015 0.01435000
v 0.01094168 -0.00670131 0.01435000
v 0.01086411 -0.00670712 0.01435000
v 0.01078704 -0.00671756 0.01435000
v 0.01071072 -0.00673259 0.01435000
v 0.01063544 -0.00675216 0.01435000
v 0.01056147 -0.00677620 0.01435000
v 0.01048907 -0.00680461 0.01435000
v 0.01041849 -0.00683731 0.01435000
v 0.01035000 -0.00687417 0.01435000
v 0.01028383 -0.00691505 0.01435000
v 0.01022023 -0.00695983 0.01435000
v 0.01015942 -0.00700832 0.01435000
v 0.01010162 -0.00706037 0.01435000
v 0.01004703 -0.00711578 0.01435000
v 0.00999586 -0.00717435 0.01435000
v 0.00994828 -0.00723588 0.01435000
v 0.00990446 -0.00730014 0.01435000
v 0.00986457 -0.00736691 0.01435000
v 0.00982874 -0.00743595 0.01435000
v 0.00979710 -0.00750701 0.01435000
v 0.00976977 -0.00757983 0.01435000
v 0.00974685 -0.00765415 0.01435000
v 0.00972841 -0.00772971 0.01435000
v 0.00971452 -0.00780625 0.01435000
v 0.00970523 -0.00788347 0.01435000
v 0.00970058 -0.00796111 0.01435000
v 0.00970058 -0.00803889 0.01435000
v 0.00970523 -0.00811653 0.01435000
v 0.00971452 -0.00819375 0.01435000
v 0.00972841 -0.00827029 0.01435000
v 0.00974685 -0.00834585 0.01435000
v 0.00976977 -0.00842017 0.01435000
v 0.00979710 -0.00849299 0.01435000
v 0.00982874 -0.00856405 0.01435000
v 0.00986457 -0.00863309 0.01435000
v 0.00990446 -0.00869986 0.01435000
v 0.00994828 -0.00876412 0.01435000
v 0.00999586 -0.00882565 0.01435000
v 0.01004703 -0.00888422 0.01435000
v 0.01010162 -0.00893963 0.01435000
v 0.01015942 -0.00899168 0.01435000
v 0.01022023 -0.00904017 0.01435000
v 0.01028383 -0.00908495 0.01435000
v 0.01035000 -0.00912583 0.01435000
v 0.01041849 -0.00916269 0.01435000
v 0.01048907 -0.00919539 0.01435000
v 0.01056147 -0.00922380 0.01435000
v 0.01063544 -0.00924784 0.01435000
v 0.01071072 -0.00926741 0.01435000
v 0.01078704 -0.00928244 0.01435000
v 0.01086411 -0.00929288 0.01435000
v 0.01094168 -0.00929869 0.01435000
v 0.01101945 -0.00929985 0.01435000
v 0.01109715 -0.00929636 0.01435000
v 0.01117450 -0.00928823 0.01435000
v 0.01125123 -0.00927549 0.01435000
v 0.01132706 -0.00925819 0.01435000
v 0.01140172 -0.00923637 0.01435000
v 0.01147494 -0.00921014 0.01435000
v 0.01154646 -0.00917957 0.01435000
v 0.01161603 -0.00914477 0.01435000
v 0.01168339 -0.00910588 0.01435000
v 0.01174830 -0.00906304 0.01435000
v 0.01181054 -0.00901638 0.01435000
v 0.01186987 -0.00896609 0.01435000
v 0.01192609 -0.00891234 0.01435000
v 0.01197899 -0.00885532 0.01435000
v 0.01202839 -0.00879524 0.01435000
v 0.01207411 -0.00873232 0.01435000
v 0.01211598 -0.00866677 0.01435000
v 0.01215386 -0.00859884 0.01435000
v 0.01218761 -0.00852876 0.01435000
v 0.01221711 -0.00845679 0.01435000
v 0.01224224 -0.00838318 0.01435000
v 0.01226294 -0.00830820 0.01435000
v 0.01227911 -0.00823212 0.01435000
v 0.01229070 -0.00815521 0.01435000
v 0.01229767 -0.00807775 0.01435000
v 0.01360000 -0.00800000 0.01935000
v 0.01359535 -0.00784451 0.01935000
v 0.01358140 -0.00768958 0.01935000
v 0.01355822 -0.00753575 0.01935000
v 0.01352587 -0.00738359 0.01935000
v 0.01348449 -0.00723364 0.01935000
v 0.01343421 -0.00708643 0.01935000
v 0.01337522 -0.00694248 0.01935000
v 0.01330772 -0.00680233 0.01935000
v 0.01323197 -0.00666646 0.01935000
v 0.01314822 -0.00653537 0.01935000
v 0.01305678 -0.00640952 0.01935000
v 0.01295799 -0.00628936 0.01935000
v 0.01285218 -0.00617533 0.01935000
v 0.01273974 -0.00606782 0.01935000
v 0.01262107 -0.00596724 0.01935000
v 0.01249660 -0.00587393 0.01935000
v 0.01236678 -0.00578823 0.01935000
v 0.01223206 -0.00571045 0.01935000
v 0.01209293 -0.00564087 0.01935000
v 0.01194989 -0.00557973 0.01935000
v 0.01180344 -0.00552725 0.01935000
v 0.01165413 -0.00548363 0.01935000
v 0.01150247 -0.00544901 0.01935000
v 0.01134901 -0.00542353 0.01935000
v 0.01119430 -0.00540727 0.01935000
v 0.01103889 -0.00540029 0.01935000
v 0.01088335 -0.00540262 0.01935000
v 0.01072823 -0.00541424 0.01935000
v 0.01057407 -0.00543512 0.01935000
v 0.01042145 -0.00546519 0.01935000
v 0.01027089 -0.00550432 0.01935000
v 0.01012294 -0.00555240 0.01935000
v 0.00997813 -0.00560923 0.01935000
v 0.00983699 -0.00567462 0.01935000
v 0.00970000 -0.00574833 0.01935000
v 0.00956767 -0.00583011 0.01935000
v 0.00944046 -0.00591965 0.01935000
v 0.00931884 -0.00601664 0.01935000
v 0.00920324 -0.00612073 0.01935000
v 0.00909407 -0.00623155 0.01935000
v 0.00899172 -0.00634870 0.01935000
v 0.00889656 -0.00647176 0.01935000
v 0.00880893 -0.00660029 0.01935000
v 0.00872914 -0.00673383 0.01935000
v 0.00865748 -0.00687190 0.01935000
v 0.00859421 -0.00701401 0.01935000
v 0.00853955 -0.00715965 0.01935000
v 0.00849370 -0.00730830 0.01935000
v 0.00845682 -0.00745943 0.01935000
v 0.00842904 -0.00761249 0.01935000
v 0.00841047 -0.00776694 0.01935000
v 0.00840116 -0.00792222 0.01935000
v 0.00840116 -0.00807778 0.01935000
v 0.00841047 -0.00823306 0.01935000
v 0.00842904 -0.00838751 0.01935000
v 0.00845682 -0.00854057 0.01935000
v 0.00849370 -0.00869170 0.01935000
v 0.00853955 -0.00884035 0.01935000
v 0.00859421 -0.00898599 0.01935000
v 0.00865748 -0.00912810 0.01935000
v 0.00872914 -0.00926617 0.01935000
v 0.00880893 -0.00939971 0.01935000
v 0.00889656 -0.00952824 0.01935000
v 0.00899172 -0.00965130 0.01935000
v 0.00909407 -0.00976845 0.01935000
v 0.00920324 -0.00987927 0.01935000
v 0.00931884 -0.00998336 0.01935000
v 0.00944046 -0.01008035 0.01935000
v 0.00956767 -0.01016989 0.01935000
v 0.00970000 -0.01025167 0.01935000
v 0.00983699 -0.01032538 0.01935000
v 0.00997813 -0.01039077 0.01935000
v 0.01012294 -0.01044760 0.01935000
v 0.01027089 -0.01049568 0.01935000
v 0.01042145 -0.01053481 0.01935000
v 0.01057407 -0.01056488 0.01935000
v 0.01072823 -0.01058576 0.01935000
v 0.01088335 -0.01059738 0.01935000
v 0.01103889 -0.01059971 0.01935000
v 0.01119430 -0.01059273 0.01935000
v 0.01134901 -0.01057647 0.01935000
v 0.01150247 -0.01055099 0.01935000
v 0.01165413 -0.01051637 0.01935000
v 0.01180344 -0.01047275 0.01935000
v 0.01194989 -0.01042027 0.01935000
v 0.01209293 -0.01035913 0.01935000
v 0.01223206 -0.01028955 0.01935000
v 0.01236678 -0.01021177 0.01935000
v 0.01249660 -0.01012607 0.01935000
v 0.01262107 -0.01003276 0.01935000
v 0.01273974 -0.00993218 0.01935000
v 0.01285218 -0.00982467 0.01935000
v 0.01295799 -0.00971064 0.01935000
v 0.01305678 -0.00959048 0.01935000
v 0.01314822 -0.00946463 0.01935000
v 0.01323197 -0.00933354 0.01935000
v 0.01330772 -0.00919767 0.01935000
v 0.01337522 -0.00905752 0.01935000
v 0.01343421 -0.00891357 0.01935000
v 0.01348449 -0.00876636 0.01935000
v 0.01352587 -0.00861641 0.01935000
v 0.01355822 -0.00846425 0.01935000
v 0.01358140 -0.00831042 0.01935000
v 0.01359535 -0.00815549 0.01935000
f 173 172 67
f 165 60 166
f 205 204 100
f 86 191 190
f 7 113 112
f 160 159 54
f 160 56 161
f 61 166 60
f 164 60 165
f 161 56 162
f 127 126 21
f 210 209 105
f 105 209 104
f 103 209 208
f 104 209 103
f 97 202 201
f 95 201 200
f 102 207 206
f 204 203 98
f 98 203 202
f 98 202 97
f 2 108 107
f 3 108 2
f 109 108 4
f 4 108 3
f 116 115 10
f 117 116 12
f 111 110 5
f 9 114 113
f 115 114 9
f 10 115 9
f 175 174 69
f 69 70 175
f 188 84 189
f 189 84 190
f 86 190 85
f 190 84 85
f 185 79 80
f 80 186 185
f 81 186 80
f 45 149 44
f 148 147 43
f 43 149 148
f 44 149 43
f 40 145 144
f 37 143 142
f 136 135 31
f 55 160 54
f 56 160 55
f 64 169 168
f 168 63 64
f 170 169 64
f 64 65 170
f 66 171 170
f 170 65 66
f 172 171 66
f 67 172 66
f 168 167 62
f 62 63 168
f 62 167 166
f 166 61 62
f 59 164 163
f 60 164 59
f 97 201 96
f 201 95 96
f 199 95 200
f 198 92 93
f 197 92 198
f 197 196 92
f 194 89 195
f 102 206 101
f 101 206 205
f 205 100 101
f 99 100 204
f 204 98 99
f 11 116 10
f 11 12 116
f 117 12 118
f 14 15 119
f 119 15 120
f 15 121 120
f 17 18 122
f 6 111 5
f 112 111 6
f 6 7 112
f 113 7 8
f 8 9 113
f 73 178 177
f 73 177 72
f 179 178 73
f 73 74 179
f 177 176 71
f 72 177 71
f 71 176 175
f 175 70 71
f 68 174 173
f 68 69 174
f 68 173 67
f 181 180 75
f 76 181 75
f 82 187 186
f 82 186 81
f 188 187 82
f 184 79 185
f 184 183 79
f 77 183 182
f 182 181 77
f 77 181 76
f 46 47 151
f 151 45 46
f 150 45 151
f 149 45 150
f 147 146 41
f 41 146 145
f 41 145 40
f 151 47 152
f 47 153 152
f 48 153 47
f 155 51 156
f 39 144 143
f 40 144 39
f 141 37 142
f 31 135 30
f 131 26 132
f 131 130 26
f 25 130 129
f 26 130 25
f 128 23 129
f 127 23 128
f 22 127 21
f 22 23 127
f 163 162 58
f 58 59 163
f 94 199 198
f 198 93 94
f 95 199 94
f 193 89 194
f 90 195 89
f 119 118 13
f 13 14 119
f 13 118 12
f 122 121 16
f 16 17 122
f 16 121 15
f 122 18 123
f 18 124 123
f 83 84 188
f 188 82 83
f 79 183 78
f 183 77 78
f 42 43 147
f 147 41 42
f 153 48 154
f 50 51 155
f 157 53 158
f 157 156 51
f 140 139 34
f 35 140 34
f 34 139 138
f 138 33 34
f 143 37 38
f 38 39 143
f 37 141 36
f 36 141 140
f 36 140 35
f 28 133 132
f 134 133 28
f 32 137 136
f 32 136 31
f 138 137 32
f 32 33 138
f 129 23 24
f 24 25 129
f 57 162 56
f 57 58 162
f 88 193 192
f 192 87 88
f 89 193 88
f 92 196 91
f 19 124 18
f 19 20 124
f 124 20 125
f 125 20 21
f 21 126 125
f 155 154 49
f 49 50 155
f 49 154 48
f 52 157 51
f 53 157 52
f 132 26 27
f 27 28 132
f 134 28 29
f 106 210 105
f 105 1 106
f 208 207 103
f 103 207 102
f 2 107 106
f 106 1 2
f 4 110 109
f 5 110 4
f 75 180 179
f 179 74 75
f 53 159 158
f 54 159 53
f 87 192 191
f 87 191 86
f 196 195 91
f 195 90 91
f 172 173 125
f 125 118 119
f 132 133 125
f 125 167 168
f 151 152 125
f 125 150 151
f 125 210 106
f 106 107 125
f 175 176 125
f 125 190 191
f 125 157 158
f 202 203 125
f 125 204 205
f 125 114 115
f 158 159 125
f 125 174 175
f 188 189 125
f 185 186 125
f 165 166 125
f 112 113 125
f 126 127 125
f 125 137 138
f 198 199 125
f 205 206 125
f 194 195 125
f 125 160 161
f 125 171 172
f 125 111 112
f 145 146 125
f 125 144 145
f 125 154 155
f 168 169 125
f 125 164 165
f 161 162 125
f 208 209 125
f 125 201 202
f 125 197 198
f 125 207 208
f 125 187 188
f 125 108 109
f 115 116 125
f 119 120 125
f 109 110 125
f 170 171 125
f 173 174 125
f 125 178 179
f 125 181 182
f 179 180 125
f 125 147 148
f 125 184 185
f 142 143 125
f 125 141 142
f 159 160 125
f 125 169 170
f 166 167 125
f 163 164 125
f 125 162 163
f 125 131 132
f 125 209 210
f 200 201 125
f 125 203 204
f 191 192 125
f 125 206 207
f 107 108 125
f 125 116 117
f 113 114 125
f 125 121 122
f 110 111 125
f 177 178 125
f 125 176 177
f 125 180 181
f 186 187 125
f 125 189 190
f 182 183 125
f 125 146 147
f 148 149 125
f 122 123 125
f 143 144 125
f 138 139 125
f 125 134 135
f 135 136 125
f 129 130 125
f 125 199 200
f 196 197 125
f 125 128 129
f 125 195 196
f 117 118 125
f 125 120 121
f 125 193 194
f 183 184 125
f 149 150 125
f 125 152 153
f 155 156 125
f 125 139 140
f 140 141 125
f 125 133 134
f 136 137 125
f 130 131 125
f 127 128 125
f 192 193 125
f 125 123 124
f 153 154 125
f 156 157 125
f 60 59 29
f 95 94 29
f 100 99 29
f 10 9 29
f 29 82 81
f 29 77 76
f 26 25 29
f 29 68 67
f 54 53 29
f 29 103 102
f 29 61 60
f 5 4 29
f 29 98 97
f 29 16 15
f 72 71 29
f 47 46 29
f 29 52 51
f 29 64 63
f 63 62 29
f 1 105 29
f 29 93 92
f 29 2 1
f 29 13 12
f 29 8 7
f 29 73 72
f 76 75 29
f 86 85 29
f 81 80 29
f 29 48 47
f 40 39 29
f 29 55 54
f 67 66 29
f 29 105 104
f 104 103 29
f 97 96 29
f 29 87 86
f 102 101 29
f 3 2 29
f 29 4 3
f 29 11 10
f 15 14 29
f 29 6 5
f 70 69 29
f 29 85 84
f 29 80 79
f 29 45 44
f 44 43 29
f 29 41 40
f 51 50 29
f 29 38 37
f 31 30 29
f 56 55 29
f 65 64 29
f 29 66 65
f 29 62 61
f 29 22 21
f 29 96 95
f 29 24 23
f 29 101 100
f 29 99 98
f 12 11 29
f 89 88 29
f 18 17 29
f 7 6 29
f 9 8 29
f 74 73 29
f 29 71 70
f 69 68 29
f 29 75 74
f 21 20 29
f 84 83 29
f 29 46 45
f 79 78 29
f 43 42 29
f 29 49 48
f 35 34 29
f 29 36 35
f 29 32 31
f 23 22 29
f 59 58 29
f 29 94 93
f 29 57 56
f 29 90 89
f 14 13 29
f 17 16 29
f 92 91 29
f 29 83 82
f 29 78 77
f 29 42 41
f 29 19 18
f 29 34 33
f 39 38 29
f 37 36 29
f 29 27 26
f 33 32 29
f 25 24 29
f 58 57 29
f 29 88 87
f 29 91 90
f 20 19 29
f 50 49 29
f 53 52 29
f 28 27 29
f 135 134 29
f 29 30 135

