# https://github.com/mikedh/trimesh
v -0.03500000 -0.02450000 0.02740000
v -0.03500447 -0.02435049 0.02740000
v -0.03501788 -0.02420151 0.02740000
v -0.03504018 -0.02405361 0.02740000
v -0.03507127 -0.02390730 0.02740000
v -0.03511107 -0.02376311 0.02740000
v -0.03515941 -0.02362156 0.02740000
v -0.03521614 -0.02348316 0.02740000
v -0.03528104 -0.02334839 0.02740000
v -0.03535388 -0.02321775 0.02740000
v -0.03543440 -0.02309170 0.02740000
v -0.03552232 -0.02297069 0.02740000
v -0.03561732 -0.02285515 0.02740000
v -0.03571906 -0.02274551 0.02740000
v -0.03582717 -0.02264214 0.02740000
v -0.03594128 -0.02254542 0.02740000
v -0.03606096 -0.02245570 0.02740000
v -0.03618579 -0.02237330 0.02740000
v -0.03631533 -0.02229851 0.02740000
v -0.03644911 -0.02223160 0.02740000
v -0.03658665 -0.02217282 0.02740000
v -0.03672746 -0.02212236 0.02740000
v -0.03687103 -0.02208041 0.02740000
v -0.03701686 -0.02204713 0.02740000
v -0.03716442 -0.02202263 0.02740000
v -0.03731317 -0.02200699 0.02740000
v -0.03746260 -0.02200028 0.02740000
v -0.03761216 -0.02200252 0.02740000
v -0.03776132 -0.02201370 0.02740000
v -0.03790954 -0.02203377 0.02740000
v -0.03805630 -0.02206268 0.02740000
v -0.03820107 -0.02210031 0.02740000
v -0.03834332 -0.02214653 0.02740000
v -0.03848256 -0.02220118 0.02740000
v -0.03861828 -0.02226406 0.02740000
v -0.03875000 -0.02233494 0.02740000
v -0.03887724 -0.02241357 0.02740000
v -0.03899955 -0.02249967 0.02740000
v -0.03911650 -0.02259293 0.02740000
v -0.03922766 -0.02269301 0.02740000
v -0.03933263 -0.02279957 0.02740000
v -0.03943104 -0.02291221 0.02740000
v -0.03952254 -0.02303054 0.02740000
v -0.03960680 -0.02315412 0.02740000
v -0.03968352 -0.02328253 0.02740000
v -0.03975242 -0.02341529 0.02740000
v -0.03981326 -0.02355194 0.02740000
v -0.03986582 -0.02369198 0.02740000
v -0.03990991 -0.02383491 0.02740000
v -0.03994537 -0.02398022 0.02740000
v -0.03997208 -0.02412739 0.02740000
v -0.03998994 -0.02427590 0.02740000
v -0.03999888 -0.02442521 0.02740000
v -0.03999888 -0.02457479 0.02740000
v -0.03998994 -0.02472410 0.02740000
v -0.03997208 -0.02487261 0.02740000
v -0.03994537 -0.02501978 0.02740000
v -0.03990991 -0.02516509 0.02740000
v -0.03986582 -0.02530802 0.02740000
v -0.03981326 -0.02544806 0.02740000
v -0.03975242 -0.02558471 0.02740000
v -0.03968352 -0.02571747 0.02740000
v -0.03960680 -0.02584588 0.02740000
v -0.03952254 -0.02596946 0.02740000
v -0.03943104 -0.02608779 0.02740000
v -0.03933263 -0.02620043 0.02740000
v -0.03922766 -0.02630699 0.02740000
v -0.03911650 -0.02640707 0.02740000
v -0.03899955 -0.02650033 0.02740000
v -0.03887724 -0.02658643 0.02740000
v -0.03875000 -0.02666506 0.02740000
v -0.03861828 -0.02673594 0.02740000
v -0.03848256 -0.02679882 0.02740000
v -0.03834332 -0.02685347 0.02740000
v -0.03820107 -0.02689969 0.02740000
v -0.03805630 -0.02693732 0.02740000
v -0.03790954 -0.02696623 0.02740000
v -0.03776132 -0.02698630 0.02740000
v -0.03761216 -0.02699748 0.02740000
v -0.03746260 -0.02699972 0.02740000
v -0.03731317 -0.02699301 0.02740000
v -0.03716442 -0.02697737 0.02740000
v -0.03701686 -0.02695287 0.02740000
v -0.03687103 -0.02691959 0.02740000
v -0.03672746 -0.02687764 0.02740000
v -0.03658665 -0.02682718 0.02740000
v -0.03644911 -0.02676840 0.02740000
v -0.03631533 -0.02670149 0.02740000
v -0.03618579 -0.02662670 0.02740000
v -0.03606096 -0.02654430 0.02740000
v -0.03594128 -0.02645458 0.02740000
v -0.03582717 -0.02635786 0.02740000
v -0.03571906 -0.02625449 0.02740000
v -0.03561732 -0.02614485 0.02740000
v -0.03552232 -0.02602931 0.02740000
v -0.03543440 -0.02590830 0.02740000
v -0.03535388 -0.02578225 0.02740000
v -0.03528104 -0.02565161 0.02740000
v -0.03521614 -0.02551684 0.02740000
v -0.03515941 -0.02537844 0.02740000
v -0.03511107 -0.02523689 0.02740000
v -0.03507127 -0.02509270 0.02740000
v -0.03504018 -0.02494639 0.02740000
v -0.03501788 -0.02479849 0.02740000
v -0.03500447 -0.02464951 0.02740000
v -0.03500000 -0.02450000 0.02710000
v -0.03500447 -0.02435049 0.02710000
v -0.03501788 -0.02420151 0.02710000
v -0.03504018 -0.02405361 0.02710000
v -0.03507127 -0.02390730 0.02710000
v -0.03511107 -0.02376311 0.02710000
v -0.03515941 -0.02362156 0.02710000
v -0.03521614 -0.02348316 0.02710000
v -0.03528104 -0.02334839 0.02710000
v -0.03535388 -0.02321775 0.02710000
v -0.03543440 -0.02309170 0.02710000
v -0.03552232 -0.02297069 0.02710000
v -0.03561732 -0.02285515 0.02710000
v -0.03571906 -0.02274551 0.02710000
v -0.03582717 -0.02264214 0.02710000
v -0.03594128 -0.02254542 0.02710000
v -0.03606096 -0.02245570 0.02710000
v -0.03618579 -0.02237330 0.02710000
v -0.03631533 -0.02229851 0.02710000
v -0.03644911 -0.02223160 0.02710000
v -0.03658665 -0.02217282 0.02710000
v -0.03672746 -0.02212236 0.02710000
v -0.03687103 -0.02208041 0.02710000
v -0.03701686 -0.02204713 0.02710000
v -0.03716442 -0.02202263 0.02710000
v -0.03731317 -0.02200699 0.02710000
v -0.03746260 -0.02200028 0.02710000
v -0.03761216 -0.02200252 0.02710000
v -0.03776132 -0.02201370 0.02710000
v -0.03790954 -0.02203377 0.02710000
v -0.03805630 -0.02206268 0.02710000
v -0.03820107 -0.02210031 0.02710000
v -0.03834332 -0.02214653 0.02710000
v -0.03848256 -0.02220118 0.02710000
v -0.03861828 -0.02226406 0.02710000
v -0.03875000 -0.02233494 0.02710000
v -0.03887724 -0.02241357 0.02710000
v -0.03899955 -0.02249967 0.02710000
v -0.03911650 -0.02259293 0.02710000
v -0.03922766 -0.02269301 0.02710000
v -0.03933263 -0.02279957 0.02710000
v -0.03943104 -0.02291221 0.02710000
v -0.03952254 -0.02303054 0.02710000
v -0.03960680 -0.02315412 0.02710000
v -0.03968352 -0.02328253 0.02710000
v -0.03975242 -0.02341529 0.02710000
v -0.03981326 -0.02355194 0.02710000
v -0.03986582 -0.02369198 0.02710000
v -0.03990991 -0.02383491 0.02710000
v -0.03994537 -0.02398022 0.02710000
v -0.03997208 -0.02412739 0.02710000
v -0.03998994 -0.02427590 0.02710000
v -0.03999888 -0.02442521 0.02710000
v -0.03999888 -0.02457479 0.02710000
v -0.03998994 -0.02472410 0.02710000
v -0.03997208 -0.02487261 0.02710000
v -0.03994537 -0.02501978 0.02710000
v -0.03990991 -0.02516509 0.02710000
v -0.03986582 -0.02530802 0.02710000
v -0.03981326 -0.02544806 0.02710000
v -0.03975242 -0.02558471 0.02710000
v -0.03968352 -0.02571747 0.02710000
v -0.03960680 -0.02584588 0.02710000
v -0.03952254 -0.02596946 0.02710000
v -0.03943104 -0.02608779 0.02710000
v -0.03933263 -0.02620043 0.02710000
v -0.03922766 -0.02630699 0.02710000
v -0.03911650 -0.02640707 0.02710000
v -0.03899955 -0.02650033 0.02710000
v -0.03887724 -0.02658643 0.02710000
v -0.03875000 -0.02666506 0.02710000
v -0.03861828 -0.02673594 0.02710000
v -0.03848256 -0.02679882 0.02710000
v -0.03834332 -0.02685347 0.02710000
v -0.03820107 -0.02689969 0.02710000
v -0.03805630 -0.02693732 0.02710000
v -0.03790954 -0.02696623 0.02710000
v -0.03776132 -0.02698630 0.02710000
v -0.03761216 -0.02699748 0.02710000
v -0.03746260 -0.02699972 0.02710000
v -0.03731317 -0.02699301 0.02710000
v -0.03716442 -0.02697737 0.02710000
v -0.03701686 -0.02695287 0.02710000
v -0.03687103 -0.02691959 0.02710000
v -0.03672746 -0.02687764 0.02710000
v -0.03658665 -0.02682718 0.02710000
v -0.03644911 -0.02676840 0.02710000
v -0.03631533 -0.02670149 0.02710000
v -0.03618579 -0.02662670 0.02710000
v -0.03606096 -0.02654430 0.02710000
v -0.03594128 -0.02645458 0.02710000
v -0.03582717 -0.02635786 0.02710000
v -0.03571906 -0.02625449 0.02710000
v -0.03561732 -0.02614485 0.02710000
v -0.03552232 -0.02602931 0.02710000
v -0.03543440 -0.02590830 0.02710000
v -0.03535388 -0.02578225 0.02710000
v -0.03528104 -0.02565161 0.02710000
v -0.03521614 -0.02551684 0.02710000
v -0.03515941 -0.02537844 0.02710000
v -0.03511107 -0.02523689 0.02710000
v -0.03507127 -0.02509270 0.02710000
v -0.03504018 -0.02494639 0.02710000
v -0.03501788 -0.02479849 0.02710000
v -0.03500447 -0.02464951 0.02710000
f 55 54 160
f 160 54 159
f 205 101 100
f 206 101 205
f 208 104 103
f 208 209 104
f 1 105 210
f 210 106 1
f 210 105 104
f 104 209 210
f 94 198 199
f 93 198 94
f 96 95 200
f 201 96 200
f 95 94 200
f 200 94 199
f 197 198 92
f 92 198 93
f 169 170 64
f 64 170 65
f 168 64 63
f 169 64 168
f 176 72 71
f 177 72 176
f 71 70 176
f 176 70 175
f 173 68 67
f 173 67 172
f 107 2 1
f 1 106 107
f 7 6 112
f 112 6 111
f 118 119 13
f 13 119 14
f 117 12 11
f 117 11 116
f 117 13 12
f 118 13 117
f 15 119 120
f 14 119 15
f 148 44 43
f 149 44 148
f 56 55 161
f 55 160 161
f 165 61 60
f 166 61 165
f 164 165 59
f 59 165 60
f 163 164 59
f 59 58 163
f 204 205 99
f 99 205 100
f 207 102 101
f 207 101 206
f 103 102 207
f 207 208 103
f 188 84 83
f 189 84 188
f 85 84 190
f 190 84 189
f 187 188 82
f 82 188 83
f 67 66 171
f 172 67 171
f 171 66 65
f 65 170 171
f 167 62 61
f 167 61 166
f 63 62 167
f 167 168 63
f 178 73 72
f 178 72 177
f 74 73 178
f 178 179 74
f 75 179 180
f 74 179 75
f 77 76 181
f 182 77 181
f 76 75 181
f 181 75 180
f 174 70 69
f 175 70 174
f 69 68 174
f 68 173 174
f 183 78 77
f 183 77 182
f 79 78 183
f 183 184 79
f 186 82 81
f 187 82 186
f 4 3 108
f 108 109 4
f 3 2 108
f 2 107 108
f 8 112 113
f 7 112 8
f 111 6 110
f 6 5 110
f 110 5 4
f 4 109 110
f 43 42 147
f 147 148 43
f 47 151 152
f 46 151 47
f 36 35 141
f 141 35 140
f 141 37 36
f 142 37 141
f 40 39 144
f 145 40 144
f 24 23 129
f 129 23 128
f 127 23 22
f 128 23 127
f 25 129 130
f 24 129 25
f 203 99 98
f 204 99 203
f 97 96 201
f 201 202 97
f 202 203 97
f 97 203 98
f 193 88 87
f 193 87 192
f 197 92 196
f 92 91 196
f 196 91 90
f 90 195 196
f 87 86 191
f 192 87 191
f 191 86 85
f 85 190 191
f 80 79 185
f 79 184 185
f 185 81 80
f 185 186 81
f 9 8 114
f 114 8 113
f 116 11 10
f 10 115 116
f 10 114 115
f 9 114 10
f 20 19 124
f 125 20 124
f 121 15 120
f 121 16 15
f 17 16 121
f 121 122 17
f 150 44 149
f 150 45 44
f 46 45 150
f 150 151 46
f 146 41 40
f 146 40 145
f 42 41 146
f 146 147 42
f 158 54 53
f 159 54 158
f 157 158 52
f 52 158 53
f 156 157 52
f 52 51 156
f 155 51 50
f 156 51 155
f 50 49 155
f 155 49 154
f 48 47 153
f 153 47 152
f 153 49 48
f 154 49 153
f 35 34 139
f 140 35 139
f 139 34 33
f 33 138 139
f 137 138 32
f 32 138 33
f 136 31 30
f 136 30 135
f 136 32 31
f 137 32 136
f 38 37 143
f 143 37 142
f 143 39 38
f 143 144 39
f 30 29 134
f 135 30 134
f 134 29 28
f 28 133 134
f 26 25 131
f 131 25 130
f 163 58 162
f 58 57 162
f 56 161 162
f 162 57 56
f 126 21 20
f 126 20 125
f 22 21 126
f 126 127 22
f 18 92 93
f 18 66 67
f 63 64 18
f 60 61 18
f 18 45 46
f 46 47 18
f 20 21 18
f 100 101 18
f 18 86 87
f 18 79 80
f 14 15 18
f 18 105 1
f 18 26 27
f 18 10 11
f 67 68 18
f 1 2 18
f 18 6 7
f 18 13 14
f 18 62 63
f 4 5 18
f 103 104 18
f 18 102 103
f 93 94 18
f 80 81 18
f 18 82 83
f 18 73 74
f 18 3 4
f 77 78 18
f 40 41 18
f 18 39 40
f 18 55 56
f 53 54 18
f 27 28 18
f 104 105 18
f 18 59 60
f 18 95 96
f 18 99 100
f 90 91 18
f 65 66 18
f 18 68 69
f 71 72 18
f 18 70 71
f 18 2 3
f 74 75 18
f 11 12 18
f 7 8 18
f 18 42 43
f 18 16 17
f 18 49 50
f 33 34 18
f 18 54 55
f 61 62 18
f 18 29 30
f 56 57 18
f 101 102 18
f 24 25 18
f 18 94 95
f 87 88 18
f 85 86 18
f 83 84 18
f 18 64 65
f 72 73 18
f 18 76 77
f 69 70 18
f 18 78 79
f 96 97 18
f 18 5 6
f 12 13 18
f 18 19 20
f 18 41 42
f 43 44 18
f 18 52 53
f 38 39 18
f 18 35 36
f 36 37 18
f 58 59 18
f 18 21 22
f 18 23 24
f 98 99 18
f 18 32 33
f 18 91 92
f 18 84 85
f 81 82 18
f 18 75 76
f 18 8 9
f 18 89 90
f 15 16 18
f 44 45 18
f 18 47 48
f 50 51 18
f 18 34 35
f 30 31 18
f 18 37 38
f 28 29 18
f 18 57 58
f 22 23 18
f 18 25 26
f 18 97 98
f 9 10 18
f 51 52 18
f 48 49 18
f 31 32 18
f 88 89 18
f 132 28 27
f 132 133 28
f 27 26 132
f 26 131 132
f 194 195 90
f 90 89 194
f 88 193 194
f 194 89 88
f 201 200 123
f 123 178 177
f 204 203 123
f 123 117 116
f 120 119 123
f 130 129 123
f 123 198 197
f 109 108 123
f 152 151 123
f 140 139 123
f 123 202 201
f 123 188 187
f 177 176 123
f 116 115 123
f 149 148 123
f 123 131 130
f 123 160 159
f 166 165 123
f 206 205 123
f 106 210 123
f 123 173 172
f 123 190 189
f 172 171 123
f 123 167 166
f 123 107 106
f 175 174 123
f 123 112 111
f 123 114 113
f 123 150 149
f 123 141 140
f 123 164 163
f 145 144 123
f 123 205 204
f 209 208 123
f 123 210 209
f 199 198 123
f 123 200 199
f 123 193 192
f 123 207 206
f 123 170 169
f 169 168 123
f 180 179 123
f 123 176 175
f 182 181 123
f 123 183 182
f 187 186 123
f 113 112 123
f 123 119 118
f 118 117 123
f 125 124 123
f 123 121 120
f 111 110 123
f 123 146 145
f 156 155 123
f 123 153 152
f 123 161 160
f 123 165 164
f 123 143 142
f 128 127 123
f 208 207 123
f 189 188 123
f 197 196 123
f 123 171 170
f 168 167 123
f 179 178 123
f 123 181 180
f 123 174 173
f 184 183 123
f 192 191 123
f 123 108 107
f 123 185 184
f 123 110 109
f 148 147 123
f 123 157 156
f 159 158 123
f 123 138 137
f 142 141 123
f 123 136 135
f 135 134 123
f 123 129 128
f 163 162 123
f 123 203 202
f 133 132 123
f 123 196 195
f 123 191 190
f 186 185 123
f 115 114 123
f 195 194 123
f 122 121 123
f 151 150 123
f 147 146 123
f 123 158 157
f 123 155 154
f 154 153 123
f 123 139 138
f 137 136 123
f 144 143 123
f 123 134 133
f 123 126 125
f 123 162 161
f 127 126 123
f 123 132 131
f 123 194 193
f 17 122 123
f 123 18 17
f 123 124 19
f 19 18 123

