# https://github.com/mikedh/trimesh
v -0.00970000 -0.00800000 0.01435000
v -0.00970233 -0.00792225 0.01435000
v -0.00970930 -0.00784479 0.01435000
v -0.00972089 -0.00776788 0.01435000
v -0.00973706 -0.00769180 0.01435000
v -0.00975776 -0.00761682 0.01435000
v -0.00978289 -0.00754321 0.01435000
v -0.00981239 -0.00747124 0.01435000
v -0.00984614 -0.00740116 0.01435000
v -0.00988402 -0.00733323 0.01435000
v -0.00992589 -0.00726768 0.01435000
v -0.00997161 -0.00720476 0.01435000
v -0.01002101 -0.00714468 0.01435000
v -0.01007391 -0.00708766 0.01435000
v -0.01013013 -0.00703391 0.01435000
v -0.01018946 -0.00698362 0.01435000
v -0.01025170 -0.00693696 0.01435000
v -0.01031661 -0.00689412 0.01435000
v -0.01038397 -0.00685523 0.01435000
v -0.01045354 -0.00682043 0.01435000
v -0.01052506 -0.00678986 0.01435000
v -0.01059828 -0.00676363 0.01435000
v -0.01067294 -0.00674181 0.01435000
v -0.01074877 -0.00672451 0.01435000
v -0.01082550 -0.00671177 0.01435000
v -0.01090285 -0.00670364 0.01435000
v -0.01098055 -0.00670015 0.01435000
v -0.01105832 -0.00670131 0.01435000
v -0.01113589 -0.00670712 0.01435000
v -0.01121296 -0.00671756 0.01435000
v -0.01128928 -0.00673259 0.01435000
v -0.01136456 -0.00675216 0.01435000
v -0.01143853 -0.00677620 0.01435000
v -0.01151093 -0.00680461 0.01435000
v -0.01158151 -0.00683731 0.01435000
v -0.01165000 -0.00687417 0.01435000
v -0.01171617 -0.00691505 0.01435000
v -0.01177977 -0.00695983 0.01435000
v -0.01184058 -0.00700832 0.01435000
v -0.01189838 -0.00706037 0.01435000
v -0.01195297 -0.00711578 0.01435000
v -0.01200414 -0.00717435 0.01435000
v -0.01205172 -0.00723588 0.01435000
v -0.01209554 -0.00730014 0.01435000
v -0.01213543 -0.00736691 0.01435000
v -0.01217126 -0.00743595 0.01435000
v -0.01220290 -0.00750701 0.01435000
v -0.01223023 -0.00757983 0.01435000
v -0.01225315 -0.00765415 0.01435000
v -0.01227159 -0.00772971 0.01435000
v -0.01228548 -0.00780625 0.01435000
v -0.01229477 -0.00788347 0.01435000
v -0.01229942 -0.00796111 0.01435000
v -0.01229942 -0.00803889 0.01435000
v -0.01229477 -0.00811653 0.01435000
v -0.01228548 -0.00819375 0.01435000
v -0.01227159 -0.00827029 0.01435000
v -0.01225315 -0.00834585 0.01435000
v -0.01223023 -0.00842017 0.01435000
v -0.01220290 -0.00849299 0.01435000
v -0.01217126 -0.00856405 0.01435000
v -0.01213543 -0.00863309 0.01435000
v -0.01209554 -0.00869986 0.01435000
v -0.01205172 -0.00876412 0.01435000
v -0.01200414 -0.00882565 0.01435000
v -0.01195297 -0.00888422 0.01435000
v -0.01189838 -0.00893963 0.01435000
v -0.01184058 -0.00899168 0.01435000
v -0.01177977 -0.00904017 0.01435000
v -0.01171617 -0.00908495 0.01435000
v -0.01165000 -0.00912583 0.01435000
v -0.01158151 -0.00916269 0.01435000
v -0.01151093 -0.00919539 0.01435000
v -0.01143853 -0.00922380 0.01435000
v -0.01136456 -0.00924784 0.01435000
v -0.01128928 -0.00926741 0.01435000
v -0.01121296 -0.00928244 0.01435000
v -0.01113589 -0.00929288 0.01435000
v -0.01105832 -0.00929869 0.01435000
v -0.01098055 -0.00929985 0.01435000
v -0.01090285 -0.00929636 0.01435000
v -0.01082550 -0.00928823 0.01435000
v -0.01074877 -0.00927549 0.01435000
v -0.01067294 -0.00925819 0.01435000
v -0.01059828 -0.00923637 0.01435000
v -0.01052506 -0.00921014 0.01435000
v -0.01045354 -0.00917957 0.01435000
v -0.01038397 -0.00914477 0.01435000
v -0.01031661 -0.00910588 0.01435000
v -0.01025170 -0.00906304 0.01435000
v -0.01018946 -0.00901638 0.01435000
v -0.01013013 -0.00896609 0.01435000
v -0.01007391 -0.00891234 0.01435000
v -0.01002101 -0.00885532 0.01435000
v -0.00997161 -0.00879524 0.01435000
v -0.00992589 -0.00873232 0.01435000
v -0.00988402 -0.00866677 0.01435000
v -0.00984614 -0.00859884 0.01435000
v -0.00981239 -0.00852876 0.01435000
v -0.00978289 -0.00845679 0.01435000
v -0.00975776 -0.00838318 0.01435000
v -0.00973706 -0.00830820 0.01435000
v -0.00972089 -0.00823212 0.01435000
v -0.00970930 -0.00815521 0.01435000
v -0.00970233 -0.00807775 0.01435000
v -0.00840000 -0.00800000 0.01935000
v -0.00840465 -0.00784451 0.01935000
v -0.00841860 -0.00768958 0.01935000
v -0.00844178 -0.00753575 0.01935000
v -0.00847413 -0.00738359 0.01935000
v -0.00851551 -0.00723364 0.01935000
v -0.00856579 -0.00708643 0.01935000
v -0.00862478 -0.00694248 0.01935000
v -0.00869228 -0.00680233 0.01935000
v -0.00876803 -0.00666646 0.01935000
v -0.00885178 -0.00653537 0.01935000
v -0.00894322 -0.00640952 0.01935000
v -0.00904201 -0.00628936 0.01935000
v -0.00914782 -0.00617533 0.01935000
v -0.00926026 -0.00606782 0.01935000
v -0.00937893 -0.00596724 0.01935000
v -0.00950340 -0.00587393 0.01935000
v -0.00963322 -0.00578823 0.01935000
v -0.00976794 -0.00571045 0.01935000
v -0.00990707 -0.00564087 0.01935000
v -0.01005011 -0.00557973 0.01935000
v -0.01019656 -0.00552725 0.01935000
v -0.01034587 -0.00548363 0.01935000
v -0.01049753 -0.00544901 0.01935000
v -0.01065099 -0.00542353 0.01935000
v -0.01080570 -0.00540727 0.01935000
v -0.01096111 -0.00540029 0.01935000
v -0.01111665 -0.00540262 0.01935000
v -0.01127177 -0.00541424 0.01935000
v -0.01142593 -0.00543512 0.01935000
v -0.01157855 -0.00546519 0.01935000
v -0.01172911 -0.00550432 0.01935000
v -0.01187706 -0.00555240 0.01935000
v -0.01202187 -0.00560923 0.01935000
v -0.01216301 -0.00567462 0.01935000
v -0.01230000 -0.00574833 0.01935000
v -0.01243233 -0.00583011 0.01935000
v -0.01255954 -0.00591965 0.01935000
v -0.01268116 -0.00601664 0.01935000
v -0.01279676 -0.00612073 0.01935000
v -0.01290593 -0.00623155 0.01935000
v -0.01300828 -0.00634870 0.01935000
v -0.01310344 -0.00647176 0.01935000
v -0.01319107 -0.00660029 0.01935000
v -0.01327086 -0.00673383 0.01935000
v -0.01334252 -0.00687190 0.01935000
v -0.01340579 -0.00701401 0.01935000
v -0.01346045 -0.00715965 0.01935000
v -0.01350630 -0.00730830 0.01935000
v -0.01354318 -0.00745943 0.01935000
v -0.01357096 -0.00761249 0.01935000
v -0.01358953 -0.00776694 0.01935000
v -0.01359884 -0.00792222 0.01935000
v -0.01359884 -0.00807778 0.01935000
v -0.01358953 -0.00823306 0.01935000
v -0.01357096 -0.00838751 0.01935000
v -0.01354318 -0.00854057 0.01935000
v -0.01350630 -0.00869170 0.01935000
v -0.01346045 -0.00884035 0.01935000
v -0.01340579 -0.00898599 0.01935000
v -0.01334252 -0.00912810 0.01935000
v -0.01327086 -0.00926617 0.01935000
v -0.01319107 -0.00939971 0.01935000
v -0.01310344 -0.00952824 0.01935000
v -0.01300828 -0.00965130 0.01935000
v -0.01290593 -0.00976845 0.01935000
v -0.01279676 -0.00987927 0.01935000
v -0.01268116 -0.00998336 0.01935000
v -0.01255954 -0.01008035 0.01935000
v -0.01243233 -0.01016989 0.01935000
v -0.01230000 -0.01025167 0.01935000
v -0.01216301 -0.01032538 0.01935000
v -0.01202187 -0.01039077 0.01935000
v -0.01187706 -0.01044760 0.01935000
v -0.01172911 -0.01049568 0.01935000
v -0.01157855 -0.01053481 0.01935000
v -0.01142593 -0.01056488 0.01935000
v -0.01127177 -0.01058576 0.01935000
v -0.01111665 -0.01059738 0.01935000
v -0.01096111 -0.01059971 0.01935000
v -0.01080570 -0.01059273 0.01935000
v -0.01065099 -0.01057647 0.01935000
v -0.01049753 -0.01055099 0.01935000
v -0.01034587 -0.01051637 0.01935000
v -0.01019656 -0.01047275 0.01935000
v -0.01005011 -0.01042027 0.01935000
v -0.00990707 -0.01035913 0.01935000
v -0.00976794 -0.01028955 0.01935000
v -0.00963322 -0.01021177 0.01935000
v -0.00950340 -0.01012607 0.01935000
v -0.00937893 -0.01003276 0.01935000
v -0.00926026 -0.00993218 0.01935000
v -0.00914782 -0.00982467 0.01935000
v -0.00904201 -0.00971064 0.01935000
v -0.00894322 -0.00959048 0.01935000
v -0.00885178 -0.00946463 0.01935000
v -0.00876803 -0.00933354 0.01935000
v -0.00869228 -0.00919767 0.01935000
v -0.00862478 -0.00905752 0.01935000
v -0.00856579 -0.00891357 0.01935000
v -0.00851551 -0.00876636 0.01935000
v -0.00847413 -0.00861641 0.01935000
v -0.00844178 -0.00846425 0.01935000
v -0.00841860 -0.00831042 0.01935000
v -0.00840465 -0.00815549 0.01935000
f 86 191 190
f 96 201 200
f 64 170 169
f 172 171 67
f 67 173 172
f 146 145 40
f 40 145 144
f 54 160 159
f 161 57 162
f 161 160 56
f 56 57 161
f 61 166 165
f 167 166 61
f 127 126 21
f 117 116 11
f 18 124 123
f 210 209 105
f 105 209 104
f 103 209 208
f 104 209 103
f 185 79 80
f 80 186 185
f 81 186 80
f 188 84 189
f 189 84 190
f 86 190 85
f 190 84 85
f 92 196 91
f 198 94 199
f 96 200 95
f 193 89 194
f 194 89 195
f 203 98 204
f 202 98 203
f 97 98 202
f 97 202 201
f 97 201 96
f 2 108 107
f 3 108 2
f 109 108 4
f 4 108 3
f 63 169 168
f 63 64 169
f 168 167 63
f 171 170 66
f 67 171 66
f 175 70 71
f 175 174 69
f 69 70 175
f 69 174 173
f 147 43 148
f 41 146 40
f 41 147 146
f 152 47 153
f 37 143 142
f 136 135 31
f 163 162 57
f 55 160 54
f 55 56 160
f 61 165 60
f 60 165 164
f 164 59 60
f 21 126 125
f 16 121 15
f 118 13 119
f 12 117 11
f 122 18 123
f 113 9 114
f 114 9 115
f 115 9 10
f 116 115 10
f 11 116 10
f 184 79 185
f 184 183 79
f 77 181 76
f 82 187 186
f 82 186 81
f 188 187 82
f 181 180 75
f 76 181 75
f 73 179 178
f 73 74 179
f 178 177 73
f 73 177 72
f 93 94 198
f 198 92 93
f 197 92 198
f 196 92 197
f 88 193 192
f 192 87 88
f 89 193 88
f 90 195 89
f 196 195 90
f 91 196 90
f 99 205 204
f 204 98 99
f 62 167 61
f 62 63 167
f 170 64 65
f 65 66 170
f 175 71 176
f 68 173 67
f 68 69 173
f 152 151 46
f 46 47 152
f 46 151 150
f 43 147 42
f 147 41 42
f 44 149 148
f 148 43 44
f 150 149 44
f 141 140 35
f 144 143 39
f 40 144 39
f 31 135 30
f 131 26 132
f 131 130 26
f 25 130 129
f 26 130 25
f 128 23 129
f 127 23 128
f 22 127 21
f 22 23 127
f 58 163 57
f 164 163 58
f 58 59 164
f 21 125 20
f 20 125 124
f 119 13 14
f 14 15 119
f 119 15 120
f 120 15 121
f 18 122 17
f 17 122 121
f 17 121 16
f 113 112 8
f 8 9 113
f 102 207 206
f 102 206 101
f 79 183 78
f 183 77 78
f 181 77 182
f 182 77 183
f 83 84 188
f 188 82 83
f 205 99 100
f 206 205 100
f 101 206 100
f 111 110 5
f 6 111 5
f 45 46 150
f 150 44 45
f 51 157 156
f 158 157 53
f 153 49 154
f 50 156 155
f 51 156 50
f 155 154 50
f 50 154 49
f 48 153 47
f 48 49 153
f 140 139 34
f 35 140 34
f 34 139 138
f 138 33 34
f 36 141 35
f 143 37 38
f 38 39 143
f 28 133 132
f 134 133 28
f 32 137 136
f 32 136 31
f 138 137 32
f 32 33 138
f 129 23 24
f 24 25 129
f 124 18 19
f 19 20 124
f 7 8 112
f 7 112 111
f 7 111 6
f 52 157 51
f 52 53 157
f 132 26 27
f 27 28 132
f 134 28 29
f 106 210 105
f 105 1 106
f 200 199 95
f 95 199 94
f 87 192 191
f 87 191 86
f 2 107 106
f 106 1 2
f 12 118 117
f 13 118 12
f 75 180 179
f 179 74 75
f 176 71 72
f 72 177 176
f 208 207 102
f 102 103 208
f 5 110 109
f 109 4 5
f 53 159 158
f 54 159 53
f 204 205 154
f 194 195 154
f 154 210 106
f 154 137 138
f 175 176 154
f 154 144 145
f 208 209 154
f 154 112 113
f 178 179 154
f 106 107 154
f 154 108 109
f 154 184 185
f 191 192 154
f 154 128 129
f 154 157 158
f 154 174 175
f 154 170 171
f 154 177 178
f 158 159 154
f 132 133 154
f 154 122 123
f 154 163 164
f 154 190 191
f 185 186 154
f 154 180 181
f 154 203 204
f 168 169 154
f 171 172 154
f 145 146 154
f 142 143 154
f 154 160 161
f 164 165 154
f 154 167 168
f 126 127 154
f 154 125 126
f 154 187 188
f 198 199 154
f 154 207 208
f 188 189 154
f 154 200 201
f 201 202 154
f 154 193 194
f 113 114 154
f 169 170 154
f 154 172 173
f 173 174 154
f 109 110 154
f 154 151 152
f 154 147 148
f 148 149 154
f 152 153 154
f 154 141 142
f 154 159 160
f 161 162 154
f 154 165 166
f 166 167 154
f 154 131 132
f 123 124 154
f 116 117 154
f 154 115 116
f 154 118 119
f 154 197 198
f 154 209 210
f 119 120 154
f 186 187 154
f 154 189 190
f 179 180 154
f 154 199 200
f 192 193 154
f 154 195 196
f 154 205 206
f 202 203 154
f 107 108 154
f 150 151 154
f 146 147 154
f 154 149 150
f 155 156 154
f 154 143 144
f 138 139 154
f 154 134 135
f 135 136 154
f 129 130 154
f 162 163 154
f 124 125 154
f 117 118 154
f 121 122 154
f 111 112 154
f 154 114 115
f 206 207 154
f 183 184 154
f 196 197 154
f 154 110 111
f 154 176 177
f 181 182 154
f 154 139 140
f 140 141 154
f 154 133 134
f 136 137 154
f 130 131 154
f 127 128 154
f 154 120 121
f 154 182 183
f 154 156 157
f 142 141 36
f 36 37 142
f 29 87 86
f 29 92 91
f 29 97 96
f 84 83 29
f 72 71 29
f 16 15 29
f 11 10 29
f 29 65 64
f 29 55 54
f 29 12 11
f 81 80 29
f 96 95 29
f 86 85 29
f 29 41 40
f 29 52 51
f 51 50 29
f 26 25 29
f 29 58 57
f 1 105 29
f 29 19 18
f 29 77 76
f 29 82 81
f 89 88 29
f 91 90 29
f 29 2 1
f 101 100 29
f 67 66 29
f 29 68 67
f 46 45 29
f 40 39 29
f 29 22 21
f 57 56 29
f 61 60 29
f 29 14 13
f 29 17 16
f 29 105 104
f 104 103 29
f 29 80 79
f 29 85 84
f 76 75 29
f 29 73 72
f 29 95 94
f 94 93 29
f 98 97 29
f 3 2 29
f 29 4 3
f 64 63 29
f 29 62 61
f 29 71 70
f 70 69 29
f 47 46 29
f 29 44 43
f 29 48 47
f 35 34 29
f 31 30 29
f 56 55 29
f 29 60 59
f 21 20 29
f 13 12 29
f 29 10 9
f 29 102 101
f 79 78 29
f 29 75 74
f 74 73 29
f 29 93 92
f 29 88 87
f 29 90 89
f 29 99 98
f 63 62 29
f 66 65 29
f 69 68 29
f 43 42 29
f 29 42 41
f 6 5 29
f 54 53 29
f 29 36 35
f 29 38 37
f 29 32 31
f 23 22 29
f 59 58 29
f 29 24 23
f 15 14 29
f 18 17 29
f 9 8 29
f 103 102 29
f 29 78 77
f 29 83 82
f 29 100 99
f 29 5 4
f 29 45 44
f 29 7 6
f 29 50 49
f 49 48 29
f 29 34 33
f 37 36 29
f 39 38 29
f 29 27 26
f 33 32 29
f 25 24 29
f 20 19 29
f 8 7 29
f 53 52 29
f 28 27 29
f 135 134 29
f 29 30 135

