# https://github.com/mikedh/trimesh
v -0.03560000 0.02450000 0.02940000
v -0.03560340 0.02461363 0.02940000
v -0.03561359 0.02472685 0.02940000
v -0.03563053 0.02483926 0.02940000
v -0.03565417 0.02495045 0.02940000
v -0.03568441 0.02506003 0.02940000
v -0.03572115 0.02516761 0.02940000
v -0.03576426 0.02527280 0.02940000
v -0.03581359 0.02537522 0.02940000
v -0.03586895 0.02547451 0.02940000
v -0.03593015 0.02557031 0.02940000
v -0.03599697 0.02566228 0.02940000
v -0.03606916 0.02575008 0.02940000
v -0.03614649 0.02583342 0.02940000
v -0.03622865 0.02591198 0.02940000
v -0.03631537 0.02598548 0.02940000
v -0.03640633 0.02605367 0.02940000
v -0.03650120 0.02611629 0.02940000
v -0.03659965 0.02617313 0.02940000
v -0.03670132 0.02622398 0.02940000
v -0.03680585 0.02626866 0.02940000
v -0.03691287 0.02630701 0.02940000
v -0.03702199 0.02633889 0.02940000
v -0.03713281 0.02636418 0.02940000
v -0.03724496 0.02638280 0.02940000
v -0.03735801 0.02639469 0.02940000
v -0.03747158 0.02639979 0.02940000
v -0.03758524 0.02639809 0.02940000
v -0.03769860 0.02638959 0.02940000
v -0.03781125 0.02637433 0.02940000
v -0.03792279 0.02635236 0.02940000
v -0.03803281 0.02632376 0.02940000
v -0.03814093 0.02628863 0.02940000
v -0.03824675 0.02624710 0.02940000
v -0.03834989 0.02619932 0.02940000
v -0.03845000 0.02614545 0.02940000
v -0.03854670 0.02608569 0.02940000
v -0.03863966 0.02602025 0.02940000
v -0.03872854 0.02594938 0.02940000
v -0.03881302 0.02587331 0.02940000
v -0.03889280 0.02579233 0.02940000
v -0.03896759 0.02570672 0.02940000
v -0.03903713 0.02561679 0.02940000
v -0.03910117 0.02552287 0.02940000
v -0.03915948 0.02542528 0.02940000
v -0.03921184 0.02532438 0.02940000
v -0.03925808 0.02522053 0.02940000
v -0.03929802 0.02511410 0.02940000
v -0.03933153 0.02500547 0.02940000
v -0.03935848 0.02489503 0.02940000
v -0.03937878 0.02478318 0.02940000
v -0.03939235 0.02467031 0.02940000
v -0.03939915 0.02455684 0.02940000
v -0.03939915 0.02444316 0.02940000
v -0.03939235 0.02432969 0.02940000
v -0.03937878 0.02421682 0.02940000
v -0.03935848 0.02410497 0.02940000
v -0.03933153 0.02399453 0.02940000
v -0.03929802 0.02388590 0.02940000
v -0.03925808 0.02377947 0.02940000
v -0.03921184 0.02367562 0.02940000
v -0.03915948 0.02357472 0.02940000
v -0.03910117 0.02347713 0.02940000
v -0.03903713 0.02338321 0.02940000
v -0.03896759 0.02329328 0.02940000
v -0.03889280 0.02320767 0.02940000
v -0.03881302 0.02312669 0.02940000
v -0.03872854 0.02305062 0.02940000
v -0.03863966 0.02297975 0.02940000
v -0.03854670 0.02291431 0.02940000
v -0.03845000 0.02285455 0.02940000
v -0.03834989 0.02280068 0.02940000
v -0.03824675 0.02275290 0.02940000
v -0.03814093 0.02271137 0.02940000
v -0.03803281 0.02267624 0.02940000
v -0.03792279 0.02264764 0.02940000
v -0.03781125 0.02262567 0.02940000
v -0.03769860 0.02261041 0.02940000
v -0.03758524 0.02260191 0.02940000
v -0.03747158 0.02260021 0.02940000
v -0.03735801 0.02260531 0.02940000
v -0.03724496 0.02261720 0.02940000
v -0.03713281 0.02263582 0.02940000
v -0.03702199 0.02266111 0.02940000
v -0.03691287 0.02269299 0.02940000
v -0.03680585 0.02273134 0.02940000
v -0.03670132 0.02277602 0.02940000
v -0.03659965 0.02282687 0.02940000
v -0.03650120 0.02288371 0.02940000
v -0.03640633 0.02294633 0.02940000
v -0.03631537 0.02301452 0.02940000
v -0.03622865 0.02308802 0.02940000
v -0.03614649 0.02316658 0.02940000
v -0.03606916 0.02324992 0.02940000
v -0.03599697 0.02333772 0.02940000
v -0.03593015 0.02342969 0.02940000
v -0.03586895 0.02352549 0.02940000
v -0.03581359 0.02362478 0.02940000
v -0.03576426 0.02372720 0.02940000
v -0.03572115 0.02383239 0.02940000
v -0.03568441 0.02393997 0.02940000
v -0.03565417 0.02404955 0.02940000
v -0.03563053 0.02416074 0.02940000
v -0.03561359 0.02427315 0.02940000
v -0.03560340 0.02438637 0.02940000
v -0.03560000 0.02450000 0.02740000
v -0.03560340 0.02461363 0.02740000
v -0.03561359 0.02472685 0.02740000
v -0.03563053 0.02483926 0.02740000
v -0.03565417 0.02495045 0.02740000
v -0.03568441 0.02506003 0.02740000
v -0.03572115 0.02516761 0.02740000
v -0.03576426 0.02527280 0.02740000
v -0.03581359 0.02537522 0.02740000
v -0.03586895 0.02547451 0.02740000
v -0.03593015 0.02557031 0.02740000
v -0.03599697 0.02566228 0.02740000
v -0.03606916 0.02575008 0.02740000
v -0.03614649 0.02583342 0.02740000
v -0.03622865 0.02591198 0.02740000
v -0.03631537 0.02598548 0.02740000
v -0.03640633 0.02605367 0.02740000
v -0.03650120 0.02611629 0.02740000
v -0.03659965 0.02617313 0.02740000
v -0.03670132 0.02622398 0.02740000
v -0.03680585 0.02626866 0.02740000
v -0.03691287 0.02630701 0.02740000
v -0.03702199 0.02633889 0.02740000
v -0.03713281 0.02636418 0.02740000
v -0.03724496 0.02638280 0.02740000
v -0.03735801 0.02639469 0.02740000
v -0.03747158 0.02639979 0.02740000
v -0.03758524 0.02639809 0.02740000
v -0.03769860 0.02638959 0.02740000
v -0.03781125 0.02637433 0.02740000
v -0.03792279 0.02635236 0.02740000
v -0.03803281 0.02632376 0.02740000
v -0.03814093 0.02628863 0.02740000
v -0.03824675 0.02624710 0.02740000
v -0.03834989 0.02619932 0.02740000
v -0.03845000 0.02614545 0.02740000
v -0.03854670 0.02608569 0.02740000
v -0.03863966 0.02602025 0.02740000
v -0.03872854 0.02594938 0.02740000
v -0.03881302 0.02587331 0.02740000
v -0.03889280 0.02579233 0.02740000
v -0.03896759 0.02570672 0.02740000
v -0.03903713 0.02561679 0.02740000
v -0.03910117 0.02552287 0.02740000
v -0.03915948 0.02542528 0.02740000
v -0.03921184 0.02532438 0.02740000
v -0.03925808 0.02522053 0.02740000
v -0.03929802 0.02511410 0.02740000
v -0.03933153 0.02500547 0.02740000
v -0.03935848 0.02489503 0.02740000
v -0.03937878 0.02478318 0.02740000
v -0.03939235 0.02467031 0.02740000
v -0.03939915 0.02455684 0.02740000
v -0.03939915 0.02444316 0.02740000
v -0.03939235 0.02432969 0.02740000
v -0.03937878 0.02421682 0.02740000
v -0.03935848 0.02410497 0.02740000
v -0.03933153 0.02399453 0.02740000
v -0.03929802 0.02388590 0.02740000
v -0.03925808 0.02377947 0.02740000
v -0.03921184 0.02367562 0.02740000
v -0.03915948 0.02357472 0.02740000
v -0.03910117 0.02347713 0.02740000
v -0.03903713 0.02338321 0.02740000
v -0.03896759 0.02329328 0.02740000
v -0.03889280 0.02320767 0.02740000
v -0.03881302 0.02312669 0.02740000
v -0.03872854 0.02305062 0.02740000
v -0.03863966 0.02297975 0.02740000
v -0.03854670 0.02291431 0.02740000
v -0.03845000 0.02285455 0.02740000
v -0.03834989 0.02280068 0.02740000
v -0.03824675 0.02275290 0.02740000
v -0.03814093 0.02271137 0.02740000
v -0.03803281 0.02267624 0.02740000
v -0.03792279 0.02264764 0.02740000
v -0.03781125 0.02262567 0.02740000
v -0.03769860 0.02261041 0.02740000
v -0.03758524 0.02260191 0.02740000
v -0.03747158 0.02260021 0.02740000
v -0.03735801 0.02260531 0.02740000
v -0.03724496 0.02261720 0.02740000
v -0.03713281 0.02263582 0.02740000
v -0.03702199 0.02266111 0.02740000
v -0.03691287 0.02269299 0.02740000
v -0.03680585 0.02273134 0.02740000
v -0.03670132 0.02277602 0.02740000
v -0.03659965 0.02282687 0.02740000
v -0.03650120 0.02288371 0.02740000
v -0.03640633 0.02294633 0.02740000
v -0.03631537 0.02301452 0.02740000
v -0.03622865 0.02308802 0.02740000
v -0.03614649 0.02316658 0.02740000
v -0.03606916 0.02324992 0.02740000
v -0.03599697 0.02333772 0.02740000
v -0.03593015 0.02342969 0.02740000
v -0.03586895 0.02352549 0.02740000
v -0.03581359 0.02362478 0.02740000
v -0.03576426 0.02372720 0.02740000
v -0.03572115 0.02383239 0.02740000
v -0.03568441 0.02393997 0.02740000
v -0.03565417 0.02404955 0.02740000
v -0.03563053 0.02416074 0.02740000
v -0.03561359 0.02427315 0.02740000
v -0.03560340 0.02438637 0.02740000
v -0.03650000 0.02450000 0.01540000
v -0.03650179 0.02455980 0.01540000
v -0.03650715 0.02461939 0.01540000
v -0.03651607 0.02467856 0.01540000
v -0.03652851 0.02473708 0.01540000
v -0.03654443 0.02479476 0.01540000
v -0.03656377 0.02485137 0.01540000
v -0.03658645 0.02490674 0.01540000
v -0.03661241 0.02496064 0.01540000
v -0.03664155 0.02501290 0.01540000
v -0.03667376 0.02506332 0.01540000
v -0.03670893 0.02511172 0.01540000
v -0.03674693 0.02515794 0.01540000
v -0.03678762 0.02520180 0.01540000
v -0.03683087 0.02524314 0.01540000
v -0.03687651 0.02528183 0.01540000
v -0.03692438 0.02531772 0.01540000
v -0.03697432 0.02535068 0.01540000
v -0.03702613 0.02538060 0.01540000
v -0.03707964 0.02540736 0.01540000
v -0.03713466 0.02543087 0.01540000
v -0.03719098 0.02545106 0.01540000
v -0.03724841 0.02546783 0.01540000
v -0.03730674 0.02548115 0.01540000
v -0.03736577 0.02549095 0.01540000
v -0.03742527 0.02549720 0.01540000
v -0.03748504 0.02549989 0.01540000
v -0.03754486 0.02549899 0.01540000
v -0.03760453 0.02549452 0.01540000
v -0.03766382 0.02548649 0.01540000
v -0.03772252 0.02547493 0.01540000
v -0.03778043 0.02545988 0.01540000
v -0.03783733 0.02544139 0.01540000
v -0.03789303 0.02541953 0.01540000
v -0.03794731 0.02539438 0.01540000
v -0.03800000 0.02536603 0.01540000
v -0.03805090 0.02533457 0.01540000
v -0.03809982 0.02530013 0.01540000
v -0.03814660 0.02526283 0.01540000
v -0.03819106 0.02522279 0.01540000
v -0.03823305 0.02518017 0.01540000
v -0.03827242 0.02513512 0.01540000
v -0.03830902 0.02508779 0.01540000
v -0.03834272 0.02503835 0.01540000
v -0.03837341 0.02498699 0.01540000
v -0.03840097 0.02493388 0.01540000
v -0.03842530 0.02487923 0.01540000
v -0.03844633 0.02482321 0.01540000
v -0.03846396 0.02476604 0.01540000
v -0.03847815 0.02470791 0.01540000
v -0.03848883 0.02464904 0.01540000
v -0.03849597 0.02458964 0.01540000
v -0.03849955 0.02452992 0.01540000
v -0.03849955 0.02447008 0.01540000
v -0.03849597 0.02441036 0.01540000
v -0.03848883 0.02435096 0.01540000
v -0.03847815 0.02429209 0.01540000
v -0.03846396 0.02423396 0.01540000
v -0.03844633 0.02417679 0.01540000
v -0.03842530 0.02412077 0.01540000
v -0.03840097 0.02406612 0.01540000
v -0.03837341 0.02401301 0.01540000
v -0.03834272 0.02396165 0.01540000
v -0.03830902 0.02391221 0.01540000
v -0.03827242 0.02386488 0.01540000
v -0.03823305 0.02381983 0.01540000
v -0.03819106 0.02377721 0.01540000
v -0.03814660 0.02373717 0.01540000
v -0.03809982 0.02369987 0.01540000
v -0.03805090 0.02366543 0.01540000
v -0.03800000 0.02363397 0.01540000
v -0.03794731 0.02360562 0.01540000
v -0.03789303 0.02358047 0.01540000
v -0.03783733 0.02355861 0.01540000
v -0.03778043 0.02354012 0.01540000
v -0.03772252 0.02352507 0.01540000
v -0.03766382 0.02351351 0.01540000
v -0.03760453 0.02350548 0.01540000
v -0.03754486 0.02350101 0.01540000
v -0.03748504 0.02350011 0.01540000
v -0.03742527 0.02350280 0.01540000
v -0.03736577 0.02350905 0.01540000
v -0.03730674 0.02351885 0.01540000
v -0.03724841 0.02353217 0.01540000
v -0.03719098 0.02354894 0.01540000
v -0.03713466 0.02356913 0.01540000
v -0.03707964 0.02359264 0.01540000
v -0.03702613 0.02361940 0.01540000
v -0.03697432 0.02364932 0.01540000
v -0.03692438 0.02368228 0.01540000
v -0.03687651 0.02371817 0.01540000
v -0.03683087 0.02375686 0.01540000
v -0.03678762 0.02379820 0.01540000
v -0.03674693 0.02384206 0.01540000
v -0.03670893 0.02388828 0.01540000
v -0.03667376 0.02393668 0.01540000
v -0.03664155 0.02398710 0.01540000
v -0.03661241 0.02403936 0.01540000
v -0.03658645 0.02409326 0.01540000
v -0.03656377 0.02414863 0.01540000
v -0.03654443 0.02420524 0.01540000
v -0.03652851 0.02426292 0.01540000
v -0.03651607 0.02432144 0.01540000
v -0.03650715 0.02438061 0.01540000
v -0.03650179 0.02444020 0.01540000
f 140 139 244
f 276 171 170
f 172 171 276
f 132 236 237
f 297 298 192
f 308 203 202
f 204 203 308
f 173 172 278
f 112 111 216
f 216 217 112
f 216 111 110
f 169 273 274
f 274 170 169
f 167 273 168
f 168 273 169
f 270 165 164
f 264 160 159
f 244 139 138
f 240 135 239
f 135 134 239
f 133 237 238
f 132 237 133
f 238 239 133
f 133 239 134
f 249 144 143
f 145 144 249
f 145 251 146
f 246 141 140
f 142 141 246
f 246 247 142
f 265 160 264
f 265 161 160
f 268 164 163
f 163 162 268
f 162 267 268
f 157 262 263
f 298 194 193
f 193 192 298
f 201 200 305
f 305 200 199
f 309 205 204
f 204 308 309
f 277 172 276
f 277 278 172
f 173 278 174
f 280 281 175
f 175 281 176
f 281 177 176
f 282 177 281
f 286 182 181
f 189 293 294
f 190 294 295
f 189 294 190
f 188 293 189
f 188 187 293
f 287 182 286
f 110 109 214
f 109 108 214
f 114 113 219
f 112 217 218
f 218 113 112
f 218 219 113
f 115 219 220
f 114 219 115
f 118 117 222
f 222 117 116
f 276 170 275
f 170 274 275
f 272 273 167
f 167 271 272
f 166 271 167
f 270 271 166
f 166 165 270
f 157 263 158
f 118 224 119
f 121 120 226
f 122 226 227
f 121 226 122
f 131 236 132
f 131 130 236
f 236 130 235
f 230 126 125
f 125 229 230
f 124 229 125
f 244 138 243
f 243 138 137
f 137 242 243
f 241 135 240
f 241 242 137
f 135 241 136
f 136 241 137
f 249 143 248
f 248 143 142
f 142 247 248
f 250 145 249
f 251 145 250
f 245 140 244
f 245 246 140
f 161 265 266
f 162 161 266
f 266 267 162
f 270 164 269
f 164 268 269
f 254 148 253
f 151 256 257
f 147 252 253
f 253 148 147
f 251 252 147
f 146 251 147
f 155 154 259
f 301 197 196
f 196 195 301
f 306 201 305
f 202 201 306
f 206 205 311
f 311 207 206
f 175 174 279
f 279 280 175
f 279 174 278
f 283 178 177
f 177 282 283
f 179 178 283
f 283 284 179
f 284 285 180
f 179 284 180
f 180 285 286
f 286 181 180
f 191 190 295
f 297 192 191
f 288 183 182
f 182 287 288
f 184 183 288
f 288 289 184
f 215 216 110
f 110 214 215
f 107 106 212
f 212 106 211
f 212 108 107
f 223 224 118
f 118 222 223
f 221 222 116
f 116 115 221
f 221 115 220
f 225 226 120
f 120 119 225
f 225 119 224
f 123 229 124
f 123 122 227
f 130 129 234
f 234 235 130
f 234 129 128
f 128 233 234
f 231 126 230
f 231 232 126
f 126 232 127
f 127 232 233
f 127 233 128
f 150 256 151
f 259 154 153
f 260 155 259
f 261 155 260
f 156 155 261
f 156 261 262
f 156 262 157
f 198 197 302
f 197 301 302
f 300 301 195
f 300 195 194
f 307 308 202
f 202 306 307
f 205 309 310
f 310 311 205
f 208 207 313
f 313 209 208
f 297 191 296
f 296 191 295
f 186 291 187
f 185 291 186
f 290 291 185
f 290 185 184
f 184 289 290
f 293 187 292
f 187 291 292
f 213 214 108
f 108 212 213
f 228 123 227
f 229 123 228
f 256 150 255
f 255 150 254
f 148 254 149
f 254 150 149
f 259 153 258
f 258 153 257
f 151 257 152
f 257 153 152
f 303 199 198
f 198 302 303
f 299 194 298
f 299 300 194
f 207 311 312
f 312 313 207
f 210 209 315
f 315 106 210
f 211 106 315
f 305 199 304
f 199 303 304
f 209 313 314
f 314 315 209
f 5 109 110
f 4 109 5
f 1 106 2
f 2 106 107
f 206 101 100
f 100 205 206
f 204 205 100
f 100 99 204
f 98 97 202
f 202 203 98
f 204 99 98
f 98 203 204
f 102 101 206
f 206 207 102
f 102 207 208
f 208 103 102
f 105 106 1
f 210 106 105
f 6 112 7
f 6 111 112
f 6 5 110
f 110 111 6
f 59 164 60
f 60 164 165
f 161 57 56
f 162 57 161
f 56 55 161
f 161 55 160
f 171 66 65
f 65 170 171
f 169 170 65
f 65 64 169
f 67 66 171
f 171 172 67
f 173 68 67
f 67 172 173
f 118 13 12
f 12 117 118
f 116 117 12
f 12 11 116
f 120 16 15
f 121 16 120
f 32 138 33
f 137 138 32
f 33 138 34
f 34 138 139
f 139 140 34
f 140 35 34
f 142 37 36
f 36 141 142
f 36 35 140
f 140 141 36
f 143 38 37
f 143 37 142
f 145 41 40
f 146 41 145
f 39 145 40
f 144 145 39
f 38 143 39
f 39 143 144
f 58 164 59
f 163 164 58
f 58 57 162
f 58 162 163
f 93 92 197
f 198 93 197
f 92 91 197
f 197 91 196
f 195 91 90
f 196 91 195
f 89 195 90
f 194 195 89
f 193 89 88
f 194 89 193
f 193 88 87
f 87 192 193
f 202 97 201
f 97 96 201
f 201 96 95
f 95 200 201
f 199 94 93
f 199 93 198
f 95 94 199
f 199 200 95
f 175 70 174
f 70 69 174
f 174 68 173
f 174 69 68
f 178 74 73
f 179 74 178
f 73 72 178
f 72 177 178
f 190 85 84
f 190 84 189
f 84 83 188
f 189 84 188
f 188 83 82
f 82 187 188
f 79 78 183
f 184 79 183
f 183 78 77
f 77 182 183
f 80 79 185
f 185 79 184
f 7 112 8
f 112 113 8
f 114 9 8
f 8 113 114
f 10 9 115
f 115 9 114
f 115 11 10
f 116 11 115
f 104 103 208
f 208 209 104
f 210 105 104
f 104 209 210
f 3 109 4
f 3 108 109
f 3 2 107
f 107 108 3
f 63 62 167
f 167 168 63
f 169 64 63
f 63 168 169
f 53 52 158
f 158 52 157
f 158 263 264
f 264 159 158
f 53 158 54
f 54 158 159
f 160 55 54
f 54 159 160
f 119 14 13
f 119 13 118
f 15 14 119
f 119 120 15
f 17 16 122
f 122 16 121
f 27 26 131
f 132 27 131
f 131 26 25
f 25 130 131
f 23 128 129
f 129 24 23
f 129 130 25
f 25 24 129
f 20 19 125
f 125 19 124
f 125 21 20
f 125 126 21
f 28 27 132
f 132 133 28
f 147 42 41
f 147 41 146
f 43 42 147
f 147 148 43
f 49 155 50
f 154 155 49
f 71 70 175
f 175 176 71
f 71 177 72
f 71 176 177
f 76 182 77
f 76 181 182
f 75 74 180
f 180 74 179
f 180 76 75
f 181 76 180
f 87 86 191
f 191 192 87
f 191 86 85
f 85 190 191
f 167 62 61
f 61 166 167
f 61 60 165
f 165 166 61
f 19 18 123
f 124 19 123
f 123 18 17
f 17 122 123
f 127 128 23
f 23 22 127
f 21 126 127
f 127 22 21
f 29 134 135
f 135 30 29
f 29 28 133
f 29 133 134
f 50 51 31
f 47 48 31
f 31 26 27
f 31 92 93
f 31 83 84
f 20 21 31
f 31 22 23
f 31 19 20
f 97 98 31
f 31 105 1
f 77 78 31
f 59 60 31
f 80 81 31
f 31 72 73
f 73 74 31
f 31 39 40
f 87 88 31
f 31 86 87
f 101 102 31
f 1 2 31
f 31 6 7
f 31 42 43
f 23 24 31
f 31 32 33
f 13 14 31
f 62 63 31
f 31 65 66
f 40 41 31
f 31 36 37
f 31 52 53
f 31 100 101
f 93 94 31
f 31 96 97
f 84 85 31
f 31 46 47
f 31 79 80
f 4 5 31
f 103 104 31
f 31 9 10
f 53 54 31
f 31 12 13
f 31 3 4
f 70 71 31
f 31 49 50
f 66 67 31
f 31 69 70
f 27 28 31
f 10 11 31
f 31 16 17
f 17 18 31
f 37 38 31
f 33 34 31
f 56 57 31
f 31 58 59
f 43 44 31
f 99 100 31
f 31 98 99
f 31 94 95
f 95 96 31
f 82 83 31
f 85 86 31
f 90 91 31
f 31 81 82
f 31 89 90
f 31 102 103
f 7 8 31
f 5 6 31
f 25 26 31
f 31 14 15
f 31 76 77
f 31 55 56
f 64 65 31
f 31 74 75
f 31 67 68
f 68 69 31
f 41 42 31
f 11 12 31
f 15 16 31
f 31 18 19
f 31 29 30
f 31 34 35
f 35 36 31
f 38 39 31
f 57 58 31
f 31 51 52
f 45 46 31
f 31 91 92
f 88 89 31
f 31 78 79
f 31 8 9
f 31 104 105
f 2 3 31
f 31 63 64
f 31 54 55
f 31 24 25
f 21 22 31
f 31 61 62
f 31 44 45
f 48 49 31
f 31 71 72
f 75 76 31
f 60 61 31
f 28 29 31
f 31 30 135
f 135 136 31
f 137 32 31
f 31 136 137
f 150 46 45
f 151 46 150
f 153 49 48
f 154 49 153
f 52 51 156
f 157 52 156
f 156 51 50
f 50 155 156
f 82 81 186
f 186 187 82
f 186 81 80
f 80 185 186
f 43 148 149
f 149 44 43
f 45 44 149
f 149 150 45
f 47 46 152
f 152 46 151
f 152 48 47
f 152 153 48
f 273 272 314
f 267 266 314
f 281 280 314
f 230 229 314
f 314 250 249
f 314 218 217
f 314 294 293
f 240 239 314
f 314 298 297
f 270 269 314
f 253 252 314
f 314 234 233
f 314 237 236
f 314 231 230
f 256 255 314
f 314 306 305
f 314 312 311
f 314 287 286
f 314 212 211
f 314 271 270
f 238 237 314
f 249 248 314
f 314 241 240
f 314 265 264
f 264 263 314
f 259 258 314
f 314 277 276
f 286 285 314
f 314 282 281
f 289 288 314
f 217 216 314
f 216 215 314
f 314 274 273
f 276 275 314
f 314 221 220
f 236 235 314
f 244 243 314
f 314 239 238
f 314 252 251
f 247 246 314
f 314 245 244
f 314 268 267
f 314 263 262
f 262 261 314
f 314 254 253
f 314 309 308
f 278 277 314
f 314 310 309
f 314 285 284
f 314 279 278
f 295 294 314
f 284 283 314
f 314 290 289
f 220 219 314
f 219 218 314
f 224 223 314
f 314 275 274
f 314 272 271
f 227 226 314
f 214 213 314
f 314 225 224
f 233 232 314
f 314 243 242
f 242 241 314
f 314 248 247
f 251 250 314
f 246 245 314
f 314 266 265
f 314 269 268
f 314 228 227
f 314 257 256
f 314 260 259
f 211 315 314
f 308 307 314
f 280 279 314
f 314 283 282
f 314 288 287
f 297 296 314
f 314 215 214
f 293 292 314
f 314 223 222
f 222 221 314
f 226 225 314
f 235 234 314
f 232 231 314
f 261 260 314
f 314 302 301
f 301 300 314
f 314 307 306
f 311 310 314
f 314 299 298
f 314 296 295
f 291 290 314
f 314 292 291
f 314 213 212
f 229 228 314
f 314 255 254
f 314 258 257
f 314 303 302
f 300 299 314
f 313 312 314
f 305 304 314
f 314 304 303

