# https://github.com/mikedh/trimesh
v -0.03519060 -0.02450000 0.01720000
v -0.03519060 -0.02450000 0.01880000
v -0.03634530 -0.02250000 0.01880000
v -0.03634530 -0.02250000 0.01720000
v -0.03634530 -0.02650000 0.01720000
v -0.03634530 -0.02650000 0.01880000
v -0.03865470 -0.02250000 0.01880000
v -0.03865470 -0.02250000 0.01720000
v -0.03980940 -0.02450000 0.01720000
v -0.03865470 -0.02650000 0.01720000
v -0.03980940 -0.02450000 0.01880000
v -0.03865470 -0.02650000 0.01880000
f 1 4 2
f 2 4 3
f 9 10 11
f 11 10 12
f 1 5 8
f 8 10 9
f 8 4 1
f 5 10 8
f 8 11 7
f 9 11 8
f 3 4 8
f 8 7 3
f 6 2 3
f 3 7 6
f 6 11 12
f 7 11 6
f 6 10 5
f 12 10 6
f 6 5 1
f 1 2 6

