# https://github.com/mikedh/trimesh
v -0.01108912 0.09386192 0.12039465
v -0.01108912 0.08824817 0.12039465
v -0.01108912 0.09386192 0.11859992
v -0.03150000 0.09386192 0.12039465
v -0.01108912 0.08818890 0.12036726
v -0.03150000 0.08824817 0.12039465
v -0.01108912 0.09364965 0.11850042
v -0.03150000 0.09386192 0.11859992
v -0.01222794 0.08380242 0.11832220
v -0.01108912 0.08441875 0.11860936
v -0.03150000 0.08285530 0.11788045
v -0.01108912 0.09280705 0.11810746
v -0.03150000 0.09081368 0.11717829
v -0.01299315 0.08285530 0.11788045
v -0.01108912 0.08371622 0.11717829
v -0.03150000 0.08285530 0.11717829
v -0.01108912 0.09081368 0.11717829
v -0.01311302 0.08285530 0.11717829
f 1 2 5
f 1 5 10
f 1 10 15
f 1 15 17
f 1 17 12
f 1 12 7
f 1 7 3
f 1 3 8
f 1 8 4
f 1 4 6
f 1 6 2
f 2 6 5
f 3 7 8
f 4 8 13
f 4 13 16
f 4 16 11
f 4 11 6
f 5 9 10
f 5 6 11
f 5 11 9
f 7 12 13
f 7 13 8
f 9 14 10
f 9 11 14
f 10 14 15
f 11 16 18
f 11 18 14
f 12 17 13
f 13 17 15
f 13 15 18
f 13 18 16
f 14 18 15

