# https://github.com/mikedh/trimesh
v -0.00852117 0.08330365 0.11561102
v -0.00523593 0.08330365 0.11561102
v -0.00837710 0.08330365 0.11482769
v -0.00840315 0.07989530 0.11482769
v -0.00833530 0.07989530 0.11539661
v -0.00829993 0.08035504 0.11561102
v -0.00523593 0.08330365 0.11482769
v -0.00523593 0.07989530 0.11561102
v -0.00523593 0.07989530 0.11482769
v -0.00671101 0.07989530 0.11561102
f 1 2 7
f 1 7 3
f 1 3 4
f 1 4 5
f 1 5 6
f 1 6 10
f 1 10 8
f 1 8 2
f 2 8 9
f 2 9 7
f 3 7 9
f 3 9 4
f 4 9 8
f 4 8 10
f 4 10 5
f 5 10 6

