# https://github.com/mikedh/trimesh
v -0.01351238 0.10334698 0.12743577
v -0.01499244 0.10334698 0.12743577
v -0.01351238 0.10259637 0.12708595
v -0.01351238 0.10503747 0.12381055
v -0.01499244 0.10503747 0.12381055
v -0.01499244 0.09483500 0.12346698
v -0.01351238 0.09757895 0.12474644
v -0.01351238 0.10227947 0.12252483
v -0.01499244 0.10228163 0.12252579
v -0.01499244 0.09398813 0.12307193
v -0.01383896 0.09445537 0.12328991
v -0.01362930 0.09441211 0.12326970
v -0.01351238 0.09437101 0.12325045
v -0.01351238 0.10226973 0.12252050
v -0.01499244 0.10226973 0.12252050
v -0.01499244 0.09424555 0.12252050
v -0.01351238 0.09471170 0.12252050
f 1 2 3
f 1 3 7
f 1 7 13
f 1 13 17
f 1 17 14
f 1 14 8
f 1 8 4
f 1 4 5
f 1 5 2
f 2 5 9
f 2 9 15
f 2 15 16
f 2 16 10
f 2 10 6
f 2 6 3
f 3 6 7
f 4 8 9
f 4 9 5
f 6 10 11
f 6 11 7
f 7 11 12
f 7 12 13
f 8 14 15
f 8 15 9
f 10 16 17
f 10 17 13
f 10 13 12
f 10 12 11
f 14 17 16
f 14 16 15

