# https://github.com/mikedh/trimesh
v 0.01399032 0.07388288 0.10928270
v 0.01399597 0.07116648 0.10801631
v 0.01399032 0.07341327 0.10906364
v -0.00523593 0.07388288 0.10928270
v 0.01399032 0.07010387 0.10928270
v 0.01399597 0.07077882 0.10783554
v 0.01399032 0.07129448 0.10807565
v 0.01399597 0.07069457 0.10801631
v -0.00523593 0.06927283 0.10713311
v -0.00523593 0.06917937 0.10928270
v 0.01285516 0.06917937 0.10928270
v 0.01281186 0.06917937 0.10801631
v 0.01289093 0.06927283 0.10713311
v 0.01399032 0.07011584 0.10925661
v 0.01399597 0.07071713 0.10796749
v -0.00523593 0.06917937 0.10801631
f 1 2 3
f 1 3 4
f 1 4 10
f 1 10 11
f 1 11 5
f 1 5 8
f 1 8 2
f 2 6 7
f 2 7 3
f 2 8 15
f 2 15 6
f 3 7 4
f 4 9 16
f 4 16 10
f 4 7 9
f 5 11 12
f 5 12 13
f 5 13 14
f 5 14 8
f 6 15 13
f 6 13 7
f 7 13 9
f 8 14 13
f 8 13 15
f 9 13 12
f 9 12 16
f 10 16 12
f 10 12 11

