# https://github.com/mikedh/trimesh
v -0.01351223 0.09437130 0.12325045
v -0.01351223 0.09757906 0.12474644
v -0.01351223 0.09471136 0.12252050
v -0.01297998 0.09280514 0.12252050
v -0.01351223 0.10259604 0.12708595
v -0.01351223 0.10226916 0.12252050
v -0.00523593 0.09280514 0.12252050
v -0.00523593 0.10334679 0.12743577
v -0.01351223 0.10334679 0.12743577
v -0.01351223 0.10227993 0.12252483
v -0.00523593 0.10226916 0.12252050
v -0.00523593 0.10403647 0.12595613
v -0.01351223 0.10488541 0.12413631
v -0.01351223 0.10503628 0.12381055
v -0.00523593 0.10503628 0.12381055
f 1 2 5
f 1 5 9
f 1 9 13
f 1 13 14
f 1 14 10
f 1 10 6
f 1 6 3
f 1 3 4
f 1 4 2
f 2 4 5
f 3 6 11
f 3 11 7
f 3 7 4
f 4 7 5
f 5 8 9
f 5 7 8
f 6 10 11
f 7 11 15
f 7 15 12
f 7 12 8
f 8 12 13
f 8 13 9
f 10 14 15
f 10 15 11
f 12 15 13
f 13 15 14

