# https://github.com/mikedh/trimesh
v -0.01499567 0.10503628 0.12381090
v -0.01499567 0.10227421 0.12252338
v -0.03150000 0.10229337 0.12253205
v -0.02960479 0.10484352 0.12372093
v -0.02849804 0.10503628 0.12381090
v -0.01499567 0.10334576 0.12743577
v -0.01499567 0.09424664 0.12252050
v -0.03150000 0.09280514 0.12252050
v -0.03150000 0.10062680 0.12616750
v -0.03149354 0.10078483 0.12624111
v -0.03148546 0.10255437 0.12265377
v -0.03100398 0.10381149 0.12323979
v -0.03035770 0.10444843 0.12353714
v -0.03014605 0.10458850 0.12360257
v -0.02999740 0.10467111 0.12364106
v -0.02984391 0.10474654 0.12367618
v -0.02960479 0.10315300 0.12734531
v -0.02927357 0.10494169 0.12376712
v -0.02901829 0.10499437 0.12379166
v -0.03085049 0.10400305 0.12332929
v -0.02875978 0.10502430 0.12380561
v -0.02849804 0.10334576 0.12743577
v -0.01502152 0.09280514 0.12252050
v -0.01499567 0.09398923 0.12307236
v -0.03035770 0.10275790 0.12716152
v -0.03146445 0.10102069 0.12635129
v -0.03145153 0.10278903 0.12276347
v -0.03137236 0.10309673 0.12290685
v -0.03113808 0.10360676 0.12314453
v -0.03100398 0.10212097 0.12686418
v -0.03090381 0.10225027 0.12692432
v -0.03061783 0.10423891 0.12343946
v -0.03055643 0.10260466 0.12708935
v -0.03014605 0.10289798 0.12722647
v -0.02999740 0.10298059 0.12726496
v -0.02984391 0.10305602 0.12730009
v -0.02927357 0.10325117 0.12739150
v -0.02875978 0.10333378 0.12742999
v -0.02901829 0.10330385 0.12741556
v -0.03079556 0.10237478 0.12698206
v -0.03067923 0.10249211 0.12703739
v -0.03113808 0.10191624 0.12676891
v -0.03128511 0.10163009 0.12663516
v -0.03139498 0.10133078 0.12649515
v -0.03141598 0.10294348 0.12283564
v -0.03131743 0.10324638 0.12297709
v -0.03125280 0.10339364 0.12304542
f 1 2 3
f 1 3 4
f 1 4 5
f 1 5 22
f 1 22 6
f 1 6 24
f 1 24 7
f 1 7 2
f 2 7 8
f 2 8 3
f 3 8 9
f 3 9 10
f 3 10 11
f 3 11 12
f 3 12 4
f 4 13 14
f 4 14 15
f 4 15 16
f 4 16 17
f 4 17 37
f 4 37 18
f 4 18 19
f 4 19 5
f 4 12 20
f 4 20 13
f 5 19 21
f 5 21 22
f 6 22 8
f 6 8 23
f 6 23 24
f 7 24 23
f 7 23 8
f 8 22 25
f 8 25 26
f 8 26 9
f 9 26 10
f 10 26 11
f 11 26 27
f 11 27 28
f 11 28 12
f 12 28 29
f 12 29 42
f 12 42 30
f 12 30 31
f 12 31 20
f 13 20 32
f 13 32 33
f 13 33 25
f 13 25 14
f 14 25 34
f 14 34 35
f 14 35 15
f 15 35 36
f 15 36 16
f 16 36 17
f 17 36 37
f 18 37 19
f 19 38 21
f 19 37 39
f 19 39 38
f 20 40 32
f 20 31 40
f 21 38 22
f 22 38 37
f 22 37 25
f 25 33 41
f 25 41 42
f 25 42 26
f 25 37 35
f 25 35 34
f 26 42 43
f 26 43 44
f 26 44 27
f 27 44 45
f 27 45 28
f 28 45 44
f 28 44 46
f 28 46 47
f 28 47 29
f 29 47 42
f 30 42 41
f 30 41 31
f 31 41 40
f 32 40 41
f 32 41 33
f 35 37 36
f 37 38 39
f 42 47 43
f 43 46 44
f 43 47 46

