# https://github.com/mikedh/trimesh
v -0.01159980 0.07989908 0.11482769
v -0.01166655 0.07989908 0.11539832
v -0.01019176 0.07867501 0.11482769
v -0.03150000 0.07989908 0.11482769
v -0.01287433 0.07838018 0.11561102
v -0.01329152 0.07989908 0.11561102
v -0.01265947 0.07838018 0.11482769
v -0.03150000 0.07838018 0.11482769
v -0.03150000 0.07989908 0.11561102
v -0.03150000 0.07838018 0.11561102
f 1 2 3
f 1 3 7
f 1 7 8
f 1 8 4
f 1 4 9
f 1 9 6
f 1 6 2
f 2 5 3
f 2 6 5
f 3 5 7
f 4 8 10
f 4 10 9
f 5 6 9
f 5 9 10
f 5 10 8
f 5 8 7

