# https://github.com/mikedh/trimesh
v 0.00948565 0.07546237 0.11001991
v 0.00948565 0.07569985 0.11013004
v 0.01045437 0.07550951 0.11004156
v 0.01045437 0.07546237 0.11001991
v 0.00948565 0.07546237 0.11443274
v 0.01045437 0.07660529 0.11055222
v 0.01045437 0.07615702 0.11034325
v 0.00948565 0.07929670 0.11180745
v 0.01045437 0.07546237 0.11443274
v 0.00948565 0.07552063 0.11446004
v 0.01045437 0.07705134 0.11076025
v 0.00948565 0.07971028 0.11200041
v 0.00974900 0.07994954 0.11211196
v 0.01045437 0.07996777 0.11212043
v 0.01045437 0.07588530 0.11462994
v 0.00948565 0.07580214 0.11459135
v 0.00948565 0.07993219 0.11210396
v 0.00964990 0.07996555 0.11211949
v 0.01045437 0.07998867 0.11213031
v 0.01045437 0.07630911 0.11482714
v 0.00948565 0.07612945 0.11474384
v 0.00948565 0.08000513 0.11213831
v 0.01045437 0.07990596 0.11230775
v 0.00948565 0.07630911 0.11482714
v 0.01045437 0.07873102 0.11482714
v 0.00948565 0.07875103 0.11482714
f 1 2 3
f 1 3 4
f 1 4 9
f 1 9 5
f 1 5 10
f 1 10 16
f 1 16 21
f 1 21 24
f 1 24 26
f 1 26 22
f 1 22 17
f 1 17 12
f 1 12 8
f 1 8 2
f 2 6 7
f 2 7 3
f 2 8 6
f 3 7 6
f 3 6 11
f 3 11 14
f 3 14 19
f 3 19 23
f 3 23 25
f 3 25 20
f 3 20 15
f 3 15 9
f 3 9 4
f 5 9 10
f 6 8 11
f 8 12 13
f 8 13 14
f 8 14 11
f 9 15 16
f 9 16 10
f 12 17 13
f 13 17 18
f 13 18 14
f 14 18 19
f 15 20 21
f 15 21 16
f 17 22 18
f 18 22 19
f 19 22 23
f 20 24 21
f 20 25 26
f 20 26 24
f 22 26 25
f 22 25 23

