# https://github.com/mikedh/trimesh
v -0.00736220 0.08035512 0.11561117
v -0.00674155 0.07960579 0.11561117
v -0.00670575 0.07960689 0.11636520
v -0.00736220 0.08366511 0.11715451
v -0.00736220 0.08745345 0.11561117
v -0.00523593 0.07960579 0.11561117
v -0.00672116 0.07960579 0.11595720
v -0.00523593 0.07960579 0.11601350
v -0.00523593 0.07960689 0.11636520
v -0.00523593 0.07976378 0.11643852
v -0.00669993 0.08134911 0.11717798
v -0.00736220 0.08371558 0.11717798
v -0.00736220 0.09081391 0.11717798
v -0.00523593 0.08745345 0.11561117
v -0.00523593 0.08134911 0.11717798
v -0.00523593 0.09081391 0.11717798
f 1 2 3
f 1 3 4
f 1 4 12
f 1 12 13
f 1 13 5
f 1 5 14
f 1 14 6
f 1 6 2
f 2 6 8
f 2 8 7
f 2 7 3
f 3 7 8
f 3 8 9
f 3 9 10
f 3 10 11
f 3 11 12
f 3 12 4
f 5 13 16
f 5 16 14
f 6 14 16
f 6 16 15
f 6 15 10
f 6 10 9
f 6 9 8
f 10 15 11
f 11 15 16
f 11 16 13
f 11 13 12

