# https://github.com/mikedh/trimesh
v -0.00523593 0.07989530 0.11561102
v -0.00523593 0.07989530 0.11482769
v -0.00671110 0.07989530 0.11561102
v -0.00523593 0.07867198 0.11561102
v -0.00523593 0.07867198 0.11482769
v -0.00840309 0.07989530 0.11482769
v -0.00833544 0.07989530 0.11539661
v -0.00699467 0.07867198 0.11561102
v -0.00716714 0.07867198 0.11482769
v -0.00981241 0.07867497 0.11482769
f 1 2 6
f 1 6 7
f 1 7 3
f 1 3 8
f 1 8 4
f 1 4 5
f 1 5 2
f 2 5 9
f 2 9 10
f 2 10 6
f 3 7 8
f 4 8 9
f 4 9 5
f 6 10 7
f 7 10 8
f 8 10 9

