# https://github.com/mikedh/trimesh
v 0.02733405 0.06814149 0.11101917
v 0.02733405 0.06814149 0.10801622
v 0.02632008 0.06814149 0.11101917
v 0.02733405 0.06481132 0.10946655
v 0.02632008 0.06814149 0.10801622
v 0.02733405 0.06548772 0.10801622
v 0.02632008 0.06579087 0.10992304
v 0.02632008 0.06511904 0.10960970
v 0.02632236 0.06500201 0.10955502
v 0.02632008 0.06500169 0.10955473
v 0.02632008 0.06571916 0.10801622
f 1 2 5
f 1 5 3
f 1 3 4
f 1 4 6
f 1 6 2
f 2 6 11
f 2 11 5
f 3 5 11
f 3 11 10
f 3 10 8
f 3 8 7
f 3 7 4
f 4 7 8
f 4 8 9
f 4 9 10
f 4 10 11
f 4 11 6
f 8 10 9

