# https://github.com/mikedh/trimesh
v 0.01001479 0.08355837 0.11710475
v 0.01001479 0.08368889 0.11682540
v 0.01168082 0.08224397 0.11649189
v 0.01300154 0.08299519 0.11753002
v 0.01001479 0.08447114 0.11753002
v 0.01001479 0.08384498 0.11649189
v 0.01300154 0.08224397 0.11649189
v 0.01300154 0.09156887 0.11753002
v 0.01001479 0.09156887 0.11753002
v 0.01001479 0.08934170 0.11649189
v 0.01300154 0.08934170 0.11649189
v 0.01300154 0.09109240 0.11730778
v 0.01300154 0.09048815 0.11702599
v 0.01300154 0.08950874 0.11656942
f 1 2 3
f 1 3 4
f 1 4 5
f 1 5 9
f 1 9 10
f 1 10 6
f 1 6 2
f 2 6 3
f 3 7 4
f 3 6 10
f 3 10 11
f 3 11 7
f 4 7 11
f 4 11 14
f 4 14 13
f 4 13 12
f 4 12 8
f 4 8 9
f 4 9 5
f 8 12 9
f 9 12 13
f 9 13 14
f 9 14 10
f 10 14 11

