# https://github.com/mikedh/trimesh
v -0.00523593 0.09348234 0.12097470
v -0.00523593 0.09454778 0.12097470
v 0.01300446 0.09348234 0.12097470
v -0.00523414 0.09320629 0.12179255
v -0.00523593 0.09348234 0.12179255
v -0.00523593 0.09457560 0.12097718
v -0.00520194 0.09457560 0.12097470
v 0.01283987 0.09457560 0.12097470
v 0.01299909 0.09457560 0.12179255
v 0.01303308 0.09423269 0.12264937
v 0.01304024 0.09403181 0.12309208
v 0.01294542 0.09320629 0.12179255
v -0.00523235 0.09308742 0.12265165
v -0.00523414 0.09320629 0.12265144
v -0.00523593 0.09457560 0.12179255
v 0.01300446 0.09423269 0.12265144
v -0.00523235 0.09403181 0.12309208
v 0.01283987 0.09308742 0.12265165
v -0.00523414 0.09423269 0.12265144
f 1 2 7
f 1 7 8
f 1 8 3
f 1 3 12
f 1 12 4
f 1 4 14
f 1 14 5
f 1 5 15
f 1 15 6
f 1 6 2
f 2 6 7
f 3 8 9
f 3 9 10
f 3 10 11
f 3 11 12
f 4 13 14
f 4 12 18
f 4 18 13
f 5 14 19
f 5 19 15
f 6 15 9
f 6 9 8
f 6 8 7
f 9 16 10
f 9 15 19
f 9 19 16
f 10 16 11
f 11 17 13
f 11 13 18
f 11 18 12
f 11 16 19
f 11 19 17
f 13 17 14
f 14 17 19

