# https://github.com/mikedh/trimesh
v -0.01265984 0.07838018 0.11482769
v -0.01000416 0.07689898 0.11482769
v -0.03150000 0.07838018 0.11482769
v -0.01287449 0.07838018 0.11561098
v -0.01000416 0.07686390 0.11490309
v -0.01000416 0.07630873 0.11482769
v -0.03150000 0.07630873 0.11482769
v -0.03150000 0.07838018 0.11561098
v -0.01270824 0.07807543 0.11565146
v -0.01000416 0.07679355 0.11505371
v -0.01049027 0.07682497 0.11506847
v -0.03150000 0.07798864 0.11561098
f 1 2 6
f 1 6 7
f 1 7 3
f 1 3 8
f 1 8 4
f 1 4 2
f 2 5 10
f 2 10 6
f 2 4 5
f 3 7 12
f 3 12 8
f 4 8 9
f 4 9 10
f 4 10 5
f 6 10 11
f 6 11 7
f 7 11 12
f 8 12 9
f 9 12 11
f 9 11 10

