# https://github.com/mikedh/trimesh
v 0.03150000 0.08037989 0.11649189
v 0.03150000 0.07987737 0.11649189
v 0.03150000 0.08037989 0.11482762
v 0.01330110 0.08037989 0.11649189
v 0.03150000 0.07630873 0.11482762
v 0.01330110 0.07987737 0.11649189
v 0.01261337 0.07700413 0.11515197
v 0.01261337 0.07669848 0.11500942
v 0.01261337 0.08037989 0.11482762
v 0.01261337 0.08037989 0.11562277
v 0.01261337 0.07630873 0.11482762
v 0.01261337 0.07795776 0.11559654
f 1 2 5
f 1 5 3
f 1 3 9
f 1 9 10
f 1 10 4
f 1 4 6
f 1 6 2
f 2 6 7
f 2 7 8
f 2 8 5
f 3 5 11
f 3 11 9
f 4 10 6
f 5 8 11
f 6 10 12
f 6 12 7
f 7 12 10
f 7 10 9
f 7 9 11
f 7 11 8

