# https://github.com/mikedh/trimesh
v 0.03150000 0.07546237 0.11443295
v 0.03150000 0.06879767 0.11132534
v 0.03150000 0.07546237 0.11045109
v -0.00523593 0.07546237 0.11443295
v 0.01346286 0.06897381 0.11140758
v 0.03150000 0.06879767 0.11045109
v 0.01462794 0.06892618 0.11138536
v -0.00523593 0.06879767 0.11132534
v -0.00523593 0.07546237 0.11045109
v -0.00523593 0.06879767 0.11045109
f 1 2 6
f 1 6 3
f 1 3 9
f 1 9 4
f 1 4 5
f 1 5 2
f 2 5 7
f 2 7 8
f 2 8 10
f 2 10 6
f 3 6 10
f 3 10 9
f 4 9 10
f 4 10 8
f 4 8 5
f 5 8 7

