# https://github.com/mikedh/trimesh
v -0.01240860 0.08824729 0.12039477
v -0.00523663 0.08824729 0.12039477
v -0.01240860 0.08860687 0.12056242
v -0.01240860 0.09771181 0.12039477
v -0.00523663 0.09082681 0.12159737
v -0.01240860 0.09079262 0.12158148
v -0.00523663 0.09771181 0.12039477
v -0.01240860 0.10029133 0.12159737
v -0.01240860 0.09082681 0.12159737
v -0.00523663 0.10029133 0.12159737
f 1 2 3
f 1 3 6
f 1 6 9
f 1 9 8
f 1 8 4
f 1 4 7
f 1 7 2
f 2 5 6
f 2 6 3
f 2 7 10
f 2 10 5
f 4 8 10
f 4 10 7
f 5 9 6
f 5 10 8
f 5 8 9

