# https://github.com/mikedh/trimesh
v -0.01655038 0.06193204 0.10812389
v -0.01399920 0.06193204 0.10812389
v -0.01655038 0.06683922 0.11041218
v -0.01655038 0.06877904 0.10812389
v -0.01399920 0.06665757 0.11032747
v -0.01399920 0.06799681 0.10812389
v -0.01655038 0.06700210 0.11048810
v -0.01447572 0.06700210 0.11048810
v -0.01655038 0.06877904 0.11048810
v -0.01509485 0.06877904 0.10812389
v -0.01399920 0.06689821 0.11043949
v -0.01399920 0.06691362 0.11044667
v -0.01508636 0.06877904 0.11048810
f 1 2 3
f 1 3 7
f 1 7 9
f 1 9 4
f 1 4 10
f 1 10 6
f 1 6 2
f 2 5 3
f 2 6 12
f 2 12 11
f 2 11 5
f 3 5 8
f 3 8 7
f 4 9 13
f 4 13 10
f 5 11 8
f 6 10 13
f 6 13 12
f 7 8 13
f 7 13 9
f 8 11 12
f 8 12 13

