# https://github.com/mikedh/trimesh
v -0.01088102 0.07139685 0.10812365
v -0.01088102 0.06928211 0.10812365
v -0.01088102 0.06951149 0.10724440
v -0.01394558 0.07139685 0.10812365
v -0.01280076 0.06928211 0.10812365
v -0.01088102 0.06928211 0.10713744
v -0.01288866 0.06928211 0.10713744
v -0.01394558 0.07077744 0.10783482
v -0.01394558 0.07064267 0.10812365
v -0.01394558 0.07070332 0.10799333
f 1 2 6
f 1 6 3
f 1 3 4
f 1 4 9
f 1 9 5
f 1 5 2
f 2 5 7
f 2 7 6
f 3 6 7
f 3 7 4
f 4 7 8
f 4 8 10
f 4 10 9
f 5 9 7
f 7 9 10
f 7 10 8

