# https://github.com/mikedh/trimesh
v -0.02774415 0.08577145 0.11482762
v -0.03150000 0.08577145 0.11482762
v -0.02774415 0.07630849 0.11482762
v -0.02774415 0.08555362 0.11472506
v -0.03150000 0.07630849 0.11482762
v -0.03150000 0.06437821 0.10484983
v -0.02774415 0.06452063 0.10933085
v -0.02774415 0.06621090 0.10570541
v -0.02796290 0.06437821 0.10484983
v -0.03150000 0.06437821 0.10926346
v -0.02781327 0.06444942 0.10929764
v -0.02787577 0.06437821 0.10926346
v -0.02774415 0.06456881 0.10922732
f 1 2 5
f 1 5 3
f 1 3 7
f 1 7 13
f 1 13 8
f 1 8 4
f 1 4 2
f 2 4 6
f 2 6 10
f 2 10 5
f 3 5 11
f 3 11 7
f 4 8 9
f 4 9 6
f 5 10 11
f 6 9 12
f 6 12 10
f 7 11 12
f 7 12 9
f 7 9 13
f 8 13 9
f 10 12 11

