# https://github.com/mikedh/trimesh
v -0.00854765 0.09386299 0.12039439
v -0.00854765 0.09386299 0.11859995
v -0.01108887 0.09386299 0.12039439
v -0.00854765 0.08824801 0.12039439
v -0.01108887 0.09386299 0.11859995
v -0.00854765 0.09180123 0.11763839
v -0.01108887 0.08824801 0.12039439
v -0.01108887 0.08818891 0.12036714
v -0.01108887 0.08812044 0.12033530
v -0.00854765 0.08512441 0.11893855
v -0.01108887 0.09180123 0.11763839
v -0.00854765 0.08470324 0.11763839
v -0.01108887 0.08518163 0.11896526
v -0.00854765 0.08476045 0.11876885
v -0.01108887 0.08470324 0.11763839
v -0.00854765 0.08436180 0.11837116
v -0.01108887 0.08441808 0.11860913
v -0.01029297 0.08457473 0.11868224
v -0.00970705 0.08457473 0.11868224
v -0.00854765 0.08449781 0.11864636
v -0.00854765 0.08428113 0.11854491
v -0.00858099 0.08429613 0.11855220
f 1 2 5
f 1 5 3
f 1 3 7
f 1 7 4
f 1 4 10
f 1 10 14
f 1 14 20
f 1 20 21
f 1 21 16
f 1 16 12
f 1 12 6
f 1 6 2
f 2 6 11
f 2 11 5
f 3 5 11
f 3 11 15
f 3 15 17
f 3 17 13
f 3 13 9
f 3 9 8
f 3 8 7
f 4 7 8
f 4 8 9
f 4 9 10
f 6 12 15
f 6 15 11
f 9 13 10
f 10 13 14
f 12 16 15
f 13 17 18
f 13 18 19
f 13 19 14
f 14 19 20
f 15 16 21
f 15 21 17
f 17 21 22
f 17 22 20
f 17 20 18
f 18 20 19
f 20 22 21

