# https://github.com/mikedh/trimesh
v -0.01394588 0.08111349 0.11482762
v -0.01394588 0.08111349 0.11265428
v -0.01655013 0.08111349 0.11482762
v -0.01394588 0.07630682 0.11482762
v -0.01655013 0.08111349 0.11265428
v -0.01394588 0.08069568 0.11245939
v -0.01655038 0.07646639 0.11048817
v -0.01655013 0.07630682 0.11482762
v -0.01494628 0.06866925 0.11126577
v -0.01394588 0.06908828 0.11146066
v -0.01399942 0.07160490 0.10822035
v -0.01655038 0.07139782 0.10812389
v -0.01394588 0.07905122 0.11169295
v -0.01655038 0.06878010 0.11048817
v -0.01655013 0.06866925 0.11126577
v -0.01512805 0.06866925 0.11048817
v -0.01509491 0.06878010 0.10812389
v -0.01394588 0.06954142 0.11048817
v -0.01394588 0.07646517 0.11048817
v -0.01399942 0.07139782 0.10812389
v -0.01655038 0.06878010 0.10812389
v -0.01655013 0.06866925 0.11048817
v -0.01399942 0.07064503 0.10812389
f 1 2 5
f 1 5 3
f 1 3 8
f 1 8 4
f 1 4 10
f 1 10 18
f 1 18 19
f 1 19 13
f 1 13 6
f 1 6 2
f 2 6 5
f 3 5 7
f 3 7 14
f 3 14 8
f 4 8 15
f 4 15 9
f 4 9 10
f 5 6 11
f 5 11 12
f 5 12 7
f 6 13 11
f 7 12 21
f 7 21 14
f 8 14 15
f 9 15 22
f 9 22 16
f 9 16 17
f 9 17 10
f 10 17 18
f 11 13 19
f 11 19 20
f 11 20 12
f 12 20 23
f 12 23 17
f 12 17 21
f 14 21 22
f 14 22 15
f 16 22 21
f 16 21 17
f 17 23 18
f 18 23 20
f 18 20 19

