# https://github.com/mikedh/trimesh
v -0.01000206 0.08745355 0.11561102
v -0.01000206 0.08425482 0.11561102
v -0.01000206 0.08744587 0.11560741
v -0.03150000 0.08745355 0.11561102
v -0.01000206 0.08462021 0.11482769
v -0.01146893 0.08332439 0.11561102
v -0.01161835 0.08332439 0.11482769
v -0.01000206 0.08667105 0.11524608
v -0.03150000 0.08577335 0.11482769
v -0.03150000 0.08332439 0.11561102
v -0.01000206 0.08577335 0.11482769
v -0.03150000 0.08332439 0.11482769
v -0.01000206 0.08621715 0.11503451
f 1 2 5
f 1 5 11
f 1 11 13
f 1 13 8
f 1 8 3
f 1 3 4
f 1 4 10
f 1 10 6
f 1 6 2
f 2 6 7
f 2 7 5
f 3 8 4
f 4 9 12
f 4 12 10
f 4 8 9
f 5 7 12
f 5 12 9
f 5 9 11
f 6 10 12
f 6 12 7
f 8 13 9
f 9 13 11

