# https://github.com/mikedh/trimesh
v 0.02540375 0.06241764 0.10801622
v 0.02540061 0.06241764 0.10802772
v 0.02681885 0.06201177 0.10801622
v -0.00523593 0.06241764 0.10801622
v 0.02525627 0.06241764 0.10835006
v 0.02681885 0.06195633 0.10813498
v 0.02681885 0.06170164 0.10801622
v -0.00523593 0.06170164 0.10801622
v -0.00523593 0.06241764 0.10835006
v 0.02532217 0.06235582 0.10832127
f 1 2 3
f 1 3 7
f 1 7 8
f 1 8 4
f 1 4 9
f 1 9 5
f 1 5 2
f 2 5 3
f 3 6 7
f 3 5 6
f 4 8 9
f 5 10 6
f 5 9 10
f 6 10 8
f 6 8 7
f 8 10 9

