# https://github.com/mikedh/trimesh
v 0.02771338 0.07116586 0.10801622
v 0.02771338 0.07079944 0.10784508
v 0.02625100 0.07116586 0.10801622
v 0.02771338 0.06516747 0.10801622
v 0.02771338 0.07025392 0.10759059
v 0.02625100 0.06797083 0.10652595
v 0.02625100 0.06570888 0.10801622
v 0.02625100 0.06601306 0.10736350
v 0.02625100 0.06662787 0.10604515
v 0.02771338 0.06600131 0.10622883
v 0.02771338 0.06778233 0.10643797
v 0.02625100 0.06766841 0.10638491
v 0.02625100 0.06693968 0.10604515
v 0.02771338 0.06608704 0.10604515
v 0.02771338 0.06701837 0.10608180
v 0.02625100 0.06697080 0.10605962
v 0.02771338 0.06693968 0.10604515
f 1 2 3
f 1 3 7
f 1 7 4
f 1 4 10
f 1 10 14
f 1 14 17
f 1 17 15
f 1 15 11
f 1 11 5
f 1 5 2
f 2 5 3
f 3 5 6
f 3 6 12
f 3 12 16
f 3 16 13
f 3 13 9
f 3 9 8
f 3 8 7
f 4 7 8
f 4 8 9
f 4 9 10
f 5 11 12
f 5 12 6
f 9 13 17
f 9 17 14
f 9 14 10
f 11 15 16
f 11 16 12
f 13 16 17
f 15 17 16

