# https://github.com/mikedh/trimesh
v 0.01499533 0.09348234 0.12097470
v 0.01505362 0.09320629 0.12179255
v 0.01495808 0.09403181 0.12309208
v 0.01496132 0.09423269 0.12265144
v 0.01500018 0.09457560 0.12179255
v 0.01515887 0.09457560 0.12097470
v 0.03149838 0.09348234 0.12097470
v 0.01515725 0.09308742 0.12265165
v 0.03149838 0.09320629 0.12179255
v 0.03150000 0.09403181 0.12309208
v 0.03150000 0.09423269 0.12265144
v 0.03150000 0.09457560 0.12179255
v 0.03150000 0.09457560 0.12097470
v 0.03150000 0.09403370 0.12097470
v 0.03150000 0.09308742 0.12265165
f 1 2 3
f 1 3 4
f 1 4 5
f 1 5 6
f 1 6 13
f 1 13 14
f 1 14 7
f 1 7 9
f 1 9 2
f 2 8 3
f 2 9 15
f 2 15 8
f 3 8 15
f 3 15 10
f 3 10 11
f 3 11 4
f 4 11 12
f 4 12 5
f 5 12 13
f 5 13 6
f 7 14 15
f 7 15 9
f 10 15 14
f 10 14 13
f 10 13 12
f 10 12 11

