# https://github.com/mikedh/trimesh
v -0.01155374 0.06810510 0.11100215
v -0.01155374 0.06810510 0.11048810
v -0.01280594 0.06810510 0.11100215
v -0.01280208 0.06806604 0.11098398
v -0.01155374 0.06799934 0.11095288
v -0.01155374 0.06700271 0.11048810
v -0.01280479 0.06810510 0.11048810
v -0.01352527 0.06700271 0.11048810
v -0.01349554 0.06701426 0.11049353
v -0.01155374 0.06701523 0.11049398
f 1 2 7
f 1 7 3
f 1 3 4
f 1 4 5
f 1 5 10
f 1 10 6
f 1 6 2
f 2 6 8
f 2 8 7
f 3 7 8
f 3 8 9
f 3 9 4
f 4 9 10
f 4 10 5
f 6 10 9
f 6 9 8

