# https://github.com/mikedh/trimesh
v -0.01088102 0.08577354 0.11482740
v -0.01088102 0.08434852 0.11482740
v -0.01088102 0.08460305 0.11428181
v -0.01167352 0.08120107 0.11269544
v -0.01655063 0.08577354 0.11482740
v -0.01088102 0.08438045 0.11475849
v -0.01170016 0.08111349 0.11482740
v -0.01165299 0.08111349 0.11265481
v -0.01655063 0.08111349 0.11265481
v -0.01655063 0.08111349 0.11482740
f 1 2 6
f 1 6 3
f 1 3 4
f 1 4 5
f 1 5 10
f 1 10 7
f 1 7 2
f 2 7 8
f 2 8 6
f 3 6 8
f 3 8 4
f 4 8 9
f 4 9 5
f 5 9 10
f 7 10 9
f 7 9 8

