# https://github.com/mikedh/trimesh
v 0.01001479 0.08934258 0.11649189
v 0.01001479 0.08384434 0.11649189
v 0.01001479 0.08605837 0.11496022
v -0.00523593 0.08934258 0.11649189
v 0.01001479 0.08437853 0.11534615
v 0.00877724 0.08327211 0.11649189
v 0.00836821 0.08327211 0.11482762
v 0.01001479 0.08579692 0.11483837
v -0.00523593 0.08577374 0.11482762
v -0.00523593 0.08617305 0.11501382
v -0.00523593 0.08327211 0.11649189
v 0.01001479 0.08462038 0.11482762
v -0.00523593 0.08327211 0.11482762
v 0.01001479 0.08577374 0.11482762
f 1 2 5
f 1 5 12
f 1 12 14
f 1 14 8
f 1 8 3
f 1 3 4
f 1 4 11
f 1 11 6
f 1 6 2
f 2 6 7
f 2 7 5
f 3 8 9
f 3 9 10
f 3 10 4
f 4 10 9
f 4 9 13
f 4 13 11
f 5 7 12
f 6 11 13
f 6 13 7
f 7 13 9
f 7 9 14
f 7 14 12
f 8 14 9

