# https://github.com/mikedh/trimesh
v -0.00523593 0.09439019 0.12252002
v -0.00523593 0.09280509 0.12252002
v -0.00523593 0.09439019 0.12159737
v -0.01310972 0.09439019 0.12252002
v -0.00523593 0.09082652 0.12159737
v -0.01297966 0.09280509 0.12252002
v -0.01300838 0.09276463 0.12250123
v -0.01309621 0.09266172 0.12245328
v -0.01287409 0.09439019 0.12159737
v -0.01386307 0.09261707 0.12159737
v -0.01386307 0.09260556 0.12162302
v -0.01386307 0.09229754 0.12228321
v -0.01386307 0.09094094 0.12165075
v -0.01386307 0.09082652 0.12159737
v -0.01383858 0.09229999 0.12228439
v -0.01386307 0.09161453 0.12196486
v -0.01386307 0.09150430 0.12191347
f 1 2 5
f 1 5 3
f 1 3 9
f 1 9 4
f 1 4 6
f 1 6 2
f 2 6 7
f 2 7 8
f 2 8 5
f 3 5 14
f 3 14 10
f 3 10 9
f 4 9 10
f 4 10 11
f 4 11 12
f 4 12 6
f 5 8 13
f 5 13 14
f 6 12 7
f 7 12 15
f 7 15 8
f 8 15 16
f 8 16 17
f 8 17 13
f 10 14 13
f 10 13 17
f 10 17 16
f 10 16 12
f 10 12 11
f 12 16 15

