# https://github.com/mikedh/trimesh
v 0.00721333 0.08224491 0.11649200
v 0.00831911 0.08224491 0.11649200
v 0.00721333 0.08337806 0.11764669
v 0.00721333 0.08934188 0.11649200
v 0.01001479 0.08384482 0.11649200
v 0.01001479 0.08368923 0.11682535
v 0.01001479 0.08355895 0.11710467
v 0.01001479 0.08419629 0.11740196
v 0.01001479 0.08472116 0.11764669
v 0.00721333 0.09181813 0.11764669
v 0.00721333 0.09165317 0.11756937
v 0.01001479 0.08934188 0.11649200
v 0.01001479 0.09181813 0.11764669
v 0.00721333 0.09177595 0.11762668
f 1 2 3
f 1 3 10
f 1 10 14
f 1 14 11
f 1 11 4
f 1 4 12
f 1 12 5
f 1 5 2
f 2 5 6
f 2 6 7
f 2 7 3
f 3 7 8
f 3 8 9
f 3 9 13
f 3 13 10
f 4 11 12
f 5 12 13
f 5 13 9
f 5 9 8
f 5 8 7
f 5 7 6
f 10 13 14
f 11 14 13
f 11 13 12

