# https://github.com/mikedh/trimesh
v -0.01399890 0.06954222 0.11048810
v -0.01291290 0.06876069 0.10812389
v -0.01290527 0.06876069 0.11048810
v -0.01399890 0.07646741 0.11048810
v -0.01399890 0.07037506 0.10870157
v -0.01088102 0.06876069 0.10812389
v -0.01399890 0.07064437 0.10812389
v -0.01088102 0.06876069 0.11048810
v -0.01088102 0.07646741 0.11048810
v -0.01088102 0.07632861 0.11042329
v -0.01399890 0.07260651 0.10868745
v -0.01088102 0.07139724 0.10812389
v -0.01399890 0.07139724 0.10812389
v -0.01088102 0.07567003 0.11011616
v -0.01399890 0.07181290 0.10831737
v -0.01399890 0.07158131 0.10820952
v -0.01088102 0.07211013 0.10845624
f 1 2 3
f 1 3 8
f 1 8 9
f 1 9 4
f 1 4 11
f 1 11 15
f 1 15 16
f 1 16 13
f 1 13 7
f 1 7 5
f 1 5 2
f 2 6 8
f 2 8 3
f 2 5 7
f 2 7 13
f 2 13 12
f 2 12 6
f 4 9 10
f 4 10 11
f 6 12 17
f 6 17 14
f 6 14 10
f 6 10 9
f 6 9 8
f 10 14 11
f 11 14 15
f 12 13 16
f 12 16 15
f 12 15 17
f 14 17 15

