# https://github.com/mikedh/trimesh
v 0.03148561 0.10255223 0.12265156
v 0.03149281 0.10246020 0.12265156
v 0.03149281 0.10247649 0.12261632
v 0.03150000 0.10231851 0.12254264
v 0.03150000 0.10070935 0.12179239
v -0.00523593 0.10255223 0.12265156
v 0.03150000 0.10226720 0.12265156
v 0.03150000 0.09423363 0.12179239
v -0.00523593 0.10070935 0.12179239
v -0.00523593 0.09423363 0.12265156
v 0.03150000 0.09423363 0.12265156
v -0.00523593 0.09423363 0.12179239
f 1 2 3
f 1 3 4
f 1 4 5
f 1 5 9
f 1 9 6
f 1 6 10
f 1 10 11
f 1 11 7
f 1 7 2
f 2 7 4
f 2 4 3
f 4 7 11
f 4 11 8
f 4 8 5
f 5 8 12
f 5 12 9
f 6 9 12
f 6 12 10
f 8 11 10
f 8 10 12

