# https://github.com/mikedh/trimesh
v 0.00712295 0.08121055 0.11600984
v 0.00712295 0.08121055 0.11482762
v 0.00669954 0.08121055 0.11649189
v 0.00669954 0.07987762 0.11649189
v 0.00712295 0.07832061 0.11576564
v 0.00712295 0.07630873 0.11482762
v -0.00523593 0.08121055 0.11482762
v -0.00523593 0.08121055 0.11649189
v 0.00672252 0.07942899 0.11628271
v 0.00712295 0.07739072 0.11533230
v 0.00712295 0.07796554 0.11560029
v -0.00523593 0.07987762 0.11649189
v -0.00523593 0.07876156 0.11597156
v -0.00523593 0.07630873 0.11482762
f 1 2 7
f 1 7 8
f 1 8 3
f 1 3 4
f 1 4 5
f 1 5 11
f 1 11 10
f 1 10 6
f 1 6 2
f 2 6 14
f 2 14 7
f 3 8 12
f 3 12 4
f 4 9 10
f 4 10 11
f 4 11 5
f 4 12 13
f 4 13 9
f 6 10 14
f 7 14 13
f 7 13 12
f 7 12 8
f 9 13 10
f 10 13 14

