# https://github.com/mikedh/trimesh
v -0.00934410 0.08577354 0.11482762
v -0.00934410 0.08447524 0.11482762
v -0.00934410 0.08533068 0.11462107
v -0.01088087 0.08576252 0.11482243
v -0.01088087 0.08577354 0.11482762
v -0.00934410 0.08451945 0.11473252
v -0.01088087 0.08434873 0.11482762
v -0.00934410 0.08501782 0.11447517
v -0.01088087 0.08503693 0.11448409
v -0.00934410 0.08470706 0.11433034
v -0.01088087 0.08438081 0.11475864
v -0.01088087 0.08460314 0.11428183
v -0.00936110 0.08471389 0.11433349
f 1 2 6
f 1 6 10
f 1 10 8
f 1 8 3
f 1 3 4
f 1 4 5
f 1 5 7
f 1 7 2
f 2 7 6
f 3 8 4
f 4 9 12
f 4 12 11
f 4 11 7
f 4 7 5
f 4 8 9
f 6 7 11
f 6 11 12
f 6 12 10
f 8 10 13
f 8 13 12
f 8 12 9
f 10 12 13

