# https://github.com/mikedh/trimesh
v 0.03150000 0.10070896 0.12179239
v 0.03150000 0.09457571 0.12179239
v 0.03150000 0.09895574 0.12097470
v -0.00523593 0.10009353 0.12150513
v -0.00523593 0.10070896 0.12179239
v 0.03150000 0.09457571 0.12097470
v -0.00523593 0.09457571 0.12179239
v -0.00523593 0.09895574 0.12097470
v -0.00519997 0.09457571 0.12097470
v -0.00523593 0.09457571 0.12097702
v -0.00523593 0.09457691 0.12097470
f 1 2 6
f 1 6 3
f 1 3 4
f 1 4 5
f 1 5 7
f 1 7 2
f 2 7 10
f 2 10 9
f 2 9 6
f 3 6 9
f 3 9 11
f 3 11 8
f 3 8 4
f 4 8 11
f 4 11 10
f 4 10 7
f 4 7 5
f 9 10 11

