# https://github.com/mikedh/trimesh
v 0.00721306 0.09371762 0.11853200
v 0.00721306 0.09258507 0.11800380
v 0.00642009 0.09371762 0.11853200
v 0.00721306 0.08425353 0.11853200
v 0.00642009 0.09170044 0.11759122
v 0.00721306 0.09168960 0.11758623
v 0.00642009 0.08425353 0.11853200
v 0.00721306 0.08354501 0.11820190
v 0.00721306 0.08934187 0.11649208
v 0.00642009 0.08934187 0.11649208
v 0.00642009 0.08368861 0.11826880
v 0.00642009 0.08194914 0.11745782
v 0.00642009 0.07987777 0.11649208
v 0.00670007 0.07987777 0.11649208
v 0.00721306 0.08319549 0.11803855
v 0.00721306 0.08224447 0.11649208
f 1 2 3
f 1 3 7
f 1 7 4
f 1 4 8
f 1 8 15
f 1 15 16
f 1 16 9
f 1 9 6
f 1 6 2
f 2 5 3
f 2 6 5
f 3 5 10
f 3 10 13
f 3 13 12
f 3 12 11
f 3 11 7
f 4 7 8
f 5 6 9
f 5 9 10
f 7 11 8
f 8 11 12
f 8 12 13
f 8 13 14
f 8 14 15
f 9 16 14
f 9 14 13
f 9 13 10
f 14 16 15

