# https://github.com/mikedh/trimesh
v -0.01399382 0.10029133 0.12159737
v -0.01399382 0.09525652 0.12159737
v -0.01399382 0.09923623 0.12110526
v -0.03150000 0.10029133 0.12159737
v -0.01399382 0.09559551 0.12087004
v -0.01517449 0.09420559 0.12159737
v -0.01517106 0.09420559 0.12039477
v -0.01399382 0.09820555 0.12062481
v -0.03150000 0.09771166 0.12039477
v -0.03150000 0.09420559 0.12159737
v -0.01399382 0.09581713 0.12039477
v -0.03150000 0.09420559 0.12039477
v -0.01399382 0.09771166 0.12039477
f 1 2 5
f 1 5 11
f 1 11 13
f 1 13 8
f 1 8 3
f 1 3 4
f 1 4 10
f 1 10 6
f 1 6 2
f 2 6 7
f 2 7 5
f 3 8 9
f 3 9 4
f 4 9 12
f 4 12 10
f 5 7 11
f 6 10 12
f 6 12 7
f 7 12 9
f 7 9 13
f 7 13 11
f 8 13 9

