# https://github.com/mikedh/trimesh
v -0.00523593 0.09345824 0.11853200
v -0.00523593 0.09345824 0.12097470
v -0.00523593 0.09371771 0.11853200
v 0.01402047 0.09345824 0.11853200
v -0.00523593 0.09458849 0.12097470
v 0.01301957 0.09345824 0.12097470
v -0.00523593 0.09458849 0.11893824
v 0.01295172 0.09453837 0.11891481
v 0.01401670 0.09398071 0.11865466
v 0.01402047 0.09376130 0.11855233
v 0.01402047 0.09371771 0.11853200
v 0.01402047 0.09345824 0.11977511
v 0.01284616 0.09458849 0.12097470
v 0.01292156 0.09458849 0.11893824
v 0.01402047 0.09398082 0.11865490
f 1 2 5
f 1 5 7
f 1 7 3
f 1 3 11
f 1 11 4
f 1 4 12
f 1 12 6
f 1 6 2
f 2 6 13
f 2 13 5
f 3 7 8
f 3 8 9
f 3 9 10
f 3 10 11
f 4 11 10
f 4 10 15
f 4 15 12
f 5 13 14
f 5 14 7
f 6 12 13
f 7 14 8
f 8 14 9
f 9 14 15
f 9 15 10
f 12 15 13
f 13 15 14

