# https://github.com/mikedh/trimesh
v 0.01511630 0.06926839 0.10928291
v 0.01520162 0.06879767 0.10928291
v 0.01473890 0.06928093 0.11045109
v 0.01494565 0.06928093 0.10996522
v 0.03150000 0.06926839 0.10928291
v 0.01508840 0.06879767 0.11045109
v 0.03150000 0.06879767 0.10928291
v 0.03150000 0.06928093 0.11045109
v 0.03150000 0.06928093 0.10996522
v 0.03150000 0.06879767 0.11045109
f 1 2 3
f 1 3 4
f 1 4 9
f 1 9 5
f 1 5 7
f 1 7 2
f 2 6 3
f 2 7 10
f 2 10 6
f 3 6 10
f 3 10 8
f 3 8 9
f 3 9 4
f 5 9 8
f 5 8 10
f 5 10 7

