# https://github.com/mikedh/trimesh
v 0.01001479 0.08447092 0.11753012
v 0.01171513 0.08447092 0.11753012
v 0.01188583 0.08404881 0.11843686
v 0.01001479 0.08465832 0.11853200
v 0.01001479 0.09156826 0.11753012
v 0.01188583 0.08447187 0.11753061
v 0.01188583 0.08469428 0.11753012
v 0.01188583 0.08419646 0.11850562
v 0.01151129 0.08425324 0.11853200
v 0.01001479 0.09371762 0.11853200
v 0.01188583 0.09184462 0.11765870
v 0.01188583 0.09162126 0.11755464
v 0.01188583 0.09157867 0.11753493
v 0.01188583 0.09156826 0.11753012
v 0.01188583 0.08425324 0.11853200
v 0.01188583 0.09371762 0.11853200
v 0.01188583 0.09231879 0.11787977
f 1 2 3
f 1 3 4
f 1 4 10
f 1 10 5
f 1 5 14
f 1 14 7
f 1 7 2
f 2 6 3
f 2 7 6
f 3 8 9
f 3 9 4
f 3 6 7
f 3 7 14
f 3 14 13
f 3 13 12
f 3 12 11
f 3 11 17
f 3 17 16
f 3 16 15
f 3 15 8
f 4 9 15
f 4 15 16
f 4 16 10
f 5 10 11
f 5 11 12
f 5 12 13
f 5 13 14
f 8 15 9
f 10 16 17
f 10 17 11

