# https://github.com/mikedh/trimesh
v 0.03150000 0.08285515 0.11649189
v 0.03150000 0.08037989 0.11649189
v 0.03150000 0.08285515 0.11482762
v 0.01149769 0.08285515 0.11649189
v 0.03150000 0.08037989 0.11482762
v 0.01330095 0.08037989 0.11649189
v 0.01175222 0.08285515 0.11482762
v 0.01169740 0.08285515 0.11483022
v 0.01169348 0.08037989 0.11482762
v 0.01170131 0.08037989 0.11562277
v 0.01168173 0.08224384 0.11649189
v 0.01169936 0.08279167 0.11482762
f 1 2 5
f 1 5 3
f 1 3 7
f 1 7 8
f 1 8 4
f 1 4 11
f 1 11 6
f 1 6 2
f 2 6 10
f 2 10 9
f 2 9 5
f 3 5 9
f 3 9 12
f 3 12 7
f 4 8 9
f 4 9 10
f 4 10 11
f 6 11 10
f 7 12 8
f 8 12 9

