# https://github.com/mikedh/trimesh
v -0.01108887 0.08371531 0.11717798
v -0.00854765 0.08371531 0.11717798
v -0.01108887 0.08380870 0.11722156
v -0.01108887 0.09081347 0.11717798
v -0.00854765 0.08385303 0.11724220
v -0.00854765 0.09081347 0.11717798
v -0.00854765 0.08440628 0.11750012
v -0.01108887 0.08445219 0.11752153
v -0.01108887 0.09180126 0.11763839
v -0.00854765 0.09180126 0.11763839
v -0.00854765 0.08470310 0.11763839
v -0.01108887 0.08470310 0.11763839
f 1 2 3
f 1 3 8
f 1 8 12
f 1 12 9
f 1 9 4
f 1 4 6
f 1 6 2
f 2 5 3
f 2 6 10
f 2 10 11
f 2 11 7
f 2 7 5
f 3 5 7
f 3 7 8
f 4 9 10
f 4 10 6
f 7 11 8
f 8 11 12
f 9 12 11
f 9 11 10

