# https://github.com/mikedh/trimesh
v -0.00523593 0.06879767 0.10928291
v -0.00523593 0.06926839 0.10928291
v 0.01279908 0.06879767 0.10928291
v -0.00523593 0.06879767 0.11045097
v -0.00523593 0.06928093 0.10996534
v 0.01288419 0.06926839 0.10928291
v 0.01326448 0.06928093 0.11045097
v 0.01291316 0.06879866 0.11045097
v 0.01289687 0.06879767 0.11036075
v -0.00523593 0.06928093 0.11045097
v 0.01283529 0.06879767 0.11045097
v 0.01305623 0.06928093 0.10996534
f 1 2 6
f 1 6 3
f 1 3 9
f 1 9 11
f 1 11 4
f 1 4 10
f 1 10 5
f 1 5 2
f 2 5 12
f 2 12 6
f 3 6 7
f 3 7 8
f 3 8 9
f 4 11 8
f 4 8 7
f 4 7 10
f 5 10 7
f 5 7 12
f 6 12 7
f 8 11 9

