# https://github.com/mikedh/trimesh
v -0.01394588 0.07139685 0.10812365
v -0.01394588 0.07064267 0.10812365
v -0.01394588 0.07077744 0.10783482
v -0.01511159 0.06928211 0.10713744
v -0.01655038 0.07139685 0.10812365
v -0.01394588 0.07070332 0.10799333
v -0.01519956 0.06928211 0.10812365
v -0.01655038 0.06928211 0.10713744
v -0.01655038 0.06929516 0.10812365
v -0.01528319 0.06928211 0.10812365
v -0.01655038 0.06928211 0.10812143
f 1 2 6
f 1 6 3
f 1 3 4
f 1 4 8
f 1 8 5
f 1 5 9
f 1 9 10
f 1 10 7
f 1 7 2
f 2 4 6
f 2 7 4
f 3 6 4
f 4 7 10
f 4 10 11
f 4 11 8
f 5 8 11
f 5 11 9
f 9 11 10

