# https://github.com/mikedh/trimesh
v 0.02768803 0.05747467 0.10604515
v 0.03150000 0.05747467 0.10604515
v 0.02768803 0.05768992 0.10614567
v 0.02768803 0.06343230 0.10604515
v 0.03150000 0.06170157 0.10801622
v 0.02768803 0.06152442 0.10793383
v 0.03150000 0.06430336 0.10604515
v 0.02815035 0.06430336 0.10801622
v 0.02814550 0.06430336 0.10604515
v 0.02768803 0.06269830 0.10761915
v 0.02768803 0.06170157 0.10801622
v 0.02768803 0.06165745 0.10799576
v 0.03150000 0.06430336 0.10801622
v 0.02768803 0.06251312 0.10801622
f 1 2 3
f 1 3 6
f 1 6 12
f 1 12 11
f 1 11 14
f 1 14 10
f 1 10 4
f 1 4 9
f 1 9 7
f 1 7 2
f 2 5 6
f 2 6 3
f 2 7 13
f 2 13 5
f 4 8 9
f 4 10 8
f 5 11 12
f 5 12 6
f 5 13 8
f 5 8 14
f 5 14 11
f 7 9 8
f 7 8 13
f 8 10 14

