# https://github.com/mikedh/trimesh
v 0.03150000 0.08577354 0.11482714
v 0.03150000 0.07630919 0.11482714
v 0.03150000 0.07546238 0.11001991
v 0.01300444 0.07549972 0.11003685
v 0.01300444 0.08577354 0.11482714
v 0.03150000 0.07546238 0.11443274
v 0.01300444 0.07630919 0.11482714
v 0.01300444 0.07567433 0.11453158
v 0.01300444 0.07546238 0.11001991
v 0.01300444 0.07546238 0.11443274
f 1 2 6
f 1 6 3
f 1 3 4
f 1 4 5
f 1 5 7
f 1 7 2
f 2 7 8
f 2 8 6
f 3 6 10
f 3 10 9
f 3 9 4
f 4 9 10
f 4 10 8
f 4 8 7
f 4 7 5
f 6 8 10

