# https://github.com/mikedh/trimesh
v 0.02768803 0.06251266 0.10801622
v 0.02768803 0.06269811 0.10761915
v 0.02625100 0.06199889 0.10801622
v 0.02768803 0.06170147 0.10801622
v 0.02768803 0.06343232 0.10604515
v 0.02625100 0.06263396 0.10665426
v 0.02625100 0.06170147 0.10801622
v 0.02768803 0.06117079 0.10776887
v 0.02625100 0.06291796 0.10604515
v 0.02768803 0.05747467 0.10604515
v 0.02625100 0.06128218 0.10782077
v 0.02768803 0.06106815 0.10772102
v 0.02625100 0.05747467 0.10604515
v 0.02768803 0.05766945 0.10613602
v 0.02768803 0.05786014 0.10622497
f 1 2 3
f 1 3 7
f 1 7 4
f 1 4 8
f 1 8 12
f 1 12 15
f 1 15 14
f 1 14 10
f 1 10 5
f 1 5 2
f 2 5 3
f 3 5 6
f 3 6 9
f 3 9 13
f 3 13 11
f 3 11 7
f 4 7 8
f 5 9 6
f 5 10 13
f 5 13 9
f 7 11 8
f 8 11 12
f 10 14 13
f 11 13 12
f 12 13 15
f 13 14 15

