# https://github.com/mikedh/trimesh
v 0.03150000 0.09345824 0.12097470
v 0.03150000 0.08949079 0.12097470
v 0.03150000 0.09345824 0.11853200
v -0.00523593 0.09345824 0.12097470
v 0.03150000 0.08425281 0.11853200
v -0.00523593 0.08949079 0.12097470
v 0.01124058 0.08436725 0.11858556
v -0.00523593 0.09345824 0.11853200
v -0.00523593 0.08425281 0.11853200
v 0.00876299 0.08436725 0.11858556
f 1 2 5
f 1 5 3
f 1 3 8
f 1 8 4
f 1 4 6
f 1 6 2
f 2 6 10
f 2 10 7
f 2 7 5
f 3 5 9
f 3 9 8
f 4 8 9
f 4 9 6
f 5 7 10
f 5 10 9
f 6 9 10

