# https://github.com/mikedh/trimesh
v -0.00523593 0.07867198 0.11561102
v -0.00523593 0.07867198 0.11482769
v -0.00699446 0.07867198 0.11561102
v -0.00523593 0.07798863 0.11561102
v -0.00523593 0.07630873 0.11482769
v -0.00716747 0.07867198 0.11482769
v -0.00736100 0.07798863 0.11561102
v -0.00999996 0.07689908 0.11482769
v -0.00999996 0.07686392 0.11490307
v -0.00999996 0.07679360 0.11505368
v -0.00999996 0.07630873 0.11482769
v -0.00970664 0.07680401 0.11505859
f 1 2 6
f 1 6 3
f 1 3 7
f 1 7 4
f 1 4 5
f 1 5 2
f 2 5 11
f 2 11 8
f 2 8 6
f 3 6 8
f 3 8 9
f 3 9 10
f 3 10 7
f 4 7 11
f 4 11 5
f 7 10 12
f 7 12 11
f 8 11 10
f 8 10 9
f 10 11 12

