# https://github.com/mikedh/trimesh
v 0.02493900 0.06454520 0.10492863
v 0.02650818 0.06361925 0.10449707
v 0.02632174 0.06362719 0.10450053
v 0.02602034 0.06368078 0.10452528
v 0.02539888 0.06398447 0.10466682
v -0.00523593 0.06454520 0.10492863
v 0.02481160 0.06454520 0.10604515
v 0.02650818 0.06340587 0.10495486
v 0.02650818 0.06331457 0.10435454
v 0.02650818 0.06219608 0.10383290
v 0.02650818 0.05777772 0.10177259
v -0.00523593 0.05609751 0.10098915
v -0.00523593 0.06454520 0.10604515
v 0.02650818 0.06289675 0.10604515
v 0.02650818 0.05609751 0.10098915
v -0.00523593 0.05440638 0.10461436
v 0.02650818 0.05603796 0.10111585
v -0.00523593 0.05747502 0.10604515
v 0.02650818 0.05747502 0.10604515
v 0.02650818 0.05440638 0.10461436
v 0.02650818 0.05610346 0.10540572
f 1 2 3
f 1 3 4
f 1 4 5
f 1 5 6
f 1 6 13
f 1 13 7
f 1 7 2
f 2 8 14
f 2 14 19
f 2 19 21
f 2 21 20
f 2 20 17
f 2 17 15
f 2 15 11
f 2 11 10
f 2 10 9
f 2 9 3
f 2 7 8
f 3 9 4
f 4 9 5
f 5 9 10
f 5 10 11
f 5 11 12
f 5 12 6
f 6 12 16
f 6 16 18
f 6 18 13
f 7 13 18
f 7 18 19
f 7 19 14
f 7 14 8
f 11 15 12
f 12 15 17
f 12 17 16
f 16 20 21
f 16 21 18
f 16 17 20
f 18 21 19

