# https://github.com/mikedh/trimesh
v 0.01140513 0.07948270 0.11482714
v 0.01140513 0.08060661 0.11241835
v 0.01045446 0.07873090 0.11482714
v 0.01140513 0.07630884 0.11482714
v 0.01140513 0.08008897 0.11217691
v 0.01045446 0.07996761 0.11212043
v 0.01045446 0.07998876 0.11213031
v 0.01045446 0.07990618 0.11230775
v 0.01045446 0.07630884 0.11482714
v 0.01140513 0.07592362 0.11464783
v 0.01140513 0.07766086 0.11104452
v 0.01045446 0.07764475 0.11103699
v 0.01045446 0.07588535 0.11462994
v 0.01045446 0.07546237 0.11443274
v 0.01140513 0.07546237 0.11443274
v 0.01140513 0.07560589 0.11008627
v 0.01045446 0.07672426 0.11060775
v 0.01045446 0.07546237 0.11001991
v 0.01140513 0.07546237 0.11001991
v 0.01140513 0.07550669 0.11004015
v 0.01045446 0.07550971 0.11004156
v 0.01045446 0.07609735 0.11031548
f 1 2 3
f 1 3 9
f 1 9 4
f 1 4 10
f 1 10 15
f 1 15 19
f 1 19 20
f 1 20 16
f 1 16 11
f 1 11 5
f 1 5 2
f 2 5 6
f 2 6 7
f 2 7 8
f 2 8 3
f 3 8 7
f 3 7 6
f 3 6 12
f 3 12 17
f 3 17 22
f 3 22 21
f 3 21 18
f 3 18 14
f 3 14 13
f 3 13 9
f 4 9 10
f 5 11 12
f 5 12 6
f 9 13 10
f 10 13 14
f 10 14 15
f 11 16 17
f 11 17 12
f 14 18 19
f 14 19 15
f 16 20 21
f 16 21 22
f 16 22 17
f 18 21 20
f 18 20 19

