# https://github.com/mikedh/trimesh
v 0.02771375 0.06516787 0.10801622
v 0.02771375 0.06608680 0.10604515
v 0.02814556 0.06430469 0.10604515
v 0.02815038 0.06430469 0.10801622
v 0.02771375 0.07116645 0.10801622
v 0.02771375 0.06693990 0.10604515
v 0.03149963 0.06430469 0.10604515
v 0.03149963 0.06430469 0.10801622
v 0.03149963 0.07116645 0.10801622
v 0.02771375 0.07062167 0.10776211
v 0.03149963 0.06693990 0.10604515
f 1 2 3
f 1 3 4
f 1 4 8
f 1 8 9
f 1 9 5
f 1 5 10
f 1 10 6
f 1 6 2
f 2 6 11
f 2 11 7
f 2 7 3
f 3 7 8
f 3 8 4
f 5 9 10
f 6 10 11
f 7 11 9
f 7 9 8
f 9 11 10

