# https://github.com/mikedh/trimesh
v 0.01402047 0.09345824 0.11853200
v 0.01402047 0.09345824 0.11977511
v 0.01402047 0.09371771 0.11853200
v 0.03149829 0.09345824 0.11853200
v 0.01402047 0.09398082 0.11865490
v 0.01498034 0.09345824 0.12097470
v 0.01515315 0.09458849 0.12097470
v 0.01402047 0.09376130 0.11855233
v 0.03149829 0.09371771 0.11853200
v 0.03149829 0.09345824 0.12097470
v 0.01416248 0.09399045 0.11865921
v 0.01409062 0.09398359 0.11865610
v 0.01507787 0.09458849 0.11893824
v 0.03149829 0.09458849 0.12097470
v 0.01503167 0.09451027 0.11890166
v 0.03149829 0.09458849 0.11893824
v 0.01506589 0.09456703 0.11892820
f 1 2 5
f 1 5 8
f 1 8 3
f 1 3 9
f 1 9 4
f 1 4 10
f 1 10 6
f 1 6 2
f 2 6 7
f 2 7 5
f 3 8 9
f 4 9 16
f 4 16 14
f 4 14 10
f 5 11 12
f 5 12 8
f 5 7 13
f 5 13 11
f 6 10 14
f 6 14 7
f 7 14 16
f 7 16 13
f 8 12 11
f 8 11 15
f 8 15 9
f 9 15 16
f 11 13 17
f 11 17 15
f 13 16 17
f 15 17 16

