# https://github.com/mikedh/trimesh
v -0.00736220 0.09081391 0.11717798
v -0.00736220 0.08950654 0.11656843
v -0.00858419 0.08749583 0.11563096
v -0.00858419 0.09081391 0.11717798
v -0.00736220 0.08371603 0.11717798
v -0.00736220 0.08745283 0.11561117
v -0.00858419 0.08745283 0.11561117
v -0.00858419 0.08404057 0.11717798
v -0.00858276 0.08371603 0.11717798
v -0.00858419 0.08371398 0.11717721
v -0.00736220 0.08343039 0.11704500
v -0.00736220 0.08035495 0.11561117
v -0.00858419 0.08341811 0.11561117
v -0.00858419 0.08310176 0.11689177
v -0.00829996 0.08035495 0.11561117
v -0.00736220 0.08309664 0.11688947
v -0.00858419 0.08300552 0.11649588
v -0.00858419 0.08287141 0.11678409
f 1 2 3
f 1 3 4
f 1 4 8
f 1 8 9
f 1 9 5
f 1 5 11
f 1 11 16
f 1 16 12
f 1 12 6
f 1 6 2
f 2 6 3
f 3 6 7
f 3 7 13
f 3 13 17
f 3 17 18
f 3 18 14
f 3 14 10
f 3 10 8
f 3 8 4
f 5 9 10
f 5 10 11
f 6 12 15
f 6 15 13
f 6 13 7
f 8 10 9
f 10 14 15
f 10 15 16
f 10 16 11
f 12 16 15
f 13 15 17
f 14 18 15
f 15 18 17

