# https://github.com/mikedh/trimesh
v -0.01134032 0.09081391 0.11717798
v -0.01134032 0.09079241 0.11716786
v -0.01270797 0.09081391 0.11717798
v -0.01134032 0.08371603 0.11717798
v -0.01134032 0.09033888 0.11695634
v -0.01270797 0.09073610 0.11714163
v -0.01270797 0.08371603 0.11717798
v -0.01134032 0.08351537 0.11708457
v -0.01134032 0.08919019 0.11642073
v -0.01270797 0.09009829 0.11684422
v -0.01270797 0.08273934 0.11672274
v -0.01134032 0.08320721 0.11694100
v -0.01134032 0.08344984 0.11705405
v -0.01134032 0.08764940 0.11570243
v -0.01270797 0.08791456 0.11582606
v -0.01270797 0.08035495 0.11561117
v -0.01170004 0.08035495 0.11561117
v -0.01134032 0.08296559 0.11682827
v -0.01134032 0.08761050 0.11568434
v -0.01270797 0.08749890 0.11563234
v -0.01270797 0.08745283 0.11561117
v -0.01134032 0.08353379 0.11561117
v -0.01134032 0.08343346 0.11582545
v -0.01134032 0.08745283 0.11561117
v -0.01270797 0.08746921 0.11561853
f 1 2 3
f 1 3 7
f 1 7 4
f 1 4 8
f 1 8 13
f 1 13 12
f 1 12 18
f 1 18 23
f 1 23 22
f 1 22 24
f 1 24 19
f 1 19 14
f 1 14 9
f 1 9 5
f 1 5 2
f 2 5 6
f 2 6 3
f 3 6 10
f 3 10 15
f 3 15 20
f 3 20 25
f 3 25 21
f 3 21 16
f 3 16 11
f 3 11 7
f 4 7 8
f 5 9 10
f 5 10 6
f 7 11 12
f 7 12 13
f 7 13 8
f 9 14 15
f 9 15 10
f 11 16 12
f 12 16 17
f 12 17 18
f 14 19 20
f 14 20 15
f 16 21 24
f 16 24 22
f 16 22 17
f 17 22 23
f 17 23 18
f 19 24 25
f 19 25 20
f 21 25 24

