# https://github.com/mikedh/trimesh
v -0.01517106 0.09420441 0.12039477
v -0.03150000 0.09420441 0.12039477
v -0.01517449 0.09420441 0.12159737
v -0.01399382 0.09316928 0.12039477
v -0.03150000 0.08824729 0.12039477
v -0.03150000 0.09420441 0.12159737
v -0.01399382 0.09260826 0.12159737
v -0.01399382 0.08824729 0.12039477
v -0.01399382 0.09073978 0.12155687
v -0.03150000 0.09082667 0.12159737
v -0.01399382 0.09082667 0.12159737
f 1 2 6
f 1 6 3
f 1 3 4
f 1 4 8
f 1 8 5
f 1 5 2
f 2 5 10
f 2 10 6
f 3 6 10
f 3 10 11
f 3 11 7
f 3 7 4
f 4 7 11
f 4 11 9
f 4 9 8
f 5 8 9
f 5 9 10
f 9 11 10

