# https://github.com/mikedh/trimesh
v 0.01444701 0.06814149 0.10801622
v 0.01504633 0.06814149 0.10926444
v 0.01505301 0.06814312 0.10928291
v 0.01514482 0.06917927 0.10928291
v 0.01518823 0.06917927 0.10801622
v 0.03150000 0.06814149 0.10801622
v 0.01508139 0.06814149 0.10928291
v 0.03150000 0.06917927 0.10928291
v 0.03150000 0.06917927 0.10801622
v 0.03150000 0.06814149 0.10928291
f 1 2 3
f 1 3 4
f 1 4 5
f 1 5 9
f 1 9 6
f 1 6 10
f 1 10 7
f 1 7 2
f 2 7 3
f 3 7 10
f 3 10 8
f 3 8 4
f 4 8 9
f 4 9 5
f 6 9 8
f 6 8 10

