# https://github.com/mikedh/trimesh
v 0.01300263 0.08577354 0.11482714
v 0.01140528 0.08577354 0.11482714
v 0.01300263 0.07630919 0.11482714
v 0.01300263 0.07549972 0.11003685
v 0.01140528 0.07550678 0.11004015
v 0.01140528 0.07630919 0.11482714
v 0.01140528 0.07592363 0.11464783
v 0.01300263 0.07567433 0.11453158
v 0.01300263 0.07546238 0.11001991
v 0.01140528 0.07546238 0.11001991
v 0.01140528 0.07546238 0.11443274
v 0.01300263 0.07546238 0.11443274
f 1 2 6
f 1 6 3
f 1 3 8
f 1 8 12
f 1 12 9
f 1 9 4
f 1 4 2
f 2 4 5
f 2 5 10
f 2 10 11
f 2 11 7
f 2 7 6
f 3 6 7
f 3 7 8
f 4 9 10
f 4 10 5
f 7 11 12
f 7 12 8
f 9 12 11
f 9 11 10

