# https://github.com/mikedh/trimesh
v -0.00523409 0.06814149 0.10801622
v -0.00523593 0.06814149 0.10928322
v -0.00523409 0.06917907 0.10801622
v 0.01355367 0.06814149 0.10801622
v -0.00523593 0.06879766 0.10928322
v -0.00523593 0.06814149 0.11101888
v -0.00523409 0.06917907 0.10928322
v 0.01281055 0.06917907 0.10801622
v 0.01285285 0.06917907 0.10928322
v 0.01318211 0.06879766 0.11132495
v 0.01280871 0.06814149 0.11101888
v -0.00523593 0.06879766 0.11132495
v 0.01282342 0.06822722 0.11105904
v 0.01295034 0.06853062 0.11120058
v 0.01316923 0.06878699 0.11132009
f 1 2 5
f 1 5 3
f 1 3 8
f 1 8 4
f 1 4 11
f 1 11 6
f 1 6 2
f 2 6 12
f 2 12 5
f 3 5 12
f 3 12 7
f 3 7 9
f 3 9 8
f 4 8 9
f 4 9 10
f 4 10 11
f 6 11 13
f 6 13 14
f 6 14 12
f 7 12 10
f 7 10 9
f 10 12 15
f 10 15 11
f 11 15 13
f 12 14 15
f 13 15 14

