# https://github.com/mikedh/trimesh
v 0.00879227 0.08577310 0.11482762
v 0.00879227 0.08406439 0.11482762
v 0.00879227 0.08572042 0.11480285
v -0.00523593 0.08577310 0.11482762
v 0.00879227 0.08436984 0.11417306
v 0.00829931 0.08125167 0.11482762
v 0.00831716 0.08125167 0.11271883
v -0.00523593 0.08442251 0.11419762
v -0.00523593 0.08125167 0.11271883
v -0.00523593 0.08125167 0.11482762
f 1 2 5
f 1 5 3
f 1 3 4
f 1 4 10
f 1 10 6
f 1 6 2
f 2 6 7
f 2 7 5
f 3 8 4
f 3 5 7
f 3 7 9
f 3 9 8
f 4 8 9
f 4 9 10
f 6 10 9
f 6 9 7

