# https://github.com/mikedh/trimesh
v -0.03149929 0.06437611 0.10926334
v -0.02787204 0.06137329 0.10786379
v -0.02813907 0.06305866 0.10864942
v -0.02787559 0.06437514 0.10926253
v -0.03149929 0.06437611 0.10485087
v -0.03149929 0.05881742 0.10225749
v -0.03149680 0.05704715 0.10584465
v -0.03146662 0.05673194 0.10569805
v -0.03131855 0.05619617 0.10544860
v -0.03042798 0.05504266 0.10491243
v -0.02787204 0.06248190 0.10837972
v -0.02787204 0.05440638 0.10461599
v -0.02787204 0.06319528 0.10430012
v -0.02791856 0.06431366 0.10482172
v -0.03146662 0.05842316 0.10207364
v -0.03149432 0.05865835 0.10218379
v -0.02787204 0.05787081 0.10181608
v -0.03113923 0.05752729 0.10165572
v -0.03139631 0.05811283 0.10192947
v -0.03139631 0.05642258 0.10555308
v -0.03125428 0.05604979 0.10537894
v -0.03113923 0.05583607 0.10527932
v -0.03100607 0.05563308 0.10518537
v -0.03085196 0.05544083 0.10509709
v -0.03131855 0.05788642 0.10182337
v -0.03021955 0.05490018 0.10484439
v -0.02984599 0.05469622 0.10474963
v -0.02960737 0.05460059 0.10470590
v -0.03055830 0.05514806 0.10496102
v -0.03049332 0.05678659 0.10131150
v -0.03021955 0.05659043 0.10121917
v -0.02858755 0.05440931 0.10461680
v -0.02858755 0.05609956 0.10099077
v -0.02787204 0.05609761 0.10098915
v -0.03125428 0.05774004 0.10175534
v -0.02976716 0.05635427 0.10110902
v -0.03100607 0.05732333 0.10156096
v -0.03085196 0.05713108 0.10147186
v -0.03068152 0.05526029 0.10501286
v -0.02999974 0.05477234 0.10478446
v -0.02999974 0.05646259 0.10116004
v -0.02919227 0.05448055 0.10464920
v -0.02893518 0.05443663 0.10462895
v -0.02944367 0.05623716 0.10105475
v -0.02936094 0.05452154 0.10466783
v -0.03068152 0.05695054 0.10138763
v -0.02893518 0.05612786 0.10100373
v -0.02919227 0.05617080 0.10102398
f 1 2 3
f 1 3 4
f 1 4 5
f 1 5 6
f 1 6 7
f 1 7 8
f 1 8 9
f 1 9 10
f 1 10 2
f 2 11 4
f 2 4 3
f 2 10 12
f 2 12 34
f 2 34 17
f 2 17 13
f 2 13 11
f 4 11 13
f 4 13 14
f 4 14 5
f 5 14 6
f 6 15 16
f 6 16 7
f 6 14 17
f 6 17 18
f 6 18 15
f 7 16 8
f 8 16 15
f 8 15 19
f 8 19 20
f 8 20 9
f 9 21 22
f 9 22 23
f 9 23 24
f 9 24 10
f 9 20 25
f 9 25 21
f 10 26 27
f 10 27 28
f 10 28 12
f 10 24 29
f 10 29 30
f 10 30 31
f 10 31 26
f 12 28 32
f 12 32 33
f 12 33 34
f 13 17 14
f 15 18 25
f 15 25 19
f 17 34 18
f 18 35 25
f 18 34 36
f 18 36 31
f 18 31 37
f 18 37 22
f 18 22 35
f 19 25 20
f 21 25 35
f 21 35 22
f 22 37 23
f 23 37 38
f 23 38 24
f 24 39 29
f 24 38 46
f 24 46 39
f 26 40 27
f 26 31 40
f 27 40 41
f 27 41 36
f 27 36 28
f 28 42 43
f 28 43 32
f 28 36 44
f 28 44 45
f 28 45 42
f 29 39 46
f 29 46 30
f 30 46 31
f 31 46 37
f 31 36 41
f 31 41 40
f 32 43 33
f 33 47 34
f 33 43 47
f 34 47 36
f 36 47 44
f 37 46 38
f 42 45 48
f 42 48 43
f 43 48 47
f 44 47 48
f 44 48 45

