# https://github.com/mikedh/trimesh
v -0.02517256 0.08577145 0.11482762
v -0.02517256 0.08543719 0.11467064
v -0.02650628 0.08577145 0.11482762
v -0.02517256 0.07630769 0.11482762
v -0.02517256 0.08520530 0.11456210
v -0.02650628 0.08405001 0.11402389
v -0.02650628 0.07630769 0.11482762
v -0.02517256 0.06476523 0.10944552
v -0.02517256 0.06845464 0.10675088
v -0.02578543 0.06655980 0.10586732
v -0.02650628 0.06670186 0.10593370
v -0.02650628 0.06500966 0.10955944
v -0.02517256 0.06449991 0.10932173
v -0.02517256 0.06612317 0.10566369
v -0.02650628 0.06617331 0.10706394
v -0.02517256 0.06443306 0.10928943
v -0.02521982 0.06448320 0.10931365
f 1 2 3
f 1 3 7
f 1 7 4
f 1 4 8
f 1 8 13
f 1 13 16
f 1 16 14
f 1 14 9
f 1 9 5
f 1 5 2
f 2 5 3
f 3 5 6
f 3 6 11
f 3 11 15
f 3 15 12
f 3 12 7
f 4 7 8
f 5 9 10
f 5 10 11
f 5 11 6
f 7 12 8
f 8 12 13
f 9 14 10
f 10 14 11
f 11 14 15
f 12 15 14
f 12 14 16
f 12 16 17
f 12 17 13
f 13 17 16

