# https://github.com/mikedh/trimesh
v -0.03150000 0.09386299 0.11859996
v -0.03150000 0.09386299 0.12039448
v -0.03150000 0.09497095 0.11911650
v -0.01419715 0.09399531 0.11866146
v -0.01400362 0.09386299 0.11859996
v -0.03150000 0.09497095 0.12039448
v -0.01505519 0.09386299 0.12039448
v -0.01519734 0.09497095 0.11911650
v -0.01405500 0.09398164 0.11865513
v -0.01400362 0.09392763 0.11863001
v -0.01400362 0.09386299 0.11890778
v -0.01512027 0.09497095 0.12039448
v -0.01519562 0.09497052 0.11911632
v -0.01400362 0.09398099 0.11865496
v -0.01400362 0.09394270 0.11873700
f 1 2 6
f 1 6 3
f 1 3 4
f 1 4 5
f 1 5 11
f 1 11 7
f 1 7 2
f 2 7 12
f 2 12 6
f 3 6 12
f 3 12 8
f 3 8 4
f 4 8 9
f 4 9 10
f 4 10 5
f 5 10 14
f 5 14 15
f 5 15 11
f 7 11 12
f 8 12 13
f 8 13 14
f 8 14 9
f 9 14 10
f 11 15 12
f 12 15 14
f 12 14 13

