# https://github.com/mikedh/trimesh
v -0.01088102 0.06928191 0.10812365
v -0.01088102 0.06928191 0.10713686
v -0.01280076 0.06928191 0.10812365
v -0.01088102 0.06193151 0.10812365
v -0.01288866 0.06928191 0.10713686
v -0.01088102 0.06117288 0.10335591
v -0.01394558 0.05842959 0.10207650
v -0.01394558 0.06860482 0.10682190
v -0.01394558 0.06799763 0.10812365
v -0.01394558 0.06193151 0.10812365
v -0.01088102 0.05440784 0.10461437
v -0.01383878 0.06861356 0.10682539
v -0.01088102 0.05609691 0.10098985
v -0.01394558 0.05609691 0.10098985
v -0.01394558 0.06835874 0.10670667
v -0.01394558 0.06852328 0.10678349
v -0.01394558 0.05440784 0.10461437
v -0.01394558 0.05464664 0.10409967
v -0.01088102 0.05492912 0.10349419
f 1 2 5
f 1 5 3
f 1 3 9
f 1 9 10
f 1 10 4
f 1 4 11
f 1 11 19
f 1 19 13
f 1 13 6
f 1 6 2
f 2 6 7
f 2 7 5
f 3 5 8
f 3 8 9
f 4 10 17
f 4 17 11
f 5 7 12
f 5 12 8
f 6 13 7
f 7 13 14
f 7 14 18
f 7 18 17
f 7 17 10
f 7 10 9
f 7 9 8
f 7 8 16
f 7 16 15
f 7 15 12
f 8 12 16
f 11 17 18
f 11 18 19
f 12 15 16
f 13 19 18
f 13 18 14

