# https://github.com/mikedh/trimesh
v 0.03149823 0.09371762 0.11853200
v 0.03149823 0.08425353 0.11853200
v 0.03149823 0.08934187 0.11649208
v 0.01342550 0.09172618 0.11760310
v 0.01342550 0.09234664 0.11789243
v 0.01342550 0.09330578 0.11833971
v 0.01300183 0.09371762 0.11853200
v 0.03149823 0.07987777 0.11649208
v 0.01300183 0.08425353 0.11853200
v 0.01342550 0.08159827 0.11729439
v 0.01300183 0.08934187 0.11649208
v 0.01300183 0.08998536 0.11679180
v 0.01300183 0.09207299 0.11776484
v 0.01330057 0.07987777 0.11649208
v 0.01300183 0.08283649 0.11787107
v 0.01300183 0.08224447 0.11649208
f 1 2 8
f 1 8 3
f 1 3 4
f 1 4 5
f 1 5 6
f 1 6 7
f 1 7 9
f 1 9 2
f 2 9 10
f 2 10 8
f 3 8 14
f 3 14 16
f 3 16 11
f 3 11 12
f 3 12 4
f 4 12 13
f 4 13 5
f 5 13 6
f 6 13 7
f 7 13 12
f 7 12 11
f 7 11 16
f 7 16 15
f 7 15 9
f 8 10 14
f 9 15 14
f 9 14 10
f 14 15 16

