# https://github.com/mikedh/trimesh
v -0.01270981 0.09081265 0.11717798
v -0.01270981 0.08371588 0.11717798
v -0.01270981 0.09074988 0.11714807
v -0.03149816 0.09081265 0.11717798
v -0.01270981 0.07807662 0.11565151
v -0.01330028 0.08134945 0.11717798
v -0.01270981 0.09073608 0.11714163
v -0.03149816 0.08745321 0.11561117
v -0.03149816 0.08134945 0.11717798
v -0.01273740 0.07811303 0.11566869
v -0.01270981 0.07799000 0.11561117
v -0.01324877 0.07925419 0.11620108
v -0.01302068 0.07857753 0.11588557
v -0.01284225 0.07826242 0.11573848
v -0.01270981 0.09009833 0.11684422
v -0.03149816 0.07799000 0.11561117
v -0.01270981 0.08940786 0.11652227
v -0.01270981 0.08746953 0.11561853
v -0.01270981 0.08745321 0.11561117
f 1 2 5
f 1 5 11
f 1 11 19
f 1 19 18
f 1 18 17
f 1 17 15
f 1 15 7
f 1 7 3
f 1 3 4
f 1 4 9
f 1 9 6
f 1 6 2
f 2 6 5
f 3 7 4
f 4 8 16
f 4 16 9
f 4 7 8
f 5 10 11
f 5 6 10
f 6 9 12
f 6 12 13
f 6 13 14
f 6 14 10
f 7 15 8
f 8 15 17
f 8 17 18
f 8 18 19
f 8 19 11
f 8 11 16
f 9 16 13
f 9 13 12
f 10 14 16
f 10 16 11
f 13 16 14

