# https://github.com/mikedh/trimesh
v -0.01170009 0.08111349 0.11482762
v -0.01155374 0.08084814 0.11253127
v -0.01165302 0.08111349 0.11265488
v -0.01394588 0.08111349 0.11482762
v -0.01155374 0.07977720 0.11482762
v -0.01155374 0.07914059 0.11173482
v -0.01394588 0.08069582 0.11245991
v -0.01394588 0.08111349 0.11265488
v -0.01155374 0.07807322 0.11123698
v -0.01394588 0.07630856 0.11482762
v -0.01155374 0.07630856 0.11482762
v -0.01155374 0.07726883 0.11086190
v -0.01394588 0.07914892 0.11173864
v -0.01394588 0.07614435 0.11475116
v -0.01155374 0.07550417 0.11445296
v -0.01155374 0.07649419 0.11050084
v -0.01394588 0.07646682 0.11048810
v -0.01394588 0.07117520 0.11243400
v -0.01349536 0.06898812 0.11141411
v -0.01155374 0.07041722 0.11208058
v -0.01155374 0.07646682 0.11048810
v -0.01394588 0.06954024 0.11048810
v -0.01394588 0.06998766 0.11188009
v -0.01391029 0.06908569 0.11145956
v -0.01342840 0.06895718 0.11139967
v -0.01155374 0.06895718 0.11139967
v -0.01155374 0.06895718 0.11048810
v -0.01300457 0.06895718 0.11048810
v -0.01394588 0.06908807 0.11146041
f 1 2 3
f 1 3 8
f 1 8 4
f 1 4 10
f 1 10 11
f 1 11 5
f 1 5 2
f 2 5 11
f 2 11 15
f 2 15 20
f 2 20 26
f 2 26 27
f 2 27 21
f 2 21 16
f 2 16 12
f 2 12 9
f 2 9 6
f 2 6 3
f 3 7 8
f 3 6 9
f 3 9 7
f 4 8 7
f 4 7 13
f 4 13 17
f 4 17 22
f 4 22 29
f 4 29 23
f 4 23 18
f 4 18 14
f 4 14 10
f 7 9 12
f 7 12 13
f 10 14 11
f 11 14 15
f 12 16 17
f 12 17 13
f 14 18 15
f 15 18 19
f 15 19 20
f 16 21 17
f 17 21 27
f 17 27 28
f 17 28 22
f 18 23 24
f 18 24 19
f 19 24 25
f 19 25 26
f 19 26 20
f 22 28 29
f 23 29 24
f 24 29 25
f 25 28 27
f 25 27 26
f 25 29 28

