# https://github.com/mikedh/trimesh
v -0.01088102 0.07893399 0.11482762
v -0.01018767 0.07867438 0.11482762
v -0.00982848 0.07867185 0.11482626
v -0.01088102 0.08015647 0.11220784
v -0.01088102 0.07698560 0.11482762
v -0.00982848 0.07690242 0.11482762
v -0.00982848 0.07993970 0.11210760
v -0.00984909 0.07993718 0.11210625
v -0.00994965 0.07993214 0.11210354
v -0.01035016 0.07996490 0.11211844
v -0.01088102 0.07993718 0.11210489
v -0.01088102 0.07630757 0.11482626
v -0.01088091 0.07630757 0.11482762
v -0.00982848 0.07630757 0.11482762
v -0.00982848 0.07950364 0.11190306
v -0.00982848 0.07818287 0.11128672
v -0.01088102 0.07566986 0.11011501
v -0.01088102 0.07629244 0.11482084
v -0.00982848 0.07486580 0.11415574
v -0.00982848 0.05609768 0.10098915
v -0.01088102 0.05609768 0.10098915
v -0.01088102 0.06732175 0.11063788
v -0.00982848 0.06730411 0.11062975
v -0.00982848 0.05589351 0.10142668
v -0.01088102 0.05568683 0.10186963
v -0.01088102 0.05440638 0.10461538
v -0.00982848 0.05440638 0.10461538
f 1 2 3
f 1 3 4
f 1 4 11
f 1 11 17
f 1 17 21
f 1 21 25
f 1 25 26
f 1 26 22
f 1 22 18
f 1 18 12
f 1 12 5
f 1 5 13
f 1 13 14
f 1 14 6
f 1 6 2
f 2 6 3
f 3 7 4
f 3 6 14
f 3 14 19
f 3 19 23
f 3 23 27
f 3 27 24
f 3 24 20
f 3 20 16
f 3 16 15
f 3 15 7
f 4 7 8
f 4 8 9
f 4 9 10
f 4 10 11
f 5 12 13
f 7 15 8
f 8 15 9
f 9 15 10
f 10 15 11
f 11 15 16
f 11 16 17
f 12 18 13
f 13 18 14
f 14 18 19
f 16 20 21
f 16 21 17
f 18 22 19
f 19 22 23
f 20 24 21
f 21 24 25
f 22 26 23
f 23 26 27
f 24 27 25
f 25 27 26

