# https://github.com/mikedh/trimesh
v -0.01519956 0.06928191 0.10812365
v -0.01394588 0.06860482 0.10682190
v -0.01511159 0.06928191 0.10713686
v -0.01528319 0.06928191 0.10812365
v -0.01394588 0.06799763 0.10812365
v -0.01394588 0.06852328 0.10678349
v -0.01405399 0.06860482 0.10682120
v -0.01511058 0.06927899 0.10713547
v -0.01655038 0.06928191 0.10713686
v -0.01655038 0.06928191 0.10812086
v -0.01655038 0.06928045 0.10812365
v -0.01394588 0.06193151 0.10812365
v -0.01394588 0.06835874 0.10670667
v -0.01394588 0.05842959 0.10207650
v -0.01655038 0.06629836 0.10574572
v -0.01655038 0.06193151 0.10812365
v -0.01394588 0.05440784 0.10461437
v -0.01394588 0.05609691 0.10098985
v -0.01655038 0.05609691 0.10098985
v -0.01655038 0.06129956 0.10341527
v -0.01655038 0.05440784 0.10461437
v -0.01394588 0.05464664 0.10409967
v -0.01655038 0.05476167 0.10385454
f 1 2 3
f 1 3 9
f 1 9 10
f 1 10 4
f 1 4 11
f 1 11 16
f 1 16 12
f 1 12 5
f 1 5 2
f 2 6 7
f 2 7 8
f 2 8 3
f 2 5 12
f 2 12 17
f 2 17 22
f 2 22 18
f 2 18 14
f 2 14 13
f 2 13 6
f 3 8 9
f 4 10 11
f 6 13 7
f 7 13 14
f 7 14 8
f 8 14 9
f 9 14 15
f 9 15 20
f 9 20 19
f 9 19 23
f 9 23 21
f 9 21 16
f 9 16 11
f 9 11 10
f 12 16 21
f 12 21 17
f 14 18 19
f 14 19 20
f 14 20 15
f 17 21 22
f 18 22 19
f 19 22 23
f 21 23 22

