# https://github.com/mikedh/trimesh
v 0.03149976 0.06693825 0.10604466
v 0.02907484 0.06693825 0.10604466
v 0.03149976 0.05747625 0.10604466
v 0.03149976 0.05712717 0.10588169
v 0.03149715 0.05873712 0.10222081
v 0.03147935 0.05850155 0.10211036
v 0.03145418 0.05834531 0.10203722
v 0.03100623 0.05732368 0.10156059
v 0.02907484 0.06332653 0.10436000
v 0.02907484 0.05747625 0.10604466
v 0.03147935 0.05680981 0.10573443
v 0.03149454 0.05696849 0.10580806
v 0.03141881 0.05818908 0.10196507
v 0.03137371 0.05803650 0.10189389
v 0.03121751 0.05766911 0.10172209
v 0.03143662 0.05657668 0.10562546
v 0.03090606 0.05719430 0.10150071
v 0.03079781 0.05706980 0.10144229
v 0.02936066 0.05621295 0.10104273
v 0.03109787 0.05745795 0.10162342
v 0.03100623 0.05563195 0.10518466
v 0.02913347 0.05618609 0.10103046
v 0.02907484 0.05468843 0.10474484
v 0.02913347 0.05446873 0.10464274
v 0.03055852 0.05514859 0.10495984
v 0.03121751 0.05597737 0.10534615
v 0.03137371 0.05634721 0.10551845
v 0.03131864 0.05788637 0.10182419
v 0.03131864 0.05619708 0.10544776
v 0.03090606 0.05550256 0.10512477
v 0.03062024 0.05689525 0.10136130
v 0.03042819 0.05673414 0.10128620
v 0.03014879 0.05654495 0.10119784
v 0.03073988 0.05531948 0.10503887
v 0.02968849 0.05632036 0.10109329
v 0.02952635 0.05626177 0.10106580
v 0.02936066 0.05452243 0.10466728
v 0.03109787 0.05576743 0.10524798
v 0.02960730 0.05460055 0.10470410
v 0.03042819 0.05504362 0.10491075
v 0.03029122 0.05663527 0.10124055
v 0.03029122 0.05494598 0.10486461
v 0.03014879 0.05485565 0.10482240
v 0.03000018 0.05646195 0.10115955
v 0.02984659 0.05638749 0.10112470
v 0.02984659 0.05469697 0.10474877
v 0.03000018 0.05477265 0.10478411
f 1 2 10
f 1 10 3
f 1 3 4
f 1 4 5
f 1 5 6
f 1 6 7
f 1 7 8
f 1 8 9
f 1 9 2
f 2 9 23
f 2 23 10
f 3 10 11
f 3 11 12
f 3 12 4
f 4 12 5
f 5 12 6
f 6 12 11
f 6 11 7
f 7 13 14
f 7 14 15
f 7 15 8
f 7 11 16
f 7 16 13
f 8 17 18
f 8 18 19
f 8 19 9
f 8 15 20
f 8 20 21
f 8 21 30
f 8 30 17
f 9 19 22
f 9 22 23
f 10 23 24
f 10 24 11
f 11 24 25
f 11 25 26
f 11 26 27
f 11 27 16
f 13 16 27
f 13 27 14
f 14 28 15
f 14 27 29
f 14 29 28
f 15 28 26
f 15 26 20
f 17 30 18
f 18 31 32
f 18 32 33
f 18 33 19
f 18 30 34
f 18 34 31
f 19 33 35
f 19 35 36
f 19 36 37
f 19 37 24
f 19 24 22
f 20 26 38
f 20 38 21
f 21 38 30
f 22 24 23
f 24 37 39
f 24 39 25
f 25 34 30
f 25 30 26
f 25 39 40
f 25 40 32
f 25 32 31
f 25 31 34
f 26 30 38
f 26 28 29
f 26 29 27
f 32 41 33
f 32 40 41
f 33 42 43
f 33 43 47
f 33 47 44
f 33 44 45
f 33 45 35
f 33 41 42
f 35 45 46
f 35 46 39
f 35 39 36
f 36 39 37
f 39 46 47
f 39 47 40
f 40 47 43
f 40 43 42
f 40 42 41
f 44 47 46
f 44 46 45

