# https://github.com/mikedh/trimesh
v 0.02907460 0.06454520 0.10604515
v 0.02907460 0.06454520 0.10492863
v 0.02818731 0.06454520 0.10604515
v 0.02907460 0.05747502 0.10604515
v 0.02795920 0.06436954 0.10484648
v 0.02805818 0.06454520 0.10492863
v 0.02907460 0.06354184 0.10446045
v 0.02650843 0.06361925 0.10449707
v 0.02650843 0.06340587 0.10495486
v 0.02650843 0.06289675 0.10604515
v 0.02650843 0.05747502 0.10604515
v 0.02650843 0.05610346 0.10540572
v 0.02849982 0.05440638 0.10461436
v 0.02907460 0.05459594 0.10470246
v 0.02682873 0.06364803 0.10450994
v 0.02672825 0.06363314 0.10450301
v 0.02652552 0.06361925 0.10449657
v 0.02907460 0.05661854 0.10123215
v 0.02849982 0.05609751 0.10098915
v 0.02650843 0.05777772 0.10177259
v 0.02650843 0.06331457 0.10435454
v 0.02650843 0.05440638 0.10461436
v 0.02650843 0.05603796 0.10111585
v 0.02867441 0.05610148 0.10099162
v 0.02867441 0.05441134 0.10461634
v 0.02884826 0.05442524 0.10462278
v 0.02907460 0.05445799 0.10463812
v 0.02650843 0.06219608 0.10383290
v 0.02907460 0.05617690 0.10102627
v 0.02907460 0.05614911 0.10101340
v 0.02902084 0.05613820 0.10100845
v 0.02884826 0.05611537 0.10099806
v 0.02650843 0.05609751 0.10098915
v 0.02902084 0.05444806 0.10463317
f 1 2 6
f 1 6 3
f 1 3 10
f 1 10 11
f 1 11 4
f 1 4 14
f 1 14 27
f 1 27 30
f 1 30 29
f 1 29 18
f 1 18 7
f 1 7 2
f 2 5 6
f 2 7 5
f 3 6 8
f 3 8 9
f 3 9 10
f 4 11 12
f 4 12 13
f 4 13 14
f 5 7 15
f 5 15 16
f 5 16 17
f 5 17 6
f 6 17 8
f 7 18 19
f 7 19 20
f 7 20 15
f 8 17 21
f 8 21 28
f 8 28 20
f 8 20 33
f 8 33 23
f 8 23 22
f 8 22 12
f 8 12 11
f 8 11 10
f 8 10 9
f 12 22 13
f 13 22 23
f 13 23 19
f 13 19 24
f 13 24 25
f 13 25 26
f 13 26 27
f 13 27 14
f 15 20 28
f 15 28 16
f 16 28 17
f 17 28 21
f 18 29 19
f 19 29 30
f 19 30 31
f 19 31 32
f 19 32 24
f 19 23 33
f 19 33 20
f 24 32 26
f 24 26 25
f 26 34 27
f 26 32 31
f 26 31 34
f 27 34 31
f 27 31 30

