# https://github.com/mikedh/trimesh
v -0.01399382 0.08824729 0.12039477
v -0.01240930 0.08824729 0.12039477
v -0.01399382 0.09073970 0.12155687
v -0.01399382 0.09316907 0.12039477
v -0.01240930 0.08860685 0.12056242
v -0.01240930 0.09421040 0.12039477
v -0.01240930 0.08940652 0.12093526
v -0.01240930 0.09082667 0.12159737
v -0.01399382 0.09082667 0.12159737
v -0.01399382 0.09268110 0.12144185
v -0.01282745 0.09421040 0.12159737
v -0.01282823 0.09421040 0.12039477
v -0.01240930 0.09421040 0.12159737
v -0.01399382 0.09260813 0.12159737
f 1 2 3
f 1 3 9
f 1 9 14
f 1 14 10
f 1 10 4
f 1 4 12
f 1 12 6
f 1 6 2
f 2 5 3
f 2 6 13
f 2 13 8
f 2 8 7
f 2 7 5
f 3 5 7
f 3 7 8
f 3 8 9
f 4 10 11
f 4 11 12
f 6 12 11
f 6 11 13
f 8 13 11
f 8 11 14
f 8 14 9
f 10 14 11

