# https://github.com/mikedh/trimesh
v 0.00721333 0.08319581 0.11803865
v 0.00726297 0.08326688 0.11807210
v 0.00721333 0.08327512 0.11807600
v 0.00721333 0.08337813 0.11764669
v 0.01001479 0.08472129 0.11764669
v 0.01001479 0.08465743 0.11853200
v 0.00848859 0.08425366 0.11853200
v 0.00823848 0.08412490 0.11847221
v 0.00763239 0.08367890 0.11826431
v 0.00721333 0.08354499 0.11820192
v 0.00721333 0.09181824 0.11764669
v 0.01001479 0.09181824 0.11764669
v 0.01001479 0.09371659 0.11853200
v 0.00721333 0.08425366 0.11853200
v 0.00721333 0.08423100 0.11852160
v 0.00721333 0.08380147 0.11832151
v 0.00777280 0.08380250 0.11832194
v 0.00721333 0.09210665 0.11778084
v 0.01001479 0.09355179 0.11845470
v 0.00721333 0.09371659 0.11853200
v 0.00721333 0.09271849 0.11806629
v 0.00721333 0.09317891 0.11828112
f 1 2 3
f 1 3 10
f 1 10 16
f 1 16 15
f 1 15 14
f 1 14 20
f 1 20 22
f 1 22 21
f 1 21 18
f 1 18 11
f 1 11 4
f 1 4 5
f 1 5 6
f 1 6 7
f 1 7 2
f 2 7 8
f 2 8 3
f 3 8 9
f 3 9 10
f 4 11 12
f 4 12 5
f 5 12 19
f 5 19 13
f 5 13 6
f 6 13 20
f 6 20 14
f 6 14 7
f 7 14 15
f 7 15 8
f 8 16 17
f 8 17 9
f 8 15 16
f 9 17 10
f 10 17 16
f 11 18 12
f 12 18 19
f 13 19 20
f 18 21 19
f 19 21 22
f 19 22 20

