# https://github.com/mikedh/trimesh
v -0.00984456 0.09081391 0.11717798
v -0.00984456 0.08745354 0.11561117
v -0.01134032 0.08993886 0.11676983
v -0.01134032 0.09079240 0.11716786
v -0.01134032 0.09081391 0.11717798
v -0.00984456 0.08371594 0.11717798
v -0.01134032 0.08745354 0.11561117
v -0.01134032 0.08795905 0.11584677
v -0.00984456 0.08424835 0.11561117
v -0.01134032 0.08371594 0.11717798
v -0.01134032 0.08371134 0.11717598
v -0.00984456 0.08355999 0.11710543
v -0.01134032 0.08353310 0.11561117
v -0.00984456 0.08355307 0.11710190
v -0.01134032 0.08296535 0.11682827
v -0.01044823 0.08350467 0.11707966
v -0.00984910 0.08355307 0.11710221
f 1 2 3
f 1 3 4
f 1 4 5
f 1 5 10
f 1 10 6
f 1 6 12
f 1 12 14
f 1 14 9
f 1 9 2
f 2 7 8
f 2 8 3
f 2 9 13
f 2 13 7
f 3 8 7
f 3 7 13
f 3 13 15
f 3 15 11
f 3 11 10
f 3 10 5
f 3 5 4
f 6 10 11
f 6 11 12
f 9 14 15
f 9 15 13
f 11 15 16
f 11 16 17
f 11 17 12
f 12 17 14
f 14 17 15
f 15 17 16

