# https://github.com/mikedh/trimesh
v -0.00854740 0.08371623 0.11717829
v -0.00688778 0.08285676 0.11717829
v -0.00700836 0.08285676 0.11788045
v -0.00854740 0.08428048 0.11854481
v -0.00854740 0.09081305 0.11717829
v -0.00523593 0.08285676 0.11717829
v -0.00523593 0.08285676 0.11788045
v -0.00706411 0.08296146 0.11792988
v -0.00823817 0.08412488 0.11847239
v -0.00854740 0.08476039 0.11876868
v -0.00854740 0.09185140 0.11766193
v -0.00523593 0.09081305 0.11717829
v -0.00523593 0.08296146 0.11792988
v -0.00523593 0.08824772 0.12039465
v -0.00854740 0.08824772 0.12039465
v -0.00854740 0.09487918 0.11907348
v -0.00523593 0.09492863 0.11909646
v -0.00523593 0.09771064 0.12039465
v -0.00854740 0.09771064 0.12039465
v -0.00854740 0.09592189 0.11955963
v -0.00523593 0.09588263 0.11954137
v -0.00854740 0.09706204 0.12009175
f 1 2 3
f 1 3 4
f 1 4 10
f 1 10 15
f 1 15 19
f 1 19 22
f 1 22 20
f 1 20 16
f 1 16 11
f 1 11 5
f 1 5 12
f 1 12 6
f 1 6 2
f 2 6 7
f 2 7 3
f 3 7 13
f 3 13 8
f 3 8 4
f 4 9 10
f 4 8 9
f 5 11 12
f 6 12 17
f 6 17 21
f 6 21 18
f 6 18 14
f 6 14 13
f 6 13 7
f 8 13 9
f 9 14 15
f 9 15 10
f 9 13 14
f 11 16 17
f 11 17 12
f 14 18 19
f 14 19 15
f 16 20 17
f 17 20 21
f 18 21 22
f 18 22 19
f 20 22 21

