# https://github.com/mikedh/trimesh
v -0.00523593 0.07987777 0.11649208
v 0.00642009 0.07987777 0.11649208
v -0.00523593 0.08380240 0.11832192
v -0.00523593 0.08934187 0.11649208
v 0.00642009 0.08194914 0.11745782
v 0.00642009 0.08934187 0.11649208
v 0.00642009 0.08368861 0.11826880
v 0.00642009 0.08425353 0.11853200
v -0.00523593 0.08425353 0.11853200
v -0.00523593 0.09371762 0.11853200
v 0.00642009 0.09170044 0.11759122
v 0.00642009 0.09371762 0.11853200
f 1 2 3
f 1 3 9
f 1 9 10
f 1 10 4
f 1 4 6
f 1 6 2
f 2 5 3
f 2 6 11
f 2 11 12
f 2 12 8
f 2 8 7
f 2 7 5
f 3 7 8
f 3 8 9
f 3 5 7
f 4 10 11
f 4 11 6
f 8 12 10
f 8 10 9
f 10 12 11

