# https://github.com/mikedh/trimesh
v 0.01505145 0.06814310 0.10928291
v 0.01508248 0.06814149 0.10928291
v 0.01505145 0.06814149 0.10928631
v 0.01481629 0.06879767 0.11132495
v 0.01520007 0.06879767 0.10928291
v 0.03150000 0.06814149 0.10928291
v 0.01519027 0.06814149 0.11101909
v 0.01485548 0.06876420 0.11130955
v 0.03150000 0.06879767 0.11132495
v 0.03150000 0.06879767 0.10928291
v 0.03150000 0.06814149 0.11101909
v 0.01516740 0.06825884 0.11107387
f 1 2 3
f 1 3 4
f 1 4 5
f 1 5 10
f 1 10 6
f 1 6 2
f 2 6 11
f 2 11 7
f 2 7 3
f 3 7 4
f 4 7 8
f 4 8 9
f 4 9 10
f 4 10 5
f 6 10 9
f 6 9 11
f 7 12 8
f 7 11 12
f 8 12 11
f 8 11 9

