# https://github.com/mikedh/trimesh
v 0.02625100 0.06754540 0.10801622
v 0.02625100 0.06570881 0.10801622
v 0.02625100 0.06754540 0.10632780
v -0.00523593 0.06754540 0.10801622
v 0.02625100 0.06601309 0.10736350
v 0.02520308 0.06506652 0.10801622
v 0.02482090 0.06506652 0.10604515
v 0.02625100 0.06721370 0.10617307
v -0.00523593 0.06754540 0.10632780
v -0.00523593 0.06506652 0.10801622
v 0.02625100 0.06662771 0.10604515
v -0.00523593 0.06506652 0.10604515
v 0.02625100 0.06715620 0.10614625
v -0.00523593 0.06693927 0.10604515
v 0.02625100 0.06693927 0.10604515
v 0.02625100 0.06697033 0.10605962
f 1 2 5
f 1 5 11
f 1 11 15
f 1 15 16
f 1 16 13
f 1 13 8
f 1 8 3
f 1 3 9
f 1 9 4
f 1 4 10
f 1 10 6
f 1 6 2
f 2 6 7
f 2 7 5
f 3 8 9
f 4 9 14
f 4 14 12
f 4 12 10
f 5 7 11
f 6 10 12
f 6 12 7
f 7 12 14
f 7 14 15
f 7 15 11
f 8 13 9
f 9 13 14
f 13 16 14
f 14 16 15

