# https://github.com/mikedh/trimesh
v -0.00523593 0.08745355 0.11561102
v -0.00523593 0.08330365 0.11561102
v -0.00523593 0.08617275 0.11501380
v -0.00999996 0.08664803 0.11523534
v -0.00999996 0.08731503 0.11554637
v -0.00999996 0.08744584 0.11560741
v -0.00999996 0.08745355 0.11561102
v -0.00523593 0.08330365 0.11482769
v -0.00852076 0.08330365 0.11561102
v -0.00523593 0.08577344 0.11482769
v -0.00999996 0.08577344 0.11482769
v -0.00999996 0.08425501 0.11561102
v -0.00837713 0.08330365 0.11482769
v -0.00999996 0.08462019 0.11482769
v -0.00999996 0.08428750 0.11554116
f 1 2 8
f 1 8 10
f 1 10 3
f 1 3 4
f 1 4 5
f 1 5 6
f 1 6 7
f 1 7 12
f 1 12 9
f 1 9 2
f 2 9 13
f 2 13 8
f 3 10 11
f 3 11 4
f 4 11 14
f 4 14 15
f 4 15 12
f 4 12 7
f 4 7 6
f 4 6 5
f 8 13 14
f 8 14 11
f 8 11 10
f 9 12 13
f 12 15 13
f 13 15 14

