# https://github.com/mikedh/trimesh
v 0.01188594 0.08404904 0.11843686
v 0.01188594 0.08425356 0.11853200
v 0.01188594 0.08414810 0.11822452
v 0.01300183 0.08299559 0.11753012
v 0.01300183 0.08283688 0.11787134
v 0.01293585 0.08296150 0.11792979
v 0.01300183 0.08364428 0.11824816
v 0.01300183 0.08390844 0.11837125
v 0.01300183 0.08425356 0.11853200
v 0.01188594 0.09371762 0.11853200
v 0.01188594 0.08447192 0.11753061
v 0.01188779 0.08447085 0.11753012
v 0.01300183 0.09156171 0.11753012
v 0.01300183 0.08320117 0.11804141
v 0.01300183 0.09371762 0.11853200
v 0.01300183 0.09361963 0.11848630
v 0.01300183 0.09274086 0.11807652
v 0.01188594 0.09185996 0.11766577
v 0.01188594 0.08469454 0.11753012
v 0.01300161 0.09156810 0.11753012
v 0.01300183 0.09156917 0.11753032
v 0.01300183 0.09165118 0.11756847
v 0.01188594 0.09163095 0.11755905
v 0.01188594 0.09156810 0.11753012
v 0.01188594 0.09157875 0.11753493
f 1 2 10
f 1 10 18
f 1 18 23
f 1 23 25
f 1 25 24
f 1 24 19
f 1 19 11
f 1 11 3
f 1 3 4
f 1 4 5
f 1 5 6
f 1 6 7
f 1 7 8
f 1 8 9
f 1 9 2
f 2 9 15
f 2 15 10
f 3 11 4
f 4 11 12
f 4 12 19
f 4 19 24
f 4 24 20
f 4 20 13
f 4 13 21
f 4 21 22
f 4 22 17
f 4 17 16
f 4 16 15
f 4 15 9
f 4 9 8
f 4 8 7
f 4 7 14
f 4 14 5
f 5 14 6
f 6 14 7
f 10 15 16
f 10 16 17
f 10 17 18
f 11 19 12
f 13 20 21
f 17 22 18
f 18 22 23
f 20 24 21
f 21 24 25
f 21 25 23
f 21 23 22

