# https://github.com/mikedh/trimesh
v 0.00879241 0.08406465 0.11482762
v 0.00879241 0.08436993 0.11417307
v 0.01018475 0.08467989 0.11467577
v 0.01018475 0.08460913 0.11482762
v 0.00879241 0.08577354 0.11482762
v 0.00900900 0.08453804 0.11425143
v 0.01018475 0.08481722 0.11438162
v 0.00879241 0.08572068 0.11480295
v 0.01018475 0.08577354 0.11482762
v 0.00945566 0.08474580 0.11434831
v 0.01018475 0.08548767 0.11469429
f 1 2 3
f 1 3 4
f 1 4 9
f 1 9 5
f 1 5 8
f 1 8 2
f 2 6 7
f 2 7 3
f 2 8 6
f 3 7 11
f 3 11 9
f 3 9 4
f 5 9 8
f 6 8 10
f 6 10 7
f 7 10 11
f 8 9 11
f 8 11 10

