# https://github.com/mikedh/trimesh
v 0.03150000 0.07388288 0.10928291
v 0.03150000 0.06917937 0.10928291
v 0.03150000 0.07116648 0.10801622
v 0.01399061 0.07321943 0.10897343
v 0.01399061 0.07341327 0.10906382
v 0.01399061 0.07388288 0.10928291
v 0.03150000 0.06917937 0.10801622
v 0.01514407 0.06917937 0.10928291
v 0.01399061 0.07116648 0.10801622
v 0.01399061 0.07129402 0.10807561
v 0.01399061 0.07150810 0.10817542
v 0.01399061 0.07010387 0.10928291
v 0.01518692 0.06917937 0.10801622
v 0.01399061 0.07069457 0.10801622
v 0.01399061 0.07011584 0.10925662
f 1 2 7
f 1 7 3
f 1 3 4
f 1 4 5
f 1 5 6
f 1 6 12
f 1 12 8
f 1 8 2
f 2 8 13
f 2 13 7
f 3 7 13
f 3 13 14
f 3 14 9
f 3 9 10
f 3 10 11
f 3 11 4
f 4 11 10
f 4 10 9
f 4 9 14
f 4 14 15
f 4 15 12
f 4 12 6
f 4 6 5
f 8 12 13
f 12 15 13
f 13 15 14

