# https://github.com/mikedh/trimesh
v -0.01498947 0.09318333 0.12159737
v -0.01516556 0.09318333 0.12252002
v -0.01386564 0.09261714 0.12159737
v -0.03150000 0.09318333 0.12159737
v -0.01502055 0.09280494 0.12252002
v -0.01386564 0.09229736 0.12228321
v -0.01386564 0.09260537 0.12162302
v -0.03150000 0.09318333 0.12252002
v -0.01386564 0.09082675 0.12159737
v -0.03150000 0.09082675 0.12159737
v -0.01483065 0.09259130 0.12242040
v -0.01398303 0.09228998 0.12227987
v -0.01391052 0.09229298 0.12228123
v -0.03150000 0.09280494 0.12252002
v -0.01386564 0.09210448 0.12219335
v -0.01386564 0.09094096 0.12165075
v -0.01386564 0.09128058 0.12180916
f 1 2 3
f 1 3 9
f 1 9 10
f 1 10 4
f 1 4 8
f 1 8 2
f 2 5 6
f 2 6 7
f 2 7 3
f 2 8 14
f 2 14 5
f 3 7 6
f 3 6 15
f 3 15 17
f 3 17 16
f 3 16 9
f 4 10 14
f 4 14 8
f 5 11 12
f 5 12 13
f 5 13 6
f 5 14 11
f 6 13 15
f 9 16 10
f 10 16 17
f 10 17 14
f 11 17 12
f 11 14 17
f 12 17 15
f 12 15 13

