# https://github.com/mikedh/trimesh
v 0.00712295 0.07898077 0.11482773
v 0.00712295 0.07898077 0.11497032
v 0.00712295 0.08121055 0.11482773
v 0.00905423 0.07898077 0.11482773
v 0.00896992 0.07898077 0.11497032
v 0.00712295 0.07971545 0.11531290
v 0.00712295 0.08121055 0.11600999
v 0.00829995 0.08121055 0.11482773
v 0.00829995 0.08121055 0.11600999
v 0.00829995 0.08020545 0.11554137
v 0.00834740 0.07984379 0.11537274
v 0.00712295 0.08020545 0.11554137
f 1 2 6
f 1 6 12
f 1 12 7
f 1 7 3
f 1 3 8
f 1 8 4
f 1 4 5
f 1 5 2
f 2 5 6
f 3 7 9
f 3 9 8
f 4 8 9
f 4 9 5
f 5 9 10
f 5 10 11
f 5 11 6
f 6 11 10
f 6 10 12
f 7 12 10
f 7 10 9

