# https://github.com/mikedh/trimesh
v 0.01018475 0.08460918 0.11482762
v 0.01140501 0.08380075 0.11482762
v 0.01018475 0.08577354 0.11482762
v 0.01018475 0.08481698 0.11438164
v 0.01140501 0.08412501 0.11413184
v 0.01140501 0.08577354 0.11482762
v 0.01140501 0.08543673 0.11467050
v 0.01063893 0.08471405 0.11433348
v 0.01018475 0.08548771 0.11469432
v 0.01018475 0.08491973 0.11442950
v 0.01135113 0.08422119 0.11410365
v 0.01140501 0.08415302 0.11407192
v 0.01018475 0.08521598 0.11456760
f 1 2 6
f 1 6 3
f 1 3 9
f 1 9 13
f 1 13 10
f 1 10 4
f 1 4 2
f 2 4 5
f 2 5 12
f 2 12 7
f 2 7 6
f 3 6 7
f 3 7 8
f 3 8 9
f 4 10 8
f 4 8 11
f 4 11 12
f 4 12 5
f 7 12 11
f 7 11 8
f 8 10 13
f 8 13 9

