# https://github.com/mikedh/trimesh
v -0.00858443 0.09081391 0.11717798
v -0.00858443 0.09049824 0.11703073
v -0.00984456 0.09081391 0.11717798
v -0.00858443 0.08404016 0.11717798
v -0.00858443 0.08749623 0.11563096
v -0.00984456 0.08745347 0.11561117
v -0.00984456 0.08371593 0.11717798
v -0.00865648 0.08371593 0.11717798
v -0.00858443 0.08371438 0.11717721
v -0.00858443 0.08745347 0.11561117
v -0.00984456 0.08424776 0.11561117
v -0.00984456 0.08359853 0.11712337
v -0.00858443 0.08339482 0.11702843
v -0.00858443 0.08341814 0.11561117
v -0.00858443 0.08300528 0.11649588
v -0.00984456 0.08360941 0.11698011
v -0.00984456 0.08355265 0.11710190
v -0.00858443 0.08288321 0.11678977
v -0.00864883 0.08295319 0.11682244
v -0.00878033 0.08309158 0.11688701
v -0.00936099 0.08344613 0.11705236
v -0.00858443 0.08310169 0.11689177
v -0.00858443 0.08287155 0.11678409
v -0.00859011 0.08287932 0.11678793
f 1 2 3
f 1 3 7
f 1 7 8
f 1 8 4
f 1 4 9
f 1 9 13
f 1 13 22
f 1 22 18
f 1 18 23
f 1 23 15
f 1 15 14
f 1 14 10
f 1 10 5
f 1 5 2
f 2 5 3
f 3 5 6
f 3 6 11
f 3 11 16
f 3 16 17
f 3 17 12
f 3 12 7
f 4 8 9
f 5 10 6
f 6 10 14
f 6 14 11
f 7 12 8
f 8 12 13
f 8 13 9
f 11 14 15
f 11 15 16
f 12 17 18
f 12 18 19
f 12 19 20
f 12 20 21
f 12 21 13
f 13 21 22
f 15 23 17
f 15 17 16
f 17 23 24
f 17 24 18
f 18 24 23
f 18 22 19
f 19 22 20
f 20 22 21

