# https://github.com/mikedh/trimesh
v -0.01155367 0.07977649 0.11482762
v -0.01088102 0.07893484 0.11482762
v -0.01155367 0.08084855 0.11253127
v -0.01155367 0.07630823 0.11482762
v -0.01088102 0.08015598 0.11220844
v -0.01088102 0.07698589 0.11482762
v -0.01140999 0.08061272 0.11242126
v -0.01155367 0.07814875 0.11127223
v -0.01155367 0.07550452 0.11445296
v -0.01088102 0.07629332 0.11482082
v -0.01107099 0.07630823 0.11482762
v -0.01088102 0.07869630 0.11152752
v -0.01088102 0.07630823 0.11482719
v -0.01088102 0.07702926 0.11075018
v -0.01155367 0.07649797 0.11050254
v -0.01155367 0.07402587 0.11376355
v -0.01088102 0.07482009 0.11413396
v -0.01088102 0.07655083 0.11052718
v -0.01088102 0.07646680 0.11048810
v -0.01155367 0.07646680 0.11048810
v -0.01155367 0.06702294 0.11049787
v -0.01088102 0.06723979 0.11059896
v -0.01088102 0.06700396 0.11048810
v -0.01155367 0.06700396 0.11048810
v -0.01088102 0.06701616 0.11049447
v -0.01088102 0.06706766 0.11051868
f 1 2 3
f 1 3 8
f 1 8 15
f 1 15 20
f 1 20 24
f 1 24 21
f 1 21 16
f 1 16 9
f 1 9 4
f 1 4 11
f 1 11 6
f 1 6 2
f 2 5 3
f 2 6 13
f 2 13 10
f 2 10 17
f 2 17 22
f 2 22 26
f 2 26 25
f 2 25 23
f 2 23 19
f 2 19 18
f 2 18 14
f 2 14 12
f 2 12 5
f 3 5 7
f 3 7 8
f 4 9 10
f 4 10 11
f 5 12 7
f 6 11 13
f 7 12 8
f 8 14 15
f 8 12 14
f 9 16 17
f 9 17 10
f 10 13 11
f 14 18 15
f 15 18 19
f 15 19 20
f 16 21 17
f 17 21 22
f 19 23 24
f 19 24 20
f 21 24 25
f 21 25 26
f 21 26 22
f 23 25 24

