# https://github.com/mikedh/trimesh
v -0.01400309 0.09386299 0.11859996
v -0.01400309 0.09386299 0.11890778
v -0.01400309 0.09392762 0.11863001
v -0.00854794 0.09386299 0.11859996
v -0.01400309 0.09398101 0.11865496
v -0.01294506 0.09386299 0.12039448
v -0.01283718 0.09481985 0.12039448
v -0.01398173 0.09398073 0.11865478
v -0.01369759 0.09401557 0.11867094
v -0.00854794 0.09481985 0.11904605
v -0.00854794 0.09386299 0.12039448
v -0.01336913 0.09414295 0.11873033
v -0.01283184 0.09481985 0.11904605
v -0.00854794 0.09481985 0.12039448
f 1 2 5
f 1 5 3
f 1 3 4
f 1 4 11
f 1 11 6
f 1 6 2
f 2 6 7
f 2 7 5
f 3 5 8
f 3 8 9
f 3 9 4
f 4 10 14
f 4 14 11
f 4 9 12
f 4 12 10
f 5 7 13
f 5 13 8
f 6 11 14
f 6 14 7
f 7 14 10
f 7 10 13
f 8 13 9
f 9 13 12
f 10 12 13

