# https://github.com/mikedh/trimesh
v 0.02849741 0.10503747 0.12381103
v -0.00523593 0.10503747 0.12381103
v 0.02849741 0.10334614 0.12743577
v 0.02875991 0.10333429 0.12742968
v 0.02875991 0.10502455 0.12380588
v 0.02901882 0.10499546 0.12379184
v 0.02927413 0.10494267 0.12376702
v 0.02991780 0.10470998 0.12365839
v -0.00523593 0.10334614 0.12743577
v -0.00523593 0.10255110 0.12265211
v 0.02927413 0.10325134 0.12739175
v 0.02901882 0.10330520 0.12741563
v 0.02952584 0.10487265 0.12373471
v 0.02968766 0.10481448 0.12370755
v 0.02991780 0.10301972 0.12728312
v 0.03021626 0.10454408 0.12358112
v 0.03131661 0.10324811 0.12297708
v -0.00523593 0.09405994 0.12310538
v 0.03150000 0.09403193 0.12309274
v -0.00523593 0.09403193 0.12265211
v 0.03141729 0.10294431 0.12283567
v 0.03145325 0.10278918 0.12276356
v 0.03148562 0.10252632 0.12266195
v 0.03150000 0.10226670 0.12265211
v 0.03021626 0.10285274 0.12720539
v 0.02952584 0.10318131 0.12735851
v 0.03148562 0.10086300 0.12627778
v 0.03100017 0.10212019 0.12686403
v 0.02968766 0.10312422 0.12733135
v 0.03042482 0.10271054 0.12713843
v 0.03042482 0.10439972 0.12351463
v 0.03061900 0.10423921 0.12343924
v 0.03084914 0.10400328 0.12332920
v 0.03109366 0.10367794 0.12317749
v 0.03121592 0.10346572 0.12307869
v 0.03121592 0.10177546 0.12670295
v 0.03131661 0.10155677 0.12660087
v 0.03137055 0.10140702 0.12653111
v 0.03137055 0.10309621 0.12290684
v 0.03150000 0.09403193 0.12265211
v 0.03150000 0.10062599 0.12616727
v 0.03143527 0.10117649 0.12642341
v 0.03055787 0.10260389 0.12708926
v 0.03109366 0.10198660 0.12680129
v 0.03100017 0.10381152 0.12324024
v 0.03089948 0.10225162 0.12692444
v 0.03073767 0.10243368 0.12700966
f 1 2 9
f 1 9 3
f 1 3 4
f 1 4 5
f 1 5 6
f 1 6 7
f 1 7 8
f 1 8 2
f 2 8 10
f 2 10 20
f 2 20 18
f 2 18 9
f 3 9 11
f 3 11 4
f 4 11 12
f 4 12 6
f 4 6 5
f 6 12 7
f 7 11 13
f 7 13 14
f 7 14 8
f 7 12 11
f 8 15 16
f 8 16 17
f 8 17 10
f 8 14 15
f 9 18 19
f 9 19 11
f 10 17 21
f 10 21 22
f 10 22 23
f 10 23 24
f 10 24 40
f 10 40 20
f 11 25 15
f 11 15 26
f 11 26 13
f 11 19 27
f 11 27 28
f 11 28 25
f 13 29 14
f 13 26 29
f 14 29 15
f 15 25 16
f 15 29 26
f 16 25 30
f 16 30 31
f 16 31 32
f 16 32 33
f 16 33 34
f 16 34 17
f 17 34 35
f 17 35 36
f 17 36 37
f 17 37 38
f 17 38 39
f 17 39 21
f 18 20 19
f 19 40 24
f 19 24 41
f 19 41 27
f 19 20 40
f 21 39 38
f 21 38 42
f 21 42 22
f 22 42 27
f 22 27 23
f 23 27 24
f 24 27 41
f 25 28 43
f 25 43 30
f 27 42 38
f 27 38 28
f 28 38 36
f 28 36 44
f 28 44 34
f 28 34 45
f 28 45 46
f 28 46 47
f 28 47 43
f 30 43 31
f 31 43 32
f 32 43 47
f 32 47 33
f 33 47 46
f 33 46 45
f 33 45 34
f 34 44 36
f 34 36 35
f 36 38 37

