# https://github.com/mikedh/trimesh
v -0.00523593 0.08377910 0.11482762
v -0.00523593 0.08377910 0.11389701
v -0.00858191 0.08377910 0.11482762
v -0.00523593 0.07630653 0.11482762
v -0.00523593 0.08366409 0.11384283
v -0.00838990 0.08377910 0.11389701
v -0.00878958 0.08038927 0.11231756
v -0.00878958 0.07937434 0.11449981
v -0.00878958 0.07921908 0.11482762
v -0.00878958 0.07630653 0.11482762
v -0.00523593 0.05440638 0.10461538
v -0.00837390 0.08373597 0.11387670
v -0.00523593 0.08085217 0.11253159
v -0.00844416 0.08085217 0.11253159
v -0.00878958 0.08030589 0.11227693
v -0.00878958 0.05440638 0.10461538
v -0.00523593 0.05509642 0.10313482
v -0.00523593 0.06889148 0.10695475
v -0.00878958 0.05985195 0.10273928
v -0.00878958 0.06880810 0.10691547
v -0.00878958 0.05609698 0.10098915
v -0.00523593 0.05609698 0.10098915
f 1 2 6
f 1 6 3
f 1 3 9
f 1 9 10
f 1 10 4
f 1 4 11
f 1 11 17
f 1 17 22
f 1 22 18
f 1 18 13
f 1 13 5
f 1 5 2
f 2 5 12
f 2 12 6
f 3 6 7
f 3 7 8
f 3 8 9
f 4 10 16
f 4 16 11
f 5 13 14
f 5 14 12
f 6 12 15
f 6 15 7
f 7 15 20
f 7 20 19
f 7 19 21
f 7 21 16
f 7 16 10
f 7 10 9
f 7 9 8
f 11 16 17
f 12 14 15
f 13 18 19
f 13 19 20
f 13 20 14
f 14 20 15
f 16 21 17
f 17 21 22
f 18 22 19
f 19 22 21

