# https://github.com/mikedh/trimesh
v -0.02650628 0.08577354 0.11482762
v -0.02650628 0.08405090 0.11402393
v -0.02774415 0.08577354 0.11482762
v -0.02650628 0.07630733 0.11482762
v -0.02774415 0.07124134 0.10805075
v -0.02650628 0.06706997 0.10610583
v -0.02667773 0.06669340 0.10592991
v -0.02774415 0.06621073 0.10570488
v -0.02774415 0.07630733 0.11482762
v -0.02650628 0.06561363 0.10984118
v -0.02650628 0.06670172 0.10593437
v -0.02650628 0.06617328 0.10706400
v -0.02774415 0.06451929 0.10933040
v -0.02774415 0.06598187 0.11001264
v -0.02751962 0.06470237 0.10941612
v -0.02677855 0.06498948 0.10955007
v -0.02650628 0.06528491 0.10968759
v -0.02650628 0.06501028 0.10955900
v -0.02774415 0.06523706 0.10966527
f 1 2 3
f 1 3 9
f 1 9 4
f 1 4 10
f 1 10 17
f 1 17 18
f 1 18 12
f 1 12 11
f 1 11 6
f 1 6 2
f 2 5 3
f 2 6 7
f 2 7 8
f 2 8 5
f 3 5 8
f 3 8 13
f 3 13 19
f 3 19 14
f 3 14 9
f 4 9 10
f 6 11 7
f 7 11 8
f 8 11 12
f 8 12 13
f 9 14 15
f 9 15 10
f 10 15 16
f 10 16 17
f 12 18 13
f 13 18 16
f 13 16 15
f 13 15 19
f 14 19 15
f 16 18 17

