# https://github.com/mikedh/trimesh
v 0.02733405 0.06481140 0.10946655
v 0.02733405 0.06535776 0.10829458
v 0.02819856 0.06379108 0.10801622
v 0.02816186 0.06379108 0.10899065
v 0.02790495 0.06433744 0.10924550
v 0.03150000 0.06379108 0.10899065
v 0.03150000 0.06814149 0.11101917
v 0.02733405 0.06728512 0.11061999
v 0.02733405 0.06548764 0.10801622
v 0.03150000 0.06379108 0.10801622
v 0.03150000 0.06814149 0.10801622
v 0.02733405 0.06814149 0.11101917
v 0.02733405 0.06814149 0.10801622
f 1 2 3
f 1 3 4
f 1 4 5
f 1 5 6
f 1 6 7
f 1 7 8
f 1 8 12
f 1 12 13
f 1 13 9
f 1 9 2
f 2 9 3
f 3 10 6
f 3 6 4
f 3 9 13
f 3 13 11
f 3 11 10
f 4 6 5
f 6 10 11
f 6 11 7
f 7 11 13
f 7 13 12
f 7 12 8

