# https://github.com/mikedh/trimesh
v -0.00878958 0.07921945 0.11482762
v -0.00878958 0.07937461 0.11449981
v -0.00982838 0.07867257 0.11482626
v -0.00981231 0.07867257 0.11482762
v -0.00878958 0.07630700 0.11482762
v -0.00878958 0.08039206 0.11231756
v -0.00982838 0.07993930 0.11210760
v -0.00982838 0.07690221 0.11482762
v -0.00982838 0.07630700 0.11482762
v -0.00982838 0.07537095 0.11439144
v -0.00878958 0.06771972 0.11082345
v -0.00878958 0.08030558 0.11227693
v -0.00900901 0.08022164 0.11223764
v -0.00964982 0.07996473 0.11211844
v -0.00974896 0.07994947 0.11211167
v -0.00982838 0.07974344 0.11201549
v -0.00982838 0.05440638 0.10461538
v -0.00878958 0.05440638 0.10461538
v -0.00878958 0.06468009 0.10499060
v -0.00982838 0.07950434 0.11190306
v -0.00982838 0.05609789 0.10098915
v -0.00878958 0.05499141 0.10336103
v -0.00878958 0.05609789 0.10098915
f 1 2 3
f 1 3 4
f 1 4 8
f 1 8 9
f 1 9 5
f 1 5 11
f 1 11 18
f 1 18 22
f 1 22 23
f 1 23 19
f 1 19 12
f 1 12 6
f 1 6 2
f 2 6 3
f 3 6 7
f 3 7 16
f 3 16 20
f 3 20 21
f 3 21 17
f 3 17 10
f 3 10 9
f 3 9 8
f 3 8 4
f 5 9 10
f 5 10 11
f 6 12 13
f 6 13 14
f 6 14 15
f 6 15 7
f 7 15 16
f 10 17 18
f 10 18 11
f 12 19 13
f 13 20 14
f 13 19 20
f 14 20 15
f 15 20 16
f 17 21 22
f 17 22 18
f 19 23 21
f 19 21 20
f 21 23 22

