# https://github.com/mikedh/trimesh
v 0.02526781 0.06347966 0.10604515
v 0.02483323 0.06347966 0.10801622
v 0.02625100 0.06291772 0.10604515
v -0.00523593 0.06347966 0.10604515
v 0.02625100 0.06199899 0.10801622
v 0.02625100 0.06263381 0.10665426
v -0.00523593 0.06347966 0.10801622
v 0.02625100 0.05747467 0.10604515
v -0.00523593 0.05747467 0.10604515
v 0.02625100 0.06170156 0.10801622
v -0.00523593 0.06170156 0.10801622
v 0.02625100 0.06085101 0.10761973
v 0.02625100 0.06155578 0.10794830
f 1 2 3
f 1 3 8
f 1 8 9
f 1 9 4
f 1 4 7
f 1 7 2
f 2 5 6
f 2 6 3
f 2 7 11
f 2 11 10
f 2 10 5
f 3 6 5
f 3 5 10
f 3 10 13
f 3 13 12
f 3 12 8
f 4 9 11
f 4 11 7
f 8 12 9
f 9 12 11
f 10 11 13
f 11 12 13

