# https://github.com/mikedh/trimesh
v -0.02787190 0.06255935 0.10841647
v -0.02767472 0.06235507 0.10832123
v -0.02657633 0.06193013 0.10812275
v -0.02650628 0.06192916 0.10812202
v -0.02787190 0.06416085 0.10498271
v -0.02787190 0.06208526 0.10819545
v -0.02650628 0.05440638 0.10461484
v -0.02650628 0.06087114 0.10762910
v -0.02650628 0.06146086 0.10790391
v -0.02650628 0.06361931 0.10449779
v -0.02787190 0.06424950 0.10479078
v -0.02787190 0.05440638 0.10461484
v -0.02650628 0.05609749 0.10098988
v -0.02650628 0.06315100 0.10427895
v -0.02657633 0.06362027 0.10449779
v -0.02774610 0.06411170 0.10472607
v -0.02787190 0.06409532 0.10471880
v -0.02787190 0.05609749 0.10098988
v -0.02787190 0.05637115 0.10111711
v -0.02787190 0.05670263 0.10127124
v -0.02650628 0.05696569 0.10139410
v -0.02650628 0.06256224 0.10400413
f 1 2 3
f 1 3 4
f 1 4 5
f 1 5 11
f 1 11 17
f 1 17 20
f 1 20 19
f 1 19 18
f 1 18 12
f 1 12 6
f 1 6 2
f 2 6 7
f 2 7 8
f 2 8 3
f 3 8 9
f 3 9 4
f 4 9 8
f 4 8 7
f 4 7 13
f 4 13 21
f 4 21 22
f 4 22 14
f 4 14 10
f 4 10 5
f 5 10 11
f 6 12 7
f 7 12 18
f 7 18 13
f 10 14 15
f 10 15 11
f 11 16 17
f 11 15 16
f 13 18 19
f 13 19 20
f 13 20 21
f 14 22 15
f 15 22 16
f 16 22 21
f 16 21 20
f 16 20 17

