# https://github.com/mikedh/trimesh
v 0.03150000 0.09348155 0.12179245
v 0.03150000 0.09348155 0.12097470
v 0.01515694 0.09348155 0.12179245
v 0.03149658 0.09320576 0.12265156
v 0.03150000 0.09124516 0.12179245
v 0.03150000 0.08949119 0.12097470
v 0.01499767 0.09348155 0.12097470
v 0.01518263 0.09320576 0.12265156
v 0.01400609 0.09289833 0.12097470
v 0.03149658 0.09308701 0.12265156
v 0.03149658 0.09124476 0.12179261
v 0.01400609 0.08949119 0.12097470
v 0.01515694 0.09308701 0.12265156
v 0.01400609 0.09264989 0.12150832
v 0.01400609 0.09251707 0.12179245
v 0.01446677 0.09237488 0.12231950
v 0.01516550 0.09305928 0.12263876
v 0.01446677 0.09124476 0.12179261
v 0.01400609 0.09124516 0.12179245
f 1 2 7
f 1 7 3
f 1 3 8
f 1 8 4
f 1 4 10
f 1 10 5
f 1 5 6
f 1 6 2
f 2 6 12
f 2 12 9
f 2 9 7
f 3 7 9
f 3 9 8
f 4 8 13
f 4 13 10
f 5 10 6
f 6 10 11
f 6 11 18
f 6 18 12
f 8 9 14
f 8 14 15
f 8 15 16
f 8 16 13
f 9 12 19
f 9 19 15
f 9 15 14
f 10 13 17
f 10 17 11
f 11 17 18
f 12 18 19
f 13 16 17
f 15 19 16
f 16 19 18
f 16 18 17

