# https://github.com/mikedh/trimesh
v 0.01355436 0.06814149 0.10801622
v 0.01280979 0.06814149 0.11101917
v 0.01431807 0.06809422 0.10801622
v -0.00523593 0.06814149 0.10801622
v 0.01302800 0.06736135 0.11065556
v 0.01431807 0.06695254 0.11046479
v 0.01431807 0.06782594 0.10859235
v -0.00523593 0.06814149 0.11101917
v -0.00523593 0.06794518 0.11092775
v -0.00523593 0.06786129 0.11088866
v 0.01431807 0.06379108 0.10801622
v -0.00523593 0.06379108 0.10801622
v 0.01431807 0.06379108 0.10899065
v 0.01346249 0.06702791 0.11050006
v -0.00523593 0.06779698 0.11085867
v -0.00523593 0.06750826 0.11072405
v -0.00523593 0.06379108 0.10899065
v 0.01431807 0.06644366 0.11022757
f 1 2 3
f 1 3 11
f 1 11 12
f 1 12 4
f 1 4 8
f 1 8 2
f 2 5 6
f 2 6 7
f 2 7 3
f 2 8 9
f 2 9 10
f 2 10 5
f 3 7 6
f 3 6 18
f 3 18 13
f 3 13 11
f 4 12 17
f 4 17 16
f 4 16 15
f 4 15 10
f 4 10 9
f 4 9 8
f 5 13 14
f 5 14 6
f 5 10 15
f 5 15 16
f 5 16 17
f 5 17 13
f 6 14 18
f 11 13 17
f 11 17 12
f 13 18 14

