# https://github.com/mikedh/trimesh
v -0.00523593 0.08577335 0.11482762
v -0.00523593 0.08377910 0.11482762
v -0.00523593 0.08442296 0.11419783
v -0.00934395 0.08571751 0.11480149
v -0.00934395 0.08577335 0.11482762
v -0.00523593 0.08377910 0.11389759
v -0.00858194 0.08377910 0.11482762
v -0.00934395 0.08470721 0.11433038
v -0.00934395 0.08447528 0.11482762
v -0.00839013 0.08377910 0.11389759
v -0.00934395 0.08451959 0.11473248
f 1 2 6
f 1 6 3
f 1 3 4
f 1 4 5
f 1 5 9
f 1 9 7
f 1 7 2
f 2 7 10
f 2 10 6
f 3 6 10
f 3 10 8
f 3 8 4
f 4 8 11
f 4 11 9
f 4 9 5
f 7 9 10
f 8 10 11
f 9 11 10

