# https://github.com/mikedh/trimesh
v -0.01399382 0.09525623 0.12159737
v -0.01399382 0.10029133 0.12159737
v -0.01399382 0.09581694 0.12039477
v -0.01282823 0.09421099 0.12039477
v -0.01282745 0.09421099 0.12159737
v -0.01240930 0.10029133 0.12159737
v -0.01399382 0.09923597 0.12110526
v -0.01399382 0.09771157 0.12039477
v -0.01240930 0.09421099 0.12039477
v -0.01240930 0.09421099 0.12159737
v -0.01240930 0.09771157 0.12039477
v -0.01399382 0.09829550 0.12066684
f 1 2 7
f 1 7 12
f 1 12 8
f 1 8 3
f 1 3 4
f 1 4 5
f 1 5 10
f 1 10 6
f 1 6 2
f 2 6 7
f 3 8 11
f 3 11 9
f 3 9 4
f 4 9 10
f 4 10 5
f 6 11 12
f 6 12 7
f 6 10 9
f 6 9 11
f 8 12 11

