# https://github.com/mikedh/trimesh
v 0.01300092 0.09348155 0.12097470
v 0.01446458 0.09262067 0.12179261
v 0.01400176 0.09289800 0.12097470
v -0.00523593 0.09348155 0.12097470
v 0.01284087 0.09348155 0.12179245
v 0.01446458 0.09237499 0.12231950
v 0.01446458 0.09124498 0.12179261
v 0.01281773 0.09320579 0.12265156
v 0.01400176 0.08949119 0.12097470
v -0.00523593 0.08949119 0.12097470
v -0.00523593 0.09348155 0.12179245
v 0.01284087 0.09308705 0.12265156
v -0.00523400 0.09124498 0.12179261
v -0.00523400 0.09320579 0.12265156
v -0.00523400 0.09308705 0.12265156
v -0.00523593 0.09124537 0.12179245
f 1 2 3
f 1 3 9
f 1 9 10
f 1 10 4
f 1 4 11
f 1 11 5
f 1 5 2
f 2 6 7
f 2 7 9
f 2 9 3
f 2 5 8
f 2 8 6
f 4 10 16
f 4 16 11
f 5 11 14
f 5 14 8
f 6 8 12
f 6 12 7
f 7 12 15
f 7 15 13
f 7 13 10
f 7 10 9
f 8 14 15
f 8 15 12
f 10 13 15
f 10 15 16
f 11 16 15
f 11 15 14

