# https://github.com/mikedh/trimesh
v 0.02483696 0.06379095 0.10899054
v 0.02518490 0.06249104 0.10838435
v 0.02525089 0.06242154 0.10835193
v 0.02525689 0.06241777 0.10835011
v 0.02539486 0.06241777 0.10803911
v 0.02540386 0.06241777 0.10801631
v 0.02483696 0.06379095 0.10898730
v -0.00523293 0.06379095 0.10899054
v -0.00523293 0.06241777 0.10835011
v 0.02480096 0.06379095 0.10801631
v -0.00523293 0.06241777 0.10801631
v -0.00523293 0.06379095 0.10801631
f 1 2 3
f 1 3 4
f 1 4 5
f 1 5 6
f 1 6 7
f 1 7 10
f 1 10 12
f 1 12 8
f 1 8 2
f 2 8 9
f 2 9 3
f 3 9 4
f 4 9 11
f 4 11 6
f 4 6 5
f 6 10 7
f 6 11 12
f 6 12 10
f 8 12 11
f 8 11 9

