# https://github.com/mikedh/trimesh
v 0.02631890 0.06814149 0.11101917
v 0.02532500 0.06458315 0.10936014
v 0.02592651 0.06491999 0.10951710
v 0.02631890 0.06553746 0.10980488
v 0.02631890 0.06814149 0.10801622
v 0.01518979 0.06814149 0.11101917
v 0.01519801 0.06806569 0.11098389
v 0.02492673 0.06405383 0.10911322
v 0.02483745 0.06379108 0.10899065
v 0.01516629 0.06774290 0.11083339
v 0.01443908 0.06698831 0.11048154
v 0.01431807 0.06644366 0.11022757
v 0.01431807 0.06379108 0.10899065
v 0.02622139 0.06498940 0.10954914
v 0.02631890 0.06511929 0.10960970
v 0.02631890 0.06571930 0.10801622
v 0.01444613 0.06814149 0.10801622
v 0.01431807 0.06809422 0.10801622
v 0.01431807 0.06782594 0.10859235
v 0.01431807 0.06695254 0.11046479
v 0.02480103 0.06379108 0.10801622
v 0.02631890 0.06500175 0.10955473
v 0.01431807 0.06379108 0.10801622
f 1 2 3
f 1 3 4
f 1 4 15
f 1 15 22
f 1 22 16
f 1 16 5
f 1 5 17
f 1 17 6
f 1 6 7
f 1 7 2
f 2 8 9
f 2 9 3
f 2 7 10
f 2 10 11
f 2 11 12
f 2 12 13
f 2 13 8
f 3 9 14
f 3 14 15
f 3 15 4
f 5 16 21
f 5 21 23
f 5 23 18
f 5 18 17
f 6 17 18
f 6 18 19
f 6 19 20
f 6 20 7
f 7 20 11
f 7 11 10
f 8 13 9
f 9 21 22
f 9 22 14
f 9 13 23
f 9 23 21
f 11 20 12
f 12 20 19
f 12 19 18
f 12 18 23
f 12 23 13
f 14 22 15
f 16 22 21

