# https://github.com/mikedh/trimesh
v 0.00712300 0.07827633 0.11482762
v 0.00741577 0.07827633 0.11482762
v 0.00712300 0.07827633 0.11574501
v 0.00712300 0.07898077 0.11482762
v 0.00759545 0.07867493 0.11482762
v 0.00714996 0.07827633 0.11574501
v 0.00712300 0.07832067 0.11576577
v 0.00712300 0.07898077 0.11497023
v 0.00759545 0.07898077 0.11482762
v 0.00759545 0.07875306 0.11486416
v 0.00759545 0.07891850 0.11494130
v 0.00759545 0.07895753 0.11495949
v 0.00759545 0.07898077 0.11497023
f 1 2 6
f 1 6 3
f 1 3 7
f 1 7 8
f 1 8 4
f 1 4 9
f 1 9 5
f 1 5 2
f 2 5 6
f 3 6 7
f 4 8 13
f 4 13 9
f 5 9 13
f 5 13 12
f 5 12 11
f 5 11 10
f 5 10 6
f 6 10 11
f 6 11 12
f 6 12 13
f 6 13 7
f 7 13 8

