# https://github.com/mikedh/trimesh
v -0.01146847 0.08332439 0.11561102
v -0.01170180 0.08035507 0.11561102
v -0.01166651 0.07989908 0.11539837
v -0.01159788 0.07989908 0.11482769
v -0.01161749 0.08332439 0.11482769
v -0.03150000 0.08332439 0.11561102
v -0.01329005 0.07989908 0.11561102
v -0.03150000 0.07989908 0.11482769
v -0.03150000 0.08332439 0.11482769
v -0.03150000 0.07989908 0.11561102
f 1 2 3
f 1 3 4
f 1 4 5
f 1 5 9
f 1 9 6
f 1 6 10
f 1 10 7
f 1 7 2
f 2 7 3
f 3 7 10
f 3 10 8
f 3 8 4
f 4 8 9
f 4 9 5
f 6 9 8
f 6 8 10

