# https://github.com/mikedh/trimesh
v -0.01655063 0.08577354 0.11482762
v -0.02517243 0.08577354 0.11482762
v -0.01655063 0.07630751 0.11482762
v -0.01655063 0.06421015 0.10477251
v -0.01655148 0.05609817 0.10098915
v -0.02517243 0.06612608 0.10566519
v -0.02517243 0.07630751 0.11482762
v -0.01655148 0.05440638 0.10461538
v -0.01655063 0.06421015 0.10918440
v -0.02515555 0.05609817 0.10098915
v -0.02517243 0.06567166 0.10663236
v -0.02517243 0.06443429 0.10928871
v -0.02515555 0.05440638 0.10461538
f 1 2 7
f 1 7 3
f 1 3 9
f 1 9 4
f 1 4 5
f 1 5 6
f 1 6 2
f 2 6 11
f 2 11 12
f 2 12 7
f 3 7 13
f 3 13 8
f 3 8 9
f 4 9 8
f 4 8 5
f 5 8 13
f 5 13 10
f 5 10 6
f 6 10 11
f 7 12 13
f 10 13 11
f 11 13 12

