# https://github.com/mikedh/trimesh
v -0.00003366 -0.01300000 0.06247771
v -0.00003366 -0.00236665 0.06247771
v 0.01150528 -0.01300000 0.06247771
v -0.00003366 -0.01300000 0.07386099
v -0.00003366 -0.00217162 0.07386099
v 0.01244107 -0.00218222 0.07386099
v 0.01148938 -0.00238361 0.06247771
v 0.01150406 -0.00238467 0.06247771
v 0.01246187 -0.01300000 0.07386099
v 0.01245942 -0.00738548 0.07386099
f 1 2 7
f 1 7 8
f 1 8 3
f 1 3 9
f 1 9 4
f 1 4 5
f 1 5 2
f 2 5 6
f 2 6 7
f 3 8 9
f 4 9 10
f 4 10 6
f 4 6 5
f 6 10 8
f 6 8 7
f 8 10 9

