# https://github.com/mikedh/trimesh
v -0.01161524 -0.01299894 0.06174574
v -0.01246187 -0.01299894 0.07386210
v -0.01161159 -0.00238351 0.06174574
v -0.00003488 -0.01299894 0.06174574
v -0.01244605 -0.00216719 0.07386210
v -0.00003488 -0.01299894 0.07386210
v -0.01060317 -0.00228489 0.06174574
v -0.00003488 -0.00230080 0.06174574
v -0.00090463 -0.00217143 0.07386210
v -0.00003488 -0.00217249 0.07386210
f 1 2 3
f 1 3 7
f 1 7 8
f 1 8 4
f 1 4 6
f 1 6 2
f 2 5 3
f 2 6 10
f 2 10 9
f 2 9 5
f 3 5 7
f 4 8 10
f 4 10 6
f 5 9 7
f 7 9 10
f 7 10 8

