# https://github.com/mikedh/trimesh
v 0.00576940 -0.01202301 0.09005545
v 0.00576940 -0.01202301 0.09004997
v 0.00573374 -0.01202301 0.09006054
v 0.00573151 -0.01203013 0.09006054
v 0.00481548 -0.01300576 0.09006054
v 0.00390836 -0.01202301 0.08948314
v 0.00481548 -0.01300576 0.09004997
v 0.00360747 -0.01299999 0.08948314
v -0.01666122 -0.01202301 0.09006054
v -0.01680164 -0.01300576 0.09006054
v -0.01448369 -0.01202301 0.08948314
v -0.01700000 -0.01300576 0.09004997
v -0.01448369 -0.01299999 0.08948314
v -0.01700000 -0.01202301 0.09005878
v -0.01700000 -0.01300576 0.09005952
v -0.01474891 -0.01202301 0.08950004
v -0.01700000 -0.01202301 0.09004997
v -0.01474891 -0.01299999 0.08950004
f 1 2 6
f 1 6 11
f 1 11 16
f 1 16 17
f 1 17 14
f 1 14 9
f 1 9 3
f 1 3 4
f 1 4 5
f 1 5 7
f 1 7 2
f 2 7 8
f 2 8 6
f 3 9 10
f 3 10 5
f 3 5 4
f 5 10 15
f 5 15 12
f 5 12 7
f 6 8 13
f 6 13 11
f 7 12 13
f 7 13 8
f 9 14 15
f 9 15 10
f 11 13 18
f 11 18 16
f 12 15 14
f 12 14 17
f 12 17 16
f 12 16 18
f 12 18 13

