# https://github.com/mikedh/trimesh
v 0.00696013 0.01299990 0.08950000
v 0.00603131 0.01199922 0.09005005
v 0.00603131 0.01302513 0.09005005
v 0.01474935 0.01299990 0.08950000
v 0.00839685 0.01059388 0.08950000
v 0.00603131 0.01199922 0.09404956
v 0.00718240 0.01059388 0.09005005
v 0.00603131 0.01302513 0.09404956
v 0.01700000 0.01302513 0.09005005
v 0.01474935 0.01059388 0.08950000
v 0.00718240 0.01059388 0.09404956
v 0.01700000 0.01302513 0.09404956
v 0.01700000 0.01059388 0.09005005
v 0.01700000 0.01059388 0.09404956
f 1 2 3
f 1 3 9
f 1 9 4
f 1 4 10
f 1 10 5
f 1 5 2
f 2 6 8
f 2 8 3
f 2 5 7
f 2 7 11
f 2 11 6
f 3 8 12
f 3 12 9
f 4 9 13
f 4 13 10
f 5 10 13
f 5 13 14
f 5 14 11
f 5 11 7
f 6 11 14
f 6 14 12
f 6 12 8
f 9 12 14
f 9 14 13

