# https://github.com/mikedh/trimesh
v 0.02200000 -0.01300000 0.01918347
v 0.01760043 -0.01300000 0.02613980
v 0.01893790 -0.01264455 0.01918347
v 0.02041673 0.01293789 0.01918347
v 0.02200000 0.01289473 0.01963217
v 0.02200000 0.00823830 0.03253594
v 0.02198874 -0.01300000 0.03537031
v 0.01740101 -0.01300000 0.03029520
v 0.01740101 -0.00805159 0.02658014
v 0.01890639 0.00998509 0.01918347
v 0.01740101 -0.00011484 0.02648817
v 0.01892215 0.01286172 0.01994989
v 0.02200000 0.01268907 0.02133503
v 0.02200000 0.00963218 0.03002765
v 0.01740101 0.00887557 0.03141278
v 0.01760764 -0.00022148 0.04765537
v 0.02198559 0.00647881 0.03541490
v 0.02189151 0.00569173 0.03666626
v 0.02185684 -0.01300000 0.03688365
v 0.01766391 -0.01300000 0.04755782
v 0.01740101 0.00621984 0.02647424
v 0.01745863 0.01072393 0.02647702
v 0.01798038 0.01176490 0.02505287
v 0.01870201 0.01257736 0.02192308
v 0.02200000 0.01229808 0.02318559
v 0.02200000 0.01038371 0.02850595
v 0.01740101 0.01004095 0.02920549
v 0.01855391 0.00049451 0.04585218
v 0.01923772 0.00112924 0.04449213
v 0.01985896 0.00179953 0.04317110
v 0.02041448 0.00250282 0.04189187
v 0.02084665 0.00314771 0.04077707
v 0.02125496 0.00389162 0.03954522
v 0.02167677 0.00490974 0.03790647
v 0.02184154 -0.00442343 0.03702578
v 0.02170243 -0.00467479 0.03780893
v 0.02155567 -0.01300000 0.03844436
v 0.01924222 -0.01300000 0.04449770
v 0.01740101 0.01073155 0.02773674
v 0.02200000 0.01178775 0.02499713
v 0.01837924 0.01219906 0.02359528
v 0.02200000 0.01136882 0.02618160
v 0.02200000 0.01090166 0.02735214
v 0.02002913 -0.01300000 0.04280321
v 0.02055358 -0.01300000 0.04155186
v 0.02073546 -0.00883613 0.04108085
v 0.02109605 -0.01300000 0.04004967
f 1 2 3
f 1 3 10
f 1 10 4
f 1 4 5
f 1 5 13
f 1 13 25
f 1 25 40
f 1 40 42
f 1 42 43
f 1 43 26
f 1 26 14
f 1 14 6
f 1 6 7
f 1 7 19
f 1 19 37
f 1 37 47
f 1 47 45
f 1 45 44
f 1 44 38
f 1 38 20
f 1 20 8
f 1 8 2
f 2 8 9
f 2 9 3
f 3 9 11
f 3 11 10
f 4 12 5
f 4 10 12
f 5 12 13
f 6 14 15
f 6 15 16
f 6 16 17
f 6 17 7
f 7 17 18
f 7 18 19
f 8 20 16
f 8 16 15
f 8 15 27
f 8 27 39
f 8 39 21
f 8 21 11
f 8 11 9
f 10 11 21
f 10 21 22
f 10 22 12
f 12 22 23
f 12 23 24
f 12 24 13
f 13 24 25
f 14 26 27
f 14 27 15
f 16 20 28
f 16 28 29
f 16 29 30
f 16 30 31
f 16 31 32
f 16 32 33
f 16 33 34
f 16 34 18
f 16 18 17
f 18 34 35
f 18 35 19
f 19 35 36
f 19 36 37
f 20 38 28
f 21 39 22
f 22 39 23
f 23 40 41
f 23 41 24
f 23 39 42
f 23 42 40
f 24 41 25
f 25 41 40
f 26 39 27
f 26 43 39
f 28 38 29
f 29 38 30
f 30 38 44
f 30 44 31
f 31 44 45
f 31 45 46
f 31 46 32
f 32 46 47
f 32 47 33
f 33 47 37
f 33 37 34
f 34 36 35
f 34 37 36
f 39 43 42
f 45 47 46

