# https://github.com/mikedh/trimesh
v 0.02199971 -0.00499176 0.00024960
v 0.01900029 -0.00499176 0.00024960
v 0.02199971 -0.00581510 0.00024960
v 0.02199971 -0.00391030 -0.00311210
v 0.01900029 -0.00391030 -0.00311210
v 0.01900029 -0.00682662 0.00024960
v 0.02099980 -0.00682662 0.00024960
v 0.02199971 -0.00753706 -0.00215312
v 0.02199971 -0.00753706 -0.00311210
v 0.01900029 -0.00753706 -0.00311210
v 0.01900029 -0.00753706 -0.00110725
v 0.02099980 -0.00753706 -0.00110725
v 0.02198825 -0.00753706 -0.00213864
f 1 2 6
f 1 6 7
f 1 7 3
f 1 3 8
f 1 8 9
f 1 9 4
f 1 4 5
f 1 5 2
f 2 5 10
f 2 10 11
f 2 11 6
f 3 7 8
f 4 9 10
f 4 10 5
f 6 11 12
f 6 12 7
f 7 12 13
f 7 13 8
f 8 13 12
f 8 12 11
f 8 11 10
f 8 10 9

