# https://github.com/mikedh/trimesh
v -0.02199971 -0.00394944 0.00306372
v -0.02199971 -0.00004175 0.00499912
v -0.01900029 -0.00394944 0.00306372
v -0.02199971 -0.00394944 0.00744097
v -0.02199971 -0.00004175 0.00580079
v -0.01900029 -0.00004175 0.00499912
v -0.01900029 -0.00394944 0.00744097
v -0.02199971 -0.00212641 0.00744097
v -0.02185170 -0.00004175 0.00595032
v -0.01900029 -0.00004175 0.00680084
v -0.01900029 -0.00106151 0.00744097
v -0.02099980 -0.00106151 0.00744097
v -0.02099980 -0.00004175 0.00680084
v -0.02125000 -0.00004175 0.00655233
v -0.02149990 -0.00004175 0.00630296
v -0.02174980 -0.00004175 0.00605316
f 1 2 6
f 1 6 3
f 1 3 7
f 1 7 4
f 1 4 8
f 1 8 5
f 1 5 2
f 2 5 9
f 2 9 16
f 2 16 15
f 2 15 14
f 2 14 13
f 2 13 10
f 2 10 6
f 3 6 10
f 3 10 11
f 3 11 7
f 4 7 11
f 4 11 12
f 4 12 8
f 5 8 9
f 8 12 13
f 8 13 14
f 8 14 15
f 8 15 16
f 8 16 9
f 10 13 12
f 10 12 11

