# https://github.com/mikedh/trimesh
v -0.00425000 -0.01440841 0.09006059
v -0.00425000 -0.01440841 0.09059012
v -0.00425000 -0.01321099 0.09006059
v 0.00600926 -0.01440841 0.09006059
v -0.00425000 -0.01440325 0.09405000
v 0.00558848 -0.01440841 0.09405000
v -0.00425000 -0.01321099 0.09405000
v 0.00480016 -0.01321099 0.09006059
v 0.00600926 -0.01439962 0.09006059
v 0.00600926 -0.01440841 0.09405000
v 0.00480016 -0.01321099 0.09405000
v 0.00600926 -0.01439962 0.09405000
f 1 2 5
f 1 5 7
f 1 7 3
f 1 3 8
f 1 8 9
f 1 9 4
f 1 4 10
f 1 10 6
f 1 6 2
f 2 6 5
f 3 7 11
f 3 11 8
f 4 9 12
f 4 12 10
f 5 6 10
f 5 10 12
f 5 12 11
f 5 11 7
f 8 11 12
f 8 12 9

