# https://github.com/mikedh/trimesh
v 0.01900029 -0.00389878 0.00312966
v 0.01900029 -0.00000757 0.00500019
v 0.02199971 -0.00389878 0.00312966
v 0.01900029 -0.00389878 0.00745750
v 0.02199971 -0.00000757 0.00500019
v 0.01900029 -0.00000757 0.00680038
v 0.02199971 -0.00389878 0.00745750
v 0.01900029 -0.00107532 0.00745750
v 0.02199971 -0.00000757 0.00580093
v 0.02099980 -0.00000757 0.00680038
v 0.01918119 -0.00107037 0.00745750
v 0.02199971 -0.00213088 0.00745750
v 0.02191954 -0.00000757 0.00588185
v 0.02125000 -0.00000757 0.00655253
v 0.02099980 -0.00107037 0.00745750
v 0.02174980 -0.00000757 0.00605302
v 0.02162500 -0.00000757 0.00617800
f 1 2 5
f 1 5 3
f 1 3 7
f 1 7 4
f 1 4 8
f 1 8 6
f 1 6 2
f 2 6 10
f 2 10 14
f 2 14 17
f 2 17 16
f 2 16 13
f 2 13 9
f 2 9 5
f 3 5 9
f 3 9 12
f 3 12 7
f 4 7 12
f 4 12 15
f 4 15 11
f 4 11 8
f 6 8 11
f 6 11 15
f 6 15 10
f 9 13 12
f 10 15 12
f 10 12 14
f 12 13 16
f 12 16 17
f 12 17 14

