# https://github.com/mikedh/trimesh
v 0.02099980 -0.00917362 0.00024960
v 0.01900029 -0.00917362 0.00024960
v 0.02174980 -0.00993237 0.00024960
v 0.02099980 -0.00753741 -0.00110725
v 0.01900029 -0.01300000 0.00024960
v 0.01900029 -0.00753741 -0.00110725
v 0.02199971 -0.01018529 0.00024960
v 0.02198825 -0.00753741 -0.00213864
v 0.01900029 -0.01300000 -0.00000018
v 0.02199971 -0.01300000 0.00024960
v 0.01900029 -0.00753741 -0.00311210
v 0.02199971 -0.00753741 -0.00215312
v 0.02199971 -0.01300000 -0.00000018
v 0.01900029 -0.01038795 -0.00311210
v 0.02199971 -0.00753741 -0.00311210
v 0.02199971 -0.01038795 -0.00311210
f 1 2 5
f 1 5 10
f 1 10 7
f 1 7 3
f 1 3 4
f 1 4 6
f 1 6 2
f 2 6 11
f 2 11 14
f 2 14 9
f 2 9 5
f 3 7 4
f 4 8 12
f 4 12 15
f 4 15 11
f 4 11 6
f 4 7 8
f 5 9 13
f 5 13 10
f 7 10 13
f 7 13 16
f 7 16 15
f 7 15 12
f 7 12 8
f 9 14 16
f 9 16 13
f 11 15 16
f 11 16 14

