# https://github.com/mikedh/trimesh
v 0.02199971 0.00992921 -0.00838815
v 0.02199971 0.00945584 -0.00892129
v 0.01900029 0.00992921 -0.00838815
v 0.02199971 0.00216567 -0.00838815
v 0.01900029 0.00945584 -0.00892129
v 0.02199971 0.00892025 -0.00945624
v 0.01900029 0.00113532 -0.00838815
v 0.02099980 0.00113532 -0.00838815
v 0.02099980 0.00000097 -0.00919982
v 0.02125000 0.00000097 -0.00944766
v 0.02161619 0.00000097 -0.00981333
v 0.02174980 0.00000097 -0.00994695
v 0.02190926 0.00000097 -0.01010766
v 0.02199971 0.00000097 -0.01019930
v 0.01900029 0.00892025 -0.00945624
v 0.02199971 0.00835551 -0.00995869
v 0.01900029 0.00000097 -0.00919982
v 0.02199971 0.00000097 -0.01299955
v 0.01900029 0.00835551 -0.00995869
v 0.02199971 0.00776257 -0.01042773
v 0.01900029 0.00000097 -0.01299955
v 0.02199971 0.00075623 -0.01297788
v 0.01900029 0.00776257 -0.01042773
v 0.02199971 0.00714339 -0.01086110
v 0.01900029 0.00075623 -0.01297788
v 0.02199971 0.00150955 -0.01291197
v 0.01900029 0.00714339 -0.01086110
v 0.02199971 0.00649992 -0.01125792
v 0.01900029 0.00150955 -0.01291197
v 0.02199971 0.00225801 -0.01280227
v 0.01900029 0.00649992 -0.01125792
v 0.02199971 0.00583408 -0.01161681
v 0.01900029 0.00225801 -0.01280227
v 0.02199971 0.00299869 -0.01264924
v 0.01900029 0.00583408 -0.01161681
v 0.02199971 0.00514880 -0.01193642
v 0.01900029 0.00299869 -0.01264924
v 0.02199971 0.00372868 -0.01245377
v 0.01900029 0.00514880 -0.01193642
v 0.02199971 0.00444700 -0.01221586
v 0.01900029 0.00372868 -0.01245377
v 0.01900029 0.00444700 -0.01221586
f 1 2 5
f 1 5 3
f 1 3 7
f 1 7 8
f 1 8 4
f 1 4 14
f 1 14 18
f 1 18 22
f 1 22 26
f 1 26 30
f 1 30 34
f 1 34 38
f 1 38 40
f 1 40 36
f 1 36 32
f 1 32 28
f 1 28 24
f 1 24 20
f 1 20 16
f 1 16 6
f 1 6 2
f 2 6 15
f 2 15 5
f 3 5 15
f 3 15 19
f 3 19 23
f 3 23 27
f 3 27 31
f 3 31 35
f 3 35 39
f 3 39 42
f 3 42 41
f 3 41 37
f 3 37 33
f 3 33 29
f 3 29 25
f 3 25 21
f 3 21 17
f 3 17 7
f 4 8 9
f 4 9 10
f 4 10 11
f 4 11 12
f 4 12 13
f 4 13 14
f 6 16 19
f 6 19 15
f 7 17 9
f 7 9 8
f 9 17 21
f 9 21 18
f 9 18 14
f 9 14 13
f 9 13 12
f 9 12 11
f 9 11 10
f 16 20 23
f 16 23 19
f 18 21 25
f 18 25 22
f 20 24 27
f 20 27 23
f 22 25 29
f 22 29 26
f 24 28 31
f 24 31 27
f 26 29 33
f 26 33 30
f 28 32 35
f 28 35 31
f 30 33 37
f 30 37 34
f 32 36 39
f 32 39 35
f 34 37 41
f 34 41 38
f 36 40 42
f 36 42 39
f 38 41 42
f 38 42 40

