# https://github.com/mikedh/trimesh
v -0.00003488 -0.01300000 0.04957739
v -0.00003488 -0.01300000 0.06247644
v -0.00003488 -0.00070995 0.04957739
v 0.01452543 -0.01300000 0.04957739
v -0.00003488 -0.00236667 0.06247644
v 0.01150534 -0.01300000 0.06247644
v 0.00008199 -0.00070995 0.04957739
v 0.01452543 -0.00084109 0.04957739
v 0.01452543 -0.01300000 0.05353108
v 0.01148966 -0.00238351 0.06247644
v 0.01452543 -0.00731758 0.05352982
v 0.01150391 -0.00238472 0.06247644
v 0.00903396 -0.00072920 0.04957739
v 0.01452543 -0.00177834 0.05348309
v 0.01340092 -0.00080620 0.04957739
f 1 2 5
f 1 5 3
f 1 3 7
f 1 7 13
f 1 13 15
f 1 15 8
f 1 8 4
f 1 4 9
f 1 9 6
f 1 6 2
f 2 6 12
f 2 12 10
f 2 10 5
f 3 5 7
f 4 8 14
f 4 14 11
f 4 11 9
f 5 10 7
f 6 9 11
f 6 11 12
f 7 10 13
f 8 15 10
f 8 10 12
f 8 12 14
f 10 15 13
f 11 14 12

