# https://github.com/mikedh/trimesh
v 0.00588079 -0.01002467 0.03458299
v 0.01452543 -0.01130913 0.03079283
v 0.00596710 -0.01300000 0.03458299
v 0.00589179 -0.00013155 0.03458299
v 0.01452543 0.00362619 0.03077231
v 0.01452543 -0.01300000 0.03083460
v 0.01452543 -0.01300000 0.03458299
v 0.00595526 0.00700142 0.03458299
v 0.01452543 0.00729699 0.03080812
v 0.01452543 0.00697534 0.03458299
v 0.00801169 0.00700359 0.03458299
v 0.00885373 0.00739045 0.03394924
v 0.00972201 0.00755997 0.03367135
v 0.01113697 0.00790336 0.03310214
v 0.01239537 0.00829456 0.03244303
v 0.01299199 0.00851190 0.03206554
v 0.01356576 0.00874662 0.03165448
v 0.01411584 0.00899656 0.03120873
v 0.01452543 0.00920303 0.03083348
v 0.01452543 0.00712747 0.03433718
v 0.01148648 0.00699707 0.03458299
v 0.00977278 0.00700359 0.03458299
v 0.01047688 0.00773166 0.03338712
v 0.01452543 0.00758388 0.03359190
v 0.01452543 0.00812069 0.03270898
v 0.01177675 0.00809027 0.03278769
v 0.01044218 0.00700142 0.03458299
v 0.01099056 0.00699924 0.03458299
v 0.01452543 0.00851842 0.03203495
v 0.01452543 0.00887920 0.03140568
f 1 2 3
f 1 3 7
f 1 7 10
f 1 10 21
f 1 21 28
f 1 28 27
f 1 27 22
f 1 22 11
f 1 11 8
f 1 8 4
f 1 4 5
f 1 5 2
f 2 6 3
f 2 5 9
f 2 9 19
f 2 19 30
f 2 30 29
f 2 29 25
f 2 25 24
f 2 24 20
f 2 20 10
f 2 10 7
f 2 7 6
f 3 6 7
f 4 8 5
f 5 8 9
f 8 11 12
f 8 12 13
f 8 13 14
f 8 14 15
f 8 15 16
f 8 16 17
f 8 17 18
f 8 18 19
f 8 19 9
f 10 20 21
f 11 22 12
f 12 22 13
f 13 22 23
f 13 23 14
f 14 24 25
f 14 25 26
f 14 26 15
f 14 23 27
f 14 27 28
f 14 28 21
f 14 21 24
f 15 26 25
f 15 25 29
f 15 29 16
f 16 29 17
f 17 29 18
f 18 29 30
f 18 30 19
f 20 24 21
f 22 27 23

