# https://github.com/mikedh/trimesh
v -0.02199971 0.00768348 -0.01048332
v -0.02199971 0.00776311 -0.01042753
v -0.01900029 0.00768348 -0.01048332
v -0.02199971 0.00768348 -0.00217781
v -0.01900029 0.00776311 -0.01042753
v -0.02199971 0.00835637 -0.00995804
v -0.01900029 0.00768348 -0.00115778
v -0.02099980 0.00768348 -0.00115778
v -0.02199971 0.01018302 0.00027069
v -0.01900029 0.00835637 -0.00995804
v -0.02199971 0.00892154 -0.00945487
v -0.01900029 0.00916874 0.00027069
v -0.02099980 0.00916874 0.00027069
v -0.02199971 0.01299948 0.00027069
v -0.01900029 0.00892154 -0.00945487
v -0.02199971 0.00945600 -0.00892012
v -0.01900029 0.01299948 0.00027069
v -0.02199971 0.01299948 -0.00000090
v -0.01900029 0.00945600 -0.00892012
v -0.02199971 0.00995872 -0.00835589
v -0.01900029 0.01299948 -0.00000090
v -0.02199971 0.01297762 -0.00075671
v -0.01900029 0.00995872 -0.00835589
v -0.02199971 0.01042709 -0.00776219
v -0.01900029 0.01297762 -0.00075671
v -0.02199971 0.01291205 -0.00150936
v -0.01900029 0.01042709 -0.00776219
v -0.02199971 0.01086111 -0.00714322
v -0.01900029 0.01291205 -0.00150936
v -0.02199971 0.01280224 -0.00225781
v -0.01900029 0.01086111 -0.00714322
v -0.02199971 0.01125819 -0.00649899
v -0.01900029 0.01280224 -0.00225781
v -0.02199971 0.01264924 -0.00299889
v -0.01900029 0.01125819 -0.00649899
v -0.02199971 0.01161675 -0.00583371
v -0.01900029 0.01264924 -0.00299889
v -0.02199971 0.01245357 -0.00372943
v -0.01900029 0.01161675 -0.00583371
v -0.02199971 0.01193680 -0.00514842
v -0.01900029 0.01245357 -0.00372943
v -0.02199971 0.01221574 -0.00444630
v -0.01900029 0.01193680 -0.00514842
v -0.01900029 0.01221574 -0.00444630
f 1 2 5
f 1 5 3
f 1 3 7
f 1 7 8
f 1 8 4
f 1 4 9
f 1 9 14
f 1 14 18
f 1 18 22
f 1 22 26
f 1 26 30
f 1 30 34
f 1 34 38
f 1 38 42
f 1 42 40
f 1 40 36
f 1 36 32
f 1 32 28
f 1 28 24
f 1 24 20
f 1 20 16
f 1 16 11
f 1 11 6
f 1 6 2
f 2 6 10
f 2 10 5
f 3 5 10
f 3 10 15
f 3 15 19
f 3 19 23
f 3 23 27
f 3 27 31
f 3 31 35
f 3 35 39
f 3 39 43
f 3 43 44
f 3 44 41
f 3 41 37
f 3 37 33
f 3 33 29
f 3 29 25
f 3 25 21
f 3 21 17
f 3 17 12
f 3 12 7
f 4 8 9
f 6 11 15
f 6 15 10
f 7 12 13
f 7 13 8
f 8 13 9
f 9 13 12
f 9 12 17
f 9 17 14
f 11 16 19
f 11 19 15
f 14 17 21
f 14 21 18
f 16 20 23
f 16 23 19
f 18 21 25
f 18 25 22
f 20 24 27
f 20 27 23
f 22 25 29
f 22 29 26
f 24 28 31
f 24 31 27
f 26 29 33
f 26 33 30
f 28 32 35
f 28 35 31
f 30 33 37
f 30 37 34
f 32 36 39
f 32 39 35
f 34 37 41
f 34 41 38
f 36 40 43
f 36 43 39
f 38 41 44
f 38 44 42
f 40 42 44
f 40 44 43

