# https://github.com/mikedh/trimesh
v -0.02199971 -0.00880537 -0.00499952
v -0.02199971 -0.00225778 -0.01280175
v -0.01900029 -0.00880537 -0.00499952
v -0.02199971 -0.00880537 -0.00204744
v -0.02199971 -0.00218389 -0.01281327
v -0.01900029 -0.00225778 -0.01280175
v -0.01900029 -0.00880537 -0.00088965
v -0.02099980 -0.00880537 -0.00088965
v -0.02199971 -0.00581676 0.00027069
v -0.01900029 -0.00218389 -0.01281327
v -0.02199971 -0.00218389 -0.00449748
v -0.01900029 -0.00683111 0.00027069
v -0.02099980 -0.00683111 0.00027069
v -0.02125000 -0.00657769 0.00027069
v -0.02199971 -0.00499102 0.00027069
v -0.01900029 -0.00218389 -0.00449748
v -0.01900029 -0.00499102 0.00027069
f 1 2 6
f 1 6 3
f 1 3 7
f 1 7 8
f 1 8 4
f 1 4 9
f 1 9 15
f 1 15 11
f 1 11 5
f 1 5 2
f 2 5 10
f 2 10 6
f 3 6 10
f 3 10 16
f 3 16 17
f 3 17 12
f 3 12 7
f 4 8 9
f 5 11 16
f 5 16 10
f 7 12 13
f 7 13 8
f 8 13 14
f 8 14 9
f 9 14 13
f 9 13 12
f 9 12 17
f 9 17 15
f 11 15 17
f 11 17 16

