# https://github.com/mikedh/trimesh
v -0.00425017 -0.00005713 0.09245970
v -0.00425017 -0.00005713 0.09006083
v -0.00599436 -0.00005713 0.09245970
v -0.00425017 -0.01313105 0.09245970
v -0.00599436 -0.00005713 0.09006083
v -0.00425017 -0.01313105 0.09006083
v -0.00599436 -0.01199953 0.09245970
v -0.00480203 -0.01313105 0.09245970
v -0.00599436 -0.01199953 0.09006083
v -0.00480203 -0.01313105 0.09006083
f 1 2 5
f 1 5 3
f 1 3 7
f 1 7 8
f 1 8 4
f 1 4 6
f 1 6 2
f 2 6 10
f 2 10 9
f 2 9 5
f 3 5 9
f 3 9 7
f 4 8 10
f 4 10 6
f 7 9 10
f 7 10 8

