# https://github.com/mikedh/trimesh
v 0.01452544 0.00153519 0.04374512
v 0.01740028 0.00151624 0.04374512
v 0.01740028 0.00783393 0.03317593
v 0.01452544 0.00812056 0.03271096
v 0.01452544 -0.01300000 0.04374512
v 0.01740028 -0.01300000 0.04374512
v 0.01740028 0.00887385 0.03141073
v 0.01452544 0.00851852 0.03203633
v 0.01452544 -0.01300000 0.03083586
v 0.01740028 -0.01300000 0.03029481
v 0.01740028 0.00975269 0.02979264
v 0.01463407 0.00925523 0.03073441
v 0.01452544 0.00920075 0.03083417
v 0.01452544 0.00887859 0.03140566
v 0.01506241 -0.01300000 0.03029481
v 0.01452544 -0.01130865 0.03079359
v 0.01740028 -0.00748535 0.02653616
v 0.01740028 -0.00862002 0.02662070
v 0.01737635 -0.00869108 0.02667819
v 0.01740028 -0.01227277 0.02968443
v 0.01511954 0.00952528 0.03023225
v 0.01740028 0.00997299 0.02935134
v 0.01599395 0.01007722 0.02914675
v 0.01557349 0.00980006 0.02970134
v 0.01638177 0.01035437 0.02856850
v 0.01673806 0.01062916 0.02796996
v 0.01706424 0.01089921 0.02735281
v 0.01736088 0.01116215 0.02671538
v 0.01740028 0.01120005 0.02661901
v 0.01740028 0.01015302 0.02658519
v 0.01740028 0.00621838 0.02647191
v 0.01452544 0.00729620 0.03080881
v 0.01452544 0.00362687 0.03077330
v 0.01740028 -0.00012063 0.02648543
v 0.01740028 -0.00915301 0.02706707
v 0.01740028 0.01022409 0.02883226
v 0.01740028 0.01059836 0.02803759
v 0.01740028 0.01086367 0.02743059
v 0.01740028 0.01115978 0.02672046
f 1 2 3
f 1 3 4
f 1 4 8
f 1 8 14
f 1 14 13
f 1 13 32
f 1 32 33
f 1 33 16
f 1 16 9
f 1 9 5
f 1 5 6
f 1 6 2
f 2 6 10
f 2 10 20
f 2 20 35
f 2 35 18
f 2 18 17
f 2 17 34
f 2 34 31
f 2 31 30
f 2 30 29
f 2 29 39
f 2 39 38
f 2 38 37
f 2 37 36
f 2 36 22
f 2 22 11
f 2 11 7
f 2 7 3
f 3 7 8
f 3 8 4
f 5 9 15
f 5 15 10
f 5 10 6
f 7 11 12
f 7 12 13
f 7 13 14
f 7 14 8
f 9 16 17
f 9 17 18
f 9 18 15
f 10 19 20
f 10 15 19
f 11 21 12
f 11 22 23
f 11 23 24
f 11 24 21
f 12 21 13
f 13 21 24
f 13 24 23
f 13 23 25
f 13 25 26
f 13 26 27
f 13 27 28
f 13 28 29
f 13 29 30
f 13 30 31
f 13 31 32
f 15 18 19
f 16 33 31
f 16 31 34
f 16 34 17
f 18 35 19
f 19 35 20
f 22 36 23
f 23 36 25
f 25 36 37
f 25 37 26
f 26 37 27
f 27 37 38
f 27 38 39
f 27 39 28
f 28 39 29
f 31 33 32

