# https://github.com/mikedh/trimesh
v 0.01900016 -0.01300000 0.00024961
v 0.01900016 -0.00499222 0.00024961
v 0.02200000 -0.01300000 0.00024961
v 0.01896927 -0.01300000 0.01918347
v 0.01890566 -0.01229178 0.01918347
v 0.02200000 -0.00499222 0.00024961
v 0.01890566 -0.00389916 0.01918347
v 0.01900016 -0.00389916 0.00312972
v 0.02200000 -0.01300000 0.01918347
v 0.02200000 -0.00389916 0.00312972
v 0.02200000 -0.00389916 0.01918347
f 1 2 6
f 1 6 3
f 1 3 9
f 1 9 4
f 1 4 5
f 1 5 7
f 1 7 2
f 2 7 8
f 2 8 10
f 2 10 6
f 3 6 10
f 3 10 11
f 3 11 9
f 4 9 11
f 4 11 7
f 4 7 5
f 7 11 10
f 7 10 8

