# https://github.com/mikedh/trimesh
v -0.02199971 -0.00004175 0.00499894
v -0.01900029 -0.00004175 0.00499894
v -0.02199971 -0.00004175 0.00580119
v -0.02199971 0.00329131 0.00376386
v -0.01900029 0.00329131 0.00376386
v -0.01900029 -0.00004175 0.00680051
v -0.02174980 -0.00004175 0.00605331
v -0.02199971 0.00219313 0.00783892
v -0.02199971 0.00329131 0.00783892
v -0.01900029 0.00329131 0.00783892
v -0.02099980 -0.00004175 0.00680051
v -0.01900029 0.00118890 0.00783892
v -0.02156803 -0.00004175 0.00623483
v -0.02125000 0.00143979 0.00783892
v -0.02125000 -0.00004175 0.00655238
v -0.02102917 -0.00004175 0.00677139
v -0.02099980 0.00118890 0.00783892
v -0.02113224 0.00132169 0.00783892
f 1 2 6
f 1 6 11
f 1 11 16
f 1 16 15
f 1 15 13
f 1 13 7
f 1 7 3
f 1 3 8
f 1 8 9
f 1 9 4
f 1 4 5
f 1 5 2
f 2 5 10
f 2 10 12
f 2 12 6
f 3 7 8
f 4 9 10
f 4 10 5
f 6 12 17
f 6 17 11
f 7 13 8
f 8 14 18
f 8 18 17
f 8 17 12
f 8 12 10
f 8 10 9
f 8 13 15
f 8 15 16
f 8 16 11
f 8 11 14
f 11 17 18
f 11 18 14

