# https://github.com/mikedh/trimesh
v 0.02099980 0.00682654 0.00024960
v 0.02199971 0.00756320 -0.00215542
v 0.02099980 0.00756320 -0.00111745
v 0.01900029 0.00682654 0.00024960
v 0.02199971 0.00581489 0.00024960
v 0.02199971 0.00756320 -0.00311210
v 0.01900029 0.00756320 -0.00111745
v 0.01900029 0.00499169 0.00024960
v 0.02199971 0.00499169 0.00024960
v 0.01900029 0.00756320 -0.00311210
v 0.02199971 0.00391066 -0.00311210
v 0.01900029 0.00391066 -0.00311210
f 1 2 3
f 1 3 7
f 1 7 4
f 1 4 8
f 1 8 9
f 1 9 5
f 1 5 2
f 2 6 10
f 2 10 7
f 2 7 3
f 2 5 9
f 2 9 11
f 2 11 6
f 4 7 10
f 4 10 12
f 4 12 8
f 6 11 12
f 6 12 10
f 8 12 11
f 8 11 9

