# https://github.com/mikedh/trimesh
v 0.00768156 -0.01300000 0.07386363
v 0.00768156 -0.00217801 0.07386363
v 0.01246127 -0.01300000 0.07386363
v 0.00768156 -0.01300000 0.07970011
v 0.00768156 -0.00216186 0.07466486
v 0.01244129 -0.00218232 0.07386363
v 0.01245927 -0.00738493 0.07386363
v 0.01328109 -0.01300000 0.07873373
v 0.00839216 -0.01300000 0.08948313
v 0.00768156 -0.01148692 0.08948313
v 0.00768156 -0.00204663 0.08048911
v 0.01363938 -0.00203801 0.08114508
v 0.01401832 -0.01300000 0.08416654
v 0.01448450 -0.01300000 0.08948313
v 0.00768156 -0.00199924 0.08948313
v 0.00768156 -0.00203370 0.08171390
v 0.00768156 -0.00203155 0.08199984
v 0.01413420 -0.00200893 0.08524912
v 0.01448517 -0.01295585 0.08948313
v 0.01448450 -0.00199817 0.08948313
v 0.00768156 -0.00200570 0.08652896
v 0.00768156 -0.00201109 0.08491273
f 1 2 6
f 1 6 7
f 1 7 3
f 1 3 8
f 1 8 13
f 1 13 14
f 1 14 9
f 1 9 4
f 1 4 10
f 1 10 15
f 1 15 21
f 1 21 22
f 1 22 17
f 1 17 16
f 1 16 11
f 1 11 5
f 1 5 2
f 2 5 6
f 3 7 8
f 4 9 10
f 5 11 12
f 5 12 6
f 6 8 7
f 6 12 8
f 8 12 13
f 9 14 19
f 9 19 20
f 9 20 15
f 9 15 10
f 11 16 12
f 12 16 17
f 12 17 18
f 12 18 13
f 13 18 19
f 13 19 14
f 15 20 21
f 17 22 18
f 18 22 21
f 18 21 20
f 18 20 19

