# https://github.com/mikedh/trimesh
v -0.02099975 -0.00004175 0.00919905
v -0.02099975 0.00118890 0.00783932
v -0.01900015 -0.00004175 0.00919905
v -0.02124996 -0.00004175 0.00944779
v -0.02113228 0.00132169 0.00783932
v -0.01900015 0.00118890 0.00783932
v -0.02149987 -0.00004175 0.00969765
v -0.02199970 -0.00004175 0.01019960
v -0.01890158 -0.00004175 0.01923467
v -0.02124996 0.00143979 0.00783932
v -0.01900015 0.00329131 0.00783932
v -0.02199970 -0.00004175 0.01923467
v -0.02199970 0.00219313 0.00783932
v -0.01890158 0.00329131 0.01923467
v -0.02199970 0.00329131 0.00783932
v -0.02199970 0.00329131 0.01923467
f 1 2 6
f 1 6 3
f 1 3 9
f 1 9 12
f 1 12 8
f 1 8 7
f 1 7 4
f 1 4 2
f 2 5 10
f 2 10 13
f 2 13 15
f 2 15 11
f 2 11 6
f 2 4 7
f 2 7 8
f 2 8 5
f 3 6 9
f 5 8 10
f 6 11 14
f 6 14 9
f 8 12 16
f 8 16 15
f 8 15 13
f 8 13 10
f 9 14 16
f 9 16 12
f 11 15 16
f 11 16 14

