# https://github.com/mikedh/trimesh
v -0.02199971 -0.01300000 -0.00000012
v -0.01900029 -0.01300000 -0.00000012
v -0.02199971 -0.01300000 0.00027069
v -0.02199971 -0.00880537 -0.00499897
v -0.01900029 -0.01300000 0.00027069
v -0.01900029 -0.00880537 -0.00499897
v -0.02199971 -0.01018291 0.00027069
v -0.02199971 -0.00880537 -0.00204691
v -0.01900029 -0.00916875 0.00027069
v -0.01900029 -0.00880537 -0.00088940
v -0.02125000 -0.00942249 0.00027069
v -0.02099980 -0.00880537 -0.00088940
v -0.02099980 -0.00916875 0.00027069
f 1 2 5
f 1 5 3
f 1 3 7
f 1 7 8
f 1 8 4
f 1 4 6
f 1 6 2
f 2 6 10
f 2 10 9
f 2 9 5
f 3 5 9
f 3 9 13
f 3 13 11
f 3 11 7
f 4 8 12
f 4 12 10
f 4 10 6
f 7 11 8
f 8 11 13
f 8 13 12
f 9 10 12
f 9 12 13

