# https://github.com/mikedh/trimesh
v -0.01699889 -0.01440841 0.09005023
v -0.01699889 -0.01440841 0.09245970
v -0.01699889 -0.01300576 0.09005023
v -0.00566012 -0.01440841 0.09005023
v -0.01699889 -0.01308169 0.09245970
v -0.00599648 -0.01440841 0.09245970
v -0.01699889 -0.01300576 0.09005967
v -0.00718431 -0.01300576 0.09005023
v -0.00566012 -0.01434951 0.09005023
v -0.00566012 -0.01440841 0.09006062
v -0.01680018 -0.01300576 0.09006062
v -0.00719541 -0.01308169 0.09245970
v -0.00599648 -0.01439949 0.09245970
v -0.00718431 -0.01300576 0.09006062
v -0.00566012 -0.01434951 0.09006062
f 1 2 5
f 1 5 7
f 1 7 3
f 1 3 8
f 1 8 9
f 1 9 4
f 1 4 10
f 1 10 6
f 1 6 2
f 2 6 13
f 2 13 12
f 2 12 5
f 3 7 11
f 3 11 14
f 3 14 8
f 4 9 15
f 4 15 10
f 5 11 7
f 5 12 14
f 5 14 11
f 6 10 15
f 6 15 13
f 8 14 15
f 8 15 9
f 12 13 15
f 12 15 14

