# https://github.com/mikedh/trimesh
v -0.01900029 -0.00218389 -0.00449766
v -0.01900029 -0.00012176 -0.00499800
v -0.02199971 -0.00218389 -0.00449766
v -0.01900029 -0.00218389 -0.00781647
v -0.02199971 -0.00012176 -0.00499800
v -0.01900029 -0.00012176 -0.00680637
v -0.02199971 -0.00218389 -0.00774077
v -0.02199207 -0.00218389 -0.00781647
v -0.01900029 -0.00118533 -0.00781647
v -0.02199971 -0.00012176 -0.00580374
v -0.02099980 -0.00012176 -0.00680637
v -0.02174980 -0.00193784 -0.00781647
v -0.02198120 -0.00012176 -0.00582258
v -0.02174980 -0.00012176 -0.00605749
v -0.02125000 -0.00012176 -0.00655717
v -0.02099980 -0.00118533 -0.00781647
f 1 2 5
f 1 5 3
f 1 3 7
f 1 7 8
f 1 8 4
f 1 4 9
f 1 9 6
f 1 6 2
f 2 6 11
f 2 11 15
f 2 15 14
f 2 14 13
f 2 13 10
f 2 10 5
f 3 5 10
f 3 10 7
f 4 8 12
f 4 12 16
f 4 16 9
f 6 9 16
f 6 16 11
f 7 10 8
f 8 10 13
f 8 13 14
f 8 14 15
f 8 15 11
f 8 11 12
f 11 16 12

