# https://github.com/mikedh/trimesh
v -0.01700000 -0.01308158 0.09006083
v -0.00719447 -0.01308158 0.09006083
v -0.01700000 -0.01308158 0.09245970
v -0.01700000 -0.00005713 0.09006083
v -0.00719447 -0.01308158 0.09245970
v -0.00599544 -0.01199908 0.09006083
v -0.01700000 -0.00005713 0.09245970
v -0.00599544 -0.00005713 0.09006083
v -0.00599544 -0.01199908 0.09245970
v -0.00599544 -0.00005713 0.09245970
f 1 2 5
f 1 5 3
f 1 3 7
f 1 7 4
f 1 4 8
f 1 8 6
f 1 6 2
f 2 6 9
f 2 9 5
f 3 5 9
f 3 9 10
f 3 10 7
f 4 7 10
f 4 10 8
f 6 8 10
f 6 10 9

