# https://github.com/mikedh/trimesh
v -0.02099988 0.00829616 0.00116313
v -0.02099988 0.00916878 0.00027242
v -0.01900022 0.00829616 0.00116313
v -0.02174975 0.00829616 0.00192534
v -0.02200000 0.01018276 0.00027242
v -0.01900022 0.00916878 0.00027242
v -0.02200000 0.00829616 0.00218058
v -0.01899963 0.00829616 0.01800658
v -0.02200000 0.01300000 0.00027242
v -0.01900022 0.01300000 0.00027242
v -0.02200000 0.00829616 0.01800658
v -0.01899963 0.01297329 0.01800658
v -0.02200000 0.01300000 0.01749959
v -0.01900022 0.01300000 0.01749959
v -0.01899992 0.01299447 0.01800658
v -0.02200000 0.01298987 0.01800658
v -0.01905397 0.01299447 0.01800658
f 1 2 6
f 1 6 3
f 1 3 8
f 1 8 11
f 1 11 7
f 1 7 4
f 1 4 2
f 2 5 9
f 2 9 10
f 2 10 6
f 2 4 7
f 2 7 5
f 3 6 8
f 5 7 11
f 5 11 16
f 5 16 13
f 5 13 9
f 6 10 12
f 6 12 8
f 8 12 15
f 8 15 17
f 8 17 16
f 8 16 11
f 9 13 14
f 9 14 10
f 10 14 15
f 10 15 12
f 13 16 17
f 13 17 15
f 13 15 14

