# https://github.com/mikedh/trimesh
v -0.00503986 0.01299990 0.08950000
v -0.00685482 0.01164146 0.09005005
v -0.00685482 0.01302370 0.09005005
v -0.00506382 0.01302513 0.09005005
v 0.00504014 0.01299990 0.08950000
v -0.00360833 0.01059388 0.08950000
v -0.00481788 0.01059388 0.09005005
v -0.00685482 0.01164146 0.09404956
v -0.00685482 0.01302513 0.09109179
v 0.00603023 0.01302513 0.09005005
v 0.00603023 0.01199922 0.09005005
v 0.00360861 0.01059388 0.08950000
v -0.00481788 0.01059388 0.09404956
v -0.00685482 0.01302513 0.09404956
v 0.00603023 0.01302513 0.09404956
v 0.00603023 0.01199922 0.09404956
v 0.00481816 0.01059388 0.09005005
v 0.00481816 0.01059388 0.09404956
f 1 2 3
f 1 3 4
f 1 4 10
f 1 10 5
f 1 5 12
f 1 12 6
f 1 6 2
f 2 7 13
f 2 13 8
f 2 8 14
f 2 14 9
f 2 9 3
f 2 6 7
f 3 9 4
f 4 9 14
f 4 14 15
f 4 15 10
f 5 10 11
f 5 11 12
f 6 12 17
f 6 17 18
f 6 18 13
f 6 13 7
f 8 13 18
f 8 18 16
f 8 16 15
f 8 15 14
f 10 15 16
f 10 16 11
f 11 16 18
f 11 18 17
f 11 17 12

