# https://github.com/mikedh/trimesh
v 0.02099980 -0.00110039 -0.00847857
v 0.01921319 -0.00110039 -0.00847857
v 0.02199971 -0.00214720 -0.00847857
v 0.02099980 0.00000000 -0.00919954
v 0.01900029 -0.00110557 -0.00847857
v 0.01900029 0.00000000 -0.00919954
v 0.02199971 -0.00588564 -0.00847857
v 0.02199971 0.00000000 -0.01019933
v 0.02190926 0.00000000 -0.01010772
v 0.02174980 0.00000000 -0.00994662
v 0.02125000 0.00000000 -0.00944783
v 0.02107351 0.00000000 -0.00927256
v 0.01900029 -0.00588564 -0.00847857
v 0.01900029 0.00000000 -0.01300000
v 0.02199971 -0.00225781 -0.01280216
v 0.02199971 0.00000000 -0.01300000
v 0.01900029 -0.00225781 -0.01280216
v 0.01900029 -0.00075645 -0.01297787
v 0.02199971 -0.00150943 -0.01291193
v 0.02199971 -0.00075645 -0.01297787
v 0.01900029 -0.00150943 -0.01291193
f 1 2 5
f 1 5 13
f 1 13 7
f 1 7 3
f 1 3 4
f 1 4 6
f 1 6 2
f 2 6 5
f 3 7 15
f 3 15 19
f 3 19 20
f 3 20 16
f 3 16 8
f 3 8 9
f 3 9 10
f 3 10 11
f 3 11 12
f 3 12 4
f 4 12 11
f 4 11 10
f 4 10 9
f 4 9 8
f 4 8 16
f 4 16 14
f 4 14 6
f 5 6 14
f 5 14 18
f 5 18 21
f 5 21 17
f 5 17 13
f 7 13 17
f 7 17 15
f 14 16 20
f 14 20 18
f 15 17 21
f 15 21 19
f 18 20 19
f 18 19 21

