# https://github.com/mikedh/trimesh
v -0.01246154 -0.01299892 0.07386363
v -0.01244658 -0.00216725 0.07386363
v -0.00721112 -0.01299892 0.07386363
v -0.01328107 -0.01299892 0.07873373
v -0.01319349 -0.00207679 0.07818632
v -0.00721112 -0.00212310 0.07608079
v -0.00721112 -0.00216941 0.07386363
v -0.00721112 -0.01299892 0.07970011
v -0.01401872 -0.01299892 0.08416654
v -0.01397457 -0.00201649 0.08378274
v -0.00721112 -0.00206818 0.07884535
v -0.00721112 -0.00210049 0.07717713
v -0.00839236 -0.01299892 0.08948313
v -0.00721112 -0.01112831 0.08948313
v -0.01448437 -0.01299892 0.08948313
v -0.01448437 -0.00199926 0.08948313
v -0.00721112 -0.00201433 0.08413596
v -0.00721112 -0.00202187 0.08313594
v -0.00721112 -0.00199818 0.08948313
v -0.00721112 -0.00200141 0.08840666
f 1 2 7
f 1 7 3
f 1 3 8
f 1 8 13
f 1 13 15
f 1 15 9
f 1 9 4
f 1 4 5
f 1 5 2
f 2 6 7
f 2 5 6
f 3 7 6
f 3 6 12
f 3 12 11
f 3 11 18
f 3 18 17
f 3 17 20
f 3 20 19
f 3 19 14
f 3 14 8
f 4 9 10
f 4 10 5
f 5 11 12
f 5 12 6
f 5 10 11
f 8 14 13
f 9 15 16
f 9 16 10
f 10 17 18
f 10 18 11
f 10 16 17
f 13 14 19
f 13 19 16
f 13 16 15
f 16 19 20
f 16 20 17

