# https://github.com/mikedh/trimesh
v -0.02199971 0.00159682 -0.01289927
v -0.02199971 0.00225756 -0.01280129
v -0.01900029 0.00159682 -0.01289927
v -0.02199971 0.00159682 -0.00473766
v -0.02199971 0.00299813 -0.01264917
v -0.01900029 0.00225756 -0.01280129
v -0.01900029 0.00159682 -0.00473766
v -0.02199971 0.00499048 0.00027069
v -0.02199971 0.00372858 -0.01245322
v -0.01900029 0.00299813 -0.01264917
v -0.01900029 0.00499048 0.00027069
v -0.02199971 0.00581685 0.00027069
v -0.02199971 0.00444652 -0.01221473
v -0.01900029 0.00372858 -0.01245322
v -0.01900029 0.00683090 0.00027069
v -0.02125000 0.00657768 0.00027069
v -0.02199971 0.00768348 -0.00217741
v -0.01900029 0.00444652 -0.01221473
v -0.02199971 0.00514896 -0.01193627
v -0.02099980 0.00683090 0.00027069
v -0.01900029 0.00768348 -0.00115769
v -0.02199971 0.00768348 -0.01048211
v -0.02099980 0.00768348 -0.00115769
v -0.01900029 0.00514896 -0.01193627
v -0.02199971 0.00583413 -0.01161656
v -0.01900029 0.00768348 -0.01048211
v -0.02199971 0.00714310 -0.01086112
v -0.01900029 0.00583413 -0.01161656
v -0.02199971 0.00649963 -0.01125818
v -0.01900029 0.00714310 -0.01086112
v -0.01900029 0.00649963 -0.01125818
f 1 2 6
f 1 6 3
f 1 3 7
f 1 7 4
f 1 4 8
f 1 8 12
f 1 12 17
f 1 17 22
f 1 22 27
f 1 27 29
f 1 29 25
f 1 25 19
f 1 19 13
f 1 13 9
f 1 9 5
f 1 5 2
f 2 5 10
f 2 10 6
f 3 6 10
f 3 10 14
f 3 14 18
f 3 18 24
f 3 24 28
f 3 28 31
f 3 31 30
f 3 30 26
f 3 26 21
f 3 21 15
f 3 15 11
f 3 11 7
f 4 7 11
f 4 11 8
f 5 9 14
f 5 14 10
f 8 11 15
f 8 15 20
f 8 20 16
f 8 16 12
f 9 13 18
f 9 18 14
f 12 16 17
f 13 19 24
f 13 24 18
f 15 21 23
f 15 23 20
f 16 20 17
f 17 20 23
f 17 23 21
f 17 21 26
f 17 26 22
f 19 25 28
f 19 28 24
f 22 26 30
f 22 30 27
f 25 29 31
f 25 31 28
f 27 30 31
f 27 31 29

