# https://github.com/mikedh/trimesh
v -0.02199970 0.00329131 0.01800831
v -0.01899954 0.00329131 0.01800831
v -0.02199970 0.00329131 0.01923467
v -0.02199970 0.01298987 0.01800831
v -0.01890158 0.00329131 0.01923467
v -0.01899954 0.01297372 0.01800831
v -0.02199970 0.01293383 0.01923467
v -0.02199970 0.01298037 0.01846388
v -0.01905383 0.01299462 0.01800831
v -0.01890158 0.00985643 0.01923467
v -0.01899984 0.01299367 0.01800831
v -0.02053935 0.01293573 0.01923467
v -0.01898043 0.01294998 0.01904032
v -0.01896921 0.01293288 0.01923467
f 1 2 5
f 1 5 3
f 1 3 7
f 1 7 8
f 1 8 4
f 1 4 9
f 1 9 11
f 1 11 6
f 1 6 2
f 2 6 10
f 2 10 5
f 3 5 10
f 3 10 14
f 3 14 12
f 3 12 7
f 4 8 9
f 6 11 10
f 7 12 13
f 7 13 8
f 8 13 9
f 9 13 11
f 10 11 14
f 11 13 14
f 12 14 13

