# https://github.com/mikedh/trimesh
v -0.00003488 -0.00070879 0.04957739
v 0.00903396 -0.00072837 0.04957739
v 0.01044210 0.00700234 0.03458299
v 0.00895415 0.00700430 0.03458299
v 0.00694455 0.00700234 0.03458299
v 0.00595543 0.00700038 0.03458299
v -0.00003488 0.00674191 0.03499983
v -0.00003488 -0.01300000 0.04957739
v 0.01340092 -0.00080670 0.04957739
v 0.01452543 0.00697493 0.03458299
v 0.01099082 0.00700038 0.03458299
v -0.00003488 0.00672625 0.03499836
v 0.00589129 -0.00013114 0.03458299
v -0.00003488 -0.01300000 0.03499983
v 0.01452543 -0.01300000 0.04957739
v 0.01452543 -0.00084194 0.04957739
v 0.01452543 -0.01300000 0.03458299
v 0.00588132 -0.01002559 0.03458299
v -0.00003488 -0.01298042 0.03499836
v 0.00596826 -0.01300000 0.03458299
f 1 2 3
f 1 3 4
f 1 4 5
f 1 5 6
f 1 6 7
f 1 7 12
f 1 12 19
f 1 19 14
f 1 14 8
f 1 8 15
f 1 15 16
f 1 16 9
f 1 9 2
f 2 9 10
f 2 10 11
f 2 11 3
f 3 11 10
f 3 10 17
f 3 17 20
f 3 20 18
f 3 18 13
f 3 13 6
f 3 6 5
f 3 5 4
f 6 12 7
f 6 13 12
f 8 14 20
f 8 20 17
f 8 17 15
f 9 16 10
f 10 16 15
f 10 15 17
f 12 13 18
f 12 18 19
f 14 19 20
f 18 20 19

