# https://github.com/mikedh/trimesh
v -0.00425017 -0.01313233 0.09245970
v -0.00425017 -0.01440554 0.09245970
v -0.00425017 -0.01313233 0.09006083
v -0.00480203 -0.01313233 0.09245970
v -0.00577324 -0.01440829 0.09245970
v -0.00425017 -0.01440829 0.09058997
v -0.00425017 -0.01440829 0.09006083
v -0.00480203 -0.01313233 0.09006083
v -0.00599436 -0.01439967 0.09245970
v -0.00599436 -0.01440829 0.09245970
v -0.00599436 -0.01440829 0.09006083
v -0.00599436 -0.01439967 0.09006083
f 1 2 6
f 1 6 7
f 1 7 3
f 1 3 8
f 1 8 4
f 1 4 9
f 1 9 10
f 1 10 5
f 1 5 2
f 2 5 6
f 3 7 11
f 3 11 12
f 3 12 8
f 4 8 12
f 4 12 9
f 5 10 11
f 5 11 7
f 5 7 6
f 9 12 11
f 9 11 10

