# https://github.com/mikedh/trimesh
v 0.01900029 0.00825968 0.00117124
v 0.01900029 0.00917378 0.00024961
v 0.02099980 0.00825968 0.00117124
v 0.01900029 0.00825968 0.01442948
v 0.01900029 0.01300000 0.00024961
v 0.02099980 0.00917378 0.00024961
v 0.02170693 0.00825968 0.00188745
v 0.02199971 0.00825968 0.01442948
v 0.01900029 0.01300000 0.01442948
v 0.02199971 0.01300000 0.00024961
v 0.02125000 0.00942666 0.00024961
v 0.02197651 0.00825968 0.00216228
v 0.02199971 0.01018532 0.00024961
v 0.02199971 0.01300000 0.01442948
v 0.02199971 0.00825968 0.00218865
v 0.02199971 0.00826293 0.00218449
f 1 2 6
f 1 6 3
f 1 3 7
f 1 7 12
f 1 12 15
f 1 15 8
f 1 8 4
f 1 4 9
f 1 9 5
f 1 5 2
f 2 5 10
f 2 10 13
f 2 13 11
f 2 11 6
f 3 6 7
f 4 8 14
f 4 14 9
f 5 9 14
f 5 14 10
f 6 11 7
f 7 11 13
f 7 13 12
f 8 15 16
f 8 16 13
f 8 13 10
f 8 10 14
f 12 13 16
f 12 16 15

