# https://github.com/mikedh/trimesh
v -0.02199957 -0.01300000 0.01923467
v -0.02199957 0.01292636 0.01932885
v -0.02053880 0.01293651 0.01923467
v -0.01893530 -0.01262933 0.01923467
v -0.01760084 -0.01300000 0.02613770
v -0.02198832 -0.01300000 0.03537036
v -0.02199957 0.00674181 0.03499640
v -0.01894525 0.01289589 0.01965572
v -0.02199957 0.01279942 0.02057816
v -0.01890199 0.00985693 0.01923467
v -0.01758051 -0.00804170 0.02618202
v -0.01758051 -0.01280705 0.03013492
v -0.01775354 -0.01300000 0.04738971
v -0.02185682 -0.01300000 0.03688559
v -0.02192776 0.00592939 0.03628725
v -0.02199957 0.00890996 0.03136483
v -0.01767135 -0.00017646 0.04753099
v -0.01874886 0.01263693 0.02159754
v -0.01813116 0.01192607 0.02454213
v -0.01759392 0.01113650 0.02646457
v -0.02199957 0.01259885 0.02184131
v -0.01758051 0.00609441 0.02611554
v -0.01758051 0.00076798 0.02611831
v -0.01758051 0.00949388 0.03027065
v -0.01834788 0.00032623 0.04625398
v -0.01924242 -0.01300000 0.04449498
v -0.02155576 -0.01300000 0.03844514
v -0.02180362 -0.00449498 0.03723462
v -0.02170802 0.00498749 0.03778032
v -0.02199957 0.00989756 0.02950888
v -0.02146016 0.00432486 0.03883849
v -0.02114958 0.00367746 0.03989666
v -0.02078537 0.00305038 0.04094652
v -0.02037486 0.00244868 0.04199361
v -0.01992240 0.00187237 0.04304347
v -0.01943188 0.00132652 0.04409886
v -0.01890588 0.00081114 0.04516811
v -0.01849279 0.01232974 0.02309615
v -0.02199957 0.01191845 0.02458645
v -0.02199957 0.01141069 0.02607122
v -0.01758051 0.01082168 0.02753936
v -0.02199957 0.01229673 0.02322635
v -0.01758051 0.01030123 0.02867786
v -0.02002925 -0.01300000 0.04280247
v -0.02150126 -0.00496973 0.03868337
v -0.02109594 -0.01300000 0.04004901
v -0.02199957 0.01077345 0.02765016
v -0.02055351 -0.01300000 0.04155316
f 1 2 3
f 1 3 10
f 1 10 4
f 1 4 5
f 1 5 13
f 1 13 26
f 1 26 44
f 1 44 48
f 1 48 46
f 1 46 27
f 1 27 14
f 1 14 6
f 1 6 7
f 1 7 16
f 1 16 30
f 1 30 47
f 1 47 40
f 1 40 39
f 1 39 42
f 1 42 21
f 1 21 9
f 1 9 2
f 2 8 3
f 2 9 8
f 3 8 10
f 4 10 11
f 4 11 5
f 5 11 12
f 5 12 13
f 6 14 15
f 6 15 7
f 7 15 17
f 7 17 16
f 8 9 18
f 8 18 19
f 8 19 20
f 8 20 10
f 9 21 18
f 10 20 22
f 10 22 23
f 10 23 11
f 11 23 22
f 11 22 41
f 11 41 43
f 11 43 24
f 11 24 12
f 12 24 17
f 12 17 13
f 13 17 25
f 13 25 26
f 14 27 28
f 14 28 15
f 15 28 29
f 15 29 17
f 16 17 24
f 16 24 30
f 17 29 31
f 17 31 32
f 17 32 33
f 17 33 34
f 17 34 35
f 17 35 36
f 17 36 37
f 17 37 25
f 18 21 38
f 18 38 19
f 19 38 39
f 19 39 40
f 19 40 41
f 19 41 20
f 20 41 22
f 21 42 38
f 24 43 30
f 25 37 26
f 26 37 36
f 26 36 44
f 27 45 29
f 27 29 28
f 27 46 45
f 29 45 31
f 30 43 47
f 31 45 32
f 32 45 46
f 32 46 33
f 33 46 48
f 33 48 34
f 34 44 35
f 34 48 44
f 35 44 36
f 38 42 39
f 40 47 41
f 41 47 43

