# https://github.com/mikedh/trimesh
v -0.00392769 -0.00070390 0.04957435
v -0.01454910 -0.00085679 0.04957435
v -0.00003630 -0.00070782 0.04957435
v -0.00618382 0.00702307 0.03454750
v -0.00992603 0.00702307 0.03454750
v -0.01045455 0.00702111 0.03454750
v -0.01094470 0.00701915 0.03454750
v -0.01139507 0.00701719 0.03454750
v -0.01444113 0.00699759 0.03454750
v -0.01454910 0.00699563 0.03454750
v -0.01454910 -0.01300000 0.04957435
v -0.00003630 0.00674081 0.03500054
v -0.00003630 -0.01300000 0.04957435
v -0.00003630 0.00672708 0.03499907
v -0.00593235 0.00014682 0.03454750
v -0.01454910 -0.01300000 0.03454750
v -0.00003630 -0.01300000 0.03500054
v -0.00592240 -0.00124098 0.03454750
v -0.00003630 -0.01298040 0.03499907
v -0.00619803 -0.01300000 0.03454750
v -0.00592240 -0.00974613 0.03454750
f 1 2 11
f 1 11 13
f 1 13 3
f 1 3 4
f 1 4 5
f 1 5 6
f 1 6 7
f 1 7 8
f 1 8 9
f 1 9 2
f 2 9 10
f 2 10 16
f 2 16 11
f 3 12 4
f 3 13 17
f 3 17 19
f 3 19 14
f 3 14 12
f 4 12 14
f 4 14 15
f 4 15 18
f 4 18 21
f 4 21 20
f 4 20 16
f 4 16 10
f 4 10 9
f 4 9 8
f 4 8 7
f 4 7 6
f 4 6 5
f 11 16 20
f 11 20 17
f 11 17 13
f 14 18 15
f 14 19 21
f 14 21 18
f 17 20 19
f 19 20 21

