# https://github.com/mikedh/trimesh
v 0.02041769 0.01293726 0.01918347
v 0.01897169 0.01293726 0.01918347
v 0.02200000 0.01293345 0.01918347
v 0.02200000 0.01296483 0.01879723
v 0.01898895 0.01296483 0.01878281
v 0.01900016 0.01299430 0.01799963
v 0.01900016 0.01300000 0.01749984
v 0.01900016 0.01300000 0.01442948
v 0.01890566 0.00998643 0.01918347
v 0.02200000 0.00328812 0.01918347
v 0.02200000 0.01300000 0.01749984
v 0.02200000 0.01300000 0.01442948
v 0.01900016 0.00328812 0.01442948
v 0.01890566 0.00328812 0.01918347
v 0.02200000 0.00328812 0.01442948
f 1 2 9
f 1 9 14
f 1 14 10
f 1 10 3
f 1 3 4
f 1 4 2
f 2 4 5
f 2 5 6
f 2 6 7
f 2 7 8
f 2 8 9
f 3 10 15
f 3 15 12
f 3 12 11
f 3 11 4
f 4 11 6
f 4 6 5
f 6 11 7
f 7 11 12
f 7 12 8
f 8 12 15
f 8 15 13
f 8 13 14
f 8 14 9
f 10 14 13
f 10 13 15

