# https://github.com/mikedh/trimesh
v -0.01900029 0.00159682 -0.00473757
v -0.02199971 0.00159682 -0.00473757
v -0.01900029 -0.00012176 -0.00499796
v -0.01900029 0.00159682 -0.00781648
v -0.02199971 -0.00012176 -0.00499796
v -0.02199971 0.00159682 -0.00648799
v -0.01900029 -0.00012176 -0.00680655
v -0.01900029 0.00118534 -0.00781648
v -0.02140945 0.00159682 -0.00781648
v -0.02199971 -0.00012176 -0.00580385
v -0.02099980 -0.00012176 -0.00680655
v -0.02099980 0.00118534 -0.00781648
v -0.02125000 -0.00012176 -0.00655701
v -0.02163175 -0.00012176 -0.00617546
v -0.02174980 -0.00012176 -0.00605732
f 1 2 5
f 1 5 3
f 1 3 7
f 1 7 8
f 1 8 4
f 1 4 9
f 1 9 6
f 1 6 2
f 2 6 10
f 2 10 5
f 3 5 10
f 3 10 15
f 3 15 14
f 3 14 13
f 3 13 11
f 3 11 7
f 4 8 12
f 4 12 9
f 6 9 10
f 7 11 12
f 7 12 8
f 9 12 11
f 9 11 13
f 9 13 14
f 9 14 15
f 9 15 10

