# https://github.com/mikedh/trimesh
v -0.01454910 -0.01300000 0.03081281
v -0.00619800 -0.01300000 0.03454713
v -0.01454910 -0.01300000 0.03454713
v -0.01454910 -0.01136908 0.03077321
v -0.00592186 -0.00974468 0.03454713
v -0.01454910 0.00699511 0.03454713
v -0.01454910 0.00017786 0.03076692
v -0.00592186 -0.00123996 0.03454713
v -0.01444101 0.00699729 0.03454713
v -0.01454910 0.00733869 0.03399462
v -0.01454910 0.00882827 0.03079541
v -0.00593284 0.00014741 0.03454713
v -0.01139580 0.00701686 0.03454713
v -0.01094147 0.00785189 0.03319047
v -0.01454910 0.00776708 0.03329557
v -0.01454910 0.00921534 0.03081133
v -0.00618449 0.00702338 0.03454713
v -0.01094400 0.00701903 0.03454713
v -0.01148869 0.00800411 0.03293439
v -0.01045420 0.00702121 0.03454713
v -0.00992809 0.00702338 0.03454713
v -0.00980395 0.00757790 0.03364232
v -0.01454910 0.00813676 0.03268200
v -0.01454910 0.00911749 0.03098563
v -0.01398836 0.00893700 0.03131720
v -0.01352052 0.00872824 0.03168838
v -0.01303663 0.00853036 0.03203513
v -0.01253670 0.00834334 0.03235783
v -0.00860478 0.00734739 0.03402053
v -0.01201987 0.00816720 0.03265721
v -0.01454910 0.00848686 0.03208990
v -0.01454910 0.00878261 0.03157477
f 1 2 3
f 1 3 6
f 1 6 10
f 1 10 15
f 1 15 23
f 1 23 31
f 1 31 32
f 1 32 24
f 1 24 16
f 1 16 11
f 1 11 7
f 1 7 4
f 1 4 5
f 1 5 2
f 2 5 8
f 2 8 12
f 2 12 17
f 2 17 21
f 2 21 20
f 2 20 18
f 2 18 13
f 2 13 9
f 2 9 6
f 2 6 3
f 4 7 5
f 5 7 8
f 6 9 10
f 7 11 8
f 8 11 12
f 9 13 10
f 10 14 15
f 10 13 14
f 11 16 17
f 11 17 12
f 13 18 14
f 14 19 15
f 14 18 20
f 14 20 21
f 14 21 22
f 14 22 17
f 14 17 19
f 15 19 23
f 16 24 25
f 16 25 17
f 17 25 26
f 17 26 27
f 17 27 28
f 17 28 19
f 17 22 29
f 17 29 21
f 19 28 30
f 19 30 23
f 21 29 22
f 23 30 28
f 23 28 31
f 24 32 25
f 25 32 31
f 25 31 26
f 26 31 27
f 27 31 28

