# https://github.com/mikedh/trimesh
v 0.02199971 0.01261893 -0.00311243
v 0.02199971 0.01245341 -0.00372851
v 0.01900029 0.01261893 -0.00311243
v 0.02199971 0.00391068 -0.00311243
v 0.02199971 0.01221501 -0.00444633
v 0.01900029 0.01245341 -0.00372851
v 0.01900029 0.00391068 -0.00311243
v 0.02199971 0.00000000 -0.00499787
v 0.02199971 0.01193585 -0.00514918
v 0.01900029 0.01221501 -0.00444633
v 0.01900029 0.00000000 -0.00499787
v 0.02199971 0.00000000 -0.00579986
v 0.01900029 0.01193585 -0.00514918
v 0.02199971 0.01161717 -0.00583395
v 0.01900029 0.00000000 -0.00679965
v 0.02125000 0.00000000 -0.00654970
v 0.02099980 0.00113516 -0.00838763
v 0.02199971 0.00216533 -0.00838763
v 0.01900029 0.01161717 -0.00583395
v 0.02199971 0.01125772 -0.00649961
v 0.02099980 0.00000000 -0.00679965
v 0.01900029 0.00113516 -0.00838763
v 0.02199971 0.00992987 -0.00838763
v 0.01900029 0.01125772 -0.00649961
v 0.02199971 0.01086122 -0.00714358
v 0.01900029 0.00992987 -0.00838763
v 0.02199971 0.00995828 -0.00835613
v 0.01900029 0.01086122 -0.00714358
v 0.02199971 0.01042642 -0.00776277
v 0.01900029 0.00995828 -0.00835613
v 0.01900029 0.01042642 -0.00776277
f 1 2 6
f 1 6 3
f 1 3 7
f 1 7 4
f 1 4 8
f 1 8 12
f 1 12 18
f 1 18 23
f 1 23 27
f 1 27 29
f 1 29 25
f 1 25 20
f 1 20 14
f 1 14 9
f 1 9 5
f 1 5 2
f 2 5 10
f 2 10 6
f 3 6 10
f 3 10 13
f 3 13 19
f 3 19 24
f 3 24 28
f 3 28 31
f 3 31 30
f 3 30 26
f 3 26 22
f 3 22 15
f 3 15 11
f 3 11 7
f 4 7 11
f 4 11 8
f 5 9 13
f 5 13 10
f 8 11 15
f 8 15 21
f 8 21 16
f 8 16 12
f 9 14 19
f 9 19 13
f 12 16 17
f 12 17 18
f 14 20 24
f 14 24 19
f 15 22 17
f 15 17 21
f 16 21 17
f 17 22 26
f 17 26 23
f 17 23 18
f 20 25 28
f 20 28 24
f 23 26 30
f 23 30 27
f 25 29 31
f 25 31 28
f 27 30 31
f 27 31 29

