# https://github.com/mikedh/trimesh
v 0.01700000 -0.00005702 0.09006054
v 0.01700000 -0.01202174 0.09006054
v 0.01700000 -0.00005702 0.09004997
v -0.01700000 -0.00005702 0.09006054
v 0.01700000 -0.01202174 0.09004997
v -0.01666053 -0.01202174 0.09006054
v 0.01474687 -0.00005702 0.08950004
v -0.01700000 -0.00005702 0.09004997
v -0.01700000 -0.00011091 0.09006054
v 0.01474687 -0.01202174 0.08950004
v -0.01700000 -0.01202174 0.09005878
v 0.01448395 -0.00199921 0.08948314
v -0.01474687 -0.00005702 0.08950004
v -0.01700000 -0.01202174 0.09004997
v 0.01448395 -0.01202174 0.08948461
v 0.00991445 -0.01202174 0.08948314
v -0.01448395 -0.00199921 0.08948314
v -0.01474687 -0.01202174 0.08950004
v -0.01448395 -0.01202174 0.08948314
f 1 2 5
f 1 5 3
f 1 3 7
f 1 7 13
f 1 13 8
f 1 8 4
f 1 4 9
f 1 9 6
f 1 6 2
f 2 6 11
f 2 11 14
f 2 14 18
f 2 18 19
f 2 19 16
f 2 16 15
f 2 15 10
f 2 10 5
f 3 5 10
f 3 10 7
f 4 8 14
f 4 14 11
f 4 11 9
f 6 9 11
f 7 10 12
f 7 12 17
f 7 17 13
f 8 13 18
f 8 18 14
f 10 15 12
f 12 15 16
f 12 16 19
f 12 19 17
f 13 17 19
f 13 19 18

