# https://github.com/mikedh/trimesh
v 0.02199971 -0.00391089 -0.00311243
v 0.01900029 -0.00391089 -0.00311243
v 0.02199971 -0.01038735 -0.00311243
v 0.02199971 -0.00000000 -0.00499814
v 0.01900029 -0.01038735 -0.00311243
v 0.01900029 -0.00000000 -0.00499814
v 0.02199971 -0.00588464 -0.00847857
v 0.02199971 -0.00000000 -0.00579970
v 0.01900029 -0.00588464 -0.00847857
v 0.01900029 -0.00000000 -0.00679981
v 0.02199971 -0.00214763 -0.00847857
v 0.02099980 -0.00110026 -0.00847857
v 0.02125000 -0.00000000 -0.00654978
v 0.01900029 -0.00110534 -0.00847857
v 0.02099980 -0.00000000 -0.00679981
v 0.01921319 -0.00110026 -0.00847857
f 1 2 5
f 1 5 3
f 1 3 7
f 1 7 11
f 1 11 8
f 1 8 4
f 1 4 6
f 1 6 2
f 2 6 10
f 2 10 14
f 2 14 9
f 2 9 5
f 3 5 9
f 3 9 7
f 4 8 13
f 4 13 15
f 4 15 10
f 4 10 6
f 7 9 14
f 7 14 16
f 7 16 12
f 7 12 11
f 8 12 13
f 8 11 12
f 10 15 12
f 10 12 16
f 10 16 14
f 12 15 13

