# https://github.com/mikedh/trimesh
v 0.01900016 -0.00389878 0.00745750
v 0.01900016 -0.00107532 0.00745750
v 0.02200000 -0.00389878 0.00745750
v 0.01890566 -0.00389878 0.01918347
v 0.01918129 -0.00107037 0.00745750
v 0.01890566 -0.00000757 0.01918347
v 0.01900016 -0.00000757 0.00920561
v 0.02200000 -0.00213088 0.00745750
v 0.02200000 -0.00389878 0.01918347
v 0.02099985 -0.00107037 0.00745750
v 0.01921097 -0.00000757 0.00919987
v 0.02200000 -0.00000757 0.01918347
v 0.02200000 -0.00000757 0.01020075
v 0.02099985 -0.00000757 0.00919987
v 0.02176435 -0.00000757 0.00996431
f 1 2 5
f 1 5 10
f 1 10 8
f 1 8 3
f 1 3 9
f 1 9 4
f 1 4 6
f 1 6 2
f 2 6 7
f 2 7 5
f 3 8 13
f 3 13 12
f 3 12 9
f 4 9 12
f 4 12 6
f 5 7 11
f 5 11 14
f 5 14 10
f 6 12 13
f 6 13 15
f 6 15 14
f 6 14 11
f 6 11 7
f 8 10 13
f 10 14 15
f 10 15 13

