# https://github.com/mikedh/trimesh
v -0.01700000 -0.01440841 0.09245994
v -0.00577386 -0.01440841 0.09245994
v -0.01700000 -0.01440841 0.09405000
v -0.01700000 -0.00005585 0.09245994
v -0.00425000 -0.01440560 0.09245994
v -0.00578634 -0.01440841 0.09405000
v -0.01700000 -0.00005585 0.09405000
v -0.00425000 -0.00005585 0.09245994
v -0.00425000 -0.01440279 0.09405000
v -0.00425000 -0.00005585 0.09405000
f 1 2 6
f 1 6 3
f 1 3 7
f 1 7 4
f 1 4 8
f 1 8 5
f 1 5 2
f 2 5 6
f 3 6 9
f 3 9 10
f 3 10 7
f 4 7 10
f 4 10 8
f 5 9 6
f 5 8 10
f 5 10 9

