# https://github.com/mikedh/trimesh
v -0.01900029 0.00159682 -0.00781698
v -0.02140945 0.00159682 -0.00781698
v -0.01900029 0.00118528 -0.00781698
v -0.01900029 0.00159682 -0.01289912
v -0.02099980 0.00118528 -0.00781698
v -0.02199971 0.00159682 -0.00951322
v -0.02199971 0.00010329 -0.01019679
v -0.01900029 0.00010329 -0.00919578
v -0.01900029 0.00150910 -0.01291180
v -0.02199971 0.00159682 -0.01289912
v -0.02125000 0.00010329 -0.00944578
v -0.02104914 0.00010329 -0.00924497
v -0.02099980 0.00010329 -0.00919578
v -0.02199971 0.00010329 -0.01299699
v -0.01900029 0.00010329 -0.01299699
v -0.01900029 0.00075591 -0.01297772
v -0.02199971 0.00150910 -0.01291180
v -0.02199971 0.00075591 -0.01297772
f 1 2 5
f 1 5 3
f 1 3 8
f 1 8 15
f 1 15 16
f 1 16 9
f 1 9 4
f 1 4 10
f 1 10 6
f 1 6 2
f 2 6 7
f 2 7 5
f 3 5 13
f 3 13 8
f 4 9 17
f 4 17 10
f 5 7 11
f 5 11 12
f 5 12 13
f 6 10 17
f 6 17 18
f 6 18 14
f 6 14 7
f 7 14 15
f 7 15 8
f 7 8 13
f 7 13 12
f 7 12 11
f 9 16 18
f 9 18 17
f 14 18 16
f 14 16 15

