# https://github.com/mikedh/trimesh
v 0.00768156 -0.00199913 0.08948313
v 0.00768156 -0.01148715 0.08948313
v 0.00768156 -0.00200584 0.08652896
v -0.00721112 -0.00200104 0.08840666
v -0.00721112 -0.00199913 0.08948313
v 0.00405898 -0.01178808 0.08948313
v 0.00768156 -0.01178808 0.07970011
v 0.00768156 -0.00201063 0.08491273
v -0.00721112 -0.00201446 0.08413596
v -0.00721112 -0.01112776 0.08948313
v -0.00405794 -0.01178808 0.08948313
v 0.00768156 -0.01178808 0.07386363
v 0.00768156 -0.00203363 0.08171390
v -0.00721112 -0.00202213 0.08313594
v -0.00721112 -0.01178808 0.07970011
v -0.00721112 -0.01178808 0.07386363
v 0.00768156 -0.00217835 0.07386363
v 0.00768156 -0.00204705 0.08048911
v -0.00721112 -0.00206813 0.07884535
v -0.00721112 -0.00216972 0.07386363
v 0.00768156 -0.00216205 0.07466486
v -0.00090331 -0.00217164 0.07386363
v -0.00721112 -0.00210072 0.07717713
v -0.00721112 -0.00212276 0.07608079
f 1 2 7
f 1 7 12
f 1 12 17
f 1 17 21
f 1 21 18
f 1 18 13
f 1 13 8
f 1 8 3
f 1 3 4
f 1 4 5
f 1 5 10
f 1 10 11
f 1 11 6
f 1 6 2
f 2 6 7
f 3 8 4
f 4 8 9
f 4 9 14
f 4 14 19
f 4 19 23
f 4 23 24
f 4 24 20
f 4 20 16
f 4 16 15
f 4 15 10
f 4 10 5
f 6 11 15
f 6 15 16
f 6 16 12
f 6 12 7
f 8 13 9
f 9 13 14
f 10 15 11
f 12 16 20
f 12 20 22
f 12 22 17
f 13 18 19
f 13 19 14
f 17 22 21
f 18 21 23
f 18 23 19
f 20 24 22
f 21 22 23
f 22 24 23

