# https://github.com/mikedh/trimesh
v -0.00721112 -0.01300000 0.07386210
v -0.00721112 -0.01300000 0.07969962
v -0.00721112 -0.01178904 0.07386210
v 0.00768156 -0.01300000 0.07386210
v -0.00721112 -0.01178904 0.07969962
v -0.00360749 -0.01300000 0.07970019
v -0.00405794 -0.01178904 0.07970019
v 0.00768156 -0.01178904 0.07386210
v 0.00768156 -0.01300000 0.07969962
v 0.00360707 -0.01300000 0.07970019
v 0.00405898 -0.01178904 0.07970019
v 0.00768156 -0.01178904 0.07969962
f 1 2 5
f 1 5 3
f 1 3 8
f 1 8 4
f 1 4 9
f 1 9 10
f 1 10 6
f 1 6 2
f 2 6 7
f 2 7 5
f 3 5 7
f 3 7 11
f 3 11 12
f 3 12 8
f 4 8 12
f 4 12 9
f 6 10 11
f 6 11 7
f 9 12 11
f 9 11 10

