# https://github.com/mikedh/trimesh
v -0.00392769 -0.00070255 0.04957554
v -0.01060230 -0.00228548 0.06174455
v -0.00003630 -0.00230113 0.06174455
v -0.00003630 -0.00070857 0.04957554
v -0.01454910 -0.00085663 0.04957554
v -0.01161244 -0.00238298 0.06174455
v -0.00003630 -0.01300000 0.06174455
v -0.00003630 -0.01300000 0.04957554
v -0.01454910 -0.01300000 0.04957554
v -0.01454910 -0.00177148 0.05344365
v -0.01454910 -0.00684165 0.05347701
v -0.01454910 -0.01300000 0.05348297
v -0.01161528 -0.01300000 0.06174455
f 1 2 3
f 1 3 4
f 1 4 8
f 1 8 9
f 1 9 5
f 1 5 2
f 2 5 6
f 2 6 13
f 2 13 7
f 2 7 3
f 3 7 8
f 3 8 4
f 5 9 12
f 5 12 11
f 5 11 10
f 5 10 6
f 6 10 11
f 6 11 12
f 6 12 13
f 7 13 12
f 7 12 9
f 7 9 8

