# https://github.com/mikedh/trimesh
v 0.01700000 0.01059364 0.09404956
v 0.01700000 -0.00005585 0.09404956
v 0.01700000 0.01059364 0.09005005
v -0.01700000 0.01059364 0.09404956
v 0.01700000 -0.00005585 0.09005005
v -0.01700000 -0.00005585 0.09404956
v 0.01474687 0.01059364 0.08950000
v -0.01700000 0.01059364 0.09005005
v 0.01474687 -0.00005585 0.08950000
v -0.01700000 -0.00005585 0.09005005
v -0.01474687 0.01059364 0.08950000
v -0.01474687 -0.00005585 0.08950000
f 1 2 5
f 1 5 3
f 1 3 7
f 1 7 11
f 1 11 8
f 1 8 4
f 1 4 6
f 1 6 2
f 2 6 10
f 2 10 12
f 2 12 9
f 2 9 5
f 3 5 9
f 3 9 7
f 4 8 10
f 4 10 6
f 7 9 12
f 7 12 11
f 8 11 12
f 8 12 10

