# https://github.com/mikedh/trimesh
v -0.02199970 -0.00394944 0.00744097
v -0.02199970 -0.00212641 0.00744097
v -0.01900015 -0.00394944 0.00744097
v -0.02199970 -0.00394944 0.01923467
v -0.02099975 -0.00106151 0.00744097
v -0.02199970 -0.00004175 0.01019891
v -0.01900015 -0.00106151 0.00744097
v -0.01890158 -0.00394944 0.01923467
v -0.02199970 -0.00004175 0.01923467
v -0.02154506 -0.00004175 0.00974291
v -0.02143891 -0.00004175 0.00963671
v -0.02099975 -0.00004175 0.00919917
v -0.01900015 -0.00004175 0.00919917
v -0.01890158 -0.00004175 0.01923467
f 1 2 5
f 1 5 7
f 1 7 3
f 1 3 8
f 1 8 4
f 1 4 9
f 1 9 6
f 1 6 2
f 2 6 5
f 3 7 14
f 3 14 8
f 4 8 14
f 4 14 9
f 5 6 10
f 5 10 11
f 5 11 12
f 5 12 13
f 5 13 7
f 6 9 14
f 6 14 13
f 6 13 12
f 6 12 11
f 6 11 10
f 7 13 14

