# https://github.com/mikedh/trimesh
v 0.01921097 -0.00000757 0.00919981
v 0.02099985 -0.00000757 0.00919981
v 0.01900016 -0.00000757 0.00920536
v 0.01900016 0.00118960 0.00784571
v 0.02099985 0.00118960 0.00784571
v 0.02200000 -0.00000757 0.01019984
v 0.01890566 -0.00000757 0.01918347
v 0.01900016 0.00328780 0.00784571
v 0.02200000 0.00219354 0.00784571
v 0.02200000 -0.00000757 0.01918347
v 0.01890566 0.00328780 0.01918347
v 0.02200000 0.00328780 0.00784571
v 0.02200000 0.00328780 0.01918347
f 1 2 6
f 1 6 10
f 1 10 7
f 1 7 3
f 1 3 4
f 1 4 5
f 1 5 2
f 2 5 6
f 3 7 4
f 4 8 12
f 4 12 9
f 4 9 5
f 4 7 11
f 4 11 8
f 5 9 6
f 6 9 12
f 6 12 13
f 6 13 10
f 7 10 13
f 7 13 11
f 8 11 13
f 8 13 12

