# https://github.com/mikedh/trimesh
v -0.02099980 -0.00793042 0.00119853
v -0.01900029 -0.00793042 0.00119853
v -0.02100744 -0.00793042 0.00120606
v -0.02199971 -0.00581757 0.00027219
v -0.02099980 -0.00683113 0.00027219
v -0.01900029 -0.00683113 0.00027219
v -0.01900029 -0.00793042 0.01565837
v -0.02125000 -0.00793042 0.00144706
v -0.02199971 -0.00499067 0.00027219
v -0.02139830 -0.00793042 0.00159467
v -0.02174980 -0.00793042 0.00194713
v -0.02199971 -0.00793042 0.00219867
v -0.01900029 -0.00499067 0.00027219
v -0.01900029 -0.00394944 0.01565837
v -0.02199971 -0.00793042 0.01565837
v -0.02199971 -0.00394944 0.00306475
v -0.01900029 -0.00394944 0.00306475
v -0.02199971 -0.00394944 0.01565837
f 1 2 7
f 1 7 15
f 1 15 12
f 1 12 11
f 1 11 10
f 1 10 8
f 1 8 3
f 1 3 4
f 1 4 5
f 1 5 6
f 1 6 2
f 2 6 13
f 2 13 17
f 2 17 14
f 2 14 7
f 3 8 4
f 4 9 13
f 4 13 6
f 4 6 5
f 4 8 10
f 4 10 11
f 4 11 12
f 4 12 15
f 4 15 18
f 4 18 16
f 4 16 9
f 7 14 18
f 7 18 15
f 9 16 17
f 9 17 13
f 14 17 16
f 14 16 18

