# https://github.com/mikedh/trimesh
v 0.01902055 0.00328861 0.00376682
v 0.01900029 0.00329007 0.00376543
v 0.01900029 0.00499186 0.00024961
v 0.02199971 0.00499186 0.00024961
v 0.02199971 0.00329007 0.00376543
v 0.02199971 0.00328861 0.00377098
v 0.01900029 0.00328861 0.00376959
v 0.01900029 0.00682651 0.00024961
v 0.02199971 0.00581478 0.00024961
v 0.02199971 0.00328861 0.01442948
v 0.01900029 0.00328861 0.01442948
v 0.02099980 0.00682651 0.00024961
v 0.01900029 0.00825919 0.00117124
v 0.02174980 0.00606783 0.00024961
v 0.02099980 0.00825919 0.00117124
v 0.02170693 0.00825919 0.00188745
v 0.02197651 0.00825919 0.00216228
v 0.02199971 0.00825919 0.00218865
v 0.02199971 0.00825919 0.01442948
v 0.01900029 0.00825919 0.01442948
f 1 2 3
f 1 3 4
f 1 4 5
f 1 5 6
f 1 6 10
f 1 10 11
f 1 11 7
f 1 7 2
f 2 7 11
f 2 11 20
f 2 20 13
f 2 13 8
f 2 8 3
f 3 8 12
f 3 12 14
f 3 14 9
f 3 9 4
f 4 9 18
f 4 18 19
f 4 19 10
f 4 10 6
f 4 6 5
f 8 13 15
f 8 15 12
f 9 14 15
f 9 15 16
f 9 16 17
f 9 17 18
f 10 19 20
f 10 20 11
f 12 15 14
f 13 20 19
f 13 19 18
f 13 18 17
f 13 17 16
f 13 16 15

