# https://github.com/mikedh/trimesh
v 0.01900029 -0.00000757 0.00500010
v 0.01900029 0.00328780 0.00376865
v 0.01902055 0.00328780 0.00376665
v 0.02199971 -0.00000757 0.00500010
v 0.01900029 -0.00000757 0.00680037
v 0.01900029 0.00328780 0.00784461
v 0.02199971 0.00328780 0.00377064
v 0.02199971 -0.00000757 0.00580124
v 0.02099980 -0.00000757 0.00680037
v 0.01900029 0.00118960 0.00784461
v 0.02199971 0.00328780 0.00784461
v 0.02174980 -0.00000757 0.00605312
v 0.02199971 0.00219354 0.00784461
v 0.02125000 -0.00000757 0.00655248
v 0.02125000 0.00144059 0.00784461
v 0.02099980 0.00118960 0.00784461
v 0.02137510 -0.00000757 0.00642754
f 1 2 3
f 1 3 4
f 1 4 8
f 1 8 12
f 1 12 17
f 1 17 14
f 1 14 9
f 1 9 5
f 1 5 10
f 1 10 6
f 1 6 2
f 2 6 11
f 2 11 7
f 2 7 3
f 3 7 4
f 4 7 11
f 4 11 13
f 4 13 8
f 5 9 16
f 5 16 10
f 6 10 16
f 6 16 15
f 6 15 13
f 6 13 11
f 8 13 12
f 9 14 13
f 9 13 15
f 9 15 16
f 12 13 17
f 13 14 17

