# https://github.com/mikedh/trimesh
v 0.00623194 -0.01440841 0.09005000
v 0.00601033 -0.01440841 0.09006097
v 0.00623194 -0.01437738 0.09005000
v 0.01699892 -0.01440841 0.09005000
v 0.00601033 -0.01439949 0.09006097
v 0.00601033 -0.01440841 0.09404961
v 0.00718503 -0.01300576 0.09005000
v 0.01699892 -0.01300576 0.09005000
v 0.01700000 -0.01440841 0.09006097
v 0.00601033 -0.01439949 0.09404961
v 0.01700000 -0.01440841 0.09404961
v 0.00718503 -0.01300576 0.09006097
v 0.01699892 -0.01300576 0.09006097
v 0.01700000 -0.01321103 0.09006097
v 0.00720117 -0.01321103 0.09404961
v 0.01700000 -0.01321103 0.09404961
f 1 2 5
f 1 5 3
f 1 3 7
f 1 7 8
f 1 8 4
f 1 4 9
f 1 9 11
f 1 11 6
f 1 6 2
f 2 6 10
f 2 10 5
f 3 5 7
f 4 8 14
f 4 14 9
f 5 10 12
f 5 12 7
f 6 11 16
f 6 16 15
f 6 15 10
f 7 12 13
f 7 13 8
f 8 13 16
f 8 16 14
f 9 14 16
f 9 16 11
f 10 15 12
f 12 15 16
f 12 16 13

