# https://github.com/mikedh/trimesh
v -0.02200000 0.00329131 0.00376404
v -0.02200000 0.00499112 0.00027242
v -0.01900022 0.00329131 0.00376404
v -0.02200000 0.00329131 0.01800658
v -0.02200000 0.00581702 0.00027242
v -0.01900022 0.00499112 0.00027242
v -0.01899963 0.00329131 0.01800658
v -0.02200000 0.00829570 0.01800658
v -0.02099988 0.00829570 0.00116313
v -0.02124983 0.00657777 0.00027242
v -0.02200000 0.00829570 0.00218058
v -0.02174975 0.00829570 0.00192534
v -0.01900022 0.00683103 0.00027242
v -0.01899963 0.00829570 0.01800658
v -0.01900022 0.00829570 0.00116313
v -0.02099988 0.00683103 0.00027242
f 1 2 6
f 1 6 3
f 1 3 7
f 1 7 4
f 1 4 8
f 1 8 11
f 1 11 5
f 1 5 2
f 2 5 10
f 2 10 16
f 2 16 13
f 2 13 6
f 3 6 7
f 4 7 14
f 4 14 8
f 5 9 10
f 5 11 12
f 5 12 9
f 6 13 14
f 6 14 7
f 8 14 15
f 8 15 9
f 8 9 12
f 8 12 11
f 9 15 13
f 9 13 16
f 9 16 10
f 13 15 14

