# https://github.com/mikedh/trimesh
v -0.01900029 -0.00118538 -0.00781648
v -0.02099980 -0.00118538 -0.00781648
v -0.01900029 -0.00218389 -0.00781648
v -0.01900029 0.00010329 -0.00919557
v -0.02174980 -0.00193785 -0.00781648
v -0.02099980 0.00010329 -0.00919557
v -0.02125000 0.00010329 -0.00944571
v -0.02199971 0.00010329 -0.01019716
v -0.02199207 -0.00218389 -0.00781648
v -0.01900029 -0.00218389 -0.01281277
v -0.01900029 0.00010329 -0.01299696
v -0.02199971 -0.00218389 -0.00825994
v -0.02199971 0.00010329 -0.01299696
v -0.02199971 -0.00218389 -0.01281277
v -0.01900029 -0.00150911 -0.01291171
v -0.01900029 -0.00000014 -0.01299949
v -0.02199971 -0.00000014 -0.01299949
v -0.02199971 -0.00150911 -0.01291171
v -0.01900029 -0.00075597 -0.01297768
v -0.02199971 -0.00075597 -0.01297768
f 1 2 5
f 1 5 9
f 1 9 3
f 1 3 10
f 1 10 15
f 1 15 19
f 1 19 16
f 1 16 11
f 1 11 4
f 1 4 6
f 1 6 2
f 2 6 7
f 2 7 8
f 2 8 5
f 3 9 12
f 3 12 14
f 3 14 10
f 4 11 13
f 4 13 8
f 4 8 7
f 4 7 6
f 5 8 9
f 8 12 9
f 8 13 17
f 8 17 20
f 8 20 18
f 8 18 14
f 8 14 12
f 10 14 18
f 10 18 15
f 11 16 17
f 11 17 13
f 15 18 20
f 15 20 19
f 16 19 20
f 16 20 17

