# https://github.com/mikedh/trimesh
v 0.01452544 -0.01300000 0.05353034
v 0.01452544 -0.00731809 0.05352842
v 0.01452544 -0.01300000 0.04374512
v 0.01740028 -0.01300000 0.04804962
v 0.01740028 -0.00578413 0.04804674
v 0.01740028 -0.00036262 0.04804291
v 0.01452544 -0.00177847 0.05348245
v 0.01740028 -0.01300000 0.04374512
v 0.01452544 0.00153562 0.04374512
v 0.01740028 0.00151570 0.04374512
f 1 2 7
f 1 7 9
f 1 9 3
f 1 3 8
f 1 8 4
f 1 4 2
f 2 4 5
f 2 5 6
f 2 6 7
f 3 9 10
f 3 10 8
f 4 8 10
f 4 10 6
f 4 6 5
f 6 10 7
f 7 10 9

