# https://github.com/mikedh/trimesh
v -0.02375000 0.06199030 0.11201264
v -0.02375492 0.06213935 0.11208214
v -0.02376967 0.06228787 0.11215140
v -0.02379419 0.06243532 0.11222016
v -0.02382840 0.06258118 0.11228818
v -0.02387217 0.06272493 0.11235521
v -0.02392535 0.06286604 0.11242101
v -0.02398775 0.06300402 0.11248535
v -0.02405914 0.06313838 0.11254800
v -0.02413927 0.06326862 0.11260873
v -0.02422784 0.06339428 0.11266733
v -0.02432455 0.06351492 0.11272359
v -0.02442905 0.06363011 0.11277730
v -0.02454097 0.06373942 0.11282827
v -0.02465989 0.06384247 0.11287632
v -0.02478540 0.06393889 0.11292129
v -0.02491705 0.06402834 0.11296299
v -0.02505437 0.06411048 0.11300130
v -0.02519686 0.06418504 0.11303607
v -0.02534402 0.06425175 0.11306717
v -0.02549531 0.06431035 0.11309450
v -0.02565020 0.06436066 0.11311796
v -0.02580814 0.06440247 0.11313746
v -0.02596855 0.06443566 0.11315293
v -0.02613086 0.06446009 0.11316432
v -0.02629449 0.06447567 0.11317159
v -0.02645886 0.06448236 0.11317471
v -0.02662338 0.06448013 0.11317367
v -0.02678745 0.06446899 0.11316847
v -0.02695050 0.06444897 0.11315914
v -0.02711193 0.06442015 0.11314570
v -0.02727118 0.06438264 0.11312821
v -0.02742766 0.06433656 0.11310672
v -0.02758082 0.06428208 0.11308132
v -0.02773011 0.06421939 0.11305209
v -0.02787500 0.06414873 0.11301914
v -0.02801497 0.06407034 0.11298258
v -0.02814951 0.06398451 0.11294256
v -0.02827815 0.06389153 0.11289920
v -0.02840042 0.06379175 0.11285267
v -0.02851589 0.06368552 0.11280314
v -0.02862415 0.06357322 0.11275077
v -0.02872480 0.06345526 0.11269576
v -0.02881748 0.06333205 0.11263831
v -0.02890187 0.06320404 0.11257862
v -0.02897766 0.06307168 0.11251690
v -0.02904459 0.06293546 0.11245338
v -0.02910240 0.06279585 0.11238827
v -0.02915090 0.06265335 0.11232183
v -0.02918991 0.06250848 0.11225428
v -0.02921928 0.06236176 0.11218586
v -0.02923893 0.06221371 0.11211682
v -0.02924877 0.06206485 0.11204741
v -0.02924877 0.06191574 0.11197787
v -0.02923893 0.06176688 0.11190846
v -0.02921928 0.06161883 0.11183942
v -0.02918991 0.06147211 0.11177101
v -0.02915090 0.06132724 0.11170345
v -0.02910240 0.06118474 0.11163701
v -0.02904459 0.06104513 0.11157190
v -0.02897766 0.06090891 0.11150838
v -0.02890187 0.06077655 0.11144666
v -0.02881748 0.06064854 0.11138697
v -0.02872480 0.06052533 0.11132952
v -0.02862415 0.06040737 0.11127451
v -0.02851589 0.06029507 0.11122214
v -0.02840042 0.06018884 0.11117261
v -0.02827815 0.06008906 0.11112608
v -0.02814951 0.05999609 0.11108273
v -0.02801497 0.05991025 0.11104270
v -0.02787500 0.05983186 0.11100615
v -0.02773011 0.05976120 0.11097319
v -0.02758082 0.05969851 0.11094397
v -0.02742766 0.05964403 0.11091856
v -0.02727118 0.05959795 0.11089707
v -0.02711193 0.05956044 0.11087958
v -0.02695050 0.05953162 0.11086614
v -0.02678745 0.05951160 0.11085681
v -0.02662338 0.05950046 0.11085161
v -0.02645886 0.05949823 0.11085057
v -0.02629449 0.05950492 0.11085369
v -0.02613086 0.05952050 0.11086096
v -0.02596855 0.05954493 0.11087235
v -0.02580814 0.05957812 0.11088782
v -0.02565020 0.05961993 0.11090732
v -0.02549531 0.05967024 0.11093078
v -0.02534402 0.05972884 0.11095811
v -0.02519686 0.05979555 0.11098921
v -0.02505437 0.05987011 0.11102398
v -0.02491705 0.05995226 0.11106229
v -0.02478540 0.06004170 0.11110400
v -0.02465989 0.06013812 0.11114896
v -0.02454097 0.06024117 0.11119701
v -0.02442905 0.06035048 0.11124798
v -0.02432455 0.06046567 0.11130169
v -0.02422784 0.06058631 0.11135795
v -0.02413927 0.06071197 0.11141655
v -0.02405914 0.06084221 0.11147728
v -0.02398775 0.06097657 0.11153993
v -0.02392535 0.06111455 0.11160427
v -0.02387217 0.06125566 0.11167008
v -0.02382840 0.06139941 0.11173711
v -0.02379419 0.06154527 0.11180512
v -0.02376967 0.06169272 0.11187388
v -0.02375492 0.06184124 0.11194314
v -0.02375000 0.06325815 0.10929372
v -0.02375492 0.06340720 0.10936322
v -0.02376967 0.06355572 0.10943248
v -0.02379419 0.06370318 0.10950124
v -0.02382840 0.06384904 0.10956925
v -0.02387217 0.06399278 0.10963628
v -0.02392535 0.06413390 0.10970209
v -0.02398775 0.06427188 0.10976643
v -0.02405914 0.06440623 0.10982908
v -0.02413927 0.06453647 0.10988981
v -0.02422784 0.06466214 0.10994841
v -0.02432455 0.06478278 0.11000466
v -0.02442905 0.06489796 0.11005837
v -0.02454097 0.06500727 0.11010935
v -0.02465989 0.06511032 0.11015740
v -0.02478540 0.06520674 0.11020236
v -0.02491705 0.06529619 0.11024407
v -0.02505437 0.06537834 0.11028238
v -0.02519686 0.06545290 0.11031715
v -0.02534402 0.06551960 0.11034825
v -0.02549531 0.06557821 0.11037558
v -0.02565020 0.06562851 0.11039904
v -0.02580814 0.06567033 0.11041853
v -0.02596855 0.06570351 0.11043401
v -0.02613086 0.06572794 0.11044540
v -0.02629449 0.06574353 0.11045267
v -0.02645886 0.06575022 0.11045579
v -0.02662338 0.06574799 0.11045475
v -0.02678745 0.06573684 0.11044955
v -0.02695050 0.06571683 0.11044022
v -0.02711193 0.06568801 0.11042678
v -0.02727118 0.06565049 0.11040928
v -0.02742766 0.06560441 0.11038780
v -0.02758082 0.06554993 0.11036239
v -0.02773011 0.06548725 0.11033316
v -0.02787500 0.06541659 0.11030021
v -0.02801497 0.06533820 0.11026366
v -0.02814951 0.06525236 0.11022363
v -0.02827815 0.06515939 0.11018028
v -0.02840042 0.06505961 0.11013375
v -0.02851589 0.06495338 0.11008421
v -0.02862415 0.06484108 0.11003185
v -0.02872480 0.06472311 0.10997684
v -0.02881748 0.06459991 0.10991939
v -0.02890187 0.06447189 0.10985970
v -0.02897766 0.06433954 0.10979798
v -0.02904459 0.06420331 0.10973445
v -0.02910240 0.06406370 0.10966935
v -0.02915090 0.06392121 0.10960291
v -0.02918991 0.06377634 0.10953535
v -0.02921928 0.06362961 0.10946693
v -0.02923893 0.06348156 0.10939790
v -0.02924877 0.06333271 0.10932848
v -0.02924877 0.06318359 0.10925895
v -0.02923893 0.06303474 0.10918954
v -0.02921928 0.06288668 0.10912050
v -0.02918991 0.06273996 0.10905208
v -0.02915090 0.06259509 0.10898453
v -0.02910240 0.06245260 0.10891808
v -0.02904459 0.06231299 0.10885298
v -0.02897766 0.06217676 0.10878946
v -0.02890187 0.06204440 0.10872774
v -0.02881748 0.06191639 0.10866805
v -0.02872480 0.06179319 0.10861059
v -0.02862415 0.06167522 0.10855559
v -0.02851589 0.06156292 0.10850322
v -0.02840042 0.06145669 0.10845368
v -0.02827815 0.06135691 0.10840716
v -0.02814951 0.06126394 0.10836380
v -0.02801497 0.06117810 0.10832378
v -0.02787500 0.06109971 0.10828722
v -0.02773011 0.06102905 0.10825427
v -0.02758082 0.06096637 0.10822504
v -0.02742766 0.06091189 0.10819964
v -0.02727118 0.06086581 0.10817815
v -0.02711193 0.06082829 0.10816066
v -0.02695050 0.06079947 0.10814722
v -0.02678745 0.06077946 0.10813788
v -0.02662338 0.06076831 0.10813269
v -0.02645886 0.06076608 0.10813165
v -0.02629449 0.06077277 0.10813477
v -0.02613086 0.06078836 0.10814204
v -0.02596855 0.06081279 0.10815343
v -0.02580814 0.06084597 0.10816890
v -0.02565020 0.06088779 0.10818840
v -0.02549531 0.06093809 0.10821186
v -0.02534402 0.06099670 0.10823918
v -0.02519686 0.06106340 0.10827029
v -0.02505437 0.06113796 0.10830506
v -0.02491705 0.06122011 0.10834336
v -0.02478540 0.06130955 0.10838507
v -0.02465989 0.06140598 0.10843003
v -0.02454097 0.06150903 0.10847809
v -0.02442905 0.06161834 0.10852906
v -0.02432455 0.06173352 0.10858277
v -0.02422784 0.06185416 0.10863903
v -0.02413927 0.06197983 0.10869763
v -0.02405914 0.06211007 0.10875836
v -0.02398775 0.06224442 0.10882101
v -0.02392535 0.06238240 0.10888535
v -0.02387217 0.06252352 0.10895115
v -0.02382840 0.06266726 0.10901818
v -0.02379419 0.06281312 0.10908620
v -0.02376967 0.06296058 0.10915496
v -0.02375492 0.06310910 0.10922421
v -0.02500000 0.06832957 0.09841802
v -0.02500268 0.06841087 0.09845594
v -0.02501073 0.06849188 0.09849371
v -0.02502411 0.06857231 0.09853122
v -0.02504276 0.06865187 0.09856832
v -0.02506664 0.06873028 0.09860488
v -0.02509565 0.06880725 0.09864077
v -0.02512968 0.06888251 0.09867587
v -0.02516862 0.06895579 0.09871004
v -0.02521233 0.06902684 0.09874316
v -0.02526064 0.06909538 0.09877513
v -0.02531339 0.06916118 0.09880581
v -0.02537039 0.06922401 0.09883511
v -0.02543144 0.06928364 0.09886291
v -0.02549630 0.06933985 0.09888912
v -0.02556477 0.06939244 0.09891365
v -0.02563657 0.06944123 0.09893640
v -0.02571147 0.06948604 0.09895729
v -0.02578920 0.06952670 0.09897626
v -0.02586946 0.06956309 0.09899322
v -0.02595199 0.06959506 0.09900813
v -0.02603647 0.06962249 0.09902092
v -0.02612262 0.06964530 0.09903156
v -0.02621012 0.06966340 0.09904000
v -0.02629865 0.06967673 0.09904621
v -0.02638790 0.06968523 0.09905018
v -0.02647756 0.06968888 0.09905188
v -0.02656730 0.06968766 0.09905131
v -0.02665679 0.06968158 0.09904848
v -0.02674573 0.06967067 0.09904339
v -0.02683378 0.06965495 0.09903606
v -0.02692064 0.06963448 0.09902651
v -0.02700599 0.06960935 0.09901479
v -0.02708954 0.06957963 0.09900094
v -0.02717097 0.06954544 0.09898499
v -0.02725000 0.06950690 0.09896702
v -0.02732635 0.06946414 0.09894708
v -0.02739973 0.06941732 0.09892525
v -0.02746990 0.06936661 0.09890160
v -0.02753659 0.06931218 0.09887622
v -0.02759958 0.06925424 0.09884920
v -0.02765863 0.06919298 0.09882064
v -0.02771353 0.06912864 0.09879064
v -0.02776408 0.06906144 0.09875930
v -0.02781011 0.06899161 0.09872674
v -0.02785145 0.06891942 0.09869307
v -0.02788796 0.06884511 0.09865843
v -0.02791949 0.06876896 0.09862292
v -0.02794594 0.06869124 0.09858667
v -0.02796722 0.06861222 0.09854982
v -0.02798325 0.06853219 0.09851251
v -0.02799396 0.06845143 0.09847485
v -0.02799933 0.06837024 0.09843699
v -0.02799933 0.06828890 0.09839906
v -0.02799396 0.06820771 0.09836120
v -0.02798325 0.06812695 0.09832354
v -0.02796722 0.06804692 0.09828622
v -0.02794594 0.06796790 0.09824938
v -0.02791949 0.06789018 0.09821313
v -0.02788796 0.06781403 0.09817762
v -0.02785145 0.06773972 0.09814297
v -0.02781011 0.06766753 0.09810931
v -0.02776408 0.06759770 0.09807675
v -0.02771353 0.06753050 0.09804541
v -0.02765863 0.06746615 0.09801541
v -0.02759958 0.06740490 0.09798684
v -0.02753659 0.06734696 0.09795982
v -0.02746990 0.06729253 0.09793445
v -0.02739973 0.06724182 0.09791080
v -0.02732635 0.06719500 0.09788896
v -0.02725000 0.06715224 0.09786903
v -0.02717097 0.06711370 0.09785105
v -0.02708954 0.06707951 0.09783511
v -0.02700599 0.06704979 0.09782125
v -0.02692064 0.06702466 0.09780953
v -0.02683378 0.06700419 0.09779999
v -0.02674573 0.06698847 0.09779266
v -0.02665679 0.06697755 0.09778757
v -0.02656730 0.06697148 0.09778473
v -0.02647756 0.06697026 0.09778417
v -0.02638790 0.06697391 0.09778587
v -0.02629865 0.06698241 0.09778983
v -0.02621012 0.06699574 0.09779605
v -0.02612262 0.06701383 0.09780449
v -0.02603647 0.06703664 0.09781512
v -0.02595199 0.06706408 0.09782792
v -0.02586946 0.06709605 0.09784282
v -0.02578920 0.06713243 0.09785979
v -0.02571147 0.06717310 0.09787875
v -0.02563657 0.06721791 0.09789965
v -0.02556477 0.06726670 0.09792240
v -0.02549630 0.06731929 0.09794692
v -0.02543144 0.06737550 0.09797313
v -0.02537039 0.06743513 0.09800094
v -0.02531339 0.06749795 0.09803023
v -0.02526064 0.06756376 0.09806092
v -0.02521233 0.06763230 0.09809288
v -0.02516862 0.06770334 0.09812601
v -0.02512968 0.06777663 0.09816018
v -0.02509565 0.06785189 0.09819528
v -0.02506664 0.06792886 0.09823117
v -0.02504276 0.06800727 0.09826773
v -0.02502411 0.06808683 0.09830483
v -0.02501073 0.06816726 0.09834234
v -0.02500268 0.06824827 0.09838011
f 53 60 47
f 93 92 198
f 46 14 30
f 46 47 60
f 39 46 30
f 53 47 49
f 82 70 76
f 82 93 60
f 60 70 82
f 92 93 91
f 211 106 315
f 106 210 315
f 8 5 6
f 268 257 245
f 268 259 257
f 268 291 270
f 268 225 291
f 264 259 268
f 146 40 145
f 270 291 281
f 264 268 265
f 34 39 30
f 53 49 51
f 31 32 30
f 54 55 53
f 57 60 53
f 53 55 57
f 57 55 56
f 60 57 59
f 59 57 58
f 64 62 63
f 1 93 104
f 80 76 79
f 80 82 76
f 302 225 314
f 291 225 302
f 302 303 198
f 194 195 89
f 89 195 90
f 90 88 89
f 90 91 93
f 83 88 90
f 93 82 90
f 82 83 90
f 200 199 305
f 46 39 42
f 127 21 126
f 21 125 126
f 20 125 21
f 14 18 20
f 124 18 123
f 216 217 111
f 110 216 111
f 215 216 110
f 1 106 107
f 1 107 2
f 119 14 118
f 116 115 220
f 7 8 6
f 14 8 9
f 5 8 3
f 1 2 3
f 3 93 1
f 60 93 3
f 3 46 60
f 3 107 108
f 3 2 107
f 14 46 3
f 3 8 14
f 46 42 44
f 44 42 43
f 270 281 276
f 276 281 280
f 65 64 169
f 169 64 63
f 273 276 275
f 286 291 290
f 180 285 286
f 266 267 161
f 161 265 266
f 266 268 267
f 266 265 268
f 61 70 60
f 60 166 61
f 166 62 61
f 30 32 33
f 33 34 30
f 36 34 35
f 140 139 245
f 245 139 244
f 137 242 138
f 138 244 139
f 248 247 245
f 245 257 248
f 257 256 248
f 245 247 246
f 246 247 141
f 141 140 246
f 246 140 245
f 247 248 143
f 249 144 143
f 143 248 249
f 237 132 131
f 136 242 137
f 181 182 76
f 180 286 181
f 181 286 182
f 76 182 77
f 172 277 173
f 67 173 68
f 172 173 67
f 68 69 67
f 67 69 70
f 70 61 67
f 67 61 62
f 65 66 67
f 67 64 65
f 62 64 67
f 1 104 105
f 105 106 1
f 105 210 106
f 99 104 93
f 98 204 99
f 187 292 188
f 298 192 297
f 197 302 198
f 198 92 197
f 120 14 119
f 119 224 120
f 120 224 225
f 16 120 121
f 297 192 191
f 85 83 84
f 304 305 199
f 198 303 304
f 304 199 198
f 303 302 304
f 200 305 201
f 309 204 203
f 203 204 98
f 41 39 40
f 41 42 39
f 40 146 41
f 146 42 41
f 22 21 127
f 127 23 22
f 22 20 21
f 30 14 22
f 14 20 22
f 314 315 209
f 209 315 210
f 210 105 209
f 209 105 104
f 206 311 207
f 207 311 312
f 313 311 314
f 312 311 313
f 314 209 313
f 313 209 208
f 313 207 312
f 208 207 313
f 103 209 104
f 208 209 103
f 19 20 18
f 18 124 19
f 225 224 223
f 223 118 117
f 119 118 223
f 223 224 119
f 117 116 222
f 222 223 117
f 111 217 112
f 112 113 8
f 8 7 112
f 218 112 217
f 113 112 218
f 217 216 218
f 223 222 218
f 225 223 218
f 212 106 211
f 212 107 106
f 108 107 212
f 212 213 108
f 109 3 108
f 13 118 14
f 14 12 13
f 11 9 10
f 11 12 14
f 14 9 11
f 8 113 114
f 114 9 8
f 113 218 114
f 220 115 114
f 263 262 264
f 165 166 60
f 60 59 165
f 59 164 165
f 269 268 270
f 270 165 269
f 269 165 164
f 267 268 163
f 268 269 163
f 163 269 164
f 48 49 47
f 47 153 48
f 47 46 151
f 257 259 258
f 253 255 254
f 253 256 255
f 278 276 280
f 277 276 278
f 278 173 277
f 65 169 170
f 271 165 270
f 166 165 271
f 168 169 63
f 274 273 275
f 275 170 274
f 274 170 169
f 169 168 274
f 274 168 273
f 39 34 38
f 34 36 38
f 38 36 37
f 243 138 242
f 244 138 243
f 245 244 243
f 141 247 142
f 247 143 142
f 142 36 141
f 37 36 142
f 143 38 142
f 142 38 37
f 127 126 232
f 128 23 127
f 133 132 237
f 237 238 133
f 130 234 235
f 235 131 130
f 288 183 182
f 288 286 290
f 79 76 78
f 76 77 78
f 73 74 72
f 74 75 72
f 70 71 72
f 72 75 76
f 76 70 72
f 177 72 176
f 176 72 71
f 280 281 176
f 282 176 281
f 177 176 282
f 177 282 178
f 178 282 283
f 73 72 178
f 178 72 177
f 95 199 200
f 200 201 95
f 95 201 96
f 98 99 97
f 97 95 96
f 97 201 202
f 96 201 97
f 97 99 93
f 93 95 97
f 104 99 100
f 100 99 204
f 80 185 81
f 82 80 81
f 81 187 82
f 307 203 202
f 202 201 307
f 205 100 204
f 291 302 293
f 302 298 293
f 293 292 291
f 189 188 293
f 293 188 292
f 192 298 193
f 193 298 194
f 89 88 193
f 193 194 89
f 299 298 302
f 194 298 299
f 15 18 14
f 15 16 18
f 14 120 15
f 120 16 15
f 18 16 17
f 86 88 83
f 83 85 86
f 87 88 86
f 221 116 220
f 221 222 116
f 214 218 216
f 214 216 215
f 211 315 214
f 214 315 314
f 215 110 214
f 110 109 214
f 108 213 214
f 214 109 108
f 214 212 211
f 213 212 214
f 314 225 214
f 225 218 214
f 5 3 4
f 3 109 4
f 161 267 162
f 267 163 162
f 152 153 47
f 47 151 152
f 257 258 152
f 152 258 153
f 152 256 257
f 152 151 256
f 150 151 46
f 254 255 150
f 255 256 150
f 256 151 150
f 50 51 49
f 49 48 154
f 154 48 153
f 154 50 49
f 155 50 154
f 154 258 259
f 153 258 154
f 260 259 264
f 260 154 259
f 155 154 260
f 251 253 252
f 250 253 251
f 249 248 250
f 250 248 256
f 256 253 250
f 145 144 250
f 250 144 249
f 250 146 145
f 250 251 146
f 280 174 279
f 279 278 280
f 174 173 279
f 173 278 279
f 275 276 171
f 171 170 275
f 171 277 172
f 171 276 277
f 172 67 171
f 171 67 66
f 171 66 65
f 65 170 171
f 166 271 272
f 272 271 270
f 270 276 272
f 276 273 272
f 239 238 240
f 240 135 239
f 230 126 125
f 125 124 230
f 129 234 130
f 129 128 234
f 233 232 234
f 234 128 233
f 127 232 233
f 233 128 127
f 239 135 134
f 134 238 239
f 134 133 238
f 27 28 26
f 24 25 26
f 26 23 24
f 26 29 30
f 28 29 26
f 30 22 26
f 26 22 23
f 182 286 287
f 287 288 182
f 286 288 287
f 184 183 289
f 183 288 289
f 289 288 290
f 289 185 184
f 290 185 289
f 175 174 280
f 280 176 175
f 283 282 284
f 284 286 285
f 284 282 281
f 284 178 283
f 284 281 291
f 291 286 284
f 94 95 93
f 199 95 94
f 94 93 198
f 198 199 94
f 101 103 104
f 104 100 101
f 102 103 101
f 187 81 186
f 186 81 185
f 291 292 186
f 186 292 187
f 290 291 186
f 186 185 290
f 310 307 302
f 310 302 314
f 314 311 310
f 309 307 310
f 310 204 309
f 310 205 204
f 206 205 310
f 310 311 206
f 305 304 306
f 306 201 305
f 306 307 201
f 306 304 302
f 302 307 306
f 309 203 308
f 308 307 309
f 203 307 308
f 295 191 190
f 301 196 195
f 197 196 301
f 302 197 301
f 195 194 300
f 194 299 300
f 300 301 195
f 300 299 302
f 302 301 300
f 219 218 222
f 222 221 219
f 219 221 220
f 220 114 219
f 219 114 218
f 46 44 45
f 45 150 46
f 44 150 45
f 53 51 52
f 52 157 53
f 51 157 52
f 156 157 51
f 155 260 156
f 262 157 156
f 53 157 158
f 262 263 158
f 158 157 262
f 264 262 261
f 261 260 264
f 262 156 261
f 261 156 260
f 273 168 167
f 167 272 273
f 166 272 167
f 167 62 166
f 63 62 167
f 167 168 63
f 236 234 245
f 245 240 236
f 236 235 234
f 236 238 237
f 236 240 238
f 237 131 236
f 131 235 236
f 245 243 241
f 241 240 245
f 241 243 242
f 242 136 241
f 241 136 135
f 135 240 241
f 231 232 126
f 126 230 231
f 225 234 227
f 227 122 121
f 123 122 227
f 227 228 123
f 178 284 179
f 179 285 180
f 179 284 285
f 180 75 179
f 179 75 74
f 294 293 298
f 298 295 294
f 189 293 294
f 294 190 189
f 294 295 190
f 297 191 296
f 191 295 296
f 296 298 297
f 296 295 298
f 149 150 44
f 254 150 149
f 149 253 254
f 149 148 253
f 147 42 146
f 146 251 147
f 251 252 147
f 147 252 253
f 253 148 147
f 264 265 159
f 159 263 264
f 159 158 263
f 228 227 229
f 229 230 124
f 229 231 230
f 229 124 123
f 123 228 229
f 229 227 234
f 234 232 229
f 232 231 229
f 225 227 226
f 226 227 121
f 226 120 225
f 121 120 226
f 160 265 161
f 160 159 265
f 40 39 144
f 145 40 144
f 6 5 110
f 111 6 110
f 141 36 140
f 140 36 35
f 35 34 140
f 34 139 140
f 138 33 32
f 138 32 137
f 138 139 34
f 34 33 138
f 225 268 234
f 234 268 245
f 137 32 136
f 32 31 136
f 136 31 30
f 30 135 136
f 69 173 174
f 68 173 69
f 185 80 79
f 79 184 185
f 84 83 188
f 189 84 188
f 82 187 188
f 188 83 82
f 85 84 189
f 189 190 85
f 103 207 208
f 102 207 103
f 19 124 125
f 125 20 19
f 112 6 111
f 112 7 6
f 13 12 117
f 117 118 13
f 115 116 11
f 10 115 11
f 117 12 11
f 11 116 117
f 114 115 10
f 10 9 114
f 163 164 59
f 163 59 58
f 38 144 39
f 38 143 144
f 133 28 27
f 27 132 133
f 182 183 78
f 78 77 182
f 78 183 184
f 78 184 79
f 180 181 75
f 75 181 76
f 97 203 98
f 202 203 97
f 193 88 87
f 87 192 193
f 196 90 195
f 91 90 196
f 92 91 196
f 196 197 92
f 17 16 121
f 121 122 17
f 17 122 123
f 123 18 17
f 86 192 87
f 86 191 192
f 86 85 190
f 190 191 86
f 4 110 5
f 4 109 110
f 162 57 56
f 162 56 161
f 162 163 58
f 58 57 162
f 130 25 129
f 129 25 24
f 24 23 129
f 23 128 129
f 134 135 30
f 30 29 134
f 28 133 134
f 134 29 28
f 26 132 27
f 26 131 132
f 26 25 130
f 130 131 26
f 175 69 174
f 70 69 175
f 175 71 70
f 175 176 71
f 101 207 102
f 206 207 101
f 101 205 206
f 100 205 101
f 156 50 155
f 51 50 156
f 73 178 179
f 179 74 73
f 43 148 149
f 149 44 43
f 147 148 43
f 43 42 147
f 53 158 159
f 159 54 53
f 161 56 160
f 56 55 160
f 54 159 160
f 55 54 160

