# https://github.com/mikedh/trimesh
v 0.01084026 0.00388466 -0.00000000
v 0.01084026 0.00388466 0.00299971
v 0.01084026 0.00450405 -0.00000000
v 0.01385862 0.00388466 -0.00000000
v 0.01385862 0.00388466 0.00299971
v 0.01084026 0.00650900 0.00299971
v 0.01385862 0.00598210 -0.00000000
v 0.01084026 0.00500805 0.00050010
v 0.01248374 0.00821827 0.00199980
v 0.01298428 0.00821827 0.00150000
v 0.01356550 0.00821827 0.00092208
v 0.01385862 0.00821827 0.00063078
v 0.01385862 0.00821827 0.00299971
v 0.01248374 0.00821827 0.00299971
v 0.01084026 0.00650900 0.00199980
v 0.01084026 0.00539241 0.00088361
v 0.01084026 0.00601010 0.00150000
f 1 2 6
f 1 6 15
f 1 15 17
f 1 17 16
f 1 16 8
f 1 8 3
f 1 3 7
f 1 7 4
f 1 4 5
f 1 5 2
f 2 5 13
f 2 13 14
f 2 14 6
f 3 8 9
f 3 9 10
f 3 10 11
f 3 11 12
f 3 12 7
f 4 7 12
f 4 12 13
f 4 13 5
f 6 14 9
f 6 9 15
f 8 16 9
f 9 14 13
f 9 13 12
f 9 12 11
f 9 11 10
f 9 16 17
f 9 17 15

