# https://github.com/mikedh/trimesh
v 0.00001461 -0.01060352 -0.00000000
v 0.00001461 -0.01060352 0.00299971
v 0.00001461 -0.01049570 -0.00000000
v 0.00800000 -0.01060352 -0.00000000
v 0.00001461 -0.01049646 0.00299971
v 0.00800000 -0.01060352 0.00299971
v 0.00678609 -0.00800593 0.00299971
v 0.00678687 -0.00800593 -0.00000000
v 0.00799531 -0.00800593 -0.00000000
v 0.00800000 -0.00800593 0.00299971
f 1 2 5
f 1 5 3
f 1 3 8
f 1 8 9
f 1 9 4
f 1 4 6
f 1 6 2
f 2 6 10
f 2 10 7
f 2 7 5
f 3 5 7
f 3 7 8
f 4 9 10
f 4 10 6
f 7 10 9
f 7 9 8

