# https://github.com/mikedh/trimesh
v 0.00001461 0.01200000 0.00299971
v 0.00001461 0.01049653 0.00299971
v 0.00001461 0.01200000 -0.00000000
v -0.01098199 0.01200000 0.00299971
v 0.00001461 0.01049524 -0.00000000
v -0.00589380 0.00868550 0.00299971
v -0.01098199 0.01200000 -0.00000000
v -0.01098199 0.00949985 0.00299971
v -0.00589165 0.00868550 -0.00000000
v -0.00966554 0.00868550 0.00299971
v -0.01098199 0.01150328 -0.00000000
v -0.01098199 0.00949985 0.00199980
v -0.00756870 0.00868550 -0.00000000
v -0.00966554 0.00868550 0.00199980
v -0.01098199 0.01116391 0.00033448
v -0.01098199 0.00999819 0.00150000
v -0.01098199 0.01057927 0.00091768
v -0.01098199 0.01099650 0.00050010
f 1 2 5
f 1 5 3
f 1 3 7
f 1 7 4
f 1 4 8
f 1 8 10
f 1 10 6
f 1 6 2
f 2 6 5
f 3 5 9
f 3 9 13
f 3 13 11
f 3 11 7
f 4 7 11
f 4 11 15
f 4 15 18
f 4 18 17
f 4 17 16
f 4 16 12
f 4 12 8
f 5 6 9
f 6 10 14
f 6 14 13
f 6 13 9
f 8 12 14
f 8 14 10
f 11 13 15
f 12 16 13
f 12 13 14
f 13 16 17
f 13 17 18
f 13 18 15

