# https://github.com/mikedh/trimesh
v -0.06364217 -0.03993982 0.00514479
v -0.06364217 -0.03768703 0.00300403
v -0.06364217 -0.03768703 0.00700000
v -0.06371071 -0.03992536 0.00700000
v -0.06368190 -0.03993175 0.00300403
v -0.06434959 -0.03650379 0.00300403
v -0.06434959 -0.03650379 0.00700000
v -0.06392301 -0.03987591 0.00300403
v -0.06398176 -0.03985910 0.00700000
v -0.06649365 -0.03670728 0.00300403
v -0.06649952 -0.03650379 0.00307874
v -0.06649812 -0.03655458 0.00700000
v -0.06412134 -0.03981537 0.00300403
v -0.06418092 -0.03979452 0.00700000
v -0.06647518 -0.03691446 0.00300403
v -0.06648553 -0.03681390 0.00700000
v -0.06431574 -0.03974306 0.00300403
v -0.06437588 -0.03971784 0.00700000
v -0.06642316 -0.03722087 0.00300403
v -0.06646064 -0.03702175 0.00700000
v -0.06450567 -0.03965965 0.00300403
v -0.06456581 -0.03963005 0.00700000
v -0.06634707 -0.03752256 0.00300403
v -0.06637364 -0.03743141 0.00700000
v -0.06642316 -0.03722827 0.00700000
v -0.06469001 -0.03956480 0.00300403
v -0.06475015 -0.03953083 0.00700000
v -0.06628078 -0.03771865 0.00300403
v -0.06631183 -0.03763153 0.00700000
v -0.06486875 -0.03945919 0.00300403
v -0.06492833 -0.03942085 0.00700000
v -0.06620274 -0.03791137 0.00300403
v -0.06623826 -0.03782762 0.00700000
v -0.06512274 -0.03928060 0.00300403
v -0.06509896 -0.03930010 0.00700000
v -0.06606344 -0.03818918 0.00300403
v -0.06615323 -0.03801866 0.00700000
v -0.06536218 -0.03908216 0.00300403
v -0.06526260 -0.03916927 0.00700000
v -0.06590288 -0.03845489 0.00300403
v -0.06594931 -0.03838392 0.00700000
v -0.06605672 -0.03820499 0.00700000
v -0.06551099 -0.03893787 0.00300403
v -0.06541840 -0.03902969 0.00700000
v -0.06571630 -0.03870411 0.00300403
v -0.06583127 -0.03855714 0.00700000
v -0.06556553 -0.03888002 0.00700000
v -0.06570344 -0.03872261 0.00700000
f 1 2 3
f 1 3 4
f 1 4 5
f 1 5 2
f 2 5 8
f 2 8 13
f 2 13 17
f 2 17 21
f 2 21 26
f 2 26 30
f 2 30 34
f 2 34 38
f 2 38 43
f 2 43 45
f 2 45 40
f 2 40 36
f 2 36 32
f 2 32 28
f 2 28 23
f 2 23 19
f 2 19 15
f 2 15 10
f 2 10 6
f 2 6 7
f 2 7 3
f 3 7 12
f 3 12 16
f 3 16 20
f 3 20 25
f 3 25 24
f 3 24 29
f 3 29 33
f 3 33 37
f 3 37 42
f 3 42 41
f 3 41 46
f 3 46 48
f 3 48 47
f 3 47 44
f 3 44 39
f 3 39 35
f 3 35 31
f 3 31 27
f 3 27 22
f 3 22 18
f 3 18 14
f 3 14 9
f 3 9 4
f 4 8 5
f 4 9 8
f 6 10 11
f 6 11 7
f 7 11 12
f 8 9 13
f 9 14 13
f 10 15 16
f 10 16 12
f 10 12 11
f 13 14 17
f 14 18 17
f 15 19 20
f 15 20 16
f 17 18 21
f 18 22 21
f 19 23 24
f 19 24 25
f 19 25 20
f 21 22 26
f 22 27 26
f 23 28 29
f 23 29 24
f 26 27 30
f 27 31 30
f 28 32 33
f 28 33 29
f 30 31 34
f 31 35 34
f 32 36 37
f 32 37 33
f 34 35 39
f 34 39 38
f 36 40 41
f 36 41 42
f 36 42 37
f 38 39 44
f 38 44 43
f 40 45 46
f 40 46 41
f 43 44 47
f 43 47 45
f 45 47 48
f 45 48 46

