# https://github.com/mikedh/trimesh
v -0.06164977 -0.03650345 0.00300403
v -0.05950034 -0.03650139 0.00300403
v -0.06164977 -0.03650345 0.00700000
v -0.06299748 -0.03514995 0.00300403
v -0.05951540 -0.03619482 0.00300403
v -0.05950684 -0.03629016 0.00700000
v -0.05950034 -0.03650139 0.00700000
v -0.06299748 -0.03514995 0.00700000
v -0.06299748 -0.03300019 0.00308578
v -0.06269453 -0.03301528 0.00300403
v -0.05957428 -0.03579258 0.00300403
v -0.05952567 -0.03608166 0.00700000
v -0.06297215 -0.03300122 0.00700000
v -0.06273800 -0.03301013 0.00700000
v -0.06252987 -0.03303208 0.00700000
v -0.06239192 -0.03305368 0.00300403
v -0.05967937 -0.03539959 0.00300403
v -0.05960030 -0.03566981 0.00700000
v -0.05955682 -0.03587454 0.00700000
v -0.06232311 -0.03306637 0.00700000
v -0.06209410 -0.03312124 0.00300403
v -0.05978652 -0.03511360 0.00300403
v -0.05972353 -0.03526997 0.00700000
v -0.05965609 -0.03546784 0.00700000
v -0.06211909 -0.03311301 0.00700000
v -0.06170796 -0.03324915 0.00300403
v -0.06191815 -0.03317165 0.00700000
v -0.05992105 -0.03483961 0.00300403
v -0.05989401 -0.03488762 0.00700000
v -0.05980295 -0.03507622 0.00700000
v -0.06142897 -0.03337260 0.00300403
v -0.06172097 -0.03324229 0.00700000
v -0.06152859 -0.03332459 0.00700000
v -0.06013432 -0.03449394 0.00300403
v -0.05999568 -0.03470518 0.00700000
v -0.06116333 -0.03352280 0.00300403
v -0.06134134 -0.03341821 0.00700000
v -0.06038695 -0.03417469 0.00300403
v -0.06023154 -0.03435952 0.00700000
v -0.06010864 -0.03452892 0.00700000
v -0.06083025 -0.03375598 0.00300403
v -0.06116025 -0.03352280 0.00700000
v -0.06098566 -0.03363836 0.00700000
v -0.06059850 -0.03395453 0.00300403
v -0.06050710 -0.03404403 0.00700000
v -0.06036470 -0.03419766 0.00700000
v -0.06081793 -0.03376387 0.00700000
v -0.06065841 -0.03389932 0.00700000
f 1 2 7
f 1 7 3
f 1 3 8
f 1 8 4
f 1 4 10
f 1 10 16
f 1 16 21
f 1 21 26
f 1 26 31
f 1 31 36
f 1 36 41
f 1 41 44
f 1 44 38
f 1 38 34
f 1 34 28
f 1 28 22
f 1 22 17
f 1 17 11
f 1 11 5
f 1 5 2
f 2 5 6
f 2 6 7
f 3 7 6
f 3 6 12
f 3 12 19
f 3 19 18
f 3 18 24
f 3 24 23
f 3 23 30
f 3 30 29
f 3 29 35
f 3 35 40
f 3 40 39
f 3 39 46
f 3 46 45
f 3 45 48
f 3 48 47
f 3 47 43
f 3 43 42
f 3 42 37
f 3 37 33
f 3 33 32
f 3 32 27
f 3 27 25
f 3 25 20
f 3 20 15
f 3 15 14
f 3 14 13
f 3 13 8
f 4 9 10
f 4 8 9
f 5 11 12
f 5 12 6
f 8 13 9
f 9 13 14
f 9 14 10
f 10 14 15
f 10 15 16
f 11 17 18
f 11 18 19
f 11 19 12
f 15 20 16
f 16 20 21
f 17 22 23
f 17 23 24
f 17 24 18
f 20 25 21
f 21 25 27
f 21 27 26
f 22 28 29
f 22 29 30
f 22 30 23
f 26 27 32
f 26 32 33
f 26 33 31
f 28 34 35
f 28 35 29
f 31 33 37
f 31 37 36
f 34 38 39
f 34 39 40
f 34 40 35
f 36 37 42
f 36 42 43
f 36 43 41
f 38 44 45
f 38 45 46
f 38 46 39
f 41 43 47
f 41 47 48
f 41 48 44
f 44 48 45

