# https://github.com/mikedh/trimesh
v 0.01850000 0.01199746 0.00900000
v 0.01850000 0.01199746 -0.00000000
v 0.01450012 0.01199746 0.00900000
v 0.01850000 -0.01397107 0.00900000
v 0.01385862 0.01199746 -0.00000000
v 0.01850000 -0.00799887 -0.00000000
v 0.01385862 0.01199746 0.00300059
v 0.01450012 -0.01397107 0.00900000
v 0.01850000 -0.01397107 0.00597298
v 0.01385862 -0.00799887 -0.00000000
v 0.01385862 -0.00799887 0.00300059
v 0.01450012 -0.01397107 0.00597298
f 1 2 5
f 1 5 7
f 1 7 3
f 1 3 8
f 1 8 4
f 1 4 9
f 1 9 6
f 1 6 2
f 2 6 10
f 2 10 5
f 3 7 11
f 3 11 8
f 4 8 12
f 4 12 9
f 5 10 11
f 5 11 7
f 6 9 12
f 6 12 10
f 8 11 10
f 8 10 12

