# https://github.com/mikedh/trimesh
v -0.00589186 0.00868514 -0.00000000
v -0.00757739 0.00726867 -0.00000000
v -0.00756953 0.00868514 -0.00000000
v -0.00589464 0.00868514 0.00299971
v -0.00922081 0.00501647 0.00299971
v -0.00922359 0.00501647 0.00002760
v -0.01061987 0.00501647 0.00048953
v -0.00966557 0.00868514 0.00199980
v -0.00966557 0.00868514 0.00299971
v -0.01061987 0.00501647 0.00299971
v -0.01061987 0.00502760 0.00050010
v -0.01061987 0.00654930 0.00199980
v -0.01061987 0.00654930 0.00203181
v -0.01061987 0.00654355 0.00299971
f 1 2 3
f 1 3 8
f 1 8 9
f 1 9 4
f 1 4 5
f 1 5 6
f 1 6 2
f 2 6 3
f 3 6 7
f 3 7 8
f 4 9 14
f 4 14 10
f 4 10 5
f 5 10 7
f 5 7 6
f 7 10 14
f 7 14 13
f 7 13 12
f 7 12 11
f 7 11 8
f 8 11 12
f 8 12 13
f 8 13 9
f 9 13 14

