# https://github.com/mikedh/trimesh
v -0.02949830 -0.06450376 0.00450317
v -0.02734976 -0.06450376 0.00700000
v -0.02949796 -0.06444925 0.00700000
v -0.02949693 -0.06442491 0.00384233
v -0.02734976 -0.06450376 0.00384233
v -0.02599681 -0.06315003 0.00700000
v -0.02948527 -0.06418598 0.00700000
v -0.02948047 -0.06413730 0.00384233
v -0.02599681 -0.06315003 0.00384233
v -0.02605919 -0.06100237 0.00384233
v -0.02607736 -0.06100272 0.00700000
v -0.02946025 -0.06397790 0.00700000
v -0.02945271 -0.06393025 0.00384233
v -0.02644447 -0.06103014 0.00384233
v -0.02636632 -0.06101951 0.00700000
v -0.02942289 -0.06377187 0.00700000
v -0.02938621 -0.06362447 0.00384233
v -0.02657370 -0.06104762 0.00700000
v -0.02685444 -0.06110761 0.00384233
v -0.02937352 -0.06356860 0.00700000
v -0.02931148 -0.06336874 0.00700000
v -0.02925801 -0.06322716 0.00384233
v -0.02677937 -0.06108807 0.00700000
v -0.02724178 -0.06122999 0.00384233
v -0.02698195 -0.06114087 0.00700000
v -0.02923813 -0.06317232 0.00700000
v -0.02915278 -0.06298103 0.00700000
v -0.02908319 -0.06284837 0.00384233
v -0.02737581 -0.06128210 0.00700000
v -0.02718111 -0.06120565 0.00700000
v -0.02753006 -0.06135306 0.00384233
v -0.02905645 -0.06279523 0.00700000
v -0.02894916 -0.06261629 0.00700000
v -0.02886484 -0.06249357 0.00384233
v -0.02756605 -0.06137020 0.00700000
v -0.02780394 -0.06150355 0.00384233
v -0.02774978 -0.06146927 0.00700000
v -0.02883125 -0.06244317 0.00700000
v -0.02867494 -0.06224435 0.00384233
v -0.02806548 -0.06167564 0.00384233
v -0.02792768 -0.06157931 0.00700000
v -0.02870305 -0.06227760 0.00700000
v -0.02856525 -0.06211957 0.00700000
v -0.02846139 -0.06201536 0.00384233
v -0.02809907 -0.06169998 0.00700000
v -0.02823036 -0.06180385 0.00384233
v -0.02841820 -0.06197045 0.00700000
v -0.02826258 -0.06183024 0.00700000
f 1 2 3
f 1 3 4
f 1 4 5
f 1 5 2
f 2 5 9
f 2 9 6
f 2 6 11
f 2 11 15
f 2 15 18
f 2 18 23
f 2 23 25
f 2 25 30
f 2 30 29
f 2 29 35
f 2 35 37
f 2 37 41
f 2 41 45
f 2 45 48
f 2 48 47
f 2 47 43
f 2 43 42
f 2 42 38
f 2 38 33
f 2 33 32
f 2 32 27
f 2 27 26
f 2 26 21
f 2 21 20
f 2 20 16
f 2 16 12
f 2 12 7
f 2 7 3
f 3 7 4
f 4 7 8
f 4 8 13
f 4 13 17
f 4 17 22
f 4 22 28
f 4 28 34
f 4 34 39
f 4 39 44
f 4 44 46
f 4 46 40
f 4 40 36
f 4 36 31
f 4 31 24
f 4 24 19
f 4 19 14
f 4 14 10
f 4 10 9
f 4 9 5
f 6 9 10
f 6 10 11
f 7 12 8
f 8 12 13
f 10 14 15
f 10 15 11
f 12 16 13
f 13 16 17
f 14 18 15
f 14 19 18
f 16 20 17
f 17 20 21
f 17 21 22
f 18 19 23
f 19 24 25
f 19 25 23
f 21 26 22
f 22 26 27
f 22 27 28
f 24 29 30
f 24 30 25
f 24 31 29
f 27 32 28
f 28 32 33
f 28 33 34
f 29 31 35
f 31 36 37
f 31 37 35
f 33 38 34
f 34 38 39
f 36 40 41
f 36 41 37
f 38 42 39
f 39 43 44
f 39 42 43
f 40 45 41
f 40 46 45
f 43 47 44
f 44 47 46
f 45 46 48
f 46 47 48

