# https://github.com/mikedh/trimesh
v -0.00970475 -0.00400201 -0.00000000
v -0.00970730 -0.00400201 0.00299971
v -0.00800152 -0.00679309 0.00299971
v -0.00800152 -0.00679622 -0.00000000
v -0.01449351 -0.00400201 -0.00000000
v -0.01449351 -0.00400201 0.00299971
v -0.00800152 -0.00799961 0.00299971
v -0.00800152 -0.00799374 -0.00000000
v -0.01449351 -0.00800000 -0.00000000
v -0.01449351 -0.00799804 0.00299971
f 1 2 3
f 1 3 4
f 1 4 8
f 1 8 9
f 1 9 5
f 1 5 6
f 1 6 2
f 2 6 10
f 2 10 7
f 2 7 3
f 3 7 8
f 3 8 4
f 5 9 10
f 5 10 6
f 7 10 9
f 7 9 8

