# https://github.com/mikedh/trimesh
v -0.06434975 -0.03650311 0.00300403
v -0.06649383 -0.03629599 0.00300403
v -0.06299783 -0.03514998 0.00300403
v -0.06434975 -0.03650311 0.00700000
v -0.06649966 -0.03650242 0.00307874
v -0.06647566 -0.03609299 0.00300403
v -0.06649795 -0.03644893 0.00700000
v -0.06648526 -0.03618591 0.00700000
v -0.06330530 -0.03301500 0.00300403
v -0.06299851 -0.03300026 0.00308578
v -0.06299783 -0.03514998 0.00700000
v -0.06646024 -0.03597777 0.00700000
v -0.06642562 -0.03579225 0.00300403
v -0.06370772 -0.03307433 0.00300403
v -0.06357369 -0.03304758 0.00700000
v -0.06336631 -0.03301946 0.00700000
v -0.06307769 -0.03300266 0.00700000
v -0.06642288 -0.03577202 0.00700000
v -0.06637352 -0.03556867 0.00700000
v -0.06632038 -0.03539893 0.00300403
v -0.06400423 -0.03314737 0.00300403
v -0.06377936 -0.03308804 0.00700000
v -0.06631181 -0.03536841 0.00700000
v -0.06621309 -0.03511328 0.00300403
v -0.06419755 -0.03321149 0.00300403
v -0.06418110 -0.03320566 0.00700000
v -0.06398194 -0.03314085 0.00700000
v -0.06623812 -0.03517227 0.00700000
v -0.06607873 -0.03483930 0.00300403
v -0.06615277 -0.03498126 0.00700000
v -0.06447898 -0.03332945 0.00300403
v -0.06437580 -0.03328213 0.00700000
v -0.06586552 -0.03449330 0.00300403
v -0.06605645 -0.03479540 0.00700000
v -0.06594916 -0.03461640 0.00700000
v -0.06483649 -0.03352286 0.00300403
v -0.06456604 -0.03336992 0.00700000
v -0.06561323 -0.03417439 0.00300403
v -0.06583124 -0.03444289 0.00700000
v -0.06570304 -0.03427726 0.00700000
v -0.06508947 -0.03369260 0.00300403
v -0.06492767 -0.03357944 0.00700000
v -0.06474977 -0.03346936 0.00700000
v -0.06532530 -0.03388669 0.00300403
v -0.06556524 -0.03411952 0.00700000
v -0.06541819 -0.03397036 0.00700000
v -0.06526257 -0.03383045 0.00700000
v -0.06509906 -0.03369980 0.00700000
f 1 2 6
f 1 6 13
f 1 13 20
f 1 20 24
f 1 24 29
f 1 29 33
f 1 33 38
f 1 38 44
f 1 44 41
f 1 41 36
f 1 36 31
f 1 31 25
f 1 25 21
f 1 21 14
f 1 14 9
f 1 9 3
f 1 3 11
f 1 11 4
f 1 4 5
f 1 5 2
f 2 5 7
f 2 7 8
f 2 8 6
f 3 9 10
f 3 10 11
f 4 7 5
f 4 11 17
f 4 17 16
f 4 16 15
f 4 15 22
f 4 22 27
f 4 27 26
f 4 26 32
f 4 32 37
f 4 37 43
f 4 43 42
f 4 42 48
f 4 48 47
f 4 47 46
f 4 46 45
f 4 45 40
f 4 40 39
f 4 39 35
f 4 35 34
f 4 34 30
f 4 30 28
f 4 28 23
f 4 23 19
f 4 19 18
f 4 18 12
f 4 12 8
f 4 8 7
f 6 8 12
f 6 12 13
f 9 14 15
f 9 15 16
f 9 16 17
f 9 17 10
f 10 17 11
f 12 18 13
f 13 18 19
f 13 19 20
f 14 21 22
f 14 22 15
f 19 23 20
f 20 23 24
f 21 25 26
f 21 26 27
f 21 27 22
f 23 28 24
f 24 28 30
f 24 30 29
f 25 31 32
f 25 32 26
f 29 30 34
f 29 34 35
f 29 35 33
f 31 36 37
f 31 37 32
f 33 35 39
f 33 39 40
f 33 40 38
f 36 41 42
f 36 42 43
f 36 43 37
f 38 40 45
f 38 45 46
f 38 46 44
f 41 44 47
f 41 47 48
f 41 48 42
f 44 46 47

