# https://github.com/mikedh/trimesh
v -0.02003081 -0.03300072 0.00061278
v -0.02003081 -0.03300576 0.00299952
v -0.02003081 -0.03300072 0.00000074
v -0.02955091 -0.03300072 0.00299952
v -0.02585600 -0.03300792 0.00380130
v -0.02529780 -0.03307342 0.00380130
v -0.02485516 -0.03319796 0.00380130
v -0.02429790 -0.03344846 0.00380130
v -0.02382916 -0.03375872 0.00380130
v -0.02348996 -0.03406897 0.00380130
v -0.02313025 -0.03450160 0.00380130
v -0.02283205 -0.03503069 0.00380130
v -0.02260840 -0.03566055 0.00380130
v -0.02251335 -0.03626090 0.00380130
v -0.02003081 -0.04035395 0.00299952
v -0.02003081 -0.04035395 0.00000074
v -0.02955091 -0.03300072 0.00000074
v -0.02949313 -0.03660139 0.00380130
v -0.02947729 -0.03613277 0.00380130
v -0.02940926 -0.03572102 0.00380130
v -0.02927134 -0.03527255 0.00380130
v -0.02902905 -0.03475283 0.00380130
v -0.02870103 -0.03428277 0.00380130
v -0.02822018 -0.03380623 0.00380130
v -0.02766105 -0.03342543 0.00380130
v -0.02713640 -0.03319292 0.00380130
v -0.02673476 -0.03308134 0.00380130
v -0.02632194 -0.03301728 0.00380130
v -0.02955091 -0.04035395 0.00299952
v -0.02254689 -0.03701314 0.00380130
v -0.02268947 -0.03762717 0.00380130
v -0.02286932 -0.03805476 0.00380130
v -0.02329333 -0.03870406 0.00380130
v -0.02384034 -0.03924611 0.00380130
v -0.02423453 -0.03951893 0.00380130
v -0.02461567 -0.03971185 0.00380130
v -0.02514311 -0.03988893 0.00380130
v -0.02559973 -0.03997459 0.00380130
v -0.02602653 -0.03999763 0.00380130
v -0.02955091 -0.04035395 0.00000074
v -0.02943256 -0.03717007 0.00380130
v -0.02897873 -0.03833118 0.00380130
v -0.02925177 -0.03776898 0.00380130
v -0.02644309 -0.03996883 0.00380130
v -0.02699849 -0.03984934 0.00380130
v -0.02757905 -0.03961755 0.00380130
v -0.02814377 -0.03925474 0.00380130
v -0.02863766 -0.03879188 0.00380130
f 1 2 15
f 1 15 16
f 1 16 3
f 1 3 17
f 1 17 4
f 1 4 2
f 2 4 5
f 2 5 6
f 2 6 7
f 2 7 8
f 2 8 9
f 2 9 10
f 2 10 11
f 2 11 12
f 2 12 13
f 2 13 14
f 2 14 15
f 3 16 40
f 3 40 17
f 4 18 19
f 4 19 20
f 4 20 21
f 4 21 22
f 4 22 23
f 4 23 24
f 4 24 25
f 4 25 26
f 4 26 27
f 4 27 28
f 4 28 5
f 4 17 40
f 4 40 29
f 4 29 18
f 5 28 27
f 5 27 26
f 5 26 25
f 5 25 24
f 5 24 23
f 5 23 22
f 5 22 21
f 5 21 20
f 5 20 19
f 5 19 18
f 5 18 41
f 5 41 43
f 5 43 42
f 5 42 48
f 5 48 47
f 5 47 46
f 5 46 45
f 5 45 44
f 5 44 39
f 5 39 38
f 5 38 37
f 5 37 36
f 5 36 35
f 5 35 34
f 5 34 33
f 5 33 32
f 5 32 31
f 5 31 30
f 5 30 14
f 5 14 13
f 5 13 12
f 5 12 11
f 5 11 10
f 5 10 9
f 5 9 8
f 5 8 7
f 5 7 6
f 14 30 15
f 15 30 31
f 15 31 32
f 15 32 33
f 15 33 34
f 15 34 35
f 15 35 36
f 15 36 37
f 15 37 38
f 15 38 39
f 15 39 29
f 15 29 40
f 15 40 16
f 18 29 41
f 29 42 43
f 29 43 41
f 29 39 44
f 29 44 45
f 29 45 46
f 29 46 47
f 29 47 48
f 29 48 42

