# https://github.com/mikedh/trimesh
v -0.06648466 -0.06480525 0.00300403
v -0.06642559 -0.06520759 0.00300403
v -0.06646062 -0.06502216 0.00700000
v -0.06648547 -0.06481415 0.00700000
v -0.06649810 -0.06455482 0.00700000
v -0.06649932 -0.06450418 0.00308578
v -0.06434962 -0.06450418 0.00300403
v -0.06632048 -0.06560069 0.00300403
v -0.06637344 -0.06543134 0.00700000
v -0.06642314 -0.06522812 0.00700000
v -0.06434962 -0.06450418 0.00700000
v -0.06233803 -0.06567596 0.00300403
v -0.06621335 -0.06588636 0.00300403
v -0.06631193 -0.06563148 0.00700000
v -0.06233803 -0.06567596 0.00700000
v -0.06233803 -0.06793602 0.00618524
v -0.06236573 -0.06794081 0.00300403
v -0.06623820 -0.06582752 0.00700000
v -0.06607892 -0.06616074 0.00300403
v -0.06615306 -0.06601876 0.00700000
v -0.06243457 -0.06795176 0.00700000
v -0.06269570 -0.06798460 0.00300403
v -0.06586545 -0.06650629 0.00300403
v -0.06600274 -0.06629417 0.00700000
v -0.06273888 -0.06798974 0.00700000
v -0.06294827 -0.06799897 0.00700000
v -0.06310226 -0.06799658 0.00300403
v -0.06570332 -0.06672251 0.00700000
v -0.06583123 -0.06655692 0.00700000
v -0.06561329 -0.06682549 0.00300403
v -0.06326195 -0.06798802 0.00700000
v -0.06350759 -0.06796100 0.00300403
v -0.06556522 -0.06688023 0.00700000
v -0.06532528 -0.06711321 0.00300403
v -0.06541857 -0.06702940 0.00700000
v -0.06357399 -0.06795210 0.00700000
v -0.06377931 -0.06791173 0.00700000
v -0.06390600 -0.06787889 0.00300403
v -0.06509878 -0.06730001 0.00700000
v -0.06526295 -0.06716966 0.00700000
v -0.06500631 -0.06736570 0.00300403
v -0.06398177 -0.06785904 0.00700000
v -0.06418097 -0.06779438 0.00700000
v -0.06429219 -0.06775093 0.00300403
v -0.06492768 -0.06742044 0.00700000
v -0.06466004 -0.06757885 0.00300403
v -0.06437570 -0.06771775 0.00700000
v -0.06465719 -0.06758021 0.00700000
f 1 2 3
f 1 3 4
f 1 4 5
f 1 5 6
f 1 6 7
f 1 7 12
f 1 12 17
f 1 17 22
f 1 22 27
f 1 27 32
f 1 32 38
f 1 38 44
f 1 44 46
f 1 46 41
f 1 41 34
f 1 34 30
f 1 30 23
f 1 23 19
f 1 19 13
f 1 13 8
f 1 8 2
f 2 8 9
f 2 9 10
f 2 10 3
f 3 10 9
f 3 9 14
f 3 14 18
f 3 18 20
f 3 20 24
f 3 24 29
f 3 29 28
f 3 28 33
f 3 33 35
f 3 35 40
f 3 40 39
f 3 39 45
f 3 45 48
f 3 48 47
f 3 47 43
f 3 43 42
f 3 42 37
f 3 37 36
f 3 36 31
f 3 31 26
f 3 26 25
f 3 25 21
f 3 21 15
f 3 15 11
f 3 11 5
f 3 5 4
f 5 11 6
f 6 11 7
f 7 11 15
f 7 15 12
f 8 13 14
f 8 14 9
f 12 15 16
f 12 16 17
f 13 18 14
f 13 19 20
f 13 20 18
f 15 21 16
f 16 21 17
f 17 21 22
f 19 23 24
f 19 24 20
f 21 25 22
f 22 25 26
f 22 26 27
f 23 28 29
f 23 29 24
f 23 30 28
f 26 31 27
f 27 31 32
f 28 30 33
f 30 34 35
f 30 35 33
f 31 36 32
f 32 36 37
f 32 37 38
f 34 39 40
f 34 40 35
f 34 41 39
f 37 42 38
f 38 42 43
f 38 43 44
f 39 41 45
f 41 46 45
f 43 47 44
f 44 47 46
f 45 46 48
f 46 47 48

