# https://github.com/mikedh/trimesh
v -0.01450003 -0.01400024 0.00900000
v -0.01449415 -0.02000036 0.00300059
v -0.01450003 -0.01400024 0.00599941
v -0.01850000 -0.01400024 0.00900000
v -0.01450003 -0.03291144 0.00900000
v -0.01449415 -0.02000036 -0.00000000
v -0.01449415 -0.03291144 0.00300059
v -0.01850000 -0.01400024 0.00599941
v -0.01850000 -0.03291144 0.00900000
v -0.01850000 -0.02000036 -0.00000000
v -0.01449415 -0.03291144 -0.00000000
v -0.01850000 -0.03291144 -0.00000000
f 1 2 6
f 1 6 3
f 1 3 8
f 1 8 4
f 1 4 9
f 1 9 5
f 1 5 7
f 1 7 2
f 2 7 11
f 2 11 6
f 3 6 10
f 3 10 8
f 4 8 10
f 4 10 12
f 4 12 9
f 5 9 12
f 5 12 11
f 5 11 7
f 6 11 12
f 6 12 10

