# https://github.com/mikedh/trimesh
v 0.00652900 0.00821827 -0.00000000
v 0.00653406 0.00821827 0.00299971
v 0.00750715 0.00821827 -0.00000000
v 0.00975336 0.00388466 -0.00000000
v 0.00975041 0.00388466 0.00299971
v 0.00951663 0.00821827 0.00299971
v 0.00801311 0.00821827 0.00050010
v 0.01083955 0.00450405 -0.00000000
v 0.01083955 0.00388466 -0.00000000
v 0.01083955 0.00388466 0.00299971
v 0.00951663 0.00821827 0.00199980
v 0.01083955 0.00650900 0.00299971
v 0.01083955 0.00500805 0.00050010
v 0.01083955 0.00650900 0.00199980
v 0.01083955 0.00601010 0.00150000
v 0.01083955 0.00539241 0.00088361
f 1 2 6
f 1 6 11
f 1 11 7
f 1 7 3
f 1 3 8
f 1 8 9
f 1 9 4
f 1 4 5
f 1 5 2
f 2 5 10
f 2 10 12
f 2 12 6
f 3 7 8
f 4 9 10
f 4 10 5
f 6 12 14
f 6 14 11
f 7 11 8
f 8 13 16
f 8 16 15
f 8 15 14
f 8 14 12
f 8 12 10
f 8 10 9
f 8 11 13
f 11 14 15
f 11 15 16
f 11 16 13

