# https://github.com/mikedh/trimesh
v 0.06650000 -0.03956807 0.00299971
v 0.06647975 -0.06418440 0.00300403
v 0.06650000 -0.06799722 0.00299971
v 0.06650000 -0.03956807 0.00099750
v 0.02512208 -0.03956807 0.00299971
v 0.03154650 -0.04797853 0.00300403
v 0.03211764 -0.04801749 0.00300403
v 0.03272930 -0.04816778 0.00300403
v 0.06438148 -0.06128443 0.00300403
v 0.06475414 -0.06147368 0.00300403
v 0.06522403 -0.06180208 0.00300403
v 0.06569796 -0.06228634 0.00300403
v 0.06607468 -0.06284574 0.00300403
v 0.06636228 -0.06357212 0.00300403
v 0.06647569 -0.06480224 0.00300403
v 0.06635823 -0.06545070 0.00300403
v 0.06616784 -0.06597392 0.00300403
v 0.06594505 -0.06637468 0.00300403
v 0.06546302 -0.06696748 0.00300403
v 0.06500124 -0.06736267 0.00300403
v 0.06460832 -0.06759924 0.00300403
v 0.06419110 -0.06778570 0.00300403
v 0.06375363 -0.06791094 0.00300403
v 0.06309741 -0.06798609 0.00300403
v 0.02512208 -0.06799165 0.00279309
v 0.02512208 -0.06799722 0.00099750
v 0.06650000 -0.06799722 0.00099750
v 0.02512208 -0.03956807 0.00099750
v 0.02825732 -0.05250660 0.00300403
v 0.02815201 -0.05204739 0.00300403
v 0.02810340 -0.05147408 0.00300403
v 0.02816416 -0.05085345 0.00300403
v 0.02832619 -0.05024674 0.00300403
v 0.02849632 -0.04986267 0.00300403
v 0.02870695 -0.04950366 0.00300403
v 0.02896620 -0.04917247 0.00300403
v 0.02925785 -0.04887468 0.00300403
v 0.02971558 -0.04852958 0.00300403
v 0.03012875 -0.04830137 0.00300403
v 0.03066749 -0.04810377 0.00300403
v 0.03112927 -0.04800914 0.00300403
v 0.06247765 -0.06795547 0.00300403
v 0.06191866 -0.06782188 0.00300403
v 0.03012875 -0.05464400 0.00300403
v 0.02971558 -0.05441579 0.00300403
v 0.02911202 -0.05392040 0.00300403
v 0.02870695 -0.05344450 0.00300403
v 0.02842745 -0.05294354 0.00300403
f 1 2 3
f 1 3 27
f 1 27 4
f 1 4 28
f 1 28 5
f 1 5 6
f 1 6 7
f 1 7 8
f 1 8 9
f 1 9 10
f 1 10 11
f 1 11 12
f 1 12 13
f 1 13 14
f 1 14 2
f 2 15 3
f 2 14 13
f 2 13 12
f 2 12 11
f 2 11 10
f 2 10 9
f 2 9 8
f 2 8 7
f 2 7 6
f 2 6 41
f 2 41 40
f 2 40 39
f 2 39 38
f 2 38 37
f 2 37 36
f 2 36 35
f 2 35 34
f 2 34 33
f 2 33 32
f 2 32 31
f 2 31 30
f 2 30 29
f 2 29 48
f 2 48 47
f 2 47 46
f 2 46 45
f 2 45 44
f 2 44 43
f 2 43 42
f 2 42 24
f 2 24 23
f 2 23 22
f 2 22 21
f 2 21 20
f 2 20 19
f 2 19 18
f 2 18 17
f 2 17 16
f 2 16 15
f 3 15 16
f 3 16 17
f 3 17 18
f 3 18 19
f 3 19 20
f 3 20 21
f 3 21 22
f 3 22 23
f 3 23 24
f 3 24 25
f 3 25 26
f 3 26 27
f 4 27 26
f 4 26 28
f 5 28 26
f 5 26 25
f 5 25 29
f 5 29 30
f 5 30 31
f 5 31 32
f 5 32 33
f 5 33 34
f 5 34 35
f 5 35 36
f 5 36 37
f 5 37 38
f 5 38 39
f 5 39 40
f 5 40 41
f 5 41 6
f 24 42 25
f 25 42 43
f 25 43 44
f 25 44 45
f 25 45 46
f 25 46 47
f 25 47 48
f 25 48 29

