# https://github.com/mikedh/trimesh
v 0.01073016 -0.06800000 0.00000029
v 0.01871328 -0.06800000 0.00000029
v 0.01073016 -0.06800000 0.00299962
v 0.01073016 -0.03549577 0.00000029
v 0.01871328 -0.06800000 0.00298610
v 0.02511385 -0.06799657 0.00000029
v 0.01450067 -0.06800000 0.00300374
v 0.01073016 -0.03347993 0.00299962
v 0.01073016 -0.03547173 0.00002323
v 0.01437959 -0.03291673 0.00000029
v 0.01849927 -0.06800000 0.00300374
v 0.02511385 -0.06799657 0.00258623
v 0.02511385 -0.03300258 0.00000029
v 0.01450067 -0.03291673 0.00300374
v 0.01219022 -0.03291673 0.00299962
v 0.01073016 -0.03347993 0.00199965
v 0.01073016 -0.03498752 0.00050043
v 0.01219022 -0.03291673 0.00199965
v 0.01849927 -0.03291673 0.00000029
v 0.02511385 -0.06798283 0.00299962
v 0.01849927 -0.03291673 0.00300374
v 0.02511385 -0.03300258 0.00299962
f 1 2 5
f 1 5 11
f 1 11 7
f 1 7 3
f 1 3 8
f 1 8 16
f 1 16 17
f 1 17 9
f 1 9 4
f 1 4 10
f 1 10 19
f 1 19 13
f 1 13 6
f 1 6 2
f 2 6 12
f 2 12 5
f 3 7 14
f 3 14 8
f 4 9 10
f 5 12 11
f 6 13 22
f 6 22 20
f 6 20 12
f 7 11 21
f 7 21 14
f 8 14 15
f 8 15 18
f 8 18 16
f 9 17 10
f 10 17 16
f 10 16 18
f 10 18 15
f 10 15 14
f 10 14 21
f 10 21 19
f 11 12 20
f 11 20 22
f 11 22 21
f 13 19 21
f 13 21 22

