# https://github.com/mikedh/trimesh
v -0.01449415 -0.00400201 -0.00000000
v -0.00970472 -0.00400201 -0.00000000
v -0.01449415 -0.00400201 0.00299971
v -0.01449415 0.00501558 -0.00000000
v -0.00970679 -0.00400201 0.00299971
v -0.00924999 0.00496879 -0.00000000
v -0.00922418 0.00501558 0.00002760
v -0.00922109 0.00501558 0.00299971
v -0.01449415 0.00501558 0.00299971
v -0.01282903 0.00501558 -0.00000000
f 1 2 5
f 1 5 3
f 1 3 9
f 1 9 4
f 1 4 10
f 1 10 6
f 1 6 2
f 2 6 7
f 2 7 8
f 2 8 5
f 3 5 8
f 3 8 9
f 4 9 8
f 4 8 7
f 4 7 10
f 6 10 7

