# https://github.com/mikedh/trimesh
v -0.02003081 -0.06096747 0.00299969
v -0.02003081 -0.06096747 -0.00000000
v -0.02955091 -0.06096747 0.00299969
v -0.02582338 -0.06101221 0.00384127
v -0.02518784 -0.06109826 0.00384127
v -0.02464549 -0.06127930 0.00384127
v -0.02405654 -0.06160009 0.00384127
v -0.02357010 -0.06198421 0.00384127
v -0.02328121 -0.06230087 0.00384127
v -0.02296810 -0.06276139 0.00384127
v -0.02275843 -0.06318750 0.00384127
v -0.02262610 -0.06358332 0.00384127
v -0.02253944 -0.06399154 0.00384127
v -0.02250496 -0.06445276 0.00384127
v -0.02003081 -0.06800000 0.00299969
v -0.02003081 -0.06800000 -0.00000000
v -0.02955091 -0.06096747 -0.00000000
v -0.02955091 -0.06800000 0.00299969
v -0.02949127 -0.06445620 0.00384127
v -0.02943442 -0.06384009 0.00384127
v -0.02925364 -0.06323569 0.00384127
v -0.02889486 -0.06254249 0.00384127
v -0.02849602 -0.06205443 0.00384127
v -0.02814749 -0.06173984 0.00384127
v -0.02780270 -0.06150372 0.00384127
v -0.02743367 -0.06131028 0.00384127
v -0.02704322 -0.06116228 0.00384127
v -0.02659219 -0.06105558 0.00384127
v -0.02257858 -0.06519346 0.00384127
v -0.02283018 -0.06596376 0.00384127
v -0.02313025 -0.06649794 0.00384127
v -0.02341913 -0.06685591 0.00384127
v -0.02382916 -0.06724140 0.00384127
v -0.02416370 -0.06747614 0.00384127
v -0.02471445 -0.06774598 0.00384127
v -0.02529780 -0.06792634 0.00384127
v -0.02575442 -0.06798623 0.00384127
v -0.02955091 -0.06800000 -0.00000000
v -0.02944933 -0.06507368 0.00384127
v -0.02637413 -0.06797453 0.00384127
v -0.02693791 -0.06786920 0.00384127
v -0.02733303 -0.06773290 0.00384127
v -0.02770858 -0.06755117 0.00384127
v -0.02805990 -0.06732607 0.00384127
v -0.02838140 -0.06706035 0.00384127
v -0.02870103 -0.06671685 0.00384127
v -0.02912131 -0.06606495 0.00384127
v -0.02935708 -0.06548051 0.00384127
f 1 2 17
f 1 17 3
f 1 3 4
f 1 4 5
f 1 5 6
f 1 6 7
f 1 7 8
f 1 8 9
f 1 9 10
f 1 10 11
f 1 11 12
f 1 12 13
f 1 13 14
f 1 14 15
f 1 15 16
f 1 16 2
f 2 16 38
f 2 38 17
f 3 17 38
f 3 38 18
f 3 18 19
f 3 19 20
f 3 20 21
f 3 21 22
f 3 22 23
f 3 23 24
f 3 24 25
f 3 25 26
f 3 26 27
f 3 27 28
f 3 28 4
f 4 28 27
f 4 27 26
f 4 26 25
f 4 25 24
f 4 24 23
f 4 23 22
f 4 22 21
f 4 21 20
f 4 20 19
f 4 19 39
f 4 39 48
f 4 48 47
f 4 47 46
f 4 46 45
f 4 45 44
f 4 44 43
f 4 43 42
f 4 42 41
f 4 41 40
f 4 40 37
f 4 37 36
f 4 36 35
f 4 35 34
f 4 34 33
f 4 33 32
f 4 32 31
f 4 31 30
f 4 30 29
f 4 29 14
f 4 14 13
f 4 13 12
f 4 12 11
f 4 11 10
f 4 10 9
f 4 9 8
f 4 8 7
f 4 7 6
f 4 6 5
f 14 29 15
f 15 29 30
f 15 30 31
f 15 31 32
f 15 32 33
f 15 33 34
f 15 34 35
f 15 35 36
f 15 36 37
f 15 37 18
f 15 18 38
f 15 38 16
f 18 39 19
f 18 37 40
f 18 40 41
f 18 41 42
f 18 42 43
f 18 43 44
f 18 44 45
f 18 45 46
f 18 46 47
f 18 47 48
f 18 48 39

