# https://github.com/mikedh/trimesh
v 0.01385835 0.01200000 0.00299971
v 0.01385835 0.01200000 -0.00000000
v 0.01115644 0.01200000 0.00299971
v 0.01385835 0.00821869 0.00299971
v 0.01115644 0.01200000 -0.00000000
v 0.01385835 0.01001681 -0.00000000
v 0.01115644 0.00949196 0.00299971
v 0.01248399 0.00821869 0.00299971
v 0.01385835 0.00821869 0.00063078
v 0.01115644 0.01149958 -0.00000000
v 0.01115644 0.00949196 0.00199980
v 0.01248399 0.00821869 0.00199980
v 0.01298443 0.00821869 0.00150000
v 0.01115644 0.01099138 0.00050010
v 0.01115644 0.01138409 0.00011130
v 0.01267602 0.00821869 0.00180775
f 1 2 5
f 1 5 3
f 1 3 7
f 1 7 8
f 1 8 4
f 1 4 9
f 1 9 6
f 1 6 2
f 2 6 10
f 2 10 5
f 3 5 10
f 3 10 15
f 3 15 14
f 3 14 11
f 3 11 7
f 4 8 12
f 4 12 16
f 4 16 13
f 4 13 9
f 6 9 10
f 7 11 12
f 7 12 8
f 9 13 11
f 9 11 14
f 9 14 15
f 9 15 10
f 11 13 16
f 11 16 12

