# https://github.com/mikedh/trimesh
v -0.02002999 -0.06800000 0.00000029
v 0.01073016 -0.06800000 0.00000029
v -0.02002999 -0.06800000 0.00299962
v -0.02002999 -0.03300942 0.00000029
v 0.01073016 -0.03549256 0.00000029
v 0.01073016 -0.06800000 0.00299962
v -0.01849740 -0.06800000 0.00300374
v -0.02002999 -0.03301286 0.00299962
v -0.02002999 -0.03300942 0.00061304
v -0.01849740 -0.03292013 0.00000029
v 0.01073016 -0.03546852 0.00002293
v 0.00761982 -0.03291669 0.00000029
v 0.01073016 -0.03347652 0.00299962
v -0.01449882 -0.06800000 0.00300374
v -0.01849740 -0.03292013 0.00300374
v -0.00921757 -0.03291326 0.00150010
v -0.00762175 -0.03291669 0.00000029
v 0.01073016 -0.03498426 0.00050013
v 0.00921865 -0.03291326 0.00150010
v 0.00980880 -0.03291669 0.00199965
v 0.01073016 -0.03347652 0.00199965
v 0.00980880 -0.03291669 0.00299962
v -0.01449882 -0.03292013 0.00300374
v -0.00980772 -0.03291669 0.00299962
f 1 2 6
f 1 6 14
f 1 14 7
f 1 7 3
f 1 3 8
f 1 8 9
f 1 9 4
f 1 4 10
f 1 10 17
f 1 17 12
f 1 12 5
f 1 5 2
f 2 5 11
f 2 11 18
f 2 18 21
f 2 21 13
f 2 13 6
f 3 7 15
f 3 15 8
f 4 9 15
f 4 15 10
f 5 12 11
f 6 13 23
f 6 23 14
f 7 14 23
f 7 23 15
f 8 15 9
f 10 15 16
f 10 16 17
f 11 12 18
f 12 17 16
f 12 16 19
f 12 19 20
f 12 20 21
f 12 21 18
f 13 21 20
f 13 20 22
f 13 22 23
f 15 23 22
f 15 22 24
f 15 24 16
f 16 24 22
f 16 22 19
f 19 22 20

