# https://github.com/mikedh/trimesh
v 0.03294517 -0.05147606 0.00300403
v 0.03509442 -0.05147400 0.00300403
v 0.03294517 -0.05147606 0.00700000
v 0.03159902 -0.05012236 0.00300403
v 0.03508827 -0.05126244 0.00300403
v 0.03509442 -0.05147400 0.00700000
v 0.03159902 -0.05012236 0.00700000
v 0.03162366 -0.04797317 0.00300403
v 0.03506945 -0.05105397 0.00300403
v 0.03508827 -0.05126244 0.00700000
v 0.03162366 -0.04797317 0.00700000
v 0.03196105 -0.04799340 0.00300403
v 0.03503831 -0.05084687 0.00300403
v 0.03506945 -0.05105397 0.00700000
v 0.03196105 -0.04799340 0.00700000
v 0.03227175 -0.04803866 0.00300403
v 0.03499485 -0.05064217 0.00300403
v 0.03503831 -0.05084687 0.00700000
v 0.03227175 -0.04803866 0.00700000
v 0.03247604 -0.04808530 0.00300403
v 0.03493907 -0.05044021 0.00300403
v 0.03499485 -0.05064217 0.00700000
v 0.03247604 -0.04808530 0.00700000
v 0.03267690 -0.04814393 0.00300403
v 0.03487132 -0.05024203 0.00300403
v 0.03493907 -0.05044021 0.00700000
v 0.03267690 -0.04814393 0.00700000
v 0.03287399 -0.04821456 0.00300403
v 0.03479193 -0.05004830 0.00300403
v 0.03487132 -0.05024203 0.00700000
v 0.03287399 -0.04821456 0.00700000
v 0.03306664 -0.04829685 0.00300403
v 0.03465027 -0.04976850 0.00300403
v 0.03479193 -0.05004830 0.00700000
v 0.03306664 -0.04829685 0.00700000
v 0.03334450 -0.04844292 0.00300403
v 0.03442477 -0.04941636 0.00300403
v 0.03465027 -0.04976850 0.00700000
v 0.03334450 -0.04844292 0.00700000
v 0.03360901 -0.04861059 0.00300403
v 0.03415924 -0.04909303 0.00300403
v 0.03442477 -0.04941636 0.00700000
v 0.03360901 -0.04861059 0.00700000
v 0.03377667 -0.04873609 0.00300403
v 0.03393647 -0.04887153 0.00300403
v 0.03415924 -0.04909303 0.00700000
v 0.03377667 -0.04873609 0.00700000
v 0.03393647 -0.04887153 0.00700000
f 1 2 6
f 1 6 3
f 1 3 7
f 1 7 4
f 1 4 8
f 1 8 12
f 1 12 16
f 1 16 20
f 1 20 24
f 1 24 28
f 1 28 32
f 1 32 36
f 1 36 40
f 1 40 44
f 1 44 45
f 1 45 41
f 1 41 37
f 1 37 33
f 1 33 29
f 1 29 25
f 1 25 21
f 1 21 17
f 1 17 13
f 1 13 9
f 1 9 5
f 1 5 2
f 2 5 10
f 2 10 6
f 3 6 10
f 3 10 14
f 3 14 18
f 3 18 22
f 3 22 26
f 3 26 30
f 3 30 34
f 3 34 38
f 3 38 42
f 3 42 46
f 3 46 48
f 3 48 47
f 3 47 43
f 3 43 39
f 3 39 35
f 3 35 31
f 3 31 27
f 3 27 23
f 3 23 19
f 3 19 15
f 3 15 11
f 3 11 7
f 4 7 11
f 4 11 8
f 5 9 14
f 5 14 10
f 8 11 15
f 8 15 12
f 9 13 18
f 9 18 14
f 12 15 19
f 12 19 16
f 13 17 22
f 13 22 18
f 16 19 23
f 16 23 20
f 17 21 26
f 17 26 22
f 20 23 27
f 20 27 24
f 21 25 30
f 21 30 26
f 24 27 31
f 24 31 28
f 25 29 34
f 25 34 30
f 28 31 35
f 28 35 32
f 29 33 38
f 29 38 34
f 32 35 39
f 32 39 36
f 33 37 42
f 33 42 38
f 36 39 43
f 36 43 40
f 37 41 46
f 37 46 42
f 40 43 47
f 40 47 44
f 41 45 48
f 41 48 46
f 44 47 48
f 44 48 45

