# https://github.com/mikedh/trimesh
v -0.02955091 -0.03300000 0.00000029
v -0.02955091 -0.03300343 0.00286819
v -0.02955091 -0.06799657 0.00000029
v -0.06650000 -0.03300000 0.00000029
v -0.06650000 -0.03300000 0.00299962
v -0.02955091 -0.06799657 0.00299962
v -0.06294470 -0.03300685 0.00300315
v -0.06234070 -0.03306851 0.00300374
v -0.06189583 -0.03318156 0.00300374
v -0.06147267 -0.03335627 0.00300374
v -0.06082888 -0.03376392 0.00300374
v -0.06035146 -0.03421611 0.00300374
v -0.06650000 -0.06799657 0.00000029
v -0.06649639 -0.03640168 0.00300374
v -0.06645660 -0.03599746 0.00300374
v -0.06633001 -0.03545278 0.00300374
v -0.06616725 -0.03502457 0.00300374
v -0.06588876 -0.03454155 0.00300374
v -0.06550539 -0.03406881 0.00300374
v -0.06504605 -0.03367143 0.00300374
v -0.06465544 -0.03342478 0.00300374
v -0.06429015 -0.03325350 0.00300374
v -0.06370422 -0.03308222 0.00300374
v -0.06650000 -0.06799657 0.00299962
v -0.06001872 -0.03466830 0.00300374
v -0.05975108 -0.03521640 0.00300374
v -0.05957024 -0.03579877 0.00300374
v -0.05951237 -0.03625095 0.00300374
v -0.05949790 -0.06459832 0.00300374
v -0.05953407 -0.06500255 0.00300374
v -0.05963172 -0.06545131 0.00300374
v -0.05982341 -0.06597543 0.00300374
v -0.06001872 -0.06633170 0.00300374
v -0.06025019 -0.06666741 0.00300374
v -0.06052145 -0.06696887 0.00300374
v -0.06099163 -0.06735597 0.00300374
v -0.06170776 -0.06774307 0.00300374
v -0.06234070 -0.06793149 0.00300374
v -0.06294470 -0.06799315 0.00300374
v -0.06648192 -0.06474904 0.00300374
v -0.06370422 -0.06791778 0.00300374
v -0.06447460 -0.06766086 0.00300374
v -0.06500627 -0.06735940 0.00300374
v -0.06546560 -0.06696545 0.00300374
v -0.06588876 -0.06645845 0.00300374
v -0.06616725 -0.06597543 0.00300374
v -0.06631554 -0.06559518 0.00300374
v -0.06642043 -0.06520123 0.00300374
f 1 2 6
f 1 6 3
f 1 3 13
f 1 13 4
f 1 4 5
f 1 5 2
f 2 5 7
f 2 7 8
f 2 8 9
f 2 9 10
f 2 10 11
f 2 11 12
f 2 12 6
f 3 6 24
f 3 24 13
f 4 13 24
f 4 24 5
f 5 14 15
f 5 15 16
f 5 16 17
f 5 17 18
f 5 18 19
f 5 19 20
f 5 20 21
f 5 21 22
f 5 22 23
f 5 23 7
f 5 24 14
f 6 12 25
f 6 25 26
f 6 26 27
f 6 27 28
f 6 28 29
f 6 29 30
f 6 30 31
f 6 31 32
f 6 32 33
f 6 33 34
f 6 34 35
f 6 35 36
f 6 36 37
f 6 37 38
f 6 38 39
f 6 39 24
f 7 23 8
f 8 23 22
f 8 22 21
f 8 21 20
f 8 20 19
f 8 19 18
f 8 18 17
f 8 17 16
f 8 16 15
f 8 15 14
f 8 14 40
f 8 40 48
f 8 48 47
f 8 47 46
f 8 46 45
f 8 45 44
f 8 44 43
f 8 43 42
f 8 42 41
f 8 41 39
f 8 39 38
f 8 38 37
f 8 37 36
f 8 36 35
f 8 35 34
f 8 34 33
f 8 33 32
f 8 32 31
f 8 31 30
f 8 30 29
f 8 29 28
f 8 28 27
f 8 27 26
f 8 26 25
f 8 25 12
f 8 12 11
f 8 11 10
f 8 10 9
f 14 24 40
f 24 39 41
f 24 41 42
f 24 42 43
f 24 43 44
f 24 44 45
f 24 45 46
f 24 46 47
f 24 47 48
f 24 48 40

