# https://github.com/mikedh/trimesh
v -0.02250093 -0.06450410 0.00384233
v -0.02250378 -0.06460709 0.00700000
v -0.02251436 -0.06479630 0.00384233
v -0.02464986 -0.06450410 0.00384233
v -0.02464986 -0.06450410 0.00700000
v -0.02252576 -0.06491845 0.00700000
v -0.02257094 -0.06519012 0.00384233
v -0.02665838 -0.06567839 0.00384233
v -0.02665838 -0.06567839 0.00700000
v -0.02255669 -0.06512546 0.00700000
v -0.02260024 -0.06533007 0.00700000
v -0.02264338 -0.06548883 0.00384233
v -0.02632342 -0.06798281 0.00384233
v -0.02664617 -0.06793868 0.00387572
v -0.02661564 -0.06794415 0.00700000
v -0.02265600 -0.06553194 0.00700000
v -0.02272396 -0.06573005 0.00700000
v -0.02274431 -0.06577864 0.00384233
v -0.02636534 -0.06798042 0.00700000
v -0.02601044 -0.06799958 0.00384233
v -0.02615655 -0.06799581 0.00700000
v -0.02280333 -0.06592405 0.00700000
v -0.02291607 -0.06615022 0.00384233
v -0.02570397 -0.06798521 0.00384233
v -0.02594695 -0.06799958 0.00700000
v -0.02294496 -0.06620394 0.00700000
v -0.02307113 -0.06641470 0.00384233
v -0.02563397 -0.06797870 0.00700000
v -0.02529861 -0.06792670 0.00384233
v -0.02310857 -0.06647116 0.00700000
v -0.02325143 -0.06666311 0.00384233
v -0.02522128 -0.06791028 0.00700000
v -0.02490342 -0.06782165 0.00384233
v -0.02323189 -0.06664053 0.00700000
v -0.02336457 -0.06680237 0.00700000
v -0.02352289 -0.06696934 0.00384233
v -0.02491807 -0.06782816 0.00700000
v -0.02452328 -0.06767076 0.00384233
v -0.02472108 -0.06775767 0.00700000
v -0.02350702 -0.06695600 0.00700000
v -0.02365842 -0.06710073 0.00700000
v -0.02382814 -0.06724170 0.00384233
v -0.02416350 -0.06747676 0.00384233
v -0.02434177 -0.06758146 0.00700000
v -0.02452898 -0.06767521 0.00700000
v -0.02381837 -0.06723588 0.00700000
v -0.02398565 -0.06736146 0.00700000
v -0.02416065 -0.06747676 0.00700000
f 1 2 3
f 1 3 7
f 1 7 12
f 1 12 18
f 1 18 23
f 1 23 27
f 1 27 31
f 1 31 36
f 1 36 42
f 1 42 43
f 1 43 38
f 1 38 33
f 1 33 29
f 1 29 24
f 1 24 20
f 1 20 13
f 1 13 8
f 1 8 4
f 1 4 5
f 1 5 2
f 2 6 3
f 2 5 9
f 2 9 15
f 2 15 19
f 2 19 21
f 2 21 25
f 2 25 28
f 2 28 32
f 2 32 37
f 2 37 39
f 2 39 45
f 2 45 44
f 2 44 48
f 2 48 47
f 2 47 46
f 2 46 41
f 2 41 40
f 2 40 35
f 2 35 34
f 2 34 30
f 2 30 26
f 2 26 22
f 2 22 17
f 2 17 16
f 2 16 11
f 2 11 10
f 2 10 6
f 3 6 7
f 4 8 9
f 4 9 5
f 6 10 7
f 7 10 11
f 7 11 12
f 8 13 14
f 8 14 9
f 9 14 15
f 11 16 12
f 12 16 17
f 12 17 18
f 13 19 14
f 13 20 21
f 13 21 19
f 14 19 15
f 17 22 18
f 18 22 23
f 20 24 25
f 20 25 21
f 22 26 23
f 23 26 27
f 24 28 25
f 24 29 28
f 26 30 27
f 27 30 31
f 28 29 32
f 29 33 32
f 30 34 31
f 31 34 35
f 31 35 36
f 32 33 37
f 33 38 39
f 33 39 37
f 35 40 36
f 36 40 41
f 36 41 42
f 38 43 44
f 38 44 45
f 38 45 39
f 41 46 42
f 42 46 47
f 42 47 43
f 43 47 48
f 43 48 44

