# https://github.com/mikedh/trimesh
v -0.02734992 -0.03650379 0.00700000
v -0.02599354 -0.03785004 0.00700000
v -0.02734992 -0.03650379 0.00380130
v -0.02949894 -0.03650379 0.00468426
v -0.02949791 -0.03655442 0.00700000
v -0.02607554 -0.03999733 0.00700000
v -0.02605804 -0.03999802 0.00380130
v -0.02599354 -0.03785004 0.00380130
v -0.02949722 -0.03657870 0.00380130
v -0.02948556 -0.03681402 0.00700000
v -0.02636617 -0.03998023 0.00700000
v -0.02633049 -0.03998365 0.00380130
v -0.02948041 -0.03686190 0.00380130
v -0.02946051 -0.03702198 0.00700000
v -0.02657377 -0.03995219 0.00700000
v -0.02653774 -0.03995766 0.00380130
v -0.02943272 -0.03717145 0.00380130
v -0.02942311 -0.03722788 0.00700000
v -0.02677930 -0.03991183 0.00700000
v -0.02684449 -0.03989438 0.00380130
v -0.02932841 -0.03757539 0.00380130
v -0.02937335 -0.03743139 0.00700000
v -0.02698175 -0.03985915 0.00700000
v -0.02714508 -0.03980648 0.00380130
v -0.02923816 -0.03782781 0.00700000
v -0.02931159 -0.03763148 0.00700000
v -0.02917674 -0.03796428 0.00380130
v -0.02718110 -0.03979451 0.00700000
v -0.02734032 -0.03973260 0.00380130
v -0.02915307 -0.03801901 0.00700000
v -0.02897979 -0.03833163 0.00380130
v -0.02905630 -0.03820473 0.00700000
v -0.02737600 -0.03971789 0.00700000
v -0.02756609 -0.03962999 0.00700000
v -0.02762340 -0.03959852 0.00380130
v -0.02894890 -0.03838396 0.00700000
v -0.02874028 -0.03867332 0.00380130
v -0.02883121 -0.03855668 0.00700000
v -0.02774967 -0.03953080 0.00700000
v -0.02798025 -0.03938304 0.00380130
v -0.02853612 -0.03891069 0.00380130
v -0.02870288 -0.03872257 0.00700000
v -0.02792775 -0.03942066 0.00700000
v -0.02809897 -0.03930027 0.00700000
v -0.02830931 -0.03912651 0.00380130
v -0.02841843 -0.03902972 0.00700000
v -0.02856529 -0.03888025 0.00700000
v -0.02826265 -0.03916961 0.00700000
f 1 2 8
f 1 8 3
f 1 3 4
f 1 4 5
f 1 5 10
f 1 10 14
f 1 14 18
f 1 18 22
f 1 22 26
f 1 26 25
f 1 25 30
f 1 30 32
f 1 32 36
f 1 36 38
f 1 38 42
f 1 42 47
f 1 47 46
f 1 46 48
f 1 48 44
f 1 44 43
f 1 43 39
f 1 39 34
f 1 34 33
f 1 33 28
f 1 28 23
f 1 23 19
f 1 19 15
f 1 15 11
f 1 11 6
f 1 6 2
f 2 6 7
f 2 7 8
f 3 8 7
f 3 7 12
f 3 12 16
f 3 16 20
f 3 20 24
f 3 24 29
f 3 29 35
f 3 35 40
f 3 40 45
f 3 45 41
f 3 41 37
f 3 37 31
f 3 31 27
f 3 27 21
f 3 21 17
f 3 17 13
f 3 13 9
f 3 9 4
f 4 9 5
f 5 9 10
f 6 11 12
f 6 12 7
f 9 13 10
f 10 13 14
f 11 15 16
f 11 16 12
f 13 17 14
f 14 17 18
f 15 19 16
f 16 19 20
f 17 21 22
f 17 22 18
f 19 23 20
f 20 23 24
f 21 25 26
f 21 26 22
f 21 27 25
f 23 28 24
f 24 28 29
f 25 27 30
f 27 31 32
f 27 32 30
f 28 33 29
f 29 33 34
f 29 34 35
f 31 36 32
f 31 37 38
f 31 38 36
f 34 39 35
f 35 39 40
f 37 41 42
f 37 42 38
f 39 43 40
f 40 43 44
f 40 44 45
f 41 46 47
f 41 47 42
f 41 45 46
f 44 48 45
f 45 48 46

