# https://github.com/mikedh/trimesh
v -0.02599696 -0.03515011 0.00380130
v -0.02464979 -0.03650379 0.00380130
v -0.02599696 -0.03515011 0.00700000
v -0.02597197 -0.03300094 0.00700000
v -0.02590009 -0.03300334 0.00383700
v -0.02550032 -0.03303797 0.00380130
v -0.02250308 -0.03640882 0.00380130
v -0.02250068 -0.03650139 0.00700000
v -0.02464979 -0.03650379 0.00700000
v -0.02573786 -0.03301019 0.00700000
v -0.02552976 -0.03303214 0.00700000
v -0.02532303 -0.03306643 0.00700000
v -0.02519810 -0.03309386 0.00380130
v -0.02252224 -0.03611188 0.00380130
v -0.02250684 -0.03629018 0.00700000
v -0.02511904 -0.03311306 0.00700000
v -0.02490307 -0.03317855 0.00380130
v -0.02257119 -0.03580878 0.00380130
v -0.02255681 -0.03587461 0.00700000
v -0.02252567 -0.03608171 0.00700000
v -0.02491812 -0.03317169 0.00700000
v -0.02472098 -0.03324232 0.00700000
v -0.02452280 -0.03332907 0.00380130
v -0.02267524 -0.03541309 0.00380130
v -0.02260028 -0.03566991 0.00700000
v -0.02452828 -0.03332461 0.00700000
v -0.02434106 -0.03341822 0.00700000
v -0.02416308 -0.03352314 0.00380130
v -0.02265607 -0.03546796 0.00700000
v -0.02278203 -0.03512542 0.00380130
v -0.02272350 -0.03527011 0.00700000
v -0.02416034 -0.03352280 0.00700000
v -0.02398579 -0.03363801 0.00700000
v -0.02390877 -0.03369458 0.00380130
v -0.02291585 -0.03484906 0.00380130
v -0.02289395 -0.03488746 0.00700000
v -0.02280290 -0.03507604 0.00700000
v -0.02381807 -0.03376419 0.00700000
v -0.02367158 -0.03389002 0.00380130
v -0.02312977 -0.03450103 0.00380130
v -0.02299594 -0.03470505 0.00700000
v -0.02365858 -0.03389962 0.00700000
v -0.02350695 -0.03404398 0.00700000
v -0.02345082 -0.03410295 0.00380130
v -0.02331494 -0.03425622 0.00380130
v -0.02323177 -0.03435943 0.00700000
v -0.02310855 -0.03452881 0.00700000
v -0.02336457 -0.03419759 0.00700000
f 1 2 9
f 1 9 3
f 1 3 4
f 1 4 5
f 1 5 6
f 1 6 13
f 1 13 17
f 1 17 23
f 1 23 28
f 1 28 34
f 1 34 39
f 1 39 44
f 1 44 45
f 1 45 40
f 1 40 35
f 1 35 30
f 1 30 24
f 1 24 18
f 1 18 14
f 1 14 7
f 1 7 2
f 2 7 8
f 2 8 9
f 3 9 8
f 3 8 15
f 3 15 20
f 3 20 19
f 3 19 25
f 3 25 29
f 3 29 31
f 3 31 37
f 3 37 36
f 3 36 41
f 3 41 47
f 3 47 46
f 3 46 48
f 3 48 43
f 3 43 42
f 3 42 38
f 3 38 33
f 3 33 32
f 3 32 27
f 3 27 26
f 3 26 22
f 3 22 21
f 3 21 16
f 3 16 12
f 3 12 11
f 3 11 10
f 3 10 4
f 4 10 5
f 5 10 6
f 6 10 11
f 6 11 12
f 6 12 13
f 7 14 15
f 7 15 8
f 12 16 13
f 13 16 17
f 14 18 19
f 14 19 20
f 14 20 15
f 16 21 17
f 17 21 22
f 17 22 23
f 18 24 25
f 18 25 19
f 22 26 23
f 23 27 28
f 23 26 27
f 24 29 25
f 24 30 31
f 24 31 29
f 27 32 28
f 28 33 34
f 28 32 33
f 30 35 36
f 30 36 37
f 30 37 31
f 33 38 34
f 34 38 39
f 35 40 41
f 35 41 36
f 38 42 39
f 39 42 43
f 39 43 44
f 40 45 46
f 40 46 47
f 40 47 41
f 43 48 44
f 44 48 45
f 45 48 46

