# https://github.com/mikedh/trimesh
v -0.01098233 0.01200000 0.00299971
v -0.01098233 0.00949985 0.00299971
v -0.01098233 0.01200000 -0.00000000
v -0.01449415 0.01200000 0.00299971
v -0.01098233 0.00949985 0.00199980
v -0.01233377 0.00868550 0.00299971
v -0.01098233 0.01150328 -0.00000000
v -0.01449415 0.01200000 -0.00000000
v -0.01449415 0.00868550 0.00299971
v -0.01098233 0.00999819 0.00150000
v -0.01233377 0.00868550 0.00199980
v -0.01443055 0.00868550 -0.00000000
v -0.01098233 0.01116391 0.00033448
v -0.01449415 0.00868550 -0.00000000
v -0.01098233 0.01057927 0.00091768
v -0.01098233 0.01099650 0.00050010
f 1 2 5
f 1 5 10
f 1 10 15
f 1 15 16
f 1 16 13
f 1 13 7
f 1 7 3
f 1 3 8
f 1 8 4
f 1 4 9
f 1 9 6
f 1 6 2
f 2 6 11
f 2 11 5
f 3 7 12
f 3 12 14
f 3 14 8
f 4 8 14
f 4 14 9
f 5 11 12
f 5 12 10
f 6 9 14
f 6 14 12
f 6 12 11
f 7 13 12
f 10 12 15
f 12 13 16
f 12 16 15

