# https://github.com/mikedh/trimesh
v 0.01850000 -0.01397361 0.00900000
v 0.01850000 -0.01397361 0.00597298
v 0.01450012 -0.01397361 0.00900000
v 0.01850000 -0.03291329 0.00900000
v 0.01450012 -0.01397361 0.00597298
v 0.01850000 -0.02000072 -0.00000000
v 0.01385862 -0.02000072 0.00300059
v 0.01450012 -0.03291329 0.00900000
v 0.01850000 -0.03291329 -0.00000000
v 0.01385862 -0.02000072 -0.00000000
v 0.01385862 -0.03291329 0.00300059
v 0.01437836 -0.03291329 -0.00000000
v 0.01385862 -0.02998224 -0.00000000
v 0.01385862 -0.03291329 0.00049775
f 1 2 5
f 1 5 3
f 1 3 8
f 1 8 4
f 1 4 9
f 1 9 6
f 1 6 2
f 2 6 10
f 2 10 5
f 3 5 10
f 3 10 7
f 3 7 11
f 3 11 8
f 4 8 11
f 4 11 14
f 4 14 12
f 4 12 9
f 6 9 12
f 6 12 13
f 6 13 10
f 7 10 13
f 7 13 14
f 7 14 11
f 12 14 13

