# https://github.com/mikedh/trimesh
v -0.06233762 -0.06793663 0.00618524
v -0.06233040 -0.06793495 0.00700000
v -0.06233762 -0.06567577 0.00700000
v -0.06233762 -0.06567577 0.00300403
v -0.06226513 -0.06792017 0.00300403
v -0.06211904 -0.06788691 0.00700000
v -0.06164966 -0.06450418 0.00700000
v -0.06164966 -0.06450418 0.00300403
v -0.06199600 -0.06785264 0.00300403
v -0.06191796 -0.06782811 0.00700000
v -0.05950665 -0.06470947 0.00700000
v -0.05950054 -0.06450418 0.00695893
v -0.05950331 -0.06460430 0.00300403
v -0.06180270 -0.06778880 0.00300403
v -0.06172104 -0.06775755 0.00700000
v -0.05952526 -0.06491846 0.00700000
v -0.05952386 -0.06490670 0.00300403
v -0.06161356 -0.06771320 0.00300403
v -0.06152830 -0.06767557 0.00700000
v -0.05955664 -0.06512542 0.00700000
v -0.05955358 -0.06510829 0.00300403
v -0.06142887 -0.06762719 0.00300403
v -0.06134110 -0.06758149 0.00700000
v -0.05959997 -0.06533038 0.00700000
v -0.05959469 -0.06530753 0.00300403
v -0.06124972 -0.06753076 0.00300403
v -0.06115974 -0.06747734 0.00700000
v -0.05965579 -0.06553197 0.00700000
v -0.05964718 -0.06550442 0.00300403
v -0.06099337 -0.06736546 0.00300403
v -0.06098504 -0.06736142 0.00700000
v -0.05972356 -0.06573020 0.00700000
v -0.05971134 -0.06569727 0.00300403
v -0.06075063 -0.06718066 0.00300403
v -0.06081812 -0.06723610 0.00700000
v -0.05980299 -0.06592406 0.00700000
v -0.05978661 -0.06588677 0.00300403
v -0.06052650 -0.06697336 0.00300403
v -0.06065814 -0.06710036 0.00700000
v -0.05989381 -0.06611256 0.00700000
v -0.05987243 -0.06607089 0.00300403
v -0.06025598 -0.06666962 0.00300403
v -0.06036458 -0.06680268 0.00700000
v -0.06050678 -0.06695622 0.00700000
v -0.05999574 -0.06629466 0.00700000
v -0.06002268 -0.06633632 0.00300403
v -0.06010850 -0.06647105 0.00700000
v -0.06023154 -0.06664039 0.00700000
f 1 2 3
f 1 3 4
f 1 4 5
f 1 5 6
f 1 6 2
f 2 6 10
f 2 10 15
f 2 15 19
f 2 19 23
f 2 23 27
f 2 27 31
f 2 31 35
f 2 35 39
f 2 39 44
f 2 44 43
f 2 43 48
f 2 48 47
f 2 47 45
f 2 45 40
f 2 40 36
f 2 36 32
f 2 32 28
f 2 28 24
f 2 24 20
f 2 20 16
f 2 16 11
f 2 11 7
f 2 7 3
f 3 7 8
f 3 8 4
f 4 8 13
f 4 13 17
f 4 17 21
f 4 21 25
f 4 25 29
f 4 29 33
f 4 33 37
f 4 37 41
f 4 41 46
f 4 46 42
f 4 42 38
f 4 38 34
f 4 34 30
f 4 30 26
f 4 26 22
f 4 22 18
f 4 18 14
f 4 14 9
f 4 9 5
f 5 9 6
f 6 9 10
f 7 11 12
f 7 12 8
f 8 12 13
f 9 14 10
f 10 14 15
f 11 16 17
f 11 17 13
f 11 13 12
f 14 18 15
f 15 18 19
f 16 20 21
f 16 21 17
f 18 22 19
f 19 22 23
f 20 24 25
f 20 25 21
f 22 26 23
f 23 26 27
f 24 28 29
f 24 29 25
f 26 30 27
f 27 30 31
f 28 32 33
f 28 33 29
f 30 34 35
f 30 35 31
f 32 36 37
f 32 37 33
f 34 38 39
f 34 39 35
f 36 40 41
f 36 41 37
f 38 42 43
f 38 43 44
f 38 44 39
f 40 45 41
f 41 45 46
f 42 46 47
f 42 47 48
f 42 48 43
f 45 47 46

