# https://github.com/mikedh/trimesh
v -0.02599646 -0.06315001 0.00384233
v -0.02464963 -0.06450376 0.00384233
v -0.02599646 -0.06315001 0.00700000
v -0.02599646 -0.06100108 0.00597289
v -0.02595402 -0.06100176 0.00384233
v -0.02250325 -0.06440741 0.00384233
v -0.02250017 -0.06450170 0.00700000
v -0.02464963 -0.06450376 0.00700000
v -0.02597182 -0.06100108 0.00700000
v -0.02573805 -0.06101034 0.00700000
v -0.02570314 -0.06101342 0.00384233
v -0.02252516 -0.06408268 0.00384233
v -0.02250668 -0.06429014 0.00700000
v -0.02552960 -0.06103228 0.00700000
v -0.02549572 -0.06103742 0.00384233
v -0.02257582 -0.06378505 0.00384233
v -0.02255665 -0.06387455 0.00700000
v -0.02252550 -0.06408165 0.00700000
v -0.02532322 -0.06106657 0.00700000
v -0.02518836 -0.06109777 0.00384233
v -0.02264940 -0.06349187 0.00384233
v -0.02260012 -0.06366984 0.00700000
v -0.02511888 -0.06111320 0.00700000
v -0.02488682 -0.06118247 0.00384233
v -0.02265591 -0.06346821 0.00700000
v -0.02275756 -0.06318601 0.00384233
v -0.02272368 -0.06327002 0.00700000
v -0.02491797 -0.06117184 0.00700000
v -0.02472082 -0.06124248 0.00700000
v -0.02460513 -0.06129185 0.00384233
v -0.02293246 -0.06281945 0.00384233
v -0.02280308 -0.06307628 0.00700000
v -0.02452847 -0.06132477 0.00700000
v -0.02423343 -0.06148079 0.00384233
v -0.02315459 -0.06246662 0.00384233
v -0.02299578 -0.06270493 0.00700000
v -0.02289378 -0.06288769 0.00700000
v -0.02425054 -0.06147050 0.00700000
v -0.02398563 -0.06163852 0.00700000
v -0.02387815 -0.06171979 0.00384233
v -0.02323160 -0.06235929 0.00700000
v -0.02310839 -0.06252868 0.00700000
v -0.02342396 -0.06213367 0.00384233
v -0.02381791 -0.06176402 0.00700000
v -0.02363719 -0.06191970 0.00384233
v -0.02336441 -0.06219744 0.00700000
v -0.02350713 -0.06204417 0.00700000
v -0.02365842 -0.06189947 0.00700000
f 1 2 8
f 1 8 3
f 1 3 4
f 1 4 5
f 1 5 11
f 1 11 15
f 1 15 20
f 1 20 24
f 1 24 30
f 1 30 34
f 1 34 40
f 1 40 45
f 1 45 43
f 1 43 35
f 1 35 31
f 1 31 26
f 1 26 21
f 1 21 16
f 1 16 12
f 1 12 6
f 1 6 2
f 2 6 7
f 2 7 8
f 3 8 7
f 3 7 13
f 3 13 18
f 3 18 17
f 3 17 22
f 3 22 25
f 3 25 27
f 3 27 32
f 3 32 37
f 3 37 36
f 3 36 42
f 3 42 41
f 3 41 46
f 3 46 47
f 3 47 48
f 3 48 44
f 3 44 39
f 3 39 38
f 3 38 33
f 3 33 29
f 3 29 28
f 3 28 23
f 3 23 19
f 3 19 14
f 3 14 10
f 3 10 9
f 3 9 4
f 4 9 5
f 5 9 10
f 5 10 11
f 6 12 13
f 6 13 7
f 10 14 11
f 11 14 15
f 12 16 17
f 12 17 18
f 12 18 13
f 14 19 15
f 15 19 20
f 16 21 22
f 16 22 17
f 19 23 20
f 20 23 24
f 21 25 22
f 21 26 27
f 21 27 25
f 23 28 24
f 24 29 30
f 24 28 29
f 26 31 32
f 26 32 27
f 29 33 30
f 30 33 34
f 31 35 36
f 31 36 37
f 31 37 32
f 33 38 34
f 34 38 39
f 34 39 40
f 35 41 42
f 35 42 36
f 35 43 41
f 39 44 40
f 40 44 45
f 41 43 46
f 43 45 47
f 43 47 46
f 44 48 45
f 45 48 47

