# https://github.com/mikedh/trimesh
v -0.06364190 -0.03768731 0.00300403
v -0.06357910 -0.03994999 0.00300403
v -0.06364190 -0.03993939 0.00514479
v -0.06364190 -0.03768731 0.00700000
v -0.06164990 -0.03650448 0.00300403
v -0.06336560 -0.03998045 0.00700000
v -0.06360706 -0.03994555 0.00700000
v -0.06331050 -0.03998592 0.00300403
v -0.06164990 -0.03650448 0.00700000
v -0.05950356 -0.03660610 0.00300403
v -0.06315696 -0.03999619 0.00700000
v -0.06299978 -0.03999824 0.00300403
v -0.05950356 -0.03660713 0.00700000
v -0.05952503 -0.03691438 0.00300403
v -0.06294711 -0.03999961 0.00700000
v -0.06258614 -0.03997360 0.00300403
v -0.06273806 -0.03999003 0.00700000
v -0.05952543 -0.03691849 0.00700000
v -0.05957688 -0.03722095 0.00300403
v -0.06217778 -0.03990004 0.00300403
v -0.06242652 -0.03995068 0.00700000
v -0.05957850 -0.03722780 0.00700000
v -0.05965588 -0.03753197 0.00700000
v -0.05968627 -0.03762094 0.00300403
v -0.06187839 -0.03981518 0.00300403
v -0.06211904 -0.03988704 0.00700000
v -0.05972354 -0.03773008 0.00700000
v -0.05979768 -0.03791143 0.00300403
v -0.06191769 -0.03982819 0.00700000
v -0.06158954 -0.03970125 0.00300403
v -0.06162478 -0.03971664 0.00700000
v -0.05980335 -0.03792409 0.00700000
v -0.05993663 -0.03818926 0.00300403
v -0.06122128 -0.03951203 0.00300403
v -0.06134160 -0.03958149 0.00700000
v -0.05994474 -0.03820363 0.00700000
v -0.06010841 -0.03847119 0.00700000
v -0.06015783 -0.03853928 0.00300403
v -0.06116051 -0.03947679 0.00700000
v -0.06087733 -0.03928039 0.00300403
v -0.06098591 -0.03936148 0.00700000
v -0.06023156 -0.03864056 0.00700000
v -0.06041914 -0.03886125 0.00300403
v -0.06063790 -0.03908194 0.00300403
v -0.06081818 -0.03923591 0.00700000
v -0.06036485 -0.03880240 0.00700000
v -0.06050705 -0.03895603 0.00700000
v -0.06065856 -0.03910042 0.00700000
f 1 2 3
f 1 3 4
f 1 4 9
f 1 9 5
f 1 5 10
f 1 10 14
f 1 14 19
f 1 19 24
f 1 24 28
f 1 28 33
f 1 33 38
f 1 38 43
f 1 43 44
f 1 44 40
f 1 40 34
f 1 34 30
f 1 30 25
f 1 25 20
f 1 20 16
f 1 16 12
f 1 12 8
f 1 8 2
f 2 6 7
f 2 7 3
f 2 8 6
f 3 7 4
f 4 7 6
f 4 6 11
f 4 11 15
f 4 15 17
f 4 17 21
f 4 21 26
f 4 26 29
f 4 29 31
f 4 31 35
f 4 35 39
f 4 39 41
f 4 41 45
f 4 45 48
f 4 48 47
f 4 47 46
f 4 46 42
f 4 42 37
f 4 37 36
f 4 36 32
f 4 32 27
f 4 27 23
f 4 23 22
f 4 22 18
f 4 18 13
f 4 13 9
f 5 9 10
f 6 8 11
f 8 12 11
f 9 13 10
f 10 13 14
f 11 12 15
f 12 16 17
f 12 17 15
f 13 18 14
f 14 18 19
f 16 20 21
f 16 21 17
f 18 22 19
f 19 22 23
f 19 23 24
f 20 25 26
f 20 26 21
f 23 27 24
f 24 27 28
f 25 29 26
f 25 30 31
f 25 31 29
f 27 32 28
f 28 32 33
f 30 34 35
f 30 35 31
f 32 36 33
f 33 36 37
f 33 37 38
f 34 39 35
f 34 40 41
f 34 41 39
f 37 42 38
f 38 42 43
f 40 44 45
f 40 45 41
f 42 46 43
f 43 46 47
f 43 47 44
f 44 47 48
f 44 48 45

