# https://github.com/mikedh/trimesh
v 0.01385862 -0.00426594 0.00299971
v 0.01385862 -0.00799982 0.00299971
v 0.01385862 -0.00426594 -0.00000000
v 0.00959447 -0.00426594 0.00299971
v 0.01385862 -0.00799982 -0.00000000
v 0.00800027 -0.00800568 0.00299971
v 0.00959447 -0.00426594 -0.00000000
v 0.00678748 -0.00800568 0.00299971
v 0.00799611 -0.00800568 -0.00000000
v 0.00678748 -0.00800568 -0.00000000
f 1 2 5
f 1 5 3
f 1 3 7
f 1 7 4
f 1 4 8
f 1 8 6
f 1 6 2
f 2 6 5
f 3 5 9
f 3 9 10
f 3 10 7
f 4 7 10
f 4 10 8
f 5 6 9
f 6 8 10
f 6 10 9

