# https://github.com/mikedh/trimesh
v -0.01450003 0.01200000 0.00900000
v -0.01449415 0.01200000 0.00300059
v -0.01850000 0.01200000 0.00900000
v -0.01450003 -0.01400024 0.00900000
v -0.01449415 0.01200000 -0.00000000
v -0.01449415 -0.00799646 0.00300059
v -0.01850000 0.01200000 -0.00000000
v -0.01850000 -0.01400024 0.00900000
v -0.01450003 -0.01400024 0.00599941
v -0.01449415 -0.00799901 -0.00000000
v -0.01850000 -0.00799901 -0.00000000
v -0.01850000 -0.01400024 0.00599941
f 1 2 5
f 1 5 7
f 1 7 3
f 1 3 8
f 1 8 4
f 1 4 6
f 1 6 2
f 2 6 10
f 2 10 5
f 3 7 11
f 3 11 12
f 3 12 8
f 4 8 12
f 4 12 9
f 4 9 10
f 4 10 6
f 5 10 11
f 5 11 7
f 9 12 11
f 9 11 10

