# https://github.com/mikedh/trimesh
v -0.06434975 -0.06450384 0.00300403
v -0.06648423 -0.06418871 0.00300403
v -0.06299783 -0.06315007 0.00300403
v -0.06434975 -0.06450384 0.00700000
v -0.06649966 -0.06450247 0.00308578
v -0.06642288 -0.06377895 0.00300403
v -0.06648526 -0.06418563 0.00700000
v -0.06646024 -0.06397783 0.00700000
v -0.06305095 -0.06100179 0.00300403
v -0.06299783 -0.06100076 0.00571391
v -0.06299783 -0.06315007 0.00700000
v -0.06649795 -0.06444932 0.00700000
v -0.06642288 -0.06377175 0.00700000
v -0.06637352 -0.06356841 0.00700000
v -0.06634678 -0.06347720 0.00300403
v -0.06331112 -0.06101448 0.00300403
v -0.06307769 -0.06100282 0.00700000
v -0.06631181 -0.06336850 0.00700000
v -0.06624155 -0.06318470 0.00300403
v -0.06361894 -0.06105700 0.00300403
v -0.06357369 -0.06104774 0.00700000
v -0.06336631 -0.06101962 0.00700000
v -0.06623812 -0.06317236 0.00700000
v -0.06606330 -0.06281094 0.00300403
v -0.06615277 -0.06298102 0.00700000
v -0.06402205 -0.06115438 0.00300403
v -0.06377936 -0.06108820 0.00700000
v -0.06584221 -0.06246049 0.00300403
v -0.06605645 -0.06279516 0.00700000
v -0.06594916 -0.06261617 0.00700000
v -0.06441042 -0.06129874 0.00300403
v -0.06418110 -0.06120547 0.00700000
v -0.06398194 -0.06114101 0.00700000
v -0.06565094 -0.06221532 0.00300403
v -0.06583124 -0.06244301 0.00700000
v -0.06570304 -0.06227738 0.00700000
v -0.06477891 -0.06148802 0.00300403
v -0.06456604 -0.06137006 0.00700000
v -0.06437580 -0.06128228 0.00700000
v -0.06543636 -0.06199003 0.00300403
v -0.06556524 -0.06211965 0.00700000
v -0.06504011 -0.06165673 0.00300403
v -0.06492767 -0.06157958 0.00700000
v -0.06474977 -0.06146951 0.00700000
v -0.06520498 -0.06178258 0.00300403
v -0.06541819 -0.06197049 0.00700000
v -0.06526257 -0.06183058 0.00700000
v -0.06509906 -0.06169994 0.00700000
f 1 2 6
f 1 6 15
f 1 15 19
f 1 19 24
f 1 24 28
f 1 28 34
f 1 34 40
f 1 40 45
f 1 45 42
f 1 42 37
f 1 37 31
f 1 31 26
f 1 26 20
f 1 20 16
f 1 16 9
f 1 9 3
f 1 3 11
f 1 11 4
f 1 4 5
f 1 5 2
f 2 5 7
f 2 7 8
f 2 8 6
f 3 9 10
f 3 10 11
f 4 12 5
f 4 11 17
f 4 17 22
f 4 22 21
f 4 21 27
f 4 27 33
f 4 33 32
f 4 32 39
f 4 39 38
f 4 38 44
f 4 44 43
f 4 43 48
f 4 48 47
f 4 47 46
f 4 46 41
f 4 41 36
f 4 36 35
f 4 35 30
f 4 30 29
f 4 29 25
f 4 25 23
f 4 23 18
f 4 18 14
f 4 14 13
f 4 13 8
f 4 8 7
f 4 7 12
f 5 12 7
f 6 8 13
f 6 13 14
f 6 14 15
f 9 16 17
f 9 17 10
f 10 17 11
f 14 18 15
f 15 18 19
f 16 20 21
f 16 21 22
f 16 22 17
f 18 23 19
f 19 23 25
f 19 25 24
f 20 26 27
f 20 27 21
f 24 25 29
f 24 29 30
f 24 30 28
f 26 31 32
f 26 32 33
f 26 33 27
f 28 30 35
f 28 35 36
f 28 36 34
f 31 37 38
f 31 38 39
f 31 39 32
f 34 36 41
f 34 41 40
f 37 42 43
f 37 43 44
f 37 44 38
f 40 41 46
f 40 46 47
f 40 47 45
f 42 45 48
f 42 48 43
f 45 47 48

