# https://github.com/mikedh/trimesh
v 0.06265655 -0.06798272 0.00641406
v 0.06265655 -0.06580523 0.00300403
v 0.06265655 -0.06580523 0.00700000
v 0.06264512 -0.06798136 0.00700000
v 0.06261979 -0.06797796 0.00300403
v 0.06165047 -0.06450418 0.00300403
v 0.06165047 -0.06450418 0.00700000
v 0.06242612 -0.06795208 0.00700000
v 0.06237638 -0.06794391 0.00300403
v 0.05950116 -0.06453721 0.00300403
v 0.05950147 -0.06450418 0.00450135
v 0.05950177 -0.06455492 0.00700000
v 0.06222070 -0.06791224 0.00700000
v 0.06207181 -0.06787274 0.00300403
v 0.05951135 -0.06477794 0.00300403
v 0.05951444 -0.06481438 0.00700000
v 0.06201806 -0.06785946 0.00700000
v 0.06181913 -0.06779477 0.00700000
v 0.06167673 -0.06773859 0.00300403
v 0.05955182 -0.06508882 0.00300403
v 0.05953946 -0.06502174 0.00700000
v 0.06162421 -0.06771781 0.00700000
v 0.06139192 -0.06760851 0.00300403
v 0.05961638 -0.06539493 0.00300403
v 0.05957684 -0.06522808 0.00700000
v 0.06143424 -0.06762997 0.00700000
v 0.06112164 -0.06745120 0.00300403
v 0.06124952 -0.06753054 0.00700000
v 0.05971152 -0.06569321 0.00300403
v 0.05968804 -0.06563123 0.00700000
v 0.05962626 -0.06543136 0.00700000
v 0.06086494 -0.06727278 0.00300403
v 0.06107222 -0.06742090 0.00700000
v 0.05982983 -0.06598263 0.00300403
v 0.05976156 -0.06582770 0.00700000
v 0.06062678 -0.06706985 0.00300403
v 0.06090077 -0.06730036 0.00700000
v 0.06073737 -0.06716961 0.00700000
v 0.05997624 -0.06625878 0.00300403
v 0.05994319 -0.06620498 0.00700000
v 0.05984682 -0.06601872 0.00700000
v 0.06040561 -0.06684852 0.00300403
v 0.06058168 -0.06702967 0.00700000
v 0.06020730 -0.06660608 0.00300403
v 0.06005069 -0.06638374 0.00700000
v 0.06043465 -0.06688053 0.00700000
v 0.06029688 -0.06672253 0.00700000
v 0.06016900 -0.06655705 0.00700000
f 1 2 3
f 1 3 4
f 1 4 5
f 1 5 2
f 2 5 9
f 2 9 14
f 2 14 19
f 2 19 23
f 2 23 27
f 2 27 32
f 2 32 36
f 2 36 42
f 2 42 44
f 2 44 39
f 2 39 34
f 2 34 29
f 2 29 24
f 2 24 20
f 2 20 15
f 2 15 10
f 2 10 6
f 2 6 7
f 2 7 3
f 3 7 12
f 3 12 16
f 3 16 21
f 3 21 25
f 3 25 31
f 3 31 30
f 3 30 35
f 3 35 41
f 3 41 40
f 3 40 45
f 3 45 48
f 3 48 47
f 3 47 46
f 3 46 43
f 3 43 38
f 3 38 37
f 3 37 33
f 3 33 28
f 3 28 26
f 3 26 22
f 3 22 18
f 3 18 17
f 3 17 13
f 3 13 8
f 3 8 4
f 4 8 5
f 5 8 9
f 6 10 11
f 6 11 7
f 7 11 12
f 8 13 9
f 9 13 14
f 10 15 12
f 10 12 11
f 12 15 16
f 13 17 14
f 14 17 18
f 14 18 19
f 15 20 21
f 15 21 16
f 18 22 19
f 19 22 23
f 20 24 25
f 20 25 21
f 22 26 23
f 23 26 28
f 23 28 27
f 24 29 30
f 24 30 31
f 24 31 25
f 27 28 33
f 27 33 32
f 29 34 35
f 29 35 30
f 32 33 37
f 32 37 38
f 32 38 36
f 34 39 40
f 34 40 41
f 34 41 35
f 36 38 43
f 36 43 42
f 39 44 45
f 39 45 40
f 42 43 46
f 42 46 47
f 42 47 44
f 44 47 48
f 44 48 45

