# https://github.com/mikedh/trimesh
v -0.02734990 -0.06450410 0.00700000
v -0.02734990 -0.06450410 0.00384233
v -0.02949871 -0.06450410 0.00450317
v -0.02949815 -0.06455465 0.00700000
v -0.02665838 -0.06567841 0.00700000
v -0.02949899 -0.06454796 0.00384233
v -0.02665838 -0.06567841 0.00384233
v -0.02948925 -0.06476387 0.00384233
v -0.02948564 -0.06481408 0.00700000
v -0.02671899 -0.06792393 0.00700000
v -0.02674847 -0.06791690 0.00385902
v -0.02713858 -0.06780744 0.00384233
v -0.02946729 -0.06497175 0.00384233
v -0.02946062 -0.06502196 0.00700000
v -0.02698203 -0.06785899 0.00700000
v -0.02718112 -0.06779472 0.00700000
v -0.02743054 -0.06769362 0.00384233
v -0.02943309 -0.06517762 0.00384233
v -0.02942335 -0.06522817 0.00700000
v -0.02737604 -0.06771806 0.00700000
v -0.02756595 -0.06763002 0.00700000
v -0.02761850 -0.06760257 0.00384233
v -0.02938665 -0.06538115 0.00384233
v -0.02937358 -0.06543137 0.00700000
v -0.02775030 -0.06753094 0.00700000
v -0.02780063 -0.06750081 0.00384233
v -0.02932798 -0.06558167 0.00384233
v -0.02931186 -0.06563155 0.00700000
v -0.02792853 -0.06742047 0.00700000
v -0.02806061 -0.06732640 0.00384233
v -0.02925763 -0.06577817 0.00384233
v -0.02923817 -0.06582738 0.00700000
v -0.02809926 -0.06730029 0.00700000
v -0.02830585 -0.06713191 0.00384233
v -0.02917561 -0.06597032 0.00384233
v -0.02915308 -0.06601919 0.00700000
v -0.02826275 -0.06716974 0.00700000
v -0.02841846 -0.06702948 0.00700000
v -0.02845878 -0.06698964 0.00384233
v -0.02903019 -0.06624716 0.00384233
v -0.02905660 -0.06620498 0.00700000
v -0.02856556 -0.06688017 0.00700000
v -0.02860281 -0.06683867 0.00384233
v -0.02894927 -0.06638407 0.00700000
v -0.02886280 -0.06651195 0.00384233
v -0.02870319 -0.06672251 0.00700000
v -0.02873767 -0.06667899 0.00384233
v -0.02883138 -0.06655714 0.00700000
f 1 2 3
f 1 3 4
f 1 4 9
f 1 9 14
f 1 14 19
f 1 19 24
f 1 24 28
f 1 28 32
f 1 32 36
f 1 36 41
f 1 41 44
f 1 44 48
f 1 48 46
f 1 46 42
f 1 42 38
f 1 38 37
f 1 37 33
f 1 33 29
f 1 29 25
f 1 25 21
f 1 21 20
f 1 20 16
f 1 16 15
f 1 15 10
f 1 10 5
f 1 5 7
f 1 7 2
f 2 6 3
f 2 7 12
f 2 12 17
f 2 17 22
f 2 22 26
f 2 26 30
f 2 30 34
f 2 34 39
f 2 39 43
f 2 43 47
f 2 47 45
f 2 45 40
f 2 40 35
f 2 35 31
f 2 31 27
f 2 27 23
f 2 23 18
f 2 18 13
f 2 13 8
f 2 8 6
f 3 6 4
f 4 8 9
f 4 6 8
f 5 10 7
f 7 10 11
f 7 11 12
f 8 13 9
f 9 13 14
f 10 15 11
f 11 15 12
f 12 15 16
f 12 16 17
f 13 18 14
f 14 18 19
f 16 20 17
f 17 21 22
f 17 20 21
f 18 23 19
f 19 23 24
f 21 25 22
f 22 25 26
f 23 27 24
f 24 27 28
f 25 29 26
f 26 29 30
f 27 31 28
f 28 31 32
f 29 33 30
f 30 33 34
f 31 35 32
f 32 35 36
f 33 37 34
f 34 38 39
f 34 37 38
f 35 40 41
f 35 41 36
f 38 42 39
f 39 42 43
f 40 44 41
f 40 45 44
f 42 46 43
f 43 46 47
f 44 45 48
f 45 47 48
f 46 48 47

