# https://github.com/mikedh/trimesh
v 0.00801476 -0.03291329 0.00037441
v 0.00981024 -0.03291329 0.00199980
v 0.00801476 -0.03291329 0.00299971
v 0.00801476 -0.03017415 -0.00000000
v 0.01101850 -0.02850058 -0.00000000
v 0.00981024 -0.03291329 0.00299971
v 0.01101850 -0.02900366 0.00050010
v 0.01101850 -0.02986446 0.00136139
v 0.01101850 -0.03050027 0.00199980
v 0.00801476 -0.02000000 0.00299971
v 0.00801476 -0.02000000 -0.00000000
v 0.01101850 -0.02000000 -0.00000000
v 0.01101850 -0.03050027 0.00299971
v 0.01101850 -0.02000000 0.00299971
f 1 2 6
f 1 6 3
f 1 3 10
f 1 10 11
f 1 11 4
f 1 4 5
f 1 5 2
f 2 5 7
f 2 7 8
f 2 8 9
f 2 9 13
f 2 13 6
f 3 6 13
f 3 13 14
f 3 14 10
f 4 11 12
f 4 12 5
f 5 12 14
f 5 14 13
f 5 13 9
f 5 9 8
f 5 8 7
f 10 14 12
f 10 12 11

