# https://github.com/mikedh/trimesh
v 0.06300862 -0.06314979 0.00700000
v 0.06292553 -0.06100265 0.00700000
v 0.06165035 -0.06450384 0.00700000
v 0.06300862 -0.06314979 0.00300403
v 0.06300862 -0.06100128 0.00609293
v 0.06263369 -0.06101945 0.00700000
v 0.06293480 -0.06100230 0.00300403
v 0.06265223 -0.06101739 0.00300403
v 0.05950171 -0.06444932 0.00700000
v 0.05950137 -0.06450384 0.00450135
v 0.06165035 -0.06450384 0.00300403
v 0.06242631 -0.06104791 0.00700000
v 0.06234288 -0.06106437 0.00300403
v 0.05951441 -0.06418564 0.00700000
v 0.05950239 -0.06443218 0.00300403
v 0.06222065 -0.06108837 0.00700000
v 0.06193876 -0.06116689 0.00300403
v 0.05953948 -0.06397786 0.00700000
v 0.05951784 -0.06415204 0.00300403
v 0.06201808 -0.06114083 0.00700000
v 0.06164452 -0.06127352 0.00300403
v 0.06181894 -0.06120563 0.00700000
v 0.05957690 -0.06377178 0.00700000
v 0.05956420 -0.06384242 0.00300403
v 0.06145431 -0.06135993 0.00300403
v 0.06162392 -0.06128210 0.00700000
v 0.05962668 -0.06356845 0.00700000
v 0.05966686 -0.06343815 0.00300403
v 0.06118134 -0.06151183 0.00300403
v 0.06125036 -0.06146931 0.00700000
v 0.06143405 -0.06137022 0.00700000
v 0.05968849 -0.06336821 0.00700000
v 0.05981690 -0.06304898 0.00300403
v 0.05976196 -0.06317242 0.00700000
v 0.06083869 -0.06174979 0.00300403
v 0.06107216 -0.06157938 0.00700000
v 0.06001226 -0.06268072 0.00300403
v 0.05984711 -0.06298109 0.00700000
v 0.05994359 -0.06279525 0.00700000
v 0.06052659 -0.06202650 0.00300403
v 0.06073740 -0.06183037 0.00700000
v 0.06090083 -0.06170008 0.00700000
v 0.06024985 -0.06233853 0.00300403
v 0.06005106 -0.06261626 0.00700000
v 0.06016882 -0.06244310 0.00700000
v 0.06043457 -0.06211976 0.00700000
v 0.06058152 -0.06197061 0.00700000
v 0.06029689 -0.06227749 0.00700000
f 1 2 6
f 1 6 12
f 1 12 16
f 1 16 20
f 1 20 22
f 1 22 26
f 1 26 31
f 1 31 30
f 1 30 36
f 1 36 42
f 1 42 41
f 1 41 47
f 1 47 46
f 1 46 48
f 1 48 45
f 1 45 44
f 1 44 39
f 1 39 38
f 1 38 34
f 1 34 32
f 1 32 27
f 1 27 23
f 1 23 18
f 1 18 14
f 1 14 9
f 1 9 3
f 1 3 11
f 1 11 4
f 1 4 5
f 1 5 2
f 2 5 7
f 2 7 8
f 2 8 6
f 3 9 10
f 3 10 11
f 4 11 15
f 4 15 19
f 4 19 24
f 4 24 28
f 4 28 33
f 4 33 37
f 4 37 43
f 4 43 40
f 4 40 35
f 4 35 29
f 4 29 25
f 4 25 21
f 4 21 17
f 4 17 13
f 4 13 8
f 4 8 7
f 4 7 5
f 6 8 12
f 8 13 12
f 9 14 15
f 9 15 10
f 10 15 11
f 12 13 16
f 13 17 16
f 14 18 19
f 14 19 15
f 16 17 20
f 17 21 22
f 17 22 20
f 18 23 24
f 18 24 19
f 21 25 26
f 21 26 22
f 23 27 24
f 24 27 28
f 25 29 30
f 25 30 31
f 25 31 26
f 27 32 28
f 28 32 34
f 28 34 33
f 29 35 36
f 29 36 30
f 33 34 38
f 33 38 39
f 33 39 37
f 35 40 41
f 35 41 42
f 35 42 36
f 37 39 44
f 37 44 45
f 37 45 43
f 40 43 46
f 40 46 47
f 40 47 41
f 43 45 48
f 43 48 46

