# https://github.com/mikedh/trimesh
v 0.03162513 -0.05497153 0.00300403
v 0.03185669 -0.05496195 0.00300403
v 0.03162513 -0.05497153 0.00700000
v 0.03160293 -0.05282245 0.00300403
v 0.03206503 -0.05494005 0.00300403
v 0.03185669 -0.05496195 0.00700000
v 0.03160293 -0.05282245 0.00700000
v 0.03294517 -0.05147606 0.00300403
v 0.03227166 -0.05490584 0.00300403
v 0.03206503 -0.05494005 0.00700000
v 0.03294517 -0.05147606 0.00700000
v 0.03509175 -0.05157905 0.00300403
v 0.03247590 -0.05485930 0.00300403
v 0.03227166 -0.05490584 0.00700000
v 0.03509175 -0.05157905 0.00700000
v 0.03506954 -0.05189075 0.00300403
v 0.03277543 -0.05476521 0.00300403
v 0.03247590 -0.05485930 0.00700000
v 0.03506954 -0.05189075 0.00700000
v 0.03501661 -0.05220006 0.00300403
v 0.03316000 -0.05460063 0.00300403
v 0.03277543 -0.05476521 0.00700000
v 0.03501661 -0.05220006 0.00700000
v 0.03493908 -0.05250424 0.00300403
v 0.03343460 -0.05444906 0.00300403
v 0.03316000 -0.05460063 0.00700000
v 0.03493908 -0.05250424 0.00700000
v 0.03487145 -0.05270235 0.00300403
v 0.03360913 -0.05433375 0.00300403
v 0.03343460 -0.05444906 0.00700000
v 0.03487145 -0.05270235 0.00700000
v 0.03479222 -0.05289635 0.00300403
v 0.03377682 -0.05420818 0.00300403
v 0.03360913 -0.05433375 0.00700000
v 0.03479222 -0.05289635 0.00700000
v 0.03465014 -0.05317590 0.00300403
v 0.03393632 -0.05407269 0.00300403
v 0.03377682 -0.05420818 0.00700000
v 0.03465014 -0.05317590 0.00700000
v 0.03448654 -0.05344346 0.00300403
v 0.03408796 -0.05392830 0.00300403
v 0.03393632 -0.05407269 0.00700000
v 0.03448654 -0.05344346 0.00700000
v 0.03436324 -0.05361283 0.00300403
v 0.03423038 -0.05377467 0.00300403
v 0.03408796 -0.05392830 0.00700000
v 0.03436324 -0.05361283 0.00700000
v 0.03423038 -0.05377467 0.00700000
f 1 2 6
f 1 6 3
f 1 3 7
f 1 7 4
f 1 4 8
f 1 8 12
f 1 12 16
f 1 16 20
f 1 20 24
f 1 24 28
f 1 28 32
f 1 32 36
f 1 36 40
f 1 40 44
f 1 44 45
f 1 45 41
f 1 41 37
f 1 37 33
f 1 33 29
f 1 29 25
f 1 25 21
f 1 21 17
f 1 17 13
f 1 13 9
f 1 9 5
f 1 5 2
f 2 5 10
f 2 10 6
f 3 6 10
f 3 10 14
f 3 14 18
f 3 18 22
f 3 22 26
f 3 26 30
f 3 30 34
f 3 34 38
f 3 38 42
f 3 42 46
f 3 46 48
f 3 48 47
f 3 47 43
f 3 43 39
f 3 39 35
f 3 35 31
f 3 31 27
f 3 27 23
f 3 23 19
f 3 19 15
f 3 15 11
f 3 11 7
f 4 7 11
f 4 11 8
f 5 9 14
f 5 14 10
f 8 11 15
f 8 15 12
f 9 13 18
f 9 18 14
f 12 15 19
f 12 19 16
f 13 17 22
f 13 22 18
f 16 19 23
f 16 23 20
f 17 21 26
f 17 26 22
f 20 23 27
f 20 27 24
f 21 25 30
f 21 30 26
f 24 27 31
f 24 31 28
f 25 29 34
f 25 34 30
f 28 31 35
f 28 35 32
f 29 33 38
f 29 38 34
f 32 35 39
f 32 39 36
f 33 37 42
f 33 42 38
f 36 39 43
f 36 43 40
f 37 41 46
f 37 46 42
f 40 43 47
f 40 47 44
f 41 45 48
f 41 48 46
f 44 47 48
f 44 48 45

