# https://github.com/mikedh/trimesh
v -0.02599285 -0.03999892 0.00604816
v -0.02595254 -0.03999824 0.00380130
v -0.02596996 -0.03999927 0.00700000
v -0.02599285 -0.03785005 0.00700000
v -0.02599285 -0.03785005 0.00380130
v -0.02570421 -0.03998661 0.00380130
v -0.02573803 -0.03998969 0.00700000
v -0.02464973 -0.03650414 0.00700000
v -0.02464973 -0.03650414 0.00380130
v -0.02552966 -0.03996779 0.00700000
v -0.02539371 -0.03994487 0.00380130
v -0.02252539 -0.03691845 0.00700000
v -0.02250353 -0.03660712 0.00698528
v -0.02250353 -0.03660677 0.00380130
v -0.02532334 -0.03993358 0.00700000
v -0.02498756 -0.03984805 0.00380130
v -0.02511907 -0.03988705 0.00700000
v -0.02255682 -0.03712543 0.00700000
v -0.02252539 -0.03691742 0.00380130
v -0.02472112 -0.03975773 0.00700000
v -0.02491787 -0.03982820 0.00700000
v -0.02459610 -0.03970367 0.00380130
v -0.02260020 -0.03733002 0.00700000
v -0.02257595 -0.03721541 0.00380130
v -0.02452847 -0.03967527 0.00700000
v -0.02431463 -0.03956682 0.00380130
v -0.02265588 -0.03753187 0.00700000
v -0.02264939 -0.03750929 0.00380130
v -0.02434127 -0.03958153 0.00700000
v -0.02405707 -0.03940876 0.00380130
v -0.02416023 -0.03947684 0.00700000
v -0.02272351 -0.03772996 0.00700000
v -0.02275460 -0.03780420 0.00380130
v -0.02379576 -0.03921751 0.00380130
v -0.02398568 -0.03936155 0.00700000
v -0.02280276 -0.03792395 0.00700000
v -0.02293291 -0.03818122 0.00380130
v -0.02381796 -0.03923599 0.00700000
v -0.02356997 -0.03901600 0.00380130
v -0.02365844 -0.03910051 0.00700000
v -0.02294486 -0.03820380 0.00700000
v -0.02309414 -0.03844911 0.00380130
v -0.02350678 -0.03895613 0.00700000
v -0.02336058 -0.03879773 0.00380130
v -0.02310848 -0.03847134 0.00700000
v -0.02321574 -0.03861914 0.00380130
v -0.02336467 -0.03880252 0.00700000
v -0.02323180 -0.03864070 0.00700000
f 1 2 3
f 1 3 4
f 1 4 5
f 1 5 2
f 2 6 7
f 2 7 3
f 2 5 9
f 2 9 14
f 2 14 19
f 2 19 24
f 2 24 28
f 2 28 33
f 2 33 37
f 2 37 42
f 2 42 46
f 2 46 44
f 2 44 39
f 2 39 34
f 2 34 30
f 2 30 26
f 2 26 22
f 2 22 16
f 2 16 11
f 2 11 6
f 3 7 10
f 3 10 15
f 3 15 17
f 3 17 21
f 3 21 20
f 3 20 25
f 3 25 29
f 3 29 31
f 3 31 35
f 3 35 38
f 3 38 40
f 3 40 43
f 3 43 47
f 3 47 48
f 3 48 45
f 3 45 41
f 3 41 36
f 3 36 32
f 3 32 27
f 3 27 23
f 3 23 18
f 3 18 12
f 3 12 8
f 3 8 4
f 4 8 9
f 4 9 5
f 6 10 7
f 6 11 10
f 8 12 13
f 8 13 14
f 8 14 9
f 10 11 15
f 11 16 17
f 11 17 15
f 12 18 19
f 12 19 14
f 12 14 13
f 16 20 21
f 16 21 17
f 16 22 20
f 18 23 24
f 18 24 19
f 20 22 25
f 22 26 25
f 23 27 28
f 23 28 24
f 25 26 29
f 26 30 31
f 26 31 29
f 27 32 28
f 28 32 33
f 30 34 35
f 30 35 31
f 32 36 33
f 33 36 37
f 34 38 35
f 34 39 40
f 34 40 38
f 36 41 37
f 37 41 42
f 39 43 40
f 39 44 43
f 41 45 42
f 42 45 46
f 43 44 47
f 44 46 48
f 44 48 47
f 45 48 46

