# https://github.com/mikedh/trimesh
v -0.02607750 -0.03300276 0.00700000
v -0.02599730 -0.03514999 0.00380130
v -0.02611726 -0.03300413 0.00380130
v -0.02636645 -0.03301956 0.00700000
v -0.02599730 -0.03514999 0.00700000
v -0.02734984 -0.03650379 0.00380130
v -0.02653064 -0.03304286 0.00380130
v -0.02657382 -0.03304766 0.00700000
v -0.02734984 -0.03650379 0.00700000
v -0.02949862 -0.03650379 0.00468426
v -0.02949896 -0.03645375 0.00380130
v -0.02693887 -0.03313026 0.00380130
v -0.02677914 -0.03308810 0.00700000
v -0.02949793 -0.03644930 0.00700000
v -0.02949862 -0.03650379 0.00522030
v -0.02948559 -0.03618608 0.00700000
v -0.02947805 -0.03613158 0.00380130
v -0.02733339 -0.03326632 0.00380130
v -0.02718086 -0.03320532 0.00700000
v -0.02698171 -0.03314054 0.00700000
v -0.02946057 -0.03597804 0.00700000
v -0.02943281 -0.03582175 0.00380130
v -0.02770905 -0.03344797 0.00380130
v -0.02756578 -0.03337017 0.00700000
v -0.02737589 -0.03328209 0.00700000
v -0.02942321 -0.03577206 0.00700000
v -0.02937351 -0.03556847 0.00700000
v -0.02935706 -0.03551775 0.00380130
v -0.02805970 -0.03367315 0.00380130
v -0.02792774 -0.03357924 0.00700000
v -0.02774950 -0.03346922 0.00700000
v -0.02931181 -0.03536831 0.00700000
v -0.02921652 -0.03512497 0.00380130
v -0.02809877 -0.03369988 0.00700000
v -0.02838190 -0.03393877 0.00380130
v -0.02826262 -0.03383047 0.00700000
v -0.02923812 -0.03517227 0.00700000
v -0.02915311 -0.03498102 0.00700000
v -0.02908182 -0.03484222 0.00380130
v -0.02841857 -0.03397064 0.00700000
v -0.02860229 -0.03416086 0.00380130
v -0.02905680 -0.03479492 0.00700000
v -0.02894917 -0.03461601 0.00700000
v -0.02892003 -0.03457454 0.00380130
v -0.02856562 -0.03411973 0.00700000
v -0.02873734 -0.03432023 0.00380130
v -0.02870307 -0.03427739 0.00700000
v -0.02883126 -0.03444327 0.00700000
f 1 2 3
f 1 3 4
f 1 4 8
f 1 8 13
f 1 13 20
f 1 20 19
f 1 19 25
f 1 25 24
f 1 24 31
f 1 31 30
f 1 30 34
f 1 34 36
f 1 36 40
f 1 40 45
f 1 45 47
f 1 47 48
f 1 48 43
f 1 43 42
f 1 42 38
f 1 38 37
f 1 37 32
f 1 32 27
f 1 27 26
f 1 26 21
f 1 21 16
f 1 16 14
f 1 14 9
f 1 9 5
f 1 5 2
f 2 5 9
f 2 9 6
f 2 6 11
f 2 11 17
f 2 17 22
f 2 22 28
f 2 28 33
f 2 33 39
f 2 39 44
f 2 44 46
f 2 46 41
f 2 41 35
f 2 35 29
f 2 29 23
f 2 23 18
f 2 18 12
f 2 12 7
f 2 7 3
f 3 7 4
f 4 7 8
f 6 9 15
f 6 15 10
f 6 10 11
f 7 12 13
f 7 13 8
f 9 14 15
f 10 15 11
f 11 15 14
f 11 14 16
f 11 16 17
f 12 18 19
f 12 19 20
f 12 20 13
f 16 21 17
f 17 21 22
f 18 23 24
f 18 24 25
f 18 25 19
f 21 26 22
f 22 26 27
f 22 27 28
f 23 29 30
f 23 30 31
f 23 31 24
f 27 32 28
f 28 32 33
f 29 34 30
f 29 35 36
f 29 36 34
f 32 37 33
f 33 37 38
f 33 38 39
f 35 40 36
f 35 41 40
f 38 42 39
f 39 42 43
f 39 43 44
f 40 41 45
f 41 46 47
f 41 47 45
f 43 48 44
f 44 48 46
f 46 48 47

