# https://github.com/mikedh/trimesh
v 0.01385862 -0.02000000 0.00299971
v 0.01385862 -0.02000000 -0.00000000
v 0.01101907 -0.02000000 0.00299971
v 0.01385862 -0.03291329 0.00299971
v 0.01101907 -0.02000000 -0.00000000
v 0.01385862 -0.02998202 -0.00000000
v 0.01101907 -0.03050027 0.00299971
v 0.01218908 -0.03291329 0.00299971
v 0.01385862 -0.03291329 0.00049716
v 0.01101907 -0.02850058 -0.00000000
v 0.01101907 -0.03050027 0.00199980
v 0.01218908 -0.03291329 0.00199980
v 0.01385528 -0.03291329 0.00050010
v 0.01101907 -0.02900366 0.00050010
v 0.01101907 -0.02986446 0.00136139
f 1 2 5
f 1 5 3
f 1 3 7
f 1 7 8
f 1 8 4
f 1 4 9
f 1 9 6
f 1 6 2
f 2 6 10
f 2 10 5
f 3 5 10
f 3 10 14
f 3 14 15
f 3 15 11
f 3 11 7
f 4 8 12
f 4 12 13
f 4 13 9
f 6 9 10
f 7 11 12
f 7 12 8
f 9 13 10
f 10 13 12
f 10 12 14
f 11 15 12
f 12 15 14

