# https://github.com/mikedh/trimesh
v 0.01115644 0.01200000 0.00299971
v 0.01115644 0.00949196 0.00299971
v 0.01115644 0.01200000 -0.00000000
v 0.00001570 0.01200000 0.00299971
v 0.01115644 0.00949196 0.00199980
v 0.00951614 0.00821869 0.00299971
v 0.01115644 0.01149958 -0.00000000
v 0.00001570 0.01200000 -0.00000000
v 0.00001570 0.01049651 0.00299971
v 0.01115644 0.01099138 0.00050010
v 0.00951614 0.00821869 0.00199980
v 0.00801217 0.00821869 0.00050010
v 0.00754320 0.00821869 0.00003612
v 0.00750612 0.00821869 -0.00000000
v 0.00653328 0.00821869 0.00299971
v 0.01115644 0.01138409 0.00011130
v 0.00001570 0.01049503 -0.00000000
v 0.00652892 0.00821869 -0.00000000
f 1 2 5
f 1 5 10
f 1 10 16
f 1 16 7
f 1 7 3
f 1 3 8
f 1 8 4
f 1 4 9
f 1 9 15
f 1 15 6
f 1 6 2
f 2 6 11
f 2 11 5
f 3 7 14
f 3 14 18
f 3 18 17
f 3 17 8
f 4 8 17
f 4 17 9
f 5 11 12
f 5 12 13
f 5 13 14
f 5 14 10
f 6 15 18
f 6 18 14
f 6 14 13
f 6 13 12
f 6 12 11
f 7 16 14
f 9 17 18
f 9 18 15
f 10 14 16

