# https://github.com/mikedh/trimesh
v -0.01233364 0.00868514 0.00299971
v -0.01062290 0.00654858 0.00299971
v -0.01061987 0.00654930 0.00203181
v -0.01233364 0.00868514 0.00199980
v -0.01449415 0.00868514 0.00299971
v -0.01061987 0.00654355 0.00299971
v -0.01061987 0.00654930 0.00199980
v -0.01061987 0.00502760 0.00050010
v -0.01061987 0.00501647 0.00048953
v -0.01443044 0.00868514 -0.00000000
v -0.01449415 0.00868514 -0.00000000
v -0.01449415 0.00501647 0.00299971
v -0.01061987 0.00501647 0.00299971
v -0.01282930 0.00501647 -0.00000000
v -0.01449415 0.00501647 -0.00000000
f 1 2 3
f 1 3 7
f 1 7 4
f 1 4 10
f 1 10 11
f 1 11 5
f 1 5 12
f 1 12 13
f 1 13 6
f 1 6 2
f 2 6 3
f 3 6 13
f 3 13 9
f 3 9 8
f 3 8 7
f 4 7 8
f 4 8 9
f 4 9 10
f 5 11 15
f 5 15 12
f 9 13 12
f 9 12 15
f 9 15 14
f 9 14 10
f 10 14 15
f 10 15 11

