# https://github.com/mikedh/trimesh
v -0.01191726 -0.03081374 0.00199980
v -0.01191726 -0.03081374 0.00299971
v -0.01191726 -0.02862319 -0.00000000
v -0.00981029 -0.03291329 0.00199980
v -0.01191726 -0.02000126 0.00299971
v -0.00981029 -0.03291329 0.00299971
v -0.01191726 -0.02000000 -0.00000000
v -0.00800152 -0.03019437 -0.00000000
v -0.00800152 -0.03291329 0.00036179
v -0.00800152 -0.02000126 0.00299971
v -0.00865580 -0.03291329 0.00299971
v -0.00800152 -0.02000000 -0.00000000
v -0.00800152 -0.03291329 0.00280002
v -0.00800152 -0.03291076 0.00299971
f 1 2 5
f 1 5 7
f 1 7 3
f 1 3 4
f 1 4 6
f 1 6 2
f 2 6 11
f 2 11 14
f 2 14 10
f 2 10 5
f 3 7 12
f 3 12 8
f 3 8 9
f 3 9 4
f 4 9 13
f 4 13 11
f 4 11 6
f 5 10 12
f 5 12 7
f 8 12 10
f 8 10 14
f 8 14 13
f 8 13 9
f 11 13 14

