# https://github.com/mikedh/trimesh
v 0.00001461 -0.03291329 -0.00000000
v 0.00762243 -0.03291329 -0.00000000
v 0.00001461 -0.03291329 0.00299971
v 0.00001461 -0.01060352 -0.00000000
v 0.00801476 -0.03291329 0.00037441
v 0.00801476 -0.03017261 -0.00000000
v 0.00801476 -0.03291329 0.00299971
v 0.00001461 -0.01060352 0.00299971
v 0.00799988 -0.01060352 -0.00000000
v 0.00801476 -0.02000044 -0.00000000
v 0.00801476 -0.02000044 0.00299971
v 0.00799988 -0.01060352 0.00299971
f 1 2 5
f 1 5 7
f 1 7 3
f 1 3 8
f 1 8 4
f 1 4 9
f 1 9 10
f 1 10 6
f 1 6 2
f 2 6 5
f 3 7 11
f 3 11 12
f 3 12 8
f 4 8 12
f 4 12 9
f 5 6 10
f 5 10 11
f 5 11 7
f 9 12 11
f 9 11 10

