# https://github.com/mikedh/trimesh
v 0.03160191 -0.05282213 0.00700000
v 0.03151956 -0.05496983 0.00700000
v 0.03160191 -0.05282213 0.00300403
v 0.03024517 -0.05147606 0.00700000
v 0.03122858 -0.05495273 0.00700000
v 0.03151956 -0.05496983 0.00300403
v 0.03024517 -0.05147606 0.00300403
v 0.02809650 -0.05152668 0.00700000
v 0.03091839 -0.05490417 0.00700000
v 0.03122858 -0.05495273 0.00300403
v 0.02809650 -0.05152668 0.00300403
v 0.02810954 -0.05178625 0.00700000
v 0.03051350 -0.05479918 0.00700000
v 0.03091839 -0.05490417 0.00300403
v 0.02810954 -0.05178625 0.00300403
v 0.02813459 -0.05199417 0.00700000
v 0.03021910 -0.05469008 0.00700000
v 0.03051350 -0.05479918 0.00300403
v 0.02813459 -0.05199417 0.00300403
v 0.02817199 -0.05220005 0.00700000
v 0.02993704 -0.05455260 0.00700000
v 0.03021910 -0.05469008 0.00300403
v 0.02817199 -0.05220005 0.00300403
v 0.02822140 -0.05240388 0.00700000
v 0.02966700 -0.05439289 0.00700000
v 0.02993704 -0.05455260 0.00300403
v 0.02822140 -0.05240388 0.00300403
v 0.02828316 -0.05260394 0.00700000
v 0.02949578 -0.05427251 0.00700000
v 0.02966700 -0.05439289 0.00300403
v 0.02828316 -0.05260394 0.00300403
v 0.02835694 -0.05279990 0.00700000
v 0.02925422 -0.05407177 0.00700000
v 0.02949578 -0.05427251 0.00300403
v 0.02835694 -0.05279990 0.00300403
v 0.02844203 -0.05299108 0.00700000
v 0.02902981 -0.05385255 0.00700000
v 0.02925422 -0.05407177 0.00300403
v 0.02844203 -0.05299108 0.00300403
v 0.02853845 -0.05317678 0.00700000
v 0.02889187 -0.05369489 0.00700000
v 0.02902981 -0.05385255 0.00300403
v 0.02853845 -0.05317678 0.00300403
v 0.02864585 -0.05335632 0.00700000
v 0.02876389 -0.05352937 0.00700000
v 0.02889187 -0.05369489 0.00300403
v 0.02864585 -0.05335632 0.00300403
v 0.02876389 -0.05352937 0.00300403
f 1 2 6
f 1 6 3
f 1 3 7
f 1 7 4
f 1 4 8
f 1 8 12
f 1 12 16
f 1 16 20
f 1 20 24
f 1 24 28
f 1 28 32
f 1 32 36
f 1 36 40
f 1 40 44
f 1 44 45
f 1 45 41
f 1 41 37
f 1 37 33
f 1 33 29
f 1 29 25
f 1 25 21
f 1 21 17
f 1 17 13
f 1 13 9
f 1 9 5
f 1 5 2
f 2 5 10
f 2 10 6
f 3 6 10
f 3 10 14
f 3 14 18
f 3 18 22
f 3 22 26
f 3 26 30
f 3 30 34
f 3 34 38
f 3 38 42
f 3 42 46
f 3 46 48
f 3 48 47
f 3 47 43
f 3 43 39
f 3 39 35
f 3 35 31
f 3 31 27
f 3 27 23
f 3 23 19
f 3 19 15
f 3 15 11
f 3 11 7
f 4 7 11
f 4 11 8
f 5 9 14
f 5 14 10
f 8 11 15
f 8 15 12
f 9 13 18
f 9 18 14
f 12 15 19
f 12 19 16
f 13 17 22
f 13 22 18
f 16 19 23
f 16 23 20
f 17 21 26
f 17 26 22
f 20 23 27
f 20 27 24
f 21 25 30
f 21 30 26
f 24 27 31
f 24 31 28
f 25 29 34
f 25 34 30
f 28 31 35
f 28 35 32
f 29 33 38
f 29 38 34
f 32 35 39
f 32 39 36
f 33 37 42
f 33 42 38
f 36 39 43
f 36 43 40
f 37 41 46
f 37 46 42
f 40 43 47
f 40 47 44
f 41 45 48
f 41 48 46
f 44 47 48
f 44 48 45

