# https://github.com/mikedh/trimesh
v 0.03159868 -0.05012242 0.00700000
v 0.03151812 -0.04797476 0.00700000
v 0.03024504 -0.05147572 0.00700000
v 0.03159868 -0.05012242 0.00300403
v 0.03122847 -0.04799189 0.00700000
v 0.03151812 -0.04797476 0.00300403
v 0.02809718 -0.05142123 0.00700000
v 0.03024504 -0.05147572 0.00300403
v 0.03122847 -0.04799189 0.00300403
v 0.03102109 -0.04801999 0.00700000
v 0.02812186 -0.05105421 0.00700000
v 0.02809718 -0.05142123 0.00300403
v 0.03102109 -0.04801999 0.00300403
v 0.03081577 -0.04806043 0.00700000
v 0.02817191 -0.05074407 0.00700000
v 0.02812186 -0.05105421 0.00300403
v 0.03081577 -0.04806043 0.00300403
v 0.03061318 -0.04811321 0.00700000
v 0.02822161 -0.05054085 0.00700000
v 0.02817191 -0.05074407 0.00300403
v 0.03061318 -0.04811321 0.00300403
v 0.03041403 -0.04817798 0.00700000
v 0.02828331 -0.05034072 0.00700000
v 0.02822161 -0.05054085 0.00300403
v 0.03041403 -0.04817798 0.00300403
v 0.03012404 -0.04829826 0.00700000
v 0.02835701 -0.05014470 0.00700000
v 0.02828331 -0.05034072 0.00300403
v 0.03012404 -0.04829826 0.00300403
v 0.02984536 -0.04844151 0.00700000
v 0.02844202 -0.04995313 0.00700000
v 0.02835701 -0.05014470 0.00300403
v 0.02984536 -0.04844151 0.00300403
v 0.02966711 -0.04855151 0.00700000
v 0.02859216 -0.04967795 0.00700000
v 0.02844202 -0.04995313 0.00300403
v 0.02966711 -0.04855151 0.00300403
v 0.02949607 -0.04867214 0.00700000
v 0.02882765 -0.04933251 0.00700000
v 0.02859216 -0.04967795 0.00300403
v 0.02949607 -0.04867214 0.00300403
v 0.02933222 -0.04880271 0.00700000
v 0.02902954 -0.04909194 0.00700000
v 0.02882765 -0.04933251 0.00300403
v 0.02933222 -0.04880271 0.00300403
v 0.02917660 -0.04894287 0.00700000
v 0.02902954 -0.04909194 0.00300403
v 0.02917660 -0.04894287 0.00300403
f 1 2 5
f 1 5 10
f 1 10 14
f 1 14 18
f 1 18 22
f 1 22 26
f 1 26 30
f 1 30 34
f 1 34 38
f 1 38 42
f 1 42 46
f 1 46 43
f 1 43 39
f 1 39 35
f 1 35 31
f 1 31 27
f 1 27 23
f 1 23 19
f 1 19 15
f 1 15 11
f 1 11 7
f 1 7 3
f 1 3 8
f 1 8 4
f 1 4 6
f 1 6 2
f 2 6 9
f 2 9 5
f 3 7 12
f 3 12 8
f 4 8 12
f 4 12 16
f 4 16 20
f 4 20 24
f 4 24 28
f 4 28 32
f 4 32 36
f 4 36 40
f 4 40 44
f 4 44 47
f 4 47 48
f 4 48 45
f 4 45 41
f 4 41 37
f 4 37 33
f 4 33 29
f 4 29 25
f 4 25 21
f 4 21 17
f 4 17 13
f 4 13 9
f 4 9 6
f 5 9 13
f 5 13 10
f 7 11 16
f 7 16 12
f 10 13 17
f 10 17 14
f 11 15 20
f 11 20 16
f 14 17 21
f 14 21 18
f 15 19 24
f 15 24 20
f 18 21 25
f 18 25 22
f 19 23 28
f 19 28 24
f 22 25 29
f 22 29 26
f 23 27 32
f 23 32 28
f 26 29 33
f 26 33 30
f 27 31 36
f 27 36 32
f 30 33 37
f 30 37 34
f 31 35 40
f 31 40 36
f 34 37 41
f 34 41 38
f 35 39 44
f 35 44 40
f 38 41 45
f 38 45 42
f 39 43 47
f 39 47 44
f 42 45 48
f 42 48 46
f 43 46 48
f 43 48 47

