# https://github.com/mikedh/trimesh
v -0.02100000 0.06697255 0.10606057
v -0.02100000 0.09778701 0.12042959
v -0.02100000 0.07669277 0.08521549
v -0.02100000 0.10750723 0.09958451
v -0.02099323 0.06676176 0.10596228
v -0.02097295 0.06655168 0.10586432
v -0.02093923 0.06634303 0.10576702
v -0.02089218 0.06613651 0.10567072
v -0.02083196 0.06593282 0.10557574
v -0.02075877 0.06573265 0.10548239
v -0.02067286 0.06553667 0.10539101
v -0.02057453 0.06534555 0.10530189
v -0.02046410 0.06515993 0.10521533
v -0.02034195 0.06498045 0.10513164
v -0.02020849 0.06480771 0.10505109
v -0.02006418 0.06464229 0.10497395
v -0.01990949 0.06448476 0.10490050
v -0.01974497 0.06433565 0.10483096
v -0.01957115 0.06419546 0.10476559
v -0.01938863 0.06406467 0.10470460
v -0.01919804 0.06394371 0.10464820
v -0.01900000 0.06383301 0.10459658
v -0.01879520 0.06373292 0.10454991
v -0.01858432 0.06364380 0.10450835
v -0.01836808 0.06356594 0.10447204
v -0.01814721 0.06349961 0.10444111
v -0.01792246 0.06344504 0.10441566
v -0.01769459 0.06340239 0.10439578
v -0.01746437 0.06337183 0.10438153
v -0.01723258 0.06335345 0.10437296
v -0.01700000 0.06334732 0.10437010
v 0.01700000 0.06334732 0.10437010
v 0.02100000 0.06697255 0.10606057
v 0.02099323 0.06676176 0.10596228
v 0.02097295 0.06655168 0.10586432
v 0.02093923 0.06634303 0.10576702
v 0.02089218 0.06613651 0.10567072
v 0.02083196 0.06593282 0.10557574
v 0.02075877 0.06573265 0.10548239
v 0.02067286 0.06553667 0.10539101
v 0.02057453 0.06534555 0.10530189
v 0.02046410 0.06515993 0.10521533
v 0.02034195 0.06498045 0.10513164
v 0.02020849 0.06480771 0.10505109
v 0.02006418 0.06464229 0.10497395
v 0.01990949 0.06448476 0.10490050
v 0.01974497 0.06433565 0.10483096
v 0.01957115 0.06419546 0.10476559
v 0.01938863 0.06406467 0.10470460
v 0.01919804 0.06394371 0.10464820
v 0.01900000 0.06383301 0.10459658
v 0.01879520 0.06373292 0.10454991
v 0.01858432 0.06364380 0.10450835
v 0.01836808 0.06356594 0.10447204
v 0.01814721 0.06349961 0.10444111
v 0.01792246 0.06344504 0.10441566
v 0.01769459 0.06340239 0.10439578
v 0.01746437 0.06337183 0.10438153
v 0.01723258 0.06335345 0.10437296
v 0.02100000 0.09778701 0.12042959
v 0.02099323 0.09799780 0.12052788
v 0.02097295 0.09820788 0.12062584
v 0.02093923 0.09841653 0.12072314
v 0.02089218 0.09862305 0.12081944
v 0.02083196 0.09882674 0.12091442
v 0.02075877 0.09902691 0.12100777
v 0.02067286 0.09922289 0.12109915
v 0.02057453 0.09941401 0.12118827
v 0.02046410 0.09959963 0.12127483
v 0.02034195 0.09977911 0.12135852
v 0.02020849 0.09995185 0.12143907
v 0.02006418 0.10011727 0.12151620
v 0.01990949 0.10027480 0.12158966
v 0.01974497 0.10042391 0.12165920
v 0.01957115 0.10056410 0.12172457
v 0.01938863 0.10069489 0.12178556
v 0.01919804 0.10081585 0.12184196
v 0.01900000 0.10092655 0.12189358
v 0.01879520 0.10102664 0.12194025
v 0.01858432 0.10111576 0.12198181
v 0.01836808 0.10119362 0.12201811
v 0.01814721 0.10125995 0.12204905
v 0.01792246 0.10131452 0.12207450
v 0.01769459 0.10135717 0.12209438
v 0.01746437 0.10138773 0.12210863
v 0.01723258 0.10140611 0.12211720
v 0.01700000 0.10141224 0.12212006
v -0.01700000 0.10141224 0.12212006
v -0.02099323 0.09799780 0.12052788
v -0.02097295 0.09820788 0.12062584
v -0.02093923 0.09841653 0.12072314
v -0.02089218 0.09862305 0.12081944
v -0.02083196 0.09882674 0.12091442
v -0.02075877 0.09902691 0.12100777
v -0.02067286 0.09922289 0.12109915
v -0.02057453 0.09941401 0.12118827
v -0.02046410 0.09959963 0.12127483
v -0.02034195 0.09977911 0.12135852
v -0.02020849 0.09995185 0.12143907
v -0.02006418 0.10011727 0.12151620
v -0.01990949 0.10027480 0.12158966
v -0.01974497 0.10042391 0.12165920
v -0.01957115 0.10056410 0.12172457
v -0.01938863 0.10069489 0.12178556
v -0.01919804 0.10081585 0.12184196
v -0.01900000 0.10092655 0.12189358
v -0.01879520 0.10102664 0.12194025
v -0.01858432 0.10111576 0.12198181
v -0.01836808 0.10119362 0.12201811
v -0.01814721 0.10125995 0.12204905
v -0.01792246 0.10131452 0.12207450
v -0.01769459 0.10135717 0.12209438
v -0.01746437 0.10138773 0.12210863
v -0.01723258 0.10140611 0.12211720
v -0.02099323 0.07648198 0.08511720
v -0.02097295 0.07627190 0.08501924
v -0.02093923 0.07606325 0.08492194
v -0.02089218 0.07585673 0.08482564
v -0.02083196 0.07565304 0.08473066
v -0.02075877 0.07545287 0.08463731
v -0.02067286 0.07525689 0.08454593
v -0.02057453 0.07506577 0.08445681
v -0.02046410 0.07488015 0.08437025
v -0.02034195 0.07470067 0.08428656
v -0.02020849 0.07452793 0.08420601
v -0.02006418 0.07436251 0.08412887
v -0.01990949 0.07420498 0.08405542
v -0.01974497 0.07405587 0.08398588
v -0.01957115 0.07391568 0.08392051
v -0.01938863 0.07378489 0.08385952
v -0.01919804 0.07366393 0.08380312
v -0.01900000 0.07355323 0.08375150
v -0.01879520 0.07345314 0.08370483
v -0.01858432 0.07336402 0.08366327
v -0.01836808 0.07328616 0.08362696
v -0.01814721 0.07321983 0.08359603
v -0.01792246 0.07316526 0.08357058
v -0.01769459 0.07312261 0.08355070
v -0.01746437 0.07309205 0.08353645
v -0.01723258 0.07307367 0.08352788
v -0.01700000 0.07306754 0.08352502
v -0.02099323 0.10771802 0.09968280
v -0.02097295 0.10792810 0.09978076
v -0.02093923 0.10813675 0.09987806
v -0.02089218 0.10834327 0.09997436
v -0.02083196 0.10854696 0.10006934
v -0.02075877 0.10874713 0.10016269
v -0.02067286 0.10894311 0.10025407
v -0.02057453 0.10913423 0.10034319
v -0.02046410 0.10931985 0.10042975
v -0.02034195 0.10949933 0.10051344
v -0.02020849 0.10967207 0.10059399
v -0.02006418 0.10983749 0.10067113
v -0.01990949 0.10999502 0.10074458
v -0.01974497 0.11014413 0.10081412
v -0.01957115 0.11028432 0.10087949
v -0.01938863 0.11041511 0.10094048
v -0.01919804 0.11053607 0.10099688
v -0.01900000 0.11064677 0.10104850
v -0.01879520 0.11074686 0.10109517
v -0.01858432 0.11083598 0.10113673
v -0.01836808 0.11091384 0.10117304
v -0.01814721 0.11098017 0.10120397
v -0.01792246 0.11103474 0.10122942
v -0.01769459 0.11107739 0.10124930
v -0.01746437 0.11110795 0.10126355
v -0.01723258 0.11112633 0.10127212
v -0.01700000 0.11113246 0.10127498
v 0.01700000 0.07306754 0.08352502
v 0.02100000 0.07669277 0.08521549
v 0.02099323 0.07648198 0.08511720
v 0.02097295 0.07627190 0.08501924
v 0.02093923 0.07606325 0.08492194
v 0.02089218 0.07585673 0.08482564
v 0.02083196 0.07565304 0.08473066
v 0.02075877 0.07545287 0.08463731
v 0.02067286 0.07525689 0.08454593
v 0.02057453 0.07506577 0.08445681
v 0.02046410 0.07488015 0.08437025
v 0.02034195 0.07470067 0.08428656
v 0.02020849 0.07452793 0.08420601
v 0.02006418 0.07436251 0.08412887
v 0.01990949 0.07420498 0.08405542
v 0.01974497 0.07405587 0.08398588
v 0.01957115 0.07391568 0.08392051
v 0.01938863 0.07378489 0.08385952
v 0.01919804 0.07366393 0.08380312
v 0.01900000 0.07355323 0.08375150
v 0.01879520 0.07345314 0.08370483
v 0.01858432 0.07336402 0.08366327
v 0.01836808 0.07328616 0.08362696
v 0.01814721 0.07321983 0.08359603
v 0.01792246 0.07316526 0.08357058
v 0.01769459 0.07312261 0.08355070
v 0.01746437 0.07309205 0.08353645
v 0.01723258 0.07307367 0.08352788
v 0.02100000 0.10750723 0.09958451
v 0.02099323 0.10771802 0.09968280
v 0.02097295 0.10792810 0.09978076
v 0.02093923 0.10813675 0.09987806
v 0.02089218 0.10834327 0.09997436
v 0.02083196 0.10854696 0.10006934
v 0.02075877 0.10874713 0.10016269
v 0.02067286 0.10894311 0.10025407
v 0.02057453 0.10913423 0.10034319
v 0.02046410 0.10931985 0.10042975
v 0.02034195 0.10949933 0.10051344
v 0.02020849 0.10967207 0.10059399
v 0.02006418 0.10983749 0.10067113
v 0.01990949 0.10999502 0.10074458
v 0.01974497 0.11014413 0.10081412
v 0.01957115 0.11028432 0.10087949
v 0.01938863 0.11041511 0.10094048
v 0.01919804 0.11053607 0.10099688
v 0.01900000 0.11064677 0.10104850
v 0.01879520 0.11074686 0.10109517
v 0.01858432 0.11083598 0.10113673
v 0.01836808 0.11091384 0.10117304
v 0.01814721 0.11098017 0.10120397
v 0.01792246 0.11103474 0.10122942
v 0.01769459 0.11107739 0.10124930
v 0.01746437 0.11110795 0.10126355
v 0.01723258 0.11112633 0.10127212
v 0.01700000 0.11113246 0.10127498
f 4 147 3
f 3 147 116
f 33 60 61
f 61 60 197
f 5 89 1
f 1 89 2
f 2 89 4
f 33 61 34
f 34 61 35
f 222 221 223
f 223 221 224
f 86 224 87
f 86 223 224
f 222 223 86
f 86 85 222
f 116 147 119
f 147 134 119
f 170 203 197
f 203 221 212
f 115 3 116
f 116 5 115
f 1 3 115
f 115 5 1
f 143 147 4
f 143 144 147
f 147 144 146
f 147 146 93
f 102 89 106
f 135 26 25
f 84 86 83
f 85 86 84
f 84 221 222
f 222 85 84
f 114 88 168
f 69 61 62
f 69 72 61
f 120 121 11
f 19 128 129
f 171 170 33
f 33 34 171
f 199 200 62
f 62 61 199
f 197 203 199
f 203 200 199
f 139 135 134
f 139 134 147
f 169 59 32
f 156 165 147
f 203 212 206
f 161 107 108
f 4 89 142
f 142 143 4
f 89 143 142
f 145 146 144
f 98 97 100
f 89 102 100
f 100 97 89
f 135 139 137
f 141 31 30
f 9 118 119
f 106 89 9
f 9 20 106
f 56 59 58
f 59 56 49
f 165 112 166
f 203 66 65
f 65 69 62
f 68 206 69
f 68 65 66
f 69 65 68
f 130 119 134
f 130 129 119
f 130 20 19
f 19 129 130
f 116 119 117
f 119 118 117
f 198 61 197
f 197 199 198
f 198 199 61
f 190 195 203
f 203 175 190
f 203 170 172
f 172 175 203
f 170 171 172
f 172 34 35
f 172 171 34
f 38 49 41
f 196 169 195
f 59 169 196
f 58 59 196
f 196 195 58
f 207 206 212
f 218 212 221
f 61 72 74
f 108 107 109
f 109 161 108
f 114 112 111
f 110 109 111
f 111 109 107
f 106 114 111
f 111 107 106
f 165 156 162
f 161 109 162
f 107 161 160
f 161 162 160
f 89 97 90
f 90 97 93
f 90 143 89
f 144 143 90
f 90 91 144
f 93 97 96
f 150 97 98
f 150 96 97
f 150 156 147
f 92 90 93
f 91 90 92
f 92 93 146
f 146 145 92
f 144 91 92
f 92 145 144
f 99 152 98
f 98 100 99
f 99 100 152
f 101 100 102
f 26 135 136
f 136 137 26
f 135 137 136
f 28 137 138
f 138 137 139
f 28 138 29
f 29 138 139
f 140 139 141
f 141 30 140
f 140 29 139
f 30 29 140
f 27 30 20
f 25 26 27
f 26 137 27
f 27 137 28
f 28 29 27
f 27 29 30
f 8 9 89
f 118 9 8
f 119 120 10
f 10 9 119
f 10 120 11
f 11 9 10
f 19 20 18
f 18 128 19
f 20 9 12
f 12 9 11
f 24 135 25
f 134 135 24
f 24 133 134
f 57 56 58
f 41 49 46
f 46 49 47
f 46 47 183
f 47 49 48
f 52 49 56
f 168 165 167
f 165 166 167
f 167 114 168
f 167 166 114
f 113 112 114
f 114 166 113
f 113 166 112
f 202 200 203
f 203 65 202
f 64 65 62
f 64 202 65
f 67 68 66
f 68 67 204
f 204 66 203
f 204 67 66
f 134 133 132
f 132 130 134
f 20 130 21
f 121 120 122
f 122 120 119
f 11 121 122
f 122 12 11
f 119 129 123
f 129 124 123
f 123 122 119
f 12 122 123
f 126 124 129
f 56 57 193
f 183 47 184
f 47 48 184
f 174 38 175
f 183 184 185
f 185 184 48
f 35 61 37
f 61 38 37
f 38 174 37
f 105 102 106
f 105 104 102
f 102 104 103
f 210 207 212
f 212 211 210
f 69 206 70
f 206 207 70
f 72 69 70
f 70 71 72
f 221 220 219
f 219 218 221
f 77 74 76
f 163 164 165
f 165 162 163
f 157 162 156
f 93 96 94
f 94 96 95
f 147 93 94
f 98 152 151
f 151 150 98
f 156 150 151
f 95 96 148
f 147 94 148
f 148 94 95
f 152 100 153
f 89 5 6
f 6 8 89
f 6 5 116
f 7 117 118
f 118 8 7
f 8 6 7
f 116 117 7
f 7 6 116
f 15 126 16
f 23 27 20
f 25 27 23
f 23 24 25
f 20 21 23
f 23 21 22
f 133 24 23
f 23 132 133
f 22 132 23
f 41 46 43
f 45 46 183
f 44 43 45
f 45 43 46
f 62 200 63
f 63 64 62
f 200 64 63
f 200 202 201
f 201 64 200
f 202 64 201
f 206 68 205
f 68 204 205
f 203 206 205
f 205 204 203
f 130 132 131
f 131 21 130
f 131 132 22
f 22 21 131
f 127 129 128
f 127 126 129
f 128 18 127
f 127 16 126
f 15 124 125
f 125 126 15
f 124 126 125
f 195 190 191
f 191 193 195
f 191 190 53
f 195 193 194
f 194 193 57
f 58 195 194
f 194 57 58
f 175 172 173
f 173 174 175
f 176 178 175
f 176 177 178
f 186 190 175
f 175 185 186
f 186 48 49
f 186 185 48
f 175 178 179
f 179 185 175
f 179 178 41
f 73 74 72
f 208 210 209
f 207 210 208
f 209 72 208
f 72 71 208
f 208 70 207
f 71 70 208
f 212 218 213
f 218 215 213
f 216 218 217
f 216 215 218
f 83 86 78
f 77 215 78
f 78 74 77
f 49 38 78
f 78 38 61
f 61 74 78
f 75 76 74
f 159 160 162
f 162 157 159
f 159 157 158
f 158 105 159
f 159 105 106
f 106 107 159
f 107 160 159
f 96 150 149
f 149 148 96
f 149 150 147
f 147 148 149
f 15 16 14
f 14 124 15
f 54 191 53
f 53 52 54
f 54 52 56
f 36 37 174
f 174 173 36
f 35 37 36
f 36 172 35
f 36 173 172
f 177 176 40
f 40 38 41
f 41 178 40
f 178 177 40
f 190 186 188
f 51 52 188
f 50 186 49
f 50 52 51
f 49 52 50
f 183 185 182
f 182 45 183
f 44 45 182
f 41 43 42
f 42 179 41
f 214 215 77
f 214 213 215
f 83 78 79
f 217 80 79
f 79 216 217
f 215 216 79
f 79 78 215
f 154 155 156
f 156 151 154
f 154 151 152
f 152 153 154
f 17 14 16
f 17 18 20
f 20 12 17
f 12 14 17
f 17 127 18
f 16 127 17
f 12 123 13
f 13 14 12
f 191 54 55
f 56 193 55
f 55 54 56
f 38 40 39
f 39 40 176
f 175 38 39
f 39 176 175
f 190 188 189
f 189 188 52
f 53 190 189
f 189 52 53
f 187 188 186
f 186 50 187
f 51 188 187
f 187 50 51
f 185 179 180
f 180 182 185
f 180 43 44
f 81 79 80
f 81 82 83
f 83 79 81
f 217 218 81
f 81 80 217
f 193 191 192
f 192 55 193
f 191 55 192
f 44 182 181
f 181 180 44
f 182 180 181
f 224 88 87
f 168 88 224
f 4 3 2
f 2 3 1
f 197 60 170
f 170 60 33
f 168 224 165
f 224 221 165
f 165 203 147
f 165 221 203
f 87 88 114
f 114 86 87
f 147 203 139
f 203 195 139
f 169 32 31
f 169 31 141
f 169 139 195
f 141 139 169
f 31 32 30
f 32 59 30
f 49 30 59
f 20 30 49
f 221 84 220
f 220 84 83
f 164 111 112
f 164 112 165
f 111 164 163
f 110 111 163
f 163 109 110
f 163 162 109
f 104 105 157
f 157 105 158
f 156 103 157
f 157 103 104
f 209 210 73
f 73 72 209
f 211 74 73
f 73 210 211
f 86 114 78
f 78 114 106
f 20 49 78
f 106 20 78
f 82 220 83
f 82 219 220
f 75 74 211
f 75 211 212
f 212 213 75
f 75 213 76
f 155 103 156
f 102 103 155
f 76 213 214
f 77 76 214
f 154 153 100
f 100 101 154
f 102 155 154
f 154 101 102
f 124 14 13
f 13 123 124
f 179 42 180
f 180 42 43
f 219 82 81
f 218 219 81

