# https://github.com/mikedh/trimesh
v -0.01900000 -0.00000386 0.00680044
v -0.01900000 -0.00107465 0.00746592
v -0.01900000 -0.00000386 0.00549994
v -0.02300000 -0.00000386 0.00680044
v -0.01900000 -0.00332045 0.00746592
v -0.02300000 -0.00107465 0.00746592
v -0.01900000 -0.00332045 0.00438265
v -0.02300000 -0.00000386 0.00549994
v -0.02300000 -0.00332045 0.00746592
v -0.02300000 -0.00332045 0.00438265
f 1 2 5
f 1 5 7
f 1 7 3
f 1 3 8
f 1 8 4
f 1 4 6
f 1 6 2
f 2 6 9
f 2 9 5
f 3 7 10
f 3 10 8
f 4 8 10
f 4 10 9
f 4 9 6
f 5 9 10
f 5 10 7

