# https://github.com/mikedh/trimesh
v 0.01900000 -0.00423414 -0.01281196
v 0.01900000 -0.00382751 -0.01294578
v 0.02300000 -0.00423414 -0.01281196
v 0.01900000 -0.00423414 -0.00750021
v 0.02300000 -0.00382751 -0.01294578
v 0.01900000 -0.00304862 -0.01315120
v 0.02300000 -0.00423414 -0.00750021
v 0.01900000 -0.00109083 -0.00750021
v 0.02300000 -0.00304862 -0.01315120
v 0.01900000 -0.00225855 -0.01330968
v 0.02300000 -0.00109083 -0.00750021
v 0.01900000 -0.00000427 -0.00919997
v 0.02300000 -0.00225855 -0.01330968
v 0.01900000 -0.00146102 -0.01342061
v 0.02300000 -0.00000427 -0.00919997
v 0.01900000 -0.00000427 -0.01349573
v 0.02300000 -0.00146102 -0.01342061
v 0.01900000 -0.00065770 -0.01348341
v 0.02300000 -0.00000427 -0.01349573
v 0.02300000 -0.00065770 -0.01348341
f 1 2 5
f 1 5 3
f 1 3 7
f 1 7 4
f 1 4 8
f 1 8 12
f 1 12 16
f 1 16 18
f 1 18 14
f 1 14 10
f 1 10 6
f 1 6 2
f 2 6 9
f 2 9 5
f 3 5 9
f 3 9 13
f 3 13 17
f 3 17 20
f 3 20 19
f 3 19 15
f 3 15 11
f 3 11 7
f 4 7 11
f 4 11 8
f 6 10 13
f 6 13 9
f 8 11 15
f 8 15 12
f 10 14 17
f 10 17 13
f 12 15 19
f 12 19 16
f 14 18 20
f 14 20 17
f 16 19 20
f 16 20 18

