# https://github.com/mikedh/trimesh
v 0.00000000 0.03949966 0.03199618
v -0.01424643 0.03953662 0.03199618
v 0.00000000 0.03550004 0.03199618
v 0.00000000 0.03949966 -0.00699618
v -0.01824930 0.03953662 0.03199618
v -0.01424643 0.03953662 -0.00699618
v -0.01897648 0.03550004 0.03199618
v -0.01899899 0.03547619 0.00700382
v 0.00000000 0.03550004 -0.00699618
v -0.02299961 0.03949966 0.03199618
v -0.01824930 0.03953662 -0.00699618
v -0.02299961 0.03550044 0.03199618
v -0.02299961 0.03547619 0.00700382
v -0.01899899 0.03547619 0.00698855
v -0.01900349 0.03547619 -0.00699618
v -0.02299961 0.03949966 -0.00699618
v -0.02299961 0.03547619 -0.00699618
f 1 2 5
f 1 5 10
f 1 10 12
f 1 12 7
f 1 7 3
f 1 3 9
f 1 9 4
f 1 4 6
f 1 6 2
f 2 6 11
f 2 11 5
f 3 7 13
f 3 13 8
f 3 8 14
f 3 14 9
f 4 9 15
f 4 15 17
f 4 17 16
f 4 16 11
f 4 11 6
f 5 11 16
f 5 16 10
f 7 12 13
f 8 13 17
f 8 17 15
f 8 15 14
f 9 14 15
f 10 16 17
f 10 17 13
f 10 13 12

