# https://github.com/mikedh/trimesh
v -0.01596115 0.06600765 0.00520059
v -0.01425000 0.06600765 0.00520059
v -0.01596115 0.06600765 0.02018378
v -0.01596115 0.06720035 0.00400485
v -0.01425000 0.06600765 0.02018378
v -0.01456255 0.06720035 0.00400485
v -0.01425000 0.06720348 0.00400485
v -0.01596115 0.06603735 0.02679912
v -0.01596115 0.07000000 0.00400485
v -0.01425000 0.06603735 0.02679912
v -0.01425000 0.07000000 0.00400485
v -0.01596115 0.06719996 0.02800426
v -0.01596115 0.07000000 0.02018378
v -0.01425000 0.06719996 0.02800426
v -0.01425000 0.07000000 0.02018378
v -0.01596115 0.06999961 0.02800426
v -0.01425000 0.06999961 0.02800426
f 1 2 5
f 1 5 3
f 1 3 8
f 1 8 12
f 1 12 16
f 1 16 13
f 1 13 9
f 1 9 4
f 1 4 6
f 1 6 2
f 2 6 7
f 2 7 11
f 2 11 15
f 2 15 17
f 2 17 14
f 2 14 10
f 2 10 5
f 3 5 10
f 3 10 8
f 4 9 11
f 4 11 7
f 4 7 6
f 8 10 14
f 8 14 12
f 9 13 15
f 9 15 11
f 12 14 17
f 12 17 16
f 13 16 17
f 13 17 15

