# https://github.com/mikedh/trimesh
v 0.01900000 0.00390675 0.00386918
v 0.01900000 0.00549842 -0.00000000
v 0.02300000 0.00390675 0.00386918
v 0.01900000 0.00390675 0.01291748
v 0.01900000 0.00680036 -0.00000000
v 0.02300000 0.00549842 -0.00000000
v 0.02300000 0.00390675 0.01291748
v 0.01900000 0.00411077 0.01285806
v 0.02300000 0.00680036 -0.00000000
v 0.01900000 0.00792227 0.00120121
v 0.01931206 0.00792227 0.00119742
v 0.02300000 0.00411077 0.01285806
v 0.01900000 0.00487063 0.01258999
v 0.02300000 0.00792227 0.00120121
v 0.01900000 0.00792227 0.01092347
v 0.02300000 0.00487063 0.01258999
v 0.01900000 0.00561320 0.01227768
v 0.02300000 0.00792227 0.01092347
v 0.01900000 0.00770960 0.01108152
v 0.02300000 0.00561320 0.01227768
v 0.01900000 0.00633493 0.01192111
v 0.02300000 0.00770960 0.01108152
v 0.01900000 0.00703504 0.01152155
v 0.02300000 0.00633493 0.01192111
v 0.02300000 0.00703504 0.01152155
f 1 2 6
f 1 6 3
f 1 3 7
f 1 7 4
f 1 4 8
f 1 8 13
f 1 13 17
f 1 17 21
f 1 21 23
f 1 23 19
f 1 19 15
f 1 15 10
f 1 10 5
f 1 5 2
f 2 5 9
f 2 9 6
f 3 6 9
f 3 9 14
f 3 14 18
f 3 18 22
f 3 22 25
f 3 25 24
f 3 24 20
f 3 20 16
f 3 16 12
f 3 12 7
f 4 7 12
f 4 12 8
f 5 10 11
f 5 11 9
f 8 12 16
f 8 16 13
f 9 11 14
f 10 15 18
f 10 18 14
f 10 14 11
f 13 16 20
f 13 20 17
f 15 19 22
f 15 22 18
f 17 20 24
f 17 24 21
f 19 23 25
f 19 25 22
f 21 24 25
f 21 25 23

