# https://github.com/mikedh/trimesh
v 0.01813490 0.05522748 0.00402185
v 0.01824961 0.06479794 0.00401970
v 0.01653844 0.05522748 0.00402185
v 0.01824961 0.05522513 0.00402185
v 0.01824961 0.06602027 0.00279948
v 0.01653844 0.06479794 0.00401970
v 0.01425062 0.06479794 0.00401754
v 0.01653844 0.05520042 0.00402185
v 0.01824961 0.05520042 0.00402185
v 0.01824961 0.06602027 -0.00455633
v 0.01653844 0.06602027 0.00279948
v 0.01425062 0.05522748 0.00401754
v 0.01425062 0.06600027 0.00279948
v 0.01425062 0.05400397 0.00279948
v 0.01824961 0.05400397 0.00279948
v 0.01824883 0.06602027 -0.00699892
v 0.01824961 0.05522748 -0.00698597
v 0.01653844 0.06602027 -0.00699892
v 0.01425062 0.06600027 -0.00700000
v 0.01425062 0.05400397 -0.00699892
v 0.01824961 0.05400397 -0.00698382
v 0.01653844 0.06600027 -0.00700000
v 0.01824726 0.05522748 -0.00699892
v 0.01653844 0.05522748 -0.00700000
v 0.01425062 0.05522748 -0.00700000
v 0.01824687 0.05400397 -0.00699892
f 1 2 6
f 1 6 3
f 1 3 8
f 1 8 9
f 1 9 4
f 1 4 2
f 2 5 11
f 2 11 6
f 2 4 9
f 2 9 15
f 2 15 21
f 2 21 17
f 2 17 10
f 2 10 5
f 3 6 7
f 3 7 12
f 3 12 8
f 5 10 16
f 5 16 18
f 5 18 11
f 6 11 7
f 7 11 13
f 7 13 19
f 7 19 25
f 7 25 20
f 7 20 14
f 7 14 12
f 8 14 15
f 8 15 9
f 8 12 14
f 10 17 16
f 11 18 19
f 11 19 13
f 14 20 26
f 14 26 21
f 14 21 15
f 16 22 19
f 16 19 18
f 16 17 23
f 16 23 24
f 16 24 22
f 17 21 26
f 17 26 23
f 19 22 24
f 19 24 25
f 20 25 24
f 20 24 26
f 23 26 24

