# https://github.com/mikedh/trimesh
v -0.02300000 0.00386424 0.00391352
v -0.01900000 0.00386424 0.00391352
v -0.02300000 0.00386424 0.01292969
v -0.02300000 0.00492964 0.00243411
v -0.01900000 0.00386424 0.01292969
v -0.01900000 0.00492964 0.00243411
v -0.02300000 0.00411086 0.01285880
v -0.02300000 0.01161646 0.00243411
v -0.01900000 0.00411086 0.01285880
v -0.01900000 0.01161646 0.00243411
v -0.02300000 0.00487121 0.01259066
v -0.02300000 0.01161646 0.00700075
v -0.01900000 0.00487121 0.01259066
v -0.01900000 0.01161646 0.00700075
v -0.02300000 0.00561335 0.01227731
v -0.02300000 0.01062694 0.00832400
v -0.01900000 0.00561335 0.01227731
v -0.01900000 0.01062694 0.00832400
v -0.02300000 0.00633575 0.01192081
v -0.02300000 0.01011170 0.00894350
v -0.01900000 0.00633575 0.01192081
v -0.01900000 0.01011170 0.00894350
v -0.02300000 0.00703539 0.01152117
v -0.02300000 0.00956003 0.00953116
v -0.01900000 0.00703539 0.01152117
v -0.01900000 0.00956003 0.00953116
v -0.02300000 0.00771000 0.01108145
v -0.02300000 0.00897421 0.01008388
v -0.01900000 0.00771000 0.01108145
v -0.01900000 0.00897421 0.01008388
v -0.02300000 0.00835728 0.01060167
v -0.01900000 0.00835728 0.01060167
f 1 2 5
f 1 5 3
f 1 3 7
f 1 7 11
f 1 11 15
f 1 15 19
f 1 19 23
f 1 23 27
f 1 27 31
f 1 31 28
f 1 28 24
f 1 24 20
f 1 20 16
f 1 16 12
f 1 12 8
f 1 8 4
f 1 4 6
f 1 6 2
f 2 6 10
f 2 10 14
f 2 14 18
f 2 18 22
f 2 22 26
f 2 26 30
f 2 30 32
f 2 32 29
f 2 29 25
f 2 25 21
f 2 21 17
f 2 17 13
f 2 13 9
f 2 9 5
f 3 5 9
f 3 9 7
f 4 8 10
f 4 10 6
f 7 9 13
f 7 13 11
f 8 12 14
f 8 14 10
f 11 13 17
f 11 17 15
f 12 16 18
f 12 18 14
f 15 17 21
f 15 21 19
f 16 20 22
f 16 22 18
f 19 21 25
f 19 25 23
f 20 24 26
f 20 26 22
f 23 25 29
f 23 29 27
f 24 28 30
f 24 30 26
f 27 29 32
f 27 32 31
f 28 31 32
f 28 32 30

