# https://github.com/mikedh/trimesh
v 0.01825000 0.06602145 0.01316455
v 0.01825000 0.06602145 0.00519988
v 0.01653866 0.06602145 0.01316455
v 0.01825000 0.05522694 0.01316455
v 0.01653866 0.06602145 0.00519988
v 0.01825000 0.06479893 0.00401986
v 0.01425061 0.06600032 0.01316455
v 0.01425061 0.05522694 0.01316455
v 0.01825000 0.05522694 0.00401986
v 0.01425061 0.06600032 0.00520167
v 0.01425061 0.06479893 0.00401986
v 0.01653866 0.05522694 0.00401807
v 0.01425061 0.05522694 0.00401986
f 1 2 5
f 1 5 3
f 1 3 7
f 1 7 8
f 1 8 4
f 1 4 9
f 1 9 6
f 1 6 2
f 2 6 11
f 2 11 5
f 3 5 10
f 3 10 7
f 4 8 13
f 4 13 12
f 4 12 9
f 5 11 10
f 6 9 12
f 6 12 11
f 7 10 11
f 7 11 13
f 7 13 8
f 11 12 13

