# https://github.com/mikedh/trimesh
v -0.01425000 0.05280046 0.02800426
v -0.01596115 0.05280046 0.02800426
v -0.01425000 0.05269342 0.02800426
v -0.01425000 0.05400929 0.02680011
v -0.01596115 0.05269342 0.02800426
v -0.01596115 0.05400929 0.02680011
v -0.01425000 0.05269342 0.02018457
v -0.01425000 0.05400929 0.02018457
v -0.01596115 0.05269342 0.02018457
v -0.01596115 0.05400929 0.02018457
f 1 2 5
f 1 5 3
f 1 3 7
f 1 7 8
f 1 8 4
f 1 4 6
f 1 6 2
f 2 6 10
f 2 10 9
f 2 9 5
f 3 5 9
f 3 9 7
f 4 8 10
f 4 10 6
f 7 9 10
f 7 10 8

