# https://github.com/mikedh/trimesh
v 0.01900000 -0.00423414 -0.00750021
v 0.02300000 -0.00423414 -0.00750021
v 0.01900000 -0.00423414 -0.00350792
v 0.01900000 -0.00109083 -0.00750021
v 0.02300000 -0.00423414 -0.00350792
v 0.02300000 -0.00109083 -0.00750021
v 0.01900000 -0.00000427 -0.00549781
v 0.01900000 -0.00000427 -0.00679992
v 0.02300000 -0.00000427 -0.00549781
v 0.02300000 -0.00000427 -0.00679992
f 1 2 5
f 1 5 3
f 1 3 7
f 1 7 8
f 1 8 4
f 1 4 6
f 1 6 2
f 2 6 10
f 2 10 9
f 2 9 5
f 3 5 9
f 3 9 7
f 4 8 10
f 4 10 6
f 7 9 10
f 7 10 8

