# https://github.com/mikedh/trimesh
v -0.01425039 0.07000000 0.00400310
v -0.01596143 0.07000000 0.00400310
v -0.01596143 0.06999961 0.00400634
v -0.01425039 0.06720367 0.00400310
v -0.01425039 0.07000000 -0.00700000
v -0.01825000 0.06999961 0.00400634
v -0.01596143 0.07000000 -0.00700000
v -0.01596143 0.06720015 0.00400634
v -0.01456245 0.06720015 0.00400310
v -0.01425039 0.06600787 0.00279969
v -0.01425039 0.06600787 -0.00700000
v -0.01825000 0.06720015 0.00400634
v -0.01825000 0.06999961 -0.00700000
v -0.01596143 0.06600514 0.00279861
v -0.01596143 0.06600514 -0.00700000
v -0.01825000 0.06600514 0.00279861
v -0.01825000 0.06600514 -0.00700000
f 1 2 6
f 1 6 3
f 1 3 8
f 1 8 4
f 1 4 10
f 1 10 11
f 1 11 5
f 1 5 7
f 1 7 2
f 2 7 13
f 2 13 6
f 3 6 12
f 3 12 8
f 4 9 10
f 4 8 9
f 5 11 15
f 5 15 17
f 5 17 13
f 5 13 7
f 6 13 17
f 6 17 16
f 6 16 12
f 8 12 16
f 8 16 14
f 8 14 10
f 8 10 9
f 10 14 15
f 10 15 11
f 14 16 17
f 14 17 15

