# https://github.com/mikedh/trimesh
v 0.01825000 0.07000000 0.01316455
v 0.01653866 0.07000000 0.01316455
v 0.01825000 0.06602179 0.01316455
v 0.01825000 0.07000000 0.00440849
v 0.01653866 0.06602179 0.01316455
v 0.01653866 0.07000000 0.00440849
v 0.01425061 0.06999961 0.01316366
v 0.01653866 0.06600144 0.01316366
v 0.01825000 0.06602179 0.00519960
v 0.01825000 0.06712789 0.00440849
v 0.01653866 0.06999961 0.00399094
v 0.01425061 0.06600144 0.01316366
v 0.01425061 0.06999961 0.00399094
v 0.01653866 0.06600144 0.00520140
v 0.01653866 0.06719952 0.00399094
v 0.01425061 0.06600144 0.00520140
v 0.01425061 0.06719952 0.00399094
f 1 2 5
f 1 5 3
f 1 3 9
f 1 9 10
f 1 10 4
f 1 4 6
f 1 6 2
f 2 6 13
f 2 13 7
f 2 7 12
f 2 12 5
f 3 5 12
f 3 12 8
f 3 8 14
f 3 14 9
f 4 10 15
f 4 15 11
f 4 11 13
f 4 13 6
f 7 13 17
f 7 17 16
f 7 16 12
f 8 12 16
f 8 16 14
f 9 15 10
f 9 14 15
f 11 15 17
f 11 17 13
f 14 16 17
f 14 17 15

