# https://github.com/mikedh/trimesh
v -0.01425000 0.05279771 0.00400810
v -0.01425000 0.05401666 0.00280018
v -0.01596115 0.05279771 0.00400810
v -0.01425000 0.03953662 0.00400810
v -0.01596115 0.05401666 0.00280018
v -0.01425000 0.05401666 -0.00700000
v -0.01596115 0.03953662 0.00400810
v -0.01425000 0.03953662 -0.00700000
v -0.01596115 0.05401666 -0.00700000
v -0.01596115 0.03953662 -0.00700000
f 1 2 5
f 1 5 3
f 1 3 7
f 1 7 4
f 1 4 8
f 1 8 6
f 1 6 2
f 2 6 9
f 2 9 5
f 3 5 9
f 3 9 10
f 3 10 7
f 4 7 10
f 4 10 8
f 6 8 10
f 6 10 9

