# https://github.com/mikedh/trimesh
v -0.01900000 0.00397652 -0.00861870
v -0.02300000 0.00397652 -0.00861870
v -0.01900000 0.00102796 -0.00861870
v -0.01900000 0.00397652 -0.01289725
v -0.02300000 0.00102796 -0.00861870
v -0.02300000 0.00397652 -0.01289725
v -0.01900000 -0.00000386 -0.00919962
v -0.01900000 0.00333592 -0.01308117
v -0.02300000 -0.00000386 -0.00919962
v -0.02300000 0.00333592 -0.01308117
v -0.01900000 -0.00000386 -0.01349584
v -0.01900000 0.00254997 -0.01325650
v -0.02300000 -0.00000386 -0.01349584
v -0.02300000 0.00254997 -0.01325650
v -0.01900000 0.00014811 -0.01349919
v -0.01900000 0.00175468 -0.01338501
v -0.02300000 0.00014811 -0.01349919
v -0.02300000 0.00175468 -0.01338501
v -0.01900000 0.00095315 -0.01346623
v -0.02300000 0.00095315 -0.01346623
f 1 2 5
f 1 5 3
f 1 3 7
f 1 7 11
f 1 11 15
f 1 15 19
f 1 19 16
f 1 16 12
f 1 12 8
f 1 8 4
f 1 4 6
f 1 6 2
f 2 6 10
f 2 10 14
f 2 14 18
f 2 18 20
f 2 20 17
f 2 17 13
f 2 13 9
f 2 9 5
f 3 5 9
f 3 9 7
f 4 8 10
f 4 10 6
f 7 9 13
f 7 13 11
f 8 12 14
f 8 14 10
f 11 13 17
f 11 17 15
f 12 16 18
f 12 18 14
f 15 17 20
f 15 20 19
f 16 19 20
f 16 20 18

