# https://github.com/mikedh/trimesh
v 0.02300000 0.00014811 0.01349919
v 0.01900000 0.00014811 0.01349919
v 0.02300000 -0.00000348 0.01349590
v 0.02300000 0.00095312 0.01346629
v 0.01900000 0.00095312 0.01346629
v 0.01900000 -0.00000348 0.01349590
v 0.02300000 -0.00000348 0.00919993
v 0.02300000 0.00175469 0.01338546
v 0.01900000 0.00175469 0.01338546
v 0.01900000 -0.00000348 0.00919993
v 0.02300000 0.00097609 0.00869848
v 0.02300000 0.00254975 0.01325669
v 0.01900000 0.00254975 0.01325669
v 0.01900000 0.00097609 0.00869848
v 0.02300000 0.00390675 0.00869848
v 0.02300000 0.00333600 0.01308092
v 0.01900000 0.00333600 0.01308092
v 0.01900000 0.00390675 0.00869848
v 0.02300000 0.00390675 0.01291737
v 0.01900000 0.00390675 0.01291737
f 1 2 6
f 1 6 3
f 1 3 7
f 1 7 11
f 1 11 15
f 1 15 19
f 1 19 16
f 1 16 12
f 1 12 8
f 1 8 4
f 1 4 5
f 1 5 2
f 2 5 9
f 2 9 13
f 2 13 17
f 2 17 20
f 2 20 18
f 2 18 14
f 2 14 10
f 2 10 6
f 3 6 10
f 3 10 7
f 4 8 9
f 4 9 5
f 7 10 14
f 7 14 11
f 8 12 13
f 8 13 9
f 11 14 18
f 11 18 15
f 12 16 17
f 12 17 13
f 15 18 20
f 15 20 19
f 16 19 20
f 16 20 17

