# https://github.com/mikedh/trimesh
v -0.01824961 0.05399921 0.02920095
v -0.01824961 0.05399921 0.03199961
v -0.01824961 0.05520066 0.02800465
v -0.01596166 0.05399921 0.02920095
v -0.01596166 0.05399921 0.03199961
v -0.01824961 0.05857634 0.03200000
v -0.01824961 0.05857634 0.02800348
v -0.01425039 0.05520066 0.02800465
v -0.01425039 0.05400284 0.02920095
v -0.01425039 0.05400284 0.03199961
v -0.01596166 0.05857634 0.03200000
v -0.01824961 0.06635853 0.03200000
v -0.01824961 0.06479895 0.02800348
v -0.01596166 0.05857634 0.02800348
v -0.01425039 0.06479895 0.02800465
v -0.01425039 0.06501431 0.03200000
v -0.01425039 0.06635853 0.03200000
v -0.01824961 0.06635853 0.02914540
v -0.01596166 0.06479895 0.02800348
v -0.01425039 0.06635853 0.02914540
f 1 2 6
f 1 6 12
f 1 12 18
f 1 18 13
f 1 13 7
f 1 7 3
f 1 3 8
f 1 8 4
f 1 4 5
f 1 5 2
f 2 5 11
f 2 11 6
f 3 7 14
f 3 14 8
f 4 9 10
f 4 10 5
f 4 8 9
f 5 10 11
f 6 11 16
f 6 16 17
f 6 17 12
f 7 13 19
f 7 19 14
f 8 14 19
f 8 19 15
f 8 15 20
f 8 20 17
f 8 17 16
f 8 16 10
f 8 10 9
f 10 16 11
f 12 17 20
f 12 20 18
f 13 18 20
f 13 20 19
f 15 19 20

