# https://github.com/mikedh/trimesh
v -0.01596160 0.05290429 0.02751196
v -0.01825000 0.05290429 0.02751196
v -0.01596160 0.05278382 0.02751196
v -0.01596160 0.05368075 0.02684244
v -0.01596183 0.05399864 0.02679642
v -0.01825000 0.05278644 0.02751196
v -0.01825000 0.05399864 0.02679642
v -0.01822356 0.05278382 0.02751196
v -0.01596160 0.05278382 0.02684244
v -0.01596183 0.05280059 0.00400741
v -0.01596183 0.05399864 0.00520381
v -0.01825000 0.05278382 0.02750966
v -0.01825000 0.05399864 0.00520381
v -0.01825000 0.05278382 0.02684244
v -0.01596183 0.05278394 0.00400741
v -0.01629764 0.05280059 0.00400741
v -0.01825000 0.05279833 0.00400741
v -0.01825000 0.05278394 0.00407643
v -0.01790859 0.05278394 0.00400741
v -0.01825000 0.05278442 0.00400741
f 1 2 6
f 1 6 8
f 1 8 3
f 1 3 9
f 1 9 4
f 1 4 5
f 1 5 7
f 1 7 2
f 2 7 13
f 2 13 17
f 2 17 20
f 2 20 18
f 2 18 14
f 2 14 12
f 2 12 6
f 3 8 12
f 3 12 14
f 3 14 9
f 4 9 15
f 4 15 10
f 4 10 11
f 4 11 5
f 5 11 13
f 5 13 7
f 6 12 8
f 9 14 19
f 9 19 15
f 10 15 19
f 10 19 20
f 10 20 17
f 10 17 16
f 10 16 13
f 10 13 11
f 13 16 17
f 14 18 19
f 18 20 19

