# https://github.com/mikedh/trimesh
v -0.01900000 0.00397535 -0.00380103
v -0.01900000 0.00397652 -0.00380244
v -0.02297181 0.00397652 -0.00379914
v -0.01900000 -0.00000386 -0.00549797
v -0.01900000 0.00397652 -0.00861870
v -0.02300000 0.00397652 -0.00380244
v -0.02300000 0.00397535 -0.00380103
v -0.02300000 -0.00000386 -0.00549797
v -0.01900000 -0.00000386 -0.00680004
v -0.01900000 0.00102796 -0.00861870
v -0.02300000 0.00397652 -0.00861870
v -0.02300000 -0.00000386 -0.00680004
v -0.02300000 0.00102796 -0.00861870
f 1 2 3
f 1 3 4
f 1 4 9
f 1 9 10
f 1 10 5
f 1 5 2
f 2 5 11
f 2 11 6
f 2 6 3
f 3 6 7
f 3 7 8
f 3 8 4
f 4 8 12
f 4 12 9
f 5 10 13
f 5 13 11
f 6 11 13
f 6 13 12
f 6 12 8
f 6 8 7
f 9 12 13
f 9 13 10

