# https://github.com/mikedh/trimesh
v -0.01425039 0.05400106 0.03199917
v -0.01425039 0.05269342 0.03199917
v -0.01425039 0.05400106 0.02920054
v -0.01596143 0.05400106 0.03199917
v -0.01596143 0.05269342 0.03199917
v -0.01425039 0.05269342 0.02800439
v -0.01596143 0.05400106 0.02920054
v -0.01425039 0.05280043 0.02800439
v -0.01596143 0.05290424 0.02751240
v -0.01825000 0.05399863 0.03199917
v -0.01825000 0.05278392 0.03199917
v -0.01596143 0.05269342 0.02800439
v -0.01596143 0.05278392 0.02751240
v -0.01825000 0.05290424 0.02751240
v -0.01825000 0.05399863 0.02920054
v -0.01825000 0.05278392 0.02756687
v -0.01822377 0.05278392 0.02751240
v -0.01825000 0.05278648 0.02751240
f 1 2 6
f 1 6 8
f 1 8 3
f 1 3 7
f 1 7 4
f 1 4 10
f 1 10 11
f 1 11 5
f 1 5 2
f 2 5 12
f 2 12 6
f 3 8 9
f 3 9 14
f 3 14 7
f 4 7 15
f 4 15 10
f 5 11 16
f 5 16 12
f 6 12 17
f 6 17 13
f 6 13 9
f 6 9 8
f 7 14 15
f 9 13 17
f 9 17 18
f 9 18 14
f 10 15 14
f 10 14 18
f 10 18 16
f 10 16 11
f 12 16 17
f 16 18 17

