# https://github.com/mikedh/trimesh
v 0.02300000 0.00680010 0.00000000
v 0.01900000 0.00680010 0.00000000
v 0.02300000 0.00549839 0.00000000
v 0.02300000 0.00793264 -0.00119829
v 0.01900000 0.00549839 0.00000000
v 0.01900000 0.00793264 -0.00119829
v 0.02300000 0.00396894 -0.00380827
v 0.02300000 0.00793264 -0.01091595
v 0.01900000 0.00396894 -0.00380827
v 0.01900000 0.00793264 -0.01091595
v 0.02300000 0.00396894 -0.01289963
v 0.02300000 0.00770993 -0.01108136
v 0.01900000 0.00396894 -0.01289963
v 0.01900000 0.00770993 -0.01108136
v 0.02300000 0.00411094 -0.01285796
v 0.02300000 0.00703483 -0.01152077
v 0.01900000 0.00411094 -0.01285796
v 0.01900000 0.00703483 -0.01152077
v 0.02300000 0.00487062 -0.01259027
v 0.02300000 0.00633529 -0.01192105
v 0.01900000 0.00487062 -0.01259027
v 0.01900000 0.00633529 -0.01192105
v 0.02300000 0.00561324 -0.01227712
v 0.01900000 0.00561324 -0.01227712
f 1 2 5
f 1 5 3
f 1 3 7
f 1 7 11
f 1 11 15
f 1 15 19
f 1 19 23
f 1 23 20
f 1 20 16
f 1 16 12
f 1 12 8
f 1 8 4
f 1 4 6
f 1 6 2
f 2 6 10
f 2 10 14
f 2 14 18
f 2 18 22
f 2 22 24
f 2 24 21
f 2 21 17
f 2 17 13
f 2 13 9
f 2 9 5
f 3 5 9
f 3 9 7
f 4 8 10
f 4 10 6
f 7 9 13
f 7 13 11
f 8 12 14
f 8 14 10
f 11 13 17
f 11 17 15
f 12 16 18
f 12 18 14
f 15 17 21
f 15 21 19
f 16 20 22
f 16 22 18
f 19 21 24
f 19 24 23
f 20 23 24
f 20 24 22

