# https://github.com/mikedh/trimesh
v 0.01900000 -0.01332927 0.00212139
v 0.02300000 -0.01332927 0.00212139
v 0.01900000 -0.01320583 0.00280038
v 0.01900000 -0.00507245 0.00212139
v 0.02300000 -0.00507245 0.00212139
v 0.02300000 -0.01320583 0.00280038
v 0.01900000 -0.01301577 0.00358341
v 0.01900000 -0.00332077 0.00438361
v 0.02300000 -0.00332077 0.00438361
v 0.02300000 -0.01301577 0.00358341
v 0.01900000 -0.01277869 0.00435357
v 0.01900000 -0.00332077 0.01307956
v 0.02300000 -0.00332077 0.01307956
v 0.02300000 -0.01277869 0.00435357
v 0.01900000 -0.01249654 0.00510764
v 0.01900000 -0.00382825 0.01294548
v 0.02300000 -0.00382825 0.01294548
v 0.02300000 -0.01249654 0.00510764
v 0.01900000 -0.01216932 0.00584455
v 0.01900000 -0.00459339 0.01269448
v 0.02300000 -0.00459339 0.01269448
v 0.02300000 -0.01216932 0.00584455
v 0.01900000 -0.01179900 0.00656001
v 0.01900000 -0.00534285 0.01239736
v 0.02300000 -0.00534285 0.01239736
v 0.02300000 -0.01179900 0.00656001
v 0.01900000 -0.01138655 0.00725187
v 0.01900000 -0.00607272 0.01205626
v 0.02300000 -0.00607272 0.01205626
v 0.02300000 -0.01138655 0.00725187
v 0.01900000 -0.01093394 0.00791691
v 0.01900000 -0.00678103 0.01167332
v 0.02300000 -0.00678103 0.01167332
v 0.02300000 -0.01093394 0.00791691
v 0.01900000 -0.01044213 0.00855513
v 0.01900000 -0.00746583 0.01124748
v 0.02300000 -0.00746583 0.01124748
v 0.02300000 -0.01044213 0.00855513
v 0.01900000 -0.00991310 0.00916333
v 0.01900000 -0.00812321 0.01078195
v 0.02300000 -0.00812321 0.01078195
v 0.02300000 -0.00991310 0.00916333
v 0.01900000 -0.00934880 0.00973826
v 0.01900000 -0.00875119 0.01027888
v 0.02300000 -0.00875119 0.01027888
v 0.02300000 -0.00934880 0.00973826
f 1 2 6
f 1 6 3
f 1 3 7
f 1 7 11
f 1 11 15
f 1 15 19
f 1 19 23
f 1 23 27
f 1 27 31
f 1 31 35
f 1 35 39
f 1 39 43
f 1 43 44
f 1 44 40
f 1 40 36
f 1 36 32
f 1 32 28
f 1 28 24
f 1 24 20
f 1 20 16
f 1 16 12
f 1 12 8
f 1 8 4
f 1 4 5
f 1 5 2
f 2 5 9
f 2 9 13
f 2 13 17
f 2 17 21
f 2 21 25
f 2 25 29
f 2 29 33
f 2 33 37
f 2 37 41
f 2 41 45
f 2 45 46
f 2 46 42
f 2 42 38
f 2 38 34
f 2 34 30
f 2 30 26
f 2 26 22
f 2 22 18
f 2 18 14
f 2 14 10
f 2 10 6
f 3 6 10
f 3 10 7
f 4 8 9
f 4 9 5
f 7 10 14
f 7 14 11
f 8 12 13
f 8 13 9
f 11 14 18
f 11 18 15
f 12 16 17
f 12 17 13
f 15 18 22
f 15 22 19
f 16 20 21
f 16 21 17
f 19 22 26
f 19 26 23
f 20 24 25
f 20 25 21
f 23 26 30
f 23 30 27
f 24 28 29
f 24 29 25
f 27 30 34
f 27 34 31
f 28 32 33
f 28 33 29
f 31 34 38
f 31 38 35
f 32 36 37
f 32 37 33
f 35 38 42
f 35 42 39
f 36 40 41
f 36 41 37
f 39 42 46
f 39 46 43
f 40 44 45
f 40 45 41
f 43 46 45
f 43 45 44

