# https://github.com/mikedh/trimesh
v 0.02300000 0.03949966 0.03199618
v 0.01824736 0.03953662 0.03199618
v 0.02300000 0.03550044 0.03199618
v 0.02300000 0.03949966 -0.00699618
v 0.01424892 0.03953662 0.03199618
v 0.01824736 0.03953662 -0.00699618
v 0.01825186 0.03550004 0.03199618
v 0.02300000 0.03547619 0.00700382
v 0.02300000 0.03547619 -0.00699618
v 0.00000000 0.03949966 0.03199618
v 0.01424892 0.03953662 -0.00699618
v 0.00000000 0.03550004 0.03199618
v 0.01899932 0.03547619 0.00700382
v 0.01899932 0.03547619 -0.00699618
v 0.00000000 0.03949966 -0.00699618
v 0.00000000 0.03550004 -0.00699618
f 1 2 5
f 1 5 10
f 1 10 12
f 1 12 7
f 1 7 3
f 1 3 8
f 1 8 9
f 1 9 4
f 1 4 6
f 1 6 2
f 2 6 11
f 2 11 5
f 3 7 8
f 4 9 14
f 4 14 16
f 4 16 15
f 4 15 11
f 4 11 6
f 5 11 15
f 5 15 10
f 7 12 13
f 7 13 8
f 8 13 14
f 8 14 9
f 10 15 16
f 10 16 12
f 12 16 14
f 12 14 13

