# https://github.com/mikedh/trimesh
v 0.02300000 -0.00000386 0.01349573
v 0.01900000 -0.00000386 0.01349573
v 0.02300000 -0.00065776 0.01348392
v 0.02300000 -0.00000386 0.00920019
v 0.01900000 -0.00065776 0.01348392
v 0.01900000 -0.00000386 0.00920019
v 0.02300000 -0.00146102 0.01342017
v 0.02300000 -0.00107465 0.00746651
v 0.01900000 -0.00146102 0.01342017
v 0.01900000 -0.00107465 0.00746651
v 0.02300000 -0.00225842 0.01330920
v 0.02300000 -0.00332045 0.00746651
v 0.01900000 -0.00225842 0.01330920
v 0.01900000 -0.00332045 0.00746651
v 0.02300000 -0.00304837 0.01315100
v 0.02300000 -0.00332045 0.01307899
v 0.01900000 -0.00304837 0.01315100
v 0.01900000 -0.00332045 0.01307899
f 1 2 5
f 1 5 3
f 1 3 7
f 1 7 11
f 1 11 15
f 1 15 16
f 1 16 12
f 1 12 8
f 1 8 4
f 1 4 6
f 1 6 2
f 2 6 10
f 2 10 14
f 2 14 18
f 2 18 17
f 2 17 13
f 2 13 9
f 2 9 5
f 3 5 9
f 3 9 7
f 4 8 10
f 4 10 6
f 7 9 13
f 7 13 11
f 8 12 14
f 8 14 10
f 11 13 17
f 11 17 15
f 12 16 18
f 12 18 14
f 15 17 18
f 15 18 16

