# https://github.com/mikedh/trimesh
v -0.01900000 0.00386386 0.00872306
v -0.02300000 0.00386386 0.00872306
v -0.01900000 0.00095711 0.00872306
v -0.01900000 0.00386386 0.00391399
v -0.02300000 0.00095711 0.00872306
v -0.02300000 0.00386386 0.00391399
v -0.01900000 -0.00000348 0.00680037
v -0.01900000 -0.00000348 0.00550006
v -0.02300000 -0.00000348 0.00680037
v -0.02300000 -0.00000348 0.00550006
f 1 2 5
f 1 5 3
f 1 3 7
f 1 7 8
f 1 8 4
f 1 4 6
f 1 6 2
f 2 6 10
f 2 10 9
f 2 9 5
f 3 5 9
f 3 9 7
f 4 8 10
f 4 10 6
f 7 9 10
f 7 10 8

