# https://github.com/mikedh/trimesh
v -0.01900000 0.00680040 0.00002926
v -0.02300000 0.00680040 0.00002926
v -0.01900000 0.00549878 0.00002926
v -0.01900000 0.00747588 -0.00108296
v -0.01919577 0.00747588 -0.00108043
v -0.02300000 0.00549878 0.00002926
v -0.02300000 0.00747588 -0.00108296
v -0.02297181 0.00397691 -0.00379963
v -0.01900000 0.00397691 -0.00380216
v -0.01900000 0.00747588 -0.01123343
v -0.02300000 0.00397691 -0.00380342
v -0.02300000 0.00747588 -0.01123343
v -0.01900000 0.00397691 -0.01289734
v -0.01900000 0.00703504 -0.01152193
v -0.02300000 0.00397691 -0.01289734
v -0.02300000 0.00703504 -0.01152193
v -0.01900000 0.00411084 -0.01285812
v -0.01900000 0.00633525 -0.01192051
v -0.02300000 0.00411084 -0.01285812
v -0.02300000 0.00633525 -0.01192051
v -0.01900000 0.00487057 -0.01258987
v -0.01900000 0.00561319 -0.01227733
v -0.02300000 0.00487057 -0.01258987
v -0.02300000 0.00561319 -0.01227733
f 1 2 6
f 1 6 3
f 1 3 9
f 1 9 13
f 1 13 17
f 1 17 21
f 1 21 22
f 1 22 18
f 1 18 14
f 1 14 10
f 1 10 4
f 1 4 5
f 1 5 2
f 2 5 7
f 2 7 12
f 2 12 16
f 2 16 20
f 2 20 24
f 2 24 23
f 2 23 19
f 2 19 15
f 2 15 11
f 2 11 6
f 3 6 8
f 3 8 9
f 4 10 12
f 4 12 7
f 4 7 5
f 6 11 8
f 8 11 15
f 8 15 13
f 8 13 9
f 10 14 16
f 10 16 12
f 13 15 19
f 13 19 17
f 14 18 20
f 14 20 16
f 17 19 23
f 17 23 21
f 18 22 24
f 18 24 20
f 21 23 24
f 21 24 22

