# https://github.com/mikedh/trimesh
v 0.01825000 0.05279764 0.00402185
v 0.01653866 0.05279764 0.00402185
v 0.01825000 0.03953662 0.00402185
v 0.01825000 0.05400267 0.00279948
v 0.01653866 0.03953662 0.00402185
v 0.01425061 0.05400267 0.00279948
v 0.01425061 0.05280047 0.00398517
v 0.01825000 0.03953662 -0.00699892
v 0.01825000 0.05400267 -0.00698382
v 0.01425061 0.03953662 0.00398517
v 0.01425061 0.05400267 -0.00699892
v 0.01824726 0.05400267 -0.00699892
v 0.01425061 0.03953662 -0.00699892
f 1 2 5
f 1 5 3
f 1 3 8
f 1 8 9
f 1 9 4
f 1 4 6
f 1 6 2
f 2 6 7
f 2 7 10
f 2 10 5
f 3 5 10
f 3 10 13
f 3 13 8
f 4 9 12
f 4 12 11
f 4 11 6
f 6 11 13
f 6 13 10
f 6 10 7
f 8 12 9
f 8 13 11
f 8 11 12

