# https://github.com/mikedh/trimesh
v -0.01596143 0.05278370 0.03200000
v -0.01825000 0.05278370 0.03200000
v -0.01425039 0.05269293 0.03200000
v -0.01596143 0.05278370 0.02018381
v -0.01825000 0.05278370 0.02018381
v -0.01825000 0.03953662 0.03200000
v -0.01425039 0.05269293 0.02018381
v -0.01425039 0.03953662 0.03200000
v -0.01825000 0.03953662 0.02018381
v -0.01425039 0.03953662 0.02018381
f 1 2 6
f 1 6 8
f 1 8 3
f 1 3 7
f 1 7 4
f 1 4 5
f 1 5 2
f 2 5 9
f 2 9 6
f 3 8 10
f 3 10 7
f 4 7 10
f 4 10 9
f 4 9 5
f 6 9 10
f 6 10 8

