# https://github.com/mikedh/trimesh
v -0.01596138 0.05280035 0.00400634
v -0.01629722 0.05280035 0.00400634
v -0.01596138 0.05278382 0.00400634
v -0.01596138 0.05399876 0.00279957
v -0.01825000 0.05279821 0.00400634
v -0.01825000 0.05399876 0.00279957
v -0.01790878 0.05278382 0.00400634
v -0.01596138 0.05278382 -0.00700000
v -0.01596138 0.05399876 -0.00700000
v -0.01825000 0.05278442 0.00400634
v -0.01825000 0.05399876 -0.00700000
v -0.01825000 0.05278382 0.00400418
v -0.01825000 0.05278382 -0.00700000
f 1 2 5
f 1 5 10
f 1 10 7
f 1 7 3
f 1 3 8
f 1 8 9
f 1 9 4
f 1 4 6
f 1 6 2
f 2 6 5
f 3 7 12
f 3 12 13
f 3 13 8
f 4 9 11
f 4 11 6
f 5 6 11
f 5 11 13
f 5 13 12
f 5 12 10
f 7 10 12
f 8 13 11
f 8 11 9

