# https://github.com/mikedh/trimesh
v 0.01425078 0.03953662 0.00398851
v 0.01425078 0.05280047 0.00398851
v 0.01653834 0.03953662 0.00398851
v 0.01425078 0.03953662 0.02682203
v 0.01425039 0.03953804 0.02682439
v 0.01653834 0.05280047 0.00398851
v 0.01425039 0.05374779 0.02682439
v 0.01425078 0.05400267 0.00520308
v 0.01824961 0.03953662 0.00402868
v 0.01653834 0.03953662 0.02682439
v 0.01425039 0.03953804 0.02812876
v 0.01824961 0.05279764 0.00402868
v 0.01824961 0.05400267 0.00520308
v 0.01425039 0.05280614 0.02812876
v 0.01425078 0.05400267 0.02679604
v 0.01824961 0.03953662 0.02682439
v 0.01824961 0.03953804 0.02812876
v 0.01824961 0.05400267 0.02679840
v 0.01653834 0.05400267 0.02679840
v 0.01824961 0.05280614 0.02812876
f 1 2 6
f 1 6 3
f 1 3 9
f 1 9 16
f 1 16 10
f 1 10 4
f 1 4 11
f 1 11 5
f 1 5 7
f 1 7 2
f 2 7 8
f 2 8 13
f 2 13 6
f 3 6 12
f 3 12 9
f 4 10 11
f 5 11 14
f 5 14 7
f 6 13 12
f 7 14 15
f 7 15 8
f 8 15 19
f 8 19 18
f 8 18 13
f 9 12 13
f 9 13 18
f 9 18 20
f 9 20 17
f 9 17 16
f 10 16 17
f 10 17 11
f 11 17 20
f 11 20 14
f 14 19 15
f 14 20 18
f 14 18 19

