# https://github.com/mikedh/trimesh
v 0.01824961 0.05522694 0.02812876
v 0.01824961 0.05519243 0.02812876
v 0.01824961 0.05522694 0.02682439
v 0.01425039 0.05522694 0.02812876
v 0.01425039 0.05519243 0.02812876
v 0.01824961 0.05400279 0.02679840
v 0.01425039 0.05522694 0.02682439
v 0.01824961 0.05522683 0.00409248
v 0.01813490 0.05522683 0.00402868
v 0.01653834 0.05522683 0.00398851
v 0.01425039 0.05425059 0.02682439
v 0.01425078 0.05400279 0.02679604
v 0.01653834 0.05400279 0.02679840
v 0.01824961 0.05400279 0.00520308
v 0.01425078 0.05522683 0.00398851
v 0.01824961 0.05522467 0.00402868
v 0.01653834 0.05519926 0.00398851
v 0.01425078 0.05519926 0.00398851
v 0.01425078 0.05400279 0.00520308
v 0.01824961 0.05519950 0.00402868
f 1 2 6
f 1 6 14
f 1 14 20
f 1 20 16
f 1 16 8
f 1 8 3
f 1 3 7
f 1 7 4
f 1 4 5
f 1 5 2
f 2 5 13
f 2 13 6
f 3 8 9
f 3 9 10
f 3 10 15
f 3 15 7
f 4 7 11
f 4 11 5
f 5 11 12
f 5 12 13
f 6 13 12
f 6 12 19
f 6 19 14
f 7 15 18
f 7 18 11
f 8 16 9
f 9 16 10
f 10 17 18
f 10 18 15
f 10 16 20
f 10 20 17
f 11 18 19
f 11 19 12
f 14 19 18
f 14 18 17
f 14 17 20

