# https://github.com/mikedh/trimesh
v -0.01596115 0.05400929 0.02018255
v -0.01596115 0.05401689 0.00520111
v -0.01425000 0.05400929 0.02018255
v -0.01596115 0.05400929 0.02680002
v -0.01596115 0.05520020 0.00402269
v -0.01425000 0.05401689 0.00520111
v -0.01425000 0.05400929 0.02680002
v -0.01596115 0.05519975 0.02800426
v -0.01425000 0.05520020 0.00402269
v -0.01596115 0.05857623 0.00402269
v -0.01425000 0.05519975 0.02800426
v -0.01596115 0.05857578 0.02800426
v -0.01425000 0.05857623 0.00402269
v -0.01596115 0.05857623 0.02018255
v -0.01425000 0.05857578 0.02800426
v -0.01425000 0.05857623 0.02018255
f 1 2 6
f 1 6 3
f 1 3 7
f 1 7 4
f 1 4 8
f 1 8 12
f 1 12 14
f 1 14 10
f 1 10 5
f 1 5 2
f 2 5 9
f 2 9 6
f 3 6 9
f 3 9 13
f 3 13 16
f 3 16 15
f 3 15 11
f 3 11 7
f 4 7 11
f 4 11 8
f 5 10 13
f 5 13 9
f 8 11 15
f 8 15 12
f 10 14 16
f 10 16 13
f 12 15 16
f 12 16 14

