# https://github.com/mikedh/trimesh
v -0.01900000 0.03547619 0.00700000
v -0.02300000 0.03547619 0.00700000
v -0.01900000 0.01161646 0.00700000
v -0.01900000 0.03547619 0.00698493
v -0.02300000 0.03547619 -0.00700000
v -0.02300000 0.01161646 0.00699863
v -0.02298747 0.01161646 0.00700000
v -0.01900000 0.01161646 -0.00695615
v -0.01900431 0.03547619 -0.00700000
v -0.02300000 0.01161646 -0.00700000
v -0.01900039 0.01161646 -0.00700000
f 1 2 7
f 1 7 3
f 1 3 8
f 1 8 4
f 1 4 9
f 1 9 5
f 1 5 2
f 2 5 10
f 2 10 6
f 2 6 7
f 3 7 6
f 3 6 10
f 3 10 11
f 3 11 8
f 4 8 9
f 5 9 11
f 5 11 10
f 8 11 9

