# https://github.com/mikedh/trimesh
v 0.02300000 0.00792266 0.01092420
v 0.02300000 0.00835763 0.01060127
v 0.01900000 0.00792266 0.01092420
v 0.02300000 0.00792266 0.00120085
v 0.01900000 0.00835763 0.01060127
v 0.02300000 0.00897519 0.01008372
v 0.01900000 0.00792266 0.00120085
v 0.01931206 0.00792266 0.00119764
v 0.02300000 0.00919973 -0.00000000
v 0.01900000 0.00897519 0.01008372
v 0.02300000 0.00956057 0.00953088
v 0.01900000 0.00919973 -0.00000000
v 0.02300000 0.01161646 -0.00000000
v 0.01900000 0.00956057 0.00953088
v 0.02300000 0.01011197 0.00894382
v 0.01900000 0.01161646 -0.00000000
v 0.02300000 0.01161646 0.00699979
v 0.01900000 0.01011197 0.00894382
v 0.02300000 0.01062756 0.00832468
v 0.01900000 0.01161646 0.00699979
v 0.01900000 0.01062756 0.00832468
f 1 2 5
f 1 5 3
f 1 3 7
f 1 7 8
f 1 8 4
f 1 4 9
f 1 9 13
f 1 13 17
f 1 17 19
f 1 19 15
f 1 15 11
f 1 11 6
f 1 6 2
f 2 6 10
f 2 10 5
f 3 5 10
f 3 10 14
f 3 14 18
f 3 18 21
f 3 21 20
f 3 20 16
f 3 16 12
f 3 12 7
f 4 8 9
f 6 11 14
f 6 14 10
f 7 12 8
f 8 12 9
f 9 12 16
f 9 16 13
f 11 15 18
f 11 18 14
f 13 16 20
f 13 20 17
f 15 19 21
f 15 21 18
f 17 20 21
f 17 21 19

