# https://github.com/mikedh/trimesh
v -0.02300000 -0.01349347 -0.00040310
v -0.01900000 -0.01349347 -0.00040310
v -0.02300000 -0.01349347 -0.00012042
v -0.02300000 -0.01344553 -0.00120766
v -0.01900000 -0.01349347 -0.00012042
v -0.01900000 -0.01344553 -0.00120766
v -0.02300000 -0.00919384 -0.00012042
v -0.02300000 -0.01334965 -0.00200807
v -0.01900000 -0.00919384 -0.00012042
v -0.01900000 -0.01334965 -0.00200807
v -0.02300000 -0.00822783 -0.00117867
v -0.02300000 -0.01320635 -0.00280020
v -0.01900000 -0.00822783 -0.00117867
v -0.01900000 -0.01320635 -0.00280020
v -0.02300000 -0.00822783 -0.01069872
v -0.02300000 -0.01301562 -0.00358301
v -0.01900000 -0.00822783 -0.01069872
v -0.01900000 -0.01301562 -0.00358301
v -0.02300000 -0.00875207 -0.01027832
v -0.02300000 -0.01277902 -0.00435340
v -0.01900000 -0.00875207 -0.01027832
v -0.01900000 -0.01277902 -0.00435340
v -0.02300000 -0.00934952 -0.00973781
v -0.02300000 -0.01249653 -0.00510825
v -0.01900000 -0.00934952 -0.00973781
v -0.01900000 -0.01249653 -0.00510825
v -0.02300000 -0.00991397 -0.00916313
v -0.02300000 -0.01216920 -0.00584343
v -0.01900000 -0.00991397 -0.00916313
v -0.01900000 -0.01216920 -0.00584343
v -0.02300000 -0.01044285 -0.00855531
v -0.02300000 -0.01179909 -0.00655894
v -0.01900000 -0.01044285 -0.00855531
v -0.01900000 -0.01179909 -0.00655894
v -0.02300000 -0.01093411 -0.00791746
v -0.02300000 -0.01138670 -0.00725062
v -0.01900000 -0.01093411 -0.00791746
v -0.01900000 -0.01138670 -0.00725062
f 1 2 5
f 1 5 3
f 1 3 7
f 1 7 11
f 1 11 15
f 1 15 19
f 1 19 23
f 1 23 27
f 1 27 31
f 1 31 35
f 1 35 36
f 1 36 32
f 1 32 28
f 1 28 24
f 1 24 20
f 1 20 16
f 1 16 12
f 1 12 8
f 1 8 4
f 1 4 6
f 1 6 2
f 2 6 10
f 2 10 14
f 2 14 18
f 2 18 22
f 2 22 26
f 2 26 30
f 2 30 34
f 2 34 38
f 2 38 37
f 2 37 33
f 2 33 29
f 2 29 25
f 2 25 21
f 2 21 17
f 2 17 13
f 2 13 9
f 2 9 5
f 3 5 9
f 3 9 7
f 4 8 10
f 4 10 6
f 7 9 13
f 7 13 11
f 8 12 14
f 8 14 10
f 11 13 17
f 11 17 15
f 12 16 18
f 12 18 14
f 15 17 21
f 15 21 19
f 16 20 22
f 16 22 18
f 19 21 25
f 19 25 23
f 20 24 26
f 20 26 22
f 23 25 29
f 23 29 27
f 24 28 30
f 24 30 26
f 27 29 33
f 27 33 31
f 28 32 34
f 28 34 30
f 31 33 37
f 31 37 35
f 32 36 38
f 32 38 34
f 35 37 38
f 35 38 36

