# https://github.com/mikedh/trimesh
v 0.01825000 0.07000000 0.00440841
v 0.01653866 0.07000000 0.00440841
v 0.01825000 0.06712789 0.00440841
v 0.01825000 0.07000000 -0.00700000
v 0.01653866 0.06712789 0.00440841
v 0.01653866 0.07000000 -0.00700000
v 0.01425061 0.06999961 0.00398852
v 0.01653866 0.06600144 0.00279921
v 0.01825000 0.06602179 0.00280033
v 0.01825000 0.06602179 -0.00455662
v 0.01824922 0.06602179 -0.00700000
v 0.01425061 0.06719952 0.00398852
v 0.01425061 0.06600144 0.00279921
v 0.01425061 0.06999961 -0.00700000
v 0.01653866 0.06600144 -0.00700000
v 0.01425061 0.06600144 -0.00700000
f 1 2 5
f 1 5 3
f 1 3 9
f 1 9 10
f 1 10 4
f 1 4 6
f 1 6 2
f 2 6 14
f 2 14 7
f 2 7 12
f 2 12 5
f 3 5 13
f 3 13 8
f 3 8 9
f 4 10 11
f 4 11 15
f 4 15 16
f 4 16 14
f 4 14 6
f 5 12 13
f 7 14 16
f 7 16 13
f 7 13 12
f 8 13 16
f 8 16 15
f 8 15 10
f 8 10 9
f 10 15 11

