# https://github.com/mikedh/trimesh
v -0.01596115 0.05857696 0.02018457
v -0.01596115 0.06603724 0.02018457
v -0.01425000 0.05857696 0.02018457
v -0.01596115 0.05857696 0.02800426
v -0.01425000 0.06603724 0.02018457
v -0.01596115 0.06603724 0.02680011
v -0.01425000 0.05857696 0.02800426
v -0.01596115 0.06480007 0.02800426
v -0.01425000 0.06603724 0.02680011
v -0.01425000 0.06480007 0.02800426
f 1 2 5
f 1 5 3
f 1 3 7
f 1 7 4
f 1 4 8
f 1 8 6
f 1 6 2
f 2 6 9
f 2 9 5
f 3 5 9
f 3 9 10
f 3 10 7
f 4 7 10
f 4 10 8
f 6 8 10
f 6 10 9

