# https://github.com/mikedh/trimesh
v 0.01425039 0.03953662 0.02812876
v 0.01825000 0.03953662 0.02812876
v 0.01425039 0.03953662 0.03200000
v 0.01425039 0.05280614 0.02812876
v 0.01825000 0.03953662 0.03200000
v 0.01825000 0.05280614 0.02812876
v 0.01425039 0.05400267 0.03200000
v 0.01425039 0.05400267 0.02920078
v 0.01810082 0.05400267 0.02920002
v 0.01825000 0.05400267 0.03200000
v 0.01825000 0.05400267 0.02920078
f 1 2 5
f 1 5 3
f 1 3 7
f 1 7 8
f 1 8 4
f 1 4 6
f 1 6 2
f 2 6 11
f 2 11 10
f 2 10 5
f 3 5 10
f 3 10 7
f 4 8 9
f 4 9 6
f 6 9 11
f 7 10 11
f 7 11 9
f 7 9 8

