# https://github.com/mikedh/trimesh
v -0.01900000 -0.00507193 0.00212139
v -0.01900000 -0.00786894 0.00212139
v -0.01900000 -0.00549661 -0.00012020
v -0.02300000 -0.00507193 0.00212139
v -0.01900000 -0.00786894 0.00119250
v -0.02300000 -0.00786894 0.00212139
v -0.01900000 -0.00680599 -0.00012020
v -0.02300000 -0.00549661 -0.00012020
v -0.02300000 -0.00786894 0.00119250
v -0.02300000 -0.00680599 -0.00012020
f 1 2 5
f 1 5 7
f 1 7 3
f 1 3 8
f 1 8 4
f 1 4 6
f 1 6 2
f 2 6 9
f 2 9 5
f 3 7 10
f 3 10 8
f 4 8 10
f 4 10 9
f 4 9 6
f 5 9 10
f 5 10 7

