# https://github.com/mikedh/trimesh
v -0.02300000 0.00747663 -0.01123428
v -0.02300000 0.00771006 -0.01108103
v -0.01900000 0.00747663 -0.01123428
v -0.02300000 0.00747663 -0.00108320
v -0.01900000 0.00771006 -0.01108103
v -0.02300000 0.00835768 -0.01060143
v -0.01900000 0.00747663 -0.00108320
v -0.01919577 0.00747663 -0.00107989
v -0.02300000 0.00919943 0.00002926
v -0.01900000 0.00835768 -0.01060143
v -0.02300000 0.00897491 -0.01008433
v -0.01900000 0.00919943 0.00002926
v -0.02300000 0.01161646 0.00002926
v -0.01900000 0.00897491 -0.01008433
v -0.02300000 0.00956012 -0.00953086
v -0.01900000 0.01161646 0.00002926
v -0.02300000 0.01161646 -0.00699943
v -0.01900000 0.00956012 -0.00953086
v -0.02300000 0.01011169 -0.00894321
v -0.01900000 0.01161646 -0.00695643
v -0.01900039 0.01161646 -0.00699943
v -0.02300000 0.01062719 -0.00832468
v -0.01900000 0.01011169 -0.00894321
v -0.01900000 0.01110501 -0.00767529
v -0.01900000 0.01062719 -0.00832468
f 1 2 5
f 1 5 3
f 1 3 7
f 1 7 8
f 1 8 4
f 1 4 9
f 1 9 13
f 1 13 17
f 1 17 22
f 1 22 19
f 1 19 15
f 1 15 11
f 1 11 6
f 1 6 2
f 2 6 10
f 2 10 5
f 3 5 10
f 3 10 14
f 3 14 18
f 3 18 23
f 3 23 25
f 3 25 24
f 3 24 20
f 3 20 16
f 3 16 12
f 3 12 7
f 4 8 9
f 6 11 14
f 6 14 10
f 7 12 8
f 8 12 9
f 9 12 16
f 9 16 13
f 11 15 18
f 11 18 14
f 13 16 20
f 13 20 21
f 13 21 17
f 15 19 23
f 15 23 18
f 17 21 25
f 17 25 22
f 19 22 25
f 19 25 23
f 20 24 21
f 21 24 25

