# https://github.com/mikedh/trimesh
v -0.01825000 0.06720008 0.02800348
v -0.01825000 0.06999964 0.02800348
v -0.01596143 0.06720008 0.02800348
v -0.01825000 0.06636036 0.02914461
v -0.01825000 0.06999964 0.03200000
v -0.01596143 0.06999964 0.02800348
v -0.01425039 0.06720008 0.02800465
v -0.01425039 0.06636036 0.02914500
v -0.01596143 0.06636036 0.02914461
v -0.01825000 0.06636036 0.03200000
v -0.01596143 0.06999964 0.03200000
v -0.01425039 0.06999964 0.02800465
v -0.01425039 0.06636036 0.03199961
v -0.01596143 0.06636036 0.03200000
v -0.01425039 0.06999964 0.03199961
f 1 2 6
f 1 6 3
f 1 3 9
f 1 9 4
f 1 4 10
f 1 10 5
f 1 5 2
f 2 5 11
f 2 11 15
f 2 15 12
f 2 12 6
f 3 6 12
f 3 12 7
f 3 7 8
f 3 8 9
f 4 9 8
f 4 8 13
f 4 13 14
f 4 14 10
f 5 10 14
f 5 14 11
f 7 12 15
f 7 15 13
f 7 13 8
f 11 14 13
f 11 13 15

