# https://github.com/mikedh/trimesh
v -0.01825000 0.05857623 0.00400741
v -0.01825000 0.06479939 0.00400741
v -0.01425039 0.05857623 0.00400741
v -0.01825000 0.05857623 0.02018381
v -0.01825000 0.06600401 0.00520132
v -0.01596143 0.06600765 0.00520132
v -0.01596143 0.06480012 0.00400741
v -0.01425039 0.06480012 0.00400741
v -0.01425039 0.05857623 0.02018381
v -0.01825000 0.06600401 0.02018381
v -0.01596143 0.06600765 0.02018381
v -0.01425039 0.06600765 0.00520132
v -0.01425039 0.06600765 0.02018381
f 1 2 7
f 1 7 8
f 1 8 3
f 1 3 9
f 1 9 4
f 1 4 10
f 1 10 5
f 1 5 2
f 2 5 6
f 2 6 7
f 3 8 12
f 3 12 13
f 3 13 9
f 4 9 13
f 4 13 11
f 4 11 10
f 5 10 11
f 5 11 6
f 6 11 13
f 6 13 12
f 6 12 8
f 6 8 7

