# https://github.com/mikedh/trimesh
v -0.01425039 0.05857670 0.00402053
v -0.01425039 0.06479933 0.00400543
v -0.01596166 0.05857670 0.00402053
v -0.01425039 0.05520092 0.00402053
v -0.01425039 0.06600765 0.00279831
v -0.01824961 0.06479933 0.00400543
v -0.01596166 0.05520092 0.00402053
v -0.01596166 0.05399965 0.00279939
v -0.01425039 0.05401729 0.00279831
v -0.01596166 0.06600765 0.00279831
v -0.01425039 0.06600765 -0.00700000
v -0.01824961 0.05857670 0.00400543
v -0.01824961 0.06600295 0.00279831
v -0.01824961 0.05520092 0.00399141
v -0.01824961 0.05399965 0.00279939
v -0.01596166 0.05399965 -0.00699784
v -0.01425039 0.05401729 -0.00699892
v -0.01596166 0.06600765 -0.00700000
v -0.01425039 0.05857670 -0.00700000
v -0.01824961 0.06600295 -0.00700000
v -0.01824961 0.05399965 -0.00699784
v -0.01596166 0.05401729 -0.00699892
v -0.01824961 0.05857670 -0.00700000
f 1 2 6
f 1 6 3
f 1 3 7
f 1 7 4
f 1 4 9
f 1 9 17
f 1 17 19
f 1 19 11
f 1 11 5
f 1 5 2
f 2 5 10
f 2 10 6
f 3 6 12
f 3 12 7
f 4 7 15
f 4 15 8
f 4 8 9
f 5 11 18
f 5 18 10
f 6 10 13
f 6 13 20
f 6 20 23
f 6 23 21
f 6 21 15
f 6 15 14
f 6 14 12
f 7 14 15
f 7 12 14
f 8 15 21
f 8 21 16
f 8 16 17
f 8 17 9
f 10 18 20
f 10 20 13
f 11 19 23
f 11 23 20
f 11 20 18
f 16 21 22
f 16 22 17
f 17 22 23
f 17 23 19
f 21 23 22

