v -0.00799358868962 -0.014 0.0418
v -0.00799358868962 -0.014 0.0448
v -0.00799358868962 0.014 0.0418
v -0.00799358868962 0.014 0.0448
v -0.00899358868962 -0.014 0.0418
v -0.00899358868962 -0.014 0.0448
v -0.00899358868962 0.014 0.0418
v -0.00899358868962 0.014 0.0448
v -0.00799358868962 -0.014 0.0418
v -0.00899358868962 -0.014 0.0418
v -0.00799358868962 -0.014 0.0448
v -0.00899358868962 -0.014 0.0448
v -0.00799358868962 0.014 0.0418
v -0.00899358868962 0.014 0.0418
v -0.00799358868962 0.014 0.0448
v -0.00899358868962 0.014 0.0448
v -0.00799358868962 -0.014 0.0418
v -0.00799358868962 0.014 0.0418
v -0.00899358868962 -0.014 0.0418
v -0.00899358868962 0.014 0.0418
v -0.00799358868962 -0.014 0.0448
v -0.00799358868962 0.014 0.0448
v -0.00899358868962 -0.014 0.0448
v -0.00899358868962 0.014 0.0448
f 2 1 3
f 2 3 4
f 6 7 5
f 6 8 7
f 12 10 9
f 12 9 11
f 16 13 14
f 16 15 13
f 20 18 17
f 20 17 19
f 24 21 22
f 24 23 21
