v -0.062 0.0764946507017 0.0988553467602
v -0.062 0.0763636340358 0.0988244102229
v -0.062 0.0762310017392 0.0988013643989
v -0.062 0.0760972286012 0.0987862917861
v -0.062 0.0759627934949 0.0987792463407
v -0.062 0.0758281776631 0.0987802532836
v -0.062 0.0756938629956 0.0987893090101
v -0.062 0.0755603303039 0.098806381103
v -0.062 0.0754280576005 0.0988314084488
v -0.062 0.0752975183873 0.098864301456
v -0.062 0.0751691799608 0.0989049423762
v -0.062 0.0750435017393 0.0989531857254
v -0.062 0.0749209336182 0.099008858805
v -0.062 0.0748019143596 0.0990717623198
v -0.062 0.0746868700215 0.0991416710915
v -0.062 0.0745762124327 0.0992183348649
v -0.062 0.0744703377188 0.0993014792036
v -0.062 0.0743696248837 0.0993908064723
v -0.062 0.0742744344532 0.0994859969028
v -0.062 0.0741851071844 0.0995867097379
v -0.062 0.0741019628458 0.0996925844518
v -0.062 0.0740252990724 0.0998032420406
v -0.062 0.0739553903006 0.0999182863787
v -0.062 0.0738924867859 0.100037305637
v -0.062 0.0738368137063 0.100159873758
v -0.062 0.073788570357 0.10028555198
v -0.062 0.0737479294369 0.100413890406
v -0.062 0.0737150364297 0.10054442962
v -0.062 0.0736900090839 0.100676702323
v -0.062 0.0736729369909 0.100810235015
v -0.062 0.0736638812645 0.100944549682
v -0.062 0.0736628743216 0.101079165514
v -0.062 0.073669919767 0.10121360062
v -0.062 0.0736849923797 0.101347373758
v -0.062 0.0737080382038 0.101480006055
v -0.062 0.0737389747411 0.101611022721
v -0.062 0.0737776912469 0.101739954751
v -0.062 0.0738240491261 0.101866340601
v -0.062 0.0738778824295 0.101989727843
v -0.062 0.073938998448 0.102109674783
v -0.062 0.074007178402 0.102225752042
v -0.062 0.0740821782249 0.102337544092
v -0.062 0.074163729437 0.102444650749
v -0.062 0.0742515401059 0.102546688598
v -0.062 0.0743452958923 0.102643292369
v -0.062 0.0744446611749 0.102734116246
v -0.062 0.0745492802516 0.102818835104
v -0.062 0.0746587786134 0.102897145671
v -0.062 0.0747727642845 0.102968767615
v -0.062 0.0748908292258 0.103033444549
v -0.062 0.0750125507955 0.103090944945
v -0.062 0.075137493262 0.103141062968
v -0.062 0.0752652093635 0.103183619207
v -0.062 0.0753952419097 0.103218461323
v -0.062 0.0755271254178 0.103245464589
v -0.062 0.075660387779 0.103264532342
v -0.062 0.0757945519487 0.103275596323
v -0.062 0.0759291376539 0.103278616926
v -0.062 0.0760636631129 0.103273583338
v -0.062 0.0761976467592 0.103260513579
v -0.062 0.0763306089664 0.103239454434
v -0.062 0.0764620737641 0.10321048129
v -0.062 0.0765915705425 0.103173697863
v -0.062 0.0767186357367 0.103129235829
v -0.062 0.0768428144864 0.103077254349
v -0.062 0.0769636622639 0.103017939505
v -0.062 0.0770807464654 0.102951503627
v -0.062 0.0771936479599 0.102878184539
v -0.062 0.0773019625893 0.102798244705
v -0.062 0.0774053026155 0.102711970287
v -0.062 0.0775032981079 0.102619670127
v -0.062 0.0775955982681 0.102521674635
v -0.062 0.0776818726855 0.102418334608
v -0.062 0.07776181252 0.102310019979
v -0.062 0.0778351316078 0.102197118484
v -0.062 0.0779015674856 0.102080034283
v -0.062 0.0779608823302 0.101959186506
v -0.062 0.0780128638099 0.101835007756
v -0.062 0.0780573258443 0.101707942562
v -0.062 0.0780941092711 0.101578445783
v -0.062 0.078123082415 0.101446980985
v -0.062 0.0781441415598 0.101314018778
v -0.062 0.0781572113191 0.101180035132
v -0.062 0.0781622449066 0.101045509673
v -0.062 0.0781592243034 0.100910923968
v -0.062 0.0781481603225 0.100776759798
v -0.062 0.07812909257 0.100643497437
v -0.062 0.0781020893035 0.100511613929
v -0.062 0.0780672471878 0.100381581383
v -0.062 0.0780246909485 0.100253865281
v -0.062 0.0779745729259 0.100128922815
v -0.062 0.0779170725297 0.100007201245
v -0.062 0.0778523955961 0.0998891363036
v -0.062 0.077780773652 0.0997751506325
v -0.062 0.0777024630852 0.0996656522707
v -0.062 0.0776177442273 0.099561033194
v -0.062 0.0775269203498 0.0994616679114
v -0.062 0.0774303165786 0.099367912125
v -0.062 0.0773282787301 0.0992801014561
v -0.062 0.0772211720734 0.099198550244
v -0.062 0.0771093800224 0.0991235504211
v -0.062 0.0769933027637 0.0990553704671
v -0.062 0.0768733558239 0.0989942544487
v -0.062 0.0767499685816 0.0989404211452
v -0.062 0.0766235827314 0.098894063266
v -0.062 0.0764946507017 0.0988553467602
v -0.047 0.0764946507017 0.0988553467602
v -0.047 0.0763636340358 0.0988244102229
v -0.047 0.0762310017392 0.0988013643989
v -0.047 0.0760972286012 0.0987862917861
v -0.047 0.0759627934949 0.0987792463407
v -0.047 0.0758281776631 0.0987802532836
v -0.047 0.0756938629956 0.0987893090101
v -0.047 0.0755603303039 0.098806381103
v -0.047 0.0754280576005 0.0988314084488
v -0.047 0.0752975183873 0.098864301456
v -0.047 0.0751691799608 0.0989049423762
v -0.047 0.0750435017393 0.0989531857254
v -0.047 0.0749209336182 0.099008858805
v -0.047 0.0748019143596 0.0990717623198
v -0.047 0.0746868700215 0.0991416710915
v -0.047 0.0745762124327 0.0992183348649
v -0.047 0.0744703377188 0.0993014792036
v -0.047 0.0743696248837 0.0993908064723
v -0.047 0.0742744344532 0.0994859969028
v -0.047 0.0741851071844 0.0995867097379
v -0.047 0.0741019628458 0.0996925844518
v -0.047 0.0740252990724 0.0998032420406
v -0.047 0.0739553903006 0.0999182863787
v -0.047 0.0738924867859 0.100037305637
v -0.047 0.0738368137063 0.100159873758
v -0.047 0.073788570357 0.10028555198
v -0.047 0.0737479294369 0.100413890406
v -0.047 0.0737150364297 0.10054442962
v -0.047 0.0736900090839 0.100676702323
v -0.047 0.0736729369909 0.100810235015
v -0.047 0.0736638812645 0.100944549682
v -0.047 0.0736628743216 0.101079165514
v -0.047 0.073669919767 0.10121360062
v -0.047 0.0736849923797 0.101347373758
v -0.047 0.0737080382038 0.101480006055
v -0.047 0.0737389747411 0.101611022721
v -0.047 0.0737776912469 0.101739954751
v -0.047 0.0738240491261 0.101866340601
v -0.047 0.0738778824295 0.101989727843
v -0.047 0.073938998448 0.102109674783
v -0.047 0.074007178402 0.102225752042
v -0.047 0.0740821782249 0.102337544092
v -0.047 0.074163729437 0.102444650749
v -0.047 0.0742515401059 0.102546688598
v -0.047 0.0743452958923 0.102643292369
v -0.047 0.0744446611749 0.102734116246
v -0.047 0.0745492802516 0.102818835104
v -0.047 0.0746587786134 0.102897145671
v -0.047 0.0747727642845 0.102968767615
v -0.047 0.0748908292258 0.103033444549
v -0.047 0.0750125507955 0.103090944945
v -0.047 0.075137493262 0.103141062968
v -0.047 0.0752652093635 0.103183619207
v -0.047 0.0753952419097 0.103218461323
v -0.047 0.0755271254178 0.103245464589
v -0.047 0.075660387779 0.103264532342
v -0.047 0.0757945519487 0.103275596323
v -0.047 0.0759291376539 0.103278616926
v -0.047 0.0760636631129 0.103273583338
v -0.047 0.0761976467592 0.103260513579
v -0.047 0.0763306089664 0.103239454434
v -0.047 0.0764620737641 0.10321048129
v -0.047 0.0765915705425 0.103173697863
v -0.047 0.0767186357367 0.103129235829
v -0.047 0.0768428144864 0.103077254349
v -0.047 0.0769636622639 0.103017939505
v -0.047 0.0770807464654 0.102951503627
v -0.047 0.0771936479599 0.102878184539
v -0.047 0.0773019625893 0.102798244705
v -0.047 0.0774053026155 0.102711970287
v -0.047 0.0775032981079 0.102619670127
v -0.047 0.0775955982681 0.102521674635
v -0.047 0.0776818726855 0.102418334608
v -0.047 0.07776181252 0.102310019979
v -0.047 0.0778351316078 0.102197118484
v -0.047 0.0779015674856 0.102080034283
v -0.047 0.0779608823302 0.101959186506
v -0.047 0.0780128638099 0.101835007756
v -0.047 0.0780573258443 0.101707942562
v -0.047 0.0780941092711 0.101578445783
v -0.047 0.078123082415 0.101446980985
v -0.047 0.0781441415598 0.101314018778
v -0.047 0.0781572113191 0.101180035132
v -0.047 0.0781622449066 0.101045509673
v -0.047 0.0781592243034 0.100910923968
v -0.047 0.0781481603225 0.100776759798
v -0.047 0.07812909257 0.100643497437
v -0.047 0.0781020893035 0.100511613929
v -0.047 0.0780672471878 0.100381581383
v -0.047 0.0780246909485 0.100253865281
v -0.047 0.0779745729259 0.100128922815
v -0.047 0.0779170725297 0.100007201245
v -0.047 0.0778523955961 0.0998891363036
v -0.047 0.077780773652 0.0997751506325
v -0.047 0.0777024630852 0.0996656522707
v -0.047 0.0776177442273 0.099561033194
v -0.047 0.0775269203498 0.0994616679114
v -0.047 0.0774303165786 0.099367912125
v -0.047 0.0773282787301 0.0992801014561
v -0.047 0.0772211720734 0.099198550244
v -0.047 0.0771093800224 0.0991235504211
v -0.047 0.0769933027637 0.0990553704671
v -0.047 0.0768733558239 0.0989942544487
v -0.047 0.0767499685816 0.0989404211452
v -0.047 0.0766235827314 0.098894063266
v -0.047 0.0764946507017 0.0988553467602
v -0.062 0.0764946507017 0.0988553467602
v -0.062 0.0763636340358 0.0988244102229
v -0.062 0.0762310017392 0.0988013643989
v -0.062 0.0760972286012 0.0987862917861
v -0.062 0.0759627934949 0.0987792463407
v -0.062 0.0758281776631 0.0987802532836
v -0.062 0.0756938629956 0.0987893090101
v -0.062 0.0755603303039 0.098806381103
v -0.062 0.0754280576005 0.0988314084488
v -0.062 0.0752975183873 0.098864301456
v -0.062 0.0751691799608 0.0989049423762
v -0.062 0.0750435017393 0.0989531857254
v -0.062 0.0749209336182 0.099008858805
v -0.062 0.0748019143596 0.0990717623198
v -0.062 0.0746868700215 0.0991416710915
v -0.062 0.0745762124327 0.0992183348649
v -0.062 0.0744703377188 0.0993014792036
v -0.062 0.0743696248837 0.0993908064723
v -0.062 0.0742744344532 0.0994859969028
v -0.062 0.0741851071844 0.0995867097379
v -0.062 0.0741019628458 0.0996925844518
v -0.062 0.0740252990724 0.0998032420406
v -0.062 0.0739553903006 0.0999182863787
v -0.062 0.0738924867859 0.100037305637
v -0.062 0.0738368137063 0.100159873758
v -0.062 0.073788570357 0.10028555198
v -0.062 0.0737479294369 0.100413890406
v -0.062 0.0737150364297 0.10054442962
v -0.062 0.0736900090839 0.100676702323
v -0.062 0.0736729369909 0.100810235015
v -0.062 0.0736638812645 0.100944549682
v -0.062 0.0736628743216 0.101079165514
v -0.062 0.073669919767 0.10121360062
v -0.062 0.0736849923797 0.101347373758
v -0.062 0.0737080382038 0.101480006055
v -0.062 0.0737389747411 0.101611022721
v -0.062 0.0737776912469 0.101739954751
v -0.062 0.0738240491261 0.101866340601
v -0.062 0.0738778824295 0.101989727843
v -0.062 0.073938998448 0.102109674783
v -0.062 0.074007178402 0.102225752042
v -0.062 0.0740821782249 0.102337544092
v -0.062 0.074163729437 0.102444650749
v -0.062 0.0742515401059 0.102546688598
v -0.062 0.0743452958923 0.102643292369
v -0.062 0.0744446611749 0.102734116246
v -0.062 0.0745492802516 0.102818835104
v -0.062 0.0746587786134 0.102897145671
v -0.062 0.0747727642845 0.102968767615
v -0.062 0.0748908292258 0.103033444549
v -0.062 0.0750125507955 0.103090944945
v -0.062 0.075137493262 0.103141062968
v -0.062 0.0752652093635 0.103183619207
v -0.062 0.0753952419097 0.103218461323
v -0.062 0.0755271254178 0.103245464589
v -0.062 0.075660387779 0.103264532342
v -0.062 0.0757945519487 0.103275596323
v -0.062 0.0759291376539 0.103278616926
v -0.062 0.0760636631129 0.103273583338
v -0.062 0.0761976467592 0.103260513579
v -0.062 0.0763306089664 0.103239454434
v -0.062 0.0764620737641 0.10321048129
v -0.062 0.0765915705425 0.103173697863
v -0.062 0.0767186357367 0.103129235829
v -0.062 0.0768428144864 0.103077254349
v -0.062 0.0769636622639 0.103017939505
v -0.062 0.0770807464654 0.102951503627
v -0.062 0.0771936479599 0.102878184539
v -0.062 0.0773019625893 0.102798244705
v -0.062 0.0774053026155 0.102711970287
v -0.062 0.0775032981079 0.102619670127
v -0.062 0.0775955982681 0.102521674635
v -0.062 0.0776818726855 0.102418334608
v -0.062 0.07776181252 0.102310019979
v -0.062 0.0778351316078 0.102197118484
v -0.062 0.0779015674856 0.102080034283
v -0.062 0.0779608823302 0.101959186506
v -0.062 0.0780128638099 0.101835007756
v -0.062 0.0780573258443 0.101707942562
v -0.062 0.0780941092711 0.101578445783
v -0.062 0.078123082415 0.101446980985
v -0.062 0.0781441415598 0.101314018778
v -0.062 0.0781572113191 0.101180035132
v -0.062 0.0781622449066 0.101045509673
v -0.062 0.0781592243034 0.100910923968
v -0.062 0.0781481603225 0.100776759798
v -0.062 0.07812909257 0.100643497437
v -0.062 0.0781020893035 0.100511613929
v -0.062 0.0780672471878 0.100381581383
v -0.062 0.0780246909485 0.100253865281
v -0.062 0.0779745729259 0.100128922815
v -0.062 0.0779170725297 0.100007201245
v -0.062 0.0778523955961 0.0998891363036
v -0.062 0.077780773652 0.0997751506325
v -0.062 0.0777024630852 0.0996656522707
v -0.062 0.0776177442273 0.099561033194
v -0.062 0.0775269203498 0.0994616679114
v -0.062 0.0774303165786 0.099367912125
v -0.062 0.0773282787301 0.0992801014561
v -0.062 0.0772211720734 0.099198550244
v -0.062 0.0771093800224 0.0991235504211
v -0.062 0.0769933027637 0.0990553704671
v -0.062 0.0768733558239 0.0989942544487
v -0.062 0.0767499685816 0.0989404211452
v -0.062 0.0766235827314 0.098894063266
v -0.047 0.0764946507017 0.0988553467602
v -0.047 0.0763636340358 0.0988244102229
v -0.047 0.0762310017392 0.0988013643989
v -0.047 0.0760972286012 0.0987862917861
v -0.047 0.0759627934949 0.0987792463407
v -0.047 0.0758281776631 0.0987802532836
v -0.047 0.0756938629956 0.0987893090101
v -0.047 0.0755603303039 0.098806381103
v -0.047 0.0754280576005 0.0988314084488
v -0.047 0.0752975183873 0.098864301456
v -0.047 0.0751691799608 0.0989049423762
v -0.047 0.0750435017393 0.0989531857254
v -0.047 0.0749209336182 0.099008858805
v -0.047 0.0748019143596 0.0990717623198
v -0.047 0.0746868700215 0.0991416710915
v -0.047 0.0745762124327 0.0992183348649
v -0.047 0.0744703377188 0.0993014792036
v -0.047 0.0743696248837 0.0993908064723
v -0.047 0.0742744344532 0.0994859969028
v -0.047 0.0741851071844 0.0995867097379
v -0.047 0.0741019628458 0.0996925844518
v -0.047 0.0740252990724 0.0998032420406
v -0.047 0.0739553903006 0.0999182863787
v -0.047 0.0738924867859 0.100037305637
v -0.047 0.0738368137063 0.100159873758
v -0.047 0.073788570357 0.10028555198
v -0.047 0.0737479294369 0.100413890406
v -0.047 0.0737150364297 0.10054442962
v -0.047 0.0736900090839 0.100676702323
v -0.047 0.0736729369909 0.100810235015
v -0.047 0.0736638812645 0.100944549682
v -0.047 0.0736628743216 0.101079165514
v -0.047 0.073669919767 0.10121360062
v -0.047 0.0736849923797 0.101347373758
v -0.047 0.0737080382038 0.101480006055
v -0.047 0.0737389747411 0.101611022721
v -0.047 0.0737776912469 0.101739954751
v -0.047 0.0738240491261 0.101866340601
v -0.047 0.0738778824295 0.101989727843
v -0.047 0.073938998448 0.102109674783
v -0.047 0.074007178402 0.102225752042
v -0.047 0.0740821782249 0.102337544092
v -0.047 0.074163729437 0.102444650749
v -0.047 0.0742515401059 0.102546688598
v -0.047 0.0743452958923 0.102643292369
v -0.047 0.0744446611749 0.102734116246
v -0.047 0.0745492802516 0.102818835104
v -0.047 0.0746587786134 0.102897145671
v -0.047 0.0747727642845 0.102968767615
v -0.047 0.0748908292258 0.103033444549
v -0.047 0.0750125507955 0.103090944945
v -0.047 0.075137493262 0.103141062968
v -0.047 0.0752652093635 0.103183619207
v -0.047 0.0753952419097 0.103218461323
v -0.047 0.0755271254178 0.103245464589
v -0.047 0.075660387779 0.103264532342
v -0.047 0.0757945519487 0.103275596323
v -0.047 0.0759291376539 0.103278616926
v -0.047 0.0760636631129 0.103273583338
v -0.047 0.0761976467592 0.103260513579
v -0.047 0.0763306089664 0.103239454434
v -0.047 0.0764620737641 0.10321048129
v -0.047 0.0765915705425 0.103173697863
v -0.047 0.0767186357367 0.103129235829
v -0.047 0.0768428144864 0.103077254349
v -0.047 0.0769636622639 0.103017939505
v -0.047 0.0770807464654 0.102951503627
v -0.047 0.0771936479599 0.102878184539
v -0.047 0.0773019625893 0.102798244705
v -0.047 0.0774053026155 0.102711970287
v -0.047 0.0775032981079 0.102619670127
v -0.047 0.0775955982681 0.102521674635
v -0.047 0.0776818726855 0.102418334608
v -0.047 0.07776181252 0.102310019979
v -0.047 0.0778351316078 0.102197118484
v -0.047 0.0779015674856 0.102080034283
v -0.047 0.0779608823302 0.101959186506
v -0.047 0.0780128638099 0.101835007756
v -0.047 0.0780573258443 0.101707942562
v -0.047 0.0780941092711 0.101578445783
v -0.047 0.078123082415 0.101446980985
v -0.047 0.0781441415598 0.101314018778
v -0.047 0.0781572113191 0.101180035132
v -0.047 0.0781622449066 0.101045509673
v -0.047 0.0781592243034 0.100910923968
v -0.047 0.0781481603225 0.100776759798
v -0.047 0.07812909257 0.100643497437
v -0.047 0.0781020893035 0.100511613929
v -0.047 0.0780672471878 0.100381581383
v -0.047 0.0780246909485 0.100253865281
v -0.047 0.0779745729259 0.100128922815
v -0.047 0.0779170725297 0.100007201245
v -0.047 0.0778523955961 0.0998891363036
v -0.047 0.077780773652 0.0997751506325
v -0.047 0.0777024630852 0.0996656522707
v -0.047 0.0776177442273 0.099561033194
v -0.047 0.0775269203498 0.0994616679114
v -0.047 0.0774303165786 0.099367912125
v -0.047 0.0773282787301 0.0992801014561
v -0.047 0.0772211720734 0.099198550244
v -0.047 0.0771093800224 0.0991235504211
v -0.047 0.0769933027637 0.0990553704671
v -0.047 0.0768733558239 0.0989942544487
v -0.047 0.0767499685816 0.0989404211452
v -0.047 0.0766235827314 0.098894063266
f 2 1 107
f 2 107 108
f 3 108 109
f 3 2 108
f 4 109 110
f 4 110 111
f 4 3 109
f 5 111 112
f 5 4 111
f 6 5 112
f 7 112 113
f 7 6 112
f 8 113 114
f 8 114 115
f 8 7 113
f 9 8 115
f 10 115 116
f 10 116 117
f 10 9 115
f 11 10 117
f 12 117 118
f 12 118 119
f 12 11 117
f 13 119 120
f 13 12 119
f 14 13 120
f 15 120 121
f 15 14 120
f 16 121 122
f 16 122 123
f 16 15 121
f 17 16 123
f 18 123 124
f 18 17 123
f 19 124 125
f 19 18 124
f 20 125 126
f 20 19 125
f 21 126 127
f 21 20 126
f 22 127 128
f 22 21 127
f 23 22 128
f 23 128 129
f 24 23 129
f 24 129 130
f 25 24 130
f 25 130 131
f 25 131 132
f 26 25 132
f 27 26 132
f 27 132 133
f 28 27 133
f 28 133 134
f 29 28 134
f 29 134 135
f 30 29 135
f 30 135 136
f 30 136 137
f 31 30 137
f 32 137 138
f 32 31 137
f 33 138 139
f 33 32 138
f 34 139 140
f 34 33 139
f 35 140 141
f 35 141 142
f 35 34 140
f 36 35 142
f 37 142 143
f 37 36 142
f 38 143 144
f 38 37 143
f 39 144 145
f 39 38 144
f 40 145 146
f 40 146 147
f 40 39 145
f 41 40 147
f 42 147 148
f 42 41 147
f 43 148 149
f 43 42 148
f 44 149 150
f 44 43 149
f 45 150 151
f 45 44 150
f 46 151 152
f 46 152 153
f 46 45 151
f 47 46 153
f 48 153 154
f 48 47 153
f 49 48 154
f 49 154 155
f 49 155 156
f 50 49 156
f 51 50 156
f 51 156 157
f 52 51 157
f 52 157 158
f 52 158 159
f 53 52 159
f 54 53 159
f 54 159 160
f 55 54 160
f 55 160 161
f 56 55 161
f 56 161 162
f 56 162 163
f 57 56 163
f 58 57 163
f 58 163 164
f 59 58 164
f 59 164 165
f 59 165 166
f 60 59 166
f 61 60 166
f 61 166 167
f 62 61 167
f 62 167 168
f 62 168 169
f 63 62 169
f 64 63 169
f 64 169 170
f 65 64 170
f 65 170 171
f 66 171 172
f 66 65 171
f 67 172 173
f 67 66 172
f 68 173 174
f 68 67 173
f 69 174 175
f 69 68 174
f 70 175 176
f 70 69 175
f 71 176 177
f 71 70 176
f 72 177 178
f 72 71 177
f 73 72 178
f 73 178 179
f 74 73 179
f 74 179 180
f 75 74 180
f 75 180 181
f 76 75 181
f 76 181 182
f 77 76 182
f 77 182 183
f 78 77 183
f 78 183 184
f 79 78 184
f 79 184 185
f 80 79 185
f 80 185 186
f 81 80 186
f 81 186 187
f 82 81 187
f 82 187 188
f 83 82 188
f 83 188 189
f 84 83 189
f 84 189 190
f 85 84 190
f 85 190 191
f 86 85 191
f 86 191 192
f 87 86 192
f 87 192 193
f 88 87 193
f 88 193 194
f 89 88 194
f 89 194 195
f 90 89 195
f 90 195 196
f 91 90 196
f 91 196 197
f 92 91 197
f 92 197 198
f 93 92 198
f 93 198 199
f 94 93 199
f 94 199 200
f 95 94 200
f 95 200 201
f 96 95 201
f 96 201 202
f 97 202 203
f 97 96 202
f 98 203 204
f 98 97 203
f 99 98 204
f 99 204 205
f 100 205 206
f 100 99 205
f 101 206 207
f 101 100 206
f 102 207 208
f 102 208 209
f 102 101 207
f 103 102 209
f 104 209 210
f 104 103 209
f 105 210 211
f 105 104 210
f 106 211 212
f 106 105 211
f 275 276 277
f 273 275 277
f 273 274 275
f 273 277 278
f 273 278 279
f 285 282 283
f 285 283 284
f 270 271 272
f 289 287 288
f 268 273 279
f 268 270 272
f 268 269 270
f 268 272 273
f 268 279 280
f 290 287 289
f 290 286 287
f 293 290 291
f 293 291 292
f 263 264 265
f 263 265 266
f 295 293 294
f 262 266 267
f 262 263 266
f 297 295 296
f 259 260 261
f 259 261 262
f 299 297 298
f 258 262 267
f 258 268 280
f 258 267 268
f 258 280 281
f 258 281 282
f 258 259 262
f 300 297 299
f 303 301 302
f 254 255 256
f 254 256 257
f 254 257 258
f 252 253 254
f 251 252 254
f 307 301 303
f 307 303 304
f 307 304 305
f 307 305 306
f 308 301 307
f 308 300 301
f 308 297 300
f 249 251 254
f 249 250 251
f 248 249 254
f 310 308 309
f 311 297 308
f 311 308 310
f 246 248 254
f 246 282 285
f 246 247 248
f 246 286 290
f 246 290 293
f 246 285 286
f 246 293 295
f 246 254 258
f 246 258 282
f 246 295 297
f 244 245 246
f 314 311 312
f 314 312 313
f 243 244 246
f 316 314 315
f 317 311 314
f 317 314 316
f 238 239 240
f 238 240 241
f 238 241 242
f 238 242 243
f 238 243 246
f 215 213 214
f 215 317 213
f 216 317 215
f 218 216 217
f 234 235 236
f 219 216 218
f 233 234 236
f 220 216 219
f 232 236 237
f 232 237 238
f 232 233 236
f 222 220 221
f 222 216 220
f 230 231 232
f 229 230 232
f 224 222 223
f 228 229 232
f 228 232 238
f 225 222 224
f 226 216 222
f 226 222 225
f 226 228 238
f 226 227 228
f 226 246 297
f 226 297 311
f 226 311 317
f 226 238 246
f 226 317 216
f 380 382 381
f 378 382 380
f 378 380 379
f 378 383 382
f 378 384 383
f 390 388 387
f 390 389 388
f 375 377 376
f 394 393 392
f 373 384 378
f 373 377 375
f 373 375 374
f 373 378 377
f 373 385 384
f 395 394 392
f 395 392 391
f 398 396 395
f 398 397 396
f 368 370 369
f 368 371 370
f 400 399 398
f 367 372 371
f 367 371 368
f 402 401 400
f 364 366 365
f 364 367 366
f 404 403 402
f 363 372 367
f 363 385 373
f 363 373 372
f 363 386 385
f 363 387 386
f 363 367 364
f 405 404 402
f 408 407 406
f 359 361 360
f 359 362 361
f 359 363 362
f 357 359 358
f 356 359 357
f 412 408 406
f 412 409 408
f 412 410 409
f 412 411 410
f 413 412 406
f 413 406 405
f 413 405 402
f 354 359 356
f 354 356 355
f 353 359 354
f 415 414 413
f 416 413 402
f 416 415 413
f 351 359 353
f 351 390 387
f 351 353 352
f 351 395 391
f 351 398 395
f 351 391 390
f 351 400 398
f 351 363 359
f 351 387 363
f 351 402 400
f 349 351 350
f 419 417 416
f 419 418 417
f 348 351 349
f 421 420 419
f 422 419 416
f 422 421 419
f 343 345 344
f 343 346 345
f 343 347 346
f 343 348 347
f 343 351 348
f 320 319 318
f 320 318 422
f 321 320 422
f 323 322 321
f 339 341 340
f 324 323 321
f 338 341 339
f 325 324 321
f 337 342 341
f 337 343 342
f 337 341 338
f 327 326 325
f 327 325 321
f 335 337 336
f 334 337 335
f 329 328 327
f 333 337 334
f 333 343 337
f 330 329 327
f 331 327 321
f 331 330 327
f 331 343 333
f 331 333 332
f 331 402 351
f 331 416 402
f 331 422 416
f 331 351 343
f 331 321 422
