v -0.00725 0.072594247692 0.113411848962
v -0.00725492214314 0.0727531052283 0.113454414711
v -0.00726967095256 0.0729113940958 0.113496828085
v -0.00729419363135 0.0730685476614 0.113538937256
v -0.00732840239469 0.0732240033563 0.113580591484
v -0.00737217478409 0.0733772046894 0.113621641658
v -0.00742535410574 0.0735276032396 0.113661940828
v -0.00748774999148 0.0736746606192 0.113701344734
v -0.00755913908024 0.0738178504009 0.11373971232
v -0.00763926581759 0.0739566600024 0.113776906241
v -0.00772784337063 0.0740905925215 0.113812793351
v -0.0078245546547 0.0742191685145 0.113847245185
v -0.00792905346849 0.0743419277127 0.113880138413
v -0.00804096573338 0.0744584306699 0.113911355286
v -0.00815989083251 0.0745682603359 0.113940784056
v -0.00828540304489 0.074671023549 0.113968319376
v -0.00841705306936 0.0747663524435 0.113993862676
v -0.00855436963302 0.0748539057668 0.114017322519
v -0.0086968611782 0.0749333701005 0.114038614923
v -0.00884401762215 0.0750044609832 0.114057663667
v -0.00899531218299 0.0750669239278 0.114074400563
v -0.00915020326547 0.0751205353332 0.114088765696
v -0.0093081363997 0.0751651032846 0.114100707642
v -0.00946854622606 0.0752004682401 0.114110183654
v -0.009630858519 0.0752265036025 0.114117159808
v -0.00979449224264 0.0752431161719 0.114121611132
v -0.00995886163071 0.0752502464796 0.114123521693
v -0.0101233782835 0.075247869001 0.114122884649
v -0.010287453274 0.0752359922468 0.114119702282
v -0.0104504992564 0.0752146587327 0.114113985985
v -0.0106119325684 0.0751839448272 0.114105756218
v -0.0107711753206 0.075143960478 0.114095042444
v -0.0109276574653 0.0750948488189 0.114081883015
v -0.011080818837 0.0750367856566 0.114066325037
v -0.0112301111579 0.0749699788424 0.114048424206
v -0.011375 0.0748946675273 0.114028244599
v -0.011514966699 0.0748111213062 0.114005858457
v -0.0116495102104 0.0747196392529 0.113981345915
v -0.0117781489033 0.0746205488495 0.113954794721
v -0.0119004222847 0.0745142048137 0.113926299923
v -0.0120158926475 0.0744009878298 0.113895963523
v -0.0121241466379 0.0742813031852 0.113863894119
v -0.0122247967345 0.0741555793197 0.113830206511
v -0.0123174826363 0.0740242662921 0.113795021291
v -0.0124018725517 0.0738878341692 0.113758464414
v -0.0124776643867 0.0737467713424 0.113720666744
v -0.0125445868263 0.07360158278 0.113681763586
v -0.0126024003054 0.0734527882195 0.113641894203
v -0.0126508978669 0.0733009203067 0.113601201319
v -0.012689905902 0.0731465226893 0.113559830602
v -0.0127192847721 0.0729901480708 0.113517930149
v -0.0127389293085 0.0728323562317 0.113475649953
v -0.0127487691888 0.0726737120258 0.113433141366
v -0.0127487691888 0.0725147833582 0.113390556558
v -0.0127389293085 0.0723561391523 0.113348047971
v -0.0127192847721 0.0721983473132 0.113305767776
v -0.012689905902 0.0720419726947 0.113263867323
v -0.0126508978669 0.0718875750774 0.113222496606
v -0.0126024003054 0.0717357071646 0.113181803721
v -0.0125445868263 0.071586912604 0.113141934339
v -0.0124776643867 0.0714417240417 0.113103031181
v -0.0124018725517 0.0713006612149 0.11306523351
v -0.0123174826363 0.0711642290919 0.113028676633
v -0.0122247967345 0.0710329160644 0.112993491414
v -0.0121241466379 0.0709071921989 0.112959803805
v -0.0120158926475 0.0707875075542 0.112927734402
v -0.0119004222847 0.0706742905703 0.112897398002
v -0.0117781489033 0.0705679465346 0.112868903204
v -0.0116495102104 0.0704688561311 0.11284235201
v -0.011514966699 0.0703773740779 0.112817839468
v -0.011375 0.0702938278567 0.112795453325
v -0.0112301111579 0.0702185165416 0.112775273719
v -0.011080818837 0.0701517097274 0.112757372887
v -0.0109276574653 0.0700936465652 0.11274181491
v -0.0107711753206 0.070044534906 0.11272865548
v -0.0106119325684 0.0700045505569 0.112717941706
v -0.0104504992564 0.0699738366514 0.11270971194
v -0.010287453274 0.0699525031373 0.112703995642
v -0.0101233782835 0.0699406263831 0.112700813276
v -0.00995886163071 0.0699382489044 0.112700176232
v -0.00979449224264 0.0699453792122 0.112702086792
v -0.009630858519 0.0699619917815 0.112706538117
v -0.00946854622606 0.0699880271439 0.112713514271
v -0.0093081363997 0.0700233920995 0.112722990283
v -0.00915020326547 0.0700679600508 0.112734932229
v -0.00899531218299 0.0701215714562 0.112749297362
v -0.00884401762215 0.0701840344009 0.112766034257
v -0.0086968611782 0.0702551252835 0.112785083002
v -0.00855436963302 0.0703345896173 0.112806375406
v -0.00841705306936 0.0704221429405 0.112829835248
v -0.00828540304489 0.070517471835 0.112855378549
v -0.00815989083251 0.0706202350481 0.112882913869
v -0.00804096573338 0.0707300647141 0.112912342639
v -0.00792905346849 0.0708465676714 0.112943559512
v -0.0078245546547 0.0709693268695 0.11297645274
v -0.00772784337063 0.0710979028625 0.113010904574
v -0.00763926581759 0.0712318353816 0.113046791684
v -0.00755913908024 0.0713706449832 0.113083985605
v -0.00748774999148 0.0715138347649 0.113122353191
v -0.00742535410574 0.0716608921445 0.113161757097
v -0.00737217478409 0.0718112906947 0.113202056267
v -0.00732840239469 0.0719644920277 0.113243106441
v -0.00729419363135 0.0721199477226 0.113284760669
v -0.00726967095256 0.0722771012883 0.11332686984
v -0.00725492214314 0.0724353901558 0.113369283214
v -0.00725 0.072594247692 0.113411848962
v -0.00725 0.0733707048273 0.110514071484
v -0.00725492214314 0.0735295623636 0.110556637232
v -0.00726967095256 0.0736878512311 0.110599050606
v -0.00729419363135 0.0738450047967 0.110641159777
v -0.00732840239469 0.0740004604916 0.110682814005
v -0.00737217478409 0.0741536618247 0.110723864179
v -0.00742535410574 0.0743040603749 0.110764163349
v -0.00748774999148 0.0744511177545 0.110803567255
v -0.00755913908024 0.0745943075362 0.110841934841
v -0.00763926581759 0.0747331171377 0.110879128762
v -0.00772784337063 0.0748670496568 0.110915015872
v -0.0078245546547 0.0749956256498 0.110949467706
v -0.00792905346849 0.075118384848 0.110982360934
v -0.00804096573338 0.0752348878052 0.111013577807
v -0.00815989083251 0.0753447174712 0.111043006577
v -0.00828540304489 0.0754474806843 0.111070541897
v -0.00841705306936 0.0755428095788 0.111096085198
v -0.00855436963302 0.0756303629021 0.11111954504
v -0.0086968611782 0.0757098272359 0.111140837444
v -0.00884401762215 0.0757809181185 0.111159886188
v -0.00899531218299 0.0758433810631 0.111176623084
v -0.00915020326547 0.0758969924685 0.111190988217
v -0.0093081363997 0.0759415604199 0.111202930163
v -0.00946854622606 0.0759769253754 0.111212406175
v -0.009630858519 0.0760029607378 0.111219382329
v -0.00979449224264 0.0760195733072 0.111223833654
v -0.00995886163071 0.0760267036149 0.111225744214
v -0.0101233782835 0.0760243261363 0.11122510717
v -0.010287453274 0.0760124493821 0.111221924804
v -0.0104504992564 0.075991115868 0.111216208506
v -0.0106119325684 0.0759604019625 0.11120797874
v -0.0107711753206 0.0759204176133 0.111197264965
v -0.0109276574653 0.0758713059542 0.111184105536
v -0.011080818837 0.075813242792 0.111168547559
v -0.0112301111579 0.0757464359777 0.111150646727
v -0.011375 0.0756711246626 0.111130467121
v -0.011514966699 0.0755875784415 0.111108080978
v -0.0116495102104 0.0754960963882 0.111083568436
v -0.0117781489033 0.0753970059848 0.111057017242
v -0.0119004222847 0.0752906619491 0.111028522444
v -0.0120158926475 0.0751774449651 0.110998186044
v -0.0121241466379 0.0750577603205 0.11096611664
v -0.0122247967345 0.074932036455 0.110932429032
v -0.0123174826363 0.0748007234275 0.110897243813
v -0.0124018725517 0.0746642913045 0.110860686935
v -0.0124776643867 0.0745232284777 0.110822889265
v -0.0125445868263 0.0743780399153 0.110783986107
v -0.0126024003054 0.0742292453548 0.110744116725
v -0.0126508978669 0.074077377442 0.11070342384
v -0.012689905902 0.0739229798246 0.110662053123
v -0.0127192847721 0.0737666052061 0.11062015267
v -0.0127389293085 0.073608813367 0.110577872474
v -0.0127487691888 0.0734501691611 0.110535363888
v -0.0127487691888 0.0732912404935 0.110492779079
v -0.0127389293085 0.0731325962877 0.110450270493
v -0.0127192847721 0.0729748044485 0.110407990297
v -0.012689905902 0.07281842983 0.110366089844
v -0.0126508978669 0.0726640322127 0.110324719127
v -0.0126024003054 0.0725121642999 0.110284026243
v -0.0125445868263 0.0723633697393 0.11024415686
v -0.0124776643867 0.072218181177 0.110205253702
v -0.0124018725517 0.0720771183502 0.110167456032
v -0.0123174826363 0.0719406862272 0.110130899154
v -0.0122247967345 0.0718093731997 0.110095713935
v -0.0121241466379 0.0716836493342 0.110062026327
v -0.0120158926475 0.0715639646895 0.110029956923
v -0.0119004222847 0.0714507477056 0.109999620523
v -0.0117781489033 0.0713444036699 0.109971125725
v -0.0116495102104 0.0712453132664 0.109944574531
v -0.011514966699 0.0711538312132 0.109920061989
v -0.011375 0.0710702849921 0.109897675846
v -0.0112301111579 0.0709949736769 0.10987749624
v -0.011080818837 0.0709281668627 0.109859595408
v -0.0109276574653 0.0708701037005 0.109844037431
v -0.0107711753206 0.0708209920413 0.109830878002
v -0.0106119325684 0.0707810076922 0.109820164228
v -0.0104504992564 0.0707502937867 0.109811934461
v -0.010287453274 0.0707289602726 0.109806218163
v -0.0101233782835 0.0707170835184 0.109803035797
v -0.00995886163071 0.0707147060398 0.109802398753
v -0.00979449224264 0.0707218363475 0.109804309313
v -0.009630858519 0.0707384489169 0.109808760638
v -0.00946854622606 0.0707644842792 0.109815736792
v -0.0093081363997 0.0707998492348 0.109825212804
v -0.00915020326547 0.0708444171861 0.10983715475
v -0.00899531218299 0.0708980285916 0.109851519883
v -0.00884401762215 0.0709604915362 0.109868256779
v -0.0086968611782 0.0710315824188 0.109887305523
v -0.00855436963302 0.0711110467526 0.109908597927
v -0.00841705306936 0.0711986000758 0.109932057769
v -0.00828540304489 0.0712939289703 0.10995760107
v -0.00815989083251 0.0713966921834 0.10998513639
v -0.00804096573338 0.0715065218494 0.11001456516
v -0.00792905346849 0.0716230248067 0.110045782033
v -0.0078245546547 0.0717457840049 0.110078675261
v -0.00772784337063 0.0718743599978 0.110113127095
v -0.00763926581759 0.0720082925169 0.110149014205
v -0.00755913908024 0.0721471021185 0.110186208126
v -0.00748774999148 0.0722902919002 0.110224575712
v -0.00742535410574 0.0724373492798 0.110263979618
v -0.00737217478409 0.07258774783 0.110304278788
v -0.00732840239469 0.072740949163 0.110345328962
v -0.00729419363135 0.0728964048579 0.11038698319
v -0.00726967095256 0.0730535584236 0.110429092361
v -0.00725492214314 0.0732118472911 0.110471505735
v -0.00725 0.0733707048273 0.110514071484
v -0.00725 0.072594247692 0.113411848962
v -0.00725492214314 0.0727531052283 0.113454414711
v -0.00726967095256 0.0729113940958 0.113496828085
v -0.00729419363135 0.0730685476614 0.113538937256
v -0.00732840239469 0.0732240033563 0.113580591484
v -0.00737217478409 0.0733772046894 0.113621641658
v -0.00742535410574 0.0735276032396 0.113661940828
v -0.00748774999148 0.0736746606192 0.113701344734
v -0.00755913908024 0.0738178504009 0.11373971232
v -0.00763926581759 0.0739566600024 0.113776906241
v -0.00772784337063 0.0740905925215 0.113812793351
v -0.0078245546547 0.0742191685145 0.113847245185
v -0.00792905346849 0.0743419277127 0.113880138413
v -0.00804096573338 0.0744584306699 0.113911355286
v -0.00815989083251 0.0745682603359 0.113940784056
v -0.00828540304489 0.074671023549 0.113968319376
v -0.00841705306936 0.0747663524435 0.113993862676
v -0.00855436963302 0.0748539057668 0.114017322519
v -0.0086968611782 0.0749333701005 0.114038614923
v -0.00884401762215 0.0750044609832 0.114057663667
v -0.00899531218299 0.0750669239278 0.114074400563
v -0.00915020326547 0.0751205353332 0.114088765696
v -0.0093081363997 0.0751651032846 0.114100707642
v -0.00946854622606 0.0752004682401 0.114110183654
v -0.009630858519 0.0752265036025 0.114117159808
v -0.00979449224264 0.0752431161719 0.114121611132
v -0.00995886163071 0.0752502464796 0.114123521693
v -0.0101233782835 0.075247869001 0.114122884649
v -0.010287453274 0.0752359922468 0.114119702282
v -0.0104504992564 0.0752146587327 0.114113985985
v -0.0106119325684 0.0751839448272 0.114105756218
v -0.0107711753206 0.075143960478 0.114095042444
v -0.0109276574653 0.0750948488189 0.114081883015
v -0.011080818837 0.0750367856566 0.114066325037
v -0.0112301111579 0.0749699788424 0.114048424206
v -0.011375 0.0748946675273 0.114028244599
v -0.011514966699 0.0748111213062 0.114005858457
v -0.0116495102104 0.0747196392529 0.113981345915
v -0.0117781489033 0.0746205488495 0.113954794721
v -0.0119004222847 0.0745142048137 0.113926299923
v -0.0120158926475 0.0744009878298 0.113895963523
v -0.0121241466379 0.0742813031852 0.113863894119
v -0.0122247967345 0.0741555793197 0.113830206511
v -0.0123174826363 0.0740242662921 0.113795021291
v -0.0124018725517 0.0738878341692 0.113758464414
v -0.0124776643867 0.0737467713424 0.113720666744
v -0.0125445868263 0.07360158278 0.113681763586
v -0.0126024003054 0.0734527882195 0.113641894203
v -0.0126508978669 0.0733009203067 0.113601201319
v -0.012689905902 0.0731465226893 0.113559830602
v -0.0127192847721 0.0729901480708 0.113517930149
v -0.0127389293085 0.0728323562317 0.113475649953
v -0.0127487691888 0.0726737120258 0.113433141366
v -0.0127487691888 0.0725147833582 0.113390556558
v -0.0127389293085 0.0723561391523 0.113348047971
v -0.0127192847721 0.0721983473132 0.113305767776
v -0.012689905902 0.0720419726947 0.113263867323
v -0.0126508978669 0.0718875750774 0.113222496606
v -0.0126024003054 0.0717357071646 0.113181803721
v -0.0125445868263 0.071586912604 0.113141934339
v -0.0124776643867 0.0714417240417 0.113103031181
v -0.0124018725517 0.0713006612149 0.11306523351
v -0.0123174826363 0.0711642290919 0.113028676633
v -0.0122247967345 0.0710329160644 0.112993491414
v -0.0121241466379 0.0709071921989 0.112959803805
v -0.0120158926475 0.0707875075542 0.112927734402
v -0.0119004222847 0.0706742905703 0.112897398002
v -0.0117781489033 0.0705679465346 0.112868903204
v -0.0116495102104 0.0704688561311 0.11284235201
v -0.011514966699 0.0703773740779 0.112817839468
v -0.011375 0.0702938278567 0.112795453325
v -0.0112301111579 0.0702185165416 0.112775273719
v -0.011080818837 0.0701517097274 0.112757372887
v -0.0109276574653 0.0700936465652 0.11274181491
v -0.0107711753206 0.070044534906 0.11272865548
v -0.0106119325684 0.0700045505569 0.112717941706
v -0.0104504992564 0.0699738366514 0.11270971194
v -0.010287453274 0.0699525031373 0.112703995642
v -0.0101233782835 0.0699406263831 0.112700813276
v -0.00995886163071 0.0699382489044 0.112700176232
v -0.00979449224264 0.0699453792122 0.112702086792
v -0.009630858519 0.0699619917815 0.112706538117
v -0.00946854622606 0.0699880271439 0.112713514271
v -0.0093081363997 0.0700233920995 0.112722990283
v -0.00915020326547 0.0700679600508 0.112734932229
v -0.00899531218299 0.0701215714562 0.112749297362
v -0.00884401762215 0.0701840344009 0.112766034257
v -0.0086968611782 0.0702551252835 0.112785083002
v -0.00855436963302 0.0703345896173 0.112806375406
v -0.00841705306936 0.0704221429405 0.112829835248
v -0.00828540304489 0.070517471835 0.112855378549
v -0.00815989083251 0.0706202350481 0.112882913869
v -0.00804096573338 0.0707300647141 0.112912342639
v -0.00792905346849 0.0708465676714 0.112943559512
v -0.0078245546547 0.0709693268695 0.11297645274
v -0.00772784337063 0.0710979028625 0.113010904574
v -0.00763926581759 0.0712318353816 0.113046791684
v -0.00755913908024 0.0713706449832 0.113083985605
v -0.00748774999148 0.0715138347649 0.113122353191
v -0.00742535410574 0.0716608921445 0.113161757097
v -0.00737217478409 0.0718112906947 0.113202056267
v -0.00732840239469 0.0719644920277 0.113243106441
v -0.00729419363135 0.0721199477226 0.113284760669
v -0.00726967095256 0.0722771012883 0.11332686984
v -0.00725492214314 0.0724353901558 0.113369283214
v -0.0108371578903 0.0739948401401 0.113787136578
v -0.00916284210968 0.0739948401401 0.113787136578
v -0.00832568421935 0.072594247692 0.113411848962
v -0.00916284210968 0.0711936552439 0.113036561347
v -0.0108371578903 0.0711936552439 0.113036561347
v -0.0116743157806 0.072594247692 0.113411848962
v -0.00725 0.0733707048273 0.110514071484
v -0.00725492214314 0.0735295623636 0.110556637232
v -0.00726967095256 0.0736878512311 0.110599050606
v -0.00729419363135 0.0738450047967 0.110641159777
v -0.00732840239469 0.0740004604916 0.110682814005
v -0.00737217478409 0.0741536618247 0.110723864179
v -0.00742535410574 0.0743040603749 0.110764163349
v -0.00748774999148 0.0744511177545 0.110803567255
v -0.00755913908024 0.0745943075362 0.110841934841
v -0.00763926581759 0.0747331171377 0.110879128762
v -0.00772784337063 0.0748670496568 0.110915015872
v -0.0078245546547 0.0749956256498 0.110949467706
v -0.00792905346849 0.075118384848 0.110982360934
v -0.00804096573338 0.0752348878052 0.111013577807
v -0.00815989083251 0.0753447174712 0.111043006577
v -0.00828540304489 0.0754474806843 0.111070541897
v -0.00841705306936 0.0755428095788 0.111096085198
v -0.00855436963302 0.0756303629021 0.11111954504
v -0.0086968611782 0.0757098272359 0.111140837444
v -0.00884401762215 0.0757809181185 0.111159886188
v -0.00899531218299 0.0758433810631 0.111176623084
v -0.00915020326547 0.0758969924685 0.111190988217
v -0.0093081363997 0.0759415604199 0.111202930163
v -0.00946854622606 0.0759769253754 0.111212406175
v -0.009630858519 0.0760029607378 0.111219382329
v -0.00979449224264 0.0760195733072 0.111223833654
v -0.00995886163071 0.0760267036149 0.111225744214
v -0.0101233782835 0.0760243261363 0.11122510717
v -0.010287453274 0.0760124493821 0.111221924804
v -0.0104504992564 0.075991115868 0.111216208506
v -0.0106119325684 0.0759604019625 0.11120797874
v -0.0107711753206 0.0759204176133 0.111197264965
v -0.0109276574653 0.0758713059542 0.111184105536
v -0.011080818837 0.075813242792 0.111168547559
v -0.0112301111579 0.0757464359777 0.111150646727
v -0.011375 0.0756711246626 0.111130467121
v -0.011514966699 0.0755875784415 0.111108080978
v -0.0116495102104 0.0754960963882 0.111083568436
v -0.0117781489033 0.0753970059848 0.111057017242
v -0.0119004222847 0.0752906619491 0.111028522444
v -0.0120158926475 0.0751774449651 0.110998186044
v -0.0121241466379 0.0750577603205 0.11096611664
v -0.0122247967345 0.074932036455 0.110932429032
v -0.0123174826363 0.0748007234275 0.110897243813
v -0.0124018725517 0.0746642913045 0.110860686935
v -0.0124776643867 0.0745232284777 0.110822889265
v -0.0125445868263 0.0743780399153 0.110783986107
v -0.0126024003054 0.0742292453548 0.110744116725
v -0.0126508978669 0.074077377442 0.11070342384
v -0.012689905902 0.0739229798246 0.110662053123
v -0.0127192847721 0.0737666052061 0.11062015267
v -0.0127389293085 0.073608813367 0.110577872474
v -0.0127487691888 0.0734501691611 0.110535363888
v -0.0127487691888 0.0732912404935 0.110492779079
v -0.0127389293085 0.0731325962877 0.110450270493
v -0.0127192847721 0.0729748044485 0.110407990297
v -0.012689905902 0.07281842983 0.110366089844
v -0.0126508978669 0.0726640322127 0.110324719127
v -0.0126024003054 0.0725121642999 0.110284026243
v -0.0125445868263 0.0723633697393 0.11024415686
v -0.0124776643867 0.072218181177 0.110205253702
v -0.0124018725517 0.0720771183502 0.110167456032
v -0.0123174826363 0.0719406862272 0.110130899154
v -0.0122247967345 0.0718093731997 0.110095713935
v -0.0121241466379 0.0716836493342 0.110062026327
v -0.0120158926475 0.0715639646895 0.110029956923
v -0.0119004222847 0.0714507477056 0.109999620523
v -0.0117781489033 0.0713444036699 0.109971125725
v -0.0116495102104 0.0712453132664 0.109944574531
v -0.011514966699 0.0711538312132 0.109920061989
v -0.011375 0.0710702849921 0.109897675846
v -0.0112301111579 0.0709949736769 0.10987749624
v -0.011080818837 0.0709281668627 0.109859595408
v -0.0109276574653 0.0708701037005 0.109844037431
v -0.0107711753206 0.0708209920413 0.109830878002
v -0.0106119325684 0.0707810076922 0.109820164228
v -0.0104504992564 0.0707502937867 0.109811934461
v -0.010287453274 0.0707289602726 0.109806218163
v -0.0101233782835 0.0707170835184 0.109803035797
v -0.00995886163071 0.0707147060398 0.109802398753
v -0.00979449224264 0.0707218363475 0.109804309313
v -0.009630858519 0.0707384489169 0.109808760638
v -0.00946854622606 0.0707644842792 0.109815736792
v -0.0093081363997 0.0707998492348 0.109825212804
v -0.00915020326547 0.0708444171861 0.10983715475
v -0.00899531218299 0.0708980285916 0.109851519883
v -0.00884401762215 0.0709604915362 0.109868256779
v -0.0086968611782 0.0710315824188 0.109887305523
v -0.00855436963302 0.0711110467526 0.109908597927
v -0.00841705306936 0.0711986000758 0.109932057769
v -0.00828540304489 0.0712939289703 0.10995760107
v -0.00815989083251 0.0713966921834 0.10998513639
v -0.00804096573338 0.0715065218494 0.11001456516
v -0.00792905346849 0.0716230248067 0.110045782033
v -0.0078245546547 0.0717457840049 0.110078675261
v -0.00772784337063 0.0718743599978 0.110113127095
v -0.00763926581759 0.0720082925169 0.110149014205
v -0.00755913908024 0.0721471021185 0.110186208126
v -0.00748774999148 0.0722902919002 0.110224575712
v -0.00742535410574 0.0724373492798 0.110263979618
v -0.00737217478409 0.07258774783 0.110304278788
v -0.00732840239469 0.072740949163 0.110345328962
v -0.00729419363135 0.0728964048579 0.11038698319
v -0.00726967095256 0.0730535584236 0.110429092361
v -0.00725492214314 0.0732118472911 0.110471505735
v -0.00855 0.0733707048273 0.110514071484
v -0.00855259531184 0.0734544660737 0.110536515242
v -0.0085603719568 0.0735379274766 0.110558878657
v -0.00857330209653 0.0736207902657 0.110581081675
v -0.00859133944448 0.073702757814 0.110603044813
v -0.00861441943161 0.0737835366987 0.11062468945
v -0.00864245943757 0.0738628377524 0.110645938103
v -0.00867535908642 0.073940377098 0.110666714708
v -0.00871300060594 0.0740158771647 0.11068694489
v -0.00875524924928 0.0740890676819 0.11070655623
v -0.00880195377724 0.0741596866465 0.110725478525
v -0.00885294699975 0.074227481261 0.110743644037
v -0.00890804637429 0.0742922088382 0.110760987739
v -0.00896705465942 0.0743536376702 0.110777447545
v -0.00902976062078 0.0744115478578 0.110792964533
v -0.0090959397873 0.0744657320974 0.110807483156
v -0.00916535525476 0.0745159964236 0.110820951442
v -0.00923775853377 0.0745621609031 0.110833321177
v -0.00931289043941 0.0746040602791 0.110844548081
v -0.00939048201895 0.0746415445627 0.110854591964
v -0.00947025551467 0.0746744795698 0.110863416873
v -0.00955192535816 0.0747027474018 0.110870991216
v -0.00963519919257 0.074726246867 0.110877287878
v -0.0097197789192 0.0747448938436 0.110882284321
v -0.00980536176456 0.0747586215801 0.110885962657
v -0.0098916413643 0.0747673809349 0.110888309719
v -0.00997830885983 0.0747711405517 0.110889317105
v -0.010065054004 0.0747698869721 0.110888981209
v -0.0101515662717 0.0747636246835 0.110887303234
v -0.0102375359716 0.0747523761033 0.110884289186
v -0.0103226553542 0.0747361814986 0.110879949855
v -0.0104066197145 0.0747150988418 0.110874300774
v -0.0104891284817 0.0746892036033 0.110867362166
v -0.0105698862959 0.0746585884814 0.110859158869
v -0.0106486040651 0.0746233630703 0.110849720248
v -0.010725 0.0745836534678 0.110839080092
v -0.0107988006231 0.0745396018239 0.11082727649
v -0.0108697417473 0.0744913658322 0.110814351695
v -0.0109375694218 0.0744391181649 0.110800351974
v -0.011002040841 0.0743830458552 0.110785327444
v -0.0110629252142 0.0743233496273 0.110769331888
v -0.0111200045909 0.0742602431783 0.110752422566
v -0.0111730746418 0.0741939524128 0.110734660009
v -0.01122194539 0.0741247146347 0.110716107802
v -0.0112664418909 0.0740527776971 0.110696832358
v -0.0113064048585 0.0739783991157 0.110676902677
v -0.0113416912357 0.0739018451465 0.110656390103
v -0.0113721747065 0.0738233898327 0.110635368065
v -0.011397746148 0.0737433140242 0.110613911817
v -0.0114183140211 0.0736619043714 0.110592098166
v -0.011433804698 0.0735794522998 0.1105700052
v -0.0114441627263 0.0734962529664 0.110547712006
v -0.0114493510268 0.0734126042033 0.110525298387
v -0.0114493510268 0.0733288054513 0.11050284458
v -0.0114441627263 0.0732451566882 0.110480430961
v -0.011433804698 0.0731619573549 0.110458137767
v -0.0114183140211 0.0730795052833 0.110436044801
v -0.011397746148 0.0729980956305 0.11041423115
v -0.0113721747065 0.0729180198219 0.110392774902
v -0.0113416912357 0.0728395645082 0.110371752864
v -0.0113064048585 0.072763010539 0.11035124029
v -0.0112664418909 0.0726886319576 0.110331310609
v -0.01122194539 0.07261669502 0.110312035165
v -0.0111730746418 0.0725474572419 0.110293482958
v -0.0111200045909 0.0724811664764 0.110275720401
v -0.0110629252142 0.0724180600274 0.110258811079
v -0.011002040841 0.0723583637995 0.110242815523
v -0.0109375694218 0.0723022914898 0.110227790993
v -0.0108697417473 0.0722500438225 0.110213791272
v -0.0107988006231 0.0722018078308 0.110200866477
v -0.010725 0.0721577561869 0.110189062875
v -0.0106486040651 0.0721180465844 0.110178422719
v -0.0105698862959 0.0720828211733 0.110168984098
v -0.0104891284817 0.0720522060514 0.110160780801
v -0.0104066197145 0.0720263108129 0.110153842193
v -0.0103226553542 0.0720052281561 0.110148193112
v -0.0102375359716 0.0719890335513 0.110143853781
v -0.0101515662717 0.0719777849712 0.110140839733
v -0.010065054004 0.0719715226826 0.110139161758
v -0.00997830885983 0.071970269103 0.110138825862
v -0.0098916413643 0.0719740287198 0.110139833248
v -0.00980536176456 0.0719827880745 0.11014218031
v -0.0097197789192 0.0719965158111 0.110145858646
v -0.00963519919257 0.0720151627876 0.110150855089
v -0.00955192535816 0.0720386622529 0.110157151751
v -0.00947025551467 0.0720669300848 0.110164726094
v -0.00939048201895 0.072099865092 0.110173551003
v -0.00931289043941 0.0721373493756 0.110183594886
v -0.00923775853377 0.0721792487516 0.11019482179
v -0.00916535525476 0.0722254132311 0.110207191525
v -0.0090959397873 0.0722756775573 0.110220659811
v -0.00902976062078 0.0723298617969 0.110235178434
v -0.00896705465942 0.0723877719844 0.110250695422
v -0.00890804637429 0.0724492008165 0.110267155228
v -0.00885294699975 0.0725139283937 0.11028449893
v -0.00880195377724 0.0725817230081 0.110302664442
v -0.00875524924928 0.0726523419728 0.110321586737
v -0.00871300060594 0.07272553249 0.110341198077
v -0.00867535908642 0.0728010325567 0.110361428259
v -0.00864245943757 0.0728785719023 0.110382204864
v -0.00861441943161 0.072957872956 0.110403453517
v -0.00859133944448 0.0730386518407 0.110425098154
v -0.00857330209653 0.0731206193889 0.110447061292
v -0.0085603719568 0.0732034821781 0.11046926431
v -0.00855259531184 0.073286943581 0.110491627725
v -0.00916284210968 0.0744607144213 0.11204847009
v -0.0108371578903 0.0744607144213 0.11204847009
v -0.00916284210968 0.0739948401401 0.113787136578
v -0.0108371578903 0.0739948401401 0.113787136578
v -0.0108371578903 0.0744607144213 0.11204847009
v -0.0116743157806 0.0730601219732 0.111673182475
v -0.0108371578903 0.0739948401401 0.113787136578
v -0.0116743157806 0.072594247692 0.113411848962
v -0.0116743157806 0.0730601219732 0.111673182475
v -0.0108371578903 0.0716595295251 0.11129789486
v -0.0116743157806 0.072594247692 0.113411848962
v -0.0108371578903 0.0711936552439 0.113036561347
v -0.0108371578903 0.0716595295251 0.11129789486
v -0.00916284210968 0.0716595295251 0.11129789486
v -0.0108371578903 0.0711936552439 0.113036561347
v -0.00916284210968 0.0711936552439 0.113036561347
v -0.00916284210968 0.0716595295251 0.11129789486
v -0.00832568421935 0.0730601219732 0.111673182475
v -0.00916284210968 0.0711936552439 0.113036561347
v -0.00832568421935 0.072594247692 0.113411848962
v -0.00832568421935 0.0730601219732 0.111673182475
v -0.00916284210968 0.0744607144213 0.11204847009
v -0.00832568421935 0.072594247692 0.113411848962
v -0.00916284210968 0.0739948401401 0.113787136578
v -0.00855 0.0733707048273 0.110514071484
v -0.00855259531184 0.0734544660737 0.110536515242
v -0.0085603719568 0.0735379274766 0.110558878657
v -0.00857330209653 0.0736207902657 0.110581081675
v -0.00859133944448 0.073702757814 0.110603044813
v -0.00861441943161 0.0737835366987 0.11062468945
v -0.00864245943757 0.0738628377524 0.110645938103
v -0.00867535908642 0.073940377098 0.110666714708
v -0.00871300060594 0.0740158771647 0.11068694489
v -0.00875524924928 0.0740890676819 0.11070655623
v -0.00880195377724 0.0741596866465 0.110725478525
v -0.00885294699975 0.074227481261 0.110743644037
v -0.00890804637429 0.0742922088382 0.110760987739
v -0.00896705465942 0.0743536376702 0.110777447545
v -0.00902976062078 0.0744115478578 0.110792964533
v -0.0090959397873 0.0744657320974 0.110807483156
v -0.00916535525476 0.0745159964236 0.110820951442
v -0.00923775853377 0.0745621609031 0.110833321177
v -0.00931289043941 0.0746040602791 0.110844548081
v -0.00939048201895 0.0746415445627 0.110854591964
v -0.00947025551467 0.0746744795698 0.110863416873
v -0.00955192535816 0.0747027474018 0.110870991216
v -0.00963519919257 0.074726246867 0.110877287878
v -0.0097197789192 0.0747448938436 0.110882284321
v -0.00980536176456 0.0747586215801 0.110885962657
v -0.0098916413643 0.0747673809349 0.110888309719
v -0.00997830885983 0.0747711405517 0.110889317105
v -0.010065054004 0.0747698869721 0.110888981209
v -0.0101515662717 0.0747636246835 0.110887303234
v -0.0102375359716 0.0747523761033 0.110884289186
v -0.0103226553542 0.0747361814986 0.110879949855
v -0.0104066197145 0.0747150988418 0.110874300774
v -0.0104891284817 0.0746892036033 0.110867362166
v -0.0105698862959 0.0746585884814 0.110859158869
v -0.0106486040651 0.0746233630703 0.110849720248
v -0.010725 0.0745836534678 0.110839080092
v -0.0107988006231 0.0745396018239 0.11082727649
v -0.0108697417473 0.0744913658322 0.110814351695
v -0.0109375694218 0.0744391181649 0.110800351974
v -0.011002040841 0.0743830458552 0.110785327444
v -0.0110629252142 0.0743233496273 0.110769331888
v -0.0111200045909 0.0742602431783 0.110752422566
v -0.0111730746418 0.0741939524128 0.110734660009
v -0.01122194539 0.0741247146347 0.110716107802
v -0.0112664418909 0.0740527776971 0.110696832358
v -0.0113064048585 0.0739783991157 0.110676902677
v -0.0113416912357 0.0739018451465 0.110656390103
v -0.0113721747065 0.0738233898327 0.110635368065
v -0.011397746148 0.0737433140242 0.110613911817
v -0.0114183140211 0.0736619043714 0.110592098166
v -0.011433804698 0.0735794522998 0.1105700052
v -0.0114441627263 0.0734962529664 0.110547712006
v -0.0114493510268 0.0734126042033 0.110525298387
v -0.0114493510268 0.0733288054513 0.11050284458
v -0.0114441627263 0.0732451566882 0.110480430961
v -0.011433804698 0.0731619573549 0.110458137767
v -0.0114183140211 0.0730795052833 0.110436044801
v -0.011397746148 0.0729980956305 0.11041423115
v -0.0113721747065 0.0729180198219 0.110392774902
v -0.0113416912357 0.0728395645082 0.110371752864
v -0.0113064048585 0.072763010539 0.11035124029
v -0.0112664418909 0.0726886319576 0.110331310609
v -0.01122194539 0.07261669502 0.110312035165
v -0.0111730746418 0.0725474572419 0.110293482958
v -0.0111200045909 0.0724811664764 0.110275720401
v -0.0110629252142 0.0724180600274 0.110258811079
v -0.011002040841 0.0723583637995 0.110242815523
v -0.0109375694218 0.0723022914898 0.110227790993
v -0.0108697417473 0.0722500438225 0.110213791272
v -0.0107988006231 0.0722018078308 0.110200866477
v -0.010725 0.0721577561869 0.110189062875
v -0.0106486040651 0.0721180465844 0.110178422719
v -0.0105698862959 0.0720828211733 0.110168984098
v -0.0104891284817 0.0720522060514 0.110160780801
v -0.0104066197145 0.0720263108129 0.110153842193
v -0.0103226553542 0.0720052281561 0.110148193112
v -0.0102375359716 0.0719890335513 0.110143853781
v -0.0101515662717 0.0719777849712 0.110140839733
v -0.010065054004 0.0719715226826 0.110139161758
v -0.00997830885983 0.071970269103 0.110138825862
v -0.0098916413643 0.0719740287198 0.110139833248
v -0.00980536176456 0.0719827880745 0.11014218031
v -0.0097197789192 0.0719965158111 0.110145858646
v -0.00963519919257 0.0720151627876 0.110150855089
v -0.00955192535816 0.0720386622529 0.110157151751
v -0.00947025551467 0.0720669300848 0.110164726094
v -0.00939048201895 0.072099865092 0.110173551003
v -0.00931289043941 0.0721373493756 0.110183594886
v -0.00923775853377 0.0721792487516 0.11019482179
v -0.00916535525476 0.0722254132311 0.110207191525
v -0.0090959397873 0.0722756775573 0.110220659811
v -0.00902976062078 0.0723298617969 0.110235178434
v -0.00896705465942 0.0723877719844 0.110250695422
v -0.00890804637429 0.0724492008165 0.110267155228
v -0.00885294699975 0.0725139283937 0.11028449893
v -0.00880195377724 0.0725817230081 0.110302664442
v -0.00875524924928 0.0726523419728 0.110321586737
v -0.00871300060594 0.07272553249 0.110341198077
v -0.00867535908642 0.0728010325567 0.110361428259
v -0.00864245943757 0.0728785719023 0.110382204864
v -0.00861441943161 0.072957872956 0.110403453517
v -0.00859133944448 0.0730386518407 0.110425098154
v -0.00857330209653 0.0731206193889 0.110447061292
v -0.0085603719568 0.0732034821781 0.11046926431
v -0.00855259531184 0.073286943581 0.110491627725
v -0.00855 0.0733707048273 0.110514071484
v -0.00855 0.0749236190979 0.104718516526
v -0.00855259531184 0.0750073803443 0.104740960284
v -0.0085603719568 0.0750908417472 0.1047633237
v -0.00857330209653 0.0751737045364 0.104785526717
v -0.00859133944448 0.0752556720846 0.104807489855
v -0.00861441943161 0.0753364509693 0.104829134492
v -0.00864245943757 0.075415752023 0.104850383146
v -0.00867535908642 0.0754932913686 0.104871159751
v -0.00871300060594 0.0755687914353 0.104891389933
v -0.00875524924928 0.0756419819525 0.104911001273
v -0.00880195377724 0.0757126009171 0.104929923567
v -0.00885294699975 0.0757803955316 0.104948089079
v -0.00890804637429 0.0758451231088 0.104965432781
v -0.00896705465942 0.0759065519408 0.104981892587
v -0.00902976062078 0.0759644621284 0.104997409575
v -0.0090959397873 0.076018646368 0.105011928198
v -0.00916535525476 0.0760689106942 0.105025396484
v -0.00923775853377 0.0761150751737 0.105037766219
v -0.00931289043941 0.0761569745497 0.105048993123
v -0.00939048201895 0.0761944588333 0.105059037007
v -0.00947025551467 0.0762273938405 0.105067861915
v -0.00955192535816 0.0762556616724 0.105075436258
v -0.00963519919257 0.0762791611377 0.105081732921
v -0.0097197789192 0.0762978081142 0.105086729363
v -0.00980536176456 0.0763115358507 0.105090407699
v -0.0098916413643 0.0763202952055 0.105092754761
v -0.00997830885983 0.0763240548223 0.105093762147
v -0.010065054004 0.0763228012427 0.105093426252
v -0.0101515662717 0.0763165389541 0.105091748276
v -0.0102375359716 0.0763052903739 0.105088734228
v -0.0103226553542 0.0762890957692 0.105084394897
v -0.0104066197145 0.0762680131124 0.105078745816
v -0.0104891284817 0.0762421178739 0.105071807208
v -0.0105698862959 0.076211502752 0.105063603911
v -0.0106486040651 0.0761762773409 0.10505416529
v -0.010725 0.0761365677384 0.105043525134
v -0.0107988006231 0.0760925160945 0.105031721532
v -0.0108697417473 0.0760442801028 0.105018796737
v -0.0109375694218 0.0759920324355 0.105004797017
v -0.011002040841 0.0759359601258 0.104989772487
v -0.0110629252142 0.0758762638979 0.104973776931
v -0.0111200045909 0.0758131574489 0.104956867609
v -0.0111730746418 0.0757468666834 0.104939105051
v -0.01122194539 0.0756776289053 0.104920552845
v -0.0112664418909 0.0756056919677 0.1049012774
v -0.0113064048585 0.0755313133863 0.10488134772
v -0.0113416912357 0.0754547594171 0.104860835145
v -0.0113721747065 0.0753763041033 0.104839813107
v -0.011397746148 0.0752962282948 0.104818356859
v -0.0114183140211 0.075214818642 0.104796543208
v -0.011433804698 0.0751323665704 0.104774450242
v -0.0114441627263 0.0750491672371 0.104752157048
v -0.0114493510268 0.0749655184739 0.10472974343
v -0.0114493510268 0.074881719722 0.104707289622
v -0.0114441627263 0.0747980709588 0.104684876003
v -0.011433804698 0.0747148716255 0.104662582809
v -0.0114183140211 0.0746324195539 0.104640489843
v -0.011397746148 0.0745510099011 0.104618676192
v -0.0113721747065 0.0744709340926 0.104597219944
v -0.0113416912357 0.0743924787788 0.104576197906
v -0.0113064048585 0.0743159248096 0.104555685332
v -0.0112664418909 0.0742415462282 0.104535755651
v -0.01122194539 0.0741696092906 0.104516480207
v -0.0111730746418 0.0741003715125 0.104497928
v -0.0111200045909 0.074034080747 0.104480165443
v -0.0110629252142 0.073970974298 0.104463256121
v -0.011002040841 0.0739112780701 0.104447260565
v -0.0109375694218 0.0738552057604 0.104432236035
v -0.0108697417473 0.0738029580931 0.104418236315
v -0.0107988006231 0.0737547221014 0.10440531152
v -0.010725 0.0737106704575 0.104393507917
v -0.0106486040651 0.073670960855 0.104382867761
v -0.0105698862959 0.0736357354439 0.104373429141
v -0.0104891284817 0.073605120322 0.104365225844
v -0.0104066197145 0.0735792250835 0.104358287235
v -0.0103226553542 0.0735581424267 0.104352638154
v -0.0102375359716 0.073541947822 0.104348298823
v -0.0101515662717 0.0735306992418 0.104345284775
v -0.010065054004 0.0735244369532 0.1043436068
v -0.00997830885983 0.0735231833736 0.104343270904
v -0.0098916413643 0.0735269429904 0.104344278291
v -0.00980536176456 0.0735357023452 0.104346625353
v -0.0097197789192 0.0735494300817 0.104350303689
v -0.00963519919257 0.0735680770582 0.104355300131
v -0.00955192535816 0.0735915765235 0.104361596794
v -0.00947025551467 0.0736198443554 0.104369171136
v -0.00939048201895 0.0736527793626 0.104377996045
v -0.00931289043941 0.0736902636462 0.104388039929
v -0.00923775853377 0.0737321630222 0.104399266832
v -0.00916535525476 0.0737783275017 0.104411636567
v -0.0090959397873 0.0738285918279 0.104425104853
v -0.00902976062078 0.0738827760675 0.104439623476
v -0.00896705465942 0.0739406862551 0.104455140464
v -0.00890804637429 0.0740021150871 0.10447160027
v -0.00885294699975 0.0740668426643 0.104488943972
v -0.00880195377724 0.0741346372788 0.104507109484
v -0.00875524924928 0.0742052562434 0.104526031779
v -0.00871300060594 0.0742784467606 0.104545643119
v -0.00867535908642 0.0743539468273 0.104565873301
v -0.00864245943757 0.0744314861729 0.104586649906
v -0.00861441943161 0.0745107872266 0.104607898559
v -0.00859133944448 0.0745915661113 0.104629543196
v -0.00857330209653 0.0746735336595 0.104651506335
v -0.0085603719568 0.0747563964487 0.104673709352
v -0.00855259531184 0.0748398578516 0.104696072767
v -0.00855 0.0749236190979 0.104718516526
v -0.00832568421935 0.0730601219732 0.111673182475
v -0.00916284210968 0.0744607144213 0.11204847009
v -0.0108371578903 0.0744607144213 0.11204847009
v -0.0116743157806 0.0730601219732 0.111673182475
v -0.0108371578903 0.0716595295251 0.11129789486
v -0.00916284210968 0.0716595295251 0.11129789486
v -0.00855 0.0749236190979 0.104718516526
v -0.00855259531184 0.0750073803443 0.104740960284
v -0.0085603719568 0.0750908417472 0.1047633237
v -0.00857330209653 0.0751737045364 0.104785526717
v -0.00859133944448 0.0752556720846 0.104807489855
v -0.00861441943161 0.0753364509693 0.104829134492
v -0.00864245943757 0.075415752023 0.104850383146
v -0.00867535908642 0.0754932913686 0.104871159751
v -0.00871300060594 0.0755687914353 0.104891389933
v -0.00875524924928 0.0756419819525 0.104911001273
v -0.00880195377724 0.0757126009171 0.104929923567
v -0.00885294699975 0.0757803955316 0.104948089079
v -0.00890804637429 0.0758451231088 0.104965432781
v -0.00896705465942 0.0759065519408 0.104981892587
v -0.00902976062078 0.0759644621284 0.104997409575
v -0.0090959397873 0.076018646368 0.105011928198
v -0.00916535525476 0.0760689106942 0.105025396484
v -0.00923775853377 0.0761150751737 0.105037766219
v -0.00931289043941 0.0761569745497 0.105048993123
v -0.00939048201895 0.0761944588333 0.105059037007
v -0.00947025551467 0.0762273938405 0.105067861915
v -0.00955192535816 0.0762556616724 0.105075436258
v -0.00963519919257 0.0762791611377 0.105081732921
v -0.0097197789192 0.0762978081142 0.105086729363
v -0.00980536176456 0.0763115358507 0.105090407699
v -0.0098916413643 0.0763202952055 0.105092754761
v -0.00997830885983 0.0763240548223 0.105093762147
v -0.010065054004 0.0763228012427 0.105093426252
v -0.0101515662717 0.0763165389541 0.105091748276
v -0.0102375359716 0.0763052903739 0.105088734228
v -0.0103226553542 0.0762890957692 0.105084394897
v -0.0104066197145 0.0762680131124 0.105078745816
v -0.0104891284817 0.0762421178739 0.105071807208
v -0.0105698862959 0.076211502752 0.105063603911
v -0.0106486040651 0.0761762773409 0.10505416529
v -0.010725 0.0761365677384 0.105043525134
v -0.0107988006231 0.0760925160945 0.105031721532
v -0.0108697417473 0.0760442801028 0.105018796737
v -0.0109375694218 0.0759920324355 0.105004797017
v -0.011002040841 0.0759359601258 0.104989772487
v -0.0110629252142 0.0758762638979 0.104973776931
v -0.0111200045909 0.0758131574489 0.104956867609
v -0.0111730746418 0.0757468666834 0.104939105051
v -0.01122194539 0.0756776289053 0.104920552845
v -0.0112664418909 0.0756056919677 0.1049012774
v -0.0113064048585 0.0755313133863 0.10488134772
v -0.0113416912357 0.0754547594171 0.104860835145
v -0.0113721747065 0.0753763041033 0.104839813107
v -0.011397746148 0.0752962282948 0.104818356859
v -0.0114183140211 0.075214818642 0.104796543208
v -0.011433804698 0.0751323665704 0.104774450242
v -0.0114441627263 0.0750491672371 0.104752157048
v -0.0114493510268 0.0749655184739 0.10472974343
v -0.0114493510268 0.074881719722 0.104707289622
v -0.0114441627263 0.0747980709588 0.104684876003
v -0.011433804698 0.0747148716255 0.104662582809
v -0.0114183140211 0.0746324195539 0.104640489843
v -0.011397746148 0.0745510099011 0.104618676192
v -0.0113721747065 0.0744709340926 0.104597219944
v -0.0113416912357 0.0743924787788 0.104576197906
v -0.0113064048585 0.0743159248096 0.104555685332
v -0.0112664418909 0.0742415462282 0.104535755651
v -0.01122194539 0.0741696092906 0.104516480207
v -0.0111730746418 0.0741003715125 0.104497928
v -0.0111200045909 0.074034080747 0.104480165443
v -0.0110629252142 0.073970974298 0.104463256121
v -0.011002040841 0.0739112780701 0.104447260565
v -0.0109375694218 0.0738552057604 0.104432236035
v -0.0108697417473 0.0738029580931 0.104418236315
v -0.0107988006231 0.0737547221014 0.10440531152
v -0.010725 0.0737106704575 0.104393507917
v -0.0106486040651 0.073670960855 0.104382867761
v -0.0105698862959 0.0736357354439 0.104373429141
v -0.0104891284817 0.073605120322 0.104365225844
v -0.0104066197145 0.0735792250835 0.104358287235
v -0.0103226553542 0.0735581424267 0.104352638154
v -0.0102375359716 0.073541947822 0.104348298823
v -0.0101515662717 0.0735306992418 0.104345284775
v -0.010065054004 0.0735244369532 0.1043436068
v -0.00997830885983 0.0735231833736 0.104343270904
v -0.0098916413643 0.0735269429904 0.104344278291
v -0.00980536176456 0.0735357023452 0.104346625353
v -0.0097197789192 0.0735494300817 0.104350303689
v -0.00963519919257 0.0735680770582 0.104355300131
v -0.00955192535816 0.0735915765235 0.104361596794
v -0.00947025551467 0.0736198443554 0.104369171136
v -0.00939048201895 0.0736527793626 0.104377996045
v -0.00931289043941 0.0736902636462 0.104388039929
v -0.00923775853377 0.0737321630222 0.104399266832
v -0.00916535525476 0.0737783275017 0.104411636567
v -0.0090959397873 0.0738285918279 0.104425104853
v -0.00902976062078 0.0738827760675 0.104439623476
v -0.00896705465942 0.0739406862551 0.104455140464
v -0.00890804637429 0.0740021150871 0.10447160027
v -0.00885294699975 0.0740668426643 0.104488943972
v -0.00880195377724 0.0741346372788 0.104507109484
v -0.00875524924928 0.0742052562434 0.104526031779
v -0.00871300060594 0.0742784467606 0.104545643119
v -0.00867535908642 0.0743539468273 0.104565873301
v -0.00864245943757 0.0744314861729 0.104586649906
v -0.00861441943161 0.0745107872266 0.104607898559
v -0.00859133944448 0.0745915661113 0.104629543196
v -0.00857330209653 0.0746735336595 0.104651506335
v -0.0085603719568 0.0747563964487 0.104673709352
v -0.00855259531184 0.0748398578516 0.104696072767
f 2 1 107
f 2 107 108
f 3 108 109
f 3 2 108
f 4 109 110
f 4 110 111
f 4 3 109
f 5 4 111
f 6 111 112
f 6 5 111
f 7 112 113
f 7 6 112
f 8 113 114
f 8 7 113
f 9 114 115
f 9 8 114
f 10 115 116
f 10 116 117
f 10 9 115
f 11 117 118
f 11 10 117
f 12 11 118
f 13 118 119
f 13 12 118
f 14 119 120
f 14 13 119
f 15 120 121
f 15 14 120
f 16 121 122
f 16 15 121
f 17 122 123
f 17 16 122
f 18 123 124
f 18 17 123
f 19 124 125
f 19 18 124
f 20 125 126
f 20 19 125
f 21 126 127
f 21 20 126
f 22 127 128
f 22 21 127
f 23 22 128
f 23 128 129
f 24 23 129
f 24 129 130
f 25 24 130
f 25 130 131
f 25 131 132
f 26 25 132
f 27 26 132
f 27 132 133
f 28 27 133
f 28 133 134
f 29 28 134
f 29 134 135
f 30 29 135
f 30 135 136
f 31 30 136
f 31 136 137
f 32 137 138
f 32 31 137
f 33 138 139
f 33 32 138
f 34 139 140
f 34 33 139
f 35 140 141
f 35 34 140
f 36 141 142
f 36 142 143
f 36 35 141
f 37 36 143
f 38 143 144
f 38 144 145
f 38 37 143
f 39 38 145
f 40 145 146
f 40 39 145
f 41 146 147
f 41 40 146
f 42 147 148
f 42 41 147
f 43 148 149
f 43 42 148
f 44 149 150
f 44 43 149
f 45 150 151
f 45 151 152
f 45 44 150
f 46 45 152
f 47 152 153
f 47 46 152
f 48 153 154
f 48 47 153
f 49 48 154
f 49 154 155
f 50 49 155
f 50 155 156
f 51 50 156
f 51 156 157
f 52 51 157
f 52 157 158
f 53 52 158
f 53 158 159
f 54 53 159
f 54 159 160
f 55 54 160
f 55 160 161
f 56 55 161
f 56 161 162
f 57 56 162
f 57 162 163
f 58 57 163
f 58 163 164
f 59 58 164
f 59 164 165
f 60 59 165
f 60 165 166
f 61 60 166
f 61 166 167
f 62 61 167
f 62 167 168
f 63 62 168
f 63 168 169
f 64 63 169
f 64 169 170
f 65 64 170
f 65 170 171
f 66 171 172
f 66 65 171
f 67 172 173
f 67 66 172
f 68 173 174
f 68 67 173
f 69 174 175
f 69 175 176
f 69 68 174
f 70 69 176
f 71 176 177
f 71 70 176
f 72 177 178
f 72 71 177
f 73 72 178
f 73 178 179
f 74 73 179
f 74 179 180
f 75 74 180
f 75 180 181
f 76 75 181
f 76 181 182
f 77 76 182
f 77 182 183
f 78 77 183
f 78 183 184
f 79 78 184
f 79 184 185
f 80 79 185
f 80 185 186
f 81 80 186
f 81 186 187
f 82 81 187
f 82 187 188
f 83 82 188
f 83 188 189
f 84 83 189
f 84 189 190
f 85 84 190
f 85 190 191
f 86 85 191
f 86 191 192
f 87 86 192
f 87 192 193
f 88 87 193
f 88 193 194
f 89 88 194
f 89 194 195
f 90 89 195
f 90 195 196
f 91 90 196
f 91 196 197
f 92 91 197
f 92 197 198
f 93 92 198
f 93 198 199
f 94 93 199
f 94 199 200
f 95 94 200
f 95 200 201
f 96 95 201
f 96 201 202
f 97 202 203
f 97 96 202
f 98 203 204
f 98 97 203
f 99 98 204
f 99 204 205
f 100 205 206
f 100 99 205
f 101 206 207
f 101 100 206
f 102 207 208
f 102 101 207
f 103 208 209
f 103 102 208
f 104 209 210
f 104 103 209
f 105 210 211
f 105 104 210
f 106 105 211
f 106 211 212
f 322 274 275
f 322 275 276
f 322 276 277
f 322 277 278
f 322 278 279
f 322 279 280
f 322 280 281
f 322 281 282
f 322 282 283
f 322 283 284
f 322 284 285
f 322 285 286
f 322 286 287
f 322 287 288
f 322 288 289
f 322 289 290
f 322 290 291
f 322 291 292
f 323 260 261
f 323 261 262
f 323 262 263
f 323 263 264
f 323 264 265
f 323 265 266
f 323 266 267
f 323 267 268
f 323 268 269
f 323 269 270
f 323 270 271
f 323 271 272
f 323 272 273
f 323 273 274
f 323 274 322
f 259 260 323
f 258 259 323
f 257 258 323
f 321 292 293
f 321 322 292
f 321 293 294
f 321 294 295
f 321 295 296
f 321 296 297
f 321 297 298
f 321 298 299
f 321 299 300
f 321 300 301
f 321 301 302
f 303 321 302
f 304 321 303
f 305 321 304
f 306 321 305
f 307 321 306
f 318 257 323
f 318 250 251
f 318 251 252
f 318 252 253
f 318 253 254
f 318 254 255
f 318 255 256
f 318 256 257
f 308 321 307
f 249 250 318
f 309 321 308
f 248 249 318
f 247 248 318
f 246 247 318
f 245 246 318
f 320 321 309
f 320 309 310
f 320 310 311
f 320 311 312
f 313 320 312
f 244 245 318
f 314 320 313
f 243 244 318
f 315 320 314
f 242 243 318
f 316 320 315
f 241 242 318
f 317 320 316
f 240 241 318
f 213 320 317
f 239 318 319
f 239 240 318
f 214 320 213
f 238 239 319
f 215 320 214
f 237 238 319
f 216 320 215
f 236 237 319
f 217 320 216
f 235 236 319
f 218 320 217
f 234 235 319
f 219 320 218
f 233 234 319
f 220 320 219
f 232 233 319
f 221 320 220
f 231 232 319
f 222 319 320
f 222 320 221
f 230 231 319
f 223 319 222
f 229 230 319
f 224 319 223
f 228 229 319
f 225 319 224
f 227 228 319
f 226 319 225
f 226 227 319
f 495 391 390
f 494 495 390
f 494 390 389
f 496 391 495
f 493 389 388
f 493 494 389
f 497 391 496
f 497 392 391
f 492 388 387
f 492 493 388
f 498 392 497
f 498 393 392
f 491 387 386
f 491 492 387
f 499 394 393
f 499 393 498
f 490 386 385
f 490 491 386
f 500 395 394
f 500 394 499
f 489 385 384
f 489 490 385
f 501 396 395
f 501 397 396
f 501 395 500
f 488 489 384
f 488 384 383
f 502 397 501
f 487 383 382
f 487 488 383
f 503 398 397
f 503 399 398
f 503 397 502
f 486 382 381
f 486 487 382
f 504 399 503
f 485 486 381
f 485 381 380
f 505 399 504
f 505 400 399
f 484 485 380
f 484 380 379
f 506 400 505
f 506 401 400
f 483 484 379
f 483 379 378
f 507 402 401
f 507 401 506
f 482 483 378
f 482 378 377
f 508 402 507
f 508 403 402
f 481 482 377
f 481 377 376
f 509 403 508
f 509 404 403
f 480 481 376
f 480 376 375
f 510 404 509
f 510 405 404
f 510 406 405
f 479 375 374
f 479 480 375
f 511 406 510
f 478 479 374
f 478 374 373
f 512 406 511
f 512 407 406
f 477 478 373
f 477 373 372
f 513 407 512
f 513 408 407
f 476 372 371
f 476 477 372
f 514 408 513
f 514 409 408
f 475 371 370
f 475 476 371
f 515 409 514
f 515 410 409
f 474 370 369
f 474 475 370
f 516 410 515
f 516 411 410
f 473 369 368
f 473 474 369
f 517 411 516
f 517 412 411
f 472 473 368
f 472 367 366
f 472 368 367
f 518 412 517
f 518 413 412
f 471 472 366
f 519 414 413
f 519 413 518
f 470 366 365
f 470 471 366
f 364 470 365
f 520 415 414
f 520 414 519
f 469 470 364
f 416 415 520
f 416 520 521
f 363 469 364
f 363 468 469
f 522 416 521
f 417 416 522
f 417 522 523
f 362 468 363
f 362 467 468
f 418 417 523
f 418 523 524
f 361 467 362
f 361 466 467
f 419 418 524
f 419 524 525
f 360 465 466
f 360 466 361
f 420 419 525
f 359 465 360
f 359 464 465
f 421 525 526
f 421 420 525
f 358 463 464
f 358 464 359
f 422 526 527
f 422 527 528
f 422 421 526
f 357 462 463
f 357 463 358
f 423 422 528
f 356 461 462
f 356 462 357
f 424 528 529
f 424 529 530
f 424 423 528
f 355 460 461
f 355 461 356
f 425 424 530
f 354 460 355
f 354 459 460
f 426 530 531
f 426 425 530
f 353 458 459
f 353 459 354
f 427 531 532
f 427 532 533
f 427 426 531
f 352 457 458
f 352 458 353
f 428 427 533
f 351 455 456
f 351 456 457
f 351 457 352
f 324 533 429
f 324 428 533
f 350 455 351
f 325 429 430
f 325 324 429
f 349 454 455
f 349 455 350
f 326 325 430
f 326 430 431
f 348 453 454
f 348 454 349
f 327 431 432
f 327 326 431
f 347 452 453
f 347 453 348
f 328 432 433
f 328 327 432
f 346 450 451
f 346 451 452
f 346 452 347
f 329 433 434
f 329 328 433
f 345 449 450
f 345 450 346
f 330 434 435
f 330 329 434
f 344 449 345
f 331 435 436
f 331 330 435
f 343 449 344
f 343 448 449
f 332 331 436
f 332 436 437
f 342 448 343
f 342 447 448
f 333 437 438
f 333 438 439
f 333 332 437
f 341 447 342
f 341 445 446
f 341 446 447
f 334 333 439
f 340 445 341
f 340 444 445
f 335 439 440
f 335 440 441
f 335 334 439
f 339 444 340
f 339 443 444
f 336 335 441
f 338 443 339
f 337 441 442
f 337 442 443
f 337 443 338
f 337 336 441
f 534 536 537
f 535 534 537
f 539 538 540
f 539 540 541
f 543 542 544
f 543 544 545
f 546 548 549
f 547 546 549
f 551 550 552
f 551 552 553
f 554 556 557
f 555 554 557
f 559 558 664
f 559 664 665
f 560 665 666
f 560 559 665
f 561 666 667
f 561 560 666
f 562 667 668
f 562 561 667
f 563 668 669
f 563 669 670
f 563 562 668
f 564 563 670
f 565 670 671
f 565 564 670
f 566 671 672
f 566 565 671
f 567 672 673
f 567 566 672
f 568 673 674
f 568 567 673
f 569 674 675
f 569 568 674
f 570 675 676
f 570 569 675
f 571 676 677
f 571 570 676
f 572 677 678
f 572 571 677
f 573 678 679
f 573 572 678
f 574 679 680
f 574 573 679
f 575 680 681
f 575 681 682
f 575 574 680
f 576 575 682
f 577 682 683
f 577 576 682
f 578 683 684
f 578 577 683
f 579 684 685
f 579 685 686
f 579 578 684
f 580 579 686
f 580 686 687
f 581 580 687
f 582 581 687
f 582 687 688
f 583 582 688
f 583 688 689
f 584 583 689
f 584 689 690
f 585 584 690
f 585 690 691
f 585 691 692
f 586 585 692
f 586 692 693
f 587 586 693
f 588 587 693
f 588 693 694
f 588 694 695
f 589 695 696
f 589 588 695
f 590 589 696
f 591 696 697
f 591 590 696
f 592 697 698
f 592 698 699
f 592 591 697
f 593 592 699
f 594 699 700
f 594 593 699
f 595 700 701
f 595 594 700
f 596 701 702
f 596 595 701
f 597 702 703
f 597 596 702
f 598 703 704
f 598 597 703
f 599 704 705
f 599 598 704
f 600 705 706
f 600 599 705
f 601 706 707
f 601 600 706
f 602 707 708
f 602 601 707
f 603 708 709
f 603 602 708
f 604 709 710
f 604 603 709
f 605 710 711
f 605 604 710
f 606 605 711
f 606 711 712
f 606 712 713
f 607 606 713
f 608 607 713
f 608 713 714
f 609 608 714
f 609 714 715
f 610 609 715
f 610 715 716
f 611 610 716
f 611 716 717
f 612 611 717
f 612 717 718
f 613 612 718
f 613 718 719
f 614 613 719
f 614 719 720
f 614 720 721
f 615 614 721
f 616 615 721
f 616 721 722
f 617 616 722
f 617 722 723
f 618 617 723
f 618 723 724
f 619 618 724
f 619 724 725
f 620 619 725
f 620 725 726
f 621 620 726
f 621 726 727
f 622 621 727
f 622 727 728
f 623 728 729
f 623 622 728
f 624 729 730
f 624 730 731
f 624 623 729
f 625 624 731
f 626 731 732
f 626 625 731
f 627 732 733
f 627 733 734
f 627 626 732
f 628 627 734
f 629 734 735
f 629 628 734
f 630 629 735
f 630 735 736
f 631 630 736
f 631 736 737
f 632 631 737
f 632 737 738
f 633 632 738
f 633 738 739
f 634 633 739
f 634 739 740
f 635 634 740
f 635 740 741
f 636 635 741
f 636 741 742
f 637 636 742
f 637 742 743
f 638 637 743
f 638 743 744
f 639 638 744
f 639 744 745
f 640 639 745
f 640 745 746
f 641 640 746
f 641 746 747
f 642 641 747
f 642 747 748
f 643 642 748
f 643 748 749
f 644 643 749
f 644 749 750
f 645 644 750
f 645 750 751
f 646 645 751
f 646 751 752
f 647 646 752
f 647 752 753
f 648 647 753
f 648 753 754
f 649 648 754
f 649 754 755
f 650 649 755
f 650 755 756
f 651 650 756
f 651 756 757
f 652 651 757
f 652 757 758
f 653 652 758
f 653 758 759
f 654 759 760
f 654 653 759
f 655 760 761
f 655 654 760
f 656 655 761
f 656 761 762
f 657 762 763
f 657 656 762
f 658 763 764
f 658 657 763
f 659 764 765
f 659 658 764
f 660 765 766
f 660 659 765
f 661 766 767
f 661 767 768
f 661 660 766
f 662 661 768
f 663 768 769
f 663 662 768
f 772 773 774
f 772 774 775
f 771 775 770
f 771 772 775
f 838 840 839
f 833 835 834
f 833 836 835
f 853 850 849
f 853 851 850
f 853 852 851
f 856 854 853
f 856 855 854
f 827 829 828
f 827 830 829
f 858 857 856
f 821 823 822
f 863 860 859
f 863 861 860
f 863 862 861
f 864 863 859
f 819 821 820
f 819 823 821
f 866 865 864
f 815 817 816
f 869 868 867
f 814 840 838
f 814 836 833
f 814 830 827
f 814 818 817
f 814 819 818
f 814 824 823
f 814 825 824
f 814 826 825
f 814 827 826
f 814 831 830
f 814 832 831
f 814 833 832
f 814 837 836
f 814 838 837
f 814 841 840
f 814 842 841
f 814 823 819
f 814 817 815
f 812 814 813
f 812 843 842
f 812 842 814
f 812 844 843
f 812 845 844
f 812 846 845
f 873 870 869
f 873 871 870
f 873 872 871
f 874 873 869
f 809 811 810
f 809 812 811
f 807 812 809
f 807 809 808
f 807 847 846
f 807 848 847
f 807 849 848
f 807 846 812
f 877 869 867
f 877 874 869
f 877 875 874
f 877 876 875
f 805 807 806
f 804 807 805
f 880 879 878
f 778 777 776
f 778 776 880
f 800 802 801
f 800 803 802
f 800 804 803
f 800 853 849
f 800 849 807
f 800 807 804
f 800 856 853
f 800 858 856
f 800 859 858
f 779 880 878
f 779 778 880
f 798 800 799
f 781 878 877
f 781 780 779
f 781 779 878
f 797 800 798
f 783 782 781
f 795 797 796
f 794 866 864
f 794 797 795
f 794 859 800
f 794 800 797
f 794 867 866
f 794 864 859
f 785 784 783
f 786 783 781
f 786 785 783
f 787 786 781
f 791 793 792
f 791 794 793
f 789 787 781
f 789 794 791
f 789 788 787
f 789 791 790
f 789 781 877
f 789 877 867
f 789 867 794
