v -0.047 0.0689960335523 0.0939990888545
v -0.047 0.0664078431013 0.103658347117
v -0.047 0.0854167725992 0.0983990126213
v -0.047 0.0828285821482 0.108058270884
v -0.021 0.0689960335523 0.0939990888545
v -0.021 0.0664078431013 0.103658347117
v -0.021 0.0854167725992 0.0983990126213
v -0.021 0.0828285821482 0.108058270884
v -0.047 0.0689960335523 0.0939990888545
v -0.021 0.0689960335523 0.0939990888545
v -0.047 0.0664078431013 0.103658347117
v -0.021 0.0664078431013 0.103658347117
v -0.047 0.0854167725992 0.0983990126213
v -0.021 0.0854167725992 0.0983990126213
v -0.047 0.0828285821482 0.108058270884
v -0.021 0.0828285821482 0.108058270884
v -0.047 0.0689960335523 0.0939990888545
v -0.047 0.0854167725992 0.0983990126213
v -0.021 0.0689960335523 0.0939990888545
v -0.021 0.0854167725992 0.0983990126213
v -0.047 0.0664078431013 0.103658347117
v -0.047 0.0828285821482 0.108058270884
v -0.021 0.0664078431013 0.103658347117
v -0.021 0.0828285821482 0.108058270884
f 1 4 3
f 2 4 1
f 5 7 8
f 6 5 8
f 10 11 9
f 12 11 10
f 16 14 13
f 16 13 15
f 20 17 18
f 20 19 17
f 24 22 21
f 24 21 23
