v 0.02925 0.0538534284249 0.109943175845
v 0.0292450778569 0.0540122859611 0.109985741593
v 0.0292303290474 0.0541705748286 0.110028154968
v 0.0292058063686 0.0543277283943 0.110070264139
v 0.0291715976053 0.0544831840892 0.110111918367
v 0.0291278252159 0.0546363854222 0.11015296854
v 0.0290746458943 0.0547867839724 0.11019326771
v 0.0290122500085 0.054933841352 0.110232671616
v 0.0289408609198 0.0550770311337 0.110271039203
v 0.0288607341824 0.0552158407353 0.110308233123
v 0.0287721566294 0.0553497732544 0.110344120234
v 0.0286754453453 0.0554783492474 0.110378572067
v 0.0285709465315 0.0556011084455 0.110411465295
v 0.0284590342666 0.0557176114028 0.110442682168
v 0.0283401091675 0.0558274410688 0.110472110939
v 0.0282145969551 0.0559302042819 0.110499646259
v 0.0280829469306 0.0560255331764 0.110525189559
v 0.027945630367 0.0561130864996 0.110548649401
v 0.0278031388218 0.0561925508334 0.110569941805
v 0.0276559823779 0.0562636417161 0.11058899055
v 0.027504687817 0.0563261046607 0.110605727445
v 0.0273497967345 0.0563797160661 0.110620092578
v 0.0271918636003 0.0564242840174 0.110632034525
v 0.0270314537739 0.056459648973 0.110641510536
v 0.026869141481 0.0564856843354 0.11064848669
v 0.0267055077574 0.0565022969048 0.110652938015
v 0.0265411383693 0.0565094272125 0.110654848575
v 0.0263766217165 0.0565070497338 0.110654211532
v 0.026212546726 0.0564951729796 0.110651029165
v 0.0260495007436 0.0564738394656 0.110645312867
v 0.0258880674316 0.05644312556 0.110637083101
v 0.0257288246794 0.0564031412109 0.110626369327
v 0.0255723425347 0.0563540295517 0.110613209897
v 0.025419181163 0.0562959663895 0.11059765192
v 0.0252698888421 0.0562291595753 0.110579751088
v 0.025125 0.0561538482602 0.110559571482
v 0.024985033301 0.0560703020391 0.11053718534
v 0.0248504897896 0.0559788199858 0.110512672797
v 0.0247218510967 0.0558797295823 0.110486121604
v 0.0245995777153 0.0557733855466 0.110457626805
v 0.0244841073525 0.0556601685627 0.110427290406
v 0.0243758533621 0.055540483918 0.110395221002
v 0.0242752032655 0.0554147600525 0.110361533394
v 0.0241825173637 0.055283447025 0.110326348174
v 0.0240981274483 0.055147014902 0.110289791297
v 0.0240223356133 0.0550059520752 0.110251993626
v 0.0239554131737 0.0548607635129 0.110213090468
v 0.0238975996946 0.0547119689523 0.110173221086
v 0.0238491021331 0.0545601010395 0.110132528201
v 0.023810094098 0.0544057034222 0.110091157484
v 0.0237807152279 0.0542493288037 0.110049257032
v 0.0237610706915 0.0540915369646 0.110006976836
v 0.0237512308112 0.0539328927587 0.109964468249
v 0.0237512308112 0.0537739640911 0.109921883441
v 0.0237610706915 0.0536153198852 0.109879374854
v 0.0237807152279 0.0534575280461 0.109837094658
v 0.023810094098 0.0533011534276 0.109795194205
v 0.0238491021331 0.0531467558102 0.109753823488
v 0.0238975996946 0.0529948878974 0.109713130604
v 0.0239554131737 0.0528460933369 0.109673261222
v 0.0240223356133 0.0527009047745 0.109634358063
v 0.0240981274483 0.0525598419477 0.109596560393
v 0.0241825173637 0.0524234098248 0.109560003516
v 0.0242752032655 0.0522920967973 0.109524818296
v 0.0243758533621 0.0521663729318 0.109491130688
v 0.0244841073525 0.0520466882871 0.109459061284
v 0.0245995777153 0.0519334713032 0.109428724885
v 0.0247218510967 0.0518271272675 0.109400230086
v 0.0248504897896 0.051728036864 0.109373678893
v 0.024985033301 0.0516365548107 0.10934916635
v 0.025125 0.0515530085896 0.109326780208
v 0.0252698888421 0.0514776972745 0.109306600602
v 0.025419181163 0.0514108904603 0.10928869977
v 0.0255723425347 0.051352827298 0.109273141792
v 0.0257288246794 0.0513037156389 0.109259982363
v 0.0258880674316 0.0512637312897 0.109249268589
v 0.0260495007436 0.0512330173842 0.109241038823
v 0.026212546726 0.0512116838701 0.109235322525
v 0.0263766217165 0.0511998071159 0.109232140158
v 0.0265411383693 0.0511974296373 0.109231503115
v 0.0267055077574 0.051204559945 0.109233413675
v 0.026869141481 0.0512211725144 0.109237864999
v 0.0270314537739 0.0512472078768 0.109244841154
v 0.0271918636003 0.0512825728323 0.109254317165
v 0.0273497967345 0.0513271407837 0.109266259112
v 0.027504687817 0.0513807521891 0.109280624244
v 0.0276559823779 0.0514432151337 0.10929736114
v 0.0278031388218 0.0515143060164 0.109316409885
v 0.027945630367 0.0515937703501 0.109337702289
v 0.0280829469306 0.0516813236734 0.109361162131
v 0.0282145969551 0.0517766525679 0.109386705431
v 0.0283401091675 0.051879415781 0.109414240751
v 0.0284590342666 0.051989245447 0.109443669521
v 0.0285709465315 0.0521057484043 0.109474886395
v 0.0286754453453 0.0522285076024 0.109507779623
v 0.0287721566294 0.0523570835954 0.109542231456
v 0.0288607341824 0.0524910161145 0.109578118567
v 0.0289408609198 0.052629825716 0.109615312487
v 0.0290122500085 0.0527730154978 0.109653680074
v 0.0290746458943 0.0529200728773 0.10969308398
v 0.0291278252159 0.0530704714275 0.10973338315
v 0.0291715976053 0.0532236727606 0.109774433323
v 0.0292058063686 0.0533791284555 0.109816087551
v 0.0292303290474 0.0535362820211 0.109858196722
v 0.0292450778569 0.0536945708886 0.109900610096
v 0.02925 0.0538534284249 0.109943175845
v 0.02925 0.0546298855602 0.107045398366
v 0.0292450778569 0.0547887430964 0.107087964115
v 0.0292303290474 0.0549470319639 0.107130377489
v 0.0292058063686 0.0551041855296 0.10717248666
v 0.0291715976053 0.0552596412245 0.107214140888
v 0.0291278252159 0.0554128425575 0.107255191061
v 0.0290746458943 0.0555632411077 0.107295490231
v 0.0290122500085 0.0557102984873 0.107334894137
v 0.0289408609198 0.055853488269 0.107373261724
v 0.0288607341824 0.0559922978706 0.107410455644
v 0.0287721566294 0.0561262303897 0.107446342755
v 0.0286754453453 0.0562548063827 0.107480794588
v 0.0285709465315 0.0563775655808 0.107513687816
v 0.0284590342666 0.0564940685381 0.107544904689
v 0.0283401091675 0.0566038982041 0.10757433346
v 0.0282145969551 0.0567066614172 0.10760186878
v 0.0280829469306 0.0568019903117 0.10762741208
v 0.027945630367 0.0568895436349 0.107650871922
v 0.0278031388218 0.0569690079687 0.107672164326
v 0.0276559823779 0.0570400988514 0.107691213071
v 0.027504687817 0.057102561796 0.107707949967
v 0.0273497967345 0.0571561732014 0.107722315099
v 0.0271918636003 0.0572007411527 0.107734257046
v 0.0270314537739 0.0572361061083 0.107743733057
v 0.026869141481 0.0572621414707 0.107750709211
v 0.0267055077574 0.0572787540401 0.107755160536
v 0.0265411383693 0.0572858843478 0.107757071096
v 0.0263766217165 0.0572835068691 0.107756434053
v 0.026212546726 0.0572716301149 0.107753251686
v 0.0260495007436 0.0572502966009 0.107747535388
v 0.0258880674316 0.0572195826953 0.107739305622
v 0.0257288246794 0.0571795983462 0.107728591848
v 0.0255723425347 0.057130486687 0.107715432419
v 0.025419181163 0.0570724235248 0.107699874441
v 0.0252698888421 0.0570056167106 0.107681973609
v 0.025125 0.0569303053955 0.107661794003
v 0.024985033301 0.0568467591744 0.107639407861
v 0.0248504897896 0.0567552771211 0.107614895318
v 0.0247218510967 0.0566561867176 0.107588344125
v 0.0245995777153 0.0565498426819 0.107559849326
v 0.0244841073525 0.056436625698 0.107529512927
v 0.0243758533621 0.0563169410533 0.107497443523
v 0.0242752032655 0.0561912171878 0.107463755915
v 0.0241825173637 0.0560599041603 0.107428570695
v 0.0240981274483 0.0559234720374 0.107392013818
v 0.0240223356133 0.0557824092105 0.107354216147
v 0.0239554131737 0.0556372206482 0.107315312989
v 0.0238975996946 0.0554884260877 0.107275443607
v 0.0238491021331 0.0553365581749 0.107234750722
v 0.023810094098 0.0551821605575 0.107193380006
v 0.0237807152279 0.055025785939 0.107151479553
v 0.0237610706915 0.0548679940999 0.107109199357
v 0.0237512308112 0.054709349894 0.10706669077
v 0.0237512308112 0.0545504212264 0.107024105962
v 0.0237610706915 0.0543917770205 0.106981597375
v 0.0237807152279 0.0542339851814 0.106939317179
v 0.023810094098 0.0540776105629 0.106897416726
v 0.0238491021331 0.0539232129455 0.10685604601
v 0.0238975996946 0.0537713450327 0.106815353125
v 0.0239554131737 0.0536225504722 0.106775483743
v 0.0240223356133 0.0534773619098 0.106736580585
v 0.0240981274483 0.053336299083 0.106698782914
v 0.0241825173637 0.0531998669601 0.106662226037
v 0.0242752032655 0.0530685539326 0.106627040817
v 0.0243758533621 0.0529428300671 0.106593353209
v 0.0244841073525 0.0528231454224 0.106561283805
v 0.0245995777153 0.0527099284385 0.106530947406
v 0.0247218510967 0.0526035844028 0.106502452607
v 0.0248504897896 0.0525044939993 0.106475901414
v 0.024985033301 0.052413011946 0.106451388871
v 0.025125 0.0523294657249 0.106429002729
v 0.0252698888421 0.0522541544098 0.106408823123
v 0.025419181163 0.0521873475956 0.106390922291
v 0.0255723425347 0.0521292844334 0.106375364313
v 0.0257288246794 0.0520801727742 0.106362204884
v 0.0258880674316 0.052040188425 0.10635149111
v 0.0260495007436 0.0520094745195 0.106343261344
v 0.026212546726 0.0519881410054 0.106337545046
v 0.0263766217165 0.0519762642512 0.106334362679
v 0.0265411383693 0.0519738867726 0.106333725636
v 0.0267055077574 0.0519810170803 0.106335636196
v 0.026869141481 0.0519976296497 0.106340087521
v 0.0270314537739 0.0520236650121 0.106347063675
v 0.0271918636003 0.0520590299676 0.106356539686
v 0.0273497967345 0.052103597919 0.106368481633
v 0.027504687817 0.0521572093244 0.106382846765
v 0.0276559823779 0.052219672269 0.106399583661
v 0.0278031388218 0.0522907631517 0.106418632406
v 0.027945630367 0.0523702274855 0.10643992481
v 0.0280829469306 0.0524577808087 0.106463384652
v 0.0282145969551 0.0525531097032 0.106488927952
v 0.0283401091675 0.0526558729163 0.106516463272
v 0.0284590342666 0.0527657025823 0.106545892043
v 0.0285709465315 0.0528822055396 0.106577108916
v 0.0286754453453 0.0530049647377 0.106610002144
v 0.0287721566294 0.0531335407307 0.106644453977
v 0.0288607341824 0.0532674732498 0.106680341088
v 0.0289408609198 0.0534062828514 0.106717535008
v 0.0290122500085 0.0535494726331 0.106755902595
v 0.0290746458943 0.0536965300126 0.106795306501
v 0.0291278252159 0.0538469285628 0.106835605671
v 0.0291715976053 0.0540001298959 0.106876655844
v 0.0292058063686 0.0541555855908 0.106918310072
v 0.0292303290474 0.0543127391565 0.106960419243
v 0.0292450778569 0.0544710280239 0.107002832617
v 0.02925 0.0546298855602 0.107045398366
v 0.02925 0.0538534284249 0.109943175845
v 0.0292450778569 0.0540122859611 0.109985741593
v 0.0292303290474 0.0541705748286 0.110028154968
v 0.0292058063686 0.0543277283943 0.110070264139
v 0.0291715976053 0.0544831840892 0.110111918367
v 0.0291278252159 0.0546363854222 0.11015296854
v 0.0290746458943 0.0547867839724 0.11019326771
v 0.0290122500085 0.054933841352 0.110232671616
v 0.0289408609198 0.0550770311337 0.110271039203
v 0.0288607341824 0.0552158407353 0.110308233123
v 0.0287721566294 0.0553497732544 0.110344120234
v 0.0286754453453 0.0554783492474 0.110378572067
v 0.0285709465315 0.0556011084455 0.110411465295
v 0.0284590342666 0.0557176114028 0.110442682168
v 0.0283401091675 0.0558274410688 0.110472110939
v 0.0282145969551 0.0559302042819 0.110499646259
v 0.0280829469306 0.0560255331764 0.110525189559
v 0.027945630367 0.0561130864996 0.110548649401
v 0.0278031388218 0.0561925508334 0.110569941805
v 0.0276559823779 0.0562636417161 0.11058899055
v 0.027504687817 0.0563261046607 0.110605727445
v 0.0273497967345 0.0563797160661 0.110620092578
v 0.0271918636003 0.0564242840174 0.110632034525
v 0.0270314537739 0.056459648973 0.110641510536
v 0.026869141481 0.0564856843354 0.11064848669
v 0.0267055077574 0.0565022969048 0.110652938015
v 0.0265411383693 0.0565094272125 0.110654848575
v 0.0263766217165 0.0565070497338 0.110654211532
v 0.026212546726 0.0564951729796 0.110651029165
v 0.0260495007436 0.0564738394656 0.110645312867
v 0.0258880674316 0.05644312556 0.110637083101
v 0.0257288246794 0.0564031412109 0.110626369327
v 0.0255723425347 0.0563540295517 0.110613209897
v 0.025419181163 0.0562959663895 0.11059765192
v 0.0252698888421 0.0562291595753 0.110579751088
v 0.025125 0.0561538482602 0.110559571482
v 0.024985033301 0.0560703020391 0.11053718534
v 0.0248504897896 0.0559788199858 0.110512672797
v 0.0247218510967 0.0558797295823 0.110486121604
v 0.0245995777153 0.0557733855466 0.110457626805
v 0.0244841073525 0.0556601685627 0.110427290406
v 0.0243758533621 0.055540483918 0.110395221002
v 0.0242752032655 0.0554147600525 0.110361533394
v 0.0241825173637 0.055283447025 0.110326348174
v 0.0240981274483 0.055147014902 0.110289791297
v 0.0240223356133 0.0550059520752 0.110251993626
v 0.0239554131737 0.0548607635129 0.110213090468
v 0.0238975996946 0.0547119689523 0.110173221086
v 0.0238491021331 0.0545601010395 0.110132528201
v 0.023810094098 0.0544057034222 0.110091157484
v 0.0237807152279 0.0542493288037 0.110049257032
v 0.0237610706915 0.0540915369646 0.110006976836
v 0.0237512308112 0.0539328927587 0.109964468249
v 0.0237512308112 0.0537739640911 0.109921883441
v 0.0237610706915 0.0536153198852 0.109879374854
v 0.0237807152279 0.0534575280461 0.109837094658
v 0.023810094098 0.0533011534276 0.109795194205
v 0.0238491021331 0.0531467558102 0.109753823488
v 0.0238975996946 0.0529948878974 0.109713130604
v 0.0239554131737 0.0528460933369 0.109673261222
v 0.0240223356133 0.0527009047745 0.109634358063
v 0.0240981274483 0.0525598419477 0.109596560393
v 0.0241825173637 0.0524234098248 0.109560003516
v 0.0242752032655 0.0522920967973 0.109524818296
v 0.0243758533621 0.0521663729318 0.109491130688
v 0.0244841073525 0.0520466882871 0.109459061284
v 0.0245995777153 0.0519334713032 0.109428724885
v 0.0247218510967 0.0518271272675 0.109400230086
v 0.0248504897896 0.051728036864 0.109373678893
v 0.024985033301 0.0516365548107 0.10934916635
v 0.025125 0.0515530085896 0.109326780208
v 0.0252698888421 0.0514776972745 0.109306600602
v 0.025419181163 0.0514108904603 0.10928869977
v 0.0255723425347 0.051352827298 0.109273141792
v 0.0257288246794 0.0513037156389 0.109259982363
v 0.0258880674316 0.0512637312897 0.109249268589
v 0.0260495007436 0.0512330173842 0.109241038823
v 0.026212546726 0.0512116838701 0.109235322525
v 0.0263766217165 0.0511998071159 0.109232140158
v 0.0265411383693 0.0511974296373 0.109231503115
v 0.0267055077574 0.051204559945 0.109233413675
v 0.026869141481 0.0512211725144 0.109237864999
v 0.0270314537739 0.0512472078768 0.109244841154
v 0.0271918636003 0.0512825728323 0.109254317165
v 0.0273497967345 0.0513271407837 0.109266259112
v 0.027504687817 0.0513807521891 0.109280624244
v 0.0276559823779 0.0514432151337 0.10929736114
v 0.0278031388218 0.0515143060164 0.109316409885
v 0.027945630367 0.0515937703501 0.109337702289
v 0.0280829469306 0.0516813236734 0.109361162131
v 0.0282145969551 0.0517766525679 0.109386705431
v 0.0283401091675 0.051879415781 0.109414240751
v 0.0284590342666 0.051989245447 0.109443669521
v 0.0285709465315 0.0521057484043 0.109474886395
v 0.0286754453453 0.0522285076024 0.109507779623
v 0.0287721566294 0.0523570835954 0.109542231456
v 0.0288607341824 0.0524910161145 0.109578118567
v 0.0289408609198 0.052629825716 0.109615312487
v 0.0290122500085 0.0527730154978 0.109653680074
v 0.0290746458943 0.0529200728773 0.10969308398
v 0.0291278252159 0.0530704714275 0.10973338315
v 0.0291715976053 0.0532236727606 0.109774433323
v 0.0292058063686 0.0533791284555 0.109816087551
v 0.0292303290474 0.0535362820211 0.109858196722
v 0.0292450778569 0.0536945708886 0.109900610096
v 0.0256339745962 0.0553023171643 0.110331404413
v 0.0273660254038 0.0553023171643 0.110331404413
v 0.0282320508076 0.0538534284249 0.109943175845
v 0.0273660254038 0.0524045396854 0.109554947277
v 0.0256339745962 0.0524045396854 0.109554947277
v 0.0247679491924 0.0538534284249 0.109943175845
v 0.02925 0.0546298855602 0.107045398366
v 0.0292450778569 0.0547887430964 0.107087964115
v 0.0292303290474 0.0549470319639 0.107130377489
v 0.0292058063686 0.0551041855296 0.10717248666
v 0.0291715976053 0.0552596412245 0.107214140888
v 0.0291278252159 0.0554128425575 0.107255191061
v 0.0290746458943 0.0555632411077 0.107295490231
v 0.0290122500085 0.0557102984873 0.107334894137
v 0.0289408609198 0.055853488269 0.107373261724
v 0.0288607341824 0.0559922978706 0.107410455644
v 0.0287721566294 0.0561262303897 0.107446342755
v 0.0286754453453 0.0562548063827 0.107480794588
v 0.0285709465315 0.0563775655808 0.107513687816
v 0.0284590342666 0.0564940685381 0.107544904689
v 0.0283401091675 0.0566038982041 0.10757433346
v 0.0282145969551 0.0567066614172 0.10760186878
v 0.0280829469306 0.0568019903117 0.10762741208
v 0.027945630367 0.0568895436349 0.107650871922
v 0.0278031388218 0.0569690079687 0.107672164326
v 0.0276559823779 0.0570400988514 0.107691213071
v 0.027504687817 0.057102561796 0.107707949967
v 0.0273497967345 0.0571561732014 0.107722315099
v 0.0271918636003 0.0572007411527 0.107734257046
v 0.0270314537739 0.0572361061083 0.107743733057
v 0.026869141481 0.0572621414707 0.107750709211
v 0.0267055077574 0.0572787540401 0.107755160536
v 0.0265411383693 0.0572858843478 0.107757071096
v 0.0263766217165 0.0572835068691 0.107756434053
v 0.026212546726 0.0572716301149 0.107753251686
v 0.0260495007436 0.0572502966009 0.107747535388
v 0.0258880674316 0.0572195826953 0.107739305622
v 0.0257288246794 0.0571795983462 0.107728591848
v 0.0255723425347 0.057130486687 0.107715432419
v 0.025419181163 0.0570724235248 0.107699874441
v 0.0252698888421 0.0570056167106 0.107681973609
v 0.025125 0.0569303053955 0.107661794003
v 0.024985033301 0.0568467591744 0.107639407861
v 0.0248504897896 0.0567552771211 0.107614895318
v 0.0247218510967 0.0566561867176 0.107588344125
v 0.0245995777153 0.0565498426819 0.107559849326
v 0.0244841073525 0.056436625698 0.107529512927
v 0.0243758533621 0.0563169410533 0.107497443523
v 0.0242752032655 0.0561912171878 0.107463755915
v 0.0241825173637 0.0560599041603 0.107428570695
v 0.0240981274483 0.0559234720374 0.107392013818
v 0.0240223356133 0.0557824092105 0.107354216147
v 0.0239554131737 0.0556372206482 0.107315312989
v 0.0238975996946 0.0554884260877 0.107275443607
v 0.0238491021331 0.0553365581749 0.107234750722
v 0.023810094098 0.0551821605575 0.107193380006
v 0.0237807152279 0.055025785939 0.107151479553
v 0.0237610706915 0.0548679940999 0.107109199357
v 0.0237512308112 0.054709349894 0.10706669077
v 0.0237512308112 0.0545504212264 0.107024105962
v 0.0237610706915 0.0543917770205 0.106981597375
v 0.0237807152279 0.0542339851814 0.106939317179
v 0.023810094098 0.0540776105629 0.106897416726
v 0.0238491021331 0.0539232129455 0.10685604601
v 0.0238975996946 0.0537713450327 0.106815353125
v 0.0239554131737 0.0536225504722 0.106775483743
v 0.0240223356133 0.0534773619098 0.106736580585
v 0.0240981274483 0.053336299083 0.106698782914
v 0.0241825173637 0.0531998669601 0.106662226037
v 0.0242752032655 0.0530685539326 0.106627040817
v 0.0243758533621 0.0529428300671 0.106593353209
v 0.0244841073525 0.0528231454224 0.106561283805
v 0.0245995777153 0.0527099284385 0.106530947406
v 0.0247218510967 0.0526035844028 0.106502452607
v 0.0248504897896 0.0525044939993 0.106475901414
v 0.024985033301 0.052413011946 0.106451388871
v 0.025125 0.0523294657249 0.106429002729
v 0.0252698888421 0.0522541544098 0.106408823123
v 0.025419181163 0.0521873475956 0.106390922291
v 0.0255723425347 0.0521292844334 0.106375364313
v 0.0257288246794 0.0520801727742 0.106362204884
v 0.0258880674316 0.052040188425 0.10635149111
v 0.0260495007436 0.0520094745195 0.106343261344
v 0.026212546726 0.0519881410054 0.106337545046
v 0.0263766217165 0.0519762642512 0.106334362679
v 0.0265411383693 0.0519738867726 0.106333725636
v 0.0267055077574 0.0519810170803 0.106335636196
v 0.026869141481 0.0519976296497 0.106340087521
v 0.0270314537739 0.0520236650121 0.106347063675
v 0.0271918636003 0.0520590299676 0.106356539686
v 0.0273497967345 0.052103597919 0.106368481633
v 0.027504687817 0.0521572093244 0.106382846765
v 0.0276559823779 0.052219672269 0.106399583661
v 0.0278031388218 0.0522907631517 0.106418632406
v 0.027945630367 0.0523702274855 0.10643992481
v 0.0280829469306 0.0524577808087 0.106463384652
v 0.0282145969551 0.0525531097032 0.106488927952
v 0.0283401091675 0.0526558729163 0.106516463272
v 0.0284590342666 0.0527657025823 0.106545892043
v 0.0285709465315 0.0528822055396 0.106577108916
v 0.0286754453453 0.0530049647377 0.106610002144
v 0.0287721566294 0.0531335407307 0.106644453977
v 0.0288607341824 0.0532674732498 0.106680341088
v 0.0289408609198 0.0534062828514 0.106717535008
v 0.0290122500085 0.0535494726331 0.106755902595
v 0.0290746458943 0.0536965300126 0.106795306501
v 0.0291278252159 0.0538469285628 0.106835605671
v 0.0291715976053 0.0540001298959 0.106876655844
v 0.0292058063686 0.0541555855908 0.106918310072
v 0.0292303290474 0.0543127391565 0.106960419243
v 0.0292450778569 0.0544710280239 0.107002832617
v 0.028 0.0546298855602 0.107045398366
v 0.0279973151947 0.0547165351254 0.107068616047
v 0.0279892703895 0.0548028745077 0.107091750615
v 0.0279758943829 0.0548885946344 0.107114719254
v 0.0279572350574 0.0549733886498 0.107137439741
v 0.0279333592087 0.0550569530133 0.107159830745
v 0.027904352306 0.0551389885861 0.107181812111
v 0.0278703181865 0.0552192017023 0.10720330515
v 0.0278313786835 0.0552973052196 0.107224232925
v 0.0277876731904 0.0553730195477 0.107244520518
v 0.0277393581615 0.055446073649 0.107264095305
v 0.027686606552 0.0555162060088 0.107282887214
v 0.027629607199 0.0555831655714 0.107300828975
v 0.0275685641454 0.055646712639 0.107317856361
v 0.0275036959095 0.0557066197296 0.107333908417
v 0.0274352347028 0.0557626723913 0.107348927683
v 0.0273634255985 0.0558146699701 0.107362860392
v 0.0272885256547 0.0558624263282 0.107375656669
v 0.0272108029937 0.0559057705103 0.107387270708
v 0.0271305358425 0.0559445473554 0.107397660932
v 0.0270480115365 0.0559786180524 0.107406790148
v 0.0269635254916 0.0560078606372 0.107414625675
v 0.0268773801456 0.0560321704289 0.107421139464
v 0.0267898838767 0.0560514604046 0.107426308198
v 0.0267013498987 0.0560656615114 0.107430113373
v 0.0266120951404 0.0560747229128 0.107432541368
v 0.0265224391105 0.0560786121716 0.107433583492
v 0.0264327027545 0.0560773153651 0.107433236013
v 0.0263432073051 0.0560708371355 0.107431500177
v 0.0262542731329 0.0560592006733 0.107428382196
v 0.0261662185991 0.0560424476339 0.107423893233
v 0.026079358916 0.0560206379889 0.107418049356
v 0.0259940050189 0.0559938498112 0.107410871486
v 0.0259104624525 0.0559621789954 0.107402385316
v 0.0258290302775 0.055925738915 0.107392621226
v 0.02575 0.0558846600158 0.107381614168
v 0.0256736545278 0.0558390893497 0.107369403545
v 0.025600267158 0.0557891900479 0.107356033067
v 0.0255301005982 0.055735140737 0.107341550598
v 0.0254634060265 0.0556771348993 0.107326007981
v 0.0254004221923 0.0556153801808 0.107309460854
v 0.0253413745612 0.0555500976473 0.107291968452
v 0.0252864745084 0.0554815209934 0.107273593393
v 0.025235918562 0.0554098957057 0.107254401455
v 0.0251898876991 0.0553354781841 0.10723446134
v 0.0251485466981 0.055258534824 0.107213844429
v 0.0251120435493 0.0551793410627 0.107192624524
v 0.0250805089243 0.0550981803934 0.107170877588
v 0.025054055709 0.05501534335 0.107148681469
v 0.0250327785989 0.0549311264678 0.107126115624
v 0.0250167537607 0.0548458312214 0.107103260832
v 0.025006038559 0.0547597629455 0.107080198907
v 0.0250006713516 0.0546732297423 0.107057012405
v 0.0250006713516 0.0545865413781 0.107033784327
v 0.025006038559 0.0545000081749 0.107010597826
v 0.0250167537607 0.054413939899 0.1069875359
v 0.0250327785989 0.0543286446526 0.106964681108
v 0.025054055709 0.0542444277704 0.106942115263
v 0.0250805089243 0.054161590727 0.106919919144
v 0.0251120435493 0.0540804300576 0.106898172208
v 0.0251485466981 0.0540012362964 0.106876952303
v 0.0251898876991 0.0539242929363 0.106856335392
v 0.025235918562 0.0538498754147 0.106836395277
v 0.0252864745084 0.0537782501269 0.106817203339
v 0.0253413745612 0.053709673473 0.10679882828
v 0.0254004221923 0.0536443909396 0.106781335878
v 0.0254634060265 0.0535826362211 0.106764788751
v 0.0255301005982 0.0535246303834 0.106749246134
v 0.025600267158 0.0534705810724 0.106734763665
v 0.0256736545278 0.0534206817706 0.106721393187
v 0.02575 0.0533751111046 0.106709182564
v 0.0258290302775 0.0533340322054 0.106698175506
v 0.0259104624525 0.0532975921249 0.106688411416
v 0.0259940050189 0.0532659213092 0.106679925246
v 0.026079358916 0.0532391331315 0.106672747376
v 0.0261662185991 0.0532173234865 0.106666903499
v 0.0262542731329 0.0532005704471 0.106662414536
v 0.0263432073051 0.0531889339849 0.106659296555
v 0.0264327027545 0.0531824557553 0.106657560719
v 0.0265224391105 0.0531811589488 0.10665721324
v 0.0266120951404 0.0531850482075 0.106658255364
v 0.0267013498987 0.053194109609 0.106660683359
v 0.0267898838767 0.0532083107158 0.106664488534
v 0.0268773801456 0.0532276006915 0.106669657268
v 0.0269635254916 0.0532519104832 0.106676171057
v 0.0270480115365 0.0532811530679 0.106684006584
v 0.0271305358425 0.053315223765 0.1066931358
v 0.0272108029937 0.0533540006101 0.106703526024
v 0.0272885256547 0.0533973447922 0.106715140063
v 0.0273634255985 0.0534451011503 0.10672793634
v 0.0274352347028 0.0534970987291 0.106741869049
v 0.0275036959095 0.0535531513908 0.106756888315
v 0.0275685641454 0.0536130584813 0.106772940371
v 0.027629607199 0.0536766055489 0.106789967757
v 0.027686606552 0.0537435651116 0.106807909518
v 0.0277393581615 0.0538136974714 0.106826701427
v 0.0277876731904 0.0538867515727 0.106846276214
v 0.0278313786835 0.0539624659008 0.106866563807
v 0.0278703181865 0.0540405694181 0.106887491582
v 0.027904352306 0.0541207825343 0.106908984621
v 0.0279333592087 0.0542028181071 0.106930965987
v 0.0279572350574 0.0542863824706 0.106953356991
v 0.0279758943829 0.054371176486 0.106976077478
v 0.0279892703895 0.0544568966127 0.106999046117
v 0.0279973151947 0.054543235995 0.107022180685
v 0.0273660254038 0.0557681914455 0.108592737925
v 0.0256339745962 0.0557681914455 0.108592737925
v 0.0273660254038 0.0553023171643 0.110331404413
v 0.0256339745962 0.0553023171643 0.110331404413
v 0.0256339745962 0.0557681914455 0.108592737925
v 0.0247679491924 0.0543193027061 0.108204509358
v 0.0256339745962 0.0553023171643 0.110331404413
v 0.0247679491924 0.0538534284249 0.109943175845
v 0.0247679491924 0.0543193027061 0.108204509358
v 0.0256339745962 0.0528704139666 0.10781628079
v 0.0247679491924 0.0538534284249 0.109943175845
v 0.0256339745962 0.0524045396854 0.109554947277
v 0.0256339745962 0.0528704139666 0.10781628079
v 0.0273660254038 0.0528704139666 0.10781628079
v 0.0256339745962 0.0524045396854 0.109554947277
v 0.0273660254038 0.0524045396854 0.109554947277
v 0.0273660254038 0.0528704139666 0.10781628079
v 0.0282320508076 0.0543193027061 0.108204509358
v 0.0273660254038 0.0524045396854 0.109554947277
v 0.0282320508076 0.0538534284249 0.109943175845
v 0.0282320508076 0.0543193027061 0.108204509358
v 0.0273660254038 0.0557681914455 0.108592737925
v 0.0282320508076 0.0538534284249 0.109943175845
v 0.0273660254038 0.0553023171643 0.110331404413
v 0.028 0.0546298855602 0.107045398366
v 0.0279973151947 0.0547165351254 0.107068616047
v 0.0279892703895 0.0548028745077 0.107091750615
v 0.0279758943829 0.0548885946344 0.107114719254
v 0.0279572350574 0.0549733886498 0.107137439741
v 0.0279333592087 0.0550569530133 0.107159830745
v 0.027904352306 0.0551389885861 0.107181812111
v 0.0278703181865 0.0552192017023 0.10720330515
v 0.0278313786835 0.0552973052196 0.107224232925
v 0.0277876731904 0.0553730195477 0.107244520518
v 0.0277393581615 0.055446073649 0.107264095305
v 0.027686606552 0.0555162060088 0.107282887214
v 0.027629607199 0.0555831655714 0.107300828975
v 0.0275685641454 0.055646712639 0.107317856361
v 0.0275036959095 0.0557066197296 0.107333908417
v 0.0274352347028 0.0557626723913 0.107348927683
v 0.0273634255985 0.0558146699701 0.107362860392
v 0.0272885256547 0.0558624263282 0.107375656669
v 0.0272108029937 0.0559057705103 0.107387270708
v 0.0271305358425 0.0559445473554 0.107397660932
v 0.0270480115365 0.0559786180524 0.107406790148
v 0.0269635254916 0.0560078606372 0.107414625675
v 0.0268773801456 0.0560321704289 0.107421139464
v 0.0267898838767 0.0560514604046 0.107426308198
v 0.0267013498987 0.0560656615114 0.107430113373
v 0.0266120951404 0.0560747229128 0.107432541368
v 0.0265224391105 0.0560786121716 0.107433583492
v 0.0264327027545 0.0560773153651 0.107433236013
v 0.0263432073051 0.0560708371355 0.107431500177
v 0.0262542731329 0.0560592006733 0.107428382196
v 0.0261662185991 0.0560424476339 0.107423893233
v 0.026079358916 0.0560206379889 0.107418049356
v 0.0259940050189 0.0559938498112 0.107410871486
v 0.0259104624525 0.0559621789954 0.107402385316
v 0.0258290302775 0.055925738915 0.107392621226
v 0.02575 0.0558846600158 0.107381614168
v 0.0256736545278 0.0558390893497 0.107369403545
v 0.025600267158 0.0557891900479 0.107356033067
v 0.0255301005982 0.055735140737 0.107341550598
v 0.0254634060265 0.0556771348993 0.107326007981
v 0.0254004221923 0.0556153801808 0.107309460854
v 0.0253413745612 0.0555500976473 0.107291968452
v 0.0252864745084 0.0554815209934 0.107273593393
v 0.025235918562 0.0554098957057 0.107254401455
v 0.0251898876991 0.0553354781841 0.10723446134
v 0.0251485466981 0.055258534824 0.107213844429
v 0.0251120435493 0.0551793410627 0.107192624524
v 0.0250805089243 0.0550981803934 0.107170877588
v 0.025054055709 0.05501534335 0.107148681469
v 0.0250327785989 0.0549311264678 0.107126115624
v 0.0250167537607 0.0548458312214 0.107103260832
v 0.025006038559 0.0547597629455 0.107080198907
v 0.0250006713516 0.0546732297423 0.107057012405
v 0.0250006713516 0.0545865413781 0.107033784327
v 0.025006038559 0.0545000081749 0.107010597826
v 0.0250167537607 0.054413939899 0.1069875359
v 0.0250327785989 0.0543286446526 0.106964681108
v 0.025054055709 0.0542444277704 0.106942115263
v 0.0250805089243 0.054161590727 0.106919919144
v 0.0251120435493 0.0540804300576 0.106898172208
v 0.0251485466981 0.0540012362964 0.106876952303
v 0.0251898876991 0.0539242929363 0.106856335392
v 0.025235918562 0.0538498754147 0.106836395277
v 0.0252864745084 0.0537782501269 0.106817203339
v 0.0253413745612 0.053709673473 0.10679882828
v 0.0254004221923 0.0536443909396 0.106781335878
v 0.0254634060265 0.0535826362211 0.106764788751
v 0.0255301005982 0.0535246303834 0.106749246134
v 0.025600267158 0.0534705810724 0.106734763665
v 0.0256736545278 0.0534206817706 0.106721393187
v 0.02575 0.0533751111046 0.106709182564
v 0.0258290302775 0.0533340322054 0.106698175506
v 0.0259104624525 0.0532975921249 0.106688411416
v 0.0259940050189 0.0532659213092 0.106679925246
v 0.026079358916 0.0532391331315 0.106672747376
v 0.0261662185991 0.0532173234865 0.106666903499
v 0.0262542731329 0.0532005704471 0.106662414536
v 0.0263432073051 0.0531889339849 0.106659296555
v 0.0264327027545 0.0531824557553 0.106657560719
v 0.0265224391105 0.0531811589488 0.10665721324
v 0.0266120951404 0.0531850482075 0.106658255364
v 0.0267013498987 0.053194109609 0.106660683359
v 0.0267898838767 0.0532083107158 0.106664488534
v 0.0268773801456 0.0532276006915 0.106669657268
v 0.0269635254916 0.0532519104832 0.106676171057
v 0.0270480115365 0.0532811530679 0.106684006584
v 0.0271305358425 0.053315223765 0.1066931358
v 0.0272108029937 0.0533540006101 0.106703526024
v 0.0272885256547 0.0533973447922 0.106715140063
v 0.0273634255985 0.0534451011503 0.10672793634
v 0.0274352347028 0.0534970987291 0.106741869049
v 0.0275036959095 0.0535531513908 0.106756888315
v 0.0275685641454 0.0536130584813 0.106772940371
v 0.027629607199 0.0536766055489 0.106789967757
v 0.027686606552 0.0537435651116 0.106807909518
v 0.0277393581615 0.0538136974714 0.106826701427
v 0.0277876731904 0.0538867515727 0.106846276214
v 0.0278313786835 0.0539624659008 0.106866563807
v 0.0278703181865 0.0540405694181 0.106887491582
v 0.027904352306 0.0541207825343 0.106908984621
v 0.0279333592087 0.0542028181071 0.106930965987
v 0.0279572350574 0.0542863824706 0.106953356991
v 0.0279758943829 0.054371176486 0.106976077478
v 0.0279892703895 0.0544568966127 0.106999046117
v 0.0279973151947 0.054543235995 0.107022180685
v 0.028 0.0546298855602 0.107045398366
v 0.028 0.0577357141014 0.0954542884505
v 0.0279973151947 0.0578223636666 0.0954775061316
v 0.0279892703895 0.0579087030489 0.0955006406993
v 0.0279758943829 0.0579944231756 0.095523609338
v 0.0279572350574 0.058079217191 0.095546329826
v 0.0279333592087 0.0581627815545 0.0955687208297
v 0.027904352306 0.0582448171274 0.0955907021952
v 0.0278703181865 0.0583250302435 0.0956121952349
v 0.0278313786835 0.0584031337608 0.0956331230093
v 0.0277876731904 0.0584788480889 0.0956534106024
v 0.0277393581615 0.0585519021902 0.0956729853898
v 0.027686606552 0.05862203455 0.095691777299
v 0.027629607199 0.0586889941127 0.0957097190597
v 0.0275685641454 0.0587525411803 0.0957267464452
v 0.0275036959095 0.0588124482708 0.0957427985017
v 0.0274352347028 0.0588685009325 0.0957578177671
v 0.0273634255985 0.0589204985113 0.0957717504764
v 0.0272885256547 0.0589682548695 0.095784546754
v 0.0272108029937 0.0590115990515 0.0957961607925
v 0.0271305358425 0.0590503758966 0.0958065510169
v 0.0270480115365 0.0590844465937 0.0958156802326
v 0.0269635254916 0.0591136891784 0.0958235157596
v 0.0268773801456 0.0591379989701 0.0958300295486
v 0.0267898838767 0.0591572889458 0.0958351982821
v 0.0267013498987 0.0591714900526 0.0958390034572
v 0.0266120951404 0.0591805514541 0.0958414314524
v 0.0265224391105 0.0591844407128 0.0958424735761
v 0.0264327027545 0.0591831439063 0.0958421260979
v 0.0263432073051 0.0591766656767 0.0958403902615
v 0.0262542731329 0.0591650292145 0.0958372722808
v 0.0261662185991 0.0591482761751 0.0958327833174
v 0.026079358916 0.0591264665302 0.0958269394407
v 0.0259940050189 0.0590996783524 0.0958197615701
v 0.0259104624525 0.0590680075367 0.0958112754006
v 0.0258290302775 0.0590315674562 0.0958015113105
v 0.02575 0.058990488557 0.0957905042526
v 0.0256736545278 0.058944917891 0.0957782936294
v 0.025600267158 0.0588950185892 0.0957649231518
v 0.0255301005982 0.0588409692782 0.0957504406826
v 0.0254634060265 0.0587829634405 0.0957348980652
v 0.0254004221923 0.058721208722 0.0957183509383
v 0.0253413745612 0.0586559261886 0.0957008585362
v 0.0252864745084 0.0585873495347 0.0956824834771
v 0.025235918562 0.0585157242469 0.0956632915391
v 0.0251898876991 0.0584413067253 0.0956433514243
v 0.0251485466981 0.0583643633652 0.0956227345131
v 0.0251120435493 0.058285169604 0.0956015146087
v 0.0250805089243 0.0582040089346 0.0955797676729
v 0.025054055709 0.0581211718912 0.095557571554
v 0.0250327785989 0.058036955009 0.0955350057085
v 0.0250167537607 0.0579516597626 0.0955121509161
v 0.025006038559 0.0578655914867 0.095489088991
v 0.0250006713516 0.0577790582835 0.0954659024891
v 0.0250006713516 0.0576923699194 0.095442674412
v 0.025006038559 0.0576058367161 0.09541948791
v 0.0250167537607 0.0575197684403 0.095396425985
v 0.0250327785989 0.0574344731938 0.0953735711926
v 0.025054055709 0.0573502563116 0.095351005347
v 0.0250805089243 0.0572674192683 0.0953288092282
v 0.0251120435493 0.0571862585989 0.0953070622923
v 0.0251485466981 0.0571070648376 0.095285842388
v 0.0251898876991 0.0570301214775 0.0952652254768
v 0.025235918562 0.0569557039559 0.095245285362
v 0.0252864745084 0.0568840786682 0.0952260934239
v 0.0253413745612 0.0568155020143 0.0952077183649
v 0.0254004221923 0.0567502194808 0.0951902259628
v 0.0254634060265 0.0566884647623 0.0951736788358
v 0.0255301005982 0.0566304589246 0.0951581362185
v 0.025600267158 0.0565764096137 0.0951436537493
v 0.0256736545278 0.0565265103119 0.0951302832716
v 0.02575 0.0564809396458 0.0951180726485
v 0.0258290302775 0.0564398607466 0.0951070655906
v 0.0259104624525 0.0564034206662 0.0950973015005
v 0.0259940050189 0.0563717498504 0.095088815331
v 0.026079358916 0.0563449616727 0.0950816374604
v 0.0261662185991 0.0563231520277 0.0950757935836
v 0.0262542731329 0.0563063989883 0.0950713046202
v 0.0263432073051 0.0562947625261 0.0950681866396
v 0.0264327027545 0.0562882842965 0.0950664508032
v 0.0265224391105 0.05628698749 0.095066103325
v 0.0266120951404 0.0562908767488 0.0950671454487
v 0.0267013498987 0.0562999381502 0.0950695734439
v 0.0267898838767 0.056314139257 0.095073378619
v 0.0268773801456 0.0563334292328 0.0950785473524
v 0.0269635254916 0.0563577390244 0.0950850611415
v 0.0270480115365 0.0563869816092 0.0950928966684
v 0.0271305358425 0.0564210523062 0.0951020258842
v 0.0272108029937 0.0564598291513 0.0951124161085
v 0.0272885256547 0.0565031733334 0.0951240301471
v 0.0273634255985 0.0565509296915 0.0951368264247
v 0.0274352347028 0.0566029272703 0.0951507591339
v 0.0275036959095 0.056658979932 0.0951657783994
v 0.0275685641454 0.0567188870226 0.0951818304559
v 0.027629607199 0.0567824340902 0.0951988578414
v 0.027686606552 0.0568493936528 0.0952167996021
v 0.0277393581615 0.0569195260126 0.0952355915113
v 0.0277876731904 0.0569925801139 0.0952551662987
v 0.0278313786835 0.0570682944421 0.0952754538918
v 0.0278703181865 0.0571463979594 0.0952963816662
v 0.027904352306 0.0572266110755 0.0953178747059
v 0.0279333592087 0.0573086466483 0.0953398560714
v 0.0279572350574 0.0573922110118 0.0953622470751
v 0.0279758943829 0.0574770050272 0.095384967563
v 0.0279892703895 0.0575627251539 0.0954079362018
v 0.0279973151947 0.0576490645362 0.0954310707695
v 0.028 0.0577357141014 0.0954542884505
v 0.0282320508076 0.0543193027061 0.108204509358
v 0.0273660254038 0.0557681914455 0.108592737925
v 0.0256339745962 0.0557681914455 0.108592737925
v 0.0247679491924 0.0543193027061 0.108204509358
v 0.0256339745962 0.0528704139666 0.10781628079
v 0.0273660254038 0.0528704139666 0.10781628079
v 0.028 0.0577357141014 0.0954542884505
v 0.0279973151947 0.0578223636666 0.0954775061316
v 0.0279892703895 0.0579087030489 0.0955006406993
v 0.0279758943829 0.0579944231756 0.095523609338
v 0.0279572350574 0.058079217191 0.095546329826
v 0.0279333592087 0.0581627815545 0.0955687208297
v 0.027904352306 0.0582448171274 0.0955907021952
v 0.0278703181865 0.0583250302435 0.0956121952349
v 0.0278313786835 0.0584031337608 0.0956331230093
v 0.0277876731904 0.0584788480889 0.0956534106024
v 0.0277393581615 0.0585519021902 0.0956729853898
v 0.027686606552 0.05862203455 0.095691777299
v 0.027629607199 0.0586889941127 0.0957097190597
v 0.0275685641454 0.0587525411803 0.0957267464452
v 0.0275036959095 0.0588124482708 0.0957427985017
v 0.0274352347028 0.0588685009325 0.0957578177671
v 0.0273634255985 0.0589204985113 0.0957717504764
v 0.0272885256547 0.0589682548695 0.095784546754
v 0.0272108029937 0.0590115990515 0.0957961607925
v 0.0271305358425 0.0590503758966 0.0958065510169
v 0.0270480115365 0.0590844465937 0.0958156802326
v 0.0269635254916 0.0591136891784 0.0958235157596
v 0.0268773801456 0.0591379989701 0.0958300295486
v 0.0267898838767 0.0591572889458 0.0958351982821
v 0.0267013498987 0.0591714900526 0.0958390034572
v 0.0266120951404 0.0591805514541 0.0958414314524
v 0.0265224391105 0.0591844407128 0.0958424735761
v 0.0264327027545 0.0591831439063 0.0958421260979
v 0.0263432073051 0.0591766656767 0.0958403902615
v 0.0262542731329 0.0591650292145 0.0958372722808
v 0.0261662185991 0.0591482761751 0.0958327833174
v 0.026079358916 0.0591264665302 0.0958269394407
v 0.0259940050189 0.0590996783524 0.0958197615701
v 0.0259104624525 0.0590680075367 0.0958112754006
v 0.0258290302775 0.0590315674562 0.0958015113105
v 0.02575 0.058990488557 0.0957905042526
v 0.0256736545278 0.058944917891 0.0957782936294
v 0.025600267158 0.0588950185892 0.0957649231518
v 0.0255301005982 0.0588409692782 0.0957504406826
v 0.0254634060265 0.0587829634405 0.0957348980652
v 0.0254004221923 0.058721208722 0.0957183509383
v 0.0253413745612 0.0586559261886 0.0957008585362
v 0.0252864745084 0.0585873495347 0.0956824834771
v 0.025235918562 0.0585157242469 0.0956632915391
v 0.0251898876991 0.0584413067253 0.0956433514243
v 0.0251485466981 0.0583643633652 0.0956227345131
v 0.0251120435493 0.058285169604 0.0956015146087
v 0.0250805089243 0.0582040089346 0.0955797676729
v 0.025054055709 0.0581211718912 0.095557571554
v 0.0250327785989 0.058036955009 0.0955350057085
v 0.0250167537607 0.0579516597626 0.0955121509161
v 0.025006038559 0.0578655914867 0.095489088991
v 0.0250006713516 0.0577790582835 0.0954659024891
v 0.0250006713516 0.0576923699194 0.095442674412
v 0.025006038559 0.0576058367161 0.09541948791
v 0.0250167537607 0.0575197684403 0.095396425985
v 0.0250327785989 0.0574344731938 0.0953735711926
v 0.025054055709 0.0573502563116 0.095351005347
v 0.0250805089243 0.0572674192683 0.0953288092282
v 0.0251120435493 0.0571862585989 0.0953070622923
v 0.0251485466981 0.0571070648376 0.095285842388
v 0.0251898876991 0.0570301214775 0.0952652254768
v 0.025235918562 0.0569557039559 0.095245285362
v 0.0252864745084 0.0568840786682 0.0952260934239
v 0.0253413745612 0.0568155020143 0.0952077183649
v 0.0254004221923 0.0567502194808 0.0951902259628
v 0.0254634060265 0.0566884647623 0.0951736788358
v 0.0255301005982 0.0566304589246 0.0951581362185
v 0.025600267158 0.0565764096137 0.0951436537493
v 0.0256736545278 0.0565265103119 0.0951302832716
v 0.02575 0.0564809396458 0.0951180726485
v 0.0258290302775 0.0564398607466 0.0951070655906
v 0.0259104624525 0.0564034206662 0.0950973015005
v 0.0259940050189 0.0563717498504 0.095088815331
v 0.026079358916 0.0563449616727 0.0950816374604
v 0.0261662185991 0.0563231520277 0.0950757935836
v 0.0262542731329 0.0563063989883 0.0950713046202
v 0.0263432073051 0.0562947625261 0.0950681866396
v 0.0264327027545 0.0562882842965 0.0950664508032
v 0.0265224391105 0.05628698749 0.095066103325
v 0.0266120951404 0.0562908767488 0.0950671454487
v 0.0267013498987 0.0562999381502 0.0950695734439
v 0.0267898838767 0.056314139257 0.095073378619
v 0.0268773801456 0.0563334292328 0.0950785473524
v 0.0269635254916 0.0563577390244 0.0950850611415
v 0.0270480115365 0.0563869816092 0.0950928966684
v 0.0271305358425 0.0564210523062 0.0951020258842
v 0.0272108029937 0.0564598291513 0.0951124161085
v 0.0272885256547 0.0565031733334 0.0951240301471
v 0.0273634255985 0.0565509296915 0.0951368264247
v 0.0274352347028 0.0566029272703 0.0951507591339
v 0.0275036959095 0.056658979932 0.0951657783994
v 0.0275685641454 0.0567188870226 0.0951818304559
v 0.027629607199 0.0567824340902 0.0951988578414
v 0.027686606552 0.0568493936528 0.0952167996021
v 0.0277393581615 0.0569195260126 0.0952355915113
v 0.0277876731904 0.0569925801139 0.0952551662987
v 0.0278313786835 0.0570682944421 0.0952754538918
v 0.0278703181865 0.0571463979594 0.0952963816662
v 0.027904352306 0.0572266110755 0.0953178747059
v 0.0279333592087 0.0573086466483 0.0953398560714
v 0.0279572350574 0.0573922110118 0.0953622470751
v 0.0279758943829 0.0574770050272 0.095384967563
v 0.0279892703895 0.0575627251539 0.0954079362018
v 0.0279973151947 0.0576490645362 0.0954310707695
f 2 1 107
f 2 107 108
f 3 108 109
f 3 2 108
f 4 109 110
f 4 110 111
f 4 3 109
f 5 4 111
f 6 111 112
f 6 5 111
f 7 112 113
f 7 6 112
f 8 113 114
f 8 7 113
f 9 114 115
f 9 8 114
f 10 115 116
f 10 116 117
f 10 9 115
f 11 117 118
f 11 10 117
f 12 11 118
f 13 118 119
f 13 12 118
f 14 119 120
f 14 13 119
f 15 120 121
f 15 14 120
f 16 121 122
f 16 15 121
f 17 122 123
f 17 16 122
f 18 123 124
f 18 17 123
f 19 124 125
f 19 18 124
f 20 125 126
f 20 19 125
f 21 126 127
f 21 20 126
f 22 127 128
f 22 21 127
f 23 22 128
f 23 128 129
f 24 23 129
f 24 129 130
f 25 24 130
f 25 130 131
f 25 131 132
f 26 25 132
f 27 26 132
f 27 132 133
f 28 27 133
f 28 133 134
f 29 28 134
f 29 134 135
f 30 29 135
f 30 135 136
f 31 30 136
f 31 136 137
f 32 137 138
f 32 31 137
f 33 138 139
f 33 32 138
f 34 139 140
f 34 33 139
f 35 140 141
f 35 34 140
f 36 141 142
f 36 142 143
f 36 35 141
f 37 36 143
f 38 143 144
f 38 144 145
f 38 37 143
f 39 38 145
f 40 145 146
f 40 39 145
f 41 146 147
f 41 40 146
f 42 147 148
f 42 41 147
f 43 148 149
f 43 42 148
f 44 149 150
f 44 43 149
f 45 150 151
f 45 151 152
f 45 44 150
f 46 45 152
f 47 152 153
f 47 46 152
f 48 153 154
f 48 47 153
f 49 48 154
f 49 154 155
f 50 49 155
f 50 155 156
f 51 50 156
f 51 156 157
f 52 51 157
f 52 157 158
f 53 52 158
f 53 158 159
f 54 53 159
f 54 159 160
f 55 54 160
f 55 160 161
f 56 55 161
f 56 161 162
f 57 56 162
f 57 162 163
f 58 57 163
f 58 163 164
f 59 58 164
f 59 164 165
f 60 59 165
f 60 165 166
f 61 60 166
f 61 166 167
f 62 61 167
f 62 167 168
f 63 62 168
f 63 168 169
f 64 63 169
f 64 169 170
f 65 64 170
f 65 170 171
f 66 171 172
f 66 65 171
f 67 172 173
f 67 66 172
f 68 173 174
f 68 67 173
f 69 174 175
f 69 175 176
f 69 68 174
f 70 69 176
f 71 176 177
f 71 70 176
f 72 177 178
f 72 71 177
f 73 72 178
f 73 178 179
f 74 73 179
f 74 179 180
f 75 74 180
f 75 180 181
f 76 75 181
f 76 181 182
f 77 76 182
f 77 182 183
f 78 77 183
f 78 183 184
f 79 78 184
f 79 184 185
f 80 79 185
f 80 185 186
f 81 80 186
f 81 186 187
f 82 81 187
f 82 187 188
f 83 82 188
f 83 188 189
f 84 83 189
f 84 189 190
f 85 84 190
f 85 190 191
f 86 85 191
f 86 191 192
f 87 86 192
f 87 192 193
f 88 87 193
f 88 193 194
f 89 88 194
f 89 194 195
f 90 89 195
f 90 195 196
f 91 90 196
f 91 196 197
f 92 91 197
f 92 197 198
f 93 92 198
f 93 198 199
f 94 93 199
f 94 199 200
f 95 94 200
f 95 200 201
f 96 95 201
f 96 201 202
f 97 202 203
f 97 96 202
f 98 203 204
f 98 97 203
f 99 98 204
f 99 204 205
f 100 205 206
f 100 99 205
f 101 206 207
f 101 100 206
f 102 207 208
f 102 101 207
f 103 208 209
f 103 102 208
f 104 209 210
f 104 103 209
f 105 210 211
f 105 104 210
f 106 105 211
f 106 211 212
f 322 274 275
f 322 275 276
f 322 276 277
f 322 277 278
f 322 278 279
f 322 279 280
f 322 280 281
f 322 281 282
f 322 282 283
f 322 283 284
f 322 284 285
f 322 285 286
f 322 286 287
f 322 287 288
f 322 288 289
f 322 289 290
f 322 290 291
f 322 291 292
f 323 261 262
f 323 262 263
f 323 263 264
f 323 264 265
f 323 265 266
f 323 266 267
f 323 267 268
f 323 268 269
f 323 269 270
f 323 270 271
f 323 271 272
f 323 272 273
f 323 273 274
f 323 274 322
f 260 261 323
f 259 260 323
f 258 259 323
f 257 258 323
f 321 322 292
f 321 292 293
f 321 293 294
f 321 294 295
f 321 295 296
f 321 296 297
f 321 297 298
f 321 298 299
f 321 299 300
f 321 300 301
f 321 301 302
f 303 321 302
f 304 321 303
f 305 321 304
f 306 321 305
f 307 321 306
f 318 257 323
f 318 250 251
f 318 251 252
f 318 252 253
f 318 253 254
f 318 254 255
f 318 255 256
f 318 256 257
f 308 321 307
f 249 250 318
f 309 321 308
f 248 249 318
f 247 248 318
f 246 247 318
f 245 246 318
f 320 321 309
f 320 309 310
f 320 310 311
f 320 311 312
f 313 320 312
f 244 245 318
f 314 320 313
f 243 244 318
f 315 320 314
f 242 243 318
f 316 320 315
f 241 242 318
f 317 320 316
f 240 241 318
f 213 320 317
f 239 318 319
f 239 240 318
f 214 320 213
f 238 239 319
f 215 320 214
f 237 238 319
f 216 320 215
f 236 237 319
f 217 320 216
f 235 236 319
f 218 320 217
f 234 235 319
f 219 320 218
f 233 234 319
f 220 320 219
f 232 233 319
f 221 320 220
f 231 232 319
f 222 319 320
f 222 320 221
f 230 231 319
f 223 319 222
f 229 230 319
f 224 319 223
f 228 229 319
f 225 319 224
f 227 228 319
f 226 319 225
f 226 227 319
f 495 391 390
f 494 495 390
f 494 390 389
f 496 391 495
f 496 392 391
f 493 389 388
f 493 494 389
f 497 392 496
f 497 393 392
f 492 388 387
f 492 493 388
f 498 393 497
f 491 387 386
f 491 492 387
f 499 394 393
f 499 393 498
f 490 491 386
f 490 386 385
f 500 395 394
f 500 396 395
f 500 394 499
f 489 385 384
f 489 490 385
f 501 396 500
f 488 384 383
f 488 489 384
f 502 396 501
f 502 397 396
f 502 398 397
f 487 383 382
f 487 488 383
f 503 398 502
f 486 382 381
f 486 487 382
f 504 398 503
f 504 399 398
f 504 400 399
f 485 486 381
f 485 381 380
f 505 400 504
f 484 380 379
f 484 485 380
f 506 400 505
f 506 401 400
f 483 484 379
f 483 379 378
f 507 401 506
f 507 402 401
f 482 483 378
f 482 378 377
f 508 402 507
f 508 403 402
f 481 482 377
f 481 377 376
f 509 403 508
f 509 404 403
f 480 481 376
f 480 375 374
f 480 376 375
f 510 404 509
f 510 405 404
f 479 480 374
f 511 405 510
f 511 406 405
f 478 479 374
f 478 374 373
f 512 406 511
f 512 407 406
f 477 372 371
f 477 373 372
f 477 478 373
f 513 407 512
f 513 408 407
f 476 477 371
f 514 408 513
f 514 409 408
f 475 371 370
f 475 476 371
f 515 409 514
f 515 410 409
f 474 370 369
f 474 475 370
f 516 410 515
f 516 411 410
f 473 369 368
f 473 474 369
f 517 411 516
f 517 412 411
f 472 367 366
f 472 368 367
f 472 473 368
f 518 412 517
f 518 413 412
f 471 472 366
f 519 413 518
f 519 414 413
f 470 366 365
f 470 471 366
f 364 470 365
f 520 415 414
f 520 414 519
f 469 470 364
f 521 415 520
f 416 415 521
f 363 469 364
f 363 468 469
f 417 416 521
f 417 521 522
f 362 468 363
f 362 467 468
f 418 417 522
f 418 522 523
f 418 523 524
f 361 467 362
f 361 466 467
f 419 418 524
f 419 524 525
f 360 465 466
f 360 466 361
f 420 419 525
f 359 465 360
f 359 464 465
f 421 525 526
f 421 420 525
f 358 463 464
f 358 464 359
f 422 526 527
f 422 421 526
f 357 462 463
f 357 463 358
f 423 527 528
f 423 528 529
f 423 422 527
f 356 460 461
f 356 461 462
f 356 462 357
f 424 529 530
f 424 423 529
f 355 459 460
f 355 460 356
f 425 424 530
f 354 459 355
f 426 530 531
f 426 531 532
f 426 425 530
f 353 457 458
f 353 458 459
f 353 459 354
f 427 426 532
f 352 457 353
f 428 532 533
f 428 427 532
f 351 456 457
f 351 457 352
f 324 533 429
f 324 428 533
f 350 455 456
f 350 456 351
f 325 429 430
f 325 324 429
f 349 454 455
f 349 455 350
f 326 430 431
f 326 325 430
f 348 453 454
f 348 454 349
f 327 431 432
f 327 326 431
f 347 452 453
f 347 453 348
f 328 432 433
f 328 327 432
f 346 451 452
f 346 452 347
f 329 433 434
f 329 328 433
f 345 450 451
f 345 451 346
f 330 434 435
f 330 329 434
f 344 448 449
f 344 449 450
f 344 450 345
f 331 435 436
f 331 330 435
f 343 448 344
f 332 436 437
f 332 437 438
f 332 331 436
f 342 448 343
f 342 447 448
f 333 332 438
f 341 447 342
f 341 445 446
f 341 446 447
f 334 438 439
f 334 333 438
f 340 445 341
f 335 334 439
f 335 439 440
f 339 445 340
f 339 443 444
f 339 444 445
f 336 335 440
f 336 440 441
f 338 443 339
f 337 336 441
f 337 441 442
f 337 442 443
f 337 443 338
f 534 536 537
f 535 534 537
f 539 538 540
f 539 540 541
f 543 542 544
f 543 544 545
f 547 546 548
f 547 548 549
f 550 552 553
f 551 550 553
f 554 556 557
f 555 554 557
f 559 558 664
f 559 664 665
f 559 665 666
f 560 666 667
f 560 559 666
f 561 560 667
f 562 667 668
f 562 561 667
f 563 668 669
f 563 669 670
f 563 562 668
f 564 563 670
f 565 670 671
f 565 564 670
f 566 671 672
f 566 565 671
f 567 672 673
f 567 566 672
f 568 673 674
f 568 567 673
f 569 674 675
f 569 568 674
f 570 675 676
f 570 569 675
f 571 676 677
f 571 570 676
f 572 677 678
f 572 571 677
f 573 678 679
f 573 572 678
f 574 679 680
f 574 573 679
f 575 680 681
f 575 681 682
f 575 574 680
f 576 575 682
f 577 682 683
f 577 576 682
f 578 683 684
f 578 577 683
f 579 684 685
f 579 685 686
f 579 578 684
f 580 579 686
f 580 686 687
f 581 580 687
f 582 581 687
f 582 687 688
f 583 582 688
f 583 688 689
f 584 583 689
f 584 689 690
f 585 584 690
f 585 690 691
f 585 691 692
f 586 585 692
f 586 692 693
f 587 586 693
f 588 587 693
f 588 693 694
f 588 694 695
f 589 695 696
f 589 588 695
f 590 589 696
f 591 696 697
f 591 590 696
f 592 697 698
f 592 698 699
f 592 591 697
f 593 592 699
f 594 699 700
f 594 593 699
f 595 700 701
f 595 594 700
f 596 701 702
f 596 595 701
f 597 702 703
f 597 596 702
f 598 703 704
f 598 597 703
f 599 704 705
f 599 598 704
f 600 705 706
f 600 599 705
f 601 706 707
f 601 600 706
f 602 707 708
f 602 601 707
f 603 708 709
f 603 602 708
f 604 709 710
f 604 603 709
f 605 710 711
f 605 604 710
f 606 605 711
f 606 711 712
f 606 712 713
f 607 606 713
f 608 607 713
f 608 713 714
f 609 608 714
f 609 714 715
f 610 609 715
f 610 715 716
f 611 610 716
f 611 716 717
f 612 611 717
f 612 717 718
f 613 612 718
f 613 718 719
f 614 613 719
f 614 719 720
f 614 720 721
f 615 614 721
f 616 615 721
f 616 721 722
f 617 616 722
f 617 722 723
f 618 617 723
f 618 723 724
f 619 618 724
f 619 724 725
f 620 619 725
f 620 725 726
f 621 620 726
f 621 726 727
f 622 621 727
f 622 727 728
f 623 728 729
f 623 622 728
f 624 729 730
f 624 730 731
f 624 623 729
f 625 624 731
f 626 731 732
f 626 625 731
f 627 732 733
f 627 733 734
f 627 626 732
f 628 627 734
f 629 734 735
f 629 628 734
f 630 629 735
f 630 735 736
f 631 630 736
f 631 736 737
f 632 631 737
f 632 737 738
f 633 632 738
f 633 738 739
f 634 633 739
f 634 739 740
f 635 634 740
f 635 740 741
f 636 635 741
f 636 741 742
f 637 636 742
f 637 742 743
f 638 637 743
f 638 743 744
f 639 638 744
f 639 744 745
f 640 639 745
f 640 745 746
f 641 640 746
f 641 746 747
f 642 641 747
f 642 747 748
f 643 642 748
f 643 748 749
f 644 643 749
f 644 749 750
f 645 644 750
f 645 750 751
f 646 645 751
f 646 751 752
f 647 646 752
f 647 752 753
f 648 647 753
f 648 753 754
f 649 648 754
f 649 754 755
f 650 649 755
f 650 755 756
f 651 650 756
f 651 756 757
f 652 651 757
f 652 757 758
f 653 652 758
f 653 758 759
f 654 759 760
f 654 653 759
f 655 760 761
f 655 654 760
f 656 655 761
f 656 761 762
f 657 762 763
f 657 656 762
f 658 763 764
f 658 657 763
f 659 764 765
f 659 658 764
f 660 765 766
f 660 659 765
f 661 766 767
f 661 767 768
f 661 660 766
f 662 661 768
f 663 768 769
f 663 662 768
f 772 773 774
f 772 774 775
f 771 775 770
f 771 772 775
f 839 841 840
f 846 842 841
f 846 843 842
f 846 844 843
f 846 845 844
f 848 847 846
f 859 854 853
f 859 855 854
f 859 856 855
f 859 857 856
f 859 858 857
f 861 860 859
f 821 823 822
f 821 824 823
f 821 825 824
f 821 826 825
f 865 863 862
f 865 864 863
f 818 820 819
f 818 821 820
f 866 865 862
f 867 866 862
f 867 862 861
f 815 817 816
f 869 867 861
f 869 859 853
f 869 849 848
f 869 850 849
f 869 851 850
f 869 852 851
f 869 853 852
f 869 861 859
f 869 868 867
f 814 817 815
f 812 814 813
f 873 870 869
f 873 871 870
f 873 872 871
f 874 873 869
f 809 811 810
f 809 812 811
f 809 814 812
f 875 846 841
f 875 848 846
f 875 874 869
f 875 869 848
f 876 841 839
f 876 839 838
f 876 875 841
f 807 809 808
f 877 876 838
f 877 837 836
f 877 838 837
f 879 878 877
f 804 809 807
f 804 806 805
f 804 807 806
f 880 877 836
f 880 834 833
f 880 835 834
f 880 836 835
f 880 879 877
f 776 880 833
f 802 804 803
f 777 776 833
f 777 832 831
f 777 833 832
f 778 829 828
f 778 830 829
f 778 831 830
f 778 777 831
f 799 801 800
f 799 802 801
f 781 779 778
f 781 780 779
f 797 809 804
f 797 799 798
f 797 804 802
f 797 802 799
f 783 782 781
f 783 778 828
f 783 781 778
f 783 828 827
f 784 827 826
f 784 783 827
f 794 796 795
f 794 797 796
f 792 794 793
f 792 797 794
f 787 786 785
f 788 785 784
f 788 787 785
f 788 826 821
f 788 784 826
f 790 797 792
f 790 792 791
f 789 821 818
f 789 788 821
f 789 817 814
f 789 818 817
f 789 797 790
f 789 814 809
f 789 809 797
