v -0.0233245735195 0.0679069507276 0.099324331513
v -0.0233245735195 0.0668926668994 0.101499470202
v -0.0249122867597 0.0693850133138 0.102661670422
v -0.0249122867597 0.0703992971419 0.100486531733
v -0.0249122867597 0.0654146043132 0.0981621312932
v -0.0249122867597 0.0644003204851 0.100337269982
v -0.0233245735195 0.0668926668994 0.101499470202
v -0.0233245735195 0.0679069507276 0.099324331513
v -0.0249122867597 0.0703992971419 0.100486531733
v -0.0249122867597 0.0693850133138 0.102661670422
v -0.0280877132403 0.0693850133138 0.102661670422
v -0.0280877132403 0.0703992971419 0.100486531733
v -0.0233245735195 0.0679069507276 0.099324331513
v -0.0249122867597 0.0703992971419 0.100486531733
v -0.0280877132403 0.0703992971419 0.100486531733
v -0.0296754264805 0.0679069507276 0.099324331513
v -0.0280877132403 0.0654146043132 0.0981621312932
v -0.0249122867597 0.0654146043132 0.0981621312932
v -0.025 0.0679069507276 0.099324331513
v -0.0250026848053 0.0679882521832 0.0993622430044
v -0.0250107296105 0.0680692626007 0.0994000187825
v -0.0250241056171 0.0681496919839 0.0994375236198
v -0.0250427649426 0.0682292524163 0.0994746232587
v -0.0250666407913 0.0683076590923 0.0995111848922
v -0.025095647694 0.0683846313364 0.0995470776391
v -0.0251296818135 0.0684598936079 0.0995821730127
v -0.0251686213165 0.0685331764874 0.0996163453806
v -0.0252123268096 0.0686042176412 0.0996494724146
v -0.0252606418385 0.0686727627604 0.0996814355286
v -0.025313393448 0.0687385664713 0.099712120303
v -0.025370392801 0.0688013932137 0.0997414168941
v -0.0254314358546 0.068861018084 0.0997692204277
v -0.0254963040905 0.0689172276409 0.0997954313746
v -0.0255647652972 0.0689698206686 0.0998199559062
v -0.0256365744015 0.0690186088978 0.0998427062311
v -0.0257114743453 0.0690634176793 0.099863600909
v -0.0257891970063 0.0691040866092 0.0998825651425
v -0.0258694641575 0.0691404701034 0.0998995310444
v -0.0259519884635 0.0691724379183 0.0999144378814
v -0.0260364745084 0.0691998756175 0.0999272322906
v -0.0261226198544 0.0692226849812 0.0999378684716
v -0.0262101161233 0.0692407843577 0.0999463083495
v -0.0262986501013 0.0692541089561 0.0999525217117
v -0.0263879048596 0.0692626110776 0.0999564863161
v -0.0264775608895 0.0692662602868 0.0999581879703
v -0.0265672972455 0.0692650435207 0.0999576205829
v -0.0266567926949 0.0692589651348 0.0999547861851
v -0.0267457268671 0.0692480468882 0.0999496949231
v -0.0268337814009 0.0692323278655 0.0999423650224
v -0.026920641084 0.0692118643366 0.0999328227221
v -0.0270059949811 0.0691867295556 0.0999211021813
v -0.0270895375475 0.0691570134986 0.0999072453563
v -0.0271709697225 0.0691228225413 0.0998913018511
v -0.02725 0.0690842790784 0.0998733287392
v -0.0273263454722 0.0690415210856 0.0998533903597
v -0.027399732842 0.0689947016254 0.0998315580869
v -0.0274698994018 0.0689439882993 0.0998079100745
v -0.0275365939735 0.0688895626479 0.0997825309765
v -0.0275995778077 0.0688316195007 0.0997555116432
v -0.0276586254388 0.0687703662794 0.099726948797
v -0.0277135254916 0.0687060222545 0.0996969446854
v -0.027764081438 0.0686388177609 0.0996656067154
v -0.0278101123009 0.0685689933732 0.0996330470687
v -0.0278514533019 0.0684967990447 0.0995993823005
v -0.0278879564507 0.0684224932123 0.0995647329218
v -0.0279194910757 0.0683463418717 0.0995292229684
v -0.027945944291 0.0682686176247 0.0994929795569
v -0.0279672214011 0.0681895987042 0.0994561324291
v -0.0279832462393 0.0681095679772 0.0994188134882
v -0.027993961441 0.0680288119331 0.0993811563264
v -0.0279993286484 0.0679476196575 0.0993432957465
v -0.0279993286484 0.0678662817977 0.0993053672796
v -0.027993961441 0.0677850895221 0.0992675066997
v -0.0279832462393 0.0677043334779 0.0992298495378
v -0.0279672214011 0.067624302751 0.099192530597
v -0.027945944291 0.0675452838304 0.0991556834692
v -0.0279194910757 0.0674675595835 0.0991194400576
v -0.0278879564507 0.0673914082428 0.0990839301043
v -0.0278514533019 0.0673171024104 0.0990492807256
v -0.0278101123009 0.0672449080819 0.0990156159573
v -0.027764081438 0.0671750836943 0.0989830563107
v -0.0277135254916 0.0671078792007 0.0989517183406
v -0.0276586254388 0.0670435351758 0.098921714229
v -0.0275995778077 0.0669822819544 0.0988931513829
v -0.0275365939735 0.0669243388073 0.0988661320496
v -0.0274698994018 0.0668699131558 0.0988407529515
v -0.027399732842 0.0668191998297 0.0988171049392
v -0.0273263454722 0.0667723803695 0.0987952726664
v -0.02725 0.0667296223767 0.0987753342869
v -0.0271709697225 0.0666910789139 0.098757361175
v -0.0270895375475 0.0666568879566 0.0987414176697
v -0.0270059949811 0.0666271718996 0.0987275608448
v -0.026920641084 0.0666020371186 0.0987158403039
v -0.0268337814009 0.0665815735897 0.0987062980037
v -0.0267457268671 0.0665658545669 0.098698968103
v -0.0266567926949 0.0665549363204 0.098693876841
v -0.0265672972455 0.0665488579345 0.0986910424431
v -0.0264775608895 0.0665476411683 0.0986904750557
v -0.0263879048596 0.0665512903776 0.09869217671
v -0.0262986501013 0.0665597924991 0.0986961413143
v -0.0262101161233 0.0665731170974 0.0987023546766
v -0.0261226198544 0.066591216474 0.0987107945545
v -0.0260364745084 0.0666140258376 0.0987214307354
v -0.0259519884635 0.0666414635369 0.0987342251447
v -0.0258694641575 0.0666734313518 0.0987491319816
v -0.0257891970063 0.066709814846 0.0987660978836
v -0.0257114743453 0.0667504837759 0.098785062117
v -0.0256365744015 0.0667952925573 0.098805956795
v -0.0255647652972 0.0668440807865 0.0988287071199
v -0.0254963040905 0.0668966738142 0.0988532316515
v -0.0254314358546 0.0669528833711 0.0988794425983
v -0.025370392801 0.0670125082415 0.098907246132
v -0.025313393448 0.0670753349839 0.0989365427231
v -0.0252606418385 0.0671411386948 0.0989672274974
v -0.0252123268096 0.067209683814 0.0989991906114
v -0.0251686213165 0.0672807249678 0.0990323176455
v -0.0251296818135 0.0673540078472 0.0990664900134
v -0.025095647694 0.0674292701187 0.099101585387
v -0.0250666407913 0.0675062423628 0.0991374781339
v -0.0250427649426 0.0675846490389 0.0991740397673
v -0.0250241056171 0.0676642094713 0.0992111394063
v -0.0250107296105 0.0677446388544 0.0992486442436
v -0.0250026848053 0.067825649272 0.0992864200217
v -0.0233245735195 0.0668926668994 0.101499470202
v -0.0249122867597 0.0693850133138 0.102661670422
v -0.0280877132403 0.0693850133138 0.102661670422
v -0.0296754264805 0.0668926668994 0.101499470202
v -0.0280877132403 0.0644003204851 0.100337269982
v -0.0249122867597 0.0644003204851 0.100337269982
v -0.025 0.0668926668994 0.101499470202
v -0.0250026848053 0.066973968355 0.101537381693
v -0.0250107296105 0.0670549787725 0.101575157471
v -0.0250241056171 0.0671354081557 0.101612662309
v -0.0250427649426 0.0672149685881 0.101649761948
v -0.0250666407913 0.0672933752642 0.101686323581
v -0.025095647694 0.0673703475083 0.101722216328
v -0.0251296818135 0.0674456097797 0.101757311702
v -0.0251686213165 0.0675188926592 0.101791484069
v -0.0252123268096 0.067589933813 0.101824611104
v -0.0252606418385 0.0676584789322 0.101856574218
v -0.025313393448 0.0677242826431 0.101887258992
v -0.025370392801 0.0677871093855 0.101916555583
v -0.0254314358546 0.0678467342559 0.101944359117
v -0.0254963040905 0.0679029438127 0.101970570063
v -0.0255647652972 0.0679555368405 0.101995094595
v -0.0256365744015 0.0680043250697 0.10201784492
v -0.0257114743453 0.0680491338511 0.102038739598
v -0.0257891970063 0.068089802781 0.102057703831
v -0.0258694641575 0.0681261862752 0.102074669733
v -0.0259519884635 0.0681581540901 0.10208957657
v -0.0260364745084 0.0681855917893 0.10210237098
v -0.0261226198544 0.068208401153 0.10211300716
v -0.0262101161233 0.0682265005296 0.102121447038
v -0.0262986501013 0.0682398251279 0.102127660401
v -0.0263879048596 0.0682483272494 0.102131625005
v -0.0264775608895 0.0682519764587 0.102133326659
v -0.0265672972455 0.0682507596925 0.102132759272
v -0.0266567926949 0.0682446813066 0.102129924874
v -0.0267457268671 0.0682337630601 0.102124833612
v -0.0268337814009 0.0682180440373 0.102117503711
v -0.026920641084 0.0681975805084 0.102107961411
v -0.0270059949811 0.0681724457274 0.10209624087
v -0.0270895375475 0.0681427296704 0.102082384045
v -0.0271709697225 0.0681085387131 0.10206644054
v -0.02725 0.0680699952502 0.102048467428
v -0.0273263454722 0.0680272372575 0.102028529049
v -0.027399732842 0.0679804177973 0.102006696776
v -0.0274698994018 0.0679297044711 0.101983048763
v -0.0275365939735 0.0678752788197 0.101957669665
v -0.0275995778077 0.0678173356726 0.101930650332
v -0.0276586254388 0.0677560824512 0.101902087486
v -0.0277135254916 0.0676917384263 0.101872083374
v -0.027764081438 0.0676245339327 0.101840745404
v -0.0278101123009 0.067554709545 0.101808185758
v -0.0278514533019 0.0674825152166 0.101774520989
v -0.0278879564507 0.0674082093842 0.101739871611
v -0.0279194910757 0.0673320580435 0.101704361657
v -0.027945944291 0.0672543337966 0.101668118246
v -0.0279672214011 0.067175314876 0.101631271118
v -0.0279832462393 0.0670952841491 0.101593952177
v -0.027993961441 0.0670145281049 0.101556295015
v -0.0279993286484 0.0669333358293 0.101518434435
v -0.0279993286484 0.0668519979695 0.101480505968
v -0.027993961441 0.0667708056939 0.101442645389
v -0.0279832462393 0.0666900496498 0.101404988227
v -0.0279672214011 0.0666100189228 0.101367669286
v -0.027945944291 0.0665310000022 0.101330822158
v -0.0279194910757 0.0664532757553 0.101294578747
v -0.0278879564507 0.0663771244146 0.101259068793
v -0.0278514533019 0.0663028185823 0.101224419414
v -0.0278101123009 0.0662306242538 0.101190754646
v -0.027764081438 0.0661607998661 0.101158195
v -0.0277135254916 0.0660935953725 0.10112685703
v -0.0276586254388 0.0660292513476 0.101096852918
v -0.0275995778077 0.0659679981262 0.101068290072
v -0.0275365939735 0.0659100549791 0.101041270739
v -0.0274698994018 0.0658556293277 0.10101589164
v -0.027399732842 0.0658049160016 0.100992243628
v -0.0273263454722 0.0657580965414 0.100970411355
v -0.02725 0.0657153385486 0.100950472976
v -0.0271709697225 0.0656767950857 0.100932499864
v -0.0270895375475 0.0656426041284 0.100916556359
v -0.0270059949811 0.0656128880714 0.100902699534
v -0.026920641084 0.0655877532904 0.100890978993
v -0.0268337814009 0.0655672897615 0.100881436693
v -0.0267457268671 0.0655515707387 0.100874106792
v -0.0266567926949 0.0655406524922 0.10086901553
v -0.0265672972455 0.0655345741063 0.100866181132
v -0.0264775608895 0.0655333573402 0.100865613745
v -0.0263879048596 0.0655370065494 0.100867315399
v -0.0262986501013 0.0655455086709 0.100871280003
v -0.0262101161233 0.0655588332692 0.100877493365
v -0.0261226198544 0.0655769326458 0.100885933243
v -0.0260364745084 0.0655997420095 0.100896569424
v -0.0259519884635 0.0656271797087 0.100909363834
v -0.0258694641575 0.0656591475236 0.100924270671
v -0.0257891970063 0.0656955310178 0.100941236572
v -0.0257114743453 0.0657361999477 0.100960200806
v -0.0256365744015 0.0657810087291 0.100981095484
v -0.0255647652972 0.0658297969583 0.101003845809
v -0.0254963040905 0.0658823899861 0.10102837034
v -0.0254314358546 0.0659385995429 0.101054581287
v -0.025370392801 0.0659982244133 0.101082384821
v -0.025313393448 0.0660610511557 0.101111681412
v -0.0252606418385 0.0661268548666 0.101142366186
v -0.0252123268096 0.0661953999858 0.1011743293
v -0.0251686213165 0.0662664411396 0.101207456334
v -0.0251296818135 0.0663397240191 0.101241628702
v -0.025095647694 0.0664149862906 0.101276724076
v -0.0250666407913 0.0664919585346 0.101312616823
v -0.0250427649426 0.0665703652107 0.101349178456
v -0.0250241056171 0.0666499256431 0.101386278095
v -0.0250107296105 0.0667303550263 0.101423782932
v -0.0250026848053 0.0668113654438 0.101461558711
v -0.0280877132403 0.0654146043132 0.0981621312932
v -0.0280877132403 0.0644003204851 0.100337269982
v -0.0249122867597 0.0644003204851 0.100337269982
v -0.0249122867597 0.0654146043132 0.0981621312932
v -0.0280877132403 0.0703992971419 0.100486531733
v -0.0280877132403 0.0693850133138 0.102661670422
v -0.0296754264805 0.0668926668994 0.101499470202
v -0.0296754264805 0.0679069507276 0.099324331513
v -0.0296754264805 0.0679069507276 0.099324331513
v -0.0296754264805 0.0668926668994 0.101499470202
v -0.0280877132403 0.0644003204851 0.100337269982
v -0.0280877132403 0.0654146043132 0.0981621312932
v -0.025 0.0668926668994 0.101499470202
v -0.0250026848053 0.066973968355 0.101537381693
v -0.0250107296105 0.0670549787725 0.101575157471
v -0.0250241056171 0.0671354081557 0.101612662309
v -0.0250427649426 0.0672149685881 0.101649761948
v -0.0250666407913 0.0672933752642 0.101686323581
v -0.025095647694 0.0673703475083 0.101722216328
v -0.0251296818135 0.0674456097797 0.101757311702
v -0.0251686213165 0.0675188926592 0.101791484069
v -0.0252123268096 0.067589933813 0.101824611104
v -0.0252606418385 0.0676584789322 0.101856574218
v -0.025313393448 0.0677242826431 0.101887258992
v -0.025370392801 0.0677871093855 0.101916555583
v -0.0254314358546 0.0678467342559 0.101944359117
v -0.0254963040905 0.0679029438127 0.101970570063
v -0.0255647652972 0.0679555368405 0.101995094595
v -0.0256365744015 0.0680043250697 0.10201784492
v -0.0257114743453 0.0680491338511 0.102038739598
v -0.0257891970063 0.068089802781 0.102057703831
v -0.0258694641575 0.0681261862752 0.102074669733
v -0.0259519884635 0.0681581540901 0.10208957657
v -0.0260364745084 0.0681855917893 0.10210237098
v -0.0261226198544 0.068208401153 0.10211300716
v -0.0262101161233 0.0682265005296 0.102121447038
v -0.0262986501013 0.0682398251279 0.102127660401
v -0.0263879048596 0.0682483272494 0.102131625005
v -0.0264775608895 0.0682519764587 0.102133326659
v -0.0265672972455 0.0682507596925 0.102132759272
v -0.0266567926949 0.0682446813066 0.102129924874
v -0.0267457268671 0.0682337630601 0.102124833612
v -0.0268337814009 0.0682180440373 0.102117503711
v -0.026920641084 0.0681975805084 0.102107961411
v -0.0270059949811 0.0681724457274 0.10209624087
v -0.0270895375475 0.0681427296704 0.102082384045
v -0.0271709697225 0.0681085387131 0.10206644054
v -0.02725 0.0680699952502 0.102048467428
v -0.0273263454722 0.0680272372575 0.102028529049
v -0.027399732842 0.0679804177973 0.102006696776
v -0.0274698994018 0.0679297044711 0.101983048763
v -0.0275365939735 0.0678752788197 0.101957669665
v -0.0275995778077 0.0678173356726 0.101930650332
v -0.0276586254388 0.0677560824512 0.101902087486
v -0.0277135254916 0.0676917384263 0.101872083374
v -0.027764081438 0.0676245339327 0.101840745404
v -0.0278101123009 0.067554709545 0.101808185758
v -0.0278514533019 0.0674825152166 0.101774520989
v -0.0278879564507 0.0674082093842 0.101739871611
v -0.0279194910757 0.0673320580435 0.101704361657
v -0.027945944291 0.0672543337966 0.101668118246
v -0.0279672214011 0.067175314876 0.101631271118
v -0.0279832462393 0.0670952841491 0.101593952177
v -0.027993961441 0.0670145281049 0.101556295015
v -0.0279993286484 0.0669333358293 0.101518434435
v -0.0279993286484 0.0668519979695 0.101480505968
v -0.027993961441 0.0667708056939 0.101442645389
v -0.0279832462393 0.0666900496498 0.101404988227
v -0.0279672214011 0.0666100189228 0.101367669286
v -0.027945944291 0.0665310000022 0.101330822158
v -0.0279194910757 0.0664532757553 0.101294578747
v -0.0278879564507 0.0663771244146 0.101259068793
v -0.0278514533019 0.0663028185823 0.101224419414
v -0.0278101123009 0.0662306242538 0.101190754646
v -0.027764081438 0.0661607998661 0.101158195
v -0.0277135254916 0.0660935953725 0.10112685703
v -0.0276586254388 0.0660292513476 0.101096852918
v -0.0275995778077 0.0659679981262 0.101068290072
v -0.0275365939735 0.0659100549791 0.101041270739
v -0.0274698994018 0.0658556293277 0.10101589164
v -0.027399732842 0.0658049160016 0.100992243628
v -0.0273263454722 0.0657580965414 0.100970411355
v -0.02725 0.0657153385486 0.100950472976
v -0.0271709697225 0.0656767950857 0.100932499864
v -0.0270895375475 0.0656426041284 0.100916556359
v -0.0270059949811 0.0656128880714 0.100902699534
v -0.026920641084 0.0655877532904 0.100890978993
v -0.0268337814009 0.0655672897615 0.100881436693
v -0.0267457268671 0.0655515707387 0.100874106792
v -0.0266567926949 0.0655406524922 0.10086901553
v -0.0265672972455 0.0655345741063 0.100866181132
v -0.0264775608895 0.0655333573402 0.100865613745
v -0.0263879048596 0.0655370065494 0.100867315399
v -0.0262986501013 0.0655455086709 0.100871280003
v -0.0262101161233 0.0655588332692 0.100877493365
v -0.0261226198544 0.0655769326458 0.100885933243
v -0.0260364745084 0.0655997420095 0.100896569424
v -0.0259519884635 0.0656271797087 0.100909363834
v -0.0258694641575 0.0656591475236 0.100924270671
v -0.0257891970063 0.0656955310178 0.100941236572
v -0.0257114743453 0.0657361999477 0.100960200806
v -0.0256365744015 0.0657810087291 0.100981095484
v -0.0255647652972 0.0658297969583 0.101003845809
v -0.0254963040905 0.0658823899861 0.10102837034
v -0.0254314358546 0.0659385995429 0.101054581287
v -0.025370392801 0.0659982244133 0.101082384821
v -0.025313393448 0.0660610511557 0.101111681412
v -0.0252606418385 0.0661268548666 0.101142366186
v -0.0252123268096 0.0661953999858 0.1011743293
v -0.0251686213165 0.0662664411396 0.101207456334
v -0.0251296818135 0.0663397240191 0.101241628702
v -0.025095647694 0.0664149862906 0.101276724076
v -0.0250666407913 0.0664919585346 0.101312616823
v -0.0250427649426 0.0665703652107 0.101349178456
v -0.0250241056171 0.0666499256431 0.101386278095
v -0.0250107296105 0.0667303550263 0.101423782932
v -0.0250026848053 0.0668113654438 0.101461558711
v -0.025 0.0668926668994 0.101499470202
v -0.025 0.0679069507276 0.099324331513
v -0.0250026848053 0.0679882521832 0.0993622430044
v -0.0250107296105 0.0680692626007 0.0994000187825
v -0.0250241056171 0.0681496919839 0.0994375236198
v -0.0250427649426 0.0682292524163 0.0994746232587
v -0.0250666407913 0.0683076590923 0.0995111848922
v -0.025095647694 0.0683846313364 0.0995470776391
v -0.0251296818135 0.0684598936079 0.0995821730127
v -0.0251686213165 0.0685331764874 0.0996163453806
v -0.0252123268096 0.0686042176412 0.0996494724146
v -0.0252606418385 0.0686727627604 0.0996814355286
v -0.025313393448 0.0687385664713 0.099712120303
v -0.025370392801 0.0688013932137 0.0997414168941
v -0.0254314358546 0.068861018084 0.0997692204277
v -0.0254963040905 0.0689172276409 0.0997954313746
v -0.0255647652972 0.0689698206686 0.0998199559062
v -0.0256365744015 0.0690186088978 0.0998427062311
v -0.0257114743453 0.0690634176793 0.099863600909
v -0.0257891970063 0.0691040866092 0.0998825651425
v -0.0258694641575 0.0691404701034 0.0998995310444
v -0.0259519884635 0.0691724379183 0.0999144378814
v -0.0260364745084 0.0691998756175 0.0999272322906
v -0.0261226198544 0.0692226849812 0.0999378684716
v -0.0262101161233 0.0692407843577 0.0999463083495
v -0.0262986501013 0.0692541089561 0.0999525217117
v -0.0263879048596 0.0692626110776 0.0999564863161
v -0.0264775608895 0.0692662602868 0.0999581879703
v -0.0265672972455 0.0692650435207 0.0999576205829
v -0.0266567926949 0.0692589651348 0.0999547861851
v -0.0267457268671 0.0692480468882 0.0999496949231
v -0.0268337814009 0.0692323278655 0.0999423650224
v -0.026920641084 0.0692118643366 0.0999328227221
v -0.0270059949811 0.0691867295556 0.0999211021813
v -0.0270895375475 0.0691570134986 0.0999072453563
v -0.0271709697225 0.0691228225413 0.0998913018511
v -0.02725 0.0690842790784 0.0998733287392
v -0.0273263454722 0.0690415210856 0.0998533903597
v -0.027399732842 0.0689947016254 0.0998315580869
v -0.0274698994018 0.0689439882993 0.0998079100745
v -0.0275365939735 0.0688895626479 0.0997825309765
v -0.0275995778077 0.0688316195007 0.0997555116432
v -0.0276586254388 0.0687703662794 0.099726948797
v -0.0277135254916 0.0687060222545 0.0996969446854
v -0.027764081438 0.0686388177609 0.0996656067154
v -0.0278101123009 0.0685689933732 0.0996330470687
v -0.0278514533019 0.0684967990447 0.0995993823005
v -0.0278879564507 0.0684224932123 0.0995647329218
v -0.0279194910757 0.0683463418717 0.0995292229684
v -0.027945944291 0.0682686176247 0.0994929795569
v -0.0279672214011 0.0681895987042 0.0994561324291
v -0.0279832462393 0.0681095679772 0.0994188134882
v -0.027993961441 0.0680288119331 0.0993811563264
v -0.0279993286484 0.0679476196575 0.0993432957465
v -0.0279993286484 0.0678662817977 0.0993053672796
v -0.027993961441 0.0677850895221 0.0992675066997
v -0.0279832462393 0.0677043334779 0.0992298495378
v -0.0279672214011 0.067624302751 0.099192530597
v -0.027945944291 0.0675452838304 0.0991556834692
v -0.0279194910757 0.0674675595835 0.0991194400576
v -0.0278879564507 0.0673914082428 0.0990839301043
v -0.0278514533019 0.0673171024104 0.0990492807256
v -0.0278101123009 0.0672449080819 0.0990156159573
v -0.027764081438 0.0671750836943 0.0989830563107
v -0.0277135254916 0.0671078792007 0.0989517183406
v -0.0276586254388 0.0670435351758 0.098921714229
v -0.0275995778077 0.0669822819544 0.0988931513829
v -0.0275365939735 0.0669243388073 0.0988661320496
v -0.0274698994018 0.0668699131558 0.0988407529515
v -0.027399732842 0.0668191998297 0.0988171049392
v -0.0273263454722 0.0667723803695 0.0987952726664
v -0.02725 0.0667296223767 0.0987753342869
v -0.0271709697225 0.0666910789139 0.098757361175
v -0.0270895375475 0.0666568879566 0.0987414176697
v -0.0270059949811 0.0666271718996 0.0987275608448
v -0.026920641084 0.0666020371186 0.0987158403039
v -0.0268337814009 0.0665815735897 0.0987062980037
v -0.0267457268671 0.0665658545669 0.098698968103
v -0.0266567926949 0.0665549363204 0.098693876841
v -0.0265672972455 0.0665488579345 0.0986910424431
v -0.0264775608895 0.0665476411683 0.0986904750557
v -0.0263879048596 0.0665512903776 0.09869217671
v -0.0262986501013 0.0665597924991 0.0986961413143
v -0.0262101161233 0.0665731170974 0.0987023546766
v -0.0261226198544 0.066591216474 0.0987107945545
v -0.0260364745084 0.0666140258376 0.0987214307354
v -0.0259519884635 0.0666414635369 0.0987342251447
v -0.0258694641575 0.0666734313518 0.0987491319816
v -0.0257891970063 0.066709814846 0.0987660978836
v -0.0257114743453 0.0667504837759 0.098785062117
v -0.0256365744015 0.0667952925573 0.098805956795
v -0.0255647652972 0.0668440807865 0.0988287071199
v -0.0254963040905 0.0668966738142 0.0988532316515
v -0.0254314358546 0.0669528833711 0.0988794425983
v -0.025370392801 0.0670125082415 0.098907246132
v -0.025313393448 0.0670753349839 0.0989365427231
v -0.0252606418385 0.0671411386948 0.0989672274974
v -0.0252123268096 0.067209683814 0.0989991906114
v -0.0251686213165 0.0672807249678 0.0990323176455
v -0.0251296818135 0.0673540078472 0.0990664900134
v -0.025095647694 0.0674292701187 0.099101585387
v -0.0250666407913 0.0675062423628 0.0991374781339
v -0.0250427649426 0.0675846490389 0.0991740397673
v -0.0250241056171 0.0676642094713 0.0992111394063
v -0.0250107296105 0.0677446388544 0.0992486442436
v -0.0250026848053 0.067825649272 0.0992864200217
v -0.025 0.0679069507276 0.099324331513
f 4 2 1
f 4 3 2
f 7 6 5
f 8 7 5
f 12 10 9
f 12 11 10
f 84 85 17
f 86 17 85
f 83 84 17
f 87 17 86
f 82 83 17
f 88 17 87
f 81 82 17
f 89 17 88
f 80 17 16
f 80 81 17
f 90 17 89
f 79 80 16
f 91 17 90
f 78 79 16
f 92 17 91
f 77 78 16
f 93 17 92
f 76 77 16
f 94 17 93
f 75 76 16
f 95 17 94
f 74 75 16
f 96 17 95
f 73 74 16
f 97 17 96
f 72 73 16
f 98 17 97
f 71 72 16
f 70 71 16
f 69 70 16
f 18 17 98
f 18 98 99
f 18 99 100
f 18 100 101
f 68 69 16
f 102 18 101
f 67 68 16
f 103 18 102
f 66 67 16
f 104 18 103
f 65 66 16
f 105 18 104
f 64 65 16
f 106 18 105
f 63 64 16
f 107 18 106
f 108 18 107
f 109 18 108
f 110 18 109
f 111 18 110
f 112 18 111
f 113 18 112
f 114 18 113
f 115 18 114
f 15 63 16
f 15 49 50
f 15 50 51
f 15 51 52
f 15 52 53
f 15 53 54
f 15 54 55
f 15 55 56
f 15 56 57
f 15 57 58
f 15 58 59
f 15 59 60
f 15 60 61
f 15 61 62
f 15 62 63
f 48 49 15
f 47 48 15
f 46 47 15
f 45 46 15
f 13 115 116
f 13 116 117
f 13 117 118
f 13 118 119
f 13 119 120
f 13 120 121
f 13 19 20
f 13 121 122
f 13 20 21
f 13 122 123
f 13 21 22
f 13 123 19
f 13 22 23
f 13 23 24
f 13 24 25
f 13 25 26
f 13 26 27
f 13 27 28
f 13 18 115
f 14 28 29
f 14 29 30
f 14 30 31
f 14 31 32
f 14 32 33
f 14 33 34
f 14 34 35
f 14 35 36
f 14 36 37
f 14 37 38
f 14 38 39
f 14 39 40
f 14 40 41
f 14 41 42
f 14 42 43
f 14 43 44
f 14 44 45
f 14 45 15
f 14 13 28
f 195 128 196
f 197 196 128
f 194 128 195
f 198 197 128
f 193 128 194
f 199 198 128
f 192 128 193
f 200 199 128
f 191 127 128
f 191 128 192
f 201 200 128
f 190 127 191
f 202 201 128
f 189 127 190
f 203 202 128
f 188 127 189
f 204 203 128
f 187 127 188
f 205 204 128
f 186 127 187
f 206 205 128
f 185 127 186
f 207 206 128
f 184 127 185
f 208 207 128
f 183 127 184
f 209 208 128
f 182 127 183
f 181 127 182
f 180 127 181
f 129 209 128
f 129 210 209
f 129 211 210
f 129 212 211
f 179 127 180
f 213 212 129
f 178 127 179
f 214 213 129
f 177 127 178
f 215 214 129
f 176 127 177
f 216 215 129
f 175 127 176
f 217 216 129
f 174 127 175
f 218 217 129
f 219 218 129
f 220 219 129
f 221 220 129
f 222 221 129
f 223 222 129
f 224 223 129
f 225 224 129
f 226 225 129
f 126 127 174
f 126 161 160
f 126 162 161
f 126 163 162
f 126 164 163
f 126 165 164
f 126 166 165
f 126 167 166
f 126 168 167
f 126 169 168
f 126 170 169
f 126 171 170
f 126 172 171
f 126 173 172
f 126 174 173
f 159 126 160
f 158 126 159
f 157 126 158
f 156 126 157
f 124 227 226
f 124 228 227
f 124 229 228
f 124 230 229
f 124 231 230
f 124 232 231
f 124 131 130
f 124 233 232
f 124 132 131
f 124 234 233
f 124 133 132
f 124 130 234
f 124 134 133
f 124 135 134
f 124 136 135
f 124 137 136
f 124 138 137
f 124 139 138
f 124 226 129
f 125 140 139
f 125 141 140
f 125 142 141
f 125 143 142
f 125 144 143
f 125 145 144
f 125 146 145
f 125 147 146
f 125 148 147
f 125 149 148
f 125 150 149
f 125 151 150
f 125 152 151
f 125 153 152
f 125 154 153
f 125 155 154
f 125 156 155
f 125 139 124
f 125 126 156
f 238 236 235
f 238 237 236
f 242 240 239
f 242 241 240
f 245 244 243
f 246 245 243
f 248 353 247
f 248 354 353
f 249 355 354
f 249 354 248
f 250 356 355
f 250 357 356
f 250 355 249
f 251 357 250
f 252 358 357
f 252 357 251
f 253 359 358
f 253 360 359
f 253 358 252
f 254 361 360
f 254 360 253
f 255 361 254
f 256 362 361
f 256 361 255
f 257 363 362
f 257 364 363
f 257 362 256
f 258 365 364
f 258 364 257
f 259 365 258
f 260 366 365
f 260 365 259
f 261 367 366
f 261 366 260
f 262 368 367
f 262 369 368
f 262 367 261
f 263 369 262
f 264 370 369
f 264 371 370
f 264 369 263
f 265 371 264
f 266 372 371
f 266 371 265
f 267 373 372
f 267 374 373
f 267 372 266
f 268 374 267
f 269 374 268
f 269 375 374
f 270 375 269
f 270 376 375
f 270 377 376
f 271 377 270
f 272 377 271
f 272 378 377
f 272 379 378
f 273 379 272
f 274 379 273
f 274 380 379
f 275 380 274
f 275 381 380
f 276 381 275
f 276 382 381
f 277 382 276
f 277 383 382
f 278 384 383
f 278 383 277
f 279 385 384
f 279 386 385
f 279 384 278
f 280 386 279
f 281 387 386
f 281 388 387
f 281 386 280
f 282 388 281
f 283 389 388
f 283 390 389
f 283 388 282
f 284 390 283
f 285 391 390
f 285 390 284
f 286 392 391
f 286 391 285
f 287 393 392
f 287 392 286
f 288 394 393
f 288 393 287
f 289 395 394
f 289 394 288
f 290 396 395
f 290 395 289
f 291 397 396
f 291 396 290
f 292 398 397
f 292 397 291
f 293 399 398
f 293 398 292
f 294 400 399
f 294 399 293
f 295 400 294
f 295 401 400
f 296 401 295
f 296 402 401
f 297 402 296
f 297 403 402
f 298 403 297
f 298 404 403
f 299 404 298
f 299 405 404
f 300 405 299
f 300 406 405
f 301 406 300
f 301 407 406
f 302 407 301
f 302 408 407
f 303 408 302
f 303 409 408
f 304 409 303
f 304 410 409
f 305 410 304
f 305 411 410
f 306 411 305
f 306 412 411
f 307 412 306
f 307 413 412
f 308 413 307
f 308 414 413
f 309 414 308
f 309 415 414
f 310 415 309
f 310 416 415
f 311 416 310
f 311 417 416
f 312 418 417
f 312 417 311
f 313 419 418
f 313 418 312
f 314 420 419
f 314 419 313
f 315 421 420
f 315 420 314
f 316 422 421
f 316 421 315
f 317 423 422
f 317 422 316
f 318 424 423
f 318 423 317
f 319 424 318
f 319 425 424
f 320 425 319
f 320 426 425
f 321 426 320
f 321 427 426
f 322 427 321
f 322 428 427
f 323 428 322
f 323 429 428
f 324 429 323
f 324 430 429
f 325 430 324
f 325 431 430
f 326 431 325
f 326 432 431
f 327 432 326
f 327 433 432
f 328 433 327
f 328 434 433
f 329 434 328
f 329 435 434
f 330 435 329
f 330 436 435
f 331 436 330
f 331 437 436
f 332 437 331
f 332 438 437
f 333 438 332
f 333 439 438
f 334 439 333
f 334 440 439
f 335 440 334
f 335 441 440
f 336 441 335
f 336 442 441
f 337 442 336
f 337 443 442
f 338 443 337
f 338 444 443
f 339 444 338
f 339 445 444
f 340 445 339
f 340 446 445
f 341 446 340
f 341 447 446
f 342 447 341
f 342 448 447
f 343 449 448
f 343 448 342
f 344 450 449
f 344 449 343
f 345 450 344
f 345 451 450
f 346 452 451
f 346 451 345
f 347 453 452
f 347 452 346
f 348 454 453
f 348 455 454
f 348 453 347
f 349 455 348
f 350 456 455
f 350 455 349
f 351 457 456
f 351 456 350
f 352 458 457
f 352 457 351
