# https://github.com/mikedh/trimesh
v -0.02255400 -0.00031006 0.02656511
v -0.02242961 -0.00096031 0.02656511
v -0.02233403 -0.00031006 0.02702840
v -0.02255400 0.00004261 0.02656511
v -0.02222416 -0.00082712 0.02702840
v -0.02233354 -0.00031239 0.02702840
v -0.02228563 -0.00136749 0.02656511
v -0.02233403 0.00004261 0.02702840
v -0.02027539 0.00004261 0.02656511
v -0.02210244 -0.00113578 0.02702840
v -0.02208889 -0.00166624 0.02656511
v -0.02185173 -0.00155169 0.02702840
v -0.02027539 0.00004261 0.02702840
v -0.02008180 -0.00032172 0.02656511
v -0.02180382 -0.00206671 0.02656511
v -0.02177284 -0.00211014 0.02656511
v -0.02158457 -0.00192389 0.02702840
v -0.02008180 -0.00032172 0.02702840
v -0.02008180 -0.00293498 0.02656511
v -0.02115818 -0.00268024 0.02656511
v -0.02115818 -0.00228881 0.02702840
v -0.02008180 -0.00276010 0.02702840
v -0.02008180 -0.00280441 0.02694373
v -0.02056602 -0.00286182 0.02656511
v -0.02109841 -0.00271667 0.02656511
v -0.02090482 -0.00248292 0.02702840
v -0.02065968 -0.00259251 0.02702840
f 1 2 3
f 1 3 8
f 1 8 4
f 1 4 9
f 1 9 14
f 1 14 19
f 1 19 24
f 1 24 25
f 1 25 20
f 1 20 16
f 1 16 15
f 1 15 11
f 1 11 7
f 1 7 2
f 2 5 6
f 2 6 3
f 2 7 5
f 3 6 5
f 3 5 10
f 3 10 12
f 3 12 17
f 3 17 21
f 3 21 26
f 3 26 27
f 3 27 22
f 3 22 18
f 3 18 13
f 3 13 8
f 4 8 13
f 4 13 9
f 5 7 10
f 7 11 12
f 7 12 10
f 9 13 18
f 9 18 14
f 11 15 12
f 12 15 16
f 12 16 17
f 14 18 22
f 14 22 23
f 14 23 19
f 16 20 17
f 17 20 21
f 19 23 24
f 20 25 26
f 20 26 21
f 22 27 25
f 22 25 23
f 23 25 24
f 25 27 26

