# https://github.com/mikedh/trimesh
v -0.02008180 -0.00032154 0.02656511
v -0.02008180 -0.00127968 0.02656511
v -0.02008180 -0.00032154 0.02578999
v -0.02027546 0.00004247 0.02656511
v -0.02013035 -0.00143777 0.02656511
v -0.02008180 -0.00143777 0.02656472
v -0.02027546 0.00004247 0.02578999
v -0.02008180 -0.00033458 0.02517884
v -0.02027708 0.00004247 0.02521728
v -0.02255382 0.00004247 0.02656511
v -0.02222395 -0.00143777 0.02656511
v -0.02008180 -0.00143777 0.02406049
v -0.02008180 -0.00033487 0.02516982
v -0.02027735 0.00004247 0.02519571
v -0.02283730 0.00004247 0.02643998
v -0.02255382 -0.00031010 0.02656511
v -0.02228572 -0.00136720 0.02656511
v -0.02283730 -0.00143777 0.02639997
v -0.02076555 -0.00143777 0.02294685
v -0.02008180 -0.00061353 0.02464771
v -0.02027789 0.00004247 0.02516982
v -0.02008180 -0.00048500 0.02480031
v -0.02283730 -0.00031010 0.02643998
v -0.02283730 0.00004247 0.02255968
v -0.02243029 -0.00095610 0.02656511
v -0.02283730 -0.00064194 0.02643762
v -0.02283730 -0.00133329 0.02642311
v -0.02242867 -0.00096233 0.02656511
v -0.02283730 -0.00143777 0.02255772
v -0.02080843 -0.00143777 0.02288879
v -0.02178888 0.00004247 0.02275699
v -0.02055570 0.00004247 0.02448453
v -0.02015786 -0.00042747 0.02470852
v -0.02245349 0.00004247 0.02256125
v -0.02194559 -0.00143777 0.02256007
v -0.02283730 -0.00116621 0.02255772
v -0.02242948 -0.00096001 0.02656511
v -0.02121545 -0.00143777 0.02270953
v -0.02132604 -0.00143777 0.02266089
v -0.02183339 -0.00092987 0.02258910
v -0.02215085 0.00004247 0.02265030
v -0.02183339 -0.00143777 0.02256439
f 1 2 6
f 1 6 12
f 1 12 20
f 1 20 22
f 1 22 13
f 1 13 8
f 1 8 3
f 1 3 7
f 1 7 4
f 1 4 10
f 1 10 16
f 1 16 25
f 1 25 37
f 1 37 28
f 1 28 17
f 1 17 11
f 1 11 5
f 1 5 2
f 2 5 6
f 3 8 9
f 3 9 7
f 4 7 9
f 4 9 14
f 4 14 21
f 4 21 32
f 4 32 31
f 4 31 41
f 4 41 34
f 4 34 24
f 4 24 15
f 4 15 10
f 5 11 18
f 5 18 29
f 5 29 35
f 5 35 42
f 5 42 39
f 5 39 38
f 5 38 30
f 5 30 19
f 5 19 12
f 5 12 6
f 8 13 14
f 8 14 9
f 10 15 23
f 10 23 16
f 11 17 18
f 12 19 20
f 13 21 14
f 13 22 21
f 15 24 36
f 15 36 29
f 15 29 18
f 15 18 27
f 15 27 26
f 15 26 23
f 16 23 26
f 16 26 27
f 16 27 25
f 17 28 27
f 17 27 18
f 19 30 31
f 19 31 32
f 19 32 20
f 20 32 33
f 20 33 22
f 21 22 32
f 22 33 32
f 24 34 35
f 24 35 36
f 25 27 37
f 27 28 37
f 29 36 35
f 30 38 31
f 31 38 39
f 31 39 40
f 31 40 41
f 34 41 40
f 34 40 42
f 34 42 35
f 39 42 40

