# https://github.com/mikedh/trimesh
v -0.02440847 0.01494501 0.02179497
v -0.02567269 0.01494501 0.02221517
v -0.02215259 0.01494501 0.02179497
v -0.02397191 0.01390003 0.02179497
v -0.02431303 0.01389972 0.02194234
v -0.02567269 0.01476757 0.02228541
v -0.02567269 0.01494501 0.02422717
v -0.02426307 0.01389972 0.02191853
v -0.02215259 0.01494501 0.02422717
v -0.02215259 0.01389972 0.02179497
v -0.02396950 0.01389972 0.02179497
v -0.02483608 0.01389972 0.02221541
v -0.02567269 0.01463966 0.02269014
v -0.02505730 0.01389972 0.02269014
v -0.02567269 0.01462411 0.02422717
v -0.02215259 0.01389972 0.02422717
v -0.02567269 0.01462687 0.02319082
v -0.02507211 0.01389972 0.02323224
v -0.02567269 0.01462411 0.02330986
v -0.02507349 0.01389972 0.02422717
v -0.02507349 0.01389972 0.02330986
f 1 2 7
f 1 7 9
f 1 9 3
f 1 3 10
f 1 10 11
f 1 11 4
f 1 4 2
f 2 5 6
f 2 6 13
f 2 13 17
f 2 17 19
f 2 19 15
f 2 15 7
f 2 4 8
f 2 8 5
f 3 9 16
f 3 16 10
f 4 11 8
f 5 12 6
f 5 8 11
f 5 11 10
f 5 10 16
f 5 16 20
f 5 20 21
f 5 21 18
f 5 18 14
f 5 14 12
f 6 12 14
f 6 14 13
f 7 15 20
f 7 20 16
f 7 16 9
f 13 14 18
f 13 18 17
f 15 19 21
f 15 21 20
f 17 18 19
f 18 21 19

