# https://github.com/mikedh/trimesh
v -0.02555134 -0.01910030 0.02439666
v -0.02522419 -0.01910030 0.02439607
v -0.02493328 -0.01910030 0.02439607
v -0.02431355 -0.01884959 0.02515181
v -0.02555134 -0.01884959 0.02515181
v -0.02555134 -0.01467102 0.02439607
v -0.02460446 -0.01909885 0.02439607
v -0.02387265 -0.01873075 0.02515181
v -0.02431355 -0.01909692 0.02439607
v -0.02555134 -0.01463913 0.02515181
v -0.02555134 -0.01463913 0.02439607
v -0.02385487 -0.01872399 0.02515181
v -0.02369650 -0.01890418 0.02439607
v -0.02510239 -0.01416572 0.02515181
v -0.02510239 -0.01416572 0.02439607
v -0.02246642 -0.01750472 0.02515181
v -0.02242649 -0.01774770 0.02439607
v -0.02215269 -0.01416572 0.02515181
v -0.02215269 -0.01416572 0.02439607
v -0.02212383 -0.01745882 0.02439607
v -0.02216276 -0.01704870 0.02515181
v -0.02215269 -0.01643036 0.02515181
v -0.02212417 -0.01718734 0.02439607
f 1 2 3
f 1 3 4
f 1 4 5
f 1 5 10
f 1 10 11
f 1 11 6
f 1 6 2
f 2 6 11
f 2 11 15
f 2 15 19
f 2 19 23
f 2 23 20
f 2 20 17
f 2 17 13
f 2 13 9
f 2 9 7
f 2 7 3
f 3 7 4
f 4 8 12
f 4 12 16
f 4 16 21
f 4 21 22
f 4 22 18
f 4 18 14
f 4 14 10
f 4 10 5
f 4 7 9
f 4 9 8
f 8 9 13
f 8 13 12
f 10 14 15
f 10 15 11
f 12 13 16
f 13 17 16
f 14 18 19
f 14 19 15
f 16 17 20
f 16 20 21
f 18 22 20
f 18 20 23
f 18 23 19
f 20 22 21

