# https://github.com/mikedh/trimesh
v -0.01953047 -0.00154979 0.03014100
v -0.02121331 -0.00003918 0.03014100
v -0.02059363 -0.00154979 0.03014100
v -0.01953047 -0.00216954 0.03013643
v -0.01953047 -0.00096758 0.02998470
v -0.02053902 -0.00003918 0.02999536
v -0.02121331 -0.00093032 0.03014100
v -0.02030328 -0.00003918 0.02702931
v -0.02233411 -0.00017488 0.02702840
v -0.02229075 -0.00017488 0.02955419
v -0.02169797 -0.00010717 0.03009195
v -0.02121331 -0.00154979 0.03009134
v -0.01997396 -0.00216954 0.03012790
v -0.01953047 -0.00263917 0.02997586
v -0.01953047 -0.00073888 0.02960751
v -0.02028626 -0.00003918 0.02949295
v -0.02027803 -0.00003918 0.02888968
v -0.01953047 -0.00070325 0.02846557
v -0.01964985 -0.00070271 0.02702870
v -0.02007852 -0.00032744 0.02702840
v -0.02216314 -0.00098172 0.02702840
v -0.02214502 -0.00095507 0.02950971
v -0.02218344 -0.00073969 0.02987349
v -0.02217850 -0.00017488 0.02993565
v -0.02186894 -0.00094011 0.02998043
v -0.02167327 -0.00154979 0.02993077
v -0.02121331 -0.00203792 0.02993077
v -0.02064934 -0.00222664 0.03000207
v -0.01997396 -0.00262612 0.02996703
v -0.01997396 -0.00277677 0.02950971
v -0.01953047 -0.00280424 0.02942135
v -0.01953047 -0.00070380 0.02888968
v -0.01953047 -0.00192207 0.02702840
v -0.02185165 -0.00155142 0.02702840
v -0.02209453 -0.00111034 0.02888968
v -0.02183134 -0.00154979 0.02950971
v -0.02156926 -0.00190902 0.02968520
v -0.02047919 -0.00256167 0.02990975
v -0.02073250 -0.00253638 0.02950971
v -0.02078245 -0.00253747 0.02702840
v -0.01997396 -0.00278085 0.02888968
v -0.01953047 -0.00280804 0.02888968
v -0.01997396 -0.00279118 0.02702840
v -0.01953047 -0.00281729 0.02702962
v -0.02158462 -0.00192370 0.02702840
v -0.02184040 -0.00154979 0.02888968
v -0.02121331 -0.00221876 0.02950971
v -0.02115787 -0.00228864 0.02702840
f 1 2 7
f 1 7 3
f 1 3 4
f 1 4 14
f 1 14 31
f 1 31 42
f 1 42 44
f 1 44 33
f 1 33 18
f 1 18 32
f 1 32 15
f 1 15 5
f 1 5 6
f 1 6 2
f 2 6 16
f 2 16 17
f 2 17 8
f 2 8 9
f 2 9 10
f 2 10 11
f 2 11 7
f 3 7 12
f 3 12 13
f 3 13 4
f 4 13 14
f 5 15 6
f 6 15 16
f 7 11 12
f 8 17 18
f 8 18 19
f 8 19 20
f 8 20 9
f 9 20 33
f 9 33 43
f 9 43 40
f 9 40 48
f 9 48 45
f 9 45 34
f 9 34 21
f 9 21 22
f 9 22 23
f 9 23 10
f 10 23 24
f 10 24 11
f 11 25 12
f 11 24 25
f 12 25 26
f 12 26 27
f 12 27 28
f 12 28 13
f 13 28 29
f 13 29 14
f 14 29 30
f 14 30 31
f 15 32 16
f 16 32 17
f 17 32 18
f 18 33 19
f 19 33 20
f 21 34 35
f 21 35 22
f 22 35 36
f 22 36 23
f 23 36 37
f 23 37 26
f 23 26 25
f 23 25 24
f 26 37 27
f 27 37 38
f 27 38 28
f 28 38 29
f 29 38 30
f 30 38 39
f 30 39 40
f 30 40 41
f 30 41 42
f 30 42 31
f 33 44 43
f 34 45 46
f 34 46 35
f 35 46 36
f 36 46 37
f 37 46 45
f 37 45 47
f 37 47 38
f 38 47 39
f 39 47 40
f 40 43 41
f 40 47 48
f 41 43 42
f 42 43 44
f 45 48 47

