# https://github.com/mikedh/trimesh
v -0.01667093 0.00017553 0.02702931
v -0.01683186 0.00093044 0.02888968
v -0.01668801 0.00017499 0.02888968
v -0.01798833 0.00003959 0.02702840
v -0.01682571 0.00093044 0.02702840
v -0.01706332 0.00143634 0.02950971
v -0.01684306 0.00093044 0.02950971
v -0.01705717 0.00144370 0.02702840
v -0.01673754 0.00017499 0.02956089
v -0.01811315 0.00003959 0.03013155
v -0.01886883 0.00003959 0.02702840
v -0.01726372 0.00175399 0.02702840
v -0.01727100 0.00174609 0.02950971
v -0.01710363 0.00137123 0.02990487
v -0.01701910 0.00093044 0.02996368
v -0.01695809 0.00017499 0.02998043
v -0.01756123 0.00017499 0.03013978
v -0.01948597 0.00208145 0.03013887
v -0.01953019 0.00145786 0.03011967
v -0.01953019 0.00096749 0.02998470
v -0.01869083 0.00003959 0.02988385
v -0.01953019 0.00070541 0.02937991
v -0.01947505 0.00070296 0.02702901
v -0.01953019 0.00192072 0.02702840
v -0.01889738 0.00003959 0.02954017
v -0.01757383 0.00206811 0.02702840
v -0.01757970 0.00206756 0.02888968
v -0.01758082 0.00206647 0.02950971
v -0.01765583 0.00199646 0.02992620
v -0.01746719 0.00156602 0.02999841
v -0.01749378 0.00093044 0.03012424
v -0.01811315 0.00154967 0.03014039
v -0.01811315 0.00093044 0.03014100
v -0.01873337 0.00154967 0.03014100
v -0.01873337 0.00216972 0.03010535
v -0.01944174 0.00260942 0.02998897
v -0.01944174 0.00279822 0.02954231
v -0.01944174 0.00281347 0.02893386
v -0.01944174 0.00282274 0.02702870
v -0.01873337 0.00273256 0.02702840
v -0.01796650 0.00237786 0.02702840
v -0.01796958 0.00237759 0.02888968
v -0.01812463 0.00246531 0.02950971
v -0.01832782 0.00252933 0.02988111
v -0.01811791 0.00218988 0.02998440
v -0.01873337 0.00259689 0.02994479
v -0.01873337 0.00271513 0.02950971
v -0.01827632 0.00256611 0.02702840
f 1 2 3
f 1 3 4
f 1 4 5
f 1 5 2
f 2 6 7
f 2 7 3
f 2 5 8
f 2 8 6
f 3 7 9
f 3 9 10
f 3 10 4
f 4 11 24
f 4 24 40
f 4 40 48
f 4 48 41
f 4 41 26
f 4 26 12
f 4 12 8
f 4 8 5
f 4 10 21
f 4 21 25
f 4 25 11
f 6 8 12
f 6 12 13
f 6 13 14
f 6 14 7
f 7 14 15
f 7 15 9
f 9 15 16
f 9 16 10
f 10 16 17
f 10 17 18
f 10 18 19
f 10 19 20
f 10 20 21
f 11 22 23
f 11 23 24
f 11 25 22
f 12 26 27
f 12 27 28
f 12 28 13
f 13 28 29
f 13 29 14
f 14 29 30
f 14 30 15
f 15 30 31
f 15 31 16
f 16 31 17
f 17 31 32
f 17 32 33
f 17 33 34
f 17 34 18
f 18 34 32
f 18 32 35
f 18 35 36
f 18 36 37
f 18 37 19
f 19 37 24
f 19 24 22
f 19 22 20
f 20 25 21
f 20 22 25
f 22 24 23
f 24 37 38
f 24 38 39
f 24 39 40
f 26 41 42
f 26 42 27
f 27 42 28
f 28 43 44
f 28 44 29
f 28 42 43
f 29 44 45
f 29 45 30
f 30 32 31
f 30 45 32
f 32 34 33
f 32 45 35
f 35 45 46
f 35 46 36
f 36 46 37
f 37 46 47
f 37 47 38
f 38 47 40
f 38 40 39
f 40 47 48
f 41 48 42
f 42 48 43
f 43 47 44
f 43 48 47
f 44 46 45
f 44 47 46

