# https://github.com/mikedh/trimesh
v -0.02557244 -0.01764100 0.03265526
v -0.02557244 -0.01764100 0.03508981
v -0.02557244 -0.01463806 0.03265526
v -0.02307308 -0.01764100 0.03265526
v -0.02557244 -0.01763992 0.03570999
v -0.01908528 -0.01764100 0.03508981
v -0.02557244 -0.01463806 0.03508981
v -0.02506190 -0.01395586 0.03265526
v -0.02302800 -0.01764028 0.03265526
v -0.01908528 -0.01762801 0.03323034
v -0.01908528 -0.01764100 0.03385016
v -0.02557244 -0.01750355 0.03615448
v -0.01908528 -0.01763992 0.03570999
v -0.02557244 -0.01463842 0.03510857
v -0.02506127 -0.01395586 0.03508981
v -0.02506190 -0.01395586 0.03447035
v -0.02101187 -0.01395586 0.03265526
v -0.02240824 -0.01757101 0.03265526
v -0.01908528 -0.01748768 0.03279632
v -0.02557244 -0.01749922 0.03616855
v -0.01908528 -0.01749922 0.03616855
v -0.02557244 -0.01465393 0.03570999
v -0.02504476 -0.01395586 0.03570999
v -0.01908528 -0.01395586 0.03265922
v -0.02101187 -0.01642994 0.03265526
v -0.02175736 -0.01746892 0.03265526
v -0.01908528 -0.01723911 0.03272200
v -0.02557244 -0.01706343 0.03632404
v -0.01908528 -0.01704972 0.03632873
v -0.02557244 -0.01477478 0.03611263
v -0.02482632 -0.01395586 0.03618045
v -0.01908528 -0.01395586 0.03634100
v -0.01908528 -0.01642994 0.03265922
v -0.02123031 -0.01704972 0.03265526
v -0.02146907 -0.01729575 0.03265526
v -0.01908528 -0.01704972 0.03266572
v -0.02557244 -0.01704972 0.03632873
v -0.01908528 -0.01678167 0.03633415
v -0.02557244 -0.01519001 0.03627317
v -0.02431895 -0.01395586 0.03633956
v -0.01908528 -0.01642994 0.03634100
v -0.02431324 -0.01395586 0.03634100
v -0.02557244 -0.01642994 0.03634100
v -0.02557244 -0.01580979 0.03634100
f 1 2 5
f 1 5 12
f 1 12 20
f 1 20 28
f 1 28 37
f 1 37 43
f 1 43 44
f 1 44 39
f 1 39 30
f 1 30 22
f 1 22 14
f 1 14 7
f 1 7 3
f 1 3 8
f 1 8 17
f 1 17 25
f 1 25 34
f 1 34 35
f 1 35 26
f 1 26 18
f 1 18 9
f 1 9 4
f 1 4 11
f 1 11 6
f 1 6 2
f 2 6 13
f 2 13 5
f 3 7 16
f 3 16 8
f 4 9 10
f 4 10 11
f 5 13 12
f 6 11 10
f 6 10 19
f 6 19 27
f 6 27 36
f 6 36 33
f 6 33 24
f 6 24 32
f 6 32 41
f 6 41 38
f 6 38 29
f 6 29 21
f 6 21 13
f 7 14 15
f 7 15 16
f 8 16 15
f 8 15 23
f 8 23 31
f 8 31 40
f 8 40 42
f 8 42 32
f 8 32 24
f 8 24 17
f 9 18 19
f 9 19 10
f 12 13 21
f 12 21 20
f 14 22 15
f 15 22 23
f 17 24 33
f 17 33 25
f 18 26 19
f 19 26 27
f 20 21 28
f 21 29 28
f 22 30 23
f 23 30 31
f 25 33 34
f 26 35 33
f 26 33 36
f 26 36 27
f 28 29 37
f 29 38 37
f 30 39 31
f 31 39 40
f 32 42 44
f 32 44 43
f 32 43 41
f 33 35 34
f 37 38 43
f 38 41 43
f 39 44 42
f 39 42 40

