# https://github.com/mikedh/trimesh
v -0.02943428 0.01357880 0.02185475
v -0.02943428 0.01357880 0.02422717
v -0.02943428 0.01428943 0.02185475
v -0.02730658 0.01357880 0.02185475
v -0.02943428 0.01428943 0.02422717
v -0.02629391 0.01357880 0.02422717
v -0.02732257 0.01428943 0.02185475
v -0.02693459 0.01357880 0.02207841
v -0.02650665 0.01428943 0.02422717
v -0.02629391 0.01357880 0.02330979
v -0.02678426 0.01428943 0.02219383
v -0.02676858 0.01357880 0.02218431
v -0.02650665 0.01428943 0.02392989
v -0.02629976 0.01357880 0.02267296
v -0.02650696 0.01428943 0.02330979
v -0.02665883 0.01428943 0.02237894
v -0.02645439 0.01357880 0.02242910
v -0.02652233 0.01428943 0.02268945
f 1 2 5
f 1 5 3
f 1 3 7
f 1 7 4
f 1 4 8
f 1 8 12
f 1 12 17
f 1 17 14
f 1 14 10
f 1 10 6
f 1 6 2
f 2 6 9
f 2 9 5
f 3 5 9
f 3 9 13
f 3 13 15
f 3 15 18
f 3 18 16
f 3 16 11
f 3 11 7
f 4 7 8
f 6 10 13
f 6 13 9
f 7 11 8
f 8 11 12
f 10 14 15
f 10 15 13
f 11 16 17
f 11 17 12
f 14 17 16
f 14 16 18
f 14 18 15

