# https://github.com/mikedh/trimesh
v -0.02554848 -0.01334514 0.02559342
v -0.02506145 -0.01394771 0.02559342
v -0.02554848 -0.01334514 0.02654282
v -0.02554848 -0.00963424 0.02559342
v -0.02351870 -0.01394771 0.02559342
v -0.02506145 -0.01394771 0.02654282
v -0.02554848 -0.01331558 0.02654282
v -0.02554848 -0.00963424 0.02636196
v -0.02366098 -0.00963424 0.02559342
v -0.02351870 -0.01394771 0.02654282
v -0.02351870 -0.01006960 0.02559342
v -0.02493408 -0.01010760 0.02654282
v -0.02554848 -0.01010760 0.02654273
v -0.02431372 -0.00963424 0.02636196
v -0.02356620 -0.00992307 0.02559342
v -0.02367131 -0.00963424 0.02579009
v -0.02351870 -0.01007340 0.02579009
v -0.02351870 -0.01023850 0.02654282
v -0.02431412 -0.01010760 0.02654282
v -0.02385054 -0.00963424 0.02623426
v -0.02369595 -0.01018783 0.02654282
v -0.02367985 -0.00963424 0.02581732
v -0.02351870 -0.01019459 0.02640350
f 1 2 6
f 1 6 3
f 1 3 7
f 1 7 13
f 1 13 8
f 1 8 4
f 1 4 9
f 1 9 15
f 1 15 11
f 1 11 5
f 1 5 2
f 2 5 10
f 2 10 6
f 3 6 10
f 3 10 18
f 3 18 21
f 3 21 19
f 3 19 12
f 3 12 7
f 4 8 14
f 4 14 20
f 4 20 22
f 4 22 16
f 4 16 9
f 5 11 17
f 5 17 23
f 5 23 18
f 5 18 10
f 7 12 13
f 8 13 12
f 8 12 19
f 8 19 14
f 9 16 17
f 9 17 15
f 11 15 17
f 14 19 21
f 14 21 18
f 14 18 20
f 16 22 18
f 16 18 23
f 16 23 17
f 18 22 20

