# https://github.com/mikedh/trimesh
v -0.02943459 0.00940174 0.02465552
v -0.02650379 0.00940174 0.02465552
v -0.02943459 0.00940174 0.02516996
v -0.02943459 0.01766978 0.02465552
v -0.02650379 0.00940174 0.02516996
v -0.02650379 0.01894502 0.02465552
v -0.02943459 0.01766978 0.02516996
v -0.02938582 0.01828918 0.02516996
v -0.02942627 0.01777534 0.02465552
v -0.02650379 0.01884318 0.02516996
v -0.02865341 0.01884038 0.02465552
v -0.02865341 0.01884038 0.02516996
v -0.02650379 0.01891792 0.02488021
v -0.02915029 0.01871986 0.02516996
v -0.02934565 0.01836298 0.02465552
v -0.02938553 0.01828918 0.02465552
v -0.02915029 0.01871986 0.02465552
f 1 2 5
f 1 5 3
f 1 3 7
f 1 7 4
f 1 4 9
f 1 9 16
f 1 16 15
f 1 15 17
f 1 17 11
f 1 11 6
f 1 6 2
f 2 6 13
f 2 13 10
f 2 10 5
f 3 5 10
f 3 10 12
f 3 12 14
f 3 14 8
f 3 8 7
f 4 7 8
f 4 8 9
f 6 11 12
f 6 12 13
f 8 14 15
f 8 15 16
f 8 16 9
f 10 13 12
f 11 17 14
f 11 14 12
f 14 17 15

