# https://github.com/mikedh/trimesh
v -0.02943232 -0.01581037 0.03265526
v -0.02943383 -0.01642964 0.03385016
v -0.02943383 -0.01403238 0.03376899
v -0.02943232 -0.01403238 0.03265526
v -0.02943156 -0.01642964 0.03265526
v -0.02943383 -0.01642964 0.03508981
v -0.02940019 -0.01700441 0.03265526
v -0.02939943 -0.01704963 0.03385016
v -0.02943383 -0.01403238 0.03508981
v -0.02650235 -0.01403238 0.03265526
v -0.02939943 -0.01704963 0.03508981
v -0.02938696 -0.01704963 0.03570999
v -0.02941002 -0.01642964 0.03570999
v -0.02939754 -0.01704963 0.03265526
v -0.02916393 -0.01750004 0.03265526
v -0.02941002 -0.01403238 0.03570999
v -0.02650197 -0.01403238 0.03385016
v -0.02557244 -0.01463823 0.03265526
v -0.02916393 -0.01750004 0.03508981
v -0.02916355 -0.01749934 0.03570999
v -0.02909627 -0.01745235 0.03611840
v -0.02916885 -0.01704963 0.03617432
v -0.02917452 -0.01642964 0.03618045
v -0.02865324 -0.01764100 0.03265526
v -0.02917452 -0.01403238 0.03618045
v -0.02650197 -0.01403238 0.03508981
v -0.02557244 -0.01764100 0.03265526
v -0.02557244 -0.01463823 0.03508981
v -0.02865324 -0.01764100 0.03508981
v -0.02865324 -0.01763994 0.03570999
v -0.02865324 -0.01749898 0.03616855
v -0.02865324 -0.01704963 0.03632873
v -0.02865324 -0.01642964 0.03634100
v -0.02865324 -0.01403238 0.03634100
v -0.02650348 -0.01403238 0.03514068
v -0.02557244 -0.01764100 0.03508981
v -0.02557244 -0.01465413 0.03570999
v -0.02652163 -0.01403238 0.03572262
v -0.02557244 -0.01763994 0.03570999
v -0.02557244 -0.01749898 0.03616855
v -0.02557244 -0.01705634 0.03632621
v -0.02557244 -0.01642964 0.03634100
v -0.02741412 -0.01403238 0.03634100
v -0.02655830 -0.01403238 0.03580416
v -0.02557244 -0.01477530 0.03611263
v -0.02557244 -0.01581037 0.03634100
v -0.02681761 -0.01403238 0.03618442
v -0.02557244 -0.01519039 0.03627317
f 1 2 3
f 1 3 4
f 1 4 10
f 1 10 18
f 1 18 27
f 1 27 24
f 1 24 15
f 1 15 14
f 1 14 7
f 1 7 5
f 1 5 2
f 2 6 9
f 2 9 3
f 2 5 7
f 2 7 8
f 2 8 11
f 2 11 6
f 3 9 16
f 3 16 25
f 3 25 34
f 3 34 43
f 3 43 47
f 3 47 44
f 3 44 38
f 3 38 35
f 3 35 26
f 3 26 17
f 3 17 10
f 3 10 4
f 6 11 12
f 6 12 13
f 6 13 16
f 6 16 9
f 7 14 8
f 8 14 15
f 8 15 19
f 8 19 11
f 10 17 18
f 11 19 20
f 11 20 12
f 12 20 21
f 12 21 22
f 12 22 13
f 13 22 23
f 13 23 25
f 13 25 16
f 15 24 29
f 15 29 19
f 17 26 28
f 17 28 18
f 18 28 37
f 18 37 45
f 18 45 48
f 18 48 46
f 18 46 42
f 18 42 41
f 18 41 40
f 18 40 39
f 18 39 36
f 18 36 27
f 19 29 20
f 20 29 30
f 20 30 21
f 21 30 31
f 21 31 32
f 21 32 22
f 22 32 33
f 22 33 23
f 23 33 34
f 23 34 25
f 24 27 36
f 24 36 29
f 26 35 28
f 28 35 38
f 28 38 37
f 29 36 39
f 29 39 30
f 30 39 40
f 30 40 31
f 31 40 32
f 32 40 41
f 32 41 42
f 32 42 33
f 33 42 46
f 33 46 43
f 33 43 34
f 37 38 44
f 37 44 45
f 43 46 48
f 43 48 47
f 44 47 45
f 45 47 48

