# https://github.com/mikedh/trimesh
v -0.02943459 0.01147022 0.02655388
v -0.02939890 0.01099415 0.02655388
v -0.02943459 0.01147022 0.02686708
v -0.02943459 0.01399975 0.02655388
v -0.02938067 0.01085030 0.02655388
v -0.02936510 0.01085030 0.02686708
v -0.02942206 0.01130734 0.02686708
v -0.02943459 0.01399975 0.02686708
v -0.02649694 0.01399975 0.02655388
v -0.02936473 0.01080121 0.02655388
v -0.02931347 0.01069427 0.02686708
v -0.02649694 0.01399975 0.02686708
v -0.02555569 0.01334254 0.02655538
v -0.02569276 0.01336156 0.02655388
v -0.02922994 0.01039402 0.02655388
v -0.02917298 0.01029431 0.02655388
v -0.02913881 0.01038945 0.02686708
v -0.02555569 0.01334254 0.02686708
v -0.02555569 0.01016188 0.02655388
v -0.02865357 0.01011850 0.02655388
v -0.02865357 0.01025930 0.02686708
v -0.02555569 0.01331095 0.02686708
v -0.02555569 0.01011241 0.02655388
v -0.02863876 0.01011812 0.02655388
v -0.02824047 0.01025550 0.02686708
v -0.02803354 0.01011241 0.02655388
v -0.02576111 0.01025359 0.02686708
v -0.02555569 0.01025283 0.02686598
v -0.02803354 0.01025359 0.02686708
f 1 2 3
f 1 3 8
f 1 8 4
f 1 4 9
f 1 9 14
f 1 14 19
f 1 19 23
f 1 23 26
f 1 26 24
f 1 24 20
f 1 20 16
f 1 16 15
f 1 15 10
f 1 10 5
f 1 5 2
f 2 5 6
f 2 6 7
f 2 7 3
f 3 7 6
f 3 6 11
f 3 11 17
f 3 17 21
f 3 21 25
f 3 25 29
f 3 29 27
f 3 27 22
f 3 22 18
f 3 18 12
f 3 12 8
f 4 8 12
f 4 12 9
f 5 10 6
f 6 10 11
f 9 13 14
f 9 12 18
f 9 18 13
f 10 15 11
f 11 15 16
f 11 16 17
f 13 19 14
f 13 18 22
f 13 22 28
f 13 28 23
f 13 23 19
f 16 20 17
f 17 20 21
f 20 24 21
f 21 24 26
f 21 26 25
f 22 27 28
f 23 28 26
f 25 26 29
f 26 28 29
f 27 29 28

