# https://github.com/mikedh/trimesh
v -0.02579965 -0.01785496 0.02654282
v -0.02493338 -0.01785496 0.02654282
v -0.02575521 -0.01764058 0.03174847
v -0.02579965 -0.01765357 0.02702695
v -0.02579965 -0.01460716 0.02654282
v -0.02431333 -0.01784732 0.02654282
v -0.02307395 -0.01764058 0.03174847
v -0.02575521 -0.01461327 0.03174847
v -0.02579965 -0.01460716 0.02702695
v -0.02507065 -0.01400223 0.02654282
v -0.02506097 -0.01395102 0.02702695
v -0.02355780 -0.01776019 0.02654282
v -0.02246860 -0.01750034 0.03136983
v -0.02242702 -0.01748467 0.03174847
v -0.02307395 -0.01765319 0.02654282
v -0.02294421 -0.01762300 0.02654282
v -0.02506097 -0.01395102 0.03174847
v -0.02215284 -0.01400223 0.02654282
v -0.02215284 -0.01395102 0.02702695
v -0.02246860 -0.01750034 0.02654282
v -0.02230194 -0.01730048 0.03174847
v -0.02213814 -0.01395102 0.03174847
v -0.02215284 -0.01642958 0.02654282
v -0.02216323 -0.01704941 0.02654282
v -0.02215463 -0.01704979 0.03174847
v -0.02213814 -0.01581013 0.03174847
v -0.02213850 -0.01642958 0.03174847
f 1 2 7
f 1 7 3
f 1 3 4
f 1 4 9
f 1 9 5
f 1 5 10
f 1 10 18
f 1 18 23
f 1 23 24
f 1 24 20
f 1 20 16
f 1 16 15
f 1 15 12
f 1 12 6
f 1 6 2
f 2 6 7
f 3 7 14
f 3 14 21
f 3 21 25
f 3 25 27
f 3 27 26
f 3 26 22
f 3 22 17
f 3 17 8
f 3 8 9
f 3 9 4
f 5 9 17
f 5 17 11
f 5 11 10
f 6 12 7
f 7 13 14
f 7 12 15
f 7 15 16
f 7 16 13
f 8 17 9
f 10 11 19
f 10 19 18
f 11 17 22
f 11 22 19
f 13 16 20
f 13 20 14
f 14 20 21
f 18 19 22
f 18 22 26
f 18 26 23
f 20 24 21
f 21 24 25
f 23 26 27
f 23 27 24
f 24 27 25

