# https://github.com/mikedh/trimesh
v -0.01838613 0.00129219 0.02385266
v -0.01918081 0.00129219 0.02424465
v -0.01838613 0.00154707 0.02321217
v -0.01838613 0.00129219 0.02702796
v -0.01918081 0.00183742 0.02296455
v -0.01838613 0.00168346 0.02287181
v -0.01918081 0.00129219 0.02702796
v -0.01838613 0.00260654 0.02702796
v -0.01918081 0.00207061 0.02280574
v -0.01918081 0.00217015 0.02274406
v -0.01838613 0.00184190 0.02277424
v -0.01918081 0.00280184 0.02702796
v -0.01873361 0.00273295 0.02702796
v -0.01838613 0.00448232 0.02621073
v -0.01918081 0.00261756 0.02260494
v -0.01838613 0.00217015 0.02267450
v -0.01918081 0.00452813 0.02622036
v -0.01873361 0.00451229 0.02622036
v -0.01838613 0.00465695 0.02578986
v -0.01873361 0.00472653 0.02578986
v -0.01918081 0.00279013 0.02255900
v -0.01838613 0.00244259 0.02260231
v -0.01918081 0.00476373 0.02578986
v -0.01838613 0.00468864 0.02516994
v -0.01873361 0.00476855 0.02516994
v -0.01918081 0.00481091 0.02516994
v -0.01918081 0.00385718 0.02255900
v -0.01838613 0.00279013 0.02255900
v -0.01838613 0.00468864 0.02358273
v -0.01873361 0.00476855 0.02393009
v -0.01918081 0.00481091 0.02393009
v -0.01918081 0.00402974 0.02256075
v -0.01838613 0.00368221 0.02256163
v -0.01838613 0.00340976 0.02255900
v -0.01838613 0.00468795 0.02331017
v -0.01873361 0.00476648 0.02331017
v -0.01918081 0.00481022 0.02375729
v -0.01873361 0.00402974 0.02256512
v -0.01918081 0.00442549 0.02272000
v -0.01838613 0.00402974 0.02258569
v -0.01838613 0.00460770 0.02303674
v -0.01918081 0.00480644 0.02331017
v -0.01873361 0.00455190 0.02278562
v -0.01918081 0.00457084 0.02278124
v -0.01838613 0.00425948 0.02268281
v -0.01838613 0.00451332 0.02280618
v -0.01918081 0.00474650 0.02316405
f 1 2 3
f 1 3 6
f 1 6 11
f 1 11 16
f 1 16 22
f 1 22 28
f 1 28 34
f 1 34 33
f 1 33 40
f 1 40 45
f 1 45 46
f 1 46 41
f 1 41 35
f 1 35 29
f 1 29 24
f 1 24 19
f 1 19 14
f 1 14 8
f 1 8 4
f 1 4 7
f 1 7 2
f 2 5 6
f 2 6 3
f 2 7 12
f 2 12 17
f 2 17 23
f 2 23 26
f 2 26 31
f 2 31 37
f 2 37 42
f 2 42 47
f 2 47 44
f 2 44 39
f 2 39 32
f 2 32 27
f 2 27 21
f 2 21 15
f 2 15 10
f 2 10 9
f 2 9 5
f 4 8 13
f 4 13 12
f 4 12 7
f 5 9 6
f 6 9 10
f 6 10 11
f 8 14 13
f 10 15 11
f 11 15 16
f 12 13 14
f 12 14 18
f 12 18 17
f 14 19 20
f 14 20 18
f 15 21 16
f 16 21 22
f 17 18 23
f 18 20 23
f 19 24 25
f 19 25 20
f 20 25 26
f 20 26 23
f 21 27 34
f 21 34 28
f 21 28 22
f 24 29 30
f 24 30 25
f 25 30 31
f 25 31 26
f 27 32 33
f 27 33 34
f 29 35 30
f 30 35 36
f 30 36 31
f 31 36 37
f 32 38 33
f 32 39 38
f 33 38 40
f 35 41 36
f 36 42 37
f 36 41 43
f 36 43 42
f 38 39 44
f 38 44 43
f 38 43 40
f 40 43 45
f 41 46 43
f 42 43 47
f 43 44 47
f 43 46 45

