# https://github.com/mikedh/trimesh
v -0.02432802 0.00940218 0.01947534
v -0.02432802 0.01085028 0.01946273
v -0.02431354 0.01085028 0.01946273
v -0.02307378 0.01147021 0.01945900
v -0.02431354 0.00940218 0.01947580
v -0.02432802 0.00940218 0.02422670
v -0.02432802 0.01147021 0.01946413
v -0.02431354 0.01147021 0.01946367
v -0.02369345 0.01208970 0.01945900
v -0.02369345 0.01147021 0.01945900
v -0.02307378 0.01085028 0.01953088
v -0.02307378 0.01270962 0.01945900
v -0.02245987 0.01147021 0.01967977
v -0.02248712 0.01085028 0.01971710
v -0.02259743 0.01047912 0.01980298
v -0.02382760 0.00940218 0.01969610
v -0.02364830 0.00940218 0.02422670
v -0.02432802 0.01389972 0.02422670
v -0.02432802 0.01209014 0.01956682
v -0.02307378 0.01389972 0.01948607
v -0.02245987 0.01389972 0.01967977
v -0.02215429 0.01147021 0.02021044
v -0.02220944 0.01085028 0.02021044
v -0.02251417 0.01044830 0.02021044
v -0.02365000 0.00940218 0.02021044
v -0.02251417 0.01044830 0.02422670
v -0.02364830 0.00940218 0.02083027
v -0.02432802 0.01389972 0.02194997
v -0.02215280 0.01389972 0.02422670
v -0.02432802 0.01263521 0.01975164
v -0.02361082 0.01389972 0.01970497
v -0.02215429 0.01389972 0.02021044
v -0.02215280 0.01147021 0.02083027
v -0.02220859 0.01085028 0.02083027
v -0.02235510 0.01065744 0.02422670
v -0.02385507 0.01389972 0.02021044
v -0.02432802 0.01290775 0.02021044
v -0.02215280 0.01147021 0.02422670
v -0.02215280 0.01389972 0.02083027
v -0.02408292 0.01315828 0.01979412
v -0.02383356 0.01389972 0.02016517
v -0.02217942 0.01117302 0.02422670
v -0.02220859 0.01085028 0.02422670
f 1 2 3
f 1 3 4
f 1 4 5
f 1 5 16
f 1 16 25
f 1 25 27
f 1 27 17
f 1 17 6
f 1 6 18
f 1 18 28
f 1 28 37
f 1 37 30
f 1 30 19
f 1 19 7
f 1 7 2
f 2 7 8
f 2 8 9
f 2 9 10
f 2 10 4
f 2 4 3
f 4 11 5
f 4 10 9
f 4 9 12
f 4 12 21
f 4 21 13
f 4 13 14
f 4 14 11
f 5 11 14
f 5 14 15
f 5 15 16
f 6 17 26
f 6 26 35
f 6 35 43
f 6 43 42
f 6 42 38
f 6 38 29
f 6 29 18
f 7 9 8
f 7 19 20
f 7 20 9
f 9 20 12
f 12 20 21
f 13 21 32
f 13 32 22
f 13 22 14
f 14 22 23
f 14 23 15
f 15 23 24
f 15 24 25
f 15 25 16
f 17 27 24
f 17 24 26
f 18 29 39
f 18 39 32
f 18 32 21
f 18 21 20
f 18 20 31
f 18 31 41
f 18 41 36
f 18 36 28
f 19 30 31
f 19 31 20
f 22 32 39
f 22 39 33
f 22 33 23
f 23 33 34
f 23 34 24
f 24 27 25
f 24 34 35
f 24 35 26
f 28 36 37
f 29 38 33
f 29 33 39
f 30 40 31
f 30 37 36
f 30 36 40
f 31 40 41
f 33 38 42
f 33 42 34
f 34 42 43
f 34 43 35
f 36 41 40

