# https://github.com/mikedh/trimesh
v -0.02943459 -0.01766993 0.02439607
v -0.02938555 -0.01828971 0.02439607
v -0.02943459 -0.01766993 0.02515181
v -0.02943459 -0.01416572 0.02439607
v -0.02915026 -0.01872012 0.02439607
v -0.02937871 -0.01830227 0.02515181
v -0.02938555 -0.01828971 0.02515181
v -0.02943459 -0.01416572 0.02515181
v -0.02650733 -0.01416572 0.02439607
v -0.02915026 -0.01872012 0.02515181
v -0.02865345 -0.01884089 0.02439607
v -0.02650733 -0.01416572 0.02515181
v -0.02555172 -0.01463913 0.02439607
v -0.02865345 -0.01884089 0.02515181
v -0.02617397 -0.01908629 0.02439607
v -0.02555172 -0.01463913 0.02515181
v -0.02555172 -0.01467102 0.02439607
v -0.02555172 -0.01910030 0.02439666
v -0.02617397 -0.01884910 0.02515181
v -0.02555362 -0.01910030 0.02439607
v -0.02555172 -0.01884959 0.02515181
v -0.02555362 -0.01884959 0.02515181
f 1 2 7
f 1 7 3
f 1 3 8
f 1 8 4
f 1 4 9
f 1 9 13
f 1 13 17
f 1 17 20
f 1 20 15
f 1 15 11
f 1 11 5
f 1 5 2
f 2 5 6
f 2 6 7
f 3 7 6
f 3 6 10
f 3 10 14
f 3 14 19
f 3 19 22
f 3 22 21
f 3 21 16
f 3 16 12
f 3 12 8
f 4 8 12
f 4 12 9
f 5 10 6
f 5 11 14
f 5 14 10
f 9 12 16
f 9 16 13
f 11 15 14
f 13 16 21
f 13 21 18
f 13 18 17
f 14 15 18
f 14 18 19
f 15 20 18
f 17 18 20
f 18 21 22
f 18 22 19

