# https://github.com/mikedh/trimesh
v -0.02865214 -0.01767017 0.01945948
v -0.02877785 -0.01676380 0.01951070
v -0.02769886 -0.01676380 0.01945948
v -0.02555298 -0.01903551 0.01945948
v -0.02610979 -0.01903551 0.01946963
v -0.02865214 -0.01828969 0.01950635
v -0.02919445 -0.01767017 0.01968029
v -0.02933950 -0.01676380 0.02000644
v -0.02369477 -0.01676380 0.01946142
v -0.02493411 -0.01705021 0.01945948
v -0.02120238 -0.01897258 0.01945948
v -0.02120238 -0.01897258 0.02414047
v -0.02630641 -0.01903551 0.02439510
v -0.02672544 -0.01903551 0.01964696
v -0.02865214 -0.01872019 0.01972668
v -0.02912999 -0.01848493 0.01974407
v -0.02938301 -0.01828969 0.02021082
v -0.02943056 -0.01767017 0.02021082
v -0.02943459 -0.01676380 0.02083025
v -0.02307429 -0.01676380 0.01946238
v -0.02120238 -0.01829569 0.01948074
v -0.02214115 -0.01693658 0.02439510
v -0.02227573 -0.01760368 0.02439510
v -0.02392684 -0.01896969 0.02439510
v -0.02120238 -0.01828524 0.02411390
v -0.02865214 -0.01884071 0.02439510
v -0.02685920 -0.01903551 0.02403997
v -0.02706388 -0.01903551 0.02021082
v -0.02865214 -0.01884071 0.02021082
v -0.02914933 -0.01872019 0.02021082
v -0.02938463 -0.01828969 0.02083025
v -0.02943459 -0.01767017 0.02083025
v -0.02943459 -0.01676380 0.02439510
v -0.02255051 -0.01676380 0.01964840
v -0.02120238 -0.01782249 0.01969962
v -0.02120238 -0.01781804 0.02385588
v -0.02214921 -0.01676380 0.02392932
v -0.02914933 -0.01872019 0.02439510
v -0.02708644 -0.01903551 0.02268950
v -0.02708402 -0.01903551 0.02330941
v -0.02708644 -0.01903551 0.02083025
v -0.02938463 -0.01828969 0.02439510
v -0.02943459 -0.01767017 0.02439510
v -0.02215002 -0.01676380 0.02021082
v -0.02120238 -0.01765749 0.02020550
v -0.02120238 -0.01765594 0.02330941
v -0.02214760 -0.01676380 0.02330941
v -0.02214760 -0.01676380 0.02083025
f 1 2 3
f 1 3 10
f 1 10 11
f 1 11 4
f 1 4 5
f 1 5 6
f 1 6 7
f 1 7 2
f 2 7 8
f 2 8 19
f 2 19 33
f 2 33 37
f 2 37 47
f 2 47 48
f 2 48 44
f 2 44 34
f 2 34 20
f 2 20 9
f 2 9 3
f 3 9 10
f 4 11 12
f 4 12 13
f 4 13 27
f 4 27 40
f 4 40 39
f 4 39 41
f 4 41 28
f 4 28 14
f 4 14 5
f 5 14 15
f 5 15 6
f 6 15 16
f 6 16 7
f 7 17 18
f 7 18 8
f 7 16 17
f 8 18 19
f 9 20 11
f 9 11 10
f 11 21 35
f 11 35 45
f 11 45 46
f 11 46 36
f 11 36 25
f 11 25 12
f 11 20 21
f 12 22 23
f 12 23 24
f 12 24 13
f 12 25 22
f 13 26 27
f 13 24 23
f 13 23 22
f 13 22 33
f 13 33 43
f 13 43 42
f 13 42 38
f 13 38 26
f 14 28 29
f 14 29 15
f 15 29 30
f 15 30 16
f 16 30 17
f 17 30 31
f 17 31 32
f 17 32 18
f 18 32 19
f 19 32 43
f 19 43 33
f 20 34 21
f 21 34 35
f 22 25 36
f 22 36 37
f 22 37 33
f 26 38 30
f 26 30 29
f 26 29 41
f 26 41 39
f 26 39 40
f 26 40 27
f 28 41 29
f 30 38 42
f 30 42 31
f 31 42 43
f 31 43 32
f 34 44 35
f 35 44 45
f 36 46 37
f 37 46 47
f 44 48 45
f 45 48 46
f 46 48 47

