# https://github.com/mikedh/trimesh
v -0.02493361 0.01919638 0.02422717
v -0.02493361 0.01898447 0.02465548
v -0.02431361 0.01898151 0.02465548
v -0.02431361 0.01919244 0.02422717
v -0.02555361 0.01919638 0.02422717
v -0.02565948 0.01898447 0.02465548
v -0.02373566 0.01877994 0.02465548
v -0.02372696 0.01908993 0.02422717
v -0.02617288 0.01917716 0.02422717
v -0.02627875 0.01897609 0.02465548
v -0.02318745 0.01887062 0.02422717
v -0.02240647 0.01758432 0.02465548
v -0.02621349 0.01917174 0.02422717
v -0.02865288 0.01884056 0.02465548
v -0.02209248 0.01763755 0.02422717
v -0.02236876 0.01752765 0.02465548
v -0.02202650 0.01754588 0.02422717
v -0.02865288 0.01884056 0.02422717
v -0.02873772 0.01882035 0.02465548
v -0.02215485 0.01701362 0.02465548
v -0.02212439 0.01745816 0.02439736
v -0.02215340 0.01693624 0.02465548
v -0.02215267 0.01643010 0.02465548
v -0.02202650 0.01739014 0.02422717
v -0.02889145 0.01878290 0.02422717
v -0.02914961 0.01872031 0.02422717
v -0.02914961 0.01872031 0.02465548
v -0.02215267 0.01416208 0.02465548
v -0.02215267 0.01416208 0.02422717
v -0.02927288 0.01849607 0.02422717
v -0.02934540 0.01836300 0.02465548
v -0.02943386 0.01416208 0.02465548
v -0.02943386 0.01416208 0.02422717
v -0.02938528 0.01828957 0.02422717
v -0.02938528 0.01828957 0.02465548
v -0.02943386 0.01766958 0.02465548
v -0.02943386 0.01766958 0.02422717
v -0.02941066 0.01796676 0.02422717
v -0.02942589 0.01777505 0.02465548
f 1 2 3
f 1 3 4
f 1 4 8
f 1 8 11
f 1 11 15
f 1 15 17
f 1 17 24
f 1 24 29
f 1 29 33
f 1 33 37
f 1 37 38
f 1 38 34
f 1 34 30
f 1 30 26
f 1 26 25
f 1 25 18
f 1 18 13
f 1 13 9
f 1 9 5
f 1 5 6
f 1 6 2
f 2 6 10
f 2 10 14
f 2 14 19
f 2 19 27
f 2 27 31
f 2 31 35
f 2 35 39
f 2 39 36
f 2 36 32
f 2 32 28
f 2 28 23
f 2 23 22
f 2 22 20
f 2 20 16
f 2 16 12
f 2 12 7
f 2 7 3
f 3 7 8
f 3 8 4
f 5 9 10
f 5 10 6
f 7 11 8
f 7 12 11
f 9 13 14
f 9 14 10
f 11 12 15
f 12 16 17
f 12 17 15
f 13 18 14
f 14 18 19
f 16 20 21
f 16 21 17
f 17 21 20
f 17 20 22
f 17 22 23
f 17 23 28
f 17 28 24
f 18 25 19
f 19 25 26
f 19 26 27
f 24 28 29
f 26 30 27
f 27 30 31
f 28 32 33
f 28 33 29
f 30 34 31
f 31 34 35
f 32 36 37
f 32 37 33
f 34 38 39
f 34 39 35
f 36 39 37
f 37 39 38

