# https://github.com/mikedh/trimesh
v -0.02008166 -0.00032197 0.02702752
v -0.01940008 -0.00069535 0.02702752
v -0.02008166 -0.00032197 0.02578955
v -0.02008166 -0.00275978 0.02702752
v -0.01940008 -0.00069535 0.02640941
v -0.01940008 -0.00282503 0.02702752
v -0.02008166 -0.00033519 0.02517406
v -0.01940008 -0.00069580 0.02578955
v -0.01997349 -0.00279108 0.02702752
v -0.02008166 -0.00451871 0.02621956
v -0.01997349 -0.00452488 0.02622000
v -0.01940008 -0.00453326 0.02622000
v -0.02008166 -0.00048552 0.02480004
v -0.01940008 -0.00071387 0.02516969
v -0.01940008 -0.00091225 0.02462200
v -0.02008166 -0.00474221 0.02578955
v -0.01997349 -0.00475764 0.02578955
v -0.01940008 -0.00477616 0.02578955
v -0.01940008 -0.00184681 0.02297326
v -0.02008166 -0.00180758 0.02296276
v -0.02008166 -0.00478630 0.02516969
v -0.01997349 -0.00480437 0.02516969
v -0.01940008 -0.00482553 0.02516969
v -0.01940008 -0.00215804 0.02276066
v -0.02008166 -0.00208046 0.02277729
v -0.02008166 -0.00478630 0.02382235
v -0.01997349 -0.00480437 0.02393040
v -0.01940008 -0.00482553 0.02393040
v -0.01940008 -0.00278932 0.02255900
v -0.02008166 -0.00217039 0.02273792
v -0.02008166 -0.00478409 0.02331053
v -0.01997349 -0.00480129 0.02331053
v -0.01940008 -0.00481980 0.02331053
v -0.02008166 -0.00278932 0.02255900
v -0.02008166 -0.00268131 0.02257825
v -0.01940008 -0.00398310 0.02255900
v -0.02008166 -0.00475235 0.02322130
v -0.02008166 -0.00456059 0.02278385
v -0.01997349 -0.00456897 0.02278122
v -0.01940008 -0.00480261 0.02327073
v -0.02008166 -0.00340957 0.02255900
v -0.02008166 -0.00392138 0.02256031
v -0.01940008 -0.00402938 0.02255944
v -0.01997349 -0.00402938 0.02256075
v -0.02008166 -0.00447463 0.02274535
v -0.02008166 -0.00402938 0.02256337
v -0.01940008 -0.00453679 0.02276373
v -0.01940008 -0.00457690 0.02278035
f 1 2 5
f 1 5 3
f 1 3 7
f 1 7 13
f 1 13 20
f 1 20 25
f 1 25 30
f 1 30 35
f 1 35 34
f 1 34 41
f 1 41 42
f 1 42 46
f 1 46 45
f 1 45 38
f 1 38 37
f 1 37 31
f 1 31 26
f 1 26 21
f 1 21 16
f 1 16 10
f 1 10 4
f 1 4 9
f 1 9 6
f 1 6 2
f 2 6 12
f 2 12 18
f 2 18 23
f 2 23 28
f 2 28 33
f 2 33 40
f 2 40 48
f 2 48 47
f 2 47 43
f 2 43 36
f 2 36 29
f 2 29 24
f 2 24 19
f 2 19 15
f 2 15 14
f 2 14 8
f 2 8 5
f 3 5 8
f 3 8 7
f 4 10 9
f 6 9 11
f 6 11 12
f 7 8 14
f 7 14 15
f 7 15 13
f 9 10 11
f 10 16 17
f 10 17 11
f 11 17 18
f 11 18 12
f 13 15 19
f 13 19 20
f 16 21 22
f 16 22 17
f 17 22 23
f 17 23 18
f 19 24 20
f 20 24 25
f 21 26 27
f 21 27 22
f 22 27 28
f 22 28 23
f 24 29 30
f 24 30 25
f 26 31 27
f 27 31 32
f 27 32 28
f 28 32 33
f 29 34 35
f 29 35 30
f 29 36 41
f 29 41 34
f 31 37 32
f 32 37 38
f 32 38 39
f 32 39 40
f 32 40 33
f 36 42 41
f 36 43 44
f 36 44 42
f 38 45 39
f 39 45 46
f 39 46 44
f 39 44 47
f 39 47 48
f 39 48 40
f 42 44 46
f 43 47 44

