# https://github.com/mikedh/trimesh
v -0.02179126 -0.01398214 0.03243510
v -0.02179126 -0.01581014 0.03243510
v -0.02213847 -0.01398214 0.03174897
v -0.02506693 -0.01398214 0.03243510
v -0.02179164 -0.01642974 0.03243510
v -0.02213847 -0.01642974 0.03174897
v -0.02506693 -0.01398214 0.03174897
v -0.02564221 -0.01462860 0.03243510
v -0.02182217 -0.01699239 0.03243510
v -0.02215468 -0.01704969 0.03174897
v -0.02564221 -0.01462860 0.03174897
v -0.02564221 -0.01764100 0.03243510
v -0.02183197 -0.01704969 0.03243510
v -0.02230170 -0.01730076 0.03174897
v -0.02201104 -0.01741572 0.03243510
v -0.02564221 -0.01764100 0.03174897
v -0.02307378 -0.01764100 0.03243510
v -0.02242686 -0.01748485 0.03174897
v -0.02204686 -0.01746730 0.03243510
v -0.02307378 -0.01764100 0.03174897
v -0.02262855 -0.01758763 0.03243510
f 1 2 6
f 1 6 3
f 1 3 7
f 1 7 4
f 1 4 8
f 1 8 12
f 1 12 17
f 1 17 21
f 1 21 19
f 1 19 15
f 1 15 13
f 1 13 9
f 1 9 5
f 1 5 2
f 2 5 6
f 3 6 10
f 3 10 14
f 3 14 18
f 3 18 20
f 3 20 16
f 3 16 11
f 3 11 7
f 4 7 11
f 4 11 8
f 5 9 10
f 5 10 6
f 8 11 16
f 8 16 12
f 9 13 10
f 10 13 15
f 10 15 14
f 12 16 20
f 12 20 17
f 14 15 18
f 15 19 18
f 17 20 21
f 18 19 20
f 19 21 20

