# https://github.com/mikedh/trimesh
v -0.02435540 -0.00963382 0.02173545
v -0.02435540 -0.00963382 0.01947505
v -0.02617521 -0.00963382 0.02173545
v -0.02435540 -0.01309670 0.02173545
v -0.02435540 -0.01080845 0.01946257
v -0.02493362 -0.00963382 0.01945900
v -0.02617521 -0.00963382 0.01945900
v -0.02617521 -0.01225259 0.02173545
v -0.02617521 -0.01215733 0.02020890
v -0.02435540 -0.01286482 0.02021002
v -0.02435540 -0.01085015 0.01946257
v -0.02493362 -0.01085015 0.01945900
v -0.02617521 -0.01085015 0.01945900
v -0.02435540 -0.01283533 0.02011820
v -0.02617521 -0.01196342 0.01969768
v -0.02435540 -0.01142814 0.01946323
v -0.02435540 -0.01146984 0.01946435
v -0.02617521 -0.01146984 0.01947705
v -0.02435540 -0.01260209 0.01973846
v -0.02435540 -0.01204817 0.01955683
f 1 2 6
f 1 6 7
f 1 7 3
f 1 3 8
f 1 8 4
f 1 4 10
f 1 10 14
f 1 14 19
f 1 19 20
f 1 20 17
f 1 17 16
f 1 16 11
f 1 11 5
f 1 5 2
f 2 5 6
f 3 7 13
f 3 13 18
f 3 18 15
f 3 15 9
f 3 9 8
f 4 8 9
f 4 9 10
f 5 11 12
f 5 12 6
f 6 12 13
f 6 13 7
f 9 14 10
f 9 15 14
f 11 16 12
f 12 16 13
f 13 16 17
f 13 17 18
f 14 15 19
f 15 18 19
f 17 20 18
f 18 20 19

