# https://github.com/mikedh/trimesh
v -0.02720618 0.01494498 0.02185429
v -0.02943459 0.01494498 0.02185429
v -0.02730652 0.01357873 0.02185429
v -0.02735494 0.01494498 0.02021006
v -0.02943459 0.01357873 0.02185429
v -0.02943459 0.01494498 0.02082981
v -0.02764265 0.01357873 0.02000582
v -0.02768192 0.01357873 0.01985036
v -0.02752007 0.01494498 0.01974578
v -0.02943459 0.01357873 0.02082981
v -0.02943306 0.01494498 0.02058524
v -0.02776895 0.01357873 0.01976219
v -0.02801151 0.01357873 0.01963745
v -0.02801369 0.01494498 0.01953919
v -0.02943066 0.01357873 0.02021006
v -0.02943066 0.01494498 0.02021006
v -0.02828243 0.01357873 0.01953427
v -0.02865347 0.01357873 0.01946861
v -0.02865347 0.01456995 0.01945900
v -0.02865347 0.01494498 0.01945900
v -0.02928975 0.01357873 0.01989233
v -0.02933774 0.01494498 0.02000067
v -0.02887072 0.01357873 0.01955326
v -0.02919508 0.01357873 0.01967965
v -0.02898132 0.01494498 0.01959242
v -0.02919508 0.01494498 0.01967965
f 1 2 5
f 1 5 3
f 1 3 4
f 1 4 9
f 1 9 14
f 1 14 20
f 1 20 25
f 1 25 26
f 1 26 22
f 1 22 16
f 1 16 11
f 1 11 6
f 1 6 2
f 2 6 10
f 2 10 5
f 3 5 10
f 3 10 15
f 3 15 21
f 3 21 24
f 3 24 23
f 3 23 18
f 3 18 17
f 3 17 13
f 3 13 12
f 3 12 8
f 3 8 7
f 3 7 4
f 4 7 8
f 4 8 9
f 6 11 10
f 8 12 9
f 9 12 13
f 9 13 14
f 10 11 15
f 11 16 15
f 13 17 14
f 14 17 18
f 14 18 19
f 14 19 20
f 15 16 21
f 16 22 21
f 18 23 19
f 19 23 24
f 19 24 25
f 19 25 20
f 21 22 26
f 21 26 24
f 24 26 25

