# https://github.com/mikedh/trimesh
v -0.02550573 0.01460984 0.02517010
v -0.02550573 0.01460984 0.02655375
v -0.02550573 0.01471579 0.02516996
v -0.02507295 0.01390256 0.02516996
v -0.02507295 0.01390256 0.02655375
v -0.02431369 0.01782209 0.02655389
v -0.02550573 0.01782983 0.02655375
v -0.02550573 0.01882109 0.02516996
v -0.02350988 0.01390256 0.02516996
v -0.02350988 0.01390256 0.02655375
v -0.02350988 0.01771857 0.02655375
v -0.02369491 0.01775872 0.02655375
v -0.02431369 0.01870546 0.02620560
v -0.02492348 0.01782983 0.02655375
v -0.02550573 0.01870546 0.02620560
v -0.02550573 0.01884431 0.02517010
v -0.02493345 0.01884479 0.02516996
v -0.02350988 0.01784870 0.02516996
v -0.02350988 0.01775291 0.02640582
v -0.02386782 0.01871272 0.02579013
v -0.02391862 0.01867015 0.02617038
v -0.02431369 0.01882592 0.02579013
v -0.02550573 0.01882592 0.02579013
v -0.02550573 0.01882737 0.02574217
v -0.02431369 0.01884479 0.02516996
v -0.02367537 0.01828990 0.02516996
v -0.02367537 0.01828990 0.02517010
v -0.02350988 0.01783903 0.02576737
v -0.02350988 0.01783854 0.02579013
v -0.02385942 0.01872191 0.02517010
v -0.02385942 0.01872191 0.02516996
f 1 2 7
f 1 7 15
f 1 15 23
f 1 23 24
f 1 24 16
f 1 16 8
f 1 8 3
f 1 3 4
f 1 4 5
f 1 5 2
f 2 5 6
f 2 6 7
f 3 8 17
f 3 17 25
f 3 25 31
f 3 31 26
f 3 26 18
f 3 18 9
f 3 9 4
f 4 9 10
f 4 10 5
f 5 10 6
f 6 11 12
f 6 12 13
f 6 13 14
f 6 14 7
f 6 10 11
f 7 14 13
f 7 13 15
f 8 16 17
f 9 18 28
f 9 28 29
f 9 29 19
f 9 19 11
f 9 11 10
f 11 19 20
f 11 20 21
f 11 21 13
f 11 13 12
f 13 21 22
f 13 22 23
f 13 23 15
f 16 24 17
f 17 24 23
f 17 23 22
f 17 22 25
f 18 26 27
f 18 27 28
f 19 29 20
f 20 27 30
f 20 30 25
f 20 25 22
f 20 22 21
f 20 29 27
f 25 30 31
f 26 31 30
f 26 30 27
f 27 29 28

