# https://github.com/mikedh/trimesh
v -0.01799374 -0.00003264 0.02702840
v -0.01886894 -0.00003264 0.02702840
v -0.01799374 -0.00140213 0.02702840
v -0.01799374 -0.00003264 0.02410634
v -0.01940001 -0.00069466 0.02702840
v -0.01886894 -0.00003264 0.02516984
v -0.01939891 -0.00140213 0.02702840
v -0.01799374 -0.00140213 0.02282214
v -0.01799374 -0.00130064 0.02285179
v -0.01811239 -0.00003264 0.02418374
v -0.01940001 -0.00137129 0.02702840
v -0.01940001 -0.00069466 0.02640998
v -0.01940001 -0.00071343 0.02516984
v -0.01940001 -0.00069519 0.02578991
v -0.01872564 -0.00003264 0.02464447
v -0.01940001 -0.00140213 0.02701934
v -0.01803572 -0.00140213 0.02283820
v -0.01940001 -0.00140213 0.02412816
v -0.01846575 -0.00003264 0.02443943
v -0.01828364 -0.00003264 0.02429614
v -0.01940001 -0.00091131 0.02462182
f 1 2 5
f 1 5 11
f 1 11 7
f 1 7 3
f 1 3 8
f 1 8 9
f 1 9 4
f 1 4 10
f 1 10 20
f 1 20 19
f 1 19 15
f 1 15 6
f 1 6 2
f 2 6 12
f 2 12 5
f 3 7 16
f 3 16 18
f 3 18 17
f 3 17 8
f 4 9 10
f 5 12 14
f 5 14 13
f 5 13 21
f 5 21 18
f 5 18 16
f 5 16 11
f 6 13 14
f 6 14 12
f 6 15 13
f 7 11 16
f 8 17 9
f 9 17 18
f 9 18 15
f 9 15 19
f 9 19 20
f 9 20 10
f 13 15 21
f 15 18 21

