# https://github.com/mikedh/trimesh
v -0.01935367 0.00282771 0.02702752
v -0.02002765 0.00277523 0.02702752
v -0.01918081 0.00280125 0.02702752
v -0.01918081 0.00452775 0.02622000
v -0.01935367 0.00453392 0.02622000
v -0.02002765 0.00452201 0.02622000
v -0.02008180 0.00032197 0.02702752
v -0.02008180 0.00472619 0.02582673
v -0.01918081 0.00061038 0.02702752
v -0.01918081 0.00476324 0.02578955
v -0.01935367 0.00477779 0.02578955
v -0.01997358 0.00475750 0.02578955
v -0.02008180 0.00032197 0.02577861
v -0.02008180 0.00478352 0.02522393
v -0.01918081 0.00061038 0.02578955
v -0.01918081 0.00481042 0.02516969
v -0.01935367 0.00482718 0.02516969
v -0.01997358 0.00480425 0.02516969
v -0.02008180 0.00033564 0.02516969
v -0.01918081 0.00062052 0.02532935
v -0.02002765 0.00479543 0.02393040
v -0.02002765 0.00479278 0.02331053
v -0.02002765 0.00456479 0.02278254
v -0.02008180 0.00340938 0.02255900
v -0.01918081 0.00481042 0.02393040
v -0.01935367 0.00482718 0.02393040
v -0.02008180 0.00061435 0.02464825
v -0.01918081 0.00079295 0.02463600
v -0.01918081 0.00064301 0.02494746
v -0.01918081 0.00062537 0.02516969
v -0.01935367 0.00482145 0.02331053
v -0.01935367 0.00457758 0.02278035
v -0.02002765 0.00402942 0.02256206
v -0.01935367 0.00402942 0.02255900
v -0.02008180 0.00278934 0.02255900
v -0.01918081 0.00480954 0.02375761
v -0.01918081 0.00480601 0.02331053
v -0.02008180 0.00180768 0.02296276
v -0.01918081 0.00183767 0.02296495
v -0.01918081 0.00474604 0.02316443
v -0.01918081 0.00457052 0.02278166
v -0.01918081 0.00442499 0.02272042
v -0.01918081 0.00402942 0.02256075
v -0.01918081 0.00385655 0.02255900
v -0.01918081 0.00278934 0.02255900
v -0.01918081 0.00261691 0.02260537
v -0.02008180 0.00217062 0.02273792
v -0.01918081 0.00212079 0.02277510
f 1 2 7
f 1 7 9
f 1 9 3
f 1 3 4
f 1 4 5
f 1 5 6
f 1 6 2
f 2 6 8
f 2 8 7
f 3 9 15
f 3 15 20
f 3 20 30
f 3 30 29
f 3 29 28
f 3 28 39
f 3 39 48
f 3 48 46
f 3 46 45
f 3 45 44
f 3 44 43
f 3 43 42
f 3 42 41
f 3 41 40
f 3 40 37
f 3 37 36
f 3 36 25
f 3 25 16
f 3 16 10
f 3 10 4
f 4 10 11
f 4 11 5
f 5 11 6
f 6 11 12
f 6 12 8
f 7 13 15
f 7 15 9
f 7 8 14
f 7 14 24
f 7 24 35
f 7 35 47
f 7 47 38
f 7 38 27
f 7 27 19
f 7 19 13
f 8 12 14
f 10 16 17
f 10 17 11
f 11 17 12
f 12 17 18
f 12 18 14
f 13 19 20
f 13 20 15
f 14 18 21
f 14 21 22
f 14 22 23
f 14 23 24
f 16 25 26
f 16 26 17
f 17 26 18
f 18 26 22
f 18 22 21
f 19 27 28
f 19 28 29
f 19 29 30
f 19 30 20
f 22 26 31
f 22 31 23
f 23 32 33
f 23 33 24
f 23 31 32
f 24 34 44
f 24 44 45
f 24 45 35
f 24 33 34
f 25 36 26
f 26 36 37
f 26 37 31
f 27 38 39
f 27 39 28
f 31 37 40
f 31 40 41
f 31 41 32
f 32 41 42
f 32 42 34
f 32 34 33
f 34 42 43
f 34 43 44
f 35 45 46
f 35 46 47
f 38 47 48
f 38 48 39
f 46 48 47

