# https://github.com/mikedh/trimesh
v -0.02516399 0.00940174 0.02422717
v -0.02364838 0.00940174 0.02422717
v -0.02516399 0.00940174 0.02465548
v -0.02516399 0.01315426 0.02422717
v -0.02251446 0.01044819 0.02422717
v -0.02364838 0.00940174 0.02465548
v -0.02516399 0.01355589 0.02465548
v -0.02516399 0.01355589 0.02422906
v -0.02516163 0.01355728 0.02422717
v -0.02235500 0.01065739 0.02422717
v -0.02251446 0.01044819 0.02465548
v -0.02510150 0.01416158 0.02465548
v -0.02510150 0.01416158 0.02422717
v -0.02220881 0.01085075 0.02422717
v -0.02220881 0.01085075 0.02465548
v -0.02226068 0.01078226 0.02465548
v -0.02215280 0.01416158 0.02465548
v -0.02215280 0.01416158 0.02422717
v -0.02217963 0.01117363 0.02422717
v -0.02215280 0.01147089 0.02465548
v -0.02215280 0.01147089 0.02422717
f 1 2 6
f 1 6 3
f 1 3 7
f 1 7 8
f 1 8 4
f 1 4 9
f 1 9 13
f 1 13 18
f 1 18 21
f 1 21 19
f 1 19 14
f 1 14 10
f 1 10 5
f 1 5 2
f 2 5 11
f 2 11 6
f 3 6 11
f 3 11 16
f 3 16 15
f 3 15 20
f 3 20 17
f 3 17 12
f 3 12 7
f 4 8 9
f 5 10 11
f 7 12 13
f 7 13 8
f 8 13 9
f 10 14 15
f 10 15 16
f 10 16 11
f 12 17 18
f 12 18 13
f 14 19 15
f 15 19 20
f 17 20 21
f 17 21 18
f 19 21 20

