# https://github.com/mikedh/trimesh
v -0.02555331 0.01908557 0.01945900
v -0.02617337 0.01908557 0.01947113
v -0.02555331 0.02076984 0.01945900
v -0.02120157 0.01908557 0.01945900
v -0.02676404 0.01908557 0.01967183
v -0.02617337 0.02076984 0.01947440
v -0.02617337 0.02138980 0.01948420
v -0.02555331 0.02138980 0.01947627
v -0.02120157 0.02076984 0.01945900
v -0.02120157 0.01908557 0.02414082
v -0.02665777 0.02138980 0.01969610
v -0.02697317 0.01908557 0.02021044
v -0.02617337 0.02187032 0.01969703
v -0.02659899 0.02181361 0.01976471
v -0.02120157 0.02138980 0.01947627
v -0.02371630 0.01908557 0.02422670
v -0.02120157 0.02076984 0.02414082
v -0.02683186 0.02138980 0.02021044
v -0.02697600 0.01908557 0.02083027
v -0.02617337 0.02204100 0.02021044
v -0.02120157 0.02187032 0.01969703
v -0.02665664 0.02187032 0.02021044
v -0.02651872 0.01908557 0.02422670
v -0.02372704 0.01909020 0.02422670
v -0.02120157 0.02138980 0.02412029
v -0.02683186 0.02138980 0.02330957
v -0.02697600 0.01908557 0.02268974
v -0.02617337 0.02204100 0.02330957
v -0.02120157 0.02204100 0.02021044
v -0.02665664 0.02187032 0.02330957
v -0.02621350 0.01917207 0.02422670
v -0.02555331 0.02138980 0.02412029
v -0.02617337 0.02138980 0.02411095
v -0.02665777 0.02138980 0.02386078
v -0.02679908 0.01908557 0.02396813
v -0.02431318 0.01919290 0.02422670
v -0.02120157 0.02139906 0.02411562
v -0.02493324 0.01919666 0.02422670
v -0.02432336 0.01919318 0.02422670
v -0.02659899 0.02181361 0.02378004
v -0.02697317 0.01908557 0.02330957
v -0.02617337 0.02187032 0.02385985
v -0.02120157 0.02187379 0.02384958
v -0.02120157 0.02204100 0.02330957
v -0.02617337 0.01917756 0.02422670
v -0.02556348 0.01919637 0.02422670
v -0.02555331 0.01919666 0.02422670
v -0.02120157 0.02187032 0.02385985
f 1 2 3
f 1 3 9
f 1 9 4
f 1 4 10
f 1 10 16
f 1 16 23
f 1 23 35
f 1 35 41
f 1 41 27
f 1 27 19
f 1 19 12
f 1 12 5
f 1 5 2
f 2 5 6
f 2 6 3
f 3 6 7
f 3 7 8
f 3 8 15
f 3 15 9
f 4 9 15
f 4 15 21
f 4 21 29
f 4 29 44
f 4 44 43
f 4 43 48
f 4 48 37
f 4 37 25
f 4 25 17
f 4 17 10
f 5 11 7
f 5 7 6
f 5 12 11
f 7 13 8
f 7 11 14
f 7 14 13
f 8 13 21
f 8 21 15
f 10 17 16
f 11 12 18
f 11 18 14
f 12 19 18
f 13 14 20
f 13 20 29
f 13 29 21
f 14 18 22
f 14 22 20
f 16 17 24
f 16 24 36
f 16 36 39
f 16 39 38
f 16 38 47
f 16 47 46
f 16 46 45
f 16 45 31
f 16 31 23
f 17 25 24
f 18 19 27
f 18 27 26
f 18 26 30
f 18 30 22
f 20 22 30
f 20 30 28
f 20 28 44
f 20 44 29
f 23 31 32
f 23 32 33
f 23 33 34
f 23 34 35
f 24 25 36
f 25 37 32
f 25 32 47
f 25 47 38
f 25 38 39
f 25 39 36
f 26 35 34
f 26 34 40
f 26 40 30
f 26 27 41
f 26 41 35
f 28 30 40
f 28 40 42
f 28 42 43
f 28 43 44
f 31 45 32
f 32 42 33
f 32 45 46
f 32 46 47
f 32 37 42
f 33 42 40
f 33 40 34
f 37 48 42
f 42 48 43

