# https://github.com/mikedh/trimesh
v -0.02307389 0.01764029 0.03265526
v -0.02175815 0.01746780 0.03265526
v -0.02245394 0.01756830 0.03263261
v -0.02307389 0.01764029 0.03243512
v -0.02865343 0.01764029 0.03243512
v -0.02867157 0.01763458 0.03265526
v -0.02123136 0.01704872 0.03265526
v -0.02201124 0.01741506 0.03243512
v -0.02243745 0.01753908 0.03243512
v -0.02902029 0.01753908 0.03243512
v -0.02916373 0.01749916 0.03265526
v -0.02101124 0.01642935 0.03265526
v -0.02183234 0.01704872 0.03243512
v -0.02185708 0.01710360 0.03243512
v -0.02916373 0.01749916 0.03243512
v -0.02923051 0.01737230 0.03243512
v -0.02938879 0.01706582 0.03265526
v -0.02101124 0.01147086 0.03265526
v -0.02179195 0.01642935 0.03243512
v -0.02939786 0.01704872 0.03243512
v -0.02943084 0.01642935 0.03265526
v -0.02132946 0.01084580 0.03265526
v -0.02189500 0.01082299 0.03243512
v -0.02179195 0.01147086 0.03243512
v -0.02943249 0.01642935 0.03243512
v -0.02943249 0.01585418 0.03265526
v -0.02153556 0.01063768 0.03265526
v -0.02209533 0.01056427 0.03243512
v -0.02943331 0.01580927 0.03243512
v -0.02943249 0.01209094 0.03265526
v -0.02190984 0.01048872 0.03265526
v -0.02243498 0.01043883 0.03243512
v -0.02943331 0.01191632 0.03243512
v -0.02943001 0.01147086 0.03265526
v -0.02213242 0.01044667 0.03265526
v -0.02256688 0.01041816 0.03243512
v -0.02943084 0.01147086 0.03243512
v -0.02940940 0.01129624 0.03243512
v -0.02935911 0.01089640 0.03265526
v -0.02233770 0.01042671 0.03265526
v -0.02307389 0.01035971 0.03243512
v -0.02935417 0.01085079 0.03243512
v -0.02935252 0.01085079 0.03265526
v -0.02305163 0.01035971 0.03265526
v -0.02865343 0.01035971 0.03243512
v -0.02912004 0.01045023 0.03243512
v -0.02912911 0.01046448 0.03265526
v -0.02865343 0.01035971 0.03265526
f 1 2 3
f 1 3 4
f 1 4 5
f 1 5 6
f 1 6 11
f 1 11 17
f 1 17 21
f 1 21 26
f 1 26 30
f 1 30 34
f 1 34 39
f 1 39 43
f 1 43 47
f 1 47 48
f 1 48 44
f 1 44 40
f 1 40 35
f 1 35 31
f 1 31 27
f 1 27 22
f 1 22 18
f 1 18 12
f 1 12 7
f 1 7 2
f 2 7 8
f 2 8 9
f 2 9 4
f 2 4 3
f 4 9 8
f 4 8 14
f 4 14 13
f 4 13 19
f 4 19 24
f 4 24 23
f 4 23 28
f 4 28 32
f 4 32 36
f 4 36 41
f 4 41 45
f 4 45 46
f 4 46 42
f 4 42 38
f 4 38 37
f 4 37 33
f 4 33 29
f 4 29 25
f 4 25 20
f 4 20 16
f 4 16 15
f 4 15 10
f 4 10 5
f 5 10 11
f 5 11 6
f 7 12 13
f 7 13 14
f 7 14 8
f 10 15 11
f 11 15 16
f 11 16 17
f 12 18 24
f 12 24 19
f 12 19 13
f 16 20 17
f 17 20 21
f 18 22 23
f 18 23 24
f 20 25 21
f 21 25 26
f 22 27 28
f 22 28 23
f 25 29 26
f 26 29 33
f 26 33 30
f 27 31 28
f 28 31 32
f 30 33 34
f 31 35 32
f 32 35 36
f 33 37 34
f 34 38 39
f 34 37 38
f 35 40 41
f 35 41 36
f 38 42 39
f 39 42 43
f 40 44 41
f 41 44 48
f 41 48 45
f 42 46 47
f 42 47 43
f 45 48 46
f 46 48 47

