# https://github.com/mikedh/trimesh
v -0.01455426 0.01271056 0.03650360
v -0.01455426 0.01643371 0.03650360
v -0.01455195 0.01209065 0.03650360
v -0.01433356 0.01209065 0.04005909
v -0.01455080 0.01704916 0.03650360
v -0.01433356 0.01766906 0.04005909
v -0.01450862 0.01147892 0.03650360
v -0.01420819 0.01148264 0.04005909
v -0.01455022 0.01706254 0.03650360
v -0.01433183 0.01767575 0.04005909
v -0.01446067 0.01766832 0.03650360
v -0.01450689 0.01147074 0.03650360
v -0.01434570 0.01094747 0.03650360
v -0.01432259 0.01092368 0.03650360
v -0.01420011 0.01147520 0.04005909
v -0.01420819 0.01812916 0.04005909
v -0.01442080 0.01779617 0.03650360
v -0.01428561 0.01090807 0.03650360
v -0.01380204 0.01117343 0.04005909
v -0.01377893 0.01830755 0.04005909
v -0.01421513 0.01812916 0.03650360
v -0.01377026 0.01077279 0.03650360
v -0.01348428 0.01115856 0.04005909
v -0.01377257 0.01830978 0.04005909
v -0.01377257 0.01830978 0.03650360
v -0.01315265 0.01074752 0.03650360
v -0.00943428 0.01115856 0.04005909
v -0.01315265 0.01834026 0.04005909
v -0.01315265 0.01834026 0.03650360
v -0.01002647 0.01074752 0.03650360
v -0.00912230 0.01116005 0.04005909
v -0.00943428 0.01834026 0.04005909
v -0.00943428 0.01834026 0.03650360
v -0.00943428 0.01076239 0.03650360
v -0.00941579 0.01076536 0.03650360
v -0.00895186 0.01094449 0.03650360
v -0.00888889 0.01146777 0.04005909
v -0.00890507 0.01815964 0.04005909
v -0.00905297 0.01821018 0.03650360
v -0.00874734 0.01147074 0.03650360
v -0.00865548 0.01208173 0.04005909
v -0.00890507 0.01815964 0.03650360
v -0.00866935 0.01766906 0.04005909
v -0.00865259 0.01209065 0.03650360
v -0.00865259 0.01209065 0.04005909
v -0.00866935 0.01766906 0.03650360
v -0.00865259 0.01704916 0.04005909
v -0.00865259 0.01704916 0.03650360
f 1 2 5
f 1 5 9
f 1 9 11
f 1 11 17
f 1 17 21
f 1 21 25
f 1 25 29
f 1 29 33
f 1 33 39
f 1 39 42
f 1 42 46
f 1 46 48
f 1 48 44
f 1 44 40
f 1 40 36
f 1 36 35
f 1 35 34
f 1 34 30
f 1 30 26
f 1 26 22
f 1 22 18
f 1 18 14
f 1 14 13
f 1 13 12
f 1 12 7
f 1 7 3
f 1 3 4
f 1 4 6
f 1 6 2
f 2 6 5
f 3 7 4
f 4 7 8
f 4 8 15
f 4 15 19
f 4 19 23
f 4 23 27
f 4 27 31
f 4 31 37
f 4 37 41
f 4 41 45
f 4 45 47
f 4 47 43
f 4 43 38
f 4 38 32
f 4 32 28
f 4 28 24
f 4 24 20
f 4 20 16
f 4 16 10
f 4 10 6
f 5 6 9
f 6 10 11
f 6 11 9
f 7 12 8
f 8 12 13
f 8 13 14
f 8 14 15
f 10 16 11
f 11 16 17
f 14 18 19
f 14 19 15
f 16 20 21
f 16 21 17
f 18 22 19
f 19 22 23
f 20 24 25
f 20 25 21
f 22 26 23
f 23 26 30
f 23 30 27
f 24 28 29
f 24 29 25
f 27 30 31
f 28 32 33
f 28 33 29
f 30 34 31
f 31 34 35
f 31 35 36
f 31 36 37
f 32 38 39
f 32 39 33
f 36 40 37
f 37 40 41
f 38 42 39
f 38 43 46
f 38 46 42
f 40 44 45
f 40 45 41
f 43 47 48
f 43 48 46
f 44 48 47
f 44 47 45

