# https://github.com/mikedh/trimesh
v -0.01433459 -0.01766925 0.03973326
v -0.01399086 -0.01822059 0.03973326
v -0.01433459 -0.01766925 0.04314929
v -0.01433459 -0.01024834 0.04252949
v -0.01432791 -0.01024834 0.04190229
v -0.01427118 -0.01178671 0.03973326
v -0.01315325 -0.01834100 0.03973326
v -0.01399086 -0.01821901 0.04283966
v -0.01414548 -0.01715752 0.04462018
v -0.01433459 -0.01704979 0.04376909
v -0.01397307 -0.01779679 0.04432643
v -0.01433459 -0.01024834 0.04438941
v -0.01397919 -0.01024834 0.04138729
v -0.01356371 -0.01116487 0.03973326
v -0.01315325 -0.01833862 0.04283966
v -0.00943403 -0.01834100 0.03973326
v -0.01315325 -0.01824753 0.04376909
v -0.01433459 -0.01642953 0.04438941
v -0.01315325 -0.01728189 0.04491658
v -0.01399086 -0.01642953 0.04498274
v -0.01315325 -0.01794809 0.04437724
v -0.01399086 -0.01580927 0.04498751
v -0.01399198 -0.01024834 0.04498380
v -0.01315325 -0.01024834 0.04129572
v -0.00907307 -0.01127577 0.03973326
v -0.00973326 -0.01024834 0.04129572
v -0.00943403 -0.01833862 0.04283966
v -0.00881555 -0.01797423 0.03973326
v -0.00932113 -0.01805503 0.04412371
v -0.00932891 -0.01726922 0.04490706
v -0.00943403 -0.01642953 0.04513200
v -0.01315325 -0.01642953 0.04513200
v -0.01315325 -0.01580927 0.04514047
v -0.01316215 -0.01024834 0.04513994
v -0.00865259 -0.01209010 0.03973326
v -0.00880165 -0.01024834 0.04167840
v -0.00878719 -0.01791403 0.04283966
v -0.00865259 -0.01704979 0.03973326
v -0.00870431 -0.01766925 0.04376909
v -0.00890343 -0.01767004 0.04438412
v -0.00880888 -0.01704979 0.04462547
v -0.00877551 -0.01611901 0.04465353
v -0.00943403 -0.01580927 0.04514047
v -0.00943403 -0.01024834 0.04514047
v -0.00865259 -0.01024834 0.04252949
v -0.00865259 -0.01704979 0.04376909
v -0.00877439 -0.01024834 0.04465458
v -0.00865259 -0.01024834 0.04376909
f 1 2 3
f 1 3 10
f 1 10 18
f 1 18 12
f 1 12 4
f 1 4 5
f 1 5 6
f 1 6 14
f 1 14 25
f 1 25 35
f 1 35 38
f 1 38 28
f 1 28 16
f 1 16 7
f 1 7 2
f 2 7 8
f 2 8 3
f 3 9 10
f 3 8 11
f 3 11 9
f 4 12 23
f 4 23 34
f 4 34 44
f 4 44 47
f 4 47 48
f 4 48 45
f 4 45 36
f 4 36 26
f 4 26 24
f 4 24 13
f 4 13 5
f 5 13 6
f 6 13 14
f 7 15 8
f 7 16 27
f 7 27 15
f 8 15 17
f 8 17 11
f 9 18 10
f 9 11 19
f 9 19 20
f 9 20 18
f 11 17 21
f 11 21 19
f 12 22 23
f 12 18 22
f 13 24 14
f 14 24 26
f 14 26 25
f 15 27 17
f 16 28 27
f 17 27 29
f 17 29 21
f 18 20 22
f 19 21 30
f 19 30 31
f 19 31 32
f 19 32 20
f 20 32 33
f 20 33 22
f 21 29 30
f 22 33 34
f 22 34 23
f 25 26 36
f 25 36 35
f 27 28 37
f 27 37 29
f 28 38 39
f 28 39 37
f 29 37 39
f 29 39 40
f 29 40 30
f 30 40 41
f 30 41 31
f 31 42 43
f 31 43 33
f 31 33 32
f 31 41 42
f 33 43 44
f 33 44 34
f 35 36 45
f 35 45 48
f 35 48 46
f 35 46 38
f 38 46 39
f 39 46 41
f 39 41 40
f 41 46 42
f 42 47 43
f 42 46 47
f 43 47 44
f 46 48 47

