# https://github.com/mikedh/trimesh
v -0.02650162 -0.01355246 0.03243510
v -0.02626996 -0.01355246 0.03243510
v -0.02650162 -0.01355246 0.03265526
v -0.02650162 -0.01035900 0.03243510
v -0.02540546 -0.01342365 0.03243510
v -0.02626996 -0.01355246 0.03265526
v -0.02650162 -0.01035900 0.03265526
v -0.02540546 -0.01035900 0.03243510
v -0.02540546 -0.01342365 0.03265526
v -0.02540546 -0.01035900 0.03265526
f 1 2 6
f 1 6 3
f 1 3 7
f 1 7 4
f 1 4 8
f 1 8 5
f 1 5 2
f 2 5 9
f 2 9 6
f 3 6 9
f 3 9 10
f 3 10 7
f 4 7 10
f 4 10 8
f 5 8 10
f 5 10 9

