# https://github.com/mikedh/trimesh
v -0.02350969 0.01771810 0.02655388
v -0.02307357 0.01765334 0.02655388
v -0.02350969 0.01775315 0.02640582
v -0.02350969 0.01020594 0.02655388
v -0.02350969 0.01783848 0.02579012
v -0.02246848 0.01750020 0.02655388
v -0.02350969 0.01007946 0.02581613
v -0.02251405 0.01044974 0.02655388
v -0.02350969 0.01784838 0.02516996
v -0.02239755 0.01739582 0.02655388
v -0.02246848 0.01750173 0.02517010
v -0.02350969 0.01007794 0.02579012
v -0.02251405 0.01044898 0.02640988
v -0.02230482 0.01072402 0.02655388
v -0.02350969 0.01006575 0.02516996
v -0.02246848 0.01750173 0.02516996
v -0.02216295 0.01704993 0.02655388
v -0.02251405 0.01044821 0.02579012
v -0.02220865 0.01085049 0.02655388
v -0.02251405 0.01044821 0.02516996
v -0.02216295 0.01704993 0.02516996
v -0.02216056 0.01690593 0.02655388
v -0.02220865 0.01085049 0.02516996
v -0.02217026 0.01127486 0.02655388
v -0.02215272 0.01642976 0.02516996
v -0.02215272 0.01642976 0.02655388
v -0.02215272 0.01147066 0.02516996
v -0.02216561 0.01132667 0.02655388
v -0.02215272 0.01147066 0.02655388
f 1 2 3
f 1 3 5
f 1 5 9
f 1 9 15
f 1 15 12
f 1 12 7
f 1 7 4
f 1 4 8
f 1 8 14
f 1 14 19
f 1 19 24
f 1 24 28
f 1 28 29
f 1 29 26
f 1 26 22
f 1 22 17
f 1 17 10
f 1 10 6
f 1 6 2
f 2 5 3
f 2 6 5
f 4 7 8
f 5 6 9
f 6 10 11
f 6 11 9
f 7 12 8
f 8 13 14
f 8 12 15
f 8 15 13
f 9 11 16
f 9 16 21
f 9 21 25
f 9 25 27
f 9 27 23
f 9 23 20
f 9 20 15
f 10 17 11
f 11 17 21
f 11 21 16
f 13 18 14
f 13 15 18
f 14 18 19
f 15 20 18
f 17 22 21
f 18 20 23
f 18 23 19
f 19 23 24
f 21 22 25
f 22 26 25
f 23 27 24
f 24 27 28
f 25 26 29
f 25 29 27
f 27 29 28

