# https://github.com/mikedh/trimesh
v -0.02307386 -0.01395618 0.01948751
v -0.02435540 -0.01147048 0.01946480
v -0.02369328 -0.01208948 0.01945948
v -0.02307386 -0.01270932 0.01945948
v -0.02245831 -0.01395618 0.01968271
v -0.02360144 -0.01395618 0.01970783
v -0.02435540 -0.01204759 0.01955757
v -0.02435540 -0.01142860 0.01946383
v -0.02369328 -0.01147048 0.01945948
v -0.02435540 -0.01085065 0.01946287
v -0.02307386 -0.01147048 0.01945948
v -0.02246004 -0.01147048 0.01968029
v -0.02215431 -0.01147048 0.02021082
v -0.02215431 -0.01395618 0.02021082
v -0.02408266 -0.01315822 0.01979481
v -0.02435540 -0.01260142 0.01973924
v -0.02384227 -0.01395618 0.02020502
v -0.02435540 -0.01080876 0.01946287
v -0.02435540 -0.00963424 0.01947543
v -0.02431336 -0.00963424 0.01947688
v -0.02307386 -0.01085065 0.01953099
v -0.02248720 -0.01085065 0.01971750
v -0.02220972 -0.01085065 0.02021082
v -0.02215280 -0.01147048 0.02083025
v -0.02215280 -0.01395618 0.02083025
v -0.02384464 -0.01395618 0.02021082
v -0.02435540 -0.01283498 0.02011853
v -0.02435540 -0.00963424 0.02439510
v -0.02428942 -0.00963424 0.01948461
v -0.02259759 -0.01047917 0.01980302
v -0.02251437 -0.01044870 0.02021082
v -0.02220886 -0.01085065 0.02083025
v -0.02215280 -0.01147048 0.02439510
v -0.02215280 -0.01395618 0.02439510
v -0.02435540 -0.01395618 0.02199035
v -0.02435540 -0.01395534 0.02197054
v -0.02435540 -0.01395449 0.02439510
v -0.02363895 -0.00963424 0.02439510
v -0.02382178 -0.00963424 0.01969672
v -0.02381122 -0.00963424 0.01972330
v -0.02364175 -0.00963424 0.02021082
v -0.02364132 -0.00963424 0.02024319
v -0.02363895 -0.00963424 0.02083025
v -0.02251437 -0.01044870 0.02439510
v -0.02228475 -0.01075079 0.02439510
v -0.02220886 -0.01085065 0.02439510
v -0.02435540 -0.01395618 0.02428832
f 1 2 3
f 1 3 4
f 1 4 5
f 1 5 14
f 1 14 25
f 1 25 34
f 1 34 47
f 1 47 35
f 1 35 26
f 1 26 17
f 1 17 6
f 1 6 7
f 1 7 2
f 2 8 3
f 2 7 16
f 2 16 27
f 2 27 36
f 2 36 35
f 2 35 47
f 2 47 37
f 2 37 28
f 2 28 19
f 2 19 18
f 2 18 10
f 2 10 8
f 3 9 11
f 3 11 4
f 3 8 10
f 3 10 18
f 3 18 9
f 4 11 12
f 4 12 5
f 5 12 13
f 5 13 14
f 6 15 16
f 6 16 7
f 6 17 15
f 9 18 11
f 11 18 19
f 11 19 20
f 11 20 21
f 11 21 22
f 11 22 12
f 12 22 13
f 13 23 24
f 13 24 25
f 13 25 14
f 13 22 23
f 15 17 16
f 16 17 26
f 16 26 27
f 19 28 38
f 19 38 43
f 19 43 42
f 19 42 41
f 19 41 40
f 19 40 39
f 19 39 29
f 19 29 20
f 20 29 22
f 20 22 21
f 22 29 30
f 22 30 23
f 23 31 32
f 23 32 24
f 23 30 31
f 24 32 46
f 24 46 33
f 24 33 34
f 24 34 25
f 26 35 36
f 26 36 27
f 28 37 34
f 28 34 33
f 28 33 46
f 28 46 45
f 28 45 44
f 28 44 38
f 29 39 30
f 30 39 40
f 30 40 41
f 30 41 31
f 31 41 42
f 31 42 43
f 31 43 38
f 31 38 44
f 31 44 45
f 31 45 32
f 32 45 46
f 34 37 47

