# https://github.com/mikedh/trimesh
v -0.02552099 -0.01884883 0.02515280
v -0.02552099 -0.01883169 0.02559333
v -0.02552099 -0.01883350 0.02515181
v -0.02495156 -0.01884883 0.02515181
v -0.02431356 -0.01884883 0.02515181
v -0.02431356 -0.01883169 0.02559333
v -0.02552099 -0.00963382 0.02559333
v -0.02552099 -0.00963382 0.02515181
v -0.02387273 -0.01873066 0.02515181
v -0.02400890 -0.01875411 0.02559333
v -0.02366105 -0.00963382 0.02559333
v -0.02363929 -0.00963382 0.02515181
v -0.02385492 -0.01872434 0.02515181
v -0.02386481 -0.01871532 0.02559333
v -0.02364028 -0.00963382 0.02520224
v -0.02251429 -0.01044842 0.02559333
v -0.02251429 -0.01044842 0.02515181
v -0.02363929 -0.00963382 0.02517000
v -0.02246648 -0.01750470 0.02515181
v -0.02246846 -0.01750109 0.02559333
v -0.02230558 -0.01072266 0.02559333
v -0.02221754 -0.01083903 0.02515181
v -0.02216281 -0.01704823 0.02515181
v -0.02216314 -0.01704913 0.02517000
v -0.02216314 -0.01704913 0.02559333
v -0.02237152 -0.01735765 0.02559333
v -0.02220864 -0.01085076 0.02559333
v -0.02220864 -0.01085076 0.02515181
v -0.02215259 -0.01642938 0.02515181
v -0.02215259 -0.01642938 0.02559333
v -0.02215259 -0.01147051 0.02559333
v -0.02215259 -0.01147051 0.02515181
f 1 2 7
f 1 7 8
f 1 8 3
f 1 3 4
f 1 4 5
f 1 5 6
f 1 6 2
f 2 6 10
f 2 10 14
f 2 14 20
f 2 20 26
f 2 26 25
f 2 25 30
f 2 30 31
f 2 31 27
f 2 27 21
f 2 21 16
f 2 16 11
f 2 11 7
f 3 8 12
f 3 12 17
f 3 17 22
f 3 22 28
f 3 28 32
f 3 32 29
f 3 29 23
f 3 23 19
f 3 19 13
f 3 13 9
f 3 9 5
f 3 5 4
f 5 9 10
f 5 10 6
f 7 11 15
f 7 15 18
f 7 18 12
f 7 12 8
f 9 13 14
f 9 14 10
f 11 16 15
f 12 18 16
f 12 16 17
f 13 19 20
f 13 20 14
f 15 16 18
f 16 21 17
f 17 21 22
f 19 23 24
f 19 24 25
f 19 25 26
f 19 26 20
f 21 27 28
f 21 28 22
f 23 29 30
f 23 30 25
f 23 25 24
f 27 31 32
f 27 32 28
f 29 32 31
f 29 31 30

