# https://github.com/mikedh/trimesh
v -0.02943459 0.01376296 0.02516996
v -0.02646294 0.01376296 0.02516996
v -0.02943459 0.01376296 0.02655375
v -0.02943459 0.01766984 0.02516996
v -0.02646294 0.01376296 0.02655375
v -0.02555380 0.01464093 0.02516996
v -0.02550573 0.01460960 0.02517010
v -0.02865351 0.01782206 0.02655389
v -0.02943459 0.01642973 0.02655375
v -0.02943459 0.01766984 0.02517010
v -0.02938575 0.01828965 0.02516996
v -0.02550573 0.01460960 0.02655375
v -0.02550573 0.01471605 0.02516996
v -0.02550573 0.01783002 0.02655375
v -0.02803357 0.01783002 0.02655375
v -0.02865351 0.01870551 0.02620560
v -0.02907539 0.01867019 0.02617038
v -0.02919807 0.01763004 0.02655375
v -0.02940959 0.01704953 0.02655375
v -0.02940536 0.01766984 0.02579013
v -0.02938575 0.01828965 0.02517010
v -0.02915000 0.01872043 0.02516996
v -0.02550573 0.01882141 0.02516996
v -0.02550573 0.01870551 0.02620560
v -0.02550573 0.01871496 0.02617350
v -0.02865351 0.01882589 0.02579013
v -0.02914077 0.01871297 0.02579013
v -0.02935190 0.01828965 0.02579013
v -0.02915000 0.01872043 0.02517010
v -0.02865351 0.01884081 0.02516996
v -0.02555380 0.01884479 0.02516996
v -0.02550573 0.01884429 0.02517010
v -0.02550573 0.01882589 0.02579013
v -0.02550573 0.01882738 0.02574217
v -0.02617374 0.01884479 0.02516996
v -0.02865351 0.01884081 0.02517010
f 1 2 5
f 1 5 3
f 1 3 9
f 1 9 10
f 1 10 4
f 1 4 11
f 1 11 22
f 1 22 30
f 1 30 35
f 1 35 31
f 1 31 23
f 1 23 13
f 1 13 6
f 1 6 2
f 2 6 7
f 2 7 12
f 2 12 5
f 3 5 8
f 3 8 9
f 4 10 21
f 4 21 11
f 5 12 8
f 6 13 7
f 7 13 23
f 7 23 32
f 7 32 34
f 7 34 33
f 7 33 25
f 7 25 24
f 7 24 14
f 7 14 12
f 8 14 15
f 8 15 16
f 8 16 17
f 8 17 18
f 8 18 19
f 8 19 9
f 8 12 14
f 9 19 10
f 10 19 20
f 10 20 21
f 11 21 29
f 11 29 22
f 14 24 16
f 14 16 15
f 16 24 25
f 16 25 26
f 16 26 17
f 17 26 27
f 17 27 28
f 17 28 19
f 17 19 18
f 19 28 20
f 20 28 21
f 21 28 27
f 21 27 29
f 22 29 36
f 22 36 30
f 23 31 32
f 25 33 26
f 26 33 34
f 26 34 35
f 26 35 36
f 26 36 27
f 27 36 29
f 30 36 35
f 31 35 34
f 31 34 32

