# https://github.com/mikedh/trimesh
v -0.02049441 0.01764100 0.03508981
v -0.02049441 0.01763980 0.03570999
v -0.02049441 0.01764100 0.03385016
v -0.02557195 0.01764100 0.03508981
v -0.02049441 0.01749947 0.03616855
v -0.02557195 0.01763980 0.03570999
v -0.02049441 0.01762821 0.03323034
v -0.02307345 0.01764100 0.03265526
v -0.02557195 0.01764100 0.03265526
v -0.02049441 0.01712205 0.03630312
v -0.02557195 0.01749947 0.03616855
v -0.02049441 0.01748747 0.03279632
v -0.02245404 0.01757143 0.03265526
v -0.02557195 0.01463805 0.03265526
v -0.02049441 0.01704968 0.03632873
v -0.02557195 0.01704968 0.03632873
v -0.02049441 0.01741711 0.03277503
v -0.02175709 0.01746868 0.03265526
v -0.02557195 0.01463805 0.03508981
v -0.02516381 0.01355657 0.03265526
v -0.02049441 0.01642998 0.03634100
v -0.02557195 0.01642998 0.03634100
v -0.02049441 0.01704968 0.03266572
v -0.02123014 0.01704968 0.03265526
v -0.02516381 0.01355657 0.03508981
v -0.02557195 0.01465404 0.03570999
v -0.02101141 0.01355657 0.03265526
v -0.02049441 0.01355657 0.03634100
v -0.02557195 0.01580988 0.03634100
v -0.02049441 0.01695013 0.03266464
v -0.02049441 0.01642998 0.03265922
v -0.02101141 0.01642998 0.03265526
v -0.02515089 0.01355657 0.03570999
v -0.02557195 0.01476998 0.03610000
v -0.02049441 0.01355657 0.03265922
v -0.02431325 0.01355657 0.03634100
v -0.02557195 0.01579109 0.03633920
v -0.02491078 0.01355657 0.03620066
v -0.02557195 0.01477478 0.03611263
v -0.02557195 0.01519018 0.03627317
v -0.02473580 0.01355657 0.03625549
v -0.02557195 0.01517619 0.03626812
f 1 2 5
f 1 5 10
f 1 10 15
f 1 15 21
f 1 21 28
f 1 28 35
f 1 35 31
f 1 31 30
f 1 30 23
f 1 23 17
f 1 17 12
f 1 12 7
f 1 7 3
f 1 3 8
f 1 8 9
f 1 9 4
f 1 4 6
f 1 6 2
f 2 6 11
f 2 11 5
f 3 7 8
f 4 9 14
f 4 14 19
f 4 19 26
f 4 26 34
f 4 34 39
f 4 39 42
f 4 42 40
f 4 40 37
f 4 37 29
f 4 29 22
f 4 22 16
f 4 16 11
f 4 11 6
f 5 11 10
f 7 12 8
f 8 12 13
f 8 13 18
f 8 18 24
f 8 24 32
f 8 32 27
f 8 27 20
f 8 20 14
f 8 14 9
f 10 11 16
f 10 16 15
f 12 17 18
f 12 18 13
f 14 20 25
f 14 25 19
f 15 16 22
f 15 22 21
f 17 23 18
f 18 23 24
f 19 25 26
f 20 27 35
f 20 35 28
f 20 28 36
f 20 36 41
f 20 41 38
f 20 38 33
f 20 33 25
f 21 22 29
f 21 29 36
f 21 36 28
f 23 30 24
f 24 30 31
f 24 31 32
f 25 33 26
f 26 33 34
f 27 32 31
f 27 31 35
f 29 37 36
f 33 38 39
f 33 39 34
f 36 37 40
f 36 40 41
f 38 41 40
f 38 40 42
f 38 42 39

