# https://github.com/mikedh/trimesh
v -0.02564259 -0.01035962 0.03243510
v -0.02564259 -0.01335453 0.03243510
v -0.02564259 -0.01035962 0.03174847
v -0.02575580 -0.01032582 0.02702832
v -0.02616967 -0.01032546 0.02702673
v -0.02865325 -0.01035962 0.03243510
v -0.02649668 -0.01399198 0.03243510
v -0.02649705 -0.01399809 0.03174847
v -0.02564259 -0.01335453 0.03174847
v -0.02575580 -0.01236473 0.02702673
v -0.02803300 -0.01032546 0.02702673
v -0.02898917 -0.01042433 0.03243510
v -0.02865325 -0.01033122 0.02702673
v -0.02943310 -0.01399198 0.03243510
v -0.02943459 -0.01399809 0.03174847
v -0.02649705 -0.01399809 0.02702779
v -0.02575580 -0.01336999 0.02702938
v -0.02615259 -0.01342428 0.02702673
v -0.02912131 -0.01044986 0.03243510
v -0.02911797 -0.01043728 0.02702673
v -0.02943310 -0.01209041 0.03243510
v -0.02943422 -0.01399198 0.03209681
v -0.02943459 -0.01147058 0.03174847
v -0.02943459 -0.01399809 0.02702673
v -0.02827316 -0.01399809 0.02702673
v -0.02646290 -0.01376152 0.02702673
v -0.02918775 -0.01056311 0.03243510
v -0.02912131 -0.01043872 0.02702673
v -0.02943162 -0.01147058 0.03243510
v -0.02943422 -0.01147058 0.03198987
v -0.02935664 -0.01085038 0.03198987
v -0.02938708 -0.01109127 0.03174847
v -0.02943459 -0.01147058 0.02702673
v -0.02935441 -0.01085038 0.03243510
v -0.02935664 -0.01085038 0.02702673
v -0.02937631 -0.01102511 0.03243510
f 1 2 9
f 1 9 3
f 1 3 4
f 1 4 5
f 1 5 11
f 1 11 6
f 1 6 12
f 1 12 19
f 1 19 27
f 1 27 34
f 1 34 36
f 1 36 29
f 1 29 21
f 1 21 14
f 1 14 7
f 1 7 2
f 2 7 8
f 2 8 16
f 2 16 9
f 3 9 10
f 3 10 4
f 4 10 5
f 5 10 18
f 5 18 26
f 5 26 25
f 5 25 24
f 5 24 33
f 5 33 35
f 5 35 28
f 5 28 20
f 5 20 13
f 5 13 11
f 6 11 13
f 6 13 12
f 7 14 15
f 7 15 8
f 8 15 24
f 8 24 25
f 8 25 16
f 9 16 17
f 9 17 10
f 10 17 18
f 12 13 19
f 13 20 19
f 14 21 22
f 14 22 15
f 15 23 33
f 15 33 24
f 15 22 23
f 16 25 26
f 16 26 18
f 16 18 17
f 19 20 28
f 19 28 27
f 21 29 30
f 21 30 22
f 22 30 23
f 23 30 31
f 23 31 32
f 23 32 33
f 27 28 31
f 27 31 34
f 28 35 31
f 29 36 30
f 30 36 31
f 31 36 34
f 31 35 32
f 32 35 33

