# https://github.com/mikedh/trimesh
v -0.02617521 -0.00963382 0.02149571
v -0.02617521 -0.00963382 0.01945900
v -0.02736921 -0.00963382 0.02149571
v -0.02617521 -0.01218780 0.02149571
v -0.02736921 -0.00963382 0.01945900
v -0.02617521 -0.01085013 0.01945900
v -0.02736921 -0.01318610 0.02149571
v -0.02617521 -0.01215720 0.02020889
v -0.02736921 -0.01085013 0.01945900
v -0.02617521 -0.01146977 0.01947714
v -0.02736921 -0.01146977 0.01946239
v -0.02736921 -0.01308178 0.02021008
v -0.02617521 -0.01196353 0.01969766
v -0.02736921 -0.01267565 0.01970026
v -0.02736921 -0.01209044 0.01953058
f 1 2 5
f 1 5 3
f 1 3 7
f 1 7 4
f 1 4 8
f 1 8 13
f 1 13 10
f 1 10 6
f 1 6 2
f 2 6 9
f 2 9 5
f 3 5 9
f 3 9 11
f 3 11 15
f 3 15 14
f 3 14 12
f 3 12 7
f 4 7 8
f 6 10 11
f 6 11 9
f 7 12 8
f 8 12 13
f 10 13 14
f 10 14 15
f 10 15 11
f 12 14 13

