# https://github.com/mikedh/trimesh
v -0.02555536 -0.01334287 0.02654282
v -0.02555536 -0.01334287 0.02702455
v -0.02555536 -0.01333144 0.02654282
v -0.02507068 -0.01400163 0.02654282
v -0.02555336 -0.01334249 0.02702668
v -0.02555536 -0.01233606 0.02702668
v -0.02507068 -0.01400163 0.02702668
v -0.02555536 -0.01010820 0.02654410
v -0.02555403 -0.01010743 0.02654282
v -0.02215259 -0.01400163 0.02654282
v -0.02555536 -0.01032511 0.02702668
v -0.02215259 -0.01400163 0.02702668
v -0.02431384 -0.01010743 0.02654282
v -0.02215259 -0.01147031 0.02654282
v -0.02431351 -0.01032511 0.02702668
v -0.02215259 -0.01147031 0.02702668
v -0.02369591 -0.01018787 0.02654282
v -0.02369391 -0.01034112 0.02702668
v -0.02307365 -0.01035828 0.02702668
v -0.02220855 -0.01085006 0.02654282
v -0.02220855 -0.01085006 0.02702668
v -0.02251435 -0.01044939 0.02654282
v -0.02251435 -0.01044977 0.02702668
v -0.02244839 -0.01053555 0.02654282
f 1 2 6
f 1 6 11
f 1 11 8
f 1 8 3
f 1 3 9
f 1 9 13
f 1 13 17
f 1 17 22
f 1 22 24
f 1 24 20
f 1 20 14
f 1 14 10
f 1 10 4
f 1 4 7
f 1 7 2
f 2 5 6
f 2 7 5
f 3 8 9
f 4 10 12
f 4 12 7
f 5 7 12
f 5 12 16
f 5 16 21
f 5 21 23
f 5 23 19
f 5 19 18
f 5 18 15
f 5 15 11
f 5 11 6
f 8 11 9
f 9 11 15
f 9 15 13
f 10 14 16
f 10 16 12
f 13 15 18
f 13 18 19
f 13 19 17
f 14 20 21
f 14 21 16
f 17 19 23
f 17 23 22
f 20 24 21
f 21 24 23
f 22 23 24

