# https://github.com/mikedh/trimesh
v -0.02645900 -0.01884575 0.02515181
v -0.02617354 -0.01884929 0.02515181
v -0.02645900 -0.01883114 0.02559333
v -0.02645900 -0.01432748 0.02515181
v -0.02555367 -0.01884974 0.02515181
v -0.02617354 -0.01883203 0.02559333
v -0.02645900 -0.01432748 0.02559333
v -0.02552108 -0.01461963 0.02515181
v -0.02552108 -0.01883380 0.02515181
v -0.02552108 -0.01884929 0.02515280
v -0.02552108 -0.01883203 0.02559333
v -0.02552108 -0.01461963 0.02559333
f 1 2 3
f 1 3 7
f 1 7 4
f 1 4 8
f 1 8 9
f 1 9 5
f 1 5 2
f 2 5 6
f 2 6 3
f 3 6 11
f 3 11 12
f 3 12 7
f 4 7 12
f 4 12 8
f 5 9 10
f 5 10 11
f 5 11 6
f 8 12 11
f 8 11 10
f 8 10 9

