# https://github.com/mikedh/trimesh
v -0.02865354 0.01217565 0.01945900
v -0.02919521 0.01217565 0.01967971
v -0.02865354 0.01271005 0.01945900
v -0.02811910 0.01217565 0.01945900
v -0.02919521 0.01357873 0.01967971
v -0.02922777 0.01217565 0.01975298
v -0.02865354 0.01357873 0.01946857
v -0.02803337 0.01217565 0.01946040
v -0.02943069 0.01357873 0.02021003
v -0.02943069 0.01217565 0.02021003
v -0.02828222 0.01357873 0.01953436
v -0.02803337 0.01271005 0.01946927
v -0.02749949 0.01217565 0.01951103
v -0.02943125 0.01217565 0.02029566
v -0.02943431 0.01357873 0.02082995
v -0.02801138 0.01357873 0.01963748
v -0.02688990 0.01217565 0.01969278
v -0.02943431 0.01217565 0.02082995
v -0.02943431 0.01357873 0.02184253
v -0.02776894 0.01357873 0.01976231
v -0.02685817 0.01217565 0.01972124
v -0.02943431 0.01217565 0.02184253
v -0.02731411 0.01357873 0.02184253
v -0.02768209 0.01357873 0.01985050
v -0.02659095 0.01217565 0.02000565
v -0.02659095 0.01217565 0.02184253
v -0.02659095 0.01235310 0.02184253
v -0.02659095 0.01225600 0.02021003
v -0.02764284 0.01357873 0.02000589
v -0.02659095 0.01222468 0.02012768
f 1 2 5
f 1 5 3
f 1 3 4
f 1 4 8
f 1 8 13
f 1 13 17
f 1 17 21
f 1 21 25
f 1 25 26
f 1 26 22
f 1 22 18
f 1 18 14
f 1 14 10
f 1 10 6
f 1 6 2
f 2 6 5
f 3 5 7
f 3 7 4
f 4 7 8
f 5 6 9
f 5 9 15
f 5 15 19
f 5 19 23
f 5 23 29
f 5 29 24
f 5 24 20
f 5 20 16
f 5 16 11
f 5 11 7
f 6 10 9
f 7 11 12
f 7 12 8
f 8 12 13
f 9 10 14
f 9 14 15
f 11 16 17
f 11 17 13
f 11 13 12
f 14 18 15
f 15 18 22
f 15 22 19
f 16 20 17
f 17 20 21
f 19 22 26
f 19 26 27
f 19 27 23
f 20 24 21
f 21 24 25
f 23 27 28
f 23 28 29
f 24 29 28
f 24 28 30
f 24 30 25
f 25 30 28
f 25 28 27
f 25 27 26

