# https://github.com/mikedh/trimesh
v -0.02215281 0.01494501 0.02179497
v -0.02215281 0.01389972 0.02179497
v -0.02215281 0.01494501 0.02082992
v -0.02440877 0.01494501 0.02179497
v -0.02396950 0.01389972 0.02179497
v -0.02215281 0.01389972 0.02082992
v -0.02215369 0.01494501 0.02045508
v -0.02397193 0.01390003 0.02179497
v -0.02422966 0.01494501 0.02021006
v -0.02385511 0.01389972 0.02021006
v -0.02397039 0.01389972 0.02179405
v -0.02215435 0.01389972 0.02021006
v -0.02215435 0.01494501 0.02021006
v -0.02419300 0.01494501 0.01997484
v -0.02406359 0.01477576 0.01981217
v -0.02383368 0.01389972 0.02016488
v -0.02243505 0.01389972 0.01972274
v -0.02233920 0.01494501 0.01988906
v -0.02411482 0.01494501 0.01977613
v -0.02361085 0.01389972 0.01970472
v -0.02246001 0.01389972 0.01967962
v -0.02246001 0.01494501 0.01967962
v -0.02400131 0.01494501 0.01970723
v -0.02370140 0.01494501 0.01957377
v -0.02307375 0.01389972 0.01948616
v -0.02307375 0.01494501 0.01946448
v -0.02283125 0.01494501 0.01954616
v -0.02344852 0.01494501 0.01949118
f 1 2 6
f 1 6 3
f 1 3 7
f 1 7 13
f 1 13 18
f 1 18 22
f 1 22 27
f 1 27 26
f 1 26 28
f 1 28 24
f 1 24 23
f 1 23 19
f 1 19 14
f 1 14 9
f 1 9 4
f 1 4 8
f 1 8 5
f 1 5 2
f 2 5 11
f 2 11 10
f 2 10 16
f 2 16 20
f 2 20 25
f 2 25 21
f 2 21 17
f 2 17 12
f 2 12 6
f 3 6 7
f 4 9 10
f 4 10 8
f 5 8 11
f 6 12 7
f 7 12 13
f 8 10 11
f 9 14 10
f 10 14 15
f 10 15 16
f 12 17 18
f 12 18 13
f 14 19 15
f 15 19 20
f 15 20 16
f 17 21 22
f 17 22 18
f 19 23 20
f 20 23 24
f 20 24 25
f 21 25 26
f 21 26 27
f 21 27 22
f 24 28 25
f 25 28 26

