# https://github.com/mikedh/trimesh
v -0.02283730 0.00030961 0.02644018
v -0.02283730 0.00094105 0.02642651
v -0.02360732 0.00278950 0.02633338
v -0.02360732 0.00221234 0.02634022
v -0.02360732 0.00092958 0.02634192
v -0.02360732 -0.00146317 0.02634192
v -0.02360732 -0.00212596 0.02634064
v -0.02283730 -0.00047549 0.02643847
v -0.02283730 0.00291488 0.02631629
v -0.02360732 0.00338196 0.02623470
v -0.02360732 -0.00278950 0.02633338
v -0.02283730 -0.00133321 0.02642309
v -0.02283730 0.00342935 0.02605144
v -0.02360732 0.00381005 0.02578957
v -0.02283730 -0.00278950 0.02633594
v -0.02360732 -0.00334756 0.02624324
v -0.02283730 0.00360747 0.02516972
v -0.02360732 0.00389185 0.02526925
v -0.02283730 -0.00333227 0.02622402
v -0.02360732 -0.00381005 0.02578957
v -0.02283730 0.00360747 0.02393001
v -0.02360732 0.00390485 0.02454944
v -0.02283730 -0.00358148 0.02565928
v -0.02360732 -0.00390408 0.02508257
v -0.02283730 0.00359830 0.02343533
v -0.02360732 0.00390332 0.02339731
v -0.02283730 -0.00360747 0.02516972
v -0.02360732 -0.00390485 0.02393001
v -0.02283730 0.00335291 0.02279027
v -0.02360732 0.00380700 0.02229004
v -0.02360732 0.00389338 0.02287614
v -0.02283730 -0.00360747 0.02393001
v -0.02360732 -0.00390179 0.02331016
v -0.02283730 0.00278950 0.02258223
v -0.02360732 0.00330475 0.02214137
v -0.02283730 -0.00355090 0.02320977
v -0.02360732 -0.00381923 0.02268732
v -0.02283730 0.00216953 0.02255788
v -0.02360732 0.00277880 0.02208499
v -0.02283730 -0.00335291 0.02279027
v -0.02360732 -0.00340948 0.02222083
v -0.02360732 0.00216953 0.02207601
v -0.02283730 -0.00228726 0.02256002
v -0.02360732 -0.00216953 0.02207601
v -0.02283730 -0.00291946 0.02261983
v -0.02360732 -0.00278950 0.02208541
f 1 2 3
f 1 3 4
f 1 4 5
f 1 5 6
f 1 6 7
f 1 7 8
f 1 8 12
f 1 12 15
f 1 15 19
f 1 19 23
f 1 23 27
f 1 27 32
f 1 32 36
f 1 36 40
f 1 40 45
f 1 45 43
f 1 43 38
f 1 38 34
f 1 34 29
f 1 29 25
f 1 25 21
f 1 21 17
f 1 17 13
f 1 13 9
f 1 9 2
f 2 9 3
f 3 9 10
f 3 10 14
f 3 14 18
f 3 18 22
f 3 22 26
f 3 26 31
f 3 31 30
f 3 30 35
f 3 35 39
f 3 39 42
f 3 42 44
f 3 44 46
f 3 46 41
f 3 41 37
f 3 37 33
f 3 33 28
f 3 28 24
f 3 24 20
f 3 20 16
f 3 16 11
f 3 11 7
f 3 7 6
f 3 6 5
f 3 5 4
f 7 11 8
f 8 11 12
f 9 13 10
f 10 13 14
f 11 15 12
f 11 16 15
f 13 17 14
f 14 17 18
f 15 16 19
f 16 20 19
f 17 21 22
f 17 22 18
f 19 20 23
f 20 24 23
f 21 25 26
f 21 26 22
f 23 24 27
f 24 28 27
f 25 29 30
f 25 30 31
f 25 31 26
f 27 28 32
f 28 33 32
f 29 34 30
f 30 34 35
f 32 33 36
f 33 37 36
f 34 38 39
f 34 39 35
f 36 37 40
f 37 41 40
f 38 42 39
f 38 43 44
f 38 44 42
f 40 41 45
f 41 46 45
f 43 45 46
f 43 46 44

