# https://github.com/mikedh/trimesh
v -0.02008180 -0.00478671 0.02382199
v -0.02059373 -0.00470082 0.02331009
v -0.02008180 -0.00476835 0.02326576
v -0.02008180 -0.00478671 0.02516943
v -0.02059373 -0.00470082 0.02516943
v -0.02121410 -0.00451036 0.02331009
v -0.02059373 -0.00452020 0.02279779
v -0.02008180 -0.00451790 0.02276445
v -0.02008180 -0.00463034 0.02600495
v -0.02059373 -0.00457888 0.02600339
v -0.02121410 -0.00449660 0.02578999
v -0.02121410 -0.00451036 0.02516943
v -0.02283730 -0.00360757 0.02393065
v -0.02229165 -0.00382851 0.02287663
v -0.02175841 -0.00415501 0.02302138
v -0.02172954 -0.00427926 0.02516943
v -0.02121410 -0.00422713 0.02277190
v -0.02059373 -0.00402946 0.02257694
v -0.02008180 -0.00397537 0.02256164
v -0.02008180 -0.00402946 0.02633995
v -0.02121410 -0.00422058 0.02622737
v -0.02175085 -0.00414747 0.02603594
v -0.02283730 -0.00358167 0.02565937
v -0.02283730 -0.00345218 0.02299981
v -0.02283730 -0.00360757 0.02504508
v -0.02283730 -0.00292014 0.02261970
v -0.02183312 -0.00340957 0.02257694
v -0.02121410 -0.00340957 0.02255929
v -0.02008180 -0.00340957 0.02255929
v -0.02059373 -0.00402946 0.02633720
v -0.02008180 -0.00143777 0.02406049
v -0.02010607 -0.00143777 0.02656472
v -0.02032536 -0.00289720 0.02656511
v -0.02183312 -0.00340957 0.02633720
v -0.02283730 -0.00333220 0.02622423
v -0.02227601 -0.00381573 0.02617481
v -0.02283730 -0.00228845 0.02256007
v -0.02283730 -0.00143777 0.02255772
v -0.02186117 -0.00149416 0.02256086
v -0.02008180 -0.00273624 0.02256870
v -0.02112833 -0.00269887 0.02656511
v -0.02008180 -0.00196653 0.02285977
v -0.02078713 -0.00143777 0.02291782
v -0.02283730 -0.00143777 0.02639997
v -0.02215625 -0.00155251 0.02656511
v -0.02283730 -0.00279033 0.02633563
v -0.02127101 -0.00143777 0.02268560
v -0.02178807 -0.00208914 0.02656511
f 1 2 3
f 1 3 8
f 1 8 19
f 1 19 29
f 1 29 40
f 1 40 42
f 1 42 31
f 1 31 20
f 1 20 9
f 1 9 4
f 1 4 5
f 1 5 2
f 2 5 12
f 2 12 6
f 2 6 7
f 2 7 3
f 3 7 8
f 4 9 10
f 4 10 5
f 5 10 11
f 5 11 12
f 6 13 14
f 6 14 15
f 6 15 7
f 6 12 16
f 6 16 13
f 7 15 14
f 7 14 17
f 7 17 18
f 7 18 8
f 8 18 19
f 9 20 21
f 9 21 10
f 10 21 11
f 11 21 22
f 11 22 23
f 11 23 16
f 11 16 12
f 13 24 14
f 13 16 25
f 13 25 23
f 13 23 35
f 13 35 46
f 13 46 44
f 13 44 38
f 13 38 37
f 13 37 26
f 13 26 24
f 14 24 26
f 14 26 17
f 16 23 25
f 17 26 27
f 17 27 18
f 18 27 28
f 18 28 19
f 19 28 29
f 20 30 21
f 20 31 32
f 20 32 33
f 20 33 30
f 21 30 34
f 21 34 35
f 21 35 36
f 21 36 22
f 22 36 23
f 23 36 35
f 26 37 27
f 27 37 28
f 28 37 38
f 28 38 29
f 29 38 39
f 29 39 40
f 30 33 41
f 30 41 34
f 31 42 43
f 31 43 47
f 31 47 38
f 31 38 44
f 31 44 32
f 32 44 45
f 32 45 33
f 33 45 48
f 33 48 41
f 34 46 35
f 34 41 46
f 38 47 39
f 39 47 40
f 40 47 42
f 41 48 46
f 42 47 43
f 44 46 45
f 45 46 48

