# https://github.com/mikedh/trimesh
v -0.02557195 0.01035900 0.03265526
v -0.02557195 0.01035900 0.03508981
v -0.02557195 0.01334498 0.03265526
v -0.02307345 0.01035900 0.03265526
v -0.02557195 0.01035963 0.03570999
v -0.02049441 0.01035900 0.03508981
v -0.02557195 0.01334592 0.03510749
v -0.02516381 0.01355625 0.03265526
v -0.02302871 0.01035931 0.03265526
v -0.02049441 0.01036651 0.03323034
v -0.02049441 0.01035900 0.03385016
v -0.02557195 0.01044726 0.03611876
v -0.02049441 0.01035963 0.03570999
v -0.02557195 0.01333591 0.03571035
v -0.02515089 0.01355625 0.03570999
v -0.02516381 0.01355625 0.03508981
v -0.02101141 0.01355625 0.03265526
v -0.02233772 0.01042567 0.03265526
v -0.02049441 0.01045697 0.03282699
v -0.02557195 0.01045008 0.03613175
v -0.02049441 0.01045008 0.03613175
v -0.02557195 0.01317221 0.03615267
v -0.02491078 0.01355625 0.03620066
v -0.02049441 0.01355625 0.03265922
v -0.02101141 0.01147014 0.03265526
v -0.02213241 0.01044539 0.03265526
v -0.02049441 0.01078687 0.03271731
v -0.02191020 0.01048827 0.03265526
v -0.02557195 0.01085009 0.03629229
v -0.02049441 0.01085009 0.03629229
v -0.02557195 0.01270991 0.03631322
v -0.02473580 0.01355625 0.03625549
v -0.02049441 0.01355625 0.03634100
v -0.02049441 0.01147014 0.03265922
v -0.02132907 0.01084508 0.03265526
v -0.02049441 0.01085009 0.03269638
v -0.02153587 0.01063663 0.03265526
v -0.02557195 0.01147014 0.03634100
v -0.02049441 0.01147014 0.03634100
v -0.02557195 0.01208987 0.03634100
v -0.02431325 0.01355625 0.03634100
v -0.02049441 0.01137060 0.03266500
f 1 2 5
f 1 5 12
f 1 12 20
f 1 20 29
f 1 29 38
f 1 38 40
f 1 40 31
f 1 31 22
f 1 22 14
f 1 14 7
f 1 7 3
f 1 3 8
f 1 8 17
f 1 17 25
f 1 25 35
f 1 35 37
f 1 37 28
f 1 28 26
f 1 26 18
f 1 18 9
f 1 9 4
f 1 4 11
f 1 11 6
f 1 6 2
f 2 6 13
f 2 13 5
f 3 7 8
f 4 9 10
f 4 10 11
f 5 13 12
f 6 11 10
f 6 10 19
f 6 19 27
f 6 27 36
f 6 36 42
f 6 42 34
f 6 34 24
f 6 24 33
f 6 33 39
f 6 39 30
f 6 30 21
f 6 21 13
f 7 14 15
f 7 15 16
f 7 16 8
f 8 16 15
f 8 15 23
f 8 23 32
f 8 32 41
f 8 41 33
f 8 33 24
f 8 24 17
f 9 18 19
f 9 19 10
f 12 13 21
f 12 21 20
f 14 22 23
f 14 23 15
f 17 24 34
f 17 34 25
f 18 26 19
f 19 26 28
f 19 28 27
f 20 21 30
f 20 30 29
f 22 31 32
f 22 32 23
f 25 34 35
f 27 28 36
f 28 37 36
f 29 30 39
f 29 39 38
f 31 40 41
f 31 41 32
f 33 41 40
f 33 40 38
f 33 38 39
f 34 42 37
f 34 37 35
f 36 37 42

