# https://github.com/mikedh/trimesh
v -0.02943422 0.01217565 0.02184253
v -0.02943422 0.01217565 0.02422694
v -0.02943422 0.01357873 0.02184253
v -0.02567269 0.01217565 0.02184253
v -0.02943422 0.01357873 0.02422694
v -0.02567269 0.01217565 0.02422694
v -0.02731429 0.01357873 0.02184253
v -0.02567269 0.01228085 0.02184253
v -0.02629428 0.01357873 0.02422694
v -0.02567269 0.01335885 0.02422694
v -0.02693464 0.01357873 0.02207829
v -0.02567269 0.01317921 0.02224682
v -0.02629428 0.01357873 0.02330982
v -0.02567269 0.01335885 0.02330982
v -0.02676856 0.01357873 0.02218426
v -0.02567269 0.01322233 0.02232244
v -0.02629980 0.01357873 0.02267305
v -0.02567269 0.01335500 0.02268705
v -0.02645446 0.01357873 0.02242912
f 1 2 5
f 1 5 3
f 1 3 7
f 1 7 8
f 1 8 4
f 1 4 6
f 1 6 2
f 2 6 10
f 2 10 9
f 2 9 5
f 3 5 9
f 3 9 13
f 3 13 17
f 3 17 19
f 3 19 15
f 3 15 11
f 3 11 7
f 4 8 12
f 4 12 16
f 4 16 18
f 4 18 14
f 4 14 10
f 4 10 6
f 7 11 12
f 7 12 8
f 9 10 14
f 9 14 13
f 11 15 12
f 12 15 16
f 13 14 17
f 14 18 17
f 15 19 16
f 16 19 18
f 17 18 19

