# https://github.com/mikedh/trimesh
v -0.02555503 0.01011241 0.02655388
v -0.02576366 0.01025396 0.02686712
v -0.02555503 0.01016226 0.02655388
v -0.02431324 0.01011241 0.02655388
v -0.02574269 0.01035974 0.03174871
v -0.02576935 0.01035974 0.02902976
v -0.02576935 0.01035898 0.02783733
v -0.02576366 0.01337076 0.02686712
v -0.02555503 0.01334222 0.02655541
v -0.02555326 0.01334222 0.02655388
v -0.02429867 0.01011279 0.02655388
v -0.02307429 0.01035974 0.03174871
v -0.02574269 0.01336809 0.03174871
v -0.02576935 0.01337152 0.02902976
v -0.02576935 0.01337152 0.02783733
v -0.02507026 0.01399975 0.02655388
v -0.02354556 0.01019574 0.02655388
v -0.02251203 0.01045031 0.03174871
v -0.02506528 0.01397578 0.03174871
v -0.02507026 0.01399975 0.02686712
v -0.02215272 0.01399975 0.02655388
v -0.02251452 0.01044955 0.02655388
v -0.02219714 0.01083234 0.03174871
v -0.02213850 0.01397578 0.03174871
v -0.02215272 0.01399975 0.02686712
v -0.02215272 0.01147047 0.02655388
v -0.02227960 0.01075738 0.02655388
v -0.02213850 0.01147085 0.03174871
v -0.02220887 0.01085061 0.02655388
f 1 2 8
f 1 8 3
f 1 3 10
f 1 10 16
f 1 16 21
f 1 21 26
f 1 26 29
f 1 29 27
f 1 27 22
f 1 22 17
f 1 17 11
f 1 11 4
f 1 4 12
f 1 12 5
f 1 5 2
f 2 5 6
f 2 6 7
f 2 7 15
f 2 15 8
f 3 9 10
f 3 8 9
f 4 11 12
f 5 12 18
f 5 18 23
f 5 23 28
f 5 28 24
f 5 24 19
f 5 19 13
f 5 13 14
f 5 14 6
f 6 14 15
f 6 15 7
f 8 15 16
f 8 16 9
f 9 16 10
f 11 17 12
f 12 17 18
f 13 19 14
f 14 19 20
f 14 20 16
f 14 16 15
f 16 20 25
f 16 25 21
f 17 22 18
f 18 22 23
f 19 24 25
f 19 25 20
f 21 25 24
f 21 24 28
f 21 28 26
f 22 27 23
f 23 27 29
f 23 29 28
f 26 28 29

