# https://github.com/mikedh/trimesh
v -0.02943422 0.01428943 0.02185475
v -0.02943422 0.01494511 0.02185475
v -0.02732276 0.01428943 0.02185475
v -0.02943422 0.01428943 0.02422717
v -0.02943422 0.01494511 0.02422717
v -0.02720640 0.01494511 0.02185475
v -0.02567269 0.01494511 0.02221520
v -0.02567269 0.01476765 0.02228534
v -0.02678403 0.01428943 0.02219383
v -0.02650675 0.01428943 0.02422717
v -0.02567269 0.01494511 0.02422717
v -0.02567269 0.01463973 0.02269015
v -0.02665883 0.01428943 0.02237894
v -0.02650675 0.01428943 0.02392989
v -0.02567269 0.01462414 0.02422717
v -0.02567269 0.01462690 0.02319088
v -0.02652258 0.01428943 0.02268945
v -0.02650712 0.01428943 0.02330979
v -0.02567269 0.01462414 0.02330979
f 1 2 6
f 1 6 3
f 1 3 9
f 1 9 13
f 1 13 17
f 1 17 18
f 1 18 14
f 1 14 10
f 1 10 4
f 1 4 5
f 1 5 2
f 2 5 11
f 2 11 7
f 2 7 6
f 3 6 7
f 3 7 8
f 3 8 9
f 4 10 15
f 4 15 11
f 4 11 5
f 7 11 15
f 7 15 19
f 7 19 16
f 7 16 12
f 7 12 8
f 8 12 9
f 9 12 13
f 10 14 19
f 10 19 15
f 12 16 17
f 12 17 13
f 14 18 19
f 16 19 17
f 17 19 18

