# https://github.com/mikedh/trimesh
v -0.02540546 -0.01764029 0.03243510
v -0.02307372 -0.01764029 0.03243510
v -0.02540546 -0.01764029 0.03265526
v -0.02540546 -0.01035900 0.03243510
v -0.02262853 -0.01758754 0.03243510
v -0.02240874 -0.01757114 0.03265526
v -0.02302855 -0.01764029 0.03265526
v -0.02540546 -0.01035900 0.03265526
v -0.02307372 -0.01035900 0.03243510
v -0.02204700 -0.01746707 0.03243510
v -0.02175709 -0.01746850 0.03265526
v -0.02307372 -0.01035900 0.03265526
v -0.02213216 -0.01044596 0.03265526
v -0.02243497 -0.01043812 0.03243510
v -0.02201086 -0.01741575 0.03243510
v -0.02123018 -0.01704937 0.03265526
v -0.02146890 -0.01729529 0.03265526
v -0.02184569 -0.01058068 0.03265526
v -0.02132911 -0.01084513 0.03265526
v -0.02227625 -0.01052865 0.03243510
v -0.02183193 -0.01704937 0.03243510
v -0.02101124 -0.01642995 0.03265526
v -0.02101124 -0.01147026 0.03265526
v -0.02189559 -0.01084442 0.03243510
v -0.02196312 -0.01075318 0.03243510
v -0.02182204 -0.01699235 0.03243510
v -0.02179150 -0.01642995 0.03243510
v -0.02179150 -0.01203765 0.03243510
v -0.02179193 -0.01147026 0.03243510
f 1 2 7
f 1 7 3
f 1 3 8
f 1 8 4
f 1 4 9
f 1 9 14
f 1 14 20
f 1 20 25
f 1 25 24
f 1 24 29
f 1 29 28
f 1 28 27
f 1 27 26
f 1 26 21
f 1 21 15
f 1 15 10
f 1 10 5
f 1 5 2
f 2 5 6
f 2 6 7
f 3 7 6
f 3 6 11
f 3 11 17
f 3 17 16
f 3 16 22
f 3 22 23
f 3 23 19
f 3 19 18
f 3 18 13
f 3 13 12
f 3 12 8
f 4 8 12
f 4 12 9
f 5 10 11
f 5 11 6
f 9 13 14
f 9 12 13
f 10 15 16
f 10 16 17
f 10 17 11
f 13 18 14
f 14 18 19
f 14 19 20
f 15 21 16
f 16 21 22
f 19 23 24
f 19 24 25
f 19 25 20
f 21 26 22
f 22 26 27
f 22 27 28
f 22 28 23
f 23 28 29
f 23 29 24

