# https://github.com/mikedh/trimesh
v -0.01455484 -0.01642981 0.03650360
v -0.01455137 -0.01704977 0.03650360
v -0.01433412 -0.01766974 0.03973295
v -0.01455484 -0.01270555 0.03650360
v -0.01446124 -0.01766900 0.03650360
v -0.01420874 -0.01812988 0.03973295
v -0.01433412 -0.01209004 0.03973295
v -0.01455253 -0.01209004 0.03650360
v -0.01421567 -0.01812988 0.03650360
v -0.01399553 -0.01821834 0.03973295
v -0.01420874 -0.01148271 0.03973295
v -0.01450746 -0.01147007 0.03650360
v -0.01409375 -0.01818043 0.03650360
v -0.01377307 -0.01831052 0.03973295
v -0.01379965 -0.01117273 0.03973295
v -0.01432314 -0.01092295 0.03650360
v -0.01377307 -0.01831052 0.03650360
v -0.01359973 -0.01831944 0.03650360
v -0.01315309 -0.01834100 0.03973295
v -0.01348995 -0.01116009 0.03973295
v -0.01317678 -0.01074752 0.03650360
v -0.01377076 -0.01077205 0.03650360
v -0.01315309 -0.01834100 0.03650360
v -0.00943378 -0.01834100 0.03973295
v -0.01331777 -0.01115934 0.03973295
v -0.01005376 -0.01074752 0.03650360
v -0.00943378 -0.01834100 0.03650360
v -0.00890451 -0.01816036 0.03973295
v -0.00927488 -0.01115934 0.03973295
v -0.00946498 -0.01076090 0.03650360
v -0.00912292 -0.01116009 0.03973295
v -0.00890451 -0.01816036 0.03650360
v -0.00873464 -0.01780726 0.03650360
v -0.00866877 -0.01766974 0.03973295
v -0.00943378 -0.01076164 0.03650360
v -0.00900736 -0.01131173 0.03973295
v -0.00895131 -0.01094377 0.03650360
v -0.00866877 -0.01766974 0.03650360
v -0.00865259 -0.01704977 0.03973295
v -0.00888718 -0.01147007 0.03973295
v -0.00888429 -0.01104412 0.03650360
v -0.00865259 -0.01704977 0.03650360
v -0.00865259 -0.01209004 0.03973295
v -0.00874677 -0.01147007 0.03650360
v -0.00865259 -0.01209004 0.03650360
v -0.00869708 -0.01164402 0.03650360
f 1 2 3
f 1 3 7
f 1 7 4
f 1 4 8
f 1 8 12
f 1 12 16
f 1 16 22
f 1 22 21
f 1 21 26
f 1 26 30
f 1 30 35
f 1 35 37
f 1 37 41
f 1 41 44
f 1 44 46
f 1 46 45
f 1 45 42
f 1 42 38
f 1 38 33
f 1 33 32
f 1 32 27
f 1 27 23
f 1 23 18
f 1 18 17
f 1 17 13
f 1 13 9
f 1 9 5
f 1 5 2
f 2 5 3
f 3 5 6
f 3 6 10
f 3 10 14
f 3 14 19
f 3 19 24
f 3 24 28
f 3 28 34
f 3 34 39
f 3 39 43
f 3 43 40
f 3 40 36
f 3 36 31
f 3 31 29
f 3 29 25
f 3 25 20
f 3 20 15
f 3 15 11
f 3 11 7
f 4 7 8
f 5 9 6
f 6 9 10
f 7 11 12
f 7 12 8
f 9 13 10
f 10 13 14
f 11 15 16
f 11 16 12
f 13 17 14
f 14 17 18
f 14 18 19
f 15 20 21
f 15 21 22
f 15 22 16
f 18 23 19
f 19 23 27
f 19 27 24
f 20 25 21
f 21 25 29
f 21 29 26
f 24 27 32
f 24 32 28
f 26 29 31
f 26 31 30
f 28 32 33
f 28 33 34
f 30 31 35
f 31 36 37
f 31 37 35
f 33 38 34
f 34 38 42
f 34 42 39
f 36 40 37
f 37 40 41
f 39 42 45
f 39 45 43
f 40 43 41
f 41 43 44
f 43 45 46
f 43 46 44

