# https://github.com/mikedh/trimesh
v -0.01433459 0.01023460 0.04253090
v -0.01433459 0.01023460 0.04438936
v -0.01433459 0.01209139 0.04005909
v -0.01420444 0.01147881 0.04005909
v -0.01415939 0.01023460 0.04165191
v -0.01399031 0.01023460 0.04498779
v -0.01399086 0.01580894 0.04498779
v -0.01433459 0.01642867 0.04438936
v -0.01433459 0.01766891 0.04005909
v -0.01339797 0.01116221 0.04005909
v -0.01315770 0.01023460 0.04130022
v -0.01315325 0.01023460 0.04514100
v -0.01315325 0.01580894 0.04514100
v -0.01399086 0.01642867 0.04498281
v -0.01414548 0.01715710 0.04462017
v -0.01433459 0.01766891 0.04314972
v -0.01399086 0.01821959 0.04005909
v -0.00908308 0.01131376 0.04005909
v -0.00943403 0.01023460 0.04130022
v -0.00943403 0.01023460 0.04514100
v -0.00943403 0.01580894 0.04514100
v -0.01315325 0.01642867 0.04513254
v -0.01315325 0.01728168 0.04491665
v -0.01397307 0.01779666 0.04432618
v -0.01399086 0.01821880 0.04283982
v -0.01315325 0.01834100 0.04005909
v -0.00865426 0.01208663 0.04005909
v -0.00880332 0.01023460 0.04167878
v -0.00877439 0.01023460 0.04465400
v -0.00877551 0.01611920 0.04465350
v -0.00943403 0.01642867 0.04513254
v -0.00932891 0.01726898 0.04490770
v -0.01315325 0.01794742 0.04437742
v -0.01315325 0.01824737 0.04376904
v -0.01315325 0.01833862 0.04283982
v -0.00943403 0.01834100 0.04005909
v -0.00865259 0.01023460 0.04253090
v -0.00865259 0.01704918 0.04005909
v -0.00865259 0.01023460 0.04376904
v -0.00865259 0.01704918 0.04376904
v -0.00880888 0.01704918 0.04462515
v -0.00890343 0.01766891 0.04438439
v -0.00932113 0.01805534 0.04412422
v -0.00943403 0.01833862 0.04283982
v -0.00878719 0.01791410 0.04005909
v -0.00878719 0.01791410 0.04283982
v -0.00870431 0.01766891 0.04376904
f 1 2 8
f 1 8 16
f 1 16 9
f 1 9 3
f 1 3 4
f 1 4 5
f 1 5 11
f 1 11 19
f 1 19 28
f 1 28 37
f 1 37 39
f 1 39 29
f 1 29 20
f 1 20 12
f 1 12 6
f 1 6 2
f 2 6 7
f 2 7 8
f 3 9 17
f 3 17 26
f 3 26 36
f 3 36 45
f 3 45 38
f 3 38 27
f 3 27 18
f 3 18 10
f 3 10 4
f 4 10 5
f 5 10 11
f 6 12 7
f 7 13 14
f 7 14 8
f 7 12 13
f 8 14 15
f 8 15 16
f 9 16 17
f 10 18 19
f 10 19 11
f 12 20 21
f 12 21 13
f 13 21 31
f 13 31 22
f 13 22 14
f 14 22 23
f 14 23 15
f 15 23 24
f 15 24 16
f 16 24 25
f 16 25 17
f 17 25 26
f 18 27 28
f 18 28 19
f 20 29 21
f 21 29 30
f 21 30 31
f 22 31 23
f 23 31 32
f 23 32 33
f 23 33 24
f 24 33 34
f 24 34 25
f 25 34 35
f 25 35 26
f 26 35 44
f 26 44 36
f 27 37 28
f 27 38 37
f 29 39 40
f 29 40 30
f 30 40 41
f 30 41 31
f 31 41 32
f 32 42 43
f 32 43 33
f 32 41 42
f 33 43 34
f 34 44 35
f 34 43 44
f 36 44 46
f 36 46 45
f 37 38 40
f 37 40 39
f 38 45 47
f 38 47 40
f 40 47 41
f 41 47 42
f 42 47 43
f 43 46 44
f 43 47 46
f 45 46 47

