# https://github.com/mikedh/trimesh
v -0.02624082 0.00940174 0.02422717
v -0.02516399 0.00940174 0.02422717
v -0.02624082 0.00940174 0.02465548
v -0.02624082 0.01352069 0.02422717
v -0.02516399 0.00940174 0.02465548
v -0.02516399 0.01315467 0.02422717
v -0.02624082 0.01352069 0.02465548
v -0.02516399 0.01355648 0.02422906
v -0.02534961 0.01345440 0.02422717
v -0.02516399 0.01355648 0.02465548
f 1 2 5
f 1 5 3
f 1 3 7
f 1 7 4
f 1 4 9
f 1 9 6
f 1 6 2
f 2 6 8
f 2 8 10
f 2 10 5
f 3 5 10
f 3 10 7
f 4 7 10
f 4 10 8
f 4 8 9
f 6 9 8

