# https://github.com/mikedh/trimesh
v -0.02699939 0.01494511 0.02194448
v -0.02699939 0.01542067 0.02145131
v -0.02569135 0.01494511 0.02221484
v -0.02699939 0.01494511 0.02422717
v -0.02699939 0.01700458 0.02145131
v -0.02569135 0.01580611 0.02145131
v -0.02569135 0.01494511 0.02422717
v -0.02699939 0.01700458 0.02422717
v -0.02569135 0.01700458 0.02145131
v -0.02569135 0.01700458 0.02422717
f 1 2 3
f 1 3 7
f 1 7 4
f 1 4 8
f 1 8 5
f 1 5 2
f 2 5 9
f 2 9 6
f 2 6 3
f 3 6 9
f 3 9 10
f 3 10 7
f 4 7 10
f 4 10 8
f 5 8 10
f 5 10 9

