# https://github.com/mikedh/trimesh
v -0.02027803 -0.00003891 0.02888968
v -0.02030712 -0.00003332 0.02702901
v -0.01953047 0.00070511 0.02937991
v -0.02028626 -0.00003891 0.02949295
v -0.02213624 -0.00003891 0.02995332
v -0.01964930 0.00070287 0.02702901
v -0.02233411 0.00013472 0.02702840
v -0.01953047 0.00192081 0.02702840
v -0.01953047 0.00096765 0.02998470
v -0.02053902 -0.00003891 0.02999536
v -0.02169797 -0.00003891 0.03009195
v -0.02183354 0.00031003 0.03007824
v -0.02222077 0.00031003 0.02991828
v -0.02229075 0.00013556 0.02955419
v -0.02214502 0.00095479 0.02950971
v -0.02216286 0.00098079 0.02702840
v -0.02218344 0.00073950 0.02987349
v -0.01997258 0.00279148 0.02702840
v -0.01953047 0.00281749 0.02702901
v -0.01953047 0.00145779 0.03011967
v -0.02121331 -0.00003891 0.03014100
v -0.02121331 0.00093018 0.03014100
v -0.02121331 0.00154978 0.03009134
v -0.02186894 0.00093997 0.02998043
v -0.02183134 0.00154978 0.02950971
v -0.02209453 0.00111053 0.02888968
v -0.02185275 0.00154810 0.02702840
v -0.02156926 0.00190907 0.02968520
v -0.02167327 0.00154978 0.02993077
v -0.02116227 0.00228037 0.02702840
v -0.02077092 0.00253509 0.02714052
v -0.02073250 0.00253621 0.02950971
v -0.01997396 0.00278114 0.02888968
v -0.01953047 0.00280826 0.02888968
v -0.01953047 0.00208130 0.03013826
v -0.02059363 0.00154978 0.03014100
v -0.02064934 0.00222697 0.03000207
v -0.02121331 0.00203824 0.02993077
v -0.01997396 0.00216993 0.03012790
v -0.02184040 0.00154978 0.02888968
v -0.02158407 0.00192305 0.02702840
v -0.02047919 0.00256193 0.02990975
v -0.02121331 0.00221886 0.02950971
v -0.02088783 0.00247218 0.02888968
v -0.01997396 0.00277695 0.02950971
v -0.01953047 0.00278226 0.02957491
v -0.01953047 0.00257423 0.02999871
v -0.01997396 0.00262596 0.02996703
f 1 2 3
f 1 3 4
f 1 4 10
f 1 10 21
f 1 21 11
f 1 11 5
f 1 5 2
f 2 6 3
f 2 5 7
f 2 7 8
f 2 8 6
f 3 6 8
f 3 8 19
f 3 19 34
f 3 34 46
f 3 46 47
f 3 47 35
f 3 35 20
f 3 20 9
f 3 9 4
f 4 9 10
f 5 11 12
f 5 12 13
f 5 13 14
f 5 14 7
f 7 15 16
f 7 16 27
f 7 27 41
f 7 41 30
f 7 30 18
f 7 18 8
f 7 14 17
f 7 17 15
f 8 18 19
f 9 20 10
f 10 20 21
f 11 21 12
f 12 21 22
f 12 22 23
f 12 23 24
f 12 24 13
f 13 17 14
f 13 24 17
f 15 25 26
f 15 26 16
f 15 17 25
f 16 26 27
f 17 28 25
f 17 24 29
f 17 29 28
f 18 30 31
f 18 31 32
f 18 32 33
f 18 33 34
f 18 34 19
f 20 35 21
f 21 36 22
f 21 35 36
f 22 36 23
f 23 37 38
f 23 38 29
f 23 29 24
f 23 36 39
f 23 39 37
f 25 40 26
f 25 28 40
f 26 40 27
f 27 40 41
f 28 29 38
f 28 38 42
f 28 42 43
f 28 43 41
f 28 41 40
f 30 41 43
f 30 43 44
f 30 44 31
f 31 44 32
f 32 43 42
f 32 42 45
f 32 45 33
f 32 44 43
f 33 45 34
f 34 45 46
f 35 39 36
f 35 47 39
f 37 39 48
f 37 48 42
f 37 42 38
f 39 47 48
f 42 48 45
f 45 48 46
f 46 48 47

