# https://github.com/mikedh/trimesh
v -0.01944174 -0.00282259 0.02702901
v -0.01953019 -0.00192213 0.02702840
v -0.01873335 -0.00273237 0.02702840
v -0.01944174 -0.00281362 0.02888968
v -0.01953019 -0.00070313 0.02827058
v -0.01947561 -0.00070313 0.02702870
v -0.01886881 0.00003959 0.02702840
v -0.01944174 -0.00280914 0.02946553
v -0.01953019 -0.00154951 0.03014100
v -0.01812152 -0.00247210 0.02702840
v -0.01812460 -0.00246537 0.02950971
v -0.01873335 -0.00271528 0.02950971
v -0.01953019 -0.00070369 0.02888968
v -0.01889736 0.00003959 0.02954017
v -0.01798829 0.00003959 0.02702840
v -0.01873335 -0.00259677 0.02994479
v -0.01944174 -0.00264188 0.02997739
v -0.01944174 -0.00216980 0.03013795
v -0.01873335 -0.00154951 0.03014100
v -0.01749373 -0.00031034 0.03014100
v -0.01762892 0.00003959 0.03013887
v -0.01811340 0.00003959 0.03013155
v -0.01953019 -0.00096733 0.02998470
v -0.01757378 -0.00206810 0.02702840
v -0.01796954 -0.00237740 0.02888968
v -0.01758078 -0.00206642 0.02950971
v -0.01832779 -0.00252925 0.02988111
v -0.01953019 -0.00073871 0.02960751
v -0.01869081 0.00003959 0.02988385
v -0.01667086 -0.00013467 0.02702931
v -0.01682592 -0.00093034 0.02702840
v -0.01811816 -0.00218997 0.02998440
v -0.01873335 -0.00216980 0.03010535
v -0.01811340 -0.00154951 0.03014039
v -0.01811340 -0.00093034 0.03014100
v -0.01749373 -0.00093034 0.03012424
v -0.01695831 -0.00013551 0.02998043
v -0.01673748 -0.00013551 0.02956089
v -0.01668822 -0.00013551 0.02888968
v -0.01716039 -0.00159854 0.02702840
v -0.01757966 -0.00206754 0.02888968
v -0.01716710 -0.00159126 0.02950971
v -0.01710357 -0.00137105 0.02990487
v -0.01765578 -0.00199666 0.02992620
v -0.01683208 -0.00093034 0.02888968
v -0.01746714 -0.00156604 0.02999841
v -0.01701904 -0.00093034 0.02996368
v -0.01684327 -0.00093034 0.02950971
f 1 2 3
f 1 3 4
f 1 4 2
f 2 5 6
f 2 6 7
f 2 7 15
f 2 15 31
f 2 31 40
f 2 40 24
f 2 24 10
f 2 10 3
f 2 4 8
f 2 8 9
f 2 9 23
f 2 23 28
f 2 28 13
f 2 13 5
f 3 10 11
f 3 11 12
f 3 12 4
f 4 12 8
f 5 7 6
f 5 13 14
f 5 14 7
f 7 14 29
f 7 29 22
f 7 22 21
f 7 21 15
f 8 12 16
f 8 16 17
f 8 17 9
f 9 17 18
f 9 18 19
f 9 19 35
f 9 35 20
f 9 20 21
f 9 21 22
f 9 22 23
f 10 24 25
f 10 25 11
f 11 26 27
f 11 27 12
f 11 25 26
f 12 27 16
f 13 28 14
f 14 28 23
f 14 23 29
f 15 30 31
f 15 21 30
f 16 32 33
f 16 33 17
f 16 27 32
f 17 33 18
f 18 33 34
f 18 34 19
f 19 34 35
f 20 35 34
f 20 34 36
f 20 36 37
f 20 37 21
f 21 37 38
f 21 38 39
f 21 39 30
f 22 29 23
f 24 40 26
f 24 26 41
f 24 41 25
f 25 41 26
f 26 42 43
f 26 43 44
f 26 44 27
f 26 40 42
f 27 44 32
f 30 39 45
f 30 45 31
f 31 45 40
f 32 44 46
f 32 46 34
f 32 34 33
f 34 46 36
f 36 46 47
f 36 47 37
f 37 47 38
f 38 47 48
f 38 48 39
f 39 48 45
f 40 45 42
f 42 45 48
f 42 48 43
f 43 47 46
f 43 46 44
f 43 48 47

