# https://github.com/mikedh/trimesh
v -0.02943232 0.01400577 0.03265526
v -0.02943383 0.01400577 0.03385016
v -0.02943232 0.01585470 0.03265526
v -0.02649857 0.01400577 0.03265526
v -0.02943383 0.01642937 0.03385016
v -0.02943383 0.01400577 0.03508981
v -0.02943156 0.01642937 0.03265526
v -0.02557244 0.01463809 0.03265526
v -0.02649819 0.01400577 0.03371740
v -0.02943383 0.01642937 0.03508981
v -0.02939943 0.01704995 0.03385016
v -0.02939754 0.01704995 0.03265526
v -0.02943194 0.01400577 0.03514537
v -0.02557244 0.01764100 0.03265526
v -0.02557244 0.01463809 0.03508981
v -0.02649819 0.01400577 0.03508981
v -0.02941002 0.01642937 0.03570999
v -0.02938696 0.01704995 0.03570999
v -0.02939943 0.01704995 0.03508981
v -0.02916393 0.01750044 0.03265526
v -0.02941002 0.01400577 0.03570999
v -0.02557244 0.01764100 0.03508981
v -0.02865324 0.01764100 0.03265526
v -0.02557244 0.01465375 0.03570999
v -0.02652163 0.01400577 0.03572370
v -0.02917452 0.01642937 0.03618045
v -0.02916885 0.01704995 0.03617432
v -0.02909627 0.01745240 0.03611840
v -0.02916355 0.01749938 0.03570999
v -0.02916393 0.01750044 0.03508981
v -0.02917452 0.01400577 0.03618045
v -0.02557244 0.01763993 0.03570999
v -0.02865324 0.01764100 0.03508981
v -0.02557244 0.01477260 0.03610613
v -0.02682102 0.01400577 0.03618298
v -0.02865324 0.01642937 0.03634100
v -0.02865324 0.01704995 0.03632873
v -0.02865324 0.01763993 0.03570999
v -0.02865324 0.01749902 0.03616855
v -0.02865324 0.01400577 0.03634100
v -0.02557244 0.01749902 0.03616855
v -0.02557244 0.01518324 0.03627029
v -0.02735061 0.01400577 0.03632837
v -0.02557244 0.01642937 0.03634100
v -0.02557244 0.01704995 0.03632873
v -0.02741412 0.01400577 0.03634100
v -0.02557244 0.01579172 0.03633920
v -0.02557244 0.01581058 0.03634100
f 1 2 5
f 1 5 3
f 1 3 7
f 1 7 12
f 1 12 20
f 1 20 23
f 1 23 14
f 1 14 8
f 1 8 4
f 1 4 9
f 1 9 16
f 1 16 25
f 1 25 35
f 1 35 43
f 1 43 46
f 1 46 40
f 1 40 31
f 1 31 21
f 1 21 13
f 1 13 6
f 1 6 2
f 2 6 10
f 2 10 5
f 3 5 7
f 4 8 9
f 5 10 19
f 5 19 11
f 5 11 12
f 5 12 7
f 6 13 10
f 8 14 22
f 8 22 32
f 8 32 41
f 8 41 45
f 8 45 44
f 8 44 48
f 8 48 47
f 8 47 42
f 8 42 34
f 8 34 24
f 8 24 15
f 8 15 16
f 8 16 9
f 10 13 17
f 10 17 18
f 10 18 19
f 11 19 30
f 11 30 20
f 11 20 12
f 13 21 17
f 14 23 33
f 14 33 22
f 15 24 16
f 16 24 25
f 17 21 31
f 17 31 26
f 17 26 27
f 17 27 18
f 18 27 28
f 18 28 29
f 18 29 19
f 19 29 30
f 20 30 33
f 20 33 23
f 22 33 38
f 22 38 32
f 24 34 25
f 25 34 35
f 26 31 40
f 26 40 36
f 26 36 27
f 27 36 37
f 27 37 28
f 28 38 29
f 28 37 39
f 28 39 38
f 29 38 30
f 30 38 33
f 32 38 39
f 32 39 41
f 34 42 35
f 35 42 43
f 36 40 46
f 36 46 48
f 36 48 44
f 36 44 45
f 36 45 37
f 37 45 41
f 37 41 39
f 42 47 46
f 42 46 43
f 46 47 48

