# https://github.com/mikedh/trimesh
v -0.02865355 -0.01556631 0.01945922
v -0.02886639 -0.01556631 0.01954570
v -0.02865355 -0.01457002 0.01945922
v -0.02827707 -0.01556631 0.01945922
v -0.02919528 -0.01556631 0.01967955
v -0.02919528 -0.01395676 0.01967955
v -0.02865355 -0.01395676 0.01946838
v -0.02803374 -0.01556631 0.01946570
v -0.02928779 -0.01556631 0.01988804
v -0.02942817 -0.01395676 0.02020445
v -0.02864553 -0.01395676 0.01947062
v -0.02765753 -0.01556631 0.01951822
v -0.02803374 -0.01518988 0.01947598
v -0.02943058 -0.01556631 0.02021004
v -0.02943058 -0.01395676 0.02021004
v -0.02797920 -0.01395676 0.01972067
v -0.02707730 -0.01556631 0.01971508
v -0.02943218 -0.01556631 0.02045383
v -0.02943459 -0.01395676 0.02082991
v -0.02771983 -0.01395676 0.02021004
v -0.02699735 -0.01556631 0.01981586
v -0.02943459 -0.01556631 0.02082991
v -0.02943459 -0.01395676 0.02174184
v -0.02741688 -0.01395676 0.02174184
v -0.02685456 -0.01556631 0.02021004
v -0.02688825 -0.01556631 0.02004535
v -0.02943459 -0.01556631 0.02174184
v -0.02670295 -0.01556631 0.02174184
f 1 2 3
f 1 3 4
f 1 4 8
f 1 8 12
f 1 12 17
f 1 17 21
f 1 21 26
f 1 26 25
f 1 25 28
f 1 28 27
f 1 27 22
f 1 22 18
f 1 18 14
f 1 14 9
f 1 9 5
f 1 5 2
f 2 5 6
f 2 6 3
f 3 7 8
f 3 8 4
f 3 6 7
f 5 9 6
f 6 9 10
f 6 10 15
f 6 15 19
f 6 19 23
f 6 23 24
f 6 24 20
f 6 20 16
f 6 16 11
f 6 11 7
f 7 11 12
f 7 12 13
f 7 13 8
f 8 13 12
f 9 14 10
f 10 14 15
f 11 16 17
f 11 17 12
f 14 18 15
f 15 18 19
f 16 20 21
f 16 21 17
f 18 22 19
f 19 22 27
f 19 27 23
f 20 24 25
f 20 25 26
f 20 26 21
f 23 27 28
f 23 28 24
f 24 28 25

