# https://github.com/mikedh/trimesh
v -0.02803337 -0.01785496 0.02654282
v -0.02807643 -0.01785458 0.02654282
v -0.02579997 -0.01785496 0.02654282
v -0.02865288 -0.01764059 0.03243452
v -0.02865288 -0.01784740 0.02654282
v -0.02579997 -0.01460723 0.02654282
v -0.02575580 -0.01765344 0.02702673
v -0.02564259 -0.01764059 0.03174817
v -0.02564259 -0.01764059 0.03243452
v -0.02879727 -0.01760089 0.03243452
v -0.02919889 -0.01763265 0.02654282
v -0.02916400 -0.01749994 0.03243452
v -0.02575580 -0.01562162 0.02702673
v -0.02649742 -0.01400229 0.02654282
v -0.02575580 -0.01461328 0.02702846
v -0.02564259 -0.01462878 0.03174817
v -0.02564259 -0.01462878 0.03243452
v -0.02925122 -0.01753170 0.02654282
v -0.02939821 -0.01704964 0.03243452
v -0.02943422 -0.01400229 0.02654282
v -0.02827279 -0.01399889 0.02702673
v -0.02649705 -0.01399889 0.02702789
v -0.02649631 -0.01399246 0.03174817
v -0.02649668 -0.01399246 0.03243452
v -0.02649631 -0.01399246 0.03214960
v -0.02940935 -0.01704964 0.02654282
v -0.02939933 -0.01704964 0.03198983
v -0.02943236 -0.01642959 0.03243452
v -0.02943385 -0.01642959 0.03198983
v -0.02943422 -0.01642959 0.02654282
v -0.02943422 -0.01399889 0.02702673
v -0.02943385 -0.01399246 0.03174817
v -0.02943273 -0.01399246 0.03243452
v -0.02941714 -0.01691656 0.02654282
v -0.02943273 -0.01598421 0.03243452
v -0.02943385 -0.01399246 0.03209654
v -0.02943422 -0.01642959 0.03174817
v -0.02943422 -0.01399889 0.03174817
f 1 2 5
f 1 5 11
f 1 11 18
f 1 18 26
f 1 26 34
f 1 34 30
f 1 30 20
f 1 20 14
f 1 14 6
f 1 6 3
f 1 3 9
f 1 9 4
f 1 4 2
f 2 4 5
f 3 6 13
f 3 13 7
f 3 7 8
f 3 8 9
f 4 9 17
f 4 17 24
f 4 24 33
f 4 33 35
f 4 35 28
f 4 28 19
f 4 19 12
f 4 12 10
f 4 10 5
f 5 10 12
f 5 12 11
f 6 14 15
f 6 15 13
f 7 13 16
f 7 16 8
f 8 16 17
f 8 17 9
f 11 12 19
f 11 19 18
f 13 15 16
f 14 20 31
f 14 31 21
f 14 21 22
f 14 22 16
f 14 16 15
f 16 23 25
f 16 25 17
f 16 22 23
f 17 25 24
f 18 19 27
f 18 27 26
f 19 28 29
f 19 29 27
f 20 30 37
f 20 37 38
f 20 38 31
f 21 31 32
f 21 32 23
f 21 23 22
f 23 32 36
f 23 36 33
f 23 33 24
f 23 24 25
f 26 27 34
f 27 29 34
f 28 35 29
f 29 35 36
f 29 36 37
f 29 37 34
f 30 34 37
f 31 38 36
f 31 36 32
f 33 36 35
f 36 38 37

