# https://github.com/mikedh/trimesh
v -0.02943331 -0.01598444 0.03243510
v -0.02943274 -0.01642995 0.03243510
v -0.02943274 -0.01580981 0.03265526
v -0.02943331 -0.01209040 0.03243510
v -0.02939859 -0.01704937 0.03243510
v -0.02940060 -0.01700447 0.03265526
v -0.02943188 -0.01642995 0.03265526
v -0.02943274 -0.01209040 0.03265526
v -0.02943159 -0.01147026 0.03243510
v -0.02939801 -0.01704937 0.03265526
v -0.02933230 -0.01717696 0.03243510
v -0.02916442 -0.01749986 0.03265526
v -0.02943044 -0.01147026 0.03265526
v -0.02937649 -0.01102547 0.03243510
v -0.02916442 -0.01749986 0.03243510
v -0.02912711 -0.01751056 0.03265526
v -0.02935353 -0.01085012 0.03265526
v -0.02935439 -0.01085012 0.03243510
v -0.02879767 -0.01760108 0.03243510
v -0.02865333 -0.01764029 0.03265526
v -0.02933660 -0.01082090 0.03265526
v -0.02912137 -0.01044953 0.03265526
v -0.02918766 -0.01056286 0.03243510
v -0.02865333 -0.01764029 0.03243510
v -0.02650191 -0.01764029 0.03265526
v -0.02865333 -0.01035900 0.03265526
v -0.02912137 -0.01044953 0.03243510
v -0.02650191 -0.01764029 0.03243510
v -0.02650191 -0.01035900 0.03265526
v -0.02865333 -0.01035900 0.03243510
v -0.02650191 -0.01035900 0.03243510
f 1 2 3
f 1 3 8
f 1 8 4
f 1 4 9
f 1 9 14
f 1 14 18
f 1 18 23
f 1 23 27
f 1 27 30
f 1 30 31
f 1 31 28
f 1 28 24
f 1 24 19
f 1 19 15
f 1 15 11
f 1 11 5
f 1 5 2
f 2 5 6
f 2 6 7
f 2 7 3
f 3 7 6
f 3 6 10
f 3 10 12
f 3 12 16
f 3 16 20
f 3 20 25
f 3 25 29
f 3 29 26
f 3 26 22
f 3 22 21
f 3 21 17
f 3 17 13
f 3 13 8
f 4 8 9
f 5 10 6
f 5 11 12
f 5 12 10
f 8 13 9
f 9 13 14
f 11 15 12
f 12 15 16
f 13 17 14
f 14 17 18
f 15 19 16
f 16 19 20
f 17 21 18
f 18 21 22
f 18 22 23
f 19 24 20
f 20 24 28
f 20 28 25
f 22 26 30
f 22 30 27
f 22 27 23
f 25 28 31
f 25 31 29
f 26 29 31
f 26 31 30

