# https://github.com/mikedh/trimesh
v -0.02435540 -0.00963424 0.02439607
v -0.02435540 -0.00963424 0.02173593
v -0.02617521 -0.00963424 0.02439607
v -0.02435540 -0.01395491 0.02439607
v -0.02617521 -0.00963424 0.02173593
v -0.02435540 -0.01309679 0.02173593
v -0.02617521 -0.01344926 0.02439607
v -0.02501966 -0.01395661 0.02439607
v -0.02435540 -0.01395661 0.02428904
v -0.02617521 -0.01225262 0.02173593
v -0.02435540 -0.01395576 0.02197083
v -0.02617521 -0.01345180 0.02272212
v -0.02506223 -0.01395661 0.02439607
v -0.02435540 -0.01395661 0.02199088
v -0.02617521 -0.01321273 0.02224452
v -0.02482674 -0.01395661 0.02221796
v -0.02617521 -0.01345138 0.02267421
v -0.02506188 -0.01395661 0.02330050
v -0.02506206 -0.01395661 0.02330988
v -0.02506223 -0.01395661 0.02392029
v -0.02617521 -0.01322161 0.02225833
v -0.02504282 -0.01395661 0.02268488
v -0.02504513 -0.01395661 0.02269009
f 1 2 5
f 1 5 3
f 1 3 7
f 1 7 13
f 1 13 8
f 1 8 4
f 1 4 9
f 1 9 14
f 1 14 11
f 1 11 6
f 1 6 2
f 2 6 10
f 2 10 5
f 3 5 10
f 3 10 15
f 3 15 21
f 3 21 17
f 3 17 12
f 3 12 7
f 4 8 9
f 6 11 10
f 7 12 13
f 8 13 20
f 8 20 19
f 8 19 18
f 8 18 23
f 8 23 22
f 8 22 16
f 8 16 14
f 8 14 9
f 10 11 15
f 11 14 16
f 11 16 15
f 12 17 18
f 12 18 19
f 12 19 20
f 12 20 13
f 15 16 21
f 16 22 17
f 16 17 21
f 17 22 23
f 17 23 18

