# https://github.com/mikedh/trimesh
v -0.02506543 0.01397615 0.02686712
v -0.02215364 0.01397615 0.02686712
v -0.02506543 0.01397615 0.02783733
v -0.02582051 0.01460463 0.02686712
v -0.02507012 0.01400067 0.02655388
v -0.02215292 0.01400067 0.02655388
v -0.02213850 0.01397690 0.03174871
v -0.02215364 0.01397615 0.02783733
v -0.02506543 0.01397690 0.03174871
v -0.02582051 0.01460463 0.02783733
v -0.02555524 0.01464047 0.02655388
v -0.02582051 0.01771120 0.02686712
v -0.02215292 0.01642972 0.02655388
v -0.02213850 0.01642934 0.03174871
v -0.02574302 0.01461557 0.03174871
v -0.02582051 0.01764028 0.02783733
v -0.02555524 0.01465178 0.02655388
v -0.02574302 0.01763990 0.03174871
v -0.02555524 0.01782965 0.02655439
v -0.02216301 0.01704952 0.02655388
v -0.02215508 0.01704914 0.03174871
v -0.02555308 0.01783003 0.02655388
v -0.02307414 0.01763990 0.03174871
v -0.02246900 0.01750032 0.02655388
v -0.02242755 0.01748410 0.03174871
v -0.02493316 0.01783003 0.02655388
v -0.02283951 0.01758520 0.03174871
v -0.02246936 0.01749995 0.03136886
v -0.02307378 0.01765273 0.02655388
v -0.02369513 0.01775873 0.02655388
v -0.02431325 0.01782211 0.02655439
v -0.02246900 0.01750032 0.02783733
v -0.02431325 0.01782211 0.02655388
f 1 2 8
f 1 8 3
f 1 3 10
f 1 10 4
f 1 4 5
f 1 5 6
f 1 6 2
f 2 6 7
f 2 7 8
f 3 8 7
f 3 7 9
f 3 9 10
f 4 11 5
f 4 10 16
f 4 16 12
f 4 12 17
f 4 17 11
f 5 11 17
f 5 17 22
f 5 22 26
f 5 26 33
f 5 33 30
f 5 30 29
f 5 29 24
f 5 24 20
f 5 20 13
f 5 13 6
f 6 13 14
f 6 14 7
f 7 14 21
f 7 21 25
f 7 25 27
f 7 27 23
f 7 23 18
f 7 18 15
f 7 15 9
f 9 15 10
f 10 15 18
f 10 18 16
f 12 16 18
f 12 18 19
f 12 19 17
f 13 20 14
f 14 20 21
f 17 19 22
f 18 23 26
f 18 26 22
f 18 22 19
f 20 24 25
f 20 25 21
f 23 27 28
f 23 28 29
f 23 29 30
f 23 30 31
f 23 31 26
f 24 29 32
f 24 32 25
f 25 32 28
f 25 28 27
f 26 31 33
f 28 32 29
f 30 33 31

