# https://github.com/mikedh/trimesh
v -0.02206617 0.01700458 0.02330957
v -0.02209749 0.01700458 0.02392986
v -0.02215271 0.01494511 0.02422670
v -0.02206617 0.01700458 0.02083027
v -0.02213678 0.01700458 0.02422670
v -0.02477787 0.01494511 0.02422670
v -0.02215271 0.01494511 0.02083027
v -0.02215430 0.01494511 0.02021044
v -0.02206723 0.01700458 0.02069632
v -0.02477787 0.01700458 0.02422670
v -0.02477787 0.01494511 0.02199757
v -0.02208688 0.01700458 0.02021044
v -0.02245985 0.01494511 0.01967977
v -0.02477787 0.01700458 0.01946040
v -0.02477787 0.01561601 0.02021044
v -0.02419305 0.01494511 0.01997474
v -0.02239136 0.01700458 0.01970964
v -0.02283123 0.01494511 0.01954628
v -0.02307360 0.01519005 0.01945900
v -0.02245985 0.01642984 0.01967977
v -0.02239428 0.01700377 0.01970497
v -0.02426791 0.01700458 0.01946133
v -0.02307360 0.01642984 0.01945900
v -0.02369345 0.01642984 0.01945900
v -0.02369345 0.01581015 0.01945900
v -0.02477787 0.01689451 0.01946273
v -0.02477787 0.01573334 0.01994254
v -0.02411474 0.01494511 0.01977638
v -0.02239481 0.01700458 0.01970497
v -0.02307360 0.01494511 0.01946460
v -0.02302873 0.01700458 0.01948047
v -0.02364806 0.01700458 0.01946273
v -0.02307360 0.01700458 0.01946460
v -0.02477787 0.01686044 0.01946413
v -0.02477787 0.01587203 0.01969143
v -0.02400112 0.01494511 0.01970730
v -0.02344870 0.01494511 0.01949120
v -0.02477787 0.01642984 0.01948420
v -0.02477787 0.01624821 0.01953088
v -0.02370142 0.01494511 0.01957382
f 1 2 3
f 1 3 7
f 1 7 4
f 1 4 9
f 1 9 12
f 1 12 17
f 1 17 29
f 1 29 31
f 1 31 33
f 1 33 32
f 1 32 22
f 1 22 14
f 1 14 10
f 1 10 5
f 1 5 2
f 2 5 3
f 3 5 10
f 3 10 6
f 3 6 11
f 3 11 16
f 3 16 28
f 3 28 36
f 3 36 40
f 3 40 37
f 3 37 30
f 3 30 18
f 3 18 13
f 3 13 8
f 3 8 7
f 4 7 8
f 4 8 9
f 6 10 14
f 6 14 26
f 6 26 34
f 6 34 38
f 6 38 39
f 6 39 35
f 6 35 27
f 6 27 15
f 6 15 11
f 8 12 9
f 8 13 12
f 11 15 16
f 12 13 17
f 13 18 19
f 13 19 23
f 13 23 20
f 13 20 21
f 13 21 17
f 14 22 23
f 14 23 24
f 14 24 25
f 14 25 26
f 15 27 16
f 16 27 28
f 17 21 29
f 18 30 19
f 19 30 25
f 19 25 24
f 19 24 23
f 20 23 21
f 21 23 31
f 21 31 29
f 22 32 23
f 23 32 33
f 23 33 31
f 25 30 26
f 26 30 34
f 27 35 28
f 28 35 36
f 30 37 38
f 30 38 34
f 35 39 36
f 36 39 40
f 37 39 38
f 37 40 39

