# https://github.com/mikedh/trimesh
v -0.02179126 0.01398609 0.03243510
v -0.02179126 0.01209017 0.03243510
v -0.02213837 0.01398609 0.03174897
v -0.02506755 0.01398609 0.03243510
v -0.02179163 0.01147027 0.03243510
v -0.02213837 0.01147027 0.03174897
v -0.02506755 0.01398609 0.03174897
v -0.02564118 0.01335447 0.03243510
v -0.02189415 0.01082233 0.03243510
v -0.02219641 0.01083156 0.03174897
v -0.02217757 0.01103855 0.03174897
v -0.02564118 0.01335447 0.03174897
v -0.02564118 0.01035936 0.03243510
v -0.02209541 0.01056350 0.03243510
v -0.02251112 0.01044953 0.03174897
v -0.02564118 0.01035936 0.03174897
v -0.02307381 0.01035936 0.03243510
v -0.02243498 0.01043817 0.03243510
v -0.02256614 0.01041687 0.03243510
v -0.02272896 0.01041439 0.03174897
v -0.02307381 0.01035936 0.03174897
f 1 2 6
f 1 6 3
f 1 3 7
f 1 7 4
f 1 4 8
f 1 8 13
f 1 13 17
f 1 17 19
f 1 19 18
f 1 18 14
f 1 14 9
f 1 9 5
f 1 5 2
f 2 5 6
f 3 6 11
f 3 11 10
f 3 10 15
f 3 15 20
f 3 20 21
f 3 21 16
f 3 16 12
f 3 12 7
f 4 7 12
f 4 12 8
f 5 9 10
f 5 10 11
f 5 11 6
f 8 12 16
f 8 16 13
f 9 14 10
f 10 14 15
f 13 16 21
f 13 21 17
f 14 18 15
f 15 18 19
f 15 19 20
f 17 21 19
f 19 21 20

