# https://github.com/mikedh/trimesh
v -0.02943459 -0.01662655 0.02559342
v -0.02943116 -0.01724657 0.02559342
v -0.02943459 -0.01643036 0.02654282
v -0.02943459 -0.01403709 0.02559342
v -0.02941443 -0.01766994 0.02559342
v -0.02941709 -0.01691708 0.02654282
v -0.02943459 -0.01403709 0.02654282
v -0.02650213 -0.01403709 0.02559342
v -0.02940530 -0.01766994 0.02579009
v -0.02940986 -0.01704991 0.02654282
v -0.02939921 -0.01786660 0.02559342
v -0.02650213 -0.01403709 0.02654282
v -0.02554848 -0.01463740 0.02559342
v -0.02936269 -0.01828996 0.02559342
v -0.02935166 -0.01828996 0.02579009
v -0.02925124 -0.01753148 0.02654282
v -0.02907512 -0.01867014 0.02617041
v -0.02555380 -0.01464069 0.02654282
v -0.02554848 -0.01463740 0.02654115
v -0.02554848 -0.01469138 0.02559342
v -0.02914359 -0.01871520 0.02559342
v -0.02914054 -0.01871286 0.02579009
v -0.02919912 -0.01763286 0.02654282
v -0.02865326 -0.01882597 0.02579009
v -0.02865326 -0.01870535 0.02620563
v -0.02865326 -0.01784736 0.02654282
v -0.02554848 -0.01465336 0.02654282
v -0.02554848 -0.01883160 0.02559500
v -0.02555380 -0.01883207 0.02559342
v -0.02865326 -0.01883066 0.02559342
v -0.02617385 -0.01883207 0.02559342
v -0.02554848 -0.01882597 0.02579009
v -0.02554848 -0.01882503 0.02579343
v -0.02554848 -0.01870535 0.02620563
v -0.02803322 -0.01785534 0.02654282
v -0.02554848 -0.01785534 0.02654282
f 1 2 3
f 1 3 7
f 1 7 4
f 1 4 8
f 1 8 13
f 1 13 20
f 1 20 29
f 1 29 31
f 1 31 30
f 1 30 21
f 1 21 14
f 1 14 11
f 1 11 5
f 1 5 2
f 2 5 6
f 2 6 3
f 3 6 10
f 3 10 16
f 3 16 23
f 3 23 26
f 3 26 35
f 3 35 36
f 3 36 27
f 3 27 18
f 3 18 12
f 3 12 7
f 4 7 12
f 4 12 8
f 5 9 10
f 5 10 6
f 5 11 9
f 8 12 19
f 8 19 13
f 9 11 14
f 9 14 15
f 9 15 10
f 10 15 17
f 10 17 16
f 12 18 19
f 13 19 27
f 13 27 36
f 13 36 34
f 13 34 33
f 13 33 32
f 13 32 28
f 13 28 20
f 14 21 22
f 14 22 15
f 15 22 17
f 16 17 23
f 17 22 24
f 17 24 25
f 17 25 26
f 17 26 23
f 18 27 19
f 20 28 29
f 21 30 22
f 22 30 24
f 24 30 31
f 24 31 29
f 24 29 32
f 24 32 33
f 24 33 25
f 25 33 34
f 25 34 36
f 25 36 35
f 25 35 26
f 28 32 29

