# https://github.com/mikedh/trimesh
v -0.02577895 -0.01556631 0.02439559
v -0.02943423 -0.01556631 0.02439559
v -0.02577895 -0.01676358 0.02439559
v -0.02577895 -0.01556631 0.02193188
v -0.02943423 -0.01676358 0.02439559
v -0.02943423 -0.01556631 0.02083003
v -0.02577895 -0.01676358 0.01947350
v -0.02577895 -0.01582965 0.02021048
v -0.02699738 -0.01556631 0.01981614
v -0.02943423 -0.01676358 0.02083003
v -0.02943208 -0.01556631 0.02045405
v -0.02943244 -0.01676358 0.02049658
v -0.02708004 -0.01676358 0.01946287
v -0.02803331 -0.01581008 0.01945948
v -0.02827699 -0.01556631 0.01945948
v -0.02803331 -0.01556631 0.01946577
v -0.02577895 -0.01642992 0.01949041
v -0.02577895 -0.01592176 0.01989249
v -0.02707717 -0.01556631 0.01971513
v -0.02943065 -0.01556631 0.02021048
v -0.02943065 -0.01676358 0.02021048
v -0.02769980 -0.01676358 0.01945948
v -0.02865343 -0.01556631 0.01945948
v -0.02765722 -0.01556631 0.01951844
v -0.02577895 -0.01626409 0.01957064
v -0.02577895 -0.01597485 0.01971078
v -0.02930398 -0.01676358 0.01992487
v -0.02919520 -0.01556631 0.01967985
v -0.02865343 -0.01676358 0.01945948
v -0.02890356 -0.01676358 0.01956097
v -0.02886635 -0.01556631 0.01954599
v -0.02919520 -0.01676358 0.01967985
f 1 2 5
f 1 5 3
f 1 3 7
f 1 7 17
f 1 17 25
f 1 25 26
f 1 26 18
f 1 18 8
f 1 8 4
f 1 4 9
f 1 9 19
f 1 19 24
f 1 24 16
f 1 16 15
f 1 15 23
f 1 23 31
f 1 31 28
f 1 28 20
f 1 20 11
f 1 11 6
f 1 6 2
f 2 6 10
f 2 10 5
f 3 5 10
f 3 10 12
f 3 12 21
f 3 21 27
f 3 27 32
f 3 32 30
f 3 30 29
f 3 29 22
f 3 22 13
f 3 13 7
f 4 8 9
f 6 11 12
f 6 12 10
f 7 13 14
f 7 14 15
f 7 15 16
f 7 16 17
f 8 18 19
f 8 19 9
f 11 20 12
f 12 20 21
f 13 22 14
f 14 22 29
f 14 29 23
f 14 23 15
f 16 24 17
f 17 24 25
f 18 26 19
f 19 26 24
f 20 27 21
f 20 28 27
f 23 30 31
f 23 29 30
f 24 26 25
f 27 28 32
f 28 31 30
f 28 30 32

