# https://github.com/mikedh/trimesh
v -0.02567269 0.01217565 0.02422670
v -0.02943422 0.01217565 0.02422670
v -0.02567269 0.00940174 0.02422670
v -0.02567269 0.01217565 0.02145756
v -0.02943422 0.00940174 0.02422670
v -0.02943422 0.01217565 0.02083027
v -0.02567269 0.00940174 0.01945900
v -0.02567269 0.01216751 0.02083027
v -0.02625009 0.01217565 0.02021044
v -0.02943422 0.00940174 0.02083027
v -0.02943127 0.01217565 0.02029586
v -0.02943312 0.00940174 0.02062210
v -0.02865356 0.00940174 0.01945900
v -0.02567269 0.01084979 0.01945900
v -0.02567269 0.01215692 0.02021044
v -0.02689008 0.01217565 0.01969283
v -0.02943054 0.01217565 0.02021044
v -0.02943054 0.00940174 0.02021044
v -0.02865356 0.01217565 0.01945900
v -0.02901333 0.00940174 0.01960555
v -0.02567269 0.01146995 0.01947720
v -0.02811888 0.01217565 0.01945900
v -0.02567269 0.01200025 0.01979598
v -0.02567269 0.01196305 0.01969797
v -0.02749951 0.01217565 0.01951127
v -0.02919524 0.01217565 0.01967977
v -0.02919524 0.00940174 0.01967977
v -0.02803345 0.01217565 0.01946040
f 1 2 5
f 1 5 3
f 1 3 7
f 1 7 14
f 1 14 21
f 1 21 24
f 1 24 23
f 1 23 15
f 1 15 8
f 1 8 4
f 1 4 9
f 1 9 16
f 1 16 25
f 1 25 28
f 1 28 22
f 1 22 19
f 1 19 26
f 1 26 17
f 1 17 11
f 1 11 6
f 1 6 2
f 2 6 10
f 2 10 5
f 3 5 10
f 3 10 12
f 3 12 18
f 3 18 27
f 3 27 20
f 3 20 13
f 3 13 7
f 4 8 9
f 6 11 12
f 6 12 10
f 7 13 19
f 7 19 22
f 7 22 14
f 8 15 9
f 9 15 16
f 11 17 18
f 11 18 12
f 13 20 19
f 14 22 21
f 15 23 16
f 16 23 24
f 16 24 25
f 17 26 27
f 17 27 18
f 19 20 26
f 20 27 26
f 21 22 28
f 21 28 25
f 21 25 24

