# https://github.com/mikedh/trimesh
v -0.01838613 -0.00003251 0.02437665
v -0.01872583 -0.00003251 0.02464431
v -0.01918081 0.00117393 0.02431012
v -0.01918081 0.00129219 0.02424484
v -0.01838613 0.00129219 0.02385283
v -0.01838613 -0.00003251 0.02702840
v -0.01886896 -0.00003251 0.02517031
v -0.01918081 0.00079206 0.02463592
v -0.01918081 0.00129219 0.02702840
v -0.01838613 0.00129219 0.02702840
v -0.01886896 -0.00003251 0.02702840
v -0.01918081 0.00061999 0.02533010
v -0.01918081 0.00062478 0.02517031
v -0.01918081 0.00064216 0.02494803
v -0.01918081 0.00060974 0.02592884
v -0.01918081 0.00060987 0.02578988
v -0.01918081 0.00060974 0.02702840
f 1 2 3
f 1 3 4
f 1 4 5
f 1 5 10
f 1 10 6
f 1 6 11
f 1 11 7
f 1 7 2
f 2 7 8
f 2 8 3
f 3 8 14
f 3 14 13
f 3 13 12
f 3 12 16
f 3 16 15
f 3 15 17
f 3 17 9
f 3 9 4
f 4 9 10
f 4 10 5
f 6 10 9
f 6 9 17
f 6 17 11
f 7 12 13
f 7 13 14
f 7 14 8
f 7 11 17
f 7 17 15
f 7 15 16
f 7 16 12

