# https://github.com/mikedh/trimesh
v -0.02557244 -0.01334506 0.03265526
v -0.02557244 -0.01334506 0.03508981
v -0.02557244 -0.01035935 0.03265526
v -0.02506190 -0.01395550 0.03265526
v -0.02557244 -0.01333590 0.03571035
v -0.02506190 -0.01395550 0.03447035
v -0.02506127 -0.01395550 0.03508981
v -0.02557244 -0.01035935 0.03510857
v -0.02307308 -0.01035935 0.03265526
v -0.02101187 -0.01395550 0.03265526
v -0.02557244 -0.01317889 0.03614077
v -0.02504476 -0.01395550 0.03570999
v -0.02557244 -0.01035970 0.03570999
v -0.01908528 -0.01035935 0.03544157
v -0.01908528 -0.01035935 0.03385016
v -0.01908528 -0.01036252 0.03358174
v -0.01908528 -0.01036674 0.03323034
v -0.01908528 -0.01040582 0.03305572
v -0.01908528 -0.01045722 0.03282699
v -0.02213265 -0.01044560 0.03265526
v -0.02101187 -0.01147006 0.03265526
v -0.01908528 -0.01395550 0.03265922
v -0.02557244 -0.01317220 0.03615267
v -0.02482632 -0.01395550 0.03618045
v -0.02557244 -0.01045018 0.03613175
v -0.01908528 -0.01035970 0.03570999
v -0.01908528 -0.01062726 0.03277034
v -0.01908528 -0.01085010 0.03269638
v -0.01908528 -0.01147006 0.03265922
v -0.02184563 -0.01058079 0.03265526
v -0.02132937 -0.01084518 0.03265526
v -0.01908528 -0.01395550 0.03634100
v -0.02557244 -0.01272510 0.03630817
v -0.02431895 -0.01395550 0.03633956
v -0.02557244 -0.01270996 0.03631322
v -0.02557244 -0.01085010 0.03629229
v -0.01908528 -0.01045018 0.03613175
v -0.02431324 -0.01395550 0.03634100
v -0.01908528 -0.01147006 0.03634100
v -0.02557244 -0.01209001 0.03634100
v -0.02557244 -0.01147006 0.03634100
v -0.01908528 -0.01085010 0.03629229
f 1 2 5
f 1 5 11
f 1 11 23
f 1 23 33
f 1 33 35
f 1 35 40
f 1 40 41
f 1 41 36
f 1 36 25
f 1 25 13
f 1 13 8
f 1 8 3
f 1 3 9
f 1 9 20
f 1 20 30
f 1 30 31
f 1 31 21
f 1 21 10
f 1 10 4
f 1 4 6
f 1 6 2
f 2 6 7
f 2 7 5
f 3 8 14
f 3 14 15
f 3 15 9
f 4 10 22
f 4 22 32
f 4 32 38
f 4 38 34
f 4 34 24
f 4 24 12
f 4 12 7
f 4 7 6
f 5 7 12
f 5 12 11
f 8 13 14
f 9 15 16
f 9 16 17
f 9 17 18
f 9 18 19
f 9 19 20
f 10 21 29
f 10 29 22
f 11 12 24
f 11 24 23
f 13 25 37
f 13 37 26
f 13 26 14
f 14 26 37
f 14 37 42
f 14 42 39
f 14 39 32
f 14 32 22
f 14 22 29
f 14 29 28
f 14 28 27
f 14 27 19
f 14 19 18
f 14 18 17
f 14 17 16
f 14 16 15
f 19 27 20
f 20 27 28
f 20 28 29
f 20 29 30
f 21 31 29
f 23 24 33
f 24 34 35
f 24 35 33
f 25 36 42
f 25 42 37
f 29 31 30
f 32 39 41
f 32 41 40
f 32 40 38
f 34 38 35
f 35 38 40
f 36 41 39
f 36 39 42

