# https://github.com/mikedh/trimesh
v -0.02307381 0.01764064 0.03243510
v -0.02243725 0.01753975 0.03243510
v -0.02307381 0.01764064 0.03174897
v -0.02564118 0.01764064 0.03243510
v -0.02242669 0.01748501 0.03174897
v -0.02283863 0.01758626 0.03174897
v -0.02201098 0.01741597 0.03243510
v -0.02564118 0.01764064 0.03174897
v -0.02564118 0.01462863 0.03243510
v -0.02215458 0.01704997 0.03174897
v -0.02185571 0.01710400 0.03243510
v -0.02564118 0.01462863 0.03174897
v -0.02506755 0.01398609 0.03243510
v -0.02183196 0.01704997 0.03243510
v -0.02179163 0.01642997 0.03243510
v -0.02213837 0.01642997 0.03174897
v -0.02506755 0.01398609 0.03174897
v -0.02179126 0.01398609 0.03243510
v -0.02179126 0.01581032 0.03243510
v -0.02213837 0.01398609 0.03174897
f 1 2 3
f 1 3 8
f 1 8 4
f 1 4 9
f 1 9 13
f 1 13 18
f 1 18 19
f 1 19 15
f 1 15 14
f 1 14 11
f 1 11 7
f 1 7 2
f 2 5 6
f 2 6 3
f 2 7 5
f 3 6 5
f 3 5 10
f 3 10 16
f 3 16 20
f 3 20 17
f 3 17 12
f 3 12 8
f 4 8 12
f 4 12 9
f 5 7 10
f 7 11 10
f 9 12 17
f 9 17 13
f 10 11 14
f 10 14 15
f 10 15 16
f 13 17 20
f 13 20 18
f 15 19 16
f 16 19 18
f 16 18 20

