# https://github.com/mikedh/trimesh
v -0.02943423 -0.01556631 0.02174184
v -0.02943423 -0.01556631 0.02439581
v -0.02943423 -0.01395676 0.02174184
v -0.02670323 -0.01556631 0.02174184
v -0.02943423 -0.01395676 0.02439581
v -0.02577895 -0.01556631 0.02439581
v -0.02741712 -0.01395676 0.02174184
v -0.02577895 -0.01556631 0.02193228
v -0.02649068 -0.01395676 0.02439581
v -0.02577895 -0.01460972 0.02439581
v -0.02682705 -0.01395676 0.02221547
v -0.02577895 -0.01476020 0.02228329
v -0.02649068 -0.01395676 0.02392997
v -0.02577895 -0.01460972 0.02330980
v -0.02652110 -0.01395676 0.02267378
v -0.02577895 -0.01470127 0.02243398
v -0.02649104 -0.01395676 0.02330980
v -0.02577895 -0.01462501 0.02269015
f 1 2 5
f 1 5 3
f 1 3 7
f 1 7 4
f 1 4 8
f 1 8 6
f 1 6 2
f 2 6 10
f 2 10 9
f 2 9 5
f 3 5 9
f 3 9 13
f 3 13 17
f 3 17 15
f 3 15 11
f 3 11 7
f 4 7 8
f 6 8 12
f 6 12 16
f 6 16 18
f 6 18 14
f 6 14 10
f 7 11 12
f 7 12 8
f 9 10 14
f 9 14 13
f 11 15 12
f 12 15 16
f 13 14 17
f 14 18 17
f 15 17 18
f 15 18 16

