# https://github.com/mikedh/trimesh
v -0.02475238 -0.01556631 0.02156382
v -0.02487342 -0.01556631 0.02156881
v -0.02392069 -0.01395676 0.02156382
v -0.02215294 -0.01556631 0.02156382
v -0.02577895 -0.01556631 0.02193227
v -0.02215294 -0.01395676 0.02156382
v -0.02577895 -0.01476020 0.02228325
v -0.02482621 -0.01395676 0.02221810
v -0.02215294 -0.01556631 0.02439607
v -0.02577895 -0.01556631 0.02439607
v -0.02215294 -0.01395676 0.02439607
v -0.02577895 -0.01470127 0.02243407
v -0.02504487 -0.01395676 0.02269023
v -0.02504239 -0.01395676 0.02268469
v -0.02577895 -0.01460972 0.02439607
v -0.02506191 -0.01395676 0.02439607
v -0.02577895 -0.01462501 0.02269023
v -0.02506191 -0.01395676 0.02330986
v -0.02577895 -0.01460972 0.02330986
f 1 2 3
f 1 3 6
f 1 6 4
f 1 4 9
f 1 9 10
f 1 10 5
f 1 5 2
f 2 5 3
f 3 5 7
f 3 7 8
f 3 8 14
f 3 14 13
f 3 13 18
f 3 18 16
f 3 16 11
f 3 11 6
f 4 6 11
f 4 11 9
f 5 10 15
f 5 15 19
f 5 19 17
f 5 17 12
f 5 12 7
f 7 12 13
f 7 13 14
f 7 14 8
f 9 11 16
f 9 16 15
f 9 15 10
f 12 17 13
f 13 17 18
f 15 16 18
f 15 18 19
f 17 19 18

