# https://github.com/mikedh/trimesh
v -0.02550573 0.00940174 0.02516996
v -0.02398115 0.00940174 0.02516996
v -0.02550573 0.00940174 0.02634879
v -0.02550573 0.01326551 0.02516996
v -0.02364841 0.00940218 0.02516996
v -0.02364841 0.00940174 0.02517010
v -0.02431369 0.00940174 0.02634879
v -0.02550573 0.01011281 0.02655388
v -0.02550573 0.01336860 0.02517010
v -0.02507295 0.01390213 0.02516996
v -0.02350988 0.01006611 0.02516996
v -0.02350988 0.01006611 0.02517308
v -0.02350988 0.01007757 0.02579012
v -0.02350988 0.01007889 0.02581613
v -0.02350988 0.01020577 0.02655388
v -0.02365896 0.00940174 0.02537831
v -0.02429904 0.01011281 0.02655388
v -0.02385825 0.00940174 0.02622443
v -0.02354525 0.01019520 0.02655388
v -0.02550573 0.01336860 0.02655388
v -0.02507295 0.01390213 0.02655388
v -0.02350988 0.01390213 0.02516996
v -0.02350988 0.01390213 0.02655388
v -0.02373965 0.00940174 0.02593453
v -0.02368065 0.00940174 0.02579012
f 1 2 6
f 1 6 16
f 1 16 25
f 1 25 24
f 1 24 18
f 1 18 7
f 1 7 3
f 1 3 8
f 1 8 20
f 1 20 9
f 1 9 4
f 1 4 10
f 1 10 22
f 1 22 11
f 1 11 5
f 1 5 2
f 2 5 6
f 3 7 17
f 3 17 8
f 4 9 10
f 5 11 6
f 6 11 12
f 6 12 13
f 6 13 14
f 6 14 15
f 6 15 16
f 7 18 15
f 7 15 19
f 7 19 17
f 8 17 19
f 8 19 15
f 8 15 23
f 8 23 21
f 8 21 20
f 9 20 21
f 9 21 10
f 10 21 23
f 10 23 22
f 11 22 23
f 11 23 15
f 11 15 14
f 11 14 13
f 11 13 12
f 15 18 24
f 15 24 25
f 15 25 16

