# https://github.com/mikedh/trimesh
v -0.02699939 0.01700458 0.02422670
v -0.02943435 0.01700458 0.02422670
v -0.02699939 0.01494511 0.02422670
v -0.02699939 0.01700458 0.01946087
v -0.02943435 0.01494511 0.02422670
v -0.02943435 0.01700458 0.02083027
v -0.02699939 0.01494511 0.02194390
v -0.02699939 0.01642984 0.01947674
v -0.02865345 0.01494511 0.01945900
v -0.02803368 0.01581015 0.01945900
v -0.02741368 0.01700458 0.01945993
v -0.02943435 0.01494511 0.02083027
v -0.02943411 0.01700458 0.02078500
v -0.02735480 0.01494511 0.02021044
v -0.02699939 0.01556319 0.01981745
v -0.02803368 0.01519005 0.01947627
v -0.02699939 0.01581176 0.01966856
v -0.02801390 0.01494511 0.01953928
v -0.02865345 0.01700458 0.01945900
v -0.02898121 0.01494511 0.01959249
v -0.02915546 0.01700458 0.01966343
v -0.02803368 0.01700458 0.01945900
v -0.02943077 0.01494511 0.02021044
v -0.02943077 0.01700458 0.02021044
v -0.02751999 0.01494511 0.01974604
v -0.02919526 0.01494511 0.01967977
v -0.02919526 0.01700458 0.01967977
f 1 2 5
f 1 5 3
f 1 3 7
f 1 7 15
f 1 15 17
f 1 17 8
f 1 8 4
f 1 4 11
f 1 11 22
f 1 22 19
f 1 19 21
f 1 21 27
f 1 27 24
f 1 24 13
f 1 13 6
f 1 6 2
f 2 6 12
f 2 12 5
f 3 5 12
f 3 12 23
f 3 23 26
f 3 26 20
f 3 20 9
f 3 9 18
f 3 18 25
f 3 25 14
f 3 14 7
f 4 8 9
f 4 9 10
f 4 10 11
f 6 13 12
f 7 14 15
f 8 16 9
f 8 17 18
f 8 18 16
f 9 19 22
f 9 22 10
f 9 16 18
f 9 20 21
f 9 21 19
f 10 22 11
f 12 13 23
f 13 24 23
f 14 25 15
f 15 25 17
f 17 25 18
f 20 26 21
f 21 26 27
f 23 24 27
f 23 27 26

