# https://github.com/mikedh/trimesh
v -0.02477813 0.01554199 0.02149518
v -0.02477813 0.01557521 0.02159663
v -0.02569113 0.01575246 0.02159663
v -0.02569113 0.01583021 0.02021004
v -0.02477813 0.01561601 0.02021004
v -0.02477813 0.01700458 0.02159663
v -0.02569113 0.01700458 0.02159663
v -0.02569113 0.01597511 0.01971055
v -0.02477813 0.01573342 0.01994231
v -0.02477813 0.01700458 0.01946038
v -0.02569113 0.01700458 0.01946143
v -0.02477813 0.01587202 0.01969130
v -0.02569113 0.01643000 0.01949008
v -0.02477813 0.01689447 0.01946247
v -0.02488824 0.01700458 0.01945996
v -0.02477813 0.01686040 0.01946394
v -0.02477813 0.01643000 0.01948381
v -0.02569113 0.01656759 0.01948318
v -0.02477813 0.01624844 0.01953087
f 1 2 3
f 1 3 4
f 1 4 5
f 1 5 9
f 1 9 12
f 1 12 19
f 1 19 17
f 1 17 16
f 1 16 14
f 1 14 10
f 1 10 6
f 1 6 2
f 2 6 7
f 2 7 3
f 3 7 11
f 3 11 18
f 3 18 13
f 3 13 8
f 3 8 4
f 4 8 5
f 5 8 9
f 6 10 15
f 6 15 11
f 6 11 7
f 8 12 9
f 8 13 12
f 10 14 15
f 11 15 14
f 11 14 16
f 11 16 17
f 11 17 18
f 12 13 19
f 13 18 17
f 13 17 19

