# https://github.com/mikedh/trimesh
v -0.02049392 0.01035916 0.03385064
v -0.01501738 0.01032401 0.03384666
v -0.01501738 0.01032329 0.03446708
v -0.02049392 0.01035916 0.03518915
v -0.02049392 0.01036562 0.03333007
v -0.02049392 0.01036777 0.03323023
v -0.01501738 0.01033836 0.03323023
v -0.01501738 0.01032329 0.03508967
v -0.02049392 0.01036777 0.03574337
v -0.01501738 0.01033190 0.03570972
v -0.02049392 0.01045746 0.03282723
v -0.01501738 0.01044813 0.03282687
v -0.01501738 0.01043952 0.03613153
v -0.02049392 0.01048329 0.03614456
v -0.02049392 0.01085064 0.03269663
v -0.01501738 0.01085064 0.03269446
v -0.01501738 0.01084921 0.03629396
v -0.02049392 0.01085064 0.03629215
v -0.02049392 0.01137225 0.03266516
v -0.01501738 0.01147127 0.03265503
v -0.01501738 0.01146983 0.03634786
v -0.02049392 0.01147199 0.03634099
v -0.02049392 0.01147199 0.03265937
v -0.01501738 0.01581350 0.03265503
v -0.01501738 0.01208759 0.03635076
v -0.02049392 0.01642982 0.03634099
v -0.02049392 0.01642982 0.03265937
v -0.01502167 0.01643054 0.03265539
v -0.01501738 0.01705045 0.03266444
v -0.01501738 0.01642982 0.03635076
v -0.02049392 0.01704829 0.03632905
v -0.02049392 0.01695000 0.03266480
v -0.02049392 0.01704829 0.03266588
v -0.02049392 0.01745224 0.03278599
v -0.01501738 0.01748740 0.03279648
v -0.01501738 0.01704829 0.03633810
v -0.01501738 0.01750390 0.03617313
v -0.02049392 0.01750964 0.03613153
v -0.02049392 0.01762802 0.03323023
v -0.01501738 0.01763305 0.03323023
v -0.01501738 0.01765098 0.03571081
v -0.02049392 0.01763950 0.03570972
v -0.02049392 0.01764094 0.03385064
v -0.01501738 0.01765170 0.03385064
v -0.01501738 0.01765314 0.03508967
v -0.02049392 0.01764094 0.03508967
v -0.01501738 0.01765314 0.03447034
f 1 2 3
f 1 3 8
f 1 8 4
f 1 4 9
f 1 9 14
f 1 14 18
f 1 18 22
f 1 22 26
f 1 26 31
f 1 31 38
f 1 38 42
f 1 42 46
f 1 46 43
f 1 43 39
f 1 39 34
f 1 34 33
f 1 33 32
f 1 32 27
f 1 27 23
f 1 23 19
f 1 19 15
f 1 15 11
f 1 11 6
f 1 6 5
f 1 5 2
f 2 5 6
f 2 6 7
f 2 7 12
f 2 12 16
f 2 16 20
f 2 20 24
f 2 24 29
f 2 29 35
f 2 35 40
f 2 40 44
f 2 44 47
f 2 47 45
f 2 45 41
f 2 41 37
f 2 37 36
f 2 36 30
f 2 30 25
f 2 25 21
f 2 21 17
f 2 17 13
f 2 13 10
f 2 10 8
f 2 8 3
f 4 8 10
f 4 10 9
f 6 11 7
f 7 11 12
f 9 10 13
f 9 13 14
f 11 15 12
f 12 15 16
f 13 17 18
f 13 18 14
f 15 19 20
f 15 20 16
f 17 21 18
f 18 21 22
f 19 23 20
f 20 23 27
f 20 27 24
f 21 25 22
f 22 25 30
f 22 30 26
f 24 27 28
f 24 28 29
f 26 30 31
f 27 32 28
f 28 32 33
f 28 33 29
f 29 33 34
f 29 34 35
f 30 36 31
f 31 36 37
f 31 37 38
f 34 39 35
f 35 39 40
f 37 41 38
f 38 41 42
f 39 43 44
f 39 44 40
f 41 45 42
f 42 45 46
f 43 46 45
f 43 45 47
f 43 47 44

