# https://github.com/mikedh/trimesh
v -0.01935349 -0.00482718 0.02393040
v -0.01940001 -0.00482517 0.02390721
v -0.01937675 -0.00481679 0.02330047
v -0.01873349 -0.00476650 0.02331053
v -0.01873349 -0.00476851 0.02393040
v -0.01873349 -0.00476851 0.02516969
v -0.01937675 -0.00482618 0.02516969
v -0.01940001 -0.00455730 0.02277204
v -0.01940001 -0.00477823 0.02576636
v -0.01935349 -0.00457842 0.02278035
v -0.01873349 -0.00455193 0.02278604
v -0.01811363 -0.00462602 0.02331053
v -0.01811363 -0.00448287 0.02282278
v -0.01799374 -0.00446242 0.02284422
v -0.01811363 -0.00462602 0.02516969
v -0.01811363 -0.00460256 0.02578955
v -0.01873349 -0.00472627 0.02578955
v -0.01935349 -0.00477823 0.02578955
v -0.01940001 -0.00398299 0.02255900
v -0.01937675 -0.00402959 0.02255944
v -0.01937675 -0.00453416 0.02622000
v -0.01940001 -0.00259064 0.02702752
v -0.01873349 -0.00402959 0.02256556
v -0.01811363 -0.00402959 0.02260231
v -0.01799374 -0.00458311 0.02331053
v -0.01799374 -0.00403764 0.02263293
v -0.01799374 -0.00458311 0.02516969
v -0.01799374 -0.00458076 0.02531317
v -0.01799374 -0.00456266 0.02578955
v -0.01799374 -0.00454590 0.02588929
v -0.01799374 -0.00444196 0.02619025
v -0.01811363 -0.00445940 0.02620294
v -0.01873349 -0.00451203 0.02622000
v -0.01799374 -0.00340935 0.02255900
v -0.01940001 -0.00279045 0.02255900
v -0.01937675 -0.00282733 0.02702752
v -0.01799374 -0.00140213 0.02702752
v -0.01939946 -0.00140213 0.02702359
v -0.01940001 -0.00140213 0.02412856
v -0.01799374 -0.00239518 0.02702752
v -0.01827634 -0.00256717 0.02702752
v -0.01873349 -0.00273346 0.02702752
v -0.01799374 -0.00279045 0.02255900
v -0.01940001 -0.00215815 0.02276066
v -0.01799374 -0.00157445 0.02277291
v -0.01799374 -0.00217022 0.02262374
v -0.01801480 -0.00140213 0.02283065
v -0.01940001 -0.00184702 0.02297326
f 1 2 3
f 1 3 4
f 1 4 5
f 1 5 6
f 1 6 7
f 1 7 2
f 2 8 3
f 2 7 9
f 2 9 22
f 2 22 39
f 2 39 48
f 2 48 44
f 2 44 35
f 2 35 19
f 2 19 8
f 3 10 11
f 3 11 4
f 3 8 10
f 4 12 5
f 4 11 13
f 4 13 14
f 4 14 12
f 5 12 15
f 5 15 6
f 6 15 16
f 6 16 17
f 6 17 7
f 7 17 18
f 7 18 9
f 8 19 20
f 8 20 10
f 9 18 21
f 9 21 22
f 10 20 23
f 10 23 11
f 11 23 24
f 11 24 13
f 12 14 25
f 12 25 27
f 12 27 15
f 13 24 26
f 13 26 14
f 14 26 34
f 14 34 43
f 14 43 46
f 14 46 45
f 14 45 37
f 14 37 40
f 14 40 31
f 14 31 30
f 14 30 29
f 14 29 28
f 14 28 27
f 14 27 25
f 15 27 28
f 15 28 16
f 16 29 30
f 16 30 17
f 16 28 29
f 17 30 31
f 17 31 32
f 17 32 33
f 17 33 18
f 18 33 21
f 19 34 20
f 19 35 43
f 19 43 34
f 20 34 23
f 21 33 36
f 21 36 22
f 22 36 42
f 22 42 41
f 22 41 40
f 22 40 37
f 22 37 38
f 22 38 39
f 23 34 24
f 24 34 26
f 31 40 41
f 31 41 32
f 32 41 42
f 32 42 36
f 32 36 33
f 35 44 45
f 35 45 46
f 35 46 43
f 37 45 47
f 37 47 39
f 37 39 38
f 39 47 48
f 44 48 47
f 44 47 45

