# https://github.com/mikedh/trimesh
v -0.02506098 -0.01395102 0.02702673
v -0.02575531 -0.01337001 0.02702904
v -0.02555668 -0.01334303 0.02702673
v -0.02215266 -0.01395102 0.02702673
v -0.02506098 -0.01395102 0.03174897
v -0.02575531 -0.01236486 0.02702673
v -0.02575531 -0.01337001 0.03174897
v -0.02215266 -0.01147009 0.02702673
v -0.02213814 -0.01395102 0.03174897
v -0.02575531 -0.01032581 0.02702812
v -0.02555349 -0.01032510 0.02702673
v -0.02575531 -0.01035918 0.03174897
v -0.02220860 -0.01085004 0.02702673
v -0.02213850 -0.01147009 0.03174897
v -0.02213814 -0.01209015 0.03174897
v -0.02431354 -0.01032510 0.02702673
v -0.02307359 -0.01035918 0.03174897
v -0.02251416 -0.01044968 0.02702673
v -0.02229818 -0.01069778 0.03174897
v -0.02219621 -0.01083158 0.03174897
v -0.02369392 -0.01034108 0.02702673
v -0.02251133 -0.01044968 0.03174897
v -0.02307359 -0.01035811 0.02702673
f 1 2 3
f 1 3 6
f 1 6 11
f 1 11 16
f 1 16 21
f 1 21 23
f 1 23 18
f 1 18 13
f 1 13 8
f 1 8 4
f 1 4 9
f 1 9 5
f 1 5 7
f 1 7 2
f 2 6 3
f 2 7 12
f 2 12 10
f 2 10 6
f 4 8 15
f 4 15 9
f 5 9 15
f 5 15 14
f 5 14 20
f 5 20 19
f 5 19 22
f 5 22 17
f 5 17 12
f 5 12 7
f 6 10 11
f 8 13 14
f 8 14 15
f 10 12 11
f 11 12 17
f 11 17 16
f 13 18 19
f 13 19 20
f 13 20 14
f 16 17 21
f 17 22 23
f 17 23 21
f 18 23 22
f 18 22 19

