# https://github.com/mikedh/trimesh
v -0.02865344 -0.01395661 0.01946867
v -0.02865344 -0.01270962 0.01945948
v -0.02803362 -0.01208972 0.01945948
v -0.02741360 -0.01147024 0.01946142
v -0.02736932 -0.01147024 0.01946238
v -0.02741360 -0.01208972 0.01951796
v -0.02864576 -0.01395661 0.01947060
v -0.02918937 -0.01395661 0.01967744
v -0.02917441 -0.00963424 0.01967115
v -0.02865344 -0.00963424 0.01945948
v -0.02736932 -0.01085034 0.01945948
v -0.02736932 -0.01209014 0.01953101
v -0.02797924 -0.01395661 0.01972093
v -0.02919523 -0.01395661 0.01967985
v -0.02919523 -0.00963424 0.01967985
v -0.02736932 -0.00963424 0.01945948
v -0.02736932 -0.01267576 0.01970063
v -0.02771623 -0.01372430 0.01988621
v -0.02771987 -0.01395661 0.02021048
v -0.02943075 -0.01395661 0.02021048
v -0.02942165 -0.00963424 0.02018970
v -0.02736932 -0.00963424 0.02439559
v -0.02736932 -0.01308155 0.02021048
v -0.02736932 -0.01395661 0.02181783
v -0.02943459 -0.01395661 0.02083003
v -0.02943075 -0.00963424 0.02021048
v -0.02943459 -0.00963424 0.02439559
v -0.02736932 -0.01395661 0.02439559
v -0.02943459 -0.00963424 0.02083003
v -0.02943459 -0.01395661 0.02439559
f 1 2 3
f 1 3 4
f 1 4 5
f 1 5 6
f 1 6 7
f 1 7 13
f 1 13 19
f 1 19 24
f 1 24 28
f 1 28 30
f 1 30 25
f 1 25 20
f 1 20 14
f 1 14 8
f 1 8 2
f 2 8 9
f 2 9 10
f 2 10 16
f 2 16 11
f 2 11 3
f 3 11 4
f 4 11 5
f 5 11 16
f 5 16 22
f 5 22 28
f 5 28 24
f 5 24 23
f 5 23 17
f 5 17 12
f 5 12 6
f 6 12 7
f 7 12 13
f 8 14 9
f 9 14 15
f 9 15 21
f 9 21 26
f 9 26 29
f 9 29 27
f 9 27 22
f 9 22 16
f 9 16 10
f 12 17 13
f 13 17 18
f 13 18 19
f 14 20 21
f 14 21 15
f 17 23 18
f 18 23 19
f 19 23 24
f 20 25 29
f 20 29 26
f 20 26 21
f 22 27 30
f 22 30 28
f 25 30 27
f 25 27 29

