# https://github.com/mikedh/trimesh
v -0.02008180 0.00275915 0.02702840
v -0.02064822 0.00259523 0.02702840
v -0.02017863 0.00018285 0.02702840
v -0.02011983 0.00052091 0.02467840
v -0.02008180 0.00198877 0.02285005
v -0.02008180 0.00462265 0.02602320
v -0.02121410 0.00441090 0.02616717
v -0.02116258 0.00228132 0.02702840
v -0.02227601 0.00381558 0.02617461
v -0.02233400 0.00017588 0.02702840
v -0.02055597 0.00004308 0.02448454
v -0.02017863 0.00018285 0.02578426
v -0.02017971 0.00018935 0.02517860
v -0.02008180 0.00278934 0.02255903
v -0.02178888 0.00004308 0.02275727
v -0.02008180 0.00478379 0.02522367
v -0.02059373 0.00457900 0.02600350
v -0.02175085 0.00414761 0.02603633
v -0.02121410 0.00449634 0.02578995
v -0.02283730 0.00291518 0.02631640
v -0.02171849 0.00173662 0.02702840
v -0.02172954 0.00427949 0.02516985
v -0.02283730 0.00360708 0.02516985
v -0.02283730 0.00342970 0.02605120
v -0.02283730 0.00017681 0.02643981
v -0.02216272 0.00098110 0.02702840
v -0.02283730 0.00094209 0.02642624
v -0.02264526 0.00017681 0.02255991
v -0.02283730 0.00217034 0.02255772
v -0.02008180 0.00340926 0.02255903
v -0.02008180 0.00478704 0.02393008
v -0.02059373 0.00470067 0.02516985
v -0.02121410 0.00451028 0.02516985
v -0.02283730 0.00360290 0.02368283
v -0.02283730 0.00360755 0.02455018
v -0.02121410 0.00451028 0.02331086
v -0.02283730 0.00335261 0.02279053
v -0.02264526 0.00278934 0.02257523
v -0.02121410 0.00340926 0.02255903
v -0.02033777 0.00402919 0.02256997
v -0.02008180 0.00456043 0.02278353
v -0.02008180 0.00478379 0.02331086
v -0.02059373 0.00470067 0.02331086
v -0.02229165 0.00382812 0.02287674
v -0.02059373 0.00452003 0.02279753
v -0.02175841 0.00415504 0.02302159
v -0.02183312 0.00340926 0.02257741
v -0.02121410 0.00422701 0.02277259
f 1 2 8
f 1 8 21
f 1 21 26
f 1 26 10
f 1 10 3
f 1 3 4
f 1 4 5
f 1 5 14
f 1 14 30
f 1 30 41
f 1 41 42
f 1 42 31
f 1 31 16
f 1 16 6
f 1 6 7
f 1 7 2
f 2 7 9
f 2 9 8
f 3 10 11
f 3 11 12
f 3 12 4
f 4 12 13
f 4 13 11
f 4 11 5
f 5 11 15
f 5 15 14
f 6 16 17
f 6 17 7
f 7 18 9
f 7 17 19
f 7 19 18
f 8 9 20
f 8 20 21
f 9 18 22
f 9 22 23
f 9 23 24
f 9 24 20
f 10 25 11
f 10 26 20
f 10 20 27
f 10 27 25
f 11 13 12
f 11 25 15
f 14 15 28
f 14 28 29
f 14 29 30
f 15 25 28
f 16 31 32
f 16 32 17
f 17 32 19
f 18 19 22
f 19 32 33
f 19 33 22
f 20 26 21
f 20 24 23
f 20 23 35
f 20 35 34
f 20 34 37
f 20 37 29
f 20 29 25
f 20 25 27
f 22 34 35
f 22 35 23
f 22 33 36
f 22 36 34
f 25 29 28
f 29 37 38
f 29 38 39
f 29 39 30
f 30 40 41
f 30 39 40
f 31 42 43
f 31 43 32
f 32 43 36
f 32 36 33
f 34 36 44
f 34 44 37
f 36 43 45
f 36 45 46
f 36 46 44
f 37 47 38
f 37 44 48
f 37 48 47
f 38 47 39
f 39 47 40
f 40 48 45
f 40 45 41
f 40 47 48
f 41 45 42
f 42 45 43
f 44 46 45
f 44 45 48

