# https://github.com/mikedh/trimesh
v -0.02616357 0.01783003 0.02655388
v -0.02555569 0.01771119 0.02686708
v -0.02555569 0.01782966 0.02655391
v -0.02555569 0.01465169 0.02655388
v -0.02803354 0.01783003 0.02655388
v -0.02555569 0.01465657 0.02686708
v -0.02843981 0.01771119 0.02686708
v -0.02555569 0.01464044 0.02655388
v -0.02919804 0.01762984 0.02655388
v -0.02865357 0.01782216 0.02655391
v -0.02865357 0.01771082 0.02686708
v -0.02555569 0.01464044 0.02686552
v -0.02649694 0.01400050 0.02686708
v -0.02649694 0.01400050 0.02655388
v -0.02940953 0.01704988 0.02655388
v -0.02940307 0.01704988 0.02686708
v -0.02917602 0.01754849 0.02686708
v -0.02898959 0.01761447 0.02686708
v -0.02943459 0.01400050 0.02686708
v -0.02943459 0.01400050 0.02655388
v -0.02943459 0.01642981 0.02655388
v -0.02943459 0.01642981 0.02686708
f 1 2 3
f 1 3 4
f 1 4 8
f 1 8 14
f 1 14 20
f 1 20 21
f 1 21 15
f 1 15 9
f 1 9 5
f 1 5 7
f 1 7 2
f 2 6 12
f 2 12 8
f 2 8 4
f 2 4 3
f 2 7 11
f 2 11 18
f 2 18 17
f 2 17 16
f 2 16 22
f 2 22 19
f 2 19 13
f 2 13 6
f 5 9 10
f 5 10 11
f 5 11 7
f 6 13 12
f 8 12 13
f 8 13 14
f 9 15 16
f 9 16 17
f 9 17 18
f 9 18 10
f 10 18 11
f 13 19 20
f 13 20 14
f 15 21 22
f 15 22 16
f 19 22 21
f 19 21 20

