# https://github.com/mikedh/trimesh
v -0.02432802 0.01389972 0.02422691
v -0.02432802 0.01389972 0.02195015
v -0.02507380 0.01389972 0.02422691
v -0.02432802 0.00940218 0.02422691
v -0.02483635 0.01389972 0.02221545
v -0.02432802 0.01307990 0.02157773
v -0.02567269 0.01220813 0.02157773
v -0.02507380 0.01389972 0.02385035
v -0.02567269 0.01335861 0.02422691
v -0.02567269 0.00940218 0.02422691
v -0.02432802 0.00940218 0.02157773
v -0.02505735 0.01389972 0.02269005
v -0.02567269 0.01317897 0.02224683
v -0.02567269 0.01322212 0.02232256
v -0.02567269 0.00940218 0.02157773
v -0.02507354 0.01389972 0.02330988
v -0.02567269 0.01335861 0.02330988
v -0.02507222 0.01389972 0.02323233
v -0.02567269 0.01335508 0.02268720
f 1 2 5
f 1 5 12
f 1 12 18
f 1 18 16
f 1 16 8
f 1 8 3
f 1 3 9
f 1 9 10
f 1 10 4
f 1 4 11
f 1 11 6
f 1 6 2
f 2 6 7
f 2 7 5
f 3 8 17
f 3 17 9
f 4 10 15
f 4 15 11
f 5 7 13
f 5 13 14
f 5 14 12
f 6 11 15
f 6 15 7
f 7 15 10
f 7 10 9
f 7 9 17
f 7 17 19
f 7 19 14
f 7 14 13
f 8 16 17
f 12 14 19
f 12 19 18
f 16 18 19
f 16 19 17

