# https://github.com/mikedh/trimesh
v -0.02307378 -0.01035900 0.03243510
v -0.02243478 -0.01043809 0.03243510
v -0.02307378 -0.01035900 0.03174897
v -0.02564221 -0.01035900 0.03243510
v -0.02251131 -0.01044979 0.03174897
v -0.02227607 -0.01052888 0.03243510
v -0.02564221 -0.01035900 0.03174897
v -0.02564221 -0.01335476 0.03243510
v -0.02217767 -0.01059697 0.03233711
v -0.02196317 -0.01075337 0.03243510
v -0.02229831 -0.01069805 0.03174897
v -0.02564221 -0.01335476 0.03174897
v -0.02506693 -0.01398179 0.03243510
v -0.02189568 -0.01084452 0.03243510
v -0.02219615 -0.01083140 0.03174897
v -0.02506693 -0.01398179 0.03174897
v -0.02179126 -0.01398179 0.03243510
v -0.02179164 -0.01147013 0.03243510
v -0.02213847 -0.01147013 0.03174897
v -0.02213847 -0.01398179 0.03174897
v -0.02179126 -0.01209006 0.03243510
f 1 2 3
f 1 3 7
f 1 7 4
f 1 4 8
f 1 8 13
f 1 13 17
f 1 17 21
f 1 21 18
f 1 18 14
f 1 14 10
f 1 10 6
f 1 6 2
f 2 5 3
f 2 6 5
f 3 5 11
f 3 11 15
f 3 15 19
f 3 19 20
f 3 20 16
f 3 16 12
f 3 12 7
f 4 7 12
f 4 12 8
f 5 6 9
f 5 9 10
f 5 10 11
f 6 10 9
f 8 12 16
f 8 16 13
f 10 14 15
f 10 15 11
f 13 16 20
f 13 20 17
f 14 18 15
f 15 18 19
f 17 20 19
f 17 19 21
f 18 21 19

