# https://github.com/mikedh/trimesh
v -0.02214671 -0.01676358 0.02330968
v -0.02215275 -0.01556631 0.02439559
v -0.02214849 -0.01676358 0.02392971
v -0.02214671 -0.01676358 0.02083003
v -0.02577895 -0.01556631 0.02439559
v -0.02215275 -0.01642992 0.02439559
v -0.02215275 -0.01556631 0.02083003
v -0.02215311 -0.01676358 0.02439559
v -0.02214920 -0.01676358 0.02021048
v -0.02215453 -0.01556631 0.02021048
v -0.02577895 -0.01676358 0.02439559
v -0.02577895 -0.01556631 0.02193188
v -0.02242190 -0.01676358 0.01969435
v -0.02245994 -0.01556631 0.01967985
v -0.02577895 -0.01676358 0.01947350
v -0.02467676 -0.01556631 0.02021048
v -0.02577895 -0.01582965 0.02021048
v -0.02267896 -0.01676358 0.01960205
v -0.02307361 -0.01642992 0.01945948
v -0.02245994 -0.01642992 0.01967985
v -0.02270136 -0.01556631 0.01959287
v -0.02577895 -0.01642992 0.01949041
v -0.02369368 -0.01581008 0.01945948
v -0.02369368 -0.01642992 0.01945948
v -0.02369368 -0.01676358 0.01946142
v -0.02430344 -0.01556631 0.01967309
v -0.02577895 -0.01592176 0.01989249
v -0.02307361 -0.01676358 0.01946238
v -0.02307361 -0.01556631 0.01945948
v -0.02577895 -0.01626409 0.01957064
v -0.02369368 -0.01556631 0.01947688
v -0.02577895 -0.01597485 0.01971078
f 1 2 3
f 1 3 8
f 1 8 11
f 1 11 15
f 1 15 25
f 1 25 28
f 1 28 18
f 1 18 13
f 1 13 9
f 1 9 4
f 1 4 7
f 1 7 2
f 2 5 11
f 2 11 8
f 2 8 6
f 2 6 3
f 2 7 10
f 2 10 14
f 2 14 21
f 2 21 29
f 2 29 31
f 2 31 26
f 2 26 16
f 2 16 12
f 2 12 5
f 3 6 8
f 4 9 10
f 4 10 7
f 5 12 17
f 5 17 27
f 5 27 32
f 5 32 30
f 5 30 22
f 5 22 15
f 5 15 11
f 9 13 10
f 10 13 14
f 12 16 17
f 13 18 19
f 13 19 20
f 13 20 14
f 14 20 21
f 15 22 23
f 15 23 24
f 15 24 25
f 16 26 17
f 17 26 27
f 18 28 19
f 19 24 23
f 19 23 29
f 19 29 21
f 19 21 20
f 19 28 25
f 19 25 24
f 22 30 31
f 22 31 23
f 23 31 29
f 26 31 32
f 26 32 27
f 30 32 31

