# https://github.com/mikedh/trimesh
v -0.02120069 -0.02078198 0.01945946
v -0.02120069 -0.01891082 0.01945946
v -0.01315518 -0.02076996 0.01945946
v -0.01315518 -0.02138981 0.01947687
v -0.02120069 -0.02139453 0.01947871
v -0.02120069 -0.01829612 0.01948100
v -0.01315518 -0.01891082 0.01945946
v -0.01253520 -0.02076996 0.01961068
v -0.01235895 -0.02158384 0.01985906
v -0.01315518 -0.02187015 0.01969729
v -0.02120069 -0.02187144 0.01970233
v -0.02120069 -0.01781793 0.01970187
v -0.01315518 -0.01829054 0.01948145
v -0.01253520 -0.01891082 0.01961068
v -0.01235895 -0.01809823 0.01985997
v -0.01215259 -0.01891082 0.02021054
v -0.01218359 -0.02156710 0.02350173
v -0.01253520 -0.02192424 0.02021054
v -0.01315518 -0.02204100 0.02021054
v -0.02120069 -0.02204100 0.02021054
v -0.02120069 -0.01765566 0.02021054
v -0.01315518 -0.01781964 0.01970187
v -0.01218359 -0.01811412 0.02350173
v -0.01253520 -0.01776856 0.02021054
v -0.01217119 -0.01891082 0.02350906
v -0.01253520 -0.02076996 0.02396915
v -0.01253520 -0.02160058 0.02387154
v -0.01253520 -0.02192424 0.02330927
v -0.01315518 -0.02204100 0.02330927
v -0.02120069 -0.02204100 0.02330927
v -0.02120069 -0.01765566 0.02330927
v -0.01315518 -0.01765910 0.02021054
v -0.01253520 -0.01776856 0.02330927
v -0.01253520 -0.01808235 0.02386971
v -0.01253520 -0.01891082 0.02396915
v -0.01315518 -0.02076996 0.02414100
v -0.01315518 -0.02138981 0.02411992
v -0.01315518 -0.02187015 0.02385963
v -0.02120069 -0.02186543 0.02386238
v -0.02120069 -0.01781793 0.02385596
v -0.01315518 -0.01781964 0.02385596
v -0.01315518 -0.01765910 0.02330927
v -0.01315518 -0.01829054 0.02411671
v -0.01315518 -0.01891082 0.02414100
v -0.02120069 -0.02076996 0.02414100
v -0.02120069 -0.02138337 0.02412038
v -0.02120069 -0.01829054 0.02411671
v -0.02120069 -0.01891082 0.02414100
f 1 2 7
f 1 7 3
f 1 3 4
f 1 4 5
f 1 5 11
f 1 11 20
f 1 20 30
f 1 30 39
f 1 39 46
f 1 46 45
f 1 45 48
f 1 48 47
f 1 47 40
f 1 40 31
f 1 31 21
f 1 21 12
f 1 12 6
f 1 6 2
f 2 6 7
f 3 7 14
f 3 14 8
f 3 8 4
f 4 8 9
f 4 9 10
f 4 10 5
f 5 10 11
f 6 12 13
f 6 13 7
f 7 13 14
f 8 14 9
f 9 15 16
f 9 16 17
f 9 17 18
f 9 18 10
f 9 14 15
f 10 18 19
f 10 19 20
f 10 20 11
f 12 21 22
f 12 22 13
f 13 22 15
f 13 15 14
f 15 23 16
f 15 22 24
f 15 24 23
f 16 25 17
f 16 23 25
f 17 25 26
f 17 26 27
f 17 27 28
f 17 28 18
f 18 28 29
f 18 29 19
f 19 29 30
f 19 30 20
f 21 31 42
f 21 42 32
f 21 32 22
f 22 32 24
f 23 24 33
f 23 33 34
f 23 34 35
f 23 35 25
f 24 32 42
f 24 42 33
f 25 35 26
f 26 35 44
f 26 44 36
f 26 36 37
f 26 37 27
f 27 37 38
f 27 38 28
f 28 38 29
f 29 38 30
f 30 38 39
f 31 40 41
f 31 41 42
f 33 42 41
f 33 41 34
f 34 41 43
f 34 43 35
f 35 43 44
f 36 44 48
f 36 48 45
f 36 45 46
f 36 46 37
f 37 46 39
f 37 39 38
f 40 47 43
f 40 43 41
f 43 47 48
f 43 48 44

