# https://github.com/mikedh/trimesh
v -0.02567269 0.01228072 0.02184253
v -0.02659095 0.01235303 0.02184253
v -0.02567269 0.01217565 0.02184253
v -0.02567269 0.01217565 0.02145721
v -0.02624984 0.01217565 0.02021007
v -0.02659095 0.01225591 0.02021007
v -0.02659095 0.01217565 0.02184253
v -0.02651266 0.01217565 0.02004717
v -0.02659095 0.01222465 0.02012772
v -0.02659095 0.01217565 0.02000563
f 1 2 7
f 1 7 3
f 1 3 4
f 1 4 5
f 1 5 6
f 1 6 2
f 2 6 9
f 2 9 10
f 2 10 7
f 3 7 10
f 3 10 8
f 3 8 5
f 3 5 4
f 5 8 9
f 5 9 6
f 8 10 9

