# https://github.com/mikedh/trimesh
v -0.02552108 -0.00963382 0.02559333
v -0.02552108 -0.00963382 0.02515174
v -0.02645900 -0.00963382 0.02559333
v -0.02552108 -0.01335985 0.02559333
v -0.02552108 -0.01329001 0.02515174
v -0.02555321 -0.00963422 0.02439607
v -0.02645597 -0.00963382 0.02515174
v -0.02645900 -0.00963382 0.02515303
v -0.02645900 -0.01375834 0.02559333
v -0.02552108 -0.01335985 0.02515326
v -0.02555321 -0.01334007 0.02439607
v -0.02624077 -0.00963422 0.02439607
v -0.02645900 -0.01273609 0.02515174
v -0.02645900 -0.01375834 0.02515174
v -0.02555321 -0.01334249 0.02439630
v -0.02555367 -0.01334249 0.02439607
v -0.02624077 -0.01352094 0.02439607
f 1 2 7
f 1 7 8
f 1 8 3
f 1 3 9
f 1 9 4
f 1 4 10
f 1 10 5
f 1 5 2
f 2 5 11
f 2 11 6
f 2 6 12
f 2 12 7
f 3 8 13
f 3 13 14
f 3 14 9
f 4 9 14
f 4 14 10
f 5 10 11
f 6 11 16
f 6 16 17
f 6 17 12
f 7 12 8
f 8 12 13
f 10 14 15
f 10 15 11
f 11 15 16
f 12 17 14
f 12 14 13
f 14 17 15
f 15 17 16

