# https://github.com/mikedh/trimesh
v -0.02549751 0.00940174 0.02465552
v -0.02364871 0.00940174 0.02465552
v -0.02549751 0.00940174 0.02516996
v -0.02549751 0.01898491 0.02465552
v -0.02364871 0.00940174 0.02475830
v -0.02251410 0.01044861 0.02465552
v -0.02398075 0.00940174 0.02516996
v -0.02549751 0.01884420 0.02516996
v -0.02549751 0.01885734 0.02512368
v -0.02493331 0.01898491 0.02465552
v -0.02364871 0.00940267 0.02516996
v -0.02251410 0.01044861 0.02516996
v -0.02226065 0.01078162 0.02465552
v -0.02431344 0.01884420 0.02516996
v -0.02431344 0.01898116 0.02465552
v -0.02220858 0.01085009 0.02516996
v -0.02220858 0.01085009 0.02465552
v -0.02385927 0.01872226 0.02516996
v -0.02373516 0.01877948 0.02465552
v -0.02215259 0.01147015 0.02516996
v -0.02215259 0.01147015 0.02465552
v -0.02246858 0.01750184 0.02516996
v -0.02240636 0.01758439 0.02465552
v -0.02215259 0.01642965 0.02516996
v -0.02215259 0.01642965 0.02465552
v -0.02216307 0.01704970 0.02516996
v -0.02236838 0.01752811 0.02465552
v -0.02215324 0.01693620 0.02465552
v -0.02215455 0.01701312 0.02465552
f 1 2 5
f 1 5 7
f 1 7 3
f 1 3 8
f 1 8 9
f 1 9 4
f 1 4 10
f 1 10 15
f 1 15 19
f 1 19 23
f 1 23 27
f 1 27 29
f 1 29 28
f 1 28 25
f 1 25 21
f 1 21 17
f 1 17 13
f 1 13 6
f 1 6 2
f 2 6 12
f 2 12 5
f 3 7 11
f 3 11 12
f 3 12 16
f 3 16 20
f 3 20 24
f 3 24 26
f 3 26 22
f 3 22 18
f 3 18 14
f 3 14 8
f 4 9 10
f 5 11 7
f 5 12 11
f 6 13 12
f 8 14 9
f 9 14 10
f 10 14 15
f 12 13 16
f 13 17 16
f 14 18 15
f 15 18 19
f 16 17 21
f 16 21 20
f 18 22 19
f 19 22 23
f 20 21 25
f 20 25 24
f 22 26 23
f 23 26 27
f 24 25 28
f 24 28 26
f 26 29 27
f 26 28 29

