# https://github.com/mikedh/trimesh
v -0.02943232 -0.01403167 0.03265526
v -0.02943383 -0.01403167 0.03376899
v -0.02943232 -0.01209019 0.03265526
v -0.02650235 -0.01403167 0.03265526
v -0.02943383 -0.01147047 0.03385016
v -0.02943383 -0.01403167 0.03508981
v -0.02943005 -0.01147047 0.03265526
v -0.02557244 -0.01334473 0.03265526
v -0.02650197 -0.01403167 0.03385016
v -0.02943383 -0.01147047 0.03508981
v -0.02935634 -0.01085039 0.03385016
v -0.02935332 -0.01085039 0.03265526
v -0.02941002 -0.01403167 0.03570999
v -0.02557244 -0.01035936 0.03265526
v -0.02557244 -0.01334473 0.03508981
v -0.02650197 -0.01403167 0.03508981
v -0.02941002 -0.01147047 0.03570999
v -0.02934387 -0.01085039 0.03570999
v -0.02935634 -0.01085039 0.03508981
v -0.02912084 -0.01044994 0.03265526
v -0.02917452 -0.01403167 0.03618045
v -0.02557244 -0.01035936 0.03510857
v -0.02865324 -0.01035936 0.03265526
v -0.02557244 -0.01333538 0.03570999
v -0.02650348 -0.01403167 0.03514068
v -0.02917452 -0.01147047 0.03618045
v -0.02914730 -0.01085039 0.03615592
v -0.02906792 -0.01048050 0.03609423
v -0.02912046 -0.01045030 0.03570999
v -0.02912084 -0.01044994 0.03508981
v -0.02865324 -0.01403167 0.03634100
v -0.02557244 -0.01036116 0.03571613
v -0.02865324 -0.01035936 0.03508981
v -0.02865324 -0.01036008 0.03570999
v -0.02557244 -0.01317542 0.03614654
v -0.02655830 -0.01403167 0.03580416
v -0.02652163 -0.01403167 0.03572262
v -0.02865324 -0.01147047 0.03634100
v -0.02865324 -0.01085039 0.03629229
v -0.02865324 -0.01045066 0.03613175
v -0.02741412 -0.01403167 0.03634100
v -0.02557244 -0.01045066 0.03613175
v -0.02557244 -0.01271746 0.03631069
v -0.02681761 -0.01403167 0.03618442
v -0.02557244 -0.01147047 0.03634100
v -0.02557244 -0.01085039 0.03629229
v -0.02557244 -0.01209019 0.03634100
f 1 2 3
f 1 3 7
f 1 7 12
f 1 12 20
f 1 20 23
f 1 23 14
f 1 14 8
f 1 8 4
f 1 4 9
f 1 9 16
f 1 16 25
f 1 25 37
f 1 37 36
f 1 36 44
f 1 44 41
f 1 41 31
f 1 31 21
f 1 21 13
f 1 13 6
f 1 6 2
f 2 5 3
f 2 6 10
f 2 10 5
f 3 5 7
f 4 8 9
f 5 10 19
f 5 19 11
f 5 11 12
f 5 12 7
f 6 13 17
f 6 17 10
f 8 14 22
f 8 22 32
f 8 32 42
f 8 42 46
f 8 46 45
f 8 45 47
f 8 47 43
f 8 43 35
f 8 35 24
f 8 24 15
f 8 15 16
f 8 16 9
f 10 17 18
f 10 18 19
f 11 19 30
f 11 30 20
f 11 20 12
f 13 21 26
f 13 26 17
f 14 23 33
f 14 33 22
f 15 24 16
f 16 24 25
f 17 26 27
f 17 27 18
f 18 27 28
f 18 28 29
f 18 29 19
f 19 29 30
f 20 30 33
f 20 33 23
f 21 31 38
f 21 38 26
f 22 33 34
f 22 34 32
f 24 35 36
f 24 36 37
f 24 37 25
f 26 38 27
f 27 38 39
f 27 39 28
f 28 34 29
f 28 39 40
f 28 40 34
f 29 34 33
f 29 33 30
f 31 41 47
f 31 47 45
f 31 45 38
f 32 34 40
f 32 40 42
f 35 43 44
f 35 44 36
f 38 45 46
f 38 46 39
f 39 46 42
f 39 42 40
f 41 44 43
f 41 43 47

