# https://github.com/mikedh/trimesh
v -0.02307365 -0.01556631 0.01945921
v -0.02369337 -0.01556631 0.01947651
v -0.02307365 -0.01518988 0.01945921
v -0.02270105 -0.01556631 0.01959292
v -0.02369337 -0.01518988 0.01950330
v -0.02307365 -0.01395676 0.01948702
v -0.02307365 -0.01457002 0.01947239
v -0.02430342 -0.01556631 0.01967286
v -0.02246003 -0.01395676 0.01967966
v -0.02246003 -0.01556631 0.01967966
v -0.02360174 -0.01395676 0.01970727
v -0.02467703 -0.01556631 0.02021019
v -0.02418889 -0.01518988 0.01972396
v -0.02245672 -0.01395676 0.01968522
v -0.02227450 -0.01556631 0.02000169
v -0.02406367 -0.01477580 0.01981214
v -0.02384225 -0.01395676 0.02020442
v -0.02475262 -0.01556631 0.02156382
v -0.02384480 -0.01395676 0.02021019
v -0.02215437 -0.01556631 0.02021019
v -0.02215437 -0.01395676 0.02021019
v -0.02392013 -0.01395676 0.02156382
v -0.02215284 -0.01556631 0.02156382
v -0.02215335 -0.01556631 0.02058620
v -0.02215284 -0.01395676 0.02082994
v -0.02215284 -0.01395676 0.02156382
v -0.02215284 -0.01556631 0.02082994
f 1 2 3
f 1 3 4
f 1 4 10
f 1 10 15
f 1 15 20
f 1 20 24
f 1 24 27
f 1 27 23
f 1 23 18
f 1 18 12
f 1 12 8
f 1 8 2
f 2 5 6
f 2 6 7
f 2 7 3
f 2 8 5
f 3 7 9
f 3 9 4
f 4 9 10
f 5 8 6
f 6 8 11
f 6 11 17
f 6 17 19
f 6 19 22
f 6 22 26
f 6 26 25
f 6 25 21
f 6 21 14
f 6 14 9
f 6 9 7
f 8 12 13
f 8 13 11
f 9 14 10
f 10 14 15
f 11 13 16
f 11 16 12
f 11 12 17
f 12 18 19
f 12 19 17
f 12 16 13
f 14 20 15
f 14 21 20
f 18 22 19
f 18 23 26
f 18 26 22
f 20 21 24
f 21 25 24
f 23 27 25
f 23 25 26
f 24 25 27

