# https://github.com/mikedh/trimesh
v -0.02943459 -0.01766937 0.02515181
v -0.02938565 -0.01828978 0.02515181
v -0.02943459 -0.01766937 0.02517000
v -0.02943459 -0.00963472 0.02515181
v -0.02915031 -0.01871992 0.02515181
v -0.02938565 -0.01828978 0.02517000
v -0.02939905 -0.01786595 0.02559333
v -0.02941449 -0.01766937 0.02559333
v -0.02943138 -0.01724645 0.02559333
v -0.02943459 -0.01662604 0.02559333
v -0.02943459 -0.00963472 0.02517000
v -0.02784107 -0.00963472 0.02515181
v -0.02915031 -0.01871992 0.02517000
v -0.02865341 -0.01884075 0.02515181
v -0.02914361 -0.01871541 0.02559333
v -0.02936264 -0.01828978 0.02559333
v -0.02943459 -0.01147069 0.02559333
v -0.02940109 -0.00963472 0.02559333
v -0.02942935 -0.01085028 0.02559333
v -0.02645929 -0.00963472 0.02515310
v -0.02645929 -0.01273676 0.02515181
v -0.02865341 -0.01884075 0.02517000
v -0.02645929 -0.01884616 0.02515181
v -0.02865341 -0.01883083 0.02559333
v -0.02645929 -0.00963472 0.02559333
v -0.02645929 -0.01883083 0.02559333
f 1 2 6
f 1 6 3
f 1 3 10
f 1 10 17
f 1 17 11
f 1 11 4
f 1 4 12
f 1 12 21
f 1 21 23
f 1 23 14
f 1 14 5
f 1 5 2
f 2 5 13
f 2 13 6
f 3 7 8
f 3 8 9
f 3 9 10
f 3 6 7
f 4 11 18
f 4 18 25
f 4 25 20
f 4 20 12
f 5 14 22
f 5 22 13
f 6 15 16
f 6 16 7
f 6 13 15
f 7 16 15
f 7 15 24
f 7 24 26
f 7 26 25
f 7 25 18
f 7 18 19
f 7 19 17
f 7 17 10
f 7 10 9
f 7 9 8
f 11 17 19
f 11 19 18
f 12 20 21
f 13 22 15
f 14 23 22
f 15 22 24
f 20 25 26
f 20 26 23
f 20 23 21
f 22 23 24
f 23 26 24

