# https://github.com/mikedh/trimesh
v -0.02432802 0.01307992 0.02157773
v -0.02432802 0.01290780 0.02021018
v -0.02567269 0.01215668 0.02021018
v -0.02567269 0.01220817 0.02157773
v -0.02432802 0.00940174 0.02157773
v -0.02432802 0.01263522 0.01975184
v -0.02567269 0.01196296 0.01969771
v -0.02567269 0.01200041 0.01979601
v -0.02567269 0.00940174 0.02157773
v -0.02432802 0.00940174 0.01947518
v -0.02432802 0.01209007 0.01956684
v -0.02567269 0.01146965 0.01947704
v -0.02567269 0.01156471 0.01951956
v -0.02567269 0.00940174 0.01945900
v -0.02472539 0.00940174 0.01946419
v -0.02432802 0.01085032 0.01946273
v -0.02432802 0.01146965 0.01946377
v -0.02567269 0.01085032 0.01945900
v -0.02493362 0.00940174 0.01945900
v -0.02493362 0.01085032 0.01945900
f 1 2 3
f 1 3 4
f 1 4 9
f 1 9 5
f 1 5 10
f 1 10 16
f 1 16 17
f 1 17 11
f 1 11 6
f 1 6 2
f 2 6 7
f 2 7 8
f 2 8 3
f 3 8 7
f 3 7 13
f 3 13 12
f 3 12 18
f 3 18 14
f 3 14 9
f 3 9 4
f 5 9 14
f 5 14 19
f 5 19 15
f 5 15 10
f 6 11 12
f 6 12 13
f 6 13 7
f 10 15 16
f 11 17 12
f 12 17 18
f 14 18 20
f 14 20 19
f 15 19 16
f 16 20 17
f 16 19 20
f 17 20 18

