# https://github.com/mikedh/trimesh
v -0.01501676 0.01032439 0.03384629
v -0.01433399 0.00897318 0.03323003
v -0.01501676 0.01032439 0.03508975
v -0.01501676 0.01062282 0.03286166
v -0.01433399 0.00897318 0.03508975
v -0.01398327 0.00897318 0.03253467
v -0.01501676 0.01061824 0.03610724
v -0.01501676 0.01147053 0.03265516
v -0.01402127 0.00897318 0.03609831
v -0.01315286 0.00897318 0.03235900
v -0.01377271 0.01116019 0.03236833
v -0.01403996 0.01084711 0.03650360
v -0.01477318 0.01178087 0.03642652
v -0.01478439 0.01679844 0.03640299
v -0.01501676 0.01765164 0.03540132
v -0.01501676 0.01612284 0.03265556
v -0.01315286 0.00897318 0.03629020
v -0.01005425 0.00897318 0.03235900
v -0.01346309 0.01611826 0.03236793
v -0.01005425 0.01611826 0.03236346
v -0.01315286 0.01074824 0.03650360
v -0.01455452 0.01271096 0.03650360
v -0.01432839 0.01793085 0.03650360
v -0.01422684 0.01812951 0.03570925
v -0.01501676 0.01765164 0.03416029
v -0.01501676 0.01730560 0.03283935
v -0.00912417 0.00897318 0.03611332
v -0.00918834 0.01085352 0.03650360
v -0.01002622 0.01074824 0.03650360
v -0.00916155 0.00897318 0.03250465
v -0.00916155 0.01611826 0.03250749
v -0.01346309 0.01718019 0.03255130
v -0.01005425 0.01704928 0.03247746
v -0.01346309 0.01832541 0.03650360
v -0.01388671 0.01826499 0.03477979
v -0.01387736 0.01807732 0.03346615
v -0.01315286 0.01778804 0.03296633
v -0.00865259 0.00897318 0.03508975
v -0.00870056 0.01178087 0.03650360
v -0.00865259 0.00897318 0.03323003
v -0.00918958 0.01729736 0.03268477
v -0.00865695 0.01673894 0.03338541
v -0.01315286 0.01830802 0.03416029
v -0.00919830 0.01824485 0.03650360
v -0.00918771 0.01793543 0.03324504
v -0.00866131 0.01735961 0.03650360
v -0.00890489 0.01815972 0.03508975
v -0.00911607 0.01810754 0.03416029
f 1 2 5
f 1 5 3
f 1 3 7
f 1 7 15
f 1 15 25
f 1 25 26
f 1 26 16
f 1 16 8
f 1 8 4
f 1 4 2
f 2 4 6
f 2 6 10
f 2 10 18
f 2 18 30
f 2 30 40
f 2 40 38
f 2 38 27
f 2 27 17
f 2 17 9
f 2 9 5
f 3 5 7
f 4 8 6
f 5 9 7
f 6 8 11
f 6 11 10
f 7 9 12
f 7 12 13
f 7 13 14
f 7 14 15
f 8 16 11
f 9 17 12
f 10 11 19
f 10 19 20
f 10 20 18
f 11 16 19
f 12 17 21
f 12 21 29
f 12 29 28
f 12 28 39
f 12 39 46
f 12 46 44
f 12 44 34
f 12 34 23
f 12 23 22
f 12 22 13
f 13 22 14
f 14 23 15
f 14 22 23
f 15 23 24
f 15 24 25
f 16 26 19
f 17 27 28
f 17 28 29
f 17 29 21
f 18 20 31
f 18 31 30
f 19 26 32
f 19 32 33
f 19 33 20
f 20 33 31
f 23 34 24
f 24 34 35
f 24 35 25
f 25 35 36
f 25 36 26
f 26 36 37
f 26 37 32
f 27 38 39
f 27 39 28
f 30 31 40
f 31 33 41
f 31 41 42
f 31 42 40
f 32 37 33
f 33 37 41
f 34 43 35
f 34 44 43
f 35 43 36
f 36 43 45
f 36 45 37
f 37 45 41
f 38 40 42
f 38 42 46
f 38 46 39
f 41 45 42
f 42 45 47
f 42 47 46
f 43 44 47
f 43 47 48
f 43 48 45
f 44 46 47
f 45 48 47

