# https://github.com/mikedh/trimesh
v -0.02617521 -0.00963424 0.02439607
v -0.02617521 -0.00963424 0.02149620
v -0.02736921 -0.00963424 0.02439607
v -0.02617521 -0.01344926 0.02439607
v -0.02617521 -0.01218788 0.02149620
v -0.02736921 -0.00963424 0.02149620
v -0.02736921 -0.01395661 0.02439607
v -0.02649057 -0.01395661 0.02439607
v -0.02617521 -0.01345180 0.02272201
v -0.02617521 -0.01321273 0.02224451
v -0.02682686 -0.01395661 0.02221556
v -0.02736921 -0.01395661 0.02181784
v -0.02736921 -0.01318607 0.02149620
v -0.02649057 -0.01395661 0.02392993
v -0.02617521 -0.01345138 0.02267431
v -0.02649081 -0.01395661 0.02330993
v -0.02617521 -0.01322161 0.02225842
v -0.02652085 -0.01395661 0.02267403
f 1 2 6
f 1 6 3
f 1 3 7
f 1 7 8
f 1 8 4
f 1 4 9
f 1 9 15
f 1 15 17
f 1 17 10
f 1 10 5
f 1 5 2
f 2 5 13
f 2 13 6
f 3 6 13
f 3 13 12
f 3 12 7
f 4 8 9
f 5 10 11
f 5 11 12
f 5 12 13
f 7 12 11
f 7 11 18
f 7 18 16
f 7 16 14
f 7 14 8
f 8 14 9
f 9 14 16
f 9 16 15
f 10 17 18
f 10 18 11
f 15 16 18
f 15 18 17

