# https://github.com/mikedh/trimesh
v -0.02699939 0.01542051 0.02145112
v -0.02569135 0.01580614 0.02145112
v -0.02699939 0.01700443 0.02145112
v -0.02699939 0.01543819 0.02077010
v -0.02569135 0.01583017 0.02021009
v -0.02569135 0.01700443 0.02145112
v -0.02699939 0.01700443 0.01946067
v -0.02699939 0.01545695 0.02021009
v -0.02699939 0.01556316 0.01981707
v -0.02569135 0.01597515 0.01971067
v -0.02569135 0.01700443 0.01946145
v -0.02679348 0.01700443 0.01946067
v -0.02699939 0.01642994 0.01947685
v -0.02699939 0.01581172 0.01966839
v -0.02569135 0.01642994 0.01949010
v -0.02569135 0.01655755 0.01948367
f 1 2 6
f 1 6 3
f 1 3 7
f 1 7 13
f 1 13 14
f 1 14 9
f 1 9 8
f 1 8 4
f 1 4 5
f 1 5 2
f 2 5 10
f 2 10 15
f 2 15 16
f 2 16 11
f 2 11 6
f 3 6 11
f 3 11 12
f 3 12 7
f 4 8 5
f 5 8 9
f 5 9 10
f 7 12 13
f 9 14 10
f 10 14 15
f 11 16 13
f 11 13 12
f 13 16 15
f 13 15 14

