# https://github.com/mikedh/trimesh
v -0.02554848 -0.01883160 0.02559500
v -0.02513020 -0.01883160 0.02559342
v -0.02431372 -0.01883160 0.02559342
v -0.02431372 -0.01882586 0.02579009
v -0.02554848 -0.01882586 0.02579009
v -0.02554848 -0.01469117 0.02559342
v -0.02400931 -0.01875462 0.02559342
v -0.02386783 -0.01871303 0.02579009
v -0.02391870 -0.01866999 0.02617041
v -0.02431372 -0.01870538 0.02620563
v -0.02554848 -0.01882490 0.02579343
v -0.02554848 -0.01463715 0.02559342
v -0.02386525 -0.01871589 0.02559342
v -0.02380663 -0.01857868 0.02559342
v -0.02351870 -0.01784191 0.02580068
v -0.02351870 -0.01775155 0.02654282
v -0.02554848 -0.01870538 0.02620563
v -0.02355765 -0.01776015 0.02654282
v -0.02431372 -0.01784765 0.02654282
v -0.02434790 -0.01784813 0.02654282
v -0.02493349 -0.01785530 0.02654282
v -0.02554848 -0.01463715 0.02654115
v -0.02506145 -0.01394771 0.02559342
v -0.02369237 -0.01828990 0.02559342
v -0.02351870 -0.01784526 0.02559445
v -0.02351870 -0.01394771 0.02654282
v -0.02554848 -0.01785530 0.02654282
v -0.02554848 -0.01465340 0.02654282
v -0.02506145 -0.01394771 0.02654282
v -0.02351870 -0.01394771 0.02559342
v -0.02351870 -0.01784239 0.02559342
f 1 2 3
f 1 3 4
f 1 4 5
f 1 5 11
f 1 11 17
f 1 17 27
f 1 27 28
f 1 28 22
f 1 22 12
f 1 12 6
f 1 6 2
f 2 6 12
f 2 12 23
f 2 23 30
f 2 30 31
f 2 31 24
f 2 24 14
f 2 14 13
f 2 13 7
f 2 7 3
f 3 7 4
f 4 7 8
f 4 8 9
f 4 9 10
f 4 10 11
f 4 11 5
f 7 13 8
f 8 13 14
f 8 14 15
f 8 15 16
f 8 16 9
f 9 16 10
f 10 17 11
f 10 16 18
f 10 18 19
f 10 19 20
f 10 20 21
f 10 21 27
f 10 27 17
f 12 22 29
f 12 29 23
f 14 24 15
f 15 25 31
f 15 31 30
f 15 30 26
f 15 26 16
f 15 24 25
f 16 26 29
f 16 29 28
f 16 28 27
f 16 27 21
f 16 21 20
f 16 20 19
f 16 19 18
f 22 28 29
f 23 29 26
f 23 26 30
f 24 31 25

