# https://github.com/mikedh/trimesh
v -0.01501676 -0.01765157 0.03415664
v -0.01422684 -0.01812922 0.03570925
v -0.01501676 -0.01765157 0.03539970
v -0.01501676 -0.01755989 0.03301339
v -0.01351978 -0.01830250 0.03477979
v -0.01396333 -0.01823282 0.03650360
v -0.01387736 -0.01807696 0.03346615
v -0.01462242 -0.01741595 0.03644112
v -0.01478564 -0.01643039 0.03642692
v -0.01501676 -0.01061878 0.03610845
v -0.01501676 -0.01673751 0.03266003
v -0.01330798 -0.01748379 0.03275861
v -0.01315286 -0.01827591 0.03385034
v -0.01315286 -0.01834008 0.03650360
v -0.01455452 -0.01270633 0.03650360
v -0.00918771 -0.01793577 0.03324504
v -0.01477318 -0.01178128 0.03642652
v -0.01404681 -0.01084798 0.03650360
v -0.01415645 -0.00897495 0.03595916
v -0.01433399 -0.00897495 0.03508975
v -0.01501676 -0.01032448 0.03509340
v -0.01346309 -0.01611867 0.03236793
v -0.01501676 -0.01580879 0.03265516
v -0.01377271 -0.01116152 0.03236833
v -0.01005425 -0.01704831 0.03247746
v -0.00918958 -0.01729676 0.03268477
v -0.00916965 -0.01825024 0.03508975
v -0.00911607 -0.01810722 0.03416029
v -0.00911047 -0.01812739 0.03650360
v -0.00865695 -0.01689337 0.03354039
v -0.01317653 -0.01074804 0.03650360
v -0.01315286 -0.00897495 0.03629020
v -0.01416393 -0.00897495 0.03288438
v -0.01501676 -0.01032448 0.03385034
v -0.01005425 -0.01611867 0.03236346
v -0.01315286 -0.00897495 0.03235900
v -0.01501676 -0.01147140 0.03265516
v -0.00916155 -0.01611867 0.03250749
v -0.00865259 -0.01704831 0.03650360
v -0.00865259 -0.00897495 0.03323003
v -0.01005425 -0.01074804 0.03650360
v -0.00911732 -0.00897495 0.03610926
v -0.00918398 -0.01087823 0.03650360
v -0.01501676 -0.01062153 0.03286206
v -0.01005425 -0.00897495 0.03235900
v -0.00916155 -0.00897495 0.03250465
v -0.00865259 -0.00897495 0.03508975
v -0.00868747 -0.01182437 0.03650360
f 1 2 3
f 1 3 10
f 1 10 21
f 1 21 34
f 1 34 44
f 1 44 37
f 1 37 23
f 1 23 11
f 1 11 4
f 1 4 2
f 2 5 6
f 2 6 3
f 2 4 7
f 2 7 5
f 3 6 8
f 3 8 9
f 3 9 10
f 4 11 12
f 4 12 7
f 5 13 14
f 5 14 6
f 5 7 13
f 6 14 29
f 6 29 39
f 6 39 48
f 6 48 43
f 6 43 41
f 6 41 31
f 6 31 18
f 6 18 15
f 6 15 8
f 7 16 13
f 7 12 16
f 8 15 9
f 9 15 17
f 9 17 10
f 10 17 18
f 10 18 19
f 10 19 20
f 10 20 21
f 11 22 12
f 11 23 24
f 11 24 22
f 12 22 25
f 12 25 26
f 12 26 16
f 13 27 14
f 13 16 28
f 13 28 27
f 14 27 29
f 15 18 17
f 16 26 30
f 16 30 28
f 18 31 32
f 18 32 19
f 19 32 42
f 19 42 47
f 19 47 40
f 19 40 46
f 19 46 45
f 19 45 36
f 19 36 33
f 19 33 20
f 20 33 34
f 20 34 21
f 22 35 25
f 22 24 36
f 22 36 35
f 23 37 24
f 24 37 36
f 25 35 38
f 25 38 26
f 26 38 30
f 27 28 39
f 27 39 29
f 28 30 39
f 30 38 40
f 30 40 39
f 31 41 32
f 32 41 43
f 32 43 42
f 33 36 44
f 33 44 34
f 35 36 45
f 35 45 38
f 36 37 44
f 38 45 46
f 38 46 40
f 39 40 47
f 39 47 48
f 42 43 48
f 42 48 47

