# https://github.com/mikedh/trimesh
v -0.02555312 -0.01334283 0.02439629
v -0.02555312 -0.01334283 0.02515181
v -0.02555312 -0.01334017 0.02439607
v -0.02510242 -0.01416572 0.02439607
v -0.02510242 -0.01416572 0.02515181
v -0.02555312 -0.00963426 0.02515181
v -0.02555312 -0.00963426 0.02439607
v -0.02215292 -0.01416572 0.02439607
v -0.02215292 -0.01416572 0.02515181
v -0.02363949 -0.00963426 0.02515181
v -0.02363949 -0.00963426 0.02439607
v -0.02215292 -0.01147036 0.02439607
v -0.02215292 -0.01147036 0.02515181
v -0.02251408 -0.01044828 0.02515181
v -0.02251408 -0.01044828 0.02439607
v -0.02216657 -0.01131642 0.02439607
v -0.02215425 -0.01145217 0.02515181
v -0.02221750 -0.01083821 0.02515181
v -0.02228440 -0.01075038 0.02439607
v -0.02220884 -0.01085019 0.02439607
v -0.02220884 -0.01085019 0.02515181
f 1 2 6
f 1 6 7
f 1 7 3
f 1 3 4
f 1 4 5
f 1 5 2
f 2 5 9
f 2 9 13
f 2 13 17
f 2 17 21
f 2 21 18
f 2 18 14
f 2 14 10
f 2 10 6
f 3 7 11
f 3 11 15
f 3 15 19
f 3 19 20
f 3 20 16
f 3 16 12
f 3 12 8
f 3 8 4
f 4 8 9
f 4 9 5
f 6 10 11
f 6 11 7
f 8 12 13
f 8 13 9
f 10 14 15
f 10 15 11
f 12 16 17
f 12 17 13
f 14 18 15
f 15 18 19
f 16 20 17
f 17 20 21
f 18 21 20
f 18 20 19

