# https://github.com/mikedh/trimesh
v -0.01908488 -0.01764094 0.03385007
v -0.01501738 -0.01765170 0.03384645
v -0.01501738 -0.01765314 0.03446647
v -0.01908488 -0.01764094 0.03508974
v -0.01908488 -0.01763376 0.03349883
v -0.01908488 -0.01762802 0.03323005
v -0.01501738 -0.01763233 0.03322897
v -0.01501738 -0.01765314 0.03508974
v -0.01908488 -0.01763950 0.03570940
v -0.01908488 -0.01751753 0.03289038
v -0.01501738 -0.01748596 0.03279597
v -0.01501738 -0.01765170 0.03570940
v -0.01908488 -0.01757924 0.03590799
v -0.01908488 -0.01723915 0.03272254
v -0.01501738 -0.01704901 0.03266430
v -0.01501738 -0.01750533 0.03617242
v -0.01908488 -0.01749816 0.03616844
v -0.01908488 -0.01704901 0.03266611
v -0.01502097 -0.01643054 0.03265526
v -0.01501738 -0.01085064 0.03269432
v -0.01501738 -0.01704901 0.03633810
v -0.01908488 -0.01704901 0.03632905
v -0.01908488 -0.01642982 0.03265960
v -0.01505242 -0.01580920 0.03265526
v -0.01503610 -0.01146912 0.03265526
v -0.01908488 -0.01085064 0.03269649
v -0.01501738 -0.01044670 0.03282817
v -0.01501738 -0.01642982 0.03635076
v -0.01908488 -0.01642982 0.03634099
v -0.01908488 -0.01147127 0.03265960
v -0.01908488 -0.01045746 0.03282708
v -0.01501738 -0.01033836 0.03323005
v -0.01501738 -0.01209046 0.03635076
v -0.01908488 -0.01147127 0.03634099
v -0.01908488 -0.01038715 0.03314288
v -0.01908488 -0.01035916 0.03385007
v -0.01501738 -0.01032401 0.03385007
v -0.01501738 -0.01147127 0.03634823
v -0.01501738 -0.01085279 0.03629469
v -0.01908488 -0.01076383 0.03625743
v -0.01908488 -0.01035916 0.03508974
v -0.01501738 -0.01032329 0.03447045
v -0.01501738 -0.01043952 0.03613155
v -0.01908488 -0.01043091 0.03604039
v -0.01501738 -0.01032329 0.03508974
v -0.01908488 -0.01036060 0.03570940
v -0.01501738 -0.01033190 0.03570940
f 1 2 3
f 1 3 8
f 1 8 4
f 1 4 9
f 1 9 13
f 1 13 17
f 1 17 22
f 1 22 29
f 1 29 34
f 1 34 40
f 1 40 44
f 1 44 46
f 1 46 41
f 1 41 36
f 1 36 35
f 1 35 31
f 1 31 26
f 1 26 30
f 1 30 23
f 1 23 18
f 1 18 14
f 1 14 10
f 1 10 6
f 1 6 5
f 1 5 2
f 2 5 6
f 2 6 7
f 2 7 11
f 2 11 15
f 2 15 20
f 2 20 27
f 2 27 32
f 2 32 37
f 2 37 42
f 2 42 45
f 2 45 47
f 2 47 43
f 2 43 39
f 2 39 38
f 2 38 33
f 2 33 28
f 2 28 21
f 2 21 16
f 2 16 12
f 2 12 8
f 2 8 3
f 4 8 12
f 4 12 9
f 6 10 7
f 7 10 11
f 9 12 13
f 10 14 11
f 11 14 15
f 12 16 17
f 12 17 13
f 14 18 15
f 15 18 19
f 15 19 20
f 16 21 17
f 17 21 22
f 18 23 19
f 19 23 24
f 19 24 25
f 19 25 20
f 20 25 26
f 20 26 27
f 21 28 22
f 22 28 29
f 23 30 24
f 24 30 25
f 25 30 26
f 26 31 27
f 27 31 32
f 28 33 34
f 28 34 29
f 31 35 32
f 32 35 36
f 32 36 37
f 33 38 34
f 34 38 39
f 34 39 40
f 36 41 45
f 36 45 42
f 36 42 37
f 39 43 40
f 40 43 44
f 41 46 45
f 43 47 44
f 44 47 46
f 45 46 47

