# https://github.com/mikedh/trimesh
v -0.02650379 0.01429165 0.02465552
v -0.02549783 0.01460450 0.02465552
v -0.02650379 0.01429165 0.02516996
v -0.02650379 0.01894586 0.02465552
v -0.02549783 0.01460450 0.02516996
v -0.02549783 0.01898491 0.02465552
v -0.02650379 0.01884341 0.02516996
v -0.02650379 0.01891784 0.02488021
v -0.02627909 0.01897618 0.02465552
v -0.02549783 0.01884433 0.02516996
v -0.02565912 0.01898491 0.02465552
v -0.02549783 0.01885995 0.02511417
v -0.02617353 0.01884433 0.02516996
v -0.02650379 0.01890543 0.02492946
f 1 2 5
f 1 5 3
f 1 3 7
f 1 7 14
f 1 14 8
f 1 8 4
f 1 4 9
f 1 9 11
f 1 11 6
f 1 6 2
f 2 6 12
f 2 12 10
f 2 10 5
f 3 5 10
f 3 10 13
f 3 13 7
f 4 8 9
f 6 11 12
f 7 13 11
f 7 11 14
f 8 14 11
f 8 11 9
f 10 12 13
f 11 13 12

