# https://github.com/mikedh/trimesh
v -0.02943270 0.01209029 0.03265526
v -0.02943421 0.01147024 0.03385016
v -0.02943270 0.01400542 0.03265526
v -0.02943043 0.01147024 0.03265526
v -0.02943421 0.01400542 0.03385016
v -0.02935369 0.01085019 0.03265526
v -0.02935671 0.01085019 0.03385016
v -0.02943421 0.01147024 0.03508981
v -0.02649828 0.01400542 0.03265526
v -0.02943421 0.01400542 0.03508981
v -0.02913820 0.01047894 0.03265526
v -0.02912119 0.01044967 0.03265526
v -0.02935671 0.01085019 0.03508981
v -0.02934423 0.01085019 0.03570999
v -0.02941039 0.01147024 0.03570999
v -0.02943232 0.01400542 0.03514573
v -0.02649791 0.01400542 0.03371740
v -0.02557244 0.01334574 0.03510749
v -0.02557244 0.01334503 0.03265526
v -0.02865354 0.01035900 0.03265526
v -0.02912119 0.01044967 0.03508981
v -0.02912081 0.01045003 0.03570999
v -0.02906826 0.01048001 0.03609423
v -0.02914765 0.01085019 0.03615592
v -0.02941039 0.01400542 0.03570999
v -0.02917487 0.01147024 0.03618045
v -0.02649791 0.01400542 0.03508981
v -0.02557244 0.01333575 0.03571035
v -0.02557244 0.01035900 0.03265526
v -0.02865354 0.01035900 0.03508981
v -0.02865354 0.01035971 0.03570999
v -0.02865354 0.01045003 0.03613175
v -0.02865354 0.01085019 0.03629229
v -0.02865354 0.01147024 0.03634100
v -0.02917487 0.01400542 0.03618045
v -0.02652134 0.01400542 0.03572370
v -0.02557244 0.01317226 0.03615267
v -0.02557244 0.01035900 0.03508981
v -0.02557244 0.01035971 0.03570999
v -0.02557244 0.01045003 0.03613175
v -0.02557244 0.01085019 0.03629229
v -0.02865354 0.01400542 0.03634100
v -0.02557244 0.01147024 0.03634100
v -0.02682076 0.01400542 0.03618334
v -0.02557244 0.01270998 0.03631322
v -0.02735041 0.01400542 0.03632837
v -0.02741392 0.01400542 0.03634100
v -0.02557244 0.01209029 0.03634100
f 1 2 5
f 1 5 3
f 1 3 9
f 1 9 19
f 1 19 29
f 1 29 20
f 1 20 12
f 1 12 11
f 1 11 6
f 1 6 4
f 1 4 2
f 2 4 6
f 2 6 7
f 2 7 13
f 2 13 8
f 2 8 10
f 2 10 5
f 3 5 10
f 3 10 16
f 3 16 25
f 3 25 35
f 3 35 42
f 3 42 47
f 3 47 46
f 3 46 44
f 3 44 36
f 3 36 27
f 3 27 17
f 3 17 9
f 6 11 7
f 7 11 12
f 7 12 21
f 7 21 13
f 8 13 14
f 8 14 15
f 8 15 16
f 8 16 10
f 9 17 18
f 9 18 19
f 12 20 30
f 12 30 21
f 13 21 22
f 13 22 14
f 14 22 23
f 14 23 24
f 14 24 15
f 15 25 16
f 15 24 26
f 15 26 35
f 15 35 25
f 17 27 18
f 18 28 37
f 18 37 45
f 18 45 48
f 18 48 43
f 18 43 41
f 18 41 40
f 18 40 39
f 18 39 38
f 18 38 29
f 18 29 19
f 18 27 28
f 20 29 38
f 20 38 30
f 21 30 22
f 22 30 31
f 22 31 23
f 23 31 32
f 23 32 33
f 23 33 24
f 24 33 34
f 24 34 26
f 26 34 42
f 26 42 35
f 27 36 28
f 28 36 37
f 30 38 39
f 30 39 31
f 31 39 40
f 31 40 32
f 32 40 41
f 32 41 33
f 33 41 43
f 33 43 34
f 34 43 48
f 34 48 47
f 34 47 42
f 36 44 37
f 37 44 46
f 37 46 45
f 45 46 47
f 45 47 48

