# https://github.com/mikedh/trimesh
v -0.02650162 -0.01764100 0.03243510
v -0.02540546 -0.01764100 0.03243510
v -0.02650162 -0.01764100 0.03265526
v -0.02650162 -0.01450515 0.03243510
v -0.02540546 -0.01764100 0.03265526
v -0.02540546 -0.01454444 0.03243510
v -0.02650162 -0.01531190 0.03265526
v -0.02650162 -0.01450515 0.03265459
v -0.02623735 -0.01450515 0.03243510
v -0.02540546 -0.01454444 0.03265526
v -0.02619797 -0.01453646 0.03265526
v -0.02623735 -0.01450515 0.03265513
f 1 2 5
f 1 5 3
f 1 3 7
f 1 7 8
f 1 8 4
f 1 4 9
f 1 9 6
f 1 6 2
f 2 6 10
f 2 10 5
f 3 5 10
f 3 10 11
f 3 11 7
f 4 8 12
f 4 12 9
f 6 9 12
f 6 12 10
f 7 11 8
f 8 11 12
f 10 12 11

