# https://github.com/mikedh/trimesh
v -0.02943459 0.00940216 0.02516996
v -0.02550573 0.00940216 0.02516996
v -0.02943459 0.00940216 0.02517010
v -0.02943459 0.01376295 0.02516996
v -0.02550573 0.00940216 0.02634879
v -0.02550573 0.01326562 0.02516996
v -0.02938575 0.00940216 0.02579012
v -0.02943459 0.01147007 0.02655388
v -0.02943459 0.01376295 0.02655388
v -0.02646294 0.01376295 0.02516996
v -0.02550573 0.01011253 0.02655388
v -0.02865351 0.00940216 0.02634879
v -0.02555380 0.01334246 0.02516996
v -0.02550573 0.01336850 0.02517010
v -0.02922922 0.00940216 0.02607975
v -0.02938075 0.01085021 0.02655388
v -0.02939882 0.01099408 0.02655388
v -0.02943074 0.01141884 0.02655388
v -0.02646294 0.01376295 0.02655388
v -0.02803357 0.01011253 0.02655388
v -0.02550573 0.01336850 0.02655388
v -0.02882041 0.00940216 0.02630842
v -0.02863889 0.01011808 0.02655388
v -0.02865351 0.01011850 0.02655388
v -0.02917269 0.01029439 0.02655388
v -0.02915000 0.00940216 0.02622443
v -0.02936459 0.01080112 0.02655388
v -0.02922999 0.01039428 0.02655388
f 1 2 5
f 1 5 12
f 1 12 22
f 1 22 26
f 1 26 15
f 1 15 7
f 1 7 3
f 1 3 8
f 1 8 9
f 1 9 4
f 1 4 10
f 1 10 13
f 1 13 6
f 1 6 2
f 2 6 14
f 2 14 21
f 2 21 11
f 2 11 5
f 3 7 8
f 4 9 19
f 4 19 10
f 5 11 20
f 5 20 12
f 6 13 14
f 7 15 16
f 7 16 17
f 7 17 18
f 7 18 8
f 8 18 17
f 8 17 16
f 8 16 27
f 8 27 28
f 8 28 25
f 8 25 24
f 8 24 23
f 8 23 20
f 8 20 11
f 8 11 21
f 8 21 19
f 8 19 9
f 10 14 13
f 10 19 21
f 10 21 14
f 12 20 23
f 12 23 24
f 12 24 25
f 12 25 22
f 15 26 16
f 16 26 27
f 22 25 26
f 25 28 26
f 26 28 27

