# https://github.com/mikedh/trimesh
v -0.01814888 0.00248238 0.02702752
v -0.01628939 0.00337852 0.02619331
v -0.01755703 0.00437428 0.02597328
v -0.01824952 0.00455011 0.02599821
v -0.01838613 -0.00003251 0.02702752
v -0.01736628 0.00183369 0.02702752
v -0.01515546 0.00155043 0.02621650
v -0.01525101 0.00217295 0.02598246
v -0.01570262 0.00288408 0.02593391
v -0.01618112 0.00349421 0.02578955
v -0.01678097 0.00391886 0.02593172
v -0.01824952 0.00465707 0.02337834
v -0.01824952 0.00465753 0.02516969
v -0.01715192 0.00420763 0.02516969
v -0.01838613 0.00354562 0.02256075
v -0.01838613 -0.00003251 0.02437703
v -0.01594387 -0.00003251 0.02255900
v -0.01467442 0.00013919 0.02516969
v -0.01667052 0.00013965 0.02702752
v -0.01682529 0.00093020 0.02702752
v -0.01470276 0.00031778 0.02588010
v -0.01493855 0.00155043 0.02547984
v -0.01525356 0.00231114 0.02516969
v -0.01571171 0.00299013 0.02516969
v -0.01632936 0.00364249 0.02516969
v -0.01707453 0.00417228 0.02393040
v -0.01687325 0.00404878 0.02331053
v -0.01749708 0.00430174 0.02307213
v -0.01824952 0.00430404 0.02274535
v -0.01749344 0.00340927 0.02255900
v -0.01838613 0.00254803 0.02259881
v -0.01711849 -0.00003251 0.02271692
v -0.01838613 0.00176299 0.02282322
v -0.01563359 0.00093020 0.02255900
v -0.01481829 0.00022275 0.02296014
v -0.01473073 0.00079982 0.02331053
v -0.01472964 0.00079982 0.02516969
v -0.01484118 0.00125294 0.02393040
v -0.01492438 0.00155043 0.02331053
v -0.01544575 0.00262791 0.02393040
v -0.01568773 0.00288637 0.02314299
v -0.01631010 0.00351073 0.02302269
v -0.01687325 0.00364662 0.02273179
v -0.01656334 0.00278951 0.02258656
v -0.01625378 0.00217020 0.02255900
v -0.01537963 0.00155043 0.02268761
v -0.01497634 0.00087832 0.02282016
v -0.01532731 0.00222712 0.02306206
f 1 2 3
f 1 3 4
f 1 4 5
f 1 5 19
f 1 19 20
f 1 20 6
f 1 6 2
f 2 6 7
f 2 7 8
f 2 8 9
f 2 9 10
f 2 10 11
f 2 11 3
f 3 12 13
f 3 13 4
f 3 11 14
f 3 14 12
f 4 13 15
f 4 15 5
f 5 16 32
f 5 32 17
f 5 17 18
f 5 18 19
f 5 15 31
f 5 31 33
f 5 33 16
f 6 20 7
f 7 20 19
f 7 19 21
f 7 21 8
f 8 21 22
f 8 22 23
f 8 23 9
f 9 24 10
f 9 23 24
f 10 24 25
f 10 25 11
f 11 25 14
f 12 14 26
f 12 26 27
f 12 27 28
f 12 28 29
f 12 29 15
f 12 15 13
f 14 25 27
f 14 27 26
f 15 29 30
f 15 30 17
f 15 17 31
f 16 33 32
f 17 34 35
f 17 35 18
f 17 32 31
f 17 30 45
f 17 45 34
f 18 35 36
f 18 36 37
f 18 37 21
f 18 21 19
f 21 37 22
f 22 38 39
f 22 39 23
f 22 37 38
f 23 39 40
f 23 40 24
f 24 40 41
f 24 41 25
f 25 41 42
f 25 42 27
f 27 42 28
f 28 42 43
f 28 43 29
f 29 43 30
f 30 43 44
f 30 44 45
f 31 32 33
f 34 45 46
f 34 46 47
f 34 47 35
f 35 47 36
f 36 47 39
f 36 39 38
f 36 38 37
f 39 48 40
f 39 47 48
f 40 48 41
f 41 48 42
f 42 48 46
f 42 46 43
f 43 46 44
f 44 46 45
f 46 48 47

