# https://github.com/mikedh/trimesh
v -0.01771236 -0.00447390 0.02520556
v -0.01687343 -0.00404958 0.02516969
v -0.01767759 -0.00441955 0.02589804
v -0.01799373 -0.00003294 0.02702752
v -0.01799373 -0.00278968 0.02255900
v -0.01767045 -0.00443651 0.02320117
v -0.01707455 -0.00417218 0.02393040
v -0.01632920 -0.00364266 0.02516969
v -0.01618104 -0.00349441 0.02578955
v -0.01678116 -0.00391872 0.02593172
v -0.01687343 -0.00404828 0.02331053
v -0.01628956 -0.00337833 0.02619331
v -0.01777669 -0.00222755 0.02702752
v -0.01799373 -0.00003294 0.02410669
v -0.01667036 -0.00017162 0.02702752
v -0.01467442 -0.00017162 0.02516969
v -0.01563389 -0.00003294 0.02255900
v -0.01799373 -0.00217060 0.02262374
v -0.01687343 -0.00093026 0.02255900
v -0.01774355 -0.00340963 0.02255900
v -0.01773088 -0.00405523 0.02269898
v -0.01687343 -0.00364657 0.02273179
v -0.01571154 -0.00299053 0.02516969
v -0.01631003 -0.00351093 0.02302269
v -0.01568782 -0.00288619 0.02314299
v -0.01570244 -0.00288402 0.02593391
v -0.01525081 -0.00217321 0.02598246
v -0.01515561 -0.00155021 0.02621650
v -0.01716001 -0.00159934 0.02702752
v -0.01711907 -0.00003294 0.02271692
v -0.01797002 -0.00138153 0.02281972
v -0.01682535 -0.00093026 0.02702752
v -0.01470464 -0.00044291 0.02587135
v -0.01472965 -0.00079984 0.02516969
v -0.01484630 -0.00079810 0.02298595
v -0.01484792 -0.00017162 0.02294527
v -0.01563389 -0.00093026 0.02255900
v -0.01625415 -0.00003294 0.02255900
v -0.01625415 -0.00217060 0.02255900
v -0.01625415 -0.00278968 0.02261368
v -0.01525374 -0.00231102 0.02516969
v -0.01544609 -0.00262752 0.02393040
v -0.01532717 -0.00222712 0.02306206
v -0.01495482 -0.00155021 0.02578955
v -0.01492233 -0.00155021 0.02516969
v -0.01484110 -0.00125241 0.02393040
v -0.01492460 -0.00155021 0.02331053
v -0.01537981 -0.00155021 0.02268761
f 1 2 3
f 1 3 4
f 1 4 5
f 1 5 6
f 1 6 7
f 1 7 2
f 2 8 9
f 2 9 10
f 2 10 3
f 2 7 11
f 2 11 8
f 3 10 12
f 3 12 13
f 3 13 4
f 4 14 18
f 4 18 5
f 4 13 29
f 4 29 32
f 4 32 15
f 4 15 16
f 4 16 17
f 4 17 38
f 4 38 30
f 4 30 14
f 5 18 19
f 5 19 38
f 5 38 17
f 5 17 37
f 5 37 39
f 5 39 20
f 5 20 21
f 5 21 6
f 6 21 22
f 6 22 11
f 6 11 7
f 8 23 9
f 8 11 24
f 8 24 25
f 8 25 23
f 9 23 26
f 9 26 12
f 9 12 10
f 11 22 24
f 12 26 27
f 12 27 28
f 12 28 29
f 12 29 13
f 14 30 31
f 14 31 18
f 15 32 28
f 15 28 33
f 15 33 16
f 16 33 34
f 16 34 35
f 16 35 36
f 16 36 17
f 17 36 37
f 18 30 19
f 18 31 30
f 19 30 38
f 20 39 40
f 20 40 21
f 21 40 22
f 22 40 24
f 23 41 26
f 23 25 42
f 23 42 41
f 24 40 25
f 25 40 43
f 25 43 42
f 26 41 27
f 27 41 44
f 27 44 28
f 28 32 29
f 28 44 33
f 33 44 34
f 34 44 45
f 34 45 46
f 34 46 35
f 35 46 47
f 35 47 43
f 35 43 48
f 35 48 36
f 36 48 37
f 37 48 40
f 37 40 39
f 40 48 43
f 41 45 44
f 41 42 47
f 41 47 45
f 42 43 47
f 45 47 46

