# https://github.com/mikedh/trimesh
v -0.02431455 -0.00963382 0.02636132
v -0.02360789 -0.00274517 0.02633294
v -0.02360789 -0.00212655 0.02634037
v -0.02360789 -0.00084273 0.02634173
v -0.02360789 0.00030879 0.02634173
v -0.02431455 0.00940174 0.02634781
v -0.02865264 -0.00963382 0.02636132
v -0.02376359 -0.00963382 0.02601811
v -0.02360789 -0.00334702 0.02624309
v -0.02360789 0.00221123 0.02633970
v -0.02360789 0.00278886 0.02633227
v -0.02378469 0.00940174 0.02604243
v -0.02896291 0.00940174 0.02623971
v -0.02926862 -0.00963382 0.02601068
v -0.02364040 -0.00963382 0.02518509
v -0.02360789 -0.00380912 0.02578908
v -0.02360789 0.00338139 0.02623430
v -0.02365465 0.00940174 0.02527359
v -0.02941405 0.00940174 0.02542696
v -0.02943459 -0.00963382 0.02516888
v -0.02363983 -0.00963382 0.02083014
v -0.02360789 -0.00390414 0.02516888
v -0.02360789 0.00384908 0.02552897
v -0.02364952 0.00940174 0.02083014
v -0.02943459 0.00940174 0.02083014
v -0.02943459 -0.00963382 0.02083014
v -0.02372994 -0.00963382 0.01996064
v -0.02365066 0.00940174 0.02021061
v -0.02360789 -0.00217872 0.02207731
v -0.02360789 -0.00278989 0.02208609
v -0.02360789 -0.00340850 0.02222189
v -0.02360789 -0.00381843 0.02268805
v -0.02360789 -0.00390042 0.02330961
v -0.02360789 -0.00390414 0.02392914
v -0.02360789 0.00389566 0.02313598
v -0.02943002 0.00940174 0.02021061
v -0.02943002 -0.00963382 0.02021061
v -0.02430257 -0.00963382 0.01948096
v -0.02407158 0.00919491 0.01958567
v -0.02360789 0.00355468 0.02221648
v -0.02360789 0.00277768 0.02208541
v -0.02360789 0.00216838 0.02207731
v -0.02483015 0.00940174 0.01946204
v -0.02887850 0.00940174 0.01955122
v -0.02891842 -0.00963382 0.01956743
v -0.02492254 -0.00963382 0.01946001
v -0.02431455 -0.00898911 0.01947488
f 1 2 3
f 1 3 4
f 1 4 5
f 1 5 6
f 1 6 7
f 1 7 14
f 1 14 20
f 1 20 26
f 1 26 37
f 1 37 45
f 1 45 46
f 1 46 38
f 1 38 27
f 1 27 21
f 1 21 15
f 1 15 8
f 1 8 2
f 2 8 9
f 2 9 16
f 2 16 22
f 2 22 34
f 2 34 33
f 2 33 32
f 2 32 31
f 2 31 30
f 2 30 29
f 2 29 42
f 2 42 41
f 2 41 40
f 2 40 35
f 2 35 23
f 2 23 17
f 2 17 11
f 2 11 10
f 2 10 5
f 2 5 4
f 2 4 3
f 5 10 6
f 6 10 11
f 6 11 12
f 6 12 18
f 6 18 24
f 6 24 28
f 6 28 43
f 6 43 44
f 6 44 36
f 6 36 25
f 6 25 19
f 6 19 13
f 6 13 7
f 7 13 14
f 8 15 9
f 9 15 16
f 11 17 12
f 12 17 18
f 13 19 14
f 14 19 20
f 15 21 22
f 15 22 16
f 17 23 18
f 18 23 24
f 19 25 20
f 20 25 26
f 21 27 28
f 21 28 29
f 21 29 30
f 21 30 31
f 21 31 32
f 21 32 33
f 21 33 34
f 21 34 22
f 23 35 24
f 24 35 28
f 25 36 37
f 25 37 26
f 27 38 39
f 27 39 28
f 28 35 40
f 28 40 41
f 28 41 42
f 28 42 29
f 28 39 43
f 36 44 45
f 36 45 37
f 38 46 47
f 38 47 39
f 39 47 43
f 43 47 46
f 43 46 44
f 44 46 45

