# https://github.com/mikedh/trimesh
v -0.02865214 0.01700458 0.01945900
v -0.02865214 0.01767027 0.01945900
v -0.02803247 0.01700458 0.01945900
v -0.02919445 0.01700458 0.01968021
v -0.02919445 0.01767027 0.01968021
v -0.02865214 0.01828972 0.01950614
v -0.02617265 0.01908557 0.01947160
v -0.02555298 0.01908557 0.01945900
v -0.02120238 0.01899757 0.01945900
v -0.02491155 0.01702739 0.01945993
v -0.02426931 0.01700458 0.01946180
v -0.02943056 0.01700458 0.02021084
v -0.02943056 0.01767027 0.02021084
v -0.02938301 0.01828972 0.02021084
v -0.02912999 0.01848486 0.01974415
v -0.02865214 0.01872013 0.01972688
v -0.02676331 0.01908557 0.01967228
v -0.02371733 0.01908557 0.02422670
v -0.02120238 0.01899757 0.02414037
v -0.02120238 0.01828523 0.01948327
v -0.02307429 0.01700458 0.01946507
v -0.02364883 0.01700458 0.01946320
v -0.02943459 0.01700458 0.02083060
v -0.02943459 0.01767027 0.02083060
v -0.02938463 0.01828972 0.02083060
v -0.02914933 0.01872013 0.02021084
v -0.02865214 0.01884072 0.02021084
v -0.02697202 0.01908557 0.02021084
v -0.02318791 0.01887067 0.02422670
v -0.02665855 0.01908557 0.02409696
v -0.02896077 0.01876596 0.02422670
v -0.02204365 0.01749122 0.02422670
v -0.02120238 0.01829583 0.02411703
v -0.02120238 0.01781795 0.01970168
v -0.02239901 0.01700458 0.01970495
v -0.02943459 0.01700458 0.02422670
v -0.02943459 0.01767027 0.02422670
v -0.02938463 0.01828972 0.02422670
v -0.02697282 0.01908557 0.02330919
v -0.02697524 0.01908557 0.02269269
v -0.02697524 0.01908557 0.02083060
v -0.02211779 0.01700458 0.02407783
v -0.02120238 0.01782263 0.02385895
v -0.02120238 0.01765601 0.02021084
v -0.02208797 0.01700458 0.02021084
v -0.02206702 0.01700458 0.02330919
v -0.02120238 0.01765743 0.02331479
v -0.02206702 0.01700458 0.02076340
f 1 2 8
f 1 8 9
f 1 9 3
f 1 3 11
f 1 11 22
f 1 22 21
f 1 21 35
f 1 35 45
f 1 45 48
f 1 48 46
f 1 46 42
f 1 42 36
f 1 36 23
f 1 23 12
f 1 12 4
f 1 4 5
f 1 5 2
f 2 5 6
f 2 6 7
f 2 7 8
f 3 9 10
f 3 10 11
f 4 12 13
f 4 13 5
f 5 13 14
f 5 14 15
f 5 15 6
f 6 15 16
f 6 16 7
f 7 17 28
f 7 28 41
f 7 41 40
f 7 40 39
f 7 39 30
f 7 30 18
f 7 18 8
f 7 16 17
f 8 18 9
f 9 19 33
f 9 33 43
f 9 43 47
f 9 47 44
f 9 44 34
f 9 34 20
f 9 20 21
f 9 21 22
f 9 22 10
f 9 18 19
f 10 22 11
f 12 23 24
f 12 24 13
f 13 24 14
f 14 25 26
f 14 26 15
f 14 24 25
f 15 26 16
f 16 26 27
f 16 27 17
f 17 27 28
f 18 29 19
f 18 30 31
f 18 31 38
f 18 38 37
f 18 37 36
f 18 36 32
f 18 32 29
f 19 32 33
f 19 29 32
f 20 34 21
f 21 34 35
f 23 36 37
f 23 37 24
f 24 37 38
f 24 38 25
f 25 38 26
f 26 38 31
f 26 31 27
f 27 31 39
f 27 39 40
f 27 40 41
f 27 41 28
f 30 39 31
f 32 36 42
f 32 42 33
f 33 42 43
f 34 44 45
f 34 45 35
f 42 46 47
f 42 47 43
f 44 47 46
f 44 46 48
f 44 48 45

