# https://github.com/mikedh/trimesh
v -0.02943459 -0.01403709 0.02559356
v -0.02650251 -0.01403709 0.02559356
v -0.02943459 -0.01403709 0.02654280
v -0.02943459 -0.01147038 0.02559356
v -0.02650251 -0.01403709 0.02654280
v -0.02554848 -0.01334531 0.02559356
v -0.02943459 -0.01400131 0.02702668
v -0.02943459 -0.01147038 0.02702668
v -0.02942888 -0.01085015 0.02559356
v -0.02649756 -0.01400131 0.02702668
v -0.02554848 -0.01334531 0.02654280
v -0.02555571 -0.01334272 0.02702444
v -0.02554848 -0.00963382 0.02559356
v -0.02935661 -0.01085015 0.02702668
v -0.02938628 -0.00963382 0.02579012
v -0.02940111 -0.00963382 0.02559356
v -0.02555685 -0.01334272 0.02702668
v -0.02554848 -0.01331513 0.02654280
v -0.02555571 -0.01233586 0.02702668
v -0.02554848 -0.00963382 0.02636182
v -0.02912152 -0.01043853 0.02702668
v -0.02915157 -0.00963382 0.02623303
v -0.02554848 -0.01010793 0.02654266
v -0.02555571 -0.01032517 0.02702668
v -0.02865288 -0.00963382 0.02636182
v -0.02911772 -0.01043723 0.02702668
v -0.02803322 -0.01032517 0.02702668
v -0.02865326 -0.01033163 0.02702668
v -0.02864907 -0.01033120 0.02702668
f 1 2 5
f 1 5 3
f 1 3 7
f 1 7 8
f 1 8 4
f 1 4 9
f 1 9 16
f 1 16 13
f 1 13 6
f 1 6 2
f 2 6 11
f 2 11 5
f 3 5 10
f 3 10 7
f 4 8 9
f 5 11 12
f 5 12 10
f 6 13 20
f 6 20 23
f 6 23 18
f 6 18 11
f 7 10 17
f 7 17 19
f 7 19 24
f 7 24 27
f 7 27 29
f 7 29 28
f 7 28 26
f 7 26 21
f 7 21 14
f 7 14 8
f 8 14 15
f 8 15 16
f 8 16 9
f 10 12 17
f 11 18 24
f 11 24 19
f 11 19 12
f 12 19 17
f 13 16 15
f 13 15 22
f 13 22 25
f 13 25 20
f 14 21 22
f 14 22 15
f 18 23 24
f 20 25 27
f 20 27 24
f 20 24 23
f 21 26 22
f 22 26 25
f 25 26 28
f 25 28 29
f 25 29 27

