# https://github.com/mikedh/trimesh
v -0.02555303 -0.02076979 0.01945948
v -0.02555303 -0.02138995 0.01947640
v -0.02617352 -0.02138995 0.01948413
v -0.02617352 -0.02076979 0.01947446
v -0.02617352 -0.01903551 0.01947060
v -0.02604792 -0.01903551 0.01946770
v -0.02555303 -0.01903551 0.01945948
v -0.02120157 -0.02078185 0.01945948
v -0.02617352 -0.02187037 0.01969677
v -0.02120157 -0.02138995 0.01947640
v -0.02659870 -0.02181359 0.01976491
v -0.02665746 -0.02138995 0.01969580
v -0.02667647 -0.01903551 0.01962428
v -0.02120157 -0.01903551 0.01945948
v -0.02617352 -0.02204100 0.02021048
v -0.02120157 -0.02187037 0.01969677
v -0.02665688 -0.02187037 0.02021048
v -0.02683203 -0.02138995 0.02021048
v -0.02677557 -0.01903551 0.01966922
v -0.02706478 -0.01903551 0.02021048
v -0.02120157 -0.01903551 0.02414090
v -0.02617352 -0.02204100 0.02330968
v -0.02120157 -0.02204100 0.02021048
v -0.02665688 -0.02187037 0.02330968
v -0.02708725 -0.01903551 0.02083003
v -0.02683203 -0.02138995 0.02330968
v -0.02120157 -0.02076979 0.02414090
v -0.02415536 -0.01903551 0.02439559
v -0.02617352 -0.02187037 0.02386012
v -0.02659870 -0.02181359 0.02377990
v -0.02120157 -0.02204100 0.02330968
v -0.02708725 -0.01903551 0.02268965
v -0.02665746 -0.02138995 0.02386061
v -0.02691960 -0.01903551 0.02396306
v -0.02708437 -0.01903551 0.02330968
v -0.02120157 -0.02137789 0.02412109
v -0.02431321 -0.01909729 0.02439559
v -0.02120157 -0.02138995 0.02412061
v -0.02630718 -0.01903551 0.02439559
v -0.02555303 -0.02138995 0.02412061
v -0.02617352 -0.02138995 0.02411094
v -0.02120157 -0.02187037 0.02386012
v -0.02680034 -0.01903551 0.02411771
v -0.02460416 -0.01909905 0.02439559
v -0.02493312 -0.01910082 0.02439559
v -0.02617352 -0.01908670 0.02439559
v -0.02555303 -0.01910082 0.02439559
f 1 2 3
f 1 3 4
f 1 4 5
f 1 5 6
f 1 6 7
f 1 7 14
f 1 14 8
f 1 8 2
f 2 9 3
f 2 8 10
f 2 10 16
f 2 16 9
f 3 9 11
f 3 11 12
f 3 12 13
f 3 13 4
f 4 13 5
f 5 13 19
f 5 19 20
f 5 20 25
f 5 25 32
f 5 32 35
f 5 35 34
f 5 34 43
f 5 43 39
f 5 39 28
f 5 28 21
f 5 21 14
f 5 14 7
f 5 7 6
f 8 14 21
f 8 21 27
f 8 27 36
f 8 36 38
f 8 38 42
f 8 42 31
f 8 31 23
f 8 23 16
f 8 16 10
f 9 15 11
f 9 16 23
f 9 23 15
f 11 15 17
f 11 17 18
f 11 18 12
f 12 19 13
f 12 18 20
f 12 20 19
f 15 22 24
f 15 24 17
f 15 23 31
f 15 31 22
f 17 24 26
f 17 26 18
f 18 25 20
f 18 26 32
f 18 32 25
f 21 28 27
f 22 29 30
f 22 30 24
f 22 31 42
f 22 42 29
f 24 30 26
f 26 30 33
f 26 33 34
f 26 34 35
f 26 35 32
f 27 28 36
f 28 37 38
f 28 38 36
f 28 39 46
f 28 46 47
f 28 47 45
f 28 45 44
f 28 44 37
f 29 40 41
f 29 41 30
f 29 42 38
f 29 38 40
f 30 41 33
f 33 43 34
f 33 41 39
f 33 39 43
f 37 44 38
f 38 44 45
f 38 45 47
f 38 47 40
f 39 41 46
f 40 47 46
f 40 46 41

