# https://github.com/mikedh/trimesh
v -0.01662441 -0.00956201 0.01745012
v -0.01662441 -0.00829821 0.01745012
v -0.01097615 -0.00956201 0.01948709
v -0.01664122 -0.00956201 0.01774520
v -0.01663842 -0.00829821 0.01769499
v -0.01380028 -0.00956201 0.02017110
v -0.01097615 -0.00915118 0.01921634
v -0.01269326 -0.00829821 0.01969952
v -0.01357899 -0.00829821 0.02003129
v -0.01380028 -0.00829821 0.02010776
v -0.01097615 -0.00829821 0.01822335
v -0.01669892 -0.00956201 0.01876407
v -0.01669892 -0.00829821 0.01876407
v -0.01486921 -0.00829821 0.02020355
v -0.01511403 -0.00829821 0.02022286
v -0.01511403 -0.00956201 0.02022286
v -0.01097615 -0.00844653 0.01867215
v -0.01109772 -0.00829821 0.01867176
v -0.01659248 -0.00956201 0.01900160
v -0.01661041 -0.00829821 0.01896105
v -0.01601712 -0.00829821 0.01989649
v -0.01597454 -0.00956201 0.01991194
v -0.01622329 -0.00956201 0.01982195
v -0.01622329 -0.00829821 0.01982195
v -0.01639041 -0.00879808 0.01700000
v -0.01639019 -0.00956201 0.01700000
v -0.01639041 -0.00829821 0.01700000
v -0.01097615 -0.00956201 0.01700000
v -0.01097615 -0.00829821 0.01700000
f 15 16 6
f 19 13 12
f 19 23 24
f 24 23 22
f 22 16 15
f 12 13 5
f 2 1 5
f 26 1 25
f 20 19 24
f 13 19 20
f 21 22 15
f 24 22 21
f 12 5 4
f 4 5 1
f 18 8 7
f 7 8 3
f 7 17 18
f 10 6 3
f 18 17 11
f 3 8 9
f 9 10 3
f 15 6 14
f 6 10 14
f 28 26 25
f 25 27 29
f 25 29 28
f 2 27 25
f 25 1 2
f 4 28 3
f 3 6 4
f 16 22 4
f 4 26 28
f 4 6 16
f 4 19 12
f 4 1 26
f 23 19 4
f 4 22 23
f 3 28 11
f 28 29 11
f 11 7 3
f 17 7 11
f 14 20 24
f 2 5 14
f 14 27 2
f 14 21 15
f 29 27 14
f 14 9 8
f 14 5 13
f 14 8 18
f 13 20 14
f 24 21 14
f 14 11 29
f 18 11 14
f 10 9 14

