# https://github.com/mikedh/trimesh
v 0.04127714 -0.01248454 0.01876368
v 0.04134751 -0.01380005 0.01745051
v 0.04128780 -0.01380005 0.01876368
v 0.04166787 -0.01248454 0.01981770
v 0.04127714 0.01248311 0.01876368
v 0.04134751 0.01379592 0.01745051
v 0.04168067 -0.01380005 0.01980496
v 0.04271533 -0.01380005 0.02020586
v 0.04271533 -0.01248454 0.02021822
v 0.04219080 -0.00000207 0.02001816
v 0.04166787 0.01248311 0.01981770
v 0.04128780 0.01379592 0.01876368
v 0.04402772 -0.01380005 0.02022286
v 0.04271533 0.01248311 0.02021822
v 0.04271533 0.01379592 0.02020586
v 0.04168067 0.01379592 0.01980496
v 0.04534224 -0.01380005 0.02020625
v 0.04402772 0.01379592 0.02022286
v 0.04585131 -0.00000207 0.02000618
v 0.04534224 0.01379592 0.02020625
v 0.04600000 -0.01380005 0.01994750
v 0.04600000 -0.00403221 0.01994763
v 0.04600000 0.00402807 0.01994763
v 0.04600000 0.01379592 0.01994750
v 0.04154086 -0.01380005 0.01700000
v 0.04154086 0.01379592 0.01700000
v 0.04600000 -0.01380005 0.01700000
v 0.04600000 0.01379592 0.01700000
f 2 3 1
f 1 3 4
f 5 12 6
f 7 4 3
f 8 4 7
f 17 19 20
f 16 12 11
f 12 5 11
f 4 10 11
f 15 16 11
f 19 22 23
f 14 18 15
f 15 11 14
f 14 11 10
f 8 13 9
f 9 14 10
f 9 4 8
f 9 10 4
f 26 27 25
f 28 27 26
f 6 26 2
f 2 26 25
f 6 2 5
f 5 2 1
f 11 5 1
f 1 4 11
f 22 17 21
f 19 17 22
f 18 24 28
f 18 26 6
f 28 26 18
f 18 16 15
f 6 12 18
f 18 12 16
f 18 20 24
f 21 27 23
f 23 27 28
f 28 24 23
f 23 22 21
f 24 20 23
f 20 19 23
f 13 27 21
f 13 2 25
f 25 27 13
f 3 2 13
f 13 7 3
f 8 7 13
f 21 17 13
f 20 18 13
f 13 17 20
f 9 13 18
f 18 14 9

