# https://github.com/mikedh/trimesh
v -0.04005115 -0.02447274 0.02088291
v -0.03754099 -0.02447274 0.02088291
v -0.04005115 -0.02096956 0.02088291
v -0.03754099 -0.02030208 0.02047941
v -0.03754099 -0.02447274 0.01750974
v -0.03754099 -0.02096956 0.02088291
v -0.04005115 -0.02030208 0.02047941
v -0.04005115 -0.02030208 0.02037932
v -0.04005115 -0.02447274 0.01700000
v -0.03754099 -0.02030208 0.01700000
v -0.03754099 -0.02355319 0.01700000
v -0.03837753 -0.02447274 0.01700000
v -0.04005115 -0.02030376 0.01700000
v -0.03905386 -0.02030208 0.01700000
f 11 5 12
f 8 14 13
f 2 5 6
f 6 10 4
f 6 5 11
f 11 10 6
f 6 3 1
f 1 2 6
f 7 3 6
f 4 7 6
f 1 9 12
f 12 2 1
f 12 5 2
f 14 10 11
f 14 12 9
f 11 12 14
f 9 13 14
f 1 3 8
f 8 9 1
f 8 3 7
f 8 13 9
f 4 10 8
f 8 7 4
f 10 14 8

