# https://github.com/mikedh/trimesh
v -0.04534258 0.01747430 0.02077455
v -0.04402867 0.01757780 0.02077455
v -0.04534258 0.01773525 0.02189484
v -0.04291848 0.01794556 0.02077455
v -0.04402867 0.01793344 0.02189484
v -0.04320914 0.01826707 0.02189484
v -0.04370559 0.01805236 0.02189484
v -0.04146772 0.02078082 0.02077455
v -0.04146772 0.02114087 0.02189484
v -0.04600000 0.01774354 0.02077455
v -0.04600000 0.01786851 0.02151594
v -0.04600000 0.01795677 0.02189484
v -0.04146772 0.02800000 0.02077455
v -0.04146772 0.02800000 0.02189484
v -0.04600000 0.02800000 0.02077455
v -0.04600000 0.02800000 0.02189484
f 9 4 8
f 4 9 6
f 3 1 2
f 10 1 11
f 3 2 5
f 5 2 4
f 4 6 7
f 7 5 4
f 13 15 14
f 14 15 16
f 8 13 14
f 14 9 8
f 2 13 8
f 10 15 2
f 8 4 2
f 2 15 13
f 2 1 10
f 11 15 10
f 16 15 11
f 11 12 16
f 3 12 11
f 11 1 3
f 16 12 7
f 7 12 3
f 7 14 16
f 7 6 9
f 9 14 7
f 3 5 7

