# https://github.com/mikedh/trimesh
v 0.00573908 0.02114620 0.02189495
v 0.00573908 0.02113729 0.02219842
v -0.04139323 0.02114397 0.02189669
v -0.04066428 0.02114472 0.02189495
v -0.04137939 0.02113729 0.02219378
v -0.04139323 0.02113729 0.02219378
v 0.00573908 0.02800000 0.02189495
v -0.04139323 0.02800000 0.02189510
v -0.04132989 0.02800000 0.02189495
v 0.00573908 0.02113729 0.02410000
v -0.04139323 0.02113729 0.02410000
v 0.00573908 0.02800000 0.02410000
v -0.04139323 0.02800000 0.02410000
f 3 1 2
f 4 1 3
f 5 6 3
f 3 2 5
f 12 2 1
f 1 7 12
f 10 2 12
f 12 11 10
f 13 11 12
f 4 7 1
f 4 9 7
f 8 12 7
f 7 9 8
f 13 12 8
f 9 4 8
f 8 4 3
f 6 11 13
f 13 8 6
f 6 8 3
f 5 2 10
f 10 11 5
f 11 6 5

