# https://github.com/mikedh/trimesh
v -0.00252424 -0.00956253 0.01876368
v -0.00271715 -0.00956253 0.01745051
v -0.00355810 -0.00956253 0.01965510
v 0.00215811 -0.00965961 0.01876368
v -0.00460133 -0.00956253 0.01990924
v 0.00215811 -0.01000121 0.01964042
v 0.00215811 -0.00966636 0.01855782
v 0.00215811 -0.00971880 0.01745051
v -0.00591987 -0.00956253 0.02012476
v 0.00215811 -0.01007545 0.01980303
v -0.00723093 -0.00956253 0.02020123
v 0.00215811 -0.01098759 0.02014947
v -0.01511225 -0.00956253 0.02022286
v -0.00723093 -0.00985793 0.02022286
v -0.00591613 -0.00985793 0.02020818
v 0.00215811 -0.01117188 0.02021050
v -0.01511225 -0.01248532 0.02022286
v -0.01622291 -0.00956253 0.01982195
v -0.01617608 -0.01486560 0.01986251
v 0.00215811 -0.01229635 0.02022286
v -0.01511225 -0.01486560 0.02019119
v -0.01379745 -0.01486560 0.02022286
v -0.01659187 -0.00956253 0.01900122
v -0.01697395 -0.01486560 0.01876368
v -0.01640833 -0.01486560 0.01977715
v 0.00215811 -0.01478462 0.02022286
v 0.00003607 -0.01486560 0.02022286
v -0.01669863 -0.00956253 0.01876368
v -0.01685783 -0.01486560 0.01745051
v -0.01662371 -0.00956253 0.01745051
v -0.00321737 -0.00956253 0.01700000
v -0.00265969 -0.00957837 0.01700000
v -0.00255798 -0.00958131 0.01700000
v -0.00110663 -0.00963019 0.01700000
v -0.00098915 -0.00963617 0.01700000
v 0.00215811 -0.00992450 0.01700000
v 0.00215811 -0.01478462 0.01700000
v 0.00003607 -0.01486560 0.01700000
v -0.01661161 -0.01486560 0.01700000
v -0.01650847 -0.01225563 0.01700000
v -0.01638958 -0.00956253 0.01700000
f 2 1 4
f 24 28 30
f 35 8 36
f 25 19 18
f 18 19 13
f 24 25 18
f 21 22 17
f 17 19 21
f 13 19 17
f 4 1 3
f 24 30 29
f 29 40 39
f 23 28 24
f 24 18 23
f 9 10 5
f 4 3 5
f 12 10 9
f 9 11 12
f 12 11 16
f 14 11 13
f 14 20 16
f 8 35 34
f 4 5 6
f 6 5 10
f 16 11 15
f 15 14 16
f 11 14 15
f 29 30 41
f 41 40 29
f 38 25 24
f 38 27 22
f 38 22 21
f 21 19 38
f 38 19 25
f 24 29 38
f 38 29 39
f 37 26 38
f 26 27 38
f 31 41 5
f 5 2 31
f 41 30 5
f 5 18 13
f 1 2 5
f 13 11 5
f 5 30 28
f 5 3 1
f 5 11 9
f 28 23 5
f 5 23 18
f 26 20 14
f 14 27 26
f 13 17 14
f 14 17 22
f 22 27 14
f 34 7 8
f 34 33 7
f 32 41 31
f 32 36 37
f 32 34 35
f 32 40 41
f 32 35 36
f 39 40 32
f 37 38 32
f 32 38 39
f 33 34 32
f 31 2 32
f 32 2 4
f 4 7 32
f 7 33 32
f 6 26 37
f 6 7 4
f 37 36 6
f 6 20 26
f 36 8 6
f 16 20 6
f 8 7 6
f 6 12 16
f 10 12 6

