# https://github.com/mikedh/trimesh
v 0.04578271 0.01807207 0.02402217
v 0.04138104 0.02114498 0.02189495
v 0.04320957 0.01826816 0.02189495
v 0.04427940 0.01789293 0.02189495
v 0.04588624 0.01793321 0.02230171
v 0.04600000 0.02261282 0.02189495
v 0.04600000 0.01963877 0.02189495
v 0.04600000 0.01811622 0.02258167
v 0.04600000 0.01826486 0.02224640
v 0.04600000 0.01809097 0.02230171
v 0.04138104 0.02800000 0.02189495
v 0.04426198 0.02800000 0.02189495
v 0.04600000 0.02800000 0.02222572
v 0.04567862 0.01808673 0.02410000
v 0.04576890 0.01808544 0.02410000
v 0.04538753 0.01809348 0.02410000
v 0.04138104 0.01905755 0.02410000
v 0.04186294 0.01829939 0.02410000
v 0.04214488 0.01820050 0.02410000
v 0.04579171 0.01809261 0.02410000
v 0.04596907 0.01827736 0.02410000
v 0.04600000 0.01831706 0.02410000
v 0.04138104 0.02800000 0.02410000
v 0.04600000 0.02800000 0.02410000
f 12 13 6
f 14 16 1
f 5 1 4
f 5 9 10
f 14 1 15
f 1 20 15
f 8 5 10
f 23 11 2
f 2 17 23
f 24 13 12
f 12 23 24
f 11 23 12
f 2 3 18
f 18 17 2
f 18 3 4
f 4 19 18
f 7 3 2
f 2 11 7
f 7 12 6
f 4 3 7
f 11 12 7
f 1 16 19
f 1 19 4
f 4 7 5
f 7 9 5
f 8 13 24
f 6 13 8
f 24 22 8
f 10 9 8
f 8 7 6
f 8 9 7
f 21 22 24
f 17 18 21
f 24 23 21
f 21 16 14
f 21 23 17
f 19 16 21
f 21 18 19
f 14 15 21
f 21 15 20
f 21 8 22
f 5 8 21
f 21 20 1
f 1 5 21

