# https://github.com/mikedh/trimesh
v 0.03242379 0.02114623 0.02189495
v 0.03242379 0.02041694 0.02054439
v -0.02910051 0.02114623 0.02189495
v -0.02910051 0.02041694 0.02054439
v 0.03242379 0.02800000 0.02189495
v -0.02910051 0.02800000 0.02189495
v 0.03242379 0.02041694 0.01700000
v -0.02910051 0.02041694 0.01700000
v 0.03242379 0.02800000 0.01700000
v -0.02910051 0.02800000 0.01700000
f 1 5 6
f 3 1 6
f 1 2 9
f 9 5 1
f 9 2 7
f 9 6 5
f 10 6 9
f 9 8 10
f 7 8 9
f 3 6 4
f 4 6 10
f 10 8 4
f 4 2 1
f 4 1 3
f 7 2 4
f 4 8 7

