# https://github.com/mikedh/trimesh
v -0.00628242 0.00764237 0.01876407
v -0.00631709 0.00764237 0.01745012
v -0.00645271 0.00764237 0.01948825
v -0.00939245 0.00315552 0.01876909
v -0.00939143 0.00315552 0.01876407
v -0.00943528 0.00315552 0.01746982
v -0.00943630 0.00315552 0.01745012
v -0.00654856 0.00764237 0.01962111
v -0.00985437 0.00315552 0.01977715
v -0.00916812 0.00385787 0.01947126
v -0.00686568 0.00764237 0.01979298
v -0.01001344 0.00315552 0.01983779
v -0.00812907 0.00764237 0.02014484
v -0.01117179 0.00315552 0.02022131
v -0.00854306 0.00764237 0.02016956
v -0.00985742 0.00591396 0.02020857
v -0.00944343 0.00764237 0.02022286
v -0.01117179 0.00328597 0.02022286
v -0.01130231 0.00315552 0.02022286
v -0.01511388 0.00764237 0.02022286
v -0.01511388 0.00315552 0.02022286
v -0.01622329 0.00764237 0.01982195
v -0.01522400 0.00315552 0.02018308
v -0.01657712 0.00315552 0.01735974
v -0.01662403 0.00764237 0.01745012
v -0.01669948 0.00764237 0.01876407
v -0.01622329 0.00315552 0.01982195
v -0.01662403 0.00315552 0.01745012
v -0.01669948 0.00315552 0.01876407
v -0.00647953 0.00764237 0.01700000
v -0.00783665 0.00569022 0.01700000
v -0.00926711 0.00364042 0.01700000
v -0.00966898 0.00315552 0.01700000
v -0.01638984 0.00511295 0.01700000
v -0.01638984 0.00315552 0.01700000
v -0.01638977 0.00764237 0.01700000
f 10 9 4
f 32 7 33
f 5 2 1
f 1 4 5
f 3 4 1
f 3 10 4
f 9 10 3
f 35 24 34
f 25 24 28
f 20 22 23
f 23 21 20
f 7 32 31
f 6 7 2
f 2 5 6
f 11 13 14
f 8 11 9
f 9 3 8
f 27 23 22
f 9 11 12
f 11 14 12
f 17 14 16
f 16 14 13
f 17 16 15
f 15 16 13
f 18 19 14
f 18 14 17
f 36 34 25
f 25 34 24
f 25 28 29
f 25 29 26
f 31 36 30
f 31 33 35
f 35 34 31
f 31 32 33
f 31 34 36
f 30 2 31
f 2 7 31
f 27 22 26
f 26 29 27
f 4 9 19
f 19 5 4
f 35 33 19
f 19 24 35
f 29 28 19
f 33 7 19
f 28 24 19
f 7 6 19
f 19 27 29
f 21 23 19
f 19 6 5
f 9 12 19
f 23 27 19
f 19 12 14
f 15 3 1
f 1 2 15
f 11 8 15
f 15 2 30
f 30 36 15
f 15 20 17
f 26 22 15
f 15 22 20
f 15 13 11
f 36 25 15
f 15 25 26
f 15 8 3
f 17 20 18
f 21 19 18
f 20 21 18

