# https://github.com/mikedh/trimesh
v -0.03944489 -0.01736159 0.02010589
v -0.01824144 -0.01736159 0.02011067
v -0.03944489 -0.01579771 0.01745006
v -0.03944489 -0.01635723 0.01980145
v -0.01874376 -0.01736159 0.02011067
v -0.01824144 -0.01675352 0.01993161
v -0.03944489 -0.01577497 0.01876235
v -0.01824144 -0.01570270 0.01876419
v -0.01824144 -0.01577367 0.01752617
v -0.01824144 -0.01578050 0.01745006
v -0.03944489 -0.01607349 0.01934257
v -0.01824144 -0.01663349 0.01989484
v -0.01824144 -0.01634131 0.01980512
v -0.01824144 -0.01574931 0.01888920
v -0.03944489 -0.01577530 0.01876419
v -0.03944489 -0.01736159 0.01700000
v -0.01824144 -0.01736159 0.01700000
v -0.03944489 -0.01609623 0.01700000
v -0.02235898 -0.01606745 0.01700000
v -0.01824144 -0.01606410 0.01700000
f 1 6 4
f 3 7 8
f 2 6 5
f 5 6 1
f 13 4 12
f 12 4 6
f 14 4 13
f 18 3 19
f 4 14 11
f 9 10 3
f 9 3 8
f 15 11 14
f 15 14 8
f 8 7 15
f 5 17 2
f 16 17 5
f 1 16 5
f 19 17 16
f 16 18 19
f 19 20 17
f 10 19 3
f 20 19 10
f 13 12 9
f 2 17 9
f 9 6 2
f 8 14 9
f 17 20 9
f 9 12 6
f 9 14 13
f 20 10 9
f 15 16 1
f 15 18 16
f 1 4 15
f 7 3 15
f 15 3 18
f 4 11 15

