# https://github.com/mikedh/trimesh
v 0.03842137 -0.02031740 0.02048607
v 0.04277445 -0.01780543 0.02048607
v 0.03842137 -0.01755412 0.02016433
v 0.04534144 -0.01736398 0.02048483
v 0.04402748 -0.01739178 0.02047824
v 0.04600000 -0.01795182 0.02048607
v 0.04600000 -0.01772538 0.02048557
v 0.04600000 -0.01736332 0.02012516
v 0.04600000 -0.01736286 0.01943830
v 0.03842137 -0.02800000 0.02048607
v 0.04600000 -0.02800000 0.02048607
v 0.04191571 -0.01739841 0.01700000
v 0.04316476 -0.01736305 0.01700000
v 0.04293949 -0.01736783 0.01700000
v 0.03842137 -0.01754132 0.01700000
v 0.04346470 -0.01736286 0.01700000
v 0.04600000 -0.01736286 0.01700000
v 0.03842137 -0.02800000 0.01700000
v 0.04600000 -0.02800000 0.01700000
f 2 3 1
f 15 3 12
f 3 2 5
f 2 4 5
f 7 8 4
f 16 9 17
f 1 10 2
f 2 11 6
f 10 11 2
f 18 11 10
f 19 11 18
f 15 10 1
f 1 3 15
f 15 18 10
f 7 2 6
f 7 4 2
f 6 11 9
f 9 11 19
f 19 17 9
f 9 7 6
f 8 7 9
f 12 3 14
f 3 5 14
f 4 13 14
f 14 5 4
f 16 17 19
f 19 18 16
f 18 15 16
f 16 15 12
f 12 14 16
f 16 14 13
f 8 9 16
f 16 13 4
f 4 8 16

