# https://github.com/mikedh/trimesh
v -0.04005114 -0.02447274 0.02088291
v -0.03740398 -0.02447274 0.02088291
v -0.03740398 -0.02447274 0.01752686
v -0.04005114 -0.02800000 0.02088291
v -0.03740398 -0.02800000 0.02088291
v -0.04005114 -0.02447274 0.01700000
v -0.03740398 -0.02540182 0.01700000
v -0.03832814 -0.02447274 0.01700000
v -0.03740398 -0.02800000 0.01700000
v -0.04005114 -0.02800000 0.01700000
f 3 7 8
f 1 4 5
f 5 2 1
f 10 4 1
f 1 6 10
f 10 5 4
f 9 5 10
f 2 5 7
f 7 3 2
f 7 5 9
f 1 2 8
f 8 6 1
f 2 3 8
f 8 10 6
f 9 10 8
f 8 7 9

