# https://github.com/mikedh/trimesh
v -0.01685359 0.01467203 0.01876402
v -0.01685359 0.01532761 0.01967494
v -0.01908342 0.01643315 0.01982192
v -0.01908342 0.01641998 0.01980071
v -0.01908342 0.01577915 0.01876402
v -0.01908342 0.01577967 0.01873797
v -0.01908342 0.01581574 0.01745011
v -0.01685359 0.01485475 0.01745011
v -0.01685359 0.01639023 0.01999272
v -0.01908342 0.01736175 0.02010621
v -0.01685359 0.01736175 0.02011067
v -0.01777556 0.01736175 0.02011067
v -0.01908342 0.01613745 0.01700000
v -0.01795047 0.01564918 0.01700000
v -0.01685359 0.01518582 0.01700000
v -0.01908342 0.01736175 0.01700000
v -0.01685359 0.01736175 0.01700000
f 3 1 2
f 4 1 3
f 4 5 1
f 2 9 10
f 3 2 10
f 15 8 14
f 7 8 1
f 12 9 11
f 12 10 9
f 1 5 6
f 6 7 1
f 11 9 17
f 17 2 1
f 1 8 17
f 17 8 15
f 17 9 2
f 13 16 14
f 16 17 14
f 14 17 15
f 13 14 7
f 7 14 8
f 16 10 12
f 11 17 12
f 12 17 16
f 3 10 6
f 6 4 3
f 6 16 13
f 5 4 6
f 6 10 16
f 13 7 6

