# https://github.com/mikedh/trimesh
v 0.04031870 -0.01556121 0.01745032
v 0.04134768 -0.01380023 0.01745032
v 0.04009747 -0.01556121 0.01874912
v 0.04009552 -0.01556121 0.01876419
v 0.04128799 -0.01380023 0.01876419
v 0.04042770 -0.01556121 0.01938383
v 0.04167986 -0.01380023 0.01980516
v 0.04057822 -0.01556121 0.01955893
v 0.04271467 -0.01380023 0.02020563
v 0.04091040 -0.01556121 0.01976999
v 0.04226765 -0.01556121 0.02014881
v 0.04271467 -0.01556121 0.02019906
v 0.04358144 -0.01556121 0.02021838
v 0.04402846 -0.01556121 0.02022573
v 0.04402846 -0.01380023 0.02022264
v 0.04534224 -0.01380023 0.02020640
v 0.04534224 -0.01556121 0.02021104
v 0.04600000 -0.01380023 0.01994755
v 0.04600000 -0.01552187 0.01995244
v 0.04600000 -0.01556121 0.01995255
v 0.04101800 -0.01469450 0.01700000
v 0.04063808 -0.01556121 0.01700000
v 0.04154054 -0.01380023 0.01700000
v 0.04600000 -0.01380023 0.01700000
v 0.04600000 -0.01556121 0.01700000
f 4 2 3
f 2 1 3
f 5 2 4
f 4 7 5
f 7 10 9
f 6 7 4
f 1 21 22
f 8 10 7
f 7 6 8
f 18 16 19
f 11 9 10
f 11 12 9
f 9 14 15
f 9 12 13
f 13 14 9
f 16 15 17
f 17 15 14
f 20 25 19
f 19 24 18
f 25 24 19
f 25 22 23
f 23 22 21
f 23 24 25
f 23 1 2
f 23 21 1
f 2 5 15
f 15 16 18
f 15 5 7
f 7 9 15
f 24 23 15
f 18 24 15
f 15 23 2
f 4 3 17
f 17 11 10
f 17 3 1
f 17 25 20
f 17 6 4
f 1 22 17
f 10 8 17
f 17 22 25
f 17 8 6
f 12 11 17
f 17 13 12
f 14 13 17
f 20 19 17
f 17 19 16

