# https://github.com/mikedh/trimesh
v -0.04578310 -0.01807207 0.02402217
v -0.04320939 -0.01826816 0.02189495
v -0.04427928 -0.01789293 0.02189495
v -0.04136240 -0.02114498 0.02189495
v -0.04588647 -0.01793321 0.02230171
v -0.04600000 -0.01811590 0.02258118
v -0.04600000 -0.01809081 0.02230171
v -0.04600000 -0.01963881 0.02189495
v -0.04600000 -0.01826428 0.02224650
v -0.04600000 -0.02261243 0.02189495
v -0.04136240 -0.02800000 0.02189495
v -0.04426155 -0.02800000 0.02189495
v -0.04600000 -0.02800000 0.02222568
v -0.04567860 -0.01808673 0.02410000
v -0.04576928 -0.01808544 0.02410000
v -0.04538727 -0.01809323 0.02410000
v -0.04185021 -0.01829780 0.02410000
v -0.04213278 -0.01819870 0.02410000
v -0.04136240 -0.01905761 0.02410000
v -0.04579207 -0.01809261 0.02410000
v -0.04596894 -0.01827736 0.02410000
v -0.04600000 -0.01831721 0.02410000
v -0.04136240 -0.02800000 0.02410000
v -0.04600000 -0.02800000 0.02410000
f 5 1 3
f 6 5 7
f 16 1 14
f 10 12 13
f 14 1 15
f 1 20 15
f 9 7 5
f 17 19 2
f 2 19 4
f 18 2 3
f 17 2 18
f 24 13 23
f 23 12 11
f 13 12 23
f 23 11 4
f 4 19 23
f 16 18 3
f 3 1 16
f 10 2 4
f 4 11 10
f 8 3 10
f 3 2 10
f 11 12 10
f 21 22 24
f 21 16 14
f 24 23 21
f 21 19 17
f 17 18 21
f 21 23 19
f 14 15 21
f 18 16 21
f 21 15 20
f 6 22 21
f 21 5 6
f 21 20 1
f 1 5 21
f 9 22 6
f 9 13 24
f 24 22 9
f 6 7 9
f 8 10 9
f 9 10 13
f 9 3 8
f 9 5 3

