# https://github.com/mikedh/trimesh
v 0.01669948 0.00512727 0.01876407
v 0.01669948 0.00000000 0.01876407
v 0.01662426 0.00512727 0.01745012
v 0.01622307 0.00512727 0.01982195
v 0.01662426 0.00000000 0.01745012
v 0.01622307 0.00000000 0.01982195
v 0.01566900 0.00000000 0.02002240
v 0.01511413 0.00512727 0.02022286
v 0.01511413 0.00000000 0.02022286
v 0.01117178 0.00512727 0.02022286
v 0.01248617 0.00000000 0.02022286
v 0.00985739 0.00512727 0.02011085
v 0.01117178 0.00328534 0.02022286
v 0.01117178 0.00197191 0.02020818
v 0.01117178 0.00000000 0.02018230
v 0.00879537 0.00512727 0.01971806
v 0.01019792 0.00000000 0.01978140
v 0.00843705 0.00512727 0.01876407
v 0.00988085 0.00000000 0.01876407
v 0.00845403 0.00512727 0.01812872
v 0.00992453 0.00000000 0.01745012
v 0.00858507 0.00512727 0.01705501
v 0.00847264 0.00512727 0.01745012
v 0.01639029 0.00512727 0.01700000
v 0.01639029 0.00000000 0.01700000
v 0.01008191 0.00000000 0.01700000
v 0.00876313 0.00457613 0.01700000
v 0.00861416 0.00512727 0.01700000
f 18 19 17
f 20 19 18
f 20 23 19
f 19 23 21
f 18 17 16
f 16 17 15
f 15 12 16
f 7 4 8
f 6 4 7
f 8 9 7
f 22 21 23
f 13 10 12
f 27 22 28
f 14 12 15
f 14 13 12
f 13 14 11
f 11 14 15
f 5 3 1
f 1 2 5
f 24 3 5
f 5 25 24
f 4 6 2
f 4 2 1
f 22 4 1
f 1 3 22
f 22 10 8
f 22 3 24
f 24 28 22
f 18 16 22
f 8 4 22
f 22 20 18
f 23 20 22
f 12 10 22
f 22 16 12
f 27 28 24
f 27 25 26
f 24 25 27
f 26 21 27
f 21 22 27
f 8 10 11
f 11 9 8
f 10 13 11
f 11 21 26
f 11 5 2
f 26 25 11
f 2 6 11
f 11 17 19
f 25 5 11
f 15 17 11
f 6 7 11
f 19 21 11
f 11 7 9

