# https://github.com/mikedh/trimesh
v -0.03480397 -0.02447274 0.02088291
v -0.03480397 -0.02120675 0.02088291
v -0.03754099 -0.02447274 0.02088291
v -0.03754099 -0.02447274 0.01750974
v -0.03754099 -0.02030208 0.02047941
v -0.03480397 -0.02030208 0.02041224
v -0.03482861 -0.02096956 0.02088291
v -0.03480397 -0.02096956 0.02088246
v -0.03754099 -0.02096956 0.02088291
v -0.03480397 -0.02030208 0.02047941
v -0.03480397 -0.02447274 0.01700000
v -0.03664175 -0.02447274 0.01700000
v -0.03754099 -0.02355319 0.01700000
v -0.03754099 -0.02030208 0.01700000
v -0.03480397 -0.02030343 0.01700000
v -0.03482430 -0.02030208 0.01700000
f 2 8 7
f 7 8 10
f 12 4 13
f 6 15 16
f 14 4 3
f 3 9 14
f 14 9 5
f 13 4 14
f 2 9 3
f 3 1 2
f 7 9 2
f 5 9 10
f 10 9 7
f 12 1 3
f 12 11 1
f 3 4 12
f 6 10 15
f 1 11 15
f 15 2 1
f 8 2 15
f 15 10 8
f 16 14 5
f 16 10 6
f 5 10 16
f 13 14 16
f 11 12 16
f 16 12 13
f 16 15 11

