# https://github.com/mikedh/trimesh
v 0.01785247 0.01550917 0.01876407
v 0.01782456 0.01550917 0.01853311
v 0.01742521 0.01550917 0.01941409
v 0.01622367 0.00787405 0.01982195
v 0.01669801 0.00787405 0.01876407
v 0.01666139 0.00787405 0.01811984
v 0.01662302 0.00787405 0.01745012
v 0.01760309 0.01550917 0.01745012
v 0.01726129 0.01550917 0.01957515
v 0.01689856 0.01550917 0.01977831
v 0.01511282 0.00787405 0.02022286
v 0.01639109 0.00787405 0.01700132
v 0.01550868 0.01550917 0.02015372
v 0.01511282 0.01248502 0.02022286
v 0.00985673 0.00787405 0.02022286
v 0.01511282 0.01550917 0.02019312
v 0.01419379 0.01550917 0.02021745
v 0.01379967 0.01550917 0.02022286
v 0.00003689 0.01248502 0.02022286
v 0.00003689 0.01117176 0.02018308
v 0.00854359 0.00787405 0.02018346
v 0.00003689 0.01550917 0.02022286
v 0.00003689 0.01071134 0.01999382
v 0.00003689 0.01019710 0.01978217
v 0.00724962 0.00787405 0.01995327
v 0.00003689 0.00987869 0.01876407
v 0.00629920 0.00787405 0.01963000
v 0.00597658 0.00787405 0.01876407
v 0.00003689 0.00992279 0.01745012
v 0.00602018 0.00787405 0.01745012
v 0.00599751 0.00787405 0.01803024
v 0.01723825 0.01550917 0.01700000
v 0.01688760 0.01175311 0.01700000
v 0.01639040 0.00787405 0.01700000
v 0.00003689 0.01550917 0.01700000
v 0.00003689 0.01008039 0.01700000
v 0.00360538 0.00876149 0.01700000
v 0.00513157 0.00822339 0.01700000
v 0.00615181 0.00787405 0.01700000
f 4 10 11
f 32 8 33
f 3 4 1
f 13 11 10
f 29 36 37
f 25 21 24
f 1 7 2
f 2 7 8
f 8 7 12
f 1 4 5
f 9 10 4
f 4 3 9
f 14 13 16
f 11 13 14
f 19 20 15
f 20 21 15
f 38 29 37
f 26 29 30
f 23 21 20
f 23 24 21
f 27 24 26
f 26 28 27
f 25 24 27
f 6 7 1
f 1 5 6
f 18 14 17
f 17 14 16
f 31 28 26
f 26 30 31
f 34 33 12
f 12 33 8
f 15 22 19
f 15 18 22
f 11 14 15
f 15 14 18
f 37 36 38
f 38 35 32
f 32 33 38
f 36 35 38
f 38 33 34
f 34 39 38
f 30 38 39
f 29 38 30
f 23 35 36
f 23 22 35
f 23 20 19
f 36 29 23
f 19 22 23
f 23 29 26
f 26 24 23
f 32 35 17
f 16 13 17
f 17 8 32
f 10 9 17
f 17 3 1
f 1 2 17
f 35 22 17
f 17 13 10
f 17 2 8
f 17 9 3
f 22 18 17
f 4 11 31
f 31 39 34
f 34 12 31
f 31 21 25
f 31 30 39
f 31 5 4
f 11 15 31
f 31 12 7
f 25 27 31
f 31 15 21
f 7 6 31
f 31 27 28
f 31 6 5

