# https://github.com/mikedh/trimesh
v 0.00003689 0.01736175 0.02022286
v 0.00003689 0.01248659 0.02022286
v -0.01379823 0.01736175 0.02022286
v 0.00003689 0.01117291 0.02018308
v -0.00944169 0.00764376 0.02022286
v -0.01511263 0.01736175 0.02021745
v -0.01511263 0.01248659 0.02022286
v -0.00854227 0.00764376 0.02016956
v -0.00812894 0.00764376 0.02014484
v 0.00003689 0.01071250 0.01999382
v -0.01511263 0.00764376 0.02022286
v -0.01642703 0.01736175 0.02017960
v -0.00686744 0.00764376 0.01979298
v 0.00003689 0.01019787 0.01978217
v -0.01685359 0.01736175 0.02011046
v -0.01622367 0.00764376 0.01982195
v -0.00654835 0.00764376 0.01962111
v 0.00003689 0.01004757 0.01930170
v -0.01685359 0.01638862 0.01999267
v -0.01654938 0.00764376 0.01909739
v 0.00003689 0.00992391 0.01745051
v -0.01662378 0.00764376 0.01745051
v -0.00645576 0.00764376 0.01948825
v 0.00003689 0.00988015 0.01876368
v -0.01685359 0.01532607 0.01967480
v -0.01669653 0.00764376 0.01876368
v 0.00003689 0.00990013 0.01814417
v -0.00631853 0.00764376 0.01745051
v -0.00628381 0.00764376 0.01876098
v -0.01685359 0.01467066 0.01876368
v -0.01685359 0.01485330 0.01745051
v 0.00003689 0.01736175 0.01700000
v -0.01685359 0.01736175 0.01700000
v 0.00003689 0.01008161 0.01700000
v -0.00371639 0.00863533 0.01700000
v -0.01638943 0.00764376 0.01700000
v -0.01671803 0.01142034 0.01700000
v -0.01674166 0.01169801 0.01700000
v -0.01682293 0.01400483 0.01700000
v -0.00648017 0.00764376 0.01700000
v -0.01682822 0.01417623 0.01700000
v -0.01685359 0.01518465 0.01700000
f 11 12 15
f 15 16 11
f 5 4 2
f 19 16 15
f 7 3 6
f 6 12 7
f 12 11 7
f 16 19 20
f 20 19 26
f 4 9 10
f 10 9 14
f 8 4 5
f 8 9 4
f 17 18 14
f 24 18 17
f 34 21 35
f 24 29 28
f 26 19 25
f 25 30 26
f 36 22 37
f 37 22 38
f 14 9 13
f 13 17 14
f 23 29 24
f 24 17 23
f 27 28 21
f 24 28 27
f 26 30 31
f 41 39 26
f 1 32 12
f 12 3 1
f 12 33 15
f 32 33 12
f 6 3 12
f 1 3 7
f 7 11 5
f 7 2 1
f 5 2 7
f 40 35 28
f 28 35 21
f 36 40 23
f 16 20 23
f 5 11 23
f 23 22 36
f 23 11 16
f 23 13 9
f 23 8 5
f 23 20 26
f 26 22 23
f 9 8 23
f 23 28 29
f 40 28 23
f 17 13 23
f 27 32 1
f 27 34 32
f 1 2 27
f 27 18 24
f 27 2 4
f 4 10 27
f 14 18 27
f 27 21 34
f 27 10 14
f 39 22 26
f 38 22 39
f 15 33 31
f 31 19 15
f 31 25 19
f 30 25 31
f 33 42 31
f 41 33 32
f 32 34 41
f 41 40 36
f 41 42 33
f 34 35 41
f 41 35 40
f 36 37 41
f 41 37 38
f 38 39 41
f 41 31 42
f 26 31 41

