# https://github.com/mikedh/trimesh
v -0.00987790 0.00000000 0.01876407
v -0.00812551 -0.00564458 0.01876407
v -0.00816496 -0.00564458 0.01745012
v -0.00992239 0.00000000 0.01745012
v -0.01003736 0.00000000 0.01927351
v -0.00861564 -0.00564458 0.01975745
v -0.01019683 0.00000000 0.01978256
v -0.00816663 -0.00564458 0.01744394
v -0.01117206 0.00000000 0.02018346
v -0.00985776 -0.00459976 0.02002820
v -0.01117206 -0.00459976 0.02018771
v -0.00993078 -0.00564458 0.01988722
v -0.01248551 0.00000000 0.02022286
v -0.01117206 -0.00197196 0.02020857
v -0.01117206 -0.00328530 0.02022286
v -0.01352956 -0.00564458 0.02020509
v -0.01511410 0.00000000 0.02022286
v -0.01484386 -0.00564458 0.02022286
v -0.01622362 0.00000000 0.01982195
v -0.01511410 -0.00564458 0.02022286
v -0.01646113 0.00000000 0.01929320
v -0.01622362 -0.00564458 0.01982195
v -0.01669864 0.00000000 0.01876407
v -0.01660129 -0.00564458 0.01898113
v -0.01662395 -0.00564458 0.01745012
v -0.01662395 0.00000000 0.01745012
v -0.01666172 0.00000000 0.01810748
v -0.01669864 -0.00564458 0.01876407
v -0.01008013 0.00000000 0.01700000
v -0.00918793 -0.00286481 0.01700000
v -0.00840312 -0.00564458 0.01700000
v -0.01639020 -0.00564458 0.01700000
v -0.01639020 -0.00349353 0.01700000
v -0.01639016 0.00000000 0.01700000
f 2 1 5
f 5 7 2
f 2 7 6
f 33 26 34
f 30 8 31
f 3 4 1
f 3 8 4
f 3 1 2
f 27 28 23
f 25 27 26
f 28 27 25
f 9 6 7
f 23 28 24
f 6 9 10
f 10 11 6
f 15 16 11
f 11 10 15
f 23 24 21
f 21 22 19
f 21 24 22
f 6 11 12
f 11 16 12
f 14 9 13
f 13 15 14
f 14 10 9
f 14 15 10
f 16 15 18
f 30 34 29
f 32 33 30
f 30 31 32
f 30 33 34
f 29 4 30
f 4 8 30
f 25 33 32
f 26 33 25
f 17 19 22
f 20 17 22
f 21 5 1
f 1 4 21
f 21 27 23
f 21 4 29
f 29 34 21
f 13 9 21
f 34 26 21
f 7 5 21
f 21 17 13
f 26 27 21
f 21 19 17
f 21 9 7
f 32 31 18
f 18 3 2
f 2 6 18
f 31 8 18
f 18 25 32
f 18 24 28
f 8 3 18
f 28 25 18
f 20 22 18
f 22 24 18
f 6 12 18
f 18 12 16
f 13 17 18
f 18 17 20
f 18 15 13

