# https://github.com/mikedh/trimesh
v 0.03866414 0.01752791 0.02015611
v 0.03874066 0.01578044 0.01876315
v 0.03874066 0.01642625 0.01980831
v 0.04271322 0.01379627 0.02020574
v 0.03866414 0.02072772 0.02072418
v 0.03874066 0.01582427 0.01743940
v 0.04128780 0.01379627 0.01876315
v 0.04168064 0.01379627 0.01980526
v 0.04402742 0.01379627 0.02022271
v 0.04419859 0.01752791 0.02072418
v 0.04301455 0.01786981 0.02072418
v 0.04585120 0.01379627 0.02000550
v 0.04592693 0.01769448 0.02072418
v 0.04600000 0.01379627 0.01979342
v 0.04600000 0.01471574 0.02013102
v 0.04600000 0.01782308 0.02072418
v 0.04600000 0.02645402 0.02072418
v 0.04600000 0.02772025 0.01700906
v 0.03866414 0.02800000 0.02072418
v 0.04465589 0.02800000 0.02072418
v 0.04600000 0.02800000 0.02048225
v 0.04565805 0.02800000 0.01700172
v 0.04600000 0.02800000 0.01781033
v 0.03866414 0.01755672 0.01700000
v 0.03868556 0.01706400 0.01700000
v 0.03871077 0.01650348 0.01700000
v 0.03874066 0.01614486 0.01700000
v 0.04150501 0.01382516 0.01700000
v 0.04154404 0.01379627 0.01700000
v 0.04600000 0.01379627 0.01700000
v 0.04600000 0.02770355 0.01700000
v 0.03866414 0.02800000 0.01700000
v 0.04565434 0.02800000 0.01700000
f 1 4 5
f 11 5 4
f 3 4 1
f 1 2 3
f 15 12 14
f 9 12 13
f 20 17 21
f 4 3 8
f 8 2 7
f 8 3 2
f 10 9 13
f 4 9 10
f 10 11 4
f 22 23 18
f 7 2 6
f 27 6 26
f 28 6 27
f 5 24 1
f 19 32 5
f 5 32 24
f 33 32 19
f 21 23 33
f 19 20 33
f 33 20 21
f 33 23 22
f 8 9 4
f 8 30 14
f 14 12 8
f 7 29 8
f 8 29 30
f 12 9 8
f 13 12 16
f 12 15 16
f 19 5 10
f 13 16 10
f 5 11 10
f 10 20 19
f 17 20 10
f 10 16 17
f 14 30 18
f 18 30 31
f 18 15 14
f 21 17 18
f 17 16 18
f 18 23 21
f 18 16 15
f 31 33 18
f 18 33 22
f 28 29 7
f 7 6 28
f 24 32 25
f 31 30 25
f 30 29 25
f 25 33 31
f 32 33 25
f 29 28 25
f 27 26 25
f 25 28 27
f 1 24 25
f 25 2 1
f 25 6 2
f 25 26 6

