# https://github.com/mikedh/trimesh
v 0.04138104 -0.02031608 0.02048841
v 0.04138104 -0.02114400 0.02189495
v 0.04138104 -0.02038604 0.02048620
v 0.04008319 -0.02031691 0.02048620
v 0.00573908 -0.02031691 0.02048620
v 0.00573908 -0.02114647 0.02189495
v 0.04138104 -0.02800000 0.02189495
v 0.04138104 -0.02800000 0.02048620
v 0.00573908 -0.02800000 0.02048620
v 0.00573908 -0.02800000 0.02189495
f 2 1 5
f 6 2 5
f 1 3 4
f 5 1 4
f 3 2 7
f 1 2 3
f 7 8 3
f 7 2 10
f 2 6 10
f 9 3 8
f 5 4 9
f 9 4 3
f 9 10 6
f 9 6 5
f 9 8 7
f 7 10 9

