# https://github.com/mikedh/trimesh
v -0.04137065 -0.02030208 0.02048170
v -0.04137065 -0.01774311 0.02022489
v -0.04249873 -0.02030208 0.02189495
v -0.04137065 -0.01736204 0.02017265
v -0.04303264 -0.01857144 0.02189495
v -0.04140051 -0.01736204 0.02017815
v -0.04534276 -0.01773505 0.02189495
v -0.04453063 -0.01785248 0.02189495
v -0.04402868 -0.01793278 0.02189495
v -0.04320921 -0.01826693 0.02189495
v -0.04233368 -0.01736204 0.02031783
v -0.04572210 -0.01785420 0.02189495
v -0.04273817 -0.01736204 0.02036347
v -0.04394013 -0.01736204 0.02046960
v -0.04402868 -0.01736204 0.02047125
v -0.04534276 -0.01736204 0.02048335
v -0.04600000 -0.02030208 0.02189495
v -0.04600000 -0.01750445 0.02073806
v -0.04600000 -0.01765417 0.02113440
v -0.04600000 -0.01736204 0.02019914
v -0.04600000 -0.01795158 0.02189495
v -0.04137065 -0.02030208 0.01700000
v -0.04137065 -0.01736204 0.01700000
v -0.04600000 -0.02030208 0.01700000
v -0.04600000 -0.01736204 0.01700000
f 4 5 3
f 2 3 1
f 4 3 2
f 10 5 4
f 4 9 10
f 8 9 4
f 7 8 4
f 21 12 19
f 15 16 7
f 7 14 15
f 6 7 4
f 6 11 7
f 13 14 7
f 7 11 13
f 22 24 23
f 23 24 25
f 3 22 1
f 17 24 3
f 3 24 22
f 1 22 2
f 2 23 4
f 22 23 2
f 17 3 7
f 7 21 17
f 7 3 5
f 5 10 7
f 7 10 9
f 9 8 7
f 7 12 21
f 18 24 17
f 25 24 18
f 17 21 18
f 18 20 25
f 21 19 18
f 18 16 20
f 7 16 18
f 12 7 18
f 18 19 12
f 4 23 13
f 13 23 25
f 25 20 13
f 20 16 13
f 16 15 13
f 13 15 14
f 13 6 4
f 11 6 13

