# https://github.com/mikedh/trimesh
v -0.01097533 -0.00956201 0.01948707
v -0.01097533 -0.00915118 0.01921625
v -0.00964164 -0.00956201 0.01985624
v -0.00854209 -0.00829821 0.01996226
v -0.00946459 -0.00829821 0.01959310
v -0.01097533 -0.00844653 0.01867230
v -0.00854209 -0.00956201 0.02011131
v -0.00824756 -0.00956201 0.02014627
v -0.00722826 -0.00854290 0.02012783
v -0.00723571 -0.00829821 0.02005830
v -0.01097533 -0.00829821 0.01822323
v -0.00722826 -0.00956201 0.02020159
v -0.00591857 -0.00956201 0.02012476
v -0.00460061 -0.00956201 0.01990925
v -0.00593181 -0.00851618 0.01982858
v -0.00605674 -0.00829821 0.01976097
v -0.00548256 -0.00829821 0.01732894
v -0.00271508 -0.00956201 0.01745033
v -0.00355732 -0.00956201 0.01965533
v -0.00386096 -0.00916887 0.01946940
v -0.00536342 -0.00829821 0.01876411
v -0.00542464 -0.00829821 0.01745033
v -0.00252396 -0.00956201 0.01876411
v -0.00537749 -0.00829821 0.01844949
v -0.01097533 -0.00956201 0.01700000
v -0.01097533 -0.00829821 0.01700000
v -0.00574357 -0.00829821 0.01700000
v -0.00454496 -0.00881845 0.01700000
v -0.00349471 -0.00930952 0.01700000
v -0.00321597 -0.00956201 0.01700000
f 3 4 1
f 3 7 4
f 11 6 5
f 1 4 5
f 24 21 23
f 23 22 24
f 1 5 2
f 2 5 6
f 30 29 18
f 18 22 23
f 20 19 23
f 16 19 20
f 21 16 20
f 23 21 20
f 9 12 13
f 9 10 4
f 16 10 15
f 15 19 16
f 17 28 27
f 22 18 17
f 14 9 13
f 10 9 14
f 19 15 14
f 14 15 10
f 12 9 8
f 4 7 8
f 8 9 4
f 2 25 1
f 11 26 2
f 2 6 11
f 2 26 25
f 28 30 25
f 25 26 28
f 28 26 27
f 28 29 30
f 4 10 17
f 21 24 17
f 27 26 17
f 17 26 11
f 17 5 4
f 17 16 21
f 11 5 17
f 17 24 22
f 17 10 16
f 29 28 17
f 17 18 29
f 23 19 8
f 1 25 8
f 13 12 8
f 25 30 8
f 8 3 1
f 7 3 8
f 8 14 13
f 8 18 23
f 30 18 8
f 19 14 8

