# https://github.com/mikedh/trimesh
v -0.04249834 -0.02030208 0.02189495
v -0.04005139 -0.02030208 0.02047854
v -0.04005139 -0.02114696 0.02189495
v -0.04005139 -0.02030208 0.02037901
v -0.04600000 -0.02030208 0.02189495
v -0.04005139 -0.02800000 0.02189495
v -0.04600000 -0.02800000 0.02189495
v -0.04441051 -0.02030208 0.01700000
v -0.04006592 -0.02030344 0.01700000
v -0.04005139 -0.02144229 0.01700000
v -0.04600000 -0.02030208 0.01700000
v -0.04005139 -0.02800000 0.01700000
v -0.04600000 -0.02800000 0.01700000
f 1 3 2
f 4 9 8
f 9 4 10
f 11 7 5
f 13 7 11
f 6 7 12
f 12 7 13
f 6 3 1
f 5 7 1
f 1 7 6
f 5 1 4
f 4 11 5
f 8 11 4
f 4 1 2
f 10 11 8
f 13 11 10
f 10 12 13
f 8 9 10
f 10 3 6
f 2 3 10
f 6 12 10
f 10 4 2

