# https://github.com/mikedh/trimesh
v -0.04534279 0.00000000 0.02020634
v -0.04534279 0.01736175 0.02048346
v -0.04402813 0.00000000 0.02022281
v -0.04402813 0.01736175 0.02047152
v -0.04271454 0.00000000 0.02021828
v -0.04273813 0.01736175 0.02036364
v -0.04219072 0.00000000 0.02001815
v -0.04124547 0.01736175 0.02017751
v -0.04166742 0.00000000 0.01981762
v -0.04124547 0.01658170 0.02008116
v -0.04147226 0.00000000 0.01929095
v -0.04127764 0.00000000 0.01876388
v -0.04124547 0.01529860 0.01976450
v -0.04135002 0.00000000 0.01745030
v -0.04131356 0.00000000 0.01810750
v -0.04124547 0.01418545 0.01745030
v -0.04124547 0.01399851 0.01853657
v -0.04124547 0.01397302 0.01876388
v -0.04600000 0.00000000 0.01994772
v -0.04600000 0.00615495 0.02004596
v -0.04600000 0.01736175 0.02019914
v -0.04124547 0.01736175 0.01700000
v -0.04130792 0.00699040 0.01700000
v -0.04130750 0.00701015 0.01700000
v -0.04154159 0.00000000 0.01700000
v -0.04125346 0.01233689 0.01700000
v -0.04130445 0.00715383 0.01700000
v -0.04126895 0.01075392 0.01700000
v -0.04125124 0.01257741 0.01700000
v -0.04124547 0.01479913 0.01700000
v -0.04600000 0.00000000 0.01700000
v -0.04600000 0.01736175 0.01700000
f 2 5 4
f 2 21 20
f 6 5 8
f 6 4 5
f 2 1 3
f 3 5 2
f 12 18 13
f 8 5 7
f 7 9 8
f 11 12 8
f 8 9 11
f 8 12 10
f 12 13 10
f 17 18 12
f 12 16 17
f 23 14 25
f 24 27 14
f 14 23 24
f 26 29 12
f 20 21 32
f 20 31 19
f 32 31 20
f 19 1 20
f 20 1 2
f 8 22 6
f 6 21 2
f 22 32 6
f 32 21 6
f 2 4 6
f 17 22 8
f 17 30 22
f 17 13 18
f 8 10 17
f 17 10 13
f 17 16 30
f 19 31 15
f 15 1 19
f 5 3 15
f 31 25 15
f 15 3 1
f 15 7 5
f 12 11 15
f 9 7 15
f 15 11 9
f 25 14 15
f 30 16 29
f 29 16 12
f 28 32 22
f 28 31 32
f 28 25 31
f 22 30 28
f 28 23 25
f 30 29 28
f 27 24 28
f 28 24 23
f 29 26 28
f 12 15 28
f 28 26 12
f 28 15 14
f 14 27 28

