# https://github.com/mikedh/trimesh
v -0.01662446 -0.00829795 0.01745012
v -0.01662446 -0.00564458 0.01745012
v -0.01669948 -0.00829795 0.01876407
v -0.01669948 -0.00564458 0.01876407
v -0.01093759 -0.00564458 0.01982311
v -0.01661092 -0.00829795 0.01896105
v -0.01622341 -0.00564458 0.01982195
v -0.01093759 -0.00602018 0.01975166
v -0.01221632 -0.00564458 0.02004558
v -0.01380020 -0.00829795 0.02010776
v -0.01093759 -0.00829795 0.01822335
v -0.01622341 -0.00829795 0.01982195
v -0.01511390 -0.00564458 0.02022286
v -0.01109778 -0.00829795 0.01867176
v -0.01093759 -0.00654851 0.01939864
v -0.01357909 -0.00829795 0.02003129
v -0.01269351 -0.00829795 0.01969952
v -0.01353058 -0.00564458 0.02020509
v -0.01486910 -0.00829795 0.02020355
v -0.01511390 -0.00829795 0.02022286
v -0.01484428 -0.00564458 0.02022286
v -0.01639026 -0.00829795 0.01700000
v -0.01639026 -0.00564458 0.01700000
v -0.01093759 -0.00564458 0.01700000
v -0.01093759 -0.00829795 0.01700000
f 7 4 6
f 6 4 3
f 9 10 5
f 9 18 10
f 13 20 21
f 21 20 18
f 10 18 19
f 18 20 19
f 7 6 12
f 8 17 14
f 5 10 8
f 14 11 15
f 15 8 14
f 16 8 10
f 17 8 16
f 1 4 2
f 3 4 1
f 22 1 23
f 23 1 2
f 25 22 23
f 23 24 25
f 5 24 21
f 21 23 2
f 21 7 13
f 2 4 21
f 21 9 5
f 21 4 7
f 24 23 21
f 18 9 21
f 13 7 12
f 12 20 13
f 15 24 5
f 25 24 15
f 15 11 25
f 5 8 15
f 16 12 6
f 3 1 16
f 16 22 25
f 25 11 16
f 16 6 3
f 10 19 16
f 16 1 22
f 16 11 14
f 14 17 16
f 16 19 20
f 20 12 16

