# https://github.com/mikedh/trimesh
v -0.02910051 0.02408905 0.02077455
v -0.03765441 0.02408905 0.02077455
v -0.03765441 0.02408905 0.01740502
v -0.02910051 0.02800000 0.02077455
v -0.03765441 0.02800000 0.02077455
v -0.02910051 0.02408905 0.01700000
v -0.03765441 0.02508038 0.01700000
v -0.03681878 0.02408905 0.01700000
v -0.02910051 0.02800000 0.01700000
v -0.03765441 0.02800000 0.01700000
f 8 3 7
f 1 4 5
f 2 1 5
f 9 4 1
f 1 6 9
f 9 5 4
f 10 5 9
f 3 1 2
f 3 6 1
f 3 8 6
f 6 8 7
f 10 9 7
f 7 9 6
f 2 5 7
f 7 5 10
f 7 3 2

