# https://github.com/mikedh/trimesh
v -0.04124547 -0.01736175 0.02015016
v -0.03944697 -0.01736175 0.02010620
v -0.04124547 -0.01641432 0.02003255
v -0.04124547 -0.01418717 0.01745036
v -0.03944697 -0.01635695 0.01980146
v -0.04124547 -0.01525465 0.01972706
v -0.03944697 -0.01579751 0.01745036
v -0.04124547 -0.01397427 0.01876400
v -0.03944697 -0.01607342 0.01934266
v -0.03944697 -0.01577463 0.01876212
v -0.04124547 -0.01736175 0.01700000
v -0.03944697 -0.01736175 0.01700000
v -0.04124547 -0.01479389 0.01700000
v -0.04033862 -0.01529778 0.01700000
v -0.03944697 -0.01609615 0.01700000
f 1 2 3
f 2 6 3
f 8 6 5
f 5 6 2
f 8 10 7
f 9 10 8
f 8 5 9
f 8 7 4
f 13 4 14
f 1 11 12
f 12 2 1
f 2 12 9
f 9 12 15
f 9 5 2
f 15 7 9
f 9 7 10
f 1 3 4
f 4 11 1
f 4 6 8
f 4 13 11
f 4 3 6
f 14 12 11
f 15 12 14
f 11 13 14
f 14 7 15
f 14 4 7

