# https://github.com/mikedh/trimesh
v -0.04578295 0.01807245 0.02402217
v -0.04534220 0.01775686 0.02230171
v -0.04139740 0.02114455 0.02189611
v -0.04353854 0.01813041 0.02189495
v -0.04600000 0.02283870 0.02189495
v -0.04600000 0.01900365 0.02210784
v -0.04600000 0.01986402 0.02189495
v -0.04600000 0.02752815 0.02218561
v -0.04600000 0.01822952 0.02352465
v -0.04600000 0.01823102 0.02230171
v -0.04139375 0.02800000 0.02209340
v -0.04139408 0.02800000 0.02189506
v -0.04153321 0.02800000 0.02189495
v -0.04448811 0.02800000 0.02189495
v -0.04531482 0.02800000 0.02206987
v -0.04600000 0.02800000 0.02221663
v -0.04576914 0.01808582 0.02410000
v -0.04566850 0.01807906 0.02410000
v -0.04383317 0.01797429 0.02410000
v -0.04260467 0.01813939 0.02410000
v -0.04139472 0.01906072 0.02410000
v -0.04196235 0.01826136 0.02410000
v -0.04579193 0.01809296 0.02410000
v -0.04600000 0.01831145 0.02410000
v -0.04139375 0.02105983 0.02410000
v -0.04139375 0.02800000 0.02410000
v -0.04600000 0.02800000 0.02410000
f 6 2 10
f 11 26 25
f 23 1 17
f 15 8 16
f 20 19 2
f 17 1 18
f 22 3 21
f 4 3 22
f 6 7 4
f 4 2 6
f 25 12 11
f 25 3 12
f 21 3 25
f 13 7 5
f 4 7 13
f 5 14 13
f 12 3 13
f 13 3 4
f 5 7 9
f 9 6 10
f 27 16 9
f 9 24 27
f 9 8 5
f 7 6 9
f 16 8 9
f 10 2 9
f 2 1 9
f 24 9 23
f 23 9 1
f 15 16 27
f 15 26 11
f 11 12 15
f 27 26 15
f 12 13 15
f 15 13 14
f 15 14 5
f 5 8 15
f 4 22 20
f 20 2 4
f 27 24 18
f 18 26 27
f 21 25 18
f 18 23 17
f 18 22 21
f 18 25 26
f 24 23 18
f 18 20 22
f 19 20 18
f 18 1 2
f 2 19 18

