# https://github.com/mikedh/trimesh
v -0.04402727 0.01736286 0.02047123
v -0.04534089 0.01741957 0.02062883
v -0.04402727 0.01757969 0.02077455
v -0.03765530 0.01753966 0.02015955
v -0.04291690 0.01794663 0.02077455
v -0.03765530 0.02081321 0.02077455
v -0.04600000 0.01736286 0.01998808
v -0.04600000 0.01738604 0.02018401
v -0.04600000 0.01785125 0.02071390
v -0.04600000 0.01804756 0.02077455
v -0.04600000 0.02237735 0.02077455
v -0.03765530 0.02800000 0.02077455
v -0.04425188 0.02800000 0.02077455
v -0.04600000 0.02800000 0.02062857
v -0.04600000 0.02800000 0.01700708
v -0.04293931 0.01736286 0.01700000
v -0.04177111 0.01739578 0.01700000
v -0.03765530 0.01755155 0.01700000
v -0.04600000 0.01736286 0.01700000
v -0.03765530 0.02800000 0.01700000
v -0.04600000 0.02799621 0.01700000
v -0.04599057 0.02800000 0.01700000
f 17 18 4
f 4 6 5
f 9 8 2
f 4 5 3
f 2 1 3
f 3 1 4
f 11 13 14
f 15 22 21
f 20 6 4
f 4 18 20
f 12 6 20
f 1 8 7
f 2 8 1
f 7 19 1
f 1 19 16
f 16 17 1
f 1 17 4
f 22 19 21
f 16 19 22
f 22 17 16
f 18 17 22
f 22 20 18
f 10 9 3
f 3 9 2
f 11 6 12
f 12 13 11
f 11 5 6
f 10 3 11
f 11 3 5
f 15 19 7
f 10 11 15
f 21 19 15
f 15 9 10
f 7 8 15
f 8 9 15
f 15 11 14
f 12 20 15
f 15 13 12
f 14 13 15
f 20 22 15

