# https://github.com/mikedh/trimesh
v 0.00003689 -0.01736175 0.02022286
v 0.00003689 -0.01478493 0.02022286
v 0.01379827 -0.01736175 0.02022286
v 0.01379827 -0.01478493 0.02022286
v 0.01511308 -0.01736175 0.02021745
v 0.02051260 -0.01736175 0.02010622
v 0.01412897 -0.01478493 0.02021822
v 0.02051260 -0.01588593 0.01735202
v 0.02051260 -0.01726187 0.02007570
v 0.01511308 -0.01478493 0.02019235
v 0.01680268 -0.01478493 0.01738330
v 0.02051260 -0.01581581 0.01745012
v 0.02051260 -0.01643303 0.01982195
v 0.01639381 -0.01478493 0.01977947
v 0.01683676 -0.01478493 0.01745012
v 0.02051260 -0.01577899 0.01876407
v 0.01687484 -0.01478493 0.01876407
v 0.01687484 -0.01478493 0.01875557
v 0.00003689 -0.01736175 0.01700000
v 0.00003689 -0.01478493 0.01700000
v 0.02051260 -0.01736175 0.01700000
v 0.02051260 -0.01613756 0.01700000
v 0.01866266 -0.01539595 0.01700000
v 0.01659434 -0.01478493 0.01700000
v 0.01840812 -0.01529391 0.01700000
f 7 5 6
f 10 7 6
f 4 3 5
f 5 7 4
f 14 16 17
f 13 16 14
f 14 10 13
f 9 10 6
f 9 13 10
f 12 15 16
f 18 17 16
f 16 15 18
f 15 12 11
f 23 8 22
f 20 19 1
f 1 2 20
f 3 21 6
f 1 19 3
f 6 5 3
f 19 21 3
f 4 2 1
f 1 3 4
f 11 20 2
f 24 20 11
f 2 4 11
f 11 10 14
f 7 10 11
f 11 4 7
f 14 17 11
f 17 18 11
f 11 18 15
f 11 25 24
f 12 25 11
f 6 21 8
f 21 22 8
f 16 13 8
f 8 9 6
f 13 9 8
f 8 12 16
f 23 21 19
f 23 20 24
f 19 20 23
f 23 22 21
f 24 25 23
f 23 25 12
f 12 8 23

