# https://github.com/mikedh/trimesh
v -0.04137012 -0.02030208 0.02048205
v -0.04137012 -0.01774311 0.02022521
v 0.00573908 -0.02030208 0.02047917
v 0.00573908 -0.01736204 0.02022274
v -0.01473517 -0.01736204 0.02022274
v -0.04137012 -0.01736204 0.02017253
v -0.04137012 -0.02030208 0.01700000
v 0.00573908 -0.02030208 0.01700000
v 0.00573908 -0.01736204 0.01700000
v -0.04137012 -0.01736204 0.01700000
f 1 3 4
f 1 4 5
f 2 5 6
f 1 5 2
f 1 7 8
f 8 3 1
f 3 8 9
f 9 4 3
f 6 5 10
f 10 5 4
f 4 9 10
f 10 7 1
f 1 2 10
f 10 2 6
f 10 8 7
f 10 9 8

