# https://github.com/mikedh/trimesh
v 0.04578280 -0.01807245 0.02402217
v 0.04534229 -0.01775686 0.02230171
v 0.04353845 -0.01813041 0.02189495
v 0.04139235 -0.02114455 0.02189727
v 0.04600000 -0.01822967 0.02352417
v 0.04600000 -0.01823113 0.02230171
v 0.04600000 -0.01900356 0.02210785
v 0.04600000 -0.01986404 0.02189495
v 0.04600000 -0.02283892 0.02189495
v 0.04600000 -0.02752816 0.02218560
v 0.04138399 -0.02800000 0.02208018
v 0.04151481 -0.02800000 0.02189495
v 0.04138470 -0.02800000 0.02189515
v 0.04448831 -0.02800000 0.02189495
v 0.04531492 -0.02800000 0.02206987
v 0.04600000 -0.02800000 0.02221664
v 0.04576899 -0.01808582 0.02410000
v 0.04566812 -0.01807911 0.02410000
v 0.04382968 -0.01797508 0.02410000
v 0.04259609 -0.01813965 0.02410000
v 0.04195424 -0.01826144 0.02410000
v 0.04138620 -0.01905981 0.02410000
v 0.04579179 -0.01809296 0.02410000
v 0.04600000 -0.01831155 0.02410000
v 0.04138399 -0.02104262 0.02410000
v 0.04138399 -0.02800000 0.02410000
v 0.04600000 -0.02800000 0.02410000
f 17 1 18
f 19 2 20
f 23 1 17
f 11 26 25
f 2 6 7
f 15 10 16
f 21 4 22
f 3 4 21
f 1 2 18
f 18 2 19
f 6 2 1
f 6 1 5
f 3 21 20
f 20 2 3
f 13 4 3
f 3 12 13
f 23 24 5
f 5 1 23
f 25 21 22
f 25 23 17
f 27 24 25
f 17 18 25
f 25 20 21
f 25 26 27
f 25 18 19
f 19 20 25
f 24 23 25
f 22 4 25
f 25 13 11
f 4 13 25
f 3 2 7
f 7 8 3
f 9 12 3
f 9 14 12
f 3 8 9
f 8 7 10
f 5 24 10
f 10 27 16
f 10 24 27
f 10 6 5
f 10 7 6
f 10 9 8
f 16 27 15
f 27 26 15
f 11 13 15
f 15 26 11
f 15 13 12
f 12 14 15
f 14 9 15
f 9 10 15

