# https://github.com/mikedh/trimesh
v 0.03842137 -0.02431632 0.02048607
v 0.03842137 -0.02431632 0.01723915
v 0.00573908 -0.02431632 0.02048607
v 0.03842137 -0.02800000 0.02048607
v 0.00573908 -0.02800000 0.02048607
v 0.03842137 -0.02484088 0.01700000
v 0.03751503 -0.02431632 0.01700000
v 0.00573908 -0.02431632 0.01700000
v 0.03842137 -0.02800000 0.01700000
v 0.00573908 -0.02800000 0.01700000
f 6 7 2
f 5 4 1
f 5 1 3
f 4 5 9
f 9 5 10
f 1 4 2
f 4 9 2
f 2 9 6
f 8 9 10
f 8 7 6
f 6 9 8
f 3 1 8
f 1 2 8
f 8 2 7
f 8 5 3
f 10 5 8

