# https://github.com/mikedh/trimesh
v 0.03866393 0.02516020 0.02072418
v 0.03653610 0.02516020 0.02072418
v 0.03866393 0.02072586 0.02072418
v 0.03653610 0.02516020 0.01709203
v 0.03653610 0.02072586 0.02072418
v 0.03866393 0.01774343 0.02022271
v 0.03653610 0.01774343 0.02022271
v 0.03866393 0.01763656 0.02019006
v 0.03653610 0.01736251 0.02010605
v 0.03866393 0.01736251 0.02010605
v 0.03866393 0.02516020 0.01700000
v 0.03734519 0.02516020 0.01700000
v 0.03653610 0.02481221 0.01700000
v 0.03653610 0.01736251 0.01700000
v 0.03866393 0.01736251 0.01700000
f 13 4 12
f 9 10 8
f 7 8 6
f 9 8 7
f 5 3 1
f 5 1 2
f 1 11 12
f 2 1 12
f 12 4 2
f 15 14 13
f 15 12 11
f 13 12 15
f 9 14 15
f 15 10 9
f 1 3 8
f 8 11 1
f 8 15 11
f 10 15 8
f 3 6 8
f 2 4 7
f 7 14 9
f 7 4 13
f 13 14 7
f 7 5 2
f 3 5 7
f 7 6 3

