# https://github.com/mikedh/trimesh
v 0.01639089 0.00787303 0.01700132
v 0.01662391 0.00512753 0.01745012
v 0.00858573 0.00512753 0.01705501
v 0.01662391 0.00787303 0.01745012
v 0.01666904 0.00512753 0.01823725
v 0.00602040 0.00787303 0.01745012
v 0.00847342 0.00512753 0.01745012
v 0.01669843 0.00787303 0.01876407
v 0.01669843 0.00512753 0.01876407
v 0.00599731 0.00787303 0.01803024
v 0.00845348 0.00512753 0.01812872
v 0.01645702 0.00787303 0.01930286
v 0.01641398 0.00512753 0.01939749
v 0.00597737 0.00787303 0.01876407
v 0.00843668 0.00512753 0.01876407
v 0.01622294 0.00512753 0.01982195
v 0.01622294 0.00787303 0.01982195
v 0.00638043 0.00772950 0.01958558
v 0.00629856 0.00787303 0.01963000
v 0.00879461 0.00512753 0.01971806
v 0.01565824 0.00787303 0.02002627
v 0.01511347 0.00512753 0.02022286
v 0.00724849 0.00787303 0.01995327
v 0.00985790 0.00512753 0.02011085
v 0.01511347 0.00787303 0.02022286
v 0.01117206 0.00512753 0.02022286
v 0.00854375 0.00722846 0.02014561
v 0.00854375 0.00787303 0.02018346
v 0.00985790 0.00591431 0.02020857
v 0.00985790 0.00787303 0.02022286
v 0.00985790 0.00722846 0.02022286
v 0.01639020 0.00787303 0.01700000
v 0.01639020 0.00786526 0.01700000
v 0.01638999 0.00512753 0.01700000
v 0.00861477 0.00512753 0.01700000
v 0.00826465 0.00551338 0.01700000
v 0.00768796 0.00615118 0.01700000
v 0.00615100 0.00787303 0.01700000
f 12 9 8
f 12 17 16
f 22 16 21
f 16 17 21
f 21 25 22
f 11 15 14
f 1 4 2
f 8 9 5
f 5 4 8
f 2 4 5
f 13 12 16
f 9 12 13
f 18 15 20
f 20 19 18
f 18 19 14
f 14 15 18
f 32 1 33
f 10 6 7
f 7 11 10
f 10 11 14
f 7 6 3
f 24 23 19
f 24 19 20
f 31 30 28
f 28 23 27
f 23 24 27
f 35 3 36
f 3 37 36
f 28 27 29
f 26 31 29
f 29 31 28
f 29 24 26
f 29 27 24
f 2 34 33
f 33 1 2
f 8 4 10
f 10 1 32
f 25 21 10
f 10 12 8
f 10 23 28
f 14 19 10
f 32 38 10
f 17 12 10
f 10 21 17
f 10 30 25
f 4 1 10
f 38 6 10
f 19 23 10
f 28 30 10
f 24 34 2
f 24 11 7
f 24 16 22
f 22 26 24
f 24 13 16
f 20 15 24
f 2 5 24
f 15 11 24
f 7 3 24
f 24 5 9
f 24 35 34
f 9 13 24
f 24 3 35
f 31 26 22
f 25 30 31
f 22 25 31
f 37 6 38
f 37 3 6
f 36 38 32
f 34 35 36
f 32 33 36
f 36 33 34
f 36 37 38

