# https://github.com/mikedh/trimesh
v -0.03740397 -0.02447274 0.02088291
v -0.03480397 -0.02447274 0.02088291
v -0.03740397 -0.02447274 0.01752687
v -0.03740397 -0.02800000 0.02088291
v -0.03480397 -0.02800000 0.02088291
v -0.03480397 -0.02447274 0.01700000
v -0.03656437 -0.02447274 0.01700000
v -0.03740397 -0.02540159 0.01700000
v -0.03740397 -0.02800000 0.01700000
v -0.03480397 -0.02800000 0.01700000
f 8 3 7
f 1 4 5
f 5 2 1
f 9 4 1
f 1 3 9
f 9 3 8
f 1 2 7
f 2 6 7
f 7 3 1
f 10 9 8
f 10 7 6
f 8 7 10
f 2 5 10
f 10 6 2
f 10 5 4
f 4 9 10

