# https://github.com/mikedh/trimesh
v 0.01669948 0.00000000 0.01876407
v 0.01669948 -0.00561994 0.01876407
v 0.01662411 0.00000000 0.01745012
v 0.01622297 0.00000000 0.01982195
v 0.01633016 -0.00561994 0.01958519
v 0.01662411 -0.00561994 0.01745012
v 0.01651775 -0.00561994 0.01724542
v 0.01622297 -0.00561994 0.01982195
v 0.01511418 0.00000000 0.02022286
v 0.01511418 -0.00561994 0.02022286
v 0.01248541 0.00000000 0.02022286
v 0.01379937 -0.00561994 0.02020857
v 0.01117144 -0.00328527 0.02022286
v 0.01117144 0.00000000 0.02018230
v 0.01117144 -0.00197160 0.02020818
v 0.01117144 -0.00459948 0.02018771
v 0.00882991 -0.00561994 0.01984513
v 0.00985747 -0.00459948 0.02002820
v 0.01019748 0.00000000 0.01978140
v 0.00862390 -0.00561994 0.01975552
v 0.00988092 0.00000000 0.01876407
v 0.00814487 -0.00561994 0.01876407
v 0.00818088 -0.00561994 0.01745012
v 0.00992446 0.00000000 0.01745012
v 0.01639011 0.00000000 0.01700000
v 0.01639014 -0.00367811 0.01700000
v 0.01639014 -0.00561994 0.01700000
v 0.00841691 -0.00561994 0.01700000
v 0.00920342 -0.00283051 0.01700000
v 0.01008158 0.00000000 0.01700000
f 22 21 23
f 28 23 29
f 24 23 21
f 19 21 22
f 7 3 6
f 5 2 1
f 1 4 5
f 5 4 8
f 14 19 17
f 17 18 14
f 26 7 27
f 20 19 22
f 20 17 19
f 12 10 13
f 16 13 18
f 12 13 16
f 16 17 12
f 18 17 16
f 15 11 14
f 13 11 15
f 14 18 15
f 18 13 15
f 2 6 3
f 1 2 3
f 24 30 29
f 29 23 24
f 26 30 25
f 27 28 26
f 29 30 26
f 26 28 29
f 25 3 26
f 3 7 26
f 10 4 9
f 8 4 10
f 20 6 2
f 22 23 20
f 20 28 27
f 2 5 20
f 27 7 20
f 23 28 20
f 20 7 6
f 20 5 8
f 8 10 20
f 12 17 20
f 20 10 12
f 11 24 21
f 11 4 1
f 25 30 11
f 1 3 11
f 21 19 11
f 11 3 25
f 30 24 11
f 9 4 11
f 11 19 14
f 11 10 9
f 11 13 10

