# https://github.com/mikedh/trimesh
v -0.02910051 0.02408795 0.02077455
v -0.02910051 0.02081144 0.02077455
v -0.03765441 0.02408795 0.02077455
v -0.02910051 0.01774366 0.02022250
v -0.03765441 0.02081144 0.02077455
v -0.03765441 0.02408795 0.01740502
v -0.02910051 0.01736175 0.02010584
v -0.03765441 0.01774366 0.02022250
v -0.03765441 0.01736175 0.02010584
v -0.02910051 0.02408795 0.01700000
v -0.03681839 0.02408795 0.01700000
v -0.03765441 0.02346390 0.01700000
v -0.02910051 0.01736175 0.01700000
v -0.03765441 0.01736175 0.01700000
f 6 11 12
f 13 9 14
f 7 9 13
f 1 2 4
f 4 10 1
f 7 13 4
f 4 13 10
f 5 2 1
f 5 1 3
f 14 12 11
f 11 13 14
f 10 13 11
f 8 9 7
f 7 4 8
f 8 4 2
f 2 5 8
f 14 9 6
f 9 8 6
f 6 12 14
f 6 5 3
f 6 8 5
f 1 10 6
f 3 1 6
f 10 11 6

