# https://github.com/mikedh/trimesh
v -0.02910051 0.01736175 0.02010599
v -0.02910051 0.02041694 0.02054418
v -0.02910051 0.01774305 0.02022253
v -0.01511059 0.01736175 0.02021752
v -0.01379772 0.01736175 0.02022253
v 0.03242379 0.02041694 0.02054418
v 0.01473014 0.01736175 0.02022253
v 0.03242379 0.01774305 0.02022253
v 0.03242379 0.01736175 0.02010599
v 0.01604301 0.01736175 0.02021752
v 0.03242379 0.01742665 0.02012604
v -0.02910051 0.01736175 0.01700000
v -0.02910051 0.02041694 0.01700000
v 0.03242379 0.02041694 0.01700000
v 0.03242379 0.01736175 0.01700000
f 3 5 2
f 4 3 1
f 5 3 4
f 6 7 8
f 10 8 7
f 11 10 9
f 8 10 11
f 14 13 2
f 14 2 6
f 2 13 3
f 3 12 1
f 3 13 12
f 6 2 7
f 2 5 7
f 12 13 15
f 13 14 15
f 1 12 10
f 10 4 1
f 12 15 10
f 10 7 5
f 10 15 9
f 5 4 10
f 11 14 6
f 11 15 14
f 9 15 11
f 6 8 11

