# https://github.com/mikedh/trimesh
v 0.01116800 -0.00562024 0.01976880
v 0.01116800 -0.00562262 0.01985948
v 0.01029775 -0.00562024 0.01993581
v 0.01116800 -0.00866206 0.01883892
v 0.00480523 -0.00866206 0.01745035
v 0.00818060 -0.00562024 0.01745035
v 0.00722860 -0.00866206 0.02013682
v 0.00854278 -0.00866206 0.01998870
v 0.00949289 -0.00866206 0.01961162
v 0.01116800 -0.00601986 0.01973177
v 0.00882888 -0.00562024 0.01984512
v 0.00722860 -0.00854265 0.02012851
v 0.00475367 -0.00866206 0.01856990
v 0.00814350 -0.00562024 0.01876411
v 0.00474486 -0.00866206 0.01876411
v 0.00710976 -0.00866206 0.02013569
v 0.00862327 -0.00562024 0.01975520
v 0.00550822 -0.00866206 0.01977069
v 0.00578552 -0.00866206 0.01985306
v 0.00498569 -0.00866206 0.01931274
v 0.01116800 -0.00562024 0.01700000
v 0.01116800 -0.00866206 0.01700000
v 0.00519969 -0.00866206 0.01700000
v 0.00673145 -0.00713873 0.01700000
v 0.00841645 -0.00562024 0.01700000
f 15 14 6
f 9 2 8
f 8 2 7
f 3 2 1
f 3 7 2
f 20 18 17
f 20 17 14
f 20 14 15
f 15 6 13
f 6 5 13
f 23 5 24
f 10 9 4
f 2 9 10
f 11 19 16
f 18 19 11
f 17 18 11
f 3 11 12
f 12 11 16
f 16 7 12
f 7 3 12
f 13 22 4
f 16 19 13
f 13 7 16
f 13 23 22
f 4 9 13
f 13 20 15
f 13 5 23
f 13 9 8
f 8 7 13
f 18 20 13
f 13 19 18
f 21 22 24
f 22 23 24
f 24 25 21
f 6 25 24
f 24 5 6
f 10 21 1
f 4 22 10
f 10 22 21
f 1 2 10
f 1 21 11
f 21 25 11
f 14 17 11
f 11 6 14
f 11 25 6
f 11 3 1

