# https://github.com/mikedh/trimesh
v -0.01824144 -0.01736151 0.02011046
v 0.00003689 -0.01736151 0.02022286
v -0.01824144 -0.01675348 0.01993125
v -0.01736116 -0.01736151 0.02017960
v -0.01511394 -0.01486612 0.02019119
v -0.01685839 -0.01486612 0.01745012
v -0.01824144 -0.01578049 0.01745012
v 0.00003689 -0.01486612 0.02022286
v -0.01473284 -0.01736151 0.02022286
v -0.01824144 -0.01634112 0.01980534
v -0.01604610 -0.01736151 0.02021745
v -0.01379889 -0.01486612 0.02022286
v -0.01617671 -0.01486612 0.01986251
v -0.01686018 -0.01486612 0.01745823
v -0.01824144 -0.01577365 0.01752621
v -0.01824144 -0.01574946 0.01888921
v -0.01640931 -0.01486612 0.01977715
v -0.01697290 -0.01486612 0.01876407
v -0.01824144 -0.01570256 0.01876407
v -0.01824144 -0.01736151 0.01700000
v 0.00003689 -0.01736151 0.01700000
v -0.01661238 -0.01486612 0.01700000
v -0.01729372 -0.01531657 0.01700000
v -0.01824144 -0.01606400 0.01700000
v 0.00003689 -0.01486612 0.01700000
f 4 5 1
f 4 11 5
f 1 5 3
f 5 10 3
f 17 18 19
f 11 9 12
f 5 11 12
f 16 17 19
f 10 17 16
f 13 10 5
f 13 17 10
f 19 18 14
f 14 6 7
f 19 14 15
f 14 7 15
f 24 7 23
f 21 8 2
f 25 8 21
f 9 21 2
f 1 20 9
f 9 4 1
f 20 21 9
f 11 4 9
f 2 8 12
f 12 9 2
f 6 8 25
f 25 22 6
f 5 12 6
f 18 17 6
f 6 13 5
f 6 12 8
f 17 13 6
f 6 14 18
f 15 20 1
f 15 16 19
f 1 3 15
f 15 3 10
f 10 16 15
f 15 24 20
f 15 7 24
f 23 21 20
f 25 21 23
f 23 22 25
f 20 24 23
f 23 6 22
f 23 7 6

