# https://github.com/mikedh/trimesh
v -0.04534279 -0.01736175 0.02048346
v -0.04402813 -0.01736175 0.02047152
v -0.04271454 0.00000000 0.02021828
v -0.04402813 0.00000000 0.02022281
v -0.04534279 0.00000000 0.02020634
v -0.04394020 -0.01736175 0.02046988
v -0.04219072 0.00000000 0.02001815
v -0.04273813 -0.01736175 0.02036364
v -0.04233333 -0.01736175 0.02031793
v -0.04140042 -0.01736175 0.02017792
v -0.04124547 -0.01736175 0.02014992
v -0.04166742 0.00000000 0.01981762
v -0.04124547 -0.01724619 0.02013592
v -0.04127764 0.00000000 0.01876388
v -0.04147226 0.00000000 0.01929095
v -0.04135002 0.00000000 0.01745030
v -0.04124547 -0.01641345 0.02003257
v -0.04124547 -0.01397302 0.01876388
v -0.04124547 -0.01418545 0.01745030
v -0.04131356 0.00000000 0.01810750
v -0.04124547 -0.01525441 0.01972703
v -0.04600000 -0.01736175 0.02019914
v -0.04600000 -0.00615495 0.02004596
v -0.04600000 0.00000000 0.01994772
v -0.04124547 -0.01736175 0.01700000
v -0.04130867 -0.00686650 0.01700000
v -0.04130596 -0.00698760 0.01700000
v -0.04154159 0.00000000 0.01700000
v -0.04125168 -0.01239669 0.01700000
v -0.04129604 -0.00793129 0.01700000
v -0.04124547 -0.01479265 0.01700000
v -0.04126425 -0.01112423 0.01700000
v -0.04600000 -0.01736175 0.01700000
v -0.04600000 0.00000000 0.01700000
f 7 3 11
f 11 12 7
f 1 2 3
f 11 3 10
f 3 9 10
f 8 9 3
f 15 12 11
f 11 14 15
f 22 1 23
f 3 2 6
f 6 8 3
f 21 18 14
f 4 5 1
f 4 1 3
f 17 21 14
f 14 18 19
f 13 14 11
f 13 17 14
f 28 16 26
f 16 27 26
f 30 27 16
f 23 24 34
f 23 33 22
f 34 33 23
f 24 23 5
f 5 23 1
f 6 25 11
f 6 1 22
f 22 33 6
f 6 33 25
f 11 10 6
f 2 1 6
f 6 10 9
f 9 8 6
f 11 25 13
f 25 31 13
f 18 21 13
f 13 19 18
f 21 17 13
f 31 19 13
f 29 19 31
f 14 19 29
f 20 28 34
f 12 15 20
f 34 24 20
f 3 7 20
f 20 7 12
f 20 15 14
f 20 4 3
f 24 5 20
f 5 4 20
f 20 16 28
f 25 33 32
f 32 33 34
f 34 28 32
f 32 31 25
f 28 26 32
f 32 26 27
f 32 29 31
f 27 30 32
f 14 29 32
f 32 20 14
f 16 20 32
f 32 30 16

