# https://github.com/mikedh/trimesh
v -0.03875527 0.01736160 0.02010625
v -0.03875527 0.01581566 0.01745024
v -0.01908342 0.01582867 0.01743188
v -0.03875527 0.01643323 0.01982199
v -0.01908342 0.01736160 0.02010625
v -0.03875527 0.01581519 0.01746640
v -0.01908342 0.01581566 0.01745024
v -0.03875527 0.01578699 0.01877714
v -0.01908342 0.01643323 0.01982199
v -0.03875527 0.01577894 0.01876392
v -0.01908342 0.01577894 0.01876392
v -0.03875527 0.01736160 0.01700000
v -0.03875527 0.01613754 0.01700000
v -0.02855644 0.01613748 0.01700000
v -0.01908342 0.01613748 0.01700000
v -0.01908342 0.01736160 0.01700000
f 8 11 9
f 9 4 8
f 10 11 8
f 7 2 3
f 14 15 3
f 6 7 11
f 6 11 10
f 2 7 6
f 5 12 1
f 5 16 12
f 1 4 5
f 5 4 9
f 3 15 7
f 16 5 7
f 9 11 7
f 7 5 9
f 7 15 16
f 14 13 12
f 12 16 14
f 16 15 14
f 14 2 13
f 3 2 14
f 1 12 6
f 6 4 1
f 12 13 6
f 10 8 6
f 13 2 6
f 6 8 4

