# https://github.com/mikedh/trimesh
v 0.00573908 -0.02030208 0.02047941
v 0.00573908 -0.02096974 0.02088291
v -0.03480397 -0.02030208 0.02047941
v -0.03354989 -0.02096974 0.02088291
v -0.03480397 -0.02030208 0.02041224
v -0.03480397 -0.02096974 0.02088246
v -0.03480397 -0.02120713 0.02088291
v 0.00573908 -0.02800000 0.02088291
v -0.03480397 -0.02800000 0.02088291
v 0.00573908 -0.02030208 0.01700000
v -0.03379521 -0.02030208 0.01700000
v -0.03480397 -0.02030344 0.01700000
v 0.00573908 -0.02800000 0.01700000
v -0.03480397 -0.02800000 0.01700000
f 3 6 4
f 5 11 12
f 7 4 6
f 1 2 13
f 13 10 1
f 13 2 8
f 13 9 14
f 8 9 13
f 14 12 11
f 11 13 14
f 10 13 11
f 4 2 1
f 4 1 3
f 1 10 5
f 10 11 5
f 3 1 5
f 14 9 7
f 7 6 3
f 7 12 14
f 3 5 7
f 7 5 12
f 8 2 7
f 7 9 8
f 2 4 7

