# https://github.com/mikedh/trimesh
v 0.00003689 0.01550917 0.02022286
v 0.00003689 0.01736157 0.02022286
v 0.01380019 0.01550917 0.02022286
v 0.03873931 0.01583160 0.01742772
v 0.03873931 0.01581564 0.01745012
v 0.01473593 0.01736157 0.02022286
v 0.01419798 0.01550917 0.02021745
v 0.03873931 0.01736157 0.02010622
v 0.01605051 0.01736157 0.02021745
v 0.03873931 0.01577901 0.01876407
v 0.01511477 0.01550917 0.02019312
v 0.03873931 0.01643329 0.01982195
v 0.01760376 0.01550917 0.01745012
v 0.01551256 0.01550917 0.02015372
v 0.01690290 0.01550917 0.01977831
v 0.01726280 0.01550917 0.01957515
v 0.01742949 0.01550917 0.01941409
v 0.01785380 0.01550917 0.01876407
v 0.01782728 0.01550917 0.01853311
v 0.00003689 0.01550917 0.01700000
v 0.00003689 0.01736157 0.01700000
v 0.02995705 0.01571174 0.01700000
v 0.03873931 0.01613739 0.01700000
v 0.02967362 0.01569804 0.01700000
v 0.02786785 0.01566620 0.01700000
v 0.03873931 0.01736157 0.01700000
v 0.02588352 0.01563452 0.01700000
v 0.02025111 0.01554967 0.01700000
v 0.01723882 0.01550917 0.01700000
f 6 3 9
f 9 3 8
f 19 10 18
f 19 13 10
f 11 12 8
f 10 12 11
f 18 10 17
f 22 23 4
f 8 3 7
f 7 11 8
f 14 15 10
f 10 11 14
f 10 15 16
f 16 17 10
f 25 24 5
f 5 27 25
f 21 20 1
f 1 2 21
f 3 2 1
f 3 6 2
f 9 21 2
f 2 6 9
f 9 26 21
f 8 26 9
f 12 26 8
f 12 23 26
f 12 5 4
f 4 23 12
f 10 5 12
f 4 5 22
f 5 24 22
f 1 20 16
f 20 29 16
f 16 3 1
f 18 17 16
f 29 13 16
f 16 19 18
f 13 19 16
f 16 7 3
f 15 14 16
f 11 7 16
f 16 14 11
f 20 21 28
f 21 26 28
f 28 29 20
f 26 23 28
f 23 22 28
f 28 22 24
f 24 25 28
f 28 25 27
f 28 13 29
f 10 13 28
f 28 5 10
f 28 27 5

