# https://github.com/mikedh/trimesh
v -0.04139323 0.02113655 0.02219357
v -0.04008297 0.01905725 0.02379706
v -0.04139323 0.01917594 0.02370999
v 0.00573908 0.02113655 0.02219853
v 0.00573908 0.01905725 0.02379706
v -0.04139323 0.02113655 0.02410000
v -0.04008297 0.01872274 0.02410000
v -0.04068881 0.01872474 0.02410000
v -0.04139323 0.01873571 0.02410000
v -0.01545758 0.01872253 0.02410000
v 0.00573908 0.01872253 0.02410000
v 0.00573908 0.02113655 0.02410000
f 1 4 5
f 1 5 2
f 1 2 3
f 7 2 10
f 2 7 8
f 1 6 12
f 12 4 1
f 4 12 11
f 11 5 4
f 2 11 10
f 5 11 2
f 3 6 1
f 3 9 6
f 8 12 6
f 10 11 8
f 6 9 8
f 8 11 12
f 8 7 10
f 9 3 8
f 8 3 2

