# https://github.com/mikedh/trimesh
v 0.04215173 0.02023238 0.02072429
v 0.04289360 0.01792061 0.02072429
v 0.04215173 0.02042540 0.02106134
v 0.04313790 0.01781473 0.02072429
v 0.04320905 0.01826693 0.02189495
v 0.04303230 0.01857135 0.02189495
v 0.04215173 0.02109599 0.02189495
v 0.04402877 0.01793274 0.02189495
v 0.04402877 0.01755222 0.02072429
v 0.04453036 0.01785333 0.02189495
v 0.04437107 0.01750259 0.02072429
v 0.04534248 0.01773531 0.02189495
v 0.04534248 0.01745627 0.02072429
v 0.04572192 0.01785443 0.02189495
v 0.04560469 0.01754781 0.02072429
v 0.04600000 0.01795186 0.02189495
v 0.04600000 0.01782988 0.02135725
v 0.04600000 0.01771957 0.02072429
v 0.04215173 0.02800000 0.02072429
v 0.04215173 0.02800000 0.02189495
v 0.04600000 0.02800000 0.02189495
v 0.04600000 0.02800000 0.02072429
f 18 17 15
f 1 2 3
f 3 2 7
f 7 2 6
f 6 2 5
f 14 12 13
f 13 15 14
f 13 12 11
f 12 9 11
f 10 9 12
f 10 8 9
f 9 8 4
f 4 8 5
f 5 2 4
f 21 18 22
f 16 17 21
f 21 17 18
f 21 22 19
f 19 20 21
f 3 19 1
f 3 20 19
f 7 20 3
f 14 17 16
f 14 15 17
f 10 20 7
f 7 6 10
f 16 21 10
f 10 14 16
f 10 21 20
f 10 6 5
f 12 14 10
f 5 8 10
f 4 2 1
f 1 19 4
f 19 22 4
f 22 18 4
f 4 15 13
f 18 15 4
f 13 11 4
f 4 11 9

