# https://github.com/mikedh/trimesh
v 0.02051517 -0.01588604 0.01735189
v 0.02051517 -0.01581571 0.01745030
v 0.02051517 -0.01736175 0.02010586
v 0.02051517 -0.01578293 0.01862305
v 0.02051517 -0.01726200 0.02007539
v 0.04402640 -0.01736175 0.02047152
v 0.04402640 -0.01556139 0.02022610
v 0.04357999 -0.01556139 0.02021869
v 0.04271281 -0.01556139 0.02019892
v 0.04031653 -0.01556139 0.01745030
v 0.02051517 -0.01577905 0.01876388
v 0.02051517 -0.01643328 0.01982174
v 0.04534256 -0.01736175 0.02048346
v 0.04534256 -0.01556139 0.02021087
v 0.04226640 -0.01556139 0.02014869
v 0.02051517 -0.01636296 0.01970850
v 0.04009332 -0.01556139 0.01876388
v 0.04090919 -0.01556139 0.01976985
v 0.04057566 -0.01556139 0.01955902
v 0.04042685 -0.01556139 0.01938401
v 0.04600000 -0.01736175 0.02019877
v 0.04600000 -0.01619968 0.02004731
v 0.04600000 -0.01560090 0.01995828
v 0.04600000 -0.01556139 0.01995230
v 0.02778303 -0.01577974 0.01700000
v 0.02051517 -0.01613759 0.01700000
v 0.02903540 -0.01571809 0.01700000
v 0.03071188 -0.01569155 0.01700000
v 0.02051517 -0.01736175 0.01700000
v 0.03282513 -0.01566172 0.01700000
v 0.03773291 -0.01559530 0.01700000
v 0.04063655 -0.01556139 0.01700000
v 0.03794595 -0.01559243 0.01700000
v 0.04600000 -0.01736175 0.01700000
v 0.04600000 -0.01556139 0.01700000
f 7 3 6
f 6 13 7
f 22 13 21
f 7 13 14
f 1 25 26
f 13 22 23
f 3 9 5
f 5 9 12
f 8 3 7
f 8 9 3
f 16 9 11
f 12 9 16
f 17 10 11
f 18 19 11
f 11 19 20
f 20 17 11
f 11 9 15
f 15 18 11
f 28 27 2
f 2 30 28
f 29 34 21
f 21 13 29
f 29 6 3
f 13 6 29
f 21 34 23
f 23 34 35
f 35 24 23
f 23 22 21
f 24 14 23
f 23 14 13
f 1 26 4
f 4 2 1
f 3 5 4
f 4 16 11
f 4 29 3
f 4 26 29
f 4 5 12
f 12 16 4
f 1 2 27
f 27 25 1
f 11 10 32
f 32 33 11
f 31 4 11
f 11 33 31
f 15 24 35
f 7 14 15
f 35 32 15
f 15 14 24
f 15 8 7
f 9 8 15
f 10 17 15
f 15 32 10
f 15 20 19
f 19 18 15
f 17 20 15
f 2 4 30
f 4 31 30
f 35 34 28
f 34 29 28
f 25 27 28
f 29 26 28
f 28 26 25
f 28 32 35
f 33 32 28
f 28 31 33
f 28 30 31

