# https://github.com/mikedh/trimesh
v 0.03842137 -0.01736175 0.02010583
v 0.01511572 -0.01736175 0.02021747
v 0.03842137 -0.01774295 0.02022241
v 0.01380088 -0.01736175 0.02022241
v 0.03842137 -0.02031672 0.02048607
v 0.00573908 -0.01736175 0.02022241
v 0.00573908 -0.02031672 0.02048607
v 0.03842137 -0.02431521 0.02048607
v 0.00573908 -0.02431521 0.02048607
v 0.03842137 -0.02431521 0.01723945
v 0.03842137 -0.01736175 0.01700000
v 0.00573908 -0.01736175 0.01700000
v 0.00573908 -0.02431521 0.01700000
v 0.03751382 -0.02431521 0.01700000
v 0.03842137 -0.02386359 0.01700000
f 5 3 4
f 14 15 10
f 2 3 1
f 2 4 3
f 6 12 7
f 7 12 13
f 13 9 7
f 8 5 7
f 7 9 8
f 15 12 11
f 13 12 15
f 15 14 13
f 6 7 4
f 4 7 5
f 10 9 13
f 8 9 10
f 13 14 10
f 1 3 10
f 10 11 1
f 10 5 8
f 10 3 5
f 10 15 11
f 1 11 2
f 2 12 6
f 11 12 2
f 6 4 2

