# https://github.com/mikedh/trimesh
v 0.01116800 -0.00562024 0.01976865
v 0.01116800 -0.00866206 0.01883861
v 0.01116800 -0.00562262 0.01985942
v 0.01117612 -0.00562024 0.01985980
v 0.01662422 -0.00562024 0.01745012
v 0.01116800 -0.00601986 0.01973196
v 0.01269652 -0.00866206 0.01972076
v 0.01366085 -0.00866206 0.02008188
v 0.01380000 -0.00866206 0.02011317
v 0.01248590 -0.00562024 0.02005253
v 0.01669948 -0.00562024 0.01876407
v 0.01663126 -0.00866206 0.01756946
v 0.01662422 -0.00866206 0.01745012
v 0.01380000 -0.00591445 0.02020470
v 0.01499499 -0.00866206 0.02021977
v 0.01380000 -0.00562024 0.02020857
v 0.01669948 -0.00866206 0.01876407
v 0.01633021 -0.00562024 0.01958519
v 0.01511411 -0.00866206 0.02022286
v 0.01511411 -0.00562024 0.02022286
v 0.01622354 -0.00866206 0.01982195
v 0.01622354 -0.00562024 0.01982195
v 0.01116800 -0.00562024 0.01700000
v 0.01116800 -0.00866206 0.01700000
v 0.01639008 -0.00562024 0.01700000
v 0.01639015 -0.00726601 0.01700000
v 0.01639015 -0.00866206 0.01700000
f 19 20 16
f 25 5 26
f 3 7 8
f 19 16 15
f 12 5 11
f 12 13 5
f 11 17 12
f 2 7 6
f 7 3 6
f 1 3 4
f 9 3 8
f 18 17 11
f 22 21 18
f 18 21 17
f 10 4 3
f 3 9 10
f 16 10 14
f 14 10 9
f 14 9 15
f 14 15 16
f 23 25 26
f 27 24 26
f 26 24 23
f 27 26 13
f 13 26 5
f 21 22 20
f 21 20 19
f 1 23 6
f 6 24 2
f 23 24 6
f 6 3 1
f 2 24 9
f 9 24 27
f 9 7 2
f 27 13 9
f 19 15 9
f 8 7 9
f 9 21 19
f 9 12 17
f 17 21 9
f 13 12 9
f 10 23 1
f 11 5 10
f 10 25 23
f 1 4 10
f 10 5 25
f 10 16 20
f 20 22 10
f 10 18 11
f 22 18 10

