# https://github.com/mikedh/trimesh
v 0.03653610 0.02516020 0.02072418
v 0.03653610 0.02516020 0.01709203
v 0.03242379 0.02516020 0.02072418
v 0.03653610 0.02072586 0.02072418
v 0.03242379 0.02072586 0.02072418
v 0.03653610 0.01774343 0.02022271
v 0.03242379 0.01774343 0.02022271
v 0.03242379 0.01742740 0.02012608
v 0.03653610 0.01736251 0.02010605
v 0.03242379 0.01736251 0.02010605
v 0.03645479 0.02516020 0.01700000
v 0.03653610 0.02481221 0.01700000
v 0.03242379 0.02516020 0.01700000
v 0.03653610 0.01736251 0.01700000
v 0.03242379 0.01736251 0.01700000
f 11 2 12
f 8 10 9
f 9 6 8
f 7 8 6
f 1 2 13
f 3 1 13
f 13 2 11
f 14 10 15
f 9 10 14
f 5 4 1
f 5 1 3
f 12 13 11
f 15 13 12
f 12 14 15
f 9 14 12
f 1 4 12
f 12 2 1
f 12 6 9
f 4 6 12
f 3 13 7
f 7 13 15
f 15 10 7
f 7 5 3
f 10 8 7
f 7 6 4
f 4 5 7

