# https://github.com/mikedh/trimesh
v 0.04138104 -0.02038572 0.02048620
v 0.04138104 -0.02114395 0.02189495
v 0.04138104 -0.02031568 0.02048841
v 0.04138940 -0.02031234 0.02048620
v 0.04320905 -0.01826781 0.02189495
v 0.04277558 -0.01780420 0.02048620
v 0.04370580 -0.01805212 0.02189495
v 0.04402894 -0.01793316 0.02189495
v 0.04402894 -0.01741842 0.02048620
v 0.04534243 -0.01773527 0.02189495
v 0.04534034 -0.01736505 0.02048620
v 0.04600000 -0.01795676 0.02189495
v 0.04600000 -0.01783208 0.02141962
v 0.04600000 -0.01765084 0.02048620
v 0.04138104 -0.02800000 0.02048620
v 0.04138104 -0.02800000 0.02189495
v 0.04600000 -0.02800000 0.02189495
v 0.04600000 -0.02800000 0.02048620
f 2 5 6
f 6 8 9
f 14 11 13
f 10 11 9
f 9 8 10
f 2 6 3
f 7 6 5
f 8 6 7
f 1 3 4
f 4 3 6
f 18 16 15
f 17 16 18
f 12 17 13
f 13 18 14
f 17 18 13
f 12 13 10
f 10 13 11
f 1 15 3
f 3 16 2
f 15 16 3
f 7 17 12
f 2 16 7
f 7 5 2
f 7 16 17
f 12 10 7
f 7 10 8
f 4 15 1
f 4 18 15
f 14 18 4
f 4 11 14
f 9 11 4
f 4 6 9

