# https://github.com/mikedh/trimesh
v -0.00540000 0.05400000 0.03975000
v -0.00540465 0.05415549 0.03975000
v -0.00541860 0.05431042 0.03975000
v -0.00544178 0.05446425 0.03975000
v -0.00547413 0.05461641 0.03975000
v -0.00551551 0.05476636 0.03975000
v -0.00556579 0.05491357 0.03975000
v -0.00562478 0.05505752 0.03975000
v -0.00569228 0.05519767 0.03975000
v -0.00576803 0.05533354 0.03975000
v -0.00585178 0.05546463 0.03975000
v -0.00594322 0.05559048 0.03975000
v -0.00604201 0.05571064 0.03975000
v -0.00614782 0.05582467 0.03975000
v -0.00626026 0.05593218 0.03975000
v -0.00637893 0.05603276 0.03975000
v -0.00650340 0.05612607 0.03975000
v -0.00663322 0.05621177 0.03975000
v -0.00676794 0.05628955 0.03975000
v -0.00690707 0.05635913 0.03975000
v -0.00705011 0.05642027 0.03975000
v -0.00719656 0.05647275 0.03975000
v -0.00734587 0.05651637 0.03975000
v -0.00749753 0.05655099 0.03975000
v -0.00765099 0.05657647 0.03975000
v -0.00780570 0.05659273 0.03975000
v -0.00796111 0.05659971 0.03975000
v -0.00811665 0.05659738 0.03975000
v -0.00827177 0.05658576 0.03975000
v -0.00842593 0.05656488 0.03975000
v -0.00857855 0.05653481 0.03975000
v -0.00872911 0.05649568 0.03975000
v -0.00887706 0.05644760 0.03975000
v -0.00902187 0.05639077 0.03975000
v -0.00916301 0.05632538 0.03975000
v -0.00930000 0.05625167 0.03975000
v -0.00943233 0.05616989 0.03975000
v -0.00955954 0.05608035 0.03975000
v -0.00968116 0.05598336 0.03975000
v -0.00979676 0.05587927 0.03975000
v -0.00990593 0.05576845 0.03975000
v -0.01000828 0.05565130 0.03975000
v -0.01010344 0.05552824 0.03975000
v -0.01019107 0.05539971 0.03975000
v -0.01027086 0.05526617 0.03975000
v -0.01034252 0.05512810 0.03975000
v -0.01040579 0.05498599 0.03975000
v -0.01046045 0.05484035 0.03975000
v -0.01050630 0.05469170 0.03975000
v -0.01054318 0.05454057 0.03975000
v -0.01057096 0.05438751 0.03975000
v -0.01058953 0.05423306 0.03975000
v -0.01059884 0.05407778 0.03975000
v -0.01059884 0.05392222 0.03975000
v -0.01058953 0.05376694 0.03975000
v -0.01057096 0.05361249 0.03975000
v -0.01054318 0.05345943 0.03975000
v -0.01050630 0.05330830 0.03975000
v -0.01046045 0.05315965 0.03975000
v -0.01040579 0.05301401 0.03975000
v -0.01034252 0.05287190 0.03975000
v -0.01027086 0.05273383 0.03975000
v -0.01019107 0.05260029 0.03975000
v -0.01010344 0.05247176 0.03975000
v -0.01000828 0.05234870 0.03975000
v -0.00990593 0.05223155 0.03975000
v -0.00979676 0.05212073 0.03975000
v -0.00968116 0.05201664 0.03975000
v -0.00955954 0.05191965 0.03975000
v -0.00943233 0.05183011 0.03975000
v -0.00930000 0.05174833 0.03975000
v -0.00916301 0.05167462 0.03975000
v -0.00902187 0.05160923 0.03975000
v -0.00887706 0.05155240 0.03975000
v -0.00872911 0.05150432 0.03975000
v -0.00857855 0.05146519 0.03975000
v -0.00842593 0.05143512 0.03975000
v -0.00827177 0.05141424 0.03975000
v -0.00811665 0.05140262 0.03975000
v -0.00796111 0.05140029 0.03975000
v -0.00780570 0.05140727 0.03975000
v -0.00765099 0.05142353 0.03975000
v -0.00749753 0.05144901 0.03975000
v -0.00734587 0.05148363 0.03975000
v -0.00719656 0.05152725 0.03975000
v -0.00705011 0.05157973 0.03975000
v -0.00690707 0.05164087 0.03975000
v -0.00676794 0.05171045 0.03975000
v -0.00663322 0.05178823 0.03975000
v -0.00650340 0.05187393 0.03975000
v -0.00637893 0.05196724 0.03975000
v -0.00626026 0.05206782 0.03975000
v -0.00614782 0.05217533 0.03975000
v -0.00604201 0.05228936 0.03975000
v -0.00594322 0.05240952 0.03975000
v -0.00585178 0.05253537 0.03975000
v -0.00576803 0.05266646 0.03975000
v -0.00569228 0.05280233 0.03975000
v -0.00562478 0.05294248 0.03975000
v -0.00556579 0.05308643 0.03975000
v -0.00551551 0.05323364 0.03975000
v -0.00547413 0.05338359 0.03975000
v -0.00544178 0.05353575 0.03975000
v -0.00541860 0.05368958 0.03975000
v -0.00540465 0.05384451 0.03975000
v -0.00540000 0.05400000 0.03775000
v -0.00540465 0.05415549 0.03775000
v -0.00541860 0.05431042 0.03775000
v -0.00544178 0.05446425 0.03775000
v -0.00547413 0.05461641 0.03775000
v -0.00551551 0.05476636 0.03775000
v -0.00556579 0.05491357 0.03775000
v -0.00562478 0.05505752 0.03775000
v -0.00569228 0.05519767 0.03775000
v -0.00576803 0.05533354 0.03775000
v -0.00585178 0.05546463 0.03775000
v -0.00594322 0.05559048 0.03775000
v -0.00604201 0.05571064 0.03775000
v -0.00614782 0.05582467 0.03775000
v -0.00626026 0.05593218 0.03775000
v -0.00637893 0.05603276 0.03775000
v -0.00650340 0.05612607 0.03775000
v -0.00663322 0.05621177 0.03775000
v -0.00676794 0.05628955 0.03775000
v -0.00690707 0.05635913 0.03775000
v -0.00705011 0.05642027 0.03775000
v -0.00719656 0.05647275 0.03775000
v -0.00734587 0.05651637 0.03775000
v -0.00749753 0.05655099 0.03775000
v -0.00765099 0.05657647 0.03775000
v -0.00780570 0.05659273 0.03775000
v -0.00796111 0.05659971 0.03775000
v -0.00811665 0.05659738 0.03775000
v -0.00827177 0.05658576 0.03775000
v -0.00842593 0.05656488 0.03775000
v -0.00857855 0.05653481 0.03775000
v -0.00872911 0.05649568 0.03775000
v -0.00887706 0.05644760 0.03775000
v -0.00902187 0.05639077 0.03775000
v -0.00916301 0.05632538 0.03775000
v -0.00930000 0.05625167 0.03775000
v -0.00943233 0.05616989 0.03775000
v -0.00955954 0.05608035 0.03775000
v -0.00968116 0.05598336 0.03775000
v -0.00979676 0.05587927 0.03775000
v -0.00990593 0.05576845 0.03775000
v -0.01000828 0.05565130 0.03775000
v -0.01010344 0.05552824 0.03775000
v -0.01019107 0.05539971 0.03775000
v -0.01027086 0.05526617 0.03775000
v -0.01034252 0.05512810 0.03775000
v -0.01040579 0.05498599 0.03775000
v -0.01046045 0.05484035 0.03775000
v -0.01050630 0.05469170 0.03775000
v -0.01054318 0.05454057 0.03775000
v -0.01057096 0.05438751 0.03775000
v -0.01058953 0.05423306 0.03775000
v -0.01059884 0.05407778 0.03775000
v -0.01059884 0.05392222 0.03775000
v -0.01058953 0.05376694 0.03775000
v -0.01057096 0.05361249 0.03775000
v -0.01054318 0.05345943 0.03775000
v -0.01050630 0.05330830 0.03775000
v -0.01046045 0.05315965 0.03775000
v -0.01040579 0.05301401 0.03775000
v -0.01034252 0.05287190 0.03775000
v -0.01027086 0.05273383 0.03775000
v -0.01019107 0.05260029 0.03775000
v -0.01010344 0.05247176 0.03775000
v -0.01000828 0.05234870 0.03775000
v -0.00990593 0.05223155 0.03775000
v -0.00979676 0.05212073 0.03775000
v -0.00968116 0.05201664 0.03775000
v -0.00955954 0.05191965 0.03775000
v -0.00943233 0.05183011 0.03775000
v -0.00930000 0.05174833 0.03775000
v -0.00916301 0.05167462 0.03775000
v -0.00902187 0.05160923 0.03775000
v -0.00887706 0.05155240 0.03775000
v -0.00872911 0.05150432 0.03775000
v -0.00857855 0.05146519 0.03775000
v -0.00842593 0.05143512 0.03775000
v -0.00827177 0.05141424 0.03775000
v -0.00811665 0.05140262 0.03775000
v -0.00796111 0.05140029 0.03775000
v -0.00780570 0.05140727 0.03775000
v -0.00765099 0.05142353 0.03775000
v -0.00749753 0.05144901 0.03775000
v -0.00734587 0.05148363 0.03775000
v -0.00719656 0.05152725 0.03775000
v -0.00705011 0.05157973 0.03775000
v -0.00690707 0.05164087 0.03775000
v -0.00676794 0.05171045 0.03775000
v -0.00663322 0.05178823 0.03775000
v -0.00650340 0.05187393 0.03775000
v -0.00637893 0.05196724 0.03775000
v -0.00626026 0.05206782 0.03775000
v -0.00614782 0.05217533 0.03775000
v -0.00604201 0.05228936 0.03775000
v -0.00594322 0.05240952 0.03775000
v -0.00585178 0.05253537 0.03775000
v -0.00576803 0.05266646 0.03775000
v -0.00569228 0.05280233 0.03775000
v -0.00562478 0.05294248 0.03775000
v -0.00556579 0.05308643 0.03775000
v -0.00551551 0.05323364 0.03775000
v -0.00547413 0.05338359 0.03775000
v -0.00544178 0.05353575 0.03775000
v -0.00541860 0.05368958 0.03775000
v -0.00540465 0.05384451 0.03775000
v -0.00670000 0.05400000 0.03275000
v -0.00670233 0.05407775 0.03275000
v -0.00670930 0.05415521 0.03275000
v -0.00672089 0.05423212 0.03275000
v -0.00673706 0.05430820 0.03275000
v -0.00675776 0.05438318 0.03275000
v -0.00678289 0.05445679 0.03275000
v -0.00681239 0.05452876 0.03275000
v -0.00684614 0.05459884 0.03275000
v -0.00688402 0.05466677 0.03275000
v -0.00692589 0.05473232 0.03275000
v -0.00697161 0.05479524 0.03275000
v -0.00702101 0.05485532 0.03275000
v -0.00707391 0.05491234 0.03275000
v -0.00713013 0.05496609 0.03275000
v -0.00718946 0.05501638 0.03275000
v -0.00725170 0.05506304 0.03275000
v -0.00731661 0.05510588 0.03275000
v -0.00738397 0.05514477 0.03275000
v -0.00745354 0.05517957 0.03275000
v -0.00752506 0.05521014 0.03275000
v -0.00759828 0.05523637 0.03275000
v -0.00767294 0.05525819 0.03275000
v -0.00774877 0.05527549 0.03275000
v -0.00782550 0.05528823 0.03275000
v -0.00790285 0.05529636 0.03275000
v -0.00798055 0.05529985 0.03275000
v -0.00805832 0.05529869 0.03275000
v -0.00813589 0.05529288 0.03275000
v -0.00821296 0.05528244 0.03275000
v -0.00828928 0.05526741 0.03275000
v -0.00836456 0.05524784 0.03275000
v -0.00843853 0.05522380 0.03275000
v -0.00851093 0.05519539 0.03275000
v -0.00858151 0.05516269 0.03275000
v -0.00865000 0.05512583 0.03275000
v -0.00871617 0.05508495 0.03275000
v -0.00877977 0.05504017 0.03275000
v -0.00884058 0.05499168 0.03275000
v -0.00889838 0.05493963 0.03275000
v -0.00895297 0.05488422 0.03275000
v -0.00900414 0.05482565 0.03275000
v -0.00905172 0.05476412 0.03275000
v -0.00909554 0.05469986 0.03275000
v -0.00913543 0.05463309 0.03275000
v -0.00917126 0.05456405 0.03275000
v -0.00920290 0.05449299 0.03275000
v -0.00923023 0.05442017 0.03275000
v -0.00925315 0.05434585 0.03275000
v -0.00927159 0.05427029 0.03275000
v -0.00928548 0.05419375 0.03275000
v -0.00929477 0.05411653 0.03275000
v -0.00929942 0.05403889 0.03275000
v -0.00929942 0.05396111 0.03275000
v -0.00929477 0.05388347 0.03275000
v -0.00928548 0.05380625 0.03275000
v -0.00927159 0.05372971 0.03275000
v -0.00925315 0.05365415 0.03275000
v -0.00923023 0.05357983 0.03275000
v -0.00920290 0.05350701 0.03275000
v -0.00917126 0.05343595 0.03275000
v -0.00913543 0.05336691 0.03275000
v -0.00909554 0.05330014 0.03275000
v -0.00905172 0.05323588 0.03275000
v -0.00900414 0.05317435 0.03275000
v -0.00895297 0.05311578 0.03275000
v -0.00889838 0.05306037 0.03275000
v -0.00884058 0.05300832 0.03275000
v -0.00877977 0.05295983 0.03275000
v -0.00871617 0.05291505 0.03275000
v -0.00865000 0.05287417 0.03275000
v -0.00858151 0.05283731 0.03275000
v -0.00851093 0.05280461 0.03275000
v -0.00843853 0.05277620 0.03275000
v -0.00836456 0.05275216 0.03275000
v -0.00828928 0.05273259 0.03275000
v -0.00821296 0.05271756 0.03275000
v -0.00813589 0.05270712 0.03275000
v -0.00805832 0.05270131 0.03275000
v -0.00798055 0.05270015 0.03275000
v -0.00790285 0.05270364 0.03275000
v -0.00782550 0.05271177 0.03275000
v -0.00774877 0.05272451 0.03275000
v -0.00767294 0.05274181 0.03275000
v -0.00759828 0.05276363 0.03275000
v -0.00752506 0.05278986 0.03275000
v -0.00745354 0.05282043 0.03275000
v -0.00738397 0.05285523 0.03275000
v -0.00731661 0.05289412 0.03275000
v -0.00725170 0.05293696 0.03275000
v -0.00718946 0.05298362 0.03275000
v -0.00713013 0.05303391 0.03275000
v -0.00707391 0.05308766 0.03275000
v -0.00702101 0.05314468 0.03275000
v -0.00697161 0.05320476 0.03275000
v -0.00692589 0.05326768 0.03275000
v -0.00688402 0.05333323 0.03275000
v -0.00684614 0.05340116 0.03275000
v -0.00681239 0.05347124 0.03275000
v -0.00678289 0.05354321 0.03275000
v -0.00675776 0.05361682 0.03275000
v -0.00673706 0.05369180 0.03275000
v -0.00672089 0.05376788 0.03275000
v -0.00670930 0.05384479 0.03275000
v -0.00670233 0.05392225 0.03275000
f 175 174 279
f 177 282 178
f 260 156 155
f 134 238 239
f 211 107 106
f 106 210 211
f 294 189 188
f 185 290 186
f 175 279 280
f 282 177 176
f 182 181 287
f 178 282 283
f 283 284 178
f 178 284 179
f 131 130 235
f 131 237 132
f 128 232 233
f 233 129 128
f 127 232 128
f 125 229 230
f 238 134 133
f 237 238 133
f 132 237 133
f 136 135 240
f 244 139 243
f 243 139 138
f 136 242 137
f 242 243 137
f 137 243 138
f 306 307 202
f 202 201 306
f 203 202 308
f 308 202 307
f 211 210 315
f 306 201 200
f 109 108 213
f 213 214 109
f 296 191 295
f 191 190 295
f 295 190 189
f 189 294 295
f 293 294 188
f 184 290 185
f 187 186 292
f 292 186 291
f 291 186 290
f 197 302 198
f 192 191 296
f 278 279 174
f 174 173 278
f 278 172 277
f 278 173 172
f 282 176 281
f 175 280 281
f 281 176 175
f 287 181 286
f 181 285 286
f 180 285 181
f 284 285 180
f 180 179 284
f 262 157 156
f 263 157 262
f 154 260 155
f 154 153 258
f 236 131 235
f 237 131 236
f 129 233 234
f 232 127 126
f 118 223 119
f 124 229 125
f 121 226 227
f 121 227 122
f 122 227 123
f 241 242 136
f 136 240 241
f 309 205 204
f 209 315 210
f 303 304 198
f 198 302 303
f 198 304 199
f 304 200 199
f 306 200 305
f 305 200 304
f 212 108 107
f 212 213 108
f 212 107 211
f 183 288 289
f 289 184 183
f 290 184 289
f 301 196 300
f 196 195 300
f 194 299 300
f 300 195 194
f 158 157 263
f 156 260 261
f 261 262 156
f 267 163 162
f 162 161 267
f 256 150 255
f 260 154 259
f 259 154 258
f 111 216 217
f 217 112 111
f 218 113 112
f 218 112 217
f 115 219 220
f 114 219 115
f 220 221 115
f 115 221 116
f 232 126 231
f 231 126 125
f 125 230 231
f 123 227 228
f 205 309 310
f 310 311 206
f 206 205 310
f 315 209 314
f 208 313 314
f 314 209 208
f 297 192 296
f 297 298 192
f 192 298 193
f 265 161 160
f 160 264 265
f 159 264 160
f 266 161 265
f 266 267 161
f 164 163 269
f 152 256 257
f 257 153 152
f 258 153 257
f 151 256 152
f 150 256 151
f 251 147 146
f 251 252 147
f 146 145 251
f 117 223 118
f 116 221 117
f 224 119 223
f 224 225 119
f 119 225 120
f 163 267 268
f 268 269 163
f 270 165 164
f 164 269 270
f 254 149 148
f 148 253 254
f 150 149 254
f 255 150 254
f 249 145 144
f 144 143 249
f 223 117 222
f 222 117 221
f 271 166 165
f 165 270 271
f 167 166 271
f 250 251 145
f 145 249 250
f 248 143 142
f 248 249 143
f 273 168 167
f 169 168 273
f 142 141 246
f 167 271 272
f 272 273 167
f 247 248 142
f 142 246 247
f 245 141 140
f 245 246 141
f 140 139 245
f 245 139 244
f 169 273 274
f 276 171 170
f 170 275 276
f 172 171 276
f 277 172 276
f 51 50 155
f 155 156 51
f 105 106 1
f 210 106 105
f 1 106 2
f 2 106 107
f 107 108 2
f 2 108 3
f 4 110 5
f 4 109 110
f 3 108 4
f 4 108 109
f 69 174 175
f 175 70 69
f 188 189 84
f 84 83 188
f 153 48 47
f 47 152 153
f 24 23 129
f 129 23 128
f 27 26 131
f 132 27 131
f 24 129 25
f 25 129 130
f 25 131 26
f 130 131 25
f 128 23 127
f 23 22 127
f 240 134 239
f 240 135 134
f 148 43 42
f 42 147 148
f 142 143 38
f 38 37 142
f 312 207 206
f 206 311 312
f 312 313 208
f 208 207 312
f 208 103 102
f 102 207 208
f 206 207 102
f 102 101 206
f 110 109 215
f 109 214 215
f 288 182 287
f 183 182 288
f 292 293 187
f 187 293 188
f 80 185 81
f 185 186 81
f 85 191 86
f 85 190 191
f 85 84 189
f 189 190 85
f 93 92 197
f 198 93 197
f 197 92 91
f 91 196 197
f 301 302 197
f 197 196 301
f 192 87 86
f 86 191 192
f 68 67 172
f 172 173 68
f 174 69 68
f 68 173 174
f 178 179 73
f 73 179 74
f 73 177 178
f 73 72 177
f 71 70 175
f 175 176 71
f 177 72 71
f 71 176 177
f 169 170 65
f 65 64 169
f 157 51 156
f 157 52 51
f 155 50 154
f 50 49 154
f 154 49 48
f 48 153 154
f 130 129 234
f 235 130 234
f 21 20 126
f 126 20 125
f 126 22 21
f 126 127 22
f 14 13 119
f 119 13 118
f 40 145 41
f 41 145 146
f 147 42 41
f 146 147 41
f 39 145 40
f 144 145 39
f 39 38 143
f 39 143 144
f 33 138 34
f 138 139 34
f 34 139 140
f 140 35 34
f 142 37 36
f 36 141 142
f 36 35 140
f 140 141 36
f 99 204 100
f 204 205 100
f 206 101 100
f 100 205 206
f 97 96 201
f 201 202 97
f 309 204 203
f 203 308 309
f 209 103 208
f 209 104 103
f 210 105 209
f 105 104 209
f 201 96 95
f 95 200 201
f 188 83 82
f 82 187 188
f 82 81 186
f 186 187 82
f 89 194 90
f 194 195 90
f 90 196 91
f 90 195 196
f 78 182 183
f 78 77 182
f 182 77 76
f 181 182 76
f 172 67 66
f 66 171 172
f 66 65 170
f 170 171 66
f 169 64 63
f 63 168 169
f 167 168 63
f 63 62 167
f 53 52 158
f 52 157 158
f 159 158 264
f 264 158 263
f 8 114 9
f 8 113 114
f 8 7 112
f 112 113 8
f 110 215 111
f 215 216 111
f 114 113 218
f 218 219 114
f 10 9 115
f 9 114 115
f 115 11 10
f 115 116 11
f 18 123 19
f 123 124 19
f 125 20 19
f 19 124 125
f 228 124 123
f 229 124 228
f 17 123 18
f 17 122 123
f 17 16 121
f 121 122 17
f 134 135 29
f 135 30 29
f 31 30 135
f 31 135 136
f 98 204 99
f 203 204 98
f 98 97 202
f 98 202 203
f 94 93 198
f 198 199 94
f 200 95 94
f 94 199 200
f 193 298 299
f 193 299 194
f 89 88 193
f 193 194 89
f 193 88 87
f 87 192 193
f 79 185 80
f 79 184 185
f 79 78 183
f 183 184 79
f 74 179 75
f 179 180 75
f 181 76 75
f 75 180 181
f 167 62 61
f 61 166 167
f 165 166 61
f 61 60 165
f 149 44 43
f 149 43 148
f 45 44 149
f 149 150 45
f 47 46 151
f 151 152 47
f 151 46 45
f 45 150 151
f 148 147 253
f 147 252 253
f 5 110 6
f 110 111 6
f 112 7 6
f 6 111 112
f 117 13 12
f 118 13 117
f 12 11 117
f 11 116 117
f 16 15 120
f 121 16 120
f 14 119 120
f 120 15 14
f 120 225 226
f 120 226 121
f 28 27 132
f 132 133 28
f 134 29 28
f 28 133 134
f 32 138 33
f 32 137 138
f 32 31 136
f 136 137 32
f 165 60 59
f 164 165 59
f 59 163 164
f 59 58 163
f 163 58 57
f 162 163 57
f 53 158 54
f 54 158 159
f 159 160 54
f 160 55 54
f 67 68 56
f 103 104 56
f 56 59 60
f 56 63 64
f 56 4 5
f 56 13 14
f 56 8 9
f 21 22 56
f 70 71 56
f 56 26 27
f 86 87 56
f 56 20 21
f 56 17 18
f 56 36 37
f 56 105 1
f 80 81 56
f 47 48 56
f 56 79 80
f 43 44 56
f 24 25 56
f 27 28 56
f 56 49 50
f 56 9 10
f 1 2 56
f 56 88 89
f 56 85 86
f 56 82 83
f 56 92 93
f 10 11 56
f 50 51 56
f 56 52 53
f 56 46 47
f 56 23 24
f 14 15 56
f 40 41 56
f 99 100 56
f 56 39 40
f 12 13 56
f 56 102 103
f 56 2 3
f 3 4 56
f 56 69 70
f 83 84 56
f 91 92 56
f 87 88 56
f 56 73 74
f 89 90 56
f 51 52 56
f 56 44 45
f 45 46 56
f 48 49 56
f 56 11 12
f 56 25 26
f 56 22 23
f 18 19 56
f 56 42 43
f 37 38 56
f 33 34 56
f 101 102 56
f 56 104 105
f 56 98 99
f 84 85 56
f 56 68 69
f 72 73 56
f 56 71 72
f 93 94 56
f 64 65 56
f 56 66 67
f 56 61 62
f 5 6 56
f 56 41 42
f 38 39 56
f 56 34 35
f 35 36 56
f 56 100 101
f 96 97 56
f 56 95 96
f 81 82 56
f 56 90 91
f 77 78 56
f 56 76 77
f 65 66 56
f 62 63 56
f 74 75 56
f 7 8 56
f 56 15 16
f 56 19 20
f 16 17 56
f 56 29 30
f 30 31 56
f 97 98 56
f 56 94 95
f 78 79 56
f 56 75 76
f 60 61 56
f 56 32 33
f 56 6 7
f 56 28 29
f 31 32 56
f 58 59 56
f 56 57 58
f 53 54 56
f 56 54 55
f 162 57 56
f 56 161 162
f 56 55 160
f 56 160 161
f 274 170 169
f 274 275 170
f 276 278 277
f 239 238 276
f 260 259 276
f 276 302 301
f 276 293 292
f 304 303 276
f 276 283 282
f 276 307 306
f 292 291 276
f 276 264 263
f 276 230 229
f 276 218 217
f 276 240 239
f 242 241 276
f 276 212 211
f 301 300 276
f 282 281 276
f 276 314 313
f 276 236 235
f 276 238 237
f 232 231 276
f 244 243 276
f 211 315 276
f 276 312 311
f 306 305 276
f 296 295 276
f 276 288 287
f 290 289 276
f 276 280 279
f 276 285 284
f 284 283 276
f 287 286 276
f 223 222 276
f 276 268 267
f 276 233 232
f 251 250 276
f 235 234 276
f 255 254 276
f 276 243 242
f 276 308 307
f 311 310 276
f 313 312 276
f 229 228 276
f 214 213 276
f 276 215 214
f 276 295 294
f 294 293 276
f 217 216 276
f 276 291 290
f 279 278 276
f 276 281 280
f 276 286 285
f 263 262 276
f 276 261 260
f 276 266 265
f 220 219 276
f 237 236 276
f 276 234 233
f 276 227 226
f 276 241 240
f 276 309 308
f 276 303 302
f 276 305 304
f 213 212 276
f 276 216 215
f 276 289 288
f 276 300 299
f 299 298 276
f 262 261 276
f 265 264 276
f 276 297 296
f 276 256 255
f 258 257 276
f 276 259 258
f 219 218 276
f 276 221 220
f 276 231 230
f 226 225 276
f 276 228 227
f 276 310 309
f 315 314 276
f 298 297 276
f 267 266 276
f 276 224 223
f 276 257 256
f 276 253 252
f 252 251 276
f 225 224 276
f 269 268 276
f 276 270 269
f 276 254 253
f 276 272 271
f 276 222 221
f 276 271 270
f 276 250 249
f 249 248 276
f 248 247 276
f 276 274 273
f 273 272 276
f 276 245 244
f 276 247 246
f 246 245 276
f 275 274 276

