# https://github.com/mikedh/trimesh
v -0.00372938 -0.00251668 0.02630000
v -0.00358728 -0.00271665 0.02630000
v -0.00372938 -0.00251668 0.02950000
v -0.00097755 -0.00251668 0.02630000
v -0.00341977 -0.00292476 0.02630000
v -0.00358728 -0.00271665 0.02950000
v -0.00097755 -0.00251668 0.02950000
v 0.00003114 -0.00269880 0.02630000
v -0.00324012 -0.00312240 0.02630000
v -0.00341977 -0.00292476 0.02950000
v 0.00003114 -0.00269880 0.02950000
v 0.00003114 -0.00449792 0.02630000
v -0.00304943 -0.00330918 0.02630000
v -0.00324012 -0.00312240 0.02950000
v 0.00003114 -0.00449792 0.02950000
v -0.00014520 -0.00449753 0.02630000
v -0.00284769 -0.00348432 0.02630000
v -0.00304943 -0.00330918 0.02950000
v -0.00014520 -0.00449753 0.02950000
v -0.00041173 -0.00448105 0.02630000
v -0.00263601 -0.00364685 0.02630000
v -0.00284769 -0.00348432 0.02950000
v -0.00041173 -0.00448105 0.02950000
v -0.00067715 -0.00444865 0.02630000
v -0.00241476 -0.00379697 0.02630000
v -0.00263601 -0.00364685 0.02950000
v -0.00067715 -0.00444865 0.02950000
v -0.00093963 -0.00440075 0.02630000
v -0.00218541 -0.00393351 0.02630000
v -0.00241476 -0.00379697 0.02950000
v -0.00093963 -0.00440075 0.02950000
v -0.00119917 -0.00433733 0.02630000
v -0.00218541 -0.00393351 0.02950000
v -0.00194833 -0.00405629 0.02630000
v -0.00119917 -0.00433733 0.02950000
v -0.00145429 -0.00425839 0.02630000
v -0.00194833 -0.00405629 0.02950000
v -0.00170462 -0.00416471 0.02630000
v -0.00145429 -0.00425839 0.02950000
v -0.00170462 -0.00416471 0.02950000
f 1 2 6
f 1 6 3
f 1 3 7
f 1 7 4
f 1 4 8
f 1 8 12
f 1 12 16
f 1 16 20
f 1 20 24
f 1 24 28
f 1 28 32
f 1 32 36
f 1 36 38
f 1 38 34
f 1 34 29
f 1 29 25
f 1 25 21
f 1 21 17
f 1 17 13
f 1 13 9
f 1 9 5
f 1 5 2
f 2 5 10
f 2 10 6
f 3 6 10
f 3 10 14
f 3 14 18
f 3 18 22
f 3 22 26
f 3 26 30
f 3 30 33
f 3 33 37
f 3 37 40
f 3 40 39
f 3 39 35
f 3 35 31
f 3 31 27
f 3 27 23
f 3 23 19
f 3 19 15
f 3 15 11
f 3 11 7
f 4 7 11
f 4 11 8
f 5 9 14
f 5 14 10
f 8 11 15
f 8 15 12
f 9 13 18
f 9 18 14
f 12 15 19
f 12 19 16
f 13 17 22
f 13 22 18
f 16 19 23
f 16 23 20
f 17 21 26
f 17 26 22
f 20 23 27
f 20 27 24
f 21 25 30
f 21 30 26
f 24 27 31
f 24 31 28
f 25 29 33
f 25 33 30
f 28 31 35
f 28 35 32
f 29 34 37
f 29 37 33
f 32 35 39
f 32 39 36
f 34 38 40
f 34 40 37
f 36 39 40
f 36 40 38

