# https://github.com/mikedh/trimesh
v 0.01564375 -0.01632764 0.02630000
v 0.01576659 -0.01652188 0.02630000
v 0.01564375 -0.01632764 0.02950000
v 0.01812667 -0.01632764 0.02630000
v 0.01576659 -0.01652188 0.02950000
v 0.01592303 -0.01673843 0.02630000
v 0.01812667 -0.01632764 0.02950000
v 0.02004629 -0.01664174 0.02630000
v 0.01592303 -0.01673843 0.02950000
v 0.01609155 -0.01694542 0.02630000
v 0.02004629 -0.01664174 0.02950000
v 0.02004629 -0.01846382 0.02630000
v 0.01609155 -0.01694542 0.02950000
v 0.01627257 -0.01714220 0.02630000
v 0.02004629 -0.01846382 0.02950000
v 0.01990924 -0.01848061 0.02630000
v 0.01627257 -0.01714220 0.02950000
v 0.01646435 -0.01732773 0.02630000
v 0.01990924 -0.01848061 0.02950000
v 0.01964289 -0.01849740 0.02630000
v 0.01646435 -0.01732773 0.02950000
v 0.01666735 -0.01750135 0.02630000
v 0.01964289 -0.01849740 0.02950000
v 0.01937568 -0.01849846 0.02630000
v 0.01666735 -0.01750135 0.02950000
v 0.01687983 -0.01766286 0.02630000
v 0.01937568 -0.01849846 0.02950000
v 0.01910889 -0.01848337 0.02630000
v 0.01687983 -0.01766286 0.02950000
v 0.01710179 -0.01781162 0.02630000
v 0.01910889 -0.01848337 0.02950000
v 0.01884384 -0.01845277 0.02630000
v 0.01710179 -0.01781162 0.02950000
v 0.01733236 -0.01794678 0.02630000
v 0.01884384 -0.01845277 0.02950000
v 0.01858050 -0.01840644 0.02630000
v 0.01733236 -0.01794678 0.02950000
v 0.01757027 -0.01806812 0.02630000
v 0.01858050 -0.01840644 0.02950000
v 0.01832062 -0.01834439 0.02630000
v 0.01757027 -0.01806812 0.02950000
v 0.01781507 -0.01817501 0.02630000
v 0.01832062 -0.01834439 0.02950000
v 0.01806504 -0.01826725 0.02630000
v 0.01781507 -0.01817501 0.02950000
v 0.01806504 -0.01826725 0.02950000
f 1 2 5
f 1 5 3
f 1 3 7
f 1 7 4
f 1 4 8
f 1 8 12
f 1 12 16
f 1 16 20
f 1 20 24
f 1 24 28
f 1 28 32
f 1 32 36
f 1 36 40
f 1 40 44
f 1 44 42
f 1 42 38
f 1 38 34
f 1 34 30
f 1 30 26
f 1 26 22
f 1 22 18
f 1 18 14
f 1 14 10
f 1 10 6
f 1 6 2
f 2 6 9
f 2 9 5
f 3 5 9
f 3 9 13
f 3 13 17
f 3 17 21
f 3 21 25
f 3 25 29
f 3 29 33
f 3 33 37
f 3 37 41
f 3 41 45
f 3 45 46
f 3 46 43
f 3 43 39
f 3 39 35
f 3 35 31
f 3 31 27
f 3 27 23
f 3 23 19
f 3 19 15
f 3 15 11
f 3 11 7
f 4 7 11
f 4 11 8
f 6 10 13
f 6 13 9
f 8 11 15
f 8 15 12
f 10 14 17
f 10 17 13
f 12 15 19
f 12 19 16
f 14 18 21
f 14 21 17
f 16 19 23
f 16 23 20
f 18 22 25
f 18 25 21
f 20 23 27
f 20 27 24
f 22 26 29
f 22 29 25
f 24 27 31
f 24 31 28
f 26 30 33
f 26 33 29
f 28 31 35
f 28 35 32
f 30 34 37
f 30 37 33
f 32 35 39
f 32 39 36
f 34 38 41
f 34 41 37
f 36 39 43
f 36 43 40
f 38 42 45
f 38 45 41
f 40 43 46
f 40 46 44
f 42 44 46
f 42 46 45

