# https://github.com/mikedh/trimesh
v -0.00435776 -0.00111463 0.02630000
v -0.00430944 -0.00129526 0.02630000
v -0.00435776 -0.00111463 0.02950000
v -0.00245932 -0.00111463 0.02630000
v -0.00422506 -0.00154863 0.02630000
v -0.00430944 -0.00129526 0.02950000
v -0.00245932 -0.00111463 0.02950000
v -0.00097750 -0.00251668 0.02630000
v -0.00412579 -0.00179651 0.02630000
v -0.00422506 -0.00154863 0.02950000
v -0.00097750 -0.00251668 0.02950000
v -0.00372969 -0.00251668 0.02630000
v -0.00401195 -0.00203808 0.02630000
v -0.00412579 -0.00179651 0.02950000
v -0.00372969 -0.00251668 0.02950000
v -0.00374226 -0.00249884 0.02630000
v -0.00388389 -0.00227250 0.02630000
v -0.00401195 -0.00203808 0.02950000
v -0.00374226 -0.00249884 0.02950000
v -0.00388389 -0.00227250 0.02950000
f 1 2 6
f 1 6 3
f 1 3 7
f 1 7 4
f 1 4 8
f 1 8 12
f 1 12 16
f 1 16 17
f 1 17 13
f 1 13 9
f 1 9 5
f 1 5 2
f 2 5 10
f 2 10 6
f 3 6 10
f 3 10 14
f 3 14 18
f 3 18 20
f 3 20 19
f 3 19 15
f 3 15 11
f 3 11 7
f 4 7 11
f 4 11 8
f 5 9 14
f 5 14 10
f 8 11 15
f 8 15 12
f 9 13 18
f 9 18 14
f 12 15 19
f 12 19 16
f 13 17 20
f 13 20 18
f 16 19 20
f 16 20 17

