# https://github.com/mikedh/trimesh
v 0.02008250 -0.01136509 0.02630000
v 0.02008250 -0.01136509 0.02950000
v 0.02313904 -0.01136509 0.02630000
v 0.02187296 -0.01272573 0.02630000
v 0.02187296 -0.01272573 0.02950000
v 0.02313904 -0.01136509 0.02950000
v 0.02320869 -0.01146125 0.02630000
v 0.02380781 -0.01272573 0.02630000
v 0.02380781 -0.01272573 0.02950000
v 0.02320869 -0.01146125 0.02950000
v 0.02335309 -0.01168620 0.02630000
v 0.02378885 -0.01265887 0.02630000
v 0.02378885 -0.01265887 0.02950000
v 0.02335309 -0.01168620 0.02950000
v 0.02348327 -0.01191928 0.02630000
v 0.02370170 -0.01240635 0.02630000
v 0.02370170 -0.01240635 0.02950000
v 0.02348327 -0.01191928 0.02950000
v 0.02359996 -0.01215942 0.02630000
v 0.02359996 -0.01215942 0.02950000
f 1 2 6
f 1 6 3
f 1 3 7
f 1 7 11
f 1 11 15
f 1 15 19
f 1 19 16
f 1 16 12
f 1 12 8
f 1 8 4
f 1 4 5
f 1 5 2
f 2 5 9
f 2 9 13
f 2 13 17
f 2 17 20
f 2 20 18
f 2 18 14
f 2 14 10
f 2 10 6
f 3 6 10
f 3 10 7
f 4 8 9
f 4 9 5
f 7 10 14
f 7 14 11
f 8 12 13
f 8 13 9
f 11 14 18
f 11 18 15
f 12 16 17
f 12 17 13
f 15 18 20
f 15 20 19
f 16 19 20
f 16 20 17

