# https://github.com/mikedh/trimesh
v 0.02004629 -0.01846393 0.02630000
v 0.02004629 -0.01664165 0.02630000
v 0.02017495 -0.01844813 0.02630000
v 0.02004629 -0.01846393 0.02950000
v 0.02004629 -0.01664165 0.02950000
v 0.02137064 -0.01594103 0.02630000
v 0.02043742 -0.01839973 0.02630000
v 0.02017495 -0.01844813 0.02950000
v 0.02137064 -0.01594103 0.02950000
v 0.02355136 -0.01594103 0.02630000
v 0.02043742 -0.01839973 0.02950000
v 0.02069680 -0.01833601 0.02630000
v 0.02355136 -0.01594103 0.02950000
v 0.02350744 -0.01603438 0.02630000
v 0.02069680 -0.01833601 0.02950000
v 0.02095207 -0.01825698 0.02630000
v 0.02350744 -0.01603438 0.02950000
v 0.02337947 -0.01626899 0.02630000
v 0.02095207 -0.01825698 0.02950000
v 0.02120184 -0.01816314 0.02630000
v 0.02337947 -0.01626899 0.02950000
v 0.02323811 -0.01649545 0.02630000
v 0.02120184 -0.01816314 0.02950000
v 0.02144612 -0.01805448 0.02630000
v 0.02323811 -0.01649545 0.02950000
v 0.02308338 -0.01671326 0.02630000
v 0.02144612 -0.01805448 0.02950000
v 0.02168320 -0.01793150 0.02630000
v 0.02308338 -0.01671326 0.02950000
v 0.02291629 -0.01692145 0.02630000
v 0.02168320 -0.01793150 0.02950000
v 0.02191205 -0.01779468 0.02630000
v 0.02291629 -0.01692145 0.02950000
v 0.02273685 -0.01711951 0.02630000
v 0.02191205 -0.01779468 0.02950000
v 0.02213300 -0.01764453 0.02630000
v 0.02273685 -0.01711951 0.02950000
v 0.02254609 -0.01730620 0.02630000
v 0.02213300 -0.01764453 0.02950000
v 0.02234469 -0.01748130 0.02630000
v 0.02254609 -0.01730620 0.02950000
v 0.02234469 -0.01748130 0.02950000
f 1 2 6
f 1 6 10
f 1 10 14
f 1 14 18
f 1 18 22
f 1 22 26
f 1 26 30
f 1 30 34
f 1 34 38
f 1 38 40
f 1 40 36
f 1 36 32
f 1 32 28
f 1 28 24
f 1 24 20
f 1 20 16
f 1 16 12
f 1 12 7
f 1 7 3
f 1 3 8
f 1 8 4
f 1 4 5
f 1 5 2
f 2 5 9
f 2 9 6
f 3 7 11
f 3 11 8
f 4 8 11
f 4 11 15
f 4 15 19
f 4 19 23
f 4 23 27
f 4 27 31
f 4 31 35
f 4 35 39
f 4 39 42
f 4 42 41
f 4 41 37
f 4 37 33
f 4 33 29
f 4 29 25
f 4 25 21
f 4 21 17
f 4 17 13
f 4 13 9
f 4 9 5
f 6 9 13
f 6 13 10
f 7 12 15
f 7 15 11
f 10 13 17
f 10 17 14
f 12 16 19
f 12 19 15
f 14 17 21
f 14 21 18
f 16 20 23
f 16 23 19
f 18 21 25
f 18 25 22
f 20 24 27
f 20 27 23
f 22 25 29
f 22 29 26
f 24 28 31
f 24 31 27
f 26 29 33
f 26 33 30
f 28 32 35
f 28 35 31
f 30 33 37
f 30 37 34
f 32 36 39
f 32 39 35
f 34 37 41
f 34 41 38
f 36 40 42
f 36 42 39
f 38 41 42
f 38 42 40

