# https://github.com/mikedh/trimesh
v 0.00358106 -0.00007244 0.02950000
v 0.00358106 -0.00007244 0.02630000
v 0.00269886 -0.00007244 0.02950000
v 0.00358106 -0.00273529 0.02950000
v 0.00269886 -0.00007244 0.02630000
v 0.00358106 -0.00273529 0.02630000
v 0.00212521 -0.00166413 0.02950000
v 0.00340490 -0.00294183 0.02950000
v 0.00212521 -0.00166413 0.02630000
v 0.00340490 -0.00294183 0.02630000
v 0.00212521 -0.00396498 0.02950000
v 0.00322433 -0.00313884 0.02950000
v 0.00212521 -0.00396498 0.02630000
v 0.00322433 -0.00313884 0.02630000
v 0.00216540 -0.00394478 0.02950000
v 0.00303235 -0.00332441 0.02950000
v 0.00216540 -0.00394478 0.02630000
v 0.00303235 -0.00332441 0.02630000
v 0.00239557 -0.00380912 0.02950000
v 0.00282997 -0.00349856 0.02950000
v 0.00239557 -0.00380912 0.02630000
v 0.00282997 -0.00349856 0.02630000
v 0.00261733 -0.00366051 0.02950000
v 0.00261733 -0.00366051 0.02630000
f 1 2 5
f 1 5 3
f 1 3 7
f 1 7 11
f 1 11 15
f 1 15 19
f 1 19 23
f 1 23 20
f 1 20 16
f 1 16 12
f 1 12 8
f 1 8 4
f 1 4 6
f 1 6 2
f 2 6 10
f 2 10 14
f 2 14 18
f 2 18 22
f 2 22 24
f 2 24 21
f 2 21 17
f 2 17 13
f 2 13 9
f 2 9 5
f 3 5 9
f 3 9 7
f 4 8 10
f 4 10 6
f 7 9 13
f 7 13 11
f 8 12 14
f 8 14 10
f 11 13 17
f 11 17 15
f 12 16 18
f 12 18 14
f 15 17 21
f 15 21 19
f 16 20 22
f 16 22 18
f 19 21 24
f 19 24 23
f 20 23 24
f 20 24 22

