# https://github.com/mikedh/trimesh
v -0.00209771 0.00169814 0.02950000
v -0.00416494 0.00169814 0.02950000
v -0.00265924 0.00046807 0.02950000
v -0.00209771 0.00169814 0.02630000
v -0.00420983 0.00158952 0.02950000
v -0.00416494 0.00169814 0.02630000
v -0.00447385 0.00046807 0.02950000
v -0.00265924 0.00046807 0.02630000
v -0.00429660 0.00133698 0.02950000
v -0.00420983 0.00158952 0.02630000
v -0.00446548 0.00055478 0.02950000
v -0.00447385 0.00046807 0.02630000
v -0.00436848 0.00107986 0.02950000
v -0.00429660 0.00133698 0.02630000
v -0.00442477 0.00081877 0.02950000
v -0.00446548 0.00055478 0.02630000
v -0.00436848 0.00107986 0.02630000
v -0.00442477 0.00081877 0.02630000
f 1 2 5
f 1 5 9
f 1 9 13
f 1 13 15
f 1 15 11
f 1 11 7
f 1 7 3
f 1 3 8
f 1 8 4
f 1 4 6
f 1 6 2
f 2 6 10
f 2 10 5
f 3 7 12
f 3 12 8
f 4 8 12
f 4 12 16
f 4 16 18
f 4 18 17
f 4 17 14
f 4 14 10
f 4 10 6
f 5 10 14
f 5 14 9
f 7 11 16
f 7 16 12
f 9 14 17
f 9 17 13
f 11 15 18
f 11 18 16
f 13 17 18
f 13 18 15

