# https://github.com/mikedh/trimesh
v -0.00245915 -0.00111434 0.02950000
v -0.00265931 0.00046795 0.02950000
v -0.00435791 -0.00111434 0.02950000
v -0.00245915 -0.00111434 0.02630000
v -0.00447378 0.00046795 0.02950000
v -0.00265931 0.00046795 0.02630000
v -0.00437869 -0.00103720 0.02950000
v -0.00435791 -0.00111434 0.02630000
v -0.00449056 0.00028873 0.02950000
v -0.00447378 0.00046795 0.02630000
v -0.00443263 -0.00077558 0.02950000
v -0.00437869 -0.00103720 0.02630000
v -0.00449995 0.00002184 0.02950000
v -0.00449056 0.00028873 0.02630000
v -0.00447078 -0.00051116 0.02950000
v -0.00443263 -0.00077558 0.02630000
v -0.00449316 -0.00024520 0.02950000
v -0.00449995 0.00002184 0.02630000
v -0.00447078 -0.00051116 0.02630000
v -0.00449316 -0.00024520 0.02630000
f 1 2 5
f 1 5 9
f 1 9 13
f 1 13 17
f 1 17 15
f 1 15 11
f 1 11 7
f 1 7 3
f 1 3 8
f 1 8 4
f 1 4 6
f 1 6 2
f 2 6 10
f 2 10 5
f 3 7 12
f 3 12 8
f 4 8 12
f 4 12 16
f 4 16 19
f 4 19 20
f 4 20 18
f 4 18 14
f 4 14 10
f 4 10 6
f 5 10 14
f 5 14 9
f 7 11 16
f 7 16 12
f 9 14 18
f 9 18 13
f 11 15 19
f 11 19 16
f 13 18 20
f 13 20 17
f 15 17 20
f 15 20 19

