# https://github.com/mikedh/trimesh
v 0.01711437 -0.01272573 0.02950000
v 0.01517897 -0.01272573 0.02950000
v 0.01687460 -0.01465635 0.02950000
v 0.01711437 -0.01272573 0.02630000
v 0.01511856 -0.01294703 0.02950000
v 0.01517897 -0.01272573 0.02630000
v 0.01504383 -0.01465635 0.02950000
v 0.01687460 -0.01465635 0.02630000
v 0.01506397 -0.01320839 0.02950000
v 0.01511856 -0.01294703 0.02630000
v 0.01502598 -0.01453843 0.02950000
v 0.01504383 -0.01465635 0.02630000
v 0.01502473 -0.01347258 0.02950000
v 0.01506397 -0.01320839 0.02630000
v 0.01500190 -0.01427234 0.02950000
v 0.01502598 -0.01453843 0.02630000
v 0.01500127 -0.01373848 0.02950000
v 0.01502473 -0.01347258 0.02630000
v 0.01499380 -0.01400550 0.02950000
v 0.01500190 -0.01427234 0.02630000
v 0.01500127 -0.01373848 0.02630000
v 0.01499380 -0.01400550 0.02630000
f 1 2 5
f 1 5 9
f 1 9 13
f 1 13 17
f 1 17 19
f 1 19 15
f 1 15 11
f 1 11 7
f 1 7 3
f 1 3 8
f 1 8 4
f 1 4 6
f 1 6 2
f 2 6 10
f 2 10 5
f 3 7 12
f 3 12 8
f 4 8 12
f 4 12 16
f 4 16 20
f 4 20 22
f 4 22 21
f 4 21 18
f 4 18 14
f 4 14 10
f 4 10 6
f 5 10 14
f 5 14 9
f 7 11 16
f 7 16 12
f 9 14 18
f 9 18 13
f 11 15 20
f 11 20 16
f 13 18 21
f 13 21 17
f 15 19 22
f 15 22 20
f 17 21 22
f 17 22 19

