# https://github.com/mikedh/trimesh
v 0.01489193 -0.00937095 0.02630000
v 0.01571051 -0.01136509 0.02630000
v 0.01489193 -0.00937095 0.02950000
v 0.02029585 -0.00937095 0.02630000
v 0.01571051 -0.01136509 0.02950000
v 0.02313908 -0.01136509 0.02630000
v 0.02029585 -0.00937095 0.02950000
v 0.02139778 -0.00992317 0.02630000
v 0.02313908 -0.01136509 0.02950000
v 0.02305109 -0.01124524 0.02630000
v 0.02139778 -0.00992317 0.02950000
v 0.02163674 -0.01004341 0.02630000
v 0.02305109 -0.01124524 0.02950000
v 0.02288156 -0.01103891 0.02630000
v 0.02163674 -0.01004341 0.02950000
v 0.02186762 -0.01017751 0.02630000
v 0.02288156 -0.01103891 0.02950000
v 0.02269992 -0.01084313 0.02630000
v 0.02186762 -0.01017751 0.02950000
v 0.02209043 -0.01032508 0.02630000
v 0.02269992 -0.01084313 0.02950000
v 0.02250698 -0.01065847 0.02630000
v 0.02209043 -0.01032508 0.02950000
v 0.02230355 -0.01048553 0.02630000
v 0.02250698 -0.01065847 0.02950000
v 0.02230355 -0.01048553 0.02950000
f 1 2 5
f 1 5 3
f 1 3 7
f 1 7 4
f 1 4 8
f 1 8 12
f 1 12 16
f 1 16 20
f 1 20 24
f 1 24 22
f 1 22 18
f 1 18 14
f 1 14 10
f 1 10 6
f 1 6 2
f 2 6 9
f 2 9 5
f 3 5 9
f 3 9 13
f 3 13 17
f 3 17 21
f 3 21 25
f 3 25 26
f 3 26 23
f 3 23 19
f 3 19 15
f 3 15 11
f 3 11 7
f 4 7 11
f 4 11 8
f 6 10 13
f 6 13 9
f 8 11 15
f 8 15 12
f 10 14 17
f 10 17 13
f 12 15 19
f 12 19 16
f 14 18 21
f 14 21 17
f 16 19 23
f 16 23 20
f 18 22 25
f 18 25 21
f 20 23 26
f 20 26 24
f 22 24 26
f 22 26 25

