# https://github.com/mikedh/trimesh
v 0.00003114 0.00269883 0.02630000
v 0.00003114 0.00269883 0.02950000
v 0.00003114 0.00449766 0.02630000
v 0.00186846 0.00194876 0.02630000
v 0.00003114 0.00449766 0.02950000
v 0.00186846 0.00194876 0.02950000
v 0.00016590 0.00449691 0.02630000
v 0.00415241 0.00194876 0.02630000
v 0.00016590 0.00449691 0.02950000
v 0.00415241 0.00194876 0.02950000
v 0.00043258 0.00447895 0.02630000
v 0.00415241 0.00223821 0.02630000
v 0.00043258 0.00447895 0.02950000
v 0.00415241 0.00223821 0.02950000
v 0.00069724 0.00444551 0.02630000
v 0.00306430 0.00329495 0.02630000
v 0.00069724 0.00444551 0.02950000
v 0.00306430 0.00329495 0.02950000
v 0.00095989 0.00439635 0.02630000
v 0.00286378 0.00347111 0.02630000
v 0.00095989 0.00439635 0.02950000
v 0.00286378 0.00347111 0.02950000
v 0.00121891 0.00433173 0.02630000
v 0.00265278 0.00363480 0.02630000
v 0.00121891 0.00433173 0.02950000
v 0.00265278 0.00363480 0.02950000
v 0.00147389 0.00425163 0.02630000
v 0.00243249 0.00378576 0.02630000
v 0.00147389 0.00425163 0.02950000
v 0.00243249 0.00378576 0.02950000
v 0.00172363 0.00415681 0.02630000
v 0.00220333 0.00392350 0.02630000
v 0.00172363 0.00415681 0.02950000
v 0.00220333 0.00392350 0.02950000
v 0.00196731 0.00404727 0.02630000
v 0.00196731 0.00404727 0.02950000
f 1 2 5
f 1 5 3
f 1 3 7
f 1 7 11
f 1 11 15
f 1 15 19
f 1 19 23
f 1 23 27
f 1 27 31
f 1 31 35
f 1 35 32
f 1 32 28
f 1 28 24
f 1 24 20
f 1 20 16
f 1 16 12
f 1 12 8
f 1 8 4
f 1 4 6
f 1 6 2
f 2 6 10
f 2 10 14
f 2 14 18
f 2 18 22
f 2 22 26
f 2 26 30
f 2 30 34
f 2 34 36
f 2 36 33
f 2 33 29
f 2 29 25
f 2 25 21
f 2 21 17
f 2 17 13
f 2 13 9
f 2 9 5
f 3 5 9
f 3 9 7
f 4 8 10
f 4 10 6
f 7 9 13
f 7 13 11
f 8 12 14
f 8 14 10
f 11 13 17
f 11 17 15
f 12 16 18
f 12 18 14
f 15 17 21
f 15 21 19
f 16 20 22
f 16 22 18
f 19 21 25
f 19 25 23
f 20 24 26
f 20 26 22
f 23 25 29
f 23 29 27
f 24 28 30
f 24 30 26
f 27 29 33
f 27 33 31
f 28 32 34
f 28 34 30
f 31 33 36
f 31 36 35
f 32 35 36
f 32 36 34

