# https://github.com/mikedh/trimesh
v 0.01517878 -0.01272573 0.02630000
v 0.01517878 -0.01272573 0.02950000
v 0.01518901 -0.01268911 0.02630000
v 0.01711402 -0.01272573 0.02630000
v 0.01518901 -0.01268911 0.02950000
v 0.01711402 -0.01272573 0.02950000
v 0.01527445 -0.01243605 0.02630000
v 0.01890904 -0.01136509 0.02630000
v 0.01527445 -0.01243605 0.02950000
v 0.01890904 -0.01136509 0.02950000
v 0.01537450 -0.01218845 0.02630000
v 0.01571042 -0.01136509 0.02630000
v 0.01537450 -0.01218845 0.02950000
v 0.01571042 -0.01136509 0.02950000
f 1 2 5
f 1 5 3
f 1 3 7
f 1 7 11
f 1 11 12
f 1 12 8
f 1 8 4
f 1 4 6
f 1 6 2
f 2 6 10
f 2 10 14
f 2 14 13
f 2 13 9
f 2 9 5
f 3 5 9
f 3 9 7
f 4 8 10
f 4 10 6
f 7 9 13
f 7 13 11
f 8 12 14
f 8 14 10
f 11 13 14
f 11 14 12

