# https://github.com/mikedh/trimesh
v 0.00760457 0.00201607 0.02950000
v 0.00863493 0.00194910 0.02950000
v 0.00760457 0.00201607 0.02630000
v 0.00760457 -0.00299797 0.02950000
v 0.00863493 0.00194910 0.02630000
v 0.00877388 0.00193667 0.02950000
v 0.00760457 -0.00299797 0.02630000
v 0.01422831 -0.00775754 0.02950000
v 0.00877388 0.00193667 0.02630000
v 0.00898113 0.00190127 0.02950000
v 0.01422831 -0.00775754 0.02630000
v 0.01963446 -0.00775754 0.02950000
v 0.00898113 0.00190127 0.02630000
v 0.00918367 0.00185056 0.02950000
v 0.01963446 -0.00775754 0.02630000
v 0.01858172 -0.00519550 0.02950000
v 0.00918367 0.00185056 0.02630000
v 0.00931673 0.00180751 0.02950000
v 0.01858172 -0.00519550 0.02630000
v 0.01852638 -0.00506731 0.02950000
v 0.00931673 0.00180751 0.02630000
v 0.00944626 0.00175681 0.02950000
v 0.01852638 -0.00506731 0.02630000
v 0.01846161 -0.00494294 0.02950000
v 0.00944626 0.00175681 0.02630000
v 0.00957344 0.00169941 0.02950000
v 0.01846161 -0.00494294 0.02630000
v 0.01839214 -0.00482239 0.02950000
v 0.00957344 0.00169941 0.02630000
v 0.00969708 0.00163531 0.02950000
v 0.01839214 -0.00482239 0.02630000
v 0.01827203 -0.00465019 0.02950000
v 0.00969708 0.00163531 0.02630000
v 0.00981602 0.00156260 0.02950000
v 0.01827203 -0.00465019 0.02630000
v 0.01814132 -0.00448755 0.02950000
v 0.00981602 0.00156260 0.02630000
v 0.00993259 0.00148415 0.02950000
v 0.01814132 -0.00448755 0.02630000
v 0.01804476 -0.00438423 0.02950000
v 0.00993259 0.00148415 0.02630000
v 0.01778216 -0.00415558 0.02950000
v 0.01804476 -0.00438423 0.02630000
v 0.01794467 -0.00428856 0.02950000
v 0.01778216 -0.00415558 0.02630000
v 0.01794467 -0.00428856 0.02630000
f 1 2 5
f 1 5 3
f 1 3 7
f 1 7 4
f 1 4 8
f 1 8 12
f 1 12 16
f 1 16 20
f 1 20 24
f 1 24 28
f 1 28 32
f 1 32 36
f 1 36 40
f 1 40 44
f 1 44 42
f 1 42 38
f 1 38 34
f 1 34 30
f 1 30 26
f 1 26 22
f 1 22 18
f 1 18 14
f 1 14 10
f 1 10 6
f 1 6 2
f 2 6 9
f 2 9 5
f 3 5 9
f 3 9 13
f 3 13 17
f 3 17 21
f 3 21 25
f 3 25 29
f 3 29 33
f 3 33 37
f 3 37 41
f 3 41 45
f 3 45 46
f 3 46 43
f 3 43 39
f 3 39 35
f 3 35 31
f 3 31 27
f 3 27 23
f 3 23 19
f 3 19 15
f 3 15 11
f 3 11 7
f 4 7 11
f 4 11 8
f 6 10 13
f 6 13 9
f 8 11 15
f 8 15 12
f 10 14 17
f 10 17 13
f 12 15 19
f 12 19 16
f 14 18 21
f 14 21 17
f 16 19 23
f 16 23 20
f 18 22 25
f 18 25 21
f 20 23 27
f 20 27 24
f 22 26 29
f 22 29 25
f 24 27 31
f 24 31 28
f 26 30 33
f 26 33 29
f 28 31 35
f 28 35 32
f 30 34 37
f 30 37 33
f 32 35 39
f 32 39 36
f 34 38 41
f 34 41 37
f 36 39 43
f 36 43 40
f 38 42 45
f 38 45 41
f 40 43 46
f 40 46 44
f 42 44 46
f 42 46 45

