# https://github.com/mikedh/trimesh
v -0.00114566 0.00244494 0.02630000
v -0.00114566 0.00435127 0.02630000
v 0.00003114 0.00269869 0.02630000
v -0.00114566 0.00244494 0.02950000
v -0.00089659 0.00440958 0.02630000
v -0.00114566 0.00435127 0.02950000
v 0.00003114 0.00449785 0.02630000
v 0.00003114 0.00269869 0.02950000
v -0.00063346 0.00445503 0.02630000
v -0.00089659 0.00440958 0.02950000
v -0.00010134 0.00449886 0.02630000
v 0.00003114 0.00449785 0.02950000
v -0.00036815 0.00448478 0.02630000
v -0.00063346 0.00445503 0.02950000
v -0.00010134 0.00449886 0.02950000
v -0.00036815 0.00448478 0.02950000
f 1 2 5
f 1 5 9
f 1 9 13
f 1 13 11
f 1 11 7
f 1 7 3
f 1 3 8
f 1 8 4
f 1 4 6
f 1 6 2
f 2 6 10
f 2 10 5
f 3 7 12
f 3 12 8
f 4 8 12
f 4 12 15
f 4 15 16
f 4 16 14
f 4 14 10
f 4 10 6
f 5 10 14
f 5 14 9
f 7 11 15
f 7 15 12
f 9 14 16
f 9 16 13
f 11 13 16
f 11 16 15

