# https://github.com/mikedh/trimesh
v 0.02943459 0.01397310 0.02906305
v 0.02943422 0.01402878 0.03174841
v 0.02943422 0.01402547 0.03198962
v 0.02943459 0.01147053 0.02906305
v 0.02943459 0.01397310 0.02688510
v 0.02943422 0.01402878 0.02906305
v 0.02650173 0.01402878 0.03174841
v 0.02943273 0.01402547 0.03243510
v 0.02943422 0.01147053 0.03198962
v 0.02936368 0.01085061 0.02688510
v 0.02943459 0.01147053 0.02688510
v 0.02649319 0.01397310 0.02688510
v 0.02650173 0.01402878 0.02906305
v 0.02564192 0.01335391 0.03243510
v 0.02650173 0.01402547 0.03243510
v 0.02943273 0.01209083 0.03243510
v 0.02935625 0.01085061 0.03198962
v 0.02935663 0.01085061 0.03174841
v 0.02943125 0.01147053 0.03243510
v 0.02937593 0.01102578 0.03243510
v 0.02935403 0.01085061 0.03243510
v 0.02913685 0.01039516 0.02688510
v 0.02579117 0.01337493 0.02688510
v 0.02564192 0.01335391 0.03174841
v 0.02564192 0.01035939 0.03243510
v 0.02918734 0.01056296 0.03243510
v 0.02898167 0.01034242 0.02688510
v 0.02912088 0.01045011 0.03243510
v 0.02579117 0.01026166 0.02688510
v 0.02564192 0.01035939 0.03174841
v 0.02865311 0.01035939 0.03243510
v 0.02865311 0.01026719 0.02688510
v 0.02803350 0.01026166 0.02688510
f 1 2 3
f 1 3 9
f 1 9 4
f 1 4 11
f 1 11 5
f 1 5 6
f 1 6 2
f 2 6 13
f 2 13 7
f 2 7 15
f 2 15 8
f 2 8 3
f 3 8 16
f 3 16 9
f 4 9 10
f 4 10 11
f 5 11 10
f 5 10 22
f 5 22 27
f 5 27 32
f 5 32 33
f 5 33 29
f 5 29 23
f 5 23 12
f 5 12 13
f 5 13 6
f 7 14 15
f 7 13 24
f 7 24 14
f 8 15 14
f 8 14 25
f 8 25 31
f 8 31 28
f 8 28 26
f 8 26 21
f 8 21 20
f 8 20 19
f 8 19 16
f 9 17 18
f 9 18 10
f 9 16 19
f 9 19 20
f 9 20 21
f 9 21 17
f 10 18 22
f 12 23 13
f 13 23 24
f 14 24 30
f 14 30 25
f 17 21 22
f 17 22 18
f 21 26 22
f 22 26 28
f 22 28 27
f 23 29 30
f 23 30 24
f 25 30 29
f 25 29 33
f 25 33 31
f 27 28 32
f 28 31 32
f 31 33 32

