# https://github.com/mikedh/trimesh
v 0.00865259 -0.01704859 0.04005317
v 0.00878719 -0.01791444 0.04005317
v 0.00870431 -0.01766853 0.04376994
v 0.00865259 -0.01704859 0.04376994
v 0.00865259 -0.01209061 0.04005317
v 0.00943403 -0.01834020 0.04005317
v 0.00878719 -0.01791365 0.04284012
v 0.00890343 -0.01766933 0.04438500
v 0.00880888 -0.01704859 0.04462554
v 0.00932113 -0.01805530 0.04412403
v 0.00877606 -0.01642864 0.04465293
v 0.00877439 -0.01580869 0.04465493
v 0.00865259 -0.01021088 0.04376994
v 0.00865259 -0.01021088 0.04253085
v 0.00879998 -0.01021088 0.04168968
v 0.00908197 -0.01131548 0.04005317
v 0.01315325 -0.01834020 0.04005317
v 0.00943403 -0.01833861 0.04284012
v 0.00932891 -0.01726903 0.04490743
v 0.00943403 -0.01642864 0.04513204
v 0.01315325 -0.01824709 0.04376994
v 0.01315325 -0.01794787 0.04437703
v 0.00943403 -0.01580869 0.04514100
v 0.00877439 -0.01021088 0.04465493
v 0.00942569 -0.01021088 0.04130421
v 0.01339964 -0.01116269 0.04005317
v 0.01399142 -0.01822004 0.04005317
v 0.01399086 -0.01821924 0.04284012
v 0.01315325 -0.01833861 0.04284012
v 0.01315325 -0.01728176 0.04491639
v 0.01315325 -0.01642864 0.04513204
v 0.01397307 -0.01779666 0.04432623
v 0.01315325 -0.01580869 0.04514100
v 0.00943403 -0.01021088 0.04514100
v 0.01315325 -0.01021088 0.04130172
v 0.01420722 -0.01148181 0.04005317
v 0.01415661 -0.01021088 0.04164834
v 0.01433459 -0.01766853 0.04005317
v 0.01433459 -0.01766853 0.04314939
v 0.01414548 -0.01715682 0.04462056
v 0.01399086 -0.01642864 0.04498263
v 0.01399086 -0.01580869 0.04498761
v 0.01315325 -0.01021088 0.04514100
v 0.01433459 -0.01209061 0.04005317
v 0.01433459 -0.01021088 0.04253085
v 0.01433459 -0.01642864 0.04438948
v 0.01399086 -0.01021088 0.04498761
v 0.01433459 -0.01021088 0.04438948
f 1 2 3
f 1 3 4
f 1 4 13
f 1 13 14
f 1 14 5
f 1 5 16
f 1 16 26
f 1 26 36
f 1 36 44
f 1 44 38
f 1 38 27
f 1 27 17
f 1 17 6
f 1 6 2
f 2 6 7
f 2 7 3
f 3 8 9
f 3 9 4
f 3 7 10
f 3 10 8
f 4 9 11
f 4 11 12
f 4 12 24
f 4 24 13
f 5 14 15
f 5 15 16
f 6 17 29
f 6 29 18
f 6 18 7
f 7 18 10
f 8 19 9
f 8 10 19
f 9 20 11
f 9 19 20
f 10 18 21
f 10 21 22
f 10 22 19
f 11 20 23
f 11 23 12
f 12 23 34
f 12 34 24
f 13 24 34
f 13 34 43
f 13 43 47
f 13 47 48
f 13 48 45
f 13 45 37
f 13 37 35
f 13 35 25
f 13 25 15
f 13 15 14
f 15 25 16
f 16 25 26
f 17 27 28
f 17 28 29
f 18 29 21
f 19 22 30
f 19 30 20
f 20 30 31
f 20 31 33
f 20 33 23
f 21 29 28
f 21 28 32
f 21 32 22
f 22 32 30
f 23 33 43
f 23 43 34
f 25 35 26
f 26 35 37
f 26 37 36
f 27 38 39
f 27 39 28
f 28 39 32
f 30 40 41
f 30 41 31
f 30 32 40
f 31 41 33
f 32 39 40
f 33 41 42
f 33 42 47
f 33 47 43
f 36 37 45
f 36 45 44
f 38 44 45
f 38 45 48
f 38 48 46
f 38 46 39
f 39 46 40
f 40 46 41
f 41 46 42
f 42 46 48
f 42 48 47

