# https://github.com/mikedh/trimesh
v 0.01798829 -0.00003959 0.02702840
v 0.01667086 0.00013551 0.02702901
v 0.01682592 0.00093034 0.02702840
v 0.01953019 0.00192213 0.02702840
v 0.01947561 0.00070313 0.02702870
v 0.01886881 0.00011674 0.02702901
v 0.01889736 -0.00003959 0.02954017
v 0.01762892 -0.00003959 0.03013887
v 0.01668822 0.00013551 0.02888968
v 0.01683208 0.00093034 0.02888968
v 0.01716039 0.00159854 0.02702840
v 0.01953019 0.00070313 0.02827058
v 0.01873335 0.00273237 0.02702840
v 0.01944174 0.00282259 0.02702901
v 0.01944174 0.00281362 0.02888968
v 0.01944174 0.00280914 0.02946553
v 0.01953019 0.00154951 0.03014100
v 0.01953019 0.00073871 0.02960751
v 0.01953019 0.00096733 0.02998470
v 0.01869081 -0.00003959 0.02988385
v 0.01953019 0.00070369 0.02888968
v 0.01811340 -0.00003959 0.03013155
v 0.01749373 0.00031034 0.03014100
v 0.01695831 0.00013551 0.02998043
v 0.01673748 0.00013551 0.02956089
v 0.01684327 0.00093034 0.02950971
v 0.01716710 0.00159126 0.02950971
v 0.01757434 0.00206782 0.02702840
v 0.01758078 0.00206642 0.02950971
v 0.01757966 0.00206754 0.02888968
v 0.01812236 0.00247238 0.02702840
v 0.01812460 0.00246537 0.02950971
v 0.01873335 0.00271528 0.02950971
v 0.01873335 0.00259677 0.02994479
v 0.01944174 0.00264188 0.02997739
v 0.01944174 0.00216980 0.03013795
v 0.01873335 0.00154951 0.03014100
v 0.01811340 0.00093034 0.03014100
v 0.01811340 0.00154951 0.03014039
v 0.01749373 0.00093034 0.03012424
v 0.01701904 0.00093034 0.02996368
v 0.01710357 0.00137105 0.02990487
v 0.01796954 0.00237740 0.02888968
v 0.01765578 0.00199666 0.02992620
v 0.01832779 0.00252925 0.02988111
v 0.01811816 0.00218997 0.02998440
v 0.01873335 0.00216980 0.03010535
v 0.01746714 0.00156604 0.02999841
f 1 2 3
f 1 3 11
f 1 11 28
f 1 28 31
f 1 31 13
f 1 13 4
f 1 4 5
f 1 5 6
f 1 6 7
f 1 7 20
f 1 20 22
f 1 22 8
f 1 8 2
f 2 8 9
f 2 9 10
f 2 10 3
f 3 10 11
f 4 12 5
f 4 13 14
f 4 14 15
f 4 15 16
f 4 16 17
f 4 17 19
f 4 19 18
f 4 18 21
f 4 21 12
f 5 12 7
f 5 7 6
f 7 18 19
f 7 19 20
f 7 12 21
f 7 21 18
f 8 22 17
f 8 17 23
f 8 23 24
f 8 24 25
f 8 25 9
f 9 26 10
f 9 25 26
f 10 26 27
f 10 27 11
f 11 27 29
f 11 29 30
f 11 30 28
f 13 31 32
f 13 32 33
f 13 33 15
f 13 15 14
f 15 33 16
f 16 33 34
f 16 34 35
f 16 35 17
f 17 35 36
f 17 36 37
f 17 37 38
f 17 38 23
f 17 22 19
f 19 22 20
f 23 38 39
f 23 39 40
f 23 40 24
f 24 41 25
f 24 40 41
f 25 41 26
f 26 41 42
f 26 42 27
f 27 42 29
f 28 30 43
f 28 43 31
f 29 42 44
f 29 44 45
f 29 45 32
f 29 32 43
f 29 43 30
f 31 43 32
f 32 45 33
f 33 45 34
f 34 46 47
f 34 47 35
f 34 45 46
f 35 47 36
f 36 47 39
f 36 39 37
f 37 39 38
f 39 47 46
f 39 46 48
f 39 48 40
f 40 48 41
f 41 48 42
f 42 48 44
f 44 48 46
f 44 46 45

