# https://github.com/mikedh/trimesh
v 0.02442983 0.01494511 0.02180678
v 0.02215259 0.01494511 0.02180678
v 0.02411929 0.01355927 0.02180678
v 0.02393225 0.01355927 0.02021017
v 0.02422986 0.01494511 0.02021017
v 0.02215259 0.01355927 0.02180678
v 0.02215259 0.01494511 0.02082996
v 0.02368056 0.01355927 0.01968438
v 0.02411483 0.01494511 0.01977610
v 0.02215259 0.01355927 0.02082996
v 0.02215437 0.01494511 0.02021017
v 0.02215370 0.01355927 0.02043947
v 0.02349731 0.01355927 0.01960780
v 0.02370129 0.01494511 0.01957363
v 0.02227498 0.01494511 0.02000059
v 0.02215437 0.01355927 0.02021017
v 0.02307374 0.01355927 0.01947870
v 0.02307374 0.01494511 0.01946426
v 0.02246001 0.01494511 0.01967957
v 0.02246001 0.01355927 0.01967957
v 0.02284680 0.01355927 0.01955001
f 1 2 6
f 1 6 3
f 1 3 4
f 1 4 5
f 1 5 9
f 1 9 14
f 1 14 18
f 1 18 19
f 1 19 15
f 1 15 11
f 1 11 7
f 1 7 2
f 2 7 10
f 2 10 6
f 3 6 10
f 3 10 12
f 3 12 16
f 3 16 20
f 3 20 21
f 3 21 17
f 3 17 13
f 3 13 8
f 3 8 4
f 4 8 9
f 4 9 5
f 7 11 12
f 7 12 10
f 8 13 14
f 8 14 9
f 11 15 16
f 11 16 12
f 13 17 14
f 14 17 18
f 15 19 20
f 15 20 16
f 17 21 18
f 18 21 20
f 18 20 19

