# https://github.com/mikedh/trimesh
v 0.01953019 -0.00145786 0.03011967
v 0.01953019 -0.00096749 0.02998470
v 0.01811315 -0.00003959 0.03013155
v 0.01948597 -0.00208145 0.03013887
v 0.01944174 -0.00279822 0.02954231
v 0.01953019 -0.00192072 0.02702840
v 0.01889738 -0.00003959 0.02954017
v 0.01869083 -0.00003959 0.02988385
v 0.01953019 -0.00070541 0.02937991
v 0.01673754 -0.00017499 0.02956089
v 0.01695809 -0.00017499 0.02998043
v 0.01756123 -0.00017499 0.03013978
v 0.01798833 -0.00003959 0.02702840
v 0.01668801 -0.00017499 0.02888968
v 0.01873337 -0.00154967 0.03014100
v 0.01811315 -0.00154967 0.03014039
v 0.01873337 -0.00216972 0.03010535
v 0.01944174 -0.00260942 0.02998897
v 0.01873337 -0.00259689 0.02994479
v 0.01873337 -0.00271513 0.02950971
v 0.01944174 -0.00281347 0.02893386
v 0.01944174 -0.00282274 0.02702870
v 0.01873337 -0.00273256 0.02702840
v 0.01947505 -0.00070296 0.02702901
v 0.01886883 -0.00015565 0.02702901
v 0.01701910 -0.00093044 0.02996368
v 0.01684306 -0.00093044 0.02950971
v 0.01749378 -0.00093044 0.03012424
v 0.01811315 -0.00093044 0.03014100
v 0.01682655 -0.00093262 0.02702840
v 0.01667093 -0.00017553 0.02702870
v 0.01683186 -0.00093044 0.02888968
v 0.01746719 -0.00156602 0.02999841
v 0.01811791 -0.00218988 0.02998440
v 0.01832782 -0.00252933 0.02988111
v 0.01812463 -0.00246531 0.02950971
v 0.01827632 -0.00256611 0.02702840
v 0.01710363 -0.00137123 0.02990487
v 0.01706332 -0.00143634 0.02950971
v 0.01705717 -0.00144370 0.02702840
v 0.01765583 -0.00199646 0.02992620
v 0.01758082 -0.00206647 0.02950971
v 0.01796958 -0.00237759 0.02888968
v 0.01796650 -0.00237786 0.02702840
v 0.01727100 -0.00174609 0.02950971
v 0.01726372 -0.00175399 0.02702840
v 0.01757970 -0.00206756 0.02888968
v 0.01757383 -0.00206811 0.02702840
f 1 2 3
f 1 3 4
f 1 4 5
f 1 5 6
f 1 6 9
f 1 9 2
f 2 7 8
f 2 8 3
f 2 9 7
f 3 10 11
f 3 11 12
f 3 12 4
f 3 8 7
f 3 7 13
f 3 13 14
f 3 14 10
f 4 12 15
f 4 15 16
f 4 16 17
f 4 17 18
f 4 18 5
f 5 18 19
f 5 19 20
f 5 20 21
f 5 21 6
f 6 22 23
f 6 23 37
f 6 37 44
f 6 44 48
f 6 48 46
f 6 46 40
f 6 40 30
f 6 30 13
f 6 13 24
f 6 24 9
f 6 21 22
f 7 9 24
f 7 24 25
f 7 25 13
f 10 26 11
f 10 14 27
f 10 27 26
f 11 28 12
f 11 26 28
f 12 28 16
f 12 16 29
f 12 29 15
f 13 30 31
f 13 31 14
f 13 25 24
f 14 31 32
f 14 32 27
f 15 29 16
f 16 28 33
f 16 33 34
f 16 34 17
f 17 34 19
f 17 19 18
f 19 34 35
f 19 35 20
f 20 35 36
f 20 36 37
f 20 37 23
f 20 23 21
f 21 23 22
f 26 27 38
f 26 38 33
f 26 33 28
f 27 32 39
f 27 39 38
f 30 40 32
f 30 32 31
f 32 40 39
f 33 38 41
f 33 41 34
f 34 41 35
f 35 41 42
f 35 42 36
f 36 42 43
f 36 43 37
f 37 43 44
f 38 39 45
f 38 45 41
f 39 40 46
f 39 46 45
f 41 45 42
f 42 45 46
f 42 46 47
f 42 47 43
f 43 47 48
f 43 48 44
f 46 48 47

