# https://github.com/mikedh/trimesh
v 0.00865259 0.01209004 0.03650360
v 0.00869708 0.01164402 0.03650360
v 0.00865259 0.01209004 0.04004470
v 0.00865259 0.01704977 0.03650360
v 0.00874677 0.01147007 0.03650360
v 0.00888429 0.01104412 0.03650360
v 0.00888718 0.01147007 0.04004470
v 0.00865259 0.01704977 0.04004470
v 0.00866877 0.01766974 0.03650360
v 0.00895131 0.01094377 0.03650360
v 0.00912292 0.01116009 0.04004470
v 0.00866877 0.01766974 0.04004470
v 0.00873464 0.01780726 0.03650360
v 0.00943378 0.01076164 0.03650360
v 0.00946498 0.01076090 0.03650360
v 0.01005376 0.01074752 0.03650360
v 0.00943147 0.01115934 0.04004470
v 0.00890451 0.01816036 0.04004470
v 0.00890451 0.01816036 0.03650360
v 0.01317678 0.01074752 0.03650360
v 0.01315309 0.01115934 0.04004470
v 0.00890856 0.01816185 0.04004470
v 0.00943378 0.01834100 0.03650360
v 0.01377076 0.01077205 0.03650360
v 0.01379965 0.01117273 0.04004470
v 0.01349226 0.01116009 0.04004470
v 0.00943378 0.01834100 0.04004470
v 0.01315309 0.01834100 0.03650360
v 0.01432314 0.01092295 0.03650360
v 0.01420874 0.01148271 0.04004470
v 0.01315309 0.01834100 0.04004470
v 0.01359973 0.01831944 0.03650360
v 0.01450746 0.01147007 0.03650360
v 0.01420989 0.01148791 0.04004470
v 0.01377307 0.01831052 0.04004470
v 0.01377307 0.01831052 0.03650360
v 0.01455253 0.01209004 0.03650360
v 0.01433412 0.01209004 0.04004470
v 0.01420874 0.01812988 0.04004470
v 0.01421567 0.01812988 0.03650360
v 0.01409375 0.01818043 0.03650360
v 0.01455484 0.01270555 0.03650360
v 0.01433412 0.01766974 0.04004470
v 0.01433354 0.01767346 0.04004470
v 0.01446124 0.01766900 0.03650360
v 0.01455484 0.01642981 0.03650360
v 0.01455137 0.01704977 0.03650360
f 1 2 3
f 1 3 8
f 1 8 4
f 1 4 9
f 1 9 13
f 1 13 19
f 1 19 23
f 1 23 28
f 1 28 32
f 1 32 36
f 1 36 41
f 1 41 40
f 1 40 45
f 1 45 47
f 1 47 46
f 1 46 42
f 1 42 37
f 1 37 33
f 1 33 29
f 1 29 24
f 1 24 20
f 1 20 16
f 1 16 15
f 1 15 14
f 1 14 10
f 1 10 6
f 1 6 5
f 1 5 2
f 2 5 3
f 3 5 6
f 3 6 7
f 3 7 11
f 3 11 17
f 3 17 21
f 3 21 26
f 3 26 25
f 3 25 30
f 3 30 34
f 3 34 38
f 3 38 43
f 3 43 44
f 3 44 39
f 3 39 35
f 3 35 31
f 3 31 27
f 3 27 22
f 3 22 18
f 3 18 12
f 3 12 8
f 4 8 12
f 4 12 9
f 6 10 7
f 7 10 11
f 9 12 13
f 10 14 11
f 11 14 15
f 11 15 16
f 11 16 17
f 12 18 13
f 13 18 19
f 16 20 21
f 16 21 17
f 18 22 19
f 19 22 23
f 20 24 25
f 20 25 26
f 20 26 21
f 22 27 23
f 23 27 31
f 23 31 28
f 24 29 25
f 25 29 30
f 28 31 32
f 29 33 30
f 30 33 34
f 31 35 32
f 32 35 36
f 33 37 38
f 33 38 34
f 35 39 40
f 35 40 41
f 35 41 36
f 37 42 38
f 38 42 46
f 38 46 43
f 39 44 45
f 39 45 40
f 43 46 47
f 43 47 45
f 43 45 44

