# https://github.com/mikedh/trimesh
v 0.02943459 0.01226885 0.02424049
v 0.02567849 0.01226885 0.02424049
v 0.02943459 0.00940174 0.02424049
v 0.02943459 0.01226885 0.02083035
v 0.02567849 0.00940174 0.02424049
v 0.02567849 0.01226885 0.02179873
v 0.02943459 0.00940174 0.02083035
v 0.02943348 0.01226885 0.02065156
v 0.02567849 0.00940174 0.01945947
v 0.02691214 0.01226885 0.01975433
v 0.02567849 0.01215687 0.02021020
v 0.02943201 0.00940174 0.02041848
v 0.02943054 0.01226885 0.02021020
v 0.02567849 0.01084989 0.01945947
v 0.02865358 0.00940174 0.01945947
v 0.02740964 0.01226885 0.01956852
v 0.02567849 0.01196294 0.01969770
v 0.02943054 0.00940174 0.02021020
v 0.02927427 0.00940174 0.01985777
v 0.02919521 0.01226885 0.01967991
v 0.02567849 0.01134523 0.01947351
v 0.02803327 0.01226885 0.01946228
v 0.02803327 0.01208980 0.01945947
v 0.02865358 0.01226885 0.01945947
v 0.02903894 0.01226885 0.01961626
v 0.02919521 0.00940174 0.01967991
v 0.02567849 0.01186387 0.01965324
v 0.02567849 0.01146984 0.01947725
f 1 2 5
f 1 5 3
f 1 3 7
f 1 7 4
f 1 4 8
f 1 8 13
f 1 13 20
f 1 20 25
f 1 25 24
f 1 24 22
f 1 22 16
f 1 16 10
f 1 10 6
f 1 6 2
f 2 6 11
f 2 11 17
f 2 17 27
f 2 27 28
f 2 28 21
f 2 21 14
f 2 14 9
f 2 9 5
f 3 5 9
f 3 9 15
f 3 15 26
f 3 26 19
f 3 19 18
f 3 18 12
f 3 12 7
f 4 7 8
f 6 10 11
f 7 12 8
f 8 12 13
f 9 14 23
f 9 23 24
f 9 24 15
f 10 16 17
f 10 17 11
f 12 18 13
f 13 18 19
f 13 19 20
f 14 21 22
f 14 22 23
f 15 24 25
f 15 25 26
f 16 22 17
f 17 22 27
f 19 26 20
f 20 26 25
f 21 28 22
f 22 24 23
f 22 28 27

