# https://github.com/mikedh/trimesh
v 0.02493372 0.01704991 0.01945900
v 0.02464930 0.01642977 0.01948068
v 0.02464930 0.01704991 0.01946003
v 0.02493372 0.01707727 0.01945900
v 0.02678582 0.01704991 0.01945900
v 0.02464930 0.01583868 0.01967745
v 0.02678582 0.01643757 0.01948171
v 0.02678582 0.01642977 0.01948212
v 0.02464930 0.01706259 0.01946003
v 0.02562889 0.01707742 0.01945900
v 0.02464930 0.01707727 0.01946044
v 0.02678582 0.01707742 0.01945900
v 0.02464930 0.01555284 0.02021038
v 0.02678582 0.01585763 0.01970079
v 0.02678582 0.01582431 0.01971689
v 0.02562889 0.01707742 0.02154196
v 0.02464930 0.01707727 0.02156839
v 0.02678582 0.01707742 0.02154196
v 0.02464930 0.01551600 0.02156839
v 0.02678582 0.01562728 0.02015153
v 0.02678582 0.01561811 0.02021017
v 0.02678582 0.01556140 0.02154196
v 0.02562889 0.01707727 0.02156839
v 0.02487391 0.01556675 0.02156839
v 0.02562889 0.01576332 0.02156839
f 1 2 3
f 1 3 9
f 1 9 4
f 1 4 10
f 1 10 12
f 1 12 5
f 1 5 2
f 2 6 13
f 2 13 19
f 2 19 17
f 2 17 11
f 2 11 9
f 2 9 3
f 2 5 7
f 2 7 8
f 2 8 6
f 4 9 11
f 4 11 10
f 5 12 18
f 5 18 22
f 5 22 21
f 5 21 20
f 5 20 15
f 5 15 14
f 5 14 8
f 5 8 7
f 6 8 14
f 6 14 15
f 6 15 13
f 10 11 17
f 10 17 16
f 10 16 18
f 10 18 12
f 13 15 20
f 13 20 21
f 13 21 22
f 13 22 19
f 16 17 23
f 16 23 18
f 17 19 24
f 17 24 25
f 17 25 23
f 18 23 25
f 18 25 22
f 19 22 24
f 22 25 24

