# https://github.com/mikedh/trimesh
v 0.01929996 -0.00065611 0.02702752
v 0.01932682 -0.00282346 0.02702752
v 0.02008180 -0.00275907 0.02702752
v 0.02008180 -0.00032135 0.02702096
v 0.01929996 -0.00065611 0.02616663
v 0.01929996 -0.00482189 0.02387703
v 0.01932682 -0.00453300 0.02622000
v 0.01997351 -0.00279082 0.02702752
v 0.01997351 -0.00452506 0.02622000
v 0.02008180 -0.00451844 0.02621956
v 0.02008180 -0.00032179 0.02577861
v 0.01929996 -0.00065655 0.02578955
v 0.01929996 -0.00480778 0.02328779
v 0.01935369 -0.00482189 0.02331053
v 0.01935369 -0.00482718 0.02393040
v 0.01932682 -0.00482454 0.02516969
v 0.01932682 -0.00477558 0.02578955
v 0.01997351 -0.00475794 0.02578955
v 0.02008180 -0.00471074 0.02586391
v 0.02008180 -0.00033502 0.02516969
v 0.01929996 -0.00066140 0.02555726
v 0.01929996 -0.00455285 0.02277116
v 0.01935369 -0.00457799 0.02278035
v 0.01997351 -0.00456916 0.02278122
v 0.01997351 -0.00480204 0.02331053
v 0.01997351 -0.00480469 0.02393040
v 0.01997351 -0.00480469 0.02516969
v 0.02008180 -0.00474250 0.02578955
v 0.02008180 -0.00478131 0.02527774
v 0.02008180 -0.00061421 0.02464825
v 0.01929996 -0.00090442 0.02463381
v 0.01929996 -0.00068125 0.02506426
v 0.01929996 -0.00067287 0.02516969
v 0.01932682 -0.00402975 0.02255944
v 0.01929996 -0.00397594 0.02255900
v 0.01997351 -0.00402975 0.02256075
v 0.02008180 -0.00456034 0.02278385
v 0.02008180 -0.00402975 0.02256337
v 0.02008180 -0.00478440 0.02331053
v 0.02008180 -0.00478661 0.02393040
v 0.02008180 -0.00478661 0.02516969
v 0.02008180 -0.00180771 0.02296276
v 0.01929996 -0.00184388 0.02297064
v 0.01929996 -0.00276260 0.02256644
v 0.02008180 -0.00278950 0.02255900
v 0.02008180 -0.00340919 0.02255900
v 0.02008180 -0.00217070 0.02273792
v 0.01929996 -0.00215526 0.02275979
f 1 2 8
f 1 8 3
f 1 3 4
f 1 4 5
f 1 5 12
f 1 12 21
f 1 21 33
f 1 33 32
f 1 32 31
f 1 31 43
f 1 43 48
f 1 48 44
f 1 44 35
f 1 35 22
f 1 22 13
f 1 13 6
f 1 6 7
f 1 7 2
f 2 7 9
f 2 9 8
f 3 8 10
f 3 10 19
f 3 19 28
f 3 28 29
f 3 29 41
f 3 41 40
f 3 40 39
f 3 39 37
f 3 37 38
f 3 38 46
f 3 46 45
f 3 45 47
f 3 47 42
f 3 42 30
f 3 30 20
f 3 20 11
f 3 11 4
f 4 11 5
f 5 11 12
f 6 13 14
f 6 14 15
f 6 15 16
f 6 16 17
f 6 17 7
f 7 17 9
f 8 9 10
f 9 17 18
f 9 18 10
f 10 18 19
f 11 20 21
f 11 21 12
f 13 22 23
f 13 23 14
f 14 23 24
f 14 24 25
f 14 25 15
f 15 25 26
f 15 26 27
f 15 27 16
f 16 27 18
f 16 18 17
f 18 28 19
f 18 27 29
f 18 29 28
f 20 30 31
f 20 31 32
f 20 32 33
f 20 33 21
f 22 34 23
f 22 35 34
f 23 34 36
f 23 36 24
f 24 37 25
f 24 36 38
f 24 38 37
f 25 39 26
f 25 37 39
f 26 39 40
f 26 40 41
f 26 41 27
f 27 41 29
f 30 42 43
f 30 43 31
f 34 35 36
f 35 44 45
f 35 45 46
f 35 46 36
f 36 46 38
f 42 47 48
f 42 48 43
f 44 48 47
f 44 47 45

