# https://github.com/mikedh/trimesh
v 0.02307373 -0.01396521 0.01948711
v 0.02307373 -0.01270980 0.01945900
v 0.02369338 -0.01208994 0.01945900
v 0.02430649 -0.01147008 0.01946344
v 0.02430649 -0.01208994 0.01956160
v 0.02308933 -0.01396521 0.01949205
v 0.02247496 -0.01396521 0.01967455
v 0.02307373 -0.01147008 0.01945900
v 0.02369338 -0.01147008 0.01945900
v 0.02430649 -0.01085022 0.01946344
v 0.02430649 -0.01236892 0.01964989
v 0.02360314 -0.01396521 0.01970711
v 0.02245999 -0.01396521 0.01967998
v 0.02245999 -0.01147008 0.01967998
v 0.02307373 -0.01085022 0.01953052
v 0.02430649 -0.00963382 0.01947972
v 0.02248697 -0.01085022 0.01971697
v 0.02430649 -0.01265044 0.01974262
v 0.02408279 -0.01315837 0.01979441
v 0.02384602 -0.01396521 0.02021022
v 0.02216187 -0.01396521 0.02019740
v 0.02215449 -0.01147008 0.02021022
v 0.02259724 -0.01047881 0.01980280
v 0.02382199 -0.00963382 0.01969625
v 0.02430649 -0.00963382 0.02449756
v 0.02220951 -0.01085022 0.02021022
v 0.02430649 -0.01294129 0.02021022
v 0.02430649 -0.01396478 0.02194548
v 0.02430649 -0.01396521 0.02195238
v 0.02215449 -0.01396521 0.02021022
v 0.02215280 -0.01396521 0.02081495
v 0.02215280 -0.01147008 0.02083024
v 0.02251417 -0.01044828 0.02021022
v 0.02364193 -0.00963382 0.02021022
v 0.02363919 -0.00963382 0.02449756
v 0.02430649 -0.01396309 0.02449756
v 0.02220867 -0.01085022 0.02083024
v 0.02430649 -0.01396521 0.02443590
v 0.02215280 -0.01396521 0.02449756
v 0.02215280 -0.01147008 0.02449756
v 0.02363919 -0.00963382 0.02083024
v 0.02251417 -0.01044828 0.02449756
v 0.02420950 -0.01396521 0.02449756
v 0.02220867 -0.01085022 0.02449756
f 1 2 3
f 1 3 4
f 1 4 5
f 1 5 6
f 1 6 12
f 1 12 20
f 1 20 29
f 1 29 38
f 1 38 43
f 1 43 39
f 1 39 31
f 1 31 30
f 1 30 21
f 1 21 13
f 1 13 7
f 1 7 2
f 2 8 9
f 2 9 3
f 2 7 8
f 3 9 10
f 3 10 4
f 4 10 16
f 4 16 25
f 4 25 36
f 4 36 38
f 4 38 29
f 4 29 28
f 4 28 27
f 4 27 18
f 4 18 11
f 4 11 5
f 5 11 12
f 5 12 6
f 7 13 14
f 7 14 8
f 8 15 16
f 8 16 10
f 8 10 9
f 8 14 17
f 8 17 15
f 11 18 12
f 12 18 19
f 12 19 20
f 13 21 14
f 14 21 22
f 14 22 17
f 15 17 16
f 16 17 23
f 16 23 24
f 16 24 34
f 16 34 41
f 16 41 35
f 16 35 25
f 17 22 26
f 17 26 23
f 18 27 20
f 18 20 19
f 20 27 28
f 20 28 29
f 21 30 22
f 22 31 32
f 22 32 26
f 22 30 31
f 23 26 33
f 23 33 34
f 23 34 24
f 25 35 42
f 25 42 44
f 25 44 40
f 25 40 39
f 25 39 43
f 25 43 36
f 26 32 37
f 26 37 33
f 31 39 40
f 31 40 32
f 32 40 44
f 32 44 37
f 33 41 34
f 33 37 44
f 33 44 42
f 33 42 35
f 33 35 41
f 36 43 38

