# https://github.com/mikedh/trimesh
v 0.02101131 -0.01398831 0.03265526
v 0.02061984 -0.01398831 0.03265886
v 0.02101131 -0.01147024 0.03265526
v 0.02506787 -0.01398831 0.03265526
v 0.02059351 -0.01398831 0.03265922
v 0.02059205 -0.01394994 0.03265922
v 0.02059205 -0.01147024 0.03265922
v 0.02132917 -0.01084535 0.03265526
v 0.02557244 -0.01334494 0.03265526
v 0.02557244 -0.01334565 0.03510749
v 0.02506787 -0.01398831 0.03508981
v 0.02059205 -0.01398831 0.03612201
v 0.02059205 -0.01085032 0.03269638
v 0.02153587 -0.01063646 0.03265526
v 0.02557244 -0.01035936 0.03265526
v 0.02557244 -0.01333570 0.03571035
v 0.02506690 -0.01398831 0.03514393
v 0.02059205 -0.01398831 0.03634100
v 0.02059205 -0.01045705 0.03282699
v 0.02191028 -0.01048796 0.03265526
v 0.02557244 -0.01035936 0.03508981
v 0.02302862 -0.01035936 0.03265526
v 0.02557244 -0.01317228 0.03615267
v 0.02505129 -0.01398831 0.03570999
v 0.02059205 -0.01147166 0.03634100
v 0.02431321 -0.01398831 0.03634100
v 0.02059205 -0.01036682 0.03323034
v 0.02213209 -0.01044533 0.03265526
v 0.02557244 -0.01035971 0.03570999
v 0.02059205 -0.01035936 0.03508981
v 0.02059205 -0.01035936 0.03385016
v 0.02557244 -0.01270974 0.03631322
v 0.02483289 -0.01398831 0.03618153
v 0.02503764 -0.01398831 0.03574030
v 0.02059205 -0.01085174 0.03629229
v 0.02059400 -0.01147024 0.03634100
v 0.02557244 -0.01209017 0.03634100
v 0.02557244 -0.01044746 0.03611876
v 0.02059205 -0.01035971 0.03570999
v 0.02059205 -0.01045030 0.03613175
v 0.02059400 -0.01085032 0.03629229
v 0.02557244 -0.01147024 0.03634100
v 0.02557244 -0.01045030 0.03613175
v 0.02557244 -0.01085032 0.03629229
f 1 2 3
f 1 3 8
f 1 8 14
f 1 14 20
f 1 20 28
f 1 28 22
f 1 22 15
f 1 15 9
f 1 9 4
f 1 4 11
f 1 11 17
f 1 17 24
f 1 24 34
f 1 34 33
f 1 33 26
f 1 26 18
f 1 18 12
f 1 12 5
f 1 5 2
f 2 5 6
f 2 6 7
f 2 7 3
f 3 7 8
f 4 9 10
f 4 10 11
f 5 12 6
f 6 12 18
f 6 18 25
f 6 25 35
f 6 35 40
f 6 40 39
f 6 39 30
f 6 30 31
f 6 31 27
f 6 27 19
f 6 19 13
f 6 13 7
f 7 13 14
f 7 14 8
f 9 15 21
f 9 21 29
f 9 29 38
f 9 38 43
f 9 43 44
f 9 44 42
f 9 42 37
f 9 37 32
f 9 32 23
f 9 23 16
f 9 16 10
f 10 16 11
f 11 16 17
f 13 19 20
f 13 20 14
f 15 22 31
f 15 31 30
f 15 30 21
f 16 23 24
f 16 24 17
f 18 26 37
f 18 37 42
f 18 42 36
f 18 36 25
f 19 27 22
f 19 22 28
f 19 28 20
f 21 30 39
f 21 39 29
f 22 27 31
f 23 32 33
f 23 33 34
f 23 34 24
f 25 36 41
f 25 41 35
f 26 33 32
f 26 32 37
f 29 39 38
f 35 41 40
f 36 42 44
f 36 44 41
f 38 39 40
f 38 40 43
f 40 41 44
f 40 44 43

