# https://github.com/mikedh/trimesh
v 0.01501777 0.01032329 0.03447045
v 0.01501777 0.01032329 0.03508974
v 0.01501777 0.01032401 0.03385007
v 0.01898511 0.01035916 0.03385007
v 0.01501777 0.01033190 0.03570940
v 0.01898511 0.01035916 0.03508974
v 0.01501777 0.01033836 0.03323005
v 0.01898511 0.01036777 0.03323005
v 0.01898511 0.01036347 0.03348182
v 0.01898511 0.01037854 0.03579513
v 0.01501777 0.01043952 0.03613155
v 0.01501777 0.01044670 0.03282817
v 0.01898511 0.01045746 0.03282708
v 0.01898511 0.01053208 0.03616410
v 0.01898511 0.01085064 0.03629216
v 0.01501777 0.01085279 0.03629469
v 0.01501777 0.01085064 0.03269432
v 0.01898511 0.01077100 0.03272290
v 0.01898511 0.01147127 0.03634099
v 0.01501777 0.01147127 0.03634823
v 0.01503525 0.01146912 0.03265526
v 0.01898511 0.01147127 0.03265960
v 0.01501777 0.01704901 0.03266430
v 0.01502127 0.01643054 0.03265526
v 0.01501777 0.01209046 0.03635076
v 0.01898511 0.01642982 0.03634099
v 0.01505273 0.01580920 0.03265526
v 0.01898511 0.01642982 0.03265960
v 0.01501777 0.01748596 0.03279597
v 0.01898511 0.01739843 0.03276993
v 0.01898511 0.01704901 0.03266611
v 0.01501777 0.01642982 0.03635076
v 0.01898511 0.01714013 0.03629614
v 0.01501777 0.01704901 0.03633810
v 0.01501777 0.01763233 0.03322897
v 0.01898511 0.01762802 0.03323005
v 0.01898511 0.01749816 0.03616844
v 0.01501777 0.01750533 0.03617242
v 0.01501777 0.01765170 0.03384645
v 0.01898511 0.01764094 0.03385007
v 0.01898511 0.01755628 0.03598251
v 0.01501777 0.01765170 0.03570940
v 0.01501777 0.01765314 0.03446647
v 0.01898511 0.01764094 0.03508974
v 0.01898511 0.01763950 0.03570940
v 0.01501777 0.01765314 0.03508974
f 1 2 5
f 1 5 11
f 1 11 16
f 1 16 20
f 1 20 25
f 1 25 32
f 1 32 34
f 1 34 38
f 1 38 42
f 1 42 46
f 1 46 43
f 1 43 39
f 1 39 35
f 1 35 29
f 1 29 23
f 1 23 17
f 1 17 12
f 1 12 7
f 1 7 3
f 1 3 4
f 1 4 6
f 1 6 2
f 2 6 5
f 3 7 8
f 3 8 9
f 3 9 4
f 4 9 8
f 4 8 13
f 4 13 18
f 4 18 22
f 4 22 28
f 4 28 31
f 4 31 30
f 4 30 36
f 4 36 40
f 4 40 44
f 4 44 45
f 4 45 41
f 4 41 37
f 4 37 33
f 4 33 26
f 4 26 19
f 4 19 15
f 4 15 14
f 4 14 10
f 4 10 6
f 5 6 10
f 5 10 11
f 7 12 13
f 7 13 8
f 10 14 11
f 11 14 15
f 11 15 16
f 12 17 18
f 12 18 13
f 15 19 20
f 15 20 16
f 17 21 22
f 17 22 18
f 17 23 24
f 17 24 21
f 19 25 20
f 19 26 32
f 19 32 25
f 21 24 27
f 21 27 22
f 22 27 28
f 23 29 30
f 23 30 31
f 23 31 24
f 24 31 28
f 24 28 27
f 26 33 34
f 26 34 32
f 29 35 36
f 29 36 30
f 33 37 34
f 34 37 38
f 35 39 36
f 36 39 40
f 37 41 42
f 37 42 38
f 39 43 40
f 40 43 46
f 40 46 44
f 41 45 42
f 42 45 44
f 42 44 46

