# https://github.com/mikedh/trimesh
v 0.02650847 0.01428811 0.03243587
v 0.02650847 0.01428811 0.03265568
v 0.02540546 0.01454476 0.03254558
v 0.02540546 0.01764034 0.03254558
v 0.02865338 0.01764034 0.03243587
v 0.02943263 0.01598457 0.03243587
v 0.02943224 0.01428811 0.03256164
v 0.02741392 0.01431830 0.03634100
v 0.02672576 0.01431830 0.03611812
v 0.02650256 0.01431830 0.03570945
v 0.02647180 0.01431830 0.03508937
v 0.02865299 0.01431830 0.03634100
v 0.02556793 0.01465470 0.03570945
v 0.02556793 0.01477581 0.03611201
v 0.02556793 0.01519033 0.03627257
v 0.02556793 0.01581030 0.03634100
v 0.02556793 0.01642961 0.03634100
v 0.02556793 0.01704991 0.03632800
v 0.02556793 0.01749922 0.03616782
v 0.02556793 0.01764001 0.03570945
v 0.02556793 0.01764100 0.03508937
v 0.02556793 0.01764100 0.03265568
v 0.02916368 0.01750020 0.03265568
v 0.02916368 0.01749954 0.03243587
v 0.02865299 0.01764100 0.03265568
v 0.02943224 0.01642961 0.03243587
v 0.02943421 0.01642961 0.03385074
v 0.02943421 0.01431830 0.03385074
v 0.02943421 0.01431830 0.03508937
v 0.02942474 0.01431830 0.03534168
v 0.02941015 0.01431830 0.03570945
v 0.02917433 0.01431830 0.03618005
v 0.02865299 0.01642961 0.03634100
v 0.02865299 0.01704991 0.03632800
v 0.02865299 0.01749922 0.03616782
v 0.02865299 0.01764001 0.03570945
v 0.02865299 0.01764100 0.03508937
v 0.02916368 0.01750020 0.03508937
v 0.02939911 0.01704991 0.03385074
v 0.02939793 0.01704958 0.03243587
v 0.02943421 0.01642961 0.03508937
v 0.02941015 0.01642961 0.03570945
v 0.02917433 0.01642961 0.03618005
v 0.02916920 0.01704991 0.03617394
v 0.02909585 0.01745294 0.03611812
v 0.02916329 0.01749922 0.03570945
v 0.02939911 0.01704991 0.03508937
v 0.02938649 0.01704991 0.03570945
f 1 2 3
f 1 3 4
f 1 4 5
f 1 5 24
f 1 24 40
f 1 40 26
f 1 26 6
f 1 6 7
f 1 7 2
f 2 8 9
f 2 9 10
f 2 10 11
f 2 11 3
f 2 7 12
f 2 12 8
f 3 13 14
f 3 14 15
f 3 15 16
f 3 16 17
f 3 17 4
f 3 11 10
f 3 10 13
f 4 17 18
f 4 18 19
f 4 19 20
f 4 20 21
f 4 21 22
f 4 22 5
f 5 23 24
f 5 22 25
f 5 25 23
f 6 26 27
f 6 27 28
f 6 28 7
f 7 28 29
f 7 29 30
f 7 30 31
f 7 31 32
f 7 32 12
f 8 16 15
f 8 15 14
f 8 14 9
f 8 12 33
f 8 33 17
f 8 17 16
f 9 14 13
f 9 13 10
f 12 32 43
f 12 43 33
f 17 33 34
f 17 34 18
f 18 34 35
f 18 35 19
f 19 35 36
f 19 36 20
f 20 36 37
f 20 37 21
f 21 37 25
f 21 25 22
f 23 25 37
f 23 37 38
f 23 38 47
f 23 47 39
f 23 39 40
f 23 40 24
f 26 40 27
f 27 41 29
f 27 29 28
f 27 40 39
f 27 39 47
f 27 47 41
f 29 41 30
f 30 42 31
f 30 41 42
f 31 42 43
f 31 43 32
f 33 43 44
f 33 44 34
f 34 44 45
f 34 45 35
f 35 45 36
f 36 45 46
f 36 46 38
f 36 38 37
f 38 46 47
f 41 47 48
f 41 48 42
f 42 48 44
f 42 44 43
f 44 48 45
f 45 48 46
f 46 48 47

