# https://github.com/mikedh/trimesh
v 0.01315518 -0.02076996 0.01945946
v 0.01315518 -0.01891082 0.01945946
v 0.02120069 -0.02076996 0.01945946
v 0.02120069 -0.02138337 0.01947641
v 0.01315518 -0.02138981 0.01947687
v 0.01253520 -0.02076996 0.01961068
v 0.01315518 -0.01829054 0.01948145
v 0.02120069 -0.01889881 0.01945946
v 0.01253520 -0.01891082 0.01961068
v 0.02120069 -0.02187015 0.01969729
v 0.01315518 -0.02187015 0.01969729
v 0.01235895 -0.02158384 0.01985906
v 0.01315518 -0.01781964 0.01970187
v 0.02120069 -0.01781793 0.01970187
v 0.02120069 -0.01828582 0.01948329
v 0.01235895 -0.01809823 0.01985997
v 0.02120069 -0.02204100 0.02021054
v 0.01315518 -0.02204100 0.02021054
v 0.01253520 -0.02192424 0.02021054
v 0.01218359 -0.02156710 0.02350173
v 0.01215259 -0.01891082 0.02021054
v 0.01315518 -0.01765910 0.02021054
v 0.02120069 -0.01765566 0.02021054
v 0.01253520 -0.01776856 0.02021054
v 0.01218359 -0.01811412 0.02350173
v 0.02120069 -0.02204100 0.02330927
v 0.01315518 -0.02204100 0.02330927
v 0.01253520 -0.02192424 0.02330927
v 0.01217119 -0.01891082 0.02350906
v 0.01253520 -0.02160058 0.02387154
v 0.01253520 -0.02076996 0.02396915
v 0.01315518 -0.01765910 0.02330927
v 0.02120069 -0.01765566 0.02330927
v 0.01253520 -0.01776856 0.02330927
v 0.01253520 -0.01891082 0.02396915
v 0.01253520 -0.01808235 0.02386971
v 0.02120069 -0.02187144 0.02385459
v 0.01315518 -0.02187015 0.02385963
v 0.01315518 -0.02138981 0.02411992
v 0.01315518 -0.02076996 0.02414100
v 0.01315518 -0.01781964 0.02385596
v 0.02120069 -0.01781793 0.02385596
v 0.01315518 -0.01891082 0.02414100
v 0.01315518 -0.01829054 0.02411671
v 0.02120069 -0.02139453 0.02411763
v 0.02120069 -0.02076996 0.02414100
v 0.02120069 -0.01829054 0.02411671
v 0.02120069 -0.01891082 0.02414100
f 1 2 8
f 1 8 3
f 1 3 4
f 1 4 5
f 1 5 6
f 1 6 9
f 1 9 2
f 2 7 8
f 2 9 7
f 3 8 15
f 3 15 14
f 3 14 23
f 3 23 33
f 3 33 42
f 3 42 47
f 3 47 48
f 3 48 46
f 3 46 45
f 3 45 37
f 3 37 26
f 3 26 17
f 3 17 10
f 3 10 4
f 4 10 5
f 5 10 11
f 5 11 12
f 5 12 6
f 6 12 9
f 7 13 14
f 7 14 15
f 7 15 8
f 7 9 16
f 7 16 13
f 9 12 16
f 10 17 18
f 10 18 11
f 11 18 19
f 11 19 12
f 12 19 20
f 12 20 21
f 12 21 16
f 13 22 23
f 13 23 14
f 13 16 24
f 13 24 22
f 16 21 25
f 16 25 24
f 17 26 27
f 17 27 18
f 18 27 28
f 18 28 19
f 19 28 20
f 20 29 21
f 20 28 30
f 20 30 31
f 20 31 29
f 21 29 25
f 22 24 34
f 22 34 32
f 22 32 33
f 22 33 23
f 24 25 34
f 25 29 35
f 25 35 36
f 25 36 34
f 26 37 38
f 26 38 27
f 27 38 28
f 28 38 30
f 29 31 35
f 30 38 39
f 30 39 31
f 31 39 40
f 31 40 43
f 31 43 35
f 32 41 33
f 32 34 41
f 33 41 42
f 34 36 41
f 35 43 44
f 35 44 36
f 36 44 41
f 37 45 38
f 38 45 39
f 39 45 46
f 39 46 40
f 40 46 48
f 40 48 43
f 41 44 42
f 42 44 47
f 43 48 47
f 43 47 44

