# https://github.com/mikedh/trimesh
v 0.02120238 -0.01897738 0.01945949
v 0.02120238 -0.01897738 0.02414048
v 0.02120238 -0.01828985 0.01948119
v 0.02324190 -0.01676526 0.01946245
v 0.02402998 -0.01676526 0.01946097
v 0.02493411 -0.01705023 0.01945949
v 0.02555298 -0.01904500 0.01945949
v 0.02487851 -0.01904433 0.02449411
v 0.02426689 -0.01903250 0.02449509
v 0.02369235 -0.01879797 0.02449756
v 0.02229990 -0.01756973 0.02449756
v 0.02214679 -0.01695873 0.02449756
v 0.02120238 -0.01829587 0.02411681
v 0.02120238 -0.01781810 0.01970165
v 0.02225397 -0.01676526 0.02000793
v 0.02803247 -0.01676526 0.01945949
v 0.02617265 -0.01904500 0.01947133
v 0.02688015 -0.01904500 0.02404431
v 0.02865214 -0.01767015 0.01945949
v 0.02555298 -0.01904388 0.02449559
v 0.02865214 -0.01884059 0.02449756
v 0.02214921 -0.01676526 0.02394764
v 0.02120238 -0.01781810 0.02385590
v 0.02943459 -0.01676526 0.02449756
v 0.02120238 -0.01765587 0.02021064
v 0.02214760 -0.01676526 0.02083060
v 0.02886165 -0.01676526 0.01954432
v 0.02865214 -0.01850497 0.01961633
v 0.02912999 -0.01848511 0.01974407
v 0.02677298 -0.01904500 0.01967009
v 0.02705663 -0.01904500 0.02336467
v 0.02630400 -0.01904277 0.02443640
v 0.02919445 -0.01767015 0.01968045
v 0.02706388 -0.01904500 0.02281426
v 0.02865214 -0.01884059 0.02021064
v 0.02912838 -0.01872522 0.02449756
v 0.02214760 -0.01676526 0.02332028
v 0.02120238 -0.01765587 0.02330943
v 0.02943459 -0.01767015 0.02449756
v 0.02943459 -0.01676526 0.02083060
v 0.02937576 -0.01676526 0.02008882
v 0.02943056 -0.01767015 0.02021064
v 0.02926617 -0.01850497 0.02021064
v 0.02704212 -0.01904500 0.02021064
v 0.02706388 -0.01904500 0.02083060
v 0.02938463 -0.01828985 0.02449756
v 0.02943459 -0.01767015 0.02083060
v 0.02938463 -0.01828985 0.02083060
f 1 2 13
f 1 13 23
f 1 23 38
f 1 38 25
f 1 25 14
f 1 14 3
f 1 3 4
f 1 4 5
f 1 5 6
f 1 6 16
f 1 16 19
f 1 19 7
f 1 7 8
f 1 8 2
f 2 8 9
f 2 9 10
f 2 10 11
f 2 11 12
f 2 12 13
f 3 14 4
f 4 15 26
f 4 26 37
f 4 37 22
f 4 22 24
f 4 24 40
f 4 40 41
f 4 41 27
f 4 27 16
f 4 16 5
f 4 14 15
f 5 16 6
f 7 17 30
f 7 30 44
f 7 44 45
f 7 45 34
f 7 34 31
f 7 31 18
f 7 18 8
f 7 19 17
f 8 20 9
f 8 18 20
f 9 20 10
f 10 20 21
f 10 21 36
f 10 36 46
f 10 46 39
f 10 39 24
f 10 24 12
f 10 12 11
f 12 22 23
f 12 23 13
f 12 24 22
f 14 25 15
f 15 25 26
f 16 27 19
f 17 19 28
f 17 28 29
f 17 29 30
f 18 31 21
f 18 21 32
f 18 32 20
f 19 27 33
f 19 33 29
f 19 29 28
f 20 32 21
f 21 31 34
f 21 34 45
f 21 45 35
f 21 35 36
f 22 37 38
f 22 38 23
f 24 39 47
f 24 47 40
f 25 38 37
f 25 37 26
f 27 41 33
f 29 33 42
f 29 42 43
f 29 43 35
f 29 35 30
f 30 35 44
f 33 41 42
f 35 45 44
f 35 43 36
f 36 43 46
f 39 46 48
f 39 48 47
f 40 47 42
f 40 42 41
f 42 47 48
f 42 48 43
f 43 48 46

