# https://github.com/mikedh/trimesh
v 0.02943459 -0.01396521 0.02449775
v 0.02649201 -0.01396521 0.02449775
v 0.02943459 -0.01676526 0.02449775
v 0.02943459 -0.01396521 0.02140051
v 0.02648826 -0.01430452 0.02449775
v 0.02649201 -0.01396521 0.02330979
v 0.02648826 -0.01676526 0.02449775
v 0.02943459 -0.01676526 0.02140051
v 0.02763016 -0.01396521 0.02140051
v 0.02648826 -0.01430452 0.02392985
v 0.02649605 -0.01396521 0.02317517
v 0.02648826 -0.01432892 0.02269004
v 0.02648826 -0.01430480 0.02330979
v 0.02648826 -0.01676526 0.02140051
v 0.02648826 -0.01571496 0.02140051
v 0.02682601 -0.01396521 0.02221492
v 0.02652085 -0.01396521 0.02267427
v 0.02648826 -0.01462274 0.02222250
v 0.02653181 -0.01396521 0.02264941
f 1 2 5
f 1 5 7
f 1 7 3
f 1 3 8
f 1 8 4
f 1 4 9
f 1 9 16
f 1 16 19
f 1 19 17
f 1 17 11
f 1 11 6
f 1 6 2
f 2 6 10
f 2 10 5
f 3 7 14
f 3 14 8
f 4 8 14
f 4 14 15
f 4 15 9
f 5 10 13
f 5 13 12
f 5 12 18
f 5 18 15
f 5 15 14
f 5 14 7
f 6 11 12
f 6 12 13
f 6 13 10
f 9 15 16
f 11 17 12
f 12 17 18
f 15 18 19
f 15 19 16
f 17 19 18

