# https://github.com/mikedh/trimesh
v 0.02540090 -0.01342644 0.02702996
v 0.02540090 -0.01342644 0.02655579
v 0.02512682 -0.01342644 0.02703066
v 0.02516147 -0.01355819 0.02703066
v 0.02506068 -0.01395043 0.02703066
v 0.02507244 -0.01401059 0.02702996
v 0.02507244 -0.01401059 0.02655579
v 0.02215291 -0.01342644 0.02655579
v 0.02260473 -0.01342644 0.02703066
v 0.02477833 -0.01401059 0.02703066
v 0.02215291 -0.01401059 0.02655579
v 0.02215291 -0.01342644 0.02702996
v 0.02215291 -0.01394998 0.02703066
v 0.02215291 -0.01401059 0.02702996
f 1 2 8
f 1 8 12
f 1 12 9
f 1 9 3
f 1 3 4
f 1 4 5
f 1 5 6
f 1 6 7
f 1 7 2
f 2 7 11
f 2 11 8
f 3 9 13
f 3 13 10
f 3 10 5
f 3 5 4
f 5 10 6
f 6 10 14
f 6 14 11
f 6 11 7
f 8 11 14
f 8 14 13
f 8 13 12
f 9 12 13
f 10 13 14

