# https://github.com/mikedh/trimesh
v 0.02943459 0.01494511 0.02185278
v 0.02943459 0.01391157 0.02185278
v 0.02943459 0.01494511 0.02082989
v 0.02720737 0.01494511 0.02185278
v 0.02733798 0.01391157 0.02185278
v 0.02943459 0.01391157 0.02082989
v 0.02943066 0.01494511 0.02021006
v 0.02735498 0.01494511 0.02021006
v 0.02771539 0.01391157 0.02021006
v 0.02943066 0.01391157 0.02021006
v 0.02928829 0.01494511 0.01988925
v 0.02740055 0.01494511 0.02003430
v 0.02752003 0.01494511 0.01974583
v 0.02794585 0.01391157 0.01974349
v 0.02919519 0.01391157 0.01967951
v 0.02919519 0.01494511 0.01967951
v 0.02763799 0.01494511 0.01968701
v 0.02798161 0.01391157 0.01971631
v 0.02868717 0.01391157 0.01948173
v 0.02865337 0.01456994 0.01945900
v 0.02865337 0.01494511 0.01945900
v 0.02801388 0.01494511 0.01953914
v 0.02865337 0.01391157 0.01946861
v 0.02827857 0.01494511 0.01946931
f 1 2 6
f 1 6 3
f 1 3 7
f 1 7 11
f 1 11 16
f 1 16 21
f 1 21 24
f 1 24 22
f 1 22 17
f 1 17 13
f 1 13 12
f 1 12 8
f 1 8 4
f 1 4 5
f 1 5 2
f 2 5 9
f 2 9 14
f 2 14 18
f 2 18 23
f 2 23 19
f 2 19 15
f 2 15 10
f 2 10 6
f 3 6 10
f 3 10 7
f 4 8 5
f 5 8 9
f 7 10 11
f 8 12 9
f 9 12 13
f 9 13 14
f 10 15 11
f 11 15 16
f 13 17 18
f 13 18 14
f 15 19 20
f 15 20 21
f 15 21 16
f 17 22 18
f 18 22 23
f 19 23 20
f 20 23 24
f 20 24 21
f 22 24 23

