# https://github.com/mikedh/trimesh
v 0.02942033 0.01784575 0.02517001
v 0.02942033 0.01784575 0.02499715
v 0.02939966 0.01784575 0.02561426
v 0.02943459 0.01766984 0.02517001
v 0.02942033 0.01784363 0.02499623
v 0.02941819 0.01784575 0.02499623
v 0.02943459 0.01766984 0.02499623
v 0.02938968 0.01784575 0.02579007
v 0.02940251 0.01704971 0.02688470
v 0.02940536 0.01766984 0.02579007
v 0.02942889 0.01657506 0.02688470
v 0.02943459 0.01642994 0.02688470
v 0.02344704 0.01784575 0.02499623
v 0.02943459 0.01422977 0.02499623
v 0.02935547 0.01719342 0.02688470
v 0.02924926 0.01784575 0.02622933
v 0.02943459 0.01422977 0.02688470
v 0.02261876 0.01759480 0.02499623
v 0.02246907 0.01750029 0.02688470
v 0.02352687 0.01784575 0.02579007
v 0.02215259 0.01422977 0.02499623
v 0.02917441 0.01754383 0.02688470
v 0.02918938 0.01784575 0.02635264
v 0.02215259 0.01422977 0.02688470
v 0.02244769 0.01752967 0.02499623
v 0.02239708 0.01739482 0.02688470
v 0.02261021 0.01753710 0.02688470
v 0.02371292 0.01784575 0.02638536
v 0.02215259 0.01642994 0.02499623
v 0.02865336 0.01770452 0.02688470
v 0.02867759 0.01784575 0.02653732
v 0.02215259 0.01642994 0.02688470
v 0.02216043 0.01703768 0.02499623
v 0.02216328 0.01704971 0.02517001
v 0.02216328 0.01704971 0.02688470
v 0.02307424 0.01764471 0.02688470
v 0.02375996 0.01784575 0.02639848
v 0.02321823 0.01767656 0.02688470
v 0.02865336 0.01784575 0.02654361
v 0.02803322 0.01784575 0.02654694
v 0.02803322 0.01770488 0.02688470
v 0.02431381 0.01784575 0.02654361
v 0.02388256 0.01770028 0.02688470
v 0.02493395 0.01784575 0.02654694
v 0.02450413 0.01770488 0.02688470
v 0.02431381 0.01770452 0.02688470
v 0.02434517 0.01784575 0.02654379
f 1 2 6
f 1 6 13
f 1 13 20
f 1 20 28
f 1 28 37
f 1 37 42
f 1 42 47
f 1 47 44
f 1 44 40
f 1 40 39
f 1 39 31
f 1 31 23
f 1 23 16
f 1 16 8
f 1 8 3
f 1 3 4
f 1 4 7
f 1 7 2
f 2 5 6
f 2 7 5
f 3 8 9
f 3 9 10
f 3 10 4
f 4 10 9
f 4 9 11
f 4 11 12
f 4 12 17
f 4 17 14
f 4 14 7
f 5 7 14
f 5 14 21
f 5 21 29
f 5 29 33
f 5 33 25
f 5 25 18
f 5 18 13
f 5 13 6
f 8 15 9
f 8 16 15
f 9 15 22
f 9 22 30
f 9 30 41
f 9 41 45
f 9 45 46
f 9 46 43
f 9 43 38
f 9 38 36
f 9 36 27
f 9 27 19
f 9 19 26
f 9 26 35
f 9 35 32
f 9 32 24
f 9 24 17
f 9 17 12
f 9 12 11
f 13 18 19
f 13 19 20
f 14 17 24
f 14 24 21
f 15 16 22
f 16 23 22
f 18 25 19
f 19 25 26
f 19 27 20
f 20 27 28
f 21 24 32
f 21 32 29
f 22 23 30
f 23 31 30
f 25 33 34
f 25 34 35
f 25 35 26
f 27 36 28
f 28 36 38
f 28 38 37
f 29 32 33
f 30 31 39
f 30 39 40
f 30 40 41
f 32 35 33
f 33 35 34
f 37 38 42
f 38 43 42
f 40 44 45
f 40 45 41
f 42 46 47
f 42 43 46
f 44 47 46
f 44 46 45

