# https://github.com/mikedh/trimesh
v 0.01501738 -0.01765314 0.03447045
v 0.01501738 -0.01765314 0.03508938
v 0.01501738 -0.01765170 0.03385043
v 0.02059205 -0.01764094 0.03384898
v 0.02059205 -0.01764094 0.03508830
v 0.02059205 -0.01763950 0.03570795
v 0.01501738 -0.01765098 0.03571121
v 0.01501738 -0.01763305 0.03323005
v 0.01997325 -0.01762802 0.03323005
v 0.02059205 -0.01762659 0.03322897
v 0.02059205 -0.01749959 0.03616736
v 0.01501738 -0.01750390 0.03617315
v 0.01501738 -0.01748740 0.03279633
v 0.02059205 -0.01748740 0.03279633
v 0.02059205 -0.01705045 0.03632833
v 0.01501738 -0.01704901 0.03633810
v 0.01501738 -0.01705045 0.03266429
v 0.02059205 -0.01704901 0.03266574
v 0.02059205 -0.01643054 0.03634027
v 0.01501738 -0.01642982 0.03635076
v 0.01501738 -0.01643269 0.03265525
v 0.02059205 -0.01642982 0.03265923
v 0.02059205 -0.01581135 0.03634099
v 0.01501738 -0.01208759 0.03635076
v 0.01501738 -0.01146696 0.03265561
v 0.01505285 -0.01147127 0.03265561
v 0.02059205 -0.01147127 0.03265923
v 0.02059205 -0.01147199 0.03634099
v 0.01501738 -0.01147127 0.03634823
v 0.01501738 -0.01085064 0.03269432
v 0.02059205 -0.01085064 0.03269649
v 0.02059205 -0.01085279 0.03629216
v 0.01501738 -0.01084921 0.03629397
v 0.01501738 -0.01044813 0.03282671
v 0.02059205 -0.01045746 0.03282708
v 0.01997325 -0.01085064 0.03629216
v 0.02059205 -0.01045028 0.03613118
v 0.01501738 -0.01043952 0.03613118
v 0.01501738 -0.01033836 0.03323005
v 0.02059205 -0.01036777 0.03323005
v 0.02059205 -0.01036060 0.03570976
v 0.01501738 -0.01033190 0.03570976
v 0.01501738 -0.01032401 0.03384681
v 0.02059205 -0.01035916 0.03385043
v 0.02059205 -0.01035916 0.03508938
v 0.01501738 -0.01032329 0.03508938
v 0.01501738 -0.01032329 0.03446683
f 1 2 7
f 1 7 12
f 1 12 16
f 1 16 20
f 1 20 24
f 1 24 29
f 1 29 33
f 1 33 38
f 1 38 42
f 1 42 46
f 1 46 47
f 1 47 43
f 1 43 39
f 1 39 34
f 1 34 30
f 1 30 25
f 1 25 21
f 1 21 17
f 1 17 13
f 1 13 8
f 1 8 3
f 1 3 4
f 1 4 5
f 1 5 2
f 2 5 6
f 2 6 7
f 3 8 9
f 3 9 4
f 4 9 10
f 4 10 14
f 4 14 18
f 4 18 22
f 4 22 27
f 4 27 31
f 4 31 35
f 4 35 40
f 4 40 44
f 4 44 45
f 4 45 41
f 4 41 37
f 4 37 32
f 4 32 28
f 4 28 23
f 4 23 19
f 4 19 15
f 4 15 11
f 4 11 6
f 4 6 5
f 6 11 7
f 7 11 12
f 8 13 14
f 8 14 9
f 9 14 10
f 11 15 16
f 11 16 12
f 13 17 14
f 14 17 18
f 15 19 20
f 15 20 16
f 17 21 18
f 18 21 22
f 19 23 20
f 20 23 28
f 20 28 24
f 21 25 26
f 21 26 27
f 21 27 22
f 24 28 29
f 25 30 31
f 25 31 27
f 25 27 26
f 28 32 29
f 29 32 33
f 30 34 31
f 31 34 35
f 32 36 33
f 32 37 36
f 33 36 38
f 34 39 35
f 35 39 40
f 36 37 38
f 37 41 42
f 37 42 38
f 39 43 40
f 40 43 44
f 41 45 46
f 41 46 42
f 43 47 44
f 44 47 46
f 44 46 45

