# https://github.com/mikedh/trimesh
v 0.02615450 -0.01011354 0.02655579
v 0.02615450 -0.00963419 0.02636182
v 0.02547525 -0.01011354 0.02655579
v 0.02615450 -0.01342705 0.02655579
v 0.02547525 -0.00963419 0.02636182
v 0.02615450 -0.00963419 0.02449805
v 0.02547525 -0.01338546 0.02655579
v 0.02615450 -0.01342705 0.02449805
v 0.02547525 -0.00963419 0.02449805
v 0.02547525 -0.01338546 0.02449805
f 1 2 5
f 1 5 3
f 1 3 7
f 1 7 4
f 1 4 8
f 1 8 6
f 1 6 2
f 2 6 9
f 2 9 5
f 3 5 9
f 3 9 10
f 3 10 7
f 4 7 10
f 4 10 8
f 6 8 10
f 6 10 9

