# https://github.com/mikedh/trimesh
v 0.02213995 -0.01721345 0.02449805
v 0.02216300 -0.01704990 0.02655579
v 0.02215264 -0.01642990 0.02655579
v 0.02213995 -0.01709022 0.02449805
v 0.02227322 -0.01753296 0.02449805
v 0.02239680 -0.01739451 0.02655579
v 0.02215264 -0.01417432 0.02655579
v 0.02215264 -0.01417432 0.02449805
v 0.02232533 -0.01760561 0.02449805
v 0.02246861 -0.01750025 0.02655579
v 0.02510394 -0.01417432 0.02655579
v 0.02510394 -0.01417432 0.02449805
v 0.02241050 -0.01766457 0.02449805
v 0.02361025 -0.01805977 0.02578998
v 0.02369810 -0.01805977 0.02607519
v 0.02378594 -0.01805977 0.02630703
v 0.02307384 -0.01765316 0.02655579
v 0.02555217 -0.01463989 0.02655579
v 0.02555217 -0.01463989 0.02449825
v 0.02555217 -0.01464255 0.02449805
v 0.02333470 -0.01805977 0.02449805
v 0.02431334 -0.01805977 0.02645004
v 0.02369509 -0.01775852 0.02655579
v 0.02555217 -0.01568856 0.02655579
v 0.02555217 -0.01805977 0.02449805
v 0.02493326 -0.01805977 0.02645347
v 0.02431334 -0.01782166 0.02655579
v 0.02554917 -0.01782546 0.02655579
v 0.02555217 -0.01782661 0.02655519
v 0.02555217 -0.01805977 0.02645347
v 0.02492925 -0.01782546 0.02655579
f 1 2 3
f 1 3 7
f 1 7 4
f 1 4 8
f 1 8 12
f 1 12 20
f 1 20 25
f 1 25 21
f 1 21 13
f 1 13 9
f 1 9 5
f 1 5 2
f 2 5 6
f 2 6 10
f 2 10 17
f 2 17 23
f 2 23 27
f 2 27 31
f 2 31 28
f 2 28 24
f 2 24 18
f 2 18 11
f 2 11 7
f 2 7 3
f 4 7 8
f 5 9 10
f 5 10 6
f 7 11 12
f 7 12 8
f 9 13 10
f 10 13 14
f 10 14 15
f 10 15 16
f 10 16 17
f 11 18 19
f 11 19 12
f 12 19 20
f 13 21 14
f 14 21 25
f 14 25 30
f 14 30 26
f 14 26 22
f 14 22 16
f 14 16 15
f 16 22 17
f 17 22 23
f 18 24 29
f 18 29 30
f 18 30 25
f 18 25 20
f 18 20 19
f 22 26 27
f 22 27 23
f 24 28 29
f 26 30 28
f 26 28 31
f 26 31 27
f 28 30 29

