# https://github.com/mikedh/trimesh
v 0.01811015 -0.00117241 0.02347187
v 0.01811015 0.00002073 0.02418241
v 0.01811818 0.00002073 0.02418763
v 0.01828355 0.00002073 0.02429590
v 0.01929988 -0.00117241 0.02436309
v 0.01811015 -0.00117241 0.02702805
v 0.01811015 0.00002073 0.02702805
v 0.01872575 0.00002073 0.02464438
v 0.01929988 -0.00090426 0.02463359
v 0.01929988 -0.00117241 0.02702805
v 0.01886899 0.00002073 0.02702805
v 0.01929988 -0.00068107 0.02506493
v 0.01886899 0.00002073 0.02517006
v 0.01929988 -0.00065572 0.02702805
v 0.01929988 -0.00067277 0.02517006
v 0.01929988 -0.00065572 0.02616712
v 0.01929988 -0.00065607 0.02578974
v 0.01929988 -0.00066121 0.02555754
f 1 2 3
f 1 3 4
f 1 4 5
f 1 5 10
f 1 10 6
f 1 6 7
f 1 7 2
f 2 7 11
f 2 11 13
f 2 13 8
f 2 8 4
f 2 4 3
f 4 8 5
f 5 8 9
f 5 9 12
f 5 12 15
f 5 15 18
f 5 18 17
f 5 17 16
f 5 16 14
f 5 14 10
f 6 10 14
f 6 14 11
f 6 11 7
f 8 12 9
f 8 13 12
f 11 14 16
f 11 16 13
f 12 13 15
f 13 16 17
f 13 17 18
f 13 18 15

