# https://github.com/mikedh/trimesh
v 0.02233381 -0.00016376 0.02702752
v 0.02018775 -0.00016936 0.02702752
v 0.02216254 -0.00098232 0.02702752
v 0.02304732 -0.00280343 0.02633124
v 0.02304732 -0.00093143 0.02635618
v 0.02304732 -0.00016376 0.02636100
v 0.02267983 -0.00001667 0.02256008
v 0.02055583 -0.00001667 0.02448483
v 0.02018775 -0.00016936 0.02578419
v 0.02012011 -0.00052098 0.02467870
v 0.02008180 -0.00275907 0.02702752
v 0.02171841 -0.00173738 0.02702752
v 0.02304732 -0.00338805 0.02599469
v 0.02116281 -0.00228138 0.02702752
v 0.02227575 -0.00381531 0.02617500
v 0.02304732 -0.00217025 0.02255702
v 0.02178866 -0.00001667 0.02275790
v 0.02008180 -0.00278989 0.02255921
v 0.02008180 -0.00198907 0.02285024
v 0.02019617 -0.00017590 0.02514829
v 0.02064843 -0.00259564 0.02702752
v 0.02008180 -0.00462267 0.02602314
v 0.02121390 -0.00441161 0.02616712
v 0.02304732 -0.00353421 0.02516974
v 0.02175063 -0.00414732 0.02603583
v 0.02304732 -0.00278989 0.02258984
v 0.02183336 -0.00340953 0.02257715
v 0.02121390 -0.00340953 0.02255921
v 0.02008180 -0.00340953 0.02255921
v 0.02008180 -0.00478424 0.02522401
v 0.02059385 -0.00457878 0.02600301
v 0.02121390 -0.00449659 0.02578944
v 0.02172944 -0.00427946 0.02516974
v 0.02304732 -0.00353514 0.02455048
v 0.02304732 -0.00330073 0.02280998
v 0.02121390 -0.00422716 0.02277234
v 0.02033783 -0.00402964 0.02257059
v 0.02033783 -0.00454049 0.02279116
v 0.02008180 -0.00478424 0.02331064
v 0.02008180 -0.00478704 0.02393034
v 0.02059385 -0.00470112 0.02516974
v 0.02121390 -0.00451060 0.02516974
v 0.02304732 -0.00353421 0.02391021
v 0.02121390 -0.00451060 0.02331064
v 0.02304732 -0.00351693 0.02331064
v 0.02229143 -0.00382792 0.02287737
v 0.02175847 -0.00415479 0.02302180
v 0.02059385 -0.00470112 0.02331064
f 1 2 11
f 1 11 21
f 1 21 14
f 1 14 12
f 1 12 3
f 1 3 4
f 1 4 5
f 1 5 6
f 1 6 7
f 1 7 8
f 1 8 2
f 2 8 9
f 2 9 10
f 2 10 11
f 3 12 4
f 4 13 24
f 4 24 34
f 4 34 43
f 4 43 45
f 4 45 35
f 4 35 26
f 4 26 16
f 4 16 6
f 4 6 5
f 4 12 14
f 4 14 15
f 4 15 13
f 6 16 7
f 7 17 8
f 7 16 18
f 7 18 17
f 8 17 19
f 8 19 10
f 8 10 20
f 8 20 9
f 9 20 10
f 10 19 11
f 11 19 18
f 11 18 29
f 11 29 39
f 11 39 40
f 11 40 30
f 11 30 22
f 11 22 23
f 11 23 21
f 13 15 24
f 14 21 15
f 15 23 25
f 15 25 24
f 15 21 23
f 16 26 27
f 16 27 28
f 16 28 29
f 16 29 18
f 17 18 19
f 22 30 31
f 22 31 23
f 23 31 32
f 23 32 25
f 24 25 32
f 24 32 33
f 24 33 34
f 26 35 36
f 26 36 27
f 27 36 37
f 27 37 28
f 28 37 29
f 29 37 38
f 29 38 39
f 30 40 41
f 30 41 31
f 31 41 32
f 32 42 33
f 32 41 42
f 33 43 34
f 33 42 44
f 33 44 43
f 35 45 46
f 35 46 36
f 36 46 47
f 36 47 44
f 36 44 38
f 36 38 37
f 38 44 48
f 38 48 39
f 39 48 40
f 40 48 41
f 41 48 44
f 41 44 42
f 43 44 45
f 44 47 45
f 45 47 46

