# https://github.com/mikedh/trimesh
v 0.02580148 -0.00963382 0.02162818
v 0.02580148 -0.00963382 0.01945900
v 0.02430649 -0.00963382 0.02162818
v 0.02580148 -0.01222220 0.02162818
v 0.02580148 -0.01085027 0.01945900
v 0.02493370 -0.00963382 0.01945900
v 0.02430649 -0.00963382 0.01947939
v 0.02430649 -0.01316296 0.02162818
v 0.02580148 -0.01215690 0.02021009
v 0.02580148 -0.01146973 0.01947705
v 0.02431366 -0.01146973 0.01946346
v 0.02493370 -0.01085027 0.01945900
v 0.02431366 -0.01085027 0.01946282
v 0.02431366 -0.00963382 0.01947620
v 0.02430649 -0.01085027 0.01946325
v 0.02430649 -0.01294150 0.02021009
v 0.02580148 -0.01204082 0.01990260
v 0.02580148 -0.01196309 0.01969768
v 0.02430649 -0.01265060 0.01974249
v 0.02430649 -0.01236903 0.01964990
v 0.02430649 -0.01208988 0.01956135
v 0.02430649 -0.01146973 0.01946346
f 1 2 6
f 1 6 14
f 1 14 7
f 1 7 3
f 1 3 8
f 1 8 4
f 1 4 9
f 1 9 17
f 1 17 18
f 1 18 10
f 1 10 5
f 1 5 2
f 2 5 12
f 2 12 6
f 3 7 15
f 3 15 22
f 3 22 21
f 3 21 20
f 3 20 19
f 3 19 16
f 3 16 8
f 4 8 9
f 5 10 11
f 5 11 22
f 5 22 12
f 6 12 13
f 6 13 14
f 7 14 15
f 8 16 9
f 9 16 17
f 10 18 19
f 10 19 20
f 10 20 21
f 10 21 11
f 11 21 22
f 12 22 13
f 13 15 14
f 13 22 15
f 16 19 18
f 16 18 17

