# https://github.com/mikedh/trimesh
v 0.02431338 0.01026166 0.02688557
v 0.02369485 0.01029620 0.02688557
v 0.02579071 0.01026166 0.02688557
v 0.02307381 0.01035947 0.03174897
v 0.02307417 0.01035038 0.02688557
v 0.02579071 0.01337482 0.02688557
v 0.02579071 0.01035911 0.02906327
v 0.02574316 0.01035947 0.03174897
v 0.02251141 0.01044964 0.03174897
v 0.02251427 0.01044964 0.02688557
v 0.02506528 0.01397331 0.02688557
v 0.02506563 0.01397586 0.02906327
v 0.02579071 0.01337482 0.02906327
v 0.02574316 0.01336828 0.03174897
v 0.02229868 0.01069798 0.03174897
v 0.02228008 0.01075652 0.02688557
v 0.02219642 0.01083179 0.03174897
v 0.02215316 0.01397331 0.02688557
v 0.02215280 0.01397586 0.02906327
v 0.02506563 0.01397586 0.03174897
v 0.02220893 0.01085033 0.02688557
v 0.02213850 0.01147028 0.03174897
v 0.02215316 0.01147028 0.02688557
v 0.02213814 0.01397586 0.03174897
v 0.02216603 0.01132556 0.02688557
v 0.02213814 0.01209022 0.03174897
f 1 2 5
f 1 5 10
f 1 10 16
f 1 16 21
f 1 21 25
f 1 25 23
f 1 23 18
f 1 18 11
f 1 11 6
f 1 6 3
f 1 3 8
f 1 8 4
f 1 4 2
f 2 4 5
f 3 6 13
f 3 13 7
f 3 7 8
f 4 8 14
f 4 14 20
f 4 20 24
f 4 24 26
f 4 26 22
f 4 22 17
f 4 17 15
f 4 15 9
f 4 9 5
f 5 9 10
f 6 11 12
f 6 12 20
f 6 20 13
f 7 13 14
f 7 14 8
f 9 15 10
f 10 15 17
f 10 17 16
f 11 18 19
f 11 19 12
f 12 19 24
f 12 24 20
f 13 20 14
f 16 17 21
f 17 22 21
f 18 23 26
f 18 26 24
f 18 24 19
f 21 22 25
f 22 26 23
f 22 23 25

