# https://github.com/mikedh/trimesh
v 0.02803331 -0.01676526 0.01945900
v 0.02741383 -0.01676526 0.01946242
v 0.02803331 -0.01581001 0.01945900
v 0.02865349 -0.01676526 0.01945900
v 0.02580582 -0.01676526 0.01947325
v 0.02803331 -0.01565162 0.01946337
v 0.02865349 -0.01565162 0.01945900
v 0.02905665 -0.01565162 0.01962320
v 0.02919518 -0.01676526 0.01967964
v 0.02580582 -0.01676526 0.02140051
v 0.02580582 -0.01668219 0.01947743
v 0.02741312 -0.01565162 0.01959108
v 0.02580582 -0.01642995 0.01949017
v 0.02580582 -0.01597483 0.01971062
v 0.02919518 -0.01565162 0.01967964
v 0.02943068 -0.01676526 0.02021006
v 0.02580582 -0.01580805 0.02140051
v 0.02943459 -0.01676526 0.02140051
v 0.02694105 -0.01565162 0.01978170
v 0.02580582 -0.01582953 0.02021006
v 0.02943068 -0.01565162 0.02021006
v 0.02943281 -0.01676526 0.02054511
v 0.02670733 -0.01565162 0.02140051
v 0.02674072 -0.01565162 0.02023306
v 0.02674143 -0.01565162 0.02021006
v 0.02943459 -0.01676526 0.02082999
v 0.02943459 -0.01565162 0.02140051
v 0.02943459 -0.01565162 0.02082999
f 1 2 3
f 1 3 7
f 1 7 4
f 1 4 9
f 1 9 16
f 1 16 22
f 1 22 26
f 1 26 18
f 1 18 10
f 1 10 5
f 1 5 2
f 2 5 3
f 3 6 7
f 3 5 6
f 4 7 8
f 4 8 9
f 5 10 17
f 5 17 20
f 5 20 14
f 5 14 13
f 5 13 11
f 5 11 6
f 6 12 19
f 6 19 25
f 6 25 24
f 6 24 23
f 6 23 27
f 6 27 28
f 6 28 21
f 6 21 15
f 6 15 8
f 6 8 7
f 6 11 13
f 6 13 14
f 6 14 12
f 8 15 9
f 9 15 21
f 9 21 16
f 10 18 27
f 10 27 23
f 10 23 17
f 12 14 19
f 14 20 19
f 16 21 22
f 17 23 24
f 17 24 25
f 17 25 20
f 18 26 28
f 18 28 27
f 19 20 25
f 21 28 22
f 22 28 26

