# https://github.com/mikedh/trimesh
v 0.02458562 -0.01676512 0.01946527
v 0.02458562 -0.01670193 0.01946640
v 0.02464893 -0.01676512 0.01946527
v 0.02458562 -0.01676512 0.02016613
v 0.02580582 -0.01676512 0.01947343
v 0.02458562 -0.01642996 0.01947909
v 0.02458730 -0.01676512 0.02177921
v 0.02458562 -0.01668870 0.02177921
v 0.02580582 -0.01668216 0.01947750
v 0.02580582 -0.01676512 0.02177921
v 0.02458562 -0.01602353 0.01958442
v 0.02580582 -0.01642996 0.01949019
v 0.02458562 -0.01534333 0.02177921
v 0.02580582 -0.01568503 0.02177921
v 0.02458562 -0.01582199 0.01967027
v 0.02580582 -0.01597482 0.01971059
v 0.02458562 -0.01536727 0.02149515
v 0.02580582 -0.01582965 0.02021008
v 0.02458562 -0.01550604 0.02021008
f 1 2 3
f 1 3 5
f 1 5 10
f 1 10 7
f 1 7 4
f 1 4 8
f 1 8 13
f 1 13 17
f 1 17 19
f 1 19 15
f 1 15 11
f 1 11 6
f 1 6 2
f 2 5 3
f 2 6 5
f 4 7 8
f 5 6 9
f 5 9 12
f 5 12 16
f 5 16 18
f 5 18 14
f 5 14 10
f 6 11 12
f 6 12 9
f 7 10 14
f 7 14 13
f 7 13 8
f 11 15 12
f 12 15 16
f 13 14 17
f 14 18 17
f 15 19 16
f 16 19 18
f 17 18 19

