# https://github.com/mikedh/trimesh
v 0.02120157 0.01908557 0.01945947
v 0.02120157 0.02078199 0.01945947
v 0.02555331 0.01908557 0.01945947
v 0.02120157 0.01908557 0.02414034
v 0.02120157 0.02139443 0.01947866
v 0.02555331 0.02138951 0.01947678
v 0.02555331 0.02076984 0.01945947
v 0.02599758 0.01908557 0.01946696
v 0.02381917 0.01908557 0.02424049
v 0.02120157 0.02076984 0.02414034
v 0.02120157 0.02187003 0.01969721
v 0.02617280 0.02187003 0.01969721
v 0.02617280 0.02138951 0.01948474
v 0.02617280 0.02076984 0.01947491
v 0.02617280 0.01908557 0.01947164
v 0.02431318 0.01918566 0.02424049
v 0.02120157 0.02138951 0.02412021
v 0.02120157 0.02137765 0.02412068
v 0.02639494 0.01908557 0.02424049
v 0.02120157 0.02187350 0.01970750
v 0.02617280 0.02204100 0.02021060
v 0.02659899 0.02181332 0.01976507
v 0.02665777 0.02138951 0.01969627
v 0.02662555 0.01908557 0.01960969
v 0.02493268 0.01918913 0.02424049
v 0.02120157 0.02186540 0.02386235
v 0.02555331 0.02138951 0.02412021
v 0.02679908 0.01908557 0.02396765
v 0.02665777 0.02138951 0.02386048
v 0.02617280 0.02138951 0.02411086
v 0.02617280 0.01917033 0.02424049
v 0.02120157 0.02204100 0.02021060
v 0.02617280 0.02204100 0.02330918
v 0.02665664 0.02187003 0.02021060
v 0.02683186 0.02138951 0.02021060
v 0.02697317 0.01908557 0.02021060
v 0.02696808 0.01908557 0.02019749
v 0.02676404 0.01908557 0.01967241
v 0.02555331 0.01918913 0.02424049
v 0.02617280 0.02187003 0.02385954
v 0.02120157 0.02204100 0.02330918
v 0.02680360 0.01908557 0.02395501
v 0.02683186 0.02138951 0.02330918
v 0.02659899 0.02181332 0.02377952
v 0.02665664 0.02187003 0.02330918
v 0.02697600 0.01908557 0.02082741
v 0.02697317 0.01908557 0.02330918
v 0.02697600 0.01908557 0.02268956
f 1 2 7
f 1 7 3
f 1 3 8
f 1 8 15
f 1 15 24
f 1 24 38
f 1 38 37
f 1 37 36
f 1 36 46
f 1 46 48
f 1 48 47
f 1 47 42
f 1 42 28
f 1 28 19
f 1 19 9
f 1 9 4
f 1 4 10
f 1 10 18
f 1 18 17
f 1 17 26
f 1 26 41
f 1 41 32
f 1 32 20
f 1 20 11
f 1 11 5
f 1 5 2
f 2 5 6
f 2 6 7
f 3 7 8
f 4 9 10
f 5 11 12
f 5 12 6
f 6 13 7
f 6 12 13
f 7 13 14
f 7 14 8
f 8 14 15
f 9 16 17
f 9 17 18
f 9 18 10
f 9 19 31
f 9 31 39
f 9 39 25
f 9 25 16
f 11 20 12
f 12 21 22
f 12 22 13
f 12 20 21
f 13 22 23
f 13 23 24
f 13 24 14
f 14 24 15
f 16 25 17
f 17 25 39
f 17 39 27
f 17 27 26
f 19 28 29
f 19 29 30
f 19 30 31
f 20 32 21
f 21 33 45
f 21 45 34
f 21 34 22
f 21 32 41
f 21 41 33
f 22 34 35
f 22 35 23
f 23 35 36
f 23 36 37
f 23 37 38
f 23 38 24
f 26 27 40
f 26 40 41
f 27 39 31
f 27 31 30
f 27 30 40
f 28 42 29
f 29 42 43
f 29 43 44
f 29 44 30
f 30 44 40
f 33 41 40
f 33 40 44
f 33 44 45
f 34 45 43
f 34 43 35
f 35 43 48
f 35 48 46
f 35 46 36
f 42 47 43
f 43 47 48
f 43 45 44

