# https://github.com/mikedh/trimesh
v 0.02120238 0.01899752 0.01945947
v 0.02120238 0.01829589 0.01948100
v 0.02120238 0.01899752 0.02414034
v 0.02375681 0.01907378 0.02424049
v 0.02555298 0.01908557 0.01945947
v 0.02490671 0.01707777 0.01945947
v 0.02306059 0.01707777 0.01946696
v 0.02120238 0.01781812 0.01970189
v 0.02120238 0.01828980 0.02411647
v 0.02203559 0.01753943 0.02424049
v 0.02327010 0.01871923 0.02424049
v 0.02639425 0.01908557 0.02424049
v 0.02608481 0.01908557 0.01946930
v 0.02865214 0.01767032 0.01945947
v 0.02865214 0.01707777 0.01945947
v 0.02230554 0.01707777 0.01973933
v 0.02209361 0.01707777 0.02008050
v 0.02120238 0.01765735 0.02020545
v 0.02120238 0.01781654 0.02385065
v 0.02210006 0.01707777 0.02410477
v 0.02943459 0.01707777 0.02424049
v 0.02680118 0.01908557 0.02396157
v 0.02877624 0.01881062 0.02424049
v 0.02669401 0.01908557 0.01964105
v 0.02908728 0.01868012 0.01978472
v 0.02865214 0.01872021 0.01972669
v 0.02865214 0.01828980 0.01950627
v 0.02917189 0.01828980 0.01970329
v 0.02919445 0.01767032 0.01968036
v 0.02918237 0.01707777 0.01967521
v 0.02203962 0.01707777 0.02083069
v 0.02120238 0.01765597 0.02330918
v 0.02203962 0.01707777 0.02330918
v 0.02943459 0.01707777 0.02083069
v 0.02943459 0.01767032 0.02424049
v 0.02697282 0.01908557 0.02330918
v 0.02914933 0.01872021 0.02424049
v 0.02914933 0.01872021 0.02021060
v 0.02865214 0.01884069 0.02021060
v 0.02697040 0.01908557 0.02020405
v 0.02938301 0.01828980 0.02021060
v 0.02943056 0.01767032 0.02021060
v 0.02943056 0.01707777 0.02021060
v 0.02943459 0.01767032 0.02083069
v 0.02938463 0.01828980 0.02424049
v 0.02697524 0.01908557 0.02268956
v 0.02938463 0.01828980 0.02083069
v 0.02697524 0.01908557 0.02082741
f 1 2 8
f 1 8 18
f 1 18 32
f 1 32 19
f 1 19 9
f 1 9 3
f 1 3 4
f 1 4 5
f 1 5 14
f 1 14 15
f 1 15 6
f 1 6 7
f 1 7 2
f 2 7 8
f 3 9 10
f 3 10 11
f 3 11 4
f 4 11 10
f 4 10 21
f 4 21 35
f 4 35 45
f 4 45 37
f 4 37 23
f 4 23 12
f 4 12 5
f 5 12 22
f 5 22 36
f 5 36 46
f 5 46 48
f 5 48 40
f 5 40 24
f 5 24 13
f 5 13 14
f 6 15 30
f 6 30 43
f 6 43 34
f 6 34 21
f 6 21 20
f 6 20 33
f 6 33 31
f 6 31 17
f 6 17 16
f 6 16 7
f 7 16 8
f 8 16 17
f 8 17 18
f 9 19 20
f 9 20 10
f 10 20 21
f 12 23 22
f 13 24 25
f 13 25 26
f 13 26 27
f 13 27 14
f 14 27 28
f 14 28 29
f 14 29 30
f 14 30 15
f 17 31 18
f 18 31 32
f 19 32 20
f 20 32 33
f 21 34 44
f 21 44 35
f 22 23 36
f 23 37 38
f 23 38 39
f 23 39 36
f 24 40 39
f 24 39 25
f 25 27 26
f 25 39 38
f 25 38 41
f 25 41 28
f 25 28 27
f 28 41 42
f 28 42 29
f 29 42 43
f 29 43 30
f 31 33 32
f 34 43 42
f 34 42 44
f 35 44 47
f 35 47 45
f 36 39 46
f 37 45 47
f 37 47 38
f 38 47 41
f 39 48 46
f 39 40 48
f 41 47 44
f 41 44 42

