# https://github.com/mikedh/trimesh
v 0.02304732 0.00031011 0.02636161
v 0.02304732 -0.00001667 0.02636161
v 0.02304732 0.00089821 0.02635769
v 0.02255467 0.00031011 0.02656317
v 0.02255467 -0.00001667 0.02656317
v 0.02304732 -0.00001667 0.02255702
v 0.02304732 0.00134817 0.02635298
v 0.02285340 0.00134817 0.02641768
v 0.02243070 0.00095886 0.02656317
v 0.02029314 -0.00001667 0.02656317
v 0.02276630 -0.00001667 0.02255820
v 0.02203530 0.00134817 0.02255937
v 0.02304732 0.00134817 0.02255702
v 0.02229542 0.00134817 0.02656317
v 0.02243012 0.00096154 0.02656317
v 0.02008180 0.00032160 0.02656317
v 0.02029314 -0.00001667 0.02578986
v 0.02245335 -0.00001667 0.02256173
v 0.02245335 0.00031011 0.02255937
v 0.02183353 0.00134817 0.02256722
v 0.02008180 0.00134817 0.02656317
v 0.02008180 0.00032160 0.02578986
v 0.02029343 -0.00001667 0.02516988
v 0.02183353 0.00092987 0.02258369
v 0.02178883 -0.00001667 0.02275741
v 0.02141549 0.00134817 0.02264643
v 0.02008180 0.00134817 0.02416873
v 0.02008180 0.00033456 0.02517890
v 0.02008180 0.00033496 0.02516988
v 0.02008180 0.00048499 0.02480048
v 0.02032653 -0.00001667 0.02508322
v 0.02082528 0.00134817 0.02296799
v 0.02089089 0.00134817 0.02287936
v 0.02055558 -0.00001667 0.02448480
v 0.02008180 0.00077904 0.02453735
v 0.02008180 0.00061351 0.02464754
v 0.02015786 0.00042754 0.02470833
f 1 2 6
f 1 6 13
f 1 13 7
f 1 7 3
f 1 3 4
f 1 4 5
f 1 5 2
f 2 5 10
f 2 10 17
f 2 17 23
f 2 23 31
f 2 31 34
f 2 34 25
f 2 25 18
f 2 18 11
f 2 11 6
f 3 7 4
f 4 7 8
f 4 8 9
f 4 9 15
f 4 15 14
f 4 14 21
f 4 21 16
f 4 16 10
f 4 10 5
f 6 11 12
f 6 12 13
f 7 13 12
f 7 12 20
f 7 20 26
f 7 26 33
f 7 33 32
f 7 32 27
f 7 27 21
f 7 21 14
f 7 14 8
f 8 14 15
f 8 15 9
f 10 16 22
f 10 22 17
f 11 18 19
f 11 19 12
f 12 19 18
f 12 18 20
f 16 21 27
f 16 27 35
f 16 35 36
f 16 36 30
f 16 30 29
f 16 29 28
f 16 28 22
f 17 22 23
f 18 24 20
f 18 25 24
f 20 24 26
f 22 28 23
f 23 28 29
f 23 29 30
f 23 30 31
f 24 25 26
f 25 32 33
f 25 33 26
f 25 34 32
f 27 32 35
f 30 36 37
f 30 37 34
f 30 34 31
f 32 34 36
f 32 36 35
f 34 37 36

