# https://github.com/mikedh/trimesh
v 0.02215293 0.01355927 0.02180702
v 0.02215293 0.01494511 0.02180702
v 0.02411931 0.01355927 0.02180702
v 0.02215293 0.01355927 0.02424049
v 0.02215293 0.01494511 0.02424049
v 0.02442990 0.01494511 0.02180702
v 0.02567812 0.01494511 0.02221152
v 0.02430980 0.01355927 0.02189730
v 0.02516116 0.01355927 0.02424049
v 0.02567812 0.01494511 0.02424049
v 0.02567812 0.01490225 0.02222915
v 0.02491062 0.01355927 0.02219580
v 0.02473289 0.01355927 0.02210242
v 0.02516116 0.01355927 0.02330736
v 0.02567812 0.01462334 0.02424049
v 0.02567812 0.01476713 0.02228513
v 0.02514391 0.01355927 0.02267702
v 0.02515012 0.01355927 0.02269012
v 0.02567812 0.01463894 0.02269012
v 0.02567812 0.01462334 0.02330998
v 0.02567812 0.01473458 0.02236851
f 1 2 6
f 1 6 3
f 1 3 8
f 1 8 13
f 1 13 12
f 1 12 17
f 1 17 18
f 1 18 14
f 1 14 9
f 1 9 4
f 1 4 5
f 1 5 2
f 2 5 10
f 2 10 7
f 2 7 6
f 3 6 7
f 3 7 8
f 4 9 15
f 4 15 10
f 4 10 5
f 7 10 15
f 7 15 20
f 7 20 19
f 7 19 21
f 7 21 16
f 7 16 11
f 7 11 12
f 7 12 13
f 7 13 8
f 9 14 20
f 9 20 15
f 11 16 12
f 12 16 17
f 14 18 19
f 14 19 20
f 16 21 18
f 16 18 17
f 18 21 19

