# https://github.com/mikedh/trimesh
v 0.01810722 0.00002073 0.02418070
v 0.01810722 0.00145169 0.02299064
v 0.01811828 0.00002073 0.02418782
v 0.01810722 0.00002073 0.02702840
v 0.01929695 0.00145169 0.02405936
v 0.01872573 0.00002073 0.02464432
v 0.01847348 0.00002073 0.02444551
v 0.01828365 0.00002073 0.02429611
v 0.01810722 0.00145169 0.02702840
v 0.01886897 0.00002073 0.02702840
v 0.01929695 0.00089785 0.02464274
v 0.01929695 0.00145169 0.02702840
v 0.01929695 0.00067178 0.02516999
v 0.01886897 0.00002073 0.02516999
v 0.01929695 0.00065469 0.02702840
v 0.01929695 0.00065511 0.02578972
v 0.01929695 0.00065469 0.02640985
f 1 2 3
f 1 3 8
f 1 8 7
f 1 7 6
f 1 6 14
f 1 14 10
f 1 10 4
f 1 4 9
f 1 9 2
f 2 5 6
f 2 6 7
f 2 7 8
f 2 8 3
f 2 9 12
f 2 12 5
f 4 10 15
f 4 15 12
f 4 12 9
f 5 11 6
f 5 12 15
f 5 15 17
f 5 17 16
f 5 16 13
f 5 13 11
f 6 11 13
f 6 13 14
f 10 14 17
f 10 17 15
f 13 16 14
f 14 16 17

