# https://github.com/mikedh/trimesh
v 0.02215292 0.01147010 0.02424049
v 0.02218071 0.01116084 0.02424049
v 0.02215292 0.01147010 0.02688462
v 0.02215292 0.01422936 0.02424049
v 0.02220883 0.01085036 0.02688462
v 0.02220883 0.01085036 0.02424049
v 0.02215292 0.01422936 0.02688462
v 0.02511473 0.01422936 0.02424049
v 0.02228011 0.01075611 0.02688462
v 0.02236120 0.01064963 0.02424049
v 0.02511473 0.01422936 0.02688462
v 0.02549305 0.01337584 0.02424049
v 0.02251423 0.01044849 0.02424049
v 0.02251423 0.01044849 0.02578996
v 0.02251423 0.01044889 0.02640990
v 0.02251423 0.01044971 0.02688462
v 0.02549305 0.01337584 0.02688462
v 0.02549305 0.01006212 0.02424049
v 0.02351284 0.01006212 0.02424049
v 0.02351284 0.01006212 0.02517001
v 0.02307370 0.01035057 0.02688462
v 0.02353049 0.01006212 0.02578115
v 0.02353115 0.01006212 0.02578996
v 0.02369399 0.01006212 0.02630791
v 0.02372113 0.01006212 0.02637418
v 0.02549305 0.01026163 0.02688462
v 0.02549305 0.01006212 0.02652483
v 0.02369431 0.01029631 0.02688462
v 0.02431329 0.01006212 0.02652483
v 0.02431329 0.01026163 0.02688462
f 1 2 3
f 1 3 7
f 1 7 4
f 1 4 8
f 1 8 12
f 1 12 18
f 1 18 19
f 1 19 13
f 1 13 10
f 1 10 6
f 1 6 2
f 2 5 3
f 2 6 5
f 3 5 9
f 3 9 16
f 3 16 21
f 3 21 28
f 3 28 30
f 3 30 26
f 3 26 17
f 3 17 11
f 3 11 7
f 4 7 11
f 4 11 8
f 5 6 9
f 6 10 9
f 8 11 17
f 8 17 12
f 9 10 13
f 9 13 14
f 9 14 15
f 9 15 16
f 12 17 26
f 12 26 27
f 12 27 18
f 13 19 20
f 13 20 14
f 14 20 15
f 15 20 16
f 16 20 22
f 16 22 23
f 16 23 24
f 16 24 25
f 16 25 21
f 18 27 29
f 18 29 25
f 18 25 24
f 18 24 23
f 18 23 22
f 18 22 20
f 18 20 19
f 21 25 29
f 21 29 28
f 26 30 29
f 26 29 27
f 28 29 30

