# https://github.com/mikedh/trimesh
v 0.00865259 0.00959954 0.03323003
v 0.00916155 0.00959954 0.03250465
v 0.00865259 0.00959954 0.03508975
v 0.00865259 0.01704925 0.03650360
v 0.00865695 0.01673891 0.03338541
v 0.00916155 0.01611910 0.03250749
v 0.01005425 0.00959954 0.03235900
v 0.00912168 0.00959954 0.03611170
v 0.00868747 0.01182388 0.03650360
v 0.00911856 0.01814394 0.03650360
v 0.00890489 0.01816014 0.03508975
v 0.00918771 0.01793591 0.03324504
v 0.00918958 0.01729734 0.03268477
v 0.01005425 0.01704925 0.03247746
v 0.01005425 0.01611910 0.03236346
v 0.01315286 0.00959954 0.03235900
v 0.01315286 0.00959954 0.03629102
v 0.01005425 0.01074794 0.03650360
v 0.00918398 0.01087753 0.03650360
v 0.01355841 0.01828632 0.03650360
v 0.01315286 0.01830848 0.03416029
v 0.00911607 0.01810728 0.03416029
v 0.01387736 0.01807744 0.03346615
v 0.01330798 0.01748405 0.03275861
v 0.01346309 0.01611910 0.03236793
v 0.01399573 0.00959954 0.03253832
v 0.01377271 0.01116059 0.03236833
v 0.01402189 0.00959954 0.03610074
v 0.01404681 0.01084769 0.03650360
v 0.01316470 0.01074794 0.03650360
v 0.01462242 0.01741585 0.03644153
v 0.01501676 0.01765201 0.03539970
v 0.01422684 0.01813030 0.03570925
v 0.01400009 0.01821982 0.03477979
v 0.01455452 0.01270628 0.03650360
v 0.01501676 0.01755993 0.03301339
v 0.01501676 0.01673806 0.03266003
v 0.01434521 0.00959954 0.03354039
v 0.01501676 0.01147092 0.03265516
v 0.01501676 0.01062091 0.03286206
v 0.01501676 0.01580962 0.03265516
v 0.01434521 0.00959954 0.03510111
v 0.01501676 0.01061835 0.03610724
v 0.01477318 0.01178125 0.03642652
v 0.01478564 0.01643114 0.03642692
v 0.01501676 0.01765201 0.03415664
v 0.01501676 0.01032422 0.03385034
v 0.01501676 0.01032422 0.03509340
f 1 2 7
f 1 7 16
f 1 16 26
f 1 26 38
f 1 38 42
f 1 42 28
f 1 28 17
f 1 17 8
f 1 8 3
f 1 3 4
f 1 4 5
f 1 5 6
f 1 6 2
f 2 6 7
f 3 8 9
f 3 9 4
f 4 10 11
f 4 11 5
f 4 9 19
f 4 19 18
f 4 18 30
f 4 30 29
f 4 29 35
f 4 35 20
f 4 20 10
f 5 11 12
f 5 12 13
f 5 13 6
f 6 13 14
f 6 14 15
f 6 15 7
f 7 15 16
f 8 17 18
f 8 18 19
f 8 19 9
f 10 20 11
f 11 20 21
f 11 21 22
f 11 22 12
f 12 22 21
f 12 21 23
f 12 23 24
f 12 24 13
f 13 24 14
f 14 24 25
f 14 25 15
f 15 25 16
f 16 25 27
f 16 27 26
f 17 28 29
f 17 29 30
f 17 30 18
f 20 31 32
f 20 32 33
f 20 33 34
f 20 34 21
f 20 35 31
f 21 34 23
f 23 36 24
f 23 34 36
f 24 37 25
f 24 36 37
f 25 37 27
f 26 27 39
f 26 39 40
f 26 40 38
f 27 37 41
f 27 41 39
f 28 42 43
f 28 43 29
f 29 43 44
f 29 44 35
f 31 45 32
f 31 35 45
f 32 46 33
f 32 45 43
f 32 43 48
f 32 48 47
f 32 47 40
f 32 40 39
f 32 39 41
f 32 41 37
f 32 37 36
f 32 36 46
f 33 46 34
f 34 46 36
f 35 44 45
f 38 40 47
f 38 47 48
f 38 48 42
f 42 48 43
f 43 45 44

