# https://github.com/mikedh/trimesh
v 0.02215296 0.01397339 0.02688557
v 0.02506512 0.01397339 0.02688557
v 0.02215296 0.01397339 0.02906327
v 0.02213814 0.01397632 0.03174897
v 0.02215296 0.01642944 0.02688557
v 0.02582974 0.01460275 0.02688557
v 0.02506512 0.01397339 0.02906327
v 0.02506584 0.01397632 0.03174897
v 0.02213814 0.01580995 0.03174897
v 0.02216055 0.01690429 0.02688557
v 0.02213850 0.01642981 0.03174897
v 0.02582974 0.01770495 0.02688557
v 0.02582974 0.01460275 0.02906327
v 0.02574338 0.01461480 0.03174897
v 0.02216308 0.01704930 0.02688557
v 0.02215440 0.01704966 0.03174897
v 0.02450357 0.01770495 0.02688557
v 0.02574338 0.01764030 0.03174897
v 0.02582974 0.01764066 0.02906327
v 0.02239723 0.01739484 0.02688557
v 0.02230220 0.01730024 0.03174897
v 0.02242687 0.01748469 0.03174897
v 0.02431314 0.01770458 0.02688557
v 0.02307405 0.01764030 0.03174897
v 0.02246878 0.01750004 0.02688557
v 0.02246878 0.01750004 0.03136952
v 0.02388313 0.01770020 0.02688557
v 0.02321823 0.01767609 0.02688557
v 0.02307369 0.01764468 0.02688557
v 0.02261043 0.01753693 0.02688557
f 1 2 7
f 1 7 3
f 1 3 4
f 1 4 9
f 1 9 5
f 1 5 10
f 1 10 15
f 1 15 20
f 1 20 25
f 1 25 30
f 1 30 29
f 1 29 28
f 1 28 27
f 1 27 23
f 1 23 17
f 1 17 12
f 1 12 6
f 1 6 2
f 2 6 13
f 2 13 7
f 3 7 8
f 3 8 4
f 4 8 14
f 4 14 18
f 4 18 24
f 4 24 22
f 4 22 21
f 4 21 16
f 4 16 11
f 4 11 9
f 5 9 11
f 5 11 10
f 6 12 19
f 6 19 13
f 7 13 8
f 8 13 14
f 10 11 15
f 11 16 15
f 12 17 24
f 12 24 18
f 12 18 19
f 13 19 18
f 13 18 14
f 15 16 21
f 15 21 22
f 15 22 20
f 17 23 24
f 20 22 25
f 22 24 26
f 22 26 25
f 23 27 24
f 24 27 28
f 24 28 29
f 24 29 26
f 25 26 30
f 26 29 30

