# https://github.com/mikedh/trimesh
v 0.00865259 -0.00959979 0.03323001
v 0.00888443 -0.00959979 0.03265421
v 0.00865259 -0.00959979 0.03508980
v 0.00865259 0.00001448 0.03323001
v 0.00888833 -0.00959979 0.03264459
v 0.00888833 0.00001448 0.03264459
v 0.00869049 -0.00959979 0.03570986
v 0.00865259 0.00001448 0.03508980
v 0.00943392 -0.00959979 0.03236439
v 0.00943392 0.00001448 0.03236439
v 0.00892622 -0.00959979 0.03615518
v 0.00869049 0.00001448 0.03570986
v 0.01005363 -0.00959979 0.03235900
v 0.00972929 0.00001448 0.03236169
v 0.00893458 -0.00959979 0.03615749
v 0.00892622 0.00001448 0.03615518
v 0.01315332 -0.00959979 0.03235900
v 0.01005363 0.00001448 0.03235900
v 0.00943392 -0.00959979 0.03629105
v 0.00919205 0.00001448 0.03622639
v 0.01376300 -0.00959979 0.03239595
v 0.01315332 0.00001448 0.03235900
v 0.01315332 -0.00959979 0.03629105
v 0.00943392 0.00001448 0.03629066
v 0.01377304 -0.00959979 0.03239672
v 0.01377304 0.00001448 0.03239672
v 0.01377304 -0.00959979 0.03627642
v 0.01377304 0.00001448 0.03627642
v 0.01347767 0.00001448 0.03628335
v 0.01315332 0.00001448 0.03629066
v 0.01420717 -0.00959979 0.03267230
v 0.01398091 0.00001448 0.03253028
v 0.01421441 -0.00959979 0.03267692
v 0.01420605 -0.00959979 0.03614056
v 0.01399707 0.00001448 0.03620522
v 0.01420884 0.00001448 0.03267692
v 0.01434538 -0.00959979 0.03323001
v 0.01420828 -0.00959979 0.03613363
v 0.01420048 0.00001448 0.03614056
v 0.01433423 0.00001448 0.03323001
v 0.01434538 -0.00959979 0.03508980
v 0.01433702 -0.00959979 0.03570986
v 0.01432643 0.00001448 0.03570986
v 0.01433423 0.00001448 0.03508980
f 1 2 5
f 1 5 9
f 1 9 13
f 1 13 17
f 1 17 21
f 1 21 25
f 1 25 31
f 1 31 33
f 1 33 37
f 1 37 41
f 1 41 42
f 1 42 38
f 1 38 34
f 1 34 27
f 1 27 23
f 1 23 19
f 1 19 15
f 1 15 11
f 1 11 7
f 1 7 3
f 1 3 8
f 1 8 4
f 1 4 2
f 2 4 6
f 2 6 5
f 3 7 12
f 3 12 8
f 4 8 12
f 4 12 16
f 4 16 20
f 4 20 24
f 4 24 30
f 4 30 29
f 4 29 28
f 4 28 35
f 4 35 39
f 4 39 43
f 4 43 44
f 4 44 40
f 4 40 36
f 4 36 32
f 4 32 26
f 4 26 22
f 4 22 18
f 4 18 14
f 4 14 10
f 4 10 6
f 5 6 10
f 5 10 9
f 7 11 16
f 7 16 12
f 9 10 14
f 9 14 13
f 11 15 16
f 13 14 18
f 13 18 22
f 13 22 17
f 15 19 20
f 15 20 16
f 17 22 21
f 19 23 30
f 19 30 24
f 19 24 20
f 21 22 26
f 21 26 25
f 23 27 28
f 23 28 29
f 23 29 30
f 25 26 31
f 26 32 33
f 26 33 31
f 27 34 28
f 28 34 35
f 32 36 33
f 33 36 37
f 34 38 39
f 34 39 35
f 36 40 37
f 37 40 44
f 37 44 41
f 38 42 39
f 39 42 43
f 41 44 43
f 41 43 42

