# https://github.com/mikedh/trimesh
v 0.02865344 -0.01565162 0.01945900
v 0.02803381 -0.01565162 0.01946337
v 0.02865344 -0.01457005 0.01945900
v 0.02905683 -0.01565162 0.01962320
v 0.02803381 -0.01518991 0.01947591
v 0.02865344 -0.01396521 0.01946831
v 0.02741310 -0.01565162 0.01959108
v 0.02919512 -0.01396521 0.01967964
v 0.02919512 -0.01565162 0.01967964
v 0.02797934 -0.01396521 0.01971955
v 0.02694084 -0.01565162 0.01978170
v 0.02920099 -0.01396521 0.01969257
v 0.02937052 -0.01565162 0.02007456
v 0.02772839 -0.01396521 0.02007874
v 0.02674141 -0.01565162 0.02021006
v 0.02943058 -0.01396521 0.02021006
v 0.02943058 -0.01565162 0.02021006
v 0.02763015 -0.01396521 0.02140051
v 0.02674061 -0.01565162 0.02023306
v 0.02943085 -0.01396521 0.02022526
v 0.02943352 -0.01565162 0.02067149
v 0.02670724 -0.01565162 0.02140051
v 0.02943432 -0.01396521 0.02140051
v 0.02943432 -0.01396521 0.02082999
v 0.02943432 -0.01565162 0.02082999
v 0.02943432 -0.01565162 0.02140051
f 1 2 3
f 1 3 4
f 1 4 9
f 1 9 13
f 1 13 17
f 1 17 21
f 1 21 25
f 1 25 26
f 1 26 22
f 1 22 19
f 1 19 15
f 1 15 11
f 1 11 7
f 1 7 2
f 2 5 6
f 2 6 3
f 2 7 5
f 3 6 8
f 3 8 4
f 4 8 9
f 5 7 6
f 6 7 10
f 6 10 14
f 6 14 18
f 6 18 23
f 6 23 24
f 6 24 20
f 6 20 16
f 6 16 12
f 6 12 8
f 7 11 10
f 8 12 9
f 9 12 13
f 10 11 14
f 11 15 14
f 12 16 13
f 13 16 17
f 14 15 18
f 15 19 18
f 16 20 17
f 17 20 21
f 18 19 22
f 18 22 26
f 18 26 23
f 20 24 21
f 21 24 25
f 23 26 25
f 23 25 24

