# https://github.com/mikedh/trimesh
v 0.02549305 0.01006171 0.02652484
v 0.02431366 0.01006171 0.02652484
v 0.02549305 0.00940174 0.02634884
v 0.02549305 0.01006171 0.02424071
v 0.02372106 0.01006171 0.02637434
v 0.02431366 0.00940174 0.02634884
v 0.02549305 0.00940174 0.02424071
v 0.02351286 0.01006171 0.02424071
v 0.02369392 0.01006171 0.02630792
v 0.02368074 0.00940174 0.02578978
v 0.02385830 0.00940174 0.02622428
v 0.02416110 0.00940174 0.02630837
v 0.02364856 0.00940174 0.02424071
v 0.02351286 0.01006171 0.02517011
v 0.02353108 0.01006171 0.02578978
v 0.02353050 0.01006171 0.02578128
v 0.02364856 0.00940174 0.02517011
f 1 2 6
f 1 6 3
f 1 3 7
f 1 7 4
f 1 4 8
f 1 8 14
f 1 14 16
f 1 16 15
f 1 15 9
f 1 9 5
f 1 5 2
f 2 5 6
f 3 6 12
f 3 12 11
f 3 11 10
f 3 10 17
f 3 17 13
f 3 13 7
f 4 7 13
f 4 13 8
f 5 9 10
f 5 10 11
f 5 11 12
f 5 12 6
f 8 13 17
f 8 17 14
f 9 15 10
f 10 15 16
f 10 16 17
f 14 17 16

