# https://github.com/mikedh/trimesh
v 0.02943459 -0.01401292 0.03186903
v 0.02943421 -0.01400612 0.03508881
v 0.02943459 -0.01642909 0.03186903
v 0.02943459 -0.01399897 0.02703071
v 0.02943421 -0.01642873 0.03508881
v 0.02941001 -0.01400612 0.03570944
v 0.02939943 -0.01704994 0.03508881
v 0.02943459 -0.01642945 0.02765042
v 0.02943459 -0.01581110 0.02703071
v 0.02649677 -0.01399897 0.02703071
v 0.02649753 -0.01399897 0.03174874
v 0.02917487 -0.01400612 0.03617969
v 0.02941001 -0.01642873 0.03570944
v 0.02938695 -0.01704994 0.03570944
v 0.02916353 -0.01749913 0.03570944
v 0.02916428 -0.01749984 0.03508881
v 0.02916353 -0.01750557 0.02703071
v 0.02939943 -0.01704994 0.02703071
v 0.02943421 -0.01643016 0.02703071
v 0.02575617 -0.01461302 0.02703071
v 0.02557244 -0.01463877 0.03265552
v 0.02649677 -0.01399897 0.02750370
v 0.02557244 -0.01463877 0.03508881
v 0.02649828 -0.01400612 0.03508881
v 0.02652172 -0.01400612 0.03572311
v 0.02682151 -0.01400612 0.03618243
v 0.02738292 -0.01400612 0.03633371
v 0.02865316 -0.01400612 0.03634100
v 0.02917487 -0.01642873 0.03617969
v 0.02916882 -0.01704994 0.03617422
v 0.02909661 -0.01745228 0.03611772
v 0.02865316 -0.01763968 0.03570944
v 0.02865316 -0.01764075 0.03508881
v 0.02865316 -0.01765255 0.02703071
v 0.02575617 -0.01765255 0.02703071
v 0.02557244 -0.01764075 0.03265552
v 0.02557244 -0.01465379 0.03570944
v 0.02557244 -0.01477324 0.03610496
v 0.02557244 -0.01519060 0.03627265
v 0.02557244 -0.01581110 0.03634100
v 0.02865316 -0.01642873 0.03634100
v 0.02865316 -0.01704994 0.03632824
v 0.02865316 -0.01749841 0.03616784
v 0.02557244 -0.01763968 0.03570944
v 0.02557244 -0.01764075 0.03508881
v 0.02557244 -0.01642873 0.03634100
v 0.02557244 -0.01704994 0.03632824
v 0.02557244 -0.01749841 0.03616784
f 1 2 5
f 1 5 3
f 1 3 8
f 1 8 9
f 1 9 4
f 1 4 2
f 2 4 6
f 2 6 13
f 2 13 5
f 3 5 7
f 3 7 8
f 4 9 19
f 4 19 18
f 4 18 17
f 4 17 34
f 4 34 35
f 4 35 20
f 4 20 10
f 4 10 22
f 4 22 11
f 4 11 12
f 4 12 6
f 5 13 14
f 5 14 7
f 6 12 29
f 6 29 13
f 7 14 15
f 7 15 16
f 7 16 17
f 7 17 18
f 7 18 8
f 8 18 19
f 8 19 9
f 10 20 21
f 10 21 23
f 10 23 22
f 11 22 23
f 11 23 24
f 11 24 25
f 11 25 26
f 11 26 27
f 11 27 28
f 11 28 12
f 12 28 41
f 12 41 29
f 13 29 30
f 13 30 14
f 14 30 31
f 14 31 15
f 15 31 32
f 15 32 33
f 15 33 16
f 16 33 34
f 16 34 17
f 20 35 36
f 20 36 21
f 21 36 45
f 21 45 44
f 21 44 48
f 21 48 47
f 21 47 46
f 21 46 40
f 21 40 39
f 21 39 38
f 21 38 37
f 21 37 23
f 23 37 24
f 24 37 25
f 25 37 38
f 25 38 26
f 26 39 27
f 26 38 39
f 27 40 28
f 27 39 40
f 28 40 46
f 28 46 41
f 29 41 30
f 30 41 42
f 30 42 31
f 31 43 32
f 31 42 43
f 32 44 45
f 32 45 33
f 32 43 48
f 32 48 44
f 33 45 35
f 33 35 34
f 35 45 36
f 41 46 47
f 41 47 42
f 42 47 48
f 42 48 43

