# https://github.com/mikedh/trimesh
v 0.02842619 -0.01248299 0.01945900
v 0.02865335 -0.01248299 0.01945900
v 0.02865335 -0.01271007 0.01945900
v 0.02865335 -0.01396520 0.01946834
v 0.02803370 -0.01248299 0.01946548
v 0.02919520 -0.01248299 0.01967950
v 0.02919520 -0.01396520 0.01967950
v 0.02803370 -0.01271007 0.01946910
v 0.02797934 -0.01396520 0.01971952
v 0.02719237 -0.01248299 0.01969036
v 0.02780653 -0.01248299 0.01948702
v 0.02943060 -0.01248299 0.02021008
v 0.02943060 -0.01396520 0.02021008
v 0.02772849 -0.01396520 0.02007877
v 0.02771627 -0.01372434 0.01988609
v 0.02704275 -0.01248299 0.01982434
v 0.02943459 -0.01248299 0.02082984
v 0.02943085 -0.01396520 0.02022532
v 0.02762824 -0.01396520 0.02140597
v 0.02692456 -0.01248299 0.02021008
v 0.02703552 -0.01248299 0.01983482
v 0.02943459 -0.01248299 0.02140597
v 0.02943459 -0.01396520 0.02082984
v 0.02688715 -0.01248299 0.02140597
v 0.02689239 -0.01248299 0.02082984
v 0.02929046 -0.01396520 0.02140597
v 0.02943459 -0.01396404 0.02140597
v 0.02943459 -0.01396520 0.02084509
f 1 2 3
f 1 3 4
f 1 4 5
f 1 5 11
f 1 11 10
f 1 10 16
f 1 16 21
f 1 21 20
f 1 20 25
f 1 25 24
f 1 24 22
f 1 22 17
f 1 17 12
f 1 12 6
f 1 6 2
f 2 6 7
f 2 7 3
f 3 7 4
f 4 8 5
f 4 7 13
f 4 13 18
f 4 18 23
f 4 23 28
f 4 28 26
f 4 26 19
f 4 19 14
f 4 14 9
f 4 9 10
f 4 10 11
f 4 11 8
f 5 8 11
f 6 12 13
f 6 13 7
f 9 14 15
f 9 15 16
f 9 16 10
f 12 17 18
f 12 18 13
f 14 19 20
f 14 20 21
f 14 21 15
f 15 21 16
f 17 22 27
f 17 27 28
f 17 28 23
f 17 23 18
f 19 24 25
f 19 25 20
f 19 26 27
f 19 27 22
f 19 22 24
f 26 28 27

