# https://github.com/mikedh/trimesh
v 0.00865259 0.01024834 0.04253043
v 0.00865259 0.01024834 0.04376938
v 0.00865259 0.01209010 0.04004555
v 0.00880165 0.01024834 0.04167853
v 0.00865648 0.01024834 0.04438935
v 0.00865259 0.01704979 0.04376938
v 0.00908252 0.01131458 0.04004555
v 0.00865259 0.01704979 0.04004555
v 0.00943403 0.01024834 0.04129597
v 0.00916762 0.01024834 0.04503177
v 0.00877439 0.01580927 0.04465470
v 0.00877606 0.01642953 0.04465270
v 0.00880888 0.01704979 0.04462527
v 0.00870431 0.01766925 0.04376938
v 0.01339908 0.01116328 0.04004555
v 0.00878663 0.01791324 0.04004555
v 0.01315325 0.01024834 0.04129597
v 0.01315325 0.01024834 0.04514100
v 0.00943403 0.01580927 0.04514100
v 0.00943403 0.01642953 0.04513202
v 0.00932891 0.01726922 0.04490708
v 0.00890343 0.01767004 0.04438436
v 0.00932113 0.01805503 0.04412400
v 0.00878719 0.01791403 0.04283967
v 0.01427174 0.01178829 0.04004555
v 0.01415661 0.01024834 0.04164461
v 0.00943403 0.01834100 0.04004555
v 0.01399198 0.01024834 0.04498389
v 0.01399086 0.01580927 0.04498738
v 0.01315325 0.01580927 0.04514100
v 0.01315325 0.01642953 0.04513202
v 0.01315325 0.01728189 0.04491655
v 0.01315325 0.01794809 0.04437738
v 0.01315325 0.01824753 0.04376938
v 0.00943403 0.01833862 0.04283967
v 0.01433459 0.01024834 0.04253043
v 0.01433459 0.01766925 0.04004555
v 0.01315325 0.01834100 0.04004555
v 0.01433459 0.01024834 0.04438935
v 0.01399086 0.01642953 0.04498239
v 0.01433459 0.01642953 0.04438935
v 0.01414548 0.01715752 0.04462028
v 0.01397307 0.01779679 0.04432601
v 0.01315325 0.01833862 0.04283967
v 0.01399086 0.01821901 0.04283967
v 0.01399086 0.01822059 0.04004555
v 0.01433459 0.01766925 0.04314940
v 0.01433459 0.01704979 0.04376938
f 1 2 6
f 1 6 8
f 1 8 3
f 1 3 4
f 1 4 9
f 1 9 17
f 1 17 26
f 1 26 36
f 1 36 39
f 1 39 28
f 1 28 18
f 1 18 10
f 1 10 5
f 1 5 2
f 2 5 6
f 3 7 4
f 3 8 16
f 3 16 27
f 3 27 38
f 3 38 46
f 3 46 37
f 3 37 25
f 3 25 15
f 3 15 7
f 4 7 9
f 5 10 11
f 5 11 12
f 5 12 6
f 6 13 14
f 6 14 8
f 6 12 13
f 7 15 9
f 8 14 16
f 9 15 17
f 10 18 19
f 10 19 20
f 10 20 12
f 10 12 11
f 12 20 13
f 13 21 22
f 13 22 14
f 13 20 21
f 14 22 23
f 14 23 24
f 14 24 16
f 15 25 26
f 15 26 17
f 16 24 27
f 18 28 29
f 18 29 30
f 18 30 19
f 19 30 31
f 19 31 20
f 20 31 32
f 20 32 21
f 21 32 33
f 21 33 23
f 21 23 22
f 23 33 34
f 23 34 35
f 23 35 24
f 24 35 27
f 25 36 26
f 25 37 36
f 27 35 44
f 27 44 38
f 28 39 29
f 29 40 30
f 29 39 41
f 29 41 40
f 30 40 31
f 31 40 32
f 32 42 43
f 32 43 33
f 32 40 42
f 33 43 34
f 34 44 35
f 34 43 45
f 34 45 44
f 36 37 47
f 36 47 48
f 36 48 41
f 36 41 39
f 37 46 47
f 38 44 45
f 38 45 46
f 40 41 42
f 41 48 42
f 42 48 47
f 42 47 43
f 43 47 45
f 45 47 46

