# https://github.com/mikedh/trimesh
v 0.02304732 0.00134817 0.02255702
v 0.02193438 0.00134817 0.02256330
v 0.02008180 0.00340960 0.02255937
v 0.02304732 0.00218331 0.02255741
v 0.02304732 0.00214427 0.02634396
v 0.02295008 0.00139294 0.02638474
v 0.02008180 0.00134817 0.02656317
v 0.02141565 0.00134817 0.02264643
v 0.02008180 0.00273604 0.02256879
v 0.02008180 0.00397579 0.02256133
v 0.02121390 0.00340960 0.02255937
v 0.02183336 0.00340960 0.02257741
v 0.02304732 0.00280471 0.02259349
v 0.02304732 0.00279057 0.02633376
v 0.02219157 0.00151513 0.02656317
v 0.02032534 0.00289997 0.02656317
v 0.02008180 0.00463085 0.02600476
v 0.02008180 0.00134817 0.02416913
v 0.02085830 0.00134817 0.02292368
v 0.02008180 0.00196653 0.02285976
v 0.02008180 0.00451774 0.02276486
v 0.02059385 0.00402999 0.02257741
v 0.02121390 0.00422758 0.02277231
v 0.02304732 0.00330896 0.02282721
v 0.02227575 0.00381590 0.02617534
v 0.02121390 0.00422085 0.02622749
v 0.02112972 0.00269968 0.02656317
v 0.02177327 0.00211128 0.02656317
v 0.02304732 0.00338402 0.02600162
v 0.02033783 0.00402999 0.02633886
v 0.02059385 0.00457901 0.02600319
v 0.02008180 0.00478704 0.02516949
v 0.02008180 0.00476852 0.02326563
v 0.02059385 0.00452044 0.02279780
v 0.02229143 0.00382869 0.02287662
v 0.02304732 0.00351665 0.02331033
v 0.02304732 0.00353348 0.02518909
v 0.02175063 0.00414747 0.02603613
v 0.02121390 0.00449687 0.02578947
v 0.02059385 0.00470120 0.02516949
v 0.02008180 0.00478704 0.02382208
v 0.02059385 0.00470120 0.02331033
v 0.02121390 0.00451034 0.02331033
v 0.02175847 0.00415521 0.02302171
v 0.02304732 0.00353516 0.02393070
v 0.02304732 0.00353516 0.02459068
v 0.02172944 0.00427976 0.02516949
v 0.02121390 0.00451034 0.02516949
f 1 2 3
f 1 3 4
f 1 4 13
f 1 13 24
f 1 24 36
f 1 36 45
f 1 45 46
f 1 46 37
f 1 37 29
f 1 29 14
f 1 14 5
f 1 5 6
f 1 6 7
f 1 7 18
f 1 18 19
f 1 19 8
f 1 8 2
f 2 8 9
f 2 9 3
f 3 9 20
f 3 20 18
f 3 18 7
f 3 7 17
f 3 17 32
f 3 32 41
f 3 41 33
f 3 33 21
f 3 21 10
f 3 10 11
f 3 11 4
f 4 11 12
f 4 12 13
f 5 14 6
f 6 14 15
f 6 15 7
f 7 15 28
f 7 28 27
f 7 27 16
f 7 16 17
f 8 19 20
f 8 20 9
f 10 21 22
f 10 22 11
f 11 22 12
f 12 22 23
f 12 23 13
f 13 23 24
f 14 25 26
f 14 26 27
f 14 27 28
f 14 28 15
f 14 29 25
f 16 30 17
f 16 27 30
f 17 31 32
f 17 30 26
f 17 26 31
f 18 20 19
f 21 33 34
f 21 34 22
f 22 34 23
f 23 34 35
f 23 35 24
f 24 35 36
f 25 29 37
f 25 37 38
f 25 38 26
f 26 38 39
f 26 39 31
f 26 30 27
f 31 39 40
f 31 40 32
f 32 40 42
f 32 42 41
f 33 41 42
f 33 42 34
f 34 42 43
f 34 43 44
f 34 44 35
f 35 44 36
f 36 44 43
f 36 43 45
f 37 39 38
f 37 46 47
f 37 47 39
f 39 47 48
f 39 48 40
f 40 48 43
f 40 43 42
f 43 48 47
f 43 47 45
f 45 47 46

