# https://github.com/mikedh/trimesh
v 0.01315518 0.01891082 0.01945946
v 0.01315518 0.02076996 0.01945946
v 0.02120069 0.01891082 0.01945946
v 0.02120069 0.01829612 0.01948100
v 0.01315518 0.01829054 0.01948145
v 0.01253520 0.01891082 0.01961068
v 0.01315518 0.02138981 0.01947687
v 0.02120069 0.02078198 0.01945946
v 0.01253520 0.02076996 0.01961068
v 0.02120069 0.01781793 0.01970187
v 0.01315518 0.01781964 0.01970187
v 0.01235895 0.01809823 0.01985997
v 0.01235895 0.02158384 0.01985906
v 0.01315518 0.02187015 0.01969729
v 0.02120069 0.02139453 0.01947871
v 0.02120069 0.01765566 0.02021054
v 0.01315518 0.01765910 0.02021054
v 0.01253520 0.01776856 0.02021054
v 0.01218359 0.01811412 0.02350173
v 0.01215259 0.01891082 0.02021054
v 0.01218359 0.02156710 0.02350173
v 0.01253520 0.02192424 0.02021054
v 0.01315518 0.02204100 0.02021054
v 0.02120069 0.02204100 0.02021054
v 0.02120069 0.02187144 0.01970233
v 0.02120069 0.01765566 0.02330927
v 0.01315518 0.01765910 0.02330927
v 0.01253520 0.01776856 0.02330927
v 0.01217119 0.01891082 0.02350906
v 0.01253520 0.01808235 0.02386971
v 0.01253520 0.01891082 0.02396915
v 0.01253520 0.02076996 0.02396915
v 0.01253520 0.02160058 0.02387154
v 0.01253520 0.02192424 0.02330927
v 0.01315518 0.02204100 0.02330927
v 0.02120069 0.02204100 0.02330927
v 0.02120069 0.01781793 0.02385596
v 0.01315518 0.01781964 0.02385596
v 0.01315518 0.01829054 0.02411671
v 0.01315518 0.01891082 0.02414100
v 0.01315518 0.02076996 0.02414100
v 0.01315518 0.02138981 0.02411992
v 0.01315518 0.02187015 0.02385963
v 0.02120069 0.02186543 0.02386238
v 0.02120069 0.01829054 0.02411671
v 0.02120069 0.01891082 0.02414100
v 0.02120069 0.02076996 0.02414100
v 0.02120069 0.02138337 0.02412038
f 1 2 8
f 1 8 3
f 1 3 4
f 1 4 5
f 1 5 6
f 1 6 9
f 1 9 2
f 2 7 8
f 2 9 7
f 3 8 15
f 3 15 25
f 3 25 24
f 3 24 36
f 3 36 44
f 3 44 48
f 3 48 47
f 3 47 46
f 3 46 45
f 3 45 37
f 3 37 26
f 3 26 16
f 3 16 10
f 3 10 4
f 4 10 5
f 5 10 11
f 5 11 12
f 5 12 6
f 6 12 13
f 6 13 9
f 7 14 15
f 7 15 8
f 7 9 13
f 7 13 14
f 10 16 11
f 11 16 17
f 11 17 18
f 11 18 12
f 12 19 20
f 12 20 13
f 12 18 19
f 13 20 21
f 13 21 22
f 13 22 14
f 14 23 24
f 14 24 25
f 14 25 15
f 14 22 23
f 16 26 27
f 16 27 17
f 17 27 28
f 17 28 18
f 18 28 19
f 19 29 20
f 19 28 30
f 19 30 31
f 19 31 29
f 20 29 21
f 21 29 32
f 21 32 33
f 21 33 34
f 21 34 22
f 22 34 35
f 22 35 23
f 23 35 36
f 23 36 24
f 26 37 38
f 26 38 27
f 27 38 28
f 28 38 30
f 29 31 32
f 30 38 39
f 30 39 31
f 31 39 40
f 31 40 41
f 31 41 32
f 32 41 42
f 32 42 33
f 33 42 43
f 33 43 34
f 34 43 35
f 35 43 36
f 36 43 44
f 37 45 39
f 37 39 38
f 39 45 46
f 39 46 40
f 40 46 47
f 40 47 41
f 41 47 48
f 41 48 42
f 42 48 44
f 42 44 43

