# https://github.com/mikedh/trimesh
v 0.02943459 -0.01147068 0.03199024
v 0.02935671 -0.01085069 0.03508881
v 0.02943421 -0.01147068 0.03508881
v 0.02943421 -0.01400458 0.03508881
v 0.02943459 -0.01402484 0.03186903
v 0.02943459 -0.01147068 0.02765042
v 0.02935671 -0.01085069 0.02765042
v 0.02912118 -0.01044026 0.02703071
v 0.02912118 -0.01045039 0.03508881
v 0.02912043 -0.01045075 0.03570944
v 0.02934386 -0.01085069 0.03570944
v 0.02941001 -0.01147068 0.03570944
v 0.02943308 -0.01402484 0.03243498
v 0.02941001 -0.01400458 0.03570944
v 0.02650131 -0.01402484 0.03186903
v 0.02943459 -0.01399806 0.02703071
v 0.02943459 -0.01147140 0.02703071
v 0.02935671 -0.01085141 0.02703071
v 0.02865240 -0.01033276 0.02703071
v 0.02865316 -0.01036027 0.03570944
v 0.02865316 -0.01045075 0.03613139
v 0.02910795 -0.01066574 0.03612410
v 0.02917487 -0.01147068 0.03617969
v 0.02650206 -0.01402484 0.03243498
v 0.02917487 -0.01400458 0.03617969
v 0.02865316 -0.01400458 0.03634100
v 0.02649677 -0.01399806 0.02703071
v 0.02557244 -0.01334513 0.03510704
v 0.02557244 -0.01334441 0.03265552
v 0.02803240 -0.01032733 0.02703071
v 0.02557244 -0.01036027 0.03570944
v 0.02557244 -0.01045075 0.03613139
v 0.02865316 -0.01085069 0.03629179
v 0.02865316 -0.01147068 0.03634100
v 0.02738292 -0.01400458 0.03633371
v 0.02682151 -0.01400458 0.03618243
v 0.02652172 -0.01400458 0.03572311
v 0.02649828 -0.01400458 0.03508881
v 0.02557244 -0.01209067 0.03634100
v 0.02575617 -0.01336975 0.02703071
v 0.02557244 -0.01333500 0.03570944
v 0.02557244 -0.01035954 0.03265552
v 0.02575617 -0.01032733 0.02703071
v 0.02557244 -0.01035954 0.03508881
v 0.02557244 -0.01085069 0.03629179
v 0.02557244 -0.01147068 0.03634100
v 0.02557244 -0.01270958 0.03631275
v 0.02557244 -0.01317177 0.03615235
f 1 2 3
f 1 3 4
f 1 4 5
f 1 5 16
f 1 16 17
f 1 17 6
f 1 6 7
f 1 7 2
f 2 7 8
f 2 8 9
f 2 9 10
f 2 10 11
f 2 11 3
f 3 11 12
f 3 12 14
f 3 14 4
f 4 13 5
f 4 14 13
f 5 13 24
f 5 24 15
f 5 15 27
f 5 27 16
f 6 17 18
f 6 18 7
f 7 18 8
f 8 19 10
f 8 10 9
f 8 18 17
f 8 17 16
f 8 16 27
f 8 27 40
f 8 40 43
f 8 43 30
f 8 30 19
f 10 20 21
f 10 21 22
f 10 22 11
f 10 19 20
f 11 22 23
f 11 23 12
f 12 23 25
f 12 25 14
f 13 14 25
f 13 25 26
f 13 26 24
f 15 24 28
f 15 28 29
f 15 29 27
f 19 30 20
f 20 31 32
f 20 32 21
f 20 30 43
f 20 43 31
f 21 32 45
f 21 45 33
f 21 33 22
f 22 33 23
f 23 33 34
f 23 34 26
f 23 26 25
f 24 26 35
f 24 35 36
f 24 36 37
f 24 37 38
f 24 38 28
f 26 34 46
f 26 46 39
f 26 39 35
f 27 29 40
f 28 41 48
f 28 48 47
f 28 47 39
f 28 39 46
f 28 46 45
f 28 45 32
f 28 32 31
f 28 31 44
f 28 44 42
f 28 42 29
f 28 38 41
f 29 42 43
f 29 43 40
f 31 43 44
f 33 45 46
f 33 46 34
f 35 47 48
f 35 48 36
f 35 39 47
f 36 48 37
f 37 48 41
f 37 41 38
f 42 44 43

