# https://github.com/mikedh/trimesh
v 0.00865259 0.00001542 0.03323001
v 0.00888833 0.00001542 0.03264459
v 0.00865259 0.00001542 0.03508980
v 0.00865259 0.00959869 0.03323001
v 0.00943392 0.00001542 0.03236439
v 0.00888833 0.00959869 0.03264459
v 0.00869049 0.00001542 0.03570986
v 0.00865259 0.00959869 0.03508980
v 0.00972928 0.00001542 0.03236169
v 0.00943392 0.00959869 0.03236439
v 0.00944506 0.00959869 0.03236400
v 0.00892622 0.00001542 0.03615518
v 0.00892176 0.00959869 0.03614710
v 0.00869049 0.00959869 0.03570986
v 0.01005363 0.00001542 0.03235900
v 0.01005363 0.00959869 0.03235900
v 0.00919205 0.00001542 0.03622639
v 0.00892622 0.00959869 0.03615518
v 0.01315330 0.00001542 0.03235900
v 0.01315330 0.00959869 0.03235900
v 0.00943392 0.00001542 0.03629066
v 0.00943392 0.00959869 0.03629105
v 0.01377357 0.00001542 0.03239672
v 0.01377357 0.00959869 0.03239672
v 0.01315330 0.00001542 0.03629066
v 0.01315330 0.00959869 0.03629105
v 0.01420882 0.00001542 0.03267692
v 0.01421439 0.00959869 0.03267692
v 0.01347765 0.00001542 0.03628335
v 0.01377357 0.00959869 0.03627642
v 0.01377357 0.00001542 0.03627642
v 0.01433421 0.00001542 0.03323001
v 0.01434536 0.00959869 0.03323001
v 0.01419823 0.00959869 0.03614325
v 0.01420046 0.00001542 0.03614056
v 0.01433421 0.00001542 0.03508980
v 0.01434536 0.00959869 0.03510096
v 0.01420604 0.00959869 0.03614056
v 0.01432641 0.00001542 0.03570986
v 0.01433477 0.00959869 0.03571756
v 0.01433700 0.00959869 0.03570986
f 1 2 5
f 1 5 9
f 1 9 15
f 1 15 19
f 1 19 23
f 1 23 27
f 1 27 32
f 1 32 36
f 1 36 39
f 1 39 35
f 1 35 31
f 1 31 29
f 1 29 25
f 1 25 21
f 1 21 17
f 1 17 12
f 1 12 7
f 1 7 3
f 1 3 8
f 1 8 4
f 1 4 6
f 1 6 2
f 2 6 10
f 2 10 5
f 3 7 14
f 3 14 8
f 4 8 14
f 4 14 13
f 4 13 18
f 4 18 22
f 4 22 26
f 4 26 30
f 4 30 34
f 4 34 38
f 4 38 40
f 4 40 41
f 4 41 37
f 4 37 33
f 4 33 28
f 4 28 24
f 4 24 20
f 4 20 16
f 4 16 11
f 4 11 10
f 4 10 6
f 5 10 11
f 5 11 9
f 7 12 13
f 7 13 14
f 9 11 15
f 11 16 15
f 12 17 18
f 12 18 13
f 15 16 20
f 15 20 19
f 17 21 22
f 17 22 18
f 19 20 24
f 19 24 23
f 21 25 26
f 21 26 22
f 23 24 28
f 23 28 27
f 25 29 26
f 26 29 31
f 26 31 30
f 27 28 33
f 27 33 32
f 30 31 34
f 31 35 34
f 32 33 37
f 32 37 36
f 34 35 38
f 35 39 40
f 35 40 38
f 36 37 39
f 37 41 39
f 39 41 40

