# https://github.com/mikedh/trimesh
v 0.02943459 -0.00963382 0.02449775
v 0.02943459 -0.00963382 0.02140597
v 0.02658534 -0.00963382 0.02449775
v 0.02943459 -0.01396521 0.02449775
v 0.02658534 -0.00963382 0.02140597
v 0.02943459 -0.01396393 0.02140597
v 0.02658534 -0.01396266 0.02449775
v 0.02810577 -0.01396521 0.02449775
v 0.02943459 -0.01396521 0.02145016
v 0.02658534 -0.01227183 0.02140597
v 0.02929038 -0.01396521 0.02140597
v 0.02658534 -0.01396521 0.02434520
v 0.02762825 -0.01396521 0.02140597
v 0.02682605 -0.01396521 0.02221501
v 0.02658534 -0.01371718 0.02238965
v 0.02658534 -0.01396521 0.02257065
f 1 2 5
f 1 5 3
f 1 3 7
f 1 7 8
f 1 8 4
f 1 4 9
f 1 9 6
f 1 6 2
f 2 6 11
f 2 11 13
f 2 13 10
f 2 10 5
f 3 5 10
f 3 10 15
f 3 15 16
f 3 16 12
f 3 12 7
f 4 8 12
f 4 12 16
f 4 16 14
f 4 14 13
f 4 13 11
f 4 11 9
f 6 9 11
f 7 12 8
f 10 13 14
f 10 14 15
f 14 16 15

