# https://github.com/mikedh/trimesh
v 0.02101131 -0.01642975 0.03265526
v 0.02062033 -0.01398831 0.03265886
v 0.02101131 -0.01398831 0.03265526
v 0.02123020 -0.01704968 0.03265526
v 0.02059205 -0.01642975 0.03265922
v 0.02059205 -0.01457034 0.03265922
v 0.02059351 -0.01398831 0.03265922
v 0.02506787 -0.01398831 0.03265526
v 0.02175769 -0.01746832 0.03265526
v 0.02059205 -0.01704968 0.03266572
v 0.02059205 -0.01398831 0.03612201
v 0.02506787 -0.01398831 0.03508981
v 0.02557244 -0.01463826 0.03265526
v 0.02245434 -0.01757128 0.03265526
v 0.02059205 -0.01748727 0.03279632
v 0.02059205 -0.01398831 0.03634100
v 0.02557244 -0.01463826 0.03508981
v 0.02506690 -0.01398831 0.03514393
v 0.02557244 -0.01764028 0.03265526
v 0.02307445 -0.01764028 0.03265526
v 0.02059303 -0.01762777 0.03322998
v 0.02059205 -0.01764028 0.03384872
v 0.02059205 -0.01581197 0.03634100
v 0.02431321 -0.01398831 0.03634100
v 0.02557244 -0.01465364 0.03569051
v 0.02505081 -0.01398831 0.03570999
v 0.02557244 -0.01764028 0.03510857
v 0.02059303 -0.01764028 0.03508909
v 0.02059205 -0.01763957 0.03570819
v 0.02059205 -0.01643118 0.03634064
v 0.02059400 -0.01642975 0.03634100
v 0.02557244 -0.01581018 0.03634100
v 0.02557244 -0.01579159 0.03633920
v 0.02557244 -0.01519026 0.03627317
v 0.02483240 -0.01398831 0.03618153
v 0.02557244 -0.01465435 0.03570999
v 0.02503716 -0.01398831 0.03574030
v 0.02557244 -0.01477519 0.03611263
v 0.02557244 -0.01477019 0.03610000
v 0.02557244 -0.01763957 0.03570999
v 0.02059400 -0.01763957 0.03570999
v 0.02059205 -0.01749942 0.03616710
v 0.02059303 -0.01705039 0.03632837
v 0.02557244 -0.01704968 0.03632873
v 0.02557244 -0.01642975 0.03634100
v 0.02557244 -0.01749907 0.03616855
v 0.02059400 -0.01749907 0.03616855
f 1 2 3
f 1 3 8
f 1 8 13
f 1 13 19
f 1 19 20
f 1 20 14
f 1 14 9
f 1 9 4
f 1 4 5
f 1 5 2
f 2 5 6
f 2 6 7
f 2 7 11
f 2 11 16
f 2 16 24
f 2 24 35
f 2 35 37
f 2 37 26
f 2 26 18
f 2 18 12
f 2 12 8
f 2 8 3
f 4 9 10
f 4 10 5
f 5 10 15
f 5 15 22
f 5 22 29
f 5 29 42
f 5 42 30
f 5 30 23
f 5 23 16
f 5 16 11
f 5 11 6
f 6 11 7
f 8 12 17
f 8 17 13
f 9 14 15
f 9 15 10
f 12 18 17
f 13 17 25
f 13 25 36
f 13 36 39
f 13 39 38
f 13 38 34
f 13 34 33
f 13 33 32
f 13 32 45
f 13 45 44
f 13 44 46
f 13 46 40
f 13 40 27
f 13 27 19
f 14 20 15
f 15 20 21
f 15 21 22
f 16 23 31
f 16 31 45
f 16 45 32
f 16 32 24
f 17 18 25
f 18 26 25
f 19 27 28
f 19 28 22
f 19 22 20
f 20 22 21
f 22 28 29
f 23 30 31
f 24 32 33
f 24 33 34
f 24 34 35
f 25 26 36
f 26 37 38
f 26 38 39
f 26 39 36
f 27 40 41
f 27 41 28
f 28 41 29
f 29 41 42
f 30 42 43
f 30 43 31
f 31 43 44
f 31 44 45
f 34 38 35
f 35 38 37
f 40 46 47
f 40 47 41
f 41 47 42
f 42 47 43
f 43 47 44
f 44 47 46

