# https://github.com/mikedh/trimesh
v 0.02120157 -0.02076979 0.01945949
v 0.02120157 -0.02139000 0.01947625
v 0.02120157 -0.01904522 0.01945949
v 0.02555306 -0.02076979 0.01945949
v 0.02120157 -0.02186095 0.01969262
v 0.02555306 -0.02139000 0.01947625
v 0.02120157 -0.01904522 0.02414084
v 0.02555306 -0.01904522 0.01945949
v 0.02617347 -0.01904522 0.01947083
v 0.02617347 -0.02076979 0.01947428
v 0.02617347 -0.02139000 0.01948414
v 0.02120157 -0.02187033 0.01969706
v 0.02617347 -0.02187033 0.01969706
v 0.02120157 -0.02076979 0.02414084
v 0.02431339 -0.01904522 0.02448782
v 0.02677380 -0.01904522 0.01966946
v 0.02665787 -0.02139000 0.01969607
v 0.02659875 -0.02181344 0.01976458
v 0.02120157 -0.02204100 0.02021014
v 0.02617347 -0.02204100 0.02021014
v 0.02120157 -0.02139000 0.02412063
v 0.02492462 -0.01904522 0.02449373
v 0.02704240 -0.01904522 0.02021014
v 0.02683234 -0.02139000 0.02021014
v 0.02665672 -0.02187033 0.02021014
v 0.02120157 -0.02204100 0.02330984
v 0.02617347 -0.02204100 0.02330984
v 0.02120157 -0.02139909 0.02411570
v 0.02555306 -0.02139000 0.02412063
v 0.02555306 -0.01904522 0.02449373
v 0.02706478 -0.01904522 0.02083018
v 0.02683234 -0.02139000 0.02330984
v 0.02665672 -0.02187033 0.02330984
v 0.02120157 -0.02187356 0.02384955
v 0.02659875 -0.02181344 0.02378005
v 0.02617347 -0.02187033 0.02385990
v 0.02120157 -0.02187033 0.02385990
v 0.02617347 -0.02139000 0.02411126
v 0.02604205 -0.01904522 0.02448043
v 0.02706478 -0.01904522 0.02268981
v 0.02665787 -0.02139000 0.02386088
v 0.02706420 -0.01904522 0.02281450
v 0.02706191 -0.01904522 0.02330984
v 0.02705158 -0.01904522 0.02341976
v 0.02688112 -0.01904522 0.02404472
v 0.02617347 -0.01904522 0.02447303
v 0.02650463 -0.01904522 0.02438925
f 1 2 5
f 1 5 12
f 1 12 19
f 1 19 26
f 1 26 34
f 1 34 37
f 1 37 28
f 1 28 21
f 1 21 14
f 1 14 7
f 1 7 3
f 1 3 8
f 1 8 4
f 1 4 6
f 1 6 2
f 2 6 5
f 3 7 15
f 3 15 22
f 3 22 30
f 3 30 39
f 3 39 46
f 3 46 47
f 3 47 45
f 3 45 44
f 3 44 43
f 3 43 42
f 3 42 40
f 3 40 31
f 3 31 23
f 3 23 16
f 3 16 9
f 3 9 8
f 4 8 9
f 4 9 10
f 4 10 11
f 4 11 6
f 5 6 13
f 5 13 12
f 6 11 13
f 7 14 15
f 9 16 10
f 10 16 11
f 11 16 17
f 11 17 18
f 11 18 13
f 12 13 20
f 12 20 19
f 13 18 20
f 14 21 15
f 15 21 22
f 16 23 17
f 17 23 24
f 17 24 18
f 18 24 25
f 18 25 20
f 19 20 27
f 19 27 26
f 20 25 33
f 20 33 27
f 21 28 29
f 21 29 30
f 21 30 22
f 23 31 24
f 24 32 33
f 24 33 25
f 24 31 40
f 24 40 32
f 26 27 34
f 27 33 35
f 27 35 36
f 27 36 34
f 28 37 36
f 28 36 29
f 29 36 38
f 29 38 30
f 30 38 39
f 32 41 35
f 32 35 33
f 32 40 42
f 32 42 43
f 32 43 44
f 32 44 45
f 32 45 41
f 34 36 37
f 35 38 36
f 35 41 38
f 38 46 39
f 38 41 47
f 38 47 46
f 41 45 47

