# https://github.com/mikedh/trimesh
v 0.01810722 0.00145202 0.02299080
v 0.01810722 0.00157507 0.02281537
v 0.01929695 0.00184360 0.02297024
v 0.01929695 0.00145202 0.02405915
v 0.01810722 0.00145202 0.02702796
v 0.01810722 0.00158002 0.02281362
v 0.01929695 0.00217019 0.02274975
v 0.01929695 0.00145202 0.02702796
v 0.01810722 0.00246347 0.02702796
v 0.01810722 0.00217019 0.02263556
v 0.01929695 0.00279006 0.02255900
v 0.01929695 0.00281942 0.02702796
v 0.01827841 0.00256738 0.02702796
v 0.01810722 0.00445831 0.02620242
v 0.01810722 0.00279006 0.02255900
v 0.01929695 0.00340992 0.02255900
v 0.01929695 0.00453254 0.02622036
v 0.01873353 0.00451208 0.02622036
v 0.01811362 0.00445930 0.02620329
v 0.01873353 0.00273299 0.02702796
v 0.01810722 0.00459950 0.02579511
v 0.01810722 0.00340992 0.02255900
v 0.01929695 0.00402978 0.02255988
v 0.01929695 0.00475389 0.02582924
v 0.01873353 0.00472651 0.02578986
v 0.01811362 0.00460247 0.02578986
v 0.01810722 0.00460016 0.02578986
v 0.01810722 0.00403011 0.02260362
v 0.01811362 0.00402978 0.02260187
v 0.01873353 0.00402978 0.02256512
v 0.01929695 0.00457575 0.02278037
v 0.01929695 0.00477336 0.02578986
v 0.01929695 0.00481789 0.02522638
v 0.01929695 0.00482185 0.02516994
v 0.01873353 0.00476874 0.02516994
v 0.01811362 0.00462622 0.02516994
v 0.01810722 0.00462392 0.02517738
v 0.01810722 0.00448206 0.02282368
v 0.01811362 0.00448305 0.02282237
v 0.01873353 0.00455200 0.02278562
v 0.01929695 0.00481690 0.02331017
v 0.01929695 0.00482185 0.02393009
v 0.01873353 0.00476874 0.02393009
v 0.01811362 0.00462622 0.02331017
v 0.01810722 0.00462392 0.02331017
v 0.01873353 0.00476643 0.02331017
f 1 2 3
f 1 3 4
f 1 4 8
f 1 8 5
f 1 5 9
f 1 9 14
f 1 14 21
f 1 21 27
f 1 27 37
f 1 37 45
f 1 45 38
f 1 38 28
f 1 28 22
f 1 22 15
f 1 15 10
f 1 10 6
f 1 6 2
f 2 6 7
f 2 7 3
f 3 7 11
f 3 11 16
f 3 16 23
f 3 23 31
f 3 31 41
f 3 41 42
f 3 42 34
f 3 34 33
f 3 33 32
f 3 32 24
f 3 24 17
f 3 17 12
f 3 12 8
f 3 8 4
f 5 8 12
f 5 12 20
f 5 20 13
f 5 13 9
f 6 10 11
f 6 11 7
f 9 13 14
f 10 15 11
f 11 15 22
f 11 22 16
f 12 17 18
f 12 18 19
f 12 19 20
f 13 20 19
f 13 19 14
f 14 19 21
f 16 22 23
f 17 24 18
f 18 24 25
f 18 25 19
f 19 25 21
f 21 25 26
f 21 26 27
f 22 28 29
f 22 29 30
f 22 30 23
f 23 30 31
f 24 32 25
f 25 32 33
f 25 33 34
f 25 34 35
f 25 35 26
f 26 35 36
f 26 36 37
f 26 37 27
f 28 38 39
f 28 39 29
f 29 39 40
f 29 40 30
f 30 40 31
f 31 40 41
f 34 42 43
f 34 43 35
f 35 43 44
f 35 44 36
f 36 44 45
f 36 45 37
f 38 45 44
f 38 44 46
f 38 46 39
f 39 46 40
f 40 46 41
f 41 46 42
f 42 46 43
f 43 46 44

