# https://github.com/mikedh/trimesh
v 0.02943459 0.01707737 0.02424049
v 0.02678594 0.01707737 0.02424049
v 0.02943459 0.01494511 0.02424049
v 0.02943459 0.01707737 0.02083035
v 0.02678594 0.01494511 0.02424049
v 0.02678594 0.01707737 0.01945947
v 0.02943459 0.01494511 0.02083035
v 0.02943225 0.01494511 0.02045499
v 0.02943070 0.01707737 0.02021020
v 0.02678594 0.01494511 0.02202573
v 0.02865342 0.01707737 0.01945947
v 0.02678594 0.01704981 0.01945947
v 0.02943070 0.01494511 0.02021020
v 0.02919529 0.01707737 0.01967991
v 0.02678594 0.01562727 0.02015170
v 0.02740065 0.01494511 0.02003422
v 0.02865342 0.01494511 0.01945947
v 0.02917117 0.01707737 0.01967008
v 0.02827827 0.01494511 0.01946930
v 0.02678594 0.01643759 0.01948193
v 0.02919529 0.01494511 0.01967991
v 0.02678594 0.01582432 0.01971689
v 0.02751992 0.01494511 0.01974591
v 0.02801382 0.01494511 0.01953903
v 0.02678594 0.01642986 0.01948240
v 0.02678594 0.01585771 0.01970051
v 0.02763814 0.01494511 0.01968740
f 1 2 5
f 1 5 3
f 1 3 7
f 1 7 4
f 1 4 9
f 1 9 14
f 1 14 18
f 1 18 11
f 1 11 6
f 1 6 2
f 2 6 12
f 2 12 20
f 2 20 25
f 2 25 26
f 2 26 22
f 2 22 15
f 2 15 10
f 2 10 5
f 3 5 10
f 3 10 16
f 3 16 23
f 3 23 27
f 3 27 24
f 3 24 19
f 3 19 17
f 3 17 21
f 3 21 13
f 3 13 8
f 3 8 7
f 4 7 8
f 4 8 9
f 6 11 17
f 6 17 12
f 8 13 9
f 9 13 21
f 9 21 14
f 10 15 16
f 11 18 17
f 12 17 19
f 12 19 20
f 14 21 18
f 15 22 16
f 16 22 23
f 17 18 21
f 19 24 25
f 19 25 20
f 22 26 23
f 23 26 27
f 24 27 25
f 25 27 26

