# https://github.com/mikedh/trimesh
v 0.02101150 0.01147006 0.03265526
v 0.02101150 0.01395550 0.03265526
v 0.02132915 0.01084518 0.03265526
v 0.01898511 0.01147006 0.03265922
v 0.01898511 0.01395550 0.03265922
v 0.02506170 0.01395550 0.03265526
v 0.02184590 0.01058079 0.03265526
v 0.01898511 0.01085010 0.03269638
v 0.02213262 0.01044560 0.03265526
v 0.01898511 0.01395550 0.03634100
v 0.02506170 0.01395550 0.03508981
v 0.02556750 0.01334435 0.03265526
v 0.01898511 0.01045722 0.03282699
v 0.02307333 0.01035935 0.03265526
v 0.01898511 0.01147006 0.03634100
v 0.02431300 0.01395550 0.03634100
v 0.02504431 0.01395550 0.03570999
v 0.02556750 0.01333485 0.03571035
v 0.02556750 0.01334435 0.03508981
v 0.02556750 0.01035935 0.03265526
v 0.01898511 0.01042026 0.03299042
v 0.01898511 0.01035935 0.03385016
v 0.01898511 0.01036358 0.03348181
v 0.01898511 0.01036674 0.03323034
v 0.01898511 0.01085010 0.03629229
v 0.02556750 0.01147006 0.03634100
v 0.02556750 0.01209001 0.03634100
v 0.02556750 0.01270996 0.03631322
v 0.02431880 0.01395550 0.03633956
v 0.02556750 0.01317678 0.03614401
v 0.02482911 0.01395550 0.03617432
v 0.02556750 0.01035935 0.03510388
v 0.01898511 0.01035935 0.03534127
v 0.01898511 0.01045018 0.03613175
v 0.02556750 0.01045898 0.03613535
v 0.02556750 0.01085010 0.03629229
v 0.02556750 0.01272123 0.03630961
v 0.02482588 0.01395550 0.03618045
v 0.02556750 0.01317185 0.03615267
v 0.02556750 0.01035970 0.03570999
v 0.01898511 0.01035970 0.03570999
v 0.01898511 0.01039632 0.03588100
v 0.02556750 0.01045018 0.03613175
f 1 2 6
f 1 6 12
f 1 12 20
f 1 20 14
f 1 14 9
f 1 9 7
f 1 7 3
f 1 3 4
f 1 4 5
f 1 5 2
f 2 5 10
f 2 10 16
f 2 16 29
f 2 29 38
f 2 38 31
f 2 31 17
f 2 17 11
f 2 11 6
f 3 7 4
f 4 8 13
f 4 13 21
f 4 21 24
f 4 24 23
f 4 23 22
f 4 22 33
f 4 33 41
f 4 41 42
f 4 42 34
f 4 34 25
f 4 25 15
f 4 15 10
f 4 10 5
f 4 7 9
f 4 9 8
f 6 11 19
f 6 19 12
f 8 9 13
f 9 14 13
f 10 15 26
f 10 26 27
f 10 27 16
f 11 17 18
f 11 18 19
f 12 19 18
f 12 18 30
f 12 30 39
f 12 39 37
f 12 37 28
f 12 28 27
f 12 27 26
f 12 26 36
f 12 36 35
f 12 35 43
f 12 43 40
f 12 40 32
f 12 32 20
f 13 14 21
f 14 20 32
f 14 32 33
f 14 33 22
f 14 22 23
f 14 23 24
f 14 24 21
f 15 25 36
f 15 36 26
f 16 27 28
f 16 28 29
f 17 30 18
f 17 31 30
f 25 34 35
f 25 35 36
f 28 37 38
f 28 38 29
f 30 31 38
f 30 38 39
f 32 40 33
f 33 40 41
f 34 42 43
f 34 43 35
f 37 39 38
f 40 43 42
f 40 42 41

