# https://github.com/mikedh/trimesh
v 0.02556788 0.01035961 0.03265526
v 0.02865307 0.01035961 0.03508981
v 0.02556788 0.01035961 0.03510388
v 0.02556788 0.01334420 0.03265526
v 0.02867010 0.01036264 0.03265526
v 0.02865307 0.01035991 0.03570999
v 0.02912085 0.01044992 0.03508981
v 0.02556788 0.01035991 0.03570999
v 0.02556788 0.01334420 0.03508981
v 0.02618098 0.01345543 0.03265526
v 0.02912085 0.01044992 0.03265526
v 0.02912047 0.01045022 0.03570999
v 0.02906786 0.01048053 0.03609423
v 0.02865307 0.01045053 0.03613175
v 0.02935625 0.01085027 0.03508981
v 0.02556788 0.01045477 0.03613355
v 0.02556788 0.01333450 0.03570999
v 0.02619687 0.01345543 0.03572623
v 0.02618098 0.01345543 0.03508981
v 0.02943232 0.01345543 0.03265526
v 0.02935322 0.01085027 0.03265526
v 0.02935625 0.01085027 0.03385016
v 0.02934414 0.01085027 0.03570999
v 0.02914734 0.01085027 0.03615592
v 0.02865307 0.01085027 0.03629229
v 0.02943421 0.01147034 0.03508981
v 0.02556788 0.01085027 0.03629229
v 0.02556788 0.01317418 0.03614798
v 0.02635961 0.01345543 0.03603289
v 0.02943421 0.01345543 0.03372461
v 0.02943232 0.01208981 0.03265526
v 0.02943005 0.01147034 0.03265526
v 0.02943421 0.01147034 0.03385016
v 0.02940999 0.01147034 0.03570999
v 0.02917459 0.01147034 0.03618045
v 0.02865307 0.01147034 0.03634100
v 0.02941491 0.01345543 0.03558444
v 0.02943421 0.01345543 0.03508981
v 0.02556788 0.01147034 0.03634100
v 0.02556788 0.01271534 0.03631142
v 0.02741362 0.01345543 0.03634100
v 0.02678538 0.01345543 0.03621833
v 0.02922227 0.01345543 0.03608521
v 0.02940999 0.01345543 0.03570999
v 0.02917459 0.01345543 0.03618045
v 0.02875866 0.01345543 0.03630853
v 0.02865307 0.01345543 0.03634100
v 0.02556788 0.01208981 0.03634100
f 1 2 3
f 1 3 8
f 1 8 16
f 1 16 27
f 1 27 39
f 1 39 48
f 1 48 40
f 1 40 28
f 1 28 17
f 1 17 9
f 1 9 4
f 1 4 10
f 1 10 20
f 1 20 31
f 1 31 32
f 1 32 21
f 1 21 11
f 1 11 5
f 1 5 2
f 2 6 3
f 2 5 7
f 2 7 6
f 3 6 8
f 4 9 19
f 4 19 10
f 5 11 7
f 6 7 12
f 6 12 13
f 6 13 14
f 6 14 8
f 7 11 22
f 7 22 15
f 7 15 12
f 8 14 16
f 9 17 18
f 9 18 19
f 10 19 18
f 10 18 29
f 10 29 42
f 10 42 41
f 10 41 47
f 10 47 46
f 10 46 45
f 10 45 43
f 10 43 44
f 10 44 37
f 10 37 38
f 10 38 30
f 10 30 20
f 11 21 22
f 12 15 23
f 12 23 13
f 13 23 24
f 13 24 25
f 13 25 14
f 14 25 16
f 15 22 33
f 15 33 26
f 15 26 23
f 16 25 27
f 17 28 29
f 17 29 18
f 20 30 31
f 21 32 33
f 21 33 22
f 23 26 34
f 23 34 24
f 24 34 35
f 24 35 36
f 24 36 25
f 25 36 39
f 25 39 27
f 26 37 34
f 26 33 30
f 26 30 38
f 26 38 37
f 28 40 41
f 28 41 42
f 28 42 29
f 30 33 31
f 31 33 32
f 34 43 35
f 34 37 44
f 34 44 43
f 35 43 45
f 35 45 46
f 35 46 36
f 36 46 47
f 36 47 41
f 36 41 48
f 36 48 39
f 40 48 41

