# https://github.com/mikedh/trimesh
v 0.02516129 0.01355927 0.02424049
v 0.02427835 0.01355927 0.02424049
v 0.02567798 0.01335945 0.02424049
v 0.02567798 0.01336433 0.02319195
v 0.02516129 0.01355927 0.02330991
v 0.02427835 0.01355927 0.02188380
v 0.02427835 0.00940174 0.02424049
v 0.02567798 0.00940174 0.02424049
v 0.02515019 0.01355927 0.02269016
v 0.02567798 0.01335579 0.02268689
v 0.02431000 0.01355927 0.02189742
v 0.02427835 0.01304568 0.02145747
v 0.02427835 0.00940174 0.02145747
v 0.02567798 0.00940174 0.02145747
v 0.02514403 0.01355927 0.02267708
v 0.02567798 0.01317957 0.02224693
v 0.02491069 0.01355927 0.02219599
v 0.02473297 0.01355927 0.02210228
v 0.02567798 0.01217559 0.02145747
f 1 2 7
f 1 7 8
f 1 8 3
f 1 3 4
f 1 4 5
f 1 5 9
f 1 9 15
f 1 15 17
f 1 17 18
f 1 18 11
f 1 11 6
f 1 6 2
f 2 6 12
f 2 12 13
f 2 13 7
f 3 8 14
f 3 14 19
f 3 19 16
f 3 16 10
f 3 10 4
f 4 9 5
f 4 10 9
f 6 11 12
f 7 13 14
f 7 14 8
f 9 10 15
f 10 16 17
f 10 17 15
f 11 18 12
f 12 18 16
f 12 16 19
f 12 19 14
f 12 14 13
f 16 18 17

