# https://github.com/mikedh/trimesh
v 0.01953047 -0.00281749 0.02702901
v 0.01953047 -0.00280826 0.02888968
v 0.01953047 -0.00192081 0.02702840
v 0.01997281 -0.00279148 0.02702840
v 0.01997391 -0.00278114 0.02888968
v 0.01997391 -0.00277695 0.02950971
v 0.01953047 -0.00278226 0.02957491
v 0.01964956 -0.00070287 0.02702901
v 0.02037675 0.00003612 0.02702870
v 0.02216260 -0.00098191 0.02702840
v 0.01953047 -0.00070511 0.02937991
v 0.02116211 -0.00228037 0.02702840
v 0.02077080 -0.00253509 0.02714052
v 0.02073265 -0.00253621 0.02950971
v 0.02047937 -0.00256193 0.02990975
v 0.01997391 -0.00262596 0.02996703
v 0.01953047 -0.00257423 0.02999871
v 0.02027823 0.00003891 0.02888968
v 0.02233383 -0.00013556 0.02702901
v 0.02213626 0.00003891 0.02995332
v 0.02185225 -0.00154978 0.02702840
v 0.02214504 -0.00095479 0.02950971
v 0.02209455 -0.00111053 0.02888968
v 0.02028619 0.00003891 0.02949295
v 0.01953047 -0.00096765 0.02998470
v 0.02158442 -0.00192388 0.02702840
v 0.02121342 -0.00221886 0.02950971
v 0.02088797 -0.00247218 0.02888968
v 0.02156933 -0.00190907 0.02968520
v 0.02121342 -0.00203824 0.02993077
v 0.02064923 -0.00222697 0.03000207
v 0.01997391 -0.00216993 0.03012790
v 0.01953047 -0.00208130 0.03013826
v 0.02229048 -0.00013556 0.02955419
v 0.02218346 -0.00073950 0.02987349
v 0.02169775 0.00003891 0.03009195
v 0.02183331 -0.00031003 0.03007824
v 0.02222078 -0.00031003 0.02991828
v 0.02184017 -0.00154978 0.02888968
v 0.02183139 -0.00154978 0.02950971
v 0.02053892 0.00003891 0.02999536
v 0.01953047 -0.00145779 0.03011967
v 0.02167306 -0.00154978 0.02993077
v 0.02121342 -0.00154978 0.03009134
v 0.02059380 -0.00154978 0.03014100
v 0.02121342 0.00003891 0.03014100
v 0.02186898 -0.00093997 0.02998043
v 0.02121342 -0.00093018 0.03014100
f 1 2 7
f 1 7 17
f 1 17 33
f 1 33 42
f 1 42 25
f 1 25 11
f 1 11 3
f 1 3 4
f 1 4 2
f 2 4 5
f 2 5 6
f 2 6 7
f 3 8 9
f 3 9 10
f 3 10 21
f 3 21 26
f 3 26 12
f 3 12 4
f 3 11 8
f 4 12 13
f 4 13 14
f 4 14 5
f 5 14 6
f 6 14 15
f 6 15 16
f 6 16 7
f 7 16 17
f 8 11 18
f 8 18 9
f 9 19 10
f 9 18 20
f 9 20 19
f 10 19 22
f 10 22 23
f 10 23 21
f 11 24 18
f 11 25 24
f 12 26 27
f 12 27 28
f 12 28 13
f 13 28 14
f 14 27 15
f 14 28 27
f 15 29 30
f 15 30 31
f 15 31 16
f 15 27 29
f 16 31 32
f 16 32 17
f 17 32 33
f 18 24 41
f 18 41 46
f 18 46 36
f 18 36 20
f 19 20 34
f 19 34 35
f 19 35 22
f 20 36 37
f 20 37 38
f 20 38 34
f 21 23 39
f 21 39 26
f 22 40 23
f 22 35 40
f 23 40 39
f 24 25 41
f 25 42 41
f 26 39 29
f 26 29 27
f 29 35 43
f 29 43 30
f 29 39 40
f 29 40 35
f 30 43 44
f 30 44 31
f 31 44 32
f 32 45 33
f 32 44 45
f 33 45 46
f 33 46 42
f 34 38 35
f 35 38 47
f 35 47 43
f 36 46 37
f 37 46 48
f 37 48 44
f 37 44 47
f 37 47 38
f 41 42 46
f 43 47 44
f 44 48 45
f 45 48 46

