# https://github.com/mikedh/trimesh
v 0.02943423 -0.00963382 0.02140597
v 0.02943423 -0.01248257 0.02140597
v 0.02943423 -0.00963382 0.02082984
v 0.02580148 -0.00963382 0.02140597
v 0.02943423 -0.01248257 0.02082984
v 0.02688722 -0.01248257 0.02140597
v 0.02943317 -0.01248257 0.02060267
v 0.02943068 -0.00963382 0.02021008
v 0.02580148 -0.00963382 0.01945900
v 0.02580148 -0.01217329 0.02140597
v 0.02689113 -0.01248257 0.02097735
v 0.02943068 -0.01248257 0.02021008
v 0.02919525 -0.00963382 0.01967950
v 0.02580148 -0.01085001 0.01945900
v 0.02865327 -0.00963382 0.01945900
v 0.02580148 -0.01216799 0.02082984
v 0.02689255 -0.01248257 0.02082984
v 0.02919525 -0.01248257 0.01967950
v 0.02580148 -0.01146996 0.01947711
v 0.02842638 -0.01248257 0.01945900
v 0.02803341 -0.01248257 0.01946548
v 0.02865327 -0.01248257 0.01945900
v 0.02580148 -0.01216158 0.02045783
v 0.02692456 -0.01248257 0.02021008
v 0.02580148 -0.01196302 0.01969761
v 0.02780616 -0.01248257 0.01948702
v 0.02580148 -0.01215712 0.02021008
v 0.02703551 -0.01248257 0.01983482
v 0.02719235 -0.01248257 0.01969036
v 0.02704263 -0.01248257 0.01982434
v 0.02580148 -0.01204082 0.01990248
f 1 2 5
f 1 5 3
f 1 3 8
f 1 8 13
f 1 13 15
f 1 15 9
f 1 9 4
f 1 4 10
f 1 10 6
f 1 6 2
f 2 6 11
f 2 11 17
f 2 17 24
f 2 24 28
f 2 28 30
f 2 30 29
f 2 29 26
f 2 26 21
f 2 21 20
f 2 20 22
f 2 22 18
f 2 18 12
f 2 12 7
f 2 7 5
f 3 5 7
f 3 7 8
f 4 9 14
f 4 14 19
f 4 19 25
f 4 25 31
f 4 31 27
f 4 27 23
f 4 23 16
f 4 16 10
f 6 10 11
f 7 12 8
f 8 12 18
f 8 18 13
f 9 15 22
f 9 22 20
f 9 20 14
f 10 16 17
f 10 17 11
f 13 18 22
f 13 22 15
f 14 20 21
f 14 21 19
f 16 23 24
f 16 24 17
f 19 21 26
f 19 26 25
f 23 27 24
f 24 27 28
f 25 29 30
f 25 30 31
f 25 26 29
f 27 31 30
f 27 30 28

