# https://github.com/mikedh/trimesh
v 0.01932530 0.00282354 0.02702752
v 0.01929695 0.00065495 0.02702752
v 0.01997355 0.00279135 0.02702752
v 0.01997355 0.00452551 0.02622000
v 0.01932530 0.00453301 0.02622000
v 0.01929695 0.00481968 0.02519812
v 0.01929695 0.00065495 0.02640941
v 0.02008180 0.00032153 0.02702752
v 0.02008180 0.00276003 0.02702752
v 0.02008180 0.00451890 0.02621956
v 0.01997355 0.00475794 0.02578955
v 0.01932530 0.00477073 0.02579961
v 0.01935365 0.00482718 0.02516969
v 0.01932530 0.00482410 0.02393040
v 0.01932530 0.00481924 0.02331053
v 0.01932530 0.00457667 0.02278035
v 0.01929695 0.00340968 0.02255900
v 0.02008180 0.00032197 0.02578955
v 0.02008180 0.00032153 0.02642035
v 0.01929695 0.00065539 0.02578955
v 0.02008180 0.00474250 0.02578955
v 0.01997355 0.00480469 0.02516969
v 0.01997355 0.00480469 0.02393040
v 0.01997355 0.00480204 0.02331053
v 0.01997355 0.00456917 0.02278122
v 0.01997355 0.00402978 0.02256075
v 0.01932530 0.00402978 0.02255944
v 0.02008180 0.00340968 0.02255900
v 0.01929695 0.00278958 0.02255900
v 0.02008180 0.00033520 0.02517406
v 0.01929695 0.00067171 0.02516969
v 0.02008180 0.00478661 0.02516969
v 0.02008180 0.00478661 0.02382235
v 0.02008180 0.00478440 0.02331053
v 0.02008180 0.00475265 0.02322130
v 0.02008180 0.00456079 0.02278385
v 0.02008180 0.00447523 0.02274535
v 0.02008180 0.00402978 0.02256337
v 0.02008180 0.00392173 0.02256031
v 0.02008180 0.00278958 0.02255900
v 0.02008180 0.00268153 0.02257825
v 0.01929695 0.00217036 0.02275016
v 0.02008180 0.00048515 0.02480004
v 0.01929695 0.00089796 0.02464300
v 0.02008180 0.00217036 0.02273792
v 0.02008180 0.00208083 0.02277729
v 0.01929695 0.00184355 0.02297064
v 0.02008180 0.00180739 0.02296276
f 1 2 8
f 1 8 9
f 1 9 3
f 1 3 4
f 1 4 5
f 1 5 6
f 1 6 2
f 2 7 19
f 2 19 8
f 2 6 17
f 2 17 29
f 2 29 42
f 2 42 47
f 2 47 44
f 2 44 31
f 2 31 20
f 2 20 7
f 3 9 10
f 3 10 4
f 4 10 11
f 4 11 12
f 4 12 5
f 5 12 6
f 6 12 13
f 6 13 14
f 6 14 15
f 6 15 16
f 6 16 17
f 7 18 19
f 7 20 18
f 8 19 18
f 8 18 30
f 8 30 43
f 8 43 48
f 8 48 46
f 8 46 45
f 8 45 41
f 8 41 40
f 8 40 28
f 8 28 39
f 8 39 38
f 8 38 37
f 8 37 36
f 8 36 35
f 8 35 34
f 8 34 33
f 8 33 32
f 8 32 21
f 8 21 10
f 8 10 9
f 10 21 11
f 11 22 13
f 11 13 12
f 11 21 22
f 13 22 23
f 13 23 14
f 14 23 24
f 14 24 15
f 15 24 25
f 15 25 16
f 16 25 26
f 16 26 27
f 16 27 17
f 17 28 40
f 17 40 29
f 17 27 28
f 18 20 30
f 20 31 30
f 21 32 22
f 22 32 33
f 22 33 23
f 23 33 24
f 24 33 34
f 24 34 35
f 24 35 36
f 24 36 25
f 25 36 37
f 25 37 26
f 26 37 38
f 26 38 39
f 26 39 27
f 27 39 28
f 29 41 42
f 29 40 41
f 30 31 43
f 31 44 43
f 41 45 42
f 42 45 46
f 42 46 47
f 43 44 47
f 43 47 48
f 46 48 47

