# https://github.com/mikedh/trimesh
v 0.02464904 0.01707737 0.02424049
v 0.02211334 0.01707737 0.02424049
v 0.02464904 0.01494511 0.02424049
v 0.02464904 0.01707737 0.01946040
v 0.02208728 0.01707737 0.02399758
v 0.02215269 0.01494511 0.02424049
v 0.02464904 0.01494511 0.02195552
v 0.02464904 0.01704981 0.01946040
v 0.02369359 0.01642986 0.01945947
v 0.02307365 0.01642986 0.01945947
v 0.02431352 0.01707737 0.01946134
v 0.02208242 0.01707737 0.02394235
v 0.02208140 0.01707737 0.02392971
v 0.02203872 0.01707737 0.02330956
v 0.02215269 0.01494511 0.02083035
v 0.02422971 0.01494511 0.02021020
v 0.02464904 0.01555275 0.02021020
v 0.02369359 0.01581012 0.01945947
v 0.02464904 0.01642986 0.01948100
v 0.02304605 0.01707737 0.01946883
v 0.02307365 0.01707737 0.01946508
v 0.02307365 0.01519017 0.01945947
v 0.02233642 0.01707737 0.01970659
v 0.02203872 0.01707737 0.02083035
v 0.02215448 0.01494511 0.02021020
v 0.02411471 0.01494511 0.01977633
v 0.02464904 0.01583851 0.01967757
v 0.02307365 0.01494511 0.01946462
v 0.02370125 0.01494511 0.01957367
v 0.02369359 0.01519017 0.01950346
v 0.02245985 0.01494511 0.01967991
v 0.02227407 0.01707737 0.01977165
v 0.02206734 0.01707737 0.02021020
v 0.02211768 0.01707737 0.01995044
v 0.02227510 0.01494511 0.02000052
f 1 2 6
f 1 6 3
f 1 3 7
f 1 7 17
f 1 17 27
f 1 27 19
f 1 19 8
f 1 8 4
f 1 4 11
f 1 11 21
f 1 21 20
f 1 20 23
f 1 23 32
f 1 32 34
f 1 34 33
f 1 33 24
f 1 24 14
f 1 14 13
f 1 13 12
f 1 12 5
f 1 5 2
f 2 5 6
f 3 6 15
f 3 15 25
f 3 25 35
f 3 35 31
f 3 31 28
f 3 28 29
f 3 29 26
f 3 26 16
f 3 16 7
f 4 8 18
f 4 18 9
f 4 9 10
f 4 10 11
f 5 12 6
f 6 12 13
f 6 13 14
f 6 14 24
f 6 24 15
f 7 16 17
f 8 19 18
f 9 18 22
f 9 22 10
f 10 20 21
f 10 21 11
f 10 22 23
f 10 23 20
f 15 24 25
f 16 26 17
f 17 26 27
f 18 19 28
f 18 28 22
f 19 27 29
f 19 29 30
f 19 30 28
f 22 28 31
f 22 31 23
f 23 31 32
f 24 33 25
f 25 33 34
f 25 34 35
f 26 29 27
f 28 30 29
f 31 34 32
f 31 35 34

