# https://github.com/mikedh/trimesh
v 0.02658506 -0.00963382 0.02449775
v 0.02658506 -0.00963382 0.02140597
v 0.02580148 -0.00963382 0.02449775
v 0.02658506 -0.01396266 0.02449775
v 0.02658506 -0.01227183 0.02140597
v 0.02580148 -0.00963382 0.02140597
v 0.02580148 -0.01337630 0.02449775
v 0.02649171 -0.01396521 0.02449775
v 0.02658506 -0.01396521 0.02434520
v 0.02580148 -0.01217346 0.02140597
v 0.02658506 -0.01371718 0.02238965
v 0.02580148 -0.01337969 0.02268384
v 0.02649171 -0.01396521 0.02371595
v 0.02658506 -0.01396521 0.02257065
v 0.02580148 -0.01318805 0.02224649
v 0.02580148 -0.01327751 0.02240387
v 0.02653175 -0.01396521 0.02264934
v 0.02652078 -0.01396521 0.02267446
v 0.02649585 -0.01396521 0.02317508
v 0.02649194 -0.01396521 0.02330977
f 1 2 6
f 1 6 3
f 1 3 7
f 1 7 8
f 1 8 4
f 1 4 9
f 1 9 14
f 1 14 11
f 1 11 5
f 1 5 2
f 2 5 10
f 2 10 6
f 3 6 10
f 3 10 15
f 3 15 16
f 3 16 12
f 3 12 7
f 4 8 9
f 5 11 10
f 7 12 8
f 8 13 20
f 8 20 19
f 8 19 18
f 8 18 17
f 8 17 14
f 8 14 9
f 8 12 13
f 10 11 14
f 10 14 15
f 12 16 17
f 12 17 18
f 12 18 19
f 12 19 20
f 12 20 13
f 14 17 16
f 14 16 15

