# https://github.com/mikedh/trimesh
v 0.02215259 -0.01417350 0.02449805
v 0.02510409 -0.01417350 0.02449805
v 0.02215259 -0.01417350 0.02655579
v 0.02215259 -0.01147013 0.02449805
v 0.02510409 -0.01417350 0.02655579
v 0.02547486 -0.01338555 0.02449805
v 0.02215259 -0.01147013 0.02655579
v 0.02220398 -0.01090217 0.02449805
v 0.02547486 -0.01338555 0.02655579
v 0.02547486 -0.00963382 0.02449805
v 0.02220885 -0.01085018 0.02655579
v 0.02220885 -0.01085018 0.02449805
v 0.02547486 -0.01011334 0.02655579
v 0.02363956 -0.00963382 0.02449805
v 0.02547486 -0.00963382 0.02636182
v 0.02228041 -0.01075596 0.02655579
v 0.02248856 -0.01048220 0.02449805
v 0.02431344 -0.01011334 0.02655579
v 0.02363956 -0.00963382 0.02517020
v 0.02251425 -0.01044843 0.02449805
v 0.02431344 -0.00963382 0.02636182
v 0.02251425 -0.01044932 0.02655579
v 0.02251425 -0.01044843 0.02578998
v 0.02429653 -0.01011378 0.02655579
v 0.02367143 -0.00963382 0.02578998
v 0.02428580 -0.00963382 0.02635497
v 0.02354329 -0.01019600 0.02655579
v 0.02385031 -0.00963382 0.02623412
f 1 2 5
f 1 5 3
f 1 3 7
f 1 7 4
f 1 4 8
f 1 8 12
f 1 12 17
f 1 17 20
f 1 20 14
f 1 14 10
f 1 10 6
f 1 6 2
f 2 6 9
f 2 9 5
f 3 5 9
f 3 9 13
f 3 13 18
f 3 18 24
f 3 24 27
f 3 27 22
f 3 22 16
f 3 16 11
f 3 11 7
f 4 7 8
f 6 10 15
f 6 15 13
f 6 13 9
f 7 11 8
f 8 11 12
f 10 14 19
f 10 19 25
f 10 25 28
f 10 28 26
f 10 26 21
f 10 21 15
f 11 16 12
f 12 16 17
f 13 15 21
f 13 21 18
f 14 20 23
f 14 23 19
f 16 22 23
f 16 23 17
f 17 23 20
f 18 21 24
f 19 23 22
f 19 22 25
f 21 26 22
f 21 22 27
f 21 27 24
f 22 26 28
f 22 28 25

