# https://github.com/mikedh/trimesh
v 0.02943459 0.01431771 0.03508981
v 0.02941038 0.01431771 0.03570999
v 0.02943459 0.01345543 0.03508981
v 0.02943459 0.01431771 0.03385016
v 0.02941038 0.01345543 0.03570999
v 0.02931482 0.01431771 0.03590121
v 0.02943459 0.01345543 0.03385016
v 0.02943268 0.01431771 0.03265526
v 0.02917499 0.01345543 0.03618045
v 0.02917499 0.01431771 0.03618045
v 0.02943268 0.01345543 0.03265526
v 0.02647203 0.01431771 0.03265526
v 0.02865357 0.01345543 0.03634100
v 0.02865357 0.01431771 0.03634100
v 0.02618058 0.01345543 0.03265526
v 0.02647139 0.01431771 0.03378306
v 0.02741389 0.01345543 0.03634100
v 0.02741389 0.01431771 0.03634100
v 0.02618058 0.01345543 0.03508981
v 0.02647139 0.01431771 0.03447035
v 0.02682112 0.01345543 0.03622808
v 0.02678067 0.01431771 0.03619957
v 0.02619651 0.01345543 0.03572623
v 0.02647171 0.01431771 0.03508981
v 0.02674882 0.01345543 0.03620859
v 0.02666983 0.01431771 0.03603758
v 0.02635959 0.01345543 0.03603289
v 0.02650260 0.01431771 0.03570999
f 1 2 5
f 1 5 3
f 1 3 7
f 1 7 4
f 1 4 8
f 1 8 12
f 1 12 16
f 1 16 20
f 1 20 24
f 1 24 28
f 1 28 26
f 1 26 22
f 1 22 18
f 1 18 14
f 1 14 10
f 1 10 6
f 1 6 2
f 2 6 5
f 3 5 9
f 3 9 13
f 3 13 17
f 3 17 21
f 3 21 25
f 3 25 27
f 3 27 23
f 3 23 19
f 3 19 15
f 3 15 11
f 3 11 7
f 4 7 11
f 4 11 8
f 5 6 9
f 6 10 9
f 8 11 15
f 8 15 12
f 9 10 14
f 9 14 13
f 12 15 16
f 13 14 18
f 13 18 17
f 15 19 20
f 15 20 16
f 17 18 21
f 18 22 21
f 19 23 24
f 19 24 20
f 21 22 25
f 22 26 27
f 22 27 25
f 23 27 26
f 23 26 28
f 23 28 24

