# https://github.com/mikedh/trimesh
v 0.02720740 0.01494511 0.02185302
v 0.02567849 0.01494511 0.02221151
v 0.02943459 0.01494511 0.02185302
v 0.02733831 0.01391157 0.02185302
v 0.02567849 0.01476724 0.02228513
v 0.02567849 0.01494511 0.02424049
v 0.02943459 0.01494511 0.02424049
v 0.02943459 0.01391157 0.02185302
v 0.02682168 0.01391157 0.02221268
v 0.02651869 0.01391157 0.02265484
v 0.02567849 0.01473466 0.02236856
v 0.02567849 0.01462337 0.02424049
v 0.02943459 0.01391157 0.02424049
v 0.02651465 0.01391157 0.02269597
v 0.02567849 0.01463895 0.02269013
v 0.02567849 0.01462337 0.02330990
v 0.02648413 0.01391157 0.02424049
v 0.02648450 0.01391157 0.02330990
v 0.02648413 0.01391157 0.02392990
f 1 2 6
f 1 6 7
f 1 7 3
f 1 3 8
f 1 8 4
f 1 4 2
f 2 5 11
f 2 11 15
f 2 15 16
f 2 16 12
f 2 12 6
f 2 4 5
f 3 7 13
f 3 13 8
f 4 8 13
f 4 13 17
f 4 17 19
f 4 19 18
f 4 18 14
f 4 14 10
f 4 10 9
f 4 9 5
f 5 9 10
f 5 10 11
f 6 12 17
f 6 17 13
f 6 13 7
f 10 14 15
f 10 15 11
f 12 16 19
f 12 19 17
f 14 18 15
f 15 18 16
f 16 18 19

