# https://github.com/mikedh/trimesh
v 0.02344686 0.01784575 0.02499623
v 0.02352697 0.01784575 0.02578999
v 0.02370064 0.01829007 0.02578999
v 0.02386788 0.01871307 0.02578999
v 0.02381759 0.01874186 0.02499623
v 0.02941842 0.01784575 0.02499623
v 0.02371292 0.01784575 0.02638535
v 0.02391876 0.01867036 0.02617040
v 0.02431406 0.01882615 0.02578999
v 0.02431406 0.01889109 0.02499623
v 0.02398717 0.01880300 0.02499623
v 0.02938568 0.01829007 0.02499623
v 0.02942076 0.01784575 0.02499714
v 0.02375970 0.01784575 0.02639840
v 0.02431406 0.01784575 0.02654367
v 0.02431406 0.01870560 0.02620562
v 0.02448773 0.01889201 0.02499623
v 0.02865356 0.01882615 0.02578999
v 0.02938568 0.01829007 0.02517004
v 0.02915002 0.01872045 0.02499623
v 0.02942076 0.01784575 0.02517004
v 0.02493390 0.01784575 0.02654701
v 0.02865356 0.01870560 0.02620562
v 0.02555375 0.01889201 0.02499623
v 0.02907517 0.01867036 0.02617040
v 0.02914066 0.01871307 0.02578999
v 0.02865356 0.01884090 0.02517004
v 0.02617359 0.01888935 0.02499623
v 0.02915002 0.01872045 0.02517004
v 0.02935176 0.01829007 0.02578999
v 0.02939971 0.01784575 0.02561436
v 0.02879273 0.01880720 0.02499623
v 0.02803313 0.01784575 0.02654701
v 0.02865356 0.01784575 0.02654367
v 0.02867753 0.01784575 0.02653730
v 0.02918920 0.01784575 0.02635256
v 0.02924943 0.01784575 0.02622930
v 0.02865356 0.01884090 0.02499623
v 0.02938977 0.01784575 0.02578999
f 1 2 3
f 1 3 4
f 1 4 5
f 1 5 11
f 1 11 10
f 1 10 17
f 1 17 24
f 1 24 28
f 1 28 38
f 1 38 32
f 1 32 20
f 1 20 12
f 1 12 6
f 1 6 13
f 1 13 21
f 1 21 31
f 1 31 39
f 1 39 37
f 1 37 36
f 1 36 35
f 1 35 34
f 1 34 33
f 1 33 22
f 1 22 15
f 1 15 14
f 1 14 7
f 1 7 2
f 2 7 8
f 2 8 3
f 3 8 4
f 4 8 9
f 4 9 10
f 4 10 11
f 4 11 5
f 6 12 13
f 7 14 8
f 8 14 15
f 8 15 16
f 8 16 9
f 9 17 10
f 9 16 23
f 9 23 18
f 9 18 24
f 9 24 17
f 12 19 21
f 12 21 13
f 12 20 29
f 12 29 19
f 15 22 16
f 16 22 33
f 16 33 23
f 18 23 25
f 18 25 26
f 18 26 27
f 18 27 28
f 18 28 24
f 19 29 26
f 19 26 30
f 19 30 31
f 19 31 21
f 20 32 29
f 23 33 34
f 23 34 25
f 25 34 35
f 25 35 36
f 25 36 37
f 25 37 30
f 25 30 26
f 26 29 27
f 27 29 32
f 27 32 38
f 27 38 28
f 30 37 39
f 30 39 31

