# https://github.com/mikedh/trimesh
v 0.02615482 -0.01342688 0.02449805
v 0.02650736 -0.01417350 0.02449805
v 0.02615482 -0.01342688 0.02655579
v 0.02615482 -0.00963382 0.02449805
v 0.02943459 -0.01417350 0.02449805
v 0.02650736 -0.01417350 0.02655579
v 0.02615482 -0.01011334 0.02655579
v 0.02615482 -0.00963382 0.02636182
v 0.02943459 -0.00963382 0.02449805
v 0.02943459 -0.01417350 0.02655579
v 0.02803342 -0.01011334 0.02655579
v 0.02865341 -0.00963382 0.02636182
v 0.02943459 -0.00963382 0.02517020
v 0.02943459 -0.01147013 0.02655579
v 0.02865341 -0.01011912 0.02655579
v 0.02912668 -0.00963382 0.02624137
v 0.02917259 -0.01029466 0.02655579
v 0.02943330 -0.00963382 0.02519397
v 0.02938643 -0.00963382 0.02578998
v 0.02939895 -0.01099594 0.02655579
v 0.02915172 -0.00963382 0.02623291
v 0.02923071 -0.01039599 0.02655579
v 0.02937840 -0.00963382 0.02581274
v 0.02938065 -0.01085018 0.02655579
f 1 2 6
f 1 6 3
f 1 3 7
f 1 7 8
f 1 8 4
f 1 4 9
f 1 9 5
f 1 5 2
f 2 5 10
f 2 10 6
f 3 6 10
f 3 10 14
f 3 14 20
f 3 20 24
f 3 24 22
f 3 22 17
f 3 17 15
f 3 15 11
f 3 11 7
f 4 8 12
f 4 12 16
f 4 16 21
f 4 21 23
f 4 23 19
f 4 19 18
f 4 18 13
f 4 13 9
f 5 9 13
f 5 13 14
f 5 14 10
f 7 11 12
f 7 12 8
f 11 15 12
f 12 15 17
f 12 17 16
f 13 18 14
f 14 18 19
f 14 19 20
f 16 17 21
f 17 22 21
f 19 23 24
f 19 24 20
f 21 22 23
f 22 24 23

