# https://github.com/mikedh/trimesh
v 0.00865259 -0.01021009 0.04253028
v 0.00868318 -0.01021009 0.04193021
v 0.00865259 -0.01021009 0.04376995
v 0.00865259 0.01024834 0.04253028
v 0.00868374 0.01024834 0.04191026
v 0.00868429 -0.01021009 0.04191026
v 0.00865648 -0.01021009 0.04438997
v 0.00865259 0.01024834 0.04376995
v 0.00891956 0.01024834 0.04144647
v 0.00891233 -0.01021009 0.04146566
v 0.00889231 -0.01021009 0.04492040
v 0.00865648 0.01024834 0.04438997
v 0.00943403 0.01024834 0.04129551
v 0.00892011 -0.01021009 0.04145098
v 0.00890955 -0.01021009 0.04492755
v 0.00889231 0.01024834 0.04492040
v 0.01005362 0.01024834 0.04129513
v 0.00943403 -0.01021009 0.04130153
v 0.00943403 -0.01021009 0.04514100
v 0.00943403 0.01024834 0.04514100
v 0.01253310 0.01024834 0.04129513
v 0.01315325 -0.01021009 0.04130153
v 0.01315325 -0.01021009 0.04514100
v 0.01315325 0.01024834 0.04514100
v 0.01315325 0.01024834 0.04129551
v 0.01377340 -0.01021009 0.04131960
v 0.01375059 0.01024834 0.04131282
v 0.01377340 -0.01021009 0.04509808
v 0.01377340 0.01024834 0.04509808
v 0.01419054 -0.01021009 0.04146416
v 0.01377340 0.01024834 0.04131358
v 0.01418998 0.01024834 0.04145776
v 0.01420889 -0.01021009 0.04487748
v 0.01378619 0.01024834 0.04509168
v 0.01420444 -0.01021009 0.04146905
v 0.01420444 0.01024834 0.04146416
v 0.01433459 -0.01021009 0.04438997
v 0.01421278 0.01024834 0.04486318
v 0.01420889 0.01024834 0.04487748
v 0.01432625 -0.01021009 0.04189595
v 0.01432625 0.01024834 0.04189332
v 0.01433459 -0.01021009 0.04253028
v 0.01433459 0.01024834 0.04438997
v 0.01433014 -0.01021009 0.04191026
v 0.01433014 0.01024834 0.04191026
v 0.01433459 0.01024834 0.04253028
f 1 2 6
f 1 6 10
f 1 10 14
f 1 14 18
f 1 18 22
f 1 22 26
f 1 26 30
f 1 30 35
f 1 35 40
f 1 40 44
f 1 44 42
f 1 42 37
f 1 37 33
f 1 33 28
f 1 28 23
f 1 23 19
f 1 19 15
f 1 15 11
f 1 11 7
f 1 7 3
f 1 3 8
f 1 8 4
f 1 4 5
f 1 5 2
f 2 5 6
f 3 7 12
f 3 12 8
f 4 8 12
f 4 12 16
f 4 16 20
f 4 20 24
f 4 24 29
f 4 29 34
f 4 34 39
f 4 39 38
f 4 38 43
f 4 43 46
f 4 46 45
f 4 45 41
f 4 41 36
f 4 36 32
f 4 32 31
f 4 31 27
f 4 27 25
f 4 25 21
f 4 21 17
f 4 17 13
f 4 13 9
f 4 9 5
f 5 9 6
f 6 9 10
f 7 11 16
f 7 16 12
f 9 13 14
f 9 14 10
f 11 15 16
f 13 17 18
f 13 18 14
f 15 19 20
f 15 20 16
f 17 21 22
f 17 22 18
f 19 23 24
f 19 24 20
f 21 25 22
f 22 25 27
f 22 27 26
f 23 28 29
f 23 29 24
f 26 27 31
f 26 31 32
f 26 32 30
f 28 33 34
f 28 34 29
f 30 32 35
f 32 36 35
f 33 37 38
f 33 38 39
f 33 39 34
f 35 36 40
f 36 41 40
f 37 42 46
f 37 46 43
f 37 43 38
f 40 41 44
f 41 45 44
f 42 44 45
f 42 45 46

