# https://github.com/mikedh/trimesh
v 0.02304761 0.00030961 0.02636179
v 0.02304761 -0.00030961 0.02636179
v 0.02360726 0.00084320 0.02634208
v 0.02360726 0.00212596 0.02634082
v 0.02304761 0.00089824 0.02635760
v 0.02360726 -0.00030961 0.02634208
v 0.02304761 -0.00093111 0.02635634
v 0.02360726 -0.00216953 0.02634040
v 0.02304761 0.00152586 0.02635131
v 0.02360726 0.00274593 0.02633369
v 0.02304761 -0.00280326 0.02633117
v 0.02360726 -0.00278950 0.02633285
v 0.02304761 0.00214354 0.02634417
v 0.02304761 0.00278950 0.02633327
v 0.02360726 0.00334756 0.02624308
v 0.02304761 -0.00338807 0.02599475
v 0.02360726 -0.00338196 0.02623427
v 0.02304761 0.00338349 0.02600188
v 0.02360726 0.00381005 0.02578963
v 0.02304761 -0.00353409 0.02516964
v 0.02360726 -0.00381005 0.02578963
v 0.02304761 0.00353332 0.02518936
v 0.02360726 0.00390408 0.02508281
v 0.02304761 -0.00353485 0.02454966
v 0.02360726 -0.00390485 0.02454966
v 0.02360726 -0.00389185 0.02526948
v 0.02304761 0.00353485 0.02459035
v 0.02360726 0.00390485 0.02393051
v 0.02304761 -0.00353409 0.02390996
v 0.02360726 -0.00389797 0.02313645
v 0.02304761 0.00353485 0.02393051
v 0.02360726 0.00390179 0.02331053
v 0.02304761 -0.00351650 0.02331053
v 0.02360726 -0.00380700 0.02229037
v 0.02304761 0.00351650 0.02331053
v 0.02360726 0.00381923 0.02268761
v 0.02304761 -0.00330016 0.02280968
v 0.02360726 -0.00330475 0.02214187
v 0.02304761 -0.00278950 0.02258987
v 0.02304761 0.00330857 0.02282729
v 0.02360726 0.00340948 0.02222157
v 0.02360726 -0.00277880 0.02208482
v 0.02304761 -0.00216953 0.02255757
v 0.02304761 0.00280326 0.02259365
v 0.02360726 0.00278950 0.02208566
v 0.02360726 -0.00216953 0.02207643
v 0.02304761 0.00218253 0.02255757
v 0.02360726 0.00216953 0.02207643
f 1 2 6
f 1 6 3
f 1 3 4
f 1 4 5
f 1 5 9
f 1 9 13
f 1 13 14
f 1 14 18
f 1 18 22
f 1 22 27
f 1 27 31
f 1 31 35
f 1 35 40
f 1 40 44
f 1 44 47
f 1 47 43
f 1 43 39
f 1 39 37
f 1 37 33
f 1 33 29
f 1 29 24
f 1 24 20
f 1 20 16
f 1 16 11
f 1 11 7
f 1 7 2
f 2 7 8
f 2 8 6
f 3 6 8
f 3 8 12
f 3 12 17
f 3 17 21
f 3 21 26
f 3 26 25
f 3 25 30
f 3 30 34
f 3 34 38
f 3 38 42
f 3 42 46
f 3 46 48
f 3 48 45
f 3 45 41
f 3 41 36
f 3 36 32
f 3 32 28
f 3 28 23
f 3 23 19
f 3 19 15
f 3 15 10
f 3 10 4
f 4 9 5
f 4 10 9
f 7 11 12
f 7 12 8
f 9 10 13
f 10 14 13
f 10 15 14
f 11 16 17
f 11 17 12
f 14 15 18
f 15 19 18
f 16 20 21
f 16 21 17
f 18 19 22
f 19 23 22
f 20 24 25
f 20 25 26
f 20 26 21
f 22 23 27
f 23 28 27
f 24 29 25
f 25 29 30
f 27 28 31
f 28 32 31
f 29 33 30
f 30 33 34
f 31 32 35
f 32 36 35
f 33 37 34
f 34 37 39
f 34 39 38
f 35 36 40
f 36 41 40
f 38 39 42
f 39 43 42
f 40 41 44
f 41 45 44
f 42 43 46
f 43 47 48
f 43 48 46
f 44 45 47
f 45 48 47

