# https://github.com/mikedh/trimesh
v 0.02943459 -0.01342644 0.02702996
v 0.02943459 -0.01342644 0.02655579
v 0.02877435 -0.01342644 0.02703066
v 0.02943459 -0.01395066 0.02703066
v 0.02943459 -0.01401059 0.02655579
v 0.02615393 -0.01342644 0.02655579
v 0.02615393 -0.01342644 0.02703066
v 0.02891596 -0.01401059 0.02703066
v 0.02943459 -0.01401059 0.02702996
v 0.02649850 -0.01401059 0.02655579
v 0.02649850 -0.01401059 0.02702996
v 0.02646222 -0.01376178 0.02703066
v 0.02798951 -0.01401059 0.02703066
f 1 2 6
f 1 6 7
f 1 7 3
f 1 3 4
f 1 4 9
f 1 9 5
f 1 5 2
f 2 5 10
f 2 10 6
f 3 7 12
f 3 12 13
f 3 13 8
f 3 8 4
f 4 8 9
f 5 9 8
f 5 8 13
f 5 13 11
f 5 11 10
f 6 10 11
f 6 11 7
f 7 11 12
f 11 13 12

