# https://github.com/mikedh/trimesh
v 0.02101150 0.01395586 0.03265526
v 0.01898511 0.01395586 0.03265922
v 0.02101150 0.01642994 0.03265526
v 0.02506170 0.01395586 0.03265526
v 0.01898511 0.01395586 0.03634100
v 0.01898511 0.01642994 0.03265922
v 0.02123057 0.01704972 0.03265526
v 0.02556750 0.01463878 0.03265526
v 0.02506170 0.01395586 0.03508981
v 0.01898511 0.01642994 0.03634100
v 0.02431300 0.01395586 0.03634100
v 0.01898511 0.01704972 0.03266572
v 0.02175762 0.01746892 0.03265526
v 0.02146897 0.01729575 0.03265526
v 0.02556750 0.01764100 0.03265526
v 0.02556750 0.01463878 0.03508981
v 0.02504431 0.01395586 0.03570999
v 0.02556750 0.01465465 0.03570999
v 0.01898511 0.01704972 0.03632873
v 0.02556750 0.01642994 0.03634100
v 0.02431880 0.01395586 0.03633956
v 0.02556750 0.01519001 0.03627317
v 0.02556750 0.01580979 0.03634100
v 0.01898511 0.01748768 0.03279632
v 0.02240775 0.01757101 0.03265526
v 0.02556750 0.01764100 0.03508981
v 0.02307333 0.01764100 0.03265526
v 0.02556750 0.01477514 0.03611263
v 0.02482911 0.01395586 0.03617432
v 0.01898511 0.01723226 0.03626379
v 0.02556750 0.01704972 0.03632873
v 0.02482588 0.01395586 0.03618045
v 0.01898511 0.01762801 0.03323034
v 0.02302823 0.01764028 0.03265526
v 0.02556750 0.01763992 0.03570999
v 0.01898511 0.01764100 0.03508981
v 0.01898511 0.01764100 0.03385016
v 0.01898511 0.01749922 0.03616855
v 0.02556750 0.01749922 0.03616855
v 0.02556750 0.01750247 0.03615808
v 0.01898511 0.01763992 0.03570999
f 1 2 6
f 1 6 3
f 1 3 7
f 1 7 14
f 1 14 13
f 1 13 25
f 1 25 34
f 1 34 27
f 1 27 15
f 1 15 8
f 1 8 4
f 1 4 9
f 1 9 17
f 1 17 29
f 1 29 32
f 1 32 21
f 1 21 11
f 1 11 5
f 1 5 2
f 2 5 10
f 2 10 19
f 2 19 30
f 2 30 38
f 2 38 41
f 2 41 36
f 2 36 37
f 2 37 33
f 2 33 24
f 2 24 12
f 2 12 6
f 3 6 7
f 4 8 16
f 4 16 9
f 5 11 23
f 5 23 20
f 5 20 10
f 6 12 13
f 6 13 14
f 6 14 7
f 8 15 26
f 8 26 35
f 8 35 40
f 8 40 39
f 8 39 31
f 8 31 20
f 8 20 23
f 8 23 22
f 8 22 28
f 8 28 18
f 8 18 16
f 9 16 18
f 9 18 17
f 10 20 31
f 10 31 19
f 11 21 22
f 11 22 23
f 12 24 13
f 13 24 25
f 15 27 37
f 15 37 36
f 15 36 26
f 17 18 28
f 17 28 29
f 19 31 30
f 21 32 22
f 22 32 28
f 24 33 34
f 24 34 25
f 26 36 41
f 26 41 35
f 27 34 33
f 27 33 37
f 28 32 29
f 30 31 39
f 30 39 38
f 35 41 40
f 38 39 40
f 38 40 41

