# https://github.com/mikedh/trimesh
v 0.02549305 0.00940174 0.02424049
v 0.02943420 0.00940174 0.02424049
v 0.02549305 0.00940174 0.02634881
v 0.02549305 0.01337579 0.02424049
v 0.02943420 0.00940174 0.02517001
v 0.02943420 0.01422977 0.02424049
v 0.02865330 0.00940174 0.02634881
v 0.02549305 0.01026139 0.02688462
v 0.02549305 0.01337579 0.02688462
v 0.02650737 0.01422977 0.02424049
v 0.02941800 0.00940174 0.02537839
v 0.02943420 0.01147029 0.02688462
v 0.02943420 0.01422977 0.02688462
v 0.02915024 0.00940174 0.02622430
v 0.02913712 0.01039513 0.02688462
v 0.02898202 0.01034220 0.02688462
v 0.02865330 0.01026706 0.02688462
v 0.02803329 0.01026139 0.02688462
v 0.02650737 0.01422977 0.02688462
v 0.02938559 0.00940174 0.02578996
v 0.02936398 0.01085024 0.02688462
f 1 2 5
f 1 5 11
f 1 11 20
f 1 20 14
f 1 14 7
f 1 7 3
f 1 3 8
f 1 8 9
f 1 9 4
f 1 4 10
f 1 10 6
f 1 6 2
f 2 6 13
f 2 13 12
f 2 12 5
f 3 7 18
f 3 18 8
f 4 9 19
f 4 19 10
f 5 12 11
f 6 10 19
f 6 19 13
f 7 14 15
f 7 15 16
f 7 16 17
f 7 17 18
f 8 18 17
f 8 17 16
f 8 16 15
f 8 15 21
f 8 21 12
f 8 12 13
f 8 13 19
f 8 19 9
f 11 12 20
f 12 21 20
f 14 20 21
f 14 21 15

