# https://github.com/mikedh/trimesh
v 0.01501738 -0.01643379 0.03265525
v 0.01501738 -0.01642990 0.03265521
v 0.01502454 -0.01642990 0.03265526
v 0.01501807 -0.01643331 0.03265526
v 0.01501738 -0.01642990 0.03265526
v 0.01501738 -0.01581336 0.03265503
v 0.01505234 -0.01584837 0.03265526
v 0.01501738 -0.01146644 0.03265526
v 0.01501738 -0.01147033 0.03265503
v 0.01505234 -0.01147033 0.03265526
f 1 2 3
f 1 3 4
f 1 4 5
f 1 5 8
f 1 8 9
f 1 9 6
f 1 6 2
f 2 6 3
f 3 6 7
f 3 7 10
f 3 10 8
f 3 8 5
f 3 5 4
f 6 9 10
f 6 10 7
f 8 10 9

