# https://github.com/mikedh/trimesh
v 0.02555217 -0.01805977 0.02449805
v 0.02940345 -0.01805977 0.02449805
v 0.02555217 -0.01805977 0.02645329
v 0.02555217 -0.01464283 0.02449805
v 0.02940345 -0.01805977 0.02517037
v 0.02943385 -0.01766976 0.02449805
v 0.02555217 -0.01782632 0.02655518
v 0.02803318 -0.01805977 0.02645329
v 0.02617385 -0.01765272 0.02703066
v 0.02580183 -0.01765272 0.02702992
v 0.02555217 -0.01464006 0.02449830
v 0.02555407 -0.01464085 0.02449805
v 0.02937115 -0.01805977 0.02578989
v 0.02943385 -0.01766976 0.02517037
v 0.02939965 -0.01704947 0.02702992
v 0.02943385 -0.01417434 0.02449805
v 0.02943423 -0.01642958 0.02655567
v 0.02943423 -0.01643037 0.02703066
v 0.02580183 -0.01584655 0.02703066
v 0.02555217 -0.01568880 0.02655567
v 0.02865296 -0.01805977 0.02644982
v 0.02865296 -0.01765272 0.02703066
v 0.02555217 -0.01464006 0.02655567
v 0.02649875 -0.01401065 0.02655567
v 0.02650749 -0.01417434 0.02449805
v 0.02916557 -0.01805977 0.02628992
v 0.02939927 -0.01705026 0.02703066
v 0.02916405 -0.01750607 0.02703066
v 0.02943423 -0.01401065 0.02655567
v 0.02943423 -0.01457109 0.02703066
v 0.02617347 -0.01455643 0.02703066
v 0.02580183 -0.01460676 0.02702992
v 0.02649875 -0.01401065 0.02702992
v 0.02943423 -0.01401065 0.02702992
v 0.02891592 -0.01401065 0.02703066
v 0.02650749 -0.01407248 0.02703066
v 0.02798948 -0.01401065 0.02703066
f 1 2 5
f 1 5 13
f 1 13 26
f 1 26 21
f 1 21 8
f 1 8 3
f 1 3 7
f 1 7 20
f 1 20 23
f 1 23 11
f 1 11 4
f 1 4 12
f 1 12 25
f 1 25 16
f 1 16 6
f 1 6 2
f 2 6 14
f 2 14 5
f 3 8 22
f 3 22 9
f 3 9 10
f 3 10 7
f 4 11 12
f 5 14 15
f 5 15 13
f 6 16 29
f 6 29 17
f 6 17 18
f 6 18 14
f 7 10 19
f 7 19 20
f 8 21 22
f 9 22 28
f 9 28 27
f 9 27 18
f 9 18 30
f 9 30 35
f 9 35 37
f 9 37 36
f 9 36 31
f 9 31 19
f 9 19 10
f 11 23 33
f 11 33 24
f 11 24 25
f 11 25 12
f 13 15 27
f 13 27 28
f 13 28 26
f 14 18 15
f 15 18 27
f 16 25 24
f 16 24 29
f 17 29 34
f 17 34 30
f 17 30 18
f 19 31 32
f 19 32 23
f 19 23 20
f 21 26 22
f 22 26 28
f 23 32 33
f 24 33 37
f 24 37 35
f 24 35 34
f 24 34 29
f 30 34 35
f 31 36 32
f 32 36 33
f 33 36 37

