# https://github.com/mikedh/trimesh
v 0.01780516 0.00224444 0.02702752
v 0.01810655 0.00462405 0.02516969
v 0.01783204 0.00445147 0.02598552
v 0.01628952 0.00337904 0.02619331
v 0.01715973 0.00159918 0.02702752
v 0.01810655 0.00002073 0.02702752
v 0.01810655 0.00462405 0.02331053
v 0.01743054 0.00436540 0.02516969
v 0.01678107 0.00391886 0.02593172
v 0.01618133 0.00349440 0.02578955
v 0.01570254 0.00288429 0.02593391
v 0.01525097 0.00217324 0.02598246
v 0.01515555 0.00155006 0.02621650
v 0.01682542 0.00093004 0.02702752
v 0.01667019 0.00016538 0.02702752
v 0.01467475 0.00016538 0.02516969
v 0.01563400 0.00002073 0.02255900
v 0.01810655 0.00002073 0.02418062
v 0.01810655 0.00425591 0.02271386
v 0.01749706 0.00430187 0.02307213
v 0.01687313 0.00404863 0.02331053
v 0.01707439 0.00417210 0.02393040
v 0.01687313 0.00404953 0.02516969
v 0.01571162 0.00299018 0.02516969
v 0.01632916 0.00364264 0.02516969
v 0.01525366 0.00231158 0.02516969
v 0.01495463 0.00155006 0.02578955
v 0.01470264 0.00033750 0.02587966
v 0.01472986 0.00079982 0.02516969
v 0.01484611 0.00079847 0.02298595
v 0.01484812 0.00016538 0.02294527
v 0.01810655 0.00278966 0.02255900
v 0.01639804 0.00002073 0.02256906
v 0.01563400 0.00093004 0.02255900
v 0.01717619 0.00002073 0.02274360
v 0.01810655 0.00187404 0.02272523
v 0.01687313 0.00364670 0.02273179
v 0.01779979 0.00340923 0.02255900
v 0.01625390 0.00278966 0.02261368
v 0.01631001 0.00351062 0.02302269
v 0.01568776 0.00288609 0.02314299
v 0.01544585 0.00262745 0.02393040
v 0.01492473 0.00155006 0.02331053
v 0.01492238 0.00155006 0.02516969
v 0.01484140 0.00125267 0.02393040
v 0.01532724 0.00222686 0.02306206
v 0.01537966 0.00155006 0.02268761
v 0.01625390 0.00217054 0.02255900
f 1 2 3
f 1 3 4
f 1 4 5
f 1 5 14
f 1 14 15
f 1 15 6
f 1 6 2
f 2 7 8
f 2 8 3
f 2 6 18
f 2 18 36
f 2 36 32
f 2 32 19
f 2 19 7
f 3 8 9
f 3 9 4
f 4 10 11
f 4 11 12
f 4 12 13
f 4 13 5
f 4 9 10
f 5 13 14
f 6 15 16
f 6 16 17
f 6 17 33
f 6 33 35
f 6 35 18
f 7 19 20
f 7 20 21
f 7 21 22
f 7 22 8
f 8 22 23
f 8 23 9
f 9 23 10
f 10 24 11
f 10 23 25
f 10 25 24
f 11 24 26
f 11 26 12
f 12 27 13
f 12 26 27
f 13 27 28
f 13 28 15
f 13 15 14
f 15 28 16
f 16 28 29
f 16 29 30
f 16 30 31
f 16 31 17
f 17 32 33
f 17 31 34
f 17 34 48
f 17 48 38
f 17 38 32
f 18 35 36
f 19 37 20
f 19 32 38
f 19 38 39
f 19 39 37
f 20 37 40
f 20 40 21
f 21 25 23
f 21 23 22
f 21 40 25
f 24 25 41
f 24 41 42
f 24 42 26
f 25 40 41
f 26 42 43
f 26 43 44
f 26 44 27
f 27 44 29
f 27 29 28
f 29 44 45
f 29 45 30
f 30 45 43
f 30 43 46
f 30 46 47
f 30 47 31
f 31 47 34
f 32 36 35
f 32 35 33
f 34 47 39
f 34 39 48
f 37 39 40
f 38 48 39
f 39 41 40
f 39 47 46
f 39 46 41
f 41 46 42
f 42 46 43
f 43 45 44

