# https://github.com/mikedh/trimesh
v 0.02101124 0.01147026 0.03265526
v 0.02179150 0.01203765 0.03243510
v 0.02179193 0.01147026 0.03243510
v 0.02189559 0.01084442 0.03243510
v 0.02132911 0.01084513 0.03265526
v 0.02101124 0.01642995 0.03265526
v 0.02179150 0.01642995 0.03243510
v 0.02196312 0.01075318 0.03243510
v 0.02227625 0.01052865 0.03243510
v 0.02243497 0.01043812 0.03243510
v 0.02184569 0.01058068 0.03265526
v 0.02123018 0.01704937 0.03265526
v 0.02183193 0.01704937 0.03243510
v 0.02182204 0.01699235 0.03243510
v 0.02213216 0.01044596 0.03265526
v 0.02307372 0.01035900 0.03243510
v 0.02146890 0.01729529 0.03265526
v 0.02204700 0.01746707 0.03243510
v 0.02201086 0.01741575 0.03243510
v 0.02307372 0.01035900 0.03265526
v 0.02540546 0.01035900 0.03243510
v 0.02175709 0.01746850 0.03265526
v 0.02262853 0.01758754 0.03243510
v 0.02540546 0.01035900 0.03265526
v 0.02540546 0.01764029 0.03243510
v 0.02240874 0.01757114 0.03265526
v 0.02307372 0.01764029 0.03243510
v 0.02540546 0.01764029 0.03265526
v 0.02302855 0.01764029 0.03265526
f 1 2 3
f 1 3 4
f 1 4 5
f 1 5 11
f 1 11 15
f 1 15 20
f 1 20 24
f 1 24 28
f 1 28 29
f 1 29 26
f 1 26 22
f 1 22 17
f 1 17 12
f 1 12 6
f 1 6 7
f 1 7 2
f 2 7 14
f 2 14 13
f 2 13 19
f 2 19 18
f 2 18 23
f 2 23 27
f 2 27 25
f 2 25 21
f 2 21 16
f 2 16 10
f 2 10 9
f 2 9 8
f 2 8 4
f 2 4 3
f 4 8 5
f 5 8 9
f 5 9 10
f 5 10 11
f 6 12 13
f 6 13 14
f 6 14 7
f 10 15 11
f 10 16 15
f 12 17 18
f 12 18 19
f 12 19 13
f 15 16 20
f 16 21 24
f 16 24 20
f 17 22 18
f 18 22 23
f 21 25 28
f 21 28 24
f 22 26 23
f 23 26 27
f 25 27 29
f 25 29 28
f 26 29 27

