# https://github.com/mikedh/trimesh
v 0.02008180 0.00032155 0.02656317
v 0.02029314 -0.00001638 0.02656317
v 0.02008180 0.00032155 0.02702835
v 0.02008180 0.00293655 0.02656317
v 0.02255468 -0.00001638 0.02656317
v 0.02029314 -0.00001638 0.02702835
v 0.02008180 0.00275992 0.02702835
v 0.02008180 0.00280415 0.02694374
v 0.02056863 0.00286225 0.02656317
v 0.02244332 -0.00001638 0.02679806
v 0.02255468 0.00031028 0.02656317
v 0.02233390 -0.00001638 0.02702835
v 0.02065965 0.00259254 0.02702835
v 0.02110024 0.00271743 0.02656317
v 0.02233390 0.00031028 0.02702835
v 0.02233366 0.00031230 0.02702835
v 0.02243073 0.00095897 0.02656317
v 0.02090464 0.00248270 0.02702835
v 0.02115883 0.00268100 0.02656317
v 0.02222423 0.00082686 0.02702835
v 0.02243001 0.00096186 0.02656317
v 0.02115834 0.00228872 0.02702835
v 0.02177348 0.00211094 0.02656317
v 0.02158465 0.00192391 0.02702835
v 0.02228814 0.00137004 0.02656317
v 0.02210247 0.00113588 0.02702835
v 0.02209206 0.00167068 0.02656317
v 0.02185239 0.00154984 0.02702835
f 1 2 6
f 1 6 3
f 1 3 7
f 1 7 8
f 1 8 4
f 1 4 9
f 1 9 14
f 1 14 19
f 1 19 23
f 1 23 27
f 1 27 25
f 1 25 21
f 1 21 17
f 1 17 11
f 1 11 5
f 1 5 2
f 2 5 10
f 2 10 12
f 2 12 6
f 3 6 12
f 3 12 15
f 3 15 16
f 3 16 20
f 3 20 26
f 3 26 28
f 3 28 24
f 3 24 22
f 3 22 18
f 3 18 13
f 3 13 7
f 4 8 9
f 5 11 10
f 7 13 14
f 7 14 8
f 8 14 9
f 10 11 15
f 10 15 12
f 11 16 15
f 11 17 16
f 13 18 14
f 14 18 19
f 16 17 20
f 17 21 20
f 18 22 19
f 19 22 24
f 19 24 23
f 20 21 25
f 20 25 26
f 23 24 27
f 24 28 27
f 25 27 28
f 25 28 26

