# https://github.com/mikedh/trimesh
v 0.02643044 0.01226885 0.02157238
v 0.02567849 0.01226885 0.02179881
v 0.02751296 0.01391131 0.02157238
v 0.02943459 0.01226885 0.02157238
v 0.02567849 0.01226885 0.02424049
v 0.02567849 0.01317956 0.02224698
v 0.02943459 0.01391131 0.02157238
v 0.02682168 0.01391131 0.02221250
v 0.02943459 0.01226885 0.02424049
v 0.02567849 0.01335965 0.02424049
v 0.02567849 0.01335611 0.02268705
v 0.02651869 0.01391131 0.02265493
v 0.02943459 0.01391131 0.02424049
v 0.02567849 0.01336447 0.02319215
v 0.02648413 0.01391131 0.02424049
v 0.02648450 0.01391131 0.02330994
v 0.02651465 0.01391131 0.02269593
v 0.02648413 0.01391131 0.02392996
f 1 2 3
f 1 3 7
f 1 7 4
f 1 4 9
f 1 9 5
f 1 5 2
f 2 5 10
f 2 10 14
f 2 14 11
f 2 11 6
f 2 6 3
f 3 6 8
f 3 8 12
f 3 12 17
f 3 17 16
f 3 16 18
f 3 18 15
f 3 15 13
f 3 13 7
f 4 7 13
f 4 13 9
f 5 9 13
f 5 13 15
f 5 15 10
f 6 11 12
f 6 12 8
f 10 15 14
f 11 14 16
f 11 16 17
f 11 17 12
f 14 15 18
f 14 18 16

