# https://github.com/mikedh/trimesh
v 0.02555399 0.01918885 0.02424049
v 0.02555399 0.01889177 0.02499623
v 0.02617335 0.01888934 0.02499623
v 0.02865296 0.01884080 0.02499623
v 0.02617335 0.01916992 0.02424049
v 0.02493391 0.01918885 0.02424049
v 0.02448768 0.01889177 0.02499623
v 0.02865296 0.01884080 0.02424049
v 0.02914990 0.01872041 0.02499623
v 0.02431382 0.01918496 0.02424049
v 0.02431382 0.01889080 0.02499623
v 0.02914990 0.01872041 0.02424049
v 0.02938533 0.01828984 0.02499623
v 0.02926798 0.01850489 0.02424049
v 0.02369446 0.01906215 0.02424049
v 0.02398712 0.01880294 0.02499623
v 0.02938533 0.01828984 0.02424049
v 0.02942082 0.01784374 0.02499623
v 0.02381761 0.01874177 0.02499623
v 0.02326924 0.01871944 0.02424049
v 0.02943459 0.01766996 0.02424049
v 0.02943459 0.01766996 0.02499623
v 0.02244778 0.01752967 0.02499623
v 0.02203487 0.01753890 0.02424049
v 0.02943459 0.01422977 0.02424049
v 0.02943459 0.01422977 0.02499623
v 0.02216019 0.01703745 0.02499623
v 0.02215295 0.01422977 0.02424049
v 0.02215295 0.01422977 0.02499623
v 0.02215295 0.01643019 0.02499623
f 1 2 3
f 1 3 4
f 1 4 5
f 1 5 8
f 1 8 12
f 1 12 14
f 1 14 17
f 1 17 21
f 1 21 25
f 1 25 28
f 1 28 24
f 1 24 20
f 1 20 15
f 1 15 10
f 1 10 6
f 1 6 7
f 1 7 2
f 2 7 11
f 2 11 16
f 2 16 19
f 2 19 23
f 2 23 27
f 2 27 30
f 2 30 29
f 2 29 26
f 2 26 22
f 2 22 18
f 2 18 13
f 2 13 9
f 2 9 4
f 2 4 3
f 4 8 5
f 4 9 12
f 4 12 8
f 6 10 11
f 6 11 7
f 9 13 14
f 9 14 12
f 10 15 11
f 11 15 16
f 13 17 14
f 13 18 17
f 15 19 16
f 15 20 19
f 17 18 21
f 18 22 21
f 19 20 23
f 20 24 23
f 21 22 26
f 21 26 25
f 23 24 27
f 24 28 29
f 24 29 30
f 24 30 27
f 25 26 29
f 25 29 28

