# https://github.com/mikedh/trimesh
v 0.02943424 0.01642944 0.02906305
v 0.02943386 0.01642944 0.03198962
v 0.02943424 0.01397339 0.02906305
v 0.02943424 0.01642944 0.02688510
v 0.02942904 0.01657445 0.02688510
v 0.02939786 0.01704966 0.03243510
v 0.02943201 0.01642944 0.03243510
v 0.02943238 0.01598455 0.03243510
v 0.02943386 0.01402636 0.03198962
v 0.02940268 0.01704930 0.02688510
v 0.02939934 0.01704966 0.03174841
v 0.02939897 0.01704966 0.03198962
v 0.02943238 0.01402636 0.03243510
v 0.02649349 0.01397339 0.02906305
v 0.02943424 0.01397339 0.02688510
v 0.02935554 0.01719321 0.02688510
v 0.02917439 0.01754350 0.02688510
v 0.02916362 0.01749967 0.03243510
v 0.02650165 0.01402636 0.03243510
v 0.02649349 0.01397339 0.02688510
v 0.02564192 0.01462905 0.03243510
v 0.02865320 0.01770458 0.02688510
v 0.02879686 0.01760085 0.03243510
v 0.02582976 0.01460275 0.02688510
v 0.02564192 0.01462905 0.03174841
v 0.02574401 0.01461480 0.02906305
v 0.02564192 0.01764030 0.03243510
v 0.02803328 0.01770495 0.02688510
v 0.02865283 0.01764030 0.03243510
v 0.02582976 0.01770495 0.02688510
v 0.02564192 0.01764030 0.03174841
v 0.02574401 0.01764030 0.02906305
f 1 2 9
f 1 9 3
f 1 3 15
f 1 15 4
f 1 4 5
f 1 5 2
f 2 6 7
f 2 7 8
f 2 8 13
f 2 13 9
f 2 5 10
f 2 10 11
f 2 11 12
f 2 12 6
f 3 9 13
f 3 13 19
f 3 19 14
f 3 14 20
f 3 20 15
f 4 15 20
f 4 20 24
f 4 24 30
f 4 30 28
f 4 28 22
f 4 22 17
f 4 17 16
f 4 16 10
f 4 10 5
f 6 12 16
f 6 16 17
f 6 17 18
f 6 18 23
f 6 23 29
f 6 29 27
f 6 27 21
f 6 21 19
f 6 19 13
f 6 13 8
f 6 8 7
f 10 16 11
f 11 16 12
f 14 19 21
f 14 21 25
f 14 25 20
f 17 22 18
f 18 22 23
f 20 25 26
f 20 26 24
f 21 27 31
f 21 31 25
f 22 28 29
f 22 29 23
f 24 26 32
f 24 32 30
f 25 31 32
f 25 32 26
f 27 29 28
f 27 28 30
f 27 30 31
f 30 32 31

