# https://github.com/mikedh/trimesh
v 0.02427835 0.00940174 0.01949176
v 0.02399057 0.00940174 0.01962234
v 0.02259726 0.01047897 0.01980301
v 0.02248698 0.01085012 0.01971689
v 0.02307377 0.01085012 0.01953061
v 0.02307377 0.01147033 0.01945947
v 0.02427835 0.01026531 0.01947398
v 0.02427835 0.00940174 0.02424049
v 0.02382765 0.00940174 0.01969630
v 0.02370883 0.00940174 0.02003703
v 0.02364994 0.00940174 0.02021020
v 0.02251423 0.01044844 0.02021020
v 0.02220939 0.01085012 0.02021020
v 0.02215446 0.01147033 0.02021020
v 0.02245992 0.01147033 0.01967991
v 0.02307377 0.01270994 0.01945947
v 0.02369343 0.01147033 0.01945947
v 0.02427835 0.01088552 0.01946274
v 0.02427835 0.01355927 0.02424049
v 0.02364828 0.00940174 0.02424049
v 0.02364828 0.00940174 0.02062208
v 0.02220856 0.01085012 0.02083035
v 0.02251423 0.01044844 0.02424049
v 0.02236109 0.01064948 0.02424049
v 0.02215259 0.01147033 0.02083035
v 0.02234694 0.01355927 0.01987602
v 0.02215446 0.01355927 0.02021020
v 0.02245992 0.01355927 0.01967991
v 0.02369343 0.01208973 0.01945947
v 0.02284675 0.01355927 0.01955027
v 0.02307377 0.01355927 0.01947866
v 0.02427835 0.01150492 0.01946321
v 0.02215259 0.01355927 0.02424049
v 0.02427835 0.01355927 0.02188344
v 0.02220856 0.01085012 0.02424049
v 0.02215259 0.01355927 0.02083035
v 0.02215259 0.01147033 0.02424049
v 0.02349742 0.01355927 0.01960784
v 0.02369343 0.01270994 0.01948989
v 0.02427835 0.01212513 0.01955869
v 0.02427835 0.01292685 0.02002673
v 0.02393231 0.01355927 0.02021020
v 0.02368053 0.01355927 0.01968459
v 0.02427835 0.01268104 0.01973702
v 0.02427835 0.01270424 0.01974497
v 0.02408275 0.01315841 0.01979412
f 1 2 3
f 1 3 4
f 1 4 5
f 1 5 6
f 1 6 7
f 1 7 18
f 1 18 32
f 1 32 40
f 1 40 44
f 1 44 45
f 1 45 41
f 1 41 34
f 1 34 19
f 1 19 8
f 1 8 20
f 1 20 21
f 1 21 11
f 1 11 10
f 1 10 9
f 1 9 2
f 2 9 3
f 3 10 11
f 3 11 12
f 3 12 13
f 3 13 4
f 3 9 10
f 4 13 14
f 4 14 15
f 4 15 6
f 4 6 5
f 6 16 29
f 6 29 17
f 6 17 18
f 6 18 7
f 6 15 28
f 6 28 16
f 8 19 33
f 8 33 37
f 8 37 35
f 8 35 24
f 8 24 23
f 8 23 20
f 11 21 12
f 12 22 13
f 12 21 20
f 12 20 23
f 12 23 24
f 12 24 22
f 13 22 25
f 13 25 14
f 14 26 15
f 14 25 36
f 14 36 27
f 14 27 26
f 15 26 28
f 16 28 30
f 16 30 31
f 16 31 29
f 17 29 18
f 18 29 32
f 19 34 42
f 19 42 43
f 19 43 38
f 19 38 31
f 19 31 30
f 19 30 28
f 19 28 26
f 19 26 27
f 19 27 36
f 19 36 33
f 22 24 35
f 22 35 37
f 22 37 25
f 25 37 33
f 25 33 36
f 29 31 32
f 31 38 39
f 31 39 32
f 32 39 40
f 34 41 42
f 38 40 39
f 38 43 40
f 40 43 44
f 41 45 46
f 41 46 42
f 42 46 43
f 43 46 45
f 43 45 44

