# https://github.com/mikedh/trimesh
v 0.02865356 0.01226885 0.01945900
v 0.02865356 0.01271006 0.01945900
v 0.02919522 0.01226885 0.01967952
v 0.02803338 0.01226885 0.01946210
v 0.02865356 0.01391131 0.01946852
v 0.02868708 0.01391131 0.01948155
v 0.02919522 0.01391131 0.01967952
v 0.02920992 0.01391131 0.01971262
v 0.02936284 0.01226885 0.02005706
v 0.02803338 0.01271006 0.01946914
v 0.02740967 0.01226885 0.01956843
v 0.02798133 0.01391131 0.01971635
v 0.02943077 0.01391131 0.02021014
v 0.02943077 0.01226885 0.02021014
v 0.02691211 0.01226885 0.01975441
v 0.02794545 0.01391131 0.01974365
v 0.02943459 0.01391131 0.02082992
v 0.02943459 0.01226885 0.02082992
v 0.02664628 0.01226885 0.02021014
v 0.02771608 0.01372432 0.01988619
v 0.02771549 0.01391131 0.02021014
v 0.02943459 0.01391131 0.02157217
v 0.02943459 0.01226885 0.02157217
v 0.02643044 0.01226885 0.02157217
v 0.02751288 0.01391131 0.02157217
f 1 2 7
f 1 7 3
f 1 3 9
f 1 9 14
f 1 14 18
f 1 18 23
f 1 23 24
f 1 24 19
f 1 19 15
f 1 15 11
f 1 11 4
f 1 4 2
f 2 4 5
f 2 5 6
f 2 6 7
f 3 7 8
f 3 8 9
f 4 10 5
f 4 11 10
f 5 12 16
f 5 16 21
f 5 21 25
f 5 25 22
f 5 22 17
f 5 17 13
f 5 13 8
f 5 8 7
f 5 7 6
f 5 10 11
f 5 11 12
f 8 13 9
f 9 13 14
f 11 15 12
f 12 15 16
f 13 17 18
f 13 18 14
f 15 19 20
f 15 20 16
f 16 20 21
f 17 22 23
f 17 23 18
f 19 24 21
f 19 21 20
f 21 24 25
f 22 25 24
f 22 24 23

