# https://github.com/mikedh/trimesh
v 0.02506362 -0.01396521 0.02449779
v 0.02580546 -0.01460629 0.02449779
v 0.02506362 -0.01396521 0.02330949
v 0.02215283 -0.01396521 0.02449779
v 0.02580546 -0.01460629 0.02330949
v 0.02580546 -0.01676526 0.02449779
v 0.02504678 -0.01396521 0.02269019
v 0.02215283 -0.01396521 0.02179411
v 0.02214639 -0.01676526 0.02330976
v 0.02214854 -0.01676526 0.02394822
v 0.02215248 -0.01645883 0.02449779
v 0.02580546 -0.01461232 0.02305826
v 0.02580546 -0.01676526 0.02177921
v 0.02215283 -0.01676526 0.02449779
v 0.02482828 -0.01396521 0.02221807
v 0.02580546 -0.01462136 0.02269019
v 0.02580546 -0.01475868 0.02228274
v 0.02396249 -0.01396521 0.02179411
v 0.02458541 -0.01534358 0.02177921
v 0.02214639 -0.01676526 0.02179411
v 0.02580546 -0.01568481 0.02177921
v 0.02458720 -0.01676526 0.02177921
v 0.02432894 -0.01396521 0.02195539
v 0.02431282 -0.01396521 0.02194820
v 0.02458541 -0.01668851 0.02177921
f 1 2 5
f 1 5 3
f 1 3 7
f 1 7 15
f 1 15 23
f 1 23 24
f 1 24 18
f 1 18 8
f 1 8 4
f 1 4 11
f 1 11 14
f 1 14 6
f 1 6 2
f 2 6 13
f 2 13 21
f 2 21 17
f 2 17 16
f 2 16 12
f 2 12 5
f 3 5 7
f 4 8 20
f 4 20 9
f 4 9 10
f 4 10 11
f 5 12 7
f 6 14 10
f 6 10 9
f 6 9 20
f 6 20 22
f 6 22 13
f 7 12 16
f 7 16 17
f 7 17 15
f 8 18 19
f 8 19 20
f 10 14 11
f 13 22 25
f 13 25 19
f 13 19 21
f 15 17 23
f 17 21 23
f 18 24 21
f 18 21 19
f 19 25 20
f 20 25 22
f 21 24 23

