# https://github.com/mikedh/trimesh
v 0.02580582 -0.01676502 0.02140051
v 0.02580582 -0.01580795 0.02140051
v 0.02648791 -0.01676502 0.02140051
v 0.02580582 -0.01676502 0.02449775
v 0.02648791 -0.01571497 0.02140051
v 0.02580582 -0.01475839 0.02228283
v 0.02648791 -0.01462276 0.02222250
v 0.02648791 -0.01676502 0.02449775
v 0.02580582 -0.01460614 0.02449775
v 0.02580582 -0.01462132 0.02269004
v 0.02648791 -0.01432887 0.02269004
v 0.02648791 -0.01430430 0.02449775
v 0.02580582 -0.01460614 0.02330979
v 0.02580582 -0.01461192 0.02305752
v 0.02648791 -0.01430479 0.02330979
v 0.02648791 -0.01430430 0.02392985
f 1 2 5
f 1 5 3
f 1 3 8
f 1 8 4
f 1 4 9
f 1 9 13
f 1 13 14
f 1 14 10
f 1 10 6
f 1 6 2
f 2 6 7
f 2 7 5
f 3 5 7
f 3 7 11
f 3 11 15
f 3 15 16
f 3 16 12
f 3 12 8
f 4 8 12
f 4 12 9
f 6 10 11
f 6 11 7
f 9 12 16
f 9 16 13
f 10 14 15
f 10 15 11
f 13 16 15
f 13 15 14

