# https://github.com/mikedh/trimesh
v 0.02506075 -0.01394903 0.03265526
v 0.02506075 -0.01394903 0.03243507
v 0.02504069 -0.01394903 0.03265526
v 0.02560411 -0.01463387 0.03265526
v 0.02564118 -0.01462881 0.03243507
v 0.02564118 -0.01462881 0.03174897
v 0.02506729 -0.01398625 0.03174897
v 0.02179144 -0.01394903 0.03243507
v 0.02118616 -0.01394903 0.03265366
v 0.02118616 -0.01435162 0.03265526
v 0.02560411 -0.01764100 0.03265526
v 0.02564118 -0.01764064 0.03243507
v 0.02564118 -0.01764064 0.03174897
v 0.02213856 -0.01398625 0.03174897
v 0.02118616 -0.01642962 0.03265366
v 0.02118616 -0.01656839 0.03265526
v 0.02560411 -0.01764100 0.03243507
v 0.02307396 -0.01764100 0.03265526
v 0.02307396 -0.01764064 0.03174897
v 0.02213856 -0.01642962 0.03174897
v 0.02123064 -0.01704940 0.03265526
v 0.02215470 -0.01704976 0.03174897
v 0.02307396 -0.01764100 0.03243507
v 0.02245429 -0.01757161 0.03265526
v 0.02175743 -0.01746862 0.03265526
v 0.02283891 -0.01758607 0.03174897
v 0.02242681 -0.01748488 0.03174897
f 1 2 8
f 1 8 9
f 1 9 3
f 1 3 10
f 1 10 16
f 1 16 21
f 1 21 25
f 1 25 24
f 1 24 18
f 1 18 11
f 1 11 4
f 1 4 5
f 1 5 6
f 1 6 2
f 2 6 7
f 2 7 14
f 2 14 8
f 3 9 10
f 4 11 12
f 4 12 5
f 5 12 13
f 5 13 6
f 6 13 19
f 6 19 26
f 6 26 27
f 6 27 22
f 6 22 20
f 6 20 14
f 6 14 7
f 8 14 9
f 9 14 20
f 9 20 15
f 9 15 16
f 9 16 10
f 11 17 13
f 11 13 12
f 11 18 23
f 11 23 17
f 13 17 23
f 13 23 19
f 15 20 16
f 16 20 22
f 16 22 21
f 18 24 23
f 19 23 24
f 19 24 25
f 19 25 26
f 21 22 27
f 21 27 25
f 25 27 26

