# https://github.com/mikedh/trimesh
v 0.01810981 0.00002073 0.02702752
v 0.01810981 0.00002073 0.02418280
v 0.01563424 0.00002073 0.02255900
v 0.01467442 -0.00014480 0.02516969
v 0.01667041 -0.00014571 0.02702752
v 0.01780579 -0.00224579 0.02702752
v 0.01810981 -0.00462510 0.02516969
v 0.01717622 0.00002073 0.02274360
v 0.01810981 -0.00187380 0.02272567
v 0.01563424 -0.00093063 0.02255900
v 0.01497642 -0.00087787 0.02282016
v 0.01485132 -0.00020665 0.02290546
v 0.01639800 0.00002073 0.02256906
v 0.01810981 -0.00278923 0.02255900
v 0.01473092 -0.00079965 0.02331053
v 0.01472957 -0.00079965 0.02516969
v 0.01470267 -0.00032216 0.02587966
v 0.01515568 -0.00155001 0.02621650
v 0.01682612 -0.00093244 0.02702752
v 0.01628971 -0.00337860 0.02619331
v 0.01783337 -0.00445229 0.02598421
v 0.01715974 -0.00159958 0.02702752
v 0.01743047 -0.00436589 0.02516969
v 0.01810981 -0.00462465 0.02330878
v 0.01625372 -0.00217030 0.02255900
v 0.01625372 -0.00278923 0.02261368
v 0.01537999 -0.00155001 0.02268761
v 0.01532719 -0.00222669 0.02306206
v 0.01492497 -0.00155001 0.02331053
v 0.01810981 -0.00425492 0.02271298
v 0.01780175 -0.00340953 0.02255900
v 0.01484123 -0.00125260 0.02393040
v 0.01493842 -0.00155001 0.02547984
v 0.01525085 -0.00217349 0.02598246
v 0.01570251 -0.00288382 0.02593391
v 0.01618142 -0.00349411 0.02578955
v 0.01678139 -0.00391886 0.02593172
v 0.01687320 -0.00404937 0.02516969
v 0.01707432 -0.00417261 0.02393040
v 0.01687320 -0.00404892 0.02331053
v 0.01749706 -0.00430177 0.02307213
v 0.01687320 -0.00364646 0.02273179
v 0.01630989 -0.00351048 0.02302269
v 0.01568772 -0.00288610 0.02314299
v 0.01544591 -0.00262734 0.02393040
v 0.01525388 -0.00231082 0.02516969
v 0.01571159 -0.00299024 0.02516969
v 0.01632939 -0.00364236 0.02516969
f 1 2 8
f 1 8 13
f 1 13 3
f 1 3 4
f 1 4 5
f 1 5 19
f 1 19 22
f 1 22 6
f 1 6 7
f 1 7 24
f 1 24 30
f 1 30 14
f 1 14 9
f 1 9 2
f 2 9 8
f 3 10 11
f 3 11 12
f 3 12 4
f 3 13 14
f 3 14 31
f 3 31 25
f 3 25 10
f 4 12 15
f 4 15 16
f 4 16 17
f 4 17 5
f 5 17 18
f 5 18 19
f 6 20 21
f 6 21 7
f 6 22 20
f 7 21 23
f 7 23 24
f 8 9 14
f 8 14 13
f 10 25 26
f 10 26 27
f 10 27 11
f 11 15 12
f 11 27 28
f 11 28 29
f 11 29 15
f 14 30 31
f 15 29 32
f 15 32 16
f 16 32 33
f 16 33 17
f 17 33 34
f 17 34 18
f 18 34 20
f 18 20 22
f 18 22 19
f 20 34 35
f 20 35 36
f 20 36 37
f 20 37 21
f 21 37 23
f 23 37 38
f 23 38 39
f 23 39 24
f 24 39 40
f 24 40 41
f 24 41 30
f 25 31 26
f 26 31 30
f 26 30 42
f 26 42 43
f 26 43 44
f 26 44 28
f 26 28 27
f 28 44 45
f 28 45 29
f 29 33 32
f 29 45 46
f 29 46 33
f 30 41 42
f 33 46 34
f 34 46 35
f 35 46 47
f 35 47 36
f 36 47 48
f 36 48 38
f 36 38 37
f 38 48 40
f 38 40 39
f 40 48 43
f 40 43 41
f 41 43 42
f 43 48 44
f 44 47 45
f 44 48 47
f 45 47 46

