# https://github.com/mikedh/trimesh
v 0.02564118 0.01764100 0.03243510
v 0.02564118 0.01462860 0.03243510
v 0.02564118 0.01764100 0.03174897
v 0.02307381 0.01764100 0.03243510
v 0.02564118 0.01462860 0.03174897
v 0.02506680 0.01398214 0.03243510
v 0.02307381 0.01764100 0.03174897
v 0.02262870 0.01758763 0.03243510
v 0.02506680 0.01398214 0.03174897
v 0.02179126 0.01398214 0.03243510
v 0.02242669 0.01748485 0.03174897
v 0.02204679 0.01746730 0.03243510
v 0.02213837 0.01398214 0.03174897
v 0.02179126 0.01581014 0.03243510
v 0.02230157 0.01730076 0.03174897
v 0.02201098 0.01741572 0.03243510
v 0.02213837 0.01642974 0.03174897
v 0.02179163 0.01642974 0.03243510
v 0.02215458 0.01704969 0.03174897
v 0.02183196 0.01704969 0.03243510
v 0.02182216 0.01699239 0.03243510
f 1 2 5
f 1 5 3
f 1 3 7
f 1 7 4
f 1 4 8
f 1 8 12
f 1 12 16
f 1 16 20
f 1 20 21
f 1 21 18
f 1 18 14
f 1 14 10
f 1 10 6
f 1 6 2
f 2 6 9
f 2 9 5
f 3 5 9
f 3 9 13
f 3 13 17
f 3 17 19
f 3 19 15
f 3 15 11
f 3 11 7
f 4 7 8
f 6 10 13
f 6 13 9
f 7 11 12
f 7 12 8
f 10 14 17
f 10 17 13
f 11 15 16
f 11 16 12
f 14 18 17
f 15 19 16
f 16 19 20
f 17 18 19
f 18 21 19
f 19 21 20

