# https://github.com/mikedh/trimesh
v 0.02560422 -0.01035900 0.03265526
v 0.02560422 -0.01334952 0.03265526
v 0.02560422 -0.01035900 0.03243510
v 0.02307381 -0.01035900 0.03265526
v 0.02560422 -0.01334952 0.03243510
v 0.02506094 -0.01394868 0.03265526
v 0.02307381 -0.01035900 0.03243510
v 0.02302839 -0.01035935 0.03265526
v 0.02506094 -0.01394868 0.03243510
v 0.02504104 -0.01394868 0.03265526
v 0.02256642 -0.01041698 0.03243510
v 0.02213214 -0.01044545 0.03265526
v 0.02179129 -0.01394868 0.03243510
v 0.02118616 -0.01375610 0.03265526
v 0.02118616 -0.01394868 0.03265368
v 0.02243493 -0.01043807 0.03243510
v 0.02191025 -0.01048797 0.03265526
v 0.02179129 -0.01209006 0.03243510
v 0.02118616 -0.01144416 0.03265526
v 0.02118616 -0.01147017 0.03265368
v 0.02209538 -0.01056352 0.03243510
v 0.02153566 -0.01063662 0.03265526
v 0.02179173 -0.01147017 0.03243510
v 0.02132933 -0.01084536 0.03265526
v 0.02189424 -0.01082216 0.03243510
f 1 2 5
f 1 5 3
f 1 3 7
f 1 7 4
f 1 4 8
f 1 8 12
f 1 12 17
f 1 17 22
f 1 22 24
f 1 24 19
f 1 19 14
f 1 14 10
f 1 10 6
f 1 6 2
f 2 6 9
f 2 9 5
f 3 5 9
f 3 9 13
f 3 13 18
f 3 18 23
f 3 23 25
f 3 25 21
f 3 21 16
f 3 16 11
f 3 11 7
f 4 7 8
f 6 10 15
f 6 15 13
f 6 13 9
f 7 11 12
f 7 12 8
f 10 14 15
f 11 16 12
f 12 16 17
f 13 15 20
f 13 20 18
f 14 19 20
f 14 20 15
f 16 21 17
f 17 21 22
f 18 20 23
f 19 24 25
f 19 25 20
f 20 25 23
f 21 25 24
f 21 24 22

