# https://github.com/mikedh/trimesh
v 0.00865259 -0.01704960 0.03650360
v 0.00865695 -0.01673905 0.03338541
v 0.00911607 -0.01810702 0.03416029
v 0.00916965 -0.01824989 0.03508975
v 0.00911047 -0.01812755 0.03650360
v 0.00870056 -0.01178050 0.03650360
v 0.00865259 -0.00960065 0.03508975
v 0.00865259 -0.00960065 0.03323003
v 0.00916155 -0.01611880 0.03250749
v 0.00918958 -0.01729770 0.03268477
v 0.00918771 -0.01793592 0.03324504
v 0.01315286 -0.01827641 0.03385034
v 0.01315286 -0.01833972 0.03477979
v 0.01346309 -0.01832517 0.03650360
v 0.00918834 -0.01085312 0.03650360
v 0.00912168 -0.00960065 0.03611251
v 0.00915906 -0.00960065 0.03250586
v 0.01005425 -0.01611880 0.03236346
v 0.01005425 -0.01704960 0.03247746
v 0.01005425 -0.00960065 0.03235900
v 0.01330798 -0.01748420 0.03275861
v 0.01387736 -0.01807707 0.03346615
v 0.01400009 -0.01821995 0.03477979
v 0.01427793 -0.01803088 0.03610642
v 0.01478439 -0.01679894 0.03640299
v 0.01455452 -0.01271044 0.03650360
v 0.01005425 -0.01074789 0.03650360
v 0.01315286 -0.00960065 0.03629102
v 0.01346309 -0.01611880 0.03236793
v 0.01315286 -0.00960065 0.03235900
v 0.01501676 -0.01674162 0.03266003
v 0.01501676 -0.01756034 0.03301420
v 0.01501676 -0.01765189 0.03416029
v 0.01501676 -0.01765189 0.03540213
v 0.01501676 -0.01061871 0.03610724
v 0.01477318 -0.01178050 0.03642652
v 0.01403996 -0.01084713 0.03650360
v 0.01315286 -0.01074789 0.03650360
v 0.01402189 -0.00960065 0.03610074
v 0.01377271 -0.01116110 0.03236833
v 0.01399074 -0.00960065 0.03253670
v 0.01501676 -0.01581339 0.03265516
v 0.01501676 -0.01032441 0.03508975
v 0.01434521 -0.00960065 0.03508975
v 0.01501676 -0.01147080 0.03265516
v 0.01434458 -0.00960065 0.03353268
v 0.01501676 -0.01062299 0.03286166
v 0.01501676 -0.01032441 0.03384629
f 1 2 3
f 1 3 4
f 1 4 5
f 1 5 14
f 1 14 26
f 1 26 37
f 1 37 38
f 1 38 27
f 1 27 15
f 1 15 6
f 1 6 7
f 1 7 8
f 1 8 2
f 2 9 10
f 2 10 11
f 2 11 3
f 2 8 9
f 3 11 12
f 3 12 4
f 4 12 13
f 4 13 14
f 4 14 5
f 6 15 16
f 6 16 7
f 7 16 28
f 7 28 39
f 7 39 44
f 7 44 46
f 7 46 41
f 7 41 30
f 7 30 20
f 7 20 17
f 7 17 8
f 8 17 9
f 9 18 19
f 9 19 10
f 9 17 20
f 9 20 18
f 10 19 21
f 10 21 11
f 11 22 12
f 11 21 22
f 12 23 13
f 12 22 23
f 13 23 14
f 14 23 24
f 14 24 25
f 14 25 26
f 15 27 28
f 15 28 16
f 18 29 19
f 18 20 30
f 18 30 29
f 19 29 21
f 21 29 31
f 21 31 32
f 21 32 22
f 22 32 23
f 23 32 33
f 23 33 34
f 23 34 24
f 24 34 25
f 25 34 35
f 25 35 36
f 25 36 26
f 26 36 37
f 27 38 28
f 28 38 37
f 28 37 39
f 29 30 40
f 29 40 31
f 30 41 40
f 31 40 42
f 31 42 45
f 31 45 47
f 31 47 48
f 31 48 43
f 31 43 35
f 31 35 34
f 31 34 33
f 31 33 32
f 35 43 44
f 35 44 39
f 35 39 37
f 35 37 36
f 40 41 45
f 40 45 42
f 41 46 47
f 41 47 45
f 43 48 44
f 44 48 46
f 46 48 47

