# https://github.com/mikedh/trimesh
v 0.02865264 -0.00963382 0.02636132
v 0.02360789 0.00084356 0.02634173
v 0.02360789 -0.00030982 0.02634173
v 0.02360789 -0.00250107 0.02633632
v 0.02407557 -0.00963382 0.02629511
v 0.02926006 -0.00963382 0.02601877
v 0.02926747 0.00940174 0.02600661
v 0.02865264 0.00940174 0.02634781
v 0.02360789 0.00212552 0.02634037
v 0.02360789 -0.00338242 0.02623430
v 0.02367177 -0.00963382 0.02578905
v 0.02943345 -0.00963382 0.02518098
v 0.02943459 0.00940174 0.02516882
v 0.02404820 0.00940174 0.02627551
v 0.02360789 0.00274600 0.02633294
v 0.02360789 -0.00385011 0.02552893
v 0.02363983 -0.00963382 0.02516882
v 0.02943459 -0.00963382 0.02083055
v 0.02943459 0.00940174 0.02083055
v 0.02368146 0.00940174 0.02578905
v 0.02360789 0.00334599 0.02624308
v 0.02360789 -0.00390414 0.02348310
v 0.02363983 -0.00963382 0.02083055
v 0.02931481 -0.00963382 0.01995086
v 0.02933249 0.00940174 0.01999005
v 0.02364952 0.00940174 0.02516882
v 0.02360789 0.00380995 0.02578905
v 0.02360789 -0.00389296 0.02287638
v 0.02373279 -0.00963382 0.01995357
v 0.02360789 -0.00355384 0.02221628
v 0.02360789 -0.00277871 0.02208521
v 0.02360789 -0.00216941 0.02207710
v 0.02360789 0.00217956 0.02207710
v 0.02364952 0.00940174 0.02062245
v 0.02865264 -0.00963382 0.01945900
v 0.02865264 0.00940174 0.01945900
v 0.02360789 0.00390312 0.02516882
v 0.02431455 -0.00898911 0.01947522
v 0.02432596 -0.00963382 0.01947657
v 0.02375447 0.00929739 0.01991033
v 0.02360789 0.00278886 0.02208588
v 0.02493452 0.00940174 0.01945900
v 0.02360789 0.00340934 0.02222168
v 0.02360789 0.00381927 0.02268787
v 0.02360789 0.00390125 0.02330946
v 0.02360789 0.00390312 0.02392902
v 0.02493452 -0.00963382 0.01945900
v 0.02431455 0.00919491 0.01947589
f 1 2 3
f 1 3 4
f 1 4 5
f 1 5 11
f 1 11 17
f 1 17 23
f 1 23 29
f 1 29 39
f 1 39 47
f 1 47 35
f 1 35 24
f 1 24 18
f 1 18 12
f 1 12 6
f 1 6 7
f 1 7 8
f 1 8 2
f 2 8 9
f 2 9 15
f 2 15 21
f 2 21 27
f 2 27 37
f 2 37 46
f 2 46 45
f 2 45 44
f 2 44 43
f 2 43 41
f 2 41 33
f 2 33 32
f 2 32 31
f 2 31 30
f 2 30 28
f 2 28 22
f 2 22 16
f 2 16 10
f 2 10 4
f 2 4 3
f 4 10 11
f 4 11 5
f 6 12 7
f 7 13 19
f 7 19 25
f 7 25 36
f 7 36 42
f 7 42 34
f 7 34 26
f 7 26 20
f 7 20 14
f 7 14 8
f 7 12 13
f 8 14 9
f 9 14 15
f 10 16 17
f 10 17 11
f 12 18 13
f 13 18 19
f 14 20 15
f 15 20 21
f 16 22 17
f 17 22 23
f 18 24 25
f 18 25 19
f 20 26 21
f 21 26 27
f 22 28 23
f 23 28 30
f 23 30 31
f 23 31 32
f 23 32 33
f 23 33 34
f 23 34 29
f 24 35 36
f 24 36 25
f 26 34 46
f 26 46 37
f 26 37 27
f 29 38 39
f 29 34 40
f 29 40 38
f 33 41 34
f 34 42 40
f 34 41 43
f 34 43 44
f 34 44 45
f 34 45 46
f 35 47 42
f 35 42 36
f 38 47 39
f 38 40 48
f 38 48 42
f 38 42 47
f 40 42 48

