# https://github.com/mikedh/trimesh
v 0.02493334 -0.01782529 0.02655579
v 0.02431334 -0.01782150 0.02655579
v 0.02555298 -0.01782529 0.02655579
v 0.02307370 -0.01764059 0.03174847
v 0.02369549 -0.01775816 0.02655579
v 0.02580148 -0.01592257 0.02655579
v 0.02580148 -0.01782415 0.02655681
v 0.02575522 -0.01764059 0.03174847
v 0.02283882 -0.01758598 0.03174847
v 0.02307406 -0.01765311 0.02655579
v 0.02580148 -0.01460693 0.02655579
v 0.02580148 -0.01765273 0.02703007
v 0.02580148 -0.01584671 0.02703109
v 0.02575522 -0.01461338 0.03174847
v 0.02246876 -0.01750027 0.03136975
v 0.02242681 -0.01748472 0.03174847
v 0.02246876 -0.01750027 0.02655579
v 0.02507247 -0.01401074 0.02655579
v 0.02506064 -0.01395120 0.02703109
v 0.02580148 -0.01460693 0.02703007
v 0.02506064 -0.01395120 0.03174847
v 0.02215464 -0.01704971 0.03174847
v 0.02216324 -0.01704933 0.02655579
v 0.02215320 -0.01401074 0.02655579
v 0.02215285 -0.01395120 0.02703109
v 0.02213814 -0.01395120 0.03174847
v 0.02213850 -0.01642963 0.03174847
v 0.02215320 -0.01642963 0.02655579
v 0.02213814 -0.01580993 0.03174847
f 1 2 5
f 1 5 10
f 1 10 17
f 1 17 23
f 1 23 28
f 1 28 24
f 1 24 18
f 1 18 11
f 1 11 6
f 1 6 3
f 1 3 8
f 1 8 4
f 1 4 2
f 2 4 5
f 3 6 7
f 3 7 8
f 4 8 14
f 4 14 21
f 4 21 26
f 4 26 29
f 4 29 27
f 4 27 22
f 4 22 16
f 4 16 9
f 4 9 10
f 4 10 5
f 6 11 20
f 6 20 13
f 6 13 12
f 6 12 7
f 7 12 8
f 8 13 14
f 8 12 13
f 9 15 10
f 9 16 15
f 10 15 17
f 11 18 19
f 11 19 21
f 11 21 20
f 13 20 14
f 14 20 21
f 15 16 17
f 16 22 23
f 16 23 17
f 18 24 25
f 18 25 19
f 19 25 26
f 19 26 21
f 22 27 23
f 23 27 28
f 24 28 29
f 24 29 26
f 24 26 25
f 27 29 28

