# https://github.com/mikedh/trimesh
v 0.02506680 0.01398179 0.03243510
v 0.02564118 0.01335440 0.03243510
v 0.02506680 0.01398179 0.03174897
v 0.02179126 0.01398179 0.03243510
v 0.02564118 0.01035900 0.03243510
v 0.02564118 0.01335440 0.03174897
v 0.02213837 0.01398179 0.03174897
v 0.02179126 0.01209006 0.03243510
v 0.02564118 0.01035900 0.03174897
v 0.02307381 0.01035900 0.03243510
v 0.02213837 0.01147013 0.03174897
v 0.02179163 0.01147013 0.03243510
v 0.02307381 0.01035900 0.03174897
v 0.02243498 0.01043809 0.03243510
v 0.02219641 0.01083140 0.03174897
v 0.02189566 0.01084452 0.03243510
v 0.02251112 0.01044979 0.03174897
v 0.02227631 0.01052888 0.03243510
v 0.02229817 0.01069805 0.03174897
v 0.02196312 0.01075337 0.03243510
v 0.02217757 0.01059697 0.03233711
f 1 2 6
f 1 6 3
f 1 3 7
f 1 7 4
f 1 4 8
f 1 8 12
f 1 12 16
f 1 16 20
f 1 20 18
f 1 18 14
f 1 14 10
f 1 10 5
f 1 5 2
f 2 5 9
f 2 9 6
f 3 6 9
f 3 9 13
f 3 13 17
f 3 17 19
f 3 19 15
f 3 15 11
f 3 11 7
f 4 7 11
f 4 11 8
f 5 10 13
f 5 13 9
f 8 11 12
f 10 14 13
f 11 15 12
f 12 15 16
f 13 14 17
f 14 18 17
f 15 19 20
f 15 20 16
f 17 18 21
f 17 21 20
f 17 20 19
f 18 20 21

