# https://github.com/mikedh/trimesh
v 0.02333522 -0.01805977 0.02449805
v 0.02347424 -0.01839270 0.02449805
v 0.02391862 -0.01867038 0.02617039
v 0.02361029 -0.01805977 0.02578987
v 0.02940393 -0.01805977 0.02449805
v 0.02369227 -0.01879820 0.02449805
v 0.02386812 -0.01871302 0.02578987
v 0.02421924 -0.01902294 0.02449805
v 0.02431370 -0.01882611 0.02578987
v 0.02431370 -0.01870561 0.02620561
v 0.02431370 -0.01805977 0.02645004
v 0.02378614 -0.01805977 0.02630706
v 0.02369821 -0.01805977 0.02607507
v 0.02940393 -0.01805977 0.02517009
v 0.02938967 -0.01823812 0.02449805
v 0.02431370 -0.01903950 0.02449805
v 0.02483591 -0.01904248 0.02449805
v 0.02493394 -0.01904296 0.02449805
v 0.02865358 -0.01882611 0.02578987
v 0.02493394 -0.01805977 0.02645349
v 0.02461906 -0.01805977 0.02645176
v 0.02865358 -0.01870561 0.02620561
v 0.02937185 -0.01805977 0.02578987
v 0.02938551 -0.01829000 0.02517009
v 0.02938551 -0.01829000 0.02449805
v 0.02555417 -0.01904296 0.02449805
v 0.02865358 -0.01884093 0.02517009
v 0.02914074 -0.01871302 0.02578987
v 0.02907539 -0.01867038 0.02617039
v 0.02607579 -0.01903478 0.02449805
v 0.02617382 -0.01903170 0.02449805
v 0.02803334 -0.01805977 0.02645349
v 0.02865358 -0.01805977 0.02645004
v 0.02916569 -0.01805977 0.02629021
v 0.02935165 -0.01829000 0.02578987
v 0.02915025 -0.01872043 0.02517009
v 0.02915025 -0.01872043 0.02449805
v 0.02865358 -0.01884093 0.02449805
v 0.02910866 -0.01873054 0.02449805
f 1 2 3
f 1 3 4
f 1 4 13
f 1 13 12
f 1 12 11
f 1 11 21
f 1 21 20
f 1 20 32
f 1 32 33
f 1 33 34
f 1 34 23
f 1 23 14
f 1 14 5
f 1 5 15
f 1 15 25
f 1 25 37
f 1 37 39
f 1 39 38
f 1 38 31
f 1 31 30
f 1 30 26
f 1 26 18
f 1 18 17
f 1 17 16
f 1 16 8
f 1 8 6
f 1 6 2
f 2 6 7
f 2 7 3
f 3 7 8
f 3 8 9
f 3 9 10
f 3 10 11
f 3 11 12
f 3 12 13
f 3 13 4
f 5 14 15
f 6 8 7
f 8 16 9
f 9 16 17
f 9 17 18
f 9 18 26
f 9 26 19
f 9 19 22
f 9 22 10
f 10 20 21
f 10 21 11
f 10 22 32
f 10 32 20
f 14 23 24
f 14 24 15
f 15 24 25
f 19 27 28
f 19 28 29
f 19 29 22
f 19 26 30
f 19 30 31
f 19 31 27
f 22 29 33
f 22 33 32
f 23 34 35
f 23 35 24
f 24 35 28
f 24 28 36
f 24 36 37
f 24 37 25
f 27 38 39
f 27 39 36
f 27 36 28
f 27 31 38
f 28 35 29
f 29 35 34
f 29 34 33
f 36 39 37

