# https://github.com/mikedh/trimesh
v 0.02233383 0.00017488 0.02702901
v 0.02037482 0.00003918 0.02702901
v 0.02007846 0.00032744 0.02702840
v 0.02216315 0.00098172 0.02702840
v 0.02214504 0.00095507 0.02950971
v 0.02218346 0.00073969 0.02987349
v 0.02229048 0.00017488 0.02955419
v 0.02121342 0.00003918 0.03014100
v 0.02027823 0.00003918 0.02888968
v 0.01953047 0.00070325 0.02846557
v 0.01964983 0.00070271 0.02702870
v 0.01953047 0.00192207 0.02702840
v 0.02185225 0.00154979 0.02702840
v 0.02209455 0.00111034 0.02888968
v 0.02183139 0.00154979 0.02950971
v 0.02156933 0.00190902 0.02968520
v 0.02167306 0.00154979 0.02993077
v 0.02186898 0.00094011 0.02998043
v 0.02217852 0.00017488 0.02993565
v 0.02169775 0.00010717 0.03009195
v 0.02121342 0.00093032 0.03014100
v 0.01953047 0.00154979 0.03014100
v 0.02053892 0.00003918 0.02999536
v 0.02028619 0.00003918 0.02949295
v 0.01953047 0.00070380 0.02888968
v 0.01997391 0.00279118 0.02702840
v 0.01953047 0.00281729 0.02702962
v 0.02158442 0.00192370 0.02702840
v 0.02184017 0.00154979 0.02888968
v 0.02121342 0.00221876 0.02950971
v 0.02047937 0.00256167 0.02990975
v 0.02121342 0.00203792 0.02993077
v 0.02121342 0.00154979 0.03009134
v 0.02059380 0.00154979 0.03014100
v 0.01953047 0.00216954 0.03013643
v 0.01953047 0.00096758 0.02998470
v 0.01953047 0.00073888 0.02960751
v 0.02078232 0.00253747 0.02702840
v 0.01953047 0.00280804 0.02888968
v 0.01997391 0.00278085 0.02888968
v 0.02115772 0.00228864 0.02702840
v 0.02073265 0.00253638 0.02950971
v 0.01997391 0.00262612 0.02996703
v 0.02064923 0.00222664 0.03000207
v 0.01997391 0.00277677 0.02950971
v 0.01997391 0.00216954 0.03012790
v 0.01953047 0.00263917 0.02997586
v 0.01953047 0.00280424 0.02942135
f 1 2 3
f 1 3 4
f 1 4 5
f 1 5 6
f 1 6 7
f 1 7 8
f 1 8 2
f 2 9 10
f 2 10 11
f 2 11 3
f 2 8 23
f 2 23 24
f 2 24 9
f 3 12 26
f 3 26 38
f 3 38 41
f 3 41 28
f 3 28 13
f 3 13 4
f 3 11 12
f 4 13 14
f 4 14 5
f 5 15 6
f 5 14 15
f 6 15 16
f 6 16 17
f 6 17 18
f 6 18 19
f 6 19 7
f 7 19 20
f 7 20 8
f 8 21 34
f 8 34 22
f 8 22 23
f 8 20 21
f 9 24 25
f 9 25 10
f 10 25 37
f 10 37 36
f 10 36 22
f 10 22 35
f 10 35 47
f 10 47 48
f 10 48 39
f 10 39 27
f 10 27 12
f 10 12 11
f 12 27 26
f 13 28 29
f 13 29 14
f 14 29 15
f 15 29 16
f 16 29 28
f 16 28 30
f 16 30 31
f 16 31 32
f 16 32 17
f 17 32 33
f 17 33 18
f 18 33 20
f 18 20 19
f 20 33 21
f 21 33 34
f 22 34 35
f 22 36 23
f 23 36 37
f 23 37 24
f 24 37 25
f 26 27 39
f 26 39 40
f 26 40 38
f 28 41 30
f 30 41 38
f 30 38 42
f 30 42 31
f 31 43 44
f 31 44 32
f 31 42 45
f 31 45 43
f 32 44 33
f 33 44 46
f 33 46 34
f 34 46 35
f 35 46 47
f 38 40 45
f 38 45 42
f 39 48 45
f 39 45 40
f 43 45 47
f 43 47 46
f 43 46 44
f 45 48 47

