# https://github.com/mikedh/trimesh
v 0.01929988 -0.00482213 0.02393040
v 0.01929988 -0.00482213 0.02516969
v 0.01873343 -0.00476818 0.02393040
v 0.01873343 -0.00476639 0.02331053
v 0.01929988 -0.00481677 0.02331053
v 0.01929988 -0.00477318 0.02578955
v 0.01873343 -0.00472638 0.02578955
v 0.01873343 -0.00476818 0.02516969
v 0.01811015 -0.00462492 0.02516969
v 0.01811364 -0.00462564 0.02331053
v 0.01811015 -0.00462456 0.02330878
v 0.01811364 -0.00448309 0.02282278
v 0.01873343 -0.00455204 0.02278604
v 0.01929988 -0.00479855 0.02326504
v 0.01929988 -0.00453239 0.02622000
v 0.01873343 -0.00451203 0.02622000
v 0.01811189 -0.00445880 0.02620294
v 0.01811364 -0.00460241 0.02578955
v 0.01811015 -0.00460098 0.02578955
v 0.01811015 -0.00448238 0.02282366
v 0.01811189 -0.00402973 0.02260274
v 0.01929988 -0.00457598 0.02278079
v 0.01873343 -0.00402938 0.02256556
v 0.01929988 -0.00282043 0.02702752
v 0.01873343 -0.00273290 0.02702752
v 0.01827633 -0.00256713 0.02702752
v 0.01811015 -0.00246603 0.02702752
v 0.01811015 -0.00402652 0.02260231
v 0.01929988 -0.00453025 0.02276154
v 0.01811015 -0.00340954 0.02255900
v 0.01929988 -0.00397615 0.02255900
v 0.01929988 -0.00402938 0.02256031
v 0.01929988 -0.00117241 0.02702752
v 0.01811015 -0.00117241 0.02702752
v 0.01811015 -0.00279006 0.02255900
v 0.01929988 -0.00279006 0.02255900
v 0.01929988 -0.00117241 0.02436347
v 0.01811015 -0.00117241 0.02347239
v 0.01811015 -0.00216701 0.02263643
v 0.01929988 -0.00273683 0.02257387
v 0.01811015 -0.00122957 0.02331053
v 0.01929988 -0.00184405 0.02297064
v 0.01811015 -0.00129388 0.02313337
v 0.01811015 -0.00158075 0.02281491
v 0.01929988 -0.00217022 0.02275016
v 0.01929988 -0.00213914 0.02276941
f 1 2 8
f 1 8 3
f 1 3 4
f 1 4 5
f 1 5 14
f 1 14 22
f 1 22 29
f 1 29 32
f 1 32 31
f 1 31 36
f 1 36 40
f 1 40 45
f 1 45 46
f 1 46 42
f 1 42 37
f 1 37 33
f 1 33 24
f 1 24 15
f 1 15 6
f 1 6 2
f 2 6 7
f 2 7 8
f 3 8 9
f 3 9 10
f 3 10 4
f 4 10 11
f 4 11 12
f 4 12 13
f 4 13 14
f 4 14 5
f 6 15 16
f 6 16 7
f 7 16 17
f 7 17 18
f 7 18 8
f 8 18 9
f 9 18 19
f 9 19 27
f 9 27 34
f 9 34 38
f 9 38 41
f 9 41 43
f 9 43 44
f 9 44 39
f 9 39 35
f 9 35 30
f 9 30 28
f 9 28 20
f 9 20 11
f 9 11 10
f 11 20 12
f 12 20 21
f 12 21 13
f 13 22 14
f 13 21 23
f 13 23 22
f 15 24 16
f 16 24 17
f 17 19 18
f 17 24 25
f 17 25 26
f 17 26 27
f 17 27 19
f 20 28 21
f 21 28 23
f 22 23 29
f 23 30 31
f 23 31 32
f 23 32 29
f 23 28 30
f 24 33 34
f 24 34 27
f 24 27 26
f 24 26 25
f 30 35 36
f 30 36 31
f 33 37 38
f 33 38 34
f 35 39 36
f 36 39 40
f 37 41 38
f 37 42 43
f 37 43 41
f 39 44 40
f 40 44 45
f 42 46 44
f 42 44 43
f 44 46 45

