# https://github.com/mikedh/trimesh
v 0.02214639 -0.01676526 0.02082991
v 0.02214901 -0.01676526 0.02021005
v 0.02214639 -0.01676526 0.02179398
v 0.02215260 -0.01396521 0.02082991
v 0.02215451 -0.01396521 0.02021005
v 0.02229444 -0.01676526 0.01991498
v 0.02458562 -0.01676526 0.02179398
v 0.02215260 -0.01396521 0.02179398
v 0.02216191 -0.01396521 0.02019702
v 0.02242147 -0.01676526 0.01969442
v 0.02245992 -0.01396521 0.01967956
v 0.02458562 -0.01676526 0.01946540
v 0.02458562 -0.01530850 0.02179398
v 0.02396214 -0.01396521 0.02179398
v 0.02245992 -0.01642978 0.01967956
v 0.02307361 -0.01642978 0.01945923
v 0.02307361 -0.01676526 0.01946220
v 0.02247496 -0.01396521 0.01967453
v 0.02307361 -0.01519009 0.01945923
v 0.02402877 -0.01676526 0.01946014
v 0.02369351 -0.01580980 0.01945923
v 0.02458562 -0.01670194 0.01946654
v 0.02458562 -0.01550584 0.02021005
v 0.02449512 -0.01511143 0.02179398
v 0.02384585 -0.01396521 0.02021005
v 0.02369351 -0.01642978 0.01945923
v 0.02340863 -0.01676526 0.01946129
v 0.02307361 -0.01396521 0.01948688
v 0.02307361 -0.01457011 0.01947249
v 0.02458562 -0.01657696 0.01947226
v 0.02458562 -0.01582186 0.01967019
v 0.02360324 -0.01396521 0.01970699
v 0.02308937 -0.01396521 0.01949191
v 0.02458562 -0.01642978 0.01947911
v 0.02458562 -0.01602331 0.01958448
f 1 2 6
f 1 6 10
f 1 10 17
f 1 17 27
f 1 27 20
f 1 20 12
f 1 12 7
f 1 7 3
f 1 3 8
f 1 8 4
f 1 4 5
f 1 5 2
f 2 5 6
f 3 7 13
f 3 13 24
f 3 24 14
f 3 14 8
f 4 8 14
f 4 14 25
f 4 25 32
f 4 32 33
f 4 33 28
f 4 28 18
f 4 18 11
f 4 11 9
f 4 9 5
f 5 9 6
f 6 9 11
f 6 11 10
f 7 12 22
f 7 22 30
f 7 30 34
f 7 34 35
f 7 35 31
f 7 31 23
f 7 23 13
f 10 15 16
f 10 16 17
f 10 11 15
f 11 18 19
f 11 19 16
f 11 16 15
f 12 20 21
f 12 21 22
f 13 23 24
f 14 24 23
f 14 23 25
f 16 26 20
f 16 20 27
f 16 27 17
f 16 19 21
f 16 21 26
f 18 28 29
f 18 29 19
f 19 29 21
f 20 26 21
f 21 29 28
f 21 28 22
f 22 28 30
f 23 31 25
f 25 31 32
f 28 33 34
f 28 34 30
f 31 35 32
f 32 35 33
f 33 35 34

