# https://github.com/mikedh/trimesh
v 0.00865259 -0.01704977 0.03650395
v 0.00866877 -0.01766974 0.03650395
v 0.00865259 -0.01704977 0.04005317
v 0.00865259 -0.01209004 0.03650395
v 0.00890451 -0.01816036 0.03650395
v 0.00866877 -0.01766974 0.04005317
v 0.00865259 -0.01209004 0.04005317
v 0.00874677 -0.01147007 0.03650395
v 0.00905243 -0.01821091 0.03650395
v 0.00890451 -0.01816036 0.04005317
v 0.00888660 -0.01147007 0.04005317
v 0.00895131 -0.01094377 0.03650395
v 0.00943378 -0.01834100 0.03650395
v 0.00943378 -0.01834100 0.04005317
v 0.00912234 -0.01115934 0.04005317
v 0.00941529 -0.01076462 0.03650395
v 0.01315309 -0.01834100 0.03650395
v 0.01315309 -0.01834100 0.04005317
v 0.01005087 -0.01115860 0.04005317
v 0.01002603 -0.01074752 0.03650395
v 0.00943378 -0.01076164 0.03650395
v 0.01377307 -0.01831052 0.03650395
v 0.01377307 -0.01831052 0.04005317
v 0.01315309 -0.01115860 0.04005317
v 0.01315309 -0.01074752 0.03650395
v 0.01421567 -0.01812988 0.03650395
v 0.01377539 -0.01830978 0.04005317
v 0.01349111 -0.01115934 0.04005317
v 0.01377076 -0.01077205 0.03650395
v 0.01442137 -0.01779686 0.03650395
v 0.01420874 -0.01812988 0.04005317
v 0.01380081 -0.01117273 0.04005317
v 0.01428616 -0.01090734 0.03650395
v 0.01446124 -0.01766900 0.03650395
v 0.01433354 -0.01767197 0.04005317
v 0.01432314 -0.01092295 0.03650395
v 0.01420585 -0.01148048 0.04005317
v 0.01455080 -0.01706315 0.03650395
v 0.01433412 -0.01766974 0.04005317
v 0.01434625 -0.01094674 0.03650395
v 0.01420874 -0.01148271 0.04005317
v 0.01455137 -0.01704977 0.03650395
v 0.01455484 -0.01643427 0.03650395
v 0.01433412 -0.01209004 0.04005317
v 0.01450746 -0.01147007 0.03650395
v 0.01450919 -0.01147825 0.03650395
v 0.01455484 -0.01271001 0.03650395
v 0.01455253 -0.01209004 0.03650395
f 1 2 6
f 1 6 3
f 1 3 7
f 1 7 4
f 1 4 8
f 1 8 12
f 1 12 16
f 1 16 21
f 1 21 20
f 1 20 25
f 1 25 29
f 1 29 33
f 1 33 36
f 1 36 40
f 1 40 45
f 1 45 46
f 1 46 48
f 1 48 47
f 1 47 43
f 1 43 42
f 1 42 38
f 1 38 34
f 1 34 30
f 1 30 26
f 1 26 22
f 1 22 17
f 1 17 13
f 1 13 9
f 1 9 5
f 1 5 2
f 2 5 10
f 2 10 6
f 3 6 10
f 3 10 14
f 3 14 18
f 3 18 23
f 3 23 27
f 3 27 31
f 3 31 35
f 3 35 39
f 3 39 44
f 3 44 41
f 3 41 37
f 3 37 32
f 3 32 28
f 3 28 24
f 3 24 19
f 3 19 15
f 3 15 11
f 3 11 7
f 4 7 8
f 5 9 10
f 7 11 8
f 8 11 12
f 9 13 14
f 9 14 10
f 11 15 12
f 12 15 16
f 13 17 18
f 13 18 14
f 15 19 20
f 15 20 21
f 15 21 16
f 17 22 23
f 17 23 18
f 19 24 25
f 19 25 20
f 22 26 27
f 22 27 23
f 24 28 25
f 25 28 29
f 26 30 31
f 26 31 27
f 28 32 29
f 29 32 33
f 30 34 31
f 31 34 35
f 32 36 33
f 32 37 36
f 34 38 39
f 34 39 35
f 36 37 41
f 36 41 40
f 38 42 39
f 39 42 43
f 39 43 47
f 39 47 44
f 40 41 45
f 41 46 45
f 41 44 46
f 44 47 48
f 44 48 46

