# https://github.com/mikedh/trimesh
v 0.02427835 0.01304605 0.02145747
v 0.02567798 0.01217564 0.02145747
v 0.02567798 0.01216744 0.02082991
v 0.02567798 0.01216530 0.02070530
v 0.02567798 0.01215673 0.02021019
v 0.02427835 0.01298541 0.02021019
v 0.02427835 0.00940174 0.02145747
v 0.02567798 0.00940174 0.02145747
v 0.02567798 0.01211785 0.02010709
v 0.02427835 0.01292691 0.02002669
v 0.02427835 0.00940174 0.01949167
v 0.02567798 0.00940174 0.01945920
v 0.02567798 0.01196303 0.01969766
v 0.02427835 0.01270431 0.01974480
v 0.02431370 0.00940174 0.01947563
v 0.02427835 0.01026537 0.01947387
v 0.02567798 0.01085005 0.01945920
v 0.02493370 0.00940174 0.01945920
v 0.02567798 0.01186386 0.01965325
v 0.02427835 0.01268076 0.01973698
v 0.02567798 0.01146968 0.01947719
v 0.02427835 0.01088536 0.01946252
v 0.02427835 0.01150499 0.01946330
v 0.02567798 0.01134518 0.01947348
v 0.02493370 0.01085005 0.01945920
v 0.02427835 0.01212499 0.01955837
f 1 2 3
f 1 3 4
f 1 4 5
f 1 5 6
f 1 6 10
f 1 10 14
f 1 14 20
f 1 20 26
f 1 26 23
f 1 23 22
f 1 22 16
f 1 16 11
f 1 11 7
f 1 7 8
f 1 8 2
f 2 8 12
f 2 12 17
f 2 17 24
f 2 24 21
f 2 21 19
f 2 19 13
f 2 13 9
f 2 9 5
f 2 5 4
f 2 4 3
f 5 9 10
f 5 10 6
f 7 11 15
f 7 15 18
f 7 18 12
f 7 12 8
f 9 13 10
f 10 13 14
f 11 16 15
f 12 18 25
f 12 25 17
f 13 19 14
f 14 19 21
f 14 21 20
f 15 16 22
f 15 22 18
f 17 23 24
f 17 25 23
f 18 22 25
f 20 21 26
f 21 24 23
f 21 23 26
f 22 23 25

