# https://github.com/mikedh/trimesh
v 0.02580148 -0.00963382 0.02449805
v 0.02580148 -0.00963382 0.02162867
v 0.02430649 -0.00963382 0.02449805
v 0.02580148 -0.01337630 0.02449805
v 0.02580148 -0.01222222 0.02162867
v 0.02430649 -0.00963382 0.02162867
v 0.02430649 -0.01396309 0.02449805
v 0.02506379 -0.01396521 0.02449805
v 0.02580148 -0.01337969 0.02268373
v 0.02580148 -0.01318805 0.02224665
v 0.02482833 -0.01396521 0.02221771
v 0.02432932 -0.01396521 0.02195507
v 0.02431337 -0.01396521 0.02194805
v 0.02430649 -0.01396478 0.02194524
v 0.02430649 -0.01316303 0.02162867
v 0.02430649 -0.01396521 0.02443569
v 0.02498960 -0.01396521 0.02449805
v 0.02506379 -0.01396521 0.02392979
v 0.02580148 -0.01327751 0.02240395
v 0.02506350 -0.01396521 0.02330985
v 0.02504681 -0.01396521 0.02269019
v 0.02430649 -0.01396521 0.02195227
f 1 2 6
f 1 6 3
f 1 3 7
f 1 7 17
f 1 17 8
f 1 8 4
f 1 4 9
f 1 9 19
f 1 19 10
f 1 10 5
f 1 5 2
f 2 5 15
f 2 15 6
f 3 6 15
f 3 15 14
f 3 14 22
f 3 22 16
f 3 16 7
f 4 8 9
f 5 10 11
f 5 11 12
f 5 12 13
f 5 13 14
f 5 14 15
f 7 16 17
f 8 17 16
f 8 16 22
f 8 22 13
f 8 13 12
f 8 12 11
f 8 11 21
f 8 21 20
f 8 20 18
f 8 18 9
f 9 18 20
f 9 20 21
f 9 21 11
f 9 11 19
f 10 19 11
f 13 22 14

