# https://github.com/mikedh/trimesh
v 0.02532106 0.06439492 0.10412688
v 0.02532106 0.06282573 0.10412688
v 0.02532106 0.06411460 0.10472785
v 0.02754143 0.06400047 0.10467467
v 0.02754143 0.06425591 0.10412688
v 0.02754143 0.06282573 0.10412688
v 0.02532106 0.06320098 0.10430190
v 0.02532106 0.06400539 0.10467696
v 0.02543321 0.06401906 0.10468337
v 0.02752860 0.06399064 0.10467014
v 0.02754143 0.06375594 0.10456065
v 0.02754143 0.06336456 0.10437815
v 0.02532106 0.06363214 0.10450294
f 1 2 7
f 1 7 13
f 1 13 8
f 1 8 3
f 1 3 4
f 1 4 5
f 1 5 6
f 1 6 2
f 2 6 7
f 3 8 9
f 3 9 10
f 3 10 4
f 4 10 11
f 4 11 12
f 4 12 6
f 4 6 5
f 6 12 10
f 6 10 7
f 7 9 13
f 7 10 9
f 8 13 9
f 10 12 11

