# https://github.com/mikedh/trimesh
v 0.02247773 0.05991288 0.03766557
v 0.03070000 0.05991288 0.03766557
v 0.02247773 0.05991288 0.03824998
v 0.02247773 0.07195469 0.03766557
v 0.03070000 0.06999940 0.03766557
v 0.03070000 0.05991288 0.03824998
v 0.02250027 0.05991288 0.03830479
v 0.02247773 0.07199966 0.03824998
v 0.02247773 0.07199966 0.03766645
v 0.02270953 0.07199966 0.03766557
v 0.03069678 0.07011303 0.03766557
v 0.03070000 0.06999940 0.03824998
v 0.03049959 0.05991288 0.03830479
v 0.02250027 0.07199966 0.03830479
v 0.02252522 0.07200321 0.03830479
v 0.02870319 0.07199966 0.03766557
v 0.03068712 0.07022547 0.03766557
v 0.03069678 0.07011184 0.03824998
v 0.03049959 0.07200321 0.03830479
v 0.03049959 0.07199966 0.03775004
v 0.02882150 0.07199611 0.03766557
v 0.03068712 0.07022428 0.03824998
v 0.03067103 0.07033791 0.03766557
v 0.02960783 0.07178188 0.03766557
v 0.02950079 0.07183159 0.03766557
v 0.02939213 0.07187539 0.03766557
v 0.02928428 0.07191208 0.03766557
v 0.02928026 0.07191326 0.03766557
v 0.02916678 0.07194404 0.03766557
v 0.02905490 0.07196771 0.03766557
v 0.02893820 0.07198546 0.03766557
v 0.03064849 0.07044916 0.03766557
v 0.03061952 0.07055924 0.03766557
v 0.03059215 0.07064564 0.03766557
v 0.03058491 0.07066694 0.03766557
v 0.03055271 0.07075216 0.03766557
v 0.03054386 0.07077347 0.03766557
v 0.03049879 0.07087171 0.03766557
v 0.03044486 0.07097704 0.03766557
v 0.03038611 0.07107410 0.03766557
v 0.03032011 0.07117115 0.03766557
v 0.03024848 0.07126466 0.03766557
v 0.03016800 0.07135698 0.03766557
v 0.03008590 0.07144101 0.03766557
v 0.02999898 0.07152031 0.03766557
v 0.02990965 0.07159133 0.03766557
v 0.02981065 0.07166234 0.03766557
v 0.02971085 0.07172507 0.03766557
f 1 2 6
f 1 6 13
f 1 13 7
f 1 7 3
f 1 3 8
f 1 8 9
f 1 9 4
f 1 4 10
f 1 10 16
f 1 16 21
f 1 21 31
f 1 31 30
f 1 30 29
f 1 29 28
f 1 28 27
f 1 27 26
f 1 26 25
f 1 25 24
f 1 24 48
f 1 48 47
f 1 47 46
f 1 46 45
f 1 45 44
f 1 44 43
f 1 43 42
f 1 42 41
f 1 41 40
f 1 40 39
f 1 39 38
f 1 38 37
f 1 37 36
f 1 36 35
f 1 35 34
f 1 34 33
f 1 33 32
f 1 32 23
f 1 23 17
f 1 17 11
f 1 11 5
f 1 5 2
f 2 5 12
f 2 12 6
f 3 7 14
f 3 14 8
f 4 9 10
f 5 11 12
f 6 12 19
f 6 19 13
f 7 13 19
f 7 19 15
f 7 15 14
f 8 14 15
f 8 15 9
f 9 15 10
f 10 15 19
f 10 19 16
f 11 17 22
f 11 22 18
f 11 18 12
f 12 18 19
f 16 19 20
f 16 20 21
f 17 23 20
f 17 20 19
f 17 19 22
f 18 22 19
f 20 24 25
f 20 25 26
f 20 26 27
f 20 27 28
f 20 28 29
f 20 29 30
f 20 30 31
f 20 31 21
f 20 23 32
f 20 32 33
f 20 33 34
f 20 34 35
f 20 35 36
f 20 36 37
f 20 37 38
f 20 38 39
f 20 39 40
f 20 40 41
f 20 41 42
f 20 42 43
f 20 43 44
f 20 44 45
f 20 45 46
f 20 46 47
f 20 47 48
f 20 48 24

