# https://github.com/mikedh/trimesh
v -0.02250000 0.06718352 0.10384964
v -0.02543222 0.06718352 0.10384964
v -0.02250000 0.06579604 0.10384964
v -0.02250000 0.06718352 0.10086742
v -0.02484985 0.06579686 0.10384964
v -0.02488200 0.06718352 0.10163516
v -0.02537884 0.06579604 0.10098828
v -0.02450744 0.06579604 0.10384964
v -0.02250000 0.06579604 0.10086742
v -0.02310217 0.06718352 0.10086742
v -0.02485100 0.06579604 0.10376061
v -0.02312226 0.06714535 0.10086742
v -0.02382805 0.06579604 0.10086742
f 1 2 5
f 1 5 8
f 1 8 3
f 1 3 9
f 1 9 4
f 1 4 10
f 1 10 6
f 1 6 2
f 2 6 7
f 2 7 5
f 3 8 11
f 3 11 7
f 3 7 13
f 3 13 9
f 4 9 13
f 4 13 12
f 4 12 10
f 5 11 8
f 5 7 11
f 6 10 7
f 7 10 12
f 7 12 13

