# https://github.com/mikedh/trimesh
v -0.02744123 0.07235826 0.09963859
v -0.02744123 0.06985297 0.09963859
v -0.02744123 0.07233913 0.09629580
v -0.02938051 0.07235826 0.09963859
v -0.03050000 0.06985297 0.09963859
v -0.02744123 0.06985297 0.09835563
v -0.02744123 0.07232246 0.09341913
v -0.02949997 0.07231951 0.09294187
v -0.03050000 0.07235655 0.09963859
v -0.03050000 0.06985297 0.09294187
v -0.02786011 0.06985297 0.09294319
v -0.02786011 0.06985346 0.09294187
v -0.02744123 0.07232025 0.09306643
v -0.02744123 0.07232049 0.09309921
v -0.02751309 0.07231951 0.09294187
v -0.03050000 0.07231657 0.09294187
v -0.02791430 0.06985297 0.09294187
f 1 2 6
f 1 6 13
f 1 13 14
f 1 14 7
f 1 7 3
f 1 3 4
f 1 4 9
f 1 9 5
f 1 5 2
f 2 5 10
f 2 10 17
f 2 17 11
f 2 11 6
f 3 7 8
f 3 8 4
f 4 8 9
f 5 9 16
f 5 16 10
f 6 11 12
f 6 12 13
f 7 14 8
f 8 14 15
f 8 15 12
f 8 12 17
f 8 17 10
f 8 10 16
f 8 16 9
f 11 17 12
f 12 15 13
f 13 15 14

