# https://github.com/mikedh/trimesh
v 0.02782131 0.06829957 0.10412688
v 0.02782131 0.06675681 0.10412688
v 0.02782131 0.06829957 0.10215555
v 0.02617032 0.06829957 0.10412688
v 0.02617032 0.06745057 0.10412688
v 0.02617032 0.06768962 0.10361392
v 0.02782131 0.06778733 0.10191671
v 0.02782131 0.06781844 0.10193120
v 0.02705699 0.06829957 0.10215555
v 0.02617032 0.06829957 0.10230612
f 1 2 7
f 1 7 8
f 1 8 3
f 1 3 9
f 1 9 10
f 1 10 4
f 1 4 5
f 1 5 2
f 2 5 6
f 2 6 7
f 3 8 9
f 4 10 6
f 4 6 5
f 6 10 7
f 7 10 9
f 7 9 8

