# https://github.com/mikedh/trimesh
v 0.02577500 0.07025517 0.09994165
v 0.02577500 0.06994063 0.09994165
v 0.02577500 0.07025517 0.09779521
v 0.02250000 0.07025517 0.09994165
v 0.02345637 0.06829957 0.09994165
v 0.02577500 0.06952098 0.09974592
v 0.02577500 0.06937664 0.09967858
v 0.02511038 0.06829957 0.09637762
v 0.02510654 0.07025517 0.09637762
v 0.02250000 0.06829957 0.09994165
v 0.02250000 0.07025517 0.09637762
v 0.02487698 0.06829957 0.09917616
v 0.02250000 0.06829957 0.09637762
f 1 2 6
f 1 6 7
f 1 7 3
f 1 3 9
f 1 9 11
f 1 11 4
f 1 4 10
f 1 10 5
f 1 5 2
f 2 5 6
f 3 7 8
f 3 8 9
f 4 11 13
f 4 13 10
f 5 10 13
f 5 13 8
f 5 8 12
f 5 12 7
f 5 7 6
f 7 12 8
f 8 13 11
f 8 11 9

