# https://github.com/mikedh/trimesh
v 0.02499728 0.06649506 0.10412688
v 0.02250000 0.06649506 0.10412688
v 0.02503048 0.06649334 0.10412688
v 0.02503048 0.06649506 0.10412412
v 0.02250000 0.06649506 0.10010953
v 0.02250000 0.06282529 0.10412688
v 0.02503097 0.06483975 0.10412688
v 0.02503097 0.06554338 0.10261801
v 0.02503097 0.06621257 0.10118268
v 0.02490933 0.06649420 0.10131402
v 0.02490834 0.06649506 0.10131442
v 0.02364731 0.06649506 0.10010953
v 0.02250000 0.05769658 0.10010953
v 0.02250000 0.05791017 0.10183468
v 0.02503097 0.06282357 0.10412609
v 0.02494451 0.06282529 0.10412688
v 0.02503097 0.06303716 0.10412688
v 0.02503097 0.06429113 0.10010953
v 0.02503097 0.05769658 0.10010953
v 0.02503097 0.05784386 0.10129908
v 0.02503097 0.05791017 0.10183468
f 1 2 6
f 1 6 16
f 1 16 17
f 1 17 7
f 1 7 3
f 1 3 4
f 1 4 11
f 1 11 12
f 1 12 5
f 1 5 2
f 2 5 13
f 2 13 14
f 2 14 6
f 3 7 4
f 4 7 8
f 4 8 9
f 4 9 10
f 4 10 11
f 5 12 18
f 5 18 19
f 5 19 13
f 6 14 15
f 6 15 16
f 7 17 15
f 7 15 21
f 7 21 20
f 7 20 19
f 7 19 18
f 7 18 9
f 7 9 8
f 9 12 10
f 9 18 12
f 10 12 11
f 13 19 20
f 13 20 14
f 14 20 21
f 14 21 15
f 15 17 16

