# https://github.com/mikedh/trimesh
v -0.00800146 0.07199941 0.03766510
v -0.00800146 0.06924813 0.03766510
v -0.00800146 0.07199941 0.03525000
v -0.02869588 0.07199941 0.03525000
v -0.02875809 0.07199765 0.03766510
v -0.01125204 0.06600004 0.03766510
v -0.00945011 0.06600004 0.03724970
v -0.00800146 0.06744996 0.03724970
v -0.00800146 0.06744996 0.03525000
v -0.02887141 0.07199060 0.03525000
v -0.02899361 0.07197651 0.03766510
v -0.03070000 0.06600004 0.03766510
v -0.00945011 0.06600004 0.03525000
v -0.02910248 0.07195713 0.03525000
v -0.02922246 0.07192835 0.03766510
v -0.03070000 0.06999923 0.03766510
v -0.03070000 0.06600004 0.03525000
v -0.02932689 0.07189664 0.03525000
v -0.02939577 0.07187433 0.03766510
v -0.03069111 0.07016366 0.03766510
v -0.03069778 0.07005737 0.03525000
v -0.02954241 0.07181090 0.03525000
v -0.02950242 0.07182970 0.03766510
v -0.03067556 0.07028875 0.03525000
v -0.03067112 0.07032692 0.03766510
v -0.02969794 0.07173104 0.03525000
v -0.02961129 0.07177919 0.03766510
v -0.03062890 0.07051660 0.03525000
v -0.03063112 0.07050427 0.03766510
v -0.02979570 0.07166996 0.03525000
v -0.02981348 0.07165998 0.03766510
v -0.02971349 0.07172223 0.03766510
v -0.03057780 0.07068338 0.03525000
v -0.03056447 0.07071450 0.03766510
v -0.02993790 0.07156778 0.03525000
v -0.02990902 0.07159127 0.03766510
v -0.03051114 0.07084429 0.03525000
v -0.03050003 0.07086836 0.03766510
v -0.03011121 0.07141275 0.03525000
v -0.03000011 0.07151728 0.03766510
v -0.03044671 0.07097290 0.03766510
v -0.03039783 0.07104865 0.03525000
v -0.03017120 0.07135402 0.03766510
v -0.03008677 0.07143800 0.03766510
v -0.03026674 0.07123951 0.03525000
v -0.03038449 0.07107390 0.03766510
v -0.03032006 0.07117139 0.03766510
v -0.03024674 0.07126476 0.03766510
f 1 2 8
f 1 8 9
f 1 9 3
f 1 3 4
f 1 4 5
f 1 5 11
f 1 11 15
f 1 15 19
f 1 19 23
f 1 23 27
f 1 27 32
f 1 32 31
f 1 31 36
f 1 36 40
f 1 40 44
f 1 44 43
f 1 43 48
f 1 48 47
f 1 47 46
f 1 46 41
f 1 41 38
f 1 38 34
f 1 34 29
f 1 29 25
f 1 25 20
f 1 20 16
f 1 16 12
f 1 12 6
f 1 6 2
f 2 6 7
f 2 7 8
f 3 9 13
f 3 13 17
f 3 17 21
f 3 21 24
f 3 24 28
f 3 28 33
f 3 33 37
f 3 37 42
f 3 42 45
f 3 45 39
f 3 39 35
f 3 35 30
f 3 30 26
f 3 26 22
f 3 22 18
f 3 18 14
f 3 14 10
f 3 10 4
f 4 10 5
f 5 10 11
f 6 12 17
f 6 17 13
f 6 13 7
f 7 13 9
f 7 9 8
f 10 14 11
f 11 14 15
f 12 16 17
f 14 18 15
f 15 18 19
f 16 20 21
f 16 21 17
f 18 22 19
f 19 22 23
f 20 24 21
f 20 25 24
f 22 26 27
f 22 27 23
f 24 25 28
f 25 29 28
f 26 30 31
f 26 31 32
f 26 32 27
f 28 29 33
f 29 34 33
f 30 35 31
f 31 35 36
f 33 34 37
f 34 38 37
f 35 39 40
f 35 40 36
f 37 38 41
f 37 41 42
f 39 43 44
f 39 44 40
f 39 45 43
f 41 46 42
f 42 46 47
f 42 47 45
f 43 45 48
f 45 47 48

