# https://github.com/mikedh/trimesh
v 0.03050000 0.07241039 0.10859584
v 0.03050000 0.07238429 0.10412688
v 0.02627276 0.07241039 0.10859584
v 0.02632779 0.06664729 0.10590921
v 0.03050000 0.06574419 0.10548791
v 0.02627276 0.07238429 0.10412688
v 0.03050000 0.06574419 0.10412688
v 0.02627276 0.06673016 0.10594771
v 0.02627276 0.06664076 0.10590571
v 0.02801852 0.06574419 0.10548791
v 0.02800735 0.06576833 0.10549928
v 0.02627276 0.06747012 0.10412688
v 0.02814804 0.06574419 0.10412688
v 0.02627276 0.06700618 0.10512173
f 1 2 6
f 1 6 3
f 1 3 4
f 1 4 5
f 1 5 7
f 1 7 2
f 2 7 13
f 2 13 12
f 2 12 6
f 3 6 12
f 3 12 14
f 3 14 9
f 3 9 8
f 3 8 4
f 4 8 9
f 4 9 10
f 4 10 11
f 4 11 5
f 5 11 10
f 5 10 13
f 5 13 7
f 9 13 10
f 9 14 13
f 12 13 14

