# https://github.com/mikedh/trimesh
v 0.02577500 0.07025536 0.09077742
v 0.02577500 0.07025536 0.03830479
v 0.02577500 0.07230137 0.08978538
v 0.02518060 0.07231549 0.09221271
v 0.02510237 0.07025536 0.09221271
v 0.02250000 0.07025536 0.03830479
v 0.02577500 0.07200312 0.03830479
v 0.02577500 0.07222898 0.07728461
v 0.02296232 0.07231549 0.09221271
v 0.02250000 0.07025536 0.09221271
v 0.02250000 0.07200030 0.03830479
v 0.02252533 0.07200312 0.03830479
v 0.02250000 0.07231468 0.09221271
f 1 2 7
f 1 7 8
f 1 8 3
f 1 3 4
f 1 4 5
f 1 5 10
f 1 10 6
f 1 6 2
f 2 6 11
f 2 11 12
f 2 12 7
f 3 8 4
f 4 9 13
f 4 13 10
f 4 10 5
f 4 8 7
f 4 7 12
f 4 12 9
f 6 10 13
f 6 13 11
f 9 12 13
f 11 13 12

