# https://github.com/mikedh/trimesh
v 0.00655011 0.06601706 0.03724950
v 0.00801436 0.06275051 0.03766486
v 0.00801436 0.06454811 0.03724950
v 0.00655011 0.06601706 0.03525000
v 0.00475037 0.06601706 0.03766486
v 0.00801436 0.05964770 0.03766486
v 0.00801436 0.06454811 0.03525000
v 0.00001743 0.06601706 0.03525000
v 0.00001743 0.06601706 0.03766486
v 0.00801122 0.05725050 0.03766486
v 0.00801122 0.05545054 0.03724950
v 0.00801436 0.05964770 0.03525000
v -0.00653721 0.06599939 0.03525000
v -0.00654818 0.06599821 0.03724950
v -0.00474530 0.06599939 0.03766486
v 0.00474880 0.05400986 0.03766486
v 0.00801122 0.05545054 0.03525000
v 0.00654854 0.05400986 0.03724950
v -0.00654818 0.06599821 0.03525000
v -0.00800146 0.06454929 0.03724950
v -0.00474844 0.06599821 0.03766486
v 0.00001743 0.05398277 0.03766486
v 0.00654854 0.05400986 0.03525000
v -0.00800146 0.06454929 0.03525000
v -0.00800146 0.06275051 0.03766486
v -0.00474844 0.05398277 0.03766486
v 0.00001743 0.05398277 0.03525000
v -0.00800146 0.05545054 0.03525000
v -0.00800146 0.05725050 0.03766486
v -0.00654975 0.05398277 0.03724950
v -0.00654975 0.05398277 0.03525000
v -0.00800146 0.05545054 0.03724950
f 1 2 3
f 1 3 7
f 1 7 4
f 1 4 8
f 1 8 9
f 1 9 5
f 1 5 2
f 2 6 12
f 2 12 7
f 2 7 3
f 2 5 9
f 2 9 15
f 2 15 21
f 2 21 25
f 2 25 29
f 2 29 26
f 2 26 22
f 2 22 16
f 2 16 10
f 2 10 6
f 4 7 12
f 4 12 17
f 4 17 23
f 4 23 27
f 4 27 31
f 4 31 28
f 4 28 24
f 4 24 19
f 4 19 13
f 4 13 8
f 6 10 11
f 6 11 17
f 6 17 12
f 8 13 9
f 9 13 14
f 9 14 15
f 10 16 11
f 11 16 18
f 11 18 23
f 11 23 17
f 13 19 14
f 14 19 24
f 14 24 20
f 14 20 21
f 14 21 15
f 16 22 18
f 18 22 27
f 18 27 23
f 20 24 28
f 20 28 32
f 20 32 29
f 20 29 25
f 20 25 21
f 22 26 30
f 22 30 31
f 22 31 27
f 26 29 30
f 28 31 30
f 28 30 32
f 29 32 30

