# https://github.com/mikedh/trimesh
v -0.03049922 0.07036010 0.10128057
v -0.03049922 0.06992802 0.10220792
v -0.03049922 0.07236641 0.10128057
v -0.02463547 0.06992802 0.10128057
v -0.03049922 0.06992802 0.10743834
v -0.03049922 0.07241039 0.10859556
v -0.02958536 0.07236787 0.10128057
v -0.02250000 0.06992802 0.10128057
v -0.02250000 0.06992802 0.10743834
v -0.02250000 0.07241039 0.10859556
v -0.02341621 0.07236787 0.10128057
v -0.02250000 0.07236762 0.10128057
f 1 2 5
f 1 5 6
f 1 6 3
f 1 3 7
f 1 7 11
f 1 11 12
f 1 12 8
f 1 8 4
f 1 4 2
f 2 4 8
f 2 8 9
f 2 9 5
f 3 6 7
f 5 9 10
f 5 10 6
f 6 10 11
f 6 11 7
f 8 12 10
f 8 10 9
f 10 12 11

