# https://github.com/mikedh/trimesh
v 0.00655041 0.05400797 0.03724970
v 0.00801124 0.05075138 0.03766510
v 0.00801124 0.05254935 0.03724970
v 0.00655041 0.05400797 0.03525000
v 0.00474945 0.05400797 0.03766510
v 0.00801124 0.04800000 0.03766510
v 0.00801124 0.05254935 0.03525000
v 0.00001743 0.05400797 0.03525000
v 0.00001743 0.05400797 0.03766510
v 0.00801124 0.04800000 0.03525000
v -0.00800146 0.04800000 0.03766510
v -0.00655003 0.05398150 0.03525000
v -0.00655003 0.05398150 0.03724970
v -0.00474907 0.05398150 0.03766510
v -0.00800146 0.04800000 0.03525000
v -0.00800146 0.05075196 0.03766510
v -0.00800146 0.05254994 0.03525000
v -0.00800146 0.05254994 0.03724970
f 1 2 3
f 1 3 7
f 1 7 4
f 1 4 8
f 1 8 9
f 1 9 5
f 1 5 2
f 2 5 9
f 2 9 14
f 2 14 16
f 2 16 11
f 2 11 6
f 2 6 10
f 2 10 7
f 2 7 3
f 4 7 10
f 4 10 15
f 4 15 17
f 4 17 12
f 4 12 8
f 6 11 15
f 6 15 10
f 8 12 13
f 8 13 9
f 9 13 14
f 11 16 18
f 11 18 17
f 11 17 15
f 12 17 18
f 12 18 13
f 13 18 14
f 14 18 16

