# https://github.com/mikedh/trimesh
v 0.02250000 0.06829997 0.09994165
v 0.02345623 0.06829997 0.09994165
v 0.02250000 0.06829997 0.10412688
v 0.02250000 0.07235971 0.09994165
v 0.02455877 0.06994098 0.09994165
v 0.02455877 0.06829997 0.10215512
v 0.02455877 0.06829997 0.10412688
v 0.02250000 0.07238410 0.10412688
v 0.02302477 0.07236011 0.09994165
v 0.02455877 0.07236011 0.09994165
v 0.02455877 0.07238450 0.10412688
v 0.02305862 0.07238450 0.10412688
v 0.02455877 0.07236451 0.10067784
v 0.02455877 0.07236331 0.10047464
f 1 2 6
f 1 6 7
f 1 7 3
f 1 3 8
f 1 8 4
f 1 4 9
f 1 9 10
f 1 10 5
f 1 5 2
f 2 5 6
f 3 7 11
f 3 11 12
f 3 12 8
f 4 8 9
f 5 10 14
f 5 14 13
f 5 13 11
f 5 11 7
f 5 7 6
f 8 12 9
f 9 13 14
f 9 14 10
f 9 12 13
f 11 13 12

