# https://github.com/mikedh/trimesh
v 0.02247773 0.07199961 0.03825000
v 0.02247773 0.06805542 0.03825000
v 0.02247773 0.07199961 0.03766649
v 0.00861855 0.07199961 0.03825000
v 0.02247773 0.06805542 0.03766557
v 0.01051664 0.06805542 0.03825000
v 0.02247773 0.07195482 0.03766557
v 0.00861855 0.07199961 0.03766557
v 0.00861855 0.06919061 0.03825000
v 0.01051664 0.06805542 0.03766557
v 0.00861855 0.06919061 0.03766557
f 1 2 5
f 1 5 7
f 1 7 3
f 1 3 8
f 1 8 4
f 1 4 9
f 1 9 6
f 1 6 2
f 2 6 10
f 2 10 5
f 3 7 8
f 4 8 11
f 4 11 9
f 5 10 11
f 5 11 8
f 5 8 7
f 6 9 11
f 6 11 10

