# https://github.com/mikedh/trimesh
v -0.02250000 0.07231899 0.09294188
v -0.02350157 0.07231971 0.09294188
v -0.02250000 0.06985297 0.09294188
v -0.02250000 0.07200026 0.03830479
v -0.02252517 0.07200316 0.03830479
v -0.02548744 0.07231971 0.09294188
v -0.02485027 0.07230160 0.08981319
v -0.02513534 0.07231464 0.09206477
v -0.02514003 0.06985297 0.09294188
v -0.02250000 0.06985297 0.03830479
v -0.02548979 0.07200316 0.03830479
v -0.02548979 0.07230136 0.08978645
v -0.02549008 0.06985297 0.09205943
v -0.02548979 0.06985297 0.03830479
f 1 2 6
f 1 6 9
f 1 9 3
f 1 3 10
f 1 10 4
f 1 4 5
f 1 5 2
f 2 5 7
f 2 7 8
f 2 8 6
f 3 9 13
f 3 13 14
f 3 14 10
f 4 10 14
f 4 14 11
f 4 11 5
f 5 11 7
f 6 8 11
f 6 11 12
f 6 12 13
f 6 13 9
f 7 11 8
f 11 14 13
f 11 13 12

