# https://github.com/mikedh/trimesh
v -0.02250000 0.06579604 0.10551148
v -0.02250000 0.06579604 0.09963934
v -0.02500706 0.06579604 0.10551148
v -0.02499225 0.06576730 0.10549826
v -0.02485266 0.06524827 0.10525684
v -0.02515549 0.06353788 0.10445960
v -0.02250000 0.05791003 0.10183507
v -0.02412745 0.06579604 0.09963934
v -0.02250000 0.05763854 0.09963934
v -0.02515549 0.06579604 0.10159021
v -0.02515549 0.06429326 0.10481080
v -0.02515549 0.05791003 0.10183507
v -0.02515549 0.06579604 0.10098839
v -0.02515549 0.06451045 0.09963934
v -0.02515549 0.05763854 0.09963934
f 1 2 8
f 1 8 13
f 1 13 10
f 1 10 3
f 1 3 4
f 1 4 5
f 1 5 6
f 1 6 7
f 1 7 9
f 1 9 2
f 2 9 15
f 2 15 14
f 2 14 8
f 3 10 11
f 3 11 6
f 3 6 4
f 4 6 5
f 6 11 10
f 6 10 13
f 6 13 14
f 6 14 15
f 6 15 12
f 6 12 7
f 7 12 15
f 7 15 9
f 8 14 13

