# https://github.com/mikedh/trimesh
v -0.02250000 0.06680996 0.09963924
v -0.02359715 0.06680996 0.09963924
v -0.02250000 0.06473241 0.09963924
v -0.02250000 0.06680996 0.03830479
v -0.02468419 0.06473241 0.09963924
v -0.02479541 0.06680996 0.09848052
v -0.02250000 0.06473241 0.03830479
v -0.02479541 0.06680996 0.03830479
v -0.02479541 0.06473241 0.09918296
v -0.02479541 0.06473241 0.03830479
f 1 2 5
f 1 5 3
f 1 3 7
f 1 7 4
f 1 4 8
f 1 8 6
f 1 6 2
f 2 6 5
f 3 5 9
f 3 9 10
f 3 10 7
f 4 7 10
f 4 10 8
f 5 6 9
f 6 8 10
f 6 10 9

