# https://github.com/mikedh/trimesh
v 0.02761033 0.06432106 0.10412688
v 0.02761033 0.06445173 0.10384689
v 0.02617016 0.06388391 0.10412688
v 0.02761033 0.06282511 0.10412688
v 0.02761033 0.06578612 0.10098410
v 0.02617016 0.06542738 0.10081658
v 0.02617016 0.06282511 0.10412688
v 0.02761033 0.05790961 0.10183468
v 0.02650007 0.06429176 0.10010953
v 0.02617016 0.06429176 0.10010953
v 0.02761033 0.06417534 0.10010953
v 0.02617016 0.05790961 0.10183468
v 0.02761033 0.05783279 0.10121139
v 0.02617016 0.05769737 0.10010953
v 0.02761033 0.05769737 0.10010953
v 0.02761033 0.05776786 0.10068366
f 1 2 3
f 1 3 7
f 1 7 4
f 1 4 8
f 1 8 13
f 1 13 16
f 1 16 15
f 1 15 11
f 1 11 5
f 1 5 2
f 2 5 6
f 2 6 3
f 3 6 10
f 3 10 14
f 3 14 12
f 3 12 7
f 4 7 12
f 4 12 8
f 5 9 10
f 5 10 6
f 5 11 9
f 8 12 13
f 9 11 15
f 9 15 14
f 9 14 10
f 12 14 16
f 12 16 13
f 14 15 16

