# https://github.com/mikedh/trimesh
v -0.02506352 0.06718392 0.10279297
v -0.02506352 0.06762713 0.10184248
v -0.02506352 0.06718392 0.10615887
v -0.02650576 0.06718392 0.10477778
v -0.02650576 0.06719171 0.10476080
v -0.02650576 0.06838756 0.10219693
v -0.02649997 0.06992778 0.10195807
v -0.02506352 0.06992778 0.10195807
v -0.02506352 0.06733971 0.10623173
v -0.02650576 0.06718392 0.10615887
v -0.02650576 0.06992778 0.10220789
v -0.02506352 0.06992778 0.10743861
v -0.02650576 0.06753741 0.10632377
v -0.02506352 0.06866477 0.10684969
v -0.02650576 0.06992778 0.10743861
f 1 2 8
f 1 8 12
f 1 12 14
f 1 14 9
f 1 9 3
f 1 3 10
f 1 10 4
f 1 4 5
f 1 5 2
f 2 6 7
f 2 7 8
f 2 5 6
f 3 9 10
f 4 10 13
f 4 13 15
f 4 15 11
f 4 11 6
f 4 6 5
f 6 11 7
f 7 11 15
f 7 15 12
f 7 12 8
f 9 13 10
f 9 14 15
f 9 15 13
f 12 15 14

