# https://github.com/mikedh/trimesh
v 0.00801436 0.07200000 0.03766510
v 0.00801436 0.06924812 0.03766510
v 0.00801436 0.07200000 0.03525000
v 0.00001743 0.07200000 0.03766510
v 0.00801436 0.06745052 0.03724970
v 0.00475037 0.06601762 0.03766510
v 0.00801436 0.06745052 0.03525000
v 0.00001743 0.07200000 0.03525000
v -0.00800146 0.07199941 0.03766510
v 0.00655011 0.06601762 0.03724970
v 0.00001743 0.06600059 0.03766510
v 0.00655011 0.06601762 0.03525000
v -0.00800146 0.07199941 0.03525000
v -0.00800146 0.06924812 0.03766510
v -0.00474844 0.06600059 0.03766510
v 0.00001743 0.06600059 0.03525000
v -0.00800146 0.06745052 0.03525000
v -0.00800146 0.06745052 0.03724970
v -0.00654818 0.06600059 0.03724970
v -0.00654818 0.06600059 0.03525000
f 1 2 5
f 1 5 7
f 1 7 3
f 1 3 8
f 1 8 4
f 1 4 9
f 1 9 14
f 1 14 15
f 1 15 11
f 1 11 6
f 1 6 2
f 2 6 5
f 3 7 12
f 3 12 16
f 3 16 20
f 3 20 17
f 3 17 13
f 3 13 8
f 4 8 13
f 4 13 9
f 5 6 10
f 5 10 12
f 5 12 7
f 6 11 10
f 9 13 17
f 9 17 18
f 9 18 14
f 10 11 16
f 10 16 12
f 11 15 19
f 11 19 20
f 11 20 16
f 14 18 15
f 15 18 19
f 17 20 19
f 17 19 18

