# https://github.com/mikedh/trimesh
v 0.02869924 0.07200000 0.03766510
v 0.02881471 0.07199647 0.03766510
v 0.02875698 0.07199765 0.03525000
v 0.00801436 0.07200000 0.03525000
v 0.00801436 0.07200000 0.03766510
v 0.02893462 0.07198590 0.03766510
v 0.02898570 0.07197768 0.03525000
v 0.00801436 0.06745071 0.03525000
v 0.00801436 0.06924892 0.03766510
v 0.02905454 0.07196710 0.03766510
v 0.02921664 0.07193068 0.03525000
v 0.00801436 0.06745071 0.03724970
v 0.00945109 0.06599851 0.03525000
v 0.00945109 0.06599851 0.03724970
v 0.01125199 0.06599851 0.03766510
v 0.02917001 0.07194360 0.03766510
v 0.02933655 0.07189367 0.03766510
v 0.02938318 0.07187898 0.03525000
v 0.03070000 0.06599851 0.03525000
v 0.03070000 0.06599851 0.03766510
v 0.02950088 0.07183140 0.03766510
v 0.02954307 0.07181143 0.03525000
v 0.03069778 0.07005786 0.03525000
v 0.03070000 0.06999911 0.03766510
v 0.02960747 0.07178088 0.03766510
v 0.02969629 0.07173094 0.03525000
v 0.03069112 0.07016360 0.03766510
v 0.03067557 0.07028932 0.03525000
v 0.02970961 0.07172507 0.03766510
v 0.02979844 0.07166985 0.03525000
v 0.03067113 0.07032691 0.03766510
v 0.03062894 0.07051666 0.03525000
v 0.02980732 0.07166280 0.03766510
v 0.02993834 0.07156763 0.03525000
v 0.03063338 0.07050433 0.03766510
v 0.03055566 0.07073755 0.03525000
v 0.03056454 0.07071522 0.03766510
v 0.02995166 0.07155588 0.03766510
v 0.03008489 0.07144074 0.03766510
v 0.03011154 0.07141254 0.03525000
v 0.03049792 0.07087208 0.03766510
v 0.03045796 0.07094786 0.03525000
v 0.03016706 0.07135732 0.03766510
v 0.03026698 0.07123924 0.03525000
v 0.03041354 0.07102540 0.03766510
v 0.03036913 0.07109884 0.03525000
v 0.03024700 0.07126509 0.03766510
v 0.03032028 0.07117168 0.03766510
f 1 2 3
f 1 3 4
f 1 4 5
f 1 5 9
f 1 9 15
f 1 15 20
f 1 20 24
f 1 24 27
f 1 27 31
f 1 31 35
f 1 35 37
f 1 37 41
f 1 41 45
f 1 45 48
f 1 48 47
f 1 47 43
f 1 43 39
f 1 39 38
f 1 38 33
f 1 33 29
f 1 29 25
f 1 25 21
f 1 21 17
f 1 17 16
f 1 16 10
f 1 10 6
f 1 6 2
f 2 6 7
f 2 7 3
f 3 7 11
f 3 11 18
f 3 18 22
f 3 22 26
f 3 26 30
f 3 30 34
f 3 34 40
f 3 40 44
f 3 44 46
f 3 46 42
f 3 42 36
f 3 36 32
f 3 32 28
f 3 28 23
f 3 23 19
f 3 19 13
f 3 13 8
f 3 8 4
f 4 8 12
f 4 12 9
f 4 9 5
f 6 10 7
f 7 10 16
f 7 16 11
f 8 13 14
f 8 14 12
f 9 12 14
f 9 14 15
f 11 17 18
f 11 16 17
f 13 19 20
f 13 20 15
f 13 15 14
f 17 21 18
f 18 21 22
f 19 23 24
f 19 24 20
f 21 25 22
f 22 25 26
f 23 27 24
f 23 28 27
f 25 29 26
f 26 29 30
f 27 28 31
f 28 32 31
f 29 33 30
f 30 33 34
f 31 32 35
f 32 36 37
f 32 37 35
f 33 38 34
f 34 38 39
f 34 39 40
f 36 41 37
f 36 42 41
f 39 43 40
f 40 43 44
f 41 42 45
f 42 46 45
f 43 47 44
f 44 47 48
f 44 48 46
f 45 46 48

