# https://github.com/mikedh/trimesh
v -0.03049922 0.05006847 0.03830479
v -0.03049922 0.06473241 0.03830479
v -0.02250000 0.05006847 0.03830479
v -0.03049922 0.05763728 0.09963924
v -0.02250000 0.06473241 0.03830479
v -0.03049922 0.06473241 0.09891279
v -0.02250000 0.05763728 0.09963924
v -0.03049922 0.06439366 0.09963924
v -0.02250000 0.06473241 0.09963924
v -0.02468481 0.06473241 0.09963924
f 1 2 5
f 1 5 3
f 1 3 7
f 1 7 4
f 1 4 8
f 1 8 6
f 1 6 2
f 2 6 10
f 2 10 9
f 2 9 5
f 3 5 9
f 3 9 7
f 4 7 9
f 4 9 10
f 4 10 8
f 6 8 10

