# https://github.com/mikedh/trimesh
v -0.02553373 0.06985297 0.09831418
v -0.02553373 0.07232000 0.09302299
v -0.02553373 0.06985297 0.09963924
v -0.02744123 0.06985297 0.09835563
v -0.02744123 0.07204017 0.09366674
v -0.02744123 0.07232025 0.09306638
v -0.02744123 0.07232049 0.09309876
v -0.02559666 0.07232074 0.09312661
v -0.02553373 0.07232540 0.09393162
v -0.02553373 0.07235826 0.09963924
v -0.02744123 0.06985297 0.09963924
v -0.02744123 0.07232246 0.09341934
v -0.02728122 0.07232172 0.09329564
v -0.02575088 0.07232197 0.09333515
v -0.02553373 0.07232810 0.09439339
v -0.02744123 0.07235826 0.09963924
v -0.02553373 0.07234404 0.09714325
v -0.02647273 0.07232442 0.09375482
v -0.02744123 0.07233913 0.09629615
v -0.02553373 0.07233521 0.09562001
f 1 2 9
f 1 9 15
f 1 15 20
f 1 20 17
f 1 17 10
f 1 10 3
f 1 3 11
f 1 11 4
f 1 4 2
f 2 5 6
f 2 6 7
f 2 7 8
f 2 8 9
f 2 4 5
f 3 10 16
f 3 16 11
f 4 11 16
f 4 16 19
f 4 19 12
f 4 12 7
f 4 7 6
f 4 6 5
f 7 12 13
f 7 13 8
f 8 13 12
f 8 12 14
f 8 14 15
f 8 15 9
f 10 17 16
f 12 18 14
f 12 19 18
f 14 18 15
f 15 18 20
f 16 17 19
f 17 20 18
f 17 18 19

