# https://github.com/mikedh/trimesh
v -0.00800146 0.06002954 0.03766534
v -0.00800146 0.05724876 0.03766534
v -0.00800146 0.06002954 0.03525000
v -0.03070000 0.06002954 0.03766534
v -0.00800146 0.05544964 0.03724989
v -0.01124982 0.05399546 0.03766534
v -0.00945011 0.05399546 0.03724989
v -0.00800146 0.05544964 0.03525000
v -0.03070000 0.06002954 0.03525000
v -0.03070000 0.05399546 0.03766534
v -0.00945011 0.05399546 0.03525000
v -0.03070000 0.05399546 0.03525000
f 1 2 5
f 1 5 8
f 1 8 3
f 1 3 9
f 1 9 4
f 1 4 10
f 1 10 6
f 1 6 2
f 2 6 7
f 2 7 5
f 3 8 11
f 3 11 12
f 3 12 9
f 4 9 12
f 4 12 10
f 5 7 11
f 5 11 8
f 6 10 12
f 6 12 11
f 6 11 7

