# https://github.com/mikedh/trimesh
v -0.02479907 0.06929221 0.09963924
v -0.02340176 0.06718365 0.09963924
v -0.02319899 0.06718365 0.10128057
v -0.02479907 0.07024170 0.10128057
v -0.02479907 0.07235837 0.09963924
v -0.02250000 0.06718365 0.09963924
v -0.02250000 0.06718365 0.10128057
v -0.02479907 0.07236751 0.10128057
v -0.02479907 0.07235888 0.09972825
v -0.02362118 0.07235837 0.09963924
v -0.02250000 0.07235787 0.09963924
v -0.02250000 0.07236751 0.10128057
f 1 2 3
f 1 3 4
f 1 4 8
f 1 8 9
f 1 9 5
f 1 5 10
f 1 10 11
f 1 11 6
f 1 6 2
f 2 6 7
f 2 7 3
f 3 7 12
f 3 12 8
f 3 8 4
f 5 9 10
f 6 11 12
f 6 12 7
f 8 12 9
f 9 12 10
f 10 12 11

