# https://github.com/mikedh/trimesh
v 0.03050000 0.07067697 0.09994165
v 0.02719738 0.07067697 0.09994165
v 0.03050000 0.06994066 0.09994165
v 0.03050000 0.07067697 0.09565656
v 0.02719738 0.06994066 0.09994165
v 0.02719738 0.07067697 0.09692216
v 0.02812357 0.06830097 0.09917692
v 0.03050000 0.06829980 0.09917608
v 0.03050000 0.06829980 0.09565656
v 0.02784103 0.07067697 0.09565656
v 0.02719738 0.06959811 0.09978183
v 0.02728208 0.06935074 0.09966647
v 0.02763768 0.06829980 0.09565656
v 0.02719738 0.06959020 0.09925243
v 0.02719738 0.06938890 0.09968409
v 0.02812390 0.06829980 0.09917608
v 0.02719738 0.06949665 0.09973442
f 1 2 5
f 1 5 3
f 1 3 8
f 1 8 9
f 1 9 4
f 1 4 10
f 1 10 6
f 1 6 2
f 2 6 14
f 2 14 15
f 2 15 17
f 2 17 11
f 2 11 5
f 3 5 7
f 3 7 8
f 4 9 13
f 4 13 10
f 5 11 12
f 5 12 7
f 6 10 13
f 6 13 14
f 7 12 15
f 7 15 16
f 7 16 8
f 8 16 13
f 8 13 9
f 11 17 12
f 12 17 15
f 13 16 15
f 13 15 14

