# https://github.com/mikedh/trimesh
v 0.02239501 0.04800000 0.03766557
v 0.02875708 0.04800233 0.03766557
v 0.02239501 0.04800000 0.03824998
v 0.02239501 0.05991169 0.03766557
v 0.02893186 0.04801399 0.03766557
v 0.02875708 0.04800233 0.03824998
v 0.03049920 0.05006962 0.03830479
v 0.02250070 0.05006962 0.03830479
v 0.02239501 0.05991169 0.03824998
v 0.03070000 0.05991169 0.03766557
v 0.02893186 0.04801399 0.03824998
v 0.02905786 0.04803381 0.03766557
v 0.02910339 0.04804431 0.03824998
v 0.02927248 0.04808628 0.03824998
v 0.02938385 0.04812126 0.03824998
v 0.02954400 0.04818889 0.03824998
v 0.02969846 0.04826934 0.03824998
v 0.02984560 0.04836379 0.03824998
v 0.03002851 0.04850720 0.03824998
v 0.03019272 0.04867161 0.03824998
v 0.03030328 0.04880570 0.03824998
v 0.03036995 0.04890131 0.03824998
v 0.03043173 0.04900158 0.03824998
v 0.03051140 0.04915666 0.03824998
v 0.03057806 0.04931640 0.03824998
v 0.03063009 0.04948313 0.03824998
v 0.03066911 0.04965337 0.03824998
v 0.03069024 0.04982710 0.03824998
v 0.03070000 0.05000083 0.03824998
v 0.03049920 0.05991169 0.03830479
v 0.02250070 0.05991169 0.03830479
v 0.03070000 0.05991169 0.03824998
v 0.03069756 0.04994836 0.03766557
v 0.02922208 0.04807229 0.03766557
v 0.02944807 0.04814808 0.03766557
v 0.02965293 0.04824369 0.03766557
v 0.02980739 0.04833697 0.03766557
v 0.02994315 0.04843608 0.03766557
v 0.03007241 0.04854568 0.03766557
v 0.03019679 0.04867627 0.03766557
v 0.03030328 0.04880570 0.03766557
v 0.03036995 0.04890131 0.03766557
v 0.03043173 0.04900158 0.03766557
v 0.03048701 0.04910302 0.03766557
v 0.03055936 0.04926743 0.03766557
v 0.03061464 0.04942716 0.03766557
v 0.03064716 0.04955076 0.03766557
v 0.03067642 0.04970583 0.03766557
f 1 2 6
f 1 6 3
f 1 3 9
f 1 9 4
f 1 4 10
f 1 10 33
f 1 33 48
f 1 48 47
f 1 47 46
f 1 46 45
f 1 45 44
f 1 44 43
f 1 43 42
f 1 42 41
f 1 41 40
f 1 40 39
f 1 39 38
f 1 38 37
f 1 37 36
f 1 36 35
f 1 35 34
f 1 34 12
f 1 12 5
f 1 5 2
f 2 5 11
f 2 11 6
f 3 6 7
f 3 7 8
f 3 8 31
f 3 31 9
f 4 9 31
f 4 31 30
f 4 30 32
f 4 32 10
f 5 12 11
f 6 11 7
f 7 11 13
f 7 13 14
f 7 14 15
f 7 15 16
f 7 16 17
f 7 17 18
f 7 18 19
f 7 19 20
f 7 20 21
f 7 21 22
f 7 22 23
f 7 23 24
f 7 24 25
f 7 25 26
f 7 26 27
f 7 27 28
f 7 28 29
f 7 29 32
f 7 32 30
f 7 30 31
f 7 31 8
f 10 32 29
f 10 29 33
f 11 12 13
f 12 34 13
f 13 34 14
f 14 34 15
f 15 34 35
f 15 35 16
f 16 35 36
f 16 36 17
f 17 36 37
f 17 37 18
f 18 37 38
f 18 38 19
f 19 38 39
f 19 39 20
f 20 39 40
f 20 40 21
f 21 40 41
f 21 41 42
f 21 42 22
f 22 42 43
f 22 43 23
f 23 43 44
f 23 44 24
f 24 44 45
f 24 45 25
f 25 45 46
f 25 46 26
f 26 46 47
f 26 47 27
f 27 47 48
f 27 48 28
f 28 48 33
f 28 33 29

