# https://github.com/mikedh/trimesh
v 0.02250000 0.06649523 0.10130793
v 0.02250000 0.06829957 0.10130793
v 0.02335468 0.06649523 0.10130793
v 0.02250000 0.06649523 0.10412660
v 0.02378933 0.06829957 0.10130793
v 0.02250000 0.06829957 0.10412660
v 0.02419723 0.06649523 0.10131428
v 0.02419723 0.06649523 0.10412660
v 0.02419723 0.06703115 0.10156400
v 0.02419723 0.06656059 0.10134463
v 0.02419723 0.06829957 0.10215560
v 0.02419657 0.06829957 0.10412660
v 0.02419723 0.06829780 0.10412660
v 0.02419723 0.06829957 0.10383604
f 1 2 5
f 1 5 3
f 1 3 7
f 1 7 8
f 1 8 4
f 1 4 6
f 1 6 2
f 2 6 12
f 2 12 14
f 2 14 11
f 2 11 5
f 3 5 7
f 4 8 13
f 4 13 12
f 4 12 6
f 5 9 10
f 5 10 7
f 5 11 9
f 7 10 9
f 7 9 11
f 7 11 14
f 7 14 13
f 7 13 8
f 12 13 14

