# https://github.com/mikedh/trimesh
v -0.02250000 0.06874330 0.09963924
v -0.02361463 0.06874330 0.09963924
v -0.02250000 0.06681016 0.09963924
v -0.02250000 0.06874330 0.03830479
v -0.02359711 0.06681016 0.09963924
v -0.02504825 0.06874330 0.09938108
v -0.02250000 0.06681016 0.03830479
v -0.02594123 0.06874330 0.03830479
v -0.02554982 0.06681016 0.09848052
v -0.02594123 0.06681016 0.09800022
v -0.02555015 0.06681092 0.09848052
v -0.02594123 0.06874330 0.09385762
v -0.02594123 0.06797345 0.09550865
v -0.02594123 0.06681016 0.03830479
f 1 2 5
f 1 5 3
f 1 3 7
f 1 7 4
f 1 4 8
f 1 8 12
f 1 12 6
f 1 6 2
f 2 6 5
f 3 5 9
f 3 9 10
f 3 10 14
f 3 14 7
f 4 7 14
f 4 14 8
f 5 6 9
f 6 10 11
f 6 11 9
f 6 12 13
f 6 13 10
f 8 14 10
f 8 10 13
f 8 13 12
f 9 11 10

