# https://github.com/mikedh/trimesh
v 0.03070000 0.06599851 0.03766510
v 0.03070000 0.06599851 0.03525000
v 0.01125376 0.06599851 0.03766510
v 0.03070000 0.05399717 0.03766510
v 0.03070000 0.05399717 0.03525000
v 0.00945261 0.06599851 0.03525000
v 0.00945261 0.06599851 0.03724970
v 0.00801568 0.06275030 0.03766510
v 0.01125154 0.05399717 0.03766510
v 0.00945039 0.05399717 0.03525000
v 0.00801568 0.06454885 0.03525000
v 0.00801568 0.06454885 0.03724970
v 0.00801124 0.05964776 0.03766510
v 0.00801124 0.05724890 0.03766510
v 0.00945039 0.05399717 0.03724970
v 0.00801124 0.05545034 0.03525000
v 0.00801124 0.05964776 0.03525000
v 0.00801124 0.05545034 0.03724970
f 1 2 6
f 1 6 7
f 1 7 3
f 1 3 8
f 1 8 13
f 1 13 14
f 1 14 9
f 1 9 4
f 1 4 5
f 1 5 2
f 2 5 10
f 2 10 16
f 2 16 17
f 2 17 11
f 2 11 6
f 3 7 8
f 4 9 15
f 4 15 10
f 4 10 5
f 6 11 12
f 6 12 7
f 7 12 8
f 8 12 13
f 9 14 15
f 10 15 18
f 10 18 16
f 11 17 13
f 11 13 12
f 13 17 16
f 13 16 18
f 13 18 14
f 14 18 15

