# https://github.com/mikedh/trimesh
v -0.03050000 0.06559657 0.10089509
v -0.03050000 0.06559657 0.10377466
v -0.03050000 0.06718365 0.10163528
v -0.02777479 0.06594300 0.10105660
v -0.02732469 0.06559657 0.10089509
v -0.03050000 0.06718365 0.10377466
v -0.02815683 0.06559657 0.10377466
v -0.02811797 0.06718365 0.10163528
v -0.02813165 0.06711545 0.10160343
v -0.02760414 0.06718365 0.10377466
v -0.02813600 0.06559983 0.10377466
v -0.02813165 0.06559657 0.10369687
f 1 2 6
f 1 6 3
f 1 3 4
f 1 4 5
f 1 5 12
f 1 12 7
f 1 7 2
f 2 7 11
f 2 11 10
f 2 10 6
f 3 6 10
f 3 10 8
f 3 8 9
f 3 9 4
f 4 9 5
f 5 10 11
f 5 11 12
f 5 9 8
f 5 8 10
f 7 12 11

