# https://github.com/mikedh/trimesh
v -0.02515587 0.06429326 0.10481144
v -0.02644872 0.06366564 0.10451830
v -0.02637658 0.06366803 0.10451982
v -0.02515587 0.06196323 0.10372496
v -0.02515587 0.06579604 0.10158996
v -0.02644872 0.06362571 0.10450008
v -0.02644872 0.06493126 0.10180513
v -0.02644872 0.05791003 0.10183449
v -0.02515587 0.05791003 0.10183449
v -0.02515587 0.06579604 0.10098849
v -0.02537900 0.06579604 0.10098849
v -0.02644872 0.06539839 0.10080319
v -0.02644872 0.05777588 0.10075104
v -0.02515587 0.05781980 0.10110595
v -0.02515587 0.06451045 0.09963924
v -0.02644872 0.06451045 0.09963924
v -0.02644872 0.05763854 0.09963924
v -0.02515587 0.05763854 0.09963924
f 1 2 3
f 1 3 4
f 1 4 9
f 1 9 14
f 1 14 18
f 1 18 15
f 1 15 10
f 1 10 5
f 1 5 2
f 2 6 3
f 2 5 7
f 2 7 12
f 2 12 16
f 2 16 17
f 2 17 13
f 2 13 8
f 2 8 6
f 3 6 4
f 4 6 8
f 4 8 9
f 5 10 11
f 5 11 12
f 5 12 7
f 8 13 14
f 8 14 9
f 10 15 16
f 10 16 11
f 11 16 12
f 13 17 18
f 13 18 14
f 15 18 17
f 15 17 16

