# https://github.com/mikedh/trimesh
v 0.02250000 0.05006847 0.03830479
v 0.02250000 0.06536257 0.03830479
v 0.03049922 0.05006847 0.03830479
v 0.02250000 0.05769756 0.10010953
v 0.03049922 0.06536257 0.03830479
v 0.02250000 0.06536257 0.10010953
v 0.03049922 0.05769756 0.10010953
v 0.03049922 0.06536257 0.09780456
v 0.02424002 0.06536257 0.10010953
v 0.03049922 0.06417540 0.10010953
f 1 2 5
f 1 5 3
f 1 3 7
f 1 7 4
f 1 4 6
f 1 6 2
f 2 6 9
f 2 9 8
f 2 8 5
f 3 5 8
f 3 8 10
f 3 10 7
f 4 7 10
f 4 10 9
f 4 9 6
f 8 9 10

