# https://github.com/mikedh/trimesh
v 0.03050000 0.07236026 0.09994165
v 0.02719738 0.07236026 0.09994165
v 0.03050000 0.07067697 0.09994165
v 0.03050000 0.07231297 0.09180562
v 0.02786463 0.07231462 0.09206764
v 0.02719738 0.07233208 0.09507883
v 0.02719738 0.07067697 0.09994165
v 0.03050000 0.07067697 0.09180562
v 0.02793219 0.07231297 0.09180562
v 0.02719738 0.07232286 0.09348842
v 0.02719738 0.07067697 0.09692170
v 0.02800881 0.07067697 0.09180562
v 0.02719738 0.07232220 0.09339364
f 1 2 7
f 1 7 3
f 1 3 8
f 1 8 4
f 1 4 5
f 1 5 6
f 1 6 2
f 2 6 10
f 2 10 13
f 2 13 11
f 2 11 7
f 3 7 11
f 3 11 12
f 3 12 8
f 4 8 12
f 4 12 9
f 4 9 5
f 5 9 10
f 5 10 6
f 9 13 10
f 9 12 13
f 11 13 12

