# https://github.com/mikedh/trimesh
v 0.02577532 0.07100307 0.03830479
v 0.02577532 0.07200316 0.03830479
v 0.02648597 0.07100307 0.03830479
v 0.02577532 0.07100307 0.08917827
v 0.02648597 0.07200316 0.03830479
v 0.02577532 0.07222900 0.07728512
v 0.02648597 0.07100307 0.08917827
v 0.02577532 0.07101604 0.08918835
v 0.02648597 0.07217333 0.06767988
v 0.02577532 0.07230132 0.08978805
v 0.02648597 0.07230132 0.08978805
v 0.02648597 0.07121468 0.08927906
v 0.02648597 0.07143696 0.08938489
f 1 2 5
f 1 5 3
f 1 3 7
f 1 7 4
f 1 4 8
f 1 8 10
f 1 10 6
f 1 6 2
f 2 6 5
f 3 5 9
f 3 9 11
f 3 11 13
f 3 13 12
f 3 12 7
f 4 7 8
f 5 6 9
f 6 10 11
f 6 11 9
f 7 12 8
f 8 12 13
f 8 13 10
f 10 13 11

