# https://github.com/mikedh/trimesh
v 0.02239501 0.05247980 0.03825000
v 0.02239501 0.04800044 0.03825000
v 0.02239501 0.05247980 0.03766557
v 0.01087214 0.05247980 0.03825000
v 0.02239501 0.04800044 0.03766557
v 0.00861720 0.04800044 0.03825000
v 0.01087214 0.05247980 0.03766557
v 0.00861720 0.05080908 0.03825000
v 0.00861720 0.04800044 0.03766557
v 0.00861720 0.05080908 0.03766557
f 1 2 5
f 1 5 3
f 1 3 7
f 1 7 4
f 1 4 8
f 1 8 6
f 1 6 2
f 2 6 9
f 2 9 5
f 3 5 9
f 3 9 10
f 3 10 7
f 4 7 10
f 4 10 8
f 6 8 10
f 6 10 9

