# https://github.com/mikedh/trimesh
v -0.02650590 0.06992778 0.10743862
v -0.03050000 0.06992778 0.10743862
v -0.02650590 0.06759167 0.10634905
v -0.02650590 0.06992778 0.10220778
v -0.03050000 0.06718392 0.10615874
v -0.03050000 0.06992778 0.10220778
v -0.02650590 0.06718392 0.10615874
v -0.02650590 0.06838756 0.10219698
v -0.02811824 0.06718392 0.10163516
v -0.03050000 0.06718392 0.10163516
v -0.02650590 0.06718392 0.10477775
v -0.02650590 0.06719171 0.10476071
f 1 2 3
f 1 3 7
f 1 7 11
f 1 11 12
f 1 12 8
f 1 8 4
f 1 4 6
f 1 6 2
f 2 5 3
f 2 6 10
f 2 10 5
f 3 5 7
f 4 8 9
f 4 9 10
f 4 10 6
f 5 10 9
f 5 9 11
f 5 11 7
f 8 12 9
f 9 12 11

