# https://github.com/mikedh/trimesh
v 0.03049974 0.06829935 0.10412688
v 0.02782131 0.06829935 0.10412688
v 0.03049974 0.06603026 0.10412688
v 0.03049974 0.06829935 0.10215571
v 0.02782131 0.06675686 0.10412688
v 0.02782131 0.06829935 0.10215571
v 0.02811629 0.06603026 0.10412688
v 0.03049974 0.06603026 0.10109732
v 0.02812364 0.06715981 0.10162400
v 0.02782131 0.06805878 0.10204332
v 0.02782131 0.06708073 0.10343206
v 0.02784727 0.06603026 0.10109732
v 0.02796474 0.06620397 0.10117828
v 0.02807670 0.06645209 0.10129394
v 0.02782131 0.06781843 0.10193122
v 0.02782131 0.06778733 0.10191699
f 1 2 5
f 1 5 7
f 1 7 3
f 1 3 8
f 1 8 4
f 1 4 6
f 1 6 2
f 2 6 10
f 2 10 15
f 2 15 16
f 2 16 11
f 2 11 5
f 3 7 12
f 3 12 8
f 4 8 9
f 4 9 10
f 4 10 6
f 5 11 12
f 5 12 7
f 8 12 13
f 8 13 14
f 8 14 9
f 9 14 15
f 9 15 10
f 11 16 12
f 12 16 15
f 12 15 14
f 12 14 13

