# https://github.com/mikedh/trimesh
v -0.02807740 0.06559657 0.10541838
v -0.03050000 0.06559657 0.10541838
v -0.02809089 0.06555762 0.10540084
v -0.02644912 0.06366548 0.10451827
v -0.02644912 0.06539793 0.10080299
v -0.02732473 0.06559657 0.10089521
v -0.03050000 0.06559657 0.10089521
v -0.03050000 0.05790962 0.10183492
v -0.02809089 0.06476150 0.10502970
v -0.02696307 0.06372391 0.10454599
v -0.02647569 0.06366393 0.10451770
v -0.02644912 0.05790962 0.10183492
v -0.02644912 0.06451067 0.09963925
v -0.02650028 0.06451067 0.09963925
v -0.03050000 0.06439461 0.09963925
v -0.03050000 0.05763854 0.09963925
v -0.02644912 0.05763854 0.09963925
f 1 2 3
f 1 3 4
f 1 4 5
f 1 5 6
f 1 6 7
f 1 7 2
f 2 7 15
f 2 15 16
f 2 16 8
f 2 8 3
f 3 8 9
f 3 9 10
f 3 10 11
f 3 11 4
f 4 11 12
f 4 12 17
f 4 17 13
f 4 13 5
f 5 13 6
f 6 13 14
f 6 14 7
f 7 14 15
f 8 16 17
f 8 17 12
f 8 12 10
f 8 10 9
f 10 12 11
f 13 17 16
f 13 16 15
f 13 15 14

