# https://github.com/mikedh/trimesh
v -0.03050000 0.06874349 0.09615312
v -0.03050000 0.06874349 0.09938329
v -0.03050000 0.06985297 0.09615312
v -0.02804325 0.06874349 0.09615312
v -0.03050000 0.06929215 0.09963924
v -0.02795205 0.06874349 0.09938329
v -0.03050000 0.06985297 0.09963924
v -0.02809417 0.06985297 0.09615312
v -0.02646686 0.06985297 0.09905395
v -0.02646686 0.06984276 0.09907580
v -0.02646686 0.06958005 0.09963924
v -0.02739066 0.06929215 0.09963924
v -0.02646686 0.06985297 0.09963924
f 1 2 5
f 1 5 7
f 1 7 3
f 1 3 8
f 1 8 4
f 1 4 6
f 1 6 2
f 2 6 12
f 2 12 5
f 3 7 13
f 3 13 9
f 3 9 8
f 4 8 9
f 4 9 10
f 4 10 11
f 4 11 6
f 5 12 11
f 5 11 13
f 5 13 7
f 6 11 12
f 9 13 11
f 9 11 10

