# https://github.com/mikedh/trimesh
v -0.03070000 0.05000207 0.03824998
v -0.03049909 0.05007068 0.03830479
v -0.03070000 0.06597463 0.03824998
v -0.03070000 0.06597463 0.03766557
v -0.03069810 0.04994929 0.03766557
v -0.03069621 0.04988596 0.03824998
v -0.03067631 0.04971179 0.03824998
v -0.03064598 0.04954114 0.03824998
v -0.03061471 0.04942854 0.03824998
v -0.03055689 0.04926317 0.03824998
v -0.03045928 0.04905381 0.03824998
v -0.03036925 0.04890427 0.03824998
v -0.03026784 0.04876177 0.03824998
v -0.03015412 0.04862983 0.03824998
v -0.03002807 0.04850844 0.03824998
v -0.02984611 0.04836417 0.03824998
v -0.02969921 0.04827093 0.03824998
v -0.02959591 0.04821463 0.03824998
v -0.02943670 0.04814426 0.03824998
v -0.02921683 0.04807037 0.03824998
v -0.02904719 0.04803343 0.03824998
v -0.02887281 0.04801056 0.03824998
v -0.02869938 0.04800176 0.03824998
v -0.02250038 0.05007068 0.03830479
v -0.03049909 0.06597463 0.03830479
v -0.02101816 0.06597463 0.03766557
v -0.03067631 0.04970651 0.03766557
v -0.03064598 0.04954114 0.03766557
v -0.03061471 0.04942854 0.03766557
v -0.03055879 0.04926845 0.03766557
v -0.03045928 0.04905381 0.03766557
v -0.03037019 0.04890251 0.03766557
v -0.03027069 0.04876705 0.03766557
v -0.03011621 0.04859112 0.03766557
v -0.02994372 0.04843630 0.03766557
v -0.02979872 0.04833075 0.03766557
v -0.02969921 0.04827093 0.03766557
v -0.02959591 0.04821463 0.03766557
v -0.02949072 0.04816537 0.03766557
v -0.02933340 0.04810556 0.03766557
v -0.02917134 0.04805806 0.03766557
v -0.02905761 0.04803519 0.03766557
v -0.02893157 0.04801583 0.03766557
v -0.02876856 0.04800352 0.03766557
v -0.02101816 0.04800176 0.03824998
v -0.02101816 0.04800176 0.03766557
v -0.02250038 0.06597463 0.03830479
v -0.02101816 0.06597463 0.03824998
f 1 2 25
f 1 25 3
f 1 3 4
f 1 4 5
f 1 5 6
f 1 6 2
f 2 6 7
f 2 7 8
f 2 8 9
f 2 9 10
f 2 10 11
f 2 11 12
f 2 12 13
f 2 13 14
f 2 14 15
f 2 15 16
f 2 16 17
f 2 17 18
f 2 18 19
f 2 19 20
f 2 20 21
f 2 21 22
f 2 22 23
f 2 23 45
f 2 45 24
f 2 24 47
f 2 47 25
f 3 25 47
f 3 47 48
f 3 48 26
f 3 26 4
f 4 26 46
f 4 46 44
f 4 44 43
f 4 43 42
f 4 42 41
f 4 41 40
f 4 40 39
f 4 39 38
f 4 38 37
f 4 37 36
f 4 36 35
f 4 35 34
f 4 34 33
f 4 33 32
f 4 32 31
f 4 31 30
f 4 30 29
f 4 29 28
f 4 28 27
f 4 27 5
f 5 27 6
f 6 27 7
f 7 27 8
f 8 27 28
f 8 28 29
f 8 29 9
f 9 29 30
f 9 30 10
f 10 31 11
f 10 30 31
f 11 31 32
f 11 32 12
f 12 32 13
f 13 32 33
f 13 33 14
f 14 33 34
f 14 34 15
f 15 35 16
f 15 34 35
f 16 35 36
f 16 36 17
f 17 36 37
f 17 37 38
f 17 38 18
f 18 38 39
f 18 39 19
f 19 40 20
f 19 39 40
f 20 40 41
f 20 41 21
f 21 41 42
f 21 42 43
f 21 43 22
f 22 43 44
f 22 44 23
f 23 44 46
f 23 46 45
f 24 45 48
f 24 48 47
f 26 48 45
f 26 45 46

