# https://github.com/mikedh/trimesh
v -0.02250030 0.07235802 0.09963859
v -0.02362102 0.07235826 0.09963859
v -0.02250030 0.06985297 0.09963859
v -0.02250030 0.07231902 0.09294187
v -0.02350135 0.07231951 0.09294187
v -0.02553373 0.07234404 0.09714347
v -0.02553373 0.07235826 0.09963859
v -0.02553373 0.06985297 0.09963859
v -0.02250030 0.06985297 0.09294187
v -0.02548741 0.07231951 0.09294187
v -0.02553373 0.07232000 0.09302317
v -0.02553373 0.07232540 0.09393180
v -0.02553373 0.07232810 0.09439398
v -0.02553373 0.07233521 0.09561991
v -0.02553373 0.06985297 0.09831432
v -0.02513996 0.06985297 0.09294187
f 1 2 7
f 1 7 8
f 1 8 3
f 1 3 9
f 1 9 4
f 1 4 5
f 1 5 2
f 2 6 7
f 2 5 6
f 3 8 15
f 3 15 16
f 3 16 9
f 4 9 16
f 4 16 10
f 4 10 5
f 5 10 11
f 5 11 12
f 5 12 13
f 5 13 14
f 5 14 6
f 6 14 13
f 6 13 12
f 6 12 11
f 6 11 15
f 6 15 8
f 6 8 7
f 10 16 11
f 11 16 15

