# https://github.com/mikedh/trimesh
v 0.02565713 0.06536286 0.03831068
v 0.02565713 0.06829957 0.03831068
v 0.02731378 0.06536286 0.03831068
v 0.02565713 0.06536286 0.09781145
v 0.02731378 0.06829957 0.03831068
v 0.02565713 0.06829957 0.09512668
v 0.02731378 0.06536286 0.09780557
v 0.02649989 0.06536286 0.09781145
v 0.02603740 0.06659849 0.09838256
v 0.02567513 0.06673879 0.09844732
v 0.02565713 0.06655135 0.09835901
v 0.02731378 0.06829957 0.09508547
v 0.02565713 0.06720855 0.09746409
v 0.02731378 0.06673361 0.09844144
v 0.02731378 0.06667525 0.09841789
v 0.02728183 0.06671694 0.09843555
v 0.02565713 0.06674885 0.09844732
f 1 2 5
f 1 5 3
f 1 3 7
f 1 7 8
f 1 8 4
f 1 4 11
f 1 11 17
f 1 17 13
f 1 13 6
f 1 6 2
f 2 6 12
f 2 12 5
f 3 5 12
f 3 12 14
f 3 14 15
f 3 15 7
f 4 8 9
f 4 9 10
f 4 10 11
f 6 13 14
f 6 14 12
f 7 15 8
f 8 15 9
f 9 15 10
f 10 15 16
f 10 16 14
f 10 14 17
f 10 17 11
f 13 17 14
f 14 16 15

