# https://github.com/mikedh/trimesh
v -0.03050000 0.06559657 0.10377466
v -0.03050000 0.06559657 0.10541892
v -0.03050000 0.06718365 0.10377466
v -0.02815672 0.06559657 0.10377466
v -0.03050000 0.06718365 0.10615901
v -0.02807740 0.06559657 0.10541892
v -0.02714866 0.06653490 0.10585653
v -0.02760431 0.06718365 0.10377466
v -0.02813610 0.06559983 0.10377466
v -0.02813610 0.06559657 0.10378120
v -0.02644912 0.06718365 0.10615901
v -0.02644912 0.06665405 0.10591185
v -0.02647569 0.06665514 0.10591255
v -0.02667278 0.06664706 0.10590881
v -0.02644912 0.06718365 0.10477662
v -0.02644912 0.06712120 0.10491035
v -0.02644912 0.06679760 0.10560400
v -0.02644912 0.06669367 0.10593052
f 1 2 5
f 1 5 3
f 1 3 8
f 1 8 9
f 1 9 4
f 1 4 10
f 1 10 6
f 1 6 2
f 2 6 7
f 2 7 5
f 3 5 11
f 3 11 15
f 3 15 8
f 4 9 10
f 5 7 11
f 6 10 12
f 6 12 13
f 6 13 14
f 6 14 7
f 7 14 11
f 8 15 9
f 9 15 10
f 10 15 16
f 10 16 17
f 10 17 12
f 11 14 18
f 11 18 12
f 11 12 17
f 11 17 16
f 11 16 15
f 12 18 13
f 13 18 14

