# https://github.com/mikedh/trimesh
v -0.02250039 0.06985297 0.09615277
v -0.02490530 0.06985297 0.09615277
v -0.02250039 0.06874349 0.09615277
v -0.02250039 0.06985297 0.03830479
v -0.02495618 0.06874349 0.09615277
v -0.02649879 0.06985297 0.09124340
v -0.02649879 0.06967095 0.09163411
v -0.02649879 0.06874349 0.09362164
v -0.02250039 0.06874349 0.03830479
v -0.02649879 0.06985297 0.03830479
v -0.02649879 0.06874349 0.03830479
f 1 2 5
f 1 5 3
f 1 3 9
f 1 9 4
f 1 4 10
f 1 10 6
f 1 6 2
f 2 6 7
f 2 7 8
f 2 8 5
f 3 5 8
f 3 8 11
f 3 11 9
f 4 9 11
f 4 11 10
f 6 10 11
f 6 11 8
f 6 8 7

