# https://github.com/mikedh/trimesh
v 0.02648611 0.06829996 0.03830479
v 0.02648611 0.07200295 0.03830479
v 0.02719738 0.06829996 0.03830479
v 0.02648611 0.06829996 0.09145816
v 0.02719738 0.07211851 0.05822169
v 0.02719738 0.07200295 0.03830479
v 0.02648611 0.07217335 0.06767546
v 0.02719738 0.06829996 0.09145816
v 0.02648611 0.06975483 0.09145816
v 0.02719738 0.07230144 0.08978801
v 0.02648611 0.07230144 0.08978801
v 0.02719738 0.06992602 0.09145816
f 1 2 6
f 1 6 3
f 1 3 8
f 1 8 4
f 1 4 9
f 1 9 11
f 1 11 7
f 1 7 2
f 2 5 6
f 2 7 5
f 3 6 5
f 3 5 10
f 3 10 12
f 3 12 8
f 4 8 12
f 4 12 9
f 5 7 10
f 7 11 10
f 9 12 11
f 10 11 12

