# https://github.com/mikedh/trimesh
v 0.02577500 0.07236006 0.09994165
v 0.02302483 0.07236006 0.09994165
v 0.02577500 0.07025536 0.09994165
v 0.02577500 0.07233821 0.09613619
v 0.02250000 0.07235985 0.09994165
v 0.02296232 0.07231534 0.09221271
v 0.02250000 0.07025536 0.09994165
v 0.02577500 0.07025536 0.09779456
v 0.02577500 0.07233409 0.09542503
v 0.02250000 0.07231473 0.09221271
v 0.02519759 0.07231576 0.09226794
v 0.02518060 0.07231534 0.09221271
v 0.02577500 0.07232214 0.09336343
v 0.02250000 0.07025536 0.09221271
v 0.02510237 0.07025536 0.09221271
f 1 2 5
f 1 5 7
f 1 7 3
f 1 3 8
f 1 8 13
f 1 13 9
f 1 9 4
f 1 4 2
f 2 4 6
f 2 6 5
f 3 7 14
f 3 14 15
f 3 15 8
f 4 9 6
f 5 6 10
f 5 10 14
f 5 14 7
f 6 11 12
f 6 12 15
f 6 15 14
f 6 14 10
f 6 9 13
f 6 13 11
f 8 15 13
f 11 13 12
f 12 13 15

