# https://github.com/mikedh/trimesh
v -0.02495599 0.06874349 0.09615312
v -0.02504802 0.06874349 0.09938329
v -0.02646686 0.06958005 0.09963924
v -0.02646686 0.06984276 0.09907580
v -0.02646686 0.06985297 0.09905395
v -0.02490551 0.06985297 0.09615312
v -0.02250039 0.06874349 0.09615312
v -0.02560950 0.06929215 0.09963924
v -0.02361481 0.06874349 0.09963924
v -0.02646686 0.06985297 0.09963924
v -0.02250039 0.06985297 0.09615312
v -0.02250039 0.06874349 0.09963924
v -0.02250039 0.06985297 0.09963924
f 1 2 3
f 1 3 4
f 1 4 5
f 1 5 6
f 1 6 11
f 1 11 7
f 1 7 12
f 1 12 9
f 1 9 2
f 2 8 3
f 2 9 8
f 3 8 9
f 3 9 12
f 3 12 13
f 3 13 10
f 3 10 5
f 3 5 4
f 5 10 13
f 5 13 11
f 5 11 6
f 7 11 13
f 7 13 12

