# https://github.com/mikedh/trimesh
v -0.02479963 0.07236801 0.10128057
v -0.02479963 0.07024186 0.10128057
v -0.02479963 0.07236114 0.10009376
v -0.02958537 0.07236801 0.10128057
v -0.02480019 0.07023831 0.10008042
v -0.02479963 0.07023831 0.09963924
v -0.02650053 0.07024373 0.10128057
v -0.03050000 0.07023831 0.10008042
v -0.02479963 0.07236009 0.09991719
v -0.02938001 0.07235843 0.09963924
v -0.03050000 0.07236656 0.10128057
v -0.02479963 0.07235843 0.09963924
v -0.03050000 0.07023831 0.09963924
v -0.03050000 0.07036007 0.10128057
v -0.03050000 0.07235655 0.09963924
f 1 2 6
f 1 6 12
f 1 12 9
f 1 9 3
f 1 3 4
f 1 4 11
f 1 11 14
f 1 14 7
f 1 7 2
f 2 5 6
f 2 7 8
f 2 8 5
f 3 9 10
f 3 10 4
f 4 10 11
f 5 8 13
f 5 13 6
f 6 13 15
f 6 15 10
f 6 10 12
f 7 14 8
f 8 14 11
f 8 11 15
f 8 15 13
f 9 12 10
f 10 15 11

