# https://github.com/mikedh/trimesh
v -0.00945011 0.05399546 0.03724970
v -0.00800146 0.05075156 0.03766510
v -0.00800146 0.05254955 0.03724970
v -0.00945011 0.05399546 0.03525000
v -0.01125204 0.05399546 0.03766510
v -0.00800146 0.04800117 0.03766510
v -0.00800146 0.05254955 0.03525000
v -0.03070000 0.05399546 0.03525000
v -0.03070000 0.05399546 0.03766510
v -0.00800146 0.04800117 0.03525000
v -0.02876254 0.04800235 0.03766510
v -0.02869588 0.04800117 0.03525000
v -0.03070000 0.05000044 0.03525000
v -0.03070000 0.05000044 0.03766510
v -0.02899361 0.04802347 0.03766510
v -0.02887141 0.04800939 0.03525000
v -0.03069556 0.04988425 0.03525000
v -0.03069556 0.04988425 0.03766510
v -0.02922024 0.04807100 0.03766510
v -0.02910248 0.04804284 0.03525000
v -0.03068445 0.04976865 0.03525000
v -0.03067556 0.04971114 0.03766510
v -0.02944243 0.04814494 0.03766510
v -0.02932689 0.04810328 0.03525000
v -0.03066889 0.04965364 0.03525000
v -0.03062890 0.04948287 0.03766510
v -0.02960462 0.04821888 0.03766510
v -0.02954241 0.04818895 0.03525000
v -0.03062890 0.04948287 0.03525000
v -0.03055780 0.04926751 0.03766510
v -0.02975126 0.04830221 0.03766510
v -0.02969794 0.04826876 0.03525000
v -0.03055558 0.04926282 0.03525000
v -0.03048670 0.04910321 0.03525000
v -0.03046004 0.04905685 0.03766510
v -0.02989346 0.04839668 0.03766510
v -0.02979570 0.04832979 0.03525000
v -0.03042893 0.04900051 0.03525000
v -0.03036894 0.04890193 0.03766510
v -0.02998456 0.04846886 0.03525000
v -0.02989346 0.04839668 0.03525000
v -0.03003122 0.04851111 0.03766510
v -0.03036894 0.04890193 0.03525000
v -0.03030006 0.04880628 0.03766510
v -0.03006899 0.04854632 0.03525000
v -0.03019564 0.04867601 0.03766510
v -0.03015342 0.04862848 0.03525000
v -0.03026674 0.04876051 0.03525000
f 1 2 3
f 1 3 7
f 1 7 4
f 1 4 8
f 1 8 9
f 1 9 5
f 1 5 2
f 2 5 9
f 2 9 14
f 2 14 18
f 2 18 22
f 2 22 26
f 2 26 30
f 2 30 35
f 2 35 39
f 2 39 44
f 2 44 46
f 2 46 42
f 2 42 36
f 2 36 31
f 2 31 27
f 2 27 23
f 2 23 19
f 2 19 15
f 2 15 11
f 2 11 6
f 2 6 10
f 2 10 7
f 2 7 3
f 4 7 10
f 4 10 12
f 4 12 16
f 4 16 20
f 4 20 24
f 4 24 28
f 4 28 32
f 4 32 37
f 4 37 41
f 4 41 40
f 4 40 45
f 4 45 47
f 4 47 48
f 4 48 43
f 4 43 38
f 4 38 34
f 4 34 33
f 4 33 29
f 4 29 25
f 4 25 21
f 4 21 17
f 4 17 13
f 4 13 8
f 6 11 12
f 6 12 10
f 8 13 14
f 8 14 9
f 11 15 16
f 11 16 12
f 13 17 18
f 13 18 14
f 15 19 20
f 15 20 16
f 17 21 18
f 18 21 22
f 19 23 24
f 19 24 20
f 21 25 22
f 22 25 26
f 23 27 28
f 23 28 24
f 25 29 26
f 26 29 30
f 27 31 32
f 27 32 28
f 29 33 30
f 30 34 35
f 30 33 34
f 31 36 37
f 31 37 32
f 34 38 35
f 35 38 39
f 36 40 41
f 36 41 37
f 36 42 40
f 38 43 39
f 39 43 44
f 40 42 45
f 42 46 47
f 42 47 45
f 43 48 44
f 44 48 46
f 46 48 47

