# https://github.com/mikedh/trimesh
v 0.03070000 0.05399717 0.03766510
v 0.03070000 0.05000003 0.03766510
v 0.03070000 0.05399717 0.03525000
v 0.01125154 0.05399717 0.03766510
v 0.03069556 0.04988439 0.03766510
v 0.03070000 0.05000003 0.03525000
v 0.00945039 0.05399717 0.03525000
v 0.00945039 0.05399717 0.03724970
v 0.00801124 0.05075203 0.03766510
v 0.03069556 0.04988439 0.03525000
v 0.03067557 0.04971121 0.03766510
v 0.00801124 0.05254953 0.03525000
v 0.00801124 0.05254953 0.03724970
v 0.00801124 0.04800000 0.03766510
v 0.03067557 0.04971121 0.03525000
v 0.03064448 0.04953921 0.03766510
v 0.00801124 0.04800000 0.03525000
v 0.02875671 0.04800176 0.03766510
v 0.03064448 0.04953921 0.03525000
v 0.03061561 0.04942650 0.03766510
v 0.02875671 0.04800176 0.03525000
v 0.02899435 0.04802348 0.03766510
v 0.03061561 0.04942650 0.03525000
v 0.03055786 0.04926800 0.03766510
v 0.02898768 0.04802289 0.03525000
v 0.02917202 0.04805753 0.03766510
v 0.03055564 0.04926272 0.03525000
v 0.03046014 0.04905667 0.03766510
v 0.03048457 0.04910245 0.03525000
v 0.02921644 0.04806986 0.03525000
v 0.02933192 0.04810508 0.03766510
v 0.03037575 0.04891108 0.03766510
v 0.03043127 0.04900031 0.03525000
v 0.02938300 0.04812152 0.03525000
v 0.02955179 0.04819372 0.03766510
v 0.03030246 0.04880600 0.03766510
v 0.03036909 0.04890169 0.03525000
v 0.02954291 0.04818844 0.03525000
v 0.02969837 0.04826828 0.03525000
v 0.02975167 0.04830174 0.03766510
v 0.03019585 0.04867568 0.03766510
v 0.03026470 0.04876080 0.03525000
v 0.02979609 0.04832933 0.03525000
v 0.02989381 0.04839684 0.03766510
v 0.03002706 0.04850720 0.03766510
v 0.03015366 0.04862754 0.03525000
v 0.02989381 0.04839684 0.03525000
v 0.03002706 0.04850720 0.03525000
f 1 2 6
f 1 6 3
f 1 3 7
f 1 7 8
f 1 8 4
f 1 4 9
f 1 9 14
f 1 14 18
f 1 18 22
f 1 22 26
f 1 26 31
f 1 31 35
f 1 35 40
f 1 40 44
f 1 44 45
f 1 45 41
f 1 41 36
f 1 36 32
f 1 32 28
f 1 28 24
f 1 24 20
f 1 20 16
f 1 16 11
f 1 11 5
f 1 5 2
f 2 5 10
f 2 10 6
f 3 6 10
f 3 10 15
f 3 15 19
f 3 19 23
f 3 23 27
f 3 27 29
f 3 29 33
f 3 33 37
f 3 37 42
f 3 42 46
f 3 46 48
f 3 48 47
f 3 47 43
f 3 43 39
f 3 39 38
f 3 38 34
f 3 34 30
f 3 30 25
f 3 25 21
f 3 21 17
f 3 17 12
f 3 12 7
f 4 8 9
f 5 11 15
f 5 15 10
f 7 12 13
f 7 13 8
f 8 13 9
f 9 13 12
f 9 12 17
f 9 17 14
f 11 16 19
f 11 19 15
f 14 17 21
f 14 21 18
f 16 20 23
f 16 23 19
f 18 21 22
f 20 24 23
f 21 25 22
f 22 25 26
f 23 24 27
f 24 28 29
f 24 29 27
f 25 30 26
f 26 30 31
f 28 32 33
f 28 33 29
f 30 34 31
f 31 34 35
f 32 36 37
f 32 37 33
f 34 38 35
f 35 38 39
f 35 39 40
f 36 41 42
f 36 42 37
f 39 43 40
f 40 43 44
f 41 45 46
f 41 46 42
f 43 47 44
f 44 47 48
f 44 48 45
f 45 48 46

