# https://github.com/mikedh/trimesh
v 0.02617016 0.06829957 0.10412687
v 0.02423235 0.06829957 0.10412687
v 0.02617016 0.06745048 0.10412687
v 0.02617016 0.06829957 0.10230636
v 0.02419740 0.06829957 0.10383585
v 0.02419740 0.06829780 0.10412687
v 0.02499763 0.06649523 0.10412687
v 0.02503065 0.06649523 0.10412440
v 0.02490860 0.06649523 0.10131434
v 0.02617016 0.06799311 0.10296304
v 0.02594094 0.06829957 0.10215576
v 0.02419740 0.06829957 0.10215576
v 0.02419740 0.06649523 0.10412687
v 0.02419740 0.06649523 0.10131434
v 0.02419740 0.06656059 0.10134462
v 0.02488620 0.06658179 0.10135454
v 0.02486844 0.06666993 0.10139556
v 0.02535970 0.06797350 0.10200350
v 0.02567485 0.06818758 0.10210344
v 0.02419740 0.06817098 0.10209573
v 0.02419740 0.06665156 0.10138702
v 0.02419740 0.06686476 0.10148642
v 0.02419740 0.06718129 0.10163400
v 0.02488620 0.06720372 0.10164446
v 0.02493873 0.06737612 0.10172486
f 1 2 6
f 1 6 13
f 1 13 7
f 1 7 3
f 1 3 10
f 1 10 4
f 1 4 11
f 1 11 12
f 1 12 5
f 1 5 2
f 2 5 6
f 3 7 8
f 3 8 9
f 3 9 10
f 4 10 9
f 4 9 11
f 5 12 20
f 5 20 23
f 5 23 22
f 5 22 21
f 5 21 15
f 5 15 14
f 5 14 13
f 5 13 6
f 7 13 14
f 7 14 9
f 7 9 8
f 9 14 15
f 9 15 16
f 9 16 11
f 11 16 17
f 11 17 18
f 11 18 19
f 11 19 12
f 12 19 18
f 12 18 20
f 15 21 17
f 15 17 16
f 17 21 22
f 17 22 23
f 17 23 24
f 17 24 18
f 18 24 25
f 18 25 23
f 18 23 20
f 23 25 24

