# https://github.com/mikedh/trimesh
v 0.00001647 0.05252513 0.03825000
v 0.00516239 0.05241305 0.03825000
v 0.00001647 0.05252513 0.03766557
v -0.00510245 0.05252513 0.03825000
v 0.00861720 0.05080899 0.03825000
v 0.00516239 0.05241305 0.03766557
v -0.00510245 0.05252513 0.03766557
v -0.00862476 0.05081165 0.03825000
v 0.00861720 0.05080899 0.03766557
v 0.00861720 0.04800045 0.03825000
v -0.00862476 0.05081165 0.03766557
v -0.00862476 0.04800000 0.03825000
v 0.00861720 0.04800045 0.03766557
v 0.00001647 0.04800000 0.03825000
v -0.00862476 0.04800000 0.03766557
v 0.00001647 0.04800000 0.03766557
f 1 2 6
f 1 6 3
f 1 3 7
f 1 7 4
f 1 4 8
f 1 8 12
f 1 12 14
f 1 14 10
f 1 10 5
f 1 5 2
f 2 5 9
f 2 9 6
f 3 6 9
f 3 9 13
f 3 13 16
f 3 16 15
f 3 15 11
f 3 11 7
f 4 7 11
f 4 11 8
f 5 10 13
f 5 13 9
f 8 11 15
f 8 15 12
f 10 14 16
f 10 16 13
f 12 15 16
f 12 16 14

