# https://github.com/mikedh/trimesh
v 0.03050000 0.07067697 0.09565615
v 0.02784103 0.07067697 0.09565615
v 0.03050000 0.06829980 0.09565615
v 0.03050000 0.07067697 0.03830479
v 0.02763768 0.06829980 0.09565615
v 0.02719738 0.07067697 0.08984579
v 0.02719738 0.06829980 0.09494318
v 0.03050000 0.06829980 0.03830479
v 0.02719738 0.07067697 0.03830479
v 0.02719738 0.06829980 0.03830479
f 1 2 5
f 1 5 3
f 1 3 8
f 1 8 4
f 1 4 9
f 1 9 6
f 1 6 2
f 2 6 7
f 2 7 5
f 3 5 7
f 3 7 10
f 3 10 8
f 4 8 10
f 4 10 9
f 6 9 10
f 6 10 7

