# https://github.com/mikedh/trimesh
v 0.03050000 0.06574312 0.10548765
v 0.03050000 0.06603026 0.10412680
v 0.02801864 0.06574312 0.10548765
v 0.03050000 0.06282437 0.10412680
v 0.02811652 0.06603026 0.10412680
v 0.03050000 0.06603026 0.10109766
v 0.02761092 0.06578554 0.10098447
v 0.02754200 0.06425601 0.10412680
v 0.02754200 0.06400068 0.10467429
v 0.02761092 0.06282437 0.10412680
v 0.03050000 0.05790949 0.10183520
v 0.02784750 0.06603026 0.10109766
v 0.03050000 0.06417525 0.10011005
v 0.02761092 0.06417525 0.10011005
v 0.02754200 0.06282519 0.10412680
v 0.02761092 0.05790949 0.10183520
v 0.03028253 0.05769658 0.10011005
v 0.03050000 0.05769740 0.10011005
v 0.02761092 0.05769658 0.10011005
f 1 2 5
f 1 5 3
f 1 3 10
f 1 10 4
f 1 4 11
f 1 11 18
f 1 18 13
f 1 13 6
f 1 6 2
f 2 6 12
f 2 12 5
f 3 5 7
f 3 7 8
f 3 8 9
f 3 9 10
f 4 10 16
f 4 16 11
f 5 12 7
f 6 13 14
f 6 14 12
f 7 12 14
f 7 14 8
f 8 14 19
f 8 19 15
f 8 15 9
f 9 15 10
f 10 15 16
f 11 16 19
f 11 19 17
f 11 17 18
f 13 18 17
f 13 17 19
f 13 19 14
f 15 19 16

