# https://github.com/mikedh/trimesh
v 0.02577500 0.06829957 0.09497321
v 0.02577500 0.06829957 0.03830479
v 0.02577500 0.07025517 0.09077807
v 0.02510654 0.07025517 0.09637727
v 0.02511038 0.06829957 0.09637727
v 0.02250000 0.06829957 0.03830479
v 0.02577500 0.07025517 0.03830479
v 0.02250000 0.07025517 0.09637727
v 0.02250000 0.06829957 0.09637727
v 0.02250000 0.07025517 0.03830479
f 1 2 7
f 1 7 3
f 1 3 4
f 1 4 5
f 1 5 9
f 1 9 6
f 1 6 2
f 2 6 10
f 2 10 7
f 3 7 10
f 3 10 8
f 3 8 4
f 4 8 9
f 4 9 5
f 6 9 8
f 6 8 10

