# https://github.com/mikedh/trimesh
v 0.03049942 0.07238450 0.10412668
v 0.03049942 0.06829997 0.10412668
v 0.03049942 0.07237291 0.10214970
v 0.02455877 0.07238450 0.10412668
v 0.03049942 0.06829997 0.10215570
v 0.02455877 0.06829997 0.10412668
v 0.03049942 0.06995498 0.10214970
v 0.02455877 0.07237291 0.10214970
v 0.02455877 0.06829997 0.10215570
v 0.02455877 0.06937758 0.10214970
f 1 2 5
f 1 5 7
f 1 7 3
f 1 3 8
f 1 8 4
f 1 4 6
f 1 6 2
f 2 6 9
f 2 9 5
f 3 7 10
f 3 10 8
f 4 8 10
f 4 10 9
f 4 9 6
f 5 9 10
f 5 10 7

