# https://github.com/mikedh/trimesh
v 0.03050000 0.06829957 0.09917640
v 0.02812374 0.06829957 0.09917640
v 0.02767556 0.06698402 0.09856268
v 0.03050000 0.06536286 0.09780595
v 0.03050000 0.06829957 0.03830479
v 0.02731378 0.06673361 0.09844351
v 0.02731378 0.06829957 0.09508294
v 0.02731378 0.06803997 0.09564303
v 0.02731378 0.06666950 0.09841372
v 0.02731378 0.06536286 0.09780595
v 0.03050000 0.06536286 0.03830479
v 0.02731378 0.06829957 0.03830479
v 0.02731378 0.06536286 0.03830479
f 1 2 3
f 1 3 4
f 1 4 11
f 1 11 5
f 1 5 12
f 1 12 7
f 1 7 2
f 2 6 3
f 2 7 8
f 2 8 6
f 3 6 9
f 3 9 10
f 3 10 4
f 4 10 13
f 4 13 11
f 5 11 13
f 5 13 12
f 6 8 7
f 6 7 12
f 6 12 13
f 6 13 10
f 6 10 9

