# https://github.com/mikedh/trimesh
v -0.02751070 0.06985297 0.09206477
v -0.02751304 0.07231971 0.09294188
v -0.02786011 0.06985345 0.09294188
v -0.02783904 0.06985297 0.09286700
v -0.02751070 0.06985297 0.03830479
v -0.02751070 0.07230136 0.08978645
v -0.02949976 0.07231971 0.09294188
v -0.02751070 0.07216276 0.06585865
v -0.02751070 0.07200316 0.03830479
v -0.02808368 0.07230836 0.09097909
v -0.02791425 0.06985297 0.09294188
v -0.03050000 0.06985297 0.03830479
v -0.03050000 0.07231657 0.09294188
v -0.03050000 0.07200316 0.03830479
v -0.03050000 0.06985297 0.09294188
f 1 2 3
f 1 3 4
f 1 4 11
f 1 11 15
f 1 15 12
f 1 12 5
f 1 5 9
f 1 9 8
f 1 8 6
f 1 6 2
f 2 7 13
f 2 13 15
f 2 15 11
f 2 11 3
f 2 6 8
f 2 8 9
f 2 9 10
f 2 10 7
f 3 11 4
f 5 12 14
f 5 14 9
f 7 10 14
f 7 14 13
f 9 14 10
f 12 15 13
f 12 13 14

