# https://github.com/mikedh/trimesh
v -0.02794078 0.06730466 0.09870781
v -0.02794078 0.06718032 0.09865400
v -0.02794078 0.06732831 0.09865998
v -0.02795181 0.06874330 0.09938340
v -0.02794078 0.06687204 0.09851051
v -0.02794078 0.06874330 0.09562279
v -0.03050000 0.06874330 0.09938340
v -0.02794078 0.06681016 0.09848062
v -0.03050000 0.06681016 0.09848062
v -0.02794078 0.06874330 0.03830479
v -0.03050000 0.06874330 0.03830479
v -0.02794078 0.06681016 0.03830479
v -0.03050000 0.06681016 0.03830479
f 1 2 5
f 1 5 8
f 1 8 12
f 1 12 10
f 1 10 6
f 1 6 3
f 1 3 4
f 1 4 2
f 2 4 5
f 3 6 4
f 4 7 5
f 4 6 10
f 4 10 11
f 4 11 7
f 5 7 9
f 5 9 8
f 7 11 13
f 7 13 9
f 8 9 13
f 8 13 12
f 10 12 13
f 10 13 11

