# https://github.com/mikedh/trimesh
v -0.00945011 0.06600004 0.03724989
v -0.00945011 0.06600004 0.03525000
v -0.01124982 0.06600004 0.03766534
v -0.00800146 0.06275121 0.03766534
v -0.00800146 0.06455008 0.03724989
v -0.03070000 0.06600004 0.03525000
v -0.00800146 0.06455008 0.03525000
v -0.03070000 0.06600004 0.03766534
v -0.00800146 0.06002954 0.03766534
v -0.03070000 0.06002954 0.03525000
v -0.00800146 0.06002954 0.03525000
v -0.03070000 0.06002954 0.03766534
f 1 2 6
f 1 6 8
f 1 8 3
f 1 3 4
f 1 4 5
f 1 5 7
f 1 7 2
f 2 7 11
f 2 11 10
f 2 10 6
f 3 8 12
f 3 12 9
f 3 9 4
f 4 9 11
f 4 11 7
f 4 7 5
f 6 10 12
f 6 12 8
f 9 12 10
f 9 10 11

