# https://github.com/mikedh/trimesh
v 0.02503108 0.06484013 0.10412688
v 0.02617016 0.06542785 0.10081658
v 0.02503108 0.06621315 0.10118268
v 0.02503108 0.06303695 0.10412688
v 0.02617016 0.06388393 0.10412688
v 0.02617016 0.06429159 0.10010953
v 0.02503108 0.06429159 0.10010953
v 0.02503108 0.06282353 0.10412609
v 0.02503175 0.06282520 0.10412688
v 0.02617016 0.06282520 0.10412688
v 0.02617016 0.05769658 0.10010953
v 0.02503108 0.05769658 0.10010953
v 0.02503108 0.05791000 0.10183468
v 0.02617016 0.05791000 0.10183468
f 1 2 3
f 1 3 7
f 1 7 12
f 1 12 13
f 1 13 8
f 1 8 4
f 1 4 9
f 1 9 10
f 1 10 5
f 1 5 2
f 2 6 3
f 2 5 10
f 2 10 14
f 2 14 11
f 2 11 6
f 3 6 7
f 4 8 9
f 6 11 12
f 6 12 7
f 8 13 9
f 9 13 14
f 9 14 10
f 11 14 13
f 11 13 12

