# https://github.com/mikedh/trimesh
v -0.02649879 0.06874349 0.09362164
v -0.02649879 0.06874349 0.03830479
v -0.02649879 0.06967095 0.09163411
v -0.02809441 0.06985297 0.09615277
v -0.02804350 0.06874349 0.09615277
v -0.03050000 0.06874349 0.03830479
v -0.02649879 0.06985297 0.03830479
v -0.02649879 0.06985297 0.09124340
v -0.03050000 0.06985297 0.09615277
v -0.03050000 0.06874349 0.09615277
v -0.03050000 0.06985297 0.03830479
f 1 2 7
f 1 7 8
f 1 8 3
f 1 3 4
f 1 4 5
f 1 5 10
f 1 10 6
f 1 6 2
f 2 6 11
f 2 11 7
f 3 8 4
f 4 9 10
f 4 10 5
f 4 8 7
f 4 7 11
f 4 11 9
f 6 10 9
f 6 9 11

