# https://github.com/mikedh/trimesh
v -0.02319935 0.06718365 0.10128117
v -0.02387786 0.06848151 0.10128057
v -0.02250000 0.06718365 0.10128117
v -0.02488184 0.06718365 0.10163561
v -0.02250000 0.06848151 0.10128057
v -0.02463467 0.06992737 0.10128057
v -0.02250000 0.06718365 0.10615830
v -0.02506352 0.06762737 0.10184236
v -0.02506352 0.06718365 0.10279356
v -0.02250000 0.06992737 0.10128057
v -0.02506352 0.06992737 0.10195810
v -0.02250000 0.06848151 0.10676410
v -0.02506352 0.06768405 0.10639218
v -0.02506352 0.06718365 0.10615830
v -0.02250000 0.06992737 0.10743862
v -0.02506352 0.06992737 0.10743862
f 1 2 5
f 1 5 3
f 1 3 7
f 1 7 14
f 1 14 9
f 1 9 4
f 1 4 2
f 2 4 6
f 2 6 10
f 2 10 5
f 3 5 10
f 3 10 15
f 3 15 12
f 3 12 7
f 4 8 6
f 4 9 8
f 6 8 11
f 6 11 16
f 6 16 15
f 6 15 10
f 7 12 13
f 7 13 14
f 8 9 14
f 8 14 13
f 8 13 16
f 8 16 11
f 12 15 13
f 13 15 16

