# https://github.com/mikedh/trimesh
v 0.02577546 0.06937682 0.09967764
v 0.02577546 0.07232200 0.09336329
v 0.02719724 0.07232200 0.09339356
v 0.02719724 0.06938908 0.09968344
v 0.02681890 0.06950122 0.09973624
v 0.02577546 0.06957102 0.09976908
v 0.02700194 0.07232317 0.09357257
v 0.02577546 0.07236026 0.09994165
v 0.02648607 0.07236026 0.09994165
v 0.02719724 0.07232463 0.09383143
v 0.02719724 0.06994103 0.09994165
v 0.02648607 0.06957102 0.09976908
v 0.02577546 0.06994074 0.09994165
v 0.02719724 0.07232960 0.09468141
v 0.02719724 0.07235997 0.09994165
v 0.02648607 0.06994074 0.09994165
f 1 2 3
f 1 3 4
f 1 4 5
f 1 5 6
f 1 6 13
f 1 13 8
f 1 8 2
f 2 7 3
f 2 8 9
f 2 9 7
f 3 7 10
f 3 10 14
f 3 14 15
f 3 15 11
f 3 11 4
f 4 11 5
f 5 12 6
f 5 11 12
f 6 12 16
f 6 16 13
f 7 9 14
f 7 14 10
f 8 13 16
f 8 16 11
f 8 11 15
f 8 15 9
f 9 15 14
f 11 16 12

