# https://github.com/mikedh/trimesh
v -0.02594123 0.06681016 0.09800287
v -0.02794053 0.06730466 0.09871244
v -0.02744717 0.06681016 0.09848183
v -0.02594123 0.06681016 0.03830479
v -0.02594123 0.06874330 0.09385783
v -0.02794053 0.06874330 0.09562583
v -0.02794053 0.06681016 0.09848183
v -0.02794053 0.06681016 0.03830479
v -0.02594123 0.06874330 0.03830479
v -0.02794053 0.06874330 0.03830479
f 1 2 3
f 1 3 7
f 1 7 8
f 1 8 4
f 1 4 9
f 1 9 5
f 1 5 2
f 2 6 10
f 2 10 8
f 2 8 7
f 2 7 3
f 2 5 6
f 4 8 10
f 4 10 9
f 5 9 10
f 5 10 6

