# https://github.com/mikedh/trimesh
v -0.02348419 -0.01400000 0.02080000
v -0.02348419 -0.01400000 0.02240000
v -0.02463889 -0.01200000 0.02240000
v -0.02463889 -0.01200000 0.02080000
v -0.02463889 -0.01600000 0.02080000
v -0.02463889 -0.01600000 0.02240000
v -0.02694829 -0.01200000 0.02240000
v -0.02694829 -0.01200000 0.02080000
v -0.02810299 -0.01400000 0.02080000
v -0.02694829 -0.01600000 0.02080000
v -0.02810299 -0.01400000 0.02240000
v -0.02694829 -0.01600000 0.02240000
f 6 10 5
f 12 10 6
f 9 10 11
f 11 10 12
f 1 5 8
f 8 10 9
f 8 4 1
f 5 10 8
f 8 11 7
f 9 11 8
f 8 7 3
f 3 4 8
f 12 6 2
f 3 7 2
f 2 11 12
f 7 11 2
f 1 4 2
f 2 4 3
f 2 5 1
f 2 6 5

