# https://github.com/mikedh/trimesh
v -0.02389359 0.01400000 0.03830000
v -0.02389699 0.01411363 0.03830000
v -0.02390718 0.01422685 0.03830000
v -0.02392412 0.01433926 0.03830000
v -0.02394776 0.01445045 0.03830000
v -0.02397800 0.01456003 0.03830000
v -0.02401474 0.01466761 0.03830000
v -0.02405785 0.01477280 0.03830000
v -0.02410718 0.01487522 0.03830000
v -0.02416254 0.01497451 0.03830000
v -0.02422374 0.01507031 0.03830000
v -0.02429055 0.01516228 0.03830000
v -0.02436275 0.01525008 0.03830000
v -0.02444007 0.01533342 0.03830000
v -0.02452224 0.01541198 0.03830000
v -0.02460896 0.01548548 0.03830000
v -0.02469992 0.01555367 0.03830000
v -0.02479479 0.01561629 0.03830000
v -0.02489324 0.01567313 0.03830000
v -0.02499491 0.01572398 0.03830000
v -0.02509944 0.01576866 0.03830000
v -0.02520646 0.01580701 0.03830000
v -0.02531557 0.01583889 0.03830000
v -0.02542640 0.01586418 0.03830000
v -0.02553855 0.01588280 0.03830000
v -0.02565160 0.01589469 0.03830000
v -0.02576517 0.01589979 0.03830000
v -0.02587883 0.01589809 0.03830000
v -0.02599219 0.01588959 0.03830000
v -0.02610484 0.01587433 0.03830000
v -0.02621638 0.01585236 0.03830000
v -0.02632640 0.01582376 0.03830000
v -0.02643452 0.01578863 0.03830000
v -0.02654034 0.01574710 0.03830000
v -0.02664348 0.01569932 0.03830000
v -0.02674359 0.01564545 0.03830000
v -0.02684029 0.01558569 0.03830000
v -0.02693325 0.01552025 0.03830000
v -0.02702213 0.01544938 0.03830000
v -0.02710661 0.01537331 0.03830000
v -0.02718639 0.01529233 0.03830000
v -0.02726118 0.01520672 0.03830000
v -0.02733072 0.01511679 0.03830000
v -0.02739476 0.01502287 0.03830000
v -0.02745306 0.01492528 0.03830000
v -0.02750543 0.01482438 0.03830000
v -0.02755167 0.01472053 0.03830000
v -0.02759161 0.01461410 0.03830000
v -0.02762512 0.01450547 0.03830000
v -0.02765207 0.01439503 0.03830000
v -0.02767237 0.01428318 0.03830000
v -0.02768594 0.01417031 0.03830000
v -0.02769274 0.01405684 0.03830000
v -0.02769274 0.01394316 0.03830000
v -0.02768594 0.01382969 0.03830000
v -0.02767237 0.01371682 0.03830000
v -0.02765207 0.01360497 0.03830000
v -0.02762512 0.01349453 0.03830000
v -0.02759161 0.01338590 0.03830000
v -0.02755167 0.01327947 0.03830000
v -0.02750543 0.01317562 0.03830000
v -0.02745306 0.01307472 0.03830000
v -0.02739476 0.01297713 0.03830000
v -0.02733072 0.01288321 0.03830000
v -0.02726118 0.01279328 0.03830000
v -0.02718639 0.01270767 0.03830000
v -0.02710661 0.01262669 0.03830000
v -0.02702213 0.01255062 0.03830000
v -0.02693325 0.01247975 0.03830000
v -0.02684029 0.01241431 0.03830000
v -0.02674359 0.01235455 0.03830000
v -0.02664348 0.01230068 0.03830000
v -0.02654034 0.01225290 0.03830000
v -0.02643452 0.01221137 0.03830000
v -0.02632640 0.01217624 0.03830000
v -0.02621638 0.01214764 0.03830000
v -0.02610484 0.01212567 0.03830000
v -0.02599219 0.01211041 0.03830000
v -0.02587883 0.01210191 0.03830000
v -0.02576517 0.01210021 0.03830000
v -0.02565160 0.01210531 0.03830000
v -0.02553855 0.01211720 0.03830000
v -0.02542640 0.01213582 0.03830000
v -0.02531557 0.01216111 0.03830000
v -0.02520646 0.01219299 0.03830000
v -0.02509944 0.01223134 0.03830000
v -0.02499491 0.01227602 0.03830000
v -0.02489324 0.01232687 0.03830000
v -0.02479479 0.01238371 0.03830000
v -0.02469992 0.01244633 0.03830000
v -0.02460896 0.01251452 0.03830000
v -0.02452224 0.01258802 0.03830000
v -0.02444007 0.01266658 0.03830000
v -0.02436275 0.01274992 0.03830000
v -0.02429055 0.01283772 0.03830000
v -0.02422374 0.01292969 0.03830000
v -0.02416254 0.01302549 0.03830000
v -0.02410718 0.01312478 0.03830000
v -0.02405785 0.01322720 0.03830000
v -0.02401474 0.01333239 0.03830000
v -0.02397800 0.01343997 0.03830000
v -0.02394776 0.01354955 0.03830000
v -0.02392412 0.01366074 0.03830000
v -0.02390718 0.01377315 0.03830000
v -0.02389699 0.01388637 0.03830000
v -0.02389359 0.01400000 0.03630000
v -0.02389699 0.01411363 0.03630000
v -0.02390718 0.01422685 0.03630000
v -0.02392412 0.01433926 0.03630000
v -0.02394776 0.01445045 0.03630000
v -0.02397800 0.01456003 0.03630000
v -0.02401474 0.01466761 0.03630000
v -0.02405785 0.01477280 0.03630000
v -0.02410718 0.01487522 0.03630000
v -0.02416254 0.01497451 0.03630000
v -0.02422374 0.01507031 0.03630000
v -0.02429055 0.01516228 0.03630000
v -0.02436275 0.01525008 0.03630000
v -0.02444007 0.01533342 0.03630000
v -0.02452224 0.01541198 0.03630000
v -0.02460896 0.01548548 0.03630000
v -0.02469992 0.01555367 0.03630000
v -0.02479479 0.01561629 0.03630000
v -0.02489324 0.01567313 0.03630000
v -0.02499491 0.01572398 0.03630000
v -0.02509944 0.01576866 0.03630000
v -0.02520646 0.01580701 0.03630000
v -0.02531557 0.01583889 0.03630000
v -0.02542640 0.01586418 0.03630000
v -0.02553855 0.01588280 0.03630000
v -0.02565160 0.01589469 0.03630000
v -0.02576517 0.01589979 0.03630000
v -0.02587883 0.01589809 0.03630000
v -0.02599219 0.01588959 0.03630000
v -0.02610484 0.01587433 0.03630000
v -0.02621638 0.01585236 0.03630000
v -0.02632640 0.01582376 0.03630000
v -0.02643452 0.01578863 0.03630000
v -0.02654034 0.01574710 0.03630000
v -0.02664348 0.01569932 0.03630000
v -0.02674359 0.01564545 0.03630000
v -0.02684029 0.01558569 0.03630000
v -0.02693325 0.01552025 0.03630000
v -0.02702213 0.01544938 0.03630000
v -0.02710661 0.01537331 0.03630000
v -0.02718639 0.01529233 0.03630000
v -0.02726118 0.01520672 0.03630000
v -0.02733072 0.01511679 0.03630000
v -0.02739476 0.01502287 0.03630000
v -0.02745306 0.01492528 0.03630000
v -0.02750543 0.01482438 0.03630000
v -0.02755167 0.01472053 0.03630000
v -0.02759161 0.01461410 0.03630000
v -0.02762512 0.01450547 0.03630000
v -0.02765207 0.01439503 0.03630000
v -0.02767237 0.01428318 0.03630000
v -0.02768594 0.01417031 0.03630000
v -0.02769274 0.01405684 0.03630000
v -0.02769274 0.01394316 0.03630000
v -0.02768594 0.01382969 0.03630000
v -0.02767237 0.01371682 0.03630000
v -0.02765207 0.01360497 0.03630000
v -0.02762512 0.01349453 0.03630000
v -0.02759161 0.01338590 0.03630000
v -0.02755167 0.01327947 0.03630000
v -0.02750543 0.01317562 0.03630000
v -0.02745306 0.01307472 0.03630000
v -0.02739476 0.01297713 0.03630000
v -0.02733072 0.01288321 0.03630000
v -0.02726118 0.01279328 0.03630000
v -0.02718639 0.01270767 0.03630000
v -0.02710661 0.01262669 0.03630000
v -0.02702213 0.01255062 0.03630000
v -0.02693325 0.01247975 0.03630000
v -0.02684029 0.01241431 0.03630000
v -0.02674359 0.01235455 0.03630000
v -0.02664348 0.01230068 0.03630000
v -0.02654034 0.01225290 0.03630000
v -0.02643452 0.01221137 0.03630000
v -0.02632640 0.01217624 0.03630000
v -0.02621638 0.01214764 0.03630000
v -0.02610484 0.01212567 0.03630000
v -0.02599219 0.01211041 0.03630000
v -0.02587883 0.01210191 0.03630000
v -0.02576517 0.01210021 0.03630000
v -0.02565160 0.01210531 0.03630000
v -0.02553855 0.01211720 0.03630000
v -0.02542640 0.01213582 0.03630000
v -0.02531557 0.01216111 0.03630000
v -0.02520646 0.01219299 0.03630000
v -0.02509944 0.01223134 0.03630000
v -0.02499491 0.01227602 0.03630000
v -0.02489324 0.01232687 0.03630000
v -0.02479479 0.01238371 0.03630000
v -0.02469992 0.01244633 0.03630000
v -0.02460896 0.01251452 0.03630000
v -0.02452224 0.01258802 0.03630000
v -0.02444007 0.01266658 0.03630000
v -0.02436275 0.01274992 0.03630000
v -0.02429055 0.01283772 0.03630000
v -0.02422374 0.01292969 0.03630000
v -0.02416254 0.01302549 0.03630000
v -0.02410718 0.01312478 0.03630000
v -0.02405785 0.01322720 0.03630000
v -0.02401474 0.01333239 0.03630000
v -0.02397800 0.01343997 0.03630000
v -0.02394776 0.01354955 0.03630000
v -0.02392412 0.01366074 0.03630000
v -0.02390718 0.01377315 0.03630000
v -0.02389699 0.01388637 0.03630000
v -0.02479359 0.01400000 0.02030000
v -0.02479538 0.01405980 0.02030000
v -0.02480074 0.01411939 0.02030000
v -0.02480966 0.01417856 0.02030000
v -0.02482210 0.01423708 0.02030000
v -0.02483802 0.01429476 0.02030000
v -0.02485735 0.01435137 0.02030000
v -0.02488004 0.01440674 0.02030000
v -0.02490600 0.01446064 0.02030000
v -0.02493514 0.01451290 0.02030000
v -0.02496735 0.01456332 0.02030000
v -0.02500252 0.01461172 0.02030000
v -0.02504052 0.01465794 0.02030000
v -0.02508121 0.01470180 0.02030000
v -0.02512446 0.01474314 0.02030000
v -0.02517010 0.01478183 0.02030000
v -0.02521797 0.01481772 0.02030000
v -0.02526790 0.01485068 0.02030000
v -0.02531972 0.01488060 0.02030000
v -0.02537323 0.01490736 0.02030000
v -0.02542825 0.01493087 0.02030000
v -0.02548457 0.01495106 0.02030000
v -0.02554200 0.01496783 0.02030000
v -0.02560033 0.01498115 0.02030000
v -0.02565936 0.01499095 0.02030000
v -0.02571886 0.01499720 0.02030000
v -0.02577863 0.01499989 0.02030000
v -0.02583845 0.01499899 0.02030000
v -0.02589812 0.01499452 0.02030000
v -0.02595741 0.01498649 0.02030000
v -0.02601611 0.01497493 0.02030000
v -0.02607402 0.01495988 0.02030000
v -0.02613092 0.01494139 0.02030000
v -0.02618661 0.01491953 0.02030000
v -0.02624090 0.01489438 0.02030000
v -0.02629359 0.01486603 0.02030000
v -0.02634449 0.01483457 0.02030000
v -0.02639341 0.01480013 0.02030000
v -0.02644019 0.01476283 0.02030000
v -0.02648465 0.01472279 0.02030000
v -0.02652664 0.01468017 0.02030000
v -0.02656601 0.01463512 0.02030000
v -0.02660261 0.01458779 0.02030000
v -0.02663631 0.01453835 0.02030000
v -0.02666700 0.01448699 0.02030000
v -0.02669456 0.01443388 0.02030000
v -0.02671889 0.01437923 0.02030000
v -0.02673992 0.01432321 0.02030000
v -0.02675755 0.01426604 0.02030000
v -0.02677174 0.01420791 0.02030000
v -0.02678242 0.01414904 0.02030000
v -0.02678956 0.01408964 0.02030000
v -0.02679314 0.01402992 0.02030000
v -0.02679314 0.01397008 0.02030000
v -0.02678956 0.01391036 0.02030000
v -0.02678242 0.01385096 0.02030000
v -0.02677174 0.01379209 0.02030000
v -0.02675755 0.01373396 0.02030000
v -0.02673992 0.01367679 0.02030000
v -0.02671889 0.01362077 0.02030000
v -0.02669456 0.01356612 0.02030000
v -0.02666700 0.01351301 0.02030000
v -0.02663631 0.01346165 0.02030000
v -0.02660261 0.01341221 0.02030000
v -0.02656601 0.01336488 0.02030000
v -0.02652664 0.01331983 0.02030000
v -0.02648465 0.01327721 0.02030000
v -0.02644019 0.01323717 0.02030000
v -0.02639341 0.01319987 0.02030000
v -0.02634449 0.01316543 0.02030000
v -0.02629359 0.01313397 0.02030000
v -0.02624090 0.01310562 0.02030000
v -0.02618661 0.01308047 0.02030000
v -0.02613092 0.01305861 0.02030000
v -0.02607402 0.01304012 0.02030000
v -0.02601611 0.01302507 0.02030000
v -0.02595741 0.01301351 0.02030000
v -0.02589812 0.01300548 0.02030000
v -0.02583845 0.01300101 0.02030000
v -0.02577863 0.01300011 0.02030000
v -0.02571886 0.01300280 0.02030000
v -0.02565936 0.01300905 0.02030000
v -0.02560033 0.01301885 0.02030000
v -0.02554200 0.01303217 0.02030000
v -0.02548457 0.01304894 0.02030000
v -0.02542825 0.01306913 0.02030000
v -0.02537323 0.01309264 0.02030000
v -0.02531972 0.01311940 0.02030000
v -0.02526790 0.01314932 0.02030000
v -0.02521797 0.01318228 0.02030000
v -0.02517010 0.01321817 0.02030000
v -0.02512446 0.01325686 0.02030000
v -0.02508121 0.01329820 0.02030000
v -0.02504052 0.01334206 0.02030000
v -0.02500252 0.01338828 0.02030000
v -0.02496735 0.01343668 0.02030000
v -0.02493514 0.01348710 0.02030000
v -0.02490600 0.01353936 0.02030000
v -0.02488004 0.01359326 0.02030000
v -0.02485735 0.01364863 0.02030000
v -0.02483802 0.01370524 0.02030000
v -0.02482210 0.01376292 0.02030000
v -0.02480966 0.01382144 0.02030000
v -0.02480074 0.01388061 0.02030000
v -0.02479538 0.01394020 0.02030000
f 172 171 276
f 167 273 168
f 198 302 303
f 128 127 233
f 114 219 115
f 113 219 114
f 220 221 115
f 115 219 220
f 115 221 116
f 221 117 116
f 107 106 211
f 126 125 230
f 119 118 224
f 283 178 177
f 179 178 283
f 263 158 262
f 262 158 157
f 165 270 166
f 271 166 270
f 167 166 271
f 164 270 165
f 197 302 198
f 199 303 304
f 198 303 199
f 199 304 305
f 305 200 199
f 205 204 309
f 202 201 306
f 306 307 202
f 306 201 200
f 306 200 305
f 232 233 127
f 127 126 232
f 236 130 235
f 218 219 113
f 113 112 218
f 218 112 217
f 111 110 215
f 215 110 109
f 208 207 312
f 312 207 206
f 223 224 118
f 121 120 226
f 226 120 225
f 225 120 119
f 119 224 225
f 177 176 281
f 281 176 175
f 261 262 156
f 156 262 157
f 257 153 152
f 168 273 274
f 274 169 168
f 273 167 272
f 167 271 272
f 265 159 264
f 265 160 159
f 161 267 162
f 160 265 161
f 270 164 269
f 162 267 163
f 196 195 300
f 300 195 194
f 300 194 299
f 192 191 297
f 189 294 190
f 290 185 184
f 308 203 202
f 202 307 308
f 204 203 308
f 309 204 308
f 243 137 242
f 138 137 243
f 131 236 132
f 131 130 236
f 231 126 230
f 231 232 126
f 130 129 234
f 234 235 130
f 234 129 128
f 128 233 234
f 111 215 216
f 216 112 111
f 217 112 216
f 109 108 214
f 214 215 109
f 206 205 311
f 311 312 206
f 211 106 210
f 314 210 209
f 125 124 229
f 230 125 229
f 124 123 229
f 123 228 229
f 122 121 227
f 227 121 226
f 227 123 122
f 227 228 123
f 222 117 221
f 222 118 117
f 222 223 118
f 282 283 177
f 177 281 282
f 175 174 279
f 276 171 170
f 169 274 170
f 267 161 266
f 266 161 265
f 268 163 267
f 164 163 268
f 268 269 164
f 196 300 301
f 301 197 196
f 302 197 301
f 295 191 190
f 190 294 295
f 298 193 192
f 192 297 298
f 194 193 298
f 299 194 298
f 187 292 293
f 294 189 293
f 290 184 289
f 179 283 284
f 179 284 180
f 239 135 134
f 134 133 239
f 149 254 150
f 213 214 108
f 108 107 213
f 310 205 309
f 310 311 205
f 211 210 315
f 210 314 315
f 313 209 208
f 313 314 209
f 208 312 313
f 280 281 175
f 175 279 280
f 278 174 173
f 278 279 174
f 173 172 278
f 259 154 153
f 276 170 275
f 275 170 274
f 296 297 191
f 191 295 296
f 187 293 188
f 188 293 189
f 291 186 185
f 291 185 290
f 187 186 291
f 291 292 187
f 182 286 287
f 181 286 182
f 181 180 286
f 286 180 285
f 285 180 284
f 241 136 135
f 137 136 241
f 241 242 137
f 237 133 132
f 132 236 237
f 244 139 138
f 244 138 243
f 140 139 244
f 244 245 140
f 246 141 140
f 140 245 246
f 142 141 246
f 246 247 142
f 151 150 256
f 256 257 151
f 151 257 152
f 256 150 255
f 255 150 254
f 251 146 145
f 144 249 145
f 143 249 144
f 212 107 211
f 212 213 107
f 277 172 276
f 277 278 172
f 153 257 258
f 258 259 153
f 155 154 260
f 154 259 260
f 260 156 155
f 261 156 260
f 184 183 288
f 288 289 184
f 288 183 182
f 182 287 288
f 135 239 240
f 240 241 135
f 238 239 133
f 133 237 238
f 149 148 253
f 253 254 149
f 251 145 250
f 250 145 249
f 249 143 248
f 248 143 142
f 142 247 248
f 147 146 251
f 147 253 148
f 252 147 251
f 253 147 252
f 72 178 73
f 177 178 72
f 114 10 9
f 115 10 114
f 9 8 114
f 114 8 113
f 11 10 116
f 116 10 115
f 3 108 109
f 109 4 3
f 207 102 101
f 207 101 206
f 103 102 207
f 207 208 103
f 120 15 14
f 120 14 119
f 22 127 128
f 128 23 22
f 73 178 74
f 74 178 179
f 67 66 171
f 171 172 67
f 67 172 173
f 173 68 67
f 175 70 69
f 69 174 175
f 69 68 173
f 173 174 69
f 71 70 175
f 175 176 71
f 177 72 71
f 71 176 177
f 158 263 264
f 264 159 158
f 52 158 53
f 157 158 52
f 54 158 159
f 53 158 54
f 93 92 197
f 198 93 197
f 92 91 197
f 197 91 196
f 195 91 90
f 196 91 195
f 193 88 87
f 87 192 193
f 191 86 85
f 191 85 190
f 87 86 191
f 191 192 87
f 89 195 90
f 194 195 89
f 88 193 89
f 89 193 194
f 202 97 96
f 96 201 202
f 95 200 96
f 200 201 96
f 199 94 93
f 199 93 198
f 95 94 199
f 199 200 95
f 101 100 205
f 206 101 205
f 205 100 99
f 99 204 205
f 203 98 97
f 203 97 202
f 99 98 203
f 203 204 99
f 133 28 27
f 133 27 132
f 133 29 28
f 134 29 133
f 30 29 135
f 135 29 134
f 7 6 112
f 112 6 111
f 112 8 7
f 113 8 112
f 119 14 13
f 13 118 119
f 1 106 2
f 106 107 2
f 108 3 2
f 2 107 108
f 5 4 109
f 109 110 5
f 111 6 5
f 5 110 111
f 103 208 209
f 209 104 103
f 125 20 19
f 19 124 125
f 21 20 125
f 125 126 21
f 127 22 21
f 21 126 127
f 48 47 152
f 152 153 48
f 64 63 168
f 168 169 64
f 161 57 56
f 162 57 161
f 55 161 56
f 160 161 55
f 55 54 159
f 159 160 55
f 189 85 84
f 190 85 189
f 80 79 184
f 184 185 80
f 33 32 138
f 138 32 137
f 24 23 128
f 128 129 24
f 130 25 24
f 24 129 130
f 11 116 12
f 12 116 117
f 118 13 12
f 117 118 12
f 210 106 1
f 1 105 210
f 210 105 104
f 104 209 210
f 15 120 16
f 120 121 16
f 122 17 16
f 16 121 122
f 18 17 122
f 122 123 18
f 124 19 18
f 18 123 124
f 51 50 155
f 155 156 51
f 157 52 51
f 51 156 157
f 60 164 165
f 59 164 60
f 165 166 60
f 166 61 60
f 168 63 62
f 62 167 168
f 62 61 166
f 62 166 167
f 58 164 59
f 58 163 164
f 58 57 162
f 162 163 58
f 186 81 80
f 80 185 186
f 82 81 186
f 186 187 82
f 75 74 180
f 180 74 179
f 32 31 136
f 137 32 136
f 30 135 136
f 136 31 30
f 150 45 44
f 44 149 150
f 132 27 26
f 26 131 132
f 26 25 130
f 130 131 26
f 155 50 49
f 49 154 155
f 49 48 153
f 153 154 49
f 171 66 65
f 65 170 171
f 65 64 169
f 169 170 65
f 188 83 82
f 82 187 188
f 84 83 188
f 188 189 84
f 183 78 77
f 77 182 183
f 183 184 79
f 79 78 183
f 77 76 181
f 181 182 77
f 181 76 75
f 75 180 181
f 33 138 34
f 138 139 34
f 140 35 34
f 34 139 140
f 36 39 40
f 36 83 84
f 36 19 20
f 36 92 93
f 36 65 66
f 36 6 7
f 36 32 33
f 47 48 36
f 36 62 63
f 36 29 30
f 14 15 36
f 30 31 36
f 20 21 36
f 87 88 36
f 97 98 36
f 36 86 87
f 93 94 36
f 36 10 11
f 101 102 36
f 27 28 36
f 36 79 80
f 36 76 77
f 36 72 73
f 36 89 90
f 36 100 101
f 80 81 36
f 84 85 36
f 53 54 36
f 36 96 97
f 7 8 36
f 36 13 14
f 36 102 103
f 4 5 36
f 36 105 1
f 36 58 59
f 73 74 36
f 66 67 36
f 36 69 70
f 70 71 36
f 36 46 47
f 36 49 50
f 36 52 53
f 99 100 36
f 36 98 99
f 36 81 82
f 82 83 36
f 85 86 36
f 90 91 36
f 36 94 95
f 36 55 56
f 36 8 9
f 9 10 36
f 36 3 4
f 1 2 36
f 103 104 36
f 11 12 36
f 36 22 23
f 36 74 75
f 75 76 36
f 36 67 68
f 68 69 36
f 36 71 72
f 44 45 36
f 17 18 36
f 56 57 36
f 50 51 36
f 36 91 92
f 88 89 36
f 95 96 36
f 28 29 36
f 36 43 44
f 77 78 36
f 23 24 36
f 36 2 3
f 36 5 6
f 104 105 36
f 15 16 36
f 36 21 22
f 45 46 36
f 36 26 27
f 63 64 36
f 59 60 36
f 54 55 36
f 36 31 32
f 37 38 36
f 33 34 36
f 40 41 36
f 36 24 25
f 36 12 13
f 36 16 17
f 36 18 19
f 36 51 52
f 36 60 61
f 61 62 36
f 57 58 36
f 36 78 79
f 36 41 42
f 42 43 36
f 38 39 36
f 25 26 36
f 48 49 36
f 64 65 36
f 36 34 35
f 142 37 36
f 36 141 142
f 36 35 140
f 140 141 36
f 148 149 44
f 44 43 148
f 47 46 151
f 152 47 151
f 151 46 45
f 45 150 151
f 145 41 40
f 146 41 145
f 40 39 145
f 145 39 144
f 143 38 37
f 143 37 142
f 143 39 38
f 144 39 143
f 42 41 147
f 147 41 146
f 147 43 42
f 147 148 43
f 243 242 252
f 217 216 252
f 264 263 252
f 256 255 252
f 252 268 267
f 252 212 211
f 270 269 252
f 252 310 309
f 252 271 270
f 221 220 252
f 226 225 252
f 273 272 252
f 305 304 252
f 252 303 302
f 309 308 252
f 252 306 305
f 283 282 252
f 219 218 252
f 252 262 261
f 252 265 264
f 252 295 294
f 304 303 252
f 294 293 252
f 252 237 236
f 242 241 252
f 252 220 219
f 236 235 252
f 252 227 226
f 297 296 252
f 263 262 252
f 252 258 257
f 307 306 252
f 239 238 252
f 233 232 252
f 252 231 230
f 252 218 217
f 252 234 233
f 252 248 247
f 230 229 252
f 224 223 252
f 252 225 224
f 252 222 221
f 252 257 256
f 252 274 273
f 252 272 271
f 281 280 252
f 267 266 252
f 252 300 299
f 302 301 252
f 299 298 252
f 290 289 252
f 252 308 307
f 252 284 283
f 252 244 243
f 232 231 252
f 235 234 252
f 252 216 215
f 215 214 252
f 312 311 252
f 211 315 252
f 252 229 228
f 228 227 252
f 223 222 252
f 252 282 281
f 252 313 312
f 252 266 265
f 269 268 252
f 252 301 300
f 276 275 252
f 252 298 297
f 252 293 292
f 252 291 290
f 252 287 286
f 286 285 252
f 247 246 252
f 251 250 252
f 214 213 252
f 311 310 252
f 252 315 314
f 314 313 252
f 252 280 279
f 279 278 252
f 252 277 276
f 252 275 274
f 252 296 295
f 292 291 252
f 261 260 252
f 252 285 284
f 289 288 252
f 252 240 239
f 245 244 252
f 252 246 245
f 252 255 254
f 213 212 252
f 278 277 252
f 259 258 252
f 252 260 259
f 252 288 287
f 241 240 252
f 252 238 237
f 254 253 252
f 252 250 249
f 249 248 252

