# https://github.com/mikedh/trimesh
v -0.01599359 -0.00000000 0.03030000
v -0.01599985 0.00020931 0.03030000
v -0.01601862 0.00041788 0.03030000
v -0.01604984 0.00062495 0.03030000
v -0.01609337 0.00082978 0.03030000
v -0.01614908 0.00103164 0.03030000
v -0.01621677 0.00122981 0.03030000
v -0.01629618 0.00142358 0.03030000
v -0.01638704 0.00161225 0.03030000
v -0.01648902 0.00179515 0.03030000
v -0.01660175 0.00197162 0.03030000
v -0.01672484 0.00214104 0.03030000
v -0.01685784 0.00230279 0.03030000
v -0.01700027 0.00245629 0.03030000
v -0.01715163 0.00260101 0.03030000
v -0.01731137 0.00273641 0.03030000
v -0.01747893 0.00286202 0.03030000
v -0.01765370 0.00297738 0.03030000
v -0.01783505 0.00308208 0.03030000
v -0.01802234 0.00317576 0.03030000
v -0.01821490 0.00325806 0.03030000
v -0.01841203 0.00332870 0.03030000
v -0.01861304 0.00338742 0.03030000
v -0.01881719 0.00343402 0.03030000
v -0.01902377 0.00346832 0.03030000
v -0.01923203 0.00349021 0.03030000
v -0.01944123 0.00349961 0.03030000
v -0.01965062 0.00349648 0.03030000
v -0.01985944 0.00348083 0.03030000
v -0.02006695 0.00345272 0.03030000
v -0.02027241 0.00341225 0.03030000
v -0.02047508 0.00335956 0.03030000
v -0.02067424 0.00329485 0.03030000
v -0.02086918 0.00321835 0.03030000
v -0.02105918 0.00313032 0.03030000
v -0.02124359 0.00303109 0.03030000
v -0.02142173 0.00292101 0.03030000
v -0.02159297 0.00280047 0.03030000
v -0.02175669 0.00266990 0.03030000
v -0.02191231 0.00252978 0.03030000
v -0.02205927 0.00238060 0.03030000
v -0.02219705 0.00222291 0.03030000
v -0.02232515 0.00205725 0.03030000
v -0.02244311 0.00188423 0.03030000
v -0.02255052 0.00170446 0.03030000
v -0.02264698 0.00151859 0.03030000
v -0.02273215 0.00132729 0.03030000
v -0.02280573 0.00113123 0.03030000
v -0.02286746 0.00093113 0.03030000
v -0.02291711 0.00072769 0.03030000
v -0.02295450 0.00052165 0.03030000
v -0.02297950 0.00031374 0.03030000
v -0.02299202 0.00010470 0.03030000
v -0.02299202 -0.00010470 0.03030000
v -0.02297950 -0.00031374 0.03030000
v -0.02295450 -0.00052165 0.03030000
v -0.02291711 -0.00072769 0.03030000
v -0.02286746 -0.00093113 0.03030000
v -0.02280573 -0.00113123 0.03030000
v -0.02273215 -0.00132729 0.03030000
v -0.02264698 -0.00151859 0.03030000
v -0.02255052 -0.00170446 0.03030000
v -0.02244311 -0.00188423 0.03030000
v -0.02232515 -0.00205725 0.03030000
v -0.02219705 -0.00222291 0.03030000
v -0.02205927 -0.00238060 0.03030000
v -0.02191231 -0.00252978 0.03030000
v -0.02175669 -0.00266990 0.03030000
v -0.02159297 -0.00280047 0.03030000
v -0.02142173 -0.00292101 0.03030000
v -0.02124359 -0.00303109 0.03030000
v -0.02105918 -0.00313032 0.03030000
v -0.02086918 -0.00321835 0.03030000
v -0.02067424 -0.00329485 0.03030000
v -0.02047508 -0.00335956 0.03030000
v -0.02027241 -0.00341225 0.03030000
v -0.02006695 -0.00345272 0.03030000
v -0.01985944 -0.00348083 0.03030000
v -0.01965062 -0.00349648 0.03030000
v -0.01944123 -0.00349961 0.03030000
v -0.01923203 -0.00349021 0.03030000
v -0.01902377 -0.00346832 0.03030000
v -0.01881719 -0.00343402 0.03030000
v -0.01861304 -0.00338742 0.03030000
v -0.01841203 -0.00332870 0.03030000
v -0.01821490 -0.00325806 0.03030000
v -0.01802234 -0.00317576 0.03030000
v -0.01783505 -0.00308208 0.03030000
v -0.01765370 -0.00297738 0.03030000
v -0.01747893 -0.00286202 0.03030000
v -0.01731137 -0.00273641 0.03030000
v -0.01715163 -0.00260101 0.03030000
v -0.01700027 -0.00245629 0.03030000
v -0.01685784 -0.00230279 0.03030000
v -0.01672484 -0.00214104 0.03030000
v -0.01660175 -0.00197162 0.03030000
v -0.01648902 -0.00179515 0.03030000
v -0.01638704 -0.00161225 0.03030000
v -0.01629618 -0.00142358 0.03030000
v -0.01621677 -0.00122981 0.03030000
v -0.01614908 -0.00103164 0.03030000
v -0.01609337 -0.00082978 0.03030000
v -0.01604984 -0.00062495 0.03030000
v -0.01601862 -0.00041788 0.03030000
v -0.01599985 -0.00020931 0.03030000
v -0.01599359 -0.00000000 0.02980000
v -0.01599985 0.00020931 0.02980000
v -0.01601862 0.00041788 0.02980000
v -0.01604984 0.00062495 0.02980000
v -0.01609337 0.00082978 0.02980000
v -0.01614908 0.00103164 0.02980000
v -0.01621677 0.00122981 0.02980000
v -0.01629618 0.00142358 0.02980000
v -0.01638704 0.00161225 0.02980000
v -0.01648902 0.00179515 0.02980000
v -0.01660175 0.00197162 0.02980000
v -0.01672484 0.00214104 0.02980000
v -0.01685784 0.00230279 0.02980000
v -0.01700027 0.00245629 0.02980000
v -0.01715163 0.00260101 0.02980000
v -0.01731137 0.00273641 0.02980000
v -0.01747893 0.00286202 0.02980000
v -0.01765370 0.00297738 0.02980000
v -0.01783505 0.00308208 0.02980000
v -0.01802234 0.00317576 0.02980000
v -0.01821490 0.00325806 0.02980000
v -0.01841203 0.00332870 0.02980000
v -0.01861304 0.00338742 0.02980000
v -0.01881719 0.00343402 0.02980000
v -0.01902377 0.00346832 0.02980000
v -0.01923203 0.00349021 0.02980000
v -0.01944123 0.00349961 0.02980000
v -0.01965062 0.00349648 0.02980000
v -0.01985944 0.00348083 0.02980000
v -0.02006695 0.00345272 0.02980000
v -0.02027241 0.00341225 0.02980000
v -0.02047508 0.00335956 0.02980000
v -0.02067424 0.00329485 0.02980000
v -0.02086918 0.00321835 0.02980000
v -0.02105918 0.00313032 0.02980000
v -0.02124359 0.00303109 0.02980000
v -0.02142173 0.00292101 0.02980000
v -0.02159297 0.00280047 0.02980000
v -0.02175669 0.00266990 0.02980000
v -0.02191231 0.00252978 0.02980000
v -0.02205927 0.00238060 0.02980000
v -0.02219705 0.00222291 0.02980000
v -0.02232515 0.00205725 0.02980000
v -0.02244311 0.00188423 0.02980000
v -0.02255052 0.00170446 0.02980000
v -0.02264698 0.00151859 0.02980000
v -0.02273215 0.00132729 0.02980000
v -0.02280573 0.00113123 0.02980000
v -0.02286746 0.00093113 0.02980000
v -0.02291711 0.00072769 0.02980000
v -0.02295450 0.00052165 0.02980000
v -0.02297950 0.00031374 0.02980000
v -0.02299202 0.00010470 0.02980000
v -0.02299202 -0.00010470 0.02980000
v -0.02297950 -0.00031374 0.02980000
v -0.02295450 -0.00052165 0.02980000
v -0.02291711 -0.00072769 0.02980000
v -0.02286746 -0.00093113 0.02980000
v -0.02280573 -0.00113123 0.02980000
v -0.02273215 -0.00132729 0.02980000
v -0.02264698 -0.00151859 0.02980000
v -0.02255052 -0.00170446 0.02980000
v -0.02244311 -0.00188423 0.02980000
v -0.02232515 -0.00205725 0.02980000
v -0.02219705 -0.00222291 0.02980000
v -0.02205927 -0.00238060 0.02980000
v -0.02191231 -0.00252978 0.02980000
v -0.02175669 -0.00266990 0.02980000
v -0.02159297 -0.00280047 0.02980000
v -0.02142173 -0.00292101 0.02980000
v -0.02124359 -0.00303109 0.02980000
v -0.02105918 -0.00313032 0.02980000
v -0.02086918 -0.00321835 0.02980000
v -0.02067424 -0.00329485 0.02980000
v -0.02047508 -0.00335956 0.02980000
v -0.02027241 -0.00341225 0.02980000
v -0.02006695 -0.00345272 0.02980000
v -0.01985944 -0.00348083 0.02980000
v -0.01965062 -0.00349648 0.02980000
v -0.01944123 -0.00349961 0.02980000
v -0.01923203 -0.00349021 0.02980000
v -0.01902377 -0.00346832 0.02980000
v -0.01881719 -0.00343402 0.02980000
v -0.01861304 -0.00338742 0.02980000
v -0.01841203 -0.00332870 0.02980000
v -0.01821490 -0.00325806 0.02980000
v -0.01802234 -0.00317576 0.02980000
v -0.01783505 -0.00308208 0.02980000
v -0.01765370 -0.00297738 0.02980000
v -0.01747893 -0.00286202 0.02980000
v -0.01731137 -0.00273641 0.02980000
v -0.01715163 -0.00260101 0.02980000
v -0.01700027 -0.00245629 0.02980000
v -0.01685784 -0.00230279 0.02980000
v -0.01672484 -0.00214104 0.02980000
v -0.01660175 -0.00197162 0.02980000
v -0.01648902 -0.00179515 0.02980000
v -0.01638704 -0.00161225 0.02980000
v -0.01629618 -0.00142358 0.02980000
v -0.01621677 -0.00122981 0.02980000
v -0.01614908 -0.00103164 0.02980000
v -0.01609337 -0.00082978 0.02980000
v -0.01604984 -0.00062495 0.02980000
v -0.01601862 -0.00041788 0.02980000
v -0.01599985 -0.00020931 0.02980000
f 90 89 194
f 194 195 90
f 196 92 91
f 197 92 196
f 196 91 90
f 90 195 196
f 183 78 77
f 183 77 182
f 185 186 81
f 80 185 81
f 81 186 187
f 187 82 81
f 83 82 188
f 188 82 187
f 179 180 75
f 74 179 75
f 77 76 181
f 182 77 181
f 76 75 181
f 181 75 180
f 73 178 179
f 73 179 74
f 177 178 73
f 73 72 177
f 69 174 175
f 69 175 70
f 173 68 67
f 173 67 172
f 173 69 68
f 174 69 173
f 72 71 176
f 177 72 176
f 176 71 70
f 70 175 176
f 93 92 198
f 198 92 197
f 94 198 199
f 93 198 94
f 94 199 200
f 200 95 94
f 193 88 87
f 193 87 192
f 89 88 193
f 193 194 89
f 107 2 1
f 1 106 107
f 107 3 2
f 108 3 107
f 109 5 4
f 110 5 109
f 4 3 109
f 109 3 108
f 63 62 168
f 168 62 167
f 168 64 63
f 169 64 168
f 65 64 170
f 170 64 169
f 59 164 165
f 59 165 60
f 163 58 57
f 57 162 163
f 163 59 58
f 164 59 163
f 56 161 162
f 56 162 57
f 55 54 160
f 160 54 159
f 160 56 55
f 161 56 160
f 1 105 210
f 210 106 1
f 105 104 210
f 104 209 210
f 103 102 208
f 208 102 207
f 208 104 103
f 208 209 104
f 99 204 205
f 99 205 100
f 203 98 97
f 203 97 202
f 203 99 98
f 204 99 203
f 102 101 206
f 207 102 206
f 206 101 100
f 100 205 206
f 84 188 189
f 83 188 84
f 96 201 202
f 202 97 96
f 96 95 200
f 200 201 96
f 116 11 10
f 116 10 115
f 12 11 116
f 116 117 12
f 16 15 121
f 121 15 120
f 17 16 121
f 121 122 17
f 112 113 8
f 7 112 8
f 10 9 114
f 115 10 114
f 9 8 114
f 114 8 113
f 111 5 110
f 111 6 5
f 7 6 111
f 111 112 7
f 129 25 24
f 130 25 129
f 24 23 129
f 129 23 128
f 126 21 20
f 126 20 125
f 149 45 44
f 150 45 149
f 44 43 149
f 149 43 148
f 147 43 42
f 148 43 147
f 158 54 53
f 159 54 158
f 157 158 52
f 52 158 53
f 165 166 61
f 60 165 61
f 61 166 167
f 167 62 61
f 67 66 171
f 172 67 171
f 171 66 65
f 65 170 171
f 184 185 80
f 80 79 184
f 78 183 184
f 184 79 78
f 85 84 190
f 190 84 189
f 192 87 86
f 86 191 192
f 86 190 191
f 85 190 86
f 12 117 13
f 117 118 13
f 119 15 14
f 120 15 119
f 14 13 119
f 119 13 118
f 17 122 123
f 123 18 17
f 127 23 22
f 128 23 127
f 22 21 127
f 21 126 127
f 30 29 134
f 135 30 134
f 131 25 130
f 131 26 25
f 27 26 131
f 131 132 27
f 32 137 138
f 32 138 33
f 136 31 30
f 136 30 135
f 136 32 31
f 137 32 136
f 138 139 34
f 33 138 34
f 34 139 140
f 140 35 34
f 46 151 152
f 46 152 47
f 150 151 46
f 46 45 150
f 146 41 40
f 146 40 145
f 42 41 146
f 146 147 42
f 49 154 155
f 155 50 49
f 40 39 144
f 145 40 144
f 141 35 140
f 141 36 35
f 37 36 141
f 141 142 37
f 47 152 48
f 152 153 48
f 48 153 154
f 154 49 48
f 51 50 155
f 155 156 51
f 157 52 51
f 51 156 157
f 125 20 124
f 20 19 124
f 18 123 124
f 124 19 18
f 27 132 133
f 133 28 27
f 133 134 29
f 29 28 133
f 87 88 38
f 67 68 38
f 38 92 93
f 38 52 53
f 38 36 37
f 38 56 57
f 70 71 38
f 38 23 24
f 38 105 1
f 38 66 67
f 1 2 38
f 20 21 38
f 103 104 38
f 53 54 38
f 60 61 38
f 38 99 100
f 74 75 38
f 38 69 70
f 10 11 38
f 27 28 38
f 38 6 7
f 33 34 38
f 63 64 38
f 38 43 44
f 38 73 74
f 80 81 38
f 38 76 77
f 100 101 38
f 38 89 90
f 90 91 38
f 97 98 38
f 93 94 38
f 38 86 87
f 38 96 97
f 38 13 14
f 40 41 38
f 38 59 60
f 57 58 38
f 38 104 105
f 38 102 103
f 65 66 38
f 77 78 38
f 38 82 83
f 38 71 72
f 38 88 89
f 83 84 38
f 91 92 38
f 38 3 4
f 38 9 10
f 14 15 38
f 4 5 38
f 7 8 38
f 38 19 20
f 38 32 33
f 38 54 55
f 38 62 63
f 38 101 102
f 38 81 82
f 38 79 80
f 38 75 76
f 72 73 38
f 68 69 38
f 38 94 95
f 2 3 38
f 38 11 12
f 38 16 17
f 5 6 38
f 38 21 22
f 24 25 38
f 30 31 38
f 38 26 27
f 38 41 42
f 44 45 38
f 38 46 47
f 38 64 65
f 58 59 38
f 55 56 38
f 98 99 38
f 78 79 38
f 38 84 85
f 95 96 38
f 38 15 16
f 17 18 38
f 38 8 9
f 22 23 38
f 38 29 30
f 25 26 38
f 38 39 40
f 42 43 38
f 47 48 38
f 38 61 62
f 85 86 38
f 12 13 38
f 31 32 38
f 38 34 35
f 50 51 38
f 35 36 38
f 45 46 38
f 38 49 50
f 18 19 38
f 38 28 29
f 38 48 49
f 38 51 52
f 143 131 130
f 187 186 143
f 143 198 197
f 143 121 120
f 207 206 143
f 192 191 143
f 197 196 143
f 143 163 162
f 143 208 207
f 143 178 177
f 177 176 143
f 120 119 143
f 150 149 143
f 165 164 143
f 143 160 159
f 143 188 187
f 143 173 172
f 182 181 143
f 202 201 143
f 110 109 143
f 143 193 192
f 140 139 143
f 143 146 145
f 143 168 167
f 143 203 202
f 143 186 185
f 143 183 182
f 143 180 179
f 179 178 143
f 175 174 143
f 200 199 143
f 195 194 143
f 143 196 195
f 143 107 106
f 115 114 143
f 130 129 143
f 128 127 143
f 143 156 155
f 143 136 135
f 143 166 165
f 159 158 143
f 162 161 143
f 106 210 143
f 205 204 143
f 172 171 143
f 189 188 143
f 143 181 180
f 174 173 143
f 143 176 175
f 199 198 143
f 143 201 200
f 194 193 143
f 108 107 143
f 143 109 108
f 143 116 115
f 143 190 189
f 143 113 112
f 143 111 110
f 135 134 143
f 143 126 125
f 152 151 143
f 143 153 152
f 167 166 143
f 169 168 143
f 143 170 169
f 164 163 143
f 161 160 143
f 143 210 209
f 209 208 143
f 204 203 143
f 143 206 205
f 185 184 143
f 117 116 143
f 143 118 117
f 122 121 143
f 143 114 113
f 112 111 143
f 143 129 128
f 143 141 140
f 143 139 138
f 138 137 143
f 145 144 143
f 143 151 150
f 143 149 148
f 148 147 143
f 155 154 143
f 143 158 157
f 143 171 170
f 143 184 183
f 191 190 143
f 143 119 118
f 143 123 122
f 143 127 126
f 125 124 143
f 132 131 143
f 137 136 143
f 147 146 143
f 154 153 143
f 157 156 143
f 143 133 132
f 142 141 143
f 143 124 123
f 134 133 143
f 37 142 143
f 143 38 37
f 143 144 39
f 39 38 143

