# https://github.com/mikedh/trimesh
v -0.02329359 0.01400000 0.03630000
v -0.02329806 0.01414951 0.03630000
v -0.02331147 0.01429849 0.03630000
v -0.02333376 0.01444639 0.03630000
v -0.02336486 0.01459270 0.03630000
v -0.02340466 0.01473689 0.03630000
v -0.02345300 0.01487844 0.03630000
v -0.02350973 0.01501684 0.03630000
v -0.02357462 0.01515161 0.03630000
v -0.02364747 0.01528225 0.03630000
v -0.02372799 0.01540830 0.03630000
v -0.02381591 0.01552931 0.03630000
v -0.02391091 0.01564485 0.03630000
v -0.02401265 0.01575449 0.03630000
v -0.02412076 0.01585786 0.03630000
v -0.02423486 0.01595458 0.03630000
v -0.02435455 0.01604430 0.03630000
v -0.02447938 0.01612670 0.03630000
v -0.02460892 0.01620149 0.03630000
v -0.02474270 0.01626840 0.03630000
v -0.02488024 0.01632718 0.03630000
v -0.02502105 0.01637764 0.03630000
v -0.02516462 0.01641959 0.03630000
v -0.02531045 0.01645287 0.03630000
v -0.02545801 0.01647737 0.03630000
v -0.02560676 0.01649301 0.03630000
v -0.02575619 0.01649972 0.03630000
v -0.02590575 0.01649748 0.03630000
v -0.02605491 0.01648630 0.03630000
v -0.02620313 0.01646623 0.03630000
v -0.02634989 0.01643732 0.03630000
v -0.02649466 0.01639969 0.03630000
v -0.02663691 0.01635347 0.03630000
v -0.02677615 0.01629882 0.03630000
v -0.02691187 0.01623594 0.03630000
v -0.02704359 0.01616506 0.03630000
v -0.02717083 0.01608643 0.03630000
v -0.02729314 0.01600033 0.03630000
v -0.02741009 0.01590707 0.03630000
v -0.02752125 0.01580699 0.03630000
v -0.02762622 0.01570043 0.03630000
v -0.02772463 0.01558779 0.03630000
v -0.02781613 0.01546946 0.03630000
v -0.02790039 0.01534588 0.03630000
v -0.02797711 0.01521747 0.03630000
v -0.02804601 0.01508471 0.03630000
v -0.02810685 0.01494806 0.03630000
v -0.02815941 0.01480802 0.03630000
v -0.02820350 0.01466509 0.03630000
v -0.02823896 0.01451978 0.03630000
v -0.02826567 0.01437261 0.03630000
v -0.02828352 0.01422410 0.03630000
v -0.02829247 0.01407479 0.03630000
v -0.02829247 0.01392521 0.03630000
v -0.02828352 0.01377590 0.03630000
v -0.02826567 0.01362739 0.03630000
v -0.02823896 0.01348022 0.03630000
v -0.02820350 0.01333491 0.03630000
v -0.02815941 0.01319198 0.03630000
v -0.02810685 0.01305194 0.03630000
v -0.02804601 0.01291529 0.03630000
v -0.02797711 0.01278253 0.03630000
v -0.02790039 0.01265412 0.03630000
v -0.02781613 0.01253054 0.03630000
v -0.02772463 0.01241221 0.03630000
v -0.02762622 0.01229957 0.03630000
v -0.02752125 0.01219301 0.03630000
v -0.02741009 0.01209293 0.03630000
v -0.02729314 0.01199967 0.03630000
v -0.02717083 0.01191357 0.03630000
v -0.02704359 0.01183494 0.03630000
v -0.02691187 0.01176406 0.03630000
v -0.02677615 0.01170118 0.03630000
v -0.02663691 0.01164653 0.03630000
v -0.02649466 0.01160031 0.03630000
v -0.02634989 0.01156268 0.03630000
v -0.02620313 0.01153377 0.03630000
v -0.02605491 0.01151370 0.03630000
v -0.02590575 0.01150252 0.03630000
v -0.02575619 0.01150028 0.03630000
v -0.02560676 0.01150699 0.03630000
v -0.02545801 0.01152263 0.03630000
v -0.02531045 0.01154713 0.03630000
v -0.02516462 0.01158041 0.03630000
v -0.02502105 0.01162236 0.03630000
v -0.02488024 0.01167282 0.03630000
v -0.02474270 0.01173160 0.03630000
v -0.02460892 0.01179851 0.03630000
v -0.02447938 0.01187330 0.03630000
v -0.02435455 0.01195570 0.03630000
v -0.02423486 0.01204542 0.03630000
v -0.02412076 0.01214214 0.03630000
v -0.02401265 0.01224551 0.03630000
v -0.02391091 0.01235515 0.03630000
v -0.02381591 0.01247069 0.03630000
v -0.02372799 0.01259170 0.03630000
v -0.02364747 0.01271775 0.03630000
v -0.02357462 0.01284839 0.03630000
v -0.02350973 0.01298316 0.03630000
v -0.02345300 0.01312156 0.03630000
v -0.02340466 0.01326311 0.03630000
v -0.02336486 0.01340730 0.03630000
v -0.02333376 0.01355361 0.03630000
v -0.02331147 0.01370151 0.03630000
v -0.02329806 0.01385049 0.03630000
v -0.02329359 0.01400000 0.03600000
v -0.02329806 0.01414951 0.03600000
v -0.02331147 0.01429849 0.03600000
v -0.02333376 0.01444639 0.03600000
v -0.02336486 0.01459270 0.03600000
v -0.02340466 0.01473689 0.03600000
v -0.02345300 0.01487844 0.03600000
v -0.02350973 0.01501684 0.03600000
v -0.02357462 0.01515161 0.03600000
v -0.02364747 0.01528225 0.03600000
v -0.02372799 0.01540830 0.03600000
v -0.02381591 0.01552931 0.03600000
v -0.02391091 0.01564485 0.03600000
v -0.02401265 0.01575449 0.03600000
v -0.02412076 0.01585786 0.03600000
v -0.02423486 0.01595458 0.03600000
v -0.02435455 0.01604430 0.03600000
v -0.02447938 0.01612670 0.03600000
v -0.02460892 0.01620149 0.03600000
v -0.02474270 0.01626840 0.03600000
v -0.02488024 0.01632718 0.03600000
v -0.02502105 0.01637764 0.03600000
v -0.02516462 0.01641959 0.03600000
v -0.02531045 0.01645287 0.03600000
v -0.02545801 0.01647737 0.03600000
v -0.02560676 0.01649301 0.03600000
v -0.02575619 0.01649972 0.03600000
v -0.02590575 0.01649748 0.03600000
v -0.02605491 0.01648630 0.03600000
v -0.02620313 0.01646623 0.03600000
v -0.02634989 0.01643732 0.03600000
v -0.02649466 0.01639969 0.03600000
v -0.02663691 0.01635347 0.03600000
v -0.02677615 0.01629882 0.03600000
v -0.02691187 0.01623594 0.03600000
v -0.02704359 0.01616506 0.03600000
v -0.02717083 0.01608643 0.03600000
v -0.02729314 0.01600033 0.03600000
v -0.02741009 0.01590707 0.03600000
v -0.02752125 0.01580699 0.03600000
v -0.02762622 0.01570043 0.03600000
v -0.02772463 0.01558779 0.03600000
v -0.02781613 0.01546946 0.03600000
v -0.02790039 0.01534588 0.03600000
v -0.02797711 0.01521747 0.03600000
v -0.02804601 0.01508471 0.03600000
v -0.02810685 0.01494806 0.03600000
v -0.02815941 0.01480802 0.03600000
v -0.02820350 0.01466509 0.03600000
v -0.02823896 0.01451978 0.03600000
v -0.02826567 0.01437261 0.03600000
v -0.02828352 0.01422410 0.03600000
v -0.02829247 0.01407479 0.03600000
v -0.02829247 0.01392521 0.03600000
v -0.02828352 0.01377590 0.03600000
v -0.02826567 0.01362739 0.03600000
v -0.02823896 0.01348022 0.03600000
v -0.02820350 0.01333491 0.03600000
v -0.02815941 0.01319198 0.03600000
v -0.02810685 0.01305194 0.03600000
v -0.02804601 0.01291529 0.03600000
v -0.02797711 0.01278253 0.03600000
v -0.02790039 0.01265412 0.03600000
v -0.02781613 0.01253054 0.03600000
v -0.02772463 0.01241221 0.03600000
v -0.02762622 0.01229957 0.03600000
v -0.02752125 0.01219301 0.03600000
v -0.02741009 0.01209293 0.03600000
v -0.02729314 0.01199967 0.03600000
v -0.02717083 0.01191357 0.03600000
v -0.02704359 0.01183494 0.03600000
v -0.02691187 0.01176406 0.03600000
v -0.02677615 0.01170118 0.03600000
v -0.02663691 0.01164653 0.03600000
v -0.02649466 0.01160031 0.03600000
v -0.02634989 0.01156268 0.03600000
v -0.02620313 0.01153377 0.03600000
v -0.02605491 0.01151370 0.03600000
v -0.02590575 0.01150252 0.03600000
v -0.02575619 0.01150028 0.03600000
v -0.02560676 0.01150699 0.03600000
v -0.02545801 0.01152263 0.03600000
v -0.02531045 0.01154713 0.03600000
v -0.02516462 0.01158041 0.03600000
v -0.02502105 0.01162236 0.03600000
v -0.02488024 0.01167282 0.03600000
v -0.02474270 0.01173160 0.03600000
v -0.02460892 0.01179851 0.03600000
v -0.02447938 0.01187330 0.03600000
v -0.02435455 0.01195570 0.03600000
v -0.02423486 0.01204542 0.03600000
v -0.02412076 0.01214214 0.03600000
v -0.02401265 0.01224551 0.03600000
v -0.02391091 0.01235515 0.03600000
v -0.02381591 0.01247069 0.03600000
v -0.02372799 0.01259170 0.03600000
v -0.02364747 0.01271775 0.03600000
v -0.02357462 0.01284839 0.03600000
v -0.02350973 0.01298316 0.03600000
v -0.02345300 0.01312156 0.03600000
v -0.02340466 0.01326311 0.03600000
v -0.02336486 0.01340730 0.03600000
v -0.02333376 0.01355361 0.03600000
v -0.02331147 0.01370151 0.03600000
v -0.02329806 0.01385049 0.03600000
f 65 64 170
f 170 64 169
f 165 61 60
f 166 61 165
f 1 105 210
f 210 106 1
f 105 104 210
f 210 104 209
f 103 102 208
f 208 102 207
f 208 104 103
f 209 104 208
f 94 198 199
f 93 198 94
f 96 95 200
f 201 96 200
f 95 94 200
f 200 94 199
f 197 198 92
f 92 198 93
f 74 73 179
f 179 73 178
f 107 2 1
f 1 106 107
f 107 3 2
f 108 3 107
f 109 5 4
f 110 5 109
f 4 3 109
f 109 3 108
f 118 119 13
f 13 119 14
f 117 12 11
f 117 11 116
f 117 13 12
f 118 13 117
f 15 119 120
f 14 119 15
f 46 45 151
f 151 45 150
f 55 54 160
f 160 54 159
f 160 56 55
f 161 56 160
f 162 58 57
f 163 58 162
f 57 56 162
f 162 56 161
f 167 62 61
f 167 61 166
f 67 66 171
f 172 67 171
f 171 66 65
f 65 170 171
f 207 102 206
f 102 101 206
f 206 101 100
f 100 205 206
f 204 205 99
f 99 205 100
f 188 84 83
f 189 84 188
f 85 84 190
f 190 84 189
f 187 188 82
f 82 188 83
f 71 70 176
f 70 175 176
f 174 70 69
f 174 175 70
f 75 179 180
f 74 179 75
f 77 76 181
f 182 77 181
f 76 75 181
f 181 75 180
f 183 78 77
f 183 77 182
f 79 78 183
f 183 184 79
f 80 79 185
f 79 184 185
f 111 5 110
f 111 6 5
f 7 6 111
f 111 112 7
f 8 112 113
f 7 112 8
f 43 42 147
f 147 148 43
f 47 151 152
f 46 151 47
f 138 34 33
f 139 34 138
f 168 64 63
f 169 64 168
f 63 62 168
f 62 167 168
f 164 58 163
f 164 59 58
f 164 165 60
f 60 59 164
f 24 23 129
f 129 23 128
f 127 23 22
f 128 23 127
f 25 129 130
f 24 129 25
f 203 99 98
f 204 99 203
f 97 96 201
f 201 202 97
f 202 203 97
f 97 203 98
f 193 88 87
f 193 87 192
f 197 92 196
f 92 91 196
f 196 91 90
f 90 195 196
f 87 86 191
f 192 87 191
f 191 86 85
f 85 190 191
f 73 72 177
f 178 73 177
f 177 72 71
f 71 176 177
f 173 68 67
f 173 67 172
f 69 68 173
f 173 174 69
f 186 82 81
f 187 82 186
f 186 81 80
f 80 185 186
f 9 8 114
f 114 8 113
f 116 11 10
f 10 115 116
f 10 114 115
f 9 114 10
f 20 19 124
f 125 20 124
f 121 15 120
f 121 16 15
f 17 16 121
f 121 122 17
f 146 41 40
f 146 40 145
f 42 41 146
f 146 147 42
f 150 45 149
f 45 44 149
f 43 148 149
f 149 44 43
f 158 54 53
f 159 54 158
f 53 52 158
f 158 52 157
f 50 49 154
f 154 155 50
f 141 37 36
f 141 142 37
f 38 37 143
f 37 142 143
f 137 138 32
f 32 138 33
f 136 31 30
f 136 30 135
f 136 32 31
f 137 32 136
f 30 29 134
f 135 30 134
f 134 29 28
f 28 133 134
f 132 28 27
f 132 133 28
f 126 21 20
f 126 20 125
f 22 21 126
f 126 127 22
f 48 47 153
f 153 47 152
f 153 49 48
f 153 154 49
f 140 35 34
f 140 34 139
f 36 35 140
f 140 141 36
f 40 39 144
f 145 40 144
f 144 39 38
f 38 143 144
f 26 25 131
f 131 25 130
f 27 26 131
f 131 132 27
f 194 195 90
f 90 89 194
f 88 193 194
f 194 89 88
f 201 200 123
f 123 188 187
f 152 151 123
f 123 117 116
f 120 119 123
f 150 149 123
f 123 198 197
f 175 174 123
f 123 143 142
f 172 171 123
f 207 206 123
f 204 203 123
f 182 181 123
f 123 111 110
f 116 115 123
f 166 165 123
f 163 162 123
f 123 167 166
f 106 210 123
f 123 208 207
f 130 129 123
f 123 179 178
f 192 191 123
f 123 107 106
f 110 109 123
f 123 185 184
f 123 114 113
f 123 121 120
f 123 160 159
f 123 170 169
f 169 168 123
f 139 138 123
f 123 210 209
f 209 208 123
f 123 205 204
f 199 198 123
f 123 200 199
f 123 193 192
f 123 202 201
f 123 190 189
f 180 179 123
f 123 183 182
f 108 107 123
f 123 109 108
f 113 112 123
f 123 119 118
f 118 117 123
f 125 124 123
f 123 151 150
f 123 146 145
f 159 158 123
f 123 153 152
f 161 160 123
f 123 162 161
f 123 136 135
f 123 171 170
f 123 164 163
f 123 206 205
f 128 127 123
f 189 188 123
f 197 196 123
f 123 176 175
f 178 177 123
f 123 181 180
f 184 183 123
f 123 173 172
f 112 111 123
f 187 186 123
f 148 147 123
f 123 126 125
f 123 156 155
f 123 138 137
f 135 134 123
f 123 168 167
f 165 164 123
f 123 129 128
f 133 132 123
f 123 203 202
f 123 131 130
f 123 196 195
f 123 191 190
f 123 177 176
f 174 173 123
f 123 186 185
f 115 114 123
f 195 194 123
f 122 121 123
f 147 146 123
f 123 149 148
f 123 158 157
f 155 154 123
f 142 141 123
f 123 140 139
f 137 136 123
f 123 134 133
f 145 144 123
f 127 126 123
f 157 156 123
f 154 153 123
f 141 140 123
f 123 144 143
f 132 131 123
f 123 194 193
f 17 122 123
f 123 18 17
f 123 124 19
f 19 18 123
f 51 92 93
f 51 66 67
f 51 73 74
f 60 61 51
f 43 44 51
f 51 10 11
f 51 105 1
f 103 104 51
f 51 86 87
f 1 2 51
f 14 15 51
f 20 21 51
f 51 26 27
f 33 34 51
f 51 70 71
f 51 79 80
f 51 3 4
f 51 13 14
f 63 64 51
f 74 75 51
f 51 59 60
f 100 101 51
f 93 94 51
f 51 62 63
f 67 68 51
f 71 72 51
f 77 78 51
f 51 6 7
f 40 41 51
f 36 37 51
f 27 28 51
f 53 54 51
f 51 56 57
f 51 102 103
f 51 95 96
f 51 99 100
f 90 91 51
f 65 66 51
f 51 68 69
f 69 70 51
f 80 81 51
f 51 82 83
f 4 5 51
f 11 12 51
f 7 8 51
f 51 42 43
f 51 45 46
f 51 39 40
f 51 35 36
f 51 54 55
f 61 62 51
f 51 64 65
f 57 58 51
f 51 29 30
f 51 104 105
f 51 101 102
f 24 25 51
f 51 94 95
f 87 88 51
f 85 86 51
f 83 84 51
f 51 72 73
f 51 76 77
f 51 78 79
f 2 3 51
f 5 6 51
f 96 97 51
f 12 13 51
f 51 19 20
f 51 41 42
f 51 16 17
f 46 47 51
f 38 39 51
f 51 37 38
f 51 49 50
f 51 52 53
f 55 56 51
f 58 59 51
f 51 21 22
f 51 23 24
f 98 99 51
f 51 32 33
f 51 91 92
f 51 84 85
f 81 82 51
f 51 75 76
f 51 8 9
f 51 89 90
f 15 16 51
f 51 44 45
f 51 47 48
f 48 49 51
f 34 35 51
f 30 31 51
f 28 29 51
f 22 23 51
f 51 25 26
f 51 97 98
f 9 10 51
f 17 18 51
f 31 32 51
f 88 89 51
f 51 18 19
f 50 155 51
f 155 156 51
f 157 52 51
f 51 156 157

