# https://github.com/mikedh/trimesh
v -0.01759359 -0.00000000 0.03230000
v -0.01759699 0.00011363 0.03230000
v -0.01760718 0.00022685 0.03230000
v -0.01762412 0.00033926 0.03230000
v -0.01764776 0.00045045 0.03230000
v -0.01767800 0.00056003 0.03230000
v -0.01771474 0.00066761 0.03230000
v -0.01775785 0.00077280 0.03230000
v -0.01780718 0.00087522 0.03230000
v -0.01786254 0.00097451 0.03230000
v -0.01792374 0.00107031 0.03230000
v -0.01799055 0.00116228 0.03230000
v -0.01806275 0.00125008 0.03230000
v -0.01814007 0.00133342 0.03230000
v -0.01822224 0.00141198 0.03230000
v -0.01830896 0.00148548 0.03230000
v -0.01839992 0.00155367 0.03230000
v -0.01849479 0.00161629 0.03230000
v -0.01859324 0.00167313 0.03230000
v -0.01869491 0.00172398 0.03230000
v -0.01879944 0.00176866 0.03230000
v -0.01890646 0.00180701 0.03230000
v -0.01901557 0.00183889 0.03230000
v -0.01912640 0.00186418 0.03230000
v -0.01923855 0.00188280 0.03230000
v -0.01935160 0.00189469 0.03230000
v -0.01946517 0.00189979 0.03230000
v -0.01957883 0.00189809 0.03230000
v -0.01969219 0.00188959 0.03230000
v -0.01980484 0.00187433 0.03230000
v -0.01991638 0.00185236 0.03230000
v -0.02002640 0.00182376 0.03230000
v -0.02013452 0.00178863 0.03230000
v -0.02024034 0.00174710 0.03230000
v -0.02034348 0.00169932 0.03230000
v -0.02044359 0.00164545 0.03230000
v -0.02054029 0.00158569 0.03230000
v -0.02063325 0.00152025 0.03230000
v -0.02072213 0.00144938 0.03230000
v -0.02080661 0.00137331 0.03230000
v -0.02088639 0.00129233 0.03230000
v -0.02096118 0.00120672 0.03230000
v -0.02103072 0.00111679 0.03230000
v -0.02109476 0.00102287 0.03230000
v -0.02115306 0.00092528 0.03230000
v -0.02120543 0.00082438 0.03230000
v -0.02125167 0.00072053 0.03230000
v -0.02129161 0.00061410 0.03230000
v -0.02132512 0.00050547 0.03230000
v -0.02135207 0.00039503 0.03230000
v -0.02137237 0.00028318 0.03230000
v -0.02138594 0.00017031 0.03230000
v -0.02139274 0.00005684 0.03230000
v -0.02139274 -0.00005684 0.03230000
v -0.02138594 -0.00017031 0.03230000
v -0.02137237 -0.00028318 0.03230000
v -0.02135207 -0.00039503 0.03230000
v -0.02132512 -0.00050547 0.03230000
v -0.02129161 -0.00061410 0.03230000
v -0.02125167 -0.00072053 0.03230000
v -0.02120543 -0.00082438 0.03230000
v -0.02115306 -0.00092528 0.03230000
v -0.02109476 -0.00102287 0.03230000
v -0.02103072 -0.00111679 0.03230000
v -0.02096118 -0.00120672 0.03230000
v -0.02088639 -0.00129233 0.03230000
v -0.02080661 -0.00137331 0.03230000
v -0.02072213 -0.00144938 0.03230000
v -0.02063325 -0.00152025 0.03230000
v -0.02054029 -0.00158569 0.03230000
v -0.02044359 -0.00164545 0.03230000
v -0.02034348 -0.00169932 0.03230000
v -0.02024034 -0.00174710 0.03230000
v -0.02013452 -0.00178863 0.03230000
v -0.02002640 -0.00182376 0.03230000
v -0.01991638 -0.00185236 0.03230000
v -0.01980484 -0.00187433 0.03230000
v -0.01969219 -0.00188959 0.03230000
v -0.01957883 -0.00189809 0.03230000
v -0.01946517 -0.00189979 0.03230000
v -0.01935160 -0.00189469 0.03230000
v -0.01923855 -0.00188280 0.03230000
v -0.01912640 -0.00186418 0.03230000
v -0.01901557 -0.00183889 0.03230000
v -0.01890646 -0.00180701 0.03230000
v -0.01879944 -0.00176866 0.03230000
v -0.01869491 -0.00172398 0.03230000
v -0.01859324 -0.00167313 0.03230000
v -0.01849479 -0.00161629 0.03230000
v -0.01839992 -0.00155367 0.03230000
v -0.01830896 -0.00148548 0.03230000
v -0.01822224 -0.00141198 0.03230000
v -0.01814007 -0.00133342 0.03230000
v -0.01806275 -0.00125008 0.03230000
v -0.01799055 -0.00116228 0.03230000
v -0.01792374 -0.00107031 0.03230000
v -0.01786254 -0.00097451 0.03230000
v -0.01780718 -0.00087522 0.03230000
v -0.01775785 -0.00077280 0.03230000
v -0.01771474 -0.00066761 0.03230000
v -0.01767800 -0.00056003 0.03230000
v -0.01764776 -0.00045045 0.03230000
v -0.01762412 -0.00033926 0.03230000
v -0.01760718 -0.00022685 0.03230000
v -0.01759699 -0.00011363 0.03230000
v -0.01759359 -0.00000000 0.03030000
v -0.01759699 0.00011363 0.03030000
v -0.01760718 0.00022685 0.03030000
v -0.01762412 0.00033926 0.03030000
v -0.01764776 0.00045045 0.03030000
v -0.01767800 0.00056003 0.03030000
v -0.01771474 0.00066761 0.03030000
v -0.01775785 0.00077280 0.03030000
v -0.01780718 0.00087522 0.03030000
v -0.01786254 0.00097451 0.03030000
v -0.01792374 0.00107031 0.03030000
v -0.01799055 0.00116228 0.03030000
v -0.01806275 0.00125008 0.03030000
v -0.01814007 0.00133342 0.03030000
v -0.01822224 0.00141198 0.03030000
v -0.01830896 0.00148548 0.03030000
v -0.01839992 0.00155367 0.03030000
v -0.01849479 0.00161629 0.03030000
v -0.01859324 0.00167313 0.03030000
v -0.01869491 0.00172398 0.03030000
v -0.01879944 0.00176866 0.03030000
v -0.01890646 0.00180701 0.03030000
v -0.01901557 0.00183889 0.03030000
v -0.01912640 0.00186418 0.03030000
v -0.01923855 0.00188280 0.03030000
v -0.01935160 0.00189469 0.03030000
v -0.01946517 0.00189979 0.03030000
v -0.01957883 0.00189809 0.03030000
v -0.01969219 0.00188959 0.03030000
v -0.01980484 0.00187433 0.03030000
v -0.01991638 0.00185236 0.03030000
v -0.02002640 0.00182376 0.03030000
v -0.02013452 0.00178863 0.03030000
v -0.02024034 0.00174710 0.03030000
v -0.02034348 0.00169932 0.03030000
v -0.02044359 0.00164545 0.03030000
v -0.02054029 0.00158569 0.03030000
v -0.02063325 0.00152025 0.03030000
v -0.02072213 0.00144938 0.03030000
v -0.02080661 0.00137331 0.03030000
v -0.02088639 0.00129233 0.03030000
v -0.02096118 0.00120672 0.03030000
v -0.02103072 0.00111679 0.03030000
v -0.02109476 0.00102287 0.03030000
v -0.02115306 0.00092528 0.03030000
v -0.02120543 0.00082438 0.03030000
v -0.02125167 0.00072053 0.03030000
v -0.02129161 0.00061410 0.03030000
v -0.02132512 0.00050547 0.03030000
v -0.02135207 0.00039503 0.03030000
v -0.02137237 0.00028318 0.03030000
v -0.02138594 0.00017031 0.03030000
v -0.02139274 0.00005684 0.03030000
v -0.02139274 -0.00005684 0.03030000
v -0.02138594 -0.00017031 0.03030000
v -0.02137237 -0.00028318 0.03030000
v -0.02135207 -0.00039503 0.03030000
v -0.02132512 -0.00050547 0.03030000
v -0.02129161 -0.00061410 0.03030000
v -0.02125167 -0.00072053 0.03030000
v -0.02120543 -0.00082438 0.03030000
v -0.02115306 -0.00092528 0.03030000
v -0.02109476 -0.00102287 0.03030000
v -0.02103072 -0.00111679 0.03030000
v -0.02096118 -0.00120672 0.03030000
v -0.02088639 -0.00129233 0.03030000
v -0.02080661 -0.00137331 0.03030000
v -0.02072213 -0.00144938 0.03030000
v -0.02063325 -0.00152025 0.03030000
v -0.02054029 -0.00158569 0.03030000
v -0.02044359 -0.00164545 0.03030000
v -0.02034348 -0.00169932 0.03030000
v -0.02024034 -0.00174710 0.03030000
v -0.02013452 -0.00178863 0.03030000
v -0.02002640 -0.00182376 0.03030000
v -0.01991638 -0.00185236 0.03030000
v -0.01980484 -0.00187433 0.03030000
v -0.01969219 -0.00188959 0.03030000
v -0.01957883 -0.00189809 0.03030000
v -0.01946517 -0.00189979 0.03030000
v -0.01935160 -0.00189469 0.03030000
v -0.01923855 -0.00188280 0.03030000
v -0.01912640 -0.00186418 0.03030000
v -0.01901557 -0.00183889 0.03030000
v -0.01890646 -0.00180701 0.03030000
v -0.01879944 -0.00176866 0.03030000
v -0.01869491 -0.00172398 0.03030000
v -0.01859324 -0.00167313 0.03030000
v -0.01849479 -0.00161629 0.03030000
v -0.01839992 -0.00155367 0.03030000
v -0.01830896 -0.00148548 0.03030000
v -0.01822224 -0.00141198 0.03030000
v -0.01814007 -0.00133342 0.03030000
v -0.01806275 -0.00125008 0.03030000
v -0.01799055 -0.00116228 0.03030000
v -0.01792374 -0.00107031 0.03030000
v -0.01786254 -0.00097451 0.03030000
v -0.01780718 -0.00087522 0.03030000
v -0.01775785 -0.00077280 0.03030000
v -0.01771474 -0.00066761 0.03030000
v -0.01767800 -0.00056003 0.03030000
v -0.01764776 -0.00045045 0.03030000
v -0.01762412 -0.00033926 0.03030000
v -0.01760718 -0.00022685 0.03030000
v -0.01759699 -0.00011363 0.03030000
v -0.01849359 -0.00000000 0.02230000
v -0.01849538 0.00005980 0.02230000
v -0.01850074 0.00011939 0.02230000
v -0.01850966 0.00017856 0.02230000
v -0.01852210 0.00023708 0.02230000
v -0.01853802 0.00029476 0.02230000
v -0.01855735 0.00035137 0.02230000
v -0.01858004 0.00040674 0.02230000
v -0.01860600 0.00046064 0.02230000
v -0.01863514 0.00051290 0.02230000
v -0.01866735 0.00056332 0.02230000
v -0.01870252 0.00061172 0.02230000
v -0.01874052 0.00065794 0.02230000
v -0.01878121 0.00070180 0.02230000
v -0.01882446 0.00074314 0.02230000
v -0.01887010 0.00078183 0.02230000
v -0.01891797 0.00081772 0.02230000
v -0.01896790 0.00085068 0.02230000
v -0.01901972 0.00088060 0.02230000
v -0.01907323 0.00090736 0.02230000
v -0.01912825 0.00093087 0.02230000
v -0.01918457 0.00095106 0.02230000
v -0.01924200 0.00096783 0.02230000
v -0.01930033 0.00098115 0.02230000
v -0.01935936 0.00099095 0.02230000
v -0.01941886 0.00099720 0.02230000
v -0.01947863 0.00099989 0.02230000
v -0.01953845 0.00099899 0.02230000
v -0.01959812 0.00099452 0.02230000
v -0.01965741 0.00098649 0.02230000
v -0.01971611 0.00097493 0.02230000
v -0.01977402 0.00095988 0.02230000
v -0.01983092 0.00094139 0.02230000
v -0.01988661 0.00091953 0.02230000
v -0.01994090 0.00089438 0.02230000
v -0.01999359 0.00086603 0.02230000
v -0.02004449 0.00083457 0.02230000
v -0.02009341 0.00080013 0.02230000
v -0.02014019 0.00076283 0.02230000
v -0.02018465 0.00072279 0.02230000
v -0.02022664 0.00068017 0.02230000
v -0.02026601 0.00063512 0.02230000
v -0.02030261 0.00058779 0.02230000
v -0.02033631 0.00053835 0.02230000
v -0.02036700 0.00048699 0.02230000
v -0.02039456 0.00043388 0.02230000
v -0.02041889 0.00037923 0.02230000
v -0.02043992 0.00032321 0.02230000
v -0.02045755 0.00026604 0.02230000
v -0.02047174 0.00020791 0.02230000
v -0.02048242 0.00014904 0.02230000
v -0.02048956 0.00008964 0.02230000
v -0.02049314 0.00002992 0.02230000
v -0.02049314 -0.00002992 0.02230000
v -0.02048956 -0.00008964 0.02230000
v -0.02048242 -0.00014904 0.02230000
v -0.02047174 -0.00020791 0.02230000
v -0.02045755 -0.00026604 0.02230000
v -0.02043992 -0.00032321 0.02230000
v -0.02041889 -0.00037923 0.02230000
v -0.02039456 -0.00043388 0.02230000
v -0.02036700 -0.00048699 0.02230000
v -0.02033631 -0.00053835 0.02230000
v -0.02030261 -0.00058779 0.02230000
v -0.02026601 -0.00063512 0.02230000
v -0.02022664 -0.00068017 0.02230000
v -0.02018465 -0.00072279 0.02230000
v -0.02014019 -0.00076283 0.02230000
v -0.02009341 -0.00080013 0.02230000
v -0.02004449 -0.00083457 0.02230000
v -0.01999359 -0.00086603 0.02230000
v -0.01994090 -0.00089438 0.02230000
v -0.01988661 -0.00091953 0.02230000
v -0.01983092 -0.00094139 0.02230000
v -0.01977402 -0.00095988 0.02230000
v -0.01971611 -0.00097493 0.02230000
v -0.01965741 -0.00098649 0.02230000
v -0.01959812 -0.00099452 0.02230000
v -0.01953845 -0.00099899 0.02230000
v -0.01947863 -0.00099989 0.02230000
v -0.01941886 -0.00099720 0.02230000
v -0.01935936 -0.00099095 0.02230000
v -0.01930033 -0.00098115 0.02230000
v -0.01924200 -0.00096783 0.02230000
v -0.01918457 -0.00095106 0.02230000
v -0.01912825 -0.00093087 0.02230000
v -0.01907323 -0.00090736 0.02230000
v -0.01901972 -0.00088060 0.02230000
v -0.01896790 -0.00085068 0.02230000
v -0.01891797 -0.00081772 0.02230000
v -0.01887010 -0.00078183 0.02230000
v -0.01882446 -0.00074314 0.02230000
v -0.01878121 -0.00070180 0.02230000
v -0.01874052 -0.00065794 0.02230000
v -0.01870252 -0.00061172 0.02230000
v -0.01866735 -0.00056332 0.02230000
v -0.01863514 -0.00051290 0.02230000
v -0.01860600 -0.00046064 0.02230000
v -0.01858004 -0.00040674 0.02230000
v -0.01855735 -0.00035137 0.02230000
v -0.01853802 -0.00029476 0.02230000
v -0.01852210 -0.00023708 0.02230000
v -0.01850966 -0.00017856 0.02230000
v -0.01850074 -0.00011939 0.02230000
v -0.01849538 -0.00005980 0.02230000
f 277 172 171
f 173 172 277
f 132 236 237
f 140 139 244
f 211 106 210
f 107 106 211
f 308 204 203
f 142 247 143
f 141 247 142
f 213 214 108
f 108 107 213
f 108 214 109
f 112 216 217
f 131 236 132
f 131 130 236
f 125 229 230
f 230 126 125
f 120 226 121
f 133 237 238
f 132 237 133
f 239 133 238
f 134 133 239
f 137 241 242
f 136 241 137
f 246 247 141
f 141 140 246
f 194 193 298
f 299 194 298
f 297 298 192
f 192 298 193
f 198 303 304
f 197 303 198
f 307 308 203
f 307 201 306
f 205 204 309
f 204 308 309
f 174 173 279
f 279 280 174
f 175 280 176
f 174 280 175
f 176 280 281
f 177 281 282
f 176 281 177
f 180 285 286
f 284 285 180
f 180 286 181
f 157 156 262
f 262 158 157
f 143 247 248
f 248 144 143
f 249 144 248
f 250 146 145
f 251 146 250
f 145 144 250
f 250 144 249
f 110 109 215
f 215 109 214
f 212 107 211
f 212 213 107
f 216 112 111
f 111 215 216
f 110 215 111
f 234 129 128
f 127 232 128
f 127 126 232
f 232 126 231
f 126 230 231
f 118 223 119
f 226 120 225
f 124 229 125
f 124 123 229
f 240 241 135
f 135 241 136
f 135 239 240
f 134 239 135
f 245 140 244
f 245 246 140
f 198 304 199
f 196 301 197
f 202 307 203
f 201 307 202
f 311 206 205
f 278 173 277
f 278 279 173
f 179 284 180
f 178 284 179
f 283 284 178
f 178 177 283
f 283 177 282
f 183 288 184
f 185 184 290
f 287 288 182
f 182 288 183
f 182 286 287
f 182 181 286
f 190 295 191
f 297 192 191
f 292 188 187
f 293 188 292
f 189 295 190
f 188 293 189
f 265 161 160
f 266 161 265
f 163 162 267
f 162 161 267
f 267 161 266
f 264 265 159
f 159 265 160
f 158 262 263
f 260 156 155
f 154 260 155
f 219 220 114
f 114 113 219
f 221 116 220
f 117 223 118
f 116 221 117
f 114 220 115
f 220 116 115
f 236 130 235
f 130 129 235
f 129 234 235
f 128 232 233
f 233 234 128
f 224 119 223
f 120 119 224
f 224 225 120
f 123 122 227
f 227 122 121
f 121 226 227
f 244 139 243
f 139 138 243
f 243 137 242
f 243 138 137
f 200 305 306
f 306 201 200
f 304 305 200
f 200 199 304
f 303 197 302
f 197 301 302
f 300 195 194
f 300 194 299
f 300 196 195
f 301 196 300
f 205 309 310
f 310 311 205
f 207 206 312
f 206 311 312
f 312 208 207
f 185 290 291
f 292 187 291
f 289 184 288
f 289 290 184
f 297 191 296
f 296 191 295
f 185 291 186
f 186 291 187
f 295 189 294
f 294 189 293
f 268 164 163
f 163 267 268
f 261 262 156
f 156 260 261
f 259 154 153
f 260 154 259
f 218 219 113
f 218 113 112
f 218 112 217
f 223 117 222
f 222 117 221
f 229 123 228
f 123 227 228
f 209 208 313
f 208 312 313
f 165 164 270
f 270 166 165
f 151 257 152
f 152 257 153
f 151 150 256
f 256 257 151
f 153 257 258
f 258 259 153
f 209 313 314
f 314 210 209
f 164 268 269
f 269 270 164
f 167 166 271
f 166 270 271
f 254 150 149
f 211 210 315
f 210 314 315
f 168 167 273
f 255 256 150
f 150 254 255
f 149 148 253
f 253 254 149
f 253 148 147
f 167 271 272
f 272 273 167
f 274 169 168
f 168 273 274
f 170 169 274
f 252 253 147
f 147 146 252
f 252 146 251
f 275 171 170
f 170 274 275
f 277 171 276
f 171 275 276
f 59 165 60
f 59 164 165
f 168 63 62
f 62 167 168
f 172 67 66
f 66 171 172
f 170 171 66
f 66 65 170
f 64 63 168
f 168 169 64
f 170 65 64
f 64 169 170
f 68 67 172
f 172 173 68
f 126 21 20
f 20 125 126
f 137 31 136
f 137 32 31
f 35 34 139
f 139 140 35
f 38 142 143
f 37 142 38
f 1 106 2
f 106 107 2
f 2 107 108
f 108 3 2
f 89 195 90
f 194 195 89
f 89 193 194
f 88 193 89
f 192 88 87
f 192 193 88
f 93 92 197
f 198 93 197
f 177 178 73
f 73 72 177
f 76 75 181
f 181 75 180
f 57 162 58
f 58 162 163
f 164 59 58
f 163 164 58
f 60 165 61
f 165 166 61
f 167 62 61
f 61 166 167
f 53 52 158
f 158 52 157
f 155 156 51
f 51 50 155
f 157 52 51
f 51 156 157
f 150 46 45
f 151 46 150
f 150 45 44
f 44 149 150
f 40 145 41
f 145 146 41
f 147 42 41
f 41 146 147
f 39 38 144
f 144 38 143
f 40 39 144
f 144 145 40
f 174 175 69
f 69 175 70
f 69 68 173
f 69 173 174
f 70 175 71
f 71 175 176
f 71 177 72
f 176 177 71
f 110 5 4
f 4 109 110
f 4 3 108
f 108 109 4
f 132 27 26
f 26 131 132
f 130 131 26
f 26 25 130
f 24 23 128
f 128 129 24
f 130 25 24
f 24 129 130
f 14 13 119
f 119 13 118
f 14 119 15
f 15 119 120
f 20 19 124
f 124 125 20
f 17 122 18
f 18 122 123
f 18 124 19
f 123 124 18
f 28 27 132
f 132 133 28
f 134 29 28
f 28 133 134
f 36 142 37
f 141 142 36
f 36 35 140
f 36 140 141
f 99 204 205
f 205 100 99
f 99 98 203
f 203 204 99
f 104 208 209
f 104 103 208
f 101 100 205
f 205 206 101
f 199 94 93
f 199 93 198
f 196 91 90
f 90 195 196
f 92 91 196
f 196 197 92
f 203 98 202
f 98 97 202
f 202 97 96
f 96 201 202
f 75 74 179
f 180 75 179
f 73 178 179
f 179 74 73
f 86 85 191
f 191 85 190
f 87 86 191
f 191 192 87
f 187 83 82
f 187 188 83
f 189 85 84
f 190 85 189
f 84 83 189
f 83 188 189
f 161 55 160
f 161 56 55
f 161 162 57
f 57 56 161
f 264 159 263
f 263 159 158
f 50 49 154
f 155 50 154
f 154 49 48
f 48 153 154
f 148 43 42
f 148 42 147
f 148 149 44
f 44 43 148
f 8 114 9
f 8 113 114
f 112 113 8
f 8 7 112
f 6 5 110
f 110 111 6
f 112 7 6
f 6 111 112
f 13 12 117
f 118 13 117
f 117 12 11
f 11 116 117
f 115 10 9
f 9 114 115
f 11 10 115
f 115 116 11
f 128 23 22
f 22 127 128
f 21 126 22
f 126 127 22
f 16 122 17
f 121 122 16
f 16 15 120
f 16 120 121
f 136 31 30
f 30 135 136
f 30 29 134
f 134 135 30
f 139 34 33
f 33 138 139
f 32 137 33
f 137 138 33
f 105 106 1
f 105 210 106
f 105 104 209
f 209 210 105
f 208 103 102
f 207 208 102
f 102 101 206
f 102 206 207
f 96 95 200
f 200 201 96
f 200 95 94
f 94 199 200
f 79 185 80
f 79 184 185
f 79 78 183
f 183 184 79
f 76 181 77
f 181 182 77
f 183 78 77
f 77 182 183
f 186 81 80
f 80 185 186
f 82 81 186
f 186 187 82
f 93 94 54
f 54 19 20
f 20 21 54
f 54 86 87
f 54 36 37
f 54 92 93
f 54 52 53
f 96 97 54
f 73 74 54
f 57 58 54
f 50 51 54
f 23 24 54
f 54 89 90
f 87 88 54
f 84 85 54
f 47 48 54
f 80 81 54
f 54 59 60
f 63 64 54
f 9 10 54
f 54 30 31
f 54 39 40
f 54 4 5
f 54 72 73
f 54 13 14
f 54 83 84
f 11 12 54
f 76 77 54
f 54 43 44
f 54 66 67
f 67 68 54
f 54 75 76
f 54 95 96
f 14 15 54
f 17 18 54
f 34 35 54
f 37 38 54
f 70 71 54
f 1 2 54
f 82 83 54
f 54 85 86
f 90 91 54
f 54 81 82
f 54 102 103
f 54 62 63
f 60 61 54
f 54 56 57
f 54 49 50
f 54 46 47
f 44 45 54
f 65 66 54
f 54 64 65
f 40 41 54
f 54 69 70
f 54 10 11
f 54 26 27
f 5 6 54
f 54 16 17
f 31 32 54
f 27 28 54
f 54 38 39
f 54 99 100
f 54 33 34
f 54 2 3
f 54 12 13
f 54 91 92
f 88 89 54
f 100 101 54
f 54 74 75
f 54 79 80
f 54 58 59
f 54 61 62
f 55 56 54
f 48 49 54
f 54 51 52
f 45 46 54
f 42 43 54
f 54 41 42
f 68 69 54
f 54 71 72
f 3 4 54
f 54 8 9
f 25 26 54
f 54 24 25
f 54 22 23
f 54 18 19
f 54 28 29
f 35 36 54
f 98 99 54
f 54 97 98
f 103 104 54
f 54 105 1
f 94 95 54
f 7 8 54
f 54 6 7
f 21 22 54
f 15 16 54
f 29 30 54
f 32 33 54
f 104 105 54
f 101 102 54
f 78 79 54
f 54 77 78
f 53 158 54
f 158 159 54
f 160 55 54
f 54 159 160
f 47 46 152
f 152 46 151
f 152 48 47
f 152 153 48
f 306 305 276
f 276 237 236
f 276 288 287
f 276 212 211
f 276 241 240
f 217 216 276
f 276 233 232
f 282 281 276
f 276 307 306
f 276 215 214
f 276 230 229
f 232 231 276
f 223 222 276
f 303 302 276
f 276 289 288
f 276 248 247
f 260 259 276
f 238 237 276
f 240 239 276
f 276 298 297
f 276 245 244
f 276 310 309
f 287 286 276
f 276 278 277
f 276 265 264
f 264 263 276
f 251 250 276
f 214 213 276
f 262 261 276
f 276 218 217
f 276 224 223
f 276 239 238
f 242 241 276
f 247 246 276
f 299 298 276
f 276 304 303
f 308 307 276
f 276 309 308
f 280 279 276
f 276 281 280
f 276 286 285
f 285 284 276
f 276 283 282
f 229 228 276
f 276 293 292
f 295 294 276
f 249 248 276
f 276 250 249
f 216 215 276
f 213 212 276
f 236 235 276
f 276 231 230
f 226 225 276
f 246 245 276
f 276 305 304
f 244 243 276
f 276 300 299
f 279 278 276
f 284 283 276
f 292 291 276
f 297 296 276
f 266 265 276
f 276 267 266
f 276 263 262
f 276 258 257
f 220 219 276
f 276 221 220
f 276 235 234
f 234 233 276
f 225 224 276
f 276 227 226
f 276 243 242
f 276 302 301
f 301 300 276
f 311 310 276
f 276 312 311
f 276 291 290
f 290 289 276
f 276 296 295
f 276 294 293
f 276 268 267
f 276 261 260
f 276 269 268
f 211 315 276
f 219 218 276
f 276 222 221
f 276 228 227
f 276 313 312
f 256 255 276
f 257 256 276
f 259 258 276
f 276 314 313
f 270 269 276
f 276 271 270
f 276 272 271
f 276 315 314
f 276 252 251
f 276 255 254
f 254 253 276
f 273 272 276
f 276 274 273
f 253 252 276
f 276 275 274

