# https://github.com/mikedh/trimesh
v 0.02701449 -0.00337605 0.05695939
v 0.02685520 -0.00337605 0.05732245
v 0.02700711 -0.00373942 0.05695939
v 0.01194712 -0.00337605 0.05695939
v 0.02684783 -0.00369510 0.05732245
v 0.01194712 -0.00337605 0.05732245
v 0.02696877 -0.00416708 0.05695939
v 0.02684635 -0.00373942 0.05732245
v 0.01194712 -0.00637433 0.05695939
v 0.01194712 -0.00637433 0.05732245
v 0.02692894 -0.00451871 0.05695939
v 0.02680505 -0.00419966 0.05732245
v 0.02668706 -0.00542480 0.05732245
v 0.02663987 -0.00584630 0.05732245
v 0.02666789 -0.00637433 0.05695939
v 0.02653515 -0.00637433 0.05732245
v 0.02677851 -0.00584630 0.05695939
v 0.02659120 -0.00611545 0.05732245
v 0.02669739 -0.00626544 0.05695939
v 0.02660595 -0.00637433 0.05713509
v 0.02656465 -0.00626133 0.05732245
v 0.02671361 -0.00620497 0.05695939
f 1 2 3
f 1 3 7
f 1 7 11
f 1 11 17
f 1 17 22
f 1 22 19
f 1 19 15
f 1 15 9
f 1 9 4
f 1 4 6
f 1 6 2
f 2 5 3
f 2 6 10
f 2 10 16
f 2 16 21
f 2 21 18
f 2 18 14
f 2 14 13
f 2 13 12
f 2 12 8
f 2 8 5
f 3 5 8
f 3 8 7
f 4 9 10
f 4 10 6
f 7 8 12
f 7 12 13
f 7 13 14
f 7 14 11
f 9 15 20
f 9 20 16
f 9 16 10
f 11 14 17
f 14 18 17
f 15 19 20
f 16 20 21
f 17 18 22
f 18 21 22
f 19 22 20
f 20 22 21

