# https://github.com/mikedh/trimesh
v 0.02499584 0.00373452 0.05534201
v 0.02581984 0.00337959 0.05558789
v 0.02629369 0.00262321 0.05553883
v 0.02683795 0.00153775 0.05543839
v 0.02765623 -0.00224588 0.05548783
v 0.02640787 -0.00860361 0.05544778
v 0.00856917 -0.00500434 0.05534288
v 0.01354550 0.00373452 0.05534201
v 0.02748877 -0.00487168 0.05562880
v 0.02753444 -0.00144298 0.05558028
v 0.02703586 0.00081066 0.05556208
v 0.00964246 0.00340716 0.05554669
v 0.00868525 0.00112768 0.05576460
v 0.02732892 -0.00024035 0.05554723
v 0.02764101 -0.00310392 0.05555339
v 0.02742026 -0.00564356 0.05555331
v 0.02685317 -0.00753538 0.05554065
v 0.02562574 -0.00982692 0.05557618
v 0.02496349 -0.01072803 0.05555331
v 0.02444207 -0.01130867 0.05555331
v 0.02387117 -0.01182556 0.05555124
v 0.02083208 -0.01348305 0.05555968
v 0.01966364 -0.01375700 0.05555351
v 0.01877304 -0.01386727 0.05555335
v 0.00941029 -0.00774386 0.05555327
v 0.00893264 -0.00652400 0.05555488
v 0.00867764 -0.00566424 0.05555331
v 0.00832558 -0.00384651 0.05554346
v 0.00824756 -0.00282480 0.05555331
v 0.00829513 -0.00142920 0.05544212
v 0.01793192 -0.01386554 0.05555351
v 0.01709079 -0.01377595 0.05555351
v 0.01586145 -0.01350200 0.05555351
v 0.01491757 -0.01316947 0.05555335
v 0.01416398 -0.01281454 0.05555327
v 0.01346177 -0.01240619 0.05555327
v 0.01250266 -0.01170667 0.05555331
v 0.01179855 -0.01108296 0.05555327
v 0.01048168 -0.00953918 0.05555331
v 0.00984608 -0.00855882 0.05555335
v 0.02719761 -0.00648265 0.05558623
v 0.02758392 -0.00407567 0.05560969
v 0.02167511 -0.01316430 0.05566578
v 0.00924663 0.00258014 0.05555327
v 0.00898592 0.00192541 0.05555331
v 0.00848163 0.00016971 0.05555331
v 0.00821521 -0.00205463 0.05576460
v 0.02290255 -0.01251819 0.05560977
f 1 2 3
f 1 3 4
f 1 4 5
f 1 5 6
f 1 6 7
f 1 7 8
f 1 8 2
f 2 9 10
f 2 10 11
f 2 11 3
f 2 8 12
f 2 12 13
f 2 13 9
f 3 11 4
f 4 11 14
f 4 14 5
f 5 15 16
f 5 16 6
f 5 14 10
f 5 10 15
f 6 16 17
f 6 17 18
f 6 18 19
f 6 19 20
f 6 20 21
f 6 21 22
f 6 22 23
f 6 23 24
f 6 24 7
f 7 25 26
f 7 26 27
f 7 27 28
f 7 28 29
f 7 29 30
f 7 30 8
f 7 24 31
f 7 31 32
f 7 32 33
f 7 33 34
f 7 34 35
f 7 35 36
f 7 36 37
f 7 37 38
f 7 38 39
f 7 39 40
f 7 40 25
f 8 30 12
f 9 41 16
f 9 16 42
f 9 42 10
f 9 13 43
f 9 43 18
f 9 18 41
f 10 42 15
f 10 14 11
f 12 30 44
f 12 44 13
f 13 44 45
f 13 45 46
f 13 46 47
f 13 47 43
f 15 42 16
f 16 41 17
f 17 41 18
f 18 43 48
f 18 48 20
f 18 20 19
f 20 48 21
f 21 48 22
f 22 43 23
f 22 48 43
f 23 43 24
f 24 43 31
f 25 40 47
f 25 47 26
f 26 47 27
f 27 47 28
f 28 47 29
f 29 47 30
f 30 47 46
f 30 46 45
f 30 45 44
f 31 43 32
f 32 43 33
f 33 43 34
f 34 43 35
f 35 43 47
f 35 47 36
f 36 47 37
f 37 47 38
f 38 47 39
f 39 47 40

