# https://github.com/mikedh/trimesh
v 0.02460832 -0.00841175 0.05427418
v 0.02453589 -0.01175358 0.05427418
v 0.02460832 -0.01281384 0.05376049
v 0.02460832 -0.00841175 0.05376049
v 0.01206806 -0.00841175 0.05427418
v 0.02402770 -0.01213448 0.05427418
v 0.02354284 -0.01246811 0.05427418
v 0.02275846 -0.01289629 0.05427418
v 0.02234233 -0.01309800 0.05427418
v 0.02200476 -0.01325300 0.05427418
v 0.02151253 -0.01344758 0.05427418
v 0.02109518 -0.01358334 0.05427418
v 0.02089387 -0.01364160 0.05427418
v 0.02067046 -0.01370041 0.05427418
v 0.02105713 -0.01373999 0.05376049
v 0.01206806 -0.00841175 0.05376049
v 0.01206806 -0.01152383 0.05427418
v 0.02024820 -0.01379550 0.05427418
v 0.02066923 -0.01381199 0.05376049
v 0.01206806 -0.01281384 0.05376049
v 0.01222395 -0.01168158 0.05427418
v 0.01982593 -0.01386751 0.05427418
v 0.02024820 -0.01387300 0.05376049
v 0.01614217 -0.01374603 0.05376049
v 0.01643923 -0.01370371 0.05427418
v 0.01609798 -0.01361962 0.05427418
v 0.01561311 -0.01346352 0.05427418
v 0.01516139 -0.01328268 0.05427418
v 0.01477104 -0.01311834 0.05427418
v 0.01441261 -0.01295400 0.05427418
v 0.01368346 -0.01259673 0.05427418
v 0.01286962 -0.01212624 0.05427418
v 0.01940489 -0.01392467 0.05427418
v 0.01944786 -0.01398293 0.05376049
v 0.01655952 -0.01382133 0.05376049
v 0.01729971 -0.01387740 0.05427418
v 0.01707385 -0.01383508 0.05427418
v 0.01687745 -0.01379715 0.05427418
v 0.01665281 -0.01374933 0.05427418
v 0.01898386 -0.01396204 0.05427418
v 0.01898386 -0.01402031 0.05376049
v 0.01698179 -0.01387905 0.05376049
v 0.01772075 -0.01393181 0.05427418
v 0.01856282 -0.01397139 0.05427418
v 0.01856282 -0.01402580 0.05376049
v 0.01772075 -0.01396754 0.05376049
v 0.01814179 -0.01401261 0.05376049
v 0.01814179 -0.01396039 0.05427418
f 1 2 3
f 1 3 4
f 1 4 16
f 1 16 5
f 1 5 17
f 1 17 21
f 1 21 32
f 1 32 31
f 1 31 30
f 1 30 29
f 1 29 28
f 1 28 27
f 1 27 26
f 1 26 25
f 1 25 39
f 1 39 38
f 1 38 37
f 1 37 36
f 1 36 43
f 1 43 48
f 1 48 44
f 1 44 40
f 1 40 33
f 1 33 22
f 1 22 18
f 1 18 14
f 1 14 13
f 1 13 12
f 1 12 11
f 1 11 10
f 1 10 9
f 1 9 8
f 1 8 7
f 1 7 6
f 1 6 2
f 2 6 3
f 3 6 7
f 3 7 8
f 3 8 9
f 3 9 10
f 3 10 11
f 3 11 12
f 3 12 13
f 3 13 14
f 3 14 15
f 3 15 19
f 3 19 23
f 3 23 34
f 3 34 41
f 3 41 45
f 3 45 47
f 3 47 46
f 3 46 42
f 3 42 35
f 3 35 24
f 3 24 20
f 3 20 16
f 3 16 4
f 5 16 20
f 5 20 17
f 14 18 15
f 15 18 19
f 17 20 21
f 18 22 19
f 19 22 23
f 20 24 25
f 20 25 26
f 20 26 27
f 20 27 28
f 20 28 29
f 20 29 30
f 20 30 31
f 20 31 32
f 20 32 21
f 22 33 34
f 22 34 23
f 24 35 36
f 24 36 37
f 24 37 38
f 24 38 39
f 24 39 25
f 33 40 34
f 34 40 41
f 35 42 36
f 36 42 43
f 40 44 41
f 41 44 45
f 42 46 43
f 43 47 48
f 43 46 47
f 44 48 45
f 45 48 47

