# https://github.com/mikedh/trimesh
v 0.03192795 0.01092383 0.05155776
v 0.03246815 0.01067621 0.05175245
v 0.03290634 0.01064516 0.05173345
v 0.03320542 0.01032147 0.05168021
v 0.03329352 0.00974550 0.05155776
v 0.01048238 0.01091219 0.05155776
v 0.01832335 0.00892036 0.05338918
v 0.03052762 0.00956852 0.05262872
v 0.03178653 0.01003116 0.05223343
v 0.03289011 0.01016778 0.05192437
v 0.03322628 0.00299376 0.05168487
v 0.03289011 0.00974550 0.05193387
v 0.00976367 0.00300308 0.05155776
v 0.00977062 0.01016700 0.05155776
v 0.01000015 0.01058617 0.05171875
v 0.00987959 0.01001641 0.05223074
v 0.01013462 0.01015380 0.05216961
v 0.01007665 0.00967719 0.05254841
v 0.00988654 0.00862927 0.05326567
v 0.00962456 0.00721651 0.05338918
v 0.02784286 0.00863237 0.05338918
v 0.02867518 0.00889008 0.05317531
v 0.02844102 0.00851904 0.05338918
v 0.02990627 0.00889474 0.05296647
v 0.03109100 0.00932478 0.05256167
v 0.03228963 0.00974550 0.05214290
v 0.03288547 0.00299376 0.05193549
v 0.00969179 0.00299376 0.05239370
v 0.03162656 0.00932478 0.05237613
v 0.03161728 0.00299376 0.05237954
v 0.00976598 0.00975404 0.05155776
v 0.00983090 0.01016079 0.05197224
v 0.00973352 0.00932478 0.05197170
v 0.00970107 0.00890250 0.05239316
v 0.00967093 0.00848178 0.05281409
v 0.00974975 0.00974550 0.05197170
v 0.00967093 0.00805873 0.05331228
v 0.00960833 0.00299376 0.05338918
v 0.00963615 0.00763879 0.05331228
v 0.02873083 0.00806494 0.05338918
v 0.02909714 0.00848178 0.05325455
v 0.02951909 0.00848178 0.05311329
v 0.02974630 0.00299376 0.05303423
v 0.00974048 0.00932478 0.05239316
v 0.02873083 0.00299376 0.05338918
f 1 2 3
f 1 3 4
f 1 4 5
f 1 5 13
f 1 13 31
f 1 31 14
f 1 14 6
f 1 6 7
f 1 7 2
f 2 7 8
f 2 8 9
f 2 9 3
f 3 10 4
f 3 9 10
f 4 11 5
f 4 10 12
f 4 12 11
f 5 11 13
f 6 14 15
f 6 15 16
f 6 16 17
f 6 17 7
f 7 17 18
f 7 18 19
f 7 19 20
f 7 20 38
f 7 38 45
f 7 45 40
f 7 40 23
f 7 23 21
f 7 21 8
f 8 21 22
f 8 22 23
f 8 23 9
f 9 23 24
f 9 24 10
f 10 24 25
f 10 25 26
f 10 26 12
f 11 12 27
f 11 27 30
f 11 30 43
f 11 43 45
f 11 45 38
f 11 38 28
f 11 28 13
f 12 26 29
f 12 29 30
f 12 30 27
f 13 28 31
f 14 32 15
f 14 31 33
f 14 33 34
f 14 34 35
f 14 35 36
f 14 36 32
f 15 32 16
f 16 32 37
f 16 37 19
f 16 19 18
f 16 18 17
f 19 37 20
f 20 37 39
f 20 39 35
f 20 35 34
f 20 34 38
f 21 23 22
f 23 40 41
f 23 41 24
f 24 41 25
f 25 41 42
f 25 42 29
f 25 29 26
f 28 38 31
f 29 42 40
f 29 40 43
f 29 43 30
f 31 38 33
f 32 36 44
f 32 44 37
f 33 38 34
f 35 39 37
f 35 37 44
f 35 44 36
f 40 45 43
f 40 42 41

