# https://github.com/mikedh/trimesh
v 0.02615491 0.00553051 0.05427421
v 0.02601909 0.00553051 0.05431082
v 0.02569883 0.00463312 0.05457581
v 0.02588998 0.00434847 0.05457581
v 0.02647684 0.00333621 0.05457581
v 0.02655900 0.00318389 0.05457581
v 0.02668811 0.00318389 0.05439507
v 0.02675351 0.00318389 0.05427421
v 0.00984350 0.00553051 0.05427421
v 0.02492082 0.00553051 0.05457581
v 0.02512371 0.00534671 0.05457581
v 0.02551271 0.00488401 0.05457581
v 0.00963223 0.00318389 0.05457581
v 0.00962384 0.00318389 0.05427421
v 0.00962720 0.00318389 0.05449997
v 0.00987033 0.00553051 0.05431047
v 0.01108094 0.00553051 0.05457581
v 0.00983847 0.00378996 0.05457581
v 0.01014028 0.00428942 0.05457581
v 0.01062319 0.00504506 0.05457581
v 0.01102225 0.00549168 0.05457581
f 1 2 3
f 1 3 4
f 1 4 5
f 1 5 6
f 1 6 7
f 1 7 8
f 1 8 14
f 1 14 9
f 1 9 16
f 1 16 17
f 1 17 10
f 1 10 2
f 2 10 11
f 2 11 12
f 2 12 3
f 3 12 11
f 3 11 10
f 3 10 17
f 3 17 21
f 3 21 20
f 3 20 19
f 3 19 18
f 3 18 13
f 3 13 6
f 3 6 5
f 3 5 4
f 6 13 15
f 6 15 14
f 6 14 8
f 6 8 7
f 9 14 15
f 9 15 13
f 9 13 16
f 13 18 16
f 16 18 19
f 16 19 20
f 16 20 21
f 16 21 17

