# https://github.com/mikedh/trimesh
v 0.01030071 -0.01090779 0.04459726
v 0.01075608 -0.01090779 0.03871408
v 0.02084567 -0.01090779 0.03829085
v 0.02115921 -0.01073998 0.04459726
v 0.01030071 0.01100994 0.04459726
v 0.01070809 0.01227461 0.03932926
v 0.01092671 -0.01090779 0.03791307
v 0.01075715 0.01235243 0.03872900
v 0.01092991 0.01248376 0.03791307
v 0.02043829 -0.01090779 0.03771502
v 0.02119547 -0.01021709 0.03772858
v 0.02119547 -0.01052839 0.03828746
v 0.01176706 0.01275859 0.04459726
v 0.02119547 0.01282668 0.04447789
v 0.01034550 0.01154499 0.04405872
v 0.01052893 0.01185143 0.04164617
v 0.01120505 0.01259564 0.04459726
v 0.01076674 0.01234514 0.04454368
v 0.01033270 0.01159606 0.04449077
v 0.01073902 0.01261509 0.03932926
v 0.01140021 -0.01090779 0.03766822
v 0.01140021 0.01290451 0.03766957
v 0.01078594 0.01277804 0.03890806
v 0.01091285 0.01311610 0.03848687
v 0.01104722 0.01327418 0.03792188
v 0.02119547 -0.00963826 0.03766822
v 0.01224270 0.01282425 0.04449077
v 0.01191743 0.01292153 0.04384372
v 0.01163483 0.01290208 0.04373181
v 0.02119547 0.01293126 0.04389052
v 0.01266394 0.01293126 0.04389052
v 0.01160710 0.01332769 0.04123108
v 0.01170095 0.01380194 0.03854723
v 0.01135009 0.01363899 0.03848687
v 0.01119332 0.01332282 0.03993833
v 0.01110161 0.01342740 0.03848687
v 0.01078807 0.01282425 0.03932926
v 0.01224270 0.01353928 0.03766822
v 0.01162630 0.01370223 0.03786084
v 0.02119547 0.01367547 0.03770959
v 0.01224270 0.01343713 0.04101472
v 0.01211792 0.01378005 0.03903286
v 0.01171268 0.01372898 0.03901048
v 0.02119547 0.01388220 0.03848687
v 0.01245279 0.01387977 0.03848687
v 0.01266394 0.01393814 0.03806499
v 0.01224270 0.01389436 0.03791307
v 0.02119547 0.01393814 0.03806499
f 1 2 7
f 1 7 21
f 1 21 10
f 1 10 3
f 1 3 4
f 1 4 13
f 1 13 17
f 1 17 5
f 1 5 6
f 1 6 2
f 2 6 8
f 2 8 9
f 2 9 7
f 3 10 11
f 3 11 12
f 3 12 4
f 4 12 14
f 4 14 13
f 5 15 16
f 5 16 6
f 5 17 18
f 5 18 19
f 5 19 15
f 6 20 8
f 6 16 15
f 6 15 20
f 7 9 22
f 7 22 21
f 8 20 23
f 8 23 24
f 8 24 9
f 9 24 25
f 9 25 22
f 10 21 26
f 10 26 11
f 11 26 40
f 11 40 48
f 11 48 44
f 11 44 30
f 11 30 14
f 11 14 12
f 13 14 27
f 13 27 28
f 13 28 29
f 13 29 17
f 14 30 31
f 14 31 27
f 15 19 20
f 17 29 32
f 17 32 33
f 17 33 34
f 17 34 35
f 17 35 18
f 18 35 36
f 18 36 24
f 18 24 19
f 19 24 37
f 19 37 23
f 19 23 20
f 21 22 38
f 21 38 26
f 22 25 39
f 22 39 38
f 23 37 24
f 24 36 25
f 25 36 34
f 25 34 39
f 26 38 40
f 27 31 41
f 27 41 28
f 28 41 42
f 28 42 43
f 28 43 29
f 29 43 32
f 30 44 31
f 31 44 41
f 32 43 33
f 33 45 46
f 33 46 47
f 33 47 39
f 33 39 34
f 33 43 42
f 33 42 45
f 34 36 35
f 38 39 47
f 38 47 40
f 40 47 48
f 41 44 45
f 41 45 42
f 44 48 46
f 44 46 45
f 46 48 47

