# https://github.com/mikedh/trimesh
v 0.02723278 -0.00793400 0.05427421
v 0.02708932 -0.00793400 0.05457581
v 0.02704092 -0.00837951 0.05427421
v 0.00957732 -0.00793400 0.05427421
v 0.02707895 -0.00795788 0.05457581
v 0.00957732 -0.00793400 0.05457581
v 0.02647747 -0.00958364 0.05427421
v 0.00959979 -0.00816898 0.05427421
v 0.00957559 -0.00793400 0.05449692
v 0.02704957 -0.00801997 0.05457581
v 0.00984349 -0.00988548 0.05427421
v 0.00985386 -0.00988548 0.05428992
v 0.00986942 -0.00988548 0.05431121
v 0.00982448 -0.00867505 0.05457581
v 0.02688191 -0.00836346 0.05457581
v 0.02645500 -0.00918513 0.05457581
v 0.02630982 -0.00988548 0.05427421
v 0.00998003 -0.00988548 0.05435101
v 0.01028942 -0.00947303 0.05457581
v 0.02616463 -0.00966120 0.05457581
v 0.02612661 -0.00988548 0.05446175
v 0.01063682 -0.00988548 0.05457581
v 0.01048299 -0.00972348 0.05457581
v 0.02600217 -0.00988224 0.05457581
v 0.02599871 -0.00988548 0.05457581
f 1 2 3
f 1 3 7
f 1 7 17
f 1 17 11
f 1 11 8
f 1 8 4
f 1 4 9
f 1 9 6
f 1 6 2
f 2 5 3
f 2 6 14
f 2 14 19
f 2 19 23
f 2 23 22
f 2 22 25
f 2 25 24
f 2 24 20
f 2 20 16
f 2 16 15
f 2 15 10
f 2 10 5
f 3 5 7
f 4 8 9
f 5 10 7
f 6 9 8
f 6 8 11
f 6 11 12
f 6 12 13
f 6 13 14
f 7 10 15
f 7 15 16
f 7 16 17
f 11 17 21
f 11 21 25
f 11 25 22
f 11 22 18
f 11 18 13
f 11 13 12
f 13 18 19
f 13 19 14
f 16 20 17
f 17 20 21
f 18 22 23
f 18 23 19
f 20 24 21
f 21 24 25

