# https://github.com/mikedh/trimesh
v 0.00782047 -0.00372631 0.05859722
v 0.00901479 -0.00372631 0.05859722
v 0.00788146 -0.00372631 0.05829464
v 0.00788289 -0.00373842 0.05829464
v 0.00801508 -0.00458120 0.05829464
v 0.00804209 -0.00500385 0.05859722
v 0.00901479 -0.00372631 0.05829464
v 0.00964763 -0.00372681 0.05859722
v 0.00808931 -0.00500385 0.05829464
v 0.00813975 -0.00542398 0.05859722
v 0.00964763 -0.00372681 0.05829464
v 0.00964763 -0.00887884 0.05859722
v 0.00809664 -0.00503210 0.05829464
v 0.00819645 -0.00541037 0.05829464
v 0.00819449 -0.00542096 0.05831961
v 0.00844795 -0.00626778 0.05829464
v 0.00838838 -0.00626778 0.05859722
v 0.00964763 -0.00878856 0.05829464
v 0.00963207 -0.00885362 0.05859722
v 0.00964763 -0.00887329 0.05857512
v 0.00859909 -0.00669699 0.05829464
v 0.00843435 -0.00639790 0.05859722
v 0.00964763 -0.00879007 0.05829896
v 0.00951992 -0.00855050 0.05829464
v 0.00964763 -0.00879562 0.05831549
v 0.00959397 -0.00878856 0.05859722
v 0.00861501 -0.00673885 0.05829464
v 0.00854525 -0.00669345 0.05859722
v 0.00964763 -0.00879411 0.05831090
v 0.00954514 -0.00869677 0.05859722
v 0.00943639 -0.00849200 0.05859722
v 0.00938952 -0.00840172 0.05859722
v 0.00877904 -0.00709442 0.05829464
v 0.00858997 -0.00679786 0.05859722
v 0.00874451 -0.00702381 0.05829464
v 0.00865615 -0.00690579 0.05848123
v 0.00864774 -0.00692243 0.05859722
v 0.00876902 -0.00707425 0.05829464
f 1 2 7
f 1 7 3
f 1 3 4
f 1 4 5
f 1 5 6
f 1 6 10
f 1 10 17
f 1 17 22
f 1 22 28
f 1 28 34
f 1 34 37
f 1 37 32
f 1 32 31
f 1 31 30
f 1 30 26
f 1 26 19
f 1 19 12
f 1 12 8
f 1 8 2
f 2 8 11
f 2 11 7
f 3 7 11
f 3 11 18
f 3 18 24
f 3 24 33
f 3 33 38
f 3 38 35
f 3 35 27
f 3 27 21
f 3 21 16
f 3 16 14
f 3 14 13
f 3 13 9
f 3 9 5
f 3 5 4
f 5 9 6
f 6 9 10
f 8 12 20
f 8 20 25
f 8 25 29
f 8 29 23
f 8 23 18
f 8 18 11
f 9 13 10
f 10 13 14
f 10 14 15
f 10 15 16
f 10 16 17
f 12 19 20
f 14 16 15
f 16 21 17
f 17 21 22
f 18 23 24
f 19 25 20
f 19 26 25
f 21 27 28
f 21 28 22
f 23 29 24
f 24 29 26
f 24 26 30
f 24 30 31
f 24 31 32
f 24 32 33
f 25 26 29
f 27 34 28
f 27 35 36
f 27 36 34
f 32 37 36
f 32 36 33
f 33 36 38
f 34 36 37
f 35 38 36

