# https://github.com/mikedh/trimesh
v 0.02211873 0.00702208 0.05568340
v 0.02236445 0.00680391 0.05576460
v 0.02241266 0.00698346 0.05534226
v 0.01296486 0.00700567 0.05534214
v 0.01295709 0.00700824 0.05576444
v 0.02331156 0.00609119 0.05576460
v 0.02320737 0.00639269 0.05534201
v 0.00995090 0.00401125 0.05576460
v 0.01266471 0.00679844 0.05534201
v 0.01266471 0.00681099 0.05576444
v 0.02401296 0.00550492 0.05576460
v 0.02372369 0.00579644 0.05572208
v 0.02362416 0.00607864 0.05534201
v 0.00980937 0.00376767 0.05576452
v 0.02542974 0.00379405 0.05576460
v 0.01229457 0.00654457 0.05576444
v 0.01182024 0.00616166 0.05576444
v 0.01148743 0.00585951 0.05576444
v 0.01127748 0.00565261 0.05576444
v 0.01107841 0.00544185 0.05576444
v 0.01086846 0.00520213 0.05576444
v 0.01030548 0.00452802 0.05576444
v 0.01012197 0.00426802 0.05576444
v 0.01021061 0.00430599 0.05534201
v 0.00992757 0.00384779 0.05534205
v 0.01173159 0.00605322 0.05534201
v 0.01230702 0.00653459 0.05534226
v 0.02422446 0.00529351 0.05576460
v 0.02436910 0.00544153 0.05534247
v 0.02405184 0.00574303 0.05534226
v 0.02457905 0.00522047 0.05534201
v 0.01354495 0.00373485 0.05534201
v 0.02499584 0.00373485 0.05534201
v 0.02569723 0.00379341 0.05534255
v 0.02549506 0.00402541 0.05541341
v 0.02509693 0.00426674 0.05576456
v 0.02470502 0.00475841 0.05576460
v 0.01194154 0.00624113 0.05534247
v 0.01150765 0.00584214 0.05534247
v 0.01129769 0.00562558 0.05534201
v 0.01110796 0.00541482 0.05534247
v 0.01089801 0.00516577 0.05534201
v 0.01039879 0.00457178 0.05534201
v 0.02442664 0.00507374 0.05576460
v 0.02476723 0.00500907 0.05534247
v 0.02499584 0.00474200 0.05534201
v 0.02533798 0.00430664 0.05534201
v 0.02512025 0.00451161 0.05544307
f 1 2 3
f 1 3 4
f 1 4 5
f 1 5 2
f 2 6 7
f 2 7 3
f 2 5 8
f 2 8 15
f 2 15 37
f 2 37 44
f 2 44 28
f 2 28 11
f 2 11 6
f 3 7 9
f 3 9 4
f 4 9 10
f 4 10 5
f 5 10 8
f 6 11 12
f 6 12 13
f 6 13 7
f 7 13 31
f 7 31 46
f 7 46 47
f 7 47 33
f 7 33 32
f 7 32 24
f 7 24 43
f 7 43 42
f 7 42 40
f 7 40 26
f 7 26 9
f 8 14 15
f 8 10 16
f 8 16 17
f 8 17 18
f 8 18 19
f 8 19 20
f 8 20 21
f 8 21 22
f 8 22 23
f 8 23 24
f 8 24 25
f 8 25 14
f 9 26 27
f 9 27 16
f 9 16 10
f 11 28 29
f 11 29 30
f 11 30 12
f 12 30 13
f 13 30 31
f 14 32 33
f 14 33 15
f 14 25 32
f 15 33 34
f 15 34 35
f 15 35 36
f 15 36 37
f 16 27 38
f 16 38 17
f 17 38 26
f 17 26 18
f 18 26 39
f 18 39 19
f 19 39 40
f 19 40 20
f 20 41 21
f 20 40 41
f 21 41 42
f 21 42 43
f 21 43 22
f 22 24 23
f 22 43 24
f 24 32 25
f 26 38 27
f 26 40 39
f 28 44 31
f 28 31 29
f 29 31 30
f 31 44 45
f 31 45 46
f 33 47 34
f 34 47 35
f 35 47 36
f 36 48 37
f 36 47 48
f 37 46 45
f 37 45 44
f 37 48 46
f 40 42 41
f 46 48 47

