# https://github.com/mikedh/trimesh
v 0.01648593 0.00773204 0.05844593
v 0.01606504 0.00772219 0.05844593
v 0.01830053 0.00747110 0.05859722
v 0.01690535 0.00772090 0.05844593
v 0.01813887 0.00759621 0.05829464
v 0.01564271 0.00770462 0.05844593
v 0.01910006 0.00720801 0.05859722
v 0.01867772 0.00744368 0.05835189
v 0.01774712 0.00762749 0.05844593
v 0.01732624 0.00768491 0.05844593
v 0.01322372 0.00708675 0.05859722
v 0.01934909 0.00723543 0.05829464
v 0.01318586 0.00706318 0.05829464
v 0.01522182 0.00766820 0.05844593
v 0.02115787 0.00619979 0.05859722
v 0.01966221 0.00698048 0.05858845
v 0.01480094 0.00760050 0.05844593
v 0.01436695 0.00750366 0.05844593
v 0.01401452 0.00740640 0.05844463
v 0.01353247 0.00722900 0.05844593
v 0.01224069 0.00659571 0.05844593
v 0.01172078 0.00629105 0.05852154
v 0.01124164 0.00594398 0.05859722
v 0.01987775 0.00701776 0.05829464
v 0.01148194 0.00609781 0.05829464
v 0.02109379 0.00638361 0.05829766
v 0.02065980 0.00657385 0.05844593
v 0.02166759 0.00583986 0.05859722
v 0.02146370 0.00614237 0.05829464
v 0.02023309 0.00679152 0.05844593
v 0.01101300 0.00570746 0.05829464
v 0.01078435 0.00554849 0.05859722
v 0.02212197 0.00547779 0.05859722
v 0.02197925 0.00576145 0.05829464
v 0.01068532 0.00540324 0.05829464
v 0.01036929 0.00510501 0.05844593
v 0.00997608 0.00464311 0.05844593
v 0.00965132 0.00421377 0.05844412
v 0.00942267 0.00388469 0.05844593
v 0.00912558 0.00340265 0.05844779
v 0.02364239 0.00385727 0.05859722
v 0.02242634 0.00537324 0.05832198
v 0.02255159 0.00509687 0.05859722
v 0.02275402 0.00508959 0.05829464
v 0.02382443 0.00384099 0.05829464
v 0.02400356 0.00335466 0.05845573
v 0.02340064 0.00429132 0.05845952
v 0.02308170 0.00468510 0.05841563
f 1 2 3
f 1 3 4
f 1 4 5
f 1 5 2
f 2 6 3
f 2 5 6
f 3 7 8
f 3 8 5
f 3 5 9
f 3 9 10
f 3 10 4
f 3 6 11
f 3 11 23
f 3 23 32
f 3 32 41
f 3 41 43
f 3 43 33
f 3 33 28
f 3 28 15
f 3 15 7
f 4 10 5
f 5 8 12
f 5 12 24
f 5 24 29
f 5 29 34
f 5 34 44
f 5 44 45
f 5 45 35
f 5 35 31
f 5 31 25
f 5 25 13
f 5 13 14
f 5 14 6
f 5 10 9
f 6 14 11
f 7 12 8
f 7 15 16
f 7 16 12
f 11 14 17
f 11 17 18
f 11 18 19
f 11 19 20
f 11 20 13
f 11 13 21
f 11 21 22
f 11 22 23
f 12 16 24
f 13 25 21
f 13 20 19
f 13 19 18
f 13 18 17
f 13 17 14
f 15 26 27
f 15 27 16
f 15 28 29
f 15 29 26
f 16 27 30
f 16 30 24
f 21 25 22
f 22 25 23
f 23 25 31
f 23 31 32
f 24 30 27
f 24 27 26
f 24 26 29
f 28 33 34
f 28 34 29
f 31 35 32
f 32 35 36
f 32 36 37
f 32 37 38
f 32 38 39
f 32 39 40
f 32 40 41
f 33 42 34
f 33 43 42
f 34 42 44
f 35 40 39
f 35 39 38
f 35 38 37
f 35 37 36
f 35 45 40
f 40 46 41
f 40 45 46
f 41 46 45
f 41 45 47
f 41 47 43
f 42 43 44
f 43 47 48
f 43 48 44
f 44 48 45
f 45 48 47

