# https://github.com/mikedh/trimesh
v 0.02630990 -0.00988584 0.05427421
v 0.02612775 -0.00988584 0.05446175
v 0.02615837 -0.01090342 0.05427421
v 0.00984188 -0.00988584 0.05427421
v 0.02602619 -0.00988584 0.05455254
v 0.02599879 -0.00988584 0.05457581
v 0.02613419 -0.01100825 0.05427421
v 0.00984349 -0.01090342 0.05427421
v 0.00986929 -0.01090342 0.05431056
v 0.00986929 -0.00988584 0.05431121
v 0.02567478 -0.01043715 0.05457581
v 0.02606165 -0.01123532 0.05427421
v 0.01063659 -0.00988584 0.05457581
v 0.00987090 -0.01118617 0.05427421
v 0.00988863 -0.01116431 0.05430347
v 0.00998051 -0.00988584 0.05435101
v 0.02529435 -0.01089895 0.05457581
v 0.02585049 -0.01129021 0.05427421
v 0.02485589 -0.01131718 0.05457581
v 0.02459153 -0.01151569 0.05457581
v 0.01067528 -0.00994073 0.05457581
v 0.01013526 -0.01131319 0.05427421
v 0.01189877 -0.01129899 0.05457581
v 0.01146837 -0.01089193 0.05457581
v 0.01100412 -0.01037556 0.05457581
v 0.01223245 -0.01151569 0.05457581
v 0.02494455 -0.01151569 0.05427421
v 0.01204546 -0.01151569 0.05427421
f 1 2 3
f 1 3 7
f 1 7 12
f 1 12 18
f 1 18 27
f 1 27 28
f 1 28 22
f 1 22 14
f 1 14 8
f 1 8 4
f 1 4 10
f 1 10 16
f 1 16 13
f 1 13 6
f 1 6 5
f 1 5 2
f 2 5 3
f 3 5 6
f 3 6 7
f 4 8 9
f 4 9 10
f 6 11 12
f 6 12 7
f 6 13 21
f 6 21 25
f 6 25 24
f 6 24 23
f 6 23 26
f 6 26 20
f 6 20 19
f 6 19 17
f 6 17 11
f 8 14 15
f 8 15 9
f 9 16 10
f 9 15 13
f 9 13 16
f 11 17 12
f 12 17 19
f 12 19 20
f 12 20 18
f 13 15 21
f 14 22 15
f 15 23 24
f 15 24 25
f 15 25 21
f 15 22 26
f 15 26 23
f 18 20 27
f 20 26 28
f 20 28 27
f 22 28 26

