# https://github.com/mikedh/trimesh
v 0.02626431 -0.00361818 0.05875294
v 0.02616060 -0.00361818 0.05900916
v 0.02626795 -0.00375092 0.05875294
v 0.00776762 -0.00361818 0.05875294
v 0.02610420 -0.00361818 0.05914351
v 0.02610783 -0.00373977 0.05914481
v 0.02611511 -0.00416723 0.05914251
v 0.02626613 -0.00419126 0.05875294
v 0.00801871 -0.00499497 0.05875294
v 0.00774761 -0.00361818 0.05884589
v 0.00768392 -0.00361818 0.05914481
v 0.02605871 -0.00501518 0.05914481
v 0.02609692 -0.00458249 0.05914025
v 0.02624611 -0.00458249 0.05875294
v 0.00803872 -0.00541999 0.05914251
v 0.00811150 -0.00542452 0.05875294
v 0.00827343 -0.00623380 0.05914481
v 0.02601686 -0.00543323 0.05914481
v 0.02621154 -0.00502319 0.05875294
v 0.00816244 -0.00587218 0.05913058
v 0.00821521 -0.00578091 0.05875294
v 0.00845356 -0.00668878 0.05914481
v 0.00836077 -0.00626724 0.05875294
v 0.00828799 -0.00627038 0.05913058
v 0.02600413 -0.00553321 0.05914481
v 0.02616242 -0.00547016 0.05875294
v 0.02616788 -0.00542556 0.05875294
v 0.00869373 -0.00717720 0.05914481
v 0.00850268 -0.00664802 0.05875294
v 0.00851906 -0.00668878 0.05875294
v 0.00862459 -0.00691592 0.05875294
v 0.00861003 -0.00700580 0.05914025
v 0.02596228 -0.00584605 0.05914481
v 0.02610602 -0.00584605 0.05875294
v 0.02598957 -0.00584605 0.05907074
v 0.00864824 -0.00696400 0.05875294
v 0.00875741 -0.00717720 0.05875294
v 0.02566025 -0.00717720 0.05914098
v 0.02567844 -0.00710962 0.05914481
v 0.02587494 -0.00629929 0.05914481
v 0.02596046 -0.00616482 0.05899466
v 0.02609874 -0.00588995 0.05875294
v 0.02582218 -0.00709394 0.05875294
v 0.02579671 -0.00717058 0.05876625
v 0.02578761 -0.00669331 0.05914025
v 0.02602050 -0.00628571 0.05875294
v 0.02592589 -0.00668878 0.05875294
v 0.02600958 -0.00633343 0.05875294
f 1 2 3
f 1 3 8
f 1 8 14
f 1 14 19
f 1 19 27
f 1 27 26
f 1 26 34
f 1 34 42
f 1 42 46
f 1 46 48
f 1 48 47
f 1 47 43
f 1 43 37
f 1 37 36
f 1 36 31
f 1 31 30
f 1 30 29
f 1 29 23
f 1 23 21
f 1 21 16
f 1 16 9
f 1 9 4
f 1 4 10
f 1 10 11
f 1 11 5
f 1 5 2
f 2 5 6
f 2 6 3
f 3 6 7
f 3 7 8
f 4 9 10
f 5 11 6
f 6 12 7
f 6 11 17
f 6 17 22
f 6 22 28
f 6 28 39
f 6 39 40
f 6 40 33
f 6 33 25
f 6 25 18
f 6 18 12
f 7 12 13
f 7 13 8
f 8 13 14
f 9 15 11
f 9 11 10
f 9 16 15
f 11 15 17
f 12 18 19
f 12 19 13
f 13 19 14
f 15 20 17
f 15 16 20
f 16 21 20
f 17 20 23
f 17 23 24
f 17 24 22
f 18 25 26
f 18 26 27
f 18 27 19
f 20 21 23
f 22 24 29
f 22 29 30
f 22 30 31
f 22 31 32
f 22 32 28
f 23 29 24
f 25 33 26
f 26 33 35
f 26 35 34
f 28 32 36
f 28 36 37
f 28 37 38
f 28 38 39
f 31 36 32
f 33 40 41
f 33 41 35
f 34 35 42
f 35 41 42
f 37 43 44
f 37 44 38
f 38 44 39
f 39 44 43
f 39 43 45
f 39 45 40
f 40 45 41
f 41 46 42
f 41 45 46
f 43 47 45
f 45 47 48
f 45 48 46

