# https://github.com/mikedh/trimesh
v 0.02399373 0.00334982 0.05859722
v 0.02521156 0.00136407 0.05859722
v 0.02475964 0.00225599 0.05859130
v 0.02476327 0.00249933 0.05829464
v 0.02419882 0.00328505 0.05831442
v 0.02388846 0.00334982 0.05829464
v 0.00906937 0.00331743 0.05848867
v 0.00888606 0.00301267 0.05859722
v 0.02514078 0.00183313 0.05829464
v 0.02506455 0.00168408 0.05858872
v 0.02542935 0.00084359 0.05859722
v 0.02552918 0.00093740 0.05832307
v 0.02538761 0.00130550 0.05829464
v 0.02497199 0.00215265 0.05829464
v 0.00896047 0.00303838 0.05829464
v 0.00867189 0.00257552 0.05859722
v 0.02568708 0.00014358 0.05859722
v 0.02553825 0.00058644 0.05857743
v 0.02571612 0.00047501 0.05829464
v 0.00869186 0.00248123 0.05829464
v 0.00847225 0.00210551 0.05859722
v 0.02583590 -0.00033691 0.05859722
v 0.02585950 0.00006119 0.05829464
v 0.00856844 0.00218837 0.05829464
v 0.00839783 0.00174027 0.05829464
v 0.00833068 0.00172884 0.05859722
v 0.02593573 -0.00071453 0.05859722
v 0.02595751 -0.00032072 0.05832849
v 0.02609363 -0.00078930 0.05829464
v 0.00825082 0.00128788 0.05829464
v 0.00822360 0.00140407 0.05858848
v 0.00807659 0.00083835 0.05859722
v 0.02605733 -0.00123025 0.05859722
v 0.02619163 -0.00121311 0.05829464
v 0.00815100 0.00089835 0.05829464
v 0.00805299 0.00047691 0.05829464
v 0.00795680 0.00005357 0.05829464
v 0.00790598 0.00002643 0.05859722
v 0.02611541 -0.00151502 0.05859713
v 0.02500466 -0.00151502 0.05859722
v 0.02625153 -0.00151502 0.05829464
v 0.00786787 -0.00041786 0.05829464
v 0.00782431 -0.00039215 0.05856544
v 0.00775534 -0.00078882 0.05859722
v 0.00771178 -0.00139407 0.05859722
v 0.00777349 -0.00151502 0.05829464
v 0.00778075 -0.00123073 0.05829464
v 0.00780616 -0.00083644 0.05831970
f 1 2 3
f 1 3 4
f 1 4 5
f 1 5 6
f 1 6 7
f 1 7 8
f 1 8 16
f 1 16 21
f 1 21 26
f 1 26 32
f 1 32 38
f 1 38 44
f 1 44 45
f 1 45 40
f 1 40 33
f 1 33 27
f 1 27 22
f 1 22 17
f 1 17 11
f 1 11 2
f 2 9 10
f 2 10 3
f 2 11 12
f 2 12 13
f 2 13 9
f 3 14 4
f 3 10 14
f 4 14 9
f 4 9 13
f 4 13 19
f 4 19 23
f 4 23 29
f 4 29 34
f 4 34 41
f 4 41 46
f 4 46 47
f 4 47 42
f 4 42 37
f 4 37 36
f 4 36 35
f 4 35 30
f 4 30 25
f 4 25 24
f 4 24 20
f 4 20 15
f 4 15 6
f 4 6 5
f 6 15 7
f 7 15 8
f 8 15 16
f 9 14 10
f 11 17 18
f 11 18 12
f 12 18 19
f 12 19 13
f 15 20 16
f 16 20 21
f 17 22 23
f 17 23 19
f 17 19 18
f 20 24 21
f 21 24 25
f 21 25 26
f 22 27 28
f 22 28 23
f 23 28 29
f 25 30 31
f 25 31 26
f 26 31 32
f 27 33 29
f 27 29 28
f 29 33 34
f 30 35 32
f 30 32 31
f 32 35 36
f 32 36 37
f 32 37 38
f 33 39 34
f 33 40 39
f 34 39 41
f 37 42 43
f 37 43 38
f 38 43 44
f 39 40 46
f 39 46 41
f 40 45 46
f 42 47 48
f 42 48 44
f 42 44 43
f 44 48 47
f 44 47 45
f 45 47 46

