# https://github.com/mikedh/trimesh
v 0.00778586 -0.00279929 0.05819481
v 0.00809888 -0.00488122 0.05816009
v 0.01145615 -0.01103861 0.05822706
v 0.00831489 0.00140458 0.05819536
v 0.00794878 -0.00017424 0.05815693
v 0.00780782 -0.00149203 0.05813024
v 0.00849978 -0.00624532 0.05808191
v 0.00979399 -0.00895878 0.05812660
v 0.01065436 -0.01016290 0.05818810
v 0.01234031 -0.01178171 0.05816043
v 0.01326658 -0.01241955 0.05816003
v 0.01414159 -0.01288478 0.05815993
v 0.01543031 -0.01337105 0.05816015
v 0.01711260 -0.01369524 0.05816037
v 0.01836654 -0.01372260 0.05816037
v 0.01963147 -0.01352473 0.05816037
v 0.02090005 -0.01312265 0.05816027
v 0.02202768 -0.01253954 0.05816023
v 0.02304731 -0.01179434 0.05816110
v 0.02648695 -0.00406234 0.05819264
v 0.01168863 0.00623366 0.05819343
v 0.00986904 0.00443170 0.05816015
v 0.00930340 0.00358756 0.05814347
v 0.00871762 0.00245923 0.05812982
v 0.00910753 -0.00766415 0.05802613
v 0.02493646 -0.00958610 0.05814200
v 0.02406144 -0.01077969 0.05816074
v 0.02546000 -0.00861144 0.05816328
v 0.02619589 -0.00646846 0.05816088
v 0.02640823 -0.00530645 0.05815069
v 0.02645766 -0.00273193 0.05817140
v 0.02598171 -0.00015740 0.05817575
v 0.02282398 0.00508428 0.05816863
v 0.01902921 0.00738514 0.05816886
v 0.01364551 0.00726726 0.05817716
v 0.01266981 0.00680414 0.05811004
v 0.01078433 0.00546319 0.05816015
v 0.02432871 0.00334126 0.05802613
v 0.02584991 -0.00765994 0.05815067
v 0.02623250 -0.00115100 0.05816615
v 0.02563573 0.00085515 0.05816037
v 0.02368984 0.00413488 0.05816037
v 0.02135037 0.00626523 0.05816007
v 0.02001040 0.00701043 0.05816568
v 0.01747872 0.00772406 0.05816037
v 0.01623393 0.00778300 0.05816037
v 0.01504772 0.00766933 0.05816027
v 0.02501883 0.00218346 0.05814359
f 1 2 3
f 1 3 4
f 1 4 5
f 1 5 6
f 1 6 2
f 2 6 7
f 2 7 8
f 2 8 9
f 2 9 3
f 3 10 11
f 3 11 12
f 3 12 13
f 3 13 14
f 3 14 15
f 3 15 16
f 3 16 17
f 3 17 18
f 3 18 19
f 3 19 20
f 3 20 21
f 3 21 4
f 3 9 10
f 4 21 22
f 4 22 23
f 4 23 24
f 4 24 5
f 5 24 6
f 6 24 25
f 6 25 7
f 7 25 8
f 8 25 10
f 8 10 9
f 10 25 11
f 11 25 12
f 12 25 13
f 13 25 14
f 14 25 15
f 15 25 16
f 16 25 17
f 17 25 26
f 17 26 18
f 18 26 19
f 19 26 27
f 19 27 20
f 20 27 28
f 20 28 29
f 20 29 30
f 20 30 31
f 20 31 32
f 20 32 33
f 20 33 21
f 21 33 34
f 21 34 35
f 21 35 36
f 21 36 37
f 21 37 22
f 22 37 23
f 23 37 36
f 23 36 24
f 24 36 25
f 25 36 38
f 25 38 26
f 26 39 28
f 26 28 27
f 26 38 39
f 28 39 29
f 29 39 30
f 30 39 38
f 30 38 31
f 31 38 40
f 31 40 32
f 32 40 41
f 32 41 42
f 32 42 33
f 33 42 38
f 33 38 43
f 33 43 44
f 33 44 34
f 34 44 38
f 34 38 45
f 34 45 46
f 34 46 35
f 35 46 47
f 35 47 36
f 36 47 46
f 36 46 45
f 36 45 38
f 38 44 43
f 38 42 48
f 38 48 41
f 38 41 40
f 41 48 42

