# https://github.com/mikedh/trimesh
v 0.00872602 -0.00717755 0.05893313
v 0.00944295 -0.00856210 0.05875493
v 0.00926372 -0.00837511 0.05914025
v 0.02548431 -0.00786471 0.05906629
v 0.02568014 -0.00735686 0.05894636
v 0.02546274 -0.00815673 0.05876905
v 0.01022627 -0.00975069 0.05875294
v 0.00983793 -0.00926783 0.05897847
v 0.00949938 -0.00880034 0.05914366
v 0.02147480 -0.01278365 0.05875294
v 0.02525861 -0.00837575 0.05914481
v 0.02508270 -0.00876639 0.05914251
v 0.02505946 -0.00902768 0.05877803
v 0.01050009 -0.01008883 0.05875294
v 0.01038226 -0.01001902 0.05914136
v 0.01005865 -0.00960724 0.05914481
v 0.02271781 -0.01190950 0.05894775
v 0.02208718 -0.01237955 0.05896163
v 0.02126072 -0.01284257 0.05914366
v 0.02109974 -0.01297001 0.05875294
v 0.02355258 -0.01113141 0.05894775
v 0.02317088 -0.01151117 0.05894775
v 0.02484870 -0.00922748 0.05914481
v 0.02466449 -0.00965015 0.05894775
v 0.02434087 -0.01014134 0.05897322
v 0.02396083 -0.01065366 0.05893819
v 0.01141783 -0.01109490 0.05894775
v 0.01109256 -0.01077854 0.05894660
v 0.01079052 -0.01045770 0.05894717
v 0.01729767 -0.01370583 0.05875294
v 0.01390884 -0.01280798 0.05894660
v 0.01350889 -0.01260498 0.05894886
v 0.01309068 -0.01237123 0.05894717
v 0.01243349 -0.01193127 0.05894663
v 0.01186923 -0.01149451 0.05894717
v 0.01712342 -0.01368790 0.05914481
v 0.02235603 -0.01215605 0.05914481
v 0.01940366 -0.01353484 0.05894660
v 0.01982685 -0.01342661 0.05894886
v 0.02043093 -0.01322745 0.05895780
v 0.01873984 -0.01365332 0.05893060
v 0.01772086 -0.01371928 0.05894775
v 0.01664712 -0.01364179 0.05893378
v 0.01603972 -0.01354253 0.05894886
v 0.01561487 -0.01344583 0.05894886
v 0.01500747 -0.01326203 0.05894775
v 0.01435029 -0.01300715 0.05894660
v 0.01814073 -0.01371287 0.05894886
f 1 2 3
f 1 3 4
f 1 4 5
f 1 5 6
f 1 6 2
f 2 7 8
f 2 8 9
f 2 9 3
f 2 6 10
f 2 10 7
f 3 9 11
f 3 11 4
f 4 11 6
f 4 6 5
f 6 11 12
f 6 12 13
f 6 13 10
f 7 14 15
f 7 15 16
f 7 16 8
f 7 10 20
f 7 20 30
f 7 30 14
f 8 16 9
f 9 16 11
f 10 17 18
f 10 18 19
f 10 19 20
f 10 13 21
f 10 21 22
f 10 22 17
f 11 23 12
f 11 16 36
f 11 36 37
f 11 37 23
f 12 23 13
f 13 23 24
f 13 24 25
f 13 25 26
f 13 26 21
f 14 27 28
f 14 28 29
f 14 29 15
f 14 30 31
f 14 31 32
f 14 32 33
f 14 33 34
f 14 34 35
f 14 35 27
f 15 29 28
f 15 28 27
f 15 27 35
f 15 35 34
f 15 34 33
f 15 33 32
f 15 32 36
f 15 36 16
f 17 22 37
f 17 37 18
f 18 37 19
f 19 38 39
f 19 39 40
f 19 40 20
f 19 37 36
f 19 36 38
f 20 40 39
f 20 39 38
f 20 38 41
f 20 41 30
f 21 26 25
f 21 25 23
f 21 23 37
f 21 37 22
f 23 25 24
f 30 42 36
f 30 36 43
f 30 43 44
f 30 44 45
f 30 45 46
f 30 46 47
f 30 47 31
f 30 41 48
f 30 48 42
f 31 47 36
f 31 36 32
f 36 47 46
f 36 46 45
f 36 45 44
f 36 44 43
f 36 42 48
f 36 48 41
f 36 41 38

