# https://github.com/mikedh/trimesh
v 0.02767003 0.00400643 0.05376049
v 0.02633546 0.00400643 0.05427418
v 0.02646485 0.00386737 0.05427418
v 0.02653574 0.00374226 0.05427418
v 0.02681045 0.00310512 0.05427418
v 0.02768066 0.00322353 0.05376049
v 0.00962064 0.00400643 0.05376049
v 0.00976420 0.00400643 0.05427418
v 0.02768066 0.00310512 0.05376049
v 0.00960291 0.00310512 0.05427418
v 0.00961177 0.00384637 0.05376049
v 0.00957456 0.00310512 0.05410126
v 0.00965431 0.00400643 0.05407853
v 0.00972875 0.00383172 0.05427418
v 0.00959405 0.00310512 0.05376049
v 0.00959405 0.00310697 0.05376049
v 0.00958873 0.00310512 0.05384200
f 1 2 3
f 1 3 4
f 1 4 5
f 1 5 6
f 1 6 9
f 1 9 15
f 1 15 16
f 1 16 11
f 1 11 7
f 1 7 13
f 1 13 8
f 1 8 2
f 2 8 14
f 2 14 10
f 2 10 5
f 2 5 4
f 2 4 3
f 5 9 6
f 5 10 12
f 5 12 17
f 5 17 15
f 5 15 9
f 7 11 12
f 7 12 13
f 8 13 14
f 10 14 13
f 10 13 12
f 11 16 17
f 11 17 12
f 15 17 16

