# https://github.com/mikedh/trimesh
v 0.01139992 -0.01490671 0.03766957
v 0.01104373 -0.01527916 0.03792183
v 0.01092958 -0.01448548 0.03791302
v 0.01116317 -0.01090829 0.03779028
v 0.02043774 -0.01090829 0.03771501
v 0.02047579 -0.01566688 0.03787301
v 0.01224229 -0.01572058 0.03779096
v 0.01162293 -0.01570777 0.03786080
v 0.01130796 -0.01566393 0.03848671
v 0.01108601 -0.01545307 0.03848671
v 0.01089048 -0.01511707 0.03848671
v 0.01077210 -0.01449287 0.03861013
v 0.01076999 -0.01090829 0.03852129
v 0.02084360 -0.01090829 0.03826429
v 0.02081929 -0.01511707 0.03827581
v 0.02043034 -0.01587971 0.03859182
v 0.01255831 -0.01594129 0.03827581
v 0.02080661 -0.01553879 0.03848671
v 0.01161025 -0.01581123 0.03869693
v 0.01125618 -0.01529739 0.04333121
v 0.01082283 -0.01495105 0.04457013
v 0.01073299 -0.01493578 0.04375300
v 0.01072771 -0.01494317 0.04312099
v 0.01074251 -0.01494366 0.04038274
v 0.01075836 -0.01492247 0.03948151
v 0.01050047 -0.01427463 0.04206719
v 0.01061039 -0.01427463 0.04059363
v 0.01067486 -0.01427463 0.03975073
v 0.01070763 -0.01090829 0.03932487
v 0.02109832 -0.01090829 0.04459658
v 0.02107084 -0.01444410 0.04459658
v 0.02056246 -0.01579251 0.03953983
v 0.02048424 -0.01575852 0.04029729
v 0.02024855 -0.01585459 0.03932894
v 0.01266295 -0.01585459 0.03932894
v 0.01224229 -0.01581665 0.03975073
v 0.02093661 -0.01510821 0.04459658
v 0.01162822 -0.01574866 0.03964833
v 0.01131748 -0.01527571 0.04396322
v 0.01030071 -0.01090829 0.04459658
v 0.01034087 -0.01412683 0.04434093
v 0.01158805 -0.01534074 0.04424057
v 0.01245262 -0.01538754 0.04454369
v 0.02038489 -0.01537424 0.04459658
v 0.02024855 -0.01543977 0.04396322
v 0.01266295 -0.01543977 0.04396322
v 0.01211123 -0.01574718 0.04047360
v 0.01182058 -0.01543188 0.04375300
f 1 2 3
f 1 3 4
f 1 4 5
f 1 5 6
f 1 6 7
f 1 7 8
f 1 8 2
f 2 9 10
f 2 10 11
f 2 11 3
f 2 8 9
f 3 11 12
f 3 12 13
f 3 13 4
f 4 13 29
f 4 29 40
f 4 40 30
f 4 30 14
f 4 14 5
f 5 14 15
f 5 15 6
f 6 16 17
f 6 17 7
f 6 15 18
f 6 18 16
f 7 17 8
f 8 17 19
f 8 19 9
f 9 19 20
f 9 20 21
f 9 21 22
f 9 22 10
f 10 22 23
f 10 23 24
f 10 24 11
f 11 24 25
f 11 25 12
f 12 25 26
f 12 26 27
f 12 27 28
f 12 28 13
f 13 28 29
f 14 30 15
f 15 30 31
f 15 31 18
f 16 18 32
f 16 32 33
f 16 33 34
f 16 34 17
f 17 34 35
f 17 35 36
f 17 36 19
f 18 31 37
f 18 37 32
f 19 36 38
f 19 38 20
f 20 38 39
f 20 39 21
f 21 40 41
f 21 41 22
f 21 39 42
f 21 42 43
f 21 43 44
f 21 44 40
f 22 41 23
f 23 41 24
f 24 41 25
f 25 41 26
f 26 41 40
f 26 40 27
f 27 40 28
f 28 40 29
f 30 40 44
f 30 44 37
f 30 37 31
f 32 37 33
f 33 37 44
f 33 44 45
f 33 45 34
f 34 45 46
f 34 46 35
f 35 46 36
f 36 47 38
f 36 46 43
f 36 43 47
f 38 47 48
f 38 48 42
f 38 42 39
f 42 48 43
f 43 48 47
f 43 46 45
f 43 45 44

