# https://github.com/mikedh/trimesh
v 0.02769628 0.00271778 0.05376049
v 0.02818219 0.00047627 0.05376049
v 0.02869797 0.00265195 0.05338947
v 0.00954436 0.00271778 0.05358518
v 0.00888718 0.00089636 0.05376049
v 0.02827778 -0.00001592 0.05376049
v 0.02833553 -0.00040570 0.05376049
v 0.02844107 -0.00114451 0.05376049
v 0.02848688 -0.00157296 0.05376049
v 0.02851476 -0.00197319 0.05376049
v 0.02853069 -0.00237969 0.05376049
v 0.02881148 -0.00120616 0.05338922
v 0.00892502 0.00089636 0.05338922
v 0.00906044 0.00138542 0.05356195
v 0.00874778 0.00031848 0.05376049
v 0.02853467 -0.00279142 0.05376049
v 0.02881745 -0.00162939 0.05338922
v 0.00875973 0.00020667 0.05338922
v 0.00862232 -0.00032106 0.05358510
v 0.00855461 -0.00079026 0.05354902
v 0.00848093 -0.00289592 0.05376049
v 0.02852471 -0.00331705 0.05376049
v 0.02881148 -0.00416036 0.05338922
v 0.02881745 -0.00373818 0.05338922
v 0.02882144 -0.00331705 0.05338922
v 0.02882542 -0.00289278 0.05338922
v 0.02882144 -0.00204947 0.05338922
v 0.00851877 -0.00197841 0.05338922
v 0.00853669 -0.00132634 0.05346914
v 0.00849487 -0.00247687 0.05354902
v 0.00853072 -0.00316239 0.05338922
v 0.00854665 -0.00366190 0.05338922
v 0.00851678 -0.00368698 0.05376049
v 0.02872784 -0.00795786 0.05339035
v 0.02850082 -0.00373818 0.05376049
v 0.00901264 -0.00612285 0.05338922
v 0.00860440 -0.00425232 0.05338922
v 0.00855063 -0.00410811 0.05376049
v 0.02846298 -0.00416036 0.05376049
v 0.02830964 -0.00541957 0.05376049
v 0.02819015 -0.00600790 0.05376049
v 0.02771221 -0.00795786 0.05376049
v 0.00960211 -0.00795577 0.05354796
v 0.00902061 -0.00623571 0.05376049
v 0.00889316 -0.00584593 0.05376049
v 0.00886329 -0.00559618 0.05338922
v 0.00867410 -0.00478840 0.05358365
v 0.00878761 -0.00542480 0.05376049
f 1 2 3
f 1 3 4
f 1 4 5
f 1 5 15
f 1 15 21
f 1 21 33
f 1 33 38
f 1 38 48
f 1 48 45
f 1 45 44
f 1 44 42
f 1 42 41
f 1 41 40
f 1 40 39
f 1 39 35
f 1 35 22
f 1 22 16
f 1 16 11
f 1 11 10
f 1 10 9
f 1 9 8
f 1 8 7
f 1 7 6
f 1 6 2
f 2 6 3
f 3 6 7
f 3 7 8
f 3 8 9
f 3 9 10
f 3 10 11
f 3 11 12
f 3 12 13
f 3 13 4
f 4 13 14
f 4 14 5
f 5 14 13
f 5 13 15
f 11 16 17
f 11 17 12
f 12 17 27
f 12 27 26
f 12 26 25
f 12 25 24
f 12 24 23
f 12 23 36
f 12 36 46
f 12 46 37
f 12 37 32
f 12 32 31
f 12 31 28
f 12 28 18
f 12 18 13
f 13 18 15
f 15 18 19
f 15 19 20
f 15 20 21
f 16 22 23
f 16 23 24
f 16 24 25
f 16 25 26
f 16 26 27
f 16 27 17
f 18 28 29
f 18 29 20
f 18 20 19
f 20 29 30
f 20 30 21
f 21 30 31
f 21 31 32
f 21 32 33
f 22 34 23
f 22 35 34
f 23 34 36
f 28 31 30
f 28 30 29
f 32 37 38
f 32 38 33
f 34 35 39
f 34 39 40
f 34 40 41
f 34 41 42
f 34 42 43
f 34 43 36
f 36 43 44
f 36 44 45
f 36 45 46
f 37 47 38
f 37 46 47
f 38 47 48
f 42 44 43
f 45 48 46
f 46 48 47

