# https://github.com/mikedh/trimesh
v 0.00832885 -0.00305673 0.05501644
v 0.00834550 -0.00163411 0.05501644
v 0.00837844 -0.00289499 0.05457581
v 0.00840052 -0.00350717 0.05457581
v 0.00836577 -0.00371239 0.05496891
v 0.00845844 -0.00429848 0.05501644
v 0.00835274 -0.00121324 0.05501644
v 0.00840740 -0.00121324 0.05457581
v 0.00846495 -0.00412108 0.05457581
v 0.00854350 -0.00454370 0.05457581
v 0.00860250 -0.00502892 0.05501644
v 0.00910889 0.00200939 0.05501644
v 0.00864304 0.00052416 0.05499267
v 0.00849355 -0.00013497 0.05499267
v 0.00841790 -0.00074889 0.05478426
v 0.00851382 -0.00033150 0.05457581
v 0.00891994 -0.00626544 0.05477240
v 0.00879181 -0.00584457 0.05477240
v 0.00870204 -0.00542544 0.05476477
v 0.00985128 -0.00871937 0.05457581
v 0.00907269 -0.00674371 0.05501644
v 0.00881533 0.00093286 0.05457581
v 0.00942344 0.00280939 0.05501644
v 0.00983789 0.00378679 0.05457581
v 0.00938543 0.00257983 0.05457581
v 0.00923666 0.00215374 0.05457581
v 0.00866222 0.00040242 0.05457952
v 0.01038518 -0.00959764 0.05457581
v 0.00993308 -0.00863415 0.05501644
v 0.00952298 -0.00788111 0.05501644
v 0.00935430 -0.00748284 0.05501644
v 0.00972749 0.00342331 0.05501644
v 0.00994973 0.00380244 0.05501644
v 0.01013832 0.00428766 0.05457581
v 0.01100305 -0.01037503 0.05457581
v 0.01075329 -0.00982546 0.05501644
v 0.01030989 -0.00924459 0.05501644
v 0.01041015 0.00451375 0.05501644
v 0.01062154 0.00504419 0.05457581
v 0.01146673 -0.01088982 0.05457581
v 0.01173712 -0.01096286 0.05501644
v 0.01120828 0.00548245 0.05501644
v 0.01102042 0.00548941 0.05457581
v 0.01202633 -0.01134200 0.05474665
v 0.01196877 0.00642507 0.05457581
v 0.01202090 0.00629115 0.05501644
v 0.01161767 0.00592419 0.05501644
v 0.01142221 0.00592767 0.05457581
f 1 2 3
f 1 3 4
f 1 4 5
f 1 5 6
f 1 6 11
f 1 11 21
f 1 21 31
f 1 31 30
f 1 30 29
f 1 29 37
f 1 37 36
f 1 36 41
f 1 41 46
f 1 46 47
f 1 47 42
f 1 42 38
f 1 38 33
f 1 33 32
f 1 32 23
f 1 23 12
f 1 12 7
f 1 7 2
f 2 7 3
f 3 7 8
f 3 8 16
f 3 16 22
f 3 22 26
f 3 26 25
f 3 25 24
f 3 24 34
f 3 34 39
f 3 39 43
f 3 43 48
f 3 48 45
f 3 45 40
f 3 40 35
f 3 35 28
f 3 28 20
f 3 20 10
f 3 10 9
f 3 9 4
f 4 9 5
f 5 9 6
f 6 10 11
f 6 9 10
f 7 12 13
f 7 13 14
f 7 14 15
f 7 15 8
f 8 15 16
f 10 17 18
f 10 18 19
f 10 19 11
f 10 20 17
f 11 19 18
f 11 18 21
f 12 22 13
f 12 23 24
f 12 24 25
f 12 25 26
f 12 26 22
f 13 22 27
f 13 27 14
f 14 27 16
f 14 16 15
f 16 27 22
f 17 20 21
f 17 21 18
f 20 28 29
f 20 29 30
f 20 30 31
f 20 31 21
f 23 32 24
f 24 32 33
f 24 33 34
f 28 35 36
f 28 36 37
f 28 37 29
f 33 38 39
f 33 39 34
f 35 40 41
f 35 41 36
f 38 42 39
f 39 42 43
f 40 44 41
f 40 45 44
f 41 44 46
f 42 47 48
f 42 48 43
f 44 45 46
f 45 48 46
f 46 48 47

