# https://github.com/mikedh/trimesh
v 0.01194712 -0.01139996 0.05724605
v 0.01194712 -0.00637433 0.05732245
v 0.01194712 -0.01137892 0.05699401
v 0.01208735 -0.01150300 0.05699401
v 0.01209575 -0.01153420 0.05732245
v 0.01854899 -0.00637433 0.05732245
v 0.01194712 -0.00637433 0.05695939
v 0.01229091 -0.01165901 0.05695939
v 0.01227411 -0.01167352 0.05732245
v 0.01854899 -0.00637433 0.05695939
v 0.01814122 -0.01377128 0.05732245
v 0.01854899 -0.01374879 0.05731758
v 0.01256685 -0.01186944 0.05695939
v 0.01252226 -0.01186436 0.05732245
v 0.01854899 -0.01376983 0.05695939
v 0.01765590 -0.01376330 0.05732245
v 0.01814122 -0.01378725 0.05695939
v 0.01314393 -0.01228086 0.05695939
v 0.01277558 -0.01203053 0.05699401
v 0.01275813 -0.01204214 0.05732245
v 0.01729854 -0.01375387 0.05695939
v 0.01771988 -0.01377491 0.05695939
v 0.01729854 -0.01374516 0.05732245
v 0.01344508 -0.01246590 0.05695939
v 0.01328546 -0.01238318 0.05712703
v 0.01311421 -0.01228304 0.05732245
v 0.01687655 -0.01370308 0.05732245
v 0.01687655 -0.01370815 0.05699401
v 0.01657993 -0.01365954 0.05699401
v 0.01603322 -0.01354417 0.05695939
v 0.01388580 -0.01271043 0.05695939
v 0.01349484 -0.01251161 0.05732245
v 0.01327770 -0.01238898 0.05732245
v 0.01649463 -0.01364067 0.05732245
v 0.01634147 -0.01361020 0.05699401
v 0.01603322 -0.01354417 0.05732245
v 0.01561188 -0.01343677 0.05732245
v 0.01561188 -0.01343460 0.05699401
v 0.01513109 -0.01327496 0.05696924
v 0.01482865 -0.01315233 0.05695939
v 0.01409518 -0.01282072 0.05699401
v 0.01408096 -0.01282943 0.05732245
v 0.01387029 -0.01271696 0.05732245
v 0.01434980 -0.01293537 0.05695939
v 0.01514466 -0.01328585 0.05732245
v 0.01497147 -0.01322562 0.05732245
v 0.01497664 -0.01322344 0.05711914
v 0.01434980 -0.01294916 0.05732245
f 1 2 7
f 1 7 3
f 1 3 4
f 1 4 5
f 1 5 2
f 2 6 10
f 2 10 7
f 2 5 9
f 2 9 14
f 2 14 20
f 2 20 26
f 2 26 33
f 2 33 32
f 2 32 43
f 2 43 42
f 2 42 48
f 2 48 46
f 2 46 45
f 2 45 37
f 2 37 36
f 2 36 34
f 2 34 27
f 2 27 23
f 2 23 16
f 2 16 11
f 2 11 6
f 3 7 8
f 3 8 4
f 4 8 9
f 4 9 5
f 6 11 12
f 6 12 15
f 6 15 10
f 7 10 15
f 7 15 17
f 7 17 22
f 7 22 21
f 7 21 30
f 7 30 40
f 7 40 44
f 7 44 31
f 7 31 24
f 7 24 18
f 7 18 13
f 7 13 8
f 8 13 14
f 8 14 9
f 11 16 17
f 11 17 15
f 11 15 12
f 13 18 19
f 13 19 14
f 14 19 20
f 16 21 22
f 16 22 17
f 16 23 21
f 18 24 25
f 18 25 26
f 18 26 20
f 18 20 19
f 21 23 27
f 21 27 28
f 21 28 29
f 21 29 30
f 24 31 32
f 24 32 33
f 24 33 25
f 25 33 26
f 27 34 28
f 28 34 29
f 29 34 35
f 29 35 30
f 30 35 36
f 30 36 37
f 30 37 38
f 30 38 39
f 30 39 40
f 31 41 42
f 31 42 43
f 31 43 32
f 31 44 41
f 34 36 35
f 37 45 38
f 38 45 39
f 39 46 47
f 39 47 40
f 39 45 46
f 40 47 42
f 40 42 44
f 41 44 42
f 42 47 48
f 46 48 47

