# https://github.com/mikedh/trimesh
v 0.02346397 -0.01200206 0.05616542
v 0.02328841 -0.01203796 0.05653519
v 0.02315884 -0.01222839 0.05616542
v 0.01410612 -0.01200206 0.05616542
v 0.01278943 -0.01200852 0.05655394
v 0.02150985 -0.01309495 0.05655394
v 0.02210444 -0.01281477 0.05652534
v 0.02282966 -0.01240411 0.05638915
v 0.02230613 -0.01277008 0.05617051
v 0.02132070 -0.01323208 0.05617135
v 0.01813976 -0.01383569 0.05616542
v 0.01402252 -0.01275465 0.05616542
v 0.01295036 -0.01209575 0.05618314
v 0.01308516 -0.01221565 0.05655394
v 0.02066863 -0.01341390 0.05655394
v 0.02117127 -0.01324231 0.05650826
v 0.02193307 -0.01296500 0.05617561
v 0.02066863 -0.01346164 0.05617561
v 0.01940002 -0.01373984 0.05617561
v 0.01898307 -0.01379620 0.05617561
v 0.01856194 -0.01383407 0.05617561
v 0.01813976 -0.01380984 0.05655394
v 0.01772072 -0.01379333 0.05655394
v 0.01772072 -0.01381828 0.05616542
v 0.01434437 -0.01291636 0.05616542
v 0.01401625 -0.01276218 0.05655394
v 0.01342374 -0.01243606 0.05655394
v 0.01343523 -0.01242601 0.05617561
v 0.02022242 -0.01354546 0.05655394
v 0.02006149 -0.01362156 0.05619900
v 0.01898307 -0.01375869 0.05655394
v 0.01979711 -0.01363969 0.05655394
v 0.01940420 -0.01370161 0.05655394
v 0.01856194 -0.01380284 0.05655394
v 0.01729960 -0.01376677 0.05655394
v 0.01729960 -0.01378436 0.05616542
v 0.01476132 -0.01311128 0.05616542
v 0.01434960 -0.01292462 0.05655394
v 0.01687742 -0.01371220 0.05655394
v 0.01687742 -0.01371687 0.05616542
v 0.01503929 -0.01323010 0.05655394
v 0.01510826 -0.01325290 0.05616542
v 0.01646988 -0.01363556 0.05655394
v 0.01648660 -0.01363754 0.05616542
v 0.01561403 -0.01343131 0.05655394
v 0.01560463 -0.01342556 0.05616542
v 0.01603621 -0.01354420 0.05655394
v 0.01603621 -0.01354420 0.05616542
f 1 2 3
f 1 3 11
f 1 11 24
f 1 24 36
f 1 36 40
f 1 40 44
f 1 44 48
f 1 48 46
f 1 46 42
f 1 42 37
f 1 37 25
f 1 25 12
f 1 12 4
f 1 4 5
f 1 5 2
f 2 6 7
f 2 7 8
f 2 8 3
f 2 5 6
f 3 8 9
f 3 9 10
f 3 10 11
f 4 12 13
f 4 13 5
f 5 13 14
f 5 14 27
f 5 27 26
f 5 26 38
f 5 38 41
f 5 41 45
f 5 45 47
f 5 47 43
f 5 43 39
f 5 39 35
f 5 35 23
f 5 23 22
f 5 22 34
f 5 34 31
f 5 31 33
f 5 33 32
f 5 32 29
f 5 29 15
f 5 15 6
f 6 15 16
f 6 16 10
f 6 10 17
f 6 17 7
f 7 9 8
f 7 17 9
f 9 17 10
f 10 16 18
f 10 18 11
f 11 18 19
f 11 19 20
f 11 20 21
f 11 21 22
f 11 22 23
f 11 23 24
f 12 25 26
f 12 26 27
f 12 27 28
f 12 28 13
f 13 28 14
f 14 28 27
f 15 18 16
f 15 29 18
f 18 29 30
f 18 30 19
f 19 31 20
f 19 30 32
f 19 32 33
f 19 33 31
f 20 31 34
f 20 34 21
f 21 34 22
f 23 35 24
f 24 35 36
f 25 37 38
f 25 38 26
f 29 32 30
f 35 39 36
f 36 39 40
f 37 41 38
f 37 42 41
f 39 43 40
f 40 43 44
f 41 42 45
f 42 46 45
f 43 47 48
f 43 48 44
f 45 46 48
f 45 48 47

