# https://github.com/mikedh/trimesh
v 0.00953035 0.00271778 0.05376049
v 0.00955424 0.00271778 0.05343054
v 0.01396875 0.00271778 0.05376049
v 0.00962724 0.00721734 0.05376049
v 0.00960204 0.00721734 0.05365712
v 0.00955728 0.00271778 0.05338922
v 0.01396875 0.00271778 0.05338922
v 0.01396875 0.00817644 0.05376049
v 0.00967330 0.00763144 0.05376049
v 0.00963245 0.00763897 0.05365712
v 0.00963376 0.00763897 0.05338922
v 0.00962246 0.00721734 0.05338922
v 0.01396875 0.00863398 0.05338922
v 0.01396875 0.00862819 0.05339398
v 0.01392703 0.00862761 0.05339449
v 0.01013430 0.00862761 0.05339449
v 0.01013430 0.00817007 0.05376049
v 0.00980104 0.00799979 0.05376049
v 0.00976888 0.00805539 0.05366163
v 0.00980234 0.00843417 0.05338922
v 0.00969154 0.00805887 0.05338922
v 0.01013430 0.00863398 0.05338922
v 0.00983971 0.00836814 0.05352421
f 1 2 6
f 1 6 7
f 1 7 3
f 1 3 8
f 1 8 17
f 1 17 18
f 1 18 9
f 1 9 4
f 1 4 5
f 1 5 2
f 2 5 6
f 3 7 13
f 3 13 14
f 3 14 8
f 4 9 10
f 4 10 5
f 5 10 11
f 5 11 12
f 5 12 6
f 6 12 11
f 6 11 21
f 6 21 20
f 6 20 22
f 6 22 13
f 6 13 7
f 8 14 15
f 8 15 16
f 8 16 17
f 9 18 19
f 9 19 10
f 10 19 20
f 10 20 21
f 10 21 11
f 13 22 16
f 13 16 15
f 13 15 14
f 16 22 23
f 16 23 17
f 17 23 18
f 18 23 19
f 19 23 20
f 20 23 22

