# https://github.com/mikedh/trimesh
v 0.02515979 0.01280566 0.04459726
v 0.02515979 0.01281768 0.04453146
v 0.02312799 0.01280566 0.04459726
v 0.02515979 -0.01062529 0.04459726
v 0.02515979 0.01284413 0.04438562
v 0.02312799 0.01284413 0.04438562
v 0.02312799 -0.01056759 0.04459726
v 0.02515979 -0.01054354 0.03806436
v 0.02515979 0.01335146 0.04150208
v 0.02312799 0.01364720 0.03982120
v 0.02312799 -0.01042573 0.03806436
v 0.02515979 -0.01052671 0.03801077
v 0.02312799 -0.01034638 0.03777403
v 0.02515979 0.01379147 0.03900112
v 0.02515979 0.01385639 0.03863211
v 0.02312799 0.01376021 0.03917816
v 0.02515979 -0.01042813 0.03776386
v 0.02312799 -0.01006026 0.03768178
v 0.02515979 0.01388043 0.03848627
v 0.02312799 0.01388043 0.03848627
v 0.02312799 0.01386841 0.03855682
v 0.02515979 -0.01032234 0.03772994
v 0.02312799 -0.00963708 0.03766822
v 0.02515979 -0.00991359 0.03767500
v 0.02515979 -0.01006026 0.03767975
v 0.02515979 0.01393814 0.03806436
v 0.02312799 0.01392852 0.03813490
v 0.02515979 -0.00963708 0.03766822
v 0.02312799 0.01353900 0.03766822
v 0.02312799 0.01393814 0.03806436
v 0.02515979 0.01385158 0.03776115
v 0.02515979 0.01353900 0.03766822
v 0.02312799 0.01359190 0.03768382
v 0.02312799 0.01385158 0.03776115
f 1 2 3
f 1 3 7
f 1 7 4
f 1 4 8
f 1 8 12
f 1 12 17
f 1 17 22
f 1 22 25
f 1 25 24
f 1 24 28
f 1 28 32
f 1 32 31
f 1 31 26
f 1 26 19
f 1 19 15
f 1 15 14
f 1 14 9
f 1 9 5
f 1 5 2
f 2 5 6
f 2 6 3
f 3 6 10
f 3 10 16
f 3 16 21
f 3 21 20
f 3 20 27
f 3 27 30
f 3 30 34
f 3 34 33
f 3 33 29
f 3 29 23
f 3 23 18
f 3 18 13
f 3 13 11
f 3 11 7
f 4 7 8
f 5 9 10
f 5 10 6
f 7 11 8
f 8 11 13
f 8 13 12
f 9 14 10
f 10 14 15
f 10 15 16
f 12 13 17
f 13 18 17
f 15 19 20
f 15 20 21
f 15 21 16
f 17 18 22
f 18 23 24
f 18 24 25
f 18 25 22
f 19 26 27
f 19 27 20
f 23 28 24
f 23 29 32
f 23 32 28
f 26 30 27
f 26 31 34
f 26 34 30
f 29 33 32
f 31 32 33
f 31 33 34

