# https://github.com/mikedh/trimesh
v 0.02383782 0.00608901 0.05501644
v 0.02408360 0.00590285 0.05501644
v 0.01152237 0.00583157 0.05501644
v 0.01175379 0.00605337 0.05503556
v 0.01175200 0.00607072 0.05534195
v 0.02361896 0.00608619 0.05533360
v 0.02405130 0.00574295 0.05534195
v 0.02433654 0.00568199 0.05504114
v 0.02474556 0.00526325 0.05504059
v 0.02519764 0.00474838 0.05502533
v 0.02552772 0.00432636 0.05502007
v 0.02592239 0.00376085 0.05501644
v 0.01121023 0.00548458 0.05501644
v 0.01120305 0.00551975 0.05534195
v 0.01150623 0.00584189 0.05534195
v 0.02436883 0.00544144 0.05534195
v 0.02467201 0.00511414 0.05534195
v 0.02509538 0.00461990 0.05534195
v 0.02543803 0.00419741 0.05530741
v 0.02594392 0.00342651 0.05534195
v 0.02613946 0.00343120 0.05501644
v 0.01053750 0.00468133 0.05501644
v 0.01089808 0.00516525 0.05534195
v 0.02644084 0.00256371 0.05534195
v 0.02629195 0.00289383 0.05530142
v 0.02636550 0.00305748 0.05501851
v 0.02661665 0.00258247 0.05501644
v 0.01025047 0.00433199 0.05518597
v 0.01040116 0.00457113 0.05534195
v 0.00995088 0.00380352 0.05501644
v 0.02698261 0.00130843 0.05534195
v 0.02679604 0.00179047 0.05533742
v 0.02665073 0.00212387 0.05533742
v 0.02679425 0.00215857 0.05505503
v 0.02702388 0.00166574 0.05501644
v 0.00998855 0.00394982 0.05534195
v 0.00972843 0.00342558 0.05501644
v 0.02715663 0.00131359 0.05502651
v 0.00882966 0.00129858 0.05534195
v 0.00890859 0.00135579 0.05501644
v 0.00967999 0.00342464 0.05534195
v 0.00950777 0.00300074 0.05501644
v 0.00948445 0.00305232 0.05534195
v 0.00895882 0.00173842 0.05534195
v 0.00910054 0.00199070 0.05502737
v 0.00932479 0.00258247 0.05501644
v 0.00928173 0.00258106 0.05534195
v 0.00909516 0.00212809 0.05534195
f 1 2 12
f 1 12 21
f 1 21 27
f 1 27 35
f 1 35 40
f 1 40 46
f 1 46 42
f 1 42 37
f 1 37 30
f 1 30 22
f 1 22 13
f 1 13 3
f 1 3 4
f 1 4 5
f 1 5 6
f 1 6 2
f 2 6 7
f 2 7 8
f 2 8 9
f 2 9 10
f 2 10 11
f 2 11 12
f 3 13 14
f 3 14 15
f 3 15 4
f 4 15 5
f 5 15 14
f 5 14 23
f 5 23 29
f 5 29 36
f 5 36 41
f 5 41 43
f 5 43 47
f 5 47 48
f 5 48 44
f 5 44 39
f 5 39 31
f 5 31 24
f 5 24 20
f 5 20 18
f 5 18 17
f 5 17 16
f 5 16 7
f 5 7 6
f 7 16 8
f 8 16 9
f 9 16 17
f 9 17 10
f 10 17 18
f 10 18 11
f 11 19 12
f 11 18 19
f 12 19 20
f 12 20 21
f 13 22 23
f 13 23 14
f 18 20 19
f 20 24 25
f 20 25 26
f 20 26 21
f 21 26 27
f 22 28 29
f 22 29 23
f 22 30 28
f 24 27 25
f 24 31 32
f 24 32 33
f 24 33 27
f 25 27 26
f 27 33 34
f 27 34 35
f 28 36 29
f 28 30 36
f 30 37 36
f 31 38 32
f 31 39 38
f 32 34 33
f 32 38 35
f 32 35 34
f 35 38 40
f 36 37 41
f 37 42 43
f 37 43 41
f 38 39 40
f 39 44 40
f 40 44 45
f 40 45 46
f 42 46 43
f 43 46 47
f 44 48 45
f 45 48 46
f 46 48 47

