# https://github.com/mikedh/trimesh
v 0.01112770 -0.01028032 0.05518695
v 0.01151073 -0.01070023 0.05501644
v 0.01183645 -0.01108675 0.05517921
v 0.01276187 -0.01188643 0.05534195
v 0.02530267 -0.01039222 0.05534026
v 0.02540891 -0.01039400 0.05501644
v 0.01274230 -0.01186333 0.05501644
v 0.01226561 -0.01150169 0.05517921
v 0.01308479 -0.01211983 0.05501644
v 0.01348041 -0.01240865 0.05517921
v 0.01431217 -0.01289002 0.05534195
v 0.02488329 -0.01091125 0.05534195
v 0.02512653 -0.01073043 0.05510095
v 0.02440241 -0.01150701 0.05507189
v 0.02359860 -0.01218697 0.05501644
v 0.01434852 -0.01290707 0.05501644
v 0.01395011 -0.01269534 0.05517921
v 0.01477069 -0.01311135 0.05534195
v 0.02449048 -0.01133258 0.05534195
v 0.02476167 -0.01113009 0.05512568
v 0.02404034 -0.01174717 0.05534195
v 0.02394529 -0.01191023 0.05505398
v 0.02328127 -0.01241362 0.05501733
v 0.02283673 -0.01269214 0.05501644
v 0.02365032 -0.01206796 0.05533679
v 0.02321557 -0.01238449 0.05534195
v 0.01494404 -0.01318311 0.05501644
v 0.01511458 -0.01325060 0.05534195
v 0.02273049 -0.01268859 0.05533793
v 0.02242993 -0.01288327 0.05519890
v 0.02186237 -0.01316392 0.05519846
v 0.02108932 -0.01348152 0.05501644
v 0.02108932 -0.01343640 0.05534195
v 0.01982560 -0.01379166 0.05501644
v 0.01730094 -0.01383535 0.05517921
v 0.01687877 -0.01375578 0.05517921
v 0.01616862 -0.01359982 0.05517921
v 0.01561504 -0.01343960 0.05517921
v 0.01982560 -0.01375791 0.05534195
v 0.02154644 -0.01329856 0.05517695
v 0.02059446 -0.01360550 0.05519731
v 0.02029250 -0.01370213 0.05501644
v 0.02026454 -0.01367194 0.05534195
v 0.01940482 -0.01383784 0.05517921
v 0.01898265 -0.01388722 0.05517921
v 0.01856187 -0.01390925 0.05517921
v 0.01814249 -0.01390108 0.05517921
v 0.01772172 -0.01388047 0.05517921
f 1 2 3
f 1 3 4
f 1 4 5
f 1 5 6
f 1 6 2
f 2 7 8
f 2 8 3
f 2 6 15
f 2 15 24
f 2 24 32
f 2 32 42
f 2 42 34
f 2 34 27
f 2 27 16
f 2 16 9
f 2 9 7
f 3 8 4
f 4 8 7
f 4 7 9
f 4 9 10
f 4 10 11
f 4 11 18
f 4 18 28
f 4 28 39
f 4 39 43
f 4 43 33
f 4 33 26
f 4 26 21
f 4 21 19
f 4 19 12
f 4 12 5
f 5 12 13
f 5 13 6
f 6 13 14
f 6 14 15
f 9 16 10
f 10 16 17
f 10 17 11
f 11 17 16
f 11 16 18
f 12 19 20
f 12 20 13
f 13 20 14
f 14 20 19
f 14 19 21
f 14 21 22
f 14 22 15
f 15 23 24
f 15 22 25
f 15 25 26
f 15 26 23
f 16 27 18
f 18 27 28
f 21 25 22
f 21 26 25
f 23 26 24
f 24 26 29
f 24 29 30
f 24 30 31
f 24 31 32
f 26 33 29
f 27 34 35
f 27 35 36
f 27 36 37
f 27 37 38
f 27 38 28
f 28 38 37
f 28 37 36
f 28 36 35
f 28 35 39
f 29 31 30
f 29 33 31
f 31 40 32
f 31 33 40
f 32 40 33
f 32 33 41
f 32 41 42
f 33 43 41
f 34 42 39
f 34 39 44
f 34 44 45
f 34 45 46
f 34 46 47
f 34 47 48
f 34 48 35
f 35 48 39
f 39 42 43
f 39 48 47
f 39 47 46
f 39 46 45
f 39 45 44
f 41 43 42

