# https://github.com/mikedh/trimesh
v 0.00769149 -0.00278912 0.05867265
v 0.00769514 -0.00144895 0.05867507
v 0.00784087 -0.00028231 0.05863080
v 0.00848939 -0.00655455 0.05866904
v 0.00809591 -0.00528129 0.05868728
v 0.00816331 0.00121885 0.05867507
v 0.02623976 -0.00251523 0.05864227
v 0.02210638 -0.01241283 0.05865280
v 0.01477233 -0.01316341 0.05865321
v 0.00947127 -0.00857422 0.05865562
v 0.00856225 0.00235622 0.05867507
v 0.00897577 0.00320924 0.05867265
v 0.01014711 0.00489230 0.05866784
v 0.01120003 0.00590840 0.05866784
v 0.01203800 0.00648963 0.05866542
v 0.01448633 0.00750573 0.05866535
v 0.01835738 0.00743256 0.05866160
v 0.01006878 -0.00951506 0.05867265
v 0.01082295 -0.01044126 0.05867265
v 0.01240051 -0.01187760 0.05867507
v 0.01961434 -0.01350002 0.05867507
v 0.01308911 0.00701859 0.05871157
v 0.02630169 -0.00389303 0.05865262
v 0.02623611 -0.00517048 0.05865079
v 0.02513036 -0.00896310 0.05865315
v 0.02333237 0.00420026 0.05866651
v 0.02492815 0.00185235 0.05867106
v 0.02549652 0.00055817 0.05867533
v 0.02594829 -0.00095971 0.05868480
v 0.02368031 -0.01106221 0.05867265
v 0.02298079 -0.01173543 0.05867025
v 0.02091319 -0.01305051 0.05866904
v 0.01845211 -0.01369237 0.05866784
v 0.01710589 -0.01368401 0.05867025
v 0.01581069 -0.01348748 0.05867025
v 0.01342247 -0.01253410 0.05867386
v 0.01166820 -0.01128174 0.05867265
v 0.00946762 0.00401418 0.05867507
v 0.01583255 0.00766672 0.05867265
v 0.01741011 0.00761236 0.05866784
v 0.01930647 0.00708758 0.05867507
v 0.02077656 0.00639136 0.05866780
v 0.02448002 -0.01003356 0.05868239
v 0.02252719 0.00506792 0.05868004
v 0.02550198 -0.00812471 0.05868289
v 0.02609767 -0.00604023 0.05867265
v 0.02581166 -0.00721105 0.05867507
v 0.02185864 0.00564287 0.05867638
f 1 2 3
f 1 3 4
f 1 4 5
f 1 5 2
f 2 6 3
f 2 5 6
f 3 7 8
f 3 8 9
f 3 9 10
f 3 10 4
f 3 6 11
f 3 11 12
f 3 12 13
f 3 13 14
f 3 14 15
f 3 15 16
f 3 16 17
f 3 17 7
f 4 10 18
f 4 18 5
f 5 18 19
f 5 19 20
f 5 20 21
f 5 21 22
f 5 22 6
f 6 22 11
f 7 23 24
f 7 24 25
f 7 25 8
f 7 17 26
f 7 26 27
f 7 27 28
f 7 28 29
f 7 29 23
f 8 25 30
f 8 30 31
f 8 31 32
f 8 32 33
f 8 33 9
f 9 33 34
f 9 34 35
f 9 35 36
f 9 36 20
f 9 20 37
f 9 37 10
f 10 37 19
f 10 19 18
f 11 38 12
f 11 22 38
f 12 38 13
f 13 22 14
f 13 38 22
f 14 22 15
f 15 22 16
f 16 22 39
f 16 39 40
f 16 40 17
f 17 40 41
f 17 41 42
f 17 42 26
f 19 37 20
f 20 36 21
f 21 36 35
f 21 35 34
f 21 34 33
f 21 33 32
f 21 32 31
f 21 31 43
f 21 43 22
f 22 29 44
f 22 44 41
f 22 41 40
f 22 40 39
f 22 43 45
f 22 45 29
f 23 46 24
f 23 29 46
f 24 46 47
f 24 47 25
f 25 47 45
f 25 45 43
f 25 43 30
f 26 42 48
f 26 48 44
f 26 44 27
f 27 44 29
f 27 29 28
f 29 45 46
f 30 43 31
f 41 44 48
f 41 48 42
f 45 47 46

