# https://github.com/mikedh/trimesh
v 0.01040397 0.00321428 0.05914481
v 0.00890648 0.00311291 0.05875294
v 0.00881323 0.00310375 0.05914455
v 0.00861027 0.00271329 0.05914481
v 0.02530396 0.00047387 0.05914481
v 0.02432940 0.00247718 0.05914251
v 0.02388326 0.00320709 0.05898292
v 0.00864684 0.00259556 0.05875294
v 0.02445739 0.00258183 0.05875294
v 0.00845851 0.00215736 0.05875294
v 0.00829212 0.00196507 0.05914481
v 0.02554165 -0.00020371 0.05914481
v 0.02556908 0.00020899 0.05879123
v 0.02534418 0.00086629 0.05875294
v 0.02509551 0.00103438 0.05912249
v 0.02468777 0.00188986 0.05911911
v 0.02468960 0.00221557 0.05877239
v 0.02503518 0.00157004 0.05875294
v 0.00821533 0.00148763 0.05875294
v 0.00808368 0.00137317 0.05914481
v 0.02571170 -0.00078842 0.05914481
v 0.02583238 -0.00058698 0.05875294
v 0.00805808 0.00089572 0.05875294
v 0.00792277 0.00072110 0.05914251
v 0.00764119 -0.00078842 0.05914481
v 0.02602985 -0.00246079 0.05914481
v 0.02586712 -0.00146862 0.05913937
v 0.02596585 -0.00113506 0.05875294
v 0.00781307 -0.00030182 0.05875294
v 0.00771799 -0.00036722 0.05914025
v 0.00772530 -0.00078842 0.05875294
v 0.00760097 -0.00120112 0.05914481
v 0.02606825 -0.00289573 0.05914481
v 0.02619624 -0.00249284 0.05875294
v 0.02614321 -0.00207033 0.05875294
v 0.02599145 -0.00208865 0.05910875
v 0.02606825 -0.00163147 0.05875294
v 0.00768691 -0.00119065 0.05875294
v 0.00767593 -0.00159289 0.05875294
v 0.00759183 -0.00162690 0.05914025
v 0.00758268 -0.00288657 0.05914481
v 0.02609750 -0.00346735 0.05914416
v 0.02626206 -0.00346081 0.05875294
v 0.02623098 -0.00289573 0.05875294
v 0.00765399 -0.00346278 0.05914420
v 0.00766496 -0.00287610 0.05875294
v 0.00758817 -0.00204809 0.05914025
v 0.00773627 -0.00346735 0.05875294
f 1 2 3
f 1 3 4
f 1 4 11
f 1 11 20
f 1 20 25
f 1 25 32
f 1 32 41
f 1 41 33
f 1 33 26
f 1 26 21
f 1 21 12
f 1 12 5
f 1 5 6
f 1 6 7
f 1 7 2
f 2 8 4
f 2 4 3
f 2 7 9
f 2 9 18
f 2 18 14
f 2 14 22
f 2 22 28
f 2 28 37
f 2 37 35
f 2 35 34
f 2 34 44
f 2 44 43
f 2 43 48
f 2 48 46
f 2 46 39
f 2 39 38
f 2 38 31
f 2 31 29
f 2 29 23
f 2 23 19
f 2 19 10
f 2 10 8
f 4 10 11
f 4 8 10
f 5 12 13
f 5 13 14
f 5 14 15
f 5 15 16
f 5 16 6
f 6 16 17
f 6 17 9
f 6 9 7
f 9 17 18
f 10 19 11
f 11 19 20
f 12 21 22
f 12 22 13
f 13 22 14
f 14 18 15
f 15 18 16
f 16 18 17
f 19 23 20
f 20 23 24
f 20 24 25
f 21 26 27
f 21 27 28
f 21 28 22
f 23 29 24
f 24 29 30
f 24 30 25
f 25 30 31
f 25 31 32
f 26 33 34
f 26 34 35
f 26 35 36
f 26 36 27
f 27 36 37
f 27 37 28
f 29 31 30
f 31 38 32
f 32 38 39
f 32 39 40
f 32 40 41
f 33 42 43
f 33 43 44
f 33 44 34
f 33 41 45
f 33 45 42
f 35 37 36
f 39 46 47
f 39 47 40
f 40 47 41
f 41 47 46
f 41 46 48
f 41 48 45
f 42 45 48
f 42 48 43

