# https://github.com/mikedh/trimesh
v 0.00975505 -0.00668828 0.05155776
v 0.00976778 -0.01321982 0.05155572
v 0.02255991 -0.01466300 0.05155436
v 0.00975505 0.00174450 0.05155776
v 0.01029347 0.01101062 0.04470285
v 0.01016618 -0.01385173 0.04638831
v 0.00988361 -0.01358407 0.05021567
v 0.00992816 -0.01402005 0.05105771
v 0.01067787 -0.01459401 0.05145012
v 0.00976524 0.00953434 0.05155572
v 0.01195326 -0.01478441 0.05107815
v 0.02275847 -0.01510175 0.04774062
v 0.02275847 0.01111548 0.05140039
v 0.01014073 0.01101062 0.04670442
v 0.01036857 0.01180258 0.04510412
v 0.01122519 0.01255866 0.04475463
v 0.02275847 0.01280700 0.04459794
v 0.01266479 -0.01538321 0.04459794
v 0.01082297 -0.01494722 0.04462451
v 0.01032402 -0.01436774 0.04547268
v 0.01032020 -0.01451675 0.04680933
v 0.01030747 -0.01452227 0.04838919
v 0.01030874 -0.01451399 0.05007465
v 0.01178525 -0.01532526 0.04473283
v 0.01194563 -0.01491411 0.04974082
v 0.01067023 0.01114859 0.05132818
v 0.00982252 0.01040907 0.05135611
v 0.00993962 0.01067122 0.04937839
v 0.01350741 -0.01538321 0.04459794
v 0.02275847 -0.01521488 0.04647551
v 0.02275847 0.01174739 0.05056380
v 0.01192908 0.01161494 0.05091601
v 0.00990398 0.01084782 0.05049567
v 0.01029983 0.01171979 0.04617711
v 0.01154595 0.01250347 0.04597069
v 0.01209710 0.01273250 0.04492699
v 0.01030874 0.01168668 0.04744155
v 0.01034947 0.01163977 0.04860515
v 0.01045512 0.01158734 0.04965294
v 0.02275847 -0.01056802 0.04459794
v 0.01224347 0.01254762 0.04607220
v 0.02275847 0.01195159 0.04946014
v 0.01047040 0.01143281 0.05049976
v 0.02065955 -0.01523696 0.04462451
v 0.02275847 -0.01495826 0.04486772
v 0.01224347 0.01189640 0.04975854
v 0.01202709 0.01206472 0.04881294
v 0.01194690 0.01249243 0.04632972
f 1 2 3
f 1 3 4
f 1 4 5
f 1 5 6
f 1 6 2
f 2 6 7
f 2 7 8
f 2 8 9
f 2 9 3
f 3 10 4
f 3 9 11
f 3 11 12
f 3 12 13
f 3 13 10
f 4 10 5
f 5 14 15
f 5 15 16
f 5 16 17
f 5 17 18
f 5 18 19
f 5 19 20
f 5 20 6
f 5 10 14
f 6 20 7
f 7 20 8
f 8 20 21
f 8 21 22
f 8 22 23
f 8 23 9
f 9 24 25
f 9 25 11
f 9 23 24
f 10 13 26
f 10 26 27
f 10 27 28
f 10 28 14
f 11 25 12
f 12 25 18
f 12 18 29
f 12 29 30
f 12 30 45
f 12 45 40
f 12 40 17
f 12 17 42
f 12 42 31
f 12 31 13
f 13 31 32
f 13 32 26
f 14 28 33
f 14 33 15
f 15 34 16
f 15 33 34
f 16 35 36
f 16 36 17
f 16 34 37
f 16 37 38
f 16 38 39
f 16 39 35
f 17 40 29
f 17 29 18
f 17 36 41
f 17 41 42
f 18 25 24
f 18 24 19
f 19 24 23
f 19 23 22
f 19 22 21
f 19 21 20
f 26 32 43
f 26 43 27
f 27 43 33
f 27 33 28
f 29 44 30
f 29 40 44
f 30 44 45
f 31 42 46
f 31 46 32
f 32 46 47
f 32 47 43
f 33 43 39
f 33 39 38
f 33 38 37
f 33 37 34
f 35 47 48
f 35 48 36
f 35 39 43
f 35 43 47
f 36 48 41
f 40 45 44
f 41 48 47
f 41 47 42
f 42 47 46

