# https://github.com/mikedh/trimesh
v 0.02676651 -0.00007098 0.05655397
v 0.02655914 -0.00007098 0.05695935
v 0.02662079 -0.00029599 0.05695935
v 0.02678893 -0.00015378 0.05655397
v 0.00826590 -0.00007098 0.05655397
v 0.00819677 -0.00007098 0.05695935
v 0.02663947 -0.00036787 0.05695935
v 0.02684684 -0.00036787 0.05655397
v 0.00824161 -0.00019843 0.05655397
v 0.00825655 -0.00007098 0.05660461
v 0.00814446 -0.00036959 0.05695935
v 0.02671420 -0.00067836 0.05695935
v 0.02677398 -0.00060495 0.05680708
v 0.02693465 -0.00076078 0.05655397
v 0.00822106 -0.00033030 0.05655397
v 0.00820611 -0.00037783 0.05660441
v 0.00809215 -0.00078934 0.05695935
v 0.02674409 -0.00081023 0.05695935
v 0.02699069 -0.00121061 0.05660715
v 0.02700564 -0.00115484 0.05655397
v 0.02678146 -0.00099365 0.05695935
v 0.02682255 -0.00121061 0.05695935
v 0.00821545 -0.00037783 0.05655397
v 0.00821172 -0.00040965 0.05655397
v 0.00811084 -0.00202902 0.05655397
v 0.00806974 -0.00127981 0.05695935
v 0.00817809 -0.00078934 0.05655397
v 0.00817435 -0.00084799 0.05655397
v 0.02701498 -0.00121061 0.05655397
v 0.02682816 -0.00124243 0.05695935
v 0.02688047 -0.00156807 0.05695935
v 0.02689355 -0.00165317 0.05695935
v 0.02708036 -0.00163208 0.05655397
v 0.00804171 -0.00202902 0.05695935
v 0.02712707 -0.00202902 0.05655397
v 0.02694025 -0.00202902 0.05695935
f 1 2 3
f 1 3 4
f 1 4 8
f 1 8 14
f 1 14 20
f 1 20 29
f 1 29 33
f 1 33 35
f 1 35 25
f 1 25 28
f 1 28 27
f 1 27 24
f 1 24 23
f 1 23 15
f 1 15 9
f 1 9 5
f 1 5 10
f 1 10 6
f 1 6 2
f 2 6 11
f 2 11 17
f 2 17 26
f 2 26 34
f 2 34 36
f 2 36 32
f 2 32 31
f 2 31 30
f 2 30 22
f 2 22 21
f 2 21 18
f 2 18 12
f 2 12 7
f 2 7 3
f 3 7 8
f 3 8 4
f 5 9 10
f 6 10 9
f 6 9 11
f 7 12 8
f 8 13 14
f 8 12 13
f 9 15 11
f 11 15 16
f 11 16 17
f 12 18 13
f 13 18 14
f 14 19 20
f 14 18 21
f 14 21 22
f 14 22 19
f 15 23 16
f 16 23 24
f 16 24 17
f 17 25 26
f 17 24 27
f 17 27 28
f 17 28 25
f 19 29 20
f 19 22 30
f 19 30 31
f 19 31 32
f 19 32 33
f 19 33 29
f 25 34 26
f 25 35 36
f 25 36 34
f 32 36 33
f 33 36 35

