# https://github.com/mikedh/trimesh
v 0.00838232 -0.00289589 0.05453787
v 0.00839261 -0.00331714 0.05453787
v 0.00840685 -0.00121192 0.05457581
v 0.00841900 -0.00247360 0.05427421
v 0.00841364 -0.00289589 0.05427421
v 0.00843039 -0.00331714 0.05427421
v 0.00844364 -0.00354229 0.05427421
v 0.00845645 -0.00373839 0.05427421
v 0.00841911 -0.00371868 0.05453787
v 0.00846675 -0.00412229 0.05455682
v 0.00844156 -0.00075228 0.05457581
v 0.00846960 -0.00079067 0.05427421
v 0.00844342 -0.00121192 0.05427421
v 0.00853574 -0.00450516 0.05457581
v 0.00847759 -0.00396355 0.05427421
v 0.00850201 -0.00415965 0.05427421
v 0.00853880 -0.00438584 0.05427421
v 0.00851340 -0.00033103 0.05457581
v 0.00854023 -0.00036942 0.05427421
v 0.00857549 -0.00458090 0.05427421
v 0.00860484 -0.00473031 0.05427421
v 0.00862619 -0.00496480 0.05457581
v 0.00864897 0.00034443 0.05457581
v 0.00858513 -0.00015049 0.05427421
v 0.00874216 -0.00542444 0.05427421
v 0.00871642 -0.00540576 0.05453787
v 0.00881367 -0.00584569 0.05453787
v 0.00924063 -0.00705757 0.05457581
v 0.00867525 0.00045856 0.05457581
v 0.00871829 0.00047412 0.05427421
v 0.00883907 -0.00584569 0.05427421
v 0.00894485 -0.00626694 0.05453787
v 0.00905973 -0.00657095 0.05453787
v 0.00950104 -0.00766143 0.05427421
v 0.00940423 -0.00748816 0.05457581
v 0.00923625 0.00215394 0.05457581
v 0.00881640 0.00093273 0.05455682
v 0.00883053 0.00089538 0.05427421
v 0.00898055 -0.00628458 0.05427421
v 0.00950104 -0.00774236 0.05457581
v 0.00950104 0.00280138 0.05427421
v 0.00938507 0.00258142 0.05457581
v 0.00919497 0.00193502 0.05427421
v 0.00950104 0.00285223 0.05442312
v 0.00949206 0.00285741 0.05457581
f 1 2 3
f 1 3 4
f 1 4 5
f 1 5 2
f 2 5 6
f 2 6 7
f 2 7 8
f 2 8 9
f 2 9 10
f 2 10 3
f 3 11 12
f 3 12 13
f 3 13 4
f 3 10 14
f 3 14 22
f 3 22 28
f 3 28 35
f 3 35 40
f 3 40 45
f 3 45 42
f 3 42 36
f 3 36 29
f 3 29 23
f 3 23 18
f 3 18 11
f 4 13 12
f 4 12 19
f 4 19 24
f 4 24 30
f 4 30 38
f 4 38 43
f 4 43 41
f 4 41 34
f 4 34 39
f 4 39 31
f 4 31 25
f 4 25 21
f 4 21 20
f 4 20 17
f 4 17 16
f 4 16 15
f 4 15 8
f 4 8 7
f 4 7 6
f 4 6 5
f 8 15 9
f 9 15 10
f 10 15 16
f 10 16 17
f 10 17 14
f 11 18 19
f 11 19 12
f 14 17 20
f 14 20 21
f 14 21 22
f 18 23 19
f 19 23 24
f 21 25 26
f 21 26 22
f 22 26 27
f 22 27 28
f 23 29 30
f 23 30 24
f 25 31 27
f 25 27 26
f 27 31 32
f 27 32 28
f 28 32 33
f 28 33 34
f 28 34 35
f 29 36 37
f 29 37 38
f 29 38 30
f 31 39 32
f 32 39 33
f 33 39 34
f 34 40 35
f 34 41 44
f 34 44 40
f 36 42 38
f 36 38 37
f 38 42 43
f 40 44 45
f 41 43 42
f 41 42 44
f 42 45 44

