# https://github.com/mikedh/trimesh
v 0.02400059 0.00495721 0.05658060
v 0.02416284 0.00479824 0.05655401
v 0.01864241 0.00495721 0.05655401
v 0.02388368 0.00495721 0.05676373
v 0.02400218 0.00468208 0.05695935
v 0.02433622 0.00457626 0.05658060
v 0.02461221 0.00424551 0.05655401
v 0.01864241 -0.00007098 0.05655401
v 0.01864241 0.00495721 0.05695935
v 0.02380812 0.00493162 0.05691431
v 0.02421613 0.00443106 0.05695935
v 0.02425669 0.00448422 0.05682682
v 0.02435531 0.00424797 0.05695935
v 0.02471242 0.00411016 0.05655401
v 0.02655998 -0.00007098 0.05695935
v 0.01864321 -0.00007049 0.05695503
v 0.02676757 -0.00007098 0.05655401
v 0.02459709 0.00391328 0.05695935
v 0.02464402 0.00401516 0.05677269
v 0.02489614 0.00385028 0.05655401
v 0.02673814 0.00003583 0.05655401
v 0.02650829 0.00011556 0.05695935
v 0.02474185 0.00373413 0.05692693
v 0.02523177 0.00299437 0.05695935
v 0.02542743 0.00304211 0.05659262
v 0.02556661 0.00287034 0.05655401
v 0.02670792 0.00014411 0.05655401
v 0.02660532 0.00050193 0.05655401
v 0.02641364 0.00046305 0.05694523
v 0.02635161 0.00063876 0.05695935
v 0.02545208 0.00265870 0.05695935
v 0.02549662 0.00276107 0.05678765
v 0.02569943 0.00260259 0.05659262
v 0.02589906 0.00226002 0.05655401
v 0.02646852 0.00091734 0.05655401
v 0.02637626 0.00073424 0.05685261
v 0.02628082 0.00083711 0.05695935
v 0.02570579 0.00218373 0.05695935
v 0.02558490 0.00243229 0.05695019
v 0.02597859 0.00209613 0.05655401
v 0.02637785 0.00115802 0.05655401
v 0.02624185 0.00093899 0.05695935
v 0.02589270 0.00179146 0.05695935
v 0.02592372 0.00192288 0.05679535
v 0.02611460 0.00179884 0.05655401
v 0.02630945 0.00133471 0.05655401
v 0.02609153 0.00132487 0.05695935
v 0.02596030 0.00165709 0.05694693
f 1 2 3
f 1 3 9
f 1 9 4
f 1 4 2
f 2 4 5
f 2 5 6
f 2 6 7
f 2 7 14
f 2 14 20
f 2 20 26
f 2 26 34
f 2 34 40
f 2 40 45
f 2 45 46
f 2 46 41
f 2 41 35
f 2 35 28
f 2 28 27
f 2 27 21
f 2 21 17
f 2 17 8
f 2 8 3
f 3 8 9
f 4 9 10
f 4 10 5
f 5 11 12
f 5 12 6
f 5 10 9
f 5 9 15
f 5 15 22
f 5 22 30
f 5 30 37
f 5 37 42
f 5 42 47
f 5 47 43
f 5 43 38
f 5 38 31
f 5 31 24
f 5 24 18
f 5 18 13
f 5 13 11
f 6 12 7
f 7 13 14
f 7 12 11
f 7 11 13
f 8 15 16
f 8 16 9
f 8 17 15
f 9 16 15
f 13 18 19
f 13 19 14
f 14 19 20
f 15 17 21
f 15 21 22
f 18 23 19
f 18 24 23
f 19 23 20
f 20 24 25
f 20 25 26
f 20 23 24
f 21 27 22
f 22 27 28
f 22 28 29
f 22 29 30
f 24 31 32
f 24 32 25
f 25 32 26
f 26 32 33
f 26 33 34
f 28 35 36
f 28 36 30
f 28 30 29
f 30 36 37
f 31 38 39
f 31 39 32
f 32 39 33
f 33 39 34
f 34 39 38
f 34 38 40
f 35 41 37
f 35 37 36
f 37 41 42
f 38 43 44
f 38 44 40
f 40 44 43
f 40 43 45
f 41 46 42
f 42 46 47
f 43 47 48
f 43 48 45
f 45 48 46
f 46 48 47

