# https://github.com/mikedh/trimesh
v 0.01211919 0.00637269 0.05501644
v 0.01251173 0.00668058 0.05501644
v 0.01219289 0.00662120 0.05457581
v 0.01216290 -0.01144509 0.05477141
v 0.01286656 -0.01195530 0.05501644
v 0.01302340 0.00704344 0.05501644
v 0.01306368 0.00721498 0.05457581
v 0.01392847 -0.01267663 0.05457581
v 0.01348794 -0.01241053 0.05477831
v 0.01393704 -0.01268543 0.05501644
v 0.01361136 0.00739531 0.05501644
v 0.01356593 0.00747888 0.05457581
v 0.01435701 -0.01291195 0.05457581
v 0.01440072 -0.01292734 0.05501644
v 0.01459442 0.00787693 0.05499263
v 0.01894323 0.00838714 0.05501644
v 0.01472898 0.00796270 0.05457581
v 0.01477098 -0.01311207 0.05457581
v 0.01489011 -0.01315825 0.05501644
v 0.01851640 0.00844212 0.05499263
v 0.01642514 0.00842013 0.05477236
v 0.01581918 0.00829698 0.05476731
v 0.01514724 0.00810125 0.05478426
v 0.01948490 0.00828818 0.05501644
v 0.01936662 0.00844872 0.05457581
v 0.01873410 0.00853449 0.05457581
v 0.01517981 -0.01327921 0.05457581
v 0.01561434 -0.01345295 0.05457581
v 0.01561434 -0.01344195 0.05501644
v 0.01790188 0.00852349 0.05478426
v 0.01704995 0.00848830 0.05477236
v 0.02003086 0.00815843 0.05501644
v 0.02001714 0.00830797 0.05459224
v 0.02077223 0.00808805 0.05460665
v 0.02075423 -0.01363548 0.05457581
v 0.01628715 -0.01365307 0.05457581
v 0.01619973 -0.01361129 0.05501644
v 0.02078251 0.00792751 0.05501644
v 0.02087508 -0.01354531 0.05500609
v 0.02037626 -0.01367946 0.05501644
v 0.02024770 -0.01375863 0.05457581
v 0.01712451 -0.01382900 0.05457581
v 0.01687682 -0.01376303 0.05496887
v 0.01751962 -0.01386859 0.05499263
v 0.01898351 -0.01392137 0.05477236
v 0.01962718 -0.01384220 0.05478426
v 0.01771847 -0.01391038 0.05457581
v 0.01836042 -0.01393237 0.05478426
f 1 2 3
f 1 3 4
f 1 4 5
f 1 5 10
f 1 10 14
f 1 14 19
f 1 19 29
f 1 29 37
f 1 37 40
f 1 40 38
f 1 38 32
f 1 32 24
f 1 24 16
f 1 16 11
f 1 11 6
f 1 6 2
f 2 6 3
f 3 6 7
f 3 7 12
f 3 12 17
f 3 17 26
f 3 26 25
f 3 25 35
f 3 35 41
f 3 41 47
f 3 47 42
f 3 42 36
f 3 36 28
f 3 28 27
f 3 27 18
f 3 18 13
f 3 13 8
f 3 8 4
f 4 8 9
f 4 9 5
f 5 9 10
f 6 11 7
f 7 11 12
f 8 13 10
f 8 10 9
f 10 13 14
f 11 15 12
f 11 16 15
f 12 15 17
f 13 18 14
f 14 18 19
f 15 16 20
f 15 20 21
f 15 21 22
f 15 22 23
f 15 23 17
f 16 24 25
f 16 25 26
f 16 26 20
f 17 23 22
f 17 22 21
f 17 21 26
f 18 27 19
f 19 27 28
f 19 28 29
f 20 26 30
f 20 30 31
f 20 31 21
f 21 31 26
f 24 32 33
f 24 33 25
f 25 33 34
f 25 34 35
f 26 31 30
f 28 36 29
f 29 36 37
f 32 38 34
f 32 34 33
f 34 38 39
f 34 39 35
f 35 39 40
f 35 40 41
f 36 42 43
f 36 43 37
f 37 43 44
f 37 44 40
f 38 40 39
f 40 44 45
f 40 45 46
f 40 46 41
f 41 46 45
f 41 45 47
f 42 47 44
f 42 44 43
f 44 47 48
f 44 48 45
f 45 48 47

