# https://github.com/mikedh/trimesh
v 0.00960570 -0.00841065 0.05376049
v 0.00960594 -0.00869344 0.05376049
v 0.00961679 -0.00841065 0.05404288
v 0.01206806 -0.00841065 0.05376049
v 0.00962643 -0.01122126 0.05376049
v 0.00961751 -0.00841065 0.05405163
v 0.01206806 -0.01281409 0.05376049
v 0.01206806 -0.00841065 0.05427418
v 0.00969995 -0.01090356 0.05407853
v 0.00962017 -0.00841065 0.05407853
v 0.00965174 -0.01164587 0.05376049
v 0.01206806 -0.01152388 0.05427418
v 0.01181980 -0.01281452 0.05376049
v 0.00967175 -0.00841065 0.05427418
v 0.00966307 -0.01174631 0.05376049
v 0.00976984 -0.01174631 0.05400110
v 0.00976719 -0.01131265 0.05410443
v 0.00986963 -0.01118592 0.05427418
v 0.00984239 -0.01090356 0.05427418
v 0.00968259 -0.00860119 0.05427418
v 0.01013452 -0.01131308 0.05427418
v 0.01013452 -0.01139973 0.05424864
v 0.01013452 -0.01174631 0.05413430
v 0.01013452 -0.01281452 0.05376049
v 0.00970501 -0.01204117 0.05376049
v 0.00979829 -0.01243948 0.05376049
v 0.00983010 -0.01216747 0.05392738
v 0.00989229 -0.01242138 0.05388293
v 0.00982649 -0.01251233 0.05376049
f 1 2 3
f 1 3 6
f 1 6 10
f 1 10 14
f 1 14 8
f 1 8 4
f 1 4 7
f 1 7 13
f 1 13 24
f 1 24 29
f 1 29 26
f 1 26 25
f 1 25 15
f 1 15 11
f 1 11 5
f 1 5 2
f 2 5 3
f 3 5 6
f 4 8 12
f 4 12 7
f 5 9 10
f 5 10 6
f 5 11 9
f 7 12 13
f 8 14 20
f 8 20 19
f 8 19 18
f 8 18 21
f 8 21 12
f 9 11 15
f 9 15 16
f 9 16 17
f 9 17 18
f 9 18 19
f 9 19 20
f 9 20 14
f 9 14 10
f 12 21 22
f 12 22 23
f 12 23 24
f 12 24 13
f 15 25 16
f 16 25 26
f 16 26 27
f 16 27 18
f 16 18 17
f 18 27 28
f 18 28 22
f 18 22 21
f 22 28 23
f 23 28 24
f 24 28 29
f 26 29 27
f 27 29 28

