# https://github.com/mikedh/trimesh
v 0.02494597 -0.01151609 0.05427421
v 0.02451535 -0.01158436 0.05457581
v 0.02394285 -0.01204523 0.05457581
v 0.02354236 -0.01233843 0.05457581
v 0.02354236 -0.01246946 0.05427421
v 0.01212008 -0.01158939 0.05427421
v 0.01231593 -0.01157741 0.05457581
v 0.02320087 -0.01256384 0.05457581
v 0.02278280 -0.01281344 0.05457581
v 0.02275769 -0.01289680 0.05427421
v 0.01286834 -0.01212716 0.05427421
v 0.01336425 -0.01233029 0.05457581
v 0.02194038 -0.01323144 0.05457581
v 0.02235342 -0.01304436 0.05453787
v 0.02234087 -0.01309850 0.05427421
v 0.01368439 -0.01259762 0.05427421
v 0.01392795 -0.01267786 0.05457581
v 0.01360655 -0.01249006 0.05457581
v 0.02201194 -0.01324989 0.05427421
v 0.02153611 -0.01339361 0.05457581
v 0.01441382 -0.01295429 0.05427421
v 0.01435733 -0.01291357 0.05457581
v 0.02151226 -0.01344799 0.05427421
v 0.02105903 -0.01355195 0.05457581
v 0.01477038 -0.01311862 0.05427421
v 0.01477038 -0.01311407 0.05457581
v 0.02099375 -0.01361279 0.05427421
v 0.02072257 -0.01364848 0.05457581
v 0.01516208 -0.01328318 0.05427421
v 0.01517966 -0.01328342 0.05457581
v 0.02066984 -0.01370070 0.05427421
v 0.02027185 -0.01375628 0.05457581
v 0.01550483 -0.01342020 0.05427421
v 0.01561405 -0.01345445 0.05457581
v 0.02024800 -0.01379628 0.05427421
v 0.01982616 -0.01384107 0.05453787
v 0.01687831 -0.01378310 0.05457581
v 0.01609867 -0.01361998 0.05427421
v 0.01618278 -0.01363004 0.05455741
v 0.01982616 -0.01386838 0.05427421
v 0.01898374 -0.01395222 0.05440606
v 0.01940432 -0.01391294 0.05440606
v 0.01856190 -0.01396324 0.05440606
v 0.01643890 -0.01370430 0.05427421
v 0.01697624 -0.01381688 0.05427421
v 0.01730015 -0.01387197 0.05440606
v 0.01772073 -0.01392539 0.05440606
v 0.01814257 -0.01395222 0.05440606
f 1 2 3
f 1 3 4
f 1 4 5
f 1 5 10
f 1 10 15
f 1 15 19
f 1 19 23
f 1 23 27
f 1 27 31
f 1 31 35
f 1 35 40
f 1 40 45
f 1 45 44
f 1 44 38
f 1 38 33
f 1 33 29
f 1 29 25
f 1 25 21
f 1 21 16
f 1 16 11
f 1 11 6
f 1 6 7
f 1 7 2
f 2 7 12
f 2 12 18
f 2 18 17
f 2 17 22
f 2 22 26
f 2 26 30
f 2 30 34
f 2 34 37
f 2 37 32
f 2 32 28
f 2 28 24
f 2 24 20
f 2 20 13
f 2 13 9
f 2 9 8
f 2 8 4
f 2 4 3
f 4 8 5
f 5 8 9
f 5 9 10
f 6 11 7
f 7 11 12
f 9 13 14
f 9 14 10
f 10 14 15
f 11 16 17
f 11 17 18
f 11 18 12
f 13 19 15
f 13 15 14
f 13 20 19
f 16 21 22
f 16 22 17
f 19 20 23
f 20 24 23
f 21 25 26
f 21 26 22
f 23 24 27
f 24 28 27
f 25 29 26
f 26 29 30
f 27 28 31
f 28 32 31
f 29 33 30
f 30 33 34
f 31 32 35
f 32 36 35
f 32 37 36
f 33 38 34
f 34 38 39
f 34 39 37
f 35 36 40
f 36 41 42
f 36 42 40
f 36 37 43
f 36 43 41
f 37 39 44
f 37 44 45
f 37 45 46
f 37 46 47
f 37 47 48
f 37 48 43
f 38 44 39
f 40 42 41
f 40 41 43
f 40 43 45
f 43 48 45
f 45 48 47
f 45 47 46

