# https://github.com/mikedh/trimesh
v 0.00982867 0.00388259 0.05616561
v 0.02491211 0.00387067 0.05650256
v 0.02518340 0.00377962 0.05617146
v 0.02572597 0.00298459 0.05616542
v 0.00931978 0.00300464 0.05616542
v 0.00952184 0.00339430 0.05617051
v 0.00973512 0.00386633 0.05655394
v 0.02520024 0.00340622 0.05655394
v 0.02547901 0.00322304 0.05630921
v 0.02564178 0.00274071 0.05655097
v 0.02594674 0.00260414 0.05616542
v 0.00917384 0.00266755 0.05616542
v 0.00907655 0.00261390 0.05655394
v 0.00925055 0.00300301 0.05655394
v 0.00949377 0.00345608 0.05655394
v 0.02611325 0.00179827 0.05655394
v 0.02593738 0.00227355 0.05647464
v 0.02616190 0.00215216 0.05617724
v 0.02668014 0.00090514 0.05616777
v 0.02679801 0.00053770 0.05616542
v 0.00898301 0.00219822 0.05616542
v 0.00888385 0.00213590 0.05655394
v 0.02644815 0.00096855 0.05655394
v 0.02642383 0.00136525 0.05632187
v 0.02631905 0.00175058 0.05622277
v 0.02660531 0.00050194 0.05655394
v 0.02671569 0.00011065 0.05655394
v 0.02692149 0.00009927 0.05616542
v 0.00880153 0.00173865 0.05616542
v 0.00863876 0.00147148 0.05653793
v 0.00846850 0.00089701 0.05655394
v 0.02681859 -0.00026654 0.05655394
v 0.02704123 -0.00035542 0.05617051
v 0.02712730 -0.00074671 0.05616542
v 0.00853398 0.00087696 0.05616542
v 0.00865747 0.00132678 0.05617561
v 0.00843483 0.00045533 0.05616542
v 0.00836934 0.00044937 0.05655394
v 0.02693272 -0.00075971 0.05655394
v 0.02700569 -0.00115425 0.05655394
v 0.02721710 -0.00127944 0.05616542
v 0.00834876 0.00005429 0.05616542
v 0.00828889 0.00004508 0.05655394
v 0.02708052 -0.00164254 0.05655394
v 0.02727136 -0.00165392 0.05616542
v 0.00815793 -0.00165067 0.05640368
v 0.00824586 -0.00037818 0.05639961
v 0.00817851 -0.00081770 0.05655394
f 1 2 3
f 1 3 4
f 1 4 5
f 1 5 6
f 1 6 7
f 1 7 2
f 2 7 8
f 2 8 3
f 3 8 9
f 3 9 4
f 4 9 10
f 4 10 11
f 4 11 20
f 4 20 28
f 4 28 34
f 4 34 41
f 4 41 45
f 4 45 42
f 4 42 37
f 4 37 35
f 4 35 29
f 4 29 21
f 4 21 12
f 4 12 5
f 5 12 13
f 5 13 14
f 5 14 6
f 6 15 7
f 6 14 15
f 7 15 14
f 7 14 13
f 7 13 22
f 7 22 31
f 7 31 38
f 7 38 43
f 7 43 48
f 7 48 44
f 7 44 40
f 7 40 39
f 7 39 32
f 7 32 27
f 7 27 26
f 7 26 23
f 7 23 16
f 7 16 8
f 8 16 10
f 8 10 9
f 10 16 17
f 10 17 11
f 11 17 18
f 11 18 19
f 11 19 20
f 12 21 13
f 13 21 22
f 16 23 24
f 16 24 25
f 16 25 18
f 16 18 17
f 18 25 19
f 19 25 24
f 19 24 23
f 19 23 26
f 19 26 20
f 20 26 27
f 20 27 28
f 21 29 22
f 22 29 30
f 22 30 31
f 27 32 28
f 28 32 33
f 28 33 34
f 29 35 36
f 29 36 30
f 30 36 31
f 31 36 35
f 31 35 37
f 31 37 38
f 32 39 33
f 33 39 34
f 34 39 40
f 34 40 41
f 37 42 38
f 38 42 43
f 40 44 41
f 41 44 45
f 42 46 47
f 42 47 43
f 42 45 46
f 43 47 48
f 44 48 46
f 44 46 45
f 46 48 47

