# https://github.com/mikedh/trimesh
v 0.02224555 0.00689097 0.05576468
v 0.02219974 0.00689097 0.05582733
v 0.02225846 0.00667349 0.05616538
v 0.02235242 0.00681290 0.05576468
v 0.01277981 0.00689097 0.05576468
v 0.02195429 0.00689097 0.05615463
v 0.02236416 0.00680415 0.05576468
v 0.02194607 0.00689097 0.05616538
v 0.02277638 0.00628386 0.05616538
v 0.02310169 0.00624971 0.05576468
v 0.02280691 0.00647133 0.05576468
v 0.01266355 0.00681130 0.05576468
v 0.01276807 0.00689097 0.05600851
v 0.01276102 0.00689097 0.05616538
v 0.02320386 0.00596130 0.05616538
v 0.02331191 0.00609149 0.05576468
v 0.01239813 0.00662561 0.05576468
v 0.01267529 0.00683237 0.05616538
v 0.02324497 0.00593007 0.05616538
v 0.02331073 0.00593007 0.05607167
v 0.02352330 0.00593007 0.05576468
v 0.01238873 0.00663144 0.05616538
v 0.01218791 0.00646400 0.05576468
v 0.01217852 0.00647566 0.05616538
v 0.01152789 0.00593007 0.05616538
v 0.01156195 0.00593007 0.05576468
v 0.01192484 0.00625357 0.05576468
v 0.01191075 0.00626504 0.05616538
v 0.01169936 0.00608584 0.05616538
v 0.01153494 0.00593007 0.05606861
v 0.01153611 0.00593007 0.05605280
v 0.01171462 0.00607051 0.05576468
v 0.01190018 0.00625620 0.05616538
f 1 2 3
f 1 3 4
f 1 4 7
f 1 7 11
f 1 11 10
f 1 10 16
f 1 16 21
f 1 21 26
f 1 26 32
f 1 32 27
f 1 27 23
f 1 23 17
f 1 17 12
f 1 12 5
f 1 5 13
f 1 13 14
f 1 14 8
f 1 8 6
f 1 6 2
f 2 6 3
f 3 7 4
f 3 6 8
f 3 8 14
f 3 14 18
f 3 18 22
f 3 22 24
f 3 24 28
f 3 28 33
f 3 33 29
f 3 29 25
f 3 25 19
f 3 19 15
f 3 15 9
f 3 9 10
f 3 10 11
f 3 11 7
f 5 12 13
f 9 15 16
f 9 16 10
f 12 17 18
f 12 18 13
f 13 18 14
f 15 19 20
f 15 20 16
f 16 20 21
f 17 22 18
f 17 23 24
f 17 24 22
f 19 25 30
f 19 30 31
f 19 31 26
f 19 26 21
f 19 21 20
f 23 27 28
f 23 28 24
f 25 29 30
f 26 31 32
f 27 33 28
f 27 32 29
f 27 29 33
f 29 32 31
f 29 31 30

