# https://github.com/mikedh/trimesh
v 0.02708308 -0.00165392 0.05655394
v 0.02716395 -0.00255949 0.05655394
v 0.02728996 -0.00226776 0.05624467
v 0.02727115 -0.00166000 0.05616542
v 0.00815931 -0.00166203 0.05640250
v 0.00828155 -0.00456712 0.05655394
v 0.02700785 -0.00538760 0.05655394
v 0.02726739 -0.00373956 0.05635968
v 0.02731817 -0.00305076 0.05625384
v 0.02719404 -0.00530150 0.05616542
v 0.00815743 -0.00205403 0.05616542
v 0.00810477 -0.00248149 0.05636219
v 0.00811981 -0.00311761 0.05636473
v 0.00820632 -0.00396645 0.05636340
v 0.00846586 -0.00524680 0.05635968
v 0.00868779 -0.00609868 0.05634321
v 0.00902632 -0.00710047 0.05655394
v 0.02691005 -0.00603689 0.05655394
v 0.02712069 -0.00585254 0.05616542
v 0.02723542 -0.00432706 0.05632412
v 0.01410801 -0.01200206 0.05616542
v 0.00993094 -0.00878397 0.05617561
v 0.00889091 -0.00670340 0.05636473
v 0.00922755 -0.00753401 0.05635968
v 0.00946829 -0.00802832 0.05636348
v 0.01007388 -0.00906860 0.05655394
v 0.02696083 -0.00646131 0.05616542
v 0.02661854 -0.00705388 0.05655394
v 0.02356802 -0.01183391 0.05643802
v 0.01270124 -0.01192609 0.05636249
v 0.01127377 -0.01058598 0.05617561
v 0.02464191 -0.01086656 0.05616542
v 0.01037479 -0.00952037 0.05637181
v 0.00968457 -0.00840007 0.05635968
v 0.01077350 -0.01004608 0.05635968
v 0.01137345 -0.01075109 0.05655394
v 0.02644739 -0.00759985 0.05655394
v 0.02661666 -0.00752084 0.05616542
v 0.02400434 -0.01147432 0.05635507
v 0.02433911 -0.01114309 0.05635682
v 0.02474723 -0.01060523 0.05649400
v 0.01221413 -0.01155232 0.05636219
v 0.01170634 -0.01107320 0.05626764
v 0.02561612 -0.00957406 0.05616542
v 0.02508199 -0.01028109 0.05625490
v 0.02563681 -0.00933703 0.05654979
v 0.02628565 -0.00815392 0.05637538
v 0.02592079 -0.00900884 0.05625566
f 1 2 3
f 1 3 4
f 1 4 5
f 1 5 6
f 1 6 17
f 1 17 26
f 1 26 36
f 1 36 37
f 1 37 28
f 1 28 18
f 1 18 7
f 1 7 2
f 2 7 8
f 2 8 9
f 2 9 3
f 3 9 4
f 4 9 10
f 4 10 19
f 4 19 27
f 4 27 38
f 4 38 44
f 4 44 32
f 4 32 21
f 4 21 11
f 4 11 5
f 5 11 12
f 5 12 6
f 6 12 13
f 6 13 14
f 6 14 15
f 6 15 16
f 6 16 17
f 7 18 19
f 7 19 10
f 7 10 20
f 7 20 8
f 8 20 10
f 8 10 9
f 11 21 22
f 11 22 16
f 11 16 15
f 11 15 14
f 11 14 13
f 11 13 12
f 16 23 17
f 16 22 23
f 17 23 24
f 17 24 25
f 17 25 26
f 18 27 19
f 18 28 27
f 21 29 30
f 21 30 31
f 21 31 22
f 21 32 29
f 22 31 33
f 22 33 26
f 22 26 34
f 22 34 25
f 22 25 24
f 22 24 23
f 25 34 26
f 26 33 35
f 26 35 36
f 27 28 37
f 27 37 38
f 29 39 40
f 29 40 41
f 29 41 36
f 29 36 30
f 29 32 39
f 30 36 42
f 30 42 43
f 30 43 31
f 31 35 33
f 31 43 36
f 31 36 35
f 32 44 45
f 32 45 41
f 32 41 40
f 32 40 39
f 36 43 42
f 36 41 46
f 36 46 37
f 37 46 47
f 37 47 38
f 38 47 48
f 38 48 44
f 41 45 46
f 44 48 46
f 44 46 45
f 46 48 47

