# https://github.com/mikedh/trimesh
v 0.01152250 0.00590676 0.05594087
v 0.01117785 0.00554720 0.05576472
v 0.01115999 0.00557410 0.05616538
v 0.02337103 0.00585690 0.05612019
v 0.02356389 0.00589823 0.05576472
v 0.01086713 0.00520141 0.05576472
v 0.01074748 0.00512465 0.05616538
v 0.02367461 0.00556688 0.05616538
v 0.02389425 0.00561741 0.05576472
v 0.01030640 0.00452690 0.05576472
v 0.01027782 0.00455971 0.05616538
v 0.02395676 0.00528934 0.05616538
v 0.02431212 0.00519617 0.05576472
v 0.01003853 0.00413847 0.05576472
v 0.00989389 0.00401184 0.05614604
v 0.00939030 0.00314836 0.05616538
v 0.02430141 0.00495602 0.05612109
v 0.02486392 0.00423689 0.05616538
v 0.02459070 0.00461089 0.05613510
v 0.02469606 0.00476836 0.05576472
v 0.00921172 0.00258145 0.05576472
v 0.00947245 0.00317592 0.05577739
v 0.00907422 0.00242726 0.05616538
v 0.02563537 0.00312146 0.05616538
v 0.02512107 0.00391998 0.05611737
v 0.02509429 0.00426970 0.05576472
v 0.00901351 -0.00079503 0.05576480
v 0.00901351 0.00211100 0.05577107
v 0.01084927 -0.00079635 0.05576472
v 0.00901351 -0.00079635 0.05616538
v 0.02569073 0.00341147 0.05576472
v 0.02616039 0.00217137 0.05616538
v 0.02594431 0.00270481 0.05607701
v 0.02593716 0.00303681 0.05576472
v 0.02539608 0.00384255 0.05576472
v 0.02725684 -0.00072942 0.05590980
v 0.02723184 -0.00027209 0.05576472
v 0.02704791 -0.00036723 0.05616538
v 0.02620146 0.00255455 0.05576472
v 0.02650504 0.00137744 0.05616538
v 0.02635860 0.00186626 0.05606195
v 0.02636039 0.00219958 0.05579049
v 0.02708898 0.00026791 0.05576472
v 0.02689790 0.00018917 0.05616538
v 0.02662468 0.00162940 0.05576472
v 0.02676933 0.00069178 0.05613074
v 0.02689076 0.00092536 0.05576472
v 0.02675504 0.00127246 0.05578398
f 1 2 3
f 1 3 4
f 1 4 5
f 1 5 2
f 2 6 7
f 2 7 3
f 2 5 9
f 2 9 13
f 2 13 20
f 2 20 26
f 2 26 35
f 2 35 31
f 2 31 34
f 2 34 39
f 2 39 45
f 2 45 47
f 2 47 43
f 2 43 37
f 2 37 29
f 2 29 21
f 2 21 14
f 2 14 10
f 2 10 6
f 3 8 4
f 3 7 11
f 3 11 16
f 3 16 23
f 3 23 30
f 3 30 38
f 3 38 44
f 3 44 40
f 3 40 32
f 3 32 24
f 3 24 18
f 3 18 12
f 3 12 8
f 4 8 9
f 4 9 5
f 6 10 11
f 6 11 7
f 8 12 9
f 9 12 13
f 10 14 15
f 10 15 11
f 11 15 16
f 12 17 13
f 12 18 19
f 12 19 17
f 13 17 20
f 14 21 22
f 14 22 15
f 15 22 16
f 16 21 23
f 16 22 21
f 17 19 20
f 18 24 25
f 18 25 26
f 18 26 19
f 19 26 20
f 21 27 28
f 21 28 23
f 21 29 27
f 23 28 30
f 24 31 25
f 24 32 33
f 24 33 34
f 24 34 31
f 25 35 26
f 25 31 35
f 27 30 28
f 27 29 30
f 29 36 30
f 29 37 36
f 30 36 38
f 32 39 33
f 32 40 41
f 32 41 42
f 32 42 39
f 33 39 34
f 36 37 38
f 37 43 38
f 38 43 44
f 39 42 45
f 40 44 46
f 40 46 47
f 40 47 48
f 40 48 45
f 40 45 41
f 41 45 42
f 43 47 46
f 43 46 44
f 45 48 47

