# https://github.com/mikedh/trimesh
v 0.02767837 0.00310503 0.05376049
v 0.02754064 0.00139729 0.05427418
v 0.02771772 0.00085172 0.05427418
v 0.02789087 0.00020920 0.05427418
v 0.02802663 -0.00040175 0.05427418
v 0.02830800 -0.00021125 0.05376049
v 0.00901565 0.00130711 0.05376049
v 0.00957641 0.00305543 0.05399577
v 0.02689920 0.00296751 0.05427418
v 0.02729075 0.00207475 0.05427418
v 0.02812108 -0.00096085 0.05427418
v 0.02844180 -0.00114459 0.05376049
v 0.00874805 0.00031854 0.05376049
v 0.00886414 0.00089568 0.05396846
v 0.00872051 0.00047410 0.05427418
v 0.02822339 -0.00192012 0.05427418
v 0.02850083 -0.00177358 0.05376049
v 0.00856900 -0.00054153 0.05376049
v 0.00857097 -0.00025972 0.05422526
v 0.00846668 -0.00095184 0.05422526
v 0.00843127 -0.00331562 0.05427418
v 0.02825881 -0.00273397 0.05427418
v 0.02853231 -0.00237890 0.05376049
v 0.00850800 -0.00121110 0.05376049
v 0.00848636 -0.00195055 0.05376049
v 0.00845291 -0.00268550 0.05396846
v 0.00853555 -0.00389726 0.05376049
v 0.00847456 -0.00389952 0.05427418
v 0.02823914 -0.00347455 0.05427418
v 0.02853231 -0.00310595 0.05376049
v 0.00864574 -0.00471337 0.05376049
v 0.00856310 -0.00448342 0.05422526
v 0.00865951 -0.00499630 0.05427418
v 0.02818011 -0.00424445 0.05427418
v 0.02848115 -0.00394799 0.05376049
v 0.00883856 -0.00563431 0.05376049
v 0.00879134 -0.00563431 0.05427418
v 0.02833358 -0.00522062 0.05376049
v 0.02802270 -0.00542690 0.05427418
v 0.00962757 -0.00841065 0.05396595
v 0.02769017 -0.00841065 0.05376049
v 0.00898220 -0.00628472 0.05427418
v 0.02822733 -0.00584623 0.05376049
v 0.02791448 -0.00591724 0.05427418
v 0.02703103 -0.00839487 0.05427418
v 0.02777478 -0.00641096 0.05427418
v 0.02755047 -0.00710871 0.05427418
v 0.02733601 -0.00769487 0.05427418
f 1 2 3
f 1 3 4
f 1 4 5
f 1 5 6
f 1 6 12
f 1 12 17
f 1 17 23
f 1 23 30
f 1 30 35
f 1 35 38
f 1 38 43
f 1 43 41
f 1 41 36
f 1 36 31
f 1 31 27
f 1 27 25
f 1 25 24
f 1 24 18
f 1 18 13
f 1 13 7
f 1 7 8
f 1 8 9
f 1 9 10
f 1 10 2
f 2 10 9
f 2 9 15
f 2 15 21
f 2 21 28
f 2 28 33
f 2 33 37
f 2 37 42
f 2 42 45
f 2 45 48
f 2 48 47
f 2 47 46
f 2 46 44
f 2 44 39
f 2 39 34
f 2 34 29
f 2 29 22
f 2 22 16
f 2 16 11
f 2 11 5
f 2 5 4
f 2 4 3
f 5 11 6
f 6 11 12
f 7 13 14
f 7 14 8
f 8 14 15
f 8 15 9
f 11 16 12
f 12 16 17
f 13 15 14
f 13 18 19
f 13 19 15
f 15 19 20
f 15 20 21
f 16 22 23
f 16 23 17
f 18 24 20
f 18 20 19
f 20 24 25
f 20 25 26
f 20 26 21
f 21 26 27
f 21 27 28
f 22 29 30
f 22 30 23
f 25 27 26
f 27 31 28
f 28 32 33
f 28 31 32
f 29 34 35
f 29 35 30
f 31 33 32
f 31 36 37
f 31 37 33
f 34 38 35
f 34 39 38
f 36 40 37
f 36 41 40
f 37 40 42
f 38 39 43
f 39 44 41
f 39 41 43
f 40 45 42
f 40 41 45
f 41 44 46
f 41 46 47
f 41 47 48
f 41 48 45

