# https://github.com/mikedh/trimesh
v 0.01643596 0.00767437 0.05875294
v 0.01645064 0.00759785 0.05914481
v 0.01685710 0.00765632 0.05875294
v 0.01601548 0.00766583 0.05875294
v 0.01603016 0.00760654 0.05914481
v 0.01687178 0.00756323 0.05914481
v 0.01728025 0.00761315 0.05875294
v 0.01559434 0.00764904 0.05875294
v 0.01560902 0.00759324 0.05914481
v 0.01734899 0.00750231 0.05914481
v 0.01770339 0.00755312 0.05875294
v 0.01517253 0.00762125 0.05875294
v 0.01518721 0.00757125 0.05914481
v 0.01768804 0.00744882 0.05914481
v 0.01771941 0.00746613 0.05906218
v 0.01798371 0.00744191 0.05896988
v 0.01810785 0.00747423 0.05875294
v 0.01475472 0.00755981 0.05875294
v 0.01476874 0.00752229 0.05914025
v 0.01442368 0.00745625 0.05914481
v 0.01783087 0.00742163 0.05914481
v 0.01811986 0.00734971 0.05914481
v 0.01826469 0.00740610 0.05885249
v 0.01832943 0.00741888 0.05875294
v 0.01427551 0.00745766 0.05875294
v 0.01415604 0.00742504 0.05885702
v 0.01421144 0.00741204 0.05914481
v 0.01855769 0.00720484 0.05914481
v 0.01854301 0.00735187 0.05875294
v 0.01847827 0.00737274 0.05875294
v 0.01401388 0.00738909 0.05875294
v 0.01392311 0.00733790 0.05914481
v 0.01896082 0.00704400 0.05914481
v 0.01894480 0.00720551 0.05875294
v 0.01394047 0.00736710 0.05875294
v 0.01350264 0.00720662 0.05914481
v 0.01927651 0.00691547 0.05914481
v 0.01936995 0.00703293 0.05875294
v 0.01349062 0.00720722 0.05875294
v 0.01315691 0.00707052 0.05914481
v 0.01936995 0.00691547 0.05904580
v 0.01282454 0.00691547 0.05914481
v 0.01964292 0.00691547 0.05875294
v 0.01317493 0.00706658 0.05875294
v 0.01294334 0.00697193 0.05914025
v 0.01285324 0.00691547 0.05887190
v 0.01286658 0.00691547 0.05875294
v 0.01293800 0.00695061 0.05875294
f 1 2 3
f 1 3 7
f 1 7 11
f 1 11 17
f 1 17 24
f 1 24 30
f 1 30 29
f 1 29 34
f 1 34 38
f 1 38 43
f 1 43 47
f 1 47 48
f 1 48 44
f 1 44 39
f 1 39 35
f 1 35 31
f 1 31 25
f 1 25 18
f 1 18 12
f 1 12 8
f 1 8 4
f 1 4 5
f 1 5 2
f 2 6 3
f 2 5 9
f 2 9 13
f 2 13 20
f 2 20 27
f 2 27 32
f 2 32 36
f 2 36 40
f 2 40 42
f 2 42 37
f 2 37 33
f 2 33 28
f 2 28 22
f 2 22 21
f 2 21 14
f 2 14 10
f 2 10 6
f 3 6 7
f 4 8 9
f 4 9 5
f 6 10 7
f 7 10 11
f 8 12 13
f 8 13 9
f 10 14 11
f 11 14 15
f 11 15 16
f 11 16 17
f 12 18 19
f 12 19 13
f 13 19 20
f 14 21 16
f 14 16 15
f 16 21 22
f 16 22 23
f 16 23 17
f 17 23 24
f 18 20 19
f 18 25 26
f 18 26 27
f 18 27 20
f 22 28 29
f 22 29 30
f 22 30 23
f 23 30 24
f 25 31 26
f 26 31 32
f 26 32 27
f 28 33 34
f 28 34 29
f 31 35 32
f 32 35 36
f 33 37 38
f 33 38 34
f 35 39 36
f 36 39 40
f 37 41 38
f 37 42 46
f 37 46 47
f 37 47 43
f 37 43 41
f 38 41 43
f 39 44 40
f 40 45 42
f 40 44 45
f 42 45 44
f 42 44 46
f 44 48 46
f 46 48 47

