# https://github.com/mikedh/trimesh
v 0.01808597 0.00865037 0.05427421
v 0.01765289 0.00863785 0.05427421
v 0.01770271 0.00858227 0.05453787
v 0.01812142 0.00858654 0.05453787
v 0.01849700 0.00863785 0.05427421
v 0.01729263 0.00861372 0.05427421
v 0.01728114 0.00855784 0.05453787
v 0.01852383 0.00855540 0.05457581
v 0.01889654 0.00860548 0.05427421
v 0.01708760 0.00859632 0.05427421
v 0.01685956 0.00852181 0.05453787
v 0.01641786 0.00845707 0.05455682
v 0.01984988 0.00835538 0.05457581
v 0.01938615 0.00846012 0.05453787
v 0.01896457 0.00852272 0.05453787
v 0.01515409 0.00812391 0.05457581
v 0.01916865 0.00857464 0.05427421
v 0.01678004 0.00855937 0.05427421
v 0.01645619 0.00850776 0.05427421
v 0.01601832 0.00837951 0.05453787
v 0.01547411 0.00823140 0.05455682
v 0.02016606 0.00838592 0.05427421
v 0.01984317 0.00845829 0.05427421
v 0.02020918 0.00826896 0.05457581
v 0.01938519 0.00854227 0.05427421
v 0.01963047 0.00850043 0.05427421
v 0.01312382 0.00750524 0.05430902
v 0.01474976 0.00797154 0.05457581
v 0.01626073 0.00846837 0.05427421
v 0.01595988 0.00839874 0.05427421
v 0.01571460 0.00830316 0.05453787
v 0.01564944 0.00831324 0.05427421
v 0.01545686 0.00825553 0.05427421
v 0.02047266 0.00830836 0.05427421
v 0.02060872 0.00815384 0.05457581
v 0.01356647 0.00748051 0.05457581
v 0.01312382 0.00553105 0.05427421
v 0.01312382 0.00724293 0.05457581
v 0.02078885 0.00821400 0.05427421
v 0.02104946 0.00800879 0.05457581
v 0.02291206 0.00754128 0.05427421
v 0.01312382 0.00553105 0.05457581
v 0.02291206 0.00553105 0.05427421
v 0.02138384 0.00788390 0.05457581
v 0.02291206 0.00722736 0.05453823
v 0.02223945 0.00750616 0.05457581
v 0.02250390 0.00738340 0.05457581
v 0.02291206 0.00553105 0.05457581
f 1 2 3
f 1 3 4
f 1 4 5
f 1 5 9
f 1 9 17
f 1 17 25
f 1 25 26
f 1 26 23
f 1 23 22
f 1 22 34
f 1 34 39
f 1 39 41
f 1 41 43
f 1 43 37
f 1 37 33
f 1 33 32
f 1 32 30
f 1 30 29
f 1 29 19
f 1 19 18
f 1 18 10
f 1 10 6
f 1 6 2
f 2 6 7
f 2 7 3
f 3 7 8
f 3 8 4
f 4 8 5
f 5 8 9
f 6 10 7
f 7 10 11
f 7 11 12
f 7 12 8
f 8 13 14
f 8 14 15
f 8 15 9
f 8 12 16
f 8 16 28
f 8 28 36
f 8 36 38
f 8 38 42
f 8 42 48
f 8 48 47
f 8 47 46
f 8 46 44
f 8 44 40
f 8 40 35
f 8 35 24
f 8 24 13
f 9 15 17
f 10 18 11
f 11 18 12
f 12 18 19
f 12 19 20
f 12 20 21
f 12 21 16
f 13 22 23
f 13 23 14
f 13 24 22
f 14 25 17
f 14 17 15
f 14 23 26
f 14 26 25
f 16 21 27
f 16 27 28
f 19 29 20
f 20 29 30
f 20 30 31
f 20 31 21
f 21 31 32
f 21 32 33
f 21 33 27
f 22 24 34
f 24 35 34
f 27 36 28
f 27 33 37
f 27 37 42
f 27 42 38
f 27 38 36
f 30 32 31
f 34 35 39
f 35 40 41
f 35 41 39
f 37 43 48
f 37 48 42
f 40 44 41
f 41 45 48
f 41 48 43
f 41 44 46
f 41 46 47
f 41 47 45
f 45 47 48

