# https://github.com/mikedh/trimesh
v 0.00810913 -0.00204137 0.05655401
v 0.00807913 -0.00247512 0.05655401
v 0.00802850 -0.00227632 0.05695935
v 0.02693921 -0.00204215 0.05695935
v 0.02712673 -0.00205158 0.05655401
v 0.00837915 -0.00503127 0.05658060
v 0.00816726 -0.00415748 0.05675666
v 0.00811100 -0.00374730 0.05676996
v 0.00807350 -0.00333555 0.05675666
v 0.00803975 -0.00290337 0.05676996
v 0.00865479 -0.00607401 0.05655401
v 0.00833227 -0.00506428 0.05695935
v 0.02698609 -0.00266764 0.05695935
v 0.02715860 -0.00255920 0.05656505
v 0.02718485 -0.00299217 0.05655401
v 0.00847853 -0.00543752 0.05658060
v 0.00824414 -0.00457866 0.05679932
v 0.00885731 -0.00668849 0.05655401
v 0.00874105 -0.00651797 0.05695935
v 0.00855916 -0.00590192 0.05695935
v 0.00844853 -0.00549646 0.05695935
v 0.02701234 -0.00327819 0.05695935
v 0.02716798 -0.00357679 0.05659683
v 0.02712485 -0.00435943 0.05656151
v 0.02697859 -0.00562061 0.05655401
v 0.00910107 -0.00741141 0.05695935
v 0.00920608 -0.00753635 0.05655401
v 0.02700672 -0.00369937 0.05695935
v 0.02696734 -0.00416770 0.05695935
v 0.02676482 -0.00599779 0.05692991
v 0.02686796 -0.00622409 0.05655401
v 0.00950235 -0.00817990 0.05695935
v 0.00946110 -0.00804632 0.05655401
v 0.02652856 -0.00686372 0.05695935
v 0.02659981 -0.00711360 0.05655401
v 0.00996363 -0.00888789 0.05655401
v 0.01027491 -0.00941751 0.05676662
v 0.01074369 -0.01006893 0.05675690
v 0.02532097 -0.00962024 0.05695935
v 0.02618541 -0.00791745 0.05695935
v 0.02635980 -0.00749156 0.05689753
v 0.02638980 -0.00774772 0.05656259
v 0.02614791 -0.00832370 0.05655401
v 0.02509221 -0.01003907 0.05677646
v 0.02593039 -0.00878260 0.05656731
v 0.02559099 -0.00930986 0.05673702
v 0.02580288 -0.00876217 0.05695935
v 0.02599602 -0.00835592 0.05695935
f 1 2 3
f 1 3 4
f 1 4 5
f 1 5 15
f 1 15 25
f 1 25 31
f 1 31 35
f 1 35 43
f 1 43 36
f 1 36 33
f 1 33 27
f 1 27 18
f 1 18 11
f 1 11 2
f 2 6 7
f 2 7 8
f 2 8 9
f 2 9 10
f 2 10 3
f 2 11 6
f 3 10 8
f 3 8 12
f 3 12 21
f 3 21 20
f 3 20 19
f 3 19 26
f 3 26 32
f 3 32 39
f 3 39 47
f 3 47 48
f 3 48 40
f 3 40 34
f 3 34 29
f 3 29 28
f 3 28 22
f 3 22 13
f 3 13 4
f 4 13 5
f 5 13 14
f 5 14 15
f 6 16 12
f 6 12 17
f 6 17 7
f 6 11 16
f 7 17 12
f 7 12 8
f 8 10 9
f 11 18 19
f 11 19 20
f 11 20 21
f 11 21 16
f 12 16 21
f 13 22 15
f 13 15 14
f 15 22 23
f 15 23 24
f 15 24 25
f 18 26 19
f 18 27 26
f 22 28 23
f 23 28 24
f 24 28 29
f 24 29 30
f 24 30 25
f 25 30 31
f 26 27 33
f 26 33 32
f 29 34 30
f 30 34 31
f 31 34 35
f 32 33 36
f 32 36 37
f 32 37 38
f 32 38 39
f 34 40 41
f 34 41 35
f 35 41 42
f 35 42 43
f 36 44 38
f 36 38 37
f 36 43 45
f 36 45 44
f 38 44 39
f 39 46 47
f 39 44 46
f 40 42 41
f 40 48 43
f 40 43 42
f 43 48 45
f 44 45 46
f 45 48 47
f 45 47 46

