# https://github.com/mikedh/trimesh
v 0.02093612 -0.01352920 0.05499574
v 0.02099873 -0.01356729 0.05457581
v 0.02109158 -0.01347841 0.05501644
v 0.02095031 0.00787178 0.05501644
v 0.02093612 0.00804529 0.05457581
v 0.02151293 -0.01340012 0.05457581
v 0.02151509 -0.01334088 0.05496891
v 0.02176525 -0.01323719 0.05501644
v 0.02134297 0.00769827 0.05501644
v 0.02116314 0.00778503 0.05500855
v 0.02131151 0.00785062 0.05471982
v 0.02140528 0.00787390 0.05457581
v 0.02108387 0.00799451 0.05457581
v 0.02184545 -0.01327105 0.05457581
v 0.02203731 -0.01318641 0.05457581
v 0.02196297 -0.01315467 0.05496891
v 0.02235872 -0.01296212 0.05496891
v 0.02260949 -0.01282246 0.05501644
v 0.02148116 0.00763479 0.05501644
v 0.02224089 0.00750360 0.05457581
v 0.02235594 -0.01303406 0.05457581
v 0.02268784 -0.01286478 0.05457581
v 0.02288001 -0.01275898 0.05457581
v 0.02284670 -0.01269550 0.05496891
v 0.02318878 -0.01247544 0.05501644
v 0.02185131 0.00746340 0.05501644
v 0.02250616 0.00738087 0.05457581
v 0.02320235 -0.01256220 0.05457581
v 0.02344819 -0.01240350 0.05457581
v 0.02341981 -0.01238446 0.05474247
v 0.02336367 -0.01235906 0.05501644
v 0.02203361 0.00737664 0.05501644
v 0.02307125 0.00709099 0.05457581
v 0.02362401 -0.01227866 0.05457581
v 0.02359193 -0.01220671 0.05495731
v 0.02386707 -0.01198454 0.05501644
v 0.02234515 0.00719890 0.05501644
v 0.02260487 0.00702962 0.05501644
v 0.02277884 0.00690901 0.05501644
v 0.02327144 0.00695133 0.05457581
v 0.02394357 -0.01204378 0.05457581
v 0.02408731 -0.01192106 0.05459746
v 0.02404166 -0.01184488 0.05499341
v 0.02406202 0.00591874 0.05501644
v 0.02318631 0.00660008 0.05501644
v 0.02360488 0.00627634 0.05501644
v 0.02358669 0.00669953 0.05457581
v 0.02405770 0.00628480 0.05457581
f 1 2 3
f 1 3 4
f 1 4 5
f 1 5 2
f 2 6 3
f 2 5 13
f 2 13 12
f 2 12 20
f 2 20 27
f 2 27 33
f 2 33 40
f 2 40 47
f 2 47 48
f 2 48 41
f 2 41 34
f 2 34 29
f 2 29 28
f 2 28 23
f 2 23 22
f 2 22 21
f 2 21 15
f 2 15 14
f 2 14 6
f 3 6 7
f 3 7 8
f 3 8 18
f 3 18 25
f 3 25 31
f 3 31 36
f 3 36 44
f 3 44 46
f 3 46 45
f 3 45 39
f 3 39 38
f 3 38 37
f 3 37 32
f 3 32 26
f 3 26 19
f 3 19 9
f 3 9 4
f 4 9 10
f 4 10 11
f 4 11 12
f 4 12 13
f 4 13 5
f 6 14 8
f 6 8 7
f 8 15 16
f 8 16 17
f 8 17 18
f 8 14 15
f 9 19 10
f 10 19 20
f 10 20 11
f 11 20 12
f 15 21 16
f 16 21 17
f 17 21 22
f 17 22 18
f 18 23 24
f 18 24 25
f 18 22 23
f 19 26 27
f 19 27 20
f 23 28 24
f 24 28 25
f 25 29 30
f 25 30 31
f 25 28 29
f 26 32 27
f 27 32 33
f 29 34 30
f 30 34 31
f 31 34 35
f 31 35 36
f 32 37 33
f 33 37 38
f 33 38 39
f 33 39 40
f 34 41 35
f 35 41 36
f 36 41 42
f 36 42 43
f 36 43 44
f 39 45 40
f 40 45 46
f 40 46 44
f 40 44 47
f 41 48 42
f 42 48 44
f 42 44 43
f 44 48 47

