# https://github.com/mikedh/trimesh
v 0.01312254 0.00753930 0.05427421
v 0.01312254 0.00747167 0.05434380
v 0.01312254 0.00553094 0.05427421
v 0.01013457 0.00750332 0.05427421
v 0.01312254 0.00724321 0.05457581
v 0.01312254 0.00553094 0.05457581
v 0.00984235 0.00553094 0.05427421
v 0.00993676 0.00748858 0.05427421
v 0.01013457 0.00745830 0.05430704
v 0.01306249 0.00721568 0.05457581
v 0.00989309 0.00744827 0.05430114
v 0.01108089 0.00553094 0.05457581
v 0.00986900 0.00553094 0.05431044
v 0.00986900 0.00553231 0.05431056
v 0.00984235 0.00679631 0.05427421
v 0.00988185 0.00746675 0.05427421
v 0.01229278 0.00674205 0.05457581
v 0.00987029 0.00742035 0.05427421
v 0.00984781 0.00721784 0.05427421
v 0.00987318 0.00721784 0.05430879
v 0.01142288 0.00593084 0.05457581
v 0.01184739 0.00634451 0.05457581
v 0.00986900 0.00679631 0.05431056
f 1 2 5
f 1 5 6
f 1 6 3
f 1 3 7
f 1 7 15
f 1 15 19
f 1 19 18
f 1 18 16
f 1 16 8
f 1 8 4
f 1 4 2
f 2 4 5
f 3 6 12
f 3 12 13
f 3 13 7
f 4 8 9
f 4 9 5
f 5 10 17
f 5 17 22
f 5 22 21
f 5 21 12
f 5 12 6
f 5 9 11
f 5 11 10
f 7 13 14
f 7 14 23
f 7 23 15
f 8 16 11
f 8 11 9
f 10 11 17
f 11 16 18
f 11 18 19
f 11 19 20
f 11 20 12
f 11 12 21
f 11 21 22
f 11 22 17
f 12 20 23
f 12 23 14
f 12 14 13
f 15 23 19
f 19 23 20

