# https://github.com/mikedh/trimesh
v 0.02614993 -0.01090829 0.03766822
v 0.02588237 -0.01566942 0.03779776
v 0.02556641 -0.01090829 0.03780387
v 0.03415417 -0.01090829 0.03766822
v 0.03415417 -0.01511734 0.03766822
v 0.02593930 -0.01592166 0.03848687
v 0.02545445 -0.01581517 0.03869713
v 0.02537475 -0.01553889 0.03848687
v 0.03421394 -0.01566501 0.03777402
v 0.03352225 -0.01571948 0.03779098
v 0.02521914 -0.01090829 0.04459726
v 0.03474623 -0.01090829 0.03779437
v 0.03474433 -0.01448527 0.03779505
v 0.02572866 -0.01580781 0.03975113
v 0.02572866 -0.01586130 0.03911832
v 0.03352225 -0.01591921 0.03848687
v 0.03310098 -0.01586327 0.03922345
v 0.02614993 -0.01585443 0.03932926
v 0.02548102 -0.01578278 0.03954020
v 0.02522863 -0.01451423 0.04459726
v 0.03436480 -0.01565814 0.03840955
v 0.03471112 -0.01533621 0.03804600
v 0.03204779 -0.01538283 0.04459726
v 0.03416650 -0.01408336 0.04449077
v 0.03422058 -0.01090829 0.04423032
v 0.03491227 -0.01090829 0.03849094
v 0.03490563 -0.01448527 0.03848687
v 0.02614993 -0.01543976 0.04396309
v 0.02614993 -0.01538283 0.04459726
v 0.02570589 -0.01575579 0.04030255
v 0.03386952 -0.01581959 0.03898674
v 0.03341978 -0.01575776 0.04020624
v 0.03289129 -0.01570328 0.04101472
v 0.03289129 -0.01573616 0.04065253
v 0.02554649 -0.01531609 0.04459726
v 0.03390937 -0.01482290 0.04430086
v 0.03348715 -0.01531266 0.04324414
v 0.03483826 -0.01503932 0.03848687
v 0.03204779 -0.01543976 0.04396309
v 0.03246907 -0.01553398 0.04291044
v 0.03246907 -0.01547558 0.04354189
v 0.03296340 -0.01529303 0.04446907
v 0.03441509 -0.01436210 0.04249738
v 0.03463237 -0.01427475 0.04080378
v 0.03455741 -0.01385271 0.04143524
v 0.03476046 -0.01090829 0.03975113
v 0.03478608 -0.01427475 0.03953681
v 0.03479082 -0.01491418 0.03914206
f 1 2 3
f 1 3 11
f 1 11 25
f 1 25 46
f 1 46 26
f 1 26 12
f 1 12 4
f 1 4 5
f 1 5 2
f 2 6 7
f 2 7 8
f 2 8 3
f 2 5 9
f 2 9 10
f 2 10 6
f 3 8 11
f 4 12 5
f 5 12 13
f 5 13 9
f 6 14 15
f 6 15 7
f 6 10 16
f 6 16 17
f 6 17 18
f 6 18 14
f 7 19 20
f 7 20 8
f 7 15 19
f 8 20 11
f 9 21 16
f 9 16 10
f 9 13 22
f 9 22 21
f 11 20 35
f 11 35 29
f 11 29 23
f 11 23 24
f 11 24 25
f 12 26 13
f 13 26 27
f 13 27 22
f 14 18 28
f 14 28 29
f 14 29 30
f 14 30 19
f 14 19 15
f 16 31 32
f 16 32 33
f 16 33 17
f 16 21 31
f 17 33 34
f 17 34 18
f 18 34 28
f 19 35 20
f 19 30 35
f 21 36 37
f 21 37 31
f 21 22 36
f 22 27 38
f 22 38 36
f 23 29 28
f 23 28 39
f 23 39 40
f 23 40 41
f 23 41 42
f 23 42 24
f 24 42 36
f 24 36 43
f 24 43 44
f 24 44 45
f 24 45 25
f 25 45 46
f 26 46 45
f 26 45 47
f 26 47 27
f 27 47 44
f 27 44 43
f 27 43 48
f 27 48 38
f 28 34 39
f 29 35 30
f 31 37 42
f 31 42 32
f 32 42 41
f 32 41 33
f 33 41 40
f 33 40 34
f 34 40 39
f 36 38 48
f 36 48 43
f 36 42 37
f 44 47 45

