# https://github.com/mikedh/trimesh
v 0.03305523 0.00299269 0.05180982
v 0.03246180 0.00299269 0.05208320
v 0.03306003 -0.00796186 0.05180892
v 0.00976738 0.00299269 0.05155776
v 0.03200051 0.00299269 0.05224562
v 0.02881234 -0.00120616 0.05338918
v 0.02882195 -0.00226043 0.05338918
v 0.02882435 -0.00289643 0.05338918
v 0.03162571 -0.00796186 0.05237613
v 0.00968570 -0.00796186 0.05239316
v 0.00974576 -0.00795864 0.05176016
v 0.00975777 -0.00689901 0.05155776
v 0.00902980 0.00105468 0.05274435
v 0.00897935 0.00107291 0.05335064
v 0.00969050 0.00299269 0.05239370
v 0.00975777 0.00195343 0.05155776
v 0.00861657 -0.00268622 0.05227592
v 0.00862858 -0.00181320 0.05228004
v 0.00885922 0.00005296 0.05239316
v 0.00899136 0.00065999 0.05233472
v 0.02975173 0.00299269 0.05303226
v 0.00961122 0.00299269 0.05338918
v 0.02890844 0.00299269 0.05332644
v 0.02881474 -0.00394855 0.05338918
v 0.02975173 -0.00796186 0.05303226
v 0.00961362 -0.00796186 0.05338918
v 0.00896974 -0.00598417 0.05338918
v 0.00902500 -0.00600883 0.05273718
v 0.00906104 -0.00585010 0.05222895
v 0.00864300 -0.00350025 0.05226409
v 0.00882559 0.00026317 0.05281409
v 0.00869825 -0.00009290 0.05333146
v 0.00857332 -0.00079003 0.05338918
v 0.00856852 -0.00331685 0.05281409
v 0.00851566 -0.00226580 0.05335064
v 0.00858053 -0.00163302 0.05281409
v 0.00866942 -0.00055944 0.05276461
v 0.02890844 -0.00796186 0.05332644
v 0.00881838 -0.00542432 0.05338918
v 0.00889526 -0.00542432 0.05260362
v 0.00877754 -0.00500175 0.05281409
v 0.00868624 -0.00441938 0.05278791
v 0.00862377 -0.00387562 0.05267031
v 0.00854449 -0.00134559 0.05338918
v 0.00855410 -0.00369973 0.05331228
v 0.00853008 -0.00316241 0.05338918
v 0.00865501 -0.00453521 0.05333146
f 1 2 3
f 1 3 4
f 1 4 15
f 1 15 22
f 1 22 23
f 1 23 21
f 1 21 5
f 1 5 2
f 2 5 6
f 2 6 7
f 2 7 8
f 2 8 9
f 2 9 3
f 3 9 25
f 3 25 38
f 3 38 26
f 3 26 10
f 3 10 11
f 3 11 12
f 3 12 4
f 4 13 14
f 4 14 15
f 4 12 16
f 4 16 17
f 4 17 18
f 4 18 19
f 4 19 20
f 4 20 13
f 5 21 6
f 6 22 33
f 6 33 44
f 6 44 46
f 6 46 39
f 6 39 27
f 6 27 26
f 6 26 24
f 6 24 8
f 6 8 7
f 6 21 23
f 6 23 22
f 8 24 9
f 9 24 25
f 10 26 27
f 10 27 28
f 10 28 11
f 11 28 29
f 11 29 30
f 11 30 12
f 12 30 17
f 12 17 16
f 13 20 31
f 13 31 14
f 14 31 32
f 14 32 33
f 14 33 22
f 14 22 15
f 17 30 34
f 17 34 35
f 17 35 18
f 18 35 36
f 18 36 33
f 18 33 37
f 18 37 19
f 19 37 20
f 20 37 31
f 24 26 38
f 24 38 25
f 27 39 28
f 28 39 40
f 28 40 29
f 29 40 30
f 30 40 41
f 30 41 42
f 30 42 43
f 30 43 34
f 31 37 32
f 32 37 33
f 33 36 44
f 34 45 46
f 34 46 35
f 34 43 45
f 35 46 44
f 35 44 36
f 39 41 40
f 39 46 47
f 39 47 41
f 41 47 42
f 42 47 43
f 43 47 45
f 45 47 46

