# https://github.com/mikedh/trimesh
v 0.01854899 -0.01377014 0.05695939
v 0.01856295 -0.01376942 0.05695939
v 0.01856295 -0.01374843 0.05732245
v 0.01854899 -0.01374915 0.05731275
v 0.01854899 -0.00637433 0.05695939
v 0.01898438 -0.01371874 0.05695939
v 0.01854899 -0.01374843 0.05732245
v 0.01885687 -0.01371223 0.05732245
v 0.01854899 -0.00637433 0.05732245
v 0.02045065 -0.00637433 0.05695939
v 0.01944267 -0.01365649 0.05695939
v 0.01898438 -0.01369630 0.05732245
v 0.02045065 -0.00637433 0.05732245
v 0.02045065 -0.01343134 0.05695939
v 0.01929115 -0.01365359 0.05732245
v 0.01975372 -0.01360726 0.05695939
v 0.02045065 -0.01338863 0.05732245
v 0.02045065 -0.01342772 0.05699258
v 0.02024849 -0.01349505 0.05695939
v 0.01935481 -0.01364345 0.05732245
v 0.01979914 -0.01359857 0.05695939
v 0.01978946 -0.01359712 0.05699461
v 0.01981645 -0.01356092 0.05732245
v 0.01948586 -0.01362174 0.05732245
v 0.02024849 -0.01345523 0.05732245
v 0.02019060 -0.01350880 0.05695939
f 1 2 3
f 1 3 4
f 1 4 7
f 1 7 9
f 1 9 5
f 1 5 10
f 1 10 14
f 1 14 19
f 1 19 26
f 1 26 21
f 1 21 16
f 1 16 11
f 1 11 6
f 1 6 2
f 2 6 3
f 3 7 4
f 3 6 8
f 3 8 12
f 3 12 15
f 3 15 20
f 3 20 24
f 3 24 23
f 3 23 25
f 3 25 17
f 3 17 13
f 3 13 9
f 3 9 7
f 5 9 13
f 5 13 10
f 6 11 12
f 6 12 8
f 10 13 17
f 10 17 18
f 10 18 14
f 11 15 12
f 11 16 15
f 14 18 19
f 15 16 20
f 16 21 22
f 16 22 23
f 16 23 24
f 16 24 20
f 17 25 18
f 18 25 19
f 19 25 23
f 19 23 26
f 21 26 23
f 21 23 22

