# https://github.com/mikedh/trimesh
v 0.01771927 0.00839434 0.05534261
v 0.01729988 0.00838489 0.05534201
v 0.01687956 0.00810209 0.05655394
v 0.01732691 0.00811229 0.05655394
v 0.01774443 0.00809924 0.05655394
v 0.01813959 0.00834156 0.05550394
v 0.01858600 0.00829657 0.05552779
v 0.01921508 0.00824094 0.05535969
v 0.01982553 0.00810614 0.05534261
v 0.01601562 0.00826238 0.05534201
v 0.01687956 0.00836150 0.05534261
v 0.01648441 0.00808619 0.05655394
v 0.02103616 0.00769198 0.05534201
v 0.01816662 0.00806010 0.05655394
v 0.01858787 0.00799772 0.05655394
v 0.01898302 0.00816702 0.05576469
v 0.01940707 0.00807945 0.05576457
v 0.01984976 0.00789426 0.05597656
v 0.02043410 0.00790925 0.05539469
v 0.01642756 0.00828818 0.05552636
v 0.01516566 0.00805560 0.05534201
v 0.01561394 0.00817961 0.05534261
v 0.01561394 0.00812353 0.05576445
v 0.01562792 0.00803491 0.05636970
v 0.01606315 0.00805920 0.05655394
v 0.02057017 0.00741352 0.05654433
v 0.02178267 0.00734905 0.05534201
v 0.01898209 0.00803656 0.05618547
v 0.01916755 0.00787477 0.05655394
v 0.01941919 0.00793025 0.05620860
v 0.01985442 0.00768688 0.05655394
v 0.01306966 0.00707509 0.05534225
v 0.01376211 0.00746631 0.05534261
v 0.01452167 0.00782333 0.05537440
v 0.01471645 0.00786847 0.05576481
v 0.01477517 0.00784988 0.05618049
v 0.01519269 0.00801842 0.05576469
v 0.01503239 0.00788076 0.05655156
v 0.02127754 0.00708439 0.05655394
v 0.02178546 0.00704420 0.05605818
v 0.02230178 0.00706234 0.05534249
v 0.01278075 0.00689140 0.05576481
v 0.01283853 0.00693894 0.05635867
v 0.01391309 0.00749450 0.05636970
v 0.01436044 0.00768853 0.05636970
v 0.02164567 0.00694058 0.05644646
v 0.02216291 0.00697972 0.05570988
v 0.02195788 0.00686246 0.05620386
f 1 2 3
f 1 3 4
f 1 4 5
f 1 5 6
f 1 6 7
f 1 7 8
f 1 8 9
f 1 9 2
f 2 10 11
f 2 11 12
f 2 12 3
f 2 9 13
f 2 13 27
f 2 27 21
f 2 21 10
f 3 12 25
f 3 25 39
f 3 39 31
f 3 31 29
f 3 29 15
f 3 15 14
f 3 14 5
f 3 5 4
f 5 14 7
f 5 7 6
f 7 14 15
f 7 15 16
f 7 16 8
f 8 16 17
f 8 17 9
f 9 17 18
f 9 18 19
f 9 19 13
f 10 20 11
f 10 21 22
f 10 22 23
f 10 23 24
f 10 24 20
f 11 20 25
f 11 25 12
f 13 19 26
f 13 26 27
f 15 28 16
f 15 29 28
f 16 28 17
f 17 30 18
f 17 28 29
f 17 29 30
f 18 31 19
f 18 30 31
f 19 31 26
f 20 24 25
f 21 32 33
f 21 33 34
f 21 34 35
f 21 35 36
f 21 36 37
f 21 37 22
f 21 27 32
f 22 37 38
f 22 38 23
f 23 38 24
f 24 38 25
f 25 38 39
f 26 31 39
f 26 39 27
f 27 39 40
f 27 40 41
f 27 41 32
f 29 31 30
f 32 42 43
f 32 43 33
f 32 41 42
f 33 43 44
f 33 44 34
f 34 44 45
f 34 45 35
f 35 45 36
f 36 38 37
f 36 45 38
f 38 45 44
f 38 44 43
f 38 43 39
f 39 46 40
f 39 43 46
f 40 46 47
f 40 47 41
f 41 47 48
f 41 48 42
f 42 48 43
f 43 48 46
f 46 48 47

