# https://github.com/mikedh/trimesh
v 0.00739712 -0.00404480 0.06077385
v 0.00903575 -0.00847894 0.06074599
v 0.00838888 -0.00728778 0.06076858
v 0.00770626 -0.00575575 0.06105791
v 0.00735603 -0.00518418 0.06219467
v 0.00726310 -0.00421147 0.06204448
v 0.02485374 -0.00408812 0.06223323
v 0.02551848 -0.00419829 0.06074599
v 0.00958791 -0.00931794 0.06074599
v 0.00858901 -0.00809476 0.06188869
v 0.00821197 -0.00720398 0.06193609
v 0.00791355 -0.00610603 0.06238444
v 0.02361718 -0.00879722 0.06248162
v 0.02445168 -0.00740078 0.06235488
v 0.02487519 -0.00544972 0.06221166
v 0.02542556 -0.00526422 0.06088139
v 0.02532013 -0.00641677 0.06074599
v 0.00946461 -0.00939233 0.06218923
v 0.01090846 -0.01088293 0.06074599
v 0.01022406 -0.01024827 0.06115968
v 0.00929307 -0.00837631 0.06248162
v 0.02259148 -0.01079630 0.06242300
v 0.02360646 -0.00991682 0.06199062
v 0.01540440 -0.01309105 0.06245766
v 0.02421938 -0.00922283 0.06147670
v 0.02510749 -0.00739136 0.06075074
v 0.02199464 -0.01213436 0.06075788
v 0.02086172 -0.01286695 0.06075550
v 0.01080661 -0.01082926 0.06200269
v 0.01029733 -0.00995260 0.06241960
v 0.01331904 -0.01264001 0.06075550
v 0.01190915 -0.01175111 0.06076502
v 0.01179836 -0.01169650 0.06204499
v 0.01787574 -0.01366262 0.06075550
v 0.01624069 -0.01359859 0.06075550
v 0.01673031 -0.01358164 0.06228794
v 0.02041320 -0.01281327 0.06203938
v 0.02228948 -0.01164471 0.06178607
v 0.02299533 -0.01116918 0.06114931
v 0.02362790 -0.01048462 0.06076485
v 0.01305458 -0.01249971 0.06201458
v 0.01429471 -0.01293286 0.06216324
v 0.01540440 -0.01348936 0.06187476
v 0.02471972 -0.00849872 0.06080902
v 0.01969306 -0.01332646 0.06092777
v 0.01494159 -0.01331799 0.06087103
v 0.01780962 -0.01364379 0.06195970
v 0.01887285 -0.01331705 0.06207948
f 1 2 3
f 1 3 4
f 1 4 5
f 1 5 6
f 1 6 7
f 1 7 8
f 1 8 2
f 2 9 10
f 2 10 3
f 2 8 17
f 2 17 19
f 2 19 9
f 3 10 4
f 4 11 5
f 4 10 11
f 5 11 10
f 5 10 12
f 5 12 6
f 6 12 7
f 7 13 14
f 7 14 15
f 7 15 8
f 7 12 13
f 8 15 16
f 8 16 17
f 9 18 10
f 9 19 20
f 9 20 18
f 10 18 12
f 12 18 21
f 12 21 13
f 13 22 23
f 13 23 14
f 13 21 24
f 13 24 22
f 14 23 25
f 14 25 26
f 14 26 17
f 14 17 15
f 15 17 16
f 17 26 27
f 17 27 28
f 17 28 19
f 18 20 29
f 18 29 30
f 18 30 21
f 19 31 32
f 19 32 33
f 19 33 29
f 19 29 20
f 19 28 34
f 19 34 35
f 19 35 31
f 21 30 24
f 22 36 37
f 22 37 38
f 22 38 23
f 22 24 36
f 23 38 39
f 23 39 40
f 23 40 25
f 24 30 33
f 24 33 41
f 24 41 42
f 24 42 43
f 24 43 36
f 25 40 44
f 25 44 26
f 26 44 40
f 26 40 27
f 27 39 38
f 27 38 37
f 27 37 28
f 27 40 39
f 28 37 45
f 28 45 34
f 29 33 30
f 31 46 43
f 31 43 41
f 31 41 32
f 31 35 46
f 32 41 33
f 34 45 47
f 34 47 35
f 35 47 36
f 35 36 43
f 35 43 46
f 36 47 48
f 36 48 37
f 37 48 45
f 41 43 42
f 45 48 47

