# https://github.com/mikedh/trimesh
v 0.02716723 0.00129858 0.05501644
v 0.02698805 0.00129858 0.05534198
v 0.02719149 0.00107835 0.05511476
v 0.02721575 0.00115989 0.05501644
v 0.00889122 0.00129858 0.05501644
v 0.02712056 0.00092158 0.05534198
v 0.00883149 0.00129858 0.05534198
v 0.02723815 0.00079745 0.05520128
v 0.02730721 0.00088967 0.05501644
v 0.00878857 0.00099135 0.05501644
v 0.00883336 0.00129858 0.05532382
v 0.02720082 0.00067150 0.05534198
v 0.00882963 0.00129373 0.05534198
v 0.02743786 0.00044860 0.05501644
v 0.00868778 0.00068011 0.05501644
v 0.00865978 0.00059008 0.05501644
v 0.00859259 0.00051618 0.05534198
v 0.02726801 0.00043331 0.05534198
v 0.02746772 0.00034279 0.05501644
v 0.00861126 0.00042870 0.05501644
v 0.00848061 0.00007900 0.05534198
v 0.02736880 0.00005910 0.05534198
v 0.02737253 0.00005910 0.05533593
v 0.02754051 0.00005910 0.05501644
v 0.00852540 0.00005910 0.05501644
v 0.00852353 0.00005910 0.05502020
v 0.00847687 0.00005910 0.05534198
f 1 2 3
f 1 3 4
f 1 4 9
f 1 9 14
f 1 14 19
f 1 19 24
f 1 24 25
f 1 25 20
f 1 20 16
f 1 16 15
f 1 15 10
f 1 10 5
f 1 5 11
f 1 11 7
f 1 7 2
f 2 6 3
f 2 7 13
f 2 13 17
f 2 17 21
f 2 21 27
f 2 27 22
f 2 22 18
f 2 18 12
f 2 12 6
f 3 8 9
f 3 9 4
f 3 6 8
f 5 10 11
f 6 12 8
f 7 11 13
f 8 12 14
f 8 14 9
f 10 15 11
f 11 15 16
f 11 16 17
f 11 17 13
f 12 18 19
f 12 19 14
f 16 20 17
f 17 20 21
f 18 22 23
f 18 23 19
f 19 23 24
f 20 25 26
f 20 26 21
f 21 26 27
f 22 27 26
f 22 26 25
f 22 25 24
f 22 24 23

