# https://github.com/mikedh/trimesh
v 0.00794978 -0.00295822 0.05732245
v 0.00800754 -0.00335693 0.05715819
v 0.00804912 -0.00373839 0.05715819
v 0.00810496 -0.00416818 0.05715819
v 0.00836564 -0.00537296 0.05732245
v 0.00795363 -0.00236100 0.05732245
v 0.00800869 -0.00289608 0.05695939
v 0.00820969 -0.00467736 0.05714092
v 0.00833137 -0.00506227 0.05695939
v 0.00843841 -0.00545927 0.05695939
v 0.00855855 -0.00589941 0.05695939
v 0.00864903 -0.00630848 0.05714892
v 0.00852582 -0.00594429 0.05732245
v 0.00810573 -0.00019135 0.05732245
v 0.00805220 -0.00079202 0.05715819
v 0.00802910 -0.00127877 0.05714092
v 0.00801716 -0.00247665 0.05695939
v 0.00876802 -0.00667786 0.05715819
v 0.00960281 -0.00835041 0.05695939
v 0.00918079 -0.00759439 0.05697670
v 0.00903601 -0.00734584 0.05724032
v 0.00961629 -0.00845915 0.05732245
v 0.00842455 0.00125163 0.05732245
v 0.00835678 0.00088916 0.05714092
v 0.00825936 0.00043175 0.05710432
v 0.00821585 0.00004166 0.05695939
v 0.00814346 -0.00037086 0.05695939
v 0.01012995 -0.00921688 0.05695939
v 0.00939604 -0.00803626 0.05711374
v 0.01013996 -0.00928938 0.05732245
v 0.00851157 0.00132067 0.05695939
v 0.00868446 0.00200591 0.05732245
v 0.00865443 0.00174873 0.05695939
v 0.01188309 -0.01133648 0.05716011
v 0.01152306 -0.01099127 0.05715699
v 0.01113070 -0.01056666 0.05714956
v 0.01071946 -0.01009544 0.05714092
v 0.01035597 -0.00960352 0.05714956
v 0.00881422 0.00215953 0.05695939
v 0.01186846 0.00629688 0.05714956
v 0.01147532 0.00597583 0.05715819
v 0.01069867 0.00522500 0.05714092
v 0.01027819 0.00474171 0.05714092
v 0.00992202 0.00428603 0.05714956
v 0.00937871 0.00342991 0.05714092
v 0.00903216 0.00276365 0.05715443
v 0.00956969 0.00375095 0.05712493
v 0.01110336 0.00563580 0.05714092
f 1 2 3
f 1 3 4
f 1 4 5
f 1 5 13
f 1 13 22
f 1 22 30
f 1 30 32
f 1 32 23
f 1 23 14
f 1 14 6
f 1 6 7
f 1 7 2
f 2 7 3
f 3 7 4
f 4 8 5
f 4 7 9
f 4 9 8
f 5 10 11
f 5 11 12
f 5 12 13
f 5 8 9
f 5 9 10
f 6 14 15
f 6 15 16
f 6 16 17
f 6 17 7
f 7 17 27
f 7 27 26
f 7 26 31
f 7 31 33
f 7 33 39
f 7 39 28
f 7 28 19
f 7 19 11
f 7 11 10
f 7 10 9
f 11 18 12
f 11 19 20
f 11 20 18
f 12 18 13
f 13 18 21
f 13 21 22
f 14 23 24
f 14 24 25
f 14 25 26
f 14 26 27
f 14 27 15
f 15 27 17
f 15 17 16
f 18 20 21
f 19 28 22
f 19 22 29
f 19 29 20
f 20 29 21
f 21 29 22
f 22 28 30
f 23 31 24
f 23 32 33
f 23 33 31
f 24 31 25
f 25 31 26
f 28 34 35
f 28 35 36
f 28 36 37
f 28 37 38
f 28 38 30
f 28 39 40
f 28 40 34
f 30 38 37
f 30 37 36
f 30 36 35
f 30 35 34
f 30 34 40
f 30 40 32
f 32 40 41
f 32 41 42
f 32 42 43
f 32 43 44
f 32 44 45
f 32 45 46
f 32 46 39
f 32 39 33
f 39 46 45
f 39 45 47
f 39 47 43
f 39 43 42
f 39 42 48
f 39 48 40
f 40 48 41
f 41 48 42
f 43 47 44
f 44 47 45

