# https://github.com/mikedh/trimesh
v 0.01691263 0.00803282 0.05695939
v 0.01649140 0.00801940 0.05695939
v 0.01652033 0.00796082 0.05732245
v 0.01694155 0.00796451 0.05732245
v 0.01731487 0.00802214 0.05699401
v 0.01775417 0.00800065 0.05695939
v 0.01607018 0.00799381 0.05695939
v 0.01609910 0.00793892 0.05732245
v 0.01736187 0.00794740 0.05732245
v 0.01777948 0.00790839 0.05732245
v 0.01821516 0.00794302 0.05695939
v 0.01568421 0.00789566 0.05732245
v 0.01564805 0.00794685 0.05695939
v 0.01821155 0.00784405 0.05732245
v 0.01864000 0.00786650 0.05695939
v 0.01528739 0.00783392 0.05731716
v 0.01481645 0.00773427 0.05732245
v 0.01518253 0.00786075 0.05698537
v 0.01354735 0.00728789 0.05695939
v 0.01438799 0.00764762 0.05697670
v 0.01862102 0.00776411 0.05732245
v 0.01896270 0.00779546 0.05695939
v 0.01478752 0.00776671 0.05699401
v 0.01441330 0.00762162 0.05732245
v 0.01354826 0.00727160 0.05732245
v 0.01389175 0.00745106 0.05699401
v 0.01270491 0.00685876 0.05695939
v 0.01304297 0.00703520 0.05697670
v 0.01314240 0.00706983 0.05732245
v 0.01406620 0.00750280 0.05732245
v 0.01904586 0.00766296 0.05732245
v 0.01944087 0.00767267 0.05695939
v 0.01380135 0.00739220 0.05732245
v 0.01237046 0.00665726 0.05697670
v 0.01238131 0.00666890 0.05732245
v 0.01270491 0.00684863 0.05732245
v 0.02107967 0.00701043 0.05695939
v 0.01960448 0.00750129 0.05732245
v 0.01984040 0.00753483 0.05700239
v 0.02019564 0.00740767 0.05698089
v 0.02069641 0.00718920 0.05695939
v 0.02145660 0.00663440 0.05732245
v 0.02160394 0.00668505 0.05702677
v 0.02060602 0.00708339 0.05732245
v 0.02086002 0.00698401 0.05727376
v 0.02119898 0.00678306 0.05732245
v 0.02032400 0.00721466 0.05732245
v 0.01995791 0.00740164 0.05725969
f 1 2 3
f 1 3 4
f 1 4 5
f 1 5 6
f 1 6 11
f 1 11 15
f 1 15 22
f 1 22 32
f 1 32 41
f 1 41 37
f 1 37 27
f 1 27 19
f 1 19 13
f 1 13 7
f 1 7 2
f 2 7 8
f 2 8 3
f 3 8 12
f 3 12 17
f 3 17 24
f 3 24 30
f 3 30 33
f 3 33 25
f 3 25 29
f 3 29 36
f 3 36 35
f 3 35 42
f 3 42 46
f 3 46 44
f 3 44 47
f 3 47 38
f 3 38 31
f 3 31 21
f 3 21 14
f 3 14 10
f 3 10 9
f 3 9 4
f 4 9 5
f 5 9 6
f 6 9 10
f 6 10 11
f 7 12 8
f 7 13 12
f 10 14 11
f 11 14 15
f 12 13 16
f 12 16 17
f 13 18 16
f 13 19 20
f 13 20 18
f 14 21 15
f 15 21 22
f 16 18 17
f 17 23 24
f 17 18 23
f 18 20 23
f 19 25 26
f 19 26 20
f 19 27 28
f 19 28 29
f 19 29 25
f 20 26 30
f 20 30 24
f 20 24 23
f 21 31 22
f 22 31 32
f 25 33 26
f 26 33 30
f 27 34 35
f 27 35 36
f 27 36 28
f 27 37 34
f 28 36 29
f 31 38 32
f 32 38 39
f 32 39 40
f 32 40 41
f 34 42 35
f 34 37 43
f 34 43 42
f 37 41 44
f 37 44 45
f 37 45 46
f 37 46 43
f 38 47 48
f 38 48 39
f 39 48 40
f 40 48 47
f 40 47 41
f 41 47 44
f 42 43 46
f 44 46 45

