# https://github.com/mikedh/trimesh
v 0.00816876 -0.00249765 0.05596889
v 0.00818464 -0.00205622 0.05597576
v 0.00825282 -0.00144129 0.05576476
v 0.00818184 -0.00312025 0.05597348
v 0.00827150 -0.00417151 0.05616538
v 0.00825002 -0.00089652 0.05616538
v 0.00831166 -0.00079700 0.05576496
v 0.00924189 -0.00094755 0.05576476
v 0.01084925 -0.00079700 0.05576472
v 0.00994703 -0.00875676 0.05576472
v 0.00834154 -0.00416130 0.05576476
v 0.00823507 -0.00375432 0.05595819
v 0.00844615 -0.00502630 0.05616538
v 0.01759997 -0.00079828 0.05616197
v 0.01620462 -0.01357930 0.05616538
v 0.01771018 -0.00079700 0.05576472
v 0.01052236 -0.00963706 0.05576472
v 0.01026458 -0.00929770 0.05599211
v 0.00999560 -0.00888944 0.05616538
v 0.00970420 -0.00838039 0.05596505
v 0.00948285 -0.00799255 0.05596505
v 0.00925403 -0.00743247 0.05576476
v 0.00896637 -0.00668995 0.05576476
v 0.00881133 -0.00626893 0.05576476
v 0.00863294 -0.00560169 0.05579135
v 0.00853768 -0.00544349 0.05616538
v 0.01771018 -0.01383063 0.05596505
v 0.01433668 -0.01291205 0.05616538
v 0.01561155 -0.01342876 0.05596505
v 0.01603277 -0.01354741 0.05576472
v 0.01687614 -0.01372092 0.05596505
v 0.01729736 -0.01379364 0.05596505
v 0.01053637 -0.00971489 0.05616538
v 0.01081469 -0.01000705 0.05576472
v 0.00924843 -0.00753071 0.05616538
v 0.00891407 -0.00668995 0.05616538
v 0.00870486 -0.00608139 0.05616538
v 0.01391173 -0.01269772 0.05616538
v 0.01418538 -0.01282913 0.05576472
v 0.01493723 -0.01318125 0.05596505
v 0.01088100 -0.01014228 0.05616538
v 0.01273773 -0.01190162 0.05576472
v 0.01190183 -0.01124202 0.05596505
v 0.01159736 -0.01091925 0.05596505
v 0.01344381 -0.01241832 0.05596505
v 0.01295068 -0.01209426 0.05616538
v 0.01308330 -0.01215295 0.05576472
v 0.01223432 -0.01153801 0.05596505
f 1 2 3
f 1 3 4
f 1 4 5
f 1 5 6
f 1 6 2
f 2 6 3
f 3 6 7
f 3 7 8
f 3 8 9
f 3 9 10
f 3 10 11
f 3 11 4
f 4 11 12
f 4 12 5
f 5 13 26
f 5 26 37
f 5 37 36
f 5 36 35
f 5 35 19
f 5 19 33
f 5 33 41
f 5 41 46
f 5 46 38
f 5 38 28
f 5 28 15
f 5 15 6
f 5 12 11
f 5 11 13
f 6 14 7
f 6 15 14
f 7 16 9
f 7 9 8
f 7 14 16
f 9 16 30
f 9 30 39
f 9 39 47
f 9 47 42
f 9 42 34
f 9 34 17
f 9 17 10
f 10 17 18
f 10 18 19
f 10 19 20
f 10 20 21
f 10 21 22
f 10 22 23
f 10 23 24
f 10 24 11
f 11 24 25
f 11 25 13
f 13 25 26
f 14 15 27
f 14 27 16
f 15 28 29
f 15 29 30
f 15 30 31
f 15 31 32
f 15 32 27
f 16 27 30
f 17 33 18
f 17 34 33
f 18 33 19
f 19 35 21
f 19 21 20
f 21 35 22
f 22 35 36
f 22 36 23
f 23 36 24
f 24 36 37
f 24 37 26
f 24 26 25
f 27 32 30
f 28 38 39
f 28 39 40
f 28 40 29
f 29 40 30
f 30 32 31
f 30 40 39
f 33 34 41
f 34 42 43
f 34 43 44
f 34 44 41
f 38 45 39
f 38 46 45
f 39 45 47
f 41 44 43
f 41 43 46
f 42 46 48
f 42 48 43
f 42 47 46
f 43 48 46
f 45 46 47

