# https://github.com/mikedh/trimesh
v 0.01285848 0.00691503 0.05882548
v 0.01221286 0.00659450 0.05875294
v 0.01274324 0.00687519 0.05914351
v 0.01934272 0.00690743 0.05909529
v 0.01970468 0.00689077 0.05875294
v 0.01180806 0.00636451 0.05875294
v 0.01181397 0.00639131 0.05914481
v 0.01219661 0.00660645 0.05914136
v 0.01985685 0.00668432 0.05914481
v 0.02022915 0.00666476 0.05875294
v 0.01144315 0.00611931 0.05875294
v 0.01142394 0.00614286 0.05914251
v 0.01094083 0.00577053 0.05914366
v 0.01019328 0.00506717 0.05914481
v 0.02015676 0.00655068 0.05914481
v 0.02051872 0.00651844 0.05875294
v 0.01097481 0.00574337 0.05875294
v 0.01049466 0.00537466 0.05914251
v 0.01032772 0.00512548 0.05875294
v 0.00993917 0.00467202 0.05875294
v 0.00989928 0.00472056 0.05914251
v 0.00952845 0.00424283 0.05914251
v 0.00921820 0.00379626 0.05914481
v 0.02109785 0.00597734 0.05914481
v 0.02076544 0.00619936 0.05914190
v 0.02110229 0.00616278 0.05875294
v 0.01063945 0.00544130 0.05875294
v 0.00954618 0.00415446 0.05875294
v 0.00935265 0.00387196 0.05875294
v 0.00904535 0.00352136 0.05914481
v 0.02145538 0.00571982 0.05914481
v 0.02161051 0.00580204 0.05875294
v 0.00906308 0.00340039 0.05875294
v 0.00887545 0.00321857 0.05914455
v 0.01040454 0.00321495 0.05914481
v 0.02194144 0.00532866 0.05914251
v 0.02206406 0.00543877 0.05875294
v 0.02238613 0.00492773 0.05914481
v 0.02322085 0.00429789 0.05875294
v 0.02396841 0.00321495 0.05882111
v 0.02378817 0.00321495 0.05914481
v 0.02250285 0.00504725 0.05875294
v 0.02333461 0.00386218 0.05914481
v 0.02300368 0.00429390 0.05914251
v 0.02270377 0.00461914 0.05914025
v 0.02282196 0.00473613 0.05875294
v 0.02300516 0.00449854 0.05883415
v 0.02348383 0.00393389 0.05878252
f 1 2 3
f 1 3 4
f 1 4 5
f 1 5 2
f 2 6 7
f 2 7 8
f 2 8 3
f 2 5 10
f 2 10 16
f 2 16 26
f 2 26 32
f 2 32 37
f 2 37 42
f 2 42 46
f 2 46 39
f 2 39 33
f 2 33 29
f 2 29 28
f 2 28 20
f 2 20 19
f 2 19 27
f 2 27 17
f 2 17 11
f 2 11 6
f 3 8 7
f 3 7 9
f 3 9 4
f 4 9 5
f 5 9 10
f 6 11 12
f 6 12 7
f 7 12 13
f 7 13 14
f 7 14 23
f 7 23 30
f 7 30 35
f 7 35 41
f 7 41 43
f 7 43 38
f 7 38 31
f 7 31 24
f 7 24 15
f 7 15 9
f 9 15 10
f 10 15 16
f 11 17 13
f 11 13 12
f 13 18 14
f 13 17 18
f 14 19 20
f 14 20 21
f 14 21 22
f 14 22 23
f 14 18 19
f 15 24 25
f 15 25 16
f 16 25 26
f 17 27 18
f 18 27 19
f 20 28 22
f 20 22 21
f 22 28 23
f 23 28 29
f 23 29 30
f 24 31 32
f 24 32 26
f 24 26 25
f 29 33 30
f 30 34 35
f 30 33 34
f 31 36 37
f 31 37 32
f 31 38 36
f 33 39 40
f 33 40 34
f 34 40 35
f 35 40 41
f 36 38 42
f 36 42 37
f 38 43 44
f 38 44 45
f 38 45 46
f 38 46 42
f 39 46 47
f 39 47 44
f 39 44 43
f 39 43 48
f 39 48 40
f 40 48 43
f 40 43 41
f 44 47 45
f 45 47 46

