# https://github.com/mikedh/trimesh
v 0.00825705 -0.00079700 0.05616538
v 0.00831014 -0.00079700 0.05576488
v 0.00901351 -0.00079700 0.05616538
v 0.00826038 -0.00074100 0.05616538
v 0.00828067 -0.00042094 0.05616538
v 0.00834768 -0.00036765 0.05576468
v 0.00831044 -0.00079399 0.05576468
v 0.00901351 -0.00079460 0.05576468
v 0.00901351 -0.00079700 0.05576484
v 0.00901351 0.00227895 0.05616538
v 0.00828459 -0.00037638 0.05616538
v 0.00834361 0.00003341 0.05616538
v 0.00840988 0.00005358 0.05576468
v 0.00901351 0.00210733 0.05576468
v 0.00898137 0.00219826 0.05616538
v 0.00834665 0.00005358 0.05616538
v 0.00843306 0.00045494 0.05616538
v 0.00850910 0.00047511 0.05576468
v 0.00887363 0.00173909 0.05576468
v 0.00880040 0.00173849 0.05616538
v 0.00853250 0.00087586 0.05616538
v 0.00853768 0.00089604 0.05616538
v 0.00864861 0.00114233 0.05593033
v 0.00861336 0.00087677 0.05576468
v 0.00873257 0.00129739 0.05576468
v 0.00872887 0.00129679 0.05577966
v 0.00868933 0.00142897 0.05616538
v 0.00862573 0.00121881 0.05616538
v 0.00872828 0.00128324 0.05576468
v 0.00866830 0.00107338 0.05576468
f 1 2 9
f 1 9 3
f 1 3 10
f 1 10 15
f 1 15 20
f 1 20 27
f 1 27 28
f 1 28 22
f 1 22 21
f 1 21 17
f 1 17 16
f 1 16 12
f 1 12 11
f 1 11 5
f 1 5 4
f 1 4 2
f 2 4 5
f 2 5 6
f 2 6 7
f 2 7 8
f 2 8 9
f 3 9 8
f 3 8 14
f 3 14 10
f 5 11 6
f 6 11 12
f 6 12 13
f 6 13 18
f 6 18 24
f 6 24 30
f 6 30 29
f 6 29 25
f 6 25 19
f 6 19 14
f 6 14 8
f 6 8 7
f 10 14 15
f 12 16 13
f 13 16 17
f 13 17 18
f 14 19 20
f 14 20 15
f 17 21 18
f 18 21 22
f 18 22 23
f 18 23 24
f 19 25 26
f 19 26 27
f 19 27 20
f 22 28 23
f 23 28 27
f 23 27 26
f 23 26 29
f 23 29 30
f 23 30 24
f 25 29 26

