# https://github.com/mikedh/trimesh
v 0.02689545 0.00253173 0.05457581
v 0.00950104 0.00253173 0.05442501
v 0.00953960 -0.00782515 0.05442477
v 0.02711582 -0.00787415 0.05457581
v 0.02706256 0.00216731 0.05457581
v 0.02710296 0.00250519 0.05427421
v 0.02725171 -0.00789661 0.05427421
v 0.02725355 -0.00755260 0.05457581
v 0.02722416 0.00178350 0.05457581
v 0.02729211 0.00207442 0.05427421
v 0.02740413 -0.00753117 0.05427421
v 0.02740413 -0.00714735 0.05457581
v 0.02742617 0.00124350 0.05457581
v 0.02750146 0.00151401 0.05427421
v 0.02755104 -0.00710958 0.05427421
v 0.02756757 -0.00666554 0.05457581
v 0.02757859 0.00077598 0.05457581
v 0.02761532 0.00117103 0.05427941
v 0.02776407 0.00069432 0.05427421
v 0.02769979 -0.00665635 0.05427421
v 0.02768510 -0.00628887 0.05457581
v 0.02767775 0.00042994 0.05457581
v 0.02789261 0.00020945 0.05427421
v 0.02782467 -0.00625314 0.05427421
v 0.02785956 -0.00590199 0.05441553
v 0.02788343 -0.00546612 0.05457581
v 0.02778243 0.00001142 0.05457581
v 0.02787241 -0.00040404 0.05457581
v 0.02803218 -0.00045508 0.05427938
v 0.02809645 -0.00078990 0.05427421
v 0.02803034 -0.00537935 0.05427728
v 0.02810196 -0.00490877 0.05427421
v 0.02795872 -0.00500268 0.05455860
v 0.02805422 -0.00407683 0.05457581
v 0.02794403 -0.00080827 0.05457581
v 0.02814604 -0.00113288 0.05427421
v 0.02819929 -0.00406458 0.05427421
v 0.02806156 -0.00456987 0.05445347
v 0.02824704 -0.00331736 0.05427421
v 0.02813502 -0.00355112 0.05447552
v 0.02811115 -0.00290190 0.05457581
v 0.02799913 -0.00119107 0.05457581
v 0.02817909 -0.00170554 0.05433258
v 0.02823969 -0.00215061 0.05427421
v 0.02826173 -0.00289782 0.05427421
v 0.02810747 -0.00250584 0.05457581
v 0.02807809 -0.00196176 0.05457581
v 0.02825622 -0.00248849 0.05427421
f 1 2 3
f 1 3 4
f 1 4 8
f 1 8 12
f 1 12 16
f 1 16 21
f 1 21 26
f 1 26 34
f 1 34 41
f 1 41 46
f 1 46 47
f 1 47 42
f 1 42 35
f 1 35 28
f 1 28 27
f 1 27 22
f 1 22 17
f 1 17 13
f 1 13 9
f 1 9 5
f 1 5 6
f 1 6 2
f 2 6 3
f 3 6 7
f 3 7 4
f 4 7 8
f 5 9 10
f 5 10 6
f 6 10 14
f 6 14 19
f 6 19 23
f 6 23 30
f 6 30 36
f 6 36 44
f 6 44 48
f 6 48 45
f 6 45 39
f 6 39 37
f 6 37 32
f 6 32 24
f 6 24 20
f 6 20 15
f 6 15 11
f 6 11 7
f 7 11 8
f 8 11 12
f 9 13 10
f 10 13 14
f 11 15 12
f 12 15 16
f 13 17 18
f 13 18 14
f 14 18 19
f 15 20 16
f 16 20 21
f 17 22 19
f 17 19 18
f 19 22 23
f 20 24 21
f 21 24 25
f 21 25 26
f 22 27 23
f 23 28 29
f 23 29 30
f 23 27 28
f 24 31 25
f 24 32 31
f 25 31 26
f 26 31 32
f 26 32 33
f 26 33 34
f 28 35 30
f 28 30 29
f 30 35 36
f 32 37 38
f 32 38 33
f 33 38 34
f 34 38 37
f 34 37 39
f 34 39 40
f 34 40 41
f 35 42 36
f 36 43 44
f 36 42 43
f 39 45 41
f 39 41 40
f 41 45 46
f 42 47 43
f 43 47 44
f 44 47 46
f 44 46 48
f 45 48 46

