# https://github.com/mikedh/trimesh
v 0.00793949 -0.00242044 0.05740027
v 0.00795980 -0.00140791 0.05743743
v 0.00805023 -0.00048011 0.05739852
v 0.00826247 -0.00502167 0.05737951
v 0.00802993 -0.00384180 0.05739502
v 0.02003531 0.00729392 0.05740470
v 0.01425316 0.00754811 0.05739765
v 0.01309415 0.00703973 0.05739852
v 0.01114339 0.00569886 0.05740027
v 0.01051405 0.00506127 0.05740027
v 0.00967248 0.00395765 0.05739852
v 0.00883459 0.00238590 0.05739359
v 0.00834921 0.00101750 0.05739691
v 0.00859467 -0.00620578 0.05739055
v 0.00900438 -0.00731575 0.05739502
v 0.01094407 -0.01038512 0.05740968
v 0.02667564 -0.00512547 0.05743568
v 0.01025014 -0.00946367 0.05736137
v 0.00944547 -0.00817153 0.05738440
v 0.02223706 0.00603779 0.05740027
v 0.02120909 0.00673258 0.05740027
v 0.01870650 0.00771969 0.05738528
v 0.01712670 0.00792940 0.05739699
v 0.01577206 0.00788915 0.05738633
v 0.01200342 0.00640425 0.05739765
v 0.01169337 -0.01117947 0.05736137
v 0.01240575 -0.01177682 0.05739589
v 0.01544355 -0.01337187 0.05739677
v 0.01708610 -0.01371079 0.05739852
v 0.01876002 -0.01370868 0.05739852
v 0.02170001 -0.01286137 0.05739852
v 0.02400696 -0.01111592 0.05739765
v 0.02494266 -0.00995087 0.05739859
v 0.02606291 -0.00781355 0.05738992
v 0.02648001 -0.00644303 0.05738792
v 0.02679376 -0.00404515 0.05738082
v 0.02679007 -0.00274877 0.05741000
v 0.02575840 0.00151953 0.05739914
v 0.02418413 0.00410169 0.05740027
v 0.02325581 0.00515023 0.05739542
v 0.02631022 0.00004098 0.05738467
v 0.02282395 -0.01215811 0.05738622
v 0.02043949 -0.01337187 0.05739000
v 0.01400401 -0.01278299 0.05738082
v 0.01321227 -0.01234240 0.05737907
v 0.02555908 -0.00895529 0.05738082
v 0.02663873 -0.00139732 0.05739055
v 0.02502940 0.00288157 0.05739790
f 1 2 3
f 1 3 4
f 1 4 5
f 1 5 2
f 2 6 7
f 2 7 8
f 2 8 9
f 2 9 10
f 2 10 11
f 2 11 12
f 2 12 13
f 2 13 3
f 2 5 14
f 2 14 15
f 2 15 16
f 2 16 17
f 2 17 6
f 3 13 4
f 4 18 19
f 4 19 14
f 4 14 5
f 4 13 12
f 4 12 18
f 6 20 21
f 6 21 22
f 6 22 23
f 6 23 7
f 6 17 20
f 7 23 24
f 7 24 8
f 8 24 25
f 8 25 9
f 9 25 10
f 10 25 11
f 11 25 12
f 12 25 24
f 12 24 18
f 14 19 15
f 15 19 16
f 16 19 18
f 16 18 26
f 16 26 27
f 16 27 28
f 16 28 29
f 16 29 17
f 17 29 30
f 17 30 31
f 17 31 32
f 17 32 33
f 17 33 34
f 17 34 35
f 17 35 36
f 17 36 37
f 17 37 38
f 17 38 39
f 17 39 20
f 18 24 22
f 18 22 36
f 18 36 26
f 20 40 21
f 20 39 40
f 21 40 22
f 22 24 23
f 22 40 41
f 22 41 36
f 26 42 43
f 26 43 44
f 26 44 45
f 26 45 27
f 26 36 46
f 26 46 42
f 27 45 44
f 27 44 28
f 28 44 29
f 29 44 43
f 29 43 30
f 30 43 31
f 31 43 42
f 31 42 32
f 32 42 46
f 32 46 33
f 33 46 34
f 34 46 35
f 35 46 36
f 36 41 47
f 36 47 37
f 37 47 38
f 38 41 48
f 38 48 39
f 38 47 41
f 39 48 40
f 40 48 41

