# https://github.com/mikedh/trimesh
v 0.02460862 -0.01281452 0.05376049
v 0.02469462 -0.01281452 0.05376049
v 0.02460862 -0.01169760 0.05427418
v 0.02460862 -0.00841108 0.05376049
v 0.02699140 -0.01281409 0.05376049
v 0.02699140 -0.01265287 0.05381676
v 0.02699140 -0.01244250 0.05388992
v 0.02724791 -0.01242052 0.05388218
v 0.02606316 -0.01123506 0.05427418
v 0.02460862 -0.00841108 0.05427418
v 0.02769121 -0.00841108 0.05376049
v 0.02740393 -0.01275029 0.05376049
v 0.02656983 -0.01132472 0.05414224
v 0.02739819 -0.01257226 0.05380816
v 0.02758982 -0.01257958 0.05376049
v 0.02702249 -0.00841108 0.05427418
v 0.02767160 -0.01174631 0.05376049
v 0.02766858 -0.01216747 0.05376049
f 1 2 3
f 1 3 10
f 1 10 4
f 1 4 11
f 1 11 17
f 1 17 18
f 1 18 15
f 1 15 12
f 1 12 5
f 1 5 2
f 2 5 3
f 3 5 6
f 3 6 7
f 3 7 8
f 3 8 9
f 3 9 16
f 3 16 10
f 4 10 16
f 4 16 11
f 5 12 6
f 6 12 7
f 7 12 8
f 8 13 9
f 8 12 14
f 8 14 15
f 8 15 16
f 8 16 13
f 9 13 16
f 11 16 17
f 12 15 14
f 15 18 16
f 16 18 17

