# https://github.com/mikedh/trimesh
v 0.01864241 0.00495721 0.05695935
v 0.01864037 -0.00007049 0.05695503
v 0.01864241 -0.00007098 0.05655401
v 0.01864241 0.00495721 0.05655401
v 0.01049044 0.00495721 0.05695935
v 0.00819578 -0.00007098 0.05695935
v 0.00826634 -0.00006458 0.05655401
v 0.01055282 0.00495721 0.05655401
v 0.01039125 0.00484499 0.05695935
v 0.00820908 0.00000630 0.05695935
v 0.00828679 0.00004518 0.05655401
v 0.01026138 0.00460677 0.05655401
v 0.01022150 0.00463434 0.05695935
v 0.00828270 0.00040054 0.05695935
v 0.00829702 0.00047437 0.05695935
v 0.00836758 0.00044927 0.05655401
v 0.01003539 0.00432475 0.05658060
v 0.01000983 0.00436609 0.05695935
v 0.00972453 0.00385028 0.05655401
v 0.00988712 0.00412197 0.05658060
v 0.00839212 0.00089716 0.05695935
v 0.00846063 0.00087058 0.05655401
v 0.00986565 0.00417267 0.05695935
v 0.00955069 0.00355497 0.05655401
v 0.00951593 0.00361354 0.05695935
v 0.00963864 0.00381829 0.05695935
v 0.00851176 0.00132339 0.05695935
v 0.00858947 0.00133766 0.05656120
v 0.00865390 0.00154438 0.05655401
v 0.00943514 0.00335760 0.05655401
v 0.00940958 0.00343094 0.05695935
v 0.00862117 0.00166103 0.05695935
v 0.00863958 0.00158425 0.05670698
v 0.00869275 0.00185298 0.05695935
v 0.00872241 0.00173092 0.05656838
v 0.00903736 0.00252088 0.05655401
v 0.00924494 0.00300323 0.05658060
v 0.00917132 0.00298649 0.05695935
v 0.00878785 0.00209465 0.05695935
v 0.00888909 0.00216355 0.05658060
v 0.00881444 0.00216109 0.05695935
v 0.00911099 0.00271579 0.05658060
v 0.00908645 0.00277928 0.05684900
v 0.00913860 0.00292398 0.05695935
v 0.00901895 0.00266362 0.05695935
v 0.00907724 0.00279946 0.05695935
f 1 2 3
f 1 3 4
f 1 4 8
f 1 8 5
f 1 5 9
f 1 9 13
f 1 13 18
f 1 18 23
f 1 23 26
f 1 26 25
f 1 25 31
f 1 31 38
f 1 38 44
f 1 44 46
f 1 46 45
f 1 45 41
f 1 41 39
f 1 39 34
f 1 34 32
f 1 32 27
f 1 27 21
f 1 21 15
f 1 15 14
f 1 14 10
f 1 10 6
f 1 6 2
f 2 6 3
f 3 6 7
f 3 7 11
f 3 11 16
f 3 16 22
f 3 22 29
f 3 29 36
f 3 36 30
f 3 30 24
f 3 24 19
f 3 19 12
f 3 12 8
f 3 8 4
f 5 8 9
f 6 10 7
f 7 10 11
f 8 12 9
f 9 12 13
f 10 14 11
f 11 14 15
f 11 15 16
f 12 17 18
f 12 18 13
f 12 19 20
f 12 20 17
f 15 21 22
f 15 22 16
f 17 20 23
f 17 23 18
f 19 24 25
f 19 25 26
f 19 26 20
f 20 26 23
f 21 27 28
f 21 28 22
f 22 28 29
f 24 30 25
f 25 30 31
f 27 32 33
f 27 33 29
f 27 29 28
f 29 33 34
f 29 34 35
f 29 35 36
f 30 37 38
f 30 38 31
f 30 36 37
f 32 34 33
f 34 39 40
f 34 40 35
f 35 40 36
f 36 40 41
f 36 41 42
f 36 42 37
f 37 42 43
f 37 43 44
f 37 44 38
f 39 41 40
f 41 45 43
f 41 43 42
f 43 45 46
f 43 46 44

