# https://github.com/mikedh/trimesh
v 0.01379588 0.00817443 0.05376049
v 0.01379588 0.00766281 0.05427418
v 0.01379588 0.00400643 0.05376049
v 0.01013429 0.00817035 0.05376049
v 0.01379588 0.00400643 0.05427418
v 0.01013429 0.00794310 0.05394237
v 0.01013429 0.00766893 0.05415305
v 0.01013429 0.00750329 0.05427418
v 0.00962096 0.00400643 0.05376049
v 0.00980120 0.00800022 0.05376049
v 0.00985188 0.00791168 0.05391753
v 0.00993689 0.00748819 0.05427418
v 0.00976319 0.00400643 0.05427418
v 0.00965406 0.00400643 0.05407853
v 0.00962096 0.00426795 0.05376049
v 0.00967327 0.00763140 0.05376049
v 0.00979466 0.00760896 0.05406621
v 0.00988171 0.00746657 0.05427418
v 0.00984779 0.00721770 0.05427418
v 0.00970434 0.00721770 0.05407853
v 0.00962709 0.00721770 0.05376049
v 0.00962586 0.00679625 0.05376049
v 0.00987027 0.00742047 0.05427418
f 1 2 5
f 1 5 3
f 1 3 9
f 1 9 15
f 1 15 22
f 1 22 21
f 1 21 16
f 1 16 10
f 1 10 4
f 1 4 2
f 2 4 6
f 2 6 7
f 2 7 8
f 2 8 12
f 2 12 18
f 2 18 23
f 2 23 19
f 2 19 13
f 2 13 5
f 3 5 13
f 3 13 14
f 3 14 9
f 4 10 11
f 4 11 12
f 4 12 6
f 6 12 7
f 7 12 8
f 9 14 15
f 10 16 17
f 10 17 11
f 11 17 18
f 11 18 12
f 13 19 20
f 13 20 14
f 14 20 21
f 14 21 22
f 14 22 15
f 16 21 20
f 16 20 17
f 17 20 18
f 18 20 23
f 19 23 20

