# https://github.com/mikedh/trimesh
v 0.02045065 -0.00637571 0.05695939
v 0.02045065 -0.00637571 0.05732245
v 0.02663733 -0.00637571 0.05704724
v 0.02659312 -0.00665189 0.05695939
v 0.02108651 -0.01321139 0.05695939
v 0.02056086 -0.01339345 0.05699401
v 0.02650470 -0.00649525 0.05732245
v 0.02057176 -0.01334948 0.05732245
v 0.02637935 -0.00695348 0.05731684
v 0.02643748 -0.00717676 0.05695939
v 0.02197370 -0.01280469 0.05695939
v 0.02150255 -0.01302728 0.05699401
v 0.02100536 -0.01319353 0.05732245
v 0.02619707 -0.00753675 0.05732245
v 0.02632363 -0.00721454 0.05725084
v 0.02632787 -0.00752988 0.05695939
v 0.02357851 -0.01167663 0.05695939
v 0.02273068 -0.01233753 0.05699401
v 0.02235340 -0.01257935 0.05699401
v 0.02191314 -0.01276828 0.05732245
v 0.02151345 -0.01296957 0.05732245
v 0.02606747 -0.00789193 0.05732245
v 0.02618011 -0.00791941 0.05697670
v 0.02580525 -0.00876373 0.05695939
v 0.02403451 -0.01125481 0.05695939
v 0.02378017 -0.01148976 0.05699401
v 0.02363604 -0.01151793 0.05732245
v 0.02318245 -0.01191296 0.05732245
v 0.02332598 -0.01188479 0.05699401
v 0.02312855 -0.01204555 0.05699401
v 0.02267557 -0.01230112 0.05731577
v 0.02237036 -0.01250103 0.05732245
v 0.02566475 -0.00879534 0.05732245
v 0.02590214 -0.00829108 0.05731826
v 0.02594151 -0.00842161 0.05702915
v 0.02560480 -0.00913540 0.05699401
v 0.02541525 -0.00946929 0.05697670
v 0.02506643 -0.00999210 0.05695939
v 0.02392551 -0.01124313 0.05732245
v 0.02460134 -0.01060147 0.05695939
v 0.02428886 -0.01097314 0.05698537
v 0.02415381 -0.01100199 0.05732245
v 0.02524205 -0.00955860 0.05732245
v 0.02548489 -0.00914846 0.05732117
v 0.02480300 -0.01034659 0.05695939
v 0.02495864 -0.00998179 0.05731001
v 0.02435184 -0.01076772 0.05732245
v 0.02463404 -0.01041048 0.05732245
f 1 2 3
f 1 3 4
f 1 4 10
f 1 10 16
f 1 16 24
f 1 24 38
f 1 38 45
f 1 45 40
f 1 40 25
f 1 25 17
f 1 17 11
f 1 11 5
f 1 5 6
f 1 6 2
f 2 7 3
f 2 6 8
f 2 8 13
f 2 13 21
f 2 21 20
f 2 20 32
f 2 32 28
f 2 28 27
f 2 27 39
f 2 39 42
f 2 42 47
f 2 47 48
f 2 48 43
f 2 43 33
f 2 33 22
f 2 22 14
f 2 14 7
f 3 7 4
f 4 7 9
f 4 9 10
f 5 11 12
f 5 12 13
f 5 13 8
f 5 8 6
f 7 14 9
f 9 14 15
f 9 15 10
f 10 15 16
f 11 17 18
f 11 18 19
f 11 19 20
f 11 20 21
f 11 21 12
f 12 21 13
f 14 22 23
f 14 23 16
f 14 16 15
f 16 23 24
f 17 25 26
f 17 26 27
f 17 27 28
f 17 28 29
f 17 29 30
f 17 30 18
f 18 31 32
f 18 32 19
f 18 30 31
f 19 32 20
f 22 33 34
f 22 34 23
f 23 34 35
f 23 35 24
f 24 35 33
f 24 33 36
f 24 36 37
f 24 37 38
f 25 39 26
f 25 40 41
f 25 41 42
f 25 42 39
f 26 39 27
f 28 30 29
f 28 32 31
f 28 31 30
f 33 43 44
f 33 44 36
f 33 35 34
f 36 44 37
f 37 43 38
f 37 44 43
f 38 43 46
f 38 46 45
f 40 47 41
f 40 45 47
f 41 47 42
f 43 48 46
f 45 46 48
f 45 48 47

