# https://github.com/mikedh/trimesh
v 0.02383519 -0.01387482 0.05338922
v 0.02488465 -0.01387540 0.05338922
v 0.02383519 -0.01283566 0.05376049
v 0.02383519 -0.00795844 0.05338922
v 0.02491006 -0.01387540 0.05338922
v 0.02785950 -0.01387482 0.05338922
v 0.02825551 -0.01387424 0.05338922
v 0.02699126 -0.01281365 0.05376049
v 0.02383519 -0.00795844 0.05376049
v 0.02873254 -0.00795844 0.05338922
v 0.02827037 -0.01387250 0.05338922
v 0.02848995 -0.01366397 0.05345373
v 0.02825551 -0.01367614 0.05345795
v 0.02740405 -0.01275051 0.05376049
v 0.02741268 -0.01301059 0.05369093
v 0.02771472 -0.00795844 0.05376049
v 0.02873254 -0.01006109 0.05338922
v 0.02861844 -0.01379372 0.05338922
v 0.02872439 -0.01343170 0.05338922
v 0.02850961 -0.01343170 0.05346089
v 0.02783410 -0.01258890 0.05369972
v 0.02758959 -0.01257963 0.05376049
v 0.02783410 -0.01301059 0.05365611
v 0.02766821 -0.01216779 0.05376049
v 0.02783410 -0.01216779 0.05370354
v 0.02851728 -0.01301059 0.05346438
v 0.02872823 -0.01301059 0.05339064
v 0.02873206 -0.01301059 0.05338922
f 1 2 3
f 1 3 9
f 1 9 4
f 1 4 10
f 1 10 17
f 1 17 28
f 1 28 19
f 1 19 18
f 1 18 11
f 1 11 7
f 1 7 6
f 1 6 5
f 1 5 2
f 2 5 3
f 3 5 6
f 3 6 7
f 3 7 8
f 3 8 14
f 3 14 22
f 3 22 24
f 3 24 16
f 3 16 9
f 4 9 16
f 4 16 10
f 7 11 12
f 7 12 13
f 7 13 8
f 8 13 15
f 8 15 14
f 10 16 17
f 11 18 12
f 12 18 19
f 12 19 20
f 12 20 21
f 12 21 22
f 12 22 23
f 12 23 14
f 12 14 15
f 12 15 13
f 14 23 22
f 16 24 25
f 16 25 26
f 16 26 27
f 16 27 17
f 17 27 28
f 19 28 27
f 19 27 26
f 19 26 21
f 19 21 20
f 21 26 24
f 21 24 22
f 24 26 25

