# https://github.com/mikedh/trimesh
v 0.00828396 -0.00289838 0.05534195
v 0.00832906 -0.00322375 0.05501644
v 0.00832943 -0.00331884 0.05501644
v 0.00828562 -0.00332014 0.05534195
v 0.00828766 -0.00246950 0.05534195
v 0.00832887 -0.00280264 0.05501644
v 0.00832813 -0.00289708 0.05501644
v 0.00835345 -0.00364487 0.05501644
v 0.00832351 -0.00374125 0.05534195
v 0.01017213 -0.00246174 0.05534195
v 0.00833756 -0.00246174 0.05501644
v 0.00836214 -0.00373996 0.05501644
v 0.00841297 -0.00406662 0.05501644
v 0.00843034 -0.00416171 0.05501644
v 0.00840059 -0.00416236 0.05534195
v 0.01017213 -0.00246174 0.05501644
v 0.01017213 -0.00907016 0.05534195
v 0.00849466 -0.00448774 0.05501644
v 0.00857894 -0.00491402 0.05501644
v 0.00868558 -0.00545092 0.05501644
v 0.00867764 -0.00554731 0.05534195
v 0.01017213 -0.00903070 0.05501644
v 0.01002649 -0.00883728 0.05534195
v 0.00876876 -0.00584551 0.05501644
v 0.00873918 -0.00584681 0.05534195
v 0.01003813 -0.00881529 0.05501644
v 0.00989859 -0.00862576 0.05534195
v 0.00889314 -0.00626727 0.05501644
v 0.00885895 -0.00626792 0.05534195
v 0.00993999 -0.00865228 0.05501644
v 0.00975110 -0.00837477 0.05534195
v 0.00987789 -0.00854813 0.05501644
v 0.00991134 -0.00860441 0.05501644
v 0.00902899 -0.00663017 0.05501644
v 0.00902123 -0.00670456 0.05534195
v 0.00973761 -0.00829909 0.05501644
v 0.00977956 -0.00837413 0.05501644
v 0.00956443 -0.00804034 0.05534195
v 0.00933506 -0.00743358 0.05501644
v 0.00903638 -0.00674466 0.05534195
v 0.00958087 -0.00800476 0.05501644
v 0.00945945 -0.00783011 0.05534195
v 0.00914432 -0.00702799 0.05534195
v 0.00937239 -0.00753125 0.05501644
v 0.00933672 -0.00753190 0.05534195
v 0.00947737 -0.00779388 0.05501644
v 0.00944965 -0.00772661 0.05501644
f 1 2 3
f 1 3 4
f 1 4 9
f 1 9 15
f 1 15 21
f 1 21 25
f 1 25 29
f 1 29 35
f 1 35 40
f 1 40 43
f 1 43 45
f 1 45 42
f 1 42 38
f 1 38 31
f 1 31 27
f 1 27 23
f 1 23 17
f 1 17 10
f 1 10 5
f 1 5 6
f 1 6 7
f 1 7 2
f 2 7 6
f 2 6 11
f 2 11 16
f 2 16 22
f 2 22 26
f 2 26 30
f 2 30 33
f 2 33 32
f 2 32 37
f 2 37 36
f 2 36 41
f 2 41 46
f 2 46 47
f 2 47 44
f 2 44 39
f 2 39 34
f 2 34 28
f 2 28 24
f 2 24 20
f 2 20 19
f 2 19 18
f 2 18 14
f 2 14 13
f 2 13 12
f 2 12 8
f 2 8 3
f 3 8 4
f 4 8 9
f 5 10 11
f 5 11 6
f 8 12 9
f 9 13 14
f 9 14 15
f 9 12 13
f 10 16 11
f 10 17 22
f 10 22 16
f 14 18 15
f 15 18 19
f 15 19 20
f 15 20 21
f 17 23 22
f 20 24 25
f 20 25 21
f 22 23 26
f 23 27 26
f 24 28 29
f 24 29 25
f 26 27 30
f 27 31 32
f 27 32 33
f 27 33 30
f 28 34 35
f 28 35 29
f 31 36 37
f 31 37 32
f 31 38 36
f 34 39 43
f 34 43 40
f 34 40 35
f 36 38 41
f 38 42 41
f 39 44 45
f 39 45 43
f 41 42 46
f 42 45 47
f 42 47 46
f 44 47 45

