# https://github.com/mikedh/trimesh
v 0.02077615 -0.01314773 0.05844593
v 0.02109401 -0.01302876 0.05829464
v 0.02109179 -0.01299372 0.05859722
v 0.02077615 -0.00372631 0.05844593
v 0.02153868 -0.01281204 0.05829464
v 0.02643231 -0.00452127 0.05829464
v 0.02151598 -0.01278437 0.05859722
v 0.02631269 -0.00452219 0.05859722
v 0.02639687 -0.00373000 0.05842526
v 0.02193518 -0.01258517 0.05829464
v 0.02638967 -0.00420494 0.05843912
v 0.02632377 -0.00504693 0.05846483
v 0.02634481 -0.00542596 0.05829464
v 0.02195844 -0.01252246 0.05859722
v 0.02624015 -0.00533374 0.05859722
v 0.02230897 -0.01234447 0.05829464
v 0.02617757 -0.00577364 0.05859722
v 0.02627448 -0.00586402 0.05829464
v 0.02225636 -0.01232695 0.05859488
v 0.02275364 -0.01195161 0.05859722
v 0.02280404 -0.01197466 0.05829464
v 0.02608067 -0.00628455 0.05859722
v 0.02619585 -0.00626980 0.05829464
v 0.02325702 -0.01158364 0.05829464
v 0.02323376 -0.01153661 0.05859722
v 0.02597933 -0.00671800 0.05859722
v 0.02609894 -0.00669033 0.05829464
v 0.02357820 -0.01128023 0.05829464
v 0.02365683 -0.01111607 0.05859722
v 0.02576834 -0.00747053 0.05859722
v 0.02592340 -0.00710533 0.05846936
v 0.02585750 -0.00751664 0.05829464
v 0.02387945 -0.01096114 0.05829464
v 0.02394535 -0.01078776 0.05859722
v 0.02562104 -0.00789660 0.05859722
v 0.02570023 -0.00795654 0.05829464
v 0.02426321 -0.01049911 0.05829464
v 0.02413972 -0.01054983 0.05859722
v 0.02525002 -0.00876533 0.05859722
v 0.02547485 -0.00827102 0.05858961
v 0.02552136 -0.00838999 0.05829464
v 0.02482085 -0.00971153 0.05829464
v 0.02460211 -0.00997989 0.05843381
v 0.02434073 -0.01028884 0.05859722
v 0.02506229 -0.00913514 0.05859411
v 0.02533253 -0.00879576 0.05829464
v 0.02481863 -0.00956674 0.05859722
v 0.02510382 -0.00923474 0.05829464
f 1 2 3
f 1 3 4
f 1 4 2
f 2 5 3
f 2 4 6
f 2 6 13
f 2 13 18
f 2 18 23
f 2 23 27
f 2 27 32
f 2 32 36
f 2 36 41
f 2 41 46
f 2 46 48
f 2 48 42
f 2 42 37
f 2 37 33
f 2 33 28
f 2 28 24
f 2 24 21
f 2 21 16
f 2 16 10
f 2 10 5
f 3 5 7
f 3 7 14
f 3 14 20
f 3 20 25
f 3 25 29
f 3 29 34
f 3 34 38
f 3 38 44
f 3 44 47
f 3 47 39
f 3 39 35
f 3 35 30
f 3 30 26
f 3 26 22
f 3 22 17
f 3 17 15
f 3 15 8
f 3 8 4
f 4 8 9
f 4 9 6
f 5 10 7
f 6 9 11
f 6 11 8
f 6 8 12
f 6 12 13
f 7 10 14
f 8 15 12
f 8 11 9
f 10 16 14
f 12 15 13
f 13 15 17
f 13 17 18
f 14 16 19
f 14 19 20
f 16 21 19
f 17 22 18
f 18 22 23
f 19 21 20
f 20 21 24
f 20 24 25
f 22 26 27
f 22 27 23
f 24 28 25
f 25 28 29
f 26 30 31
f 26 31 27
f 27 31 32
f 28 33 29
f 29 33 34
f 30 32 31
f 30 35 32
f 32 35 36
f 33 37 34
f 34 37 38
f 35 39 40
f 35 40 36
f 36 40 41
f 37 42 43
f 37 43 44
f 37 44 38
f 39 45 46
f 39 46 41
f 39 41 40
f 39 47 45
f 42 47 43
f 42 48 47
f 43 47 44
f 45 47 48
f 45 48 46

