# https://github.com/mikedh/trimesh
v 0.01767374 0.00847139 0.05501644
v 0.01772132 0.00839421 0.05534195
v 0.01809268 0.00846649 0.05501644
v 0.01725249 0.00845367 0.05501644
v 0.01729891 0.00838488 0.05534195
v 0.01814026 0.00838255 0.05534195
v 0.01851858 0.00843781 0.05501644
v 0.01685444 0.00839327 0.05517921
v 0.01640765 0.00837905 0.05501644
v 0.01622430 0.00829744 0.05532347
v 0.01561388 0.00817968 0.05534195
v 0.01861606 0.00834174 0.05534195
v 0.01894332 0.00838768 0.05501644
v 0.01578447 0.00825780 0.05503792
v 0.01428512 0.00773991 0.05501644
v 0.01515317 0.00806752 0.05517921
v 0.01438841 0.00776999 0.05534195
v 0.01903500 0.00828111 0.05534195
v 0.01935413 0.00825570 0.05522060
v 0.01970576 0.00824217 0.05501644
v 0.01379656 0.00749787 0.05501644
v 0.01395555 0.00756363 0.05534195
v 0.01468665 0.00790290 0.05520094
v 0.01982645 0.00810646 0.05534195
v 0.02020361 0.00811206 0.05501644
v 0.01343797 0.00730270 0.05501644
v 0.01359696 0.00738081 0.05534195
v 0.02030921 0.00796819 0.05534195
v 0.02063066 0.00798335 0.05501644
v 0.01251190 0.00668431 0.05501644
v 0.01301787 0.00704154 0.05517921
v 0.01266392 0.00679880 0.05534195
v 0.02067128 0.00784810 0.05534195
v 0.02103451 0.00775833 0.05519419
v 0.02141051 0.00766949 0.05501644
v 0.01217768 0.00642175 0.05501644
v 0.01230649 0.00653531 0.05534195
v 0.02178187 0.00734864 0.05534195
v 0.02197219 0.00740716 0.05501778
v 0.02234354 0.00720150 0.05501644
v 0.01186435 0.00616362 0.05517921
v 0.02318606 0.00660177 0.05501644
v 0.02371988 0.00618344 0.05502004
v 0.02361660 0.00608947 0.05533360
v 0.02320694 0.00639307 0.05534195
v 0.02237836 0.00701169 0.05534195
v 0.02268008 0.00698068 0.05501644
v 0.02278221 0.00671299 0.05534195
f 1 2 3
f 1 3 7
f 1 7 13
f 1 13 20
f 1 20 25
f 1 25 29
f 1 29 35
f 1 35 40
f 1 40 47
f 1 47 42
f 1 42 36
f 1 36 30
f 1 30 26
f 1 26 21
f 1 21 15
f 1 15 9
f 1 9 4
f 1 4 5
f 1 5 2
f 2 5 11
f 2 11 17
f 2 17 22
f 2 22 27
f 2 27 32
f 2 32 37
f 2 37 45
f 2 45 48
f 2 48 46
f 2 46 38
f 2 38 33
f 2 33 28
f 2 28 24
f 2 24 18
f 2 18 12
f 2 12 6
f 2 6 3
f 3 6 7
f 4 8 5
f 4 9 8
f 5 8 10
f 5 10 11
f 6 12 7
f 7 12 13
f 8 9 10
f 9 14 11
f 9 11 10
f 9 15 14
f 11 14 16
f 11 16 17
f 12 18 13
f 13 18 19
f 13 19 20
f 14 15 16
f 15 21 22
f 15 22 17
f 15 17 23
f 15 23 16
f 16 23 17
f 18 24 19
f 19 24 20
f 20 24 25
f 21 26 27
f 21 27 22
f 24 28 25
f 25 28 29
f 26 30 31
f 26 31 27
f 27 31 32
f 28 33 29
f 29 33 34
f 29 34 35
f 30 32 31
f 30 36 37
f 30 37 32
f 33 38 34
f 34 38 35
f 35 38 39
f 35 39 40
f 36 41 37
f 36 42 43
f 36 43 41
f 37 41 44
f 37 44 45
f 38 46 40
f 38 40 39
f 40 46 47
f 41 43 44
f 42 47 48
f 42 48 44
f 42 44 43
f 44 48 45
f 46 48 47

