# https://github.com/mikedh/trimesh
v 0.02312799 0.01280573 0.04459726
v 0.02312799 0.01284420 0.04438562
v 0.02119565 0.01281535 0.04454503
v 0.02119565 0.01280573 0.04459726
v 0.02312799 -0.01056608 0.04459726
v 0.02119565 0.01329860 0.04180326
v 0.02119565 0.01284420 0.04438562
v 0.02312799 0.01364722 0.03982120
v 0.02119565 -0.01062138 0.04459726
v 0.02119565 -0.01053242 0.03848627
v 0.02119565 -0.01052761 0.03821901
v 0.02119565 -0.01052521 0.03808742
v 0.02312799 -0.01042663 0.03806436
v 0.02119565 0.01377224 0.03911100
v 0.02312799 0.01376022 0.03917816
v 0.02119565 -0.01038095 0.03777403
v 0.02312799 -0.01034489 0.03777403
v 0.02312799 0.01386841 0.03855682
v 0.02119565 0.01388044 0.03848627
v 0.02119565 -0.01005878 0.03768178
v 0.02312799 -0.01005878 0.03768178
v 0.02312799 0.01388044 0.03848627
v 0.02119565 0.01389486 0.03838181
v 0.02119565 -0.00963803 0.03766822
v 0.02312799 -0.00963803 0.03766822
v 0.02312799 0.01392852 0.03813490
v 0.02119565 0.01393573 0.03806436
v 0.02119565 0.01353903 0.03766822
v 0.02312799 0.01353903 0.03766822
v 0.02312799 0.01393573 0.03806436
v 0.02119565 0.01391650 0.03798974
v 0.02119565 0.01377465 0.03773808
v 0.02312799 0.01385158 0.03776115
v 0.02312799 0.01386601 0.03781202
v 0.02119565 0.01385158 0.03776115
f 1 2 3
f 1 3 4
f 1 4 9
f 1 9 5
f 1 5 13
f 1 13 17
f 1 17 21
f 1 21 25
f 1 25 29
f 1 29 33
f 1 33 34
f 1 34 30
f 1 30 26
f 1 26 22
f 1 22 18
f 1 18 15
f 1 15 8
f 1 8 2
f 2 6 7
f 2 7 3
f 2 8 6
f 3 7 6
f 3 6 14
f 3 14 19
f 3 19 23
f 3 23 27
f 3 27 31
f 3 31 35
f 3 35 32
f 3 32 28
f 3 28 24
f 3 24 20
f 3 20 16
f 3 16 12
f 3 12 11
f 3 11 10
f 3 10 9
f 3 9 4
f 5 9 10
f 5 10 11
f 5 11 12
f 5 12 13
f 6 8 14
f 8 15 14
f 12 16 17
f 12 17 13
f 14 15 18
f 14 18 19
f 16 20 21
f 16 21 17
f 18 22 19
f 19 22 23
f 20 24 25
f 20 25 21
f 22 26 23
f 23 26 27
f 24 28 29
f 24 29 25
f 26 30 27
f 27 30 31
f 28 32 29
f 29 32 33
f 30 34 31
f 31 34 33
f 31 33 35
f 32 35 33

