# https://github.com/mikedh/trimesh
v 0.02659647 0.00817042 0.05376049
v 0.02656964 0.00815371 0.05377382
v 0.02656964 0.00794298 0.05393940
v 0.02701763 0.00815290 0.05376049
v 0.02277724 0.00817042 0.05376049
v 0.02277724 0.00754599 0.05427418
v 0.02614847 0.00794298 0.05394237
v 0.02699128 0.00792464 0.05391637
v 0.02572683 0.00766908 0.05415305
v 0.02572683 0.00750319 0.05427418
v 0.02601623 0.00748036 0.05427418
v 0.02742874 0.00806322 0.05376049
v 0.02277676 0.00779666 0.05376049
v 0.02277676 0.00817001 0.05376054
v 0.02277676 0.00754599 0.05427418
v 0.02725625 0.00788755 0.05388685
v 0.02615039 0.00721746 0.05427418
v 0.02622657 0.00721746 0.05425452
v 0.02746323 0.00804366 0.05376049
v 0.02277676 0.00400643 0.05376049
v 0.02277676 0.00400643 0.05427418
v 0.02728308 0.00763892 0.05389636
v 0.02764004 0.00781989 0.05376049
v 0.02633534 0.00400643 0.05427418
v 0.02656964 0.00721746 0.05414606
v 0.02767166 0.00400643 0.05376049
v 0.02749390 0.00763892 0.05382259
v 0.02767118 0.00763892 0.05376049
f 1 2 3
f 1 3 4
f 1 4 12
f 1 12 19
f 1 19 23
f 1 23 28
f 1 28 26
f 1 26 20
f 1 20 13
f 1 13 5
f 1 5 15
f 1 15 6
f 1 6 7
f 1 7 2
f 2 7 3
f 3 8 4
f 3 7 6
f 3 6 9
f 3 9 10
f 3 10 11
f 3 11 8
f 4 8 12
f 5 13 14
f 5 14 15
f 6 15 21
f 6 21 24
f 6 24 17
f 6 17 11
f 6 11 10
f 6 10 9
f 8 16 12
f 8 11 16
f 11 17 18
f 11 18 16
f 12 16 19
f 13 20 21
f 13 21 15
f 13 15 14
f 16 18 22
f 16 22 23
f 16 23 19
f 17 24 18
f 18 24 25
f 18 25 22
f 20 26 24
f 20 24 21
f 22 27 23
f 22 25 24
f 22 24 27
f 23 27 28
f 24 26 28
f 24 28 27

