# https://github.com/mikedh/trimesh
v 0.02195315 0.00686217 0.05621090
v 0.01269194 0.00684292 0.05616937
v 0.01270695 0.00685984 0.05654025
v 0.02168138 0.00686217 0.05655394
v 0.02203423 0.00663148 0.05655394
v 0.02225495 0.00666998 0.05617561
v 0.01227903 0.00656673 0.05655394
v 0.02247867 0.00650636 0.05616542
v 0.01228353 0.00655332 0.05616542
v 0.02239909 0.00636229 0.05655394
v 0.02284654 0.00619693 0.05622992
v 0.02321891 0.00594990 0.05616542
v 0.01191116 0.00628850 0.05655394
v 0.01191116 0.00626459 0.05616542
v 0.02284354 0.00602836 0.05655394
v 0.02309729 0.00583500 0.05655394
v 0.02341410 0.00574721 0.05626247
v 0.02367686 0.00556581 0.05616542
v 0.01168444 0.00610185 0.05655394
v 0.01170095 0.00608552 0.05616542
v 0.02331350 0.00565797 0.05655394
v 0.02353873 0.00544798 0.05655394
v 0.02388107 0.00537186 0.05616542
v 0.01144570 0.00589128 0.05655394
v 0.01146672 0.00587466 0.05616542
v 0.02395314 0.00502976 0.05655394
v 0.02378047 0.00527271 0.05646240
v 0.02418887 0.00500760 0.05622086
v 0.02450569 0.00468329 0.05617435
v 0.02485704 0.00424728 0.05616542
v 0.01114390 0.00560576 0.05655394
v 0.01125651 0.00567517 0.05616542
v 0.02416185 0.00479907 0.05655394
v 0.02465284 0.00445172 0.05624536
v 0.02434503 0.00458617 0.05655394
v 0.02508226 0.00393522 0.05616542
v 0.02465133 0.00420674 0.05653838
v 0.01105081 0.00546490 0.05617561
v 0.01081657 0.00526716 0.05655394
v 0.00982709 0.00388331 0.05616576
v 0.01075651 0.00513680 0.05617051
v 0.02487205 0.00388331 0.05655394
v 0.01062889 0.00504697 0.05655394
v 0.00974300 0.00388331 0.05655394
v 0.00997724 0.00415891 0.05619702
v 0.01027754 0.00456167 0.05617561
v 0.01033760 0.00469991 0.05655394
v 0.00996523 0.00422249 0.05655394
f 1 2 3
f 1 3 4
f 1 4 5
f 1 5 6
f 1 6 2
f 2 7 3
f 2 6 8
f 2 8 9
f 2 9 7
f 3 7 4
f 4 7 13
f 4 13 19
f 4 19 24
f 4 24 31
f 4 31 39
f 4 39 43
f 4 43 47
f 4 47 48
f 4 48 44
f 4 44 42
f 4 42 35
f 4 35 33
f 4 33 26
f 4 26 22
f 4 22 21
f 4 21 16
f 4 16 15
f 4 15 10
f 4 10 5
f 5 10 6
f 6 10 11
f 6 11 12
f 6 12 8
f 7 9 13
f 8 12 18
f 8 18 23
f 8 23 30
f 8 30 36
f 8 36 32
f 8 32 25
f 8 25 20
f 8 20 14
f 8 14 9
f 9 14 13
f 10 15 11
f 11 15 12
f 12 16 17
f 12 17 18
f 12 15 16
f 13 14 19
f 14 20 19
f 16 21 17
f 17 21 18
f 18 21 22
f 18 22 23
f 19 20 24
f 20 25 24
f 22 26 27
f 22 27 23
f 23 27 26
f 23 26 28
f 23 28 29
f 23 29 30
f 24 25 31
f 25 32 31
f 26 33 28
f 28 33 29
f 29 34 30
f 29 33 35
f 29 35 34
f 30 34 37
f 30 37 36
f 31 32 38
f 31 38 39
f 32 40 41
f 32 41 38
f 32 36 40
f 34 35 37
f 35 42 37
f 36 37 42
f 36 42 40
f 38 41 39
f 39 41 43
f 40 44 45
f 40 45 46
f 40 46 41
f 40 42 44
f 41 46 47
f 41 47 43
f 44 48 45
f 45 48 46
f 46 48 47

