# https://github.com/mikedh/trimesh
v 0.01774506 0.00809925 0.05655401
v 0.01668056 0.00809408 0.05655401
v 0.01732212 0.00806794 0.05676996
v 0.01775287 0.00800046 0.05695935
v 0.01818361 0.00799863 0.05676996
v 0.01857532 0.00799225 0.05658060
v 0.01916873 0.00787248 0.05656100
v 0.01985454 0.00768674 0.05655401
v 0.01649186 0.00801900 0.05695935
v 0.01691220 0.00803268 0.05695935
v 0.01606242 0.00805913 0.05655401
v 0.01944071 0.00767245 0.05695935
v 0.01882257 0.00782657 0.05695745
v 0.01983893 0.00755025 0.05695935
v 0.02021632 0.00741102 0.05694848
v 0.02052213 0.00742987 0.05655401
v 0.01607023 0.00799377 0.05695935
v 0.01564078 0.00800836 0.05655401
v 0.02086439 0.00711068 0.05695935
v 0.02138623 0.00698634 0.05665258
v 0.02201218 0.00662763 0.05659310
v 0.02237265 0.00637684 0.05656628
v 0.02398632 0.00499399 0.05655401
v 0.01547421 0.00791716 0.05695935
v 0.01437457 0.00766059 0.05676996
v 0.01496668 0.00784147 0.05675222
v 0.01350657 0.00728486 0.05655401
v 0.02162698 0.00670302 0.05695935
v 0.02196272 0.00647533 0.05695935
v 0.02238046 0.00616466 0.05695935
v 0.02277607 0.00606160 0.05658929
v 0.02319770 0.00573846 0.05658060
v 0.02364016 0.00534054 0.05656731
v 0.02372215 0.00503047 0.05690090
v 0.01069176 0.00515693 0.05676329
v 0.01114332 0.00560622 0.05655401
v 0.01335431 0.00719123 0.05695935
v 0.01388656 0.00746026 0.05676662
v 0.01228200 0.00656927 0.05655401
v 0.01283898 0.00693314 0.05676329
v 0.02329921 0.00542596 0.05693415
v 0.02290490 0.00578193 0.05692967
v 0.01111470 0.00562507 0.05695935
v 0.01146085 0.00590535 0.05655401
v 0.01226769 0.00658203 0.05695935
v 0.01179660 0.00619566 0.05655401
v 0.01177838 0.00621329 0.05695935
v 0.01142442 0.00591234 0.05695935
f 1 2 3
f 1 3 4
f 1 4 5
f 1 5 6
f 1 6 7
f 1 7 8
f 1 8 16
f 1 16 23
f 1 23 36
f 1 36 44
f 1 44 46
f 1 46 39
f 1 39 27
f 1 27 18
f 1 18 11
f 1 11 2
f 2 9 10
f 2 10 3
f 2 11 9
f 3 10 4
f 4 12 13
f 4 13 5
f 4 10 9
f 4 9 17
f 4 17 24
f 4 24 37
f 4 37 45
f 4 45 47
f 4 47 48
f 4 48 43
f 4 43 30
f 4 30 29
f 4 29 28
f 4 28 19
f 4 19 14
f 4 14 12
f 5 13 6
f 6 13 7
f 7 13 12
f 7 12 8
f 8 12 14
f 8 14 15
f 8 15 16
f 9 11 17
f 11 18 17
f 14 19 15
f 15 19 16
f 16 19 20
f 16 20 21
f 16 21 22
f 16 22 23
f 17 18 24
f 18 25 26
f 18 26 24
f 18 27 25
f 19 28 20
f 20 28 21
f 21 28 29
f 21 29 22
f 22 30 31
f 22 31 32
f 22 32 33
f 22 33 23
f 22 29 30
f 23 33 34
f 23 34 35
f 23 35 36
f 24 26 25
f 24 25 37
f 25 38 37
f 25 27 38
f 27 39 40
f 27 40 37
f 27 37 38
f 30 41 42
f 30 42 31
f 30 43 41
f 31 42 32
f 32 42 41
f 32 41 33
f 33 41 34
f 34 41 43
f 34 43 35
f 35 43 36
f 36 43 44
f 37 40 45
f 39 45 40
f 39 46 47
f 39 47 45
f 43 48 44
f 44 48 46
f 46 48 47

