# https://github.com/mikedh/trimesh
v 0.00724114 -0.00103824 0.06063283
v 0.00805328 0.00227712 0.06065822
v 0.00778257 0.00097540 0.05995984
v 0.00764076 -0.00112722 0.05914485
v 0.00760393 -0.00310567 0.05914485
v 0.00725035 -0.00308705 0.06074599
v 0.00882306 0.00374233 0.06073533
v 0.00887462 0.00325185 0.05926256
v 0.01819668 0.00728532 0.05914485
v 0.00818587 -0.00589744 0.05914485
v 0.00802750 -0.00641482 0.06073251
v 0.02214686 -0.01201284 0.06074599
v 0.01386161 0.00719634 0.06074599
v 0.01237361 0.00673070 0.06014211
v 0.01086536 0.00577872 0.05993696
v 0.00973464 0.00467154 0.05976001
v 0.01449695 0.00743640 0.05931757
v 0.01620409 0.00745503 0.05986329
v 0.01826850 0.00680520 0.06070539
v 0.01992223 0.00627334 0.06009745
v 0.02148205 0.00567111 0.05915159
v 0.02604179 -0.00273316 0.05914485
v 0.00905509 -0.00832083 0.06011359
v 0.01525568 -0.01331870 0.05914485
v 0.01063332 -0.01032205 0.05924798
v 0.00985986 -0.00960393 0.06037015
v 0.01560190 -0.01345321 0.06069176
v 0.01982095 -0.01326696 0.06072436
v 0.02091668 -0.01298758 0.05925268
v 0.02283008 -0.01170862 0.05925111
v 0.02349489 -0.01067387 0.06068627
v 0.02451328 -0.00897894 0.06074552
v 0.02546906 -0.00521864 0.06074599
v 0.02121502 0.00508130 0.06074599
v 0.02258147 0.00424315 0.05993821
v 0.02464403 0.00146794 0.05958259
v 0.02567347 -0.00093062 0.05928998
v 0.02605284 -0.00495168 0.05914485
v 0.02541749 -0.00293597 0.06072436
v 0.01921507 -0.01354634 0.05916178
v 0.01761842 -0.01368707 0.05984464
v 0.01335333 -0.01258816 0.05988586
v 0.01175300 -0.01149339 0.05988179
v 0.02445067 -0.00985848 0.05916915
v 0.02553720 -0.00748268 0.05915974
v 0.02521492 -0.00690322 0.06073988
v 0.02491290 -0.00051258 0.06074270
v 0.02361459 0.00231437 0.06072514
f 1 2 3
f 1 3 4
f 1 4 5
f 1 5 6
f 1 6 2
f 2 7 8
f 2 8 3
f 2 6 7
f 3 8 4
f 4 8 9
f 4 9 22
f 4 22 38
f 4 38 24
f 4 24 10
f 4 10 5
f 5 10 6
f 6 10 11
f 6 11 12
f 6 12 33
f 6 33 34
f 6 34 13
f 6 13 7
f 7 13 14
f 7 14 15
f 7 15 16
f 7 16 8
f 8 16 15
f 8 15 17
f 8 17 9
f 9 17 18
f 9 18 19
f 9 19 20
f 9 20 21
f 9 21 22
f 10 23 11
f 10 24 25
f 10 25 23
f 11 23 26
f 11 26 27
f 11 27 28
f 11 28 12
f 12 28 29
f 12 29 30
f 12 30 31
f 12 31 32
f 12 32 33
f 13 34 19
f 13 19 18
f 13 18 17
f 13 17 14
f 14 17 15
f 19 34 20
f 20 34 21
f 21 34 35
f 21 35 36
f 21 36 37
f 21 37 22
f 22 37 39
f 22 39 33
f 22 33 38
f 23 25 26
f 24 40 41
f 24 41 27
f 24 27 42
f 24 42 25
f 24 38 40
f 25 42 43
f 25 43 26
f 26 43 27
f 27 43 42
f 27 41 28
f 28 41 40
f 28 40 29
f 29 40 30
f 30 40 44
f 30 44 31
f 31 44 32
f 32 44 45
f 32 45 46
f 32 46 33
f 33 46 38
f 33 39 47
f 33 47 34
f 34 47 48
f 34 48 35
f 35 48 36
f 36 48 47
f 36 47 37
f 37 47 39
f 38 46 45
f 38 45 44
f 38 44 40

