# https://github.com/mikedh/trimesh
v 0.02754074 0.00005897 0.05501644
v 0.02736993 0.00005897 0.05534198
v 0.02754266 0.00005355 0.05501644
v 0.00852553 0.00005897 0.05501644
v 0.02737185 0.00005355 0.05534198
v 0.00847563 0.00005897 0.05534198
v 0.02756185 -0.00002564 0.05501644
v 0.00852361 0.00005355 0.05501644
v 0.00852361 0.00005897 0.05502020
v 0.02748125 -0.00040281 0.05534198
v 0.02759448 -0.00029180 0.05507635
v 0.00847372 0.00005231 0.05534198
v 0.02760791 -0.00022002 0.05501644
v 0.00846604 -0.00027305 0.05501644
v 0.02748508 -0.00042180 0.05534198
v 0.02762327 -0.00057277 0.05513464
v 0.02766357 -0.00047681 0.05501644
v 0.02763478 -0.00033892 0.05501644
v 0.00840271 -0.00036901 0.05534198
v 0.00845068 -0.00036803 0.05501644
v 0.02755034 -0.00075457 0.05534198
v 0.02764246 -0.00078935 0.05517107
v 0.02771922 -0.00078935 0.05501644
v 0.00839887 -0.00069438 0.05501644
v 0.00838543 -0.00078935 0.05501644
v 0.00834897 -0.00079059 0.05534198
v 0.02755609 -0.00078935 0.05534198
v 0.02774033 -0.00091541 0.05501644
v 0.02762518 -0.00121068 0.05534198
v 0.00835281 -0.00121068 0.05501644
v 0.00831058 -0.00121167 0.05534198
v 0.02778448 -0.00121068 0.05501644
v 0.02764630 -0.00137423 0.05534198
v 0.00834513 -0.00163201 0.05501644
v 0.00829715 -0.00163299 0.05534198
v 0.02779791 -0.00131823 0.05501644
v 0.02768468 -0.00169466 0.05534198
v 0.02770195 -0.00163201 0.05529313
v 0.00833745 -0.00246109 0.05501644
v 0.00828756 -0.00246109 0.05534198
v 0.00829139 -0.00205457 0.05534198
v 0.02783629 -0.00163201 0.05501644
v 0.02771922 -0.00207702 0.05534198
v 0.02789387 -0.00246109 0.05501644
v 0.02774033 -0.00246109 0.05534198
v 0.02787276 -0.00205703 0.05501644
f 1 2 5
f 1 5 3
f 1 3 7
f 1 7 13
f 1 13 18
f 1 18 17
f 1 17 23
f 1 23 28
f 1 28 32
f 1 32 36
f 1 36 42
f 1 42 46
f 1 46 44
f 1 44 39
f 1 39 34
f 1 34 30
f 1 30 25
f 1 25 24
f 1 24 20
f 1 20 14
f 1 14 8
f 1 8 4
f 1 4 9
f 1 9 6
f 1 6 2
f 2 6 12
f 2 12 19
f 2 19 26
f 2 26 31
f 2 31 35
f 2 35 41
f 2 41 40
f 2 40 45
f 2 45 43
f 2 43 37
f 2 37 33
f 2 33 29
f 2 29 27
f 2 27 21
f 2 21 15
f 2 15 10
f 2 10 5
f 3 5 7
f 4 8 9
f 5 10 11
f 5 11 7
f 6 9 12
f 7 11 13
f 8 14 9
f 9 14 12
f 10 15 16
f 10 16 11
f 11 16 17
f 11 17 18
f 11 18 13
f 12 14 19
f 14 20 19
f 15 21 16
f 16 21 22
f 16 22 23
f 16 23 17
f 19 20 24
f 19 24 25
f 19 25 26
f 21 27 22
f 22 28 23
f 22 27 29
f 22 29 28
f 25 30 31
f 25 31 26
f 28 29 32
f 29 33 32
f 30 34 35
f 30 35 31
f 32 33 36
f 33 37 38
f 33 38 36
f 34 39 40
f 34 40 41
f 34 41 35
f 36 38 42
f 37 43 42
f 37 42 38
f 39 44 45
f 39 45 40
f 42 43 46
f 43 45 46
f 44 46 45

