# https://github.com/mikedh/trimesh
v 0.01858056 0.00892131 0.05338922
v 0.01840281 0.00892131 0.05338922
v 0.01843027 0.00877435 0.05376049
v 0.01856322 0.00877192 0.05376049
v 0.02784379 0.00863285 0.05338922
v 0.01815425 0.00892010 0.05338922
v 0.01814269 0.00877435 0.05376049
v 0.01884213 0.00875613 0.05376049
v 0.02783368 0.00841544 0.05354929
v 0.02826577 0.00859216 0.05338922
v 0.01797650 0.00891160 0.05338922
v 0.01799529 0.00876888 0.05376049
v 0.02701718 0.00815308 0.05376049
v 0.02742760 0.00806321 0.05376049
v 0.02825565 0.00837353 0.05350066
v 0.02861260 0.00845491 0.05338922
v 0.01772072 0.00889884 0.05338922
v 0.01772072 0.00875552 0.05376049
v 0.02746228 0.00804377 0.05376049
v 0.02783368 0.00806017 0.05367780
v 0.02849988 0.00831280 0.05345842
v 0.02862994 0.00844034 0.05338922
v 0.01729440 0.00887212 0.05338922
v 0.01759644 0.00874702 0.05376049
v 0.02764003 0.00781968 0.05376049
v 0.02825565 0.00806017 0.05355550
v 0.02851722 0.00806017 0.05346438
v 0.02872821 0.00806017 0.05339064
v 0.02873110 0.00806503 0.05338922
v 0.01396918 0.00863406 0.05338922
v 0.01733198 0.00872394 0.05376049
v 0.02767038 0.00763871 0.05376049
v 0.02769783 0.00280402 0.05376049
v 0.02873254 0.00553685 0.05338922
v 0.01685942 0.00866382 0.05376049
v 0.01687821 0.00866686 0.05376049
v 0.01691723 0.00867232 0.05376049
v 0.01721492 0.00871240 0.05376049
v 0.01396918 0.00271778 0.05338922
v 0.01396918 0.00817677 0.05376049
v 0.02769783 0.00271778 0.05376049
v 0.02873254 0.00426821 0.05338922
v 0.01396918 0.00271778 0.05376049
v 0.02860248 0.00271778 0.05338922
v 0.02873110 0.00271778 0.05338966
v 0.02873110 0.00300382 0.05338922
f 1 2 7
f 1 7 3
f 1 3 4
f 1 4 5
f 1 5 10
f 1 10 16
f 1 16 22
f 1 22 29
f 1 29 34
f 1 34 42
f 1 42 46
f 1 46 44
f 1 44 39
f 1 39 30
f 1 30 23
f 1 23 17
f 1 17 11
f 1 11 6
f 1 6 2
f 2 6 7
f 3 7 12
f 3 12 18
f 3 18 24
f 3 24 31
f 3 31 38
f 3 38 37
f 3 37 36
f 3 36 35
f 3 35 40
f 3 40 43
f 3 43 41
f 3 41 33
f 3 33 32
f 3 32 25
f 3 25 19
f 3 19 14
f 3 14 13
f 3 13 8
f 3 8 4
f 4 8 5
f 5 9 10
f 5 8 9
f 6 11 12
f 6 12 7
f 8 13 9
f 9 13 14
f 9 14 15
f 9 15 10
f 10 15 16
f 11 17 18
f 11 18 12
f 14 19 15
f 15 19 20
f 15 20 21
f 15 21 22
f 15 22 16
f 17 23 18
f 18 23 24
f 19 25 20
f 20 25 21
f 21 25 26
f 21 26 27
f 21 27 28
f 21 28 29
f 21 29 22
f 23 30 24
f 24 30 31
f 25 32 26
f 26 32 27
f 27 32 33
f 27 33 28
f 28 34 29
f 28 33 34
f 30 35 36
f 30 36 37
f 30 37 38
f 30 38 31
f 30 39 43
f 30 43 40
f 30 40 35
f 33 41 42
f 33 42 34
f 39 44 45
f 39 45 41
f 39 41 43
f 41 45 42
f 42 45 46
f 44 46 45

