# https://github.com/mikedh/trimesh
v 0.02710890 -0.00652415 0.05577064
v 0.02719330 -0.00626740 0.05576472
v 0.02715330 -0.00626740 0.05585948
v 0.02710890 -0.00626740 0.05596444
v 0.02710890 -0.00079700 0.05576472
v 0.02729668 -0.00584974 0.05576472
v 0.02719119 -0.00599326 0.05594887
v 0.02710890 -0.00612500 0.05605744
v 0.02710890 -0.00079813 0.05616440
v 0.02713089 -0.00079700 0.05616538
v 0.02734226 -0.00079700 0.05576472
v 0.02730044 -0.00582844 0.05576472
v 0.02728526 -0.00585031 0.05579076
v 0.02712129 -0.00585031 0.05616538
v 0.02710890 -0.00590412 0.05616487
v 0.02720806 -0.00121129 0.05616538
v 0.02730772 -0.00079700 0.05583265
v 0.02741118 -0.00120961 0.05576472
v 0.02721550 -0.00571240 0.05600421
v 0.02736205 -0.00542761 0.05576472
v 0.02718061 -0.00542481 0.05616538
v 0.02722869 -0.00134976 0.05616538
v 0.02746847 -0.00163343 0.05576472
v 0.02726890 -0.00163287 0.05616538
v 0.02723465 -0.00542481 0.05604638
v 0.02741245 -0.00500379 0.05576472
v 0.02727774 -0.00460576 0.05616538
v 0.02751173 -0.00207014 0.05576472
v 0.02727258 -0.00166482 0.05616538
v 0.02730852 -0.00200623 0.05616538
v 0.02746243 -0.00458222 0.05576472
v 0.02728260 -0.00458165 0.05616091
v 0.02732328 -0.00419091 0.05616538
v 0.02731372 -0.00205949 0.05616538
v 0.02734306 -0.00246537 0.05616538
v 0.02751418 -0.00210434 0.05576472
v 0.02750788 -0.00417073 0.05576472
v 0.02751186 -0.00413429 0.05576472
v 0.02735254 -0.00373906 0.05616538
v 0.02753638 -0.00246593 0.05576472
v 0.02735621 -0.00288638 0.05616538
v 0.02753520 -0.00373906 0.05576472
v 0.02735892 -0.00330796 0.05616538
v 0.02754073 -0.00285891 0.05576472
v 0.02753549 -0.00371440 0.05576472
v 0.02753976 -0.00331861 0.05576472
v 0.02753993 -0.00328441 0.05576472
v 0.02754086 -0.00289703 0.05576472
f 1 2 3
f 1 3 4
f 1 4 8
f 1 8 15
f 1 15 9
f 1 9 5
f 1 5 2
f 2 6 7
f 2 7 3
f 2 5 11
f 2 11 18
f 2 18 23
f 2 23 28
f 2 28 36
f 2 36 40
f 2 40 44
f 2 44 48
f 2 48 47
f 2 47 46
f 2 46 45
f 2 45 42
f 2 42 38
f 2 38 37
f 2 37 31
f 2 31 26
f 2 26 20
f 2 20 12
f 2 12 6
f 3 7 8
f 3 8 4
f 5 9 10
f 5 10 17
f 5 17 11
f 6 12 13
f 6 13 7
f 7 13 14
f 7 14 8
f 8 14 15
f 9 15 10
f 10 16 17
f 10 15 14
f 10 14 21
f 10 21 27
f 10 27 33
f 10 33 39
f 10 39 43
f 10 43 41
f 10 41 35
f 10 35 34
f 10 34 30
f 10 30 29
f 10 29 24
f 10 24 22
f 10 22 16
f 11 17 16
f 11 16 18
f 12 19 14
f 12 14 13
f 12 20 19
f 14 19 21
f 16 22 18
f 18 22 24
f 18 24 23
f 19 20 25
f 19 25 21
f 20 26 25
f 21 25 27
f 23 24 29
f 23 29 30
f 23 30 28
f 25 26 27
f 26 31 27
f 27 31 32
f 27 32 33
f 28 34 35
f 28 35 36
f 28 30 34
f 31 37 32
f 32 37 33
f 33 37 38
f 33 38 39
f 35 40 36
f 35 41 40
f 38 42 39
f 39 42 43
f 40 41 44
f 41 43 44
f 42 45 43
f 43 45 46
f 43 46 47
f 43 47 48
f 43 48 44

