# https://github.com/mikedh/trimesh
v 0.02675334 0.00318366 0.05427421
v 0.02668963 0.00318366 0.05439506
v 0.02687905 0.00302144 0.05427421
v 0.00962502 0.00318366 0.05427421
v 0.02655876 0.00318366 0.05457581
v 0.02665003 0.00301704 0.05457581
v 0.02671374 0.00289579 0.05457581
v 0.02677401 0.00278042 0.05457581
v 0.02695481 0.00287307 0.05427421
v 0.00952859 0.00290690 0.05427421
v 0.00950104 0.00285387 0.05442310
v 0.00950104 0.00287920 0.05457581
v 0.00955442 0.00300868 0.05457581
v 0.00962674 0.00318366 0.05449999
v 0.00963191 0.00318366 0.05457581
v 0.02686871 0.00258821 0.05457581
v 0.02709257 0.00253180 0.05427421
v 0.02688421 0.00255528 0.05457581
v 0.02689454 0.00253180 0.05457581
v 0.00950104 0.00280275 0.05427421
v 0.00950104 0.00253180 0.05457581
v 0.00963019 0.00318366 0.05455750
v 0.00950104 0.00253180 0.05427421
f 1 2 3
f 1 3 9
f 1 9 17
f 1 17 23
f 1 23 20
f 1 20 10
f 1 10 4
f 1 4 14
f 1 14 22
f 1 22 15
f 1 15 5
f 1 5 2
f 2 5 3
f 3 5 6
f 3 6 7
f 3 7 8
f 3 8 9
f 4 10 11
f 4 11 12
f 4 12 13
f 4 13 14
f 5 15 13
f 5 13 12
f 5 12 21
f 5 21 19
f 5 19 18
f 5 18 16
f 5 16 8
f 5 8 7
f 5 7 6
f 8 16 9
f 9 16 18
f 9 18 19
f 9 19 17
f 10 20 11
f 11 20 23
f 11 23 21
f 11 21 12
f 13 15 22
f 13 22 14
f 17 19 21
f 17 21 23

