# https://github.com/mikedh/trimesh
v 0.02276197 -0.01521488 0.04647564
v 0.02276197 -0.01510175 0.04774038
v 0.02276197 -0.01495826 0.04486764
v 0.02585012 -0.01534733 0.04465106
v 0.03015219 -0.01538321 0.04459794
v 0.03162623 -0.01511830 0.04754696
v 0.03089144 -0.01477613 0.05134255
v 0.02276308 -0.01456642 0.05155095
v 0.02276197 0.01111548 0.05140044
v 0.02276197 -0.01056802 0.04459794
v 0.03354938 -0.01501068 0.04459794
v 0.03244107 -0.01534733 0.04472598
v 0.03183856 -0.01470991 0.05155572
v 0.03236326 0.01110444 0.05140180
v 0.03099482 0.01155975 0.05098430
v 0.02276197 0.01174739 0.05056341
v 0.02276197 0.01280700 0.04459794
v 0.03411743 -0.01415802 0.04465106
v 0.03396847 -0.01448640 0.04542543
v 0.03351603 -0.01490031 0.04563248
v 0.03378394 0.01222477 0.04470078
v 0.03309583 -0.01448088 0.05027463
v 0.03326147 -0.01362822 0.05126218
v 0.03315364 0.01088645 0.05110690
v 0.03232657 0.01163701 0.05052867
v 0.03088921 0.01186052 0.04996883
v 0.02276197 0.01195159 0.04946008
v 0.03210869 0.01255038 0.04601319
v 0.03231768 0.01276009 0.04476888
v 0.03407519 -0.01385173 0.04543974
v 0.03395513 -0.01397038 0.04636531
v 0.03411410 0.01119274 0.04507809
v 0.03353160 -0.01389312 0.04962013
v 0.03353048 -0.01449467 0.04801553
v 0.03310472 0.01248691 0.04544791
v 0.03353493 0.01207300 0.04632376
v 0.03352381 0.01164253 0.04797399
v 0.03397625 0.01138314 0.04609424
v 0.03346601 -0.01321982 0.05049598
v 0.03344155 0.01016624 0.05070643
v 0.03350492 0.01064914 0.05005737
v 0.03351937 0.01120930 0.04921694
v 0.03307804 0.01163149 0.04940832
v 0.03151396 0.01206196 0.04880012
v 0.03359274 -0.01342954 0.04944237
v 0.03397292 0.01101062 0.04629107
v 0.03389510 0.01101062 0.04691493
v 0.03364387 0.01058843 0.04902079
f 1 2 9
f 1 9 16
f 1 16 27
f 1 27 17
f 1 17 10
f 1 10 3
f 1 3 4
f 1 4 5
f 1 5 2
f 2 5 6
f 2 6 7
f 2 7 8
f 2 8 9
f 3 10 4
f 4 10 5
f 5 10 17
f 5 17 11
f 5 11 12
f 5 12 6
f 6 12 13
f 6 13 7
f 7 13 8
f 8 13 9
f 9 14 15
f 9 15 16
f 9 13 14
f 11 18 19
f 11 19 20
f 11 20 12
f 11 17 21
f 11 21 18
f 12 20 22
f 12 22 13
f 13 22 23
f 13 23 14
f 14 23 24
f 14 24 25
f 14 25 15
f 15 25 26
f 15 26 16
f 16 26 27
f 17 27 26
f 17 26 28
f 17 28 29
f 17 29 21
f 18 30 31
f 18 31 19
f 18 21 32
f 18 32 30
f 19 31 33
f 19 33 34
f 19 34 20
f 20 34 22
f 21 35 36
f 21 36 37
f 21 37 38
f 21 38 32
f 21 29 35
f 22 34 33
f 22 33 23
f 23 33 39
f 23 39 40
f 23 40 24
f 24 41 42
f 24 42 43
f 24 43 25
f 24 40 41
f 25 35 29
f 25 29 28
f 25 28 44
f 25 44 26
f 25 43 35
f 26 44 28
f 30 40 39
f 30 39 45
f 30 45 31
f 30 32 46
f 30 46 40
f 31 45 33
f 32 38 47
f 32 47 46
f 33 45 39
f 35 43 36
f 36 43 37
f 37 43 42
f 37 42 38
f 38 42 41
f 38 41 47
f 40 46 48
f 40 48 41
f 41 48 47
f 46 47 48

