# https://github.com/mikedh/trimesh
v 0.03305706 -0.00796294 0.05180928
v 0.03211356 -0.00796294 0.05220547
v 0.03228974 -0.01385304 0.05214344
v 0.03304083 -0.01367618 0.05180354
v 0.03329352 -0.01300998 0.05155776
v 0.00976397 -0.00796294 0.05155776
v 0.02974670 -0.00796294 0.05303387
v 0.02996229 -0.01385304 0.05295840
v 0.03077133 -0.01427390 0.05267228
v 0.03205329 -0.01441552 0.05215384
v 0.03273947 -0.01444411 0.05164937
v 0.03183770 -0.01471006 0.05155776
v 0.00999579 -0.01412696 0.05155776
v 0.00976166 -0.01322074 0.05166120
v 0.00968516 -0.00796294 0.05239316
v 0.02873133 -0.00796294 0.05338918
v 0.02881943 -0.01322074 0.05335709
v 0.02930856 -0.01385304 0.05318517
v 0.02962847 -0.01444876 0.05304266
v 0.03053256 -0.01457642 0.05259663
v 0.03141579 -0.01466950 0.05204681
v 0.03099620 -0.01475527 0.05155776
v 0.01038525 -0.01451924 0.05176482
v 0.00990306 -0.01409306 0.05218234
v 0.00981729 -0.01385304 0.05197170
v 0.01203115 -0.01474663 0.05155776
v 0.00969906 -0.01319614 0.05307277
v 0.00963879 -0.01240694 0.05331228
v 0.00962488 -0.01138171 0.05338918
v 0.00961097 -0.00796294 0.05338918
v 0.02843924 -0.01383309 0.05338918
v 0.02878002 -0.01439424 0.05312960
v 0.01877475 -0.01455049 0.05309518
v 0.02951952 -0.01460767 0.05281409
v 0.03057197 -0.01472203 0.05197170
v 0.02994143 -0.01468479 0.05239316
v 0.01266634 -0.01474064 0.05176482
v 0.01097870 -0.01465554 0.05176482
v 0.01097870 -0.01462495 0.05239316
v 0.01042234 -0.01448666 0.05258767
v 0.00999811 -0.01394213 0.05316850
v 0.01224211 -0.01468479 0.05239316
v 0.01055679 -0.01388163 0.05338685
v 0.01835284 -0.01420077 0.05338918
v 0.01898570 -0.01419412 0.05338918
v 0.01077934 -0.01441884 0.05310271
v 0.01224211 -0.01459570 0.05295428
v 0.01155825 -0.01460434 0.05288346
f 1 2 3
f 1 3 4
f 1 4 5
f 1 5 6
f 1 6 15
f 1 15 30
f 1 30 16
f 1 16 7
f 1 7 2
f 2 7 8
f 2 8 3
f 3 8 9
f 3 9 10
f 3 10 4
f 4 10 11
f 4 11 5
f 5 11 12
f 5 12 22
f 5 22 26
f 5 26 13
f 5 13 6
f 6 13 14
f 6 14 15
f 7 16 8
f 8 16 17
f 8 17 18
f 8 18 9
f 9 18 19
f 9 19 10
f 10 19 20
f 10 20 21
f 10 21 11
f 11 21 12
f 12 21 22
f 13 23 24
f 13 24 25
f 13 25 14
f 13 26 23
f 14 25 27
f 14 27 28
f 14 28 29
f 14 29 15
f 15 29 30
f 16 31 17
f 16 30 29
f 16 29 44
f 16 44 45
f 16 45 31
f 17 31 18
f 18 31 19
f 19 31 32
f 19 32 33
f 19 33 34
f 19 34 20
f 20 34 21
f 21 35 22
f 21 34 36
f 21 36 35
f 22 35 37
f 22 37 26
f 23 38 39
f 23 39 40
f 23 40 24
f 23 26 38
f 24 40 41
f 24 41 27
f 24 27 25
f 26 37 42
f 26 42 39
f 26 39 38
f 27 41 28
f 28 41 43
f 28 43 29
f 29 43 44
f 31 45 32
f 32 45 33
f 33 44 46
f 33 46 47
f 33 47 34
f 33 45 44
f 34 47 36
f 35 36 37
f 36 47 42
f 36 42 37
f 39 42 48
f 39 48 40
f 40 48 46
f 40 46 41
f 41 46 43
f 42 47 48
f 43 46 44
f 46 48 47

