# https://github.com/mikedh/trimesh
v 0.02625204 -0.00151502 0.05829464
v 0.02627225 -0.00161892 0.05829464
v 0.00777234 -0.00151502 0.05829464
v 0.02500672 -0.00151502 0.05859722
v 0.02611612 -0.00151524 0.05859716
v 0.02613816 -0.00162844 0.05859722
v 0.02627776 -0.00164792 0.05829464
v 0.00776866 -0.00163039 0.05829464
v 0.00774846 -0.00151502 0.05841000
v 0.00770989 -0.00151502 0.05859722
v 0.02619143 -0.00193840 0.05859722
v 0.02632551 -0.00195594 0.05829464
v 0.00775581 -0.00247348 0.05829464
v 0.00770438 -0.00174922 0.05859722
v 0.00770621 -0.00163234 0.05859722
v 0.02620796 -0.00205399 0.05859722
v 0.02634021 -0.00205399 0.05829464
v 0.00775581 -0.00289643 0.05829464
v 0.00769336 -0.00289643 0.05859722
v 0.00769703 -0.00247521 0.05859722
v 0.02624470 -0.00232867 0.05859722
v 0.02636409 -0.00225508 0.05829464
v 0.00775764 -0.00292284 0.05829464
v 0.00773560 -0.00330920 0.05859722
v 0.00779254 -0.00327349 0.05829464
v 0.02626123 -0.00247521 0.05859722
v 0.02638796 -0.00247521 0.05829464
v 0.00776132 -0.00343518 0.05859722
v 0.00787887 -0.00372631 0.05831090
v 0.00788254 -0.00372631 0.05829464
v 0.02629613 -0.00289643 0.05859722
v 0.02642654 -0.00289643 0.05829464
v 0.02639898 -0.00259426 0.05829464
v 0.00782193 -0.00372631 0.05859722
v 0.00782928 -0.00372631 0.05855931
v 0.02642837 -0.00372631 0.05829464
v 0.02631817 -0.00323388 0.05859722
v 0.02635674 -0.00315141 0.05849809
v 0.02642837 -0.00292738 0.05829464
v 0.02633286 -0.00372631 0.05859547
v 0.02633102 -0.00354860 0.05859722
v 0.02645776 -0.00371917 0.05829464
v 0.02645592 -0.00372631 0.05829579
v 0.02632551 -0.00336743 0.05859722
v 0.02636409 -0.00343237 0.05851544
v 0.02643388 -0.00330228 0.05833178
v 0.02644858 -0.00330336 0.05829464
v 0.02636592 -0.00372631 0.05852015
f 1 2 7
f 1 7 12
f 1 12 17
f 1 17 22
f 1 22 27
f 1 27 33
f 1 33 32
f 1 32 39
f 1 39 47
f 1 47 42
f 1 42 36
f 1 36 30
f 1 30 25
f 1 25 23
f 1 23 18
f 1 18 13
f 1 13 8
f 1 8 3
f 1 3 9
f 1 9 10
f 1 10 4
f 1 4 5
f 1 5 6
f 1 6 2
f 2 6 7
f 3 8 9
f 4 10 15
f 4 15 14
f 4 14 20
f 4 20 19
f 4 19 24
f 4 24 28
f 4 28 34
f 4 34 41
f 4 41 44
f 4 44 37
f 4 37 31
f 4 31 26
f 4 26 21
f 4 21 16
f 4 16 11
f 4 11 6
f 4 6 5
f 6 11 7
f 7 11 12
f 8 13 14
f 8 14 15
f 8 15 9
f 9 15 10
f 11 16 17
f 11 17 12
f 13 18 19
f 13 19 20
f 13 20 14
f 16 21 17
f 17 21 22
f 18 23 19
f 19 23 25
f 19 25 24
f 21 26 22
f 22 26 27
f 24 25 29
f 24 29 28
f 25 30 29
f 26 31 32
f 26 32 33
f 26 33 27
f 28 29 35
f 28 35 34
f 29 30 36
f 29 36 43
f 29 43 48
f 29 48 40
f 29 40 34
f 29 34 35
f 31 37 38
f 31 38 32
f 32 38 39
f 34 40 41
f 36 42 43
f 37 44 38
f 38 44 45
f 38 45 46
f 38 46 39
f 39 46 47
f 40 48 41
f 41 48 45
f 41 45 44
f 42 47 46
f 42 46 45
f 42 45 48
f 42 48 43

