# https://github.com/mikedh/trimesh
v 0.01849555 0.00877263 0.05376049
v 0.01806918 0.00877170 0.05376049
v 0.01808852 0.00865505 0.05425447
v 0.01856236 0.00871757 0.05396343
v 0.01891224 0.00875023 0.05376049
v 0.01765864 0.00875117 0.05376049
v 0.01765249 0.00864338 0.05424703
v 0.01729382 0.00861352 0.05427418
v 0.01849731 0.00863779 0.05427418
v 0.01880939 0.00861399 0.05427418
v 0.01898345 0.00864292 0.05411494
v 0.01932454 0.00871104 0.05376049
v 0.01687888 0.00866671 0.05376049
v 0.01725514 0.00871151 0.05378071
v 0.01741953 0.00870124 0.05390757
v 0.01708811 0.00859626 0.05427418
v 0.01898345 0.00859673 0.05427418
v 0.01954168 0.00868398 0.05376049
v 0.01916894 0.00857433 0.05427418
v 0.01687888 0.00860886 0.05407853
v 0.01379588 0.00817400 0.05376049
v 0.01668284 0.00854587 0.05427418
v 0.01687888 0.00857293 0.05427418
v 0.01938520 0.00854213 0.05427418
v 0.02277676 0.00817026 0.05376059
v 0.01982650 0.00863825 0.05376049
v 0.01379588 0.00400643 0.05376049
v 0.01379588 0.00766215 0.05427418
v 0.01443235 0.00791691 0.05427418
v 0.01540991 0.00823978 0.05427418
v 0.01564990 0.00831304 0.05427418
v 0.01595934 0.00839843 0.05427418
v 0.01626175 0.00846841 0.05427418
v 0.01645604 0.00850761 0.05427418
v 0.01963134 0.00850014 0.05427418
v 0.02277676 0.00779606 0.05376049
v 0.02238117 0.00817493 0.05376049
v 0.01984321 0.00845815 0.05427418
v 0.02008584 0.00840542 0.05427418
v 0.02024847 0.00836670 0.05427418
v 0.02047264 0.00830837 0.05427418
v 0.02070121 0.00824118 0.05427418
v 0.02087791 0.00818659 0.05427418
v 0.02261501 0.00762062 0.05427418
v 0.02277676 0.00754597 0.05427418
v 0.01379588 0.00400643 0.05427418
v 0.02277676 0.00400643 0.05376049
v 0.02277676 0.00400643 0.05427418
f 1 2 3
f 1 3 4
f 1 4 5
f 1 5 12
f 1 12 18
f 1 18 26
f 1 26 37
f 1 37 36
f 1 36 47
f 1 47 27
f 1 27 21
f 1 21 13
f 1 13 6
f 1 6 2
f 2 6 7
f 2 7 3
f 3 7 8
f 3 8 9
f 3 9 4
f 4 9 5
f 5 9 10
f 5 10 11
f 5 11 12
f 6 13 14
f 6 14 15
f 6 15 8
f 6 8 7
f 8 15 16
f 8 16 23
f 8 23 22
f 8 22 34
f 8 34 33
f 8 33 32
f 8 32 31
f 8 31 30
f 8 30 29
f 8 29 28
f 8 28 46
f 8 46 48
f 8 48 45
f 8 45 44
f 8 44 43
f 8 43 42
f 8 42 41
f 8 41 40
f 8 40 39
f 8 39 38
f 8 38 35
f 8 35 24
f 8 24 19
f 8 19 17
f 8 17 10
f 8 10 9
f 10 17 11
f 11 17 12
f 12 17 19
f 12 19 18
f 13 20 14
f 13 21 22
f 13 22 20
f 14 20 23
f 14 23 16
f 14 16 15
f 18 19 24
f 18 24 25
f 18 25 26
f 20 22 23
f 21 27 46
f 21 46 28
f 21 28 29
f 21 29 30
f 21 30 31
f 21 31 32
f 21 32 33
f 21 33 34
f 21 34 22
f 24 35 25
f 25 36 37
f 25 37 26
f 25 35 38
f 25 38 39
f 25 39 40
f 25 40 41
f 25 41 42
f 25 42 43
f 25 43 44
f 25 44 45
f 25 45 48
f 25 48 47
f 25 47 36
f 27 47 48
f 27 48 46

