# https://github.com/mikedh/trimesh
v 0.00787558 -0.00271686 0.05772773
v 0.00807246 -0.00429150 0.05759584
v 0.00833742 -0.00552418 0.05775213
v 0.00993820 -0.00916104 0.05802610
v 0.00790318 -0.00123088 0.05774505
v 0.00803382 -0.00031481 0.05759584
v 0.02627542 -0.00710937 0.05747821
v 0.01668727 -0.01366331 0.05772317
v 0.01234306 -0.01175095 0.05772837
v 0.01049388 -0.00989348 0.05775213
v 0.00943221 -0.00823230 0.05773282
v 0.00875693 -0.00681809 0.05774730
v 0.02657534 -0.00453634 0.05787458
v 0.01933868 0.00739795 0.05785720
v 0.01730550 0.00782432 0.05785554
v 0.00886181 0.00266349 0.05787941
v 0.01127587 -0.01079900 0.05776356
v 0.01383529 -0.01270713 0.05779643
v 0.01808749 -0.01373508 0.05780126
v 0.02074443 -0.01321372 0.05789716
v 0.00817366 0.00059494 0.05774060
v 0.00851037 0.00170520 0.05768444
v 0.01252706 0.00673728 0.05761520
v 0.01846285 0.00771245 0.05759584
v 0.02497271 0.00274159 0.05764652
v 0.02595159 0.00072369 0.05764025
v 0.02661214 -0.00235381 0.05774248
v 0.02667286 -0.00354006 0.05775213
v 0.02645574 -0.00590201 0.05776549
v 0.02567191 -0.00845182 0.05772724
v 0.02486048 -0.00990825 0.05773346
v 0.02396072 -0.01103963 0.05775068
v 0.02171594 -0.01279367 0.05775213
v 0.01957604 -0.01357044 0.05771432
v 0.01541584 -0.01336358 0.05773282
v 0.02275369 -0.01210979 0.05781671
v 0.02637846 -0.00094804 0.05776313
v 0.02547503 0.00173264 0.05775213
v 0.02320265 0.00498534 0.05774285
v 0.02210050 0.00596051 0.05772783
v 0.02069291 0.00684703 0.05775256
v 0.01581695 0.00782432 0.05774907
v 0.01442960 0.00757525 0.05774248
v 0.01340657 0.00718265 0.05775213
v 0.01129059 0.00586130 0.05775213
v 0.01016268 0.00470671 0.05775213
v 0.00940277 0.00364500 0.05775213
v 0.02401592 0.00404815 0.05773035
f 1 2 3
f 1 3 4
f 1 4 5
f 1 5 6
f 1 6 2
f 2 7 8
f 2 8 9
f 2 9 10
f 2 10 11
f 2 11 12
f 2 12 3
f 2 6 7
f 3 12 4
f 4 13 14
f 4 14 15
f 4 15 16
f 4 16 5
f 4 12 11
f 4 11 10
f 4 10 17
f 4 17 9
f 4 9 18
f 4 18 19
f 4 19 20
f 4 20 13
f 5 16 21
f 5 21 6
f 6 21 22
f 6 22 23
f 6 23 7
f 7 23 24
f 7 24 25
f 7 25 26
f 7 26 27
f 7 27 28
f 7 28 29
f 7 29 30
f 7 30 31
f 7 31 32
f 7 32 33
f 7 33 34
f 7 34 8
f 8 34 19
f 8 19 35
f 8 35 9
f 9 35 18
f 9 17 10
f 13 20 36
f 13 36 31
f 13 31 30
f 13 30 29
f 13 29 28
f 13 28 27
f 13 27 37
f 13 37 38
f 13 38 14
f 14 38 39
f 14 39 40
f 14 40 41
f 14 41 24
f 14 24 15
f 15 24 42
f 15 42 43
f 15 43 44
f 15 44 16
f 16 44 45
f 16 45 46
f 16 46 47
f 16 47 22
f 16 22 21
f 18 35 19
f 19 34 20
f 20 34 33
f 20 33 36
f 22 47 23
f 23 46 45
f 23 45 44
f 23 44 43
f 23 43 24
f 23 47 46
f 24 43 42
f 24 41 40
f 24 40 25
f 25 48 38
f 25 38 26
f 25 40 39
f 25 39 48
f 26 38 37
f 26 37 27
f 31 36 32
f 32 36 33
f 38 48 39

