# https://github.com/mikedh/trimesh
v 0.02515979 -0.01045402 0.03789270
v 0.02519033 -0.01076462 0.04459607
v 0.02515979 0.01282663 0.04447467
v 0.02515979 -0.00981097 0.03767296
v 0.02556645 -0.01090779 0.03780386
v 0.03418939 -0.01090779 0.04449095
v 0.03342570 0.01250632 0.04459539
v 0.03210071 0.01282178 0.04449095
v 0.03204821 0.01293098 0.04389074
v 0.02515979 0.01293098 0.04389074
v 0.02614971 -0.01090779 0.03766822
v 0.02515979 0.01371719 0.03779097
v 0.03415502 0.01311540 0.03766822
v 0.03425335 -0.01090779 0.04396331
v 0.03425335 0.01142892 0.04396331
v 0.03418366 0.01127119 0.04449095
v 0.03405097 0.01198704 0.04454385
v 0.03391160 0.01245779 0.04366422
v 0.03353071 0.01291156 0.04293040
v 0.03316223 0.01292612 0.04342685
v 0.03270593 0.01278296 0.04449095
v 0.03276321 0.01292127 0.04382902
v 0.03246919 0.01295767 0.04371101
v 0.03289113 0.01339931 0.04121794
v 0.03331115 0.01388220 0.03848681
v 0.02515979 0.01388220 0.03848681
v 0.03415502 -0.01090779 0.03766822
v 0.03352212 0.01371476 0.03779097
v 0.03437172 0.01367109 0.03803919
v 0.03468960 0.01317606 0.03789135
v 0.03474401 0.01248449 0.03779504
v 0.03474592 -0.01090779 0.03779504
v 0.03491202 -0.01090779 0.03849088
v 0.03481179 0.01185115 0.03932236
v 0.03488625 0.01227337 0.03869705
v 0.03445190 0.01185115 0.04227797
v 0.03437363 0.01206226 0.04275339
v 0.03435644 0.01246265 0.04203517
v 0.03448913 0.01345269 0.03869705
v 0.03436122 0.01332166 0.03952785
v 0.03387532 0.01381911 0.03855463
v 0.03352689 0.01332894 0.04123286
v 0.03370445 0.01374146 0.03909787
v 0.03331115 0.01371962 0.03938679
v 0.03485666 0.01283634 0.03856277
v 0.03479079 0.01242382 0.03942070
f 1 2 3
f 1 3 10
f 1 10 26
f 1 26 12
f 1 12 4
f 1 4 5
f 1 5 2
f 2 5 6
f 2 6 7
f 2 7 3
f 3 8 9
f 3 9 10
f 3 7 8
f 4 11 5
f 4 12 13
f 4 13 11
f 5 11 27
f 5 27 32
f 5 32 33
f 5 33 14
f 5 14 6
f 6 14 15
f 6 15 16
f 6 16 17
f 6 17 7
f 7 18 19
f 7 19 20
f 7 20 21
f 7 21 8
f 7 17 18
f 8 22 23
f 8 23 9
f 8 21 22
f 9 23 24
f 9 24 25
f 9 25 26
f 9 26 10
f 11 13 27
f 12 26 25
f 12 25 28
f 12 28 13
f 13 28 29
f 13 29 30
f 13 30 31
f 13 31 32
f 13 32 27
f 14 33 15
f 15 34 35
f 15 35 36
f 15 36 37
f 15 37 16
f 15 33 34
f 16 37 17
f 17 37 38
f 17 38 39
f 17 39 18
f 18 39 40
f 18 40 19
f 19 40 41
f 19 41 42
f 19 42 20
f 20 42 22
f 20 22 21
f 22 42 43
f 22 43 44
f 22 44 23
f 23 44 24
f 24 44 25
f 25 44 43
f 25 43 41
f 25 41 29
f 25 29 28
f 29 39 30
f 29 41 39
f 30 45 31
f 30 39 45
f 31 35 33
f 31 33 32
f 31 45 35
f 33 35 34
f 35 45 46
f 35 46 36
f 36 46 37
f 37 46 45
f 37 45 38
f 38 45 39
f 39 41 40
f 41 43 42

