# https://github.com/mikedh/trimesh
v 0.02416000 0.00620680 0.05457581
v 0.02422932 0.00578400 0.05501644
v 0.02471035 0.00578049 0.05457581
v 0.02485746 -0.01131555 0.05457581
v 0.02426591 -0.01171554 0.05480151
v 0.02479161 0.00523139 0.05501644
v 0.02498763 -0.01091732 0.05501644
v 0.02512551 0.00534366 0.05457581
v 0.02529612 -0.01089627 0.05457581
v 0.02518174 0.00477701 0.05501644
v 0.02567624 -0.01043488 0.05457581
v 0.02549754 -0.01026997 0.05501644
v 0.02559960 0.00476649 0.05457581
v 0.02555107 0.00429983 0.05501644
v 0.02616419 -0.00965946 0.05457581
v 0.02602054 -0.00953665 0.05501644
v 0.02589114 0.00434544 0.05457581
v 0.02601707 0.00361739 0.05501644
v 0.02711198 -0.00788582 0.05457581
v 0.02640566 -0.00909982 0.05479168
v 0.02683931 -0.00828405 0.05477292
v 0.02737695 -0.00668059 0.05501644
v 0.02638448 0.00302793 0.05501644
v 0.02656395 0.00317530 0.05457581
v 0.02729145 -0.00729987 0.05471473
v 0.02756335 -0.00667883 0.05457581
v 0.02758376 -0.00627358 0.05483192
v 0.02775552 -0.00567710 0.05477663
v 0.02774397 -0.00506835 0.05501644
v 0.02773049 -0.00085442 0.05501644
v 0.02675651 0.00238760 0.05493423
v 0.02706269 0.00216480 0.05457581
v 0.02797235 -0.00483502 0.05457581
v 0.02780058 -0.00458064 0.05501644
v 0.02781637 -0.00147370 0.05501644
v 0.02796657 -0.00095793 0.05457581
v 0.02787260 -0.00040531 0.05457581
v 0.02765693 -0.00005093 0.05484534
v 0.02755641 0.00042274 0.05480790
v 0.02712585 0.00166130 0.05483943
v 0.02737541 0.00107711 0.05477231
v 0.02805438 -0.00407715 0.05457581
v 0.02785720 -0.00396662 0.05501644
v 0.02806208 -0.00178598 0.05457581
v 0.02788531 -0.00230175 0.05501644
v 0.02808558 -0.00357716 0.05457581
v 0.02789494 -0.00316138 0.05501644
v 0.02809443 -0.00274911 0.05461001
f 1 2 3
f 1 3 8
f 1 8 13
f 1 13 17
f 1 17 24
f 1 24 32
f 1 32 37
f 1 37 36
f 1 36 44
f 1 44 46
f 1 46 42
f 1 42 33
f 1 33 26
f 1 26 19
f 1 19 15
f 1 15 11
f 1 11 9
f 1 9 4
f 1 4 5
f 1 5 2
f 2 6 3
f 2 5 7
f 2 7 12
f 2 12 16
f 2 16 22
f 2 22 29
f 2 29 34
f 2 34 43
f 2 43 47
f 2 47 45
f 2 45 35
f 2 35 30
f 2 30 23
f 2 23 18
f 2 18 14
f 2 14 10
f 2 10 6
f 3 6 8
f 4 9 7
f 4 7 5
f 6 10 8
f 7 9 11
f 7 11 12
f 8 10 13
f 10 14 13
f 11 15 16
f 11 16 12
f 13 14 17
f 14 18 17
f 15 19 20
f 15 20 16
f 16 20 21
f 16 21 22
f 17 18 23
f 17 23 24
f 19 25 21
f 19 21 20
f 19 26 25
f 21 25 22
f 22 26 27
f 22 27 28
f 22 28 29
f 22 25 26
f 23 30 31
f 23 31 24
f 24 31 32
f 26 33 28
f 26 28 27
f 28 33 29
f 29 33 34
f 30 35 36
f 30 36 37
f 30 37 38
f 30 38 39
f 30 39 40
f 30 40 31
f 31 40 32
f 32 40 41
f 32 41 37
f 33 42 34
f 34 42 43
f 35 44 36
f 35 45 44
f 37 41 39
f 37 39 38
f 39 41 40
f 42 46 43
f 43 46 47
f 44 48 46
f 44 45 48
f 45 47 48
f 46 48 47

