# https://github.com/mikedh/trimesh
v 0.02160568 0.00657783 0.05724363
v 0.02185197 0.00653983 0.05698594
v 0.01208427 0.00645604 0.05715432
v 0.02203043 0.00623487 0.05732245
v 0.02236668 0.00616472 0.05697670
v 0.01194712 -0.00337576 0.05695939
v 0.01194712 -0.00337576 0.05732245
v 0.02251564 0.00586853 0.05732245
v 0.02286517 0.00577013 0.05699998
v 0.02330467 0.00540183 0.05696326
v 0.02371614 0.00499457 0.05695939
v 0.02701382 -0.00329099 0.05695939
v 0.02685602 -0.00334555 0.05732245
v 0.02296988 0.00548173 0.05732245
v 0.02340200 0.00506862 0.05732245
v 0.02380905 0.00463700 0.05732245
v 0.02403322 0.00464577 0.05695939
v 0.02699908 -0.00289542 0.05695939
v 0.02683832 -0.00285645 0.05732245
v 0.02458480 0.00360325 0.05732245
v 0.02417628 0.00419174 0.05731122
v 0.02426919 0.00432327 0.05700463
v 0.02459808 0.00391308 0.05695939
v 0.02697253 -0.00244236 0.05695939
v 0.02681472 -0.00249498 0.05732160
v 0.02677785 -0.00209161 0.05732245
v 0.02518948 0.00271663 0.05732245
v 0.02519538 0.00303425 0.05697211
v 0.02570566 0.00218270 0.05695939
v 0.02692386 -0.00203510 0.05699401
v 0.02680145 -0.00110073 0.05695939
v 0.02663480 -0.00114458 0.05732245
v 0.02680440 -0.00164148 0.05714355
v 0.02552131 0.00217199 0.05729278
v 0.02550214 0.00254612 0.05698192
v 0.02570861 0.00174913 0.05732245
v 0.02587232 0.00180857 0.05697997
v 0.02604045 0.00144515 0.05695939
v 0.02672919 -0.00074024 0.05695939
v 0.02653746 -0.00068665 0.05732245
v 0.02604635 0.00093850 0.05732245
v 0.02591361 0.00131751 0.05728951
v 0.02630591 0.00075533 0.05696540
v 0.02646224 0.00027207 0.05695939
v 0.02663037 -0.00033103 0.05695939
v 0.02644750 -0.00032518 0.05732245
v 0.02633836 0.00006747 0.05732245
v 0.02624987 0.00050493 0.05723215
f 1 2 3
f 1 3 4
f 1 4 2
f 2 4 5
f 2 5 6
f 2 6 3
f 3 6 7
f 3 7 4
f 4 7 13
f 4 13 19
f 4 19 26
f 4 26 32
f 4 32 40
f 4 40 46
f 4 46 47
f 4 47 41
f 4 41 36
f 4 36 27
f 4 27 20
f 4 20 16
f 4 16 15
f 4 15 14
f 4 14 8
f 4 8 5
f 5 8 9
f 5 9 10
f 5 10 6
f 6 10 11
f 6 11 17
f 6 17 23
f 6 23 29
f 6 29 38
f 6 38 44
f 6 44 45
f 6 45 39
f 6 39 31
f 6 31 24
f 6 24 18
f 6 18 12
f 6 12 13
f 6 13 7
f 8 14 9
f 9 14 10
f 10 14 15
f 10 15 11
f 11 16 17
f 11 15 16
f 12 18 19
f 12 19 13
f 16 20 21
f 16 21 22
f 16 22 17
f 17 22 23
f 18 24 19
f 19 24 25
f 19 25 26
f 20 27 28
f 20 28 23
f 20 23 21
f 21 23 22
f 23 28 29
f 24 30 25
f 24 31 30
f 25 30 26
f 26 30 33
f 26 33 32
f 27 34 35
f 27 35 28
f 27 36 34
f 28 35 29
f 29 35 34
f 29 34 36
f 29 36 37
f 29 37 38
f 30 31 33
f 31 39 32
f 31 32 33
f 32 39 40
f 36 41 42
f 36 42 37
f 37 42 38
f 38 42 41
f 38 41 43
f 38 43 44
f 39 45 40
f 40 45 46
f 41 47 48
f 41 48 43
f 43 48 44
f 44 48 47
f 44 47 45
f 45 47 46

