# https://github.com/mikedh/trimesh
v 0.02031938 -0.00246109 0.05531923
v 0.02031938 -0.00246262 0.05534198
v 0.02031938 -0.00246109 0.05501644
v 0.01017213 -0.00246109 0.05504369
v 0.01017213 -0.00246186 0.05534198
v 0.02031938 -0.01027738 0.05534198
v 0.02031938 -0.01027738 0.05501644
v 0.01017213 -0.00246109 0.05501644
v 0.01017213 -0.00907005 0.05534198
v 0.01110580 -0.01027738 0.05534198
v 0.01114653 -0.01027738 0.05501644
v 0.01017213 -0.00903103 0.05501644
v 0.01023769 -0.00917334 0.05534198
v 0.01017213 -0.00904480 0.05512913
v 0.01024960 -0.00915421 0.05501644
v 0.01074723 -0.00987187 0.05534198
v 0.01114255 -0.01027738 0.05504748
v 0.01076213 -0.00985428 0.05509863
v 0.01085153 -0.00994303 0.05501644
v 0.01017213 -0.00903791 0.05507125
v 0.01020193 -0.00907846 0.05501644
v 0.01028040 -0.00920164 0.05501644
v 0.01037575 -0.00938450 0.05534198
v 0.01056646 -0.00963928 0.05534198
v 0.01062009 -0.00966606 0.05501644
v 0.01069360 -0.00975787 0.05501644
v 0.01038767 -0.00936461 0.05501644
f 1 2 6
f 1 6 7
f 1 7 3
f 1 3 8
f 1 8 4
f 1 4 5
f 1 5 2
f 2 5 9
f 2 9 13
f 2 13 23
f 2 23 24
f 2 24 16
f 2 16 10
f 2 10 6
f 3 7 11
f 3 11 19
f 3 19 26
f 3 26 25
f 3 25 27
f 3 27 22
f 3 22 15
f 3 15 21
f 3 21 12
f 3 12 8
f 4 8 12
f 4 12 20
f 4 20 14
f 4 14 9
f 4 9 5
f 6 10 17
f 6 17 11
f 6 11 7
f 9 14 15
f 9 15 13
f 10 16 17
f 11 17 18
f 11 18 19
f 12 21 20
f 13 15 22
f 13 22 23
f 14 20 15
f 15 20 21
f 16 24 25
f 16 25 26
f 16 26 18
f 16 18 17
f 18 26 19
f 22 27 23
f 23 27 24
f 24 27 25

