# https://github.com/mikedh/trimesh
v 0.00000000 0.01590000 0.03230000
v -0.00011363 0.01589660 0.03230000
v -0.00022685 0.01588641 0.03230000
v -0.00033926 0.01586947 0.03230000
v -0.00045045 0.01584583 0.03230000
v -0.00056003 0.01581559 0.03230000
v -0.00066761 0.01577885 0.03230000
v -0.00077280 0.01573574 0.03230000
v -0.00087522 0.01568641 0.03230000
v -0.00097451 0.01563105 0.03230000
v -0.00107031 0.01556985 0.03230000
v -0.00116228 0.01550303 0.03230000
v -0.00125008 0.01543084 0.03230000
v -0.00133342 0.01535351 0.03230000
v -0.00141198 0.01527135 0.03230000
v -0.00148548 0.01518463 0.03230000
v -0.00155367 0.01509367 0.03230000
v -0.00161629 0.01499880 0.03230000
v -0.00167313 0.01490035 0.03230000
v -0.00172398 0.01479868 0.03230000
v -0.00176866 0.01469415 0.03230000
v -0.00180701 0.01458713 0.03230000
v -0.00183889 0.01447801 0.03230000
v -0.00186418 0.01436719 0.03230000
v -0.00188280 0.01425504 0.03230000
v -0.00189469 0.01414199 0.03230000
v -0.00189979 0.01402842 0.03230000
v -0.00189809 0.01391476 0.03230000
v -0.00188959 0.01380140 0.03230000
v -0.00187433 0.01368875 0.03230000
v -0.00185236 0.01357721 0.03230000
v -0.00182376 0.01346719 0.03230000
v -0.00178863 0.01335907 0.03230000
v -0.00174710 0.01325325 0.03230000
v -0.00169932 0.01315011 0.03230000
v -0.00164545 0.01305000 0.03230000
v -0.00158569 0.01295330 0.03230000
v -0.00152025 0.01286034 0.03230000
v -0.00144938 0.01277146 0.03230000
v -0.00137331 0.01268698 0.03230000
v -0.00129233 0.01260720 0.03230000
v -0.00120672 0.01253241 0.03230000
v -0.00111679 0.01246287 0.03230000
v -0.00102287 0.01239883 0.03230000
v -0.00092528 0.01234052 0.03230000
v -0.00082438 0.01228816 0.03230000
v -0.00072053 0.01224192 0.03230000
v -0.00061410 0.01220198 0.03230000
v -0.00050547 0.01216847 0.03230000
v -0.00039503 0.01214152 0.03230000
v -0.00028318 0.01212122 0.03230000
v -0.00017031 0.01210765 0.03230000
v -0.00005684 0.01210085 0.03230000
v 0.00005684 0.01210085 0.03230000
v 0.00017031 0.01210765 0.03230000
v 0.00028318 0.01212122 0.03230000
v 0.00039503 0.01214152 0.03230000
v 0.00050547 0.01216847 0.03230000
v 0.00061410 0.01220198 0.03230000
v 0.00072053 0.01224192 0.03230000
v 0.00082438 0.01228816 0.03230000
v 0.00092528 0.01234052 0.03230000
v 0.00102287 0.01239883 0.03230000
v 0.00111679 0.01246287 0.03230000
v 0.00120672 0.01253241 0.03230000
v 0.00129233 0.01260720 0.03230000
v 0.00137331 0.01268698 0.03230000
v 0.00144938 0.01277146 0.03230000
v 0.00152025 0.01286034 0.03230000
v 0.00158569 0.01295330 0.03230000
v 0.00164545 0.01305000 0.03230000
v 0.00169932 0.01315011 0.03230000
v 0.00174710 0.01325325 0.03230000
v 0.00178863 0.01335907 0.03230000
v 0.00182376 0.01346719 0.03230000
v 0.00185236 0.01357721 0.03230000
v 0.00187433 0.01368875 0.03230000
v 0.00188959 0.01380140 0.03230000
v 0.00189809 0.01391476 0.03230000
v 0.00189979 0.01402842 0.03230000
v 0.00189469 0.01414199 0.03230000
v 0.00188280 0.01425504 0.03230000
v 0.00186418 0.01436719 0.03230000
v 0.00183889 0.01447801 0.03230000
v 0.00180701 0.01458713 0.03230000
v 0.00176866 0.01469415 0.03230000
v 0.00172398 0.01479868 0.03230000
v 0.00167313 0.01490035 0.03230000
v 0.00161629 0.01499880 0.03230000
v 0.00155367 0.01509367 0.03230000
v 0.00148548 0.01518463 0.03230000
v 0.00141198 0.01527135 0.03230000
v 0.00133342 0.01535351 0.03230000
v 0.00125008 0.01543084 0.03230000
v 0.00116228 0.01550303 0.03230000
v 0.00107031 0.01556985 0.03230000
v 0.00097451 0.01563105 0.03230000
v 0.00087522 0.01568641 0.03230000
v 0.00077280 0.01573574 0.03230000
v 0.00066761 0.01577885 0.03230000
v 0.00056003 0.01581559 0.03230000
v 0.00045045 0.01584583 0.03230000
v 0.00033926 0.01586947 0.03230000
v 0.00022685 0.01588641 0.03230000
v 0.00011363 0.01589660 0.03230000
v 0.00000000 0.01590000 0.03030000
v -0.00011363 0.01589660 0.03030000
v -0.00022685 0.01588641 0.03030000
v -0.00033926 0.01586947 0.03030000
v -0.00045045 0.01584583 0.03030000
v -0.00056003 0.01581559 0.03030000
v -0.00066761 0.01577885 0.03030000
v -0.00077280 0.01573574 0.03030000
v -0.00087522 0.01568641 0.03030000
v -0.00097451 0.01563105 0.03030000
v -0.00107031 0.01556985 0.03030000
v -0.00116228 0.01550303 0.03030000
v -0.00125008 0.01543084 0.03030000
v -0.00133342 0.01535351 0.03030000
v -0.00141198 0.01527135 0.03030000
v -0.00148548 0.01518463 0.03030000
v -0.00155367 0.01509367 0.03030000
v -0.00161629 0.01499880 0.03030000
v -0.00167313 0.01490035 0.03030000
v -0.00172398 0.01479868 0.03030000
v -0.00176866 0.01469415 0.03030000
v -0.00180701 0.01458713 0.03030000
v -0.00183889 0.01447801 0.03030000
v -0.00186418 0.01436719 0.03030000
v -0.00188280 0.01425504 0.03030000
v -0.00189469 0.01414199 0.03030000
v -0.00189979 0.01402842 0.03030000
v -0.00189809 0.01391476 0.03030000
v -0.00188959 0.01380140 0.03030000
v -0.00187433 0.01368875 0.03030000
v -0.00185236 0.01357721 0.03030000
v -0.00182376 0.01346719 0.03030000
v -0.00178863 0.01335907 0.03030000
v -0.00174710 0.01325325 0.03030000
v -0.00169932 0.01315011 0.03030000
v -0.00164545 0.01305000 0.03030000
v -0.00158569 0.01295330 0.03030000
v -0.00152025 0.01286034 0.03030000
v -0.00144938 0.01277146 0.03030000
v -0.00137331 0.01268698 0.03030000
v -0.00129233 0.01260720 0.03030000
v -0.00120672 0.01253241 0.03030000
v -0.00111679 0.01246287 0.03030000
v -0.00102287 0.01239883 0.03030000
v -0.00092528 0.01234052 0.03030000
v -0.00082438 0.01228816 0.03030000
v -0.00072053 0.01224192 0.03030000
v -0.00061410 0.01220198 0.03030000
v -0.00050547 0.01216847 0.03030000
v -0.00039503 0.01214152 0.03030000
v -0.00028318 0.01212122 0.03030000
v -0.00017031 0.01210765 0.03030000
v -0.00005684 0.01210085 0.03030000
v 0.00005684 0.01210085 0.03030000
v 0.00017031 0.01210765 0.03030000
v 0.00028318 0.01212122 0.03030000
v 0.00039503 0.01214152 0.03030000
v 0.00050547 0.01216847 0.03030000
v 0.00061410 0.01220198 0.03030000
v 0.00072053 0.01224192 0.03030000
v 0.00082438 0.01228816 0.03030000
v 0.00092528 0.01234052 0.03030000
v 0.00102287 0.01239883 0.03030000
v 0.00111679 0.01246287 0.03030000
v 0.00120672 0.01253241 0.03030000
v 0.00129233 0.01260720 0.03030000
v 0.00137331 0.01268698 0.03030000
v 0.00144938 0.01277146 0.03030000
v 0.00152025 0.01286034 0.03030000
v 0.00158569 0.01295330 0.03030000
v 0.00164545 0.01305000 0.03030000
v 0.00169932 0.01315011 0.03030000
v 0.00174710 0.01325325 0.03030000
v 0.00178863 0.01335907 0.03030000
v 0.00182376 0.01346719 0.03030000
v 0.00185236 0.01357721 0.03030000
v 0.00187433 0.01368875 0.03030000
v 0.00188959 0.01380140 0.03030000
v 0.00189809 0.01391476 0.03030000
v 0.00189979 0.01402842 0.03030000
v 0.00189469 0.01414199 0.03030000
v 0.00188280 0.01425504 0.03030000
v 0.00186418 0.01436719 0.03030000
v 0.00183889 0.01447801 0.03030000
v 0.00180701 0.01458713 0.03030000
v 0.00176866 0.01469415 0.03030000
v 0.00172398 0.01479868 0.03030000
v 0.00167313 0.01490035 0.03030000
v 0.00161629 0.01499880 0.03030000
v 0.00155367 0.01509367 0.03030000
v 0.00148548 0.01518463 0.03030000
v 0.00141198 0.01527135 0.03030000
v 0.00133342 0.01535351 0.03030000
v 0.00125008 0.01543084 0.03030000
v 0.00116228 0.01550303 0.03030000
v 0.00107031 0.01556985 0.03030000
v 0.00097451 0.01563105 0.03030000
v 0.00087522 0.01568641 0.03030000
v 0.00077280 0.01573574 0.03030000
v 0.00066761 0.01577885 0.03030000
v 0.00056003 0.01581559 0.03030000
v 0.00045045 0.01584583 0.03030000
v 0.00033926 0.01586947 0.03030000
v 0.00022685 0.01588641 0.03030000
v 0.00011363 0.01589660 0.03030000
v 0.00000000 0.01500000 0.02030000
v -0.00005980 0.01499821 0.02030000
v -0.00011939 0.01499285 0.02030000
v -0.00017856 0.01498393 0.02030000
v -0.00023708 0.01497149 0.02030000
v -0.00029476 0.01495557 0.02030000
v -0.00035137 0.01493623 0.02030000
v -0.00040674 0.01491355 0.02030000
v -0.00046064 0.01488759 0.02030000
v -0.00051290 0.01485845 0.02030000
v -0.00056332 0.01482624 0.02030000
v -0.00061172 0.01479107 0.02030000
v -0.00065794 0.01475307 0.02030000
v -0.00070180 0.01471238 0.02030000
v -0.00074314 0.01466913 0.02030000
v -0.00078183 0.01462349 0.02030000
v -0.00081772 0.01457562 0.02030000
v -0.00085068 0.01452568 0.02030000
v -0.00088060 0.01447387 0.02030000
v -0.00090736 0.01442036 0.02030000
v -0.00093087 0.01436534 0.02030000
v -0.00095106 0.01430902 0.02030000
v -0.00096783 0.01425159 0.02030000
v -0.00098115 0.01419326 0.02030000
v -0.00099095 0.01413423 0.02030000
v -0.00099720 0.01407473 0.02030000
v -0.00099989 0.01401496 0.02030000
v -0.00099899 0.01395514 0.02030000
v -0.00099452 0.01389547 0.02030000
v -0.00098649 0.01383618 0.02030000
v -0.00097493 0.01377748 0.02030000
v -0.00095988 0.01371957 0.02030000
v -0.00094139 0.01366267 0.02030000
v -0.00091953 0.01360697 0.02030000
v -0.00089438 0.01355269 0.02030000
v -0.00086603 0.01350000 0.02030000
v -0.00083457 0.01344910 0.02030000
v -0.00080013 0.01340018 0.02030000
v -0.00076283 0.01335340 0.02030000
v -0.00072279 0.01330894 0.02030000
v -0.00068017 0.01326695 0.02030000
v -0.00063512 0.01322758 0.02030000
v -0.00058779 0.01319098 0.02030000
v -0.00053835 0.01315728 0.02030000
v -0.00048699 0.01312659 0.02030000
v -0.00043388 0.01309903 0.02030000
v -0.00037923 0.01307470 0.02030000
v -0.00032321 0.01305367 0.02030000
v -0.00026604 0.01303604 0.02030000
v -0.00020791 0.01302185 0.02030000
v -0.00014904 0.01301117 0.02030000
v -0.00008964 0.01300403 0.02030000
v -0.00002992 0.01300045 0.02030000
v 0.00002992 0.01300045 0.02030000
v 0.00008964 0.01300403 0.02030000
v 0.00014904 0.01301117 0.02030000
v 0.00020791 0.01302185 0.02030000
v 0.00026604 0.01303604 0.02030000
v 0.00032321 0.01305367 0.02030000
v 0.00037923 0.01307470 0.02030000
v 0.00043388 0.01309903 0.02030000
v 0.00048699 0.01312659 0.02030000
v 0.00053835 0.01315728 0.02030000
v 0.00058779 0.01319098 0.02030000
v 0.00063512 0.01322758 0.02030000
v 0.00068017 0.01326695 0.02030000
v 0.00072279 0.01330894 0.02030000
v 0.00076283 0.01335340 0.02030000
v 0.00080013 0.01340018 0.02030000
v 0.00083457 0.01344910 0.02030000
v 0.00086603 0.01350000 0.02030000
v 0.00089438 0.01355269 0.02030000
v 0.00091953 0.01360697 0.02030000
v 0.00094139 0.01366267 0.02030000
v 0.00095988 0.01371957 0.02030000
v 0.00097493 0.01377748 0.02030000
v 0.00098649 0.01383618 0.02030000
v 0.00099452 0.01389547 0.02030000
v 0.00099899 0.01395514 0.02030000
v 0.00099989 0.01401496 0.02030000
v 0.00099720 0.01407473 0.02030000
v 0.00099095 0.01413423 0.02030000
v 0.00098115 0.01419326 0.02030000
v 0.00096783 0.01425159 0.02030000
v 0.00095106 0.01430902 0.02030000
v 0.00093087 0.01436534 0.02030000
v 0.00090736 0.01442036 0.02030000
v 0.00088060 0.01447387 0.02030000
v 0.00085068 0.01452568 0.02030000
v 0.00081772 0.01457562 0.02030000
v 0.00078183 0.01462349 0.02030000
v 0.00074314 0.01466913 0.02030000
v 0.00070180 0.01471238 0.02030000
v 0.00065794 0.01475307 0.02030000
v 0.00061172 0.01479107 0.02030000
v 0.00056332 0.01482624 0.02030000
v 0.00051290 0.01485845 0.02030000
v 0.00046064 0.01488759 0.02030000
v 0.00040674 0.01491355 0.02030000
v 0.00035137 0.01493623 0.02030000
v 0.00029476 0.01495557 0.02030000
v 0.00023708 0.01497149 0.02030000
v 0.00017856 0.01498393 0.02030000
v 0.00011939 0.01499285 0.02030000
v 0.00005980 0.01499821 0.02030000
f 118 117 222
f 118 224 119
f 222 117 116
f 250 145 144
f 248 144 143
f 132 237 133
f 134 133 239
f 128 232 233
f 146 145 250
f 305 200 199
f 198 303 199
f 201 200 305
f 110 216 111
f 214 110 109
f 223 118 222
f 224 118 223
f 111 216 112
f 250 144 249
f 144 248 249
f 140 246 141
f 136 241 137
f 236 237 132
f 238 133 237
f 238 239 133
f 119 224 120
f 124 229 125
f 235 236 130
f 234 128 233
f 235 130 234
f 231 126 125
f 151 150 256
f 256 257 151
f 152 257 153
f 151 257 152
f 173 172 277
f 174 173 279
f 305 199 304
f 304 199 303
f 106 210 315
f 211 106 315
f 208 313 209
f 209 315 210
f 207 313 208
f 206 311 207
f 205 311 206
f 108 214 109
f 216 110 215
f 110 214 215
f 217 112 216
f 113 219 114
f 220 116 115
f 115 114 220
f 220 114 219
f 197 303 198
f 143 142 247
f 247 248 143
f 247 142 141
f 141 246 247
f 137 241 242
f 242 243 137
f 137 243 138
f 244 140 139
f 139 138 244
f 244 138 243
f 239 240 135
f 134 239 135
f 135 240 241
f 241 136 135
f 226 121 120
f 122 121 226
f 227 122 226
f 227 228 123
f 123 122 227
f 123 228 229
f 229 124 123
f 131 236 132
f 131 130 236
f 128 234 129
f 129 234 130
f 232 128 127
f 127 231 232
f 126 231 127
f 125 229 230
f 230 231 125
f 254 150 149
f 149 148 254
f 264 160 159
f 165 270 166
f 278 173 277
f 278 279 173
f 176 281 177
f 314 209 313
f 315 209 314
f 312 207 311
f 313 207 312
f 311 205 310
f 212 106 211
f 113 112 218
f 112 217 218
f 218 219 113
f 222 116 221
f 116 220 221
f 301 197 196
f 196 195 301
f 301 195 300
f 300 195 194
f 184 290 185
f 180 286 181
f 286 182 181
f 289 290 184
f 184 288 289
f 287 182 286
f 287 288 182
f 246 140 245
f 140 244 245
f 225 120 224
f 225 226 120
f 255 256 150
f 150 254 255
f 253 148 147
f 253 254 148
f 263 158 157
f 157 262 263
f 153 257 258
f 258 259 153
f 265 160 264
f 277 172 171
f 280 175 174
f 174 279 280
f 176 175 280
f 280 281 176
f 178 177 283
f 283 179 178
f 309 205 204
f 309 310 205
f 214 108 213
f 108 212 213
f 106 212 107
f 107 212 108
f 303 197 302
f 197 301 302
f 296 192 191
f 296 297 192
f 191 190 296
f 193 192 298
f 192 297 298
f 298 194 193
f 183 288 184
f 182 288 183
f 147 146 252
f 252 253 147
f 153 259 154
f 259 155 154
f 261 155 260
f 260 155 259
f 156 155 261
f 261 262 156
f 156 262 157
f 160 265 161
f 271 166 270
f 168 273 169
f 169 273 274
f 275 171 170
f 170 274 275
f 169 274 170
f 277 171 276
f 276 171 275
f 282 177 281
f 282 283 177
f 180 179 284
f 179 283 284
f 204 203 308
f 308 309 204
f 295 296 190
f 295 190 189
f 295 189 294
f 300 194 299
f 194 298 299
f 251 146 250
f 251 252 146
f 266 161 265
f 162 161 266
f 267 162 266
f 268 163 162
f 268 162 267
f 164 270 165
f 163 268 164
f 271 272 167
f 166 271 167
f 167 272 273
f 273 168 167
f 285 286 180
f 180 284 285
f 307 203 202
f 307 308 203
f 202 201 307
f 188 187 293
f 187 292 293
f 189 188 293
f 294 189 293
f 291 187 186
f 291 292 187
f 186 185 291
f 291 185 290
f 270 164 269
f 269 164 268
f 306 201 305
f 306 307 201
f 110 6 5
f 111 6 110
f 110 5 4
f 4 109 110
f 115 116 10
f 10 116 11
f 119 14 13
f 13 118 119
f 7 6 112
f 112 6 111
f 7 112 8
f 8 112 113
f 105 106 1
f 105 210 106
f 97 201 202
f 96 201 97
f 145 40 39
f 39 144 145
f 27 132 28
f 132 133 28
f 120 15 14
f 120 14 119
f 20 19 124
f 124 125 20
f 126 21 20
f 20 125 126
f 141 142 36
f 36 142 37
f 36 140 141
f 35 140 36
f 34 140 35
f 139 140 34
f 41 40 145
f 145 146 41
f 43 148 44
f 44 148 149
f 152 48 47
f 153 48 152
f 52 158 53
f 157 158 52
f 94 93 198
f 198 199 94
f 103 102 207
f 208 103 207
f 98 97 203
f 203 97 202
f 99 205 100
f 204 205 99
f 98 203 99
f 99 203 204
f 108 109 4
f 4 3 108
f 11 116 12
f 12 116 117
f 118 13 12
f 117 118 12
f 114 10 9
f 115 10 114
f 9 8 114
f 114 8 113
f 93 92 197
f 198 93 197
f 92 91 197
f 197 91 196
f 195 91 90
f 196 91 195
f 192 88 87
f 193 88 192
f 86 192 87
f 191 192 86
f 100 205 101
f 101 205 206
f 101 207 102
f 206 207 101
f 37 142 38
f 38 142 143
f 144 39 38
f 143 144 38
f 33 32 138
f 138 32 137
f 138 34 33
f 139 34 138
f 29 28 133
f 29 133 134
f 30 29 135
f 135 29 134
f 30 135 31
f 31 135 136
f 137 32 31
f 31 136 137
f 17 16 121
f 121 122 17
f 121 16 15
f 15 120 121
f 123 18 17
f 17 122 123
f 19 18 123
f 123 124 19
f 131 132 27
f 27 26 131
f 131 26 25
f 25 130 131
f 129 24 23
f 23 128 129
f 25 24 129
f 129 130 25
f 23 22 127
f 127 128 23
f 127 22 21
f 21 126 127
f 42 148 43
f 147 148 42
f 42 41 146
f 42 146 147
f 45 44 149
f 149 150 45
f 68 67 172
f 172 173 68
f 179 75 74
f 180 75 179
f 71 175 176
f 70 175 71
f 176 177 71
f 71 177 72
f 73 179 74
f 178 179 73
f 72 177 73
f 73 177 178
f 95 201 96
f 200 201 95
f 95 94 199
f 95 199 200
f 104 103 208
f 208 209 104
f 210 105 104
f 104 209 210
f 84 83 188
f 189 84 188
f 80 79 185
f 185 79 184
f 185 81 80
f 186 81 185
f 46 152 47
f 151 152 46
f 46 45 150
f 46 150 151
f 264 159 263
f 263 159 158
f 53 158 54
f 158 159 54
f 54 159 160
f 160 55 54
f 172 67 171
f 67 66 171
f 69 175 70
f 174 175 69
f 69 68 173
f 69 173 174
f 107 2 1
f 1 106 107
f 107 3 2
f 107 108 3
f 89 195 90
f 89 194 195
f 89 88 193
f 193 194 89
f 85 84 189
f 189 190 85
f 191 86 85
f 85 190 191
f 82 81 187
f 187 81 186
f 187 83 82
f 187 188 83
f 76 182 77
f 76 181 182
f 76 75 180
f 180 181 76
f 184 79 183
f 79 78 183
f 183 78 77
f 77 182 183
f 154 48 153
f 154 49 48
f 50 49 154
f 154 155 50
f 157 52 156
f 52 51 156
f 156 51 50
f 50 155 156
f 161 56 55
f 161 55 160
f 57 56 161
f 161 162 57
f 163 58 57
f 57 162 163
f 60 165 61
f 165 166 61
f 60 59 164
f 164 165 60
f 59 58 164
f 58 163 164
f 62 61 167
f 167 61 166
f 169 64 63
f 63 168 169
f 62 167 63
f 63 167 168
f 96 97 65
f 103 104 65
f 87 88 65
f 70 71 65
f 65 92 93
f 93 94 65
f 33 34 65
f 57 58 65
f 65 10 11
f 65 13 14
f 65 39 40
f 43 44 65
f 65 36 37
f 65 32 33
f 14 15 65
f 1 2 65
f 7 8 65
f 65 83 84
f 65 19 20
f 20 21 65
f 65 52 53
f 40 41 65
f 47 48 65
f 65 26 27
f 4 5 65
f 65 6 7
f 65 3 4
f 11 12 65
f 90 91 65
f 65 105 1
f 74 75 65
f 27 28 65
f 17 18 65
f 65 16 17
f 23 24 65
f 65 22 23
f 65 59 60
f 50 51 65
f 65 49 50
f 5 6 65
f 2 3 65
f 9 10 65
f 65 99 100
f 65 8 9
f 65 69 70
f 65 86 87
f 65 79 80
f 65 95 96
f 65 102 103
f 65 97 98
f 100 101 65
f 37 38 65
f 65 29 30
f 25 26 65
f 15 16 65
f 65 18 19
f 65 24 25
f 21 22 65
f 35 36 65
f 65 34 35
f 30 31 65
f 65 42 43
f 77 78 65
f 65 56 57
f 48 49 65
f 67 68 65
f 65 73 74
f 98 99 65
f 65 12 13
f 65 91 92
f 65 89 90
f 82 83 65
f 80 81 65
f 84 85 65
f 65 101 102
f 65 38 39
f 28 29 65
f 65 31 32
f 41 42 65
f 44 45 65
f 65 51 52
f 65 46 47
f 53 54 65
f 65 66 67
f 65 76 77
f 65 71 72
f 72 73 65
f 94 95 65
f 65 104 105
f 65 81 82
f 65 78 79
f 45 46 65
f 55 56 65
f 65 54 55
f 65 58 59
f 65 63 64
f 60 61 65
f 68 69 65
f 88 89 65
f 65 85 86
f 75 76 65
f 65 61 62
f 62 63 65
f 65 64 169
f 169 170 65
f 65 171 66
f 65 170 171
f 305 304 306
f 232 231 306
f 300 299 306
f 233 232 306
f 306 301 300
f 306 282 281
f 256 255 306
f 306 228 227
f 275 274 306
f 306 223 222
f 250 249 306
f 306 238 237
f 237 236 306
f 306 217 216
f 306 258 257
f 306 312 311
f 306 287 286
f 290 289 306
f 306 247 246
f 241 240 306
f 306 234 233
f 306 230 229
f 281 280 306
f 222 221 306
f 306 314 313
f 211 315 306
f 224 223 306
f 216 215 306
f 219 218 306
f 306 249 248
f 306 242 241
f 306 236 235
f 306 240 239
f 239 238 306
f 235 234 306
f 227 226 306
f 229 228 306
f 257 256 306
f 306 295 294
f 264 263 306
f 261 260 306
f 306 304 303
f 306 278 277
f 306 215 214
f 306 212 211
f 306 220 219
f 303 302 306
f 248 247 306
f 243 242 306
f 306 244 243
f 246 245 306
f 231 230 306
f 306 225 224
f 306 262 261
f 270 269 306
f 267 266 306
f 306 265 264
f 279 278 306
f 315 314 306
f 313 312 306
f 311 310 306
f 273 272 306
f 306 218 217
f 306 221 220
f 214 213 306
f 286 285 306
f 306 289 288
f 288 287 306
f 306 245 244
f 226 225 306
f 306 255 254
f 254 253 306
f 306 263 262
f 259 258 306
f 306 251 250
f 306 271 270
f 306 280 279
f 277 276 306
f 310 309 306
f 306 213 212
f 306 302 301
f 297 296 306
f 306 298 297
f 253 252 306
f 306 260 259
f 306 291 290
f 306 274 273
f 306 276 275
f 283 282 306
f 306 284 283
f 309 308 306
f 296 295 306
f 306 299 298
f 294 293 306
f 252 251 306
f 306 266 265
f 306 268 267
f 306 272 271
f 306 285 284
f 308 307 306
f 306 293 292
f 292 291 306
f 306 269 268

