# https://github.com/mikedh/trimesh
v 0.00350000 0.01400000 0.03030000
v 0.00349374 0.01420931 0.03030000
v 0.00347496 0.01441788 0.03030000
v 0.00344375 0.01462495 0.03030000
v 0.00340022 0.01482978 0.03030000
v 0.00334450 0.01503164 0.03030000
v 0.00327682 0.01522981 0.03030000
v 0.00319741 0.01542358 0.03030000
v 0.00310655 0.01561225 0.03030000
v 0.00300457 0.01579515 0.03030000
v 0.00289184 0.01597162 0.03030000
v 0.00276875 0.01614104 0.03030000
v 0.00263575 0.01630279 0.03030000
v 0.00249332 0.01645629 0.03030000
v 0.00234196 0.01660101 0.03030000
v 0.00218221 0.01673641 0.03030000
v 0.00201466 0.01686202 0.03030000
v 0.00183989 0.01697738 0.03030000
v 0.00165854 0.01708208 0.03030000
v 0.00147125 0.01717576 0.03030000
v 0.00127869 0.01725806 0.03030000
v 0.00108156 0.01732870 0.03030000
v 0.00088055 0.01738742 0.03030000
v 0.00067640 0.01743402 0.03030000
v 0.00046982 0.01746832 0.03030000
v 0.00026156 0.01749021 0.03030000
v 0.00005236 0.01749961 0.03030000
v -0.00015703 0.01749648 0.03030000
v -0.00036585 0.01748083 0.03030000
v -0.00057336 0.01745272 0.03030000
v -0.00077882 0.01741225 0.03030000
v -0.00098150 0.01735956 0.03030000
v -0.00118065 0.01729485 0.03030000
v -0.00137559 0.01721835 0.03030000
v -0.00156560 0.01713032 0.03030000
v -0.00175000 0.01703109 0.03030000
v -0.00192814 0.01692101 0.03030000
v -0.00209938 0.01680047 0.03030000
v -0.00226310 0.01666990 0.03030000
v -0.00241872 0.01652978 0.03030000
v -0.00256568 0.01638060 0.03030000
v -0.00270346 0.01622291 0.03030000
v -0.00283156 0.01605725 0.03030000
v -0.00294952 0.01588423 0.03030000
v -0.00305693 0.01570446 0.03030000
v -0.00315339 0.01551859 0.03030000
v -0.00323857 0.01532729 0.03030000
v -0.00331215 0.01513123 0.03030000
v -0.00337387 0.01493113 0.03030000
v -0.00342352 0.01472769 0.03030000
v -0.00346091 0.01452165 0.03030000
v -0.00348591 0.01431374 0.03030000
v -0.00349843 0.01410470 0.03030000
v -0.00349843 0.01389530 0.03030000
v -0.00348591 0.01368626 0.03030000
v -0.00346091 0.01347835 0.03030000
v -0.00342352 0.01327231 0.03030000
v -0.00337387 0.01306887 0.03030000
v -0.00331215 0.01286877 0.03030000
v -0.00323857 0.01267271 0.03030000
v -0.00315339 0.01248141 0.03030000
v -0.00305693 0.01229554 0.03030000
v -0.00294952 0.01211577 0.03030000
v -0.00283156 0.01194275 0.03030000
v -0.00270346 0.01177709 0.03030000
v -0.00256568 0.01161940 0.03030000
v -0.00241872 0.01147022 0.03030000
v -0.00226310 0.01133010 0.03030000
v -0.00209938 0.01119953 0.03030000
v -0.00192814 0.01107899 0.03030000
v -0.00175000 0.01096891 0.03030000
v -0.00156560 0.01086968 0.03030000
v -0.00137559 0.01078165 0.03030000
v -0.00118065 0.01070515 0.03030000
v -0.00098150 0.01064044 0.03030000
v -0.00077882 0.01058775 0.03030000
v -0.00057336 0.01054728 0.03030000
v -0.00036585 0.01051917 0.03030000
v -0.00015703 0.01050352 0.03030000
v 0.00005236 0.01050039 0.03030000
v 0.00026156 0.01050979 0.03030000
v 0.00046982 0.01053168 0.03030000
v 0.00067640 0.01056598 0.03030000
v 0.00088055 0.01061258 0.03030000
v 0.00108156 0.01067130 0.03030000
v 0.00127869 0.01074194 0.03030000
v 0.00147125 0.01082424 0.03030000
v 0.00165854 0.01091792 0.03030000
v 0.00183989 0.01102262 0.03030000
v 0.00201466 0.01113798 0.03030000
v 0.00218221 0.01126359 0.03030000
v 0.00234196 0.01139899 0.03030000
v 0.00249332 0.01154371 0.03030000
v 0.00263575 0.01169721 0.03030000
v 0.00276875 0.01185896 0.03030000
v 0.00289184 0.01202838 0.03030000
v 0.00300457 0.01220485 0.03030000
v 0.00310655 0.01238775 0.03030000
v 0.00319741 0.01257642 0.03030000
v 0.00327682 0.01277019 0.03030000
v 0.00334450 0.01296836 0.03030000
v 0.00340022 0.01317022 0.03030000
v 0.00344375 0.01337505 0.03030000
v 0.00347496 0.01358212 0.03030000
v 0.00349374 0.01379069 0.03030000
v 0.00350000 0.01400000 0.02980000
v 0.00349374 0.01420931 0.02980000
v 0.00347496 0.01441788 0.02980000
v 0.00344375 0.01462495 0.02980000
v 0.00340022 0.01482978 0.02980000
v 0.00334450 0.01503164 0.02980000
v 0.00327682 0.01522981 0.02980000
v 0.00319741 0.01542358 0.02980000
v 0.00310655 0.01561225 0.02980000
v 0.00300457 0.01579515 0.02980000
v 0.00289184 0.01597162 0.02980000
v 0.00276875 0.01614104 0.02980000
v 0.00263575 0.01630279 0.02980000
v 0.00249332 0.01645629 0.02980000
v 0.00234196 0.01660101 0.02980000
v 0.00218221 0.01673641 0.02980000
v 0.00201466 0.01686202 0.02980000
v 0.00183989 0.01697738 0.02980000
v 0.00165854 0.01708208 0.02980000
v 0.00147125 0.01717576 0.02980000
v 0.00127869 0.01725806 0.02980000
v 0.00108156 0.01732870 0.02980000
v 0.00088055 0.01738742 0.02980000
v 0.00067640 0.01743402 0.02980000
v 0.00046982 0.01746832 0.02980000
v 0.00026156 0.01749021 0.02980000
v 0.00005236 0.01749961 0.02980000
v -0.00015703 0.01749648 0.02980000
v -0.00036585 0.01748083 0.02980000
v -0.00057336 0.01745272 0.02980000
v -0.00077882 0.01741225 0.02980000
v -0.00098150 0.01735956 0.02980000
v -0.00118065 0.01729485 0.02980000
v -0.00137559 0.01721835 0.02980000
v -0.00156560 0.01713032 0.02980000
v -0.00175000 0.01703109 0.02980000
v -0.00192814 0.01692101 0.02980000
v -0.00209938 0.01680047 0.02980000
v -0.00226310 0.01666990 0.02980000
v -0.00241872 0.01652978 0.02980000
v -0.00256568 0.01638060 0.02980000
v -0.00270346 0.01622291 0.02980000
v -0.00283156 0.01605725 0.02980000
v -0.00294952 0.01588423 0.02980000
v -0.00305693 0.01570446 0.02980000
v -0.00315339 0.01551859 0.02980000
v -0.00323857 0.01532729 0.02980000
v -0.00331215 0.01513123 0.02980000
v -0.00337387 0.01493113 0.02980000
v -0.00342352 0.01472769 0.02980000
v -0.00346091 0.01452165 0.02980000
v -0.00348591 0.01431374 0.02980000
v -0.00349843 0.01410470 0.02980000
v -0.00349843 0.01389530 0.02980000
v -0.00348591 0.01368626 0.02980000
v -0.00346091 0.01347835 0.02980000
v -0.00342352 0.01327231 0.02980000
v -0.00337387 0.01306887 0.02980000
v -0.00331215 0.01286877 0.02980000
v -0.00323857 0.01267271 0.02980000
v -0.00315339 0.01248141 0.02980000
v -0.00305693 0.01229554 0.02980000
v -0.00294952 0.01211577 0.02980000
v -0.00283156 0.01194275 0.02980000
v -0.00270346 0.01177709 0.02980000
v -0.00256568 0.01161940 0.02980000
v -0.00241872 0.01147022 0.02980000
v -0.00226310 0.01133010 0.02980000
v -0.00209938 0.01119953 0.02980000
v -0.00192814 0.01107899 0.02980000
v -0.00175000 0.01096891 0.02980000
v -0.00156560 0.01086968 0.02980000
v -0.00137559 0.01078165 0.02980000
v -0.00118065 0.01070515 0.02980000
v -0.00098150 0.01064044 0.02980000
v -0.00077882 0.01058775 0.02980000
v -0.00057336 0.01054728 0.02980000
v -0.00036585 0.01051917 0.02980000
v -0.00015703 0.01050352 0.02980000
v 0.00005236 0.01050039 0.02980000
v 0.00026156 0.01050979 0.02980000
v 0.00046982 0.01053168 0.02980000
v 0.00067640 0.01056598 0.02980000
v 0.00088055 0.01061258 0.02980000
v 0.00108156 0.01067130 0.02980000
v 0.00127869 0.01074194 0.02980000
v 0.00147125 0.01082424 0.02980000
v 0.00165854 0.01091792 0.02980000
v 0.00183989 0.01102262 0.02980000
v 0.00201466 0.01113798 0.02980000
v 0.00218221 0.01126359 0.02980000
v 0.00234196 0.01139899 0.02980000
v 0.00249332 0.01154371 0.02980000
v 0.00263575 0.01169721 0.02980000
v 0.00276875 0.01185896 0.02980000
v 0.00289184 0.01202838 0.02980000
v 0.00300457 0.01220485 0.02980000
v 0.00310655 0.01238775 0.02980000
v 0.00319741 0.01257642 0.02980000
v 0.00327682 0.01277019 0.02980000
v 0.00334450 0.01296836 0.02980000
v 0.00340022 0.01317022 0.02980000
v 0.00344375 0.01337505 0.02980000
v 0.00347496 0.01358212 0.02980000
v 0.00349374 0.01379069 0.02980000
f 1 105 210
f 210 106 1
f 210 105 104
f 104 209 210
f 187 188 82
f 82 188 83
f 89 88 193
f 193 194 89
f 72 71 176
f 176 177 72
f 107 2 1
f 1 106 107
f 3 2 107
f 107 108 3
f 63 62 168
f 168 62 167
f 168 64 63
f 169 64 168
f 65 64 170
f 170 64 169
f 59 164 165
f 59 165 60
f 163 58 57
f 57 162 163
f 163 59 58
f 164 59 163
f 56 161 162
f 56 162 57
f 55 54 160
f 160 54 159
f 160 56 55
f 161 56 160
f 124 19 18
f 18 123 124
f 208 104 103
f 208 209 104
f 207 208 102
f 102 208 103
f 206 207 102
f 102 101 206
f 99 98 203
f 203 204 99
f 101 100 205
f 206 101 205
f 205 100 99
f 99 204 205
f 189 84 83
f 83 188 189
f 184 185 79
f 79 185 80
f 183 78 77
f 183 77 182
f 183 79 78
f 184 79 183
f 198 199 94
f 93 198 94
f 96 95 200
f 201 96 200
f 95 94 200
f 200 94 199
f 92 197 198
f 92 198 93
f 196 197 92
f 92 91 196
f 192 87 86
f 192 86 191
f 88 87 192
f 192 193 88
f 91 90 195
f 196 91 195
f 89 194 195
f 195 90 89
f 177 178 73
f 72 177 73
f 74 73 179
f 179 73 178
f 175 71 70
f 175 176 71
f 4 3 109
f 3 108 109
f 5 109 110
f 4 109 5
f 5 110 111
f 111 6 5
f 114 9 8
f 8 113 114
f 112 7 6
f 112 6 111
f 8 7 112
f 112 113 8
f 149 45 44
f 150 45 149
f 44 43 149
f 149 43 148
f 146 41 40
f 146 40 145
f 158 54 53
f 159 54 158
f 157 158 52
f 52 158 53
f 141 36 35
f 35 140 141
f 165 166 61
f 60 165 61
f 61 166 167
f 167 62 61
f 67 66 171
f 172 67 171
f 171 66 65
f 65 170 171
f 129 25 24
f 130 25 129
f 24 23 129
f 23 128 129
f 127 22 21
f 127 21 126
f 23 22 127
f 127 128 23
f 28 132 133
f 27 132 28
f 30 29 134
f 135 30 134
f 29 28 134
f 134 28 133
f 13 118 119
f 13 119 14
f 117 12 11
f 117 11 116
f 117 13 12
f 118 13 117
f 119 120 15
f 14 119 15
f 15 120 121
f 121 16 15
f 21 20 125
f 126 21 125
f 125 20 19
f 19 124 125
f 122 17 16
f 122 16 121
f 122 123 18
f 18 17 122
f 86 85 190
f 191 86 190
f 190 85 84
f 84 189 190
f 187 82 186
f 82 81 186
f 186 81 80
f 80 185 186
f 180 75 74
f 74 179 180
f 173 68 67
f 173 67 172
f 46 151 152
f 46 152 47
f 150 151 46
f 46 45 150
f 147 43 42
f 148 43 147
f 42 41 147
f 41 146 147
f 49 154 155
f 155 50 49
f 34 139 140
f 34 140 35
f 138 34 33
f 139 34 138
f 37 36 142
f 36 141 142
f 131 25 130
f 131 26 25
f 27 26 131
f 131 132 27
f 202 96 201
f 202 97 96
f 202 203 98
f 98 97 202
f 77 76 181
f 182 77 181
f 181 76 75
f 75 180 181
f 70 69 174
f 174 175 70
f 174 69 68
f 68 173 174
f 116 11 115
f 11 10 115
f 9 114 115
f 115 10 9
f 47 152 48
f 152 153 48
f 48 153 154
f 154 49 48
f 93 94 51
f 51 92 93
f 70 71 51
f 63 64 51
f 33 34 51
f 51 7 8
f 51 79 80
f 60 61 51
f 51 102 103
f 27 28 51
f 51 10 11
f 51 105 1
f 51 85 86
f 53 54 51
f 67 68 51
f 1 2 51
f 74 75 51
f 8 9 51
f 51 36 37
f 21 22 51
f 103 104 51
f 51 98 99
f 99 100 51
f 51 13 14
f 51 32 33
f 51 66 67
f 51 69 70
f 80 81 51
f 51 3 4
f 40 41 51
f 51 39 40
f 51 59 60
f 57 58 51
f 30 31 51
f 51 56 57
f 51 76 77
f 104 105 51
f 51 17 18
f 83 84 51
f 51 88 89
f 51 95 96
f 86 87 51
f 65 66 51
f 68 69 51
f 51 71 72
f 77 78 51
f 89 90 51
f 51 2 3
f 51 73 74
f 4 5 51
f 51 43 44
f 37 38 51
f 51 26 27
f 51 54 55
f 51 62 63
f 51 23 24
f 18 19 51
f 11 12 51
f 51 20 21
f 14 15 51
f 51 100 101
f 84 85 51
f 51 82 83
f 51 87 88
f 51 90 91
f 75 76 51
f 96 97 51
f 6 7 51
f 51 41 42
f 44 45 51
f 51 46 47
f 51 38 39
f 35 36 51
f 51 29 30
f 51 52 53
f 51 64 65
f 58 59 51
f 55 56 51
f 51 22 23
f 24 25 51
f 19 20 51
f 16 17 51
f 101 102 51
f 51 81 82
f 78 79 51
f 51 94 95
f 91 92 51
f 72 73 51
f 51 5 6
f 42 43 51
f 47 48 51
f 51 31 32
f 51 61 62
f 25 26 51
f 51 28 29
f 12 13 51
f 51 15 16
f 51 97 98
f 9 10 51
f 45 46 51
f 51 49 50
f 51 34 35
f 51 48 49
f 51 50 155
f 155 156 51
f 157 52 51
f 51 156 157
f 33 32 137
f 137 138 33
f 40 39 144
f 145 40 144
f 136 31 30
f 136 30 135
f 32 31 136
f 136 137 32
f 148 147 143
f 143 197 196
f 191 190 143
f 196 195 143
f 143 109 108
f 143 142 141
f 209 208 143
f 150 149 143
f 165 164 143
f 143 207 206
f 106 210 143
f 111 110 143
f 143 107 106
f 143 163 162
f 143 156 155
f 143 168 167
f 143 160 159
f 121 120 143
f 143 131 130
f 206 205 143
f 143 183 182
f 143 192 191
f 201 200 143
f 177 176 143
f 175 174 143
f 143 112 111
f 143 146 145
f 143 166 165
f 143 170 169
f 162 161 143
f 130 129 143
f 135 134 143
f 126 125 143
f 143 117 116
f 143 210 209
f 143 188 187
f 143 122 121
f 143 199 198
f 198 197 143
f 194 193 143
f 143 178 177
f 143 179 178
f 176 175 143
f 108 107 143
f 152 151 143
f 143 153 152
f 159 158 143
f 167 166 143
f 169 168 143
f 143 141 140
f 164 163 143
f 161 160 143
f 172 171 143
f 143 127 126
f 119 118 143
f 143 120 119
f 143 124 123
f 143 208 207
f 204 203 143
f 143 205 204
f 143 189 188
f 143 185 184
f 184 183 143
f 143 200 199
f 193 192 143
f 143 195 194
f 187 186 143
f 143 202 201
f 110 109 143
f 143 114 113
f 113 112 143
f 143 151 150
f 143 149 148
f 143 173 172
f 155 154 143
f 143 158 157
f 140 139 143
f 139 138 143
f 143 171 170
f 143 129 128
f 128 127 143
f 133 132 143
f 143 134 133
f 118 117 143
f 143 125 124
f 123 122 143
f 143 190 189
f 143 186 185
f 143 180 179
f 182 181 143
f 143 147 146
f 154 153 143
f 157 156 143
f 116 115 143
f 145 144 143
f 132 131 143
f 203 202 143
f 143 181 180
f 143 174 173
f 143 115 114
f 138 137 143
f 143 136 135
f 137 136 143
f 143 38 37
f 37 142 143
f 39 38 143
f 143 144 39

