# https://github.com/mikedh/trimesh
v 0.00000000 0.00990000 0.02450000
v -0.00011363 0.00989660 0.02450000
v -0.00022685 0.00988641 0.02450000
v -0.00033926 0.00986947 0.02450000
v -0.00045045 0.00984583 0.02450000
v -0.00056003 0.00981559 0.02450000
v -0.00066761 0.00977885 0.02450000
v -0.00077280 0.00973574 0.02450000
v -0.00087522 0.00968641 0.02450000
v -0.00097451 0.00963105 0.02450000
v -0.00107031 0.00956985 0.02450000
v -0.00116228 0.00950303 0.02450000
v -0.00125008 0.00943084 0.02450000
v -0.00133342 0.00935351 0.02450000
v -0.00141198 0.00927135 0.02450000
v -0.00148548 0.00918463 0.02450000
v -0.00155367 0.00909367 0.02450000
v -0.00161629 0.00899880 0.02450000
v -0.00167313 0.00890035 0.02450000
v -0.00172398 0.00879868 0.02450000
v -0.00176866 0.00869415 0.02450000
v -0.00180701 0.00858713 0.02450000
v -0.00183889 0.00847801 0.02450000
v -0.00186418 0.00836719 0.02450000
v -0.00188280 0.00825504 0.02450000
v -0.00189469 0.00814199 0.02450000
v -0.00189979 0.00802842 0.02450000
v -0.00189809 0.00791476 0.02450000
v -0.00188959 0.00780140 0.02450000
v -0.00187433 0.00768875 0.02450000
v -0.00185236 0.00757721 0.02450000
v -0.00182376 0.00746719 0.02450000
v -0.00178863 0.00735907 0.02450000
v -0.00174710 0.00725325 0.02450000
v -0.00169932 0.00715011 0.02450000
v -0.00164545 0.00705000 0.02450000
v -0.00158569 0.00695330 0.02450000
v -0.00152025 0.00686034 0.02450000
v -0.00144938 0.00677146 0.02450000
v -0.00137331 0.00668698 0.02450000
v -0.00129233 0.00660720 0.02450000
v -0.00120672 0.00653241 0.02450000
v -0.00111679 0.00646287 0.02450000
v -0.00102287 0.00639883 0.02450000
v -0.00092528 0.00634052 0.02450000
v -0.00082438 0.00628816 0.02450000
v -0.00072053 0.00624192 0.02450000
v -0.00061410 0.00620198 0.02450000
v -0.00050547 0.00616847 0.02450000
v -0.00039503 0.00614152 0.02450000
v -0.00028318 0.00612122 0.02450000
v -0.00017031 0.00610765 0.02450000
v -0.00005684 0.00610085 0.02450000
v 0.00005684 0.00610085 0.02450000
v 0.00017031 0.00610765 0.02450000
v 0.00028318 0.00612122 0.02450000
v 0.00039503 0.00614152 0.02450000
v 0.00050547 0.00616847 0.02450000
v 0.00061410 0.00620198 0.02450000
v 0.00072053 0.00624192 0.02450000
v 0.00082438 0.00628816 0.02450000
v 0.00092528 0.00634052 0.02450000
v 0.00102287 0.00639883 0.02450000
v 0.00111679 0.00646287 0.02450000
v 0.00120672 0.00653241 0.02450000
v 0.00129233 0.00660720 0.02450000
v 0.00137331 0.00668698 0.02450000
v 0.00144938 0.00677146 0.02450000
v 0.00152025 0.00686034 0.02450000
v 0.00158569 0.00695330 0.02450000
v 0.00164545 0.00705000 0.02450000
v 0.00169932 0.00715011 0.02450000
v 0.00174710 0.00725325 0.02450000
v 0.00178863 0.00735907 0.02450000
v 0.00182376 0.00746719 0.02450000
v 0.00185236 0.00757721 0.02450000
v 0.00187433 0.00768875 0.02450000
v 0.00188959 0.00780140 0.02450000
v 0.00189809 0.00791476 0.02450000
v 0.00189979 0.00802842 0.02450000
v 0.00189469 0.00814199 0.02450000
v 0.00188280 0.00825504 0.02450000
v 0.00186418 0.00836719 0.02450000
v 0.00183889 0.00847801 0.02450000
v 0.00180701 0.00858713 0.02450000
v 0.00176866 0.00869415 0.02450000
v 0.00172398 0.00879868 0.02450000
v 0.00167313 0.00890035 0.02450000
v 0.00161629 0.00899880 0.02450000
v 0.00155367 0.00909367 0.02450000
v 0.00148548 0.00918463 0.02450000
v 0.00141198 0.00927135 0.02450000
v 0.00133342 0.00935351 0.02450000
v 0.00125008 0.00943084 0.02450000
v 0.00116228 0.00950303 0.02450000
v 0.00107031 0.00956985 0.02450000
v 0.00097451 0.00963105 0.02450000
v 0.00087522 0.00968641 0.02450000
v 0.00077280 0.00973574 0.02450000
v 0.00066761 0.00977885 0.02450000
v 0.00056003 0.00981559 0.02450000
v 0.00045045 0.00984583 0.02450000
v 0.00033926 0.00986947 0.02450000
v 0.00022685 0.00988641 0.02450000
v 0.00011363 0.00989660 0.02450000
v 0.00000000 0.00990000 0.02250000
v -0.00011363 0.00989660 0.02250000
v -0.00022685 0.00988641 0.02250000
v -0.00033926 0.00986947 0.02250000
v -0.00045045 0.00984583 0.02250000
v -0.00056003 0.00981559 0.02250000
v -0.00066761 0.00977885 0.02250000
v -0.00077280 0.00973574 0.02250000
v -0.00087522 0.00968641 0.02250000
v -0.00097451 0.00963105 0.02250000
v -0.00107031 0.00956985 0.02250000
v -0.00116228 0.00950303 0.02250000
v -0.00125008 0.00943084 0.02250000
v -0.00133342 0.00935351 0.02250000
v -0.00141198 0.00927135 0.02250000
v -0.00148548 0.00918463 0.02250000
v -0.00155367 0.00909367 0.02250000
v -0.00161629 0.00899880 0.02250000
v -0.00167313 0.00890035 0.02250000
v -0.00172398 0.00879868 0.02250000
v -0.00176866 0.00869415 0.02250000
v -0.00180701 0.00858713 0.02250000
v -0.00183889 0.00847801 0.02250000
v -0.00186418 0.00836719 0.02250000
v -0.00188280 0.00825504 0.02250000
v -0.00189469 0.00814199 0.02250000
v -0.00189979 0.00802842 0.02250000
v -0.00189809 0.00791476 0.02250000
v -0.00188959 0.00780140 0.02250000
v -0.00187433 0.00768875 0.02250000
v -0.00185236 0.00757721 0.02250000
v -0.00182376 0.00746719 0.02250000
v -0.00178863 0.00735907 0.02250000
v -0.00174710 0.00725325 0.02250000
v -0.00169932 0.00715011 0.02250000
v -0.00164545 0.00705000 0.02250000
v -0.00158569 0.00695330 0.02250000
v -0.00152025 0.00686034 0.02250000
v -0.00144938 0.00677146 0.02250000
v -0.00137331 0.00668698 0.02250000
v -0.00129233 0.00660720 0.02250000
v -0.00120672 0.00653241 0.02250000
v -0.00111679 0.00646287 0.02250000
v -0.00102287 0.00639883 0.02250000
v -0.00092528 0.00634052 0.02250000
v -0.00082438 0.00628816 0.02250000
v -0.00072053 0.00624192 0.02250000
v -0.00061410 0.00620198 0.02250000
v -0.00050547 0.00616847 0.02250000
v -0.00039503 0.00614152 0.02250000
v -0.00028318 0.00612122 0.02250000
v -0.00017031 0.00610765 0.02250000
v -0.00005684 0.00610085 0.02250000
v 0.00005684 0.00610085 0.02250000
v 0.00017031 0.00610765 0.02250000
v 0.00028318 0.00612122 0.02250000
v 0.00039503 0.00614152 0.02250000
v 0.00050547 0.00616847 0.02250000
v 0.00061410 0.00620198 0.02250000
v 0.00072053 0.00624192 0.02250000
v 0.00082438 0.00628816 0.02250000
v 0.00092528 0.00634052 0.02250000
v 0.00102287 0.00639883 0.02250000
v 0.00111679 0.00646287 0.02250000
v 0.00120672 0.00653241 0.02250000
v 0.00129233 0.00660720 0.02250000
v 0.00137331 0.00668698 0.02250000
v 0.00144938 0.00677146 0.02250000
v 0.00152025 0.00686034 0.02250000
v 0.00158569 0.00695330 0.02250000
v 0.00164545 0.00705000 0.02250000
v 0.00169932 0.00715011 0.02250000
v 0.00174710 0.00725325 0.02250000
v 0.00178863 0.00735907 0.02250000
v 0.00182376 0.00746719 0.02250000
v 0.00185236 0.00757721 0.02250000
v 0.00187433 0.00768875 0.02250000
v 0.00188959 0.00780140 0.02250000
v 0.00189809 0.00791476 0.02250000
v 0.00189979 0.00802842 0.02250000
v 0.00189469 0.00814199 0.02250000
v 0.00188280 0.00825504 0.02250000
v 0.00186418 0.00836719 0.02250000
v 0.00183889 0.00847801 0.02250000
v 0.00180701 0.00858713 0.02250000
v 0.00176866 0.00869415 0.02250000
v 0.00172398 0.00879868 0.02250000
v 0.00167313 0.00890035 0.02250000
v 0.00161629 0.00899880 0.02250000
v 0.00155367 0.00909367 0.02250000
v 0.00148548 0.00918463 0.02250000
v 0.00141198 0.00927135 0.02250000
v 0.00133342 0.00935351 0.02250000
v 0.00125008 0.00943084 0.02250000
v 0.00116228 0.00950303 0.02250000
v 0.00107031 0.00956985 0.02250000
v 0.00097451 0.00963105 0.02250000
v 0.00087522 0.00968641 0.02250000
v 0.00077280 0.00973574 0.02250000
v 0.00066761 0.00977885 0.02250000
v 0.00056003 0.00981559 0.02250000
v 0.00045045 0.00984583 0.02250000
v 0.00033926 0.00986947 0.02250000
v 0.00022685 0.00988641 0.02250000
v 0.00011363 0.00989660 0.02250000
v 0.00000000 0.00900000 0.01650000
v -0.00005980 0.00899821 0.01650000
v -0.00011939 0.00899285 0.01650000
v -0.00017856 0.00898393 0.01650000
v -0.00023708 0.00897149 0.01650000
v -0.00029476 0.00895557 0.01650000
v -0.00035137 0.00893623 0.01650000
v -0.00040674 0.00891355 0.01650000
v -0.00046064 0.00888759 0.01650000
v -0.00051290 0.00885845 0.01650000
v -0.00056332 0.00882624 0.01650000
v -0.00061172 0.00879107 0.01650000
v -0.00065794 0.00875307 0.01650000
v -0.00070180 0.00871238 0.01650000
v -0.00074314 0.00866913 0.01650000
v -0.00078183 0.00862349 0.01650000
v -0.00081772 0.00857562 0.01650000
v -0.00085068 0.00852568 0.01650000
v -0.00088060 0.00847387 0.01650000
v -0.00090736 0.00842036 0.01650000
v -0.00093087 0.00836534 0.01650000
v -0.00095106 0.00830902 0.01650000
v -0.00096783 0.00825159 0.01650000
v -0.00098115 0.00819326 0.01650000
v -0.00099095 0.00813423 0.01650000
v -0.00099720 0.00807473 0.01650000
v -0.00099989 0.00801496 0.01650000
v -0.00099899 0.00795514 0.01650000
v -0.00099452 0.00789547 0.01650000
v -0.00098649 0.00783618 0.01650000
v -0.00097493 0.00777748 0.01650000
v -0.00095988 0.00771957 0.01650000
v -0.00094139 0.00766267 0.01650000
v -0.00091953 0.00760697 0.01650000
v -0.00089438 0.00755269 0.01650000
v -0.00086603 0.00750000 0.01650000
v -0.00083457 0.00744910 0.01650000
v -0.00080013 0.00740018 0.01650000
v -0.00076283 0.00735340 0.01650000
v -0.00072279 0.00730894 0.01650000
v -0.00068017 0.00726695 0.01650000
v -0.00063512 0.00722758 0.01650000
v -0.00058779 0.00719098 0.01650000
v -0.00053835 0.00715728 0.01650000
v -0.00048699 0.00712659 0.01650000
v -0.00043388 0.00709903 0.01650000
v -0.00037923 0.00707470 0.01650000
v -0.00032321 0.00705367 0.01650000
v -0.00026604 0.00703604 0.01650000
v -0.00020791 0.00702185 0.01650000
v -0.00014904 0.00701117 0.01650000
v -0.00008964 0.00700403 0.01650000
v -0.00002992 0.00700045 0.01650000
v 0.00002992 0.00700045 0.01650000
v 0.00008964 0.00700403 0.01650000
v 0.00014904 0.00701117 0.01650000
v 0.00020791 0.00702185 0.01650000
v 0.00026604 0.00703604 0.01650000
v 0.00032321 0.00705367 0.01650000
v 0.00037923 0.00707470 0.01650000
v 0.00043388 0.00709903 0.01650000
v 0.00048699 0.00712659 0.01650000
v 0.00053835 0.00715728 0.01650000
v 0.00058779 0.00719098 0.01650000
v 0.00063512 0.00722758 0.01650000
v 0.00068017 0.00726695 0.01650000
v 0.00072279 0.00730894 0.01650000
v 0.00076283 0.00735340 0.01650000
v 0.00080013 0.00740018 0.01650000
v 0.00083457 0.00744910 0.01650000
v 0.00086603 0.00750000 0.01650000
v 0.00089438 0.00755269 0.01650000
v 0.00091953 0.00760697 0.01650000
v 0.00094139 0.00766267 0.01650000
v 0.00095988 0.00771957 0.01650000
v 0.00097493 0.00777748 0.01650000
v 0.00098649 0.00783618 0.01650000
v 0.00099452 0.00789547 0.01650000
v 0.00099899 0.00795514 0.01650000
v 0.00099989 0.00801496 0.01650000
v 0.00099720 0.00807473 0.01650000
v 0.00099095 0.00813423 0.01650000
v 0.00098115 0.00819326 0.01650000
v 0.00096783 0.00825159 0.01650000
v 0.00095106 0.00830902 0.01650000
v 0.00093087 0.00836534 0.01650000
v 0.00090736 0.00842036 0.01650000
v 0.00088060 0.00847387 0.01650000
v 0.00085068 0.00852568 0.01650000
v 0.00081772 0.00857562 0.01650000
v 0.00078183 0.00862349 0.01650000
v 0.00074314 0.00866913 0.01650000
v 0.00070180 0.00871238 0.01650000
v 0.00065794 0.00875307 0.01650000
v 0.00061172 0.00879107 0.01650000
v 0.00056332 0.00882624 0.01650000
v 0.00051290 0.00885845 0.01650000
v 0.00046064 0.00888759 0.01650000
v 0.00040674 0.00891355 0.01650000
v 0.00035137 0.00893623 0.01650000
v 0.00029476 0.00895557 0.01650000
v 0.00023708 0.00897149 0.01650000
v 0.00017856 0.00898393 0.01650000
v 0.00011939 0.00899285 0.01650000
v 0.00005980 0.00899821 0.01650000
f 118 117 222
f 214 109 108
f 110 109 214
f 146 145 250
f 250 145 249
f 234 128 233
f 224 225 119
f 119 118 224
f 222 117 221
f 117 116 221
f 215 216 110
f 110 214 215
f 110 216 111
f 216 112 111
f 248 249 143
f 152 151 256
f 256 257 152
f 278 172 277
f 198 302 303
f 294 189 293
f 119 225 120
f 231 125 230
f 123 122 227
f 228 123 227
f 211 212 106
f 223 118 222
f 223 224 118
f 115 221 116
f 213 214 108
f 108 212 213
f 218 113 112
f 218 219 114
f 114 113 218
f 197 302 198
f 297 192 296
f 300 195 194
f 300 194 299
f 305 200 199
f 198 303 199
f 207 313 208
f 208 313 209
f 203 308 309
f 144 249 145
f 144 143 249
f 248 143 142
f 136 240 241
f 135 240 136
f 255 151 150
f 255 256 151
f 155 261 156
f 262 157 156
f 156 261 262
f 158 157 262
f 154 153 259
f 259 155 154
f 268 269 164
f 163 268 164
f 265 159 264
f 265 266 161
f 121 227 122
f 126 125 231
f 231 127 126
f 232 127 231
f 232 233 128
f 128 127 232
f 228 229 124
f 124 123 228
f 124 229 230
f 124 230 125
f 132 131 236
f 237 132 236
f 131 130 236
f 236 130 235
f 239 240 134
f 134 240 135
f 107 212 108
f 107 106 212
f 221 115 220
f 114 219 220
f 220 115 114
f 217 112 216
f 217 218 112
f 195 300 196
f 296 192 191
f 191 190 296
f 296 190 295
f 189 294 295
f 295 190 189
f 193 298 299
f 299 194 193
f 297 298 193
f 192 297 193
f 293 189 188
f 184 290 185
f 293 188 292
f 289 290 184
f 184 288 289
f 172 278 173
f 280 175 279
f 281 175 280
f 179 284 285
f 286 181 285
f 283 284 179
f 305 199 304
f 304 199 303
f 306 201 200
f 306 200 305
f 206 205 311
f 311 207 206
f 312 207 311
f 313 207 312
f 203 309 204
f 204 309 205
f 210 209 315
f 315 106 210
f 211 106 315
f 311 205 310
f 205 309 310
f 246 142 141
f 245 246 141
f 141 140 245
f 248 142 247
f 247 142 246
f 138 243 244
f 138 244 139
f 139 244 245
f 245 140 139
f 149 255 150
f 158 262 263
f 258 259 153
f 258 153 152
f 152 257 258
f 261 155 260
f 155 259 260
f 160 265 161
f 159 265 160
f 162 267 268
f 162 268 163
f 266 267 162
f 161 266 162
f 171 276 277
f 277 172 171
f 167 272 168
f 165 164 269
f 227 121 226
f 226 121 120
f 226 120 225
f 129 128 234
f 234 235 129
f 235 130 129
f 301 196 300
f 197 196 301
f 302 197 301
f 187 292 188
f 186 185 291
f 291 185 290
f 291 187 186
f 292 187 291
f 279 175 174
f 174 278 279
f 174 173 278
f 178 283 179
f 282 283 178
f 178 177 282
f 176 175 281
f 176 281 282
f 282 177 176
f 287 182 181
f 287 181 286
f 183 288 184
f 183 287 288
f 182 287 183
f 179 285 180
f 180 285 181
f 201 306 202
f 314 209 313
f 314 315 209
f 242 136 241
f 242 137 136
f 242 243 138
f 138 137 242
f 254 149 148
f 255 149 254
f 251 146 250
f 147 146 251
f 251 252 147
f 253 148 147
f 147 252 253
f 253 254 148
f 274 275 170
f 170 169 274
f 170 275 276
f 276 171 170
f 273 168 272
f 169 168 273
f 274 169 273
f 166 165 271
f 271 272 166
f 166 272 167
f 271 165 270
f 270 165 269
f 237 238 133
f 133 132 237
f 133 238 239
f 239 134 133
f 307 202 306
f 203 202 307
f 307 308 203
f 122 18 17
f 123 18 122
f 5 109 110
f 5 4 109
f 90 89 195
f 195 89 194
f 120 15 14
f 120 14 119
f 109 4 3
f 108 109 3
f 1 105 106
f 106 105 210
f 119 14 13
f 13 118 119
f 6 112 7
f 6 111 112
f 6 5 110
f 110 111 6
f 93 92 197
f 198 93 197
f 199 94 93
f 199 93 198
f 199 95 94
f 200 95 199
f 96 95 201
f 201 95 200
f 40 39 144
f 145 40 144
f 39 38 144
f 144 38 143
f 142 38 37
f 143 38 142
f 46 151 152
f 152 47 46
f 150 151 46
f 46 45 150
f 155 51 50
f 156 51 155
f 48 47 152
f 152 153 48
f 53 158 54
f 158 159 54
f 17 16 121
f 121 122 17
f 16 15 121
f 15 120 121
f 128 23 22
f 22 127 128
f 124 18 123
f 124 19 18
f 20 19 124
f 124 125 20
f 26 132 27
f 26 131 132
f 130 26 25
f 131 26 130
f 30 29 134
f 135 30 134
f 107 3 2
f 108 3 107
f 107 2 1
f 1 106 107
f 7 112 8
f 112 113 8
f 8 113 114
f 114 9 8
f 116 11 10
f 10 115 116
f 10 9 114
f 114 115 10
f 12 11 116
f 12 116 117
f 118 13 12
f 117 118 12
f 196 91 90
f 90 195 196
f 196 92 91
f 196 197 92
f 85 84 189
f 189 190 85
f 194 89 193
f 89 88 193
f 193 88 87
f 87 192 193
f 84 83 188
f 189 84 188
f 185 81 80
f 186 81 185
f 173 68 67
f 173 67 172
f 76 182 77
f 181 182 76
f 79 185 80
f 184 185 79
f 208 103 102
f 102 207 208
f 204 99 98
f 204 98 203
f 100 99 204
f 204 205 100
f 104 103 208
f 208 209 104
f 210 105 104
f 104 209 210
f 31 30 135
f 135 136 31
f 35 34 139
f 140 35 139
f 139 34 33
f 33 138 139
f 150 45 149
f 45 44 149
f 43 149 44
f 148 149 43
f 52 158 53
f 52 157 158
f 52 51 156
f 156 157 52
f 49 155 50
f 154 155 49
f 49 48 153
f 49 153 154
f 263 159 158
f 264 159 263
f 67 66 171
f 172 67 171
f 59 165 60
f 164 165 59
f 59 58 163
f 163 164 59
f 20 125 21
f 125 126 21
f 127 22 21
f 21 126 127
f 129 24 23
f 129 23 128
f 25 24 129
f 129 130 25
f 86 192 87
f 86 191 192
f 86 85 190
f 190 191 86
f 82 81 187
f 187 81 186
f 187 83 82
f 187 188 83
f 70 69 174
f 174 175 70
f 174 69 68
f 68 173 174
f 74 73 178
f 178 179 74
f 178 73 72
f 72 177 178
f 176 71 70
f 70 175 176
f 72 71 176
f 176 177 72
f 183 79 78
f 184 79 183
f 183 78 77
f 77 182 183
f 98 97 202
f 203 98 202
f 96 201 202
f 202 97 96
f 100 205 101
f 205 206 101
f 207 102 101
f 101 206 207
f 36 142 37
f 36 141 142
f 36 35 140
f 140 141 36
f 32 138 33
f 32 137 138
f 32 31 136
f 136 137 32
f 148 43 42
f 147 148 42
f 161 56 55
f 55 160 161
f 55 54 159
f 159 160 55
f 57 56 161
f 161 162 57
f 163 58 57
f 57 162 163
f 170 65 64
f 64 169 170
f 170 66 65
f 170 171 66
f 63 169 64
f 63 168 169
f 63 62 167
f 167 168 63
f 62 61 166
f 167 62 166
f 166 61 60
f 60 165 166
f 27 132 133
f 133 28 27
f 133 134 29
f 29 28 133
f 74 179 75
f 179 180 75
f 181 76 75
f 75 180 181
f 234 233 307
f 307 238 237
f 274 273 307
f 299 298 307
f 282 281 307
f 307 283 282
f 250 249 307
f 216 215 307
f 268 267 307
f 211 315 307
f 228 227 307
f 222 221 307
f 307 246 245
f 307 291 290
f 277 276 307
f 307 235 234
f 305 304 307
f 307 232 231
f 307 294 293
f 307 212 211
f 214 213 307
f 307 312 311
f 307 314 313
f 245 244 307
f 264 263 307
f 307 278 277
f 296 295 307
f 307 220 219
f 307 229 228
f 241 240 307
f 307 249 248
f 307 265 264
f 225 224 307
f 237 236 307
f 307 223 222
f 307 215 214
f 307 300 299
f 307 306 305
f 307 280 279
f 311 310 307
f 257 256 307
f 255 254 307
f 307 269 268
f 307 272 271
f 261 260 307
f 279 278 307
f 290 289 307
f 307 303 302
f 307 217 216
f 231 230 307
f 307 275 274
f 307 240 239
f 239 238 307
f 224 223 307
f 307 213 212
f 219 218 307
f 307 297 296
f 307 226 225
f 293 292 307
f 286 285 307
f 307 309 308
f 248 247 307
f 256 255 307
f 307 262 261
f 307 258 257
f 307 253 252
f 307 267 266
f 266 265 307
f 233 232 307
f 230 229 307
f 307 236 235
f 221 220 307
f 218 217 307
f 307 295 294
f 307 298 297
f 302 301 307
f 307 289 288
f 281 280 307
f 307 285 284
f 284 283 307
f 307 304 303
f 271 270 307
f 313 312 307
f 307 287 286
f 307 310 309
f 307 247 246
f 307 244 243
f 307 242 241
f 307 263 262
f 259 258 307
f 307 260 259
f 276 275 307
f 227 226 307
f 307 301 300
f 292 291 307
f 288 287 307
f 315 314 307
f 243 242 307
f 307 251 250
f 252 251 307
f 254 253 307
f 307 273 272
f 307 270 269
f 41 59 60
f 47 48 41
f 93 94 41
f 41 36 37
f 41 26 27
f 41 39 40
f 41 95 96
f 60 61 41
f 23 24 41
f 41 6 7
f 27 28 41
f 14 15 41
f 41 13 14
f 41 92 93
f 80 81 41
f 41 105 1
f 67 68 41
f 41 46 47
f 41 16 17
f 41 49 50
f 1 2 41
f 90 91 41
f 11 12 41
f 41 63 64
f 96 97 41
f 41 99 100
f 37 38 41
f 41 83 84
f 41 66 67
f 41 15 16
f 17 18 41
f 41 19 20
f 103 104 41
f 20 21 41
f 4 5 41
f 41 3 4
f 91 92 41
f 41 89 90
f 87 88 41
f 70 71 41
f 41 79 80
f 41 86 87
f 100 101 41
f 33 34 41
f 41 73 74
f 41 43 44
f 53 54 41
f 64 65 41
f 18 19 41
f 41 24 25
f 41 29 30
f 2 3 41
f 7 8 41
f 41 10 11
f 5 6 41
f 41 88 89
f 82 83 41
f 41 69 70
f 77 78 41
f 94 95 41
f 98 99 41
f 41 38 39
f 41 34 35
f 45 46 41
f 41 44 45
f 50 51 41
f 41 52 53
f 74 75 41
f 41 55 56
f 65 66 41
f 56 57 41
f 41 22 23
f 25 26 41
f 41 8 9
f 9 10 41
f 41 12 13
f 84 85 41
f 41 81 82
f 72 73 41
f 68 69 41
f 41 71 72
f 41 76 77
f 78 79 41
f 41 97 98
f 41 102 103
f 41 104 105
f 30 31 41
f 41 32 33
f 51 52 41
f 48 49 41
f 41 61 62
f 58 59 41
f 41 21 22
f 41 28 29
f 85 86 41
f 41 101 102
f 35 36 41
f 31 32 41
f 41 42 43
f 54 55 41
f 41 57 58
f 62 63 41
f 41 75 76
f 41 40 145
f 145 146 41
f 147 42 41
f 41 146 147

