# https://github.com/mikedh/trimesh
v 0.00800000 0.00190000 0.02450000
v 0.00788637 0.00189660 0.02450000
v 0.00777315 0.00188641 0.02450000
v 0.00766074 0.00186947 0.02450000
v 0.00754955 0.00184583 0.02450000
v 0.00743997 0.00181559 0.02450000
v 0.00733239 0.00177885 0.02450000
v 0.00722720 0.00173574 0.02450000
v 0.00712478 0.00168641 0.02450000
v 0.00702549 0.00163105 0.02450000
v 0.00692969 0.00156985 0.02450000
v 0.00683772 0.00150303 0.02450000
v 0.00674992 0.00143084 0.02450000
v 0.00666658 0.00135351 0.02450000
v 0.00658802 0.00127135 0.02450000
v 0.00651452 0.00118463 0.02450000
v 0.00644633 0.00109367 0.02450000
v 0.00638371 0.00099880 0.02450000
v 0.00632687 0.00090035 0.02450000
v 0.00627602 0.00079868 0.02450000
v 0.00623134 0.00069415 0.02450000
v 0.00619299 0.00058713 0.02450000
v 0.00616111 0.00047801 0.02450000
v 0.00613582 0.00036719 0.02450000
v 0.00611720 0.00025504 0.02450000
v 0.00610531 0.00014199 0.02450000
v 0.00610021 0.00002842 0.02450000
v 0.00610191 -0.00008524 0.02450000
v 0.00611041 -0.00019860 0.02450000
v 0.00612567 -0.00031125 0.02450000
v 0.00614764 -0.00042279 0.02450000
v 0.00617624 -0.00053281 0.02450000
v 0.00621137 -0.00064093 0.02450000
v 0.00625290 -0.00074675 0.02450000
v 0.00630068 -0.00084989 0.02450000
v 0.00635455 -0.00095000 0.02450000
v 0.00641431 -0.00104670 0.02450000
v 0.00647975 -0.00113966 0.02450000
v 0.00655062 -0.00122854 0.02450000
v 0.00662669 -0.00131302 0.02450000
v 0.00670767 -0.00139280 0.02450000
v 0.00679328 -0.00146759 0.02450000
v 0.00688321 -0.00153713 0.02450000
v 0.00697713 -0.00160117 0.02450000
v 0.00707472 -0.00165948 0.02450000
v 0.00717562 -0.00171184 0.02450000
v 0.00727947 -0.00175808 0.02450000
v 0.00738590 -0.00179802 0.02450000
v 0.00749453 -0.00183153 0.02450000
v 0.00760497 -0.00185848 0.02450000
v 0.00771682 -0.00187878 0.02450000
v 0.00782969 -0.00189235 0.02450000
v 0.00794316 -0.00189915 0.02450000
v 0.00805684 -0.00189915 0.02450000
v 0.00817031 -0.00189235 0.02450000
v 0.00828318 -0.00187878 0.02450000
v 0.00839503 -0.00185848 0.02450000
v 0.00850547 -0.00183153 0.02450000
v 0.00861410 -0.00179802 0.02450000
v 0.00872053 -0.00175808 0.02450000
v 0.00882438 -0.00171184 0.02450000
v 0.00892528 -0.00165948 0.02450000
v 0.00902287 -0.00160117 0.02450000
v 0.00911679 -0.00153713 0.02450000
v 0.00920672 -0.00146759 0.02450000
v 0.00929233 -0.00139280 0.02450000
v 0.00937331 -0.00131302 0.02450000
v 0.00944938 -0.00122854 0.02450000
v 0.00952025 -0.00113966 0.02450000
v 0.00958569 -0.00104670 0.02450000
v 0.00964545 -0.00095000 0.02450000
v 0.00969932 -0.00084989 0.02450000
v 0.00974710 -0.00074675 0.02450000
v 0.00978863 -0.00064093 0.02450000
v 0.00982376 -0.00053281 0.02450000
v 0.00985236 -0.00042279 0.02450000
v 0.00987433 -0.00031125 0.02450000
v 0.00988959 -0.00019860 0.02450000
v 0.00989809 -0.00008524 0.02450000
v 0.00989979 0.00002842 0.02450000
v 0.00989469 0.00014199 0.02450000
v 0.00988280 0.00025504 0.02450000
v 0.00986418 0.00036719 0.02450000
v 0.00983889 0.00047801 0.02450000
v 0.00980701 0.00058713 0.02450000
v 0.00976866 0.00069415 0.02450000
v 0.00972398 0.00079868 0.02450000
v 0.00967313 0.00090035 0.02450000
v 0.00961629 0.00099880 0.02450000
v 0.00955367 0.00109367 0.02450000
v 0.00948548 0.00118463 0.02450000
v 0.00941198 0.00127135 0.02450000
v 0.00933342 0.00135351 0.02450000
v 0.00925008 0.00143084 0.02450000
v 0.00916228 0.00150303 0.02450000
v 0.00907031 0.00156985 0.02450000
v 0.00897451 0.00163105 0.02450000
v 0.00887522 0.00168641 0.02450000
v 0.00877280 0.00173574 0.02450000
v 0.00866761 0.00177885 0.02450000
v 0.00856003 0.00181559 0.02450000
v 0.00845045 0.00184583 0.02450000
v 0.00833926 0.00186947 0.02450000
v 0.00822685 0.00188641 0.02450000
v 0.00811363 0.00189660 0.02450000
v 0.00800000 0.00190000 0.02250000
v 0.00788637 0.00189660 0.02250000
v 0.00777315 0.00188641 0.02250000
v 0.00766074 0.00186947 0.02250000
v 0.00754955 0.00184583 0.02250000
v 0.00743997 0.00181559 0.02250000
v 0.00733239 0.00177885 0.02250000
v 0.00722720 0.00173574 0.02250000
v 0.00712478 0.00168641 0.02250000
v 0.00702549 0.00163105 0.02250000
v 0.00692969 0.00156985 0.02250000
v 0.00683772 0.00150303 0.02250000
v 0.00674992 0.00143084 0.02250000
v 0.00666658 0.00135351 0.02250000
v 0.00658802 0.00127135 0.02250000
v 0.00651452 0.00118463 0.02250000
v 0.00644633 0.00109367 0.02250000
v 0.00638371 0.00099880 0.02250000
v 0.00632687 0.00090035 0.02250000
v 0.00627602 0.00079868 0.02250000
v 0.00623134 0.00069415 0.02250000
v 0.00619299 0.00058713 0.02250000
v 0.00616111 0.00047801 0.02250000
v 0.00613582 0.00036719 0.02250000
v 0.00611720 0.00025504 0.02250000
v 0.00610531 0.00014199 0.02250000
v 0.00610021 0.00002842 0.02250000
v 0.00610191 -0.00008524 0.02250000
v 0.00611041 -0.00019860 0.02250000
v 0.00612567 -0.00031125 0.02250000
v 0.00614764 -0.00042279 0.02250000
v 0.00617624 -0.00053281 0.02250000
v 0.00621137 -0.00064093 0.02250000
v 0.00625290 -0.00074675 0.02250000
v 0.00630068 -0.00084989 0.02250000
v 0.00635455 -0.00095000 0.02250000
v 0.00641431 -0.00104670 0.02250000
v 0.00647975 -0.00113966 0.02250000
v 0.00655062 -0.00122854 0.02250000
v 0.00662669 -0.00131302 0.02250000
v 0.00670767 -0.00139280 0.02250000
v 0.00679328 -0.00146759 0.02250000
v 0.00688321 -0.00153713 0.02250000
v 0.00697713 -0.00160117 0.02250000
v 0.00707472 -0.00165948 0.02250000
v 0.00717562 -0.00171184 0.02250000
v 0.00727947 -0.00175808 0.02250000
v 0.00738590 -0.00179802 0.02250000
v 0.00749453 -0.00183153 0.02250000
v 0.00760497 -0.00185848 0.02250000
v 0.00771682 -0.00187878 0.02250000
v 0.00782969 -0.00189235 0.02250000
v 0.00794316 -0.00189915 0.02250000
v 0.00805684 -0.00189915 0.02250000
v 0.00817031 -0.00189235 0.02250000
v 0.00828318 -0.00187878 0.02250000
v 0.00839503 -0.00185848 0.02250000
v 0.00850547 -0.00183153 0.02250000
v 0.00861410 -0.00179802 0.02250000
v 0.00872053 -0.00175808 0.02250000
v 0.00882438 -0.00171184 0.02250000
v 0.00892528 -0.00165948 0.02250000
v 0.00902287 -0.00160117 0.02250000
v 0.00911679 -0.00153713 0.02250000
v 0.00920672 -0.00146759 0.02250000
v 0.00929233 -0.00139280 0.02250000
v 0.00937331 -0.00131302 0.02250000
v 0.00944938 -0.00122854 0.02250000
v 0.00952025 -0.00113966 0.02250000
v 0.00958569 -0.00104670 0.02250000
v 0.00964545 -0.00095000 0.02250000
v 0.00969932 -0.00084989 0.02250000
v 0.00974710 -0.00074675 0.02250000
v 0.00978863 -0.00064093 0.02250000
v 0.00982376 -0.00053281 0.02250000
v 0.00985236 -0.00042279 0.02250000
v 0.00987433 -0.00031125 0.02250000
v 0.00988959 -0.00019860 0.02250000
v 0.00989809 -0.00008524 0.02250000
v 0.00989979 0.00002842 0.02250000
v 0.00989469 0.00014199 0.02250000
v 0.00988280 0.00025504 0.02250000
v 0.00986418 0.00036719 0.02250000
v 0.00983889 0.00047801 0.02250000
v 0.00980701 0.00058713 0.02250000
v 0.00976866 0.00069415 0.02250000
v 0.00972398 0.00079868 0.02250000
v 0.00967313 0.00090035 0.02250000
v 0.00961629 0.00099880 0.02250000
v 0.00955367 0.00109367 0.02250000
v 0.00948548 0.00118463 0.02250000
v 0.00941198 0.00127135 0.02250000
v 0.00933342 0.00135351 0.02250000
v 0.00925008 0.00143084 0.02250000
v 0.00916228 0.00150303 0.02250000
v 0.00907031 0.00156985 0.02250000
v 0.00897451 0.00163105 0.02250000
v 0.00887522 0.00168641 0.02250000
v 0.00877280 0.00173574 0.02250000
v 0.00866761 0.00177885 0.02250000
v 0.00856003 0.00181559 0.02250000
v 0.00845045 0.00184583 0.02250000
v 0.00833926 0.00186947 0.02250000
v 0.00822685 0.00188641 0.02250000
v 0.00811363 0.00189660 0.02250000
v 0.00800000 0.00100000 0.01650000
v 0.00794020 0.00099821 0.01650000
v 0.00788061 0.00099285 0.01650000
v 0.00782144 0.00098393 0.01650000
v 0.00776292 0.00097149 0.01650000
v 0.00770524 0.00095557 0.01650000
v 0.00764863 0.00093623 0.01650000
v 0.00759326 0.00091355 0.01650000
v 0.00753936 0.00088759 0.01650000
v 0.00748710 0.00085845 0.01650000
v 0.00743668 0.00082624 0.01650000
v 0.00738828 0.00079107 0.01650000
v 0.00734206 0.00075307 0.01650000
v 0.00729820 0.00071238 0.01650000
v 0.00725686 0.00066913 0.01650000
v 0.00721817 0.00062349 0.01650000
v 0.00718228 0.00057562 0.01650000
v 0.00714932 0.00052568 0.01650000
v 0.00711940 0.00047387 0.01650000
v 0.00709264 0.00042036 0.01650000
v 0.00706913 0.00036534 0.01650000
v 0.00704894 0.00030902 0.01650000
v 0.00703217 0.00025159 0.01650000
v 0.00701885 0.00019326 0.01650000
v 0.00700905 0.00013423 0.01650000
v 0.00700280 0.00007473 0.01650000
v 0.00700011 0.00001496 0.01650000
v 0.00700101 -0.00004486 0.01650000
v 0.00700548 -0.00010453 0.01650000
v 0.00701351 -0.00016382 0.01650000
v 0.00702507 -0.00022252 0.01650000
v 0.00704012 -0.00028043 0.01650000
v 0.00705861 -0.00033733 0.01650000
v 0.00708047 -0.00039303 0.01650000
v 0.00710562 -0.00044731 0.01650000
v 0.00713397 -0.00050000 0.01650000
v 0.00716543 -0.00055090 0.01650000
v 0.00719987 -0.00059982 0.01650000
v 0.00723717 -0.00064660 0.01650000
v 0.00727721 -0.00069106 0.01650000
v 0.00731983 -0.00073305 0.01650000
v 0.00736488 -0.00077242 0.01650000
v 0.00741221 -0.00080902 0.01650000
v 0.00746165 -0.00084272 0.01650000
v 0.00751301 -0.00087341 0.01650000
v 0.00756612 -0.00090097 0.01650000
v 0.00762077 -0.00092530 0.01650000
v 0.00767679 -0.00094633 0.01650000
v 0.00773396 -0.00096396 0.01650000
v 0.00779209 -0.00097815 0.01650000
v 0.00785096 -0.00098883 0.01650000
v 0.00791036 -0.00099597 0.01650000
v 0.00797008 -0.00099955 0.01650000
v 0.00802992 -0.00099955 0.01650000
v 0.00808964 -0.00099597 0.01650000
v 0.00814904 -0.00098883 0.01650000
v 0.00820791 -0.00097815 0.01650000
v 0.00826604 -0.00096396 0.01650000
v 0.00832321 -0.00094633 0.01650000
v 0.00837923 -0.00092530 0.01650000
v 0.00843388 -0.00090097 0.01650000
v 0.00848699 -0.00087341 0.01650000
v 0.00853835 -0.00084272 0.01650000
v 0.00858779 -0.00080902 0.01650000
v 0.00863512 -0.00077242 0.01650000
v 0.00868017 -0.00073305 0.01650000
v 0.00872279 -0.00069106 0.01650000
v 0.00876283 -0.00064660 0.01650000
v 0.00880013 -0.00059982 0.01650000
v 0.00883457 -0.00055090 0.01650000
v 0.00886603 -0.00050000 0.01650000
v 0.00889438 -0.00044731 0.01650000
v 0.00891953 -0.00039303 0.01650000
v 0.00894139 -0.00033733 0.01650000
v 0.00895988 -0.00028043 0.01650000
v 0.00897493 -0.00022252 0.01650000
v 0.00898649 -0.00016382 0.01650000
v 0.00899452 -0.00010453 0.01650000
v 0.00899899 -0.00004486 0.01650000
v 0.00899989 0.00001496 0.01650000
v 0.00899720 0.00007473 0.01650000
v 0.00899095 0.00013423 0.01650000
v 0.00898115 0.00019326 0.01650000
v 0.00896783 0.00025159 0.01650000
v 0.00895106 0.00030902 0.01650000
v 0.00893087 0.00036534 0.01650000
v 0.00890736 0.00042036 0.01650000
v 0.00888060 0.00047387 0.01650000
v 0.00885068 0.00052568 0.01650000
v 0.00881772 0.00057562 0.01650000
v 0.00878183 0.00062349 0.01650000
v 0.00874314 0.00066913 0.01650000
v 0.00870180 0.00071238 0.01650000
v 0.00865794 0.00075307 0.01650000
v 0.00861172 0.00079107 0.01650000
v 0.00856332 0.00082624 0.01650000
v 0.00851290 0.00085845 0.01650000
v 0.00846064 0.00088759 0.01650000
v 0.00840674 0.00091355 0.01650000
v 0.00835137 0.00093623 0.01650000
v 0.00829476 0.00095557 0.01650000
v 0.00823708 0.00097149 0.01650000
v 0.00817856 0.00098393 0.01650000
v 0.00811939 0.00099285 0.01650000
v 0.00805980 0.00099821 0.01650000
f 118 117 222
f 222 117 116
f 146 145 250
f 228 123 122
f 223 118 222
f 119 118 223
f 110 109 215
f 109 214 215
f 114 113 218
f 218 112 217
f 218 113 112
f 114 220 115
f 115 220 116
f 222 116 221
f 116 220 221
f 195 194 299
f 152 151 256
f 256 257 152
f 256 151 150
f 152 257 153
f 119 225 120
f 228 122 227
f 135 239 240
f 106 210 211
f 128 232 233
f 127 232 128
f 224 225 119
f 119 223 224
f 108 212 213
f 213 109 108
f 213 214 109
f 219 220 114
f 114 218 219
f 197 302 198
f 300 195 299
f 198 304 199
f 199 304 305
f 305 200 199
f 201 200 305
f 310 205 309
f 144 249 250
f 250 145 144
f 248 249 144
f 144 143 248
f 136 240 241
f 135 240 136
f 154 260 155
f 155 260 156
f 158 157 262
f 262 157 156
f 154 153 259
f 259 260 154
f 274 169 273
f 163 268 164
f 265 266 161
f 265 159 264
f 161 266 267
f 267 268 163
f 198 302 303
f 303 304 198
f 294 295 189
f 189 295 190
f 229 230 125
f 229 123 228
f 123 229 124
f 124 229 125
f 235 131 130
f 236 131 235
f 132 131 236
f 237 132 236
f 134 239 135
f 107 212 108
f 211 212 107
f 107 106 211
f 231 232 126
f 232 127 126
f 126 230 231
f 125 230 126
f 216 111 110
f 110 215 216
f 112 111 216
f 217 112 216
f 192 297 298
f 299 194 298
f 193 298 194
f 192 298 193
f 293 294 188
f 188 294 189
f 184 290 185
f 293 188 292
f 289 290 184
f 184 288 289
f 173 278 279
f 277 278 173
f 173 172 277
f 283 284 179
f 286 181 285
f 179 284 285
f 202 307 203
f 202 201 307
f 306 201 305
f 307 201 306
f 203 309 204
f 204 309 205
f 210 209 315
f 211 210 315
f 208 207 312
f 312 313 208
f 203 307 308
f 308 309 203
f 141 140 245
f 142 141 247
f 143 142 247
f 248 143 247
f 138 243 244
f 138 244 139
f 139 244 245
f 245 140 139
f 149 254 150
f 148 254 149
f 255 256 150
f 150 254 255
f 158 262 263
f 156 260 261
f 261 262 156
f 258 153 257
f 258 259 153
f 160 265 161
f 159 265 160
f 162 267 163
f 161 267 162
f 171 276 277
f 277 172 171
f 167 273 168
f 168 273 169
f 272 167 271
f 272 273 167
f 269 164 268
f 270 164 269
f 165 270 271
f 165 164 270
f 191 295 296
f 191 190 295
f 296 297 191
f 191 297 192
f 226 121 120
f 226 120 225
f 122 121 226
f 226 227 122
f 129 233 234
f 128 233 129
f 234 235 129
f 235 130 129
f 197 196 301
f 302 197 301
f 301 196 195
f 195 300 301
f 186 292 187
f 187 292 188
f 291 292 186
f 186 185 291
f 291 185 290
f 174 173 279
f 279 280 174
f 280 175 174
f 178 283 179
f 282 283 178
f 178 177 282
f 280 281 176
f 176 175 280
f 176 281 282
f 282 177 176
f 288 182 287
f 287 182 181
f 287 181 286
f 183 288 184
f 183 182 288
f 179 285 180
f 180 285 181
f 314 315 209
f 314 209 208
f 208 313 314
f 246 141 245
f 246 247 141
f 242 136 241
f 242 137 136
f 242 243 138
f 138 137 242
f 251 146 250
f 147 146 251
f 251 252 147
f 253 148 147
f 147 252 253
f 253 254 148
f 274 275 170
f 170 169 274
f 275 276 170
f 276 171 170
f 271 167 166
f 166 165 271
f 237 238 133
f 133 132 237
f 133 238 239
f 239 134 133
f 207 206 311
f 311 312 207
f 311 206 205
f 311 205 310
f 122 18 17
f 123 18 122
f 5 109 110
f 5 4 109
f 119 14 13
f 13 118 119
f 90 89 195
f 195 89 194
f 120 15 14
f 120 14 119
f 109 4 3
f 108 109 3
f 1 105 106
f 106 105 210
f 23 22 127
f 128 23 127
f 12 116 117
f 11 116 12
f 118 13 12
f 117 118 12
f 111 5 110
f 111 6 5
f 7 6 111
f 111 112 7
f 7 112 8
f 112 113 8
f 114 9 8
f 8 113 114
f 10 116 11
f 10 115 116
f 10 9 114
f 114 115 10
f 93 92 197
f 198 93 197
f 199 94 93
f 199 93 198
f 199 95 94
f 200 95 199
f 96 95 201
f 201 95 200
f 103 102 207
f 208 103 207
f 40 39 144
f 145 40 144
f 39 38 144
f 144 38 143
f 142 38 37
f 143 38 142
f 46 151 152
f 152 47 46
f 150 151 46
f 46 45 150
f 155 51 50
f 156 51 155
f 49 155 50
f 154 155 49
f 53 158 54
f 158 159 54
f 190 85 84
f 190 84 189
f 17 16 121
f 121 122 17
f 16 15 121
f 15 120 121
f 124 18 123
f 124 19 18
f 20 19 124
f 124 125 20
f 26 132 27
f 26 131 132
f 130 26 25
f 131 26 130
f 30 29 134
f 135 30 134
f 107 3 2
f 108 3 107
f 107 2 1
f 1 106 107
f 196 91 90
f 90 195 196
f 196 92 91
f 196 197 92
f 194 89 193
f 89 88 193
f 193 88 87
f 87 192 193
f 84 83 188
f 189 84 188
f 185 81 80
f 186 81 185
f 173 68 67
f 173 67 172
f 76 182 77
f 181 182 76
f 79 185 80
f 184 185 79
f 204 99 98
f 204 98 203
f 100 99 204
f 204 205 100
f 104 103 208
f 208 209 104
f 210 105 104
f 104 209 210
f 31 30 135
f 135 136 31
f 35 34 139
f 140 35 139
f 139 34 33
f 33 138 139
f 150 45 149
f 45 44 149
f 52 158 53
f 52 157 158
f 52 51 156
f 156 157 52
f 48 47 152
f 152 153 48
f 154 49 48
f 48 153 154
f 263 159 158
f 264 159 263
f 67 66 171
f 172 67 171
f 59 165 60
f 164 165 59
f 59 58 163
f 163 164 59
f 129 24 23
f 129 23 128
f 25 24 129
f 129 130 25
f 20 125 21
f 125 126 21
f 21 127 22
f 21 126 127
f 82 81 187
f 187 81 186
f 187 83 82
f 187 188 83
f 70 69 174
f 174 175 70
f 174 69 68
f 68 173 174
f 74 73 178
f 178 179 74
f 178 73 72
f 72 177 178
f 176 71 70
f 70 175 176
f 72 71 176
f 176 177 72
f 183 79 78
f 184 79 183
f 183 78 77
f 77 182 183
f 96 201 97
f 201 202 97
f 203 98 97
f 97 202 203
f 100 205 206
f 206 101 100
f 206 207 102
f 102 101 206
f 36 142 37
f 36 141 142
f 36 35 140
f 140 141 36
f 32 138 33
f 32 137 138
f 32 31 136
f 136 137 32
f 43 149 44
f 148 149 43
f 147 148 43
f 43 42 147
f 41 40 145
f 145 146 41
f 147 42 41
f 41 146 147
f 161 56 55
f 55 160 161
f 55 54 159
f 159 160 55
f 57 56 161
f 161 162 57
f 163 58 57
f 57 162 163
f 170 65 64
f 64 169 170
f 170 66 65
f 170 171 66
f 63 169 64
f 63 168 169
f 63 62 167
f 167 168 63
f 62 61 166
f 167 62 166
f 166 61 60
f 60 165 166
f 86 192 87
f 86 191 192
f 85 190 86
f 190 191 86
f 27 132 133
f 133 28 27
f 133 134 29
f 29 28 133
f 47 48 75
f 75 49 50
f 93 94 75
f 75 36 37
f 75 13 14
f 75 39 40
f 103 104 75
f 75 3 4
f 11 12 75
f 75 63 64
f 75 26 27
f 14 15 75
f 27 28 75
f 75 92 93
f 80 81 75
f 75 105 1
f 67 68 75
f 75 46 47
f 75 16 17
f 60 61 75
f 23 24 75
f 1 2 75
f 90 91 75
f 75 10 11
f 75 86 87
f 75 95 96
f 75 99 100
f 37 38 75
f 75 83 84
f 75 66 67
f 75 15 16
f 17 18 75
f 75 19 20
f 100 101 75
f 7 8 75
f 75 59 60
f 4 5 75
f 75 6 7
f 91 92 75
f 75 89 90
f 87 88 75
f 70 71 75
f 20 21 75
f 75 79 80
f 96 97 75
f 33 34 75
f 75 73 74
f 75 43 44
f 53 54 75
f 64 65 75
f 75 22 23
f 18 19 75
f 75 24 25
f 75 29 30
f 2 3 75
f 5 6 75
f 75 12 13
f 75 8 9
f 9 10 75
f 84 85 75
f 75 88 89
f 82 83 75
f 75 69 70
f 77 78 75
f 94 95 75
f 75 102 103
f 98 99 75
f 75 38 39
f 75 34 35
f 45 46 75
f 75 44 45
f 50 51 75
f 75 52 53
f 40 41 75
f 75 55 56
f 65 66 75
f 56 57 75
f 25 26 75
f 75 81 82
f 72 73 75
f 68 69 75
f 75 71 72
f 75 76 77
f 78 79 75
f 75 104 105
f 75 101 102
f 30 31 75
f 75 32 33
f 51 52 75
f 75 48 49
f 75 61 62
f 58 59 75
f 75 28 29
f 75 21 22
f 75 97 98
f 35 36 75
f 31 32 75
f 42 43 75
f 75 41 42
f 54 55 75
f 75 57 58
f 62 63 75
f 85 86 75
f 74 179 75
f 179 180 75
f 181 76 75
f 75 180 181
f 311 238 237
f 311 218 217
f 271 270 311
f 299 298 311
f 290 289 311
f 305 304 311
f 250 249 311
f 222 221 311
f 311 258 257
f 310 309 311
f 228 227 311
f 311 223 222
f 286 285 311
f 311 291 290
f 268 267 311
f 311 235 234
f 311 308 307
f 311 294 293
f 311 303 302
f 311 212 211
f 237 236 311
f 311 306 305
f 311 246 245
f 256 255 311
f 311 261 260
f 311 278 277
f 217 216 311
f 220 219 311
f 311 229 228
f 241 240 311
f 311 249 248
f 311 232 231
f 234 233 311
f 225 224 311
f 311 215 214
f 214 213 311
f 311 221 220
f 311 300 299
f 211 315 311
f 311 283 282
f 257 256 311
f 311 242 241
f 311 272 271
f 311 265 264
f 311 275 274
f 279 278 311
f 311 280 279
f 277 276 311
f 296 295 311
f 231 230 311
f 311 269 268
f 311 240 239
f 239 238 311
f 311 233 232
f 311 224 223
f 311 213 212
f 311 219 218
f 311 297 296
f 311 226 225
f 293 292 311
f 282 281 311
f 254 253 311
f 311 314 313
f 245 244 311
f 264 263 311
f 260 259 311
f 274 273 311
f 266 265 311
f 311 267 266
f 311 276 275
f 304 303 311
f 295 294 311
f 230 229 311
f 311 236 235
f 311 216 215
f 311 298 297
f 302 301 311
f 311 289 288
f 311 281 280
f 284 283 311
f 311 285 284
f 307 306 311
f 311 287 286
f 313 312 311
f 309 308 311
f 248 247 311
f 311 244 243
f 311 255 254
f 311 251 250
f 311 263 262
f 262 261 311
f 259 258 311
f 273 272 311
f 270 269 311
f 227 226 311
f 311 301 300
f 292 291 311
f 288 287 311
f 315 314 311
f 247 246 311
f 243 242 311
f 252 251 311
f 311 253 252

