# https://github.com/mikedh/trimesh
v 0.00000000 0.01630940 0.02070000
v 0.00000000 0.01630940 0.02230000
v -0.00200000 0.01515470 0.02230000
v -0.00200000 0.01515470 0.02070000
v 0.00200000 0.01515470 0.02070000
v 0.00200000 0.01515470 0.02230000
v -0.00200000 0.01284530 0.02230000
v -0.00200000 0.01284530 0.02070000
v 0.00000000 0.01169060 0.02070000
v 0.00200000 0.01284530 0.02070000
v 0.00000000 0.01169060 0.02230000
v 0.00200000 0.01284530 0.02230000
f 10 11 9
f 12 11 10
f 2 4 3
f 1 4 2
f 8 1 5
f 5 10 8
f 8 4 1
f 8 10 9
f 12 10 6
f 6 10 5
f 5 1 6
f 1 2 6
f 7 11 12
f 12 6 7
f 7 2 3
f 7 6 2
f 3 4 7
f 4 8 7
f 9 11 7
f 7 8 9

