# https://github.com/mikedh/trimesh
v 0.01100000 0.06600000 0.03775000
v 0.01099463 0.06617941 0.03775000
v 0.01097854 0.06635818 0.03775000
v 0.01095179 0.06653567 0.03775000
v 0.01091447 0.06671124 0.03775000
v 0.01086672 0.06688427 0.03775000
v 0.01080870 0.06705412 0.03775000
v 0.01074064 0.06722021 0.03775000
v 0.01066276 0.06738193 0.03775000
v 0.01057535 0.06753870 0.03775000
v 0.01047872 0.06768996 0.03775000
v 0.01037321 0.06783517 0.03775000
v 0.01025921 0.06797382 0.03775000
v 0.01013713 0.06810539 0.03775000
v 0.01000739 0.06822943 0.03775000
v 0.00987047 0.06834549 0.03775000
v 0.00972685 0.06845316 0.03775000
v 0.00957705 0.06855204 0.03775000
v 0.00942161 0.06864179 0.03775000
v 0.00926107 0.06872208 0.03775000
v 0.00909602 0.06879262 0.03775000
v 0.00892705 0.06885317 0.03775000
v 0.00875476 0.06890350 0.03775000
v 0.00857977 0.06894345 0.03775000
v 0.00840270 0.06897285 0.03775000
v 0.00822419 0.06899161 0.03775000
v 0.00804488 0.06899966 0.03775000
v 0.00786541 0.06899698 0.03775000
v 0.00768641 0.06898357 0.03775000
v 0.00750855 0.06895947 0.03775000
v 0.00733244 0.06892478 0.03775000
v 0.00715872 0.06887963 0.03775000
v 0.00698801 0.06882416 0.03775000
v 0.00682092 0.06875858 0.03775000
v 0.00665806 0.06868313 0.03775000
v 0.00650000 0.06859808 0.03775000
v 0.00634731 0.06850372 0.03775000
v 0.00620053 0.06840040 0.03775000
v 0.00606020 0.06828849 0.03775000
v 0.00592681 0.06816838 0.03775000
v 0.00580084 0.06804052 0.03775000
v 0.00568275 0.06790535 0.03775000
v 0.00557295 0.06776336 0.03775000
v 0.00547184 0.06761505 0.03775000
v 0.00537978 0.06746097 0.03775000
v 0.00529709 0.06730165 0.03775000
v 0.00522409 0.06713768 0.03775000
v 0.00516102 0.06696963 0.03775000
v 0.00510811 0.06679811 0.03775000
v 0.00506556 0.06662374 0.03775000
v 0.00503351 0.06644713 0.03775000
v 0.00501208 0.06626892 0.03775000
v 0.00500134 0.06608975 0.03775000
v 0.00500134 0.06591025 0.03775000
v 0.00501208 0.06573108 0.03775000
v 0.00503351 0.06555287 0.03775000
v 0.00506556 0.06537626 0.03775000
v 0.00510811 0.06520189 0.03775000
v 0.00516102 0.06503037 0.03775000
v 0.00522409 0.06486232 0.03775000
v 0.00529709 0.06469835 0.03775000
v 0.00537978 0.06453903 0.03775000
v 0.00547184 0.06438495 0.03775000
v 0.00557295 0.06423664 0.03775000
v 0.00568275 0.06409465 0.03775000
v 0.00580084 0.06395948 0.03775000
v 0.00592681 0.06383162 0.03775000
v 0.00606020 0.06371151 0.03775000
v 0.00620053 0.06359960 0.03775000
v 0.00634731 0.06349628 0.03775000
v 0.00650000 0.06340192 0.03775000
v 0.00665806 0.06331687 0.03775000
v 0.00682092 0.06324142 0.03775000
v 0.00698801 0.06317584 0.03775000
v 0.00715872 0.06312037 0.03775000
v 0.00733244 0.06307522 0.03775000
v 0.00750855 0.06304053 0.03775000
v 0.00768641 0.06301643 0.03775000
v 0.00786541 0.06300302 0.03775000
v 0.00804488 0.06300034 0.03775000
v 0.00822419 0.06300839 0.03775000
v 0.00840270 0.06302715 0.03775000
v 0.00857977 0.06305655 0.03775000
v 0.00875476 0.06309650 0.03775000
v 0.00892705 0.06314683 0.03775000
v 0.00909602 0.06320738 0.03775000
v 0.00926107 0.06327792 0.03775000
v 0.00942161 0.06335821 0.03775000
v 0.00957705 0.06344796 0.03775000
v 0.00972685 0.06354684 0.03775000
v 0.00987047 0.06365451 0.03775000
v 0.01000739 0.06377057 0.03775000
v 0.01013713 0.06389461 0.03775000
v 0.01025921 0.06402618 0.03775000
v 0.01037321 0.06416483 0.03775000
v 0.01047872 0.06431004 0.03775000
v 0.01057535 0.06446130 0.03775000
v 0.01066276 0.06461807 0.03775000
v 0.01074064 0.06477979 0.03775000
v 0.01080870 0.06494588 0.03775000
v 0.01086672 0.06511573 0.03775000
v 0.01091447 0.06528876 0.03775000
v 0.01095179 0.06546433 0.03775000
v 0.01097854 0.06564182 0.03775000
v 0.01099463 0.06582059 0.03775000
v 0.01100000 0.06600000 0.03725000
v 0.01099463 0.06617941 0.03725000
v 0.01097854 0.06635818 0.03725000
v 0.01095179 0.06653567 0.03725000
v 0.01091447 0.06671124 0.03725000
v 0.01086672 0.06688427 0.03725000
v 0.01080870 0.06705412 0.03725000
v 0.01074064 0.06722021 0.03725000
v 0.01066276 0.06738193 0.03725000
v 0.01057535 0.06753870 0.03725000
v 0.01047872 0.06768996 0.03725000
v 0.01037321 0.06783517 0.03725000
v 0.01025921 0.06797382 0.03725000
v 0.01013713 0.06810539 0.03725000
v 0.01000739 0.06822943 0.03725000
v 0.00987047 0.06834549 0.03725000
v 0.00972685 0.06845316 0.03725000
v 0.00957705 0.06855204 0.03725000
v 0.00942161 0.06864179 0.03725000
v 0.00926107 0.06872208 0.03725000
v 0.00909602 0.06879262 0.03725000
v 0.00892705 0.06885317 0.03725000
v 0.00875476 0.06890350 0.03725000
v 0.00857977 0.06894345 0.03725000
v 0.00840270 0.06897285 0.03725000
v 0.00822419 0.06899161 0.03725000
v 0.00804488 0.06899966 0.03725000
v 0.00786541 0.06899698 0.03725000
v 0.00768641 0.06898357 0.03725000
v 0.00750855 0.06895947 0.03725000
v 0.00733244 0.06892478 0.03725000
v 0.00715872 0.06887963 0.03725000
v 0.00698801 0.06882416 0.03725000
v 0.00682092 0.06875858 0.03725000
v 0.00665806 0.06868313 0.03725000
v 0.00650000 0.06859808 0.03725000
v 0.00634731 0.06850372 0.03725000
v 0.00620053 0.06840040 0.03725000
v 0.00606020 0.06828849 0.03725000
v 0.00592681 0.06816838 0.03725000
v 0.00580084 0.06804052 0.03725000
v 0.00568275 0.06790535 0.03725000
v 0.00557295 0.06776336 0.03725000
v 0.00547184 0.06761505 0.03725000
v 0.00537978 0.06746097 0.03725000
v 0.00529709 0.06730165 0.03725000
v 0.00522409 0.06713768 0.03725000
v 0.00516102 0.06696963 0.03725000
v 0.00510811 0.06679811 0.03725000
v 0.00506556 0.06662374 0.03725000
v 0.00503351 0.06644713 0.03725000
v 0.00501208 0.06626892 0.03725000
v 0.00500134 0.06608975 0.03725000
v 0.00500134 0.06591025 0.03725000
v 0.00501208 0.06573108 0.03725000
v 0.00503351 0.06555287 0.03725000
v 0.00506556 0.06537626 0.03725000
v 0.00510811 0.06520189 0.03725000
v 0.00516102 0.06503037 0.03725000
v 0.00522409 0.06486232 0.03725000
v 0.00529709 0.06469835 0.03725000
v 0.00537978 0.06453903 0.03725000
v 0.00547184 0.06438495 0.03725000
v 0.00557295 0.06423664 0.03725000
v 0.00568275 0.06409465 0.03725000
v 0.00580084 0.06395948 0.03725000
v 0.00592681 0.06383162 0.03725000
v 0.00606020 0.06371151 0.03725000
v 0.00620053 0.06359960 0.03725000
v 0.00634731 0.06349628 0.03725000
v 0.00650000 0.06340192 0.03725000
v 0.00665806 0.06331687 0.03725000
v 0.00682092 0.06324142 0.03725000
v 0.00698801 0.06317584 0.03725000
v 0.00715872 0.06312037 0.03725000
v 0.00733244 0.06307522 0.03725000
v 0.00750855 0.06304053 0.03725000
v 0.00768641 0.06301643 0.03725000
v 0.00786541 0.06300302 0.03725000
v 0.00804488 0.06300034 0.03725000
v 0.00822419 0.06300839 0.03725000
v 0.00840270 0.06302715 0.03725000
v 0.00857977 0.06305655 0.03725000
v 0.00875476 0.06309650 0.03725000
v 0.00892705 0.06314683 0.03725000
v 0.00909602 0.06320738 0.03725000
v 0.00926107 0.06327792 0.03725000
v 0.00942161 0.06335821 0.03725000
v 0.00957705 0.06344796 0.03725000
v 0.00972685 0.06354684 0.03725000
v 0.00987047 0.06365451 0.03725000
v 0.01000739 0.06377057 0.03725000
v 0.01013713 0.06389461 0.03725000
v 0.01025921 0.06402618 0.03725000
v 0.01037321 0.06416483 0.03725000
v 0.01047872 0.06431004 0.03725000
v 0.01057535 0.06446130 0.03725000
v 0.01066276 0.06461807 0.03725000
v 0.01074064 0.06477979 0.03725000
v 0.01080870 0.06494588 0.03725000
v 0.01086672 0.06511573 0.03725000
v 0.01091447 0.06528876 0.03725000
v 0.01095179 0.06546433 0.03725000
v 0.01097854 0.06564182 0.03725000
v 0.01099463 0.06582059 0.03725000
f 64 168 169
f 63 168 64
f 165 61 60
f 166 61 165
f 60 59 165
f 165 59 164
f 1 105 210
f 210 106 1
f 105 104 210
f 210 104 209
f 208 104 103
f 209 104 208
f 176 72 71
f 177 72 176
f 176 71 70
f 70 175 176
f 67 66 171
f 172 67 171
f 107 2 1
f 1 106 107
f 107 3 2
f 108 3 107
f 4 3 109
f 109 3 108
f 55 54 160
f 160 54 159
f 160 56 55
f 161 56 160
f 57 56 162
f 162 56 161
f 167 62 61
f 167 61 166
f 63 62 167
f 167 168 63
f 36 35 141
f 141 35 140
f 37 36 141
f 141 142 37
f 97 96 201
f 202 97 201
f 201 96 95
f 95 200 201
f 203 98 97
f 203 97 202
f 99 203 204
f 98 203 99
f 205 101 100
f 206 101 205
f 100 99 205
f 205 99 204
f 90 89 195
f 195 89 194
f 190 85 84
f 84 189 190
f 183 78 77
f 183 77 182
f 79 78 183
f 183 184 79
f 80 79 185
f 79 184 185
f 179 180 74
f 74 180 75
f 73 72 178
f 178 72 177
f 178 74 73
f 179 74 178
f 69 174 175
f 69 175 70
f 173 68 67
f 173 67 172
f 173 69 68
f 174 69 173
f 65 64 170
f 170 64 169
f 170 66 65
f 170 171 66
f 116 11 10
f 116 10 115
f 12 11 116
f 116 117 12
f 10 9 114
f 115 10 114
f 113 114 8
f 8 114 9
f 7 6 112
f 112 6 111
f 112 8 7
f 113 8 112
f 122 18 17
f 123 18 122
f 47 151 152
f 46 151 47
f 23 22 127
f 127 128 23
f 30 29 134
f 135 30 134
f 134 29 28
f 28 133 134
f 132 28 27
f 132 133 28
f 33 137 138
f 32 137 33
f 139 35 34
f 140 35 139
f 34 33 139
f 139 33 138
f 142 143 38
f 37 142 38
f 40 39 144
f 145 40 144
f 39 38 144
f 144 38 143
f 207 102 101
f 207 101 206
f 207 208 103
f 103 102 207
f 94 200 95
f 94 199 200
f 93 92 198
f 198 92 197
f 198 94 93
f 199 94 198
f 196 92 91
f 197 92 196
f 196 91 90
f 90 195 196
f 87 86 191
f 192 87 191
f 191 86 85
f 85 190 191
f 83 189 84
f 83 188 189
f 187 188 83
f 83 82 187
f 82 81 186
f 187 82 186
f 186 81 80
f 80 185 186
f 77 76 181
f 182 77 181
f 181 76 75
f 75 180 181
f 6 5 110
f 111 6 110
f 4 109 110
f 110 5 4
f 12 117 13
f 117 118 13
f 119 15 14
f 120 15 119
f 14 13 119
f 119 13 118
f 16 15 121
f 121 15 120
f 17 16 121
f 121 122 17
f 146 41 40
f 146 40 145
f 146 42 41
f 146 147 42
f 148 44 43
f 149 44 148
f 43 42 148
f 42 147 148
f 150 45 44
f 150 44 149
f 46 45 150
f 150 151 46
f 158 54 53
f 159 54 158
f 53 52 158
f 158 52 157
f 49 154 155
f 49 155 50
f 48 47 153
f 153 47 152
f 153 49 48
f 154 49 153
f 164 59 163
f 59 58 163
f 57 162 163
f 163 58 57
f 126 21 20
f 126 20 125
f 22 21 126
f 126 127 22
f 23 128 24
f 128 129 24
f 24 129 130
f 130 25 24
f 131 26 25
f 131 25 130
f 27 26 131
f 131 132 27
f 136 31 30
f 136 30 135
f 32 31 136
f 136 137 32
f 192 193 88
f 88 87 192
f 194 89 88
f 88 193 194
f 19 124 125
f 125 20 19
f 19 18 123
f 123 124 19
f 156 167 166
f 111 110 156
f 156 207 206
f 192 191 156
f 172 171 156
f 123 122 156
f 156 126 125
f 156 198 197
f 177 176 156
f 166 165 156
f 145 144 156
f 156 141 140
f 156 188 187
f 182 181 156
f 156 170 169
f 152 151 156
f 156 121 120
f 156 153 152
f 130 129 156
f 106 210 156
f 156 195 194
f 156 178 177
f 156 107 106
f 120 119 156
f 156 160 159
f 169 168 156
f 156 165 164
f 159 158 156
f 140 139 156
f 156 210 209
f 209 208 156
f 202 201 156
f 156 203 202
f 206 205 156
f 197 196 156
f 156 183 182
f 187 186 156
f 175 174 156
f 156 176 175
f 156 173 172
f 108 107 156
f 156 109 108
f 156 116 115
f 115 114 156
f 156 112 111
f 149 148 156
f 156 150 149
f 161 160 156
f 156 162 161
f 168 167 156
f 164 163 156
f 135 134 156
f 156 131 130
f 156 143 142
f 142 141 156
f 156 201 200
f 200 199 156
f 204 203 156
f 156 205 204
f 156 193 192
f 156 190 189
f 189 188 156
f 184 183 156
f 156 185 184
f 156 180 179
f 179 178 156
f 174 173 156
f 171 170 156
f 117 116 156
f 156 118 117
f 156 114 113
f 113 112 156
f 125 124 156
f 156 146 145
f 156 136 135
f 155 154 156
f 128 127 156
f 156 129 128
f 156 134 133
f 133 132 156
f 138 137 156
f 156 139 138
f 156 144 143
f 208 207 156
f 199 198 156
f 194 193 156
f 156 196 195
f 156 191 190
f 156 186 185
f 156 181 180
f 156 110 109
f 156 119 118
f 156 124 123
f 122 121 156
f 147 146 156
f 156 148 147
f 151 150 156
f 156 158 157
f 154 153 156
f 156 163 162
f 127 126 156
f 132 131 156
f 137 136 156
f 51 76 77
f 51 86 87
f 67 68 51
f 60 61 51
f 20 21 51
f 51 13 14
f 51 105 1
f 51 56 57
f 51 99 100
f 1 2 51
f 40 41 51
f 51 96 97
f 51 102 103
f 51 39 40
f 80 81 51
f 10 11 51
f 51 66 67
f 51 6 7
f 63 64 51
f 4 5 51
f 30 31 51
f 37 38 51
f 100 101 51
f 51 79 80
f 51 62 63
f 73 74 51
f 51 72 73
f 51 83 84
f 51 42 43
f 51 26 27
f 51 45 46
f 53 54 51
f 51 59 60
f 27 28 51
f 103 104 51
f 97 98 51
f 51 92 93
f 34 35 51
f 84 85 51
f 23 24 51
f 77 78 51
f 70 71 51
f 65 66 51
f 51 3 4
f 51 9 10
f 14 15 51
f 51 69 70
f 7 8 51
f 87 88 51
f 51 33 34
f 51 54 55
f 61 62 51
f 51 64 65
f 46 47 51
f 51 22 23
f 57 58 51
f 51 29 30
f 51 36 37
f 51 104 105
f 95 96 51
f 90 91 51
f 85 86 51
f 93 94 51
f 51 78 79
f 75 76 51
f 71 72 51
f 2 3 51
f 51 11 12
f 51 16 17
f 41 42 51
f 43 44 51
f 51 52 53
f 55 56 51
f 51 21 22
f 51 49 50
f 28 29 51
f 51 31 32
f 51 35 36
f 101 102 51
f 98 99 51
f 91 92 51
f 51 89 90
f 51 81 82
f 51 74 75
f 68 69 51
f 51 5 6
f 51 8 9
f 51 15 16
f 17 18 51
f 44 45 51
f 51 47 48
f 51 58 59
f 25 26 51
f 32 33 51
f 51 38 39
f 51 94 95
f 82 83 51
f 12 13 51
f 51 19 20
f 48 49 51
f 51 24 25
f 51 88 89
f 18 19 51
f 50 155 51
f 155 156 51
f 157 52 51
f 51 156 157

