v 0.0296754264805 0.0574768950563 0.0964202142768
v 0.0296754264805 0.0568557293481 0.0987384362599
v 0.0280877132403 0.0595120253704 0.0994501886339
v 0.0280877132403 0.0601331910786 0.0971319666509
v 0.0280877132403 0.054820599034 0.0957084619028
v 0.0280877132403 0.0541994333258 0.0980266838859
v 0.0296754264805 0.0568557293481 0.0987384362599
v 0.0296754264805 0.0574768950563 0.0964202142768
v 0.0280877132403 0.0601331910786 0.0971319666509
v 0.0280877132403 0.0595120253704 0.0994501886339
v 0.0249122867597 0.0595120253704 0.0994501886339
v 0.0249122867597 0.0601331910786 0.0971319666509
v 0.0296754264805 0.0574768950563 0.0964202142768
v 0.0280877132403 0.0601331910786 0.0971319666509
v 0.0249122867597 0.0601331910786 0.0971319666509
v 0.0233245735195 0.0574768950563 0.0964202142768
v 0.0249122867597 0.054820599034 0.0957084619028
v 0.0280877132403 0.054820599034 0.0957084619028
v 0.028 0.0574768950563 0.0964202142768
v 0.0279973151947 0.0575635446215 0.0964434319578
v 0.0279892703895 0.0576498840038 0.0964665665256
v 0.0279758943829 0.0577356041305 0.0964895351643
v 0.0279572350574 0.0578203981459 0.0965122556523
v 0.0279333592087 0.0579039625094 0.096534646656
v 0.027904352306 0.0579859980822 0.0965566280215
v 0.0278703181865 0.0580662111984 0.0965781210612
v 0.0278313786835 0.0581443147157 0.0965990488356
v 0.0277876731904 0.0582200290438 0.0966193364286
v 0.0277393581615 0.0582930831451 0.0966389112161
v 0.027686606552 0.0583632155049 0.0966577031253
v 0.027629607199 0.0584301750676 0.096675644886
v 0.0275685641454 0.0584937221352 0.0966926722714
v 0.0275036959095 0.0585536292257 0.096708724328
v 0.0274352347028 0.0586096818874 0.0967237435934
v 0.0273634255985 0.0586616794662 0.0967376763027
v 0.0272885256547 0.0587094358244 0.0967504725803
v 0.0272108029937 0.0587527800064 0.0967620866188
v 0.0271305358425 0.0587915568515 0.0967724768432
v 0.0270480115365 0.0588256275486 0.0967816060589
v 0.0269635254916 0.0588548701333 0.0967894415859
v 0.0268773801456 0.058879179925 0.0967959553749
v 0.0267898838767 0.0588984699007 0.0968011241084
v 0.0267013498987 0.0589126710075 0.0968049292834
v 0.0266120951404 0.058921732409 0.0968073572787
v 0.0265224391105 0.0589256216677 0.0968083994024
v 0.0264327027545 0.0589243248612 0.0968080519241
v 0.0263432073051 0.0589178466316 0.0968063160878
v 0.0262542731329 0.0589062101694 0.0968031981071
v 0.0261662185991 0.05888945713 0.0967987091437
v 0.026079358916 0.058867647485 0.096792865267
v 0.0259940050189 0.0588408593073 0.0967856873964
v 0.0259104624525 0.0588091884916 0.0967772012269
v 0.0258290302775 0.0587727484111 0.0967674371367
v 0.02575 0.0587316695119 0.0967564300789
v 0.0256736545278 0.0586860988459 0.0967442194557
v 0.025600267158 0.0586361995441 0.0967308489781
v 0.0255301005982 0.0585821502331 0.0967163665089
v 0.0254634060265 0.0585241443954 0.0967008238915
v 0.0254004221923 0.0584623896769 0.0966842767646
v 0.0253413745612 0.0583971071435 0.0966667843624
v 0.0252864745084 0.0583285304896 0.0966484093034
v 0.025235918562 0.0582569052018 0.0966292173654
v 0.0251898876991 0.0581824876802 0.0966092772506
v 0.0251485466981 0.0581055443201 0.0965886603394
v 0.0251120435493 0.0580263505589 0.096567440435
v 0.0250805089243 0.0579451898895 0.0965456934992
v 0.025054055709 0.0578623528461 0.0965234973803
v 0.0250327785989 0.0577781359639 0.0965009315347
v 0.0250167537607 0.0576928407175 0.0964780767423
v 0.025006038559 0.0576067724416 0.0964550148173
v 0.0250006713516 0.0575202392384 0.0964318283154
v 0.0250006713516 0.0574335508742 0.0964086002382
v 0.025006038559 0.057347017671 0.0963854137363
v 0.0250167537607 0.0572609493952 0.0963623518113
v 0.0250327785989 0.0571756541487 0.0963394970189
v 0.025054055709 0.0570914372665 0.0963169311733
v 0.0250805089243 0.0570086002232 0.0962947350545
v 0.0251120435493 0.0569274395538 0.0962729881186
v 0.0251485466981 0.0568482457925 0.0962517682143
v 0.0251898876991 0.0567713024324 0.0962311513031
v 0.025235918562 0.0566968849108 0.0962112111882
v 0.0252864745084 0.0566252596231 0.0961920192502
v 0.0253413745612 0.0565566829692 0.0961736441912
v 0.0254004221923 0.0564914004357 0.0961561517891
v 0.0254634060265 0.0564296457172 0.0961396046621
v 0.0255301005982 0.0563716398795 0.0961240620448
v 0.025600267158 0.0563175905686 0.0961095795755
v 0.0256736545278 0.0562676912668 0.0960962090979
v 0.02575 0.0562221206007 0.0960839984748
v 0.0258290302775 0.0561810417015 0.0960729914169
v 0.0259104624525 0.0561446016211 0.0960632273268
v 0.0259940050189 0.0561129308053 0.0960547411573
v 0.026079358916 0.0560861426276 0.0960475632867
v 0.0261662185991 0.0560643329826 0.0960417194099
v 0.0262542731329 0.0560475799432 0.0960372304465
v 0.0263432073051 0.056035943481 0.0960341124659
v 0.0264327027545 0.0560294652514 0.0960323766295
v 0.0265224391105 0.0560281684449 0.0960320291512
v 0.0266120951404 0.0560320577037 0.096033071275
v 0.0267013498987 0.0560411191051 0.0960354992702
v 0.0267898838767 0.0560553202119 0.0960393044453
v 0.0268773801456 0.0560746101877 0.0960444731787
v 0.0269635254916 0.0560989199793 0.0960509869677
v 0.0270480115365 0.0561281625641 0.0960588224947
v 0.0271305358425 0.0561622332611 0.0960679517105
v 0.0272108029937 0.0562010101062 0.0960783419348
v 0.0272885256547 0.0562443542883 0.0960899559734
v 0.0273634255985 0.0562921106464 0.096102752251
v 0.0274352347028 0.0563441082252 0.0961166849602
v 0.0275036959095 0.0564001608869 0.0961317042257
v 0.0275685641454 0.0564600679775 0.0961477562822
v 0.027629607199 0.0565236150451 0.0961647836676
v 0.027686606552 0.0565905746077 0.0961827254284
v 0.0277393581615 0.0566607069675 0.0962015173375
v 0.0277876731904 0.0567337610688 0.096221092125
v 0.0278313786835 0.056809475397 0.0962413797181
v 0.0278703181865 0.0568875789142 0.0962623074925
v 0.027904352306 0.0569677920304 0.0962838005322
v 0.0279333592087 0.0570498276032 0.0963057818977
v 0.0279572350574 0.0571333919667 0.0963281729014
v 0.0279758943829 0.0572181859821 0.0963508933893
v 0.0279892703895 0.0573039061088 0.096373862028
v 0.0279973151947 0.0573902454911 0.0963969965958
v 0.0296754264805 0.0568557293481 0.0987384362599
v 0.0280877132403 0.0595120253704 0.0994501886339
v 0.0249122867597 0.0595120253704 0.0994501886339
v 0.0233245735195 0.0568557293481 0.0987384362599
v 0.0249122867597 0.0541994333258 0.0980266838859
v 0.0280877132403 0.0541994333258 0.0980266838859
v 0.028 0.0568557293481 0.0987384362599
v 0.0279973151947 0.0569423789133 0.0987616539409
v 0.0279892703895 0.0570287182956 0.0987847885087
v 0.0279758943829 0.0571144384223 0.0988077571474
v 0.0279572350574 0.0571992324377 0.0988304776354
v 0.0279333592087 0.0572827968012 0.0988528686391
v 0.027904352306 0.057364832374 0.0988748500046
v 0.0278703181865 0.0574450454901 0.0988963430443
v 0.0278313786835 0.0575231490074 0.0989172708187
v 0.0277876731904 0.0575988633356 0.0989375584117
v 0.0277393581615 0.0576719174369 0.0989571331992
v 0.027686606552 0.0577420497967 0.0989759251084
v 0.027629607199 0.0578090093593 0.0989938668691
v 0.0275685641454 0.0578725564269 0.0990108942545
v 0.0275036959095 0.0579324635175 0.0990269463111
v 0.0274352347028 0.0579885161792 0.0990419655765
v 0.0273634255985 0.058040513758 0.0990558982858
v 0.0272885256547 0.0580882701161 0.0990686945633
v 0.0272108029937 0.0581316142982 0.0990803086019
v 0.0271305358425 0.0581703911433 0.0990906988263
v 0.0270480115365 0.0582044618403 0.099099828042
v 0.0269635254916 0.0582337044251 0.099107663569
v 0.0268773801456 0.0582580142167 0.099114177358
v 0.0267898838767 0.0582773041925 0.0991193460915
v 0.0267013498987 0.0582915052992 0.0991231512665
v 0.0266120951404 0.0583005667007 0.0991255792618
v 0.0265224391105 0.0583044559595 0.0991266213855
v 0.0264327027545 0.058303159153 0.0991262739072
v 0.0263432073051 0.0582966809234 0.0991245380709
v 0.0262542731329 0.0582850444612 0.0991214200902
v 0.0261662185991 0.0582682914218 0.0991169311268
v 0.026079358916 0.0582464817768 0.0991110872501
v 0.0259940050189 0.0582196935991 0.0991039093795
v 0.0259104624525 0.0581880227833 0.09909542321
v 0.0258290302775 0.0581515827028 0.0990856591198
v 0.02575 0.0581105038037 0.099074652062
v 0.0256736545278 0.0580649331376 0.0990624414388
v 0.025600267158 0.0580150338358 0.0990490709612
v 0.0255301005982 0.0579609845248 0.099034588492
v 0.0254634060265 0.0579029786872 0.0990190458746
v 0.0254004221923 0.0578412239687 0.0990024987477
v 0.0253413745612 0.0577759414352 0.0989850063455
v 0.0252864745084 0.0577073647813 0.0989666312865
v 0.025235918562 0.0576357394936 0.0989474393485
v 0.0251898876991 0.057561321972 0.0989274992337
v 0.0251485466981 0.0574843786119 0.0989068823225
v 0.0251120435493 0.0574051848506 0.0988856624181
v 0.0250805089243 0.0573240241812 0.0988639154823
v 0.025054055709 0.0572411871379 0.0988417193634
v 0.0250327785989 0.0571569702557 0.0988191535178
v 0.0250167537607 0.0570716750092 0.0987962987254
v 0.025006038559 0.0569856067334 0.0987732368004
v 0.0250006713516 0.0568990735301 0.0987500502985
v 0.0250006713516 0.056812385166 0.0987268222213
v 0.025006038559 0.0567258519628 0.0987036357194
v 0.0250167537607 0.0566397836869 0.0986805737944
v 0.0250327785989 0.0565544884404 0.098657719002
v 0.025054055709 0.0564702715583 0.0986351531564
v 0.0250805089243 0.0563874345149 0.0986129570376
v 0.0251120435493 0.0563062738455 0.0985912101017
v 0.0251485466981 0.0562270800842 0.0985699901973
v 0.0251898876991 0.0561501367242 0.0985493732862
v 0.025235918562 0.0560757192025 0.0985294331713
v 0.0252864745084 0.0560040939148 0.0985102412333
v 0.0253413745612 0.0559355172609 0.0984918661743
v 0.0254004221923 0.0558702347274 0.0984743737722
v 0.0254634060265 0.055808480009 0.0984578266452
v 0.0255301005982 0.0557504741713 0.0984422840279
v 0.025600267158 0.0556964248603 0.0984278015586
v 0.0256736545278 0.0556465255585 0.098414431081
v 0.02575 0.0556009548925 0.0984022204579
v 0.0258290302775 0.0555598759933 0.0983912134
v 0.0259104624525 0.0555234359128 0.0983814493099
v 0.0259940050189 0.0554917650971 0.0983729631404
v 0.026079358916 0.0554649769193 0.0983657852698
v 0.0261662185991 0.0554431672744 0.098359941393
v 0.0262542731329 0.055426414235 0.0983554524296
v 0.0263432073051 0.0554147777728 0.098352334449
v 0.0264327027545 0.0554082995432 0.0983505986126
v 0.0265224391105 0.0554070027367 0.0983502511343
v 0.0266120951404 0.0554108919954 0.0983512932581
v 0.0267013498987 0.0554199533969 0.0983537212533
v 0.0267898838767 0.0554341545037 0.0983575264284
v 0.0268773801456 0.0554534444794 0.0983626951618
v 0.0269635254916 0.055477754271 0.0983692089508
v 0.0270480115365 0.0555069968558 0.0983770444778
v 0.0271305358425 0.0555410675529 0.0983861736936
v 0.0272108029937 0.055579844398 0.0983965639179
v 0.0272885256547 0.05562318858 0.0984081779565
v 0.0273634255985 0.0556709449382 0.0984209742341
v 0.0274352347028 0.055722942517 0.0984349069433
v 0.0275036959095 0.0557789951787 0.0984499262088
v 0.0275685641454 0.0558389022692 0.0984659782653
v 0.027629607199 0.0559024493368 0.0984830056507
v 0.027686606552 0.0559694088994 0.0985009474115
v 0.0277393581615 0.0560395412592 0.0985197393206
v 0.0277876731904 0.0561125953606 0.0985393141081
v 0.0278313786835 0.0561883096887 0.0985596017012
v 0.0278703181865 0.056266413206 0.0985805294756
v 0.027904352306 0.0563466263221 0.0986020225153
v 0.0279333592087 0.056428661895 0.0986240038807
v 0.0279572350574 0.0565122262585 0.0986463948845
v 0.0279758943829 0.0565970202738 0.0986691153724
v 0.0279892703895 0.0566827404006 0.0986920840111
v 0.0279973151947 0.0567690797828 0.0987152185789
v 0.0249122867597 0.054820599034 0.0957084619028
v 0.0249122867597 0.0541994333258 0.0980266838859
v 0.0280877132403 0.0541994333258 0.0980266838859
v 0.0280877132403 0.054820599034 0.0957084619028
v 0.0249122867597 0.0601331910786 0.0971319666509
v 0.0249122867597 0.0595120253704 0.0994501886339
v 0.0233245735195 0.0568557293481 0.0987384362599
v 0.0233245735195 0.0574768950563 0.0964202142768
v 0.0233245735195 0.0574768950563 0.0964202142768
v 0.0233245735195 0.0568557293481 0.0987384362599
v 0.0249122867597 0.0541994333258 0.0980266838859
v 0.0249122867597 0.054820599034 0.0957084619028
v 0.028 0.0568557293481 0.0987384362599
v 0.0279973151947 0.0569423789133 0.0987616539409
v 0.0279892703895 0.0570287182956 0.0987847885087
v 0.0279758943829 0.0571144384223 0.0988077571474
v 0.0279572350574 0.0571992324377 0.0988304776354
v 0.0279333592087 0.0572827968012 0.0988528686391
v 0.027904352306 0.057364832374 0.0988748500046
v 0.0278703181865 0.0574450454901 0.0988963430443
v 0.0278313786835 0.0575231490074 0.0989172708187
v 0.0277876731904 0.0575988633356 0.0989375584117
v 0.0277393581615 0.0576719174369 0.0989571331992
v 0.027686606552 0.0577420497967 0.0989759251084
v 0.027629607199 0.0578090093593 0.0989938668691
v 0.0275685641454 0.0578725564269 0.0990108942545
v 0.0275036959095 0.0579324635175 0.0990269463111
v 0.0274352347028 0.0579885161792 0.0990419655765
v 0.0273634255985 0.058040513758 0.0990558982858
v 0.0272885256547 0.0580882701161 0.0990686945633
v 0.0272108029937 0.0581316142982 0.0990803086019
v 0.0271305358425 0.0581703911433 0.0990906988263
v 0.0270480115365 0.0582044618403 0.099099828042
v 0.0269635254916 0.0582337044251 0.099107663569
v 0.0268773801456 0.0582580142167 0.099114177358
v 0.0267898838767 0.0582773041925 0.0991193460915
v 0.0267013498987 0.0582915052992 0.0991231512665
v 0.0266120951404 0.0583005667007 0.0991255792618
v 0.0265224391105 0.0583044559595 0.0991266213855
v 0.0264327027545 0.058303159153 0.0991262739072
v 0.0263432073051 0.0582966809234 0.0991245380709
v 0.0262542731329 0.0582850444612 0.0991214200902
v 0.0261662185991 0.0582682914218 0.0991169311268
v 0.026079358916 0.0582464817768 0.0991110872501
v 0.0259940050189 0.0582196935991 0.0991039093795
v 0.0259104624525 0.0581880227833 0.09909542321
v 0.0258290302775 0.0581515827028 0.0990856591198
v 0.02575 0.0581105038037 0.099074652062
v 0.0256736545278 0.0580649331376 0.0990624414388
v 0.025600267158 0.0580150338358 0.0990490709612
v 0.0255301005982 0.0579609845248 0.099034588492
v 0.0254634060265 0.0579029786872 0.0990190458746
v 0.0254004221923 0.0578412239687 0.0990024987477
v 0.0253413745612 0.0577759414352 0.0989850063455
v 0.0252864745084 0.0577073647813 0.0989666312865
v 0.025235918562 0.0576357394936 0.0989474393485
v 0.0251898876991 0.057561321972 0.0989274992337
v 0.0251485466981 0.0574843786119 0.0989068823225
v 0.0251120435493 0.0574051848506 0.0988856624181
v 0.0250805089243 0.0573240241812 0.0988639154823
v 0.025054055709 0.0572411871379 0.0988417193634
v 0.0250327785989 0.0571569702557 0.0988191535178
v 0.0250167537607 0.0570716750092 0.0987962987254
v 0.025006038559 0.0569856067334 0.0987732368004
v 0.0250006713516 0.0568990735301 0.0987500502985
v 0.0250006713516 0.056812385166 0.0987268222213
v 0.025006038559 0.0567258519628 0.0987036357194
v 0.0250167537607 0.0566397836869 0.0986805737944
v 0.0250327785989 0.0565544884404 0.098657719002
v 0.025054055709 0.0564702715583 0.0986351531564
v 0.0250805089243 0.0563874345149 0.0986129570376
v 0.0251120435493 0.0563062738455 0.0985912101017
v 0.0251485466981 0.0562270800842 0.0985699901973
v 0.0251898876991 0.0561501367242 0.0985493732862
v 0.025235918562 0.0560757192025 0.0985294331713
v 0.0252864745084 0.0560040939148 0.0985102412333
v 0.0253413745612 0.0559355172609 0.0984918661743
v 0.0254004221923 0.0558702347274 0.0984743737722
v 0.0254634060265 0.055808480009 0.0984578266452
v 0.0255301005982 0.0557504741713 0.0984422840279
v 0.025600267158 0.0556964248603 0.0984278015586
v 0.0256736545278 0.0556465255585 0.098414431081
v 0.02575 0.0556009548925 0.0984022204579
v 0.0258290302775 0.0555598759933 0.0983912134
v 0.0259104624525 0.0555234359128 0.0983814493099
v 0.0259940050189 0.0554917650971 0.0983729631404
v 0.026079358916 0.0554649769193 0.0983657852698
v 0.0261662185991 0.0554431672744 0.098359941393
v 0.0262542731329 0.055426414235 0.0983554524296
v 0.0263432073051 0.0554147777728 0.098352334449
v 0.0264327027545 0.0554082995432 0.0983505986126
v 0.0265224391105 0.0554070027367 0.0983502511343
v 0.0266120951404 0.0554108919954 0.0983512932581
v 0.0267013498987 0.0554199533969 0.0983537212533
v 0.0267898838767 0.0554341545037 0.0983575264284
v 0.0268773801456 0.0554534444794 0.0983626951618
v 0.0269635254916 0.055477754271 0.0983692089508
v 0.0270480115365 0.0555069968558 0.0983770444778
v 0.0271305358425 0.0555410675529 0.0983861736936
v 0.0272108029937 0.055579844398 0.0983965639179
v 0.0272885256547 0.05562318858 0.0984081779565
v 0.0273634255985 0.0556709449382 0.0984209742341
v 0.0274352347028 0.055722942517 0.0984349069433
v 0.0275036959095 0.0557789951787 0.0984499262088
v 0.0275685641454 0.0558389022692 0.0984659782653
v 0.027629607199 0.0559024493368 0.0984830056507
v 0.027686606552 0.0559694088994 0.0985009474115
v 0.0277393581615 0.0560395412592 0.0985197393206
v 0.0277876731904 0.0561125953606 0.0985393141081
v 0.0278313786835 0.0561883096887 0.0985596017012
v 0.0278703181865 0.056266413206 0.0985805294756
v 0.027904352306 0.0563466263221 0.0986020225153
v 0.0279333592087 0.056428661895 0.0986240038807
v 0.0279572350574 0.0565122262585 0.0986463948845
v 0.0279758943829 0.0565970202738 0.0986691153724
v 0.0279892703895 0.0566827404006 0.0986920840111
v 0.0279973151947 0.0567690797828 0.0987152185789
v 0.028 0.0568557293481 0.0987384362599
v 0.028 0.0574768950563 0.0964202142768
v 0.0279973151947 0.0575635446215 0.0964434319578
v 0.0279892703895 0.0576498840038 0.0964665665256
v 0.0279758943829 0.0577356041305 0.0964895351643
v 0.0279572350574 0.0578203981459 0.0965122556523
v 0.0279333592087 0.0579039625094 0.096534646656
v 0.027904352306 0.0579859980822 0.0965566280215
v 0.0278703181865 0.0580662111984 0.0965781210612
v 0.0278313786835 0.0581443147157 0.0965990488356
v 0.0277876731904 0.0582200290438 0.0966193364286
v 0.0277393581615 0.0582930831451 0.0966389112161
v 0.027686606552 0.0583632155049 0.0966577031253
v 0.027629607199 0.0584301750676 0.096675644886
v 0.0275685641454 0.0584937221352 0.0966926722714
v 0.0275036959095 0.0585536292257 0.096708724328
v 0.0274352347028 0.0586096818874 0.0967237435934
v 0.0273634255985 0.0586616794662 0.0967376763027
v 0.0272885256547 0.0587094358244 0.0967504725803
v 0.0272108029937 0.0587527800064 0.0967620866188
v 0.0271305358425 0.0587915568515 0.0967724768432
v 0.0270480115365 0.0588256275486 0.0967816060589
v 0.0269635254916 0.0588548701333 0.0967894415859
v 0.0268773801456 0.058879179925 0.0967959553749
v 0.0267898838767 0.0588984699007 0.0968011241084
v 0.0267013498987 0.0589126710075 0.0968049292834
v 0.0266120951404 0.058921732409 0.0968073572787
v 0.0265224391105 0.0589256216677 0.0968083994024
v 0.0264327027545 0.0589243248612 0.0968080519241
v 0.0263432073051 0.0589178466316 0.0968063160878
v 0.0262542731329 0.0589062101694 0.0968031981071
v 0.0261662185991 0.05888945713 0.0967987091437
v 0.026079358916 0.058867647485 0.096792865267
v 0.0259940050189 0.0588408593073 0.0967856873964
v 0.0259104624525 0.0588091884916 0.0967772012269
v 0.0258290302775 0.0587727484111 0.0967674371367
v 0.02575 0.0587316695119 0.0967564300789
v 0.0256736545278 0.0586860988459 0.0967442194557
v 0.025600267158 0.0586361995441 0.0967308489781
v 0.0255301005982 0.0585821502331 0.0967163665089
v 0.0254634060265 0.0585241443954 0.0967008238915
v 0.0254004221923 0.0584623896769 0.0966842767646
v 0.0253413745612 0.0583971071435 0.0966667843624
v 0.0252864745084 0.0583285304896 0.0966484093034
v 0.025235918562 0.0582569052018 0.0966292173654
v 0.0251898876991 0.0581824876802 0.0966092772506
v 0.0251485466981 0.0581055443201 0.0965886603394
v 0.0251120435493 0.0580263505589 0.096567440435
v 0.0250805089243 0.0579451898895 0.0965456934992
v 0.025054055709 0.0578623528461 0.0965234973803
v 0.0250327785989 0.0577781359639 0.0965009315347
v 0.0250167537607 0.0576928407175 0.0964780767423
v 0.025006038559 0.0576067724416 0.0964550148173
v 0.0250006713516 0.0575202392384 0.0964318283154
v 0.0250006713516 0.0574335508742 0.0964086002382
v 0.025006038559 0.057347017671 0.0963854137363
v 0.0250167537607 0.0572609493952 0.0963623518113
v 0.0250327785989 0.0571756541487 0.0963394970189
v 0.025054055709 0.0570914372665 0.0963169311733
v 0.0250805089243 0.0570086002232 0.0962947350545
v 0.0251120435493 0.0569274395538 0.0962729881186
v 0.0251485466981 0.0568482457925 0.0962517682143
v 0.0251898876991 0.0567713024324 0.0962311513031
v 0.025235918562 0.0566968849108 0.0962112111882
v 0.0252864745084 0.0566252596231 0.0961920192502
v 0.0253413745612 0.0565566829692 0.0961736441912
v 0.0254004221923 0.0564914004357 0.0961561517891
v 0.0254634060265 0.0564296457172 0.0961396046621
v 0.0255301005982 0.0563716398795 0.0961240620448
v 0.025600267158 0.0563175905686 0.0961095795755
v 0.0256736545278 0.0562676912668 0.0960962090979
v 0.02575 0.0562221206007 0.0960839984748
v 0.0258290302775 0.0561810417015 0.0960729914169
v 0.0259104624525 0.0561446016211 0.0960632273268
v 0.0259940050189 0.0561129308053 0.0960547411573
v 0.026079358916 0.0560861426276 0.0960475632867
v 0.0261662185991 0.0560643329826 0.0960417194099
v 0.0262542731329 0.0560475799432 0.0960372304465
v 0.0263432073051 0.056035943481 0.0960341124659
v 0.0264327027545 0.0560294652514 0.0960323766295
v 0.0265224391105 0.0560281684449 0.0960320291512
v 0.0266120951404 0.0560320577037 0.096033071275
v 0.0267013498987 0.0560411191051 0.0960354992702
v 0.0267898838767 0.0560553202119 0.0960393044453
v 0.0268773801456 0.0560746101877 0.0960444731787
v 0.0269635254916 0.0560989199793 0.0960509869677
v 0.0270480115365 0.0561281625641 0.0960588224947
v 0.0271305358425 0.0561622332611 0.0960679517105
v 0.0272108029937 0.0562010101062 0.0960783419348
v 0.0272885256547 0.0562443542883 0.0960899559734
v 0.0273634255985 0.0562921106464 0.096102752251
v 0.0274352347028 0.0563441082252 0.0961166849602
v 0.0275036959095 0.0564001608869 0.0961317042257
v 0.0275685641454 0.0564600679775 0.0961477562822
v 0.027629607199 0.0565236150451 0.0961647836676
v 0.027686606552 0.0565905746077 0.0961827254284
v 0.0277393581615 0.0566607069675 0.0962015173375
v 0.0277876731904 0.0567337610688 0.096221092125
v 0.0278313786835 0.056809475397 0.0962413797181
v 0.0278703181865 0.0568875789142 0.0962623074925
v 0.027904352306 0.0569677920304 0.0962838005322
v 0.0279333592087 0.0570498276032 0.0963057818977
v 0.0279572350574 0.0571333919667 0.0963281729014
v 0.0279758943829 0.0572181859821 0.0963508933893
v 0.0279892703895 0.0573039061088 0.096373862028
v 0.0279973151947 0.0573902454911 0.0963969965958
v 0.028 0.0574768950563 0.0964202142768
f 3 2 1
f 4 3 1
f 8 6 5
f 8 7 6
f 11 10 9
f 12 11 9
f 84 85 17
f 86 17 85
f 83 84 17
f 87 17 86
f 82 83 17
f 88 17 87
f 81 82 17
f 89 17 88
f 80 17 16
f 80 81 17
f 90 17 89
f 79 80 16
f 91 17 90
f 78 79 16
f 92 17 91
f 77 78 16
f 93 17 92
f 76 77 16
f 94 17 93
f 75 76 16
f 95 17 94
f 74 75 16
f 96 17 95
f 73 74 16
f 97 17 96
f 72 73 16
f 98 17 97
f 71 72 16
f 70 71 16
f 69 70 16
f 18 17 98
f 18 98 99
f 18 99 100
f 18 100 101
f 68 69 16
f 102 18 101
f 67 68 16
f 103 18 102
f 66 67 16
f 104 18 103
f 65 66 16
f 105 18 104
f 64 65 16
f 106 18 105
f 63 64 16
f 107 18 106
f 108 18 107
f 109 18 108
f 110 18 109
f 111 18 110
f 112 18 111
f 113 18 112
f 114 18 113
f 115 18 114
f 15 49 50
f 15 50 51
f 15 51 52
f 15 52 53
f 15 53 54
f 15 54 55
f 15 55 56
f 15 56 57
f 15 57 58
f 15 58 59
f 15 59 60
f 15 60 61
f 15 61 62
f 15 62 63
f 15 63 16
f 48 49 15
f 47 48 15
f 46 47 15
f 45 46 15
f 13 115 116
f 13 116 117
f 13 117 118
f 13 118 119
f 13 119 120
f 13 120 121
f 13 19 20
f 13 121 122
f 13 20 21
f 13 122 123
f 13 21 22
f 13 123 19
f 13 22 23
f 13 23 24
f 13 24 25
f 13 25 26
f 13 26 27
f 13 27 28
f 13 18 115
f 14 28 29
f 14 29 30
f 14 30 31
f 14 31 32
f 14 32 33
f 14 33 34
f 14 34 35
f 14 35 36
f 14 36 37
f 14 37 38
f 14 38 39
f 14 39 40
f 14 40 41
f 14 41 42
f 14 42 43
f 14 43 44
f 14 44 45
f 14 13 28
f 14 45 15
f 195 128 196
f 197 196 128
f 194 128 195
f 198 197 128
f 193 128 194
f 199 198 128
f 192 128 193
f 200 199 128
f 191 127 128
f 191 128 192
f 201 200 128
f 190 127 191
f 202 201 128
f 189 127 190
f 203 202 128
f 188 127 189
f 204 203 128
f 187 127 188
f 205 204 128
f 186 127 187
f 206 205 128
f 185 127 186
f 207 206 128
f 184 127 185
f 208 207 128
f 183 127 184
f 209 208 128
f 182 127 183
f 181 127 182
f 180 127 181
f 129 209 128
f 129 210 209
f 129 211 210
f 129 212 211
f 179 127 180
f 213 212 129
f 178 127 179
f 214 213 129
f 177 127 178
f 215 214 129
f 176 127 177
f 216 215 129
f 175 127 176
f 217 216 129
f 174 127 175
f 218 217 129
f 219 218 129
f 220 219 129
f 221 220 129
f 222 221 129
f 223 222 129
f 224 223 129
f 225 224 129
f 226 225 129
f 126 161 160
f 126 162 161
f 126 163 162
f 126 164 163
f 126 165 164
f 126 166 165
f 126 167 166
f 126 168 167
f 126 169 168
f 126 170 169
f 126 171 170
f 126 172 171
f 126 173 172
f 126 174 173
f 126 127 174
f 159 126 160
f 158 126 159
f 157 126 158
f 156 126 157
f 124 227 226
f 124 228 227
f 124 229 228
f 124 230 229
f 124 231 230
f 124 232 231
f 124 131 130
f 124 233 232
f 124 132 131
f 124 234 233
f 124 133 132
f 124 130 234
f 124 134 133
f 124 135 134
f 124 136 135
f 124 137 136
f 124 138 137
f 124 139 138
f 124 226 129
f 125 140 139
f 125 141 140
f 125 142 141
f 125 143 142
f 125 144 143
f 125 145 144
f 125 146 145
f 125 147 146
f 125 148 147
f 125 149 148
f 125 150 149
f 125 151 150
f 125 152 151
f 125 153 152
f 125 154 153
f 125 155 154
f 125 156 155
f 125 139 124
f 125 126 156
f 237 236 235
f 238 237 235
f 241 240 239
f 242 241 239
f 246 244 243
f 246 245 244
f 248 353 247
f 248 354 353
f 249 355 354
f 249 354 248
f 250 356 355
f 250 355 249
f 251 357 356
f 251 356 250
f 252 358 357
f 252 357 251
f 253 359 358
f 253 360 359
f 253 358 252
f 254 360 253
f 255 361 360
f 255 360 254
f 256 362 361
f 256 361 255
f 257 363 362
f 257 364 363
f 257 362 256
f 258 365 364
f 258 364 257
f 259 365 258
f 260 366 365
f 260 367 366
f 260 365 259
f 261 367 260
f 262 368 367
f 262 367 261
f 263 369 368
f 263 368 262
f 264 370 369
f 264 371 370
f 264 369 263
f 265 371 264
f 266 372 371
f 266 371 265
f 267 373 372
f 267 374 373
f 267 372 266
f 268 374 267
f 269 374 268
f 269 375 374
f 269 376 375
f 270 376 269
f 271 376 270
f 271 377 376
f 271 378 377
f 272 378 271
f 272 379 378
f 273 379 272
f 274 379 273
f 274 380 379
f 275 380 274
f 275 381 380
f 275 382 381
f 276 382 275
f 276 383 382
f 277 383 276
f 278 384 383
f 278 383 277
f 279 385 384
f 279 386 385
f 279 384 278
f 280 386 279
f 281 387 386
f 281 386 280
f 282 388 387
f 282 387 281
f 283 389 388
f 283 388 282
f 284 390 389
f 284 389 283
f 285 391 390
f 285 390 284
f 286 392 391
f 286 391 285
f 287 393 392
f 287 392 286
f 288 394 393
f 288 393 287
f 289 395 394
f 289 394 288
f 290 396 395
f 290 395 289
f 291 397 396
f 291 396 290
f 292 398 397
f 292 397 291
f 293 399 398
f 293 398 292
f 294 399 293
f 294 400 399
f 295 400 294
f 295 401 400
f 296 401 295
f 296 402 401
f 297 402 296
f 297 403 402
f 298 403 297
f 298 404 403
f 299 404 298
f 299 405 404
f 300 405 299
f 300 406 405
f 301 406 300
f 301 407 406
f 302 407 301
f 302 408 407
f 303 408 302
f 303 409 408
f 304 409 303
f 304 410 409
f 305 410 304
f 305 411 410
f 306 411 305
f 306 412 411
f 307 412 306
f 307 413 412
f 308 413 307
f 308 414 413
f 309 414 308
f 309 415 414
f 310 415 309
f 310 416 415
f 311 416 310
f 311 417 416
f 312 418 417
f 312 417 311
f 313 419 418
f 313 418 312
f 314 420 419
f 314 419 313
f 315 421 420
f 315 420 314
f 316 422 421
f 316 421 315
f 317 423 422
f 317 422 316
f 318 424 423
f 318 423 317
f 319 424 318
f 319 425 424
f 320 425 319
f 320 426 425
f 321 426 320
f 321 427 426
f 322 427 321
f 322 428 427
f 323 428 322
f 323 429 428
f 324 429 323
f 324 430 429
f 325 430 324
f 325 431 430
f 326 431 325
f 326 432 431
f 327 432 326
f 327 433 432
f 328 433 327
f 328 434 433
f 329 434 328
f 329 435 434
f 330 435 329
f 330 436 435
f 331 436 330
f 331 437 436
f 332 437 331
f 332 438 437
f 333 438 332
f 333 439 438
f 334 439 333
f 334 440 439
f 335 440 334
f 335 441 440
f 336 441 335
f 336 442 441
f 337 442 336
f 337 443 442
f 338 443 337
f 338 444 443
f 339 444 338
f 339 445 444
f 340 445 339
f 340 446 445
f 341 446 340
f 341 447 446
f 342 447 341
f 342 448 447
f 343 449 448
f 343 448 342
f 344 450 449
f 344 449 343
f 345 450 344
f 345 451 450
f 346 452 451
f 346 451 345
f 347 453 452
f 347 452 346
f 348 454 453
f 348 453 347
f 349 455 454
f 349 454 348
f 350 456 455
f 350 455 349
f 351 457 456
f 351 456 350
f 352 457 351
f 352 458 457
