v -0.021 0.0577264229157 0.103216370238
v -0.021 0.0905679010096 0.112016217771
v -0.021 0.0636792609531 0.0810000762333
v -0.021 0.0965207390469 0.0897999237667
v -0.021 0.0577264229157 0.103216370238
v -0.021 0.0905679010096 0.112016217771
v -0.0209932326331 0.0575017685481 0.103156174282
v -0.020972953431 0.0572778743397 0.103096182009
v -0.020939231012 0.0570554978777 0.103036596416
v -0.0208921794823 0.0568353916137 0.10297761912
v -0.0208319580493 0.0566183003176 0.102919449683
v -0.0207587704831 0.0564049585575 0.10286228493
v -0.0206728644275 0.0561960882146 0.102806318291
v -0.0205745305613 0.0559923960398 0.102751739137
v -0.0204641016151 0.0557945712631 0.102698732148
v -0.0203419512457 0.0556032832609 0.102647476682
v -0.020208492771 0.0554191792913 0.102598146172
v -0.0200641777725 0.0552428823037 0.102550907537
v -0.0199094945663 0.0550749888314 0.102505920616
v -0.0197449665515 0.0549160669727 0.102463337633
v -0.0195711504387 0.054766654469 0.102423302673
v -0.0193886343668 0.0546272568847 0.102385951203
v -0.0191980359123 0.0544983458974 0.102351409608
v -0.019 0.0543803577008 0.102319794766
v -0.0187951967208 0.0542736915297 0.102291213651
v -0.0185843190642 0.0541787083087 0.102265762974
v -0.0183680805733 0.054095729431 0.102243528851
v -0.0181472129308 0.0540250356707 0.102224586515
v -0.017922463483 0.0539668662332 0.102209000061
v -0.0176945927107 0.0539214179455 0.102196822229
v -0.0174643716565 0.0538888445901 0.102188094225
v -0.0172325793156 0.0538692563851 0.102182845581
v -0.017 0.0538627196106 0.102181094057
v 0.017 0.0538627196106 0.102181094057
v 0.021 0.0577264229157 0.103216370238
v 0.0209932326331 0.0575017685481 0.103156174282
v 0.020972953431 0.0572778743397 0.103096182009
v 0.020939231012 0.0570554978777 0.103036596416
v 0.0208921794823 0.0568353916137 0.10297761912
v 0.0208319580493 0.0566183003176 0.102919449683
v 0.0207587704831 0.0564049585575 0.10286228493
v 0.0206728644275 0.0561960882146 0.102806318291
v 0.0205745305613 0.0559923960398 0.102751739137
v 0.0204641016151 0.0557945712631 0.102698732148
v 0.0203419512457 0.0556032832609 0.102647476682
v 0.020208492771 0.0554191792913 0.102598146172
v 0.0200641777725 0.0552428823037 0.102550907537
v 0.0199094945663 0.0550749888314 0.102505920616
v 0.0197449665515 0.0549160669727 0.102463337633
v 0.0195711504387 0.054766654469 0.102423302673
v 0.0193886343668 0.0546272568847 0.102385951203
v 0.0191980359123 0.0544983458974 0.102351409608
v 0.019 0.0543803577008 0.102319794766
v 0.0187951967208 0.0542736915297 0.102291213651
v 0.0185843190642 0.0541787083087 0.102265762974
v 0.0183680805733 0.054095729431 0.102243528851
v 0.0181472129308 0.0540250356707 0.102224586515
v 0.017922463483 0.0539668662332 0.102209000061
v 0.0176945927107 0.0539214179455 0.102196822229
v 0.0174643716565 0.0538888445901 0.102188094225
v 0.0172325793156 0.0538692563851 0.102182845581
v 0.021 0.0905679010096 0.112016217771
v 0.0209932326331 0.0907925553772 0.112076413728
v 0.020972953431 0.0910164495856 0.112136406
v 0.020939231012 0.0912388260475 0.112195991594
v 0.0208921794823 0.0914589323116 0.112254968889
v 0.0208319580493 0.0916760236077 0.112313138327
v 0.0207587704831 0.0918893653678 0.112370303079
v 0.0206728644275 0.0920982357107 0.112426269719
v 0.0205745305613 0.0923019278854 0.112480848872
v 0.0204641016151 0.0924997526621 0.112533855862
v 0.0203419512457 0.0926910406643 0.112585111327
v 0.020208492771 0.092875144634 0.112634441837
v 0.0200641777725 0.0930514416216 0.112681680473
v 0.0199094945663 0.0932193350939 0.112726667393
v 0.0197449665515 0.0933782569526 0.112769250377
v 0.0195711504387 0.0935276694563 0.112809285336
v 0.0193886343668 0.0936670670405 0.112846636807
v 0.0191980359123 0.0937959780279 0.112881178402
v 0.019 0.0939139662245 0.112912793244
v 0.0187951967208 0.0940206323956 0.112941374358
v 0.0185843190642 0.0941156156166 0.112966825035
v 0.0183680805733 0.0941985944943 0.112989059159
v 0.0181472129308 0.0942692882546 0.113008001495
v 0.017922463483 0.0943274576921 0.113023587948
v 0.0176945927107 0.0943729059798 0.11303576578
v 0.0174643716565 0.0944054793352 0.113044493785
v 0.0172325793156 0.0944250675402 0.113049742428
v 0.017 0.0944316043147 0.113051493952
v -0.017 0.0944316043147 0.113051493952
v -0.0209932326331 0.0907925553772 0.112076413728
v -0.020972953431 0.0910164495856 0.112136406
v -0.020939231012 0.0912388260475 0.112195991594
v -0.0208921794823 0.0914589323116 0.112254968889
v -0.0208319580493 0.0916760236077 0.112313138327
v -0.0207587704831 0.0918893653678 0.112370303079
v -0.0206728644275 0.0920982357107 0.112426269719
v -0.0205745305613 0.0923019278854 0.112480848872
v -0.0204641016151 0.0924997526621 0.112533855862
v -0.0203419512457 0.0926910406643 0.112585111327
v -0.020208492771 0.092875144634 0.112634441837
v -0.0200641777725 0.0930514416216 0.112681680473
v -0.0199094945663 0.0932193350939 0.112726667393
v -0.0197449665515 0.0933782569526 0.112769250377
v -0.0195711504387 0.0935276694563 0.112809285336
v -0.0193886343668 0.0936670670405 0.112846636807
v -0.0191980359123 0.0937959780279 0.112881178402
v -0.019 0.0939139662245 0.112912793244
v -0.0187951967208 0.0940206323956 0.112941374358
v -0.0185843190642 0.0941156156166 0.112966825035
v -0.0183680805733 0.0941985944943 0.112989059159
v -0.0181472129308 0.0942692882546 0.113008001495
v -0.017922463483 0.0943274576921 0.113023587948
v -0.0176945927107 0.0943729059798 0.11303576578
v -0.0174643716565 0.0944054793352 0.113044493785
v -0.0172325793156 0.0944250675402 0.113049742428
v -0.00875 0.0741471619626 0.107616294005
v -0.00875223733779 0.0742193699337 0.107635642072
v -0.00875894134207 0.0742913194189 0.107654920879
v -0.00877008801425 0.0743627528578 0.107674061411
v -0.00878563745213 0.0744334145373 0.107692995151
v -0.00880553399277 0.0745030515069 0.107711654321
v -0.0088297064117 0.0745714144843 0.107729972125
v -0.00885806817795 0.0746382587477 0.107747882992
v -0.00889051776374 0.0747033450121 0.107765322804
v -0.008926939008 0.0747664402856 0.107782229131
v -0.00896720153211 0.0748273187033 0.107798541454
v -0.00901116120668 0.0748857623365 0.107814201378
v -0.0090586606675 0.074941561972 0.107829152846
v -0.00910952987881 0.0749945178617 0.107843342333
v -0.00916358674205 0.0750444404371 0.107856719047
v -0.00922063774768 0.0750911509885 0.107869235102
v -0.00928047866789 0.0751344823042 0.107880845693
v -0.00934289528774 0.0751742792693 0.107891509258
v -0.00940766417191 0.0752103994211 0.107901187623
v -0.00947455346461 0.0752427134586 0.107909846143
v -0.00954332371954 0.0752711057062 0.107917453823
v -0.00961372875703 0.0752954745268 0.107923983429
v -0.00968551654532 0.0753157326865 0.107929411586
v -0.00975843010276 0.0753318076663 0.107933718864
v -0.00983220841773 0.075343641922 0.107936889844
v -0.00990658738302 0.0753511930899 0.107938913173
v -0.00998130074123 0.0753544341388 0.107939781609
v -0.0100560810379 0.0753533534667 0.107939492044
v -0.0101306605791 0.0753479549421 0.107938045514
v -0.0102047723893 0.0753382578902 0.107935447197
v -0.0102781511674 0.0753242970241 0.107931706394
v -0.0103505342366 0.0753061223199 0.107926836496
v -0.0104216624842 0.0752837988385 0.107920854938
v -0.0104912812896 0.075257406492 0.10791378313
v -0.0105591414354 0.0752270397583 0.107905646388
v -0.010625 0.0751928073423 0.10789647384
v -0.0106886212268 0.0751548317873 0.10788629832
v -0.0107497773684 0.0751132490358 0.107875156256
v -0.0108082495015 0.0750682079433 0.107863087531
v -0.0108638283112 0.0750198697452 0.10785013535
v -0.0109163148398 0.0749684074798 0.107836346078
v -0.010965521199 0.0749140053686 0.107821769076
v -0.011011271243 0.074856858157 0.107806456527
v -0.0110534011983 0.0747971704172 0.107790463245
v -0.0110917602508 0.0747351558159 0.107773846483
v -0.0111262110849 0.0746710363492 0.107756665723
v -0.0111566303756 0.0746050415481 0.10773898247
v -0.0111829092297 0.0745374076569 0.107720860023
v -0.0112049535759 0.0744683767875 0.107702363258
v -0.0112226845009 0.0743981960523 0.107683558386
v -0.0112360385328 0.0743271166803 0.107664512726
v -0.0112449678675 0.074255393117 0.107645294455
v -0.0112494405404 0.0741832821144 0.10762597237
v -0.0112494405404 0.0741110418109 0.107606615639
v -0.0112449678675 0.0740389308082 0.107587293554
v -0.0112360385328 0.073967207245 0.107568075283
v -0.0112226845009 0.073896127873 0.107549029623
v -0.0112049535759 0.0738259471378 0.107530224752
v -0.0111829092297 0.0737569162683 0.107511727986
v -0.0111566303756 0.0736892823772 0.107493605539
v -0.0111262110849 0.0736232875761 0.107475922286
v -0.0110917602508 0.0735591681094 0.107458741527
v -0.0110534011983 0.073497153508 0.107442124764
v -0.011011271243 0.0734374657683 0.107426131482
v -0.010965521199 0.0733803185567 0.107410818933
v -0.0109163148398 0.0733259164455 0.107396241932
v -0.0108638283112 0.07327445418 0.107382452659
v -0.0108082495015 0.073226115982 0.107369500478
v -0.0107497773684 0.0731810748895 0.107357431754
v -0.0106886212268 0.073139492138 0.107346289689
v -0.010625 0.073101516583 0.10733611417
v -0.0105591414354 0.073067284167 0.107326941621
v -0.0104912812896 0.0730369174333 0.10731880488
v -0.0104216624842 0.0730105250868 0.107311733072
v -0.0103505342366 0.0729882016054 0.107305751513
v -0.0102781511674 0.0729700269012 0.107300881616
v -0.0102047723893 0.0729560660351 0.107297140813
v -0.0101306605791 0.0729463689832 0.107294542496
v -0.0100560810379 0.0729409704586 0.107293095965
v -0.00998130074123 0.0729398897865 0.1072928064
v -0.00990658738302 0.0729431308354 0.107293674836
v -0.00983220841773 0.0729506820033 0.107295698166
v -0.00975843010276 0.072962516259 0.107298869145
v -0.00968551654532 0.0729785912388 0.107303176423
v -0.00961372875703 0.0729988493985 0.10730860458
v -0.00954332371954 0.0730232182191 0.107315134186
v -0.00947455346461 0.0730516104667 0.107322741866
v -0.00940766417191 0.0730839245042 0.107331400386
v -0.00934289528774 0.0731200446559 0.107341078752
v -0.00928047866789 0.0731598416211 0.107351742316
v -0.00922063774768 0.0732031729367 0.107363352907
v -0.00916358674205 0.0732498834881 0.107375868962
v -0.00910952987881 0.0732998060636 0.107389245676
v -0.0090586606675 0.0733527619533 0.107403435164
v -0.00901116120668 0.0734085615888 0.107418386631
v -0.00896720153211 0.073467005222 0.107434046555
v -0.008926939008 0.0735278836397 0.107450358878
v -0.00889051776374 0.0735909789132 0.107467265206
v -0.00885806817795 0.0736560651776 0.107484705018
v -0.0088297064117 0.073722909441 0.107502615884
v -0.00880553399277 0.0737912724184 0.107520933689
v -0.00878563745213 0.073860909388 0.107539592858
v -0.00877008801425 0.0739315710675 0.107558526598
v -0.00875894134207 0.0740030045064 0.107577667131
v -0.00875223733779 0.0740749539916 0.107596945937
v 0.01125 0.0741471619626 0.107616294005
v 0.0112477626622 0.0742193699337 0.107635642072
v 0.0112410586579 0.0742913194189 0.107654920879
v 0.0112299119857 0.0743627528578 0.107674061411
v 0.0112143625479 0.0744334145373 0.107692995151
v 0.0111944660072 0.0745030515069 0.107711654321
v 0.0111702935883 0.0745714144843 0.107729972125
v 0.0111419318221 0.0746382587477 0.107747882992
v 0.0111094822363 0.0747033450121 0.107765322804
v 0.011073060992 0.0747664402856 0.107782229131
v 0.0110327984679 0.0748273187033 0.107798541454
v 0.0109888387933 0.0748857623365 0.107814201378
v 0.0109413393325 0.074941561972 0.107829152846
v 0.0108904701212 0.0749945178617 0.107843342333
v 0.0108364132579 0.0750444404371 0.107856719047
v 0.0107793622523 0.0750911509885 0.107869235102
v 0.0107195213321 0.0751344823042 0.107880845693
v 0.0106571047123 0.0751742792693 0.107891509258
v 0.0105923358281 0.0752103994211 0.107901187623
v 0.0105254465354 0.0752427134586 0.107909846143
v 0.0104566762805 0.0752711057062 0.107917453823
v 0.010386271243 0.0752954745268 0.107923983429
v 0.0103144834547 0.0753157326865 0.107929411586
v 0.0102415698972 0.0753318076663 0.107933718864
v 0.0101677915823 0.075343641922 0.107936889844
v 0.010093412617 0.0753511930899 0.107938913173
v 0.0100186992588 0.0753544341388 0.107939781609
v 0.00994391896206 0.0753533534667 0.107939492044
v 0.00986933942092 0.0753479549421 0.107938045514
v 0.00979522761073 0.0753382578902 0.107935447197
v 0.00972184883255 0.0753242970241 0.107931706394
v 0.00964946576337 0.0753061223199 0.107926836496
v 0.00957833751577 0.0752837988385 0.107920854938
v 0.00950871871043 0.075257406492 0.10791378313
v 0.00944085856461 0.0752270397583 0.107905646388
v 0.009375 0.0751928073423 0.10789647384
v 0.00931137877318 0.0751548317873 0.10788629832
v 0.00925022263164 0.0751132490358 0.107875156256
v 0.00919175049848 0.0750682079433 0.107863087531
v 0.00913617168877 0.0750198697452 0.10785013535
v 0.00908368516021 0.0749684074798 0.107836346078
v 0.00903447880097 0.0749140053686 0.107821769076
v 0.00898872875703 0.074856858157 0.107806456527
v 0.00894659880168 0.0747971704172 0.107790463245
v 0.00890823974923 0.0747351558159 0.107773846483
v 0.00887378891512 0.0746710363492 0.107756665723
v 0.00884336962441 0.0746050415481 0.10773898247
v 0.00881709077025 0.0745374076569 0.107720860023
v 0.00879504642413 0.0744683767875 0.107702363258
v 0.00877731549908 0.0743981960523 0.107683558386
v 0.00876396146722 0.0743271166803 0.107664512726
v 0.00875503213251 0.074255393117 0.107645294455
v 0.00875055945965 0.0741832821144 0.10762597237
v 0.00875055945965 0.0741110418109 0.107606615639
v 0.00875503213251 0.0740389308082 0.107587293554
v 0.00876396146722 0.073967207245 0.107568075283
v 0.00877731549908 0.073896127873 0.107549029623
v 0.00879504642413 0.0738259471378 0.107530224752
v 0.00881709077025 0.0737569162683 0.107511727986
v 0.00884336962441 0.0736892823772 0.107493605539
v 0.00887378891512 0.0736232875761 0.107475922286
v 0.00890823974923 0.0735591681094 0.107458741527
v 0.00894659880168 0.073497153508 0.107442124764
v 0.00898872875703 0.0734374657683 0.107426131482
v 0.00903447880097 0.0733803185567 0.107410818933
v 0.00908368516021 0.0733259164455 0.107396241932
v 0.00913617168877 0.07327445418 0.107382452659
v 0.00919175049848 0.073226115982 0.107369500478
v 0.00925022263164 0.0731810748895 0.107357431754
v 0.00931137877318 0.073139492138 0.107346289689
v 0.009375 0.073101516583 0.10733611417
v 0.00944085856461 0.073067284167 0.107326941621
v 0.00950871871043 0.0730369174333 0.10731880488
v 0.00957833751577 0.0730105250868 0.107311733072
v 0.00964946576337 0.0729882016054 0.107305751513
v 0.00972184883255 0.0729700269012 0.107300881616
v 0.00979522761073 0.0729560660351 0.107297140813
v 0.00986933942092 0.0729463689832 0.107294542496
v 0.00994391896206 0.0729409704586 0.107293095965
v 0.0100186992588 0.0729398897865 0.1072928064
v 0.010093412617 0.0729431308354 0.107293674836
v 0.0101677915823 0.0729506820033 0.107295698166
v 0.0102415698972 0.072962516259 0.107298869145
v 0.0103144834547 0.0729785912388 0.107303176423
v 0.010386271243 0.0729988493985 0.10730860458
v 0.0104566762805 0.0730232182191 0.107315134186
v 0.0105254465354 0.0730516104667 0.107322741866
v 0.0105923358281 0.0730839245042 0.107331400386
v 0.0106571047123 0.0731200446559 0.107341078752
v 0.0107195213321 0.0731598416211 0.107351742316
v 0.0107793622523 0.0732031729367 0.107363352907
v 0.0108364132579 0.0732498834881 0.107375868962
v 0.0108904701212 0.0732998060636 0.107389245676
v 0.0109413393325 0.0733527619533 0.107403435164
v 0.0109888387933 0.0734085615888 0.107418386631
v 0.0110327984679 0.073467005222 0.107434046555
v 0.011073060992 0.0735278836397 0.107450358878
v 0.0111094822363 0.0735909789132 0.107467265206
v 0.0111419318221 0.0736560651776 0.107484705018
v 0.0111702935883 0.073722909441 0.107502615884
v 0.0111944660072 0.0737912724184 0.107520933689
v 0.0112143625479 0.073860909388 0.107539592858
v 0.0112299119857 0.0739315710675 0.107558526598
v 0.0112410586579 0.0740030045064 0.107577667131
v 0.0112477626622 0.0740749539916 0.107596945937
v -0.021 0.0636792609531 0.0810000762333
v -0.0209932326331 0.0634546065854 0.0809398802769
v -0.020972953431 0.0632307123771 0.0808798880045
v -0.020939231012 0.0630083359151 0.0808203024111
v -0.0208921794823 0.0627882296511 0.0807613251155
v -0.0208319580493 0.0625711383549 0.080703155678
v -0.0207587704831 0.0623577965949 0.0806459909257
v -0.0206728644275 0.0621489262519 0.0805900242859
v -0.0205745305613 0.0619452340772 0.0805354451322
v -0.0204641016151 0.0617474093005 0.0804824381431
v -0.0203419512457 0.0615561212983 0.0804311826773
v -0.020208492771 0.0613720173286 0.0803818521673
v -0.0200641777725 0.061195720341 0.0803346135319
v -0.0199094945663 0.0610278268687 0.0802896266116
v -0.0197449665515 0.0608689050101 0.0802470436279
v -0.0195711504387 0.0607194925063 0.0802070086682
v -0.0193886343668 0.0605800949221 0.080169657198
v -0.0191980359123 0.0604511839347 0.0801351156031
v -0.019 0.0603331957381 0.0801035007611
v -0.0187951967208 0.0602265295671 0.0800749196467
v -0.0185843190642 0.0601315463461 0.0800494689693
v -0.0183680805733 0.0600485674683 0.0800272348461
v -0.0181472129308 0.059977873708 0.0800082925101
v -0.017922463483 0.0599197042706 0.0799927060563
v -0.0176945927107 0.0598742559828 0.0799805282243
v -0.0174643716565 0.0598416826275 0.07997180022
v -0.0172325793156 0.0598220944224 0.0799665515763
v -0.017 0.0598155576479 0.0799648000528
v -0.017 0.0538627196106 0.102181094057
v -0.021 0.0577264229157 0.103216370238
v -0.0209932326331 0.0575017685481 0.103156174282
v -0.020972953431 0.0572778743397 0.103096182009
v -0.020939231012 0.0570554978777 0.103036596416
v -0.0208921794823 0.0568353916137 0.10297761912
v -0.0208319580493 0.0566183003176 0.102919449683
v -0.0207587704831 0.0564049585575 0.10286228493
v -0.0206728644275 0.0561960882146 0.102806318291
v -0.0205745305613 0.0559923960398 0.102751739137
v -0.0204641016151 0.0557945712631 0.102698732148
v -0.0203419512457 0.0556032832609 0.102647476682
v -0.020208492771 0.0554191792913 0.102598146172
v -0.0200641777725 0.0552428823037 0.102550907537
v -0.0199094945663 0.0550749888314 0.102505920616
v -0.0197449665515 0.0549160669727 0.102463337633
v -0.0195711504387 0.054766654469 0.102423302673
v -0.0193886343668 0.0546272568847 0.102385951203
v -0.0191980359123 0.0544983458974 0.102351409608
v -0.019 0.0543803577008 0.102319794766
v -0.0187951967208 0.0542736915297 0.102291213651
v -0.0185843190642 0.0541787083087 0.102265762974
v -0.0183680805733 0.054095729431 0.102243528851
v -0.0181472129308 0.0540250356707 0.102224586515
v -0.017922463483 0.0539668662332 0.102209000061
v -0.0176945927107 0.0539214179455 0.102196822229
v -0.0174643716565 0.0538888445901 0.102188094225
v -0.0172325793156 0.0538692563851 0.102182845581
v -0.021 0.0965207390469 0.0897999237667
v -0.0209932326331 0.0967453934146 0.0898601197231
v -0.020972953431 0.0969692876229 0.0899201119955
v -0.020939231012 0.0971916640849 0.0899796975889
v -0.0208921794823 0.0974117703489 0.0900386748845
v -0.0208319580493 0.0976288616451 0.090096844322
v -0.0207587704831 0.0978422034051 0.0901540090743
v -0.0206728644275 0.0980510737481 0.0902099757141
v -0.0205745305613 0.0982547659228 0.0902645548678
v -0.0204641016151 0.0984525906995 0.0903175618569
v -0.0203419512457 0.0986438787017 0.0903688173227
v -0.020208492771 0.0988279826714 0.0904181478327
v -0.0200641777725 0.099004279659 0.0904653864681
v -0.0199094945663 0.0991721731313 0.0905103733884
v -0.0197449665515 0.0993310949899 0.0905529563721
v -0.0195711504387 0.0994805074937 0.0905929913318
v -0.0193886343668 0.0996199050779 0.090630342802
v -0.0191980359123 0.0997488160653 0.0906648843969
v -0.019 0.0998668042619 0.0906964992389
v -0.0187951967208 0.0999734704329 0.0907250803533
v -0.0185843190642 0.100068453654 0.0907505310307
v -0.0183680805733 0.100151432532 0.0907727651539
v -0.0181472129308 0.100222126292 0.0907917074899
v -0.017922463483 0.100280295729 0.0908072939437
v -0.0176945927107 0.100325744017 0.0908194717757
v -0.0174643716565 0.100358317373 0.09082819978
v -0.0172325793156 0.100377905578 0.0908334484237
v -0.017 0.100384442352 0.0908351999472
v -0.017 0.0944316043147 0.113051493952
v -0.021 0.0905679010096 0.112016217771
v -0.0209932326331 0.0907925553772 0.112076413728
v -0.020972953431 0.0910164495856 0.112136406
v -0.020939231012 0.0912388260475 0.112195991594
v -0.0208921794823 0.0914589323116 0.112254968889
v -0.0208319580493 0.0916760236077 0.112313138327
v -0.0207587704831 0.0918893653678 0.112370303079
v -0.0206728644275 0.0920982357107 0.112426269719
v -0.0205745305613 0.0923019278854 0.112480848872
v -0.0204641016151 0.0924997526621 0.112533855862
v -0.0203419512457 0.0926910406643 0.112585111327
v -0.020208492771 0.092875144634 0.112634441837
v -0.0200641777725 0.0930514416216 0.112681680473
v -0.0199094945663 0.0932193350939 0.112726667393
v -0.0197449665515 0.0933782569526 0.112769250377
v -0.0195711504387 0.0935276694563 0.112809285336
v -0.0193886343668 0.0936670670405 0.112846636807
v -0.0191980359123 0.0937959780279 0.112881178402
v -0.019 0.0939139662245 0.112912793244
v -0.0187951967208 0.0940206323956 0.112941374358
v -0.0185843190642 0.0941156156166 0.112966825035
v -0.0183680805733 0.0941985944943 0.112989059159
v -0.0181472129308 0.0942692882546 0.113008001495
v -0.017922463483 0.0943274576921 0.113023587948
v -0.0176945927107 0.0943729059798 0.11303576578
v -0.0174643716565 0.0944054793352 0.113044493785
v -0.0172325793156 0.0944250675402 0.113049742428
v -0.021 0.0636792609531 0.0810000762333
v -0.021 0.0965207390469 0.0897999237667
v -0.0209932326331 0.0634546065854 0.0809398802769
v -0.020972953431 0.0632307123771 0.0808798880045
v -0.020939231012 0.0630083359151 0.0808203024111
v -0.0208921794823 0.0627882296511 0.0807613251155
v -0.0208319580493 0.0625711383549 0.080703155678
v -0.0207587704831 0.0623577965949 0.0806459909257
v -0.0206728644275 0.0621489262519 0.0805900242859
v -0.0205745305613 0.0619452340772 0.0805354451322
v -0.0204641016151 0.0617474093005 0.0804824381431
v -0.0203419512457 0.0615561212983 0.0804311826773
v -0.020208492771 0.0613720173286 0.0803818521673
v -0.0200641777725 0.061195720341 0.0803346135319
v -0.0199094945663 0.0610278268687 0.0802896266116
v -0.0197449665515 0.0608689050101 0.0802470436279
v -0.0195711504387 0.0607194925063 0.0802070086682
v -0.0193886343668 0.0605800949221 0.080169657198
v -0.0191980359123 0.0604511839347 0.0801351156031
v -0.019 0.0603331957381 0.0801035007611
v -0.0187951967208 0.0602265295671 0.0800749196467
v -0.0185843190642 0.0601315463461 0.0800494689693
v -0.0183680805733 0.0600485674683 0.0800272348461
v -0.0181472129308 0.059977873708 0.0800082925101
v -0.017922463483 0.0599197042706 0.0799927060563
v -0.0176945927107 0.0598742559828 0.0799805282243
v -0.0174643716565 0.0598416826275 0.07997180022
v -0.0172325793156 0.0598220944224 0.0799665515763
v -0.017 0.0598155576479 0.0799648000528
v 0.017 0.0598155576479 0.0799648000528
v 0.021 0.0636792609531 0.0810000762333
v 0.0209932326331 0.0634546065854 0.0809398802769
v 0.020972953431 0.0632307123771 0.0808798880045
v 0.020939231012 0.0630083359151 0.0808203024111
v 0.0208921794823 0.0627882296511 0.0807613251155
v 0.0208319580493 0.0625711383549 0.080703155678
v 0.0207587704831 0.0623577965949 0.0806459909257
v 0.0206728644275 0.0621489262519 0.0805900242859
v 0.0205745305613 0.0619452340772 0.0805354451322
v 0.0204641016151 0.0617474093005 0.0804824381431
v 0.0203419512457 0.0615561212983 0.0804311826773
v 0.020208492771 0.0613720173286 0.0803818521673
v 0.0200641777725 0.061195720341 0.0803346135319
v 0.0199094945663 0.0610278268687 0.0802896266116
v 0.0197449665515 0.0608689050101 0.0802470436279
v 0.0195711504387 0.0607194925063 0.0802070086682
v 0.0193886343668 0.0605800949221 0.080169657198
v 0.0191980359123 0.0604511839347 0.0801351156031
v 0.019 0.0603331957381 0.0801035007611
v 0.0187951967208 0.0602265295671 0.0800749196467
v 0.0185843190642 0.0601315463461 0.0800494689693
v 0.0183680805733 0.0600485674683 0.0800272348461
v 0.0181472129308 0.059977873708 0.0800082925101
v 0.017922463483 0.0599197042706 0.0799927060563
v 0.0176945927107 0.0598742559828 0.0799805282243
v 0.0174643716565 0.0598416826275 0.07997180022
v 0.0172325793156 0.0598220944224 0.0799665515763
v 0.021 0.0965207390469 0.0897999237667
v 0.0209932326331 0.0967453934146 0.0898601197231
v 0.020972953431 0.0969692876229 0.0899201119955
v 0.020939231012 0.0971916640849 0.0899796975889
v 0.0208921794823 0.0974117703489 0.0900386748845
v 0.0208319580493 0.0976288616451 0.090096844322
v 0.0207587704831 0.0978422034051 0.0901540090743
v 0.0206728644275 0.0980510737481 0.0902099757141
v 0.0205745305613 0.0982547659228 0.0902645548678
v 0.0204641016151 0.0984525906995 0.0903175618569
v 0.0203419512457 0.0986438787017 0.0903688173227
v 0.020208492771 0.0988279826714 0.0904181478327
v 0.0200641777725 0.099004279659 0.0904653864681
v 0.0199094945663 0.0991721731313 0.0905103733884
v 0.0197449665515 0.0993310949899 0.0905529563721
v 0.0195711504387 0.0994805074937 0.0905929913318
v 0.0193886343668 0.0996199050779 0.090630342802
v 0.0191980359123 0.0997488160653 0.0906648843969
v 0.019 0.0998668042619 0.0906964992389
v 0.0187951967208 0.0999734704329 0.0907250803533
v 0.0185843190642 0.100068453654 0.0907505310307
v 0.0183680805733 0.100151432532 0.0907727651539
v 0.0181472129308 0.100222126292 0.0907917074899
v 0.017922463483 0.100280295729 0.0908072939437
v 0.0176945927107 0.100325744017 0.0908194717757
v 0.0174643716565 0.100358317373 0.09082819978
v 0.0172325793156 0.100377905578 0.0908334484237
v 0.017 0.100384442352 0.0908351999472
v -0.017 0.100384442352 0.0908351999472
v -0.0209932326331 0.0967453934146 0.0898601197231
v -0.020972953431 0.0969692876229 0.0899201119955
v -0.020939231012 0.0971916640849 0.0899796975889
v -0.0208921794823 0.0974117703489 0.0900386748845
v -0.0208319580493 0.0976288616451 0.090096844322
v -0.0207587704831 0.0978422034051 0.0901540090743
v -0.0206728644275 0.0980510737481 0.0902099757141
v -0.0205745305613 0.0982547659228 0.0902645548678
v -0.0204641016151 0.0984525906995 0.0903175618569
v -0.0203419512457 0.0986438787017 0.0903688173227
v -0.020208492771 0.0988279826714 0.0904181478327
v -0.0200641777725 0.099004279659 0.0904653864681
v -0.0199094945663 0.0991721731313 0.0905103733884
v -0.0197449665515 0.0993310949899 0.0905529563721
v -0.0195711504387 0.0994805074937 0.0905929913318
v -0.0193886343668 0.0996199050779 0.090630342802
v -0.0191980359123 0.0997488160653 0.0906648843969
v -0.019 0.0998668042619 0.0906964992389
v -0.0187951967208 0.0999734704329 0.0907250803533
v -0.0185843190642 0.100068453654 0.0907505310307
v -0.0183680805733 0.100151432532 0.0907727651539
v -0.0181472129308 0.100222126292 0.0907917074899
v -0.017922463483 0.100280295729 0.0908072939437
v -0.0176945927107 0.100325744017 0.0908194717757
v -0.0174643716565 0.100358317373 0.09082819978
v -0.0172325793156 0.100377905578 0.0908334484237
v -0.017 0.0598155576479 0.0799648000528
v 0.017 0.0598155576479 0.0799648000528
v -0.017 0.0538627196106 0.102181094057
v 0.017 0.0538627196106 0.102181094057
v -0.017 0.100384442352 0.0908351999472
v 0.017 0.100384442352 0.0908351999472
v -0.017 0.0944316043147 0.113051493952
v 0.017 0.0944316043147 0.113051493952
v 0.021 0.0636792609531 0.0810000762333
v 0.0209932326331 0.0634546065854 0.0809398802769
v 0.020972953431 0.0632307123771 0.0808798880045
v 0.020939231012 0.0630083359151 0.0808203024111
v 0.0208921794823 0.0627882296511 0.0807613251155
v 0.0208319580493 0.0625711383549 0.080703155678
v 0.0207587704831 0.0623577965949 0.0806459909257
v 0.0206728644275 0.0621489262519 0.0805900242859
v 0.0205745305613 0.0619452340772 0.0805354451322
v 0.0204641016151 0.0617474093005 0.0804824381431
v 0.0203419512457 0.0615561212983 0.0804311826773
v 0.020208492771 0.0613720173286 0.0803818521673
v 0.0200641777725 0.061195720341 0.0803346135319
v 0.0199094945663 0.0610278268687 0.0802896266116
v 0.0197449665515 0.0608689050101 0.0802470436279
v 0.0195711504387 0.0607194925063 0.0802070086682
v 0.0193886343668 0.0605800949221 0.080169657198
v 0.0191980359123 0.0604511839347 0.0801351156031
v 0.019 0.0603331957381 0.0801035007611
v 0.0187951967208 0.0602265295671 0.0800749196467
v 0.0185843190642 0.0601315463461 0.0800494689693
v 0.0183680805733 0.0600485674683 0.0800272348461
v 0.0181472129308 0.059977873708 0.0800082925101
v 0.017922463483 0.0599197042706 0.0799927060563
v 0.0176945927107 0.0598742559828 0.0799805282243
v 0.0174643716565 0.0598416826275 0.07997180022
v 0.0172325793156 0.0598220944224 0.0799665515763
v 0.017 0.0598155576479 0.0799648000528
v 0.017 0.0538627196106 0.102181094057
v 0.021 0.0577264229157 0.103216370238
v 0.0209932326331 0.0575017685481 0.103156174282
v 0.020972953431 0.0572778743397 0.103096182009
v 0.020939231012 0.0570554978777 0.103036596416
v 0.0208921794823 0.0568353916137 0.10297761912
v 0.0208319580493 0.0566183003176 0.102919449683
v 0.0207587704831 0.0564049585575 0.10286228493
v 0.0206728644275 0.0561960882146 0.102806318291
v 0.0205745305613 0.0559923960398 0.102751739137
v 0.0204641016151 0.0557945712631 0.102698732148
v 0.0203419512457 0.0556032832609 0.102647476682
v 0.020208492771 0.0554191792913 0.102598146172
v 0.0200641777725 0.0552428823037 0.102550907537
v 0.0199094945663 0.0550749888314 0.102505920616
v 0.0197449665515 0.0549160669727 0.102463337633
v 0.0195711504387 0.054766654469 0.102423302673
v 0.0193886343668 0.0546272568847 0.102385951203
v 0.0191980359123 0.0544983458974 0.102351409608
v 0.019 0.0543803577008 0.102319794766
v 0.0187951967208 0.0542736915297 0.102291213651
v 0.0185843190642 0.0541787083087 0.102265762974
v 0.0183680805733 0.054095729431 0.102243528851
v 0.0181472129308 0.0540250356707 0.102224586515
v 0.017922463483 0.0539668662332 0.102209000061
v 0.0176945927107 0.0539214179455 0.102196822229
v 0.0174643716565 0.0538888445901 0.102188094225
v 0.0172325793156 0.0538692563851 0.102182845581
v 0.021 0.0965207390469 0.0897999237667
v 0.0209932326331 0.0967453934146 0.0898601197231
v 0.020972953431 0.0969692876229 0.0899201119955
v 0.020939231012 0.0971916640849 0.0899796975889
v 0.0208921794823 0.0974117703489 0.0900386748845
v 0.0208319580493 0.0976288616451 0.090096844322
v 0.0207587704831 0.0978422034051 0.0901540090743
v 0.0206728644275 0.0980510737481 0.0902099757141
v 0.0205745305613 0.0982547659228 0.0902645548678
v 0.0204641016151 0.0984525906995 0.0903175618569
v 0.0203419512457 0.0986438787017 0.0903688173227
v 0.020208492771 0.0988279826714 0.0904181478327
v 0.0200641777725 0.099004279659 0.0904653864681
v 0.0199094945663 0.0991721731313 0.0905103733884
v 0.0197449665515 0.0993310949899 0.0905529563721
v 0.0195711504387 0.0994805074937 0.0905929913318
v 0.0193886343668 0.0996199050779 0.090630342802
v 0.0191980359123 0.0997488160653 0.0906648843969
v 0.019 0.0998668042619 0.0906964992389
v 0.0187951967208 0.0999734704329 0.0907250803533
v 0.0185843190642 0.100068453654 0.0907505310307
v 0.0183680805733 0.100151432532 0.0907727651539
v 0.0181472129308 0.100222126292 0.0907917074899
v 0.017922463483 0.100280295729 0.0908072939437
v 0.0176945927107 0.100325744017 0.0908194717757
v 0.0174643716565 0.100358317373 0.09082819978
v 0.0172325793156 0.100377905578 0.0908334484237
v 0.017 0.100384442352 0.0908351999472
v 0.017 0.0944316043147 0.113051493952
v 0.021 0.0905679010096 0.112016217771
v 0.0209932326331 0.0907925553772 0.112076413728
v 0.020972953431 0.0910164495856 0.112136406
v 0.020939231012 0.0912388260475 0.112195991594
v 0.0208921794823 0.0914589323116 0.112254968889
v 0.0208319580493 0.0916760236077 0.112313138327
v 0.0207587704831 0.0918893653678 0.112370303079
v 0.0206728644275 0.0920982357107 0.112426269719
v 0.0205745305613 0.0923019278854 0.112480848872
v 0.0204641016151 0.0924997526621 0.112533855862
v 0.0203419512457 0.0926910406643 0.112585111327
v 0.020208492771 0.092875144634 0.112634441837
v 0.0200641777725 0.0930514416216 0.112681680473
v 0.0199094945663 0.0932193350939 0.112726667393
v 0.0197449665515 0.0933782569526 0.112769250377
v 0.0195711504387 0.0935276694563 0.112809285336
v 0.0193886343668 0.0936670670405 0.112846636807
v 0.0191980359123 0.0937959780279 0.112881178402
v 0.019 0.0939139662245 0.112912793244
v 0.0187951967208 0.0940206323956 0.112941374358
v 0.0185843190642 0.0941156156166 0.112966825035
v 0.0183680805733 0.0941985944943 0.112989059159
v 0.0181472129308 0.0942692882546 0.113008001495
v 0.017922463483 0.0943274576921 0.113023587948
v 0.0176945927107 0.0943729059798 0.11303576578
v 0.0174643716565 0.0944054793352 0.113044493785
v 0.0172325793156 0.0944250675402 0.113049742428
v 0.021 0.0577264229157 0.103216370238
v 0.021 0.0905679010096 0.112016217771
v 0.021 0.0636792609531 0.0810000762333
v 0.021 0.0965207390469 0.0897999237667
v -0.00875 0.0741471619626 0.107616294005
v -0.00875223733779 0.0742193699337 0.107635642072
v -0.00875894134207 0.0742913194189 0.107654920879
v -0.00877008801425 0.0743627528578 0.107674061411
v -0.00878563745213 0.0744334145373 0.107692995151
v -0.00880553399277 0.0745030515069 0.107711654321
v -0.0088297064117 0.0745714144843 0.107729972125
v -0.00885806817795 0.0746382587477 0.107747882992
v -0.00889051776374 0.0747033450121 0.107765322804
v -0.008926939008 0.0747664402856 0.107782229131
v -0.00896720153211 0.0748273187033 0.107798541454
v -0.00901116120668 0.0748857623365 0.107814201378
v -0.0090586606675 0.074941561972 0.107829152846
v -0.00910952987881 0.0749945178617 0.107843342333
v -0.00916358674205 0.0750444404371 0.107856719047
v -0.00922063774768 0.0750911509885 0.107869235102
v -0.00928047866789 0.0751344823042 0.107880845693
v -0.00934289528774 0.0751742792693 0.107891509258
v -0.00940766417191 0.0752103994211 0.107901187623
v -0.00947455346461 0.0752427134586 0.107909846143
v -0.00954332371954 0.0752711057062 0.107917453823
v -0.00961372875703 0.0752954745268 0.107923983429
v -0.00968551654532 0.0753157326865 0.107929411586
v -0.00975843010276 0.0753318076663 0.107933718864
v -0.00983220841773 0.075343641922 0.107936889844
v -0.00990658738302 0.0753511930899 0.107938913173
v -0.00998130074123 0.0753544341388 0.107939781609
v -0.0100560810379 0.0753533534667 0.107939492044
v -0.0101306605791 0.0753479549421 0.107938045514
v -0.0102047723893 0.0753382578902 0.107935447197
v -0.0102781511674 0.0753242970241 0.107931706394
v -0.0103505342366 0.0753061223199 0.107926836496
v -0.0104216624842 0.0752837988385 0.107920854938
v -0.0104912812896 0.075257406492 0.10791378313
v -0.0105591414354 0.0752270397583 0.107905646388
v -0.010625 0.0751928073423 0.10789647384
v -0.0106886212268 0.0751548317873 0.10788629832
v -0.0107497773684 0.0751132490358 0.107875156256
v -0.0108082495015 0.0750682079433 0.107863087531
v -0.0108638283112 0.0750198697452 0.10785013535
v -0.0109163148398 0.0749684074798 0.107836346078
v -0.010965521199 0.0749140053686 0.107821769076
v -0.011011271243 0.074856858157 0.107806456527
v -0.0110534011983 0.0747971704172 0.107790463245
v -0.0110917602508 0.0747351558159 0.107773846483
v -0.0111262110849 0.0746710363492 0.107756665723
v -0.0111566303756 0.0746050415481 0.10773898247
v -0.0111829092297 0.0745374076569 0.107720860023
v -0.0112049535759 0.0744683767875 0.107702363258
v -0.0112226845009 0.0743981960523 0.107683558386
v -0.0112360385328 0.0743271166803 0.107664512726
v -0.0112449678675 0.074255393117 0.107645294455
v -0.0112494405404 0.0741832821144 0.10762597237
v -0.0112494405404 0.0741110418109 0.107606615639
v -0.0112449678675 0.0740389308082 0.107587293554
v -0.0112360385328 0.073967207245 0.107568075283
v -0.0112226845009 0.073896127873 0.107549029623
v -0.0112049535759 0.0738259471378 0.107530224752
v -0.0111829092297 0.0737569162683 0.107511727986
v -0.0111566303756 0.0736892823772 0.107493605539
v -0.0111262110849 0.0736232875761 0.107475922286
v -0.0110917602508 0.0735591681094 0.107458741527
v -0.0110534011983 0.073497153508 0.107442124764
v -0.011011271243 0.0734374657683 0.107426131482
v -0.010965521199 0.0733803185567 0.107410818933
v -0.0109163148398 0.0733259164455 0.107396241932
v -0.0108638283112 0.07327445418 0.107382452659
v -0.0108082495015 0.073226115982 0.107369500478
v -0.0107497773684 0.0731810748895 0.107357431754
v -0.0106886212268 0.073139492138 0.107346289689
v -0.010625 0.073101516583 0.10733611417
v -0.0105591414354 0.073067284167 0.107326941621
v -0.0104912812896 0.0730369174333 0.10731880488
v -0.0104216624842 0.0730105250868 0.107311733072
v -0.0103505342366 0.0729882016054 0.107305751513
v -0.0102781511674 0.0729700269012 0.107300881616
v -0.0102047723893 0.0729560660351 0.107297140813
v -0.0101306605791 0.0729463689832 0.107294542496
v -0.0100560810379 0.0729409704586 0.107293095965
v -0.00998130074123 0.0729398897865 0.1072928064
v -0.00990658738302 0.0729431308354 0.107293674836
v -0.00983220841773 0.0729506820033 0.107295698166
v -0.00975843010276 0.072962516259 0.107298869145
v -0.00968551654532 0.0729785912388 0.107303176423
v -0.00961372875703 0.0729988493985 0.10730860458
v -0.00954332371954 0.0730232182191 0.107315134186
v -0.00947455346461 0.0730516104667 0.107322741866
v -0.00940766417191 0.0730839245042 0.107331400386
v -0.00934289528774 0.0731200446559 0.107341078752
v -0.00928047866789 0.0731598416211 0.107351742316
v -0.00922063774768 0.0732031729367 0.107363352907
v -0.00916358674205 0.0732498834881 0.107375868962
v -0.00910952987881 0.0732998060636 0.107389245676
v -0.0090586606675 0.0733527619533 0.107403435164
v -0.00901116120668 0.0734085615888 0.107418386631
v -0.00896720153211 0.073467005222 0.107434046555
v -0.008926939008 0.0735278836397 0.107450358878
v -0.00889051776374 0.0735909789132 0.107467265206
v -0.00885806817795 0.0736560651776 0.107484705018
v -0.0088297064117 0.073722909441 0.107502615884
v -0.00880553399277 0.0737912724184 0.107520933689
v -0.00878563745213 0.073860909388 0.107539592858
v -0.00877008801425 0.0739315710675 0.107558526598
v -0.00875894134207 0.0740030045064 0.107577667131
v -0.00875223733779 0.0740749539916 0.107596945937
v -0.00875 0.0741471619626 0.107616294005
v -0.00875 0.0751824381431 0.103752590699
v -0.00875223733779 0.0752546461141 0.103771938767
v -0.00875894134207 0.0753265955993 0.103791217573
v -0.00877008801425 0.0753980290382 0.103810358106
v -0.00878563745213 0.0754686907177 0.103829291846
v -0.00880553399277 0.0755383276873 0.103847951015
v -0.0088297064117 0.0756066906647 0.10386626882
v -0.00885806817795 0.0756735349281 0.103884179686
v -0.00889051776374 0.0757386211925 0.103901619498
v -0.008926939008 0.075801716466 0.103918525826
v -0.00896720153211 0.0758625948837 0.103934838149
v -0.00901116120668 0.0759210385169 0.103950498073
v -0.0090586606675 0.0759768381524 0.10396544954
v -0.00910952987881 0.0760297940421 0.103979639028
v -0.00916358674205 0.0760797166176 0.103993015742
v -0.00922063774768 0.076126427169 0.104005531797
v -0.00928047866789 0.0761697584846 0.104017142388
v -0.00934289528774 0.0762095554497 0.104027805952
v -0.00940766417191 0.0762456756015 0.104037484318
v -0.00947455346461 0.076277989639 0.104046142838
v -0.00954332371954 0.0763063818866 0.104053750518
v -0.00961372875703 0.0763307507072 0.104060280124
v -0.00968551654532 0.0763510088669 0.104065708281
v -0.00975843010276 0.0763670838467 0.104070015559
v -0.00983220841773 0.0763789181024 0.104073186538
v -0.00990658738302 0.0763864692703 0.104075209868
v -0.00998130074123 0.0763897103192 0.104076078304
v -0.0100560810379 0.0763886296471 0.104075788739
v -0.0101306605791 0.0763832311225 0.104074342209
v -0.0102047723893 0.0763735340706 0.104071743891
v -0.0102781511674 0.0763595732045 0.104068003089
v -0.0103505342366 0.0763413985003 0.104063133191
v -0.0104216624842 0.0763190750189 0.104057151632
v -0.0104912812896 0.0762926826724 0.104050079825
v -0.0105591414354 0.0762623159387 0.104041943083
v -0.010625 0.0762280835227 0.104032770535
v -0.0106886212268 0.0761901079677 0.104022595015
v -0.0107497773684 0.0761485252162 0.104011452951
v -0.0108082495015 0.0761034841237 0.103999384226
v -0.0108638283112 0.0760551459257 0.103986432045
v -0.0109163148398 0.0760036836602 0.103972642773
v -0.010965521199 0.075949281549 0.103958065771
v -0.011011271243 0.0758921343374 0.103942753222
v -0.0110534011983 0.0758324465977 0.10392675994
v -0.0110917602508 0.0757704319963 0.103910143178
v -0.0111262110849 0.0757063125296 0.103892962418
v -0.0111566303756 0.0756403177285 0.103875279165
v -0.0111829092297 0.0755726838374 0.103857156718
v -0.0112049535759 0.0755036529679 0.103838659952
v -0.0112226845009 0.0754334722327 0.103819855081
v -0.0112360385328 0.0753623928607 0.103800809421
v -0.0112449678675 0.0752906692975 0.10378159115
v -0.0112494405404 0.0752185582948 0.103762269065
v -0.0112494405404 0.0751463179913 0.103742912334
v -0.0112449678675 0.0750742069887 0.103723590249
v -0.0112360385328 0.0750024834254 0.103704371978
v -0.0112226845009 0.0749314040534 0.103685326318
v -0.0112049535759 0.0748612233182 0.103666521447
v -0.0111829092297 0.0747921924488 0.103648024681
v -0.0111566303756 0.0747245585576 0.103629902234
v -0.0111262110849 0.0746585637565 0.103612218981
v -0.0110917602508 0.0745944442898 0.103595038221
v -0.0110534011983 0.0745324296885 0.103578421459
v -0.011011271243 0.0744727419487 0.103562428177
v -0.010965521199 0.0744155947371 0.103547115628
v -0.0109163148398 0.0743611926259 0.103532538626
v -0.0108638283112 0.0743097303605 0.103518749354
v -0.0108082495015 0.0742613921624 0.103505797173
v -0.0107497773684 0.0742163510699 0.103493728448
v -0.0106886212268 0.0741747683184 0.103482586384
v -0.010625 0.0741367927634 0.103472410864
v -0.0105591414354 0.0741025603474 0.103463238316
v -0.0104912812896 0.0740721936137 0.103455101574
v -0.0104216624842 0.0740458012672 0.103448029767
v -0.0103505342366 0.0740234777858 0.103442048208
v -0.0102781511674 0.0740053030816 0.10343717831
v -0.0102047723893 0.0739913422155 0.103433437508
v -0.0101306605791 0.0739816451636 0.10343083919
v -0.0100560810379 0.073976246639 0.10342939266
v -0.00998130074123 0.0739751659669 0.103429103095
v -0.00990658738302 0.0739784070158 0.103429971531
v -0.00983220841773 0.0739859581837 0.103431994861
v -0.00975843010276 0.0739977924394 0.10343516584
v -0.00968551654532 0.0740138674192 0.103439473118
v -0.00961372875703 0.0740341255789 0.103444901275
v -0.00954332371954 0.0740584943995 0.103451430881
v -0.00947455346461 0.0740868866471 0.103459038561
v -0.00940766417191 0.0741192006846 0.103467697081
v -0.00934289528774 0.0741553208364 0.103477375447
v -0.00928047866789 0.0741951178015 0.103488039011
v -0.00922063774768 0.0742384491171 0.103499649602
v -0.00916358674205 0.0742851596685 0.103512165657
v -0.00910952987881 0.074335082244 0.103525542371
v -0.0090586606675 0.0743880381337 0.103539731859
v -0.00901116120668 0.0744438377692 0.103554683326
v -0.00896720153211 0.0745022814024 0.10357034325
v -0.008926939008 0.0745631598201 0.103586655573
v -0.00889051776374 0.0746262550936 0.103603561901
v -0.00885806817795 0.074691341358 0.103621001713
v -0.0088297064117 0.0747581856214 0.103638912579
v -0.00880553399277 0.0748265485988 0.103657230384
v -0.00878563745213 0.0748961855684 0.103675889553
v -0.00877008801425 0.0749668472479 0.103694823293
v -0.00875894134207 0.0750382806868 0.103713963826
v -0.00875223733779 0.075110230172 0.103733242632
v -0.00875 0.0751824381431 0.103752590699
v 0.01125 0.0741471619626 0.107616294005
v 0.0112477626622 0.0742193699337 0.107635642072
v 0.0112410586579 0.0742913194189 0.107654920879
v 0.0112299119857 0.0743627528578 0.107674061411
v 0.0112143625479 0.0744334145373 0.107692995151
v 0.0111944660072 0.0745030515069 0.107711654321
v 0.0111702935883 0.0745714144843 0.107729972125
v 0.0111419318221 0.0746382587477 0.107747882992
v 0.0111094822363 0.0747033450121 0.107765322804
v 0.011073060992 0.0747664402856 0.107782229131
v 0.0110327984679 0.0748273187033 0.107798541454
v 0.0109888387933 0.0748857623365 0.107814201378
v 0.0109413393325 0.074941561972 0.107829152846
v 0.0108904701212 0.0749945178617 0.107843342333
v 0.0108364132579 0.0750444404371 0.107856719047
v 0.0107793622523 0.0750911509885 0.107869235102
v 0.0107195213321 0.0751344823042 0.107880845693
v 0.0106571047123 0.0751742792693 0.107891509258
v 0.0105923358281 0.0752103994211 0.107901187623
v 0.0105254465354 0.0752427134586 0.107909846143
v 0.0104566762805 0.0752711057062 0.107917453823
v 0.010386271243 0.0752954745268 0.107923983429
v 0.0103144834547 0.0753157326865 0.107929411586
v 0.0102415698972 0.0753318076663 0.107933718864
v 0.0101677915823 0.075343641922 0.107936889844
v 0.010093412617 0.0753511930899 0.107938913173
v 0.0100186992588 0.0753544341388 0.107939781609
v 0.00994391896206 0.0753533534667 0.107939492044
v 0.00986933942092 0.0753479549421 0.107938045514
v 0.00979522761073 0.0753382578902 0.107935447197
v 0.00972184883255 0.0753242970241 0.107931706394
v 0.00964946576337 0.0753061223199 0.107926836496
v 0.00957833751577 0.0752837988385 0.107920854938
v 0.00950871871043 0.075257406492 0.10791378313
v 0.00944085856461 0.0752270397583 0.107905646388
v 0.009375 0.0751928073423 0.10789647384
v 0.00931137877318 0.0751548317873 0.10788629832
v 0.00925022263164 0.0751132490358 0.107875156256
v 0.00919175049848 0.0750682079433 0.107863087531
v 0.00913617168877 0.0750198697452 0.10785013535
v 0.00908368516021 0.0749684074798 0.107836346078
v 0.00903447880097 0.0749140053686 0.107821769076
v 0.00898872875703 0.074856858157 0.107806456527
v 0.00894659880168 0.0747971704172 0.107790463245
v 0.00890823974923 0.0747351558159 0.107773846483
v 0.00887378891512 0.0746710363492 0.107756665723
v 0.00884336962441 0.0746050415481 0.10773898247
v 0.00881709077025 0.0745374076569 0.107720860023
v 0.00879504642413 0.0744683767875 0.107702363258
v 0.00877731549908 0.0743981960523 0.107683558386
v 0.00876396146722 0.0743271166803 0.107664512726
v 0.00875503213251 0.074255393117 0.107645294455
v 0.00875055945965 0.0741832821144 0.10762597237
v 0.00875055945965 0.0741110418109 0.107606615639
v 0.00875503213251 0.0740389308082 0.107587293554
v 0.00876396146722 0.073967207245 0.107568075283
v 0.00877731549908 0.073896127873 0.107549029623
v 0.00879504642413 0.0738259471378 0.107530224752
v 0.00881709077025 0.0737569162683 0.107511727986
v 0.00884336962441 0.0736892823772 0.107493605539
v 0.00887378891512 0.0736232875761 0.107475922286
v 0.00890823974923 0.0735591681094 0.107458741527
v 0.00894659880168 0.073497153508 0.107442124764
v 0.00898872875703 0.0734374657683 0.107426131482
v 0.00903447880097 0.0733803185567 0.107410818933
v 0.00908368516021 0.0733259164455 0.107396241932
v 0.00913617168877 0.07327445418 0.107382452659
v 0.00919175049848 0.073226115982 0.107369500478
v 0.00925022263164 0.0731810748895 0.107357431754
v 0.00931137877318 0.073139492138 0.107346289689
v 0.009375 0.073101516583 0.10733611417
v 0.00944085856461 0.073067284167 0.107326941621
v 0.00950871871043 0.0730369174333 0.10731880488
v 0.00957833751577 0.0730105250868 0.107311733072
v 0.00964946576337 0.0729882016054 0.107305751513
v 0.00972184883255 0.0729700269012 0.107300881616
v 0.00979522761073 0.0729560660351 0.107297140813
v 0.00986933942092 0.0729463689832 0.107294542496
v 0.00994391896206 0.0729409704586 0.107293095965
v 0.0100186992588 0.0729398897865 0.1072928064
v 0.010093412617 0.0729431308354 0.107293674836
v 0.0101677915823 0.0729506820033 0.107295698166
v 0.0102415698972 0.072962516259 0.107298869145
v 0.0103144834547 0.0729785912388 0.107303176423
v 0.010386271243 0.0729988493985 0.10730860458
v 0.0104566762805 0.0730232182191 0.107315134186
v 0.0105254465354 0.0730516104667 0.107322741866
v 0.0105923358281 0.0730839245042 0.107331400386
v 0.0106571047123 0.0731200446559 0.107341078752
v 0.0107195213321 0.0731598416211 0.107351742316
v 0.0107793622523 0.0732031729367 0.107363352907
v 0.0108364132579 0.0732498834881 0.107375868962
v 0.0108904701212 0.0732998060636 0.107389245676
v 0.0109413393325 0.0733527619533 0.107403435164
v 0.0109888387933 0.0734085615888 0.107418386631
v 0.0110327984679 0.073467005222 0.107434046555
v 0.011073060992 0.0735278836397 0.107450358878
v 0.0111094822363 0.0735909789132 0.107467265206
v 0.0111419318221 0.0736560651776 0.107484705018
v 0.0111702935883 0.073722909441 0.107502615884
v 0.0111944660072 0.0737912724184 0.107520933689
v 0.0112143625479 0.073860909388 0.107539592858
v 0.0112299119857 0.0739315710675 0.107558526598
v 0.0112410586579 0.0740030045064 0.107577667131
v 0.0112477626622 0.0740749539916 0.107596945937
v 0.01125 0.0741471619626 0.107616294005
v 0.01125 0.0751824381431 0.103752590699
v 0.0112477626622 0.0752546461141 0.103771938767
v 0.0112410586579 0.0753265955993 0.103791217573
v 0.0112299119857 0.0753980290382 0.103810358106
v 0.0112143625479 0.0754686907177 0.103829291846
v 0.0111944660072 0.0755383276873 0.103847951015
v 0.0111702935883 0.0756066906647 0.10386626882
v 0.0111419318221 0.0756735349281 0.103884179686
v 0.0111094822363 0.0757386211925 0.103901619498
v 0.011073060992 0.075801716466 0.103918525826
v 0.0110327984679 0.0758625948837 0.103934838149
v 0.0109888387933 0.0759210385169 0.103950498073
v 0.0109413393325 0.0759768381524 0.10396544954
v 0.0108904701212 0.0760297940421 0.103979639028
v 0.0108364132579 0.0760797166176 0.103993015742
v 0.0107793622523 0.076126427169 0.104005531797
v 0.0107195213321 0.0761697584846 0.104017142388
v 0.0106571047123 0.0762095554497 0.104027805952
v 0.0105923358281 0.0762456756015 0.104037484318
v 0.0105254465354 0.076277989639 0.104046142838
v 0.0104566762805 0.0763063818866 0.104053750518
v 0.010386271243 0.0763307507072 0.104060280124
v 0.0103144834547 0.0763510088669 0.104065708281
v 0.0102415698972 0.0763670838467 0.104070015559
v 0.0101677915823 0.0763789181024 0.104073186538
v 0.010093412617 0.0763864692703 0.104075209868
v 0.0100186992588 0.0763897103192 0.104076078304
v 0.00994391896206 0.0763886296471 0.104075788739
v 0.00986933942092 0.0763832311225 0.104074342209
v 0.00979522761073 0.0763735340706 0.104071743891
v 0.00972184883255 0.0763595732045 0.104068003089
v 0.00964946576337 0.0763413985003 0.104063133191
v 0.00957833751577 0.0763190750189 0.104057151632
v 0.00950871871043 0.0762926826724 0.104050079825
v 0.00944085856461 0.0762623159387 0.104041943083
v 0.009375 0.0762280835227 0.104032770535
v 0.00931137877318 0.0761901079677 0.104022595015
v 0.00925022263164 0.0761485252162 0.104011452951
v 0.00919175049848 0.0761034841237 0.103999384226
v 0.00913617168877 0.0760551459257 0.103986432045
v 0.00908368516021 0.0760036836602 0.103972642773
v 0.00903447880097 0.075949281549 0.103958065771
v 0.00898872875703 0.0758921343374 0.103942753222
v 0.00894659880168 0.0758324465977 0.10392675994
v 0.00890823974923 0.0757704319963 0.103910143178
v 0.00887378891512 0.0757063125296 0.103892962418
v 0.00884336962441 0.0756403177285 0.103875279165
v 0.00881709077025 0.0755726838374 0.103857156718
v 0.00879504642413 0.0755036529679 0.103838659952
v 0.00877731549908 0.0754334722327 0.103819855081
v 0.00876396146722 0.0753623928607 0.103800809421
v 0.00875503213251 0.0752906692975 0.10378159115
v 0.00875055945965 0.0752185582948 0.103762269065
v 0.00875055945965 0.0751463179913 0.103742912334
v 0.00875503213251 0.0750742069887 0.103723590249
v 0.00876396146722 0.0750024834254 0.103704371978
v 0.00877731549908 0.0749314040534 0.103685326318
v 0.00879504642413 0.0748612233182 0.103666521447
v 0.00881709077025 0.0747921924488 0.103648024681
v 0.00884336962441 0.0747245585576 0.103629902234
v 0.00887378891512 0.0746585637565 0.103612218981
v 0.00890823974923 0.0745944442898 0.103595038221
v 0.00894659880168 0.0745324296885 0.103578421459
v 0.00898872875703 0.0744727419487 0.103562428177
v 0.00903447880097 0.0744155947371 0.103547115628
v 0.00908368516021 0.0743611926259 0.103532538626
v 0.00913617168877 0.0743097303605 0.103518749354
v 0.00919175049848 0.0742613921624 0.103505797173
v 0.00925022263164 0.0742163510699 0.103493728448
v 0.00931137877318 0.0741747683184 0.103482586384
v 0.009375 0.0741367927634 0.103472410864
v 0.00944085856461 0.0741025603474 0.103463238316
v 0.00950871871043 0.0740721936137 0.103455101574
v 0.00957833751577 0.0740458012672 0.103448029767
v 0.00964946576337 0.0740234777858 0.103442048208
v 0.00972184883255 0.0740053030816 0.10343717831
v 0.00979522761073 0.0739913422155 0.103433437508
v 0.00986933942092 0.0739816451636 0.10343083919
v 0.00994391896206 0.073976246639 0.10342939266
v 0.0100186992588 0.0739751659669 0.103429103095
v 0.010093412617 0.0739784070158 0.103429971531
v 0.0101677915823 0.0739859581837 0.103431994861
v 0.0102415698972 0.0739977924394 0.10343516584
v 0.0103144834547 0.0740138674192 0.103439473118
v 0.010386271243 0.0740341255789 0.103444901275
v 0.0104566762805 0.0740584943995 0.103451430881
v 0.0105254465354 0.0740868866471 0.103459038561
v 0.0105923358281 0.0741192006846 0.103467697081
v 0.0106571047123 0.0741553208364 0.103477375447
v 0.0107195213321 0.0741951178015 0.103488039011
v 0.0107793622523 0.0742384491171 0.103499649602
v 0.0108364132579 0.0742851596685 0.103512165657
v 0.0108904701212 0.074335082244 0.103525542371
v 0.0109413393325 0.0743880381337 0.103539731859
v 0.0109888387933 0.0744438377692 0.103554683326
v 0.0110327984679 0.0745022814024 0.10357034325
v 0.011073060992 0.0745631598201 0.103586655573
v 0.0111094822363 0.0746262550936 0.103603561901
v 0.0111419318221 0.074691341358 0.103621001713
v 0.0111702935883 0.0747581856214 0.103638912579
v 0.0111944660072 0.0748265485988 0.103657230384
v 0.0112143625479 0.0748961855684 0.103675889553
v 0.0112299119857 0.0749668472479 0.103694823293
v 0.0112410586579 0.0750382806868 0.103713963826
v 0.0112477626622 0.075110230172 0.103733242632
v 0.01125 0.0751824381431 0.103752590699
v -0.00875 0.0751824381431 0.103752590699
v -0.00875223733779 0.0752546461141 0.103771938767
v -0.00875894134207 0.0753265955993 0.103791217573
v -0.00877008801425 0.0753980290382 0.103810358106
v -0.00878563745213 0.0754686907177 0.103829291846
v -0.00880553399277 0.0755383276873 0.103847951015
v -0.0088297064117 0.0756066906647 0.10386626882
v -0.00885806817795 0.0756735349281 0.103884179686
v -0.00889051776374 0.0757386211925 0.103901619498
v -0.008926939008 0.075801716466 0.103918525826
v -0.00896720153211 0.0758625948837 0.103934838149
v -0.00901116120668 0.0759210385169 0.103950498073
v -0.0090586606675 0.0759768381524 0.10396544954
v -0.00910952987881 0.0760297940421 0.103979639028
v -0.00916358674205 0.0760797166176 0.103993015742
v -0.00922063774768 0.076126427169 0.104005531797
v -0.00928047866789 0.0761697584846 0.104017142388
v -0.00934289528774 0.0762095554497 0.104027805952
v -0.00940766417191 0.0762456756015 0.104037484318
v -0.00947455346461 0.076277989639 0.104046142838
v -0.00954332371954 0.0763063818866 0.104053750518
v -0.00961372875703 0.0763307507072 0.104060280124
v -0.00968551654532 0.0763510088669 0.104065708281
v -0.00975843010276 0.0763670838467 0.104070015559
v -0.00983220841773 0.0763789181024 0.104073186538
v -0.00990658738302 0.0763864692703 0.104075209868
v -0.00998130074123 0.0763897103192 0.104076078304
v -0.0100560810379 0.0763886296471 0.104075788739
v -0.0101306605791 0.0763832311225 0.104074342209
v -0.0102047723893 0.0763735340706 0.104071743891
v -0.0102781511674 0.0763595732045 0.104068003089
v -0.0103505342366 0.0763413985003 0.104063133191
v -0.0104216624842 0.0763190750189 0.104057151632
v -0.0104912812896 0.0762926826724 0.104050079825
v -0.0105591414354 0.0762623159387 0.104041943083
v -0.010625 0.0762280835227 0.104032770535
v -0.0106886212268 0.0761901079677 0.104022595015
v -0.0107497773684 0.0761485252162 0.104011452951
v -0.0108082495015 0.0761034841237 0.103999384226
v -0.0108638283112 0.0760551459257 0.103986432045
v -0.0109163148398 0.0760036836602 0.103972642773
v -0.010965521199 0.075949281549 0.103958065771
v -0.011011271243 0.0758921343374 0.103942753222
v -0.0110534011983 0.0758324465977 0.10392675994
v -0.0110917602508 0.0757704319963 0.103910143178
v -0.0111262110849 0.0757063125296 0.103892962418
v -0.0111566303756 0.0756403177285 0.103875279165
v -0.0111829092297 0.0755726838374 0.103857156718
v -0.0112049535759 0.0755036529679 0.103838659952
v -0.0112226845009 0.0754334722327 0.103819855081
v -0.0112360385328 0.0753623928607 0.103800809421
v -0.0112449678675 0.0752906692975 0.10378159115
v -0.0112494405404 0.0752185582948 0.103762269065
v -0.0112494405404 0.0751463179913 0.103742912334
v -0.0112449678675 0.0750742069887 0.103723590249
v -0.0112360385328 0.0750024834254 0.103704371978
v -0.0112226845009 0.0749314040534 0.103685326318
v -0.0112049535759 0.0748612233182 0.103666521447
v -0.0111829092297 0.0747921924488 0.103648024681
v -0.0111566303756 0.0747245585576 0.103629902234
v -0.0111262110849 0.0746585637565 0.103612218981
v -0.0110917602508 0.0745944442898 0.103595038221
v -0.0110534011983 0.0745324296885 0.103578421459
v -0.011011271243 0.0744727419487 0.103562428177
v -0.010965521199 0.0744155947371 0.103547115628
v -0.0109163148398 0.0743611926259 0.103532538626
v -0.0108638283112 0.0743097303605 0.103518749354
v -0.0108082495015 0.0742613921624 0.103505797173
v -0.0107497773684 0.0742163510699 0.103493728448
v -0.0106886212268 0.0741747683184 0.103482586384
v -0.010625 0.0741367927634 0.103472410864
v -0.0105591414354 0.0741025603474 0.103463238316
v -0.0104912812896 0.0740721936137 0.103455101574
v -0.0104216624842 0.0740458012672 0.103448029767
v -0.0103505342366 0.0740234777858 0.103442048208
v -0.0102781511674 0.0740053030816 0.10343717831
v -0.0102047723893 0.0739913422155 0.103433437508
v -0.0101306605791 0.0739816451636 0.10343083919
v -0.0100560810379 0.073976246639 0.10342939266
v -0.00998130074123 0.0739751659669 0.103429103095
v -0.00990658738302 0.0739784070158 0.103429971531
v -0.00983220841773 0.0739859581837 0.103431994861
v -0.00975843010276 0.0739977924394 0.10343516584
v -0.00968551654532 0.0740138674192 0.103439473118
v -0.00961372875703 0.0740341255789 0.103444901275
v -0.00954332371954 0.0740584943995 0.103451430881
v -0.00947455346461 0.0740868866471 0.103459038561
v -0.00940766417191 0.0741192006846 0.103467697081
v -0.00934289528774 0.0741553208364 0.103477375447
v -0.00928047866789 0.0741951178015 0.103488039011
v -0.00922063774768 0.0742384491171 0.103499649602
v -0.00916358674205 0.0742851596685 0.103512165657
v -0.00910952987881 0.074335082244 0.103525542371
v -0.0090586606675 0.0743880381337 0.103539731859
v -0.00901116120668 0.0744438377692 0.103554683326
v -0.00896720153211 0.0745022814024 0.10357034325
v -0.008926939008 0.0745631598201 0.103586655573
v -0.00889051776374 0.0746262550936 0.103603561901
v -0.00885806817795 0.074691341358 0.103621001713
v -0.0088297064117 0.0747581856214 0.103638912579
v -0.00880553399277 0.0748265485988 0.103657230384
v -0.00878563745213 0.0748961855684 0.103675889553
v -0.00877008801425 0.0749668472479 0.103694823293
v -0.00875894134207 0.0750382806868 0.103713963826
v -0.00875223733779 0.075110230172 0.103733242632
v 0.01125 0.0751824381431 0.103752590699
v 0.0112477626622 0.0752546461141 0.103771938767
v 0.0112410586579 0.0753265955993 0.103791217573
v 0.0112299119857 0.0753980290382 0.103810358106
v 0.0112143625479 0.0754686907177 0.103829291846
v 0.0111944660072 0.0755383276873 0.103847951015
v 0.0111702935883 0.0756066906647 0.10386626882
v 0.0111419318221 0.0756735349281 0.103884179686
v 0.0111094822363 0.0757386211925 0.103901619498
v 0.011073060992 0.075801716466 0.103918525826
v 0.0110327984679 0.0758625948837 0.103934838149
v 0.0109888387933 0.0759210385169 0.103950498073
v 0.0109413393325 0.0759768381524 0.10396544954
v 0.0108904701212 0.0760297940421 0.103979639028
v 0.0108364132579 0.0760797166176 0.103993015742
v 0.0107793622523 0.076126427169 0.104005531797
v 0.0107195213321 0.0761697584846 0.104017142388
v 0.0106571047123 0.0762095554497 0.104027805952
v 0.0105923358281 0.0762456756015 0.104037484318
v 0.0105254465354 0.076277989639 0.104046142838
v 0.0104566762805 0.0763063818866 0.104053750518
v 0.010386271243 0.0763307507072 0.104060280124
v 0.0103144834547 0.0763510088669 0.104065708281
v 0.0102415698972 0.0763670838467 0.104070015559
v 0.0101677915823 0.0763789181024 0.104073186538
v 0.010093412617 0.0763864692703 0.104075209868
v 0.0100186992588 0.0763897103192 0.104076078304
v 0.00994391896206 0.0763886296471 0.104075788739
v 0.00986933942092 0.0763832311225 0.104074342209
v 0.00979522761073 0.0763735340706 0.104071743891
v 0.00972184883255 0.0763595732045 0.104068003089
v 0.00964946576337 0.0763413985003 0.104063133191
v 0.00957833751577 0.0763190750189 0.104057151632
v 0.00950871871043 0.0762926826724 0.104050079825
v 0.00944085856461 0.0762623159387 0.104041943083
v 0.009375 0.0762280835227 0.104032770535
v 0.00931137877318 0.0761901079677 0.104022595015
v 0.00925022263164 0.0761485252162 0.104011452951
v 0.00919175049848 0.0761034841237 0.103999384226
v 0.00913617168877 0.0760551459257 0.103986432045
v 0.00908368516021 0.0760036836602 0.103972642773
v 0.00903447880097 0.075949281549 0.103958065771
v 0.00898872875703 0.0758921343374 0.103942753222
v 0.00894659880168 0.0758324465977 0.10392675994
v 0.00890823974923 0.0757704319963 0.103910143178
v 0.00887378891512 0.0757063125296 0.103892962418
v 0.00884336962441 0.0756403177285 0.103875279165
v 0.00881709077025 0.0755726838374 0.103857156718
v 0.00879504642413 0.0755036529679 0.103838659952
v 0.00877731549908 0.0754334722327 0.103819855081
v 0.00876396146722 0.0753623928607 0.103800809421
v 0.00875503213251 0.0752906692975 0.10378159115
v 0.00875055945965 0.0752185582948 0.103762269065
v 0.00875055945965 0.0751463179913 0.103742912334
v 0.00875503213251 0.0750742069887 0.103723590249
v 0.00876396146722 0.0750024834254 0.103704371978
v 0.00877731549908 0.0749314040534 0.103685326318
v 0.00879504642413 0.0748612233182 0.103666521447
v 0.00881709077025 0.0747921924488 0.103648024681
v 0.00884336962441 0.0747245585576 0.103629902234
v 0.00887378891512 0.0746585637565 0.103612218981
v 0.00890823974923 0.0745944442898 0.103595038221
v 0.00894659880168 0.0745324296885 0.103578421459
v 0.00898872875703 0.0744727419487 0.103562428177
v 0.00903447880097 0.0744155947371 0.103547115628
v 0.00908368516021 0.0743611926259 0.103532538626
v 0.00913617168877 0.0743097303605 0.103518749354
v 0.00919175049848 0.0742613921624 0.103505797173
v 0.00925022263164 0.0742163510699 0.103493728448
v 0.00931137877318 0.0741747683184 0.103482586384
v 0.009375 0.0741367927634 0.103472410864
v 0.00944085856461 0.0741025603474 0.103463238316
v 0.00950871871043 0.0740721936137 0.103455101574
v 0.00957833751577 0.0740458012672 0.103448029767
v 0.00964946576337 0.0740234777858 0.103442048208
v 0.00972184883255 0.0740053030816 0.10343717831
v 0.00979522761073 0.0739913422155 0.103433437508
v 0.00986933942092 0.0739816451636 0.10343083919
v 0.00994391896206 0.073976246639 0.10342939266
v 0.0100186992588 0.0739751659669 0.103429103095
v 0.010093412617 0.0739784070158 0.103429971531
v 0.0101677915823 0.0739859581837 0.103431994861
v 0.0102415698972 0.0739977924394 0.10343516584
v 0.0103144834547 0.0740138674192 0.103439473118
v 0.010386271243 0.0740341255789 0.103444901275
v 0.0104566762805 0.0740584943995 0.103451430881
v 0.0105254465354 0.0740868866471 0.103459038561
v 0.0105923358281 0.0741192006846 0.103467697081
v 0.0106571047123 0.0741553208364 0.103477375447
v 0.0107195213321 0.0741951178015 0.103488039011
v 0.0107793622523 0.0742384491171 0.103499649602
v 0.0108364132579 0.0742851596685 0.103512165657
v 0.0108904701212 0.074335082244 0.103525542371
v 0.0109413393325 0.0743880381337 0.103539731859
v 0.0109888387933 0.0744438377692 0.103554683326
v 0.0110327984679 0.0745022814024 0.10357034325
v 0.011073060992 0.0745631598201 0.103586655573
v 0.0111094822363 0.0746262550936 0.103603561901
v 0.0111419318221 0.074691341358 0.103621001713
v 0.0111702935883 0.0747581856214 0.103638912579
v 0.0111944660072 0.0748265485988 0.103657230384
v 0.0112143625479 0.0748961855684 0.103675889553
v 0.0112299119857 0.0749668472479 0.103694823293
v 0.0112410586579 0.0750382806868 0.103713963826
v 0.0112477626622 0.075110230172 0.103733242632
f 1 4 3
f 1 2 4
f 23 20 21
f 23 21 22
f 15 16 17
f 24 19 20
f 24 20 23
f 14 17 18
f 14 15 17
f 12 13 14
f 12 18 19
f 12 14 18
f 27 24 25
f 27 25 26
f 10 11 12
f 10 12 19
f 29 27 28
f 29 24 27
f 31 29 30
f 32 29 31
f 33 19 24
f 33 24 29
f 33 29 32
f 5 7 8
f 5 8 9
f 5 9 10
f 5 10 19
f 5 19 33
f 182 5 183
f 184 183 5
f 181 5 182
f 185 184 5
f 180 5 181
f 186 185 5
f 179 5 180
f 187 186 5
f 178 5 179
f 188 187 5
f 177 5 178
f 189 188 5
f 176 5 177
f 190 189 5
f 175 5 176
f 191 190 5
f 174 5 175
f 192 191 5
f 173 5 174
f 193 192 5
f 193 5 33
f 172 5 173
f 194 193 33
f 171 5 172
f 195 194 33
f 170 5 171
f 196 195 33
f 169 5 170
f 197 196 33
f 198 197 33
f 199 198 33
f 200 199 33
f 201 200 33
f 202 201 33
f 203 202 33
f 204 203 33
f 205 204 33
f 34 205 33
f 6 5 169
f 6 147 146
f 6 148 147
f 6 149 148
f 6 150 149
f 6 151 150
f 6 152 151
f 6 153 152
f 6 154 153
f 6 155 154
f 6 156 155
f 6 157 156
f 6 158 157
f 6 159 158
f 6 160 159
f 6 161 160
f 6 162 161
f 6 163 162
f 6 164 163
f 6 165 164
f 6 166 165
f 6 167 166
f 6 168 167
f 6 169 168
f 59 61 60
f 93 92 91
f 94 93 91
f 57 59 58
f 56 59 57
f 56 61 59
f 96 91 6
f 96 94 91
f 96 95 94
f 55 61 56
f 97 96 6
f 54 34 61
f 54 61 55
f 98 97 6
f 100 99 98
f 101 100 98
f 51 53 52
f 51 54 53
f 50 54 51
f 102 98 6
f 102 101 98
f 104 103 102
f 48 34 54
f 48 50 49
f 48 54 50
f 105 104 102
f 46 48 47
f 107 106 105
f 44 46 45
f 44 48 46
f 109 108 107
f 109 107 105
f 43 48 44
f 42 48 43
f 111 110 109
f 111 109 105
f 41 34 48
f 41 48 42
f 112 102 6
f 112 105 102
f 112 111 105
f 39 41 40
f 39 34 41
f 114 113 112
f 38 34 39
f 115 112 6
f 115 114 112
f 90 116 115
f 90 6 146
f 90 135 134
f 90 136 135
f 90 137 136
f 90 138 137
f 90 139 138
f 90 140 139
f 90 141 140
f 90 142 141
f 90 143 142
f 90 144 143
f 90 145 144
f 90 146 145
f 90 115 6
f 35 37 36
f 35 38 37
f 35 34 38
f 288 209 208
f 287 210 209
f 287 209 288
f 289 208 207
f 289 288 208
f 286 211 210
f 286 210 287
f 290 207 206
f 290 289 207
f 285 212 211
f 285 211 286
f 291 290 206
f 291 205 34
f 291 206 205
f 284 212 285
f 284 213 212
f 292 291 34
f 283 214 213
f 283 213 284
f 293 292 34
f 282 215 214
f 282 214 283
f 294 293 34
f 281 216 215
f 281 215 282
f 295 294 34
f 280 217 216
f 280 216 281
f 296 295 34
f 279 218 217
f 279 217 280
f 297 296 34
f 278 219 218
f 278 218 279
f 298 297 34
f 277 219 278
f 277 220 219
f 299 298 34
f 276 221 220
f 276 220 277
f 300 299 34
f 275 117 221
f 275 221 276
f 301 300 34
f 274 118 117
f 274 117 275
f 302 301 34
f 273 119 118
f 273 118 274
f 303 302 34
f 303 34 35
f 272 120 119
f 272 119 273
f 304 303 35
f 271 121 120
f 271 120 272
f 305 304 35
f 270 122 121
f 270 121 271
f 306 305 35
f 269 123 122
f 269 122 270
f 307 306 35
f 268 123 269
f 268 124 123
f 308 307 35
f 267 125 124
f 267 124 268
f 309 308 35
f 266 126 125
f 266 125 267
f 310 309 35
f 265 127 126
f 265 126 266
f 311 310 35
f 264 128 127
f 264 127 265
f 312 311 35
f 263 129 128
f 263 128 264
f 313 312 35
f 262 130 129
f 262 129 263
f 314 313 35
f 261 131 130
f 261 130 262
f 315 314 35
f 260 132 131
f 260 131 261
f 316 315 35
f 259 132 260
f 259 133 132
f 317 316 35
f 258 134 133
f 258 133 259
f 318 317 35
f 319 318 35
f 320 319 35
f 321 320 35
f 322 321 35
f 323 322 35
f 324 323 35
f 325 324 35
f 326 325 35
f 222 326 35
f 62 223 222
f 62 224 223
f 62 225 224
f 62 226 225
f 62 227 226
f 62 228 227
f 62 229 228
f 62 230 229
f 62 231 230
f 62 232 231
f 62 233 232
f 62 234 233
f 62 235 234
f 62 236 235
f 62 237 236
f 62 238 237
f 62 239 238
f 62 240 239
f 62 241 240
f 62 242 241
f 62 243 242
f 62 244 243
f 62 245 244
f 62 246 245
f 62 222 35
f 89 134 258
f 89 247 246
f 89 248 247
f 89 249 248
f 89 250 249
f 89 251 250
f 89 252 251
f 89 253 252
f 89 254 253
f 89 255 254
f 89 256 255
f 89 257 256
f 89 258 257
f 89 246 62
f 89 90 134
f 88 89 62
f 86 62 63
f 86 63 64
f 86 64 65
f 86 87 88
f 86 88 62
f 68 65 66
f 68 66 67
f 83 84 85
f 83 85 86
f 69 65 68
f 82 83 86
f 70 65 69
f 81 82 86
f 79 86 65
f 79 65 70
f 79 81 86
f 79 70 71
f 79 71 72
f 79 80 81
f 78 79 72
f 78 72 73
f 77 78 73
f 77 73 74
f 76 77 74
f 76 74 75
f 357 327 328
f 357 328 329
f 357 356 327
f 358 357 329
f 359 329 330
f 359 330 331
f 359 358 329
f 360 359 331
f 361 331 332
f 361 332 333
f 361 360 331
f 362 361 333
f 363 333 334
f 363 362 333
f 364 334 335
f 364 363 334
f 365 335 336
f 365 364 335
f 366 365 336
f 366 336 337
f 367 366 337
f 367 337 338
f 368 367 338
f 368 338 339
f 368 339 340
f 369 368 340
f 370 369 340
f 370 340 341
f 371 341 342
f 371 370 341
f 372 342 343
f 372 371 342
f 373 343 344
f 373 372 343
f 374 344 345
f 374 373 344
f 375 345 346
f 375 374 345
f 376 346 347
f 376 375 346
f 377 347 348
f 377 376 347
f 378 348 349
f 378 377 348
f 379 349 350
f 379 350 351
f 379 378 349
f 380 351 352
f 380 379 351
f 381 352 353
f 381 380 352
f 382 381 353
f 355 353 354
f 355 382 353
f 413 384 383
f 413 383 412
f 414 385 384
f 414 384 413
f 415 386 385
f 415 385 414
f 416 387 386
f 416 388 387
f 416 386 415
f 417 388 416
f 418 389 388
f 418 388 417
f 419 390 389
f 419 389 418
f 420 391 390
f 420 392 391
f 420 390 419
f 421 393 392
f 421 392 420
f 422 393 421
f 423 393 422
f 423 394 393
f 423 395 394
f 424 395 423
f 425 396 395
f 425 395 424
f 426 397 396
f 426 396 425
f 426 398 397
f 427 398 426
f 428 399 398
f 428 400 399
f 428 398 427
f 429 400 428
f 430 401 400
f 430 402 401
f 430 400 429
f 431 402 430
f 432 403 402
f 432 402 431
f 433 404 403
f 433 405 404
f 433 403 432
f 434 405 433
f 435 406 405
f 435 407 406
f 435 405 434
f 436 407 435
f 437 408 407
f 437 409 408
f 437 407 436
f 438 409 437
f 411 410 409
f 411 409 438
f 458 455 454
f 458 456 455
f 458 457 456
f 448 450 449
f 448 451 450
f 448 452 451
f 462 459 458
f 462 460 459
f 462 461 460
f 442 444 443
f 442 445 444
f 442 446 445
f 442 447 446
f 442 448 447
f 465 463 462
f 465 464 463
f 466 453 452
f 466 454 453
f 466 458 454
f 466 465 462
f 466 462 458
f 467 441 439
f 467 442 441
f 467 452 448
f 467 448 442
f 467 466 452
f 493 494 495
f 493 495 468
f 527 440 525
f 527 525 526
f 492 493 468
f 529 527 528
f 490 491 492
f 489 490 492
f 489 492 468
f 531 529 530
f 532 529 531
f 533 440 527
f 533 527 529
f 533 529 532
f 486 487 488
f 485 486 488
f 485 488 489
f 485 489 468
f 535 533 534
f 536 533 535
f 536 440 533
f 483 485 468
f 483 484 485
f 537 440 536
f 538 440 537
f 481 482 483
f 541 539 540
f 541 440 538
f 541 538 539
f 479 480 481
f 478 481 483
f 478 479 481
f 543 541 542
f 543 440 541
f 477 483 468
f 477 478 483
f 475 476 477
f 475 477 468
f 546 543 544
f 546 544 545
f 547 543 546
f 473 474 475
f 548 440 543
f 548 543 547
f 549 440 548
f 471 472 473
f 471 475 468
f 471 473 475
f 524 439 440
f 524 549 550
f 524 467 439
f 524 440 549
f 469 468 467
f 469 470 471
f 469 471 468
f 523 469 467
f 523 467 524
f 496 469 523
f 497 496 523
f 521 498 497
f 521 523 522
f 521 497 523
f 518 499 498
f 518 520 519
f 518 521 520
f 518 498 521
f 517 499 518
f 517 500 499
f 517 501 500
f 517 502 501
f 515 517 516
f 515 502 517
f 505 504 503
f 514 502 515
f 514 503 502
f 513 505 503
f 513 503 514
f 513 506 505
f 512 506 513
f 512 507 506
f 511 507 512
f 511 508 507
f 510 508 511
f 510 509 508
f 554 551 552
f 554 553 551
f 556 555 557
f 558 556 557
f 589 560 559
f 589 561 560
f 589 559 588
f 590 561 589
f 591 562 561
f 591 563 562
f 591 561 590
f 592 563 591
f 593 564 563
f 593 565 564
f 593 563 592
f 594 565 593
f 595 566 565
f 595 565 594
f 596 567 566
f 596 566 595
f 597 568 567
f 597 567 596
f 598 568 597
f 598 569 568
f 599 569 598
f 599 570 569
f 600 570 599
f 600 571 570
f 600 572 571
f 601 572 600
f 602 572 601
f 602 573 572
f 603 574 573
f 603 573 602
f 604 575 574
f 604 574 603
f 605 576 575
f 605 575 604
f 606 577 576
f 606 576 605
f 607 578 577
f 607 577 606
f 608 579 578
f 608 578 607
f 609 580 579
f 609 579 608
f 610 581 580
f 610 580 609
f 611 582 581
f 611 583 582
f 611 581 610
f 612 584 583
f 612 583 611
f 613 585 584
f 613 584 612
f 614 585 613
f 587 586 585
f 587 585 614
f 645 615 616
f 645 644 615
f 646 616 617
f 646 645 616
f 647 617 618
f 647 646 617
f 648 618 619
f 648 619 620
f 648 647 618
f 649 648 620
f 650 620 621
f 650 649 620
f 651 621 622
f 651 650 621
f 652 622 623
f 652 623 624
f 652 651 622
f 653 624 625
f 653 652 624
f 654 653 625
f 655 654 625
f 655 625 626
f 655 626 627
f 656 655 627
f 657 627 628
f 657 656 627
f 658 628 629
f 658 657 628
f 658 629 630
f 659 658 630
f 660 630 631
f 660 631 632
f 660 659 630
f 661 660 632
f 662 632 633
f 662 633 634
f 662 661 632
f 663 662 634
f 664 634 635
f 664 663 634
f 665 635 636
f 665 636 637
f 665 664 635
f 666 665 637
f 667 637 638
f 667 638 639
f 667 666 637
f 668 667 639
f 669 639 640
f 669 640 641
f 669 668 639
f 670 669 641
f 643 641 642
f 643 670 641
f 671 673 674
f 671 674 672
f 676 781 675
f 676 782 781
f 677 783 782
f 677 782 676
f 678 784 783
f 678 783 677
f 679 785 784
f 679 784 678
f 680 786 785
f 680 785 679
f 681 787 786
f 681 786 680
f 682 788 787
f 682 787 681
f 683 789 788
f 683 790 789
f 683 788 682
f 684 790 683
f 685 791 790
f 685 790 684
f 686 792 791
f 686 791 685
f 687 793 792
f 687 792 686
f 688 794 793
f 688 793 687
f 689 795 794
f 689 794 688
f 690 796 795
f 690 795 689
f 691 797 796
f 691 796 690
f 692 798 797
f 692 797 691
f 693 799 798
f 693 798 692
f 694 800 799
f 694 799 693
f 695 801 800
f 695 800 694
f 696 802 801
f 696 801 695
f 697 802 696
f 697 803 802
f 698 803 697
f 698 804 803
f 699 804 698
f 699 805 804
f 700 805 699
f 700 806 805
f 700 807 806
f 701 807 700
f 702 807 701
f 702 808 807
f 703 808 702
f 703 809 808
f 704 809 703
f 704 810 809
f 705 810 704
f 705 811 810
f 706 812 811
f 706 811 705
f 707 813 812
f 707 814 813
f 707 812 706
f 708 814 707
f 709 815 814
f 709 814 708
f 710 816 815
f 710 815 709
f 711 817 816
f 711 816 710
f 712 818 817
f 712 817 711
f 713 819 818
f 713 820 819
f 713 818 712
f 714 820 713
f 715 821 820
f 715 820 714
f 716 822 821
f 716 821 715
f 717 823 822
f 717 822 716
f 718 824 823
f 718 823 717
f 719 825 824
f 719 824 718
f 720 826 825
f 720 825 719
f 721 827 826
f 721 826 720
f 722 828 827
f 722 827 721
f 723 828 722
f 723 829 828
f 724 829 723
f 724 830 829
f 725 830 724
f 725 831 830
f 726 831 725
f 726 832 831
f 727 832 726
f 727 833 832
f 728 833 727
f 728 834 833
f 729 834 728
f 729 835 834
f 730 835 729
f 730 836 835
f 731 836 730
f 731 837 836
f 732 837 731
f 732 838 837
f 733 838 732
f 733 839 838
f 734 839 733
f 734 840 839
f 735 840 734
f 735 841 840
f 736 841 735
f 736 842 841
f 737 842 736
f 737 843 842
f 738 843 737
f 738 844 843
f 739 844 738
f 739 845 844
f 740 846 845
f 740 845 739
f 741 847 846
f 741 846 740
f 742 848 847
f 742 847 741
f 743 849 848
f 743 848 742
f 744 850 849
f 744 849 743
f 745 851 850
f 745 850 744
f 746 852 851
f 746 851 745
f 747 852 746
f 747 853 852
f 748 853 747
f 748 854 853
f 749 854 748
f 749 855 854
f 750 855 749
f 750 856 855
f 751 856 750
f 751 857 856
f 752 857 751
f 752 858 857
f 753 858 752
f 753 859 858
f 754 859 753
f 754 860 859
f 754 861 860
f 755 861 754
f 756 861 755
f 756 862 861
f 757 862 756
f 757 863 862
f 758 863 757
f 758 864 863
f 759 864 758
f 759 865 864
f 760 865 759
f 760 866 865
f 761 866 760
f 761 867 866
f 762 867 761
f 762 868 867
f 763 868 762
f 763 869 868
f 764 869 763
f 764 870 869
f 765 870 764
f 765 871 870
f 766 871 765
f 766 872 871
f 767 872 766
f 767 873 872
f 768 873 767
f 768 874 873
f 769 874 768
f 769 875 874
f 770 875 769
f 770 876 875
f 771 877 876
f 771 876 770
f 772 878 877
f 772 877 771
f 773 878 772
f 773 879 878
f 774 880 879
f 774 879 773
f 775 881 880
f 775 880 774
f 776 882 881
f 776 881 775
f 777 883 882
f 777 882 776
f 778 884 883
f 778 883 777
f 779 885 884
f 779 884 778
f 780 885 779
f 780 886 885
f 888 993 887
f 888 994 993
f 889 995 994
f 889 994 888
f 890 996 995
f 890 995 889
f 891 997 996
f 891 996 890
f 892 998 997
f 892 997 891
f 893 999 998
f 893 998 892
f 894 1000 999
f 894 999 893
f 895 1001 1000
f 895 1002 1001
f 895 1000 894
f 896 1002 895
f 897 1003 1002
f 897 1002 896
f 898 1004 1003
f 898 1003 897
f 899 1005 1004
f 899 1004 898
f 900 1006 1005
f 900 1005 899
f 901 1007 1006
f 901 1006 900
f 902 1008 1007
f 902 1007 901
f 903 1009 1008
f 903 1008 902
f 904 1010 1009
f 904 1009 903
f 905 1011 1010
f 905 1010 904
f 906 1012 1011
f 906 1011 905
f 907 1013 1012
f 907 1012 906
f 908 1014 1013
f 908 1013 907
f 909 1014 908
f 909 1015 1014
f 910 1015 909
f 910 1016 1015
f 911 1016 910
f 911 1017 1016
f 912 1017 911
f 912 1018 1017
f 912 1019 1018
f 913 1019 912
f 914 1019 913
f 914 1020 1019
f 915 1020 914
f 915 1021 1020
f 916 1021 915
f 916 1022 1021
f 917 1022 916
f 917 1023 1022
f 918 1024 1023
f 918 1023 917
f 919 1025 1024
f 919 1026 1025
f 919 1024 918
f 920 1026 919
f 921 1027 1026
f 921 1026 920
f 922 1028 1027
f 922 1027 921
f 923 1029 1028
f 923 1028 922
f 924 1030 1029
f 924 1029 923
f 925 1031 1030
f 925 1032 1031
f 925 1030 924
f 926 1032 925
f 927 1033 1032
f 927 1032 926
f 928 1034 1033
f 928 1033 927
f 929 1035 1034
f 929 1034 928
f 930 1036 1035
f 930 1035 929
f 931 1037 1036
f 931 1036 930
f 932 1038 1037
f 932 1037 931
f 933 1039 1038
f 933 1038 932
f 934 1040 1039
f 934 1039 933
f 935 1040 934
f 935 1041 1040
f 936 1041 935
f 936 1042 1041
f 937 1042 936
f 937 1043 1042
f 938 1043 937
f 938 1044 1043
f 939 1044 938
f 939 1045 1044
f 940 1045 939
f 940 1046 1045
f 941 1046 940
f 941 1047 1046
f 942 1047 941
f 942 1048 1047
f 943 1048 942
f 943 1049 1048
f 944 1049 943
f 944 1050 1049
f 945 1050 944
f 945 1051 1050
f 946 1051 945
f 946 1052 1051
f 947 1052 946
f 947 1053 1052
f 948 1053 947
f 948 1054 1053
f 949 1054 948
f 949 1055 1054
f 950 1055 949
f 950 1056 1055
f 951 1056 950
f 951 1057 1056
f 952 1058 1057
f 952 1057 951
f 953 1059 1058
f 953 1058 952
f 954 1060 1059
f 954 1059 953
f 955 1061 1060
f 955 1060 954
f 956 1062 1061
f 956 1061 955
f 957 1063 1062
f 957 1062 956
f 958 1064 1063
f 958 1063 957
f 959 1064 958
f 959 1065 1064
f 960 1065 959
f 960 1066 1065
f 961 1066 960
f 961 1067 1066
f 962 1067 961
f 962 1068 1067
f 963 1068 962
f 963 1069 1068
f 964 1069 963
f 964 1070 1069
f 965 1070 964
f 965 1071 1070
f 966 1071 965
f 966 1072 1071
f 966 1073 1072
f 967 1073 966
f 968 1073 967
f 968 1074 1073
f 969 1074 968
f 969 1075 1074
f 970 1075 969
f 970 1076 1075
f 971 1076 970
f 971 1077 1076
f 972 1077 971
f 972 1078 1077
f 973 1078 972
f 973 1079 1078
f 974 1079 973
f 974 1080 1079
f 975 1080 974
f 975 1081 1080
f 976 1081 975
f 976 1082 1081
f 977 1082 976
f 977 1083 1082
f 978 1083 977
f 978 1084 1083
f 979 1084 978
f 979 1085 1084
f 980 1085 979
f 980 1086 1085
f 981 1086 980
f 981 1087 1086
f 982 1087 981
f 982 1088 1087
f 983 1089 1088
f 983 1088 982
f 984 1090 1089
f 984 1089 983
f 985 1090 984
f 985 1091 1090
f 986 1092 1091
f 986 1091 985
f 987 1093 1092
f 987 1092 986
f 988 1094 1093
f 988 1093 987
f 989 1095 1094
f 989 1094 988
f 990 1096 1095
f 990 1095 989
f 991 1097 1096
f 991 1096 990
f 992 1097 991
f 992 1098 1097
f 1169 1167 1168
f 1160 1161 1162
f 1175 1172 1173
f 1175 1173 1174
f 1176 1172 1175
f 1176 1169 1170
f 1176 1170 1171
f 1176 1171 1172
f 1179 1177 1178
f 1149 1150 1151
f 1147 1149 1151
f 1147 1148 1149
f 1147 1151 1152
f 1183 1177 1179
f 1183 1176 1177
f 1183 1179 1180
f 1183 1180 1181
f 1183 1181 1182
f 1145 1146 1147
f 1142 1143 1144
f 1188 1183 1184
f 1188 1184 1185
f 1188 1185 1186
f 1188 1186 1187
f 1140 1142 1144
f 1140 1141 1142
f 1190 1188 1189
f 1191 1188 1190
f 1138 1139 1140
f 1193 1191 1192
f 1193 1188 1191
f 1136 1137 1138
f 1136 1138 1140
f 1134 1136 1140
f 1134 1135 1136
f 1134 1144 1145
f 1134 1152 1153
f 1134 1153 1154
f 1134 1154 1155
f 1134 1155 1156
f 1134 1145 1147
f 1134 1156 1157
f 1134 1157 1158
f 1134 1158 1159
f 1134 1147 1152
f 1134 1140 1144
f 1196 1194 1195
f 1132 1133 1134
f 1198 1194 1196
f 1198 1193 1194
f 1198 1196 1197
f 1130 1131 1132
f 1129 1132 1134
f 1129 1130 1132
f 1201 1199 1200
f 1202 1199 1201
f 1202 1198 1199
f 1127 1128 1129
f 1100 1202 1203
f 1100 1203 1099
f 1100 1198 1202
f 1124 1125 1126
f 1124 1126 1127
f 1124 1127 1129
f 1122 1123 1124
f 1103 1100 1101
f 1103 1101 1102
f 1104 1193 1198
f 1104 1188 1193
f 1104 1167 1169
f 1104 1169 1176
f 1104 1198 1100
f 1104 1176 1183
f 1104 1166 1167
f 1104 1100 1103
f 1104 1183 1188
f 1120 1121 1122
f 1107 1104 1105
f 1107 1105 1106
f 1116 1117 1118
f 1116 1118 1119
f 1116 1119 1120
f 1116 1120 1122
f 1116 1122 1124
f 1109 1107 1108
f 1110 1107 1109
f 1114 1115 1116
f 1114 1116 1124
f 1113 1114 1124
f 1113 1134 1159
f 1113 1129 1134
f 1113 1160 1162
f 1113 1124 1129
f 1113 1159 1160
f 1113 1162 1163
f 1113 1163 1164
f 1113 1164 1165
f 1113 1165 1166
f 1112 1107 1110
f 1112 1110 1111
f 1112 1113 1166
f 1112 1104 1107
f 1112 1166 1104
f 1274 1272 1273
f 1265 1266 1267
f 1280 1277 1278
f 1280 1278 1279
f 1281 1277 1280
f 1281 1274 1275
f 1281 1275 1276
f 1281 1276 1277
f 1284 1282 1283
f 1254 1255 1256
f 1252 1254 1256
f 1252 1253 1254
f 1252 1256 1257
f 1288 1282 1284
f 1288 1281 1282
f 1288 1284 1285
f 1288 1285 1286
f 1288 1286 1287
f 1250 1251 1252
f 1247 1248 1249
f 1293 1288 1289
f 1293 1289 1290
f 1293 1290 1291
f 1293 1291 1292
f 1245 1247 1249
f 1245 1246 1247
f 1295 1293 1294
f 1296 1293 1295
f 1243 1244 1245
f 1298 1296 1297
f 1298 1293 1296
f 1241 1242 1243
f 1241 1243 1245
f 1239 1241 1245
f 1239 1240 1241
f 1239 1249 1250
f 1239 1257 1258
f 1239 1258 1259
f 1239 1259 1260
f 1239 1260 1261
f 1239 1250 1252
f 1239 1261 1262
f 1239 1262 1263
f 1239 1263 1264
f 1239 1252 1257
f 1239 1245 1249
f 1301 1299 1300
f 1237 1238 1239
f 1303 1299 1301
f 1303 1298 1299
f 1303 1301 1302
f 1235 1236 1237
f 1234 1237 1239
f 1234 1235 1237
f 1306 1304 1305
f 1307 1304 1306
f 1307 1303 1304
f 1232 1233 1234
f 1205 1307 1308
f 1205 1308 1204
f 1205 1303 1307
f 1229 1230 1231
f 1229 1231 1232
f 1229 1232 1234
f 1227 1228 1229
f 1208 1205 1206
f 1208 1206 1207
f 1209 1298 1303
f 1209 1293 1298
f 1209 1272 1274
f 1209 1274 1281
f 1209 1303 1205
f 1209 1281 1288
f 1209 1271 1272
f 1209 1205 1208
f 1209 1288 1293
f 1225 1226 1227
f 1212 1209 1210
f 1212 1210 1211
f 1221 1222 1223
f 1221 1223 1224
f 1221 1224 1225
f 1221 1225 1227
f 1221 1227 1229
f 1214 1212 1213
f 1215 1212 1214
f 1219 1220 1221
f 1219 1221 1229
f 1218 1219 1229
f 1218 1239 1264
f 1218 1234 1239
f 1218 1265 1267
f 1218 1229 1234
f 1218 1264 1265
f 1218 1267 1268
f 1218 1268 1269
f 1218 1269 1270
f 1218 1270 1271
f 1217 1212 1215
f 1217 1215 1216
f 1217 1218 1271
f 1217 1209 1212
f 1217 1271 1209
