v -0.005 0.066 0.03775
v -0.0050053696107 0.0661794124618 0.03775
v -0.00502145922097 0.0663581826736 0.03775
v -0.0050482112342 0.0665356706844 0.03775
v -0.00508552988512 0.0667112411331 0.03775
v -0.00513328158264 0.0668842655232 0.03775
v -0.00519129538808 0.0670541244722 0.03775
v -0.00525936362707 0.0672202099292 0.03775
v -0.00533724263299 0.0673819273514 0.03775
v -0.00542465361919 0.0675386978322 0.03775
v -0.00552128367705 0.0676899601742 0.03775
v -0.00562678689603 0.0678351728973 0.03775
v -0.00574078560199 0.0679738161778 0.03775
v -0.00586287170915 0.0681053937087 0.03775
v -0.00599260818092 0.0682294344764 0.03775
v -0.00612953059442 0.0683454944474 0.03775
v -0.00627314880294 0.068453158157 0.03775
v -0.00642294869057 0.0685520401971 0.03775
v -0.00657839401258 0.0686417865956 0.03775
v -0.00673892831507 0.0687220760837 0.03775
v -0.0069039769269 0.0687926212459 0.03775
v -0.00707294901688 0.0688531695489 0.03775
v -0.00724523970877 0.0689035042454 0.03775
v -0.00742023224661 0.0689434451502 0.03775
v -0.00759730020255 0.0689728492853 0.03775
v -0.00777580971924 0.0689916113915 0.03775
v -0.00795512177895 0.0689996643054 0.03775
v -0.00813459449105 0.0689969791996 0.03775
v -0.0083135853898 0.0689835656861 0.03775
v -0.00849145373425 0.0689594717818 0.03775
v -0.00866756280187 0.0689247837365 0.03775
v -0.00884128216792 0.0688796257246 0.03775
v -0.00901198996215 0.0688241594 0.03775
v -0.00917907509496 0.0687585833177 0.03775
v -0.00934193944495 0.068683132223 0.03775
v -0.0095 0.0685980762114 0.03775
v -0.00965269094436 0.0685037197612 0.03775
v -0.00979946568406 0.068400400644 0.03775
v -0.00993979880365 0.0682884887156 0.03775
v -0.010073187947 0.0681683845915 0.03775
v -0.0101991556155 0.0680405182133 0.03775
v -0.0103172508777 0.0679053473095 0.03775
v -0.0104270509831 0.0677633557569 0.03775
v -0.010528162876 0.0676150518483 0.03775
v -0.0106202246019 0.0674609664732 0.03775
v -0.0107029066037 0.0673016512174 0.03775
v -0.0107759129014 0.067137676388 0.03775
v -0.0108389821514 0.0669696289724 0.03775
v -0.0108918885821 0.0667981105367 0.03775
v -0.0109344428022 0.0666237350725 0.03775
v -0.0109664924787 0.0664471267985 0.03775
v -0.010987922882 0.0662689179267 0.03775
v -0.0109986572969 0.0660897463985 0.03775
v -0.0109986572969 0.0659102536015 0.03775
v -0.010987922882 0.0657310820733 0.03775
v -0.0109664924787 0.0655528732015 0.03775
v -0.0109344428022 0.0653762649275 0.03775
v -0.0108918885821 0.0652018894633 0.03775
v -0.0108389821514 0.0650303710276 0.03775
v -0.0107759129014 0.064862323612 0.03775
v -0.0107029066037 0.0646983487826 0.03775
v -0.0106202246019 0.0645390335268 0.03775
v -0.010528162876 0.0643849481517 0.03775
v -0.0104270509831 0.0642366442431 0.03775
v -0.0103172508777 0.0640946526905 0.03775
v -0.0101991556155 0.0639594817867 0.03775
v -0.010073187947 0.0638316154085 0.03775
v -0.00993979880365 0.0637115112844 0.03775
v -0.00979946568406 0.063599599356 0.03775
v -0.00965269094436 0.0634962802388 0.03775
v -0.0095 0.0634019237886 0.03775
v -0.00934193944495 0.063316867777 0.03775
v -0.00917907509496 0.0632414166823 0.03775
v -0.00901198996215 0.0631758406 0.03775
v -0.00884128216792 0.0631203742754 0.03775
v -0.00866756280187 0.0630752162635 0.03775
v -0.00849145373425 0.0630405282182 0.03775
v -0.0083135853898 0.0630164343139 0.03775
v -0.00813459449105 0.0630030208004 0.03775
v -0.00795512177895 0.0630003356946 0.03775
v -0.00777580971924 0.0630083886085 0.03775
v -0.00759730020255 0.0630271507147 0.03775
v -0.00742023224661 0.0630565548498 0.03775
v -0.00724523970877 0.0630964957546 0.03775
v -0.00707294901688 0.0631468304511 0.03775
v -0.0069039769269 0.0632073787541 0.03775
v -0.00673892831507 0.0632779239163 0.03775
v -0.00657839401258 0.0633582134044 0.03775
v -0.00642294869057 0.0634479598029 0.03775
v -0.00627314880294 0.063546841843 0.03775
v -0.00612953059442 0.0636545055526 0.03775
v -0.00599260818092 0.0637705655236 0.03775
v -0.00586287170915 0.0638946062913 0.03775
v -0.00574078560199 0.0640261838222 0.03775
v -0.00562678689603 0.0641648271027 0.03775
v -0.00552128367705 0.0643100398258 0.03775
v -0.00542465361919 0.0644613021678 0.03775
v -0.00533724263299 0.0646180726486 0.03775
v -0.00525936362707 0.0647797900708 0.03775
v -0.00519129538808 0.0649458755278 0.03775
v -0.00513328158264 0.0651157344768 0.03775
v -0.00508552988512 0.0652887588669 0.03775
v -0.0050482112342 0.0654643293156 0.03775
v -0.00502145922097 0.0656418173264 0.03775
v -0.0050053696107 0.0658205875382 0.03775
v -0.005 0.066 0.03775
v -0.005 0.066 0.03725
v -0.0050053696107 0.0661794124618 0.03725
v -0.00502145922097 0.0663581826736 0.03725
v -0.0050482112342 0.0665356706844 0.03725
v -0.00508552988512 0.0667112411331 0.03725
v -0.00513328158264 0.0668842655232 0.03725
v -0.00519129538808 0.0670541244722 0.03725
v -0.00525936362707 0.0672202099292 0.03725
v -0.00533724263299 0.0673819273514 0.03725
v -0.00542465361919 0.0675386978322 0.03725
v -0.00552128367705 0.0676899601742 0.03725
v -0.00562678689603 0.0678351728973 0.03725
v -0.00574078560199 0.0679738161778 0.03725
v -0.00586287170915 0.0681053937087 0.03725
v -0.00599260818092 0.0682294344764 0.03725
v -0.00612953059442 0.0683454944474 0.03725
v -0.00627314880294 0.068453158157 0.03725
v -0.00642294869057 0.0685520401971 0.03725
v -0.00657839401258 0.0686417865956 0.03725
v -0.00673892831507 0.0687220760837 0.03725
v -0.0069039769269 0.0687926212459 0.03725
v -0.00707294901688 0.0688531695489 0.03725
v -0.00724523970877 0.0689035042454 0.03725
v -0.00742023224661 0.0689434451502 0.03725
v -0.00759730020255 0.0689728492853 0.03725
v -0.00777580971924 0.0689916113915 0.03725
v -0.00795512177895 0.0689996643054 0.03725
v -0.00813459449105 0.0689969791996 0.03725
v -0.0083135853898 0.0689835656861 0.03725
v -0.00849145373425 0.0689594717818 0.03725
v -0.00866756280187 0.0689247837365 0.03725
v -0.00884128216792 0.0688796257246 0.03725
v -0.00901198996215 0.0688241594 0.03725
v -0.00917907509496 0.0687585833177 0.03725
v -0.00934193944495 0.068683132223 0.03725
v -0.0095 0.0685980762114 0.03725
v -0.00965269094436 0.0685037197612 0.03725
v -0.00979946568406 0.068400400644 0.03725
v -0.00993979880365 0.0682884887156 0.03725
v -0.010073187947 0.0681683845915 0.03725
v -0.0101991556155 0.0680405182133 0.03725
v -0.0103172508777 0.0679053473095 0.03725
v -0.0104270509831 0.0677633557569 0.03725
v -0.010528162876 0.0676150518483 0.03725
v -0.0106202246019 0.0674609664732 0.03725
v -0.0107029066037 0.0673016512174 0.03725
v -0.0107759129014 0.067137676388 0.03725
v -0.0108389821514 0.0669696289724 0.03725
v -0.0108918885821 0.0667981105367 0.03725
v -0.0109344428022 0.0666237350725 0.03725
v -0.0109664924787 0.0664471267985 0.03725
v -0.010987922882 0.0662689179267 0.03725
v -0.0109986572969 0.0660897463985 0.03725
v -0.0109986572969 0.0659102536015 0.03725
v -0.010987922882 0.0657310820733 0.03725
v -0.0109664924787 0.0655528732015 0.03725
v -0.0109344428022 0.0653762649275 0.03725
v -0.0108918885821 0.0652018894633 0.03725
v -0.0108389821514 0.0650303710276 0.03725
v -0.0107759129014 0.064862323612 0.03725
v -0.0107029066037 0.0646983487826 0.03725
v -0.0106202246019 0.0645390335268 0.03725
v -0.010528162876 0.0643849481517 0.03725
v -0.0104270509831 0.0642366442431 0.03725
v -0.0103172508777 0.0640946526905 0.03725
v -0.0101991556155 0.0639594817867 0.03725
v -0.010073187947 0.0638316154085 0.03725
v -0.00993979880365 0.0637115112844 0.03725
v -0.00979946568406 0.063599599356 0.03725
v -0.00965269094436 0.0634962802388 0.03725
v -0.0095 0.0634019237886 0.03725
v -0.00934193944495 0.063316867777 0.03725
v -0.00917907509496 0.0632414166823 0.03725
v -0.00901198996215 0.0631758406 0.03725
v -0.00884128216792 0.0631203742754 0.03725
v -0.00866756280187 0.0630752162635 0.03725
v -0.00849145373425 0.0630405282182 0.03725
v -0.0083135853898 0.0630164343139 0.03725
v -0.00813459449105 0.0630030208004 0.03725
v -0.00795512177895 0.0630003356946 0.03725
v -0.00777580971924 0.0630083886085 0.03725
v -0.00759730020255 0.0630271507147 0.03725
v -0.00742023224661 0.0630565548498 0.03725
v -0.00724523970877 0.0630964957546 0.03725
v -0.00707294901688 0.0631468304511 0.03725
v -0.0069039769269 0.0632073787541 0.03725
v -0.00673892831507 0.0632779239163 0.03725
v -0.00657839401258 0.0633582134044 0.03725
v -0.00642294869057 0.0634479598029 0.03725
v -0.00627314880294 0.063546841843 0.03725
v -0.00612953059442 0.0636545055526 0.03725
v -0.00599260818092 0.0637705655236 0.03725
v -0.00586287170915 0.0638946062913 0.03725
v -0.00574078560199 0.0640261838222 0.03725
v -0.00562678689603 0.0641648271027 0.03725
v -0.00552128367705 0.0643100398258 0.03725
v -0.00542465361919 0.0644613021678 0.03725
v -0.00533724263299 0.0646180726486 0.03725
v -0.00525936362707 0.0647797900708 0.03725
v -0.00519129538808 0.0649458755278 0.03725
v -0.00513328158264 0.0651157344768 0.03725
v -0.00508552988512 0.0652887588669 0.03725
v -0.0050482112342 0.0654643293156 0.03725
v -0.00502145922097 0.0656418173264 0.03725
v -0.0050053696107 0.0658205875382 0.03725
v -0.005 0.066 0.03725
v -0.005 0.066 0.03775
v -0.0050053696107 0.0661794124618 0.03775
v -0.00502145922097 0.0663581826736 0.03775
v -0.0050482112342 0.0665356706844 0.03775
v -0.00508552988512 0.0667112411331 0.03775
v -0.00513328158264 0.0668842655232 0.03775
v -0.00519129538808 0.0670541244722 0.03775
v -0.00525936362707 0.0672202099292 0.03775
v -0.00533724263299 0.0673819273514 0.03775
v -0.00542465361919 0.0675386978322 0.03775
v -0.00552128367705 0.0676899601742 0.03775
v -0.00562678689603 0.0678351728973 0.03775
v -0.00574078560199 0.0679738161778 0.03775
v -0.00586287170915 0.0681053937087 0.03775
v -0.00599260818092 0.0682294344764 0.03775
v -0.00612953059442 0.0683454944474 0.03775
v -0.00627314880294 0.068453158157 0.03775
v -0.00642294869057 0.0685520401971 0.03775
v -0.00657839401258 0.0686417865956 0.03775
v -0.00673892831507 0.0687220760837 0.03775
v -0.0069039769269 0.0687926212459 0.03775
v -0.00707294901688 0.0688531695489 0.03775
v -0.00724523970877 0.0689035042454 0.03775
v -0.00742023224661 0.0689434451502 0.03775
v -0.00759730020255 0.0689728492853 0.03775
v -0.00777580971924 0.0689916113915 0.03775
v -0.00795512177895 0.0689996643054 0.03775
v -0.00813459449105 0.0689969791996 0.03775
v -0.0083135853898 0.0689835656861 0.03775
v -0.00849145373425 0.0689594717818 0.03775
v -0.00866756280187 0.0689247837365 0.03775
v -0.00884128216792 0.0688796257246 0.03775
v -0.00901198996215 0.0688241594 0.03775
v -0.00917907509496 0.0687585833177 0.03775
v -0.00934193944495 0.068683132223 0.03775
v -0.0095 0.0685980762114 0.03775
v -0.00965269094436 0.0685037197612 0.03775
v -0.00979946568406 0.068400400644 0.03775
v -0.00993979880365 0.0682884887156 0.03775
v -0.010073187947 0.0681683845915 0.03775
v -0.0101991556155 0.0680405182133 0.03775
v -0.0103172508777 0.0679053473095 0.03775
v -0.0104270509831 0.0677633557569 0.03775
v -0.010528162876 0.0676150518483 0.03775
v -0.0106202246019 0.0674609664732 0.03775
v -0.0107029066037 0.0673016512174 0.03775
v -0.0107759129014 0.067137676388 0.03775
v -0.0108389821514 0.0669696289724 0.03775
v -0.0108918885821 0.0667981105367 0.03775
v -0.0109344428022 0.0666237350725 0.03775
v -0.0109664924787 0.0664471267985 0.03775
v -0.010987922882 0.0662689179267 0.03775
v -0.0109986572969 0.0660897463985 0.03775
v -0.0109986572969 0.0659102536015 0.03775
v -0.010987922882 0.0657310820733 0.03775
v -0.0109664924787 0.0655528732015 0.03775
v -0.0109344428022 0.0653762649275 0.03775
v -0.0108918885821 0.0652018894633 0.03775
v -0.0108389821514 0.0650303710276 0.03775
v -0.0107759129014 0.064862323612 0.03775
v -0.0107029066037 0.0646983487826 0.03775
v -0.0106202246019 0.0645390335268 0.03775
v -0.010528162876 0.0643849481517 0.03775
v -0.0104270509831 0.0642366442431 0.03775
v -0.0103172508777 0.0640946526905 0.03775
v -0.0101991556155 0.0639594817867 0.03775
v -0.010073187947 0.0638316154085 0.03775
v -0.00993979880365 0.0637115112844 0.03775
v -0.00979946568406 0.063599599356 0.03775
v -0.00965269094436 0.0634962802388 0.03775
v -0.0095 0.0634019237886 0.03775
v -0.00934193944495 0.063316867777 0.03775
v -0.00917907509496 0.0632414166823 0.03775
v -0.00901198996215 0.0631758406 0.03775
v -0.00884128216792 0.0631203742754 0.03775
v -0.00866756280187 0.0630752162635 0.03775
v -0.00849145373425 0.0630405282182 0.03775
v -0.0083135853898 0.0630164343139 0.03775
v -0.00813459449105 0.0630030208004 0.03775
v -0.00795512177895 0.0630003356946 0.03775
v -0.00777580971924 0.0630083886085 0.03775
v -0.00759730020255 0.0630271507147 0.03775
v -0.00742023224661 0.0630565548498 0.03775
v -0.00724523970877 0.0630964957546 0.03775
v -0.00707294901688 0.0631468304511 0.03775
v -0.0069039769269 0.0632073787541 0.03775
v -0.00673892831507 0.0632779239163 0.03775
v -0.00657839401258 0.0633582134044 0.03775
v -0.00642294869057 0.0634479598029 0.03775
v -0.00627314880294 0.063546841843 0.03775
v -0.00612953059442 0.0636545055526 0.03775
v -0.00599260818092 0.0637705655236 0.03775
v -0.00586287170915 0.0638946062913 0.03775
v -0.00574078560199 0.0640261838222 0.03775
v -0.00562678689603 0.0641648271027 0.03775
v -0.00552128367705 0.0643100398258 0.03775
v -0.00542465361919 0.0644613021678 0.03775
v -0.00533724263299 0.0646180726486 0.03775
v -0.00525936362707 0.0647797900708 0.03775
v -0.00519129538808 0.0649458755278 0.03775
v -0.00513328158264 0.0651157344768 0.03775
v -0.00508552988512 0.0652887588669 0.03775
v -0.0050482112342 0.0654643293156 0.03775
v -0.00502145922097 0.0656418173264 0.03775
v -0.0050053696107 0.0658205875382 0.03775
v -0.0066 0.066 0.03775
v -0.00660250581833 0.0660837258155 0.03775
v -0.00661001430312 0.0661671519144 0.03775
v -0.00662249857596 0.0662499796527 0.03775
v -0.00663991394639 0.0663319125288 0.03775
v -0.0066621980719 0.0664126572442 0.03775
v -0.0066892711811 0.0664919247537 0.03775
v -0.0067210363593 0.0665694313003 0.03775
v -0.00675737989539 0.0666448994306 0.03775
v -0.00679817168896 0.0667180589884 0.03775
v -0.00684326571596 0.0667886480813 0.03775
v -0.00689250055148 0.0668564140188 0.03775
v -0.00694569994759 0.0669211142163 0.03775
v -0.00700267346427 0.066982517064 0.03775
v -0.0070632171511 0.0670404027557 0.03775
v -0.0071271142774 0.0670945640755 0.03775
v -0.00719413610804 0.0671448071399 0.03775
v -0.00726404272227 0.067190952092 0.03775
v -0.00733658387254 0.0672328337446 0.03775
v -0.00741149988037 0.0672703021724 0.03775
v -0.00748852256589 0.0673032232481 0.03775
v -0.00756737620788 0.0673314791228 0.03775
v -0.00764777853076 0.0673549686478 0.03775
v -0.00772944171509 0.0673736077368 0.03775
v -0.00781207342786 0.0673873296665 0.03775
v -0.00789537786898 0.0673960853161 0.03775
v -0.00797905683018 0.0673998433425 0.03775
v -0.00806281076249 0.0673985902932 0.03775
v -0.00814633984857 0.0673923306535 0.03775
v -0.00822934507598 0.0673810868315 0.03775
v -0.00831152930754 0.0673648990771 0.03775
v -0.00839259834503 0.0673438253382 0.03775
v -0.00847226198234 0.0673179410533 0.03775
v -0.00855023504432 0.0672873388816 0.03775
v -0.00862623840764 0.0672521283707 0.03775
v -0.0087 0.0672124355653 0.03775
v -0.00877125577403 0.0671684025552 0.03775
v -0.00883975065256 0.0671201869672 0.03775
v -0.0089052394417 0.0670679614006 0.03775
v -0.00896748770858 0.0670119128094 0.03775
v -0.00902627262056 0.0669522418329 0.03775
v -0.00908138374291 0.0668891620778 0.03775
v -0.00913262379212 0.0668228993532 0.03775
v -0.00917980934212 0.0667536908625 0.03775
v -0.00922277148086 0.0666817843542 0.03775
v -0.00926135641506 0.0666074372348 0.03775
v -0.00929542602066 0.0665309156477 0.03775
v -0.00932485833732 0.0664524935204 0.03775
v -0.00934954800497 0.0663724515838 0.03775
v -0.00936940664103 0.0662910763671 0.03775
v -0.00938436315672 0.0662086591726 0.03775
v -0.00939436401159 0.0661254950325 0.03775
v -0.0093993734052 0.0660418816526 0.03775
v -0.0093993734052 0.0659581183474 0.03775
v -0.00939436401159 0.0658745049675 0.03775
v -0.00938436315672 0.0657913408274 0.03775
v -0.00936940664103 0.0657089236329 0.03775
v -0.00934954800497 0.0656275484162 0.03775
v -0.00932485833732 0.0655475064796 0.03775
v -0.00929542602066 0.0654690843523 0.03775
v -0.00926135641506 0.0653925627652 0.03775
v -0.00922277148086 0.0653182156458 0.03775
v -0.00917980934212 0.0652463091375 0.03775
v -0.00913262379212 0.0651771006468 0.03775
v -0.00908138374291 0.0651108379222 0.03775
v -0.00902627262056 0.0650477581671 0.03775
v -0.00896748770858 0.0649880871906 0.03775
v -0.0089052394417 0.0649320385994 0.03775
v -0.00883975065256 0.0648798130328 0.03775
v -0.00877125577403 0.0648315974448 0.03775
v -0.0087 0.0647875644347 0.03775
v -0.00862623840764 0.0647478716293 0.03775
v -0.00855023504432 0.0647126611184 0.03775
v -0.00847226198234 0.0646820589467 0.03775
v -0.00839259834503 0.0646561746618 0.03775
v -0.00831152930754 0.0646351009229 0.03775
v -0.00822934507598 0.0646189131685 0.03775
v -0.00814633984857 0.0646076693465 0.03775
v -0.00806281076249 0.0646014097068 0.03775
v -0.00797905683018 0.0646001566575 0.03775
v -0.00789537786898 0.0646039146839 0.03775
v -0.00781207342786 0.0646126703335 0.03775
v -0.00772944171509 0.0646263922632 0.03775
v -0.00764777853076 0.0646450313522 0.03775
v -0.00756737620788 0.0646685208772 0.03775
v -0.00748852256589 0.0646967767519 0.03775
v -0.00741149988037 0.0647296978276 0.03775
v -0.00733658387254 0.0647671662554 0.03775
v -0.00726404272227 0.064809047908 0.03775
v -0.00719413610804 0.0648551928601 0.03775
v -0.0071271142774 0.0649054359245 0.03775
v -0.0070632171511 0.0649595972443 0.03775
v -0.00700267346427 0.065017482936 0.03775
v -0.00694569994759 0.0650788857837 0.03775
v -0.00689250055148 0.0651435859812 0.03775
v -0.00684326571596 0.0652113519187 0.03775
v -0.00679817168896 0.0652819410116 0.03775
v -0.00675737989539 0.0653551005694 0.03775
v -0.0067210363593 0.0654305686997 0.03775
v -0.0066892711811 0.0655080752463 0.03775
v -0.0066621980719 0.0655873427558 0.03775
v -0.00663991394639 0.0656680874712 0.03775
v -0.00662249857596 0.0657500203473 0.03775
v -0.00661001430312 0.0658328480856 0.03775
v -0.00660250581833 0.0659162741845 0.03775
v -0.005 0.066 0.03725
v -0.0050053696107 0.0661794124618 0.03725
v -0.00502145922097 0.0663581826736 0.03725
v -0.0050482112342 0.0665356706844 0.03725
v -0.00508552988512 0.0667112411331 0.03725
v -0.00513328158264 0.0668842655232 0.03725
v -0.00519129538808 0.0670541244722 0.03725
v -0.00525936362707 0.0672202099292 0.03725
v -0.00533724263299 0.0673819273514 0.03725
v -0.00542465361919 0.0675386978322 0.03725
v -0.00552128367705 0.0676899601742 0.03725
v -0.00562678689603 0.0678351728973 0.03725
v -0.00574078560199 0.0679738161778 0.03725
v -0.00586287170915 0.0681053937087 0.03725
v -0.00599260818092 0.0682294344764 0.03725
v -0.00612953059442 0.0683454944474 0.03725
v -0.00627314880294 0.068453158157 0.03725
v -0.00642294869057 0.0685520401971 0.03725
v -0.00657839401258 0.0686417865956 0.03725
v -0.00673892831507 0.0687220760837 0.03725
v -0.0069039769269 0.0687926212459 0.03725
v -0.00707294901688 0.0688531695489 0.03725
v -0.00724523970877 0.0689035042454 0.03725
v -0.00742023224661 0.0689434451502 0.03725
v -0.00759730020255 0.0689728492853 0.03725
v -0.00777580971924 0.0689916113915 0.03725
v -0.00795512177895 0.0689996643054 0.03725
v -0.00813459449105 0.0689969791996 0.03725
v -0.0083135853898 0.0689835656861 0.03725
v -0.00849145373425 0.0689594717818 0.03725
v -0.00866756280187 0.0689247837365 0.03725
v -0.00884128216792 0.0688796257246 0.03725
v -0.00901198996215 0.0688241594 0.03725
v -0.00917907509496 0.0687585833177 0.03725
v -0.00934193944495 0.068683132223 0.03725
v -0.0095 0.0685980762114 0.03725
v -0.00965269094436 0.0685037197612 0.03725
v -0.00979946568406 0.068400400644 0.03725
v -0.00993979880365 0.0682884887156 0.03725
v -0.010073187947 0.0681683845915 0.03725
v -0.0101991556155 0.0680405182133 0.03725
v -0.0103172508777 0.0679053473095 0.03725
v -0.0104270509831 0.0677633557569 0.03725
v -0.010528162876 0.0676150518483 0.03725
v -0.0106202246019 0.0674609664732 0.03725
v -0.0107029066037 0.0673016512174 0.03725
v -0.0107759129014 0.067137676388 0.03725
v -0.0108389821514 0.0669696289724 0.03725
v -0.0108918885821 0.0667981105367 0.03725
v -0.0109344428022 0.0666237350725 0.03725
v -0.0109664924787 0.0664471267985 0.03725
v -0.010987922882 0.0662689179267 0.03725
v -0.0109986572969 0.0660897463985 0.03725
v -0.0109986572969 0.0659102536015 0.03725
v -0.010987922882 0.0657310820733 0.03725
v -0.0109664924787 0.0655528732015 0.03725
v -0.0109344428022 0.0653762649275 0.03725
v -0.0108918885821 0.0652018894633 0.03725
v -0.0108389821514 0.0650303710276 0.03725
v -0.0107759129014 0.064862323612 0.03725
v -0.0107029066037 0.0646983487826 0.03725
v -0.0106202246019 0.0645390335268 0.03725
v -0.010528162876 0.0643849481517 0.03725
v -0.0104270509831 0.0642366442431 0.03725
v -0.0103172508777 0.0640946526905 0.03725
v -0.0101991556155 0.0639594817867 0.03725
v -0.010073187947 0.0638316154085 0.03725
v -0.00993979880365 0.0637115112844 0.03725
v -0.00979946568406 0.063599599356 0.03725
v -0.00965269094436 0.0634962802388 0.03725
v -0.0095 0.0634019237886 0.03725
v -0.00934193944495 0.063316867777 0.03725
v -0.00917907509496 0.0632414166823 0.03725
v -0.00901198996215 0.0631758406 0.03725
v -0.00884128216792 0.0631203742754 0.03725
v -0.00866756280187 0.0630752162635 0.03725
v -0.00849145373425 0.0630405282182 0.03725
v -0.0083135853898 0.0630164343139 0.03725
v -0.00813459449105 0.0630030208004 0.03725
v -0.00795512177895 0.0630003356946 0.03725
v -0.00777580971924 0.0630083886085 0.03725
v -0.00759730020255 0.0630271507147 0.03725
v -0.00742023224661 0.0630565548498 0.03725
v -0.00724523970877 0.0630964957546 0.03725
v -0.00707294901688 0.0631468304511 0.03725
v -0.0069039769269 0.0632073787541 0.03725
v -0.00673892831507 0.0632779239163 0.03725
v -0.00657839401258 0.0633582134044 0.03725
v -0.00642294869057 0.0634479598029 0.03725
v -0.00627314880294 0.063546841843 0.03725
v -0.00612953059442 0.0636545055526 0.03725
v -0.00599260818092 0.0637705655236 0.03725
v -0.00586287170915 0.0638946062913 0.03725
v -0.00574078560199 0.0640261838222 0.03725
v -0.00562678689603 0.0641648271027 0.03725
v -0.00552128367705 0.0643100398258 0.03725
v -0.00542465361919 0.0644613021678 0.03725
v -0.00533724263299 0.0646180726486 0.03725
v -0.00525936362707 0.0647797900708 0.03725
v -0.00519129538808 0.0649458755278 0.03725
v -0.00513328158264 0.0651157344768 0.03725
v -0.00508552988512 0.0652887588669 0.03725
v -0.0050482112342 0.0654643293156 0.03725
v -0.00502145922097 0.0656418173264 0.03725
v -0.0050053696107 0.0658205875382 0.03725
v -0.0066 0.066 0.03725
v -0.00660250581833 0.0660837258155 0.03725
v -0.00661001430312 0.0661671519144 0.03725
v -0.00662249857596 0.0662499796527 0.03725
v -0.00663991394639 0.0663319125288 0.03725
v -0.0066621980719 0.0664126572442 0.03725
v -0.0066892711811 0.0664919247537 0.03725
v -0.0067210363593 0.0665694313003 0.03725
v -0.00675737989539 0.0666448994306 0.03725
v -0.00679817168896 0.0667180589884 0.03725
v -0.00684326571596 0.0667886480813 0.03725
v -0.00689250055148 0.0668564140188 0.03725
v -0.00694569994759 0.0669211142163 0.03725
v -0.00700267346427 0.066982517064 0.03725
v -0.0070632171511 0.0670404027557 0.03725
v -0.0071271142774 0.0670945640755 0.03725
v -0.00719413610804 0.0671448071399 0.03725
v -0.00726404272227 0.067190952092 0.03725
v -0.00733658387254 0.0672328337446 0.03725
v -0.00741149988037 0.0672703021724 0.03725
v -0.00748852256589 0.0673032232481 0.03725
v -0.00756737620788 0.0673314791228 0.03725
v -0.00764777853076 0.0673549686478 0.03725
v -0.00772944171509 0.0673736077368 0.03725
v -0.00781207342786 0.0673873296665 0.03725
v -0.00789537786898 0.0673960853161 0.03725
v -0.00797905683018 0.0673998433425 0.03725
v -0.00806281076249 0.0673985902932 0.03725
v -0.00814633984857 0.0673923306535 0.03725
v -0.00822934507598 0.0673810868315 0.03725
v -0.00831152930754 0.0673648990771 0.03725
v -0.00839259834503 0.0673438253382 0.03725
v -0.00847226198234 0.0673179410533 0.03725
v -0.00855023504432 0.0672873388816 0.03725
v -0.00862623840764 0.0672521283707 0.03725
v -0.0087 0.0672124355653 0.03725
v -0.00877125577403 0.0671684025552 0.03725
v -0.00883975065256 0.0671201869672 0.03725
v -0.0089052394417 0.0670679614006 0.03725
v -0.00896748770858 0.0670119128094 0.03725
v -0.00902627262056 0.0669522418329 0.03725
v -0.00908138374291 0.0668891620778 0.03725
v -0.00913262379212 0.0668228993532 0.03725
v -0.00917980934212 0.0667536908625 0.03725
v -0.00922277148086 0.0666817843542 0.03725
v -0.00926135641506 0.0666074372348 0.03725
v -0.00929542602066 0.0665309156477 0.03725
v -0.00932485833732 0.0664524935204 0.03725
v -0.00934954800497 0.0663724515838 0.03725
v -0.00936940664103 0.0662910763671 0.03725
v -0.00938436315672 0.0662086591726 0.03725
v -0.00939436401159 0.0661254950325 0.03725
v -0.0093993734052 0.0660418816526 0.03725
v -0.0093993734052 0.0659581183474 0.03725
v -0.00939436401159 0.0658745049675 0.03725
v -0.00938436315672 0.0657913408274 0.03725
v -0.00936940664103 0.0657089236329 0.03725
v -0.00934954800497 0.0656275484162 0.03725
v -0.00932485833732 0.0655475064796 0.03725
v -0.00929542602066 0.0654690843523 0.03725
v -0.00926135641506 0.0653925627652 0.03725
v -0.00922277148086 0.0653182156458 0.03725
v -0.00917980934212 0.0652463091375 0.03725
v -0.00913262379212 0.0651771006468 0.03725
v -0.00908138374291 0.0651108379222 0.03725
v -0.00902627262056 0.0650477581671 0.03725
v -0.00896748770858 0.0649880871906 0.03725
v -0.0089052394417 0.0649320385994 0.03725
v -0.00883975065256 0.0648798130328 0.03725
v -0.00877125577403 0.0648315974448 0.03725
v -0.0087 0.0647875644347 0.03725
v -0.00862623840764 0.0647478716293 0.03725
v -0.00855023504432 0.0647126611184 0.03725
v -0.00847226198234 0.0646820589467 0.03725
v -0.00839259834503 0.0646561746618 0.03725
v -0.00831152930754 0.0646351009229 0.03725
v -0.00822934507598 0.0646189131685 0.03725
v -0.00814633984857 0.0646076693465 0.03725
v -0.00806281076249 0.0646014097068 0.03725
v -0.00797905683018 0.0646001566575 0.03725
v -0.00789537786898 0.0646039146839 0.03725
v -0.00781207342786 0.0646126703335 0.03725
v -0.00772944171509 0.0646263922632 0.03725
v -0.00764777853076 0.0646450313522 0.03725
v -0.00756737620788 0.0646685208772 0.03725
v -0.00748852256589 0.0646967767519 0.03725
v -0.00741149988037 0.0647296978276 0.03725
v -0.00733658387254 0.0647671662554 0.03725
v -0.00726404272227 0.064809047908 0.03725
v -0.00719413610804 0.0648551928601 0.03725
v -0.0071271142774 0.0649054359245 0.03725
v -0.0070632171511 0.0649595972443 0.03725
v -0.00700267346427 0.065017482936 0.03725
v -0.00694569994759 0.0650788857837 0.03725
v -0.00689250055148 0.0651435859812 0.03725
v -0.00684326571596 0.0652113519187 0.03725
v -0.00679817168896 0.0652819410116 0.03725
v -0.00675737989539 0.0653551005694 0.03725
v -0.0067210363593 0.0654305686997 0.03725
v -0.0066892711811 0.0655080752463 0.03725
v -0.0066621980719 0.0655873427558 0.03725
v -0.00663991394639 0.0656680874712 0.03725
v -0.00662249857596 0.0657500203473 0.03725
v -0.00661001430312 0.0658328480856 0.03725
v -0.00660250581833 0.0659162741845 0.03725
v -0.0066 0.066 0.03775
v -0.00660250581833 0.0660837258155 0.03775
v -0.00661001430312 0.0661671519144 0.03775
v -0.00662249857596 0.0662499796527 0.03775
v -0.00663991394639 0.0663319125288 0.03775
v -0.0066621980719 0.0664126572442 0.03775
v -0.0066892711811 0.0664919247537 0.03775
v -0.0067210363593 0.0665694313003 0.03775
v -0.00675737989539 0.0666448994306 0.03775
v -0.00679817168896 0.0667180589884 0.03775
v -0.00684326571596 0.0667886480813 0.03775
v -0.00689250055148 0.0668564140188 0.03775
v -0.00694569994759 0.0669211142163 0.03775
v -0.00700267346427 0.066982517064 0.03775
v -0.0070632171511 0.0670404027557 0.03775
v -0.0071271142774 0.0670945640755 0.03775
v -0.00719413610804 0.0671448071399 0.03775
v -0.00726404272227 0.067190952092 0.03775
v -0.00733658387254 0.0672328337446 0.03775
v -0.00741149988037 0.0672703021724 0.03775
v -0.00748852256589 0.0673032232481 0.03775
v -0.00756737620788 0.0673314791228 0.03775
v -0.00764777853076 0.0673549686478 0.03775
v -0.00772944171509 0.0673736077368 0.03775
v -0.00781207342786 0.0673873296665 0.03775
v -0.00789537786898 0.0673960853161 0.03775
v -0.00797905683018 0.0673998433425 0.03775
v -0.00806281076249 0.0673985902932 0.03775
v -0.00814633984857 0.0673923306535 0.03775
v -0.00822934507598 0.0673810868315 0.03775
v -0.00831152930754 0.0673648990771 0.03775
v -0.00839259834503 0.0673438253382 0.03775
v -0.00847226198234 0.0673179410533 0.03775
v -0.00855023504432 0.0672873388816 0.03775
v -0.00862623840764 0.0672521283707 0.03775
v -0.0087 0.0672124355653 0.03775
v -0.00877125577403 0.0671684025552 0.03775
v -0.00883975065256 0.0671201869672 0.03775
v -0.0089052394417 0.0670679614006 0.03775
v -0.00896748770858 0.0670119128094 0.03775
v -0.00902627262056 0.0669522418329 0.03775
v -0.00908138374291 0.0668891620778 0.03775
v -0.00913262379212 0.0668228993532 0.03775
v -0.00917980934212 0.0667536908625 0.03775
v -0.00922277148086 0.0666817843542 0.03775
v -0.00926135641506 0.0666074372348 0.03775
v -0.00929542602066 0.0665309156477 0.03775
v -0.00932485833732 0.0664524935204 0.03775
v -0.00934954800497 0.0663724515838 0.03775
v -0.00936940664103 0.0662910763671 0.03775
v -0.00938436315672 0.0662086591726 0.03775
v -0.00939436401159 0.0661254950325 0.03775
v -0.0093993734052 0.0660418816526 0.03775
v -0.0093993734052 0.0659581183474 0.03775
v -0.00939436401159 0.0658745049675 0.03775
v -0.00938436315672 0.0657913408274 0.03775
v -0.00936940664103 0.0657089236329 0.03775
v -0.00934954800497 0.0656275484162 0.03775
v -0.00932485833732 0.0655475064796 0.03775
v -0.00929542602066 0.0654690843523 0.03775
v -0.00926135641506 0.0653925627652 0.03775
v -0.00922277148086 0.0653182156458 0.03775
v -0.00917980934212 0.0652463091375 0.03775
v -0.00913262379212 0.0651771006468 0.03775
v -0.00908138374291 0.0651108379222 0.03775
v -0.00902627262056 0.0650477581671 0.03775
v -0.00896748770858 0.0649880871906 0.03775
v -0.0089052394417 0.0649320385994 0.03775
v -0.00883975065256 0.0648798130328 0.03775
v -0.00877125577403 0.0648315974448 0.03775
v -0.0087 0.0647875644347 0.03775
v -0.00862623840764 0.0647478716293 0.03775
v -0.00855023504432 0.0647126611184 0.03775
v -0.00847226198234 0.0646820589467 0.03775
v -0.00839259834503 0.0646561746618 0.03775
v -0.00831152930754 0.0646351009229 0.03775
v -0.00822934507598 0.0646189131685 0.03775
v -0.00814633984857 0.0646076693465 0.03775
v -0.00806281076249 0.0646014097068 0.03775
v -0.00797905683018 0.0646001566575 0.03775
v -0.00789537786898 0.0646039146839 0.03775
v -0.00781207342786 0.0646126703335 0.03775
v -0.00772944171509 0.0646263922632 0.03775
v -0.00764777853076 0.0646450313522 0.03775
v -0.00756737620788 0.0646685208772 0.03775
v -0.00748852256589 0.0646967767519 0.03775
v -0.00741149988037 0.0647296978276 0.03775
v -0.00733658387254 0.0647671662554 0.03775
v -0.00726404272227 0.064809047908 0.03775
v -0.00719413610804 0.0648551928601 0.03775
v -0.0071271142774 0.0649054359245 0.03775
v -0.0070632171511 0.0649595972443 0.03775
v -0.00700267346427 0.065017482936 0.03775
v -0.00694569994759 0.0650788857837 0.03775
v -0.00689250055148 0.0651435859812 0.03775
v -0.00684326571596 0.0652113519187 0.03775
v -0.00679817168896 0.0652819410116 0.03775
v -0.00675737989539 0.0653551005694 0.03775
v -0.0067210363593 0.0654305686997 0.03775
v -0.0066892711811 0.0655080752463 0.03775
v -0.0066621980719 0.0655873427558 0.03775
v -0.00663991394639 0.0656680874712 0.03775
v -0.00662249857596 0.0657500203473 0.03775
v -0.00661001430312 0.0658328480856 0.03775
v -0.00660250581833 0.0659162741845 0.03775
v -0.0066 0.066 0.03775
v -0.0066 0.066 0.03725
v -0.00660250581833 0.0660837258155 0.03725
v -0.00661001430312 0.0661671519144 0.03725
v -0.00662249857596 0.0662499796527 0.03725
v -0.00663991394639 0.0663319125288 0.03725
v -0.0066621980719 0.0664126572442 0.03725
v -0.0066892711811 0.0664919247537 0.03725
v -0.0067210363593 0.0665694313003 0.03725
v -0.00675737989539 0.0666448994306 0.03725
v -0.00679817168896 0.0667180589884 0.03725
v -0.00684326571596 0.0667886480813 0.03725
v -0.00689250055148 0.0668564140188 0.03725
v -0.00694569994759 0.0669211142163 0.03725
v -0.00700267346427 0.066982517064 0.03725
v -0.0070632171511 0.0670404027557 0.03725
v -0.0071271142774 0.0670945640755 0.03725
v -0.00719413610804 0.0671448071399 0.03725
v -0.00726404272227 0.067190952092 0.03725
v -0.00733658387254 0.0672328337446 0.03725
v -0.00741149988037 0.0672703021724 0.03725
v -0.00748852256589 0.0673032232481 0.03725
v -0.00756737620788 0.0673314791228 0.03725
v -0.00764777853076 0.0673549686478 0.03725
v -0.00772944171509 0.0673736077368 0.03725
v -0.00781207342786 0.0673873296665 0.03725
v -0.00789537786898 0.0673960853161 0.03725
v -0.00797905683018 0.0673998433425 0.03725
v -0.00806281076249 0.0673985902932 0.03725
v -0.00814633984857 0.0673923306535 0.03725
v -0.00822934507598 0.0673810868315 0.03725
v -0.00831152930754 0.0673648990771 0.03725
v -0.00839259834503 0.0673438253382 0.03725
v -0.00847226198234 0.0673179410533 0.03725
v -0.00855023504432 0.0672873388816 0.03725
v -0.00862623840764 0.0672521283707 0.03725
v -0.0087 0.0672124355653 0.03725
v -0.00877125577403 0.0671684025552 0.03725
v -0.00883975065256 0.0671201869672 0.03725
v -0.0089052394417 0.0670679614006 0.03725
v -0.00896748770858 0.0670119128094 0.03725
v -0.00902627262056 0.0669522418329 0.03725
v -0.00908138374291 0.0668891620778 0.03725
v -0.00913262379212 0.0668228993532 0.03725
v -0.00917980934212 0.0667536908625 0.03725
v -0.00922277148086 0.0666817843542 0.03725
v -0.00926135641506 0.0666074372348 0.03725
v -0.00929542602066 0.0665309156477 0.03725
v -0.00932485833732 0.0664524935204 0.03725
v -0.00934954800497 0.0663724515838 0.03725
v -0.00936940664103 0.0662910763671 0.03725
v -0.00938436315672 0.0662086591726 0.03725
v -0.00939436401159 0.0661254950325 0.03725
v -0.0093993734052 0.0660418816526 0.03725
v -0.0093993734052 0.0659581183474 0.03725
v -0.00939436401159 0.0658745049675 0.03725
v -0.00938436315672 0.0657913408274 0.03725
v -0.00936940664103 0.0657089236329 0.03725
v -0.00934954800497 0.0656275484162 0.03725
v -0.00932485833732 0.0655475064796 0.03725
v -0.00929542602066 0.0654690843523 0.03725
v -0.00926135641506 0.0653925627652 0.03725
v -0.00922277148086 0.0653182156458 0.03725
v -0.00917980934212 0.0652463091375 0.03725
v -0.00913262379212 0.0651771006468 0.03725
v -0.00908138374291 0.0651108379222 0.03725
v -0.00902627262056 0.0650477581671 0.03725
v -0.00896748770858 0.0649880871906 0.03725
v -0.0089052394417 0.0649320385994 0.03725
v -0.00883975065256 0.0648798130328 0.03725
v -0.00877125577403 0.0648315974448 0.03725
v -0.0087 0.0647875644347 0.03725
v -0.00862623840764 0.0647478716293 0.03725
v -0.00855023504432 0.0647126611184 0.03725
v -0.00847226198234 0.0646820589467 0.03725
v -0.00839259834503 0.0646561746618 0.03725
v -0.00831152930754 0.0646351009229 0.03725
v -0.00822934507598 0.0646189131685 0.03725
v -0.00814633984857 0.0646076693465 0.03725
v -0.00806281076249 0.0646014097068 0.03725
v -0.00797905683018 0.0646001566575 0.03725
v -0.00789537786898 0.0646039146839 0.03725
v -0.00781207342786 0.0646126703335 0.03725
v -0.00772944171509 0.0646263922632 0.03725
v -0.00764777853076 0.0646450313522 0.03725
v -0.00756737620788 0.0646685208772 0.03725
v -0.00748852256589 0.0646967767519 0.03725
v -0.00741149988037 0.0647296978276 0.03725
v -0.00733658387254 0.0647671662554 0.03725
v -0.00726404272227 0.064809047908 0.03725
v -0.00719413610804 0.0648551928601 0.03725
v -0.0071271142774 0.0649054359245 0.03725
v -0.0070632171511 0.0649595972443 0.03725
v -0.00700267346427 0.065017482936 0.03725
v -0.00694569994759 0.0650788857837 0.03725
v -0.00689250055148 0.0651435859812 0.03725
v -0.00684326571596 0.0652113519187 0.03725
v -0.00679817168896 0.0652819410116 0.03725
v -0.00675737989539 0.0653551005694 0.03725
v -0.0067210363593 0.0654305686997 0.03725
v -0.0066892711811 0.0655080752463 0.03725
v -0.0066621980719 0.0655873427558 0.03725
v -0.00663991394639 0.0656680874712 0.03725
v -0.00662249857596 0.0657500203473 0.03725
v -0.00661001430312 0.0658328480856 0.03725
v -0.00660250581833 0.0659162741845 0.03725
v -0.0066 0.066 0.03725
f 2 1 107
f 2 107 108
f 3 108 109
f 3 2 108
f 4 109 110
f 4 3 109
f 5 110 111
f 5 4 110
f 6 111 112
f 6 5 111
f 7 112 113
f 7 6 112
f 8 113 114
f 8 7 113
f 9 114 115
f 9 8 114
f 10 115 116
f 10 9 115
f 11 116 117
f 11 10 116
f 12 117 118
f 12 11 117
f 13 118 119
f 13 12 118
f 14 119 120
f 14 13 119
f 15 120 121
f 15 14 120
f 16 121 122
f 16 15 121
f 17 122 123
f 17 16 122
f 18 123 124
f 18 17 123
f 19 124 125
f 19 18 124
f 20 125 126
f 20 19 125
f 21 126 127
f 21 20 126
f 22 127 128
f 22 21 127
f 23 22 128
f 23 128 129
f 24 23 129
f 24 129 130
f 25 24 130
f 25 130 131
f 26 25 131
f 26 131 132
f 26 132 133
f 27 26 133
f 28 27 133
f 28 133 134
f 29 28 134
f 29 134 135
f 30 29 135
f 30 135 136
f 31 30 136
f 31 136 137
f 32 137 138
f 32 31 137
f 33 138 139
f 33 139 140
f 33 32 138
f 34 33 140
f 35 140 141
f 35 34 140
f 36 141 142
f 36 35 141
f 37 142 143
f 37 36 142
f 38 143 144
f 38 37 143
f 39 144 145
f 39 145 146
f 39 38 144
f 40 39 146
f 41 146 147
f 41 40 146
f 42 147 148
f 42 41 147
f 43 148 149
f 43 42 148
f 44 149 150
f 44 43 149
f 45 150 151
f 45 44 150
f 46 151 152
f 46 45 151
f 47 152 153
f 47 46 152
f 48 153 154
f 48 47 153
f 49 48 154
f 49 154 155
f 50 49 155
f 50 155 156
f 51 50 156
f 51 156 157
f 52 51 157
f 52 157 158
f 53 52 158
f 53 158 159
f 54 53 159
f 54 159 160
f 55 54 160
f 55 160 161
f 56 55 161
f 56 161 162
f 57 56 162
f 57 162 163
f 58 57 163
f 58 163 164
f 59 58 164
f 59 164 165
f 60 59 165
f 60 165 166
f 61 60 166
f 61 166 167
f 62 61 167
f 62 167 168
f 63 62 168
f 63 168 169
f 64 63 169
f 64 169 170
f 65 64 170
f 65 170 171
f 66 171 172
f 66 65 171
f 67 172 173
f 67 66 172
f 68 173 174
f 68 67 173
f 69 174 175
f 69 68 174
f 70 175 176
f 70 69 175
f 71 176 177
f 71 70 176
f 72 177 178
f 72 71 177
f 73 72 178
f 73 178 179
f 74 73 179
f 74 179 180
f 75 74 180
f 75 180 181
f 76 75 181
f 76 181 182
f 77 76 182
f 77 182 183
f 78 77 183
f 78 183 184
f 79 78 184
f 79 184 185
f 80 79 185
f 80 185 186
f 80 186 187
f 81 80 187
f 82 81 187
f 82 187 188
f 83 82 188
f 83 188 189
f 84 83 189
f 84 189 190
f 85 84 190
f 85 190 191
f 86 85 191
f 86 191 192
f 87 86 192
f 87 192 193
f 88 87 193
f 88 193 194
f 89 88 194
f 89 194 195
f 90 89 195
f 90 195 196
f 91 90 196
f 91 196 197
f 92 91 197
f 92 197 198
f 93 92 198
f 93 198 199
f 94 93 199
f 94 199 200
f 95 94 200
f 95 200 201
f 96 95 201
f 96 201 202
f 97 202 203
f 97 96 202
f 98 203 204
f 98 97 203
f 99 98 204
f 99 204 205
f 100 205 206
f 100 99 205
f 101 206 207
f 101 100 206
f 102 207 208
f 102 101 207
f 103 208 209
f 103 102 208
f 104 209 210
f 104 103 209
f 105 210 211
f 105 104 210
f 106 105 211
f 106 211 212
f 383 278 279
f 383 279 384
f 385 279 280
f 385 384 279
f 382 277 278
f 382 278 383
f 386 385 280
f 386 280 281
f 381 276 277
f 381 277 382
f 387 386 281
f 387 281 282
f 380 275 276
f 380 276 381
f 388 282 283
f 388 387 282
f 379 275 380
f 379 274 275
f 389 283 284
f 389 388 283
f 378 274 379
f 378 273 274
f 390 389 284
f 390 284 285
f 377 272 273
f 377 273 378
f 391 390 285
f 391 285 286
f 376 271 272
f 376 272 377
f 392 391 286
f 392 286 287
f 375 270 271
f 375 271 376
f 393 287 288
f 393 392 287
f 374 270 375
f 374 269 270
f 394 393 288
f 394 288 289
f 373 268 269
f 373 269 374
f 395 394 289
f 395 289 290
f 372 267 268
f 372 268 373
f 396 395 290
f 396 290 291
f 371 267 372
f 371 266 267
f 397 291 292
f 397 396 291
f 370 266 371
f 370 265 266
f 398 397 292
f 398 292 293
f 369 265 370
f 369 264 265
f 399 398 293
f 399 293 294
f 368 263 264
f 368 264 369
f 400 399 294
f 400 294 295
f 400 295 296
f 367 262 263
f 367 263 368
f 401 400 296
f 366 261 262
f 366 262 367
f 402 401 296
f 402 296 297
f 365 261 366
f 365 260 261
f 403 402 297
f 403 297 298
f 364 260 365
f 364 258 259
f 364 259 260
f 404 403 298
f 404 298 299
f 404 299 300
f 363 258 364
f 405 404 300
f 362 257 258
f 362 258 363
f 406 300 301
f 406 405 300
f 361 256 257
f 361 257 362
f 407 406 301
f 407 301 302
f 360 255 256
f 360 256 361
f 408 407 302
f 408 302 303
f 359 254 255
f 359 255 360
f 409 408 303
f 409 303 304
f 358 253 254
f 358 254 359
f 410 409 304
f 305 410 304
f 357 253 358
f 252 253 357
f 306 410 305
f 306 411 410
f 306 412 411
f 251 252 357
f 251 357 356
f 307 412 306
f 250 251 356
f 250 355 354
f 250 356 355
f 308 412 307
f 308 413 412
f 308 414 413
f 249 250 354
f 249 354 353
f 309 415 414
f 309 414 308
f 248 249 353
f 310 415 309
f 247 353 352
f 247 248 353
f 311 416 415
f 311 415 310
f 246 352 351
f 246 247 352
f 312 417 416
f 312 416 311
f 245 246 351
f 245 351 350
f 313 418 417
f 313 417 312
f 244 245 350
f 244 350 349
f 314 419 418
f 314 418 313
f 243 348 347
f 243 349 348
f 243 244 349
f 315 420 419
f 315 419 314
f 242 243 347
f 316 421 420
f 316 420 315
f 241 346 345
f 241 347 346
f 241 242 347
f 317 422 421
f 317 421 316
f 240 241 345
f 213 319 318
f 213 318 422
f 213 422 317
f 239 344 343
f 239 345 344
f 239 240 345
f 214 319 213
f 238 343 342
f 238 239 343
f 215 320 319
f 215 321 320
f 215 319 214
f 237 238 342
f 216 321 215
f 236 342 341
f 236 237 342
f 217 321 216
f 217 322 321
f 235 341 340
f 235 236 341
f 218 323 322
f 218 324 323
f 218 322 217
f 234 340 339
f 234 235 340
f 219 324 218
f 233 234 339
f 233 339 338
f 220 325 324
f 220 324 219
f 232 337 336
f 232 338 337
f 232 233 338
f 221 326 325
f 221 325 220
f 231 232 336
f 222 327 326
f 222 326 221
f 230 231 336
f 230 336 335
f 223 327 222
f 223 328 327
f 229 230 335
f 229 335 334
f 224 329 328
f 224 330 329
f 224 328 223
f 228 229 334
f 228 334 333
f 225 330 224
f 227 228 333
f 227 333 332
f 226 330 225
f 226 331 330
f 226 332 331
f 226 227 332
f 593 489 488
f 593 594 489
f 595 490 489
f 595 489 594
f 592 488 487
f 592 593 488
f 596 490 595
f 596 491 490
f 591 487 486
f 591 592 487
f 597 491 596
f 597 492 491
f 590 486 485
f 590 591 486
f 598 493 492
f 598 492 597
f 589 590 485
f 589 485 484
f 599 494 493
f 599 493 598
f 588 589 484
f 588 484 483
f 600 494 599
f 600 495 494
f 587 483 482
f 587 588 483
f 601 495 600
f 601 496 495
f 586 482 481
f 586 587 482
f 602 496 601
f 602 497 496
f 585 481 480
f 585 586 481
f 603 498 497
f 603 497 602
f 584 585 480
f 584 480 479
f 604 498 603
f 604 499 498
f 583 479 478
f 583 584 479
f 605 499 604
f 605 500 499
f 582 478 477
f 582 583 478
f 606 500 605
f 606 501 500
f 581 582 477
f 581 477 476
f 607 502 501
f 607 501 606
f 580 581 476
f 580 476 475
f 608 502 607
f 608 503 502
f 579 580 475
f 579 475 474
f 609 503 608
f 609 504 503
f 578 474 473
f 578 579 474
f 610 504 609
f 610 505 504
f 610 506 505
f 577 473 472
f 577 578 473
f 611 506 610
f 576 472 471
f 576 577 472
f 612 506 611
f 612 507 506
f 575 576 471
f 575 471 470
f 613 507 612
f 613 508 507
f 574 575 470
f 574 469 468
f 574 470 469
f 614 508 613
f 614 509 508
f 614 510 509
f 573 574 468
f 615 510 614
f 572 468 467
f 572 573 468
f 616 511 510
f 616 510 615
f 571 467 466
f 571 572 467
f 617 511 616
f 617 512 511
f 570 466 465
f 570 571 466
f 618 512 617
f 618 513 512
f 569 465 464
f 569 570 465
f 619 513 618
f 619 514 513
f 568 464 463
f 568 569 464
f 620 514 619
f 515 514 620
f 567 568 463
f 462 567 463
f 516 515 620
f 516 620 621
f 516 621 622
f 461 567 462
f 461 566 567
f 517 516 622
f 460 566 461
f 460 564 565
f 460 565 566
f 518 517 622
f 518 622 623
f 518 623 624
f 459 564 460
f 459 563 564
f 519 624 625
f 519 518 624
f 458 563 459
f 520 519 625
f 457 562 563
f 457 563 458
f 521 625 626
f 521 520 625
f 456 561 562
f 456 562 457
f 522 626 627
f 522 521 626
f 455 561 456
f 455 560 561
f 523 627 628
f 523 522 627
f 454 560 455
f 454 559 560
f 524 628 629
f 524 523 628
f 453 557 558
f 453 558 559
f 453 559 454
f 525 629 630
f 525 524 629
f 452 557 453
f 526 630 631
f 526 525 630
f 451 555 556
f 451 556 557
f 451 557 452
f 527 631 632
f 527 526 631
f 450 555 451
f 423 528 529
f 423 632 528
f 423 527 632
f 449 553 554
f 449 554 555
f 449 555 450
f 424 423 529
f 448 552 553
f 448 553 449
f 425 529 530
f 425 530 531
f 425 424 529
f 447 552 448
f 426 425 531
f 446 551 552
f 446 552 447
f 427 426 531
f 427 531 532
f 445 550 551
f 445 551 446
f 428 532 533
f 428 533 534
f 428 427 532
f 444 549 550
f 444 550 445
f 429 428 534
f 443 549 444
f 443 548 549
f 430 534 535
f 430 429 534
f 442 546 547
f 442 547 548
f 442 548 443
f 431 535 536
f 431 430 535
f 441 546 442
f 432 536 537
f 432 431 536
f 440 546 441
f 440 545 546
f 433 432 537
f 433 537 538
f 439 545 440
f 439 544 545
f 434 538 539
f 434 539 540
f 434 433 538
f 438 544 439
f 438 543 544
f 435 434 540
f 437 543 438
f 437 542 543
f 436 435 540
f 436 540 541
f 436 541 542
f 436 542 437
f 634 739 633
f 634 740 739
f 635 741 740
f 635 740 634
f 636 742 741
f 636 741 635
f 637 743 742
f 637 742 636
f 638 744 743
f 638 743 637
f 639 745 744
f 639 744 638
f 640 746 745
f 640 745 639
f 641 747 746
f 641 746 640
f 642 748 747
f 642 747 641
f 643 749 748
f 643 748 642
f 644 750 749
f 644 749 643
f 645 751 750
f 645 750 644
f 646 752 751
f 646 751 645
f 647 753 752
f 647 752 646
f 648 754 753
f 648 753 647
f 649 755 754
f 649 754 648
f 650 756 755
f 650 755 649
f 651 757 756
f 651 756 650
f 652 758 757
f 652 757 651
f 653 759 758
f 653 758 652
f 654 760 759
f 654 759 653
f 655 760 654
f 655 761 760
f 656 761 655
f 656 762 761
f 657 762 656
f 657 763 762
f 658 763 657
f 658 764 763
f 658 765 764
f 659 765 658
f 660 765 659
f 660 766 765
f 661 766 660
f 661 767 766
f 662 767 661
f 662 768 767
f 663 768 662
f 663 769 768
f 664 770 769
f 664 769 663
f 665 771 770
f 665 772 771
f 665 770 664
f 666 772 665
f 667 773 772
f 667 772 666
f 668 774 773
f 668 773 667
f 669 775 774
f 669 774 668
f 670 776 775
f 670 775 669
f 671 777 776
f 671 778 777
f 671 776 670
f 672 778 671
f 673 779 778
f 673 778 672
f 674 780 779
f 674 779 673
f 675 781 780
f 675 780 674
f 676 782 781
f 676 781 675
f 677 783 782
f 677 782 676
f 678 784 783
f 678 783 677
f 679 785 784
f 679 784 678
f 680 786 785
f 680 785 679
f 681 786 680
f 681 787 786
f 682 787 681
f 682 788 787
f 683 788 682
f 683 789 788
f 684 789 683
f 684 790 789
f 685 790 684
f 685 791 790
f 686 791 685
f 686 792 791
f 687 792 686
f 687 793 792
f 688 793 687
f 688 794 793
f 689 794 688
f 689 795 794
f 690 795 689
f 690 796 795
f 691 796 690
f 691 797 796
f 692 797 691
f 692 798 797
f 693 798 692
f 693 799 798
f 694 799 693
f 694 800 799
f 695 800 694
f 695 801 800
f 696 801 695
f 696 802 801
f 697 802 696
f 697 803 802
f 698 804 803
f 698 803 697
f 699 805 804
f 699 804 698
f 700 806 805
f 700 805 699
f 701 807 806
f 701 806 700
f 702 808 807
f 702 807 701
f 703 809 808
f 703 808 702
f 704 810 809
f 704 809 703
f 705 810 704
f 705 811 810
f 706 811 705
f 706 812 811
f 707 812 706
f 707 813 812
f 708 813 707
f 708 814 813
f 709 814 708
f 709 815 814
f 710 815 709
f 710 816 815
f 711 816 710
f 711 817 816
f 712 817 711
f 712 818 817
f 712 819 818
f 713 819 712
f 714 819 713
f 714 820 819
f 715 820 714
f 715 821 820
f 716 821 715
f 716 822 821
f 717 822 716
f 717 823 822
f 718 823 717
f 718 824 823
f 719 824 718
f 719 825 824
f 720 825 719
f 720 826 825
f 721 826 720
f 721 827 826
f 722 827 721
f 722 828 827
f 723 828 722
f 723 829 828
f 724 829 723
f 724 830 829
f 725 830 724
f 725 831 830
f 726 831 725
f 726 832 831
f 727 832 726
f 727 833 832
f 728 833 727
f 728 834 833
f 729 835 834
f 729 834 728
f 730 836 835
f 730 835 729
f 731 836 730
f 731 837 836
f 732 838 837
f 732 837 731
f 733 839 838
f 733 838 732
f 734 840 839
f 734 839 733
f 735 841 840
f 735 840 734
f 736 842 841
f 736 841 735
f 737 843 842
f 737 842 736
f 738 843 737
f 738 844 843
