v 0.03 0.0632581498484 0.10929371717
v 0.0299937354542 0.0634478532449 0.109382177317
v 0.0299749642422 0.0636368775524 0.109470320799
v 0.0299437535601 0.0638245461131 0.109557832086
v 0.029900215134 0.0640101871221 0.10964439791
v 0.0298445048203 0.0641931360329 0.109729708389
v 0.0297768220472 0.0643727379358 0.109813458131
v 0.0296974091017 0.0645483499026 0.109895347336
v 0.0296065502615 0.064719343288 0.109975082861
v 0.0295045707776 0.0648851059802 0.110052379274
v 0.0293918357101 0.0650450445917 0.110126959874
v 0.0292687486213 0.0651985865838 0.11019855768
v 0.029135750131 0.0653451823159 0.110266916393
v 0.0289933163393 0.0654843070135 0.110331791305
v 0.0288419571223 0.0656154626462 0.110392950181
v 0.0286822143065 0.0657381797109 0.110450174088
v 0.0285146597299 0.0658520189124 0.110503258179
v 0.0283398931943 0.0659565727358 0.110552012428
v 0.0281585403187 0.0660514669056 0.110596262306
v 0.0279712502991 0.0661363617253 0.11063584941
v 0.0277786935853 0.0662109532934 0.11067063203
v 0.0275815594803 0.0662749745916 0.110700485652
v 0.0273805536731 0.0663281964402 0.110725303407
v 0.0271763957123 0.0663704283188 0.110744996455
v 0.0269698164304 0.0664015190482 0.110759494301
v 0.0267615553276 0.0664213573317 0.110768745044
v 0.0265523579246 0.0664298721534 0.110772715571
v 0.0263429730938 0.0664270330323 0.110771391667
v 0.0261341503786 0.066412850132 0.110764778072
v 0.02592663731 0.0663873742233 0.110752898461
v 0.0257211767312 0.0663506965036 0.110735795359
v 0.0255185041374 0.0663029482694 0.110713529992
v 0.0253193450442 0.0662443004471 0.110686182063
v 0.0251244123892 0.0661749629807 0.110653849471
v 0.0249344039809 0.0660951840803 0.110616647959
v 0.02475 0.0660052493337 0.110574710698
v 0.0245718605649 0.0659054806839 0.110528187813
v 0.0244006233686 0.0657962352767 0.110477245843
v 0.0242369013957 0.0656779041825 0.110422067147
v 0.0240812807285 0.0655509109957 0.110362849252
v 0.0239343184486 0.0654157103191 0.110299804141
v 0.0237965406427 0.065272786136 0.1102331575
v 0.0236684405197 0.0651226500778 0.110163147906
v 0.0235504766447 0.0649658395928 0.110090025976
v 0.0234430712978 0.0648029160216 0.110014053467
v 0.0233466089623 0.0646344625884 0.109935502341
v 0.0232614349483 0.0644610823129 0.109854653791
v 0.0231878541567 0.0642833958513 0.109771797233
v 0.0231261299876 0.0641020392751 0.109687229273
v 0.0230764833974 0.0639176617938 0.109601252641
v 0.0230390921082 0.063730923431 0.109514175113
v 0.023014089971 0.0635424926613 0.109426308402
v 0.023001566487 0.0633530440182 0.109337967049
v 0.023001566487 0.0631632556786 0.109249467292
v 0.023014089971 0.0629738070355 0.109161125939
v 0.0230390921082 0.0627853762659 0.109073259228
v 0.0230764833974 0.062598637903 0.1089861817
v 0.0231261299876 0.0624142604217 0.108900205068
v 0.0231878541567 0.0622329038455 0.108815637108
v 0.0232614349483 0.062055217384 0.10873278055
v 0.0233466089623 0.0618818371084 0.108651932
v 0.0234430712978 0.0617133836753 0.108573380874
v 0.0235504766447 0.0615504601041 0.108497408365
v 0.0236684405197 0.061393649619 0.108424286435
v 0.0237965406427 0.0612435135609 0.108354276841
v 0.0239343184486 0.0611005893777 0.1082876302
v 0.0240812807285 0.0609653887011 0.108224585089
v 0.0242369013957 0.0608383955144 0.108165367194
v 0.0244006233686 0.0607200644201 0.108110188498
v 0.0245718605649 0.060610819013 0.108059246528
v 0.02475 0.0605110503632 0.108012723643
v 0.0249344039809 0.0604211156165 0.107970786382
v 0.0251244123892 0.0603413367161 0.107933584869
v 0.0253193450442 0.0602719992497 0.107901252278
v 0.0255185041374 0.0602133514275 0.107873904349
v 0.0257211767312 0.0601656031933 0.107851638982
v 0.02592663731 0.0601289254735 0.10783453588
v 0.0261341503786 0.0601034495649 0.107822656269
v 0.0263429730938 0.0600892666645 0.107816042674
v 0.0265523579246 0.0600864275435 0.10781471877
v 0.0267615553276 0.0600949423652 0.107818689297
v 0.0269698164304 0.0601147806487 0.10782794004
v 0.0271763957123 0.0601458713781 0.107842437885
v 0.0273805536731 0.0601881032566 0.107862130934
v 0.0275815594803 0.0602413251052 0.107886948689
v 0.0277786935853 0.0603053464034 0.107916802311
v 0.0279712502991 0.0603799379716 0.10795158493
v 0.0281585403187 0.0604648327913 0.107991172035
v 0.0283398931943 0.0605597269611 0.108035421913
v 0.0285146597299 0.0606642807845 0.108084176162
v 0.0286822143065 0.0607781199859 0.108137260253
v 0.0288419571223 0.0609008370506 0.10819448416
v 0.0289933163393 0.0610319926834 0.108255643036
v 0.029135750131 0.0611711173809 0.108320517948
v 0.0292687486213 0.0613177131131 0.108388876661
v 0.0293918357101 0.0614712551052 0.108460474467
v 0.0295045707776 0.0616311937167 0.108535055067
v 0.0296065502615 0.0617969564088 0.10861235148
v 0.0296974091017 0.0619679497943 0.108692087005
v 0.0297768220472 0.0621435617611 0.10877397621
v 0.0298445048203 0.062323163664 0.108857725952
v 0.029900215134 0.0625061125748 0.108943036431
v 0.0299437535601 0.0626917535838 0.109029602255
v 0.0299749642422 0.0628794221444 0.109117113542
v 0.0299937354542 0.063068446452 0.109205257024
v 0.03 0.0632581498484 0.10929371717
v 0.03 0.0634694589793 0.108840563277
v 0.0299937354542 0.0636591623758 0.108929023423
v 0.0299749642422 0.0638481866833 0.109017166906
v 0.0299437535601 0.064035855244 0.109104678193
v 0.029900215134 0.064221496253 0.109191244017
v 0.0298445048203 0.0644044451637 0.109276554495
v 0.0297768220472 0.0645840470666 0.109360304238
v 0.0296974091017 0.0647596590334 0.109442193443
v 0.0296065502615 0.0649306524189 0.109521928968
v 0.0295045707776 0.0650964151111 0.109599225381
v 0.0293918357101 0.0652563537226 0.10967380598
v 0.0292687486213 0.0654098957146 0.109745403787
v 0.029135750131 0.0655564914468 0.109813762499
v 0.0289933163393 0.0656956161444 0.109878637411
v 0.0288419571223 0.0658267717771 0.109939796287
v 0.0286822143065 0.0659494888418 0.109997020194
v 0.0285146597299 0.0660633280432 0.110050104286
v 0.0283398931943 0.0661678818666 0.110098858534
v 0.0281585403187 0.0662627760364 0.110143108412
v 0.0279712502991 0.0663476708561 0.110182695517
v 0.0277786935853 0.0664222624243 0.110217478136
v 0.0275815594803 0.0664862837225 0.110247331758
v 0.0273805536731 0.0665395055711 0.110272149514
v 0.0271763957123 0.0665817374497 0.110291842562
v 0.0269698164304 0.0666128281791 0.110306340407
v 0.0267615553276 0.0666326664626 0.110315591151
v 0.0265523579246 0.0666411812842 0.110319561677
v 0.0263429730938 0.0666383421632 0.110318237773
v 0.0261341503786 0.0666241592628 0.110311624178
v 0.02592663731 0.0665986833542 0.110299744567
v 0.0257211767312 0.0665620056344 0.110282641465
v 0.0255185041374 0.0665142574003 0.110260376098
v 0.0253193450442 0.066455609578 0.110233028169
v 0.0251244123892 0.0663862721116 0.110200695578
v 0.0249344039809 0.0663064932112 0.110163494066
v 0.02475 0.0662165584646 0.110121556805
v 0.0245718605649 0.0661167898148 0.110075033919
v 0.0244006233686 0.0660075444076 0.110024091949
v 0.0242369013957 0.0658892133134 0.109968913254
v 0.0240812807285 0.0657622201266 0.109909695358
v 0.0239343184486 0.06562701945 0.109846650247
v 0.0237965406427 0.0654840952669 0.109780003606
v 0.0236684405197 0.0653339592087 0.109709994013
v 0.0235504766447 0.0651771487236 0.109636872082
v 0.0234430712978 0.0650142251525 0.109560899574
v 0.0233466089623 0.0648457717193 0.109482348448
v 0.0232614349483 0.0646723914438 0.109401499897
v 0.0231878541567 0.0644947049822 0.10931864334
v 0.0231261299876 0.064313348406 0.109234075379
v 0.0230764833974 0.0641289709247 0.109148098748
v 0.0230390921082 0.0639422325618 0.109061021219
v 0.023014089971 0.0637538017922 0.108973154508
v 0.023001566487 0.0635643531491 0.108884813155
v 0.023001566487 0.0633745648095 0.108796313399
v 0.023014089971 0.0631851161664 0.108707972046
v 0.0230390921082 0.0629966853968 0.108620105335
v 0.0230764833974 0.0628099470339 0.108533027806
v 0.0231261299876 0.0626255695526 0.108447051175
v 0.0231878541567 0.0624442129764 0.108362483214
v 0.0232614349483 0.0622665265148 0.108279626656
v 0.0233466089623 0.0620931462393 0.108198778106
v 0.0234430712978 0.0619246928062 0.10812022698
v 0.0235504766447 0.061761769235 0.108044254471
v 0.0236684405197 0.0616049587499 0.107971132541
v 0.0237965406427 0.0614548226917 0.107901122948
v 0.0239343184486 0.0613118985086 0.107834476306
v 0.0240812807285 0.061176697832 0.107771431196
v 0.0242369013957 0.0610497046452 0.1077122133
v 0.0244006233686 0.060931373551 0.107657034605
v 0.0245718605649 0.0608221281439 0.107606092635
v 0.02475 0.060722359494 0.107559569749
v 0.0249344039809 0.0606324247474 0.107517632488
v 0.0251244123892 0.060552645847 0.107480430976
v 0.0253193450442 0.0604833083806 0.107448098384
v 0.0255185041374 0.0604246605583 0.107420750456
v 0.0257211767312 0.0603769123242 0.107398485088
v 0.02592663731 0.0603402346044 0.107381381987
v 0.0261341503786 0.0603147586958 0.107369502376
v 0.0263429730938 0.0603005757954 0.10736288878
v 0.0265523579246 0.0602977366744 0.107361564877
v 0.0267615553276 0.060306251496 0.107365535403
v 0.0269698164304 0.0603260897795 0.107374786147
v 0.0271763957123 0.0603571805089 0.107389283992
v 0.0273805536731 0.0603994123875 0.10740897704
v 0.0275815594803 0.0604526342361 0.107433794796
v 0.0277786935853 0.0605166555343 0.107463648417
v 0.0279712502991 0.0605912471025 0.107498431037
v 0.0281585403187 0.0606761419222 0.107538018142
v 0.0283398931943 0.060771036092 0.10758226802
v 0.0285146597299 0.0608755899154 0.107631022268
v 0.0286822143065 0.0609894291168 0.10768410636
v 0.0288419571223 0.0611121461815 0.107741330267
v 0.0289933163393 0.0612433018142 0.107802489143
v 0.029135750131 0.0613824265118 0.107867364055
v 0.0292687486213 0.061529022244 0.107935722767
v 0.0293918357101 0.061682564236 0.108007320574
v 0.0295045707776 0.0618425028475 0.108081901173
v 0.0296065502615 0.0620082655397 0.108159197586
v 0.0296974091017 0.0621792589252 0.108238933111
v 0.0297768220472 0.062354870892 0.108320822316
v 0.0298445048203 0.0625344727949 0.108404572059
v 0.029900215134 0.0627174217056 0.108489882537
v 0.0299437535601 0.0629030627147 0.108576448361
v 0.0299749642422 0.0630907312753 0.108663959648
v 0.0299937354542 0.0632797555828 0.10875210313
v 0.03 0.0634694589793 0.108840563277
v 0.03 0.0632581498484 0.10929371717
v 0.0299937354542 0.0634478532449 0.109382177317
v 0.0299749642422 0.0636368775524 0.109470320799
v 0.0299437535601 0.0638245461131 0.109557832086
v 0.029900215134 0.0640101871221 0.10964439791
v 0.0298445048203 0.0641931360329 0.109729708389
v 0.0297768220472 0.0643727379358 0.109813458131
v 0.0296974091017 0.0645483499026 0.109895347336
v 0.0296065502615 0.064719343288 0.109975082861
v 0.0295045707776 0.0648851059802 0.110052379274
v 0.0293918357101 0.0650450445917 0.110126959874
v 0.0292687486213 0.0651985865838 0.11019855768
v 0.029135750131 0.0653451823159 0.110266916393
v 0.0289933163393 0.0654843070135 0.110331791305
v 0.0288419571223 0.0656154626462 0.110392950181
v 0.0286822143065 0.0657381797109 0.110450174088
v 0.0285146597299 0.0658520189124 0.110503258179
v 0.0283398931943 0.0659565727358 0.110552012428
v 0.0281585403187 0.0660514669056 0.110596262306
v 0.0279712502991 0.0661363617253 0.11063584941
v 0.0277786935853 0.0662109532934 0.11067063203
v 0.0275815594803 0.0662749745916 0.110700485652
v 0.0273805536731 0.0663281964402 0.110725303407
v 0.0271763957123 0.0663704283188 0.110744996455
v 0.0269698164304 0.0664015190482 0.110759494301
v 0.0267615553276 0.0664213573317 0.110768745044
v 0.0265523579246 0.0664298721534 0.110772715571
v 0.0263429730938 0.0664270330323 0.110771391667
v 0.0261341503786 0.066412850132 0.110764778072
v 0.02592663731 0.0663873742233 0.110752898461
v 0.0257211767312 0.0663506965036 0.110735795359
v 0.0255185041374 0.0663029482694 0.110713529992
v 0.0253193450442 0.0662443004471 0.110686182063
v 0.0251244123892 0.0661749629807 0.110653849471
v 0.0249344039809 0.0660951840803 0.110616647959
v 0.02475 0.0660052493337 0.110574710698
v 0.0245718605649 0.0659054806839 0.110528187813
v 0.0244006233686 0.0657962352767 0.110477245843
v 0.0242369013957 0.0656779041825 0.110422067147
v 0.0240812807285 0.0655509109957 0.110362849252
v 0.0239343184486 0.0654157103191 0.110299804141
v 0.0237965406427 0.065272786136 0.1102331575
v 0.0236684405197 0.0651226500778 0.110163147906
v 0.0235504766447 0.0649658395928 0.110090025976
v 0.0234430712978 0.0648029160216 0.110014053467
v 0.0233466089623 0.0646344625884 0.109935502341
v 0.0232614349483 0.0644610823129 0.109854653791
v 0.0231878541567 0.0642833958513 0.109771797233
v 0.0231261299876 0.0641020392751 0.109687229273
v 0.0230764833974 0.0639176617938 0.109601252641
v 0.0230390921082 0.063730923431 0.109514175113
v 0.023014089971 0.0635424926613 0.109426308402
v 0.023001566487 0.0633530440182 0.109337967049
v 0.023001566487 0.0631632556786 0.109249467292
v 0.023014089971 0.0629738070355 0.109161125939
v 0.0230390921082 0.0627853762659 0.109073259228
v 0.0230764833974 0.062598637903 0.1089861817
v 0.0231261299876 0.0624142604217 0.108900205068
v 0.0231878541567 0.0622329038455 0.108815637108
v 0.0232614349483 0.062055217384 0.10873278055
v 0.0233466089623 0.0618818371084 0.108651932
v 0.0234430712978 0.0617133836753 0.108573380874
v 0.0235504766447 0.0615504601041 0.108497408365
v 0.0236684405197 0.061393649619 0.108424286435
v 0.0237965406427 0.0612435135609 0.108354276841
v 0.0239343184486 0.0611005893777 0.1082876302
v 0.0240812807285 0.0609653887011 0.108224585089
v 0.0242369013957 0.0608383955144 0.108165367194
v 0.0244006233686 0.0607200644201 0.108110188498
v 0.0245718605649 0.060610819013 0.108059246528
v 0.02475 0.0605110503632 0.108012723643
v 0.0249344039809 0.0604211156165 0.107970786382
v 0.0251244123892 0.0603413367161 0.107933584869
v 0.0253193450442 0.0602719992497 0.107901252278
v 0.0255185041374 0.0602133514275 0.107873904349
v 0.0257211767312 0.0601656031933 0.107851638982
v 0.02592663731 0.0601289254735 0.10783453588
v 0.0261341503786 0.0601034495649 0.107822656269
v 0.0263429730938 0.0600892666645 0.107816042674
v 0.0265523579246 0.0600864275435 0.10781471877
v 0.0267615553276 0.0600949423652 0.107818689297
v 0.0269698164304 0.0601147806487 0.10782794004
v 0.0271763957123 0.0601458713781 0.107842437885
v 0.0273805536731 0.0601881032566 0.107862130934
v 0.0275815594803 0.0602413251052 0.107886948689
v 0.0277786935853 0.0603053464034 0.107916802311
v 0.0279712502991 0.0603799379716 0.10795158493
v 0.0281585403187 0.0604648327913 0.107991172035
v 0.0283398931943 0.0605597269611 0.108035421913
v 0.0285146597299 0.0606642807845 0.108084176162
v 0.0286822143065 0.0607781199859 0.108137260253
v 0.0288419571223 0.0609008370506 0.10819448416
v 0.0289933163393 0.0610319926834 0.108255643036
v 0.029135750131 0.0611711173809 0.108320517948
v 0.0292687486213 0.0613177131131 0.108388876661
v 0.0293918357101 0.0614712551052 0.108460474467
v 0.0295045707776 0.0616311937167 0.108535055067
v 0.0296065502615 0.0617969564088 0.10861235148
v 0.0296974091017 0.0619679497943 0.108692087005
v 0.0297768220472 0.0621435617611 0.10877397621
v 0.0298445048203 0.062323163664 0.108857725952
v 0.029900215134 0.0625061125748 0.108943036431
v 0.0299437535601 0.0626917535838 0.109029602255
v 0.0299749642422 0.0628794221444 0.109117113542
v 0.0299937354542 0.063068446452 0.109205257024
v 0.0282 0.0632581498484 0.10929371717
v 0.0281969572206 0.0633502914981 0.109336683527
v 0.0281878397748 0.0634421033047 0.109379496076
v 0.0281726803006 0.0635332566055 0.109422001558
v 0.0281515330651 0.0636234250956 0.109464047816
v 0.0281244737698 0.0637122859952 0.109505484333
v 0.0280915992801 0.0637995212051 0.10954616278
v 0.028053027278 0.0638848184462 0.109585937537
v 0.0280088958413 0.0639678723762 0.10962466622
v 0.0279593629491 0.0640483856839 0.109662210192
v 0.0279046059163 0.0641260701523 0.109698435055
v 0.0278448207589 0.0642006476913 0.109733211132
v 0.0277802214922 0.0642718513326 0.109766413936
v 0.0277110393648 0.0643394261858 0.109797924607
v 0.0276375220308 0.0644031303502 0.109827630347
v 0.0275599326632 0.0644627357816 0.109855424816
v 0.0274785490117 0.0645180291081 0.109881208518
v 0.0273936624087 0.0645688123937 0.109904889153
v 0.0273055767262 0.0646149038476 0.10992638195
v 0.0272146072881 0.0646561384743 0.109945609973
v 0.0271210797414 0.0646923686646 0.109962504388
v 0.0270253288904 0.0647234647237 0.109977004718
v 0.0269276974984 0.0647493153359 0.109989059057
v 0.0268285350603 0.0647698279626 0.109998624252
v 0.0267281965519 0.064784929174 0.110005666062
v 0.0266270411591 0.0647945649117 0.110010159281
v 0.0265254309919 0.0647987006823 0.110012087822
v 0.0264237297884 0.0647973216806 0.110011444783
v 0.0263223016124 0.0647904328433 0.110008232465
v 0.0262215095506 0.0647780588305 0.110002462368
v 0.0261217144123 0.0647602439381 0.109994155148
v 0.0260232734382 0.0647370519386 0.109983340541
v 0.0259265390214 0.0647085658535 0.109970057261
v 0.0258318574462 0.0646748876556 0.109954352859
v 0.0257395676479 0.0646361379039 0.109936283554
v 0.02565 0.0645924553127 0.109915914027
v 0.0255634751315 0.0645439962542 0.109893317197
v 0.025480302779 0.0644909341993 0.109868573954
v 0.0254007806779 0.0644334590964 0.109841772873
v 0.0253251934967 0.0643717766914 0.109813009896
v 0.0252538118179 0.0643061077913 0.109782387985
v 0.0251868911693 0.0642366874738 0.109750016759
v 0.0251246711096 0.0641637642456 0.109716012099
v 0.0250673743703 0.0640875991528 0.109680495733
v 0.025015206059 0.0640084648468 0.1096435948
v 0.0249683529246 0.0639266446079 0.109605441396
v 0.0249269826892 0.0638424313312 0.1095661721
v 0.0248912434475 0.0637561264784 0.109525927487
v 0.0248612631368 0.0636680389986 0.10948485162
v 0.0248371490788 0.0635784842219 0.109443091542
v 0.0248189875954 0.0634877827314 0.109400796742
v 0.0248068437002 0.0633962592147 0.109358118626
v 0.0248007608651 0.0633042413023 0.109315209968
v 0.0248007608651 0.0632120583945 0.109272224373
v 0.0248068437002 0.0631200404822 0.109229315715
v 0.0248189875954 0.0630285169655 0.109186637599
v 0.0248371490788 0.0629378154749 0.109144342799
v 0.0248612631368 0.0628482606983 0.109102582721
v 0.0248912434475 0.0627601732185 0.109061506854
v 0.0249269826892 0.0626738683657 0.109021262241
v 0.0249683529246 0.062589655089 0.108981992945
v 0.025015206059 0.06250783485 0.108943839541
v 0.0250673743703 0.0624287005441 0.108906938608
v 0.0251246711096 0.0623525354513 0.108871422242
v 0.0251868911693 0.062279612223 0.108837417582
v 0.0252538118179 0.0622101919055 0.108805046356
v 0.0253251934967 0.0621445230055 0.108774424445
v 0.0254007806779 0.0620828406005 0.108745661467
v 0.025480302779 0.0620253654975 0.108718860387
v 0.0255634751315 0.0619723034426 0.108694117144
v 0.02565 0.0619238443842 0.108671520314
v 0.0257395676479 0.0618801617929 0.108651150787
v 0.0258318574462 0.0618414120413 0.108633081481
v 0.0259265390214 0.0618077338433 0.10861737708
v 0.0260232734382 0.0617792477582 0.1086040938
v 0.0261217144123 0.0617560557588 0.108593279193
v 0.0262215095506 0.0617382408663 0.108584971972
v 0.0263223016124 0.0617258668536 0.108579201875
v 0.0264237297884 0.0617189780163 0.108575989558
v 0.0265254309919 0.0617175990146 0.108575346519
v 0.0266270411591 0.0617217347851 0.10857727506
v 0.0267281965519 0.0617313705228 0.108581768279
v 0.0268285350603 0.0617464717342 0.108588810089
v 0.0269276974984 0.061766984361 0.108598375284
v 0.0270253288904 0.0617928349732 0.108610429622
v 0.0271210797414 0.0618239310323 0.108624929953
v 0.0272146072881 0.0618601612225 0.108641824368
v 0.0273055767262 0.0619013958493 0.10866105239
v 0.0273936624087 0.0619474873032 0.108682545188
v 0.0274785490117 0.0619982705888 0.108706225823
v 0.0275599326632 0.0620535639152 0.108732009525
v 0.0276375220308 0.0621131693466 0.108759803994
v 0.0277110393648 0.0621768735111 0.108789509734
v 0.0277802214922 0.0622444483642 0.108821020405
v 0.0278448207589 0.0623156520056 0.108854223209
v 0.0279046059163 0.0623902295446 0.108888999286
v 0.0279593629491 0.062467914013 0.108925224149
v 0.0280088958413 0.0625484273206 0.108962768121
v 0.028053027278 0.0626314812507 0.109001496804
v 0.0280915992801 0.0627167784917 0.109041271561
v 0.0281244737698 0.0628040137017 0.109081950007
v 0.0281515330651 0.0628928746012 0.109123386525
v 0.0281726803006 0.0629830430913 0.109165432783
v 0.0281878397748 0.0630741963922 0.109207938265
v 0.0281969572206 0.0631660081987 0.109250750814
v 0.03 0.0634694589793 0.108840563277
v 0.0299937354542 0.0636591623758 0.108929023423
v 0.0299749642422 0.0638481866833 0.109017166906
v 0.0299437535601 0.064035855244 0.109104678193
v 0.029900215134 0.064221496253 0.109191244017
v 0.0298445048203 0.0644044451637 0.109276554495
v 0.0297768220472 0.0645840470666 0.109360304238
v 0.0296974091017 0.0647596590334 0.109442193443
v 0.0296065502615 0.0649306524189 0.109521928968
v 0.0295045707776 0.0650964151111 0.109599225381
v 0.0293918357101 0.0652563537226 0.10967380598
v 0.0292687486213 0.0654098957146 0.109745403787
v 0.029135750131 0.0655564914468 0.109813762499
v 0.0289933163393 0.0656956161444 0.109878637411
v 0.0288419571223 0.0658267717771 0.109939796287
v 0.0286822143065 0.0659494888418 0.109997020194
v 0.0285146597299 0.0660633280432 0.110050104286
v 0.0283398931943 0.0661678818666 0.110098858534
v 0.0281585403187 0.0662627760364 0.110143108412
v 0.0279712502991 0.0663476708561 0.110182695517
v 0.0277786935853 0.0664222624243 0.110217478136
v 0.0275815594803 0.0664862837225 0.110247331758
v 0.0273805536731 0.0665395055711 0.110272149514
v 0.0271763957123 0.0665817374497 0.110291842562
v 0.0269698164304 0.0666128281791 0.110306340407
v 0.0267615553276 0.0666326664626 0.110315591151
v 0.0265523579246 0.0666411812842 0.110319561677
v 0.0263429730938 0.0666383421632 0.110318237773
v 0.0261341503786 0.0666241592628 0.110311624178
v 0.02592663731 0.0665986833542 0.110299744567
v 0.0257211767312 0.0665620056344 0.110282641465
v 0.0255185041374 0.0665142574003 0.110260376098
v 0.0253193450442 0.066455609578 0.110233028169
v 0.0251244123892 0.0663862721116 0.110200695578
v 0.0249344039809 0.0663064932112 0.110163494066
v 0.02475 0.0662165584646 0.110121556805
v 0.0245718605649 0.0661167898148 0.110075033919
v 0.0244006233686 0.0660075444076 0.110024091949
v 0.0242369013957 0.0658892133134 0.109968913254
v 0.0240812807285 0.0657622201266 0.109909695358
v 0.0239343184486 0.06562701945 0.109846650247
v 0.0237965406427 0.0654840952669 0.109780003606
v 0.0236684405197 0.0653339592087 0.109709994013
v 0.0235504766447 0.0651771487236 0.109636872082
v 0.0234430712978 0.0650142251525 0.109560899574
v 0.0233466089623 0.0648457717193 0.109482348448
v 0.0232614349483 0.0646723914438 0.109401499897
v 0.0231878541567 0.0644947049822 0.10931864334
v 0.0231261299876 0.064313348406 0.109234075379
v 0.0230764833974 0.0641289709247 0.109148098748
v 0.0230390921082 0.0639422325618 0.109061021219
v 0.023014089971 0.0637538017922 0.108973154508
v 0.023001566487 0.0635643531491 0.108884813155
v 0.023001566487 0.0633745648095 0.108796313399
v 0.023014089971 0.0631851161664 0.108707972046
v 0.0230390921082 0.0629966853968 0.108620105335
v 0.0230764833974 0.0628099470339 0.108533027806
v 0.0231261299876 0.0626255695526 0.108447051175
v 0.0231878541567 0.0624442129764 0.108362483214
v 0.0232614349483 0.0622665265148 0.108279626656
v 0.0233466089623 0.0620931462393 0.108198778106
v 0.0234430712978 0.0619246928062 0.10812022698
v 0.0235504766447 0.061761769235 0.108044254471
v 0.0236684405197 0.0616049587499 0.107971132541
v 0.0237965406427 0.0614548226917 0.107901122948
v 0.0239343184486 0.0613118985086 0.107834476306
v 0.0240812807285 0.061176697832 0.107771431196
v 0.0242369013957 0.0610497046452 0.1077122133
v 0.0244006233686 0.060931373551 0.107657034605
v 0.0245718605649 0.0608221281439 0.107606092635
v 0.02475 0.060722359494 0.107559569749
v 0.0249344039809 0.0606324247474 0.107517632488
v 0.0251244123892 0.060552645847 0.107480430976
v 0.0253193450442 0.0604833083806 0.107448098384
v 0.0255185041374 0.0604246605583 0.107420750456
v 0.0257211767312 0.0603769123242 0.107398485088
v 0.02592663731 0.0603402346044 0.107381381987
v 0.0261341503786 0.0603147586958 0.107369502376
v 0.0263429730938 0.0603005757954 0.10736288878
v 0.0265523579246 0.0602977366744 0.107361564877
v 0.0267615553276 0.060306251496 0.107365535403
v 0.0269698164304 0.0603260897795 0.107374786147
v 0.0271763957123 0.0603571805089 0.107389283992
v 0.0273805536731 0.0603994123875 0.10740897704
v 0.0275815594803 0.0604526342361 0.107433794796
v 0.0277786935853 0.0605166555343 0.107463648417
v 0.0279712502991 0.0605912471025 0.107498431037
v 0.0281585403187 0.0606761419222 0.107538018142
v 0.0283398931943 0.060771036092 0.10758226802
v 0.0285146597299 0.0608755899154 0.107631022268
v 0.0286822143065 0.0609894291168 0.10768410636
v 0.0288419571223 0.0611121461815 0.107741330267
v 0.0289933163393 0.0612433018142 0.107802489143
v 0.029135750131 0.0613824265118 0.107867364055
v 0.0292687486213 0.061529022244 0.107935722767
v 0.0293918357101 0.061682564236 0.108007320574
v 0.0295045707776 0.0618425028475 0.108081901173
v 0.0296065502615 0.0620082655397 0.108159197586
v 0.0296974091017 0.0621792589252 0.108238933111
v 0.0297768220472 0.062354870892 0.108320822316
v 0.0298445048203 0.0625344727949 0.108404572059
v 0.029900215134 0.0627174217056 0.108489882537
v 0.0299437535601 0.0629030627147 0.108576448361
v 0.0299749642422 0.0630907312753 0.108663959648
v 0.0299937354542 0.0632797555828 0.10875210313
v 0.0282 0.0634694589793 0.108840563277
v 0.0281969572206 0.063561600629 0.108883529634
v 0.0281878397748 0.0636534124355 0.108926342182
v 0.0281726803006 0.0637445657364 0.108968847665
v 0.0281515330651 0.0638347342265 0.109010893922
v 0.0281244737698 0.063923595126 0.10905233044
v 0.0280915992801 0.064010830336 0.109093008886
v 0.028053027278 0.064096127577 0.109132783643
v 0.0280088958413 0.0641791815071 0.109171512327
v 0.0279593629491 0.0642596948147 0.109209056299
v 0.0279046059163 0.0643373792832 0.109245281161
v 0.0278448207589 0.0644119568222 0.109280057239
v 0.0277802214922 0.0644831604635 0.109313260042
v 0.0277110393648 0.0645507353166 0.109344770714
v 0.0276375220308 0.0646144394811 0.109374476453
v 0.0275599326632 0.0646740449125 0.109402270922
v 0.0274785490117 0.0647293382389 0.109428054624
v 0.0273936624087 0.0647801215246 0.109451735259
v 0.0273055767262 0.0648262129785 0.109473228057
v 0.0272146072881 0.0648674476052 0.109492456079
v 0.0271210797414 0.0649036777954 0.109509350494
v 0.0270253288904 0.0649347738546 0.109523850825
v 0.0269276974984 0.0649606244668 0.109535905163
v 0.0268285350603 0.0649811370935 0.109545470358
v 0.0267281965519 0.0649962383049 0.109552512169
v 0.0266270411591 0.0650058740426 0.109557005387
v 0.0265254309919 0.0650100098131 0.109558933929
v 0.0264237297884 0.0650086308115 0.109558290889
v 0.0263223016124 0.0650017419742 0.109555078572
v 0.0262215095506 0.0649893679614 0.109549308475
v 0.0261217144123 0.0649715530689 0.109541001254
v 0.0260232734382 0.0649483610695 0.109530186647
v 0.0259265390214 0.0649198749844 0.109516903368
v 0.0258318574462 0.0648861967864 0.109501198966
v 0.0257395676479 0.0648474470348 0.10948312966
v 0.02565 0.0648037644436 0.109462760133
v 0.0255634751315 0.0647553053851 0.109440163303
v 0.025480302779 0.0647022433302 0.109415420061
v 0.0254007806779 0.0646447682273 0.10938861898
v 0.0253251934967 0.0645830858223 0.109359856002
v 0.0252538118179 0.0645174169222 0.109329234091
v 0.0251868911693 0.0644479966047 0.109296862865
v 0.0251246711096 0.0643750733764 0.109262858206
v 0.0250673743703 0.0642989082837 0.10922734184
v 0.025015206059 0.0642197739777 0.109190440907
v 0.0249683529246 0.0641379537387 0.109152287503
v 0.0249269826892 0.064053740462 0.109113018207
v 0.0248912434475 0.0639674356093 0.109072773593
v 0.0248612631368 0.0638793481294 0.109031697727
v 0.0248371490788 0.0637897933528 0.108989937648
v 0.0248189875954 0.0636990918622 0.108947642849
v 0.0248068437002 0.0636075683456 0.108904964732
v 0.0248007608651 0.0635155504332 0.108862056075
v 0.0248007608651 0.0634233675254 0.108819070479
v 0.0248068437002 0.063331349613 0.108776161822
v 0.0248189875954 0.0632398260964 0.108733483705
v 0.0248371490788 0.0631491246058 0.108691188905
v 0.0248612631368 0.0630595698292 0.108649428827
v 0.0248912434475 0.0629714823493 0.108608352961
v 0.0249269826892 0.0628851774966 0.108568108347
v 0.0249683529246 0.0628009642199 0.108528839051
v 0.025015206059 0.0627191439809 0.108490685647
v 0.0250673743703 0.0626400096749 0.108453784714
v 0.0251246711096 0.0625638445822 0.108418268348
v 0.0251868911693 0.0624909213539 0.108384263688
v 0.0252538118179 0.0624215010364 0.108351892463
v 0.0253251934967 0.0623558321363 0.108321270552
v 0.0254007806779 0.0622941497313 0.108292507574
v 0.025480302779 0.0622366746284 0.108265706493
v 0.0255634751315 0.0621836125735 0.108240963251
v 0.02565 0.062135153515 0.108218366421
v 0.0257395676479 0.0620914709238 0.108197996894
v 0.0258318574462 0.0620527211722 0.108179927588
v 0.0259265390214 0.0620190429742 0.108164223186
v 0.0260232734382 0.0619905568891 0.108150939907
v 0.0261217144123 0.0619673648897 0.1081401253
v 0.0262215095506 0.0619495499972 0.108131818079
v 0.0263223016124 0.0619371759844 0.108126047982
v 0.0264237297884 0.0619302871471 0.108122835664
v 0.0265254309919 0.0619289081455 0.108122192625
v 0.0266270411591 0.061933043916 0.108124121167
v 0.0267281965519 0.0619426796537 0.108128614385
v 0.0268285350603 0.0619577808651 0.108135656196
v 0.0269276974984 0.0619782934919 0.108145221391
v 0.0270253288904 0.062004144104 0.108157275729
v 0.0271210797414 0.0620352401632 0.108171776059
v 0.0272146072881 0.0620714703534 0.108188670475
v 0.0273055767262 0.0621127049801 0.108207898497
v 0.0273936624087 0.062158796434 0.108229391295
v 0.0274785490117 0.0622095797197 0.10825307193
v 0.0275599326632 0.0622648730461 0.108278855631
v 0.0276375220308 0.0623244784775 0.1083066501
v 0.0277110393648 0.062388182642 0.10833635584
v 0.0277802214922 0.0624557574951 0.108367866512
v 0.0278448207589 0.0625269611364 0.108401069315
v 0.0279046059163 0.0626015386754 0.108435845393
v 0.0279593629491 0.0626792231439 0.108472070255
v 0.0280088958413 0.0627597364515 0.108509614227
v 0.028053027278 0.0628427903816 0.108548342911
v 0.0280915992801 0.0629280876226 0.108588117667
v 0.0281244737698 0.0630153228326 0.108628796114
v 0.0281515330651 0.0631041837321 0.108670232632
v 0.0281726803006 0.0631943522222 0.108712278889
v 0.0281878397748 0.0632855055231 0.108754784372
v 0.0281969572206 0.0633773173296 0.10879759692
v 0.0282 0.0632581498484 0.10929371717
v 0.0281969572206 0.0633502914981 0.109336683527
v 0.0281878397748 0.0634421033047 0.109379496076
v 0.0281726803006 0.0635332566055 0.109422001558
v 0.0281515330651 0.0636234250956 0.109464047816
v 0.0281244737698 0.0637122859952 0.109505484333
v 0.0280915992801 0.0637995212051 0.10954616278
v 0.028053027278 0.0638848184462 0.109585937537
v 0.0280088958413 0.0639678723762 0.10962466622
v 0.0279593629491 0.0640483856839 0.109662210192
v 0.0279046059163 0.0641260701523 0.109698435055
v 0.0278448207589 0.0642006476913 0.109733211132
v 0.0277802214922 0.0642718513326 0.109766413936
v 0.0277110393648 0.0643394261858 0.109797924607
v 0.0276375220308 0.0644031303502 0.109827630347
v 0.0275599326632 0.0644627357816 0.109855424816
v 0.0274785490117 0.0645180291081 0.109881208518
v 0.0273936624087 0.0645688123937 0.109904889153
v 0.0273055767262 0.0646149038476 0.10992638195
v 0.0272146072881 0.0646561384743 0.109945609973
v 0.0271210797414 0.0646923686646 0.109962504388
v 0.0270253288904 0.0647234647237 0.109977004718
v 0.0269276974984 0.0647493153359 0.109989059057
v 0.0268285350603 0.0647698279626 0.109998624252
v 0.0267281965519 0.064784929174 0.110005666062
v 0.0266270411591 0.0647945649117 0.110010159281
v 0.0265254309919 0.0647987006823 0.110012087822
v 0.0264237297884 0.0647973216806 0.110011444783
v 0.0263223016124 0.0647904328433 0.110008232465
v 0.0262215095506 0.0647780588305 0.110002462368
v 0.0261217144123 0.0647602439381 0.109994155148
v 0.0260232734382 0.0647370519386 0.109983340541
v 0.0259265390214 0.0647085658535 0.109970057261
v 0.0258318574462 0.0646748876556 0.109954352859
v 0.0257395676479 0.0646361379039 0.109936283554
v 0.02565 0.0645924553127 0.109915914027
v 0.0255634751315 0.0645439962542 0.109893317197
v 0.025480302779 0.0644909341993 0.109868573954
v 0.0254007806779 0.0644334590964 0.109841772873
v 0.0253251934967 0.0643717766914 0.109813009896
v 0.0252538118179 0.0643061077913 0.109782387985
v 0.0251868911693 0.0642366874738 0.109750016759
v 0.0251246711096 0.0641637642456 0.109716012099
v 0.0250673743703 0.0640875991528 0.109680495733
v 0.025015206059 0.0640084648468 0.1096435948
v 0.0249683529246 0.0639266446079 0.109605441396
v 0.0249269826892 0.0638424313312 0.1095661721
v 0.0248912434475 0.0637561264784 0.109525927487
v 0.0248612631368 0.0636680389986 0.10948485162
v 0.0248371490788 0.0635784842219 0.109443091542
v 0.0248189875954 0.0634877827314 0.109400796742
v 0.0248068437002 0.0633962592147 0.109358118626
v 0.0248007608651 0.0633042413023 0.109315209968
v 0.0248007608651 0.0632120583945 0.109272224373
v 0.0248068437002 0.0631200404822 0.109229315715
v 0.0248189875954 0.0630285169655 0.109186637599
v 0.0248371490788 0.0629378154749 0.109144342799
v 0.0248612631368 0.0628482606983 0.109102582721
v 0.0248912434475 0.0627601732185 0.109061506854
v 0.0249269826892 0.0626738683657 0.109021262241
v 0.0249683529246 0.062589655089 0.108981992945
v 0.025015206059 0.06250783485 0.108943839541
v 0.0250673743703 0.0624287005441 0.108906938608
v 0.0251246711096 0.0623525354513 0.108871422242
v 0.0251868911693 0.062279612223 0.108837417582
v 0.0252538118179 0.0622101919055 0.108805046356
v 0.0253251934967 0.0621445230055 0.108774424445
v 0.0254007806779 0.0620828406005 0.108745661467
v 0.025480302779 0.0620253654975 0.108718860387
v 0.0255634751315 0.0619723034426 0.108694117144
v 0.02565 0.0619238443842 0.108671520314
v 0.0257395676479 0.0618801617929 0.108651150787
v 0.0258318574462 0.0618414120413 0.108633081481
v 0.0259265390214 0.0618077338433 0.10861737708
v 0.0260232734382 0.0617792477582 0.1086040938
v 0.0261217144123 0.0617560557588 0.108593279193
v 0.0262215095506 0.0617382408663 0.108584971972
v 0.0263223016124 0.0617258668536 0.108579201875
v 0.0264237297884 0.0617189780163 0.108575989558
v 0.0265254309919 0.0617175990146 0.108575346519
v 0.0266270411591 0.0617217347851 0.10857727506
v 0.0267281965519 0.0617313705228 0.108581768279
v 0.0268285350603 0.0617464717342 0.108588810089
v 0.0269276974984 0.061766984361 0.108598375284
v 0.0270253288904 0.0617928349732 0.108610429622
v 0.0271210797414 0.0618239310323 0.108624929953
v 0.0272146072881 0.0618601612225 0.108641824368
v 0.0273055767262 0.0619013958493 0.10866105239
v 0.0273936624087 0.0619474873032 0.108682545188
v 0.0274785490117 0.0619982705888 0.108706225823
v 0.0275599326632 0.0620535639152 0.108732009525
v 0.0276375220308 0.0621131693466 0.108759803994
v 0.0277110393648 0.0621768735111 0.108789509734
v 0.0277802214922 0.0622444483642 0.108821020405
v 0.0278448207589 0.0623156520056 0.108854223209
v 0.0279046059163 0.0623902295446 0.108888999286
v 0.0279593629491 0.062467914013 0.108925224149
v 0.0280088958413 0.0625484273206 0.108962768121
v 0.028053027278 0.0626314812507 0.109001496804
v 0.0280915992801 0.0627167784917 0.109041271561
v 0.0281244737698 0.0628040137017 0.109081950007
v 0.0281515330651 0.0628928746012 0.109123386525
v 0.0281726803006 0.0629830430913 0.109165432783
v 0.0281878397748 0.0630741963922 0.109207938265
v 0.0281969572206 0.0631660081987 0.109250750814
v 0.0282 0.0632581498484 0.10929371717
v 0.0282 0.0634694589793 0.108840563277
v 0.0281969572206 0.063561600629 0.108883529634
v 0.0281878397748 0.0636534124355 0.108926342182
v 0.0281726803006 0.0637445657364 0.108968847665
v 0.0281515330651 0.0638347342265 0.109010893922
v 0.0281244737698 0.063923595126 0.10905233044
v 0.0280915992801 0.064010830336 0.109093008886
v 0.028053027278 0.064096127577 0.109132783643
v 0.0280088958413 0.0641791815071 0.109171512327
v 0.0279593629491 0.0642596948147 0.109209056299
v 0.0279046059163 0.0643373792832 0.109245281161
v 0.0278448207589 0.0644119568222 0.109280057239
v 0.0277802214922 0.0644831604635 0.109313260042
v 0.0277110393648 0.0645507353166 0.109344770714
v 0.0276375220308 0.0646144394811 0.109374476453
v 0.0275599326632 0.0646740449125 0.109402270922
v 0.0274785490117 0.0647293382389 0.109428054624
v 0.0273936624087 0.0647801215246 0.109451735259
v 0.0273055767262 0.0648262129785 0.109473228057
v 0.0272146072881 0.0648674476052 0.109492456079
v 0.0271210797414 0.0649036777954 0.109509350494
v 0.0270253288904 0.0649347738546 0.109523850825
v 0.0269276974984 0.0649606244668 0.109535905163
v 0.0268285350603 0.0649811370935 0.109545470358
v 0.0267281965519 0.0649962383049 0.109552512169
v 0.0266270411591 0.0650058740426 0.109557005387
v 0.0265254309919 0.0650100098131 0.109558933929
v 0.0264237297884 0.0650086308115 0.109558290889
v 0.0263223016124 0.0650017419742 0.109555078572
v 0.0262215095506 0.0649893679614 0.109549308475
v 0.0261217144123 0.0649715530689 0.109541001254
v 0.0260232734382 0.0649483610695 0.109530186647
v 0.0259265390214 0.0649198749844 0.109516903368
v 0.0258318574462 0.0648861967864 0.109501198966
v 0.0257395676479 0.0648474470348 0.10948312966
v 0.02565 0.0648037644436 0.109462760133
v 0.0255634751315 0.0647553053851 0.109440163303
v 0.025480302779 0.0647022433302 0.109415420061
v 0.0254007806779 0.0646447682273 0.10938861898
v 0.0253251934967 0.0645830858223 0.109359856002
v 0.0252538118179 0.0645174169222 0.109329234091
v 0.0251868911693 0.0644479966047 0.109296862865
v 0.0251246711096 0.0643750733764 0.109262858206
v 0.0250673743703 0.0642989082837 0.10922734184
v 0.025015206059 0.0642197739777 0.109190440907
v 0.0249683529246 0.0641379537387 0.109152287503
v 0.0249269826892 0.064053740462 0.109113018207
v 0.0248912434475 0.0639674356093 0.109072773593
v 0.0248612631368 0.0638793481294 0.109031697727
v 0.0248371490788 0.0637897933528 0.108989937648
v 0.0248189875954 0.0636990918622 0.108947642849
v 0.0248068437002 0.0636075683456 0.108904964732
v 0.0248007608651 0.0635155504332 0.108862056075
v 0.0248007608651 0.0634233675254 0.108819070479
v 0.0248068437002 0.063331349613 0.108776161822
v 0.0248189875954 0.0632398260964 0.108733483705
v 0.0248371490788 0.0631491246058 0.108691188905
v 0.0248612631368 0.0630595698292 0.108649428827
v 0.0248912434475 0.0629714823493 0.108608352961
v 0.0249269826892 0.0628851774966 0.108568108347
v 0.0249683529246 0.0628009642199 0.108528839051
v 0.025015206059 0.0627191439809 0.108490685647
v 0.0250673743703 0.0626400096749 0.108453784714
v 0.0251246711096 0.0625638445822 0.108418268348
v 0.0251868911693 0.0624909213539 0.108384263688
v 0.0252538118179 0.0624215010364 0.108351892463
v 0.0253251934967 0.0623558321363 0.108321270552
v 0.0254007806779 0.0622941497313 0.108292507574
v 0.025480302779 0.0622366746284 0.108265706493
v 0.0255634751315 0.0621836125735 0.108240963251
v 0.02565 0.062135153515 0.108218366421
v 0.0257395676479 0.0620914709238 0.108197996894
v 0.0258318574462 0.0620527211722 0.108179927588
v 0.0259265390214 0.0620190429742 0.108164223186
v 0.0260232734382 0.0619905568891 0.108150939907
v 0.0261217144123 0.0619673648897 0.1081401253
v 0.0262215095506 0.0619495499972 0.108131818079
v 0.0263223016124 0.0619371759844 0.108126047982
v 0.0264237297884 0.0619302871471 0.108122835664
v 0.0265254309919 0.0619289081455 0.108122192625
v 0.0266270411591 0.061933043916 0.108124121167
v 0.0267281965519 0.0619426796537 0.108128614385
v 0.0268285350603 0.0619577808651 0.108135656196
v 0.0269276974984 0.0619782934919 0.108145221391
v 0.0270253288904 0.062004144104 0.108157275729
v 0.0271210797414 0.0620352401632 0.108171776059
v 0.0272146072881 0.0620714703534 0.108188670475
v 0.0273055767262 0.0621127049801 0.108207898497
v 0.0273936624087 0.062158796434 0.108229391295
v 0.0274785490117 0.0622095797197 0.10825307193
v 0.0275599326632 0.0622648730461 0.108278855631
v 0.0276375220308 0.0623244784775 0.1083066501
v 0.0277110393648 0.062388182642 0.10833635584
v 0.0277802214922 0.0624557574951 0.108367866512
v 0.0278448207589 0.0625269611364 0.108401069315
v 0.0279046059163 0.0626015386754 0.108435845393
v 0.0279593629491 0.0626792231439 0.108472070255
v 0.0280088958413 0.0627597364515 0.108509614227
v 0.028053027278 0.0628427903816 0.108548342911
v 0.0280915992801 0.0629280876226 0.108588117667
v 0.0281244737698 0.0630153228326 0.108628796114
v 0.0281515330651 0.0631041837321 0.108670232632
v 0.0281726803006 0.0631943522222 0.108712278889
v 0.0281878397748 0.0632855055231 0.108754784372
v 0.0281969572206 0.0633773173296 0.10879759692
v 0.0282 0.0634694589793 0.108840563277
f 2 1 107
f 2 107 108
f 3 108 109
f 3 2 108
f 4 109 110
f 4 3 109
f 5 110 111
f 5 4 110
f 6 111 112
f 6 5 111
f 7 112 113
f 7 6 112
f 8 113 114
f 8 7 113
f 9 114 115
f 9 8 114
f 10 115 116
f 10 9 115
f 11 116 117
f 11 10 116
f 12 117 118
f 12 11 117
f 13 118 119
f 13 12 118
f 14 119 120
f 14 120 121
f 14 13 119
f 15 14 121
f 16 121 122
f 16 15 121
f 17 122 123
f 17 16 122
f 18 123 124
f 18 17 123
f 19 124 125
f 19 18 124
f 20 125 126
f 20 19 125
f 21 126 127
f 21 127 128
f 21 20 126
f 22 21 128
f 23 22 128
f 23 128 129
f 24 23 129
f 24 129 130
f 24 130 131
f 25 24 131
f 26 25 131
f 26 131 132
f 27 26 132
f 27 132 133
f 28 27 133
f 28 133 134
f 29 28 134
f 29 134 135
f 30 29 135
f 30 135 136
f 31 30 136
f 31 136 137
f 32 137 138
f 32 31 137
f 33 138 139
f 33 32 138
f 34 139 140
f 34 140 141
f 34 33 139
f 35 34 141
f 36 141 142
f 36 142 143
f 36 35 141
f 37 36 143
f 38 143 144
f 38 37 143
f 39 144 145
f 39 38 144
f 40 145 146
f 40 39 145
f 41 146 147
f 41 147 148
f 41 40 146
f 42 41 148
f 43 148 149
f 43 42 148
f 44 149 150
f 44 150 151
f 44 43 149
f 45 44 151
f 46 151 152
f 46 45 151
f 47 152 153
f 47 46 152
f 48 153 154
f 48 47 153
f 49 48 154
f 49 154 155
f 49 155 156
f 50 49 156
f 51 50 156
f 51 156 157
f 51 157 158
f 52 51 158
f 53 52 158
f 53 158 159
f 54 53 159
f 54 159 160
f 55 54 160
f 55 160 161
f 55 161 162
f 56 55 162
f 57 56 162
f 57 162 163
f 58 57 163
f 58 163 164
f 59 58 164
f 59 164 165
f 60 59 165
f 60 165 166
f 61 60 166
f 61 166 167
f 61 167 168
f 62 61 168
f 63 62 168
f 63 168 169
f 64 63 169
f 64 169 170
f 64 170 171
f 65 171 172
f 65 64 171
f 66 65 172
f 67 172 173
f 67 173 174
f 67 66 172
f 68 67 174
f 69 174 175
f 69 68 174
f 70 175 176
f 70 69 175
f 71 176 177
f 71 70 176
f 72 177 178
f 72 71 177
f 73 72 178
f 73 178 179
f 74 73 179
f 74 179 180
f 75 74 180
f 75 180 181
f 76 75 181
f 76 181 182
f 77 76 182
f 77 182 183
f 78 77 183
f 78 183 184
f 79 78 184
f 79 184 185
f 80 79 185
f 80 185 186
f 81 80 186
f 81 186 187
f 82 81 187
f 82 187 188
f 83 82 188
f 83 188 189
f 84 83 189
f 84 189 190
f 85 84 190
f 85 190 191
f 86 85 191
f 86 191 192
f 87 86 192
f 87 192 193
f 88 87 193
f 88 193 194
f 89 88 194
f 89 194 195
f 90 89 195
f 90 195 196
f 91 90 196
f 91 196 197
f 92 91 197
f 92 197 198
f 93 92 198
f 93 198 199
f 94 93 199
f 94 199 200
f 95 94 200
f 95 200 201
f 96 95 201
f 96 201 202
f 97 202 203
f 97 96 202
f 98 203 204
f 98 97 203
f 99 98 204
f 99 204 205
f 100 205 206
f 100 99 205
f 101 206 207
f 101 100 206
f 102 207 208
f 102 101 207
f 103 208 209
f 103 102 208
f 104 209 210
f 104 103 209
f 105 210 211
f 105 211 212
f 105 104 210
f 106 105 212
f 383 279 384
f 383 278 279
f 385 384 279
f 385 279 280
f 382 276 277
f 382 277 278
f 382 278 383
f 386 385 280
f 386 280 281
f 381 276 382
f 381 275 276
f 387 281 282
f 387 386 281
f 380 275 381
f 380 274 275
f 388 387 282
f 388 282 283
f 379 273 274
f 379 274 380
f 389 388 283
f 389 283 284
f 378 273 379
f 390 389 284
f 390 284 285
f 377 272 273
f 377 273 378
f 391 285 286
f 391 390 285
f 376 272 377
f 376 270 271
f 376 271 272
f 392 391 286
f 392 286 287
f 375 270 376
f 393 392 287
f 393 287 288
f 374 270 375
f 374 269 270
f 394 393 288
f 394 288 289
f 373 269 374
f 373 268 269
f 395 289 290
f 395 394 289
f 372 267 268
f 372 268 373
f 396 395 290
f 396 290 291
f 371 267 372
f 371 266 267
f 397 396 291
f 397 291 292
f 370 266 371
f 370 265 266
f 398 397 292
f 398 292 293
f 369 265 370
f 369 264 265
f 399 398 293
f 399 293 294
f 368 263 264
f 368 264 369
f 400 399 294
f 400 294 295
f 367 262 263
f 367 263 368
f 401 400 295
f 401 295 296
f 366 261 262
f 366 262 367
f 402 296 297
f 402 401 296
f 365 261 366
f 365 260 261
f 403 402 297
f 403 297 298
f 364 259 260
f 364 260 365
f 404 403 298
f 404 298 299
f 363 258 259
f 363 259 364
f 405 404 299
f 405 299 300
f 362 257 258
f 362 258 363
f 406 300 301
f 406 405 300
f 361 256 257
f 361 257 362
f 407 301 302
f 407 406 301
f 360 255 256
f 360 256 361
f 408 407 302
f 408 302 303
f 359 255 360
f 359 254 255
f 409 408 303
f 409 303 304
f 358 254 359
f 358 253 254
f 410 409 304
f 305 410 304
f 357 253 358
f 252 253 357
f 306 410 305
f 306 411 410
f 251 252 357
f 251 357 356
f 307 411 306
f 307 412 411
f 250 251 356
f 250 355 354
f 250 356 355
f 308 412 307
f 308 413 412
f 249 250 354
f 309 413 308
f 309 414 413
f 248 354 353
f 248 249 354
f 310 415 414
f 310 414 309
f 247 353 352
f 247 248 353
f 311 416 415
f 311 417 416
f 311 415 310
f 246 351 350
f 246 352 351
f 246 247 352
f 312 417 311
f 245 246 350
f 313 418 417
f 313 419 418
f 313 417 312
f 244 245 350
f 244 349 348
f 244 350 349
f 314 419 313
f 243 244 348
f 315 420 419
f 315 419 314
f 242 347 346
f 242 348 347
f 242 243 348
f 316 421 420
f 316 420 315
f 241 242 346
f 317 422 421
f 317 318 422
f 317 421 316
f 240 346 345
f 240 241 346
f 213 318 317
f 239 344 343
f 239 345 344
f 239 240 345
f 214 319 318
f 214 318 213
f 238 239 343
f 215 320 319
f 215 319 214
f 237 238 343
f 237 343 342
f 216 321 320
f 216 322 321
f 216 320 215
f 236 342 341
f 236 237 342
f 217 322 216
f 235 340 339
f 235 341 340
f 235 236 341
f 218 323 322
f 218 324 323
f 218 322 217
f 234 235 339
f 219 324 218
f 233 339 338
f 233 234 339
f 220 325 324
f 220 324 219
f 232 338 337
f 232 233 338
f 221 326 325
f 221 325 220
f 231 232 337
f 231 337 336
f 222 326 221
f 222 327 326
f 222 328 327
f 230 231 336
f 230 336 335
f 223 328 222
f 229 230 335
f 229 335 334
f 224 328 223
f 224 329 328
f 228 229 334
f 228 334 333
f 225 329 224
f 225 330 329
f 225 331 330
f 227 333 332
f 227 228 333
f 226 227 332
f 226 332 331
f 226 331 225
f 593 594 489
f 593 489 488
f 595 489 594
f 595 490 489
f 592 487 486
f 592 488 487
f 592 593 488
f 596 490 595
f 596 491 490
f 591 592 486
f 591 486 485
f 597 492 491
f 597 491 596
f 590 591 485
f 590 485 484
f 598 492 597
f 598 493 492
f 589 484 483
f 589 590 484
f 599 493 598
f 599 494 493
f 588 589 483
f 600 494 599
f 600 495 494
f 587 483 482
f 587 588 483
f 601 496 495
f 601 495 600
f 586 587 482
f 586 481 480
f 586 482 481
f 602 496 601
f 602 497 496
f 585 586 480
f 603 497 602
f 603 498 497
f 584 585 480
f 584 480 479
f 604 498 603
f 604 499 498
f 583 584 479
f 583 479 478
f 605 500 499
f 605 499 604
f 582 478 477
f 582 583 478
f 606 500 605
f 606 501 500
f 581 582 477
f 581 477 476
f 607 501 606
f 607 502 501
f 580 581 476
f 580 476 475
f 608 502 607
f 608 503 502
f 579 580 475
f 579 475 474
f 609 503 608
f 609 504 503
f 578 474 473
f 578 579 474
f 610 504 609
f 610 505 504
f 577 473 472
f 577 578 473
f 611 505 610
f 611 506 505
f 576 472 471
f 576 577 472
f 612 507 506
f 612 506 611
f 575 576 471
f 575 471 470
f 613 507 612
f 613 508 507
f 574 470 469
f 574 575 470
f 614 508 613
f 614 509 508
f 573 469 468
f 573 574 469
f 615 509 614
f 615 510 509
f 572 468 467
f 572 573 468
f 616 511 510
f 616 510 615
f 571 467 466
f 571 572 467
f 617 512 511
f 617 511 616
f 570 466 465
f 570 571 466
f 618 512 617
f 618 513 512
f 569 570 465
f 569 465 464
f 619 513 618
f 619 514 513
f 568 569 464
f 568 464 463
f 620 514 619
f 515 514 620
f 567 568 463
f 462 567 463
f 516 515 620
f 516 620 621
f 461 567 462
f 461 566 567
f 517 516 621
f 517 621 622
f 460 566 461
f 460 564 565
f 460 565 566
f 518 517 622
f 518 622 623
f 459 564 460
f 519 518 623
f 519 623 624
f 458 563 564
f 458 564 459
f 520 624 625
f 520 519 624
f 457 562 563
f 457 563 458
f 521 625 626
f 521 626 627
f 521 520 625
f 456 560 561
f 456 561 562
f 456 562 457
f 522 521 627
f 455 560 456
f 523 627 628
f 523 628 629
f 523 522 627
f 454 560 455
f 454 558 559
f 454 559 560
f 524 523 629
f 453 558 454
f 525 629 630
f 525 524 629
f 452 556 557
f 452 557 558
f 452 558 453
f 526 630 631
f 526 525 630
f 451 556 452
f 527 631 632
f 527 632 528
f 527 526 631
f 450 555 556
f 450 556 451
f 423 527 528
f 449 553 554
f 449 554 555
f 449 555 450
f 424 528 529
f 424 423 528
f 448 553 449
f 425 529 530
f 425 424 529
f 447 553 448
f 447 552 553
f 426 530 531
f 426 531 532
f 426 425 530
f 446 551 552
f 446 552 447
f 427 426 532
f 445 549 550
f 445 550 551
f 445 551 446
f 428 532 533
f 428 533 534
f 428 427 532
f 444 549 445
f 429 428 534
f 443 548 549
f 443 549 444
f 430 534 535
f 430 429 534
f 442 547 548
f 442 548 443
f 431 535 536
f 431 430 535
f 441 547 442
f 441 546 547
f 432 431 536
f 432 536 537
f 432 537 538
f 440 546 441
f 440 545 546
f 433 432 538
f 439 545 440
f 439 544 545
f 434 433 538
f 434 538 539
f 438 544 439
f 438 543 544
f 435 434 539
f 435 539 540
f 435 540 541
f 437 542 543
f 437 543 438
f 436 542 437
f 436 541 542
f 436 435 541
f 634 739 633
f 634 740 739
f 635 741 740
f 635 740 634
f 636 742 741
f 636 741 635
f 637 743 742
f 637 742 636
f 638 744 743
f 638 743 637
f 639 745 744
f 639 744 638
f 640 746 745
f 640 745 639
f 641 747 746
f 641 746 640
f 642 748 747
f 642 747 641
f 643 749 748
f 643 748 642
f 644 750 749
f 644 749 643
f 645 751 750
f 645 750 644
f 646 752 751
f 646 753 752
f 646 751 645
f 647 753 646
f 648 754 753
f 648 753 647
f 649 755 754
f 649 754 648
f 650 756 755
f 650 755 649
f 651 757 756
f 651 756 650
f 652 758 757
f 652 757 651
f 653 759 758
f 653 760 759
f 653 758 652
f 654 760 653
f 655 760 654
f 655 761 760
f 656 761 655
f 656 762 761
f 656 763 762
f 657 763 656
f 658 763 657
f 658 764 763
f 659 764 658
f 659 765 764
f 660 765 659
f 660 766 765
f 661 766 660
f 661 767 766
f 662 767 661
f 662 768 767
f 663 768 662
f 663 769 768
f 664 770 769
f 664 769 663
f 665 771 770
f 665 770 664
f 666 772 771
f 666 773 772
f 666 771 665
f 667 773 666
f 668 774 773
f 668 775 774
f 668 773 667
f 669 775 668
f 670 776 775
f 670 775 669
f 671 777 776
f 671 776 670
f 672 778 777
f 672 777 671
f 673 779 778
f 673 780 779
f 673 778 672
f 674 780 673
f 675 781 780
f 675 780 674
f 676 782 781
f 676 783 782
f 676 781 675
f 677 783 676
f 678 784 783
f 678 783 677
f 679 785 784
f 679 784 678
f 680 786 785
f 680 785 679
f 681 786 680
f 681 787 786
f 681 788 787
f 682 788 681
f 683 788 682
f 683 789 788
f 683 790 789
f 684 790 683
f 685 790 684
f 685 791 790
f 686 791 685
f 686 792 791
f 687 792 686
f 687 793 792
f 687 794 793
f 688 794 687
f 689 794 688
f 689 795 794
f 690 795 689
f 690 796 795
f 691 796 690
f 691 797 796
f 692 797 691
f 692 798 797
f 693 798 692
f 693 799 798
f 693 800 799
f 694 800 693
f 695 800 694
f 695 801 800
f 696 801 695
f 696 802 801
f 696 803 802
f 697 804 803
f 697 803 696
f 698 804 697
f 699 805 804
f 699 806 805
f 699 804 698
f 700 806 699
f 701 807 806
f 701 806 700
f 702 808 807
f 702 807 701
f 703 809 808
f 703 808 702
f 704 810 809
f 704 809 703
f 705 810 704
f 705 811 810
f 706 811 705
f 706 812 811
f 707 812 706
f 707 813 812
f 708 813 707
f 708 814 813
f 709 814 708
f 709 815 814
f 710 815 709
f 710 816 815
f 711 816 710
f 711 817 816
f 712 817 711
f 712 818 817
f 713 818 712
f 713 819 818
f 714 819 713
f 714 820 819
f 715 820 714
f 715 821 820
f 716 821 715
f 716 822 821
f 717 822 716
f 717 823 822
f 718 823 717
f 718 824 823
f 719 824 718
f 719 825 824
f 720 825 719
f 720 826 825
f 721 826 720
f 721 827 826
f 722 827 721
f 722 828 827
f 723 828 722
f 723 829 828
f 724 829 723
f 724 830 829
f 725 830 724
f 725 831 830
f 726 831 725
f 726 832 831
f 727 832 726
f 727 833 832
f 728 833 727
f 728 834 833
f 729 835 834
f 729 834 728
f 730 836 835
f 730 835 729
f 731 836 730
f 731 837 836
f 732 838 837
f 732 837 731
f 733 839 838
f 733 838 732
f 734 840 839
f 734 839 733
f 735 841 840
f 735 840 734
f 736 842 841
f 736 841 735
f 737 843 842
f 737 844 843
f 737 842 736
f 738 844 737
