v -0.021 0.0669725476003 0.106060568652
v -0.021 0.0977870123596 0.120429589551
v -0.021 0.0766927676204 0.0852154895504
v -0.021 0.10750723238 0.0995845104496
v -0.021 0.0669725476003 0.106060568652
v -0.021 0.0977870123596 0.120429589551
v -0.0209932326331 0.0667617591555 0.105962276386
v -0.020972953431 0.066551683952 0.10586431671
v -0.020939231012 0.0663430328178 0.105767021088
v -0.0208921794823 0.0661365117625 0.105670718739
v -0.0208319580493 0.0659328195877 0.105575735518
v -0.0207587704831 0.0657326455235 0.105482392818
v -0.0206728644275 0.0655366668953 0.105391006483
v -0.0205745305613 0.065345546833 0.105301885735
v -0.0204641016151 0.0651599320263 0.105215332129
v -0.0203419512457 0.0649804505369 0.105131638536
v -0.020208492771 0.0648077096733 0.105051088148
v -0.0200641777725 0.0646422939361 0.104973953523
v -0.0199094945663 0.0644847630396 0.10490049566
v -0.0197449665515 0.0643356500186 0.104830963116
v -0.0195711504387 0.0641954594243 0.104765591168
v -0.0193886343668 0.0640646656173 0.104704601015
v -0.0191980359123 0.0639437111625 0.104648199026
v -0.019 0.0638330053315 0.104596576049
v -0.0187951967208 0.0637329227176 0.10454990676
v -0.0185843190642 0.0636438019689 0.104508349072
v -0.0183680805733 0.0635659446418 0.104472043604
v -0.0181472129308 0.0634996141807 0.104441113202
v -0.017922463483 0.063445035027 0.104415662525
v -0.0176945927107 0.0634023918592 0.104395777689
v -0.0174643716565 0.0633718289683 0.104381525979
v -0.0172325793156 0.0633534497695 0.104372955618
v -0.017 0.0633473164522 0.104370095605
v 0.017 0.0633473164522 0.104370095605
v 0.021 0.0669725476003 0.106060568652
v 0.0209932326331 0.0667617591555 0.105962276386
v 0.020972953431 0.066551683952 0.10586431671
v 0.020939231012 0.0663430328178 0.105767021088
v 0.0208921794823 0.0661365117625 0.105670718739
v 0.0208319580493 0.0659328195877 0.105575735518
v 0.0207587704831 0.0657326455235 0.105482392818
v 0.0206728644275 0.0655366668953 0.105391006483
v 0.0205745305613 0.065345546833 0.105301885735
v 0.0204641016151 0.0651599320263 0.105215332129
v 0.0203419512457 0.0649804505369 0.105131638536
v 0.020208492771 0.0648077096733 0.105051088148
v 0.0200641777725 0.0646422939361 0.104973953523
v 0.0199094945663 0.0644847630396 0.10490049566
v 0.0197449665515 0.0643356500186 0.104830963116
v 0.0195711504387 0.0641954594243 0.104765591168
v 0.0193886343668 0.0640646656173 0.104704601015
v 0.0191980359123 0.0639437111625 0.104648199026
v 0.019 0.0638330053315 0.104596576049
v 0.0187951967208 0.0637329227176 0.10454990676
v 0.0185843190642 0.0636438019689 0.104508349072
v 0.0183680805733 0.0635659446418 0.104472043604
v 0.0181472129308 0.0634996141807 0.104441113202
v 0.017922463483 0.063445035027 0.104415662525
v 0.0176945927107 0.0634023918592 0.104395777689
v 0.0174643716565 0.0633718289683 0.104381525979
v 0.0172325793156 0.0633534497695 0.104372955618
v 0.021 0.0977870123596 0.120429589551
v 0.0209932326331 0.0979978008045 0.120527881818
v 0.020972953431 0.098207876008 0.120625841494
v 0.020939231012 0.0984165271421 0.120723137115
v 0.0208921794823 0.0986230481975 0.120819439465
v 0.0208319580493 0.0988267403722 0.120914422686
v 0.0207587704831 0.0990269144365 0.121007765385
v 0.0206728644275 0.0992228930646 0.12109915172
v 0.0205745305613 0.0994140131269 0.121188272469
v 0.0204641016151 0.0995996279337 0.121274826075
v 0.0203419512457 0.0997791094231 0.121358519668
v 0.020208492771 0.0999518502866 0.121439070055
v 0.0200641777725 0.100117266024 0.121516204681
v 0.0199094945663 0.10027479692 0.121589662544
v 0.0197449665515 0.100423909941 0.121659195088
v 0.0195711504387 0.100564100536 0.121724567035
v 0.0193886343668 0.100694894343 0.121785557189
v 0.0191980359123 0.100815848797 0.121841959178
v 0.019 0.100926554628 0.121893582155
v 0.0187951967208 0.101026637242 0.121940251444
v 0.0185843190642 0.101115757991 0.121981809131
v 0.0183680805733 0.101193615318 0.122018114599
v 0.0181472129308 0.101259945779 0.122049045001
v 0.017922463483 0.101314524933 0.122074495679
v 0.0176945927107 0.101357168101 0.122094380514
v 0.0174643716565 0.101387730992 0.122108632224
v 0.0172325793156 0.10140611019 0.122117202586
v 0.017 0.101412243508 0.122120062598
v -0.017 0.101412243508 0.122120062598
v -0.0209932326331 0.0979978008045 0.120527881818
v -0.020972953431 0.098207876008 0.120625841494
v -0.020939231012 0.0984165271421 0.120723137115
v -0.0208921794823 0.0986230481975 0.120819439465
v -0.0208319580493 0.0988267403722 0.120914422686
v -0.0207587704831 0.0990269144365 0.121007765385
v -0.0206728644275 0.0992228930646 0.12109915172
v -0.0205745305613 0.0994140131269 0.121188272469
v -0.0204641016151 0.0995996279337 0.121274826075
v -0.0203419512457 0.0997791094231 0.121358519668
v -0.020208492771 0.0999518502866 0.121439070055
v -0.0200641777725 0.100117266024 0.121516204681
v -0.0199094945663 0.10027479692 0.121589662544
v -0.0197449665515 0.100423909941 0.121659195088
v -0.0195711504387 0.100564100536 0.121724567035
v -0.0193886343668 0.100694894343 0.121785557189
v -0.0191980359123 0.100815848797 0.121841959178
v -0.019 0.100926554628 0.121893582155
v -0.0187951967208 0.101026637242 0.121940251444
v -0.0185843190642 0.101115757991 0.121981809131
v -0.0183680805733 0.101193615318 0.122018114599
v -0.0181472129308 0.101259945779 0.122049045001
v -0.017922463483 0.101314524933 0.122074495679
v -0.0176945927107 0.101357168101 0.122094380514
v -0.0174643716565 0.101387730992 0.122108632224
v -0.0172325793156 0.10140611019 0.122117202586
v -0.00875 0.08237977998 0.113245079102
v -0.00875223733779 0.082447531193 0.113276672011
v -0.00875894134207 0.0825150398742 0.113308151826
v -0.00877008801425 0.0825820643602 0.113339405857
v -0.00878563745213 0.0826483647206 0.113370322223
v -0.00880553399277 0.0827137036173 0.113400790251
v -0.0088297064117 0.082777847154 0.113430700874
v -0.00885806817795 0.0828405657136 0.113459947018
v -0.00889051776374 0.0829016347798 0.113488423991
v -0.008926939008 0.0829608357413 0.113516029853
v -0.00896720153211 0.083017956674 0.113542665782
v -0.00901116120668 0.0830727930997 0.113568236427
v -0.0090586606675 0.0831251487184 0.113592650253
v -0.00910952987881 0.0831748361104 0.113615819864
v -0.00916358674205 0.0832216774077 0.11363766232
v -0.00922063774768 0.0832655049309 0.113658099429
v -0.00928047866789 0.0833061617885 0.113677058034
v -0.00934289528774 0.0833435024397 0.113694470265
v -0.00940766417191 0.0833773932147 0.113710273793
v -0.00947455346461 0.0834077127931 0.113724412045
v -0.00954332371954 0.0834343526389 0.113736834409
v -0.00961372875703 0.0834572173883 0.113747496417
v -0.00968551654532 0.0834762251913 0.113756359901
v -0.00975843010276 0.0834913080051 0.113763393132
v -0.00983220841773 0.083502411837 0.113768570934
v -0.00990658738302 0.0835094969383 0.113771874771
v -0.00998130074123 0.083512537946 0.113773292816
v -0.0100560810379 0.0835115239742 0.113772819993
v -0.0101306605791 0.0835064586527 0.113770457995
v -0.0102047723893 0.0834973601139 0.113766215277
v -0.0102781511674 0.0834842609282 0.113760107026
v -0.0103505342366 0.0834672079875 0.113752155109
v -0.0104216624842 0.0834462623366 0.113742387992
v -0.0104912812896 0.0834214989558 0.113730840638
v -0.0105591414354 0.0833930064914 0.113717554384
v -0.010625 0.083360886939 0.11370257679
v -0.0106886212268 0.0833252552783 0.113685961474
v -0.0107497773684 0.0832862390615 0.113667767913
v -0.0108082495015 0.0832439779564 0.113648061236
v -0.0108638283112 0.0831986232469 0.113626911988
v -0.0109163148398 0.0831503372909 0.113604395877
v -0.010965521199 0.0830992929398 0.113580593505
v -0.011011271243 0.083045672919 0.113555590079
v -0.0110534011983 0.0829896691744 0.113529475104
v -0.0110917602508 0.0829314821847 0.113502342065
v -0.0111262110849 0.0828713202443 0.113474288091
v -0.0111566303756 0.0828093987173 0.113445413609
v -0.0111829092297 0.0827459392667 0.113415821981
v -0.0112049535759 0.0826811690609 0.113385619138
v -0.0112226845009 0.0826153199605 0.113354913199
v -0.0112360385328 0.082548627688 0.113323814081
v -0.0112449678675 0.0824813309846 0.113292433113
v -0.0112494405404 0.0824136707549 0.11326088263
v -0.0112494405404 0.082345889205 0.113229275574
v -0.0112449678675 0.0822782289754 0.113197725091
v -0.0112360385328 0.0822109322719 0.113166344123
v -0.0112226845009 0.0821442399995 0.113135245005
v -0.0112049535759 0.082078390899 0.113104539065
v -0.0111829092297 0.0820136206932 0.113074336222
v -0.0111566303756 0.0819501612427 0.113044744595
v -0.0111262110849 0.0818882397157 0.113015870112
v -0.0110917602508 0.0818280777753 0.112987816139
v -0.0110534011983 0.0817698907856 0.1129606831
v -0.011011271243 0.0817138870409 0.112934568125
v -0.010965521199 0.0816602670201 0.112909564699
v -0.0109163148398 0.081609222669 0.112885762327
v -0.0108638283112 0.0815609367131 0.112863246216
v -0.0108082495015 0.0815155820035 0.112842096967
v -0.0107497773684 0.0814733208984 0.11282239029
v -0.0106886212268 0.0814343046816 0.11280419673
v -0.010625 0.0813986730209 0.112787581413
v -0.0105591414354 0.0813665534686 0.11277260382
v -0.0104912812896 0.0813380610041 0.112759317566
v -0.0104216624842 0.0813132976233 0.112747770212
v -0.0103505342366 0.0812923519725 0.112738003094
v -0.0102781511674 0.0812752990317 0.112730051177
v -0.0102047723893 0.0812621998461 0.112723942927
v -0.0101306605791 0.0812531013073 0.112719700208
v -0.0100560810379 0.0812480359857 0.11271733821
v -0.00998130074123 0.0812470220139 0.112716865387
v -0.00990658738302 0.0812500630217 0.112718283433
v -0.00983220841773 0.0812571481229 0.11272158727
v -0.00975843010276 0.0812682519548 0.112726765071
v -0.00968551654532 0.0812833347686 0.112733798303
v -0.00961372875703 0.0813023425717 0.112742661787
v -0.00954332371954 0.081325207321 0.112753323795
v -0.00947455346461 0.0813518471668 0.112765746159
v -0.00940766417191 0.0813821667453 0.112779884411
v -0.00934289528774 0.0814160575202 0.112795687939
v -0.00928047866789 0.0814533981714 0.11281310017
v -0.00922063774768 0.0814940550291 0.112832058774
v -0.00916358674205 0.0815378825522 0.112852495884
v -0.00910952987881 0.0815847238496 0.11287433834
v -0.0090586606675 0.0816344112416 0.112897507951
v -0.00901116120668 0.0816867668602 0.112921921777
v -0.00896720153211 0.0817416032859 0.112947492422
v -0.008926939008 0.0817987242186 0.112974128351
v -0.00889051776374 0.0818579251801 0.113001734212
v -0.00885806817795 0.0819189942463 0.113030211185
v -0.0088297064117 0.0819817128059 0.11305945733
v -0.00880553399277 0.0820458563427 0.113089367953
v -0.00878563745213 0.0821111952394 0.11311983598
v -0.00877008801425 0.0821774955997 0.113150752346
v -0.00875894134207 0.0822445200857 0.113182006377
v -0.00875223733779 0.0823120287669 0.113213486192
v 0.01125 0.08237977998 0.113245079102
v 0.0112477626622 0.082447531193 0.113276672011
v 0.0112410586579 0.0825150398742 0.113308151826
v 0.0112299119857 0.0825820643602 0.113339405857
v 0.0112143625479 0.0826483647206 0.113370322223
v 0.0111944660072 0.0827137036173 0.113400790251
v 0.0111702935883 0.082777847154 0.113430700874
v 0.0111419318221 0.0828405657136 0.113459947018
v 0.0111094822363 0.0829016347798 0.113488423991
v 0.011073060992 0.0829608357413 0.113516029853
v 0.0110327984679 0.083017956674 0.113542665782
v 0.0109888387933 0.0830727930997 0.113568236427
v 0.0109413393325 0.0831251487184 0.113592650253
v 0.0108904701212 0.0831748361104 0.113615819864
v 0.0108364132579 0.0832216774077 0.11363766232
v 0.0107793622523 0.0832655049309 0.113658099429
v 0.0107195213321 0.0833061617885 0.113677058034
v 0.0106571047123 0.0833435024397 0.113694470265
v 0.0105923358281 0.0833773932147 0.113710273793
v 0.0105254465354 0.0834077127931 0.113724412045
v 0.0104566762805 0.0834343526389 0.113736834409
v 0.010386271243 0.0834572173883 0.113747496417
v 0.0103144834547 0.0834762251913 0.113756359901
v 0.0102415698972 0.0834913080051 0.113763393132
v 0.0101677915823 0.083502411837 0.113768570934
v 0.010093412617 0.0835094969383 0.113771874771
v 0.0100186992588 0.083512537946 0.113773292816
v 0.00994391896206 0.0835115239742 0.113772819993
v 0.00986933942092 0.0835064586527 0.113770457995
v 0.00979522761073 0.0834973601139 0.113766215277
v 0.00972184883255 0.0834842609282 0.113760107026
v 0.00964946576337 0.0834672079875 0.113752155109
v 0.00957833751577 0.0834462623366 0.113742387992
v 0.00950871871043 0.0834214989558 0.113730840638
v 0.00944085856461 0.0833930064914 0.113717554384
v 0.009375 0.083360886939 0.11370257679
v 0.00931137877318 0.0833252552783 0.113685961474
v 0.00925022263164 0.0832862390615 0.113667767913
v 0.00919175049848 0.0832439779564 0.113648061236
v 0.00913617168877 0.0831986232469 0.113626911988
v 0.00908368516021 0.0831503372909 0.113604395877
v 0.00903447880097 0.0830992929398 0.113580593505
v 0.00898872875703 0.083045672919 0.113555590079
v 0.00894659880168 0.0829896691744 0.113529475104
v 0.00890823974923 0.0829314821847 0.113502342065
v 0.00887378891512 0.0828713202443 0.113474288091
v 0.00884336962441 0.0828093987173 0.113445413609
v 0.00881709077025 0.0827459392667 0.113415821981
v 0.00879504642413 0.0826811690609 0.113385619138
v 0.00877731549908 0.0826153199605 0.113354913199
v 0.00876396146722 0.082548627688 0.113323814081
v 0.00875503213251 0.0824813309846 0.113292433113
v 0.00875055945965 0.0824136707549 0.11326088263
v 0.00875055945965 0.082345889205 0.113229275574
v 0.00875503213251 0.0822782289754 0.113197725091
v 0.00876396146722 0.0822109322719 0.113166344123
v 0.00877731549908 0.0821442399995 0.113135245005
v 0.00879504642413 0.082078390899 0.113104539065
v 0.00881709077025 0.0820136206932 0.113074336222
v 0.00884336962441 0.0819501612427 0.113044744595
v 0.00887378891512 0.0818882397157 0.113015870112
v 0.00890823974923 0.0818280777753 0.112987816139
v 0.00894659880168 0.0817698907856 0.1129606831
v 0.00898872875703 0.0817138870409 0.112934568125
v 0.00903447880097 0.0816602670201 0.112909564699
v 0.00908368516021 0.081609222669 0.112885762327
v 0.00913617168877 0.0815609367131 0.112863246216
v 0.00919175049848 0.0815155820035 0.112842096967
v 0.00925022263164 0.0814733208984 0.11282239029
v 0.00931137877318 0.0814343046816 0.11280419673
v 0.009375 0.0813986730209 0.112787581413
v 0.00944085856461 0.0813665534686 0.11277260382
v 0.00950871871043 0.0813380610041 0.112759317566
v 0.00957833751577 0.0813132976233 0.112747770212
v 0.00964946576337 0.0812923519725 0.112738003094
v 0.00972184883255 0.0812752990317 0.112730051177
v 0.00979522761073 0.0812621998461 0.112723942927
v 0.00986933942092 0.0812531013073 0.112719700208
v 0.00994391896206 0.0812480359857 0.11271733821
v 0.0100186992588 0.0812470220139 0.112716865387
v 0.010093412617 0.0812500630217 0.112718283433
v 0.0101677915823 0.0812571481229 0.11272158727
v 0.0102415698972 0.0812682519548 0.112726765071
v 0.0103144834547 0.0812833347686 0.112733798303
v 0.010386271243 0.0813023425717 0.112742661787
v 0.0104566762805 0.081325207321 0.112753323795
v 0.0105254465354 0.0813518471668 0.112765746159
v 0.0105923358281 0.0813821667453 0.112779884411
v 0.0106571047123 0.0814160575202 0.112795687939
v 0.0107195213321 0.0814533981714 0.11281310017
v 0.0107793622523 0.0814940550291 0.112832058774
v 0.0108364132579 0.0815378825522 0.112852495884
v 0.0108904701212 0.0815847238496 0.11287433834
v 0.0109413393325 0.0816344112416 0.112897507951
v 0.0109888387933 0.0816867668602 0.112921921777
v 0.0110327984679 0.0817416032859 0.112947492422
v 0.011073060992 0.0817987242186 0.112974128351
v 0.0111094822363 0.0818579251801 0.113001734212
v 0.0111419318221 0.0819189942463 0.113030211185
v 0.0111702935883 0.0819817128059 0.11305945733
v 0.0111944660072 0.0820458563427 0.113089367953
v 0.0112143625479 0.0821111952394 0.11311983598
v 0.0112299119857 0.0821774955997 0.113150752346
v 0.0112410586579 0.0822445200857 0.113182006377
v 0.0112477626622 0.0823120287669 0.113213486192
v -0.021 0.0766927676204 0.0852154895504
v -0.0209932326331 0.0764819791755 0.0851171972843
v -0.020972953431 0.076271903972 0.0850192376081
v -0.020939231012 0.0760632528379 0.0849219419864
v -0.0208921794823 0.0758567317825 0.0848256396367
v -0.0208319580493 0.0756530396078 0.0847306564157
v -0.0207587704831 0.0754528655435 0.0846373137166
v -0.0206728644275 0.0752568869154 0.0845459273815
v -0.0205745305613 0.0750657668531 0.0844568066328
v -0.0204641016151 0.0748801520463 0.0843702530269
v -0.0203419512457 0.0747006705569 0.0842865594339
v -0.020208492771 0.0745279296934 0.0842060090464
v -0.0200641777725 0.0743625139561 0.0841288744213
v -0.0199094945663 0.0742049830596 0.0840554165579
v -0.0197449665515 0.0740558700386 0.0839858840143
v -0.0195711504387 0.0739156794443 0.0839205120665
v -0.0193886343668 0.0737848856374 0.0838595219127
v -0.0191980359123 0.0736639311825 0.0838031199241
v -0.019 0.0735532253515 0.0837514969473
v -0.0187951967208 0.0734531427377 0.0837048276581
v -0.0185843190642 0.073364021989 0.0836632699704
v -0.0183680805733 0.0732861646618 0.0836269645025
v -0.0181472129308 0.0732198342007 0.0835960341006
v -0.017922463483 0.073165255047 0.0835705834232
v -0.0176945927107 0.0731226118792 0.0835506985875
v -0.0174643716565 0.0730920489884 0.0835364468774
v -0.0172325793156 0.0730736697896 0.0835278765163
v -0.017 0.0730675364722 0.0835250165034
v -0.017 0.0633473164522 0.104370095605
v -0.021 0.0669725476003 0.106060568652
v -0.0209932326331 0.0667617591555 0.105962276386
v -0.020972953431 0.066551683952 0.10586431671
v -0.020939231012 0.0663430328178 0.105767021088
v -0.0208921794823 0.0661365117625 0.105670718739
v -0.0208319580493 0.0659328195877 0.105575735518
v -0.0207587704831 0.0657326455235 0.105482392818
v -0.0206728644275 0.0655366668953 0.105391006483
v -0.0205745305613 0.065345546833 0.105301885735
v -0.0204641016151 0.0651599320263 0.105215332129
v -0.0203419512457 0.0649804505369 0.105131638536
v -0.020208492771 0.0648077096733 0.105051088148
v -0.0200641777725 0.0646422939361 0.104973953523
v -0.0199094945663 0.0644847630396 0.10490049566
v -0.0197449665515 0.0643356500186 0.104830963116
v -0.0195711504387 0.0641954594243 0.104765591168
v -0.0193886343668 0.0640646656173 0.104704601015
v -0.0191980359123 0.0639437111625 0.104648199026
v -0.019 0.0638330053315 0.104596576049
v -0.0187951967208 0.0637329227176 0.10454990676
v -0.0185843190642 0.0636438019689 0.104508349072
v -0.0183680805733 0.0635659446418 0.104472043604
v -0.0181472129308 0.0634996141807 0.104441113202
v -0.017922463483 0.063445035027 0.104415662525
v -0.0176945927107 0.0634023918592 0.104395777689
v -0.0174643716565 0.0633718289683 0.104381525979
v -0.0172325793156 0.0633534497695 0.104372955618
v -0.021 0.10750723238 0.0995845104496
v -0.0209932326331 0.107718020824 0.0996828027157
v -0.020972953431 0.107928096028 0.0997807623919
v -0.020939231012 0.108136747162 0.0998780580136
v -0.0208921794823 0.108343268217 0.0999743603633
v -0.0208319580493 0.108546960392 0.100069343584
v -0.0207587704831 0.108747134457 0.100162686283
v -0.0206728644275 0.108943113085 0.100254072619
v -0.0205745305613 0.109134233147 0.100343193367
v -0.0204641016151 0.109319847954 0.100429746973
v -0.0203419512457 0.109499329443 0.100513440566
v -0.020208492771 0.109672070307 0.100593990954
v -0.0200641777725 0.109837486044 0.100671125579
v -0.0199094945663 0.10999501694 0.100744583442
v -0.0197449665515 0.110144129961 0.100814115986
v -0.0195711504387 0.110284320556 0.100879487933
v -0.0193886343668 0.110415114363 0.100940478087
v -0.0191980359123 0.110536068817 0.100996880076
v -0.019 0.110646774649 0.101048503053
v -0.0187951967208 0.110746857262 0.101095172342
v -0.0185843190642 0.110835978011 0.10113673003
v -0.0183680805733 0.110913835338 0.101173035497
v -0.0181472129308 0.110980165799 0.101203965899
v -0.017922463483 0.111034744953 0.101229416577
v -0.0176945927107 0.111077388121 0.101249301412
v -0.0174643716565 0.111107951012 0.101263553123
v -0.0172325793156 0.11112633021 0.101272123484
v -0.017 0.111132463528 0.101274983497
v -0.017 0.101412243508 0.122120062598
v -0.021 0.0977870123596 0.120429589551
v -0.0209932326331 0.0979978008045 0.120527881818
v -0.020972953431 0.098207876008 0.120625841494
v -0.020939231012 0.0984165271421 0.120723137115
v -0.0208921794823 0.0986230481975 0.120819439465
v -0.0208319580493 0.0988267403722 0.120914422686
v -0.0207587704831 0.0990269144365 0.121007765385
v -0.0206728644275 0.0992228930646 0.12109915172
v -0.0205745305613 0.0994140131269 0.121188272469
v -0.0204641016151 0.0995996279337 0.121274826075
v -0.0203419512457 0.0997791094231 0.121358519668
v -0.020208492771 0.0999518502866 0.121439070055
v -0.0200641777725 0.100117266024 0.121516204681
v -0.0199094945663 0.10027479692 0.121589662544
v -0.0197449665515 0.100423909941 0.121659195088
v -0.0195711504387 0.100564100536 0.121724567035
v -0.0193886343668 0.100694894343 0.121785557189
v -0.0191980359123 0.100815848797 0.121841959178
v -0.019 0.100926554628 0.121893582155
v -0.0187951967208 0.101026637242 0.121940251444
v -0.0185843190642 0.101115757991 0.121981809131
v -0.0183680805733 0.101193615318 0.122018114599
v -0.0181472129308 0.101259945779 0.122049045001
v -0.017922463483 0.101314524933 0.122074495679
v -0.0176945927107 0.101357168101 0.122094380514
v -0.0174643716565 0.101387730992 0.122108632224
v -0.0172325793156 0.10140611019 0.122117202586
v -0.021 0.0766927676204 0.0852154895504
v -0.021 0.10750723238 0.0995845104496
v -0.0209932326331 0.0764819791755 0.0851171972843
v -0.020972953431 0.076271903972 0.0850192376081
v -0.020939231012 0.0760632528379 0.0849219419864
v -0.0208921794823 0.0758567317825 0.0848256396367
v -0.0208319580493 0.0756530396078 0.0847306564157
v -0.0207587704831 0.0754528655435 0.0846373137166
v -0.0206728644275 0.0752568869154 0.0845459273815
v -0.0205745305613 0.0750657668531 0.0844568066328
v -0.0204641016151 0.0748801520463 0.0843702530269
v -0.0203419512457 0.0747006705569 0.0842865594339
v -0.020208492771 0.0745279296934 0.0842060090464
v -0.0200641777725 0.0743625139561 0.0841288744213
v -0.0199094945663 0.0742049830596 0.0840554165579
v -0.0197449665515 0.0740558700386 0.0839858840143
v -0.0195711504387 0.0739156794443 0.0839205120665
v -0.0193886343668 0.0737848856374 0.0838595219127
v -0.0191980359123 0.0736639311825 0.0838031199241
v -0.019 0.0735532253515 0.0837514969473
v -0.0187951967208 0.0734531427377 0.0837048276581
v -0.0185843190642 0.073364021989 0.0836632699704
v -0.0183680805733 0.0732861646618 0.0836269645025
v -0.0181472129308 0.0732198342007 0.0835960341006
v -0.017922463483 0.073165255047 0.0835705834232
v -0.0176945927107 0.0731226118792 0.0835506985875
v -0.0174643716565 0.0730920489884 0.0835364468774
v -0.0172325793156 0.0730736697896 0.0835278765163
v -0.017 0.0730675364722 0.0835250165034
v 0.017 0.0730675364722 0.0835250165034
v 0.021 0.0766927676204 0.0852154895504
v 0.0209932326331 0.0764819791755 0.0851171972843
v 0.020972953431 0.076271903972 0.0850192376081
v 0.020939231012 0.0760632528379 0.0849219419864
v 0.0208921794823 0.0758567317825 0.0848256396367
v 0.0208319580493 0.0756530396078 0.0847306564157
v 0.0207587704831 0.0754528655435 0.0846373137166
v 0.0206728644275 0.0752568869154 0.0845459273815
v 0.0205745305613 0.0750657668531 0.0844568066328
v 0.0204641016151 0.0748801520463 0.0843702530269
v 0.0203419512457 0.0747006705569 0.0842865594339
v 0.020208492771 0.0745279296934 0.0842060090464
v 0.0200641777725 0.0743625139561 0.0841288744213
v 0.0199094945663 0.0742049830596 0.0840554165579
v 0.0197449665515 0.0740558700386 0.0839858840143
v 0.0195711504387 0.0739156794443 0.0839205120665
v 0.0193886343668 0.0737848856374 0.0838595219127
v 0.0191980359123 0.0736639311825 0.0838031199241
v 0.019 0.0735532253515 0.0837514969473
v 0.0187951967208 0.0734531427377 0.0837048276581
v 0.0185843190642 0.073364021989 0.0836632699704
v 0.0183680805733 0.0732861646618 0.0836269645025
v 0.0181472129308 0.0732198342007 0.0835960341006
v 0.017922463483 0.073165255047 0.0835705834232
v 0.0176945927107 0.0731226118792 0.0835506985875
v 0.0174643716565 0.0730920489884 0.0835364468774
v 0.0172325793156 0.0730736697896 0.0835278765163
v 0.021 0.10750723238 0.0995845104496
v 0.0209932326331 0.107718020824 0.0996828027157
v 0.020972953431 0.107928096028 0.0997807623919
v 0.020939231012 0.108136747162 0.0998780580136
v 0.0208921794823 0.108343268217 0.0999743603633
v 0.0208319580493 0.108546960392 0.100069343584
v 0.0207587704831 0.108747134457 0.100162686283
v 0.0206728644275 0.108943113085 0.100254072619
v 0.0205745305613 0.109134233147 0.100343193367
v 0.0204641016151 0.109319847954 0.100429746973
v 0.0203419512457 0.109499329443 0.100513440566
v 0.020208492771 0.109672070307 0.100593990954
v 0.0200641777725 0.109837486044 0.100671125579
v 0.0199094945663 0.10999501694 0.100744583442
v 0.0197449665515 0.110144129961 0.100814115986
v 0.0195711504387 0.110284320556 0.100879487933
v 0.0193886343668 0.110415114363 0.100940478087
v 0.0191980359123 0.110536068817 0.100996880076
v 0.019 0.110646774649 0.101048503053
v 0.0187951967208 0.110746857262 0.101095172342
v 0.0185843190642 0.110835978011 0.10113673003
v 0.0183680805733 0.110913835338 0.101173035497
v 0.0181472129308 0.110980165799 0.101203965899
v 0.017922463483 0.111034744953 0.101229416577
v 0.0176945927107 0.111077388121 0.101249301412
v 0.0174643716565 0.111107951012 0.101263553123
v 0.0172325793156 0.11112633021 0.101272123484
v 0.017 0.111132463528 0.101274983497
v -0.017 0.111132463528 0.101274983497
v -0.0209932326331 0.107718020824 0.0996828027157
v -0.020972953431 0.107928096028 0.0997807623919
v -0.020939231012 0.108136747162 0.0998780580136
v -0.0208921794823 0.108343268217 0.0999743603633
v -0.0208319580493 0.108546960392 0.100069343584
v -0.0207587704831 0.108747134457 0.100162686283
v -0.0206728644275 0.108943113085 0.100254072619
v -0.0205745305613 0.109134233147 0.100343193367
v -0.0204641016151 0.109319847954 0.100429746973
v -0.0203419512457 0.109499329443 0.100513440566
v -0.020208492771 0.109672070307 0.100593990954
v -0.0200641777725 0.109837486044 0.100671125579
v -0.0199094945663 0.10999501694 0.100744583442
v -0.0197449665515 0.110144129961 0.100814115986
v -0.0195711504387 0.110284320556 0.100879487933
v -0.0193886343668 0.110415114363 0.100940478087
v -0.0191980359123 0.110536068817 0.100996880076
v -0.019 0.110646774649 0.101048503053
v -0.0187951967208 0.110746857262 0.101095172342
v -0.0185843190642 0.110835978011 0.10113673003
v -0.0183680805733 0.110913835338 0.101173035497
v -0.0181472129308 0.110980165799 0.101203965899
v -0.017922463483 0.111034744953 0.101229416577
v -0.0176945927107 0.111077388121 0.101249301412
v -0.0174643716565 0.111107951012 0.101263553123
v -0.0172325793156 0.11112633021 0.101272123484
v -0.017 0.0730675364722 0.0835250165034
v 0.017 0.0730675364722 0.0835250165034
v -0.017 0.0633473164522 0.104370095605
v 0.017 0.0633473164522 0.104370095605
v -0.017 0.111132463528 0.101274983497
v 0.017 0.111132463528 0.101274983497
v -0.017 0.101412243508 0.122120062598
v 0.017 0.101412243508 0.122120062598
v 0.021 0.0766927676204 0.0852154895504
v 0.0209932326331 0.0764819791755 0.0851171972843
v 0.020972953431 0.076271903972 0.0850192376081
v 0.020939231012 0.0760632528379 0.0849219419864
v 0.0208921794823 0.0758567317825 0.0848256396367
v 0.0208319580493 0.0756530396078 0.0847306564157
v 0.0207587704831 0.0754528655435 0.0846373137166
v 0.0206728644275 0.0752568869154 0.0845459273815
v 0.0205745305613 0.0750657668531 0.0844568066328
v 0.0204641016151 0.0748801520463 0.0843702530269
v 0.0203419512457 0.0747006705569 0.0842865594339
v 0.020208492771 0.0745279296934 0.0842060090464
v 0.0200641777725 0.0743625139561 0.0841288744213
v 0.0199094945663 0.0742049830596 0.0840554165579
v 0.0197449665515 0.0740558700386 0.0839858840143
v 0.0195711504387 0.0739156794443 0.0839205120665
v 0.0193886343668 0.0737848856374 0.0838595219127
v 0.0191980359123 0.0736639311825 0.0838031199241
v 0.019 0.0735532253515 0.0837514969473
v 0.0187951967208 0.0734531427377 0.0837048276581
v 0.0185843190642 0.073364021989 0.0836632699704
v 0.0183680805733 0.0732861646618 0.0836269645025
v 0.0181472129308 0.0732198342007 0.0835960341006
v 0.017922463483 0.073165255047 0.0835705834232
v 0.0176945927107 0.0731226118792 0.0835506985875
v 0.0174643716565 0.0730920489884 0.0835364468774
v 0.0172325793156 0.0730736697896 0.0835278765163
v 0.017 0.0730675364722 0.0835250165034
v 0.017 0.0633473164522 0.104370095605
v 0.021 0.0669725476003 0.106060568652
v 0.0209932326331 0.0667617591555 0.105962276386
v 0.020972953431 0.066551683952 0.10586431671
v 0.020939231012 0.0663430328178 0.105767021088
v 0.0208921794823 0.0661365117625 0.105670718739
v 0.0208319580493 0.0659328195877 0.105575735518
v 0.0207587704831 0.0657326455235 0.105482392818
v 0.0206728644275 0.0655366668953 0.105391006483
v 0.0205745305613 0.065345546833 0.105301885735
v 0.0204641016151 0.0651599320263 0.105215332129
v 0.0203419512457 0.0649804505369 0.105131638536
v 0.020208492771 0.0648077096733 0.105051088148
v 0.0200641777725 0.0646422939361 0.104973953523
v 0.0199094945663 0.0644847630396 0.10490049566
v 0.0197449665515 0.0643356500186 0.104830963116
v 0.0195711504387 0.0641954594243 0.104765591168
v 0.0193886343668 0.0640646656173 0.104704601015
v 0.0191980359123 0.0639437111625 0.104648199026
v 0.019 0.0638330053315 0.104596576049
v 0.0187951967208 0.0637329227176 0.10454990676
v 0.0185843190642 0.0636438019689 0.104508349072
v 0.0183680805733 0.0635659446418 0.104472043604
v 0.0181472129308 0.0634996141807 0.104441113202
v 0.017922463483 0.063445035027 0.104415662525
v 0.0176945927107 0.0634023918592 0.104395777689
v 0.0174643716565 0.0633718289683 0.104381525979
v 0.0172325793156 0.0633534497695 0.104372955618
v 0.021 0.10750723238 0.0995845104496
v 0.0209932326331 0.107718020824 0.0996828027157
v 0.020972953431 0.107928096028 0.0997807623919
v 0.020939231012 0.108136747162 0.0998780580136
v 0.0208921794823 0.108343268217 0.0999743603633
v 0.0208319580493 0.108546960392 0.100069343584
v 0.0207587704831 0.108747134457 0.100162686283
v 0.0206728644275 0.108943113085 0.100254072619
v 0.0205745305613 0.109134233147 0.100343193367
v 0.0204641016151 0.109319847954 0.100429746973
v 0.0203419512457 0.109499329443 0.100513440566
v 0.020208492771 0.109672070307 0.100593990954
v 0.0200641777725 0.109837486044 0.100671125579
v 0.0199094945663 0.10999501694 0.100744583442
v 0.0197449665515 0.110144129961 0.100814115986
v 0.0195711504387 0.110284320556 0.100879487933
v 0.0193886343668 0.110415114363 0.100940478087
v 0.0191980359123 0.110536068817 0.100996880076
v 0.019 0.110646774649 0.101048503053
v 0.0187951967208 0.110746857262 0.101095172342
v 0.0185843190642 0.110835978011 0.10113673003
v 0.0183680805733 0.110913835338 0.101173035497
v 0.0181472129308 0.110980165799 0.101203965899
v 0.017922463483 0.111034744953 0.101229416577
v 0.0176945927107 0.111077388121 0.101249301412
v 0.0174643716565 0.111107951012 0.101263553123
v 0.0172325793156 0.11112633021 0.101272123484
v 0.017 0.111132463528 0.101274983497
v 0.017 0.101412243508 0.122120062598
v 0.021 0.0977870123596 0.120429589551
v 0.0209932326331 0.0979978008045 0.120527881818
v 0.020972953431 0.098207876008 0.120625841494
v 0.020939231012 0.0984165271421 0.120723137115
v 0.0208921794823 0.0986230481975 0.120819439465
v 0.0208319580493 0.0988267403722 0.120914422686
v 0.0207587704831 0.0990269144365 0.121007765385
v 0.0206728644275 0.0992228930646 0.12109915172
v 0.0205745305613 0.0994140131269 0.121188272469
v 0.0204641016151 0.0995996279337 0.121274826075
v 0.0203419512457 0.0997791094231 0.121358519668
v 0.020208492771 0.0999518502866 0.121439070055
v 0.0200641777725 0.100117266024 0.121516204681
v 0.0199094945663 0.10027479692 0.121589662544
v 0.0197449665515 0.100423909941 0.121659195088
v 0.0195711504387 0.100564100536 0.121724567035
v 0.0193886343668 0.100694894343 0.121785557189
v 0.0191980359123 0.100815848797 0.121841959178
v 0.019 0.100926554628 0.121893582155
v 0.0187951967208 0.101026637242 0.121940251444
v 0.0185843190642 0.101115757991 0.121981809131
v 0.0183680805733 0.101193615318 0.122018114599
v 0.0181472129308 0.101259945779 0.122049045001
v 0.017922463483 0.101314524933 0.122074495679
v 0.0176945927107 0.101357168101 0.122094380514
v 0.0174643716565 0.101387730992 0.122108632224
v 0.0172325793156 0.10140611019 0.122117202586
v 0.021 0.0669725476003 0.106060568652
v 0.021 0.0977870123596 0.120429589551
v 0.021 0.0766927676204 0.0852154895504
v 0.021 0.10750723238 0.0995845104496
v -0.00875 0.08237977998 0.113245079102
v -0.00875223733779 0.082447531193 0.113276672011
v -0.00875894134207 0.0825150398742 0.113308151826
v -0.00877008801425 0.0825820643602 0.113339405857
v -0.00878563745213 0.0826483647206 0.113370322223
v -0.00880553399277 0.0827137036173 0.113400790251
v -0.0088297064117 0.082777847154 0.113430700874
v -0.00885806817795 0.0828405657136 0.113459947018
v -0.00889051776374 0.0829016347798 0.113488423991
v -0.008926939008 0.0829608357413 0.113516029853
v -0.00896720153211 0.083017956674 0.113542665782
v -0.00901116120668 0.0830727930997 0.113568236427
v -0.0090586606675 0.0831251487184 0.113592650253
v -0.00910952987881 0.0831748361104 0.113615819864
v -0.00916358674205 0.0832216774077 0.11363766232
v -0.00922063774768 0.0832655049309 0.113658099429
v -0.00928047866789 0.0833061617885 0.113677058034
v -0.00934289528774 0.0833435024397 0.113694470265
v -0.00940766417191 0.0833773932147 0.113710273793
v -0.00947455346461 0.0834077127931 0.113724412045
v -0.00954332371954 0.0834343526389 0.113736834409
v -0.00961372875703 0.0834572173883 0.113747496417
v -0.00968551654532 0.0834762251913 0.113756359901
v -0.00975843010276 0.0834913080051 0.113763393132
v -0.00983220841773 0.083502411837 0.113768570934
v -0.00990658738302 0.0835094969383 0.113771874771
v -0.00998130074123 0.083512537946 0.113773292816
v -0.0100560810379 0.0835115239742 0.113772819993
v -0.0101306605791 0.0835064586527 0.113770457995
v -0.0102047723893 0.0834973601139 0.113766215277
v -0.0102781511674 0.0834842609282 0.113760107026
v -0.0103505342366 0.0834672079875 0.113752155109
v -0.0104216624842 0.0834462623366 0.113742387992
v -0.0104912812896 0.0834214989558 0.113730840638
v -0.0105591414354 0.0833930064914 0.113717554384
v -0.010625 0.083360886939 0.11370257679
v -0.0106886212268 0.0833252552783 0.113685961474
v -0.0107497773684 0.0832862390615 0.113667767913
v -0.0108082495015 0.0832439779564 0.113648061236
v -0.0108638283112 0.0831986232469 0.113626911988
v -0.0109163148398 0.0831503372909 0.113604395877
v -0.010965521199 0.0830992929398 0.113580593505
v -0.011011271243 0.083045672919 0.113555590079
v -0.0110534011983 0.0829896691744 0.113529475104
v -0.0110917602508 0.0829314821847 0.113502342065
v -0.0111262110849 0.0828713202443 0.113474288091
v -0.0111566303756 0.0828093987173 0.113445413609
v -0.0111829092297 0.0827459392667 0.113415821981
v -0.0112049535759 0.0826811690609 0.113385619138
v -0.0112226845009 0.0826153199605 0.113354913199
v -0.0112360385328 0.082548627688 0.113323814081
v -0.0112449678675 0.0824813309846 0.113292433113
v -0.0112494405404 0.0824136707549 0.11326088263
v -0.0112494405404 0.082345889205 0.113229275574
v -0.0112449678675 0.0822782289754 0.113197725091
v -0.0112360385328 0.0822109322719 0.113166344123
v -0.0112226845009 0.0821442399995 0.113135245005
v -0.0112049535759 0.082078390899 0.113104539065
v -0.0111829092297 0.0820136206932 0.113074336222
v -0.0111566303756 0.0819501612427 0.113044744595
v -0.0111262110849 0.0818882397157 0.113015870112
v -0.0110917602508 0.0818280777753 0.112987816139
v -0.0110534011983 0.0817698907856 0.1129606831
v -0.011011271243 0.0817138870409 0.112934568125
v -0.010965521199 0.0816602670201 0.112909564699
v -0.0109163148398 0.081609222669 0.112885762327
v -0.0108638283112 0.0815609367131 0.112863246216
v -0.0108082495015 0.0815155820035 0.112842096967
v -0.0107497773684 0.0814733208984 0.11282239029
v -0.0106886212268 0.0814343046816 0.11280419673
v -0.010625 0.0813986730209 0.112787581413
v -0.0105591414354 0.0813665534686 0.11277260382
v -0.0104912812896 0.0813380610041 0.112759317566
v -0.0104216624842 0.0813132976233 0.112747770212
v -0.0103505342366 0.0812923519725 0.112738003094
v -0.0102781511674 0.0812752990317 0.112730051177
v -0.0102047723893 0.0812621998461 0.112723942927
v -0.0101306605791 0.0812531013073 0.112719700208
v -0.0100560810379 0.0812480359857 0.11271733821
v -0.00998130074123 0.0812470220139 0.112716865387
v -0.00990658738302 0.0812500630217 0.112718283433
v -0.00983220841773 0.0812571481229 0.11272158727
v -0.00975843010276 0.0812682519548 0.112726765071
v -0.00968551654532 0.0812833347686 0.112733798303
v -0.00961372875703 0.0813023425717 0.112742661787
v -0.00954332371954 0.081325207321 0.112753323795
v -0.00947455346461 0.0813518471668 0.112765746159
v -0.00940766417191 0.0813821667453 0.112779884411
v -0.00934289528774 0.0814160575202 0.112795687939
v -0.00928047866789 0.0814533981714 0.11281310017
v -0.00922063774768 0.0814940550291 0.112832058774
v -0.00916358674205 0.0815378825522 0.112852495884
v -0.00910952987881 0.0815847238496 0.11287433834
v -0.0090586606675 0.0816344112416 0.112897507951
v -0.00901116120668 0.0816867668602 0.112921921777
v -0.00896720153211 0.0817416032859 0.112947492422
v -0.008926939008 0.0817987242186 0.112974128351
v -0.00889051776374 0.0818579251801 0.113001734212
v -0.00885806817795 0.0819189942463 0.113030211185
v -0.0088297064117 0.0819817128059 0.11305945733
v -0.00880553399277 0.0820458563427 0.113089367953
v -0.00878563745213 0.0821111952394 0.11311983598
v -0.00877008801425 0.0821774955997 0.113150752346
v -0.00875894134207 0.0822445200857 0.113182006377
v -0.00875223733779 0.0823120287669 0.113213486192
v -0.00875 0.08237977998 0.113245079102
v -0.00875 0.0840702530269 0.109619847954
v -0.00875223733779 0.0841380042399 0.109651440863
v -0.00875894134207 0.0842055129212 0.109682920678
v -0.00877008801425 0.0842725374072 0.109714174709
v -0.00878563745213 0.0843388377675 0.109745091075
v -0.00880553399277 0.0844041766642 0.109775559103
v -0.0088297064117 0.084468320201 0.109805469725
v -0.00885806817795 0.0845310387605 0.10983471587
v -0.00889051776374 0.0845921078268 0.109863192843
v -0.008926939008 0.0846513087883 0.109890798705
v -0.00896720153211 0.0847084297209 0.109917434633
v -0.00901116120668 0.0847632661467 0.109943005279
v -0.0090586606675 0.0848156217653 0.109967419105
v -0.00910952987881 0.0848653091573 0.109990588716
v -0.00916358674205 0.0849121504547 0.110012431172
v -0.00922063774768 0.0849559779778 0.110032868281
v -0.00928047866789 0.0849966348355 0.110051826885
v -0.00934289528774 0.0850339754867 0.110069239117
v -0.00940766417191 0.0850678662616 0.110085042645
v -0.00947455346461 0.0850981858401 0.110099180897
v -0.00954332371954 0.0851248256859 0.110111603261
v -0.00961372875703 0.0851476904352 0.110122265268
v -0.00968551654532 0.0851666982383 0.110131128752
v -0.00975843010276 0.0851817810521 0.110138161984
v -0.00983220841773 0.085192884884 0.110143339786
v -0.00990658738302 0.0851999699852 0.110146643623
v -0.00998130074123 0.085203010993 0.110148061668
v -0.0100560810379 0.0852019970212 0.110147588845
v -0.0101306605791 0.0851969316996 0.110145226847
v -0.0102047723893 0.0851878331608 0.110140984129
v -0.0102781511674 0.0851747339752 0.110134875878
v -0.0103505342366 0.0851576810344 0.110126923961
v -0.0104216624842 0.0851367353836 0.110117156844
v -0.0104912812896 0.0851119720028 0.11010560949
v -0.0105591414354 0.0850834795383 0.110092323235
v -0.010625 0.085051359986 0.110077345642
v -0.0106886212268 0.0850157283253 0.110060730326
v -0.0107497773684 0.0849767121085 0.110042536765
v -0.0108082495015 0.0849344510034 0.110022830088
v -0.0108638283112 0.0848890962938 0.11000168084
v -0.0109163148398 0.0848408103379 0.109979164729
v -0.010965521199 0.0847897659868 0.109955362357
v -0.011011271243 0.084736145966 0.109930358931
v -0.0110534011983 0.0846801422213 0.109904243956
v -0.0110917602508 0.0846219552316 0.109877110917
v -0.0111262110849 0.0845617932912 0.109849056943
v -0.0111566303756 0.0844998717642 0.109820182461
v -0.0111829092297 0.0844364123137 0.109790590833
v -0.0112049535759 0.0843716421079 0.10976038799
v -0.0112226845009 0.0843057930074 0.10972968205
v -0.0112360385328 0.084239100735 0.109698582933
v -0.0112449678675 0.0841718040315 0.109667201965
v -0.0112494405404 0.0841041438019 0.109635651482
v -0.0112494405404 0.084036362252 0.109604044426
v -0.0112449678675 0.0839687020223 0.109572493943
v -0.0112360385328 0.0839014053189 0.109541112974
v -0.0112226845009 0.0838347130464 0.109510013857
v -0.0112049535759 0.083768863946 0.109479307917
v -0.0111829092297 0.0837040937402 0.109449105074
v -0.0111566303756 0.0836406342896 0.109419513446
v -0.0111262110849 0.0835787127626 0.109390638964
v -0.0110917602508 0.0835185508222 0.109362584991
v -0.0110534011983 0.0834603638325 0.109335451952
v -0.011011271243 0.0834043600879 0.109309336977
v -0.010965521199 0.0833507400671 0.10928433355
v -0.0109163148398 0.083299695716 0.109260531179
v -0.0108638283112 0.08325140976 0.109238015068
v -0.0108082495015 0.0832060550505 0.109216865819
v -0.0107497773684 0.0831637939454 0.109197159142
v -0.0106886212268 0.0831247777286 0.109178965581
v -0.010625 0.0830891460679 0.109162350265
v -0.0105591414354 0.0830570265155 0.109147372672
v -0.0104912812896 0.0830285340511 0.109134086418
v -0.0104216624842 0.0830037706702 0.109122539063
v -0.0103505342366 0.0829828250194 0.109112771946
v -0.0102781511674 0.0829657720787 0.109104820029
v -0.0102047723893 0.082952672893 0.109098711779
v -0.0101306605791 0.0829435743542 0.10909446906
v -0.0100560810379 0.0829385090327 0.109092107062
v -0.00998130074123 0.0829374950609 0.109091634239
v -0.00990658738302 0.0829405360686 0.109093052284
v -0.00983220841773 0.0829476211699 0.109096356121
v -0.00975843010276 0.0829587250018 0.109101533923
v -0.00968551654532 0.0829738078156 0.109108567155
v -0.00961372875703 0.0829928156186 0.109117430639
v -0.00954332371954 0.083015680368 0.109128092647
v -0.00947455346461 0.0830423202138 0.109140515011
v -0.00940766417191 0.0830726397922 0.109154653262
v -0.00934289528774 0.0831065305672 0.10917045679
v -0.00928047866789 0.0831438712184 0.109187869022
v -0.00922063774768 0.083184528076 0.109206827626
v -0.00916358674205 0.0832283555991 0.109227264736
v -0.00910952987881 0.0832751968965 0.109249107191
v -0.0090586606675 0.0833248842885 0.109272276803
v -0.00901116120668 0.0833772399072 0.109296690629
v -0.00896720153211 0.0834320763329 0.109322261274
v -0.008926939008 0.0834891972656 0.109348897202
v -0.00889051776374 0.0835483982271 0.109376503064
v -0.00885806817795 0.0836094672933 0.109404980037
v -0.0088297064117 0.0836721858529 0.109434226182
v -0.00880553399277 0.0837363293896 0.109464136804
v -0.00878563745213 0.0838016682863 0.109494604832
v -0.00877008801425 0.0838679686467 0.109525521198
v -0.00875894134207 0.0839349931326 0.109556775229
v -0.00875223733779 0.0840025018139 0.109588255044
v -0.00875 0.0840702530269 0.109619847954
v 0.01125 0.08237977998 0.113245079102
v 0.0112477626622 0.082447531193 0.113276672011
v 0.0112410586579 0.0825150398742 0.113308151826
v 0.0112299119857 0.0825820643602 0.113339405857
v 0.0112143625479 0.0826483647206 0.113370322223
v 0.0111944660072 0.0827137036173 0.113400790251
v 0.0111702935883 0.082777847154 0.113430700874
v 0.0111419318221 0.0828405657136 0.113459947018
v 0.0111094822363 0.0829016347798 0.113488423991
v 0.011073060992 0.0829608357413 0.113516029853
v 0.0110327984679 0.083017956674 0.113542665782
v 0.0109888387933 0.0830727930997 0.113568236427
v 0.0109413393325 0.0831251487184 0.113592650253
v 0.0108904701212 0.0831748361104 0.113615819864
v 0.0108364132579 0.0832216774077 0.11363766232
v 0.0107793622523 0.0832655049309 0.113658099429
v 0.0107195213321 0.0833061617885 0.113677058034
v 0.0106571047123 0.0833435024397 0.113694470265
v 0.0105923358281 0.0833773932147 0.113710273793
v 0.0105254465354 0.0834077127931 0.113724412045
v 0.0104566762805 0.0834343526389 0.113736834409
v 0.010386271243 0.0834572173883 0.113747496417
v 0.0103144834547 0.0834762251913 0.113756359901
v 0.0102415698972 0.0834913080051 0.113763393132
v 0.0101677915823 0.083502411837 0.113768570934
v 0.010093412617 0.0835094969383 0.113771874771
v 0.0100186992588 0.083512537946 0.113773292816
v 0.00994391896206 0.0835115239742 0.113772819993
v 0.00986933942092 0.0835064586527 0.113770457995
v 0.00979522761073 0.0834973601139 0.113766215277
v 0.00972184883255 0.0834842609282 0.113760107026
v 0.00964946576337 0.0834672079875 0.113752155109
v 0.00957833751577 0.0834462623366 0.113742387992
v 0.00950871871043 0.0834214989558 0.113730840638
v 0.00944085856461 0.0833930064914 0.113717554384
v 0.009375 0.083360886939 0.11370257679
v 0.00931137877318 0.0833252552783 0.113685961474
v 0.00925022263164 0.0832862390615 0.113667767913
v 0.00919175049848 0.0832439779564 0.113648061236
v 0.00913617168877 0.0831986232469 0.113626911988
v 0.00908368516021 0.0831503372909 0.113604395877
v 0.00903447880097 0.0830992929398 0.113580593505
v 0.00898872875703 0.083045672919 0.113555590079
v 0.00894659880168 0.0829896691744 0.113529475104
v 0.00890823974923 0.0829314821847 0.113502342065
v 0.00887378891512 0.0828713202443 0.113474288091
v 0.00884336962441 0.0828093987173 0.113445413609
v 0.00881709077025 0.0827459392667 0.113415821981
v 0.00879504642413 0.0826811690609 0.113385619138
v 0.00877731549908 0.0826153199605 0.113354913199
v 0.00876396146722 0.082548627688 0.113323814081
v 0.00875503213251 0.0824813309846 0.113292433113
v 0.00875055945965 0.0824136707549 0.11326088263
v 0.00875055945965 0.082345889205 0.113229275574
v 0.00875503213251 0.0822782289754 0.113197725091
v 0.00876396146722 0.0822109322719 0.113166344123
v 0.00877731549908 0.0821442399995 0.113135245005
v 0.00879504642413 0.082078390899 0.113104539065
v 0.00881709077025 0.0820136206932 0.113074336222
v 0.00884336962441 0.0819501612427 0.113044744595
v 0.00887378891512 0.0818882397157 0.113015870112
v 0.00890823974923 0.0818280777753 0.112987816139
v 0.00894659880168 0.0817698907856 0.1129606831
v 0.00898872875703 0.0817138870409 0.112934568125
v 0.00903447880097 0.0816602670201 0.112909564699
v 0.00908368516021 0.081609222669 0.112885762327
v 0.00913617168877 0.0815609367131 0.112863246216
v 0.00919175049848 0.0815155820035 0.112842096967
v 0.00925022263164 0.0814733208984 0.11282239029
v 0.00931137877318 0.0814343046816 0.11280419673
v 0.009375 0.0813986730209 0.112787581413
v 0.00944085856461 0.0813665534686 0.11277260382
v 0.00950871871043 0.0813380610041 0.112759317566
v 0.00957833751577 0.0813132976233 0.112747770212
v 0.00964946576337 0.0812923519725 0.112738003094
v 0.00972184883255 0.0812752990317 0.112730051177
v 0.00979522761073 0.0812621998461 0.112723942927
v 0.00986933942092 0.0812531013073 0.112719700208
v 0.00994391896206 0.0812480359857 0.11271733821
v 0.0100186992588 0.0812470220139 0.112716865387
v 0.010093412617 0.0812500630217 0.112718283433
v 0.0101677915823 0.0812571481229 0.11272158727
v 0.0102415698972 0.0812682519548 0.112726765071
v 0.0103144834547 0.0812833347686 0.112733798303
v 0.010386271243 0.0813023425717 0.112742661787
v 0.0104566762805 0.081325207321 0.112753323795
v 0.0105254465354 0.0813518471668 0.112765746159
v 0.0105923358281 0.0813821667453 0.112779884411
v 0.0106571047123 0.0814160575202 0.112795687939
v 0.0107195213321 0.0814533981714 0.11281310017
v 0.0107793622523 0.0814940550291 0.112832058774
v 0.0108364132579 0.0815378825522 0.112852495884
v 0.0108904701212 0.0815847238496 0.11287433834
v 0.0109413393325 0.0816344112416 0.112897507951
v 0.0109888387933 0.0816867668602 0.112921921777
v 0.0110327984679 0.0817416032859 0.112947492422
v 0.011073060992 0.0817987242186 0.112974128351
v 0.0111094822363 0.0818579251801 0.113001734212
v 0.0111419318221 0.0819189942463 0.113030211185
v 0.0111702935883 0.0819817128059 0.11305945733
v 0.0111944660072 0.0820458563427 0.113089367953
v 0.0112143625479 0.0821111952394 0.11311983598
v 0.0112299119857 0.0821774955997 0.113150752346
v 0.0112410586579 0.0822445200857 0.113182006377
v 0.0112477626622 0.0823120287669 0.113213486192
v 0.01125 0.08237977998 0.113245079102
v 0.01125 0.0840702530269 0.109619847954
v 0.0112477626622 0.0841380042399 0.109651440863
v 0.0112410586579 0.0842055129212 0.109682920678
v 0.0112299119857 0.0842725374072 0.109714174709
v 0.0112143625479 0.0843388377675 0.109745091075
v 0.0111944660072 0.0844041766642 0.109775559103
v 0.0111702935883 0.084468320201 0.109805469725
v 0.0111419318221 0.0845310387605 0.10983471587
v 0.0111094822363 0.0845921078268 0.109863192843
v 0.011073060992 0.0846513087883 0.109890798705
v 0.0110327984679 0.0847084297209 0.109917434633
v 0.0109888387933 0.0847632661467 0.109943005279
v 0.0109413393325 0.0848156217653 0.109967419105
v 0.0108904701212 0.0848653091573 0.109990588716
v 0.0108364132579 0.0849121504547 0.110012431172
v 0.0107793622523 0.0849559779778 0.110032868281
v 0.0107195213321 0.0849966348355 0.110051826885
v 0.0106571047123 0.0850339754867 0.110069239117
v 0.0105923358281 0.0850678662616 0.110085042645
v 0.0105254465354 0.0850981858401 0.110099180897
v 0.0104566762805 0.0851248256859 0.110111603261
v 0.010386271243 0.0851476904352 0.110122265268
v 0.0103144834547 0.0851666982383 0.110131128752
v 0.0102415698972 0.0851817810521 0.110138161984
v 0.0101677915823 0.085192884884 0.110143339786
v 0.010093412617 0.0851999699852 0.110146643623
v 0.0100186992588 0.085203010993 0.110148061668
v 0.00994391896206 0.0852019970212 0.110147588845
v 0.00986933942092 0.0851969316996 0.110145226847
v 0.00979522761073 0.0851878331608 0.110140984129
v 0.00972184883255 0.0851747339752 0.110134875878
v 0.00964946576337 0.0851576810344 0.110126923961
v 0.00957833751577 0.0851367353836 0.110117156844
v 0.00950871871043 0.0851119720028 0.11010560949
v 0.00944085856461 0.0850834795383 0.110092323235
v 0.009375 0.085051359986 0.110077345642
v 0.00931137877318 0.0850157283253 0.110060730326
v 0.00925022263164 0.0849767121085 0.110042536765
v 0.00919175049848 0.0849344510034 0.110022830088
v 0.00913617168877 0.0848890962938 0.11000168084
v 0.00908368516021 0.0848408103379 0.109979164729
v 0.00903447880097 0.0847897659868 0.109955362357
v 0.00898872875703 0.084736145966 0.109930358931
v 0.00894659880168 0.0846801422213 0.109904243956
v 0.00890823974923 0.0846219552316 0.109877110917
v 0.00887378891512 0.0845617932912 0.109849056943
v 0.00884336962441 0.0844998717642 0.109820182461
v 0.00881709077025 0.0844364123137 0.109790590833
v 0.00879504642413 0.0843716421079 0.10976038799
v 0.00877731549908 0.0843057930074 0.10972968205
v 0.00876396146722 0.084239100735 0.109698582933
v 0.00875503213251 0.0841718040315 0.109667201965
v 0.00875055945965 0.0841041438019 0.109635651482
v 0.00875055945965 0.084036362252 0.109604044426
v 0.00875503213251 0.0839687020223 0.109572493943
v 0.00876396146722 0.0839014053189 0.109541112974
v 0.00877731549908 0.0838347130464 0.109510013857
v 0.00879504642413 0.083768863946 0.109479307917
v 0.00881709077025 0.0837040937402 0.109449105074
v 0.00884336962441 0.0836406342896 0.109419513446
v 0.00887378891512 0.0835787127626 0.109390638964
v 0.00890823974923 0.0835185508222 0.109362584991
v 0.00894659880168 0.0834603638325 0.109335451952
v 0.00898872875703 0.0834043600879 0.109309336977
v 0.00903447880097 0.0833507400671 0.10928433355
v 0.00908368516021 0.083299695716 0.109260531179
v 0.00913617168877 0.08325140976 0.109238015068
v 0.00919175049848 0.0832060550505 0.109216865819
v 0.00925022263164 0.0831637939454 0.109197159142
v 0.00931137877318 0.0831247777286 0.109178965581
v 0.009375 0.0830891460679 0.109162350265
v 0.00944085856461 0.0830570265155 0.109147372672
v 0.00950871871043 0.0830285340511 0.109134086418
v 0.00957833751577 0.0830037706702 0.109122539063
v 0.00964946576337 0.0829828250194 0.109112771946
v 0.00972184883255 0.0829657720787 0.109104820029
v 0.00979522761073 0.082952672893 0.109098711779
v 0.00986933942092 0.0829435743542 0.10909446906
v 0.00994391896206 0.0829385090327 0.109092107062
v 0.0100186992588 0.0829374950609 0.109091634239
v 0.010093412617 0.0829405360686 0.109093052284
v 0.0101677915823 0.0829476211699 0.109096356121
v 0.0102415698972 0.0829587250018 0.109101533923
v 0.0103144834547 0.0829738078156 0.109108567155
v 0.010386271243 0.0829928156186 0.109117430639
v 0.0104566762805 0.083015680368 0.109128092647
v 0.0105254465354 0.0830423202138 0.109140515011
v 0.0105923358281 0.0830726397922 0.109154653262
v 0.0106571047123 0.0831065305672 0.10917045679
v 0.0107195213321 0.0831438712184 0.109187869022
v 0.0107793622523 0.083184528076 0.109206827626
v 0.0108364132579 0.0832283555991 0.109227264736
v 0.0108904701212 0.0832751968965 0.109249107191
v 0.0109413393325 0.0833248842885 0.109272276803
v 0.0109888387933 0.0833772399072 0.109296690629
v 0.0110327984679 0.0834320763329 0.109322261274
v 0.011073060992 0.0834891972656 0.109348897202
v 0.0111094822363 0.0835483982271 0.109376503064
v 0.0111419318221 0.0836094672933 0.109404980037
v 0.0111702935883 0.0836721858529 0.109434226182
v 0.0111944660072 0.0837363293896 0.109464136804
v 0.0112143625479 0.0838016682863 0.109494604832
v 0.0112299119857 0.0838679686467 0.109525521198
v 0.0112410586579 0.0839349931326 0.109556775229
v 0.0112477626622 0.0840025018139 0.109588255044
v 0.01125 0.0840702530269 0.109619847954
v -0.00875 0.0840702530269 0.109619847954
v -0.00875223733779 0.0841380042399 0.109651440863
v -0.00875894134207 0.0842055129212 0.109682920678
v -0.00877008801425 0.0842725374072 0.109714174709
v -0.00878563745213 0.0843388377675 0.109745091075
v -0.00880553399277 0.0844041766642 0.109775559103
v -0.0088297064117 0.084468320201 0.109805469725
v -0.00885806817795 0.0845310387605 0.10983471587
v -0.00889051776374 0.0845921078268 0.109863192843
v -0.008926939008 0.0846513087883 0.109890798705
v -0.00896720153211 0.0847084297209 0.109917434633
v -0.00901116120668 0.0847632661467 0.109943005279
v -0.0090586606675 0.0848156217653 0.109967419105
v -0.00910952987881 0.0848653091573 0.109990588716
v -0.00916358674205 0.0849121504547 0.110012431172
v -0.00922063774768 0.0849559779778 0.110032868281
v -0.00928047866789 0.0849966348355 0.110051826885
v -0.00934289528774 0.0850339754867 0.110069239117
v -0.00940766417191 0.0850678662616 0.110085042645
v -0.00947455346461 0.0850981858401 0.110099180897
v -0.00954332371954 0.0851248256859 0.110111603261
v -0.00961372875703 0.0851476904352 0.110122265268
v -0.00968551654532 0.0851666982383 0.110131128752
v -0.00975843010276 0.0851817810521 0.110138161984
v -0.00983220841773 0.085192884884 0.110143339786
v -0.00990658738302 0.0851999699852 0.110146643623
v -0.00998130074123 0.085203010993 0.110148061668
v -0.0100560810379 0.0852019970212 0.110147588845
v -0.0101306605791 0.0851969316996 0.110145226847
v -0.0102047723893 0.0851878331608 0.110140984129
v -0.0102781511674 0.0851747339752 0.110134875878
v -0.0103505342366 0.0851576810344 0.110126923961
v -0.0104216624842 0.0851367353836 0.110117156844
v -0.0104912812896 0.0851119720028 0.11010560949
v -0.0105591414354 0.0850834795383 0.110092323235
v -0.010625 0.085051359986 0.110077345642
v -0.0106886212268 0.0850157283253 0.110060730326
v -0.0107497773684 0.0849767121085 0.110042536765
v -0.0108082495015 0.0849344510034 0.110022830088
v -0.0108638283112 0.0848890962938 0.11000168084
v -0.0109163148398 0.0848408103379 0.109979164729
v -0.010965521199 0.0847897659868 0.109955362357
v -0.011011271243 0.084736145966 0.109930358931
v -0.0110534011983 0.0846801422213 0.109904243956
v -0.0110917602508 0.0846219552316 0.109877110917
v -0.0111262110849 0.0845617932912 0.109849056943
v -0.0111566303756 0.0844998717642 0.109820182461
v -0.0111829092297 0.0844364123137 0.109790590833
v -0.0112049535759 0.0843716421079 0.10976038799
v -0.0112226845009 0.0843057930074 0.10972968205
v -0.0112360385328 0.084239100735 0.109698582933
v -0.0112449678675 0.0841718040315 0.109667201965
v -0.0112494405404 0.0841041438019 0.109635651482
v -0.0112494405404 0.084036362252 0.109604044426
v -0.0112449678675 0.0839687020223 0.109572493943
v -0.0112360385328 0.0839014053189 0.109541112974
v -0.0112226845009 0.0838347130464 0.109510013857
v -0.0112049535759 0.083768863946 0.109479307917
v -0.0111829092297 0.0837040937402 0.109449105074
v -0.0111566303756 0.0836406342896 0.109419513446
v -0.0111262110849 0.0835787127626 0.109390638964
v -0.0110917602508 0.0835185508222 0.109362584991
v -0.0110534011983 0.0834603638325 0.109335451952
v -0.011011271243 0.0834043600879 0.109309336977
v -0.010965521199 0.0833507400671 0.10928433355
v -0.0109163148398 0.083299695716 0.109260531179
v -0.0108638283112 0.08325140976 0.109238015068
v -0.0108082495015 0.0832060550505 0.109216865819
v -0.0107497773684 0.0831637939454 0.109197159142
v -0.0106886212268 0.0831247777286 0.109178965581
v -0.010625 0.0830891460679 0.109162350265
v -0.0105591414354 0.0830570265155 0.109147372672
v -0.0104912812896 0.0830285340511 0.109134086418
v -0.0104216624842 0.0830037706702 0.109122539063
v -0.0103505342366 0.0829828250194 0.109112771946
v -0.0102781511674 0.0829657720787 0.109104820029
v -0.0102047723893 0.082952672893 0.109098711779
v -0.0101306605791 0.0829435743542 0.10909446906
v -0.0100560810379 0.0829385090327 0.109092107062
v -0.00998130074123 0.0829374950609 0.109091634239
v -0.00990658738302 0.0829405360686 0.109093052284
v -0.00983220841773 0.0829476211699 0.109096356121
v -0.00975843010276 0.0829587250018 0.109101533923
v -0.00968551654532 0.0829738078156 0.109108567155
v -0.00961372875703 0.0829928156186 0.109117430639
v -0.00954332371954 0.083015680368 0.109128092647
v -0.00947455346461 0.0830423202138 0.109140515011
v -0.00940766417191 0.0830726397922 0.109154653262
v -0.00934289528774 0.0831065305672 0.10917045679
v -0.00928047866789 0.0831438712184 0.109187869022
v -0.00922063774768 0.083184528076 0.109206827626
v -0.00916358674205 0.0832283555991 0.109227264736
v -0.00910952987881 0.0832751968965 0.109249107191
v -0.0090586606675 0.0833248842885 0.109272276803
v -0.00901116120668 0.0833772399072 0.109296690629
v -0.00896720153211 0.0834320763329 0.109322261274
v -0.008926939008 0.0834891972656 0.109348897202
v -0.00889051776374 0.0835483982271 0.109376503064
v -0.00885806817795 0.0836094672933 0.109404980037
v -0.0088297064117 0.0836721858529 0.109434226182
v -0.00880553399277 0.0837363293896 0.109464136804
v -0.00878563745213 0.0838016682863 0.109494604832
v -0.00877008801425 0.0838679686467 0.109525521198
v -0.00875894134207 0.0839349931326 0.109556775229
v -0.00875223733779 0.0840025018139 0.109588255044
v 0.01125 0.0840702530269 0.109619847954
v 0.0112477626622 0.0841380042399 0.109651440863
v 0.0112410586579 0.0842055129212 0.109682920678
v 0.0112299119857 0.0842725374072 0.109714174709
v 0.0112143625479 0.0843388377675 0.109745091075
v 0.0111944660072 0.0844041766642 0.109775559103
v 0.0111702935883 0.084468320201 0.109805469725
v 0.0111419318221 0.0845310387605 0.10983471587
v 0.0111094822363 0.0845921078268 0.109863192843
v 0.011073060992 0.0846513087883 0.109890798705
v 0.0110327984679 0.0847084297209 0.109917434633
v 0.0109888387933 0.0847632661467 0.109943005279
v 0.0109413393325 0.0848156217653 0.109967419105
v 0.0108904701212 0.0848653091573 0.109990588716
v 0.0108364132579 0.0849121504547 0.110012431172
v 0.0107793622523 0.0849559779778 0.110032868281
v 0.0107195213321 0.0849966348355 0.110051826885
v 0.0106571047123 0.0850339754867 0.110069239117
v 0.0105923358281 0.0850678662616 0.110085042645
v 0.0105254465354 0.0850981858401 0.110099180897
v 0.0104566762805 0.0851248256859 0.110111603261
v 0.010386271243 0.0851476904352 0.110122265268
v 0.0103144834547 0.0851666982383 0.110131128752
v 0.0102415698972 0.0851817810521 0.110138161984
v 0.0101677915823 0.085192884884 0.110143339786
v 0.010093412617 0.0851999699852 0.110146643623
v 0.0100186992588 0.085203010993 0.110148061668
v 0.00994391896206 0.0852019970212 0.110147588845
v 0.00986933942092 0.0851969316996 0.110145226847
v 0.00979522761073 0.0851878331608 0.110140984129
v 0.00972184883255 0.0851747339752 0.110134875878
v 0.00964946576337 0.0851576810344 0.110126923961
v 0.00957833751577 0.0851367353836 0.110117156844
v 0.00950871871043 0.0851119720028 0.11010560949
v 0.00944085856461 0.0850834795383 0.110092323235
v 0.009375 0.085051359986 0.110077345642
v 0.00931137877318 0.0850157283253 0.110060730326
v 0.00925022263164 0.0849767121085 0.110042536765
v 0.00919175049848 0.0849344510034 0.110022830088
v 0.00913617168877 0.0848890962938 0.11000168084
v 0.00908368516021 0.0848408103379 0.109979164729
v 0.00903447880097 0.0847897659868 0.109955362357
v 0.00898872875703 0.084736145966 0.109930358931
v 0.00894659880168 0.0846801422213 0.109904243956
v 0.00890823974923 0.0846219552316 0.109877110917
v 0.00887378891512 0.0845617932912 0.109849056943
v 0.00884336962441 0.0844998717642 0.109820182461
v 0.00881709077025 0.0844364123137 0.109790590833
v 0.00879504642413 0.0843716421079 0.10976038799
v 0.00877731549908 0.0843057930074 0.10972968205
v 0.00876396146722 0.084239100735 0.109698582933
v 0.00875503213251 0.0841718040315 0.109667201965
v 0.00875055945965 0.0841041438019 0.109635651482
v 0.00875055945965 0.084036362252 0.109604044426
v 0.00875503213251 0.0839687020223 0.109572493943
v 0.00876396146722 0.0839014053189 0.109541112974
v 0.00877731549908 0.0838347130464 0.109510013857
v 0.00879504642413 0.083768863946 0.109479307917
v 0.00881709077025 0.0837040937402 0.109449105074
v 0.00884336962441 0.0836406342896 0.109419513446
v 0.00887378891512 0.0835787127626 0.109390638964
v 0.00890823974923 0.0835185508222 0.109362584991
v 0.00894659880168 0.0834603638325 0.109335451952
v 0.00898872875703 0.0834043600879 0.109309336977
v 0.00903447880097 0.0833507400671 0.10928433355
v 0.00908368516021 0.083299695716 0.109260531179
v 0.00913617168877 0.08325140976 0.109238015068
v 0.00919175049848 0.0832060550505 0.109216865819
v 0.00925022263164 0.0831637939454 0.109197159142
v 0.00931137877318 0.0831247777286 0.109178965581
v 0.009375 0.0830891460679 0.109162350265
v 0.00944085856461 0.0830570265155 0.109147372672
v 0.00950871871043 0.0830285340511 0.109134086418
v 0.00957833751577 0.0830037706702 0.109122539063
v 0.00964946576337 0.0829828250194 0.109112771946
v 0.00972184883255 0.0829657720787 0.109104820029
v 0.00979522761073 0.082952672893 0.109098711779
v 0.00986933942092 0.0829435743542 0.10909446906
v 0.00994391896206 0.0829385090327 0.109092107062
v 0.0100186992588 0.0829374950609 0.109091634239
v 0.010093412617 0.0829405360686 0.109093052284
v 0.0101677915823 0.0829476211699 0.109096356121
v 0.0102415698972 0.0829587250018 0.109101533923
v 0.0103144834547 0.0829738078156 0.109108567155
v 0.010386271243 0.0829928156186 0.109117430639
v 0.0104566762805 0.083015680368 0.109128092647
v 0.0105254465354 0.0830423202138 0.109140515011
v 0.0105923358281 0.0830726397922 0.109154653262
v 0.0106571047123 0.0831065305672 0.10917045679
v 0.0107195213321 0.0831438712184 0.109187869022
v 0.0107793622523 0.083184528076 0.109206827626
v 0.0108364132579 0.0832283555991 0.109227264736
v 0.0108904701212 0.0832751968965 0.109249107191
v 0.0109413393325 0.0833248842885 0.109272276803
v 0.0109888387933 0.0833772399072 0.109296690629
v 0.0110327984679 0.0834320763329 0.109322261274
v 0.011073060992 0.0834891972656 0.109348897202
v 0.0111094822363 0.0835483982271 0.109376503064
v 0.0111419318221 0.0836094672933 0.109404980037
v 0.0111702935883 0.0836721858529 0.109434226182
v 0.0111944660072 0.0837363293896 0.109464136804
v 0.0112143625479 0.0838016682863 0.109494604832
v 0.0112299119857 0.0838679686467 0.109525521198
v 0.0112410586579 0.0839349931326 0.109556775229
v 0.0112477626622 0.0840025018139 0.109588255044
f 1 4 3
f 1 2 4
f 15 16 17
f 15 17 18
f 24 22 23
f 14 15 18
f 25 20 21
f 25 21 22
f 25 22 24
f 13 18 19
f 13 19 20
f 13 14 18
f 12 13 20
f 11 12 20
f 28 25 26
f 28 26 27
f 28 20 25
f 28 11 20
f 10 11 28
f 29 10 28
f 32 29 30
f 32 30 31
f 5 7 8
f 5 8 9
f 5 9 10
f 5 32 33
f 5 10 29
f 5 29 32
f 182 5 183
f 184 183 5
f 181 5 182
f 185 184 5
f 180 5 181
f 186 185 5
f 179 5 180
f 187 186 5
f 178 5 179
f 188 187 5
f 177 5 178
f 189 188 5
f 176 5 177
f 190 189 5
f 175 5 176
f 191 190 5
f 174 5 175
f 192 191 5
f 173 5 174
f 193 192 5
f 193 5 33
f 172 5 173
f 194 193 33
f 171 5 172
f 195 194 33
f 170 5 171
f 196 195 33
f 169 5 170
f 197 196 33
f 198 197 33
f 199 198 33
f 200 199 33
f 201 200 33
f 202 201 33
f 203 202 33
f 204 203 33
f 205 204 33
f 6 5 169
f 6 147 146
f 6 148 147
f 6 149 148
f 6 150 149
f 6 151 150
f 6 152 151
f 6 153 152
f 6 154 153
f 6 155 154
f 6 156 155
f 6 157 156
f 6 158 157
f 6 159 158
f 6 160 159
f 6 161 160
f 6 162 161
f 6 163 162
f 6 164 163
f 6 165 164
f 6 166 165
f 6 167 166
f 6 168 167
f 6 169 168
f 34 205 33
f 92 91 6
f 59 61 60
f 59 34 61
f 94 93 92
f 95 94 92
f 57 34 59
f 57 59 58
f 96 95 92
f 98 96 92
f 98 97 96
f 98 92 6
f 54 34 57
f 54 56 55
f 54 57 56
f 99 98 6
f 53 34 54
f 101 100 99
f 102 101 99
f 102 99 6
f 50 52 51
f 49 52 50
f 49 53 52
f 49 34 53
f 105 103 102
f 105 104 103
f 47 49 48
f 46 34 49
f 46 49 47
f 107 106 105
f 107 105 102
f 45 34 46
f 44 34 45
f 109 102 6
f 109 108 107
f 109 107 102
f 43 34 44
f 110 109 6
f 111 110 6
f 41 43 42
f 40 34 43
f 40 43 41
f 113 112 111
f 113 111 6
f 115 114 113
f 115 113 6
f 37 39 38
f 37 40 39
f 116 115 6
f 36 34 40
f 36 40 37
f 90 6 146
f 90 135 134
f 90 136 135
f 90 137 136
f 90 138 137
f 90 139 138
f 90 140 139
f 90 141 140
f 90 142 141
f 90 143 142
f 90 144 143
f 90 145 144
f 90 146 145
f 90 116 6
f 35 34 36
f 288 209 208
f 287 210 209
f 287 209 288
f 289 208 207
f 289 288 208
f 286 211 210
f 286 210 287
f 290 207 206
f 290 289 207
f 285 211 286
f 285 212 211
f 291 290 206
f 291 205 34
f 291 206 205
f 284 213 212
f 284 212 285
f 292 291 34
f 283 213 284
f 283 214 213
f 293 292 34
f 282 215 214
f 282 214 283
f 294 293 34
f 281 216 215
f 281 215 282
f 295 294 34
f 280 217 216
f 280 216 281
f 296 295 34
f 279 218 217
f 279 217 280
f 297 296 34
f 278 219 218
f 278 218 279
f 298 297 34
f 277 220 219
f 277 219 278
f 299 298 34
f 276 221 220
f 276 220 277
f 300 299 34
f 275 221 276
f 275 117 221
f 301 300 34
f 274 117 275
f 274 118 117
f 302 301 34
f 273 119 118
f 273 118 274
f 303 302 34
f 303 34 35
f 272 120 119
f 272 119 273
f 304 303 35
f 271 121 120
f 271 120 272
f 305 304 35
f 270 122 121
f 270 121 271
f 306 305 35
f 269 123 122
f 269 122 270
f 307 306 35
f 268 124 123
f 268 123 269
f 308 307 35
f 267 125 124
f 267 124 268
f 309 308 35
f 266 126 125
f 266 125 267
f 310 309 35
f 265 127 126
f 265 126 266
f 311 310 35
f 264 128 127
f 264 127 265
f 312 311 35
f 263 129 128
f 263 128 264
f 313 312 35
f 262 130 129
f 262 129 263
f 314 313 35
f 261 131 130
f 261 130 262
f 315 314 35
f 260 132 131
f 260 131 261
f 316 315 35
f 259 133 132
f 259 132 260
f 317 316 35
f 258 133 259
f 258 134 133
f 318 317 35
f 319 318 35
f 320 319 35
f 321 320 35
f 322 321 35
f 323 322 35
f 324 323 35
f 325 324 35
f 326 325 35
f 222 326 35
f 62 223 222
f 62 224 223
f 62 225 224
f 62 226 225
f 62 227 226
f 62 228 227
f 62 229 228
f 62 230 229
f 62 231 230
f 62 232 231
f 62 233 232
f 62 234 233
f 62 235 234
f 62 236 235
f 62 237 236
f 62 238 237
f 62 239 238
f 62 240 239
f 62 241 240
f 62 242 241
f 62 243 242
f 62 244 243
f 62 245 244
f 62 246 245
f 62 222 35
f 89 134 258
f 89 90 134
f 89 247 246
f 89 248 247
f 89 249 248
f 89 250 249
f 89 251 250
f 89 252 251
f 89 253 252
f 89 254 253
f 89 255 254
f 89 256 255
f 89 257 256
f 89 258 257
f 89 246 62
f 88 89 62
f 88 62 63
f 65 63 64
f 86 87 88
f 66 88 63
f 66 63 65
f 68 66 67
f 83 86 88
f 83 84 85
f 83 85 86
f 69 66 68
f 70 66 69
f 71 66 70
f 80 81 82
f 72 66 71
f 79 83 88
f 79 80 82
f 79 82 83
f 77 79 88
f 77 78 79
f 75 72 73
f 75 73 74
f 76 88 66
f 76 66 72
f 76 72 75
f 76 77 88
f 357 327 328
f 357 328 329
f 357 356 327
f 358 357 329
f 359 329 330
f 359 330 331
f 359 358 329
f 360 359 331
f 361 331 332
f 361 332 333
f 361 360 331
f 362 361 333
f 363 333 334
f 363 362 333
f 364 334 335
f 364 363 334
f 365 335 336
f 365 364 335
f 366 365 336
f 366 336 337
f 367 366 337
f 367 337 338
f 368 367 338
f 368 338 339
f 368 339 340
f 369 368 340
f 370 369 340
f 370 340 341
f 371 341 342
f 371 370 341
f 372 342 343
f 372 371 342
f 373 343 344
f 373 372 343
f 374 344 345
f 374 373 344
f 375 345 346
f 375 374 345
f 376 346 347
f 376 375 346
f 377 347 348
f 377 376 347
f 378 348 349
f 378 377 348
f 379 349 350
f 379 350 351
f 379 378 349
f 380 351 352
f 380 379 351
f 381 352 353
f 381 380 352
f 382 381 353
f 355 353 354
f 355 382 353
f 413 384 383
f 413 383 412
f 414 385 384
f 414 384 413
f 415 386 385
f 415 385 414
f 416 387 386
f 416 388 387
f 416 386 415
f 417 388 416
f 418 389 388
f 418 390 389
f 418 388 417
f 419 390 418
f 420 391 390
f 420 392 391
f 420 390 419
f 421 392 420
f 422 392 421
f 422 393 392
f 422 394 393
f 423 394 422
f 424 394 423
f 424 395 394
f 424 396 395
f 425 396 424
f 426 396 425
f 426 397 396
f 427 398 397
f 427 399 398
f 427 397 426
f 428 399 427
f 429 400 399
f 429 401 400
f 429 399 428
f 430 401 429
f 431 402 401
f 431 403 402
f 431 401 430
f 432 404 403
f 432 403 431
f 433 405 404
f 433 404 432
f 434 405 433
f 435 406 405
f 435 407 406
f 435 405 434
f 436 407 435
f 437 408 407
f 437 407 436
f 438 409 408
f 438 408 437
f 411 410 409
f 411 409 438
f 456 455 454
f 447 449 448
f 447 450 449
f 447 451 450
f 447 452 451
f 460 457 456
f 460 458 457
f 460 459 458
f 460 456 454
f 462 460 454
f 462 461 460
f 444 446 445
f 444 447 446
f 444 453 452
f 444 452 447
f 442 444 443
f 465 454 453
f 465 463 462
f 465 464 463
f 465 462 454
f 467 466 465
f 467 465 453
f 439 442 441
f 439 444 442
f 439 453 444
f 439 467 453
f 527 525 526
f 492 493 494
f 492 494 495
f 528 525 527
f 491 492 495
f 489 490 491
f 489 491 495
f 531 440 525
f 531 528 529
f 531 525 528
f 531 529 530
f 532 440 531
f 487 488 489
f 487 489 495
f 533 440 532
f 485 487 495
f 485 486 487
f 535 440 533
f 535 533 534
f 484 485 495
f 484 495 468
f 537 535 536
f 482 484 468
f 482 483 484
f 538 440 535
f 538 535 537
f 480 481 482
f 479 480 482
f 479 482 468
f 541 539 540
f 478 479 468
f 542 539 541
f 542 538 539
f 544 542 543
f 475 476 477
f 547 544 545
f 547 545 546
f 547 538 542
f 547 542 544
f 473 474 475
f 548 538 547
f 472 473 475
f 469 468 467
f 469 470 471
f 469 471 472
f 469 478 468
f 469 475 477
f 469 477 478
f 469 472 475
f 469 467 439
f 524 548 549
f 524 549 550
f 524 440 538
f 524 538 548
f 496 439 440
f 496 469 439
f 496 440 524
f 496 524 523
f 522 497 496
f 522 496 523
f 521 497 522
f 499 498 497
f 520 497 521
f 520 499 497
f 501 500 499
f 501 520 519
f 501 499 520
f 517 501 519
f 517 502 501
f 517 519 518
f 503 502 517
f 515 503 517
f 515 504 503
f 515 517 516
f 506 504 515
f 506 505 504
f 506 515 514
f 512 506 514
f 512 507 506
f 512 514 513
f 510 507 512
f 510 508 507
f 510 509 508
f 510 512 511
f 552 553 551
f 554 553 552
f 556 555 557
f 558 556 557
f 589 560 559
f 589 561 560
f 589 559 588
f 590 561 589
f 591 562 561
f 591 563 562
f 591 561 590
f 592 563 591
f 593 564 563
f 593 565 564
f 593 563 592
f 594 565 593
f 595 566 565
f 595 565 594
f 596 567 566
f 596 566 595
f 597 568 567
f 597 567 596
f 598 568 597
f 598 569 568
f 599 569 598
f 599 570 569
f 600 570 599
f 600 571 570
f 600 572 571
f 601 572 600
f 602 572 601
f 602 573 572
f 603 574 573
f 603 573 602
f 604 575 574
f 604 574 603
f 605 576 575
f 605 575 604
f 606 577 576
f 606 576 605
f 607 578 577
f 607 577 606
f 608 579 578
f 608 578 607
f 609 580 579
f 609 579 608
f 610 581 580
f 610 580 609
f 611 582 581
f 611 583 582
f 611 581 610
f 612 584 583
f 612 583 611
f 613 585 584
f 613 584 612
f 614 585 613
f 587 586 585
f 587 585 614
f 645 615 616
f 645 644 615
f 646 616 617
f 646 645 616
f 647 617 618
f 647 646 617
f 648 618 619
f 648 619 620
f 648 647 618
f 649 648 620
f 650 620 621
f 650 621 622
f 650 649 620
f 651 650 622
f 652 622 623
f 652 623 624
f 652 651 622
f 653 652 624
f 654 653 624
f 654 624 625
f 654 625 626
f 655 654 626
f 656 655 626
f 656 626 627
f 656 627 628
f 657 656 628
f 658 657 628
f 658 628 629
f 659 629 630
f 659 630 631
f 659 658 629
f 660 659 631
f 661 631 632
f 661 632 633
f 661 660 631
f 662 661 633
f 663 633 634
f 663 634 635
f 663 662 633
f 664 635 636
f 664 663 635
f 665 636 637
f 665 664 636
f 666 665 637
f 667 637 638
f 667 638 639
f 667 666 637
f 668 667 639
f 669 639 640
f 669 668 639
f 670 640 641
f 670 669 640
f 643 641 642
f 643 670 641
f 671 673 674
f 671 674 672
f 676 781 675
f 676 782 781
f 677 783 782
f 677 782 676
f 678 784 783
f 678 783 677
f 679 785 784
f 679 784 678
f 680 786 785
f 680 785 679
f 681 787 786
f 681 786 680
f 682 788 787
f 682 787 681
f 683 789 788
f 683 788 682
f 684 790 789
f 684 789 683
f 685 791 790
f 685 790 684
f 686 792 791
f 686 791 685
f 687 793 792
f 687 792 686
f 688 794 793
f 688 793 687
f 689 795 794
f 689 794 688
f 690 796 795
f 690 795 689
f 691 797 796
f 691 796 690
f 692 798 797
f 692 797 691
f 693 799 798
f 693 798 692
f 694 800 799
f 694 799 693
f 695 801 800
f 695 800 694
f 696 802 801
f 696 801 695
f 697 802 696
f 697 803 802
f 698 803 697
f 698 804 803
f 698 805 804
f 699 805 698
f 700 805 699
f 700 806 805
f 701 806 700
f 701 807 806
f 702 807 701
f 702 808 807
f 702 809 808
f 703 809 702
f 704 809 703
f 704 810 809
f 705 810 704
f 705 811 810
f 706 812 811
f 706 811 705
f 707 813 812
f 707 814 813
f 707 812 706
f 708 814 707
f 709 815 814
f 709 814 708
f 710 816 815
f 710 815 709
f 711 817 816
f 711 816 710
f 712 818 817
f 712 817 711
f 713 819 818
f 713 818 712
f 714 820 819
f 714 819 713
f 715 821 820
f 715 820 714
f 716 822 821
f 716 821 715
f 717 823 822
f 717 822 716
f 718 824 823
f 718 823 717
f 719 825 824
f 719 824 718
f 720 826 825
f 720 825 719
f 721 827 826
f 721 826 720
f 722 827 721
f 722 828 827
f 722 829 828
f 723 829 722
f 724 829 723
f 724 830 829
f 725 830 724
f 725 831 830
f 726 831 725
f 726 832 831
f 727 832 726
f 727 833 832
f 728 833 727
f 728 834 833
f 729 834 728
f 729 835 834
f 730 835 729
f 730 836 835
f 731 836 730
f 731 837 836
f 732 837 731
f 732 838 837
f 733 838 732
f 733 839 838
f 734 839 733
f 734 840 839
f 735 840 734
f 735 841 840
f 736 841 735
f 736 842 841
f 737 842 736
f 737 843 842
f 738 843 737
f 738 844 843
f 739 844 738
f 739 845 844
f 740 846 845
f 740 845 739
f 741 847 846
f 741 846 740
f 742 848 847
f 742 847 741
f 743 849 848
f 743 848 742
f 744 850 849
f 744 849 743
f 745 851 850
f 745 850 744
f 746 852 851
f 746 851 745
f 747 852 746
f 747 853 852
f 748 853 747
f 748 854 853
f 749 854 748
f 749 855 854
f 750 855 749
f 750 856 855
f 751 856 750
f 751 857 856
f 752 857 751
f 752 858 857
f 753 858 752
f 753 859 858
f 754 859 753
f 754 860 859
f 755 860 754
f 755 861 860
f 756 861 755
f 756 862 861
f 757 862 756
f 757 863 862
f 758 863 757
f 758 864 863
f 759 864 758
f 759 865 864
f 759 866 865
f 760 866 759
f 761 866 760
f 761 867 866
f 762 867 761
f 762 868 867
f 763 868 762
f 763 869 868
f 764 869 763
f 764 870 869
f 765 870 764
f 765 871 870
f 766 871 765
f 766 872 871
f 767 872 766
f 767 873 872
f 768 873 767
f 768 874 873
f 769 874 768
f 769 875 874
f 770 875 769
f 770 876 875
f 771 877 876
f 771 876 770
f 772 878 877
f 772 877 771
f 773 878 772
f 773 879 878
f 774 880 879
f 774 879 773
f 775 881 880
f 775 880 774
f 776 882 881
f 776 881 775
f 777 883 882
f 777 882 776
f 778 884 883
f 778 883 777
f 779 885 884
f 779 884 778
f 780 885 779
f 780 886 885
f 888 993 887
f 888 994 993
f 889 995 994
f 889 994 888
f 890 996 995
f 890 995 889
f 891 997 996
f 891 996 890
f 892 998 997
f 892 997 891
f 893 999 998
f 893 998 892
f 894 1000 999
f 894 999 893
f 895 1001 1000
f 895 1000 894
f 896 1002 1001
f 896 1001 895
f 897 1003 1002
f 897 1002 896
f 898 1004 1003
f 898 1003 897
f 899 1005 1004
f 899 1004 898
f 900 1006 1005
f 900 1005 899
f 901 1007 1006
f 901 1006 900
f 902 1008 1007
f 902 1007 901
f 903 1009 1008
f 903 1008 902
f 904 1010 1009
f 904 1009 903
f 905 1011 1010
f 905 1010 904
f 906 1012 1011
f 906 1011 905
f 907 1013 1012
f 907 1012 906
f 908 1014 1013
f 908 1013 907
f 909 1014 908
f 909 1015 1014
f 910 1015 909
f 910 1016 1015
f 910 1017 1016
f 911 1017 910
f 912 1017 911
f 912 1018 1017
f 913 1018 912
f 913 1019 1018
f 914 1019 913
f 914 1020 1019
f 914 1021 1020
f 915 1021 914
f 916 1021 915
f 916 1022 1021
f 917 1022 916
f 917 1023 1022
f 918 1024 1023
f 918 1023 917
f 919 1025 1024
f 919 1026 1025
f 919 1024 918
f 920 1026 919
f 921 1027 1026
f 921 1026 920
f 922 1028 1027
f 922 1027 921
f 923 1029 1028
f 923 1028 922
f 924 1030 1029
f 924 1029 923
f 925 1031 1030
f 925 1030 924
f 926 1032 1031
f 926 1031 925
f 927 1033 1032
f 927 1032 926
f 928 1034 1033
f 928 1033 927
f 929 1035 1034
f 929 1034 928
f 930 1036 1035
f 930 1035 929
f 931 1037 1036
f 931 1036 930
f 932 1038 1037
f 932 1037 931
f 933 1039 1038
f 933 1038 932
f 934 1039 933
f 934 1040 1039
f 934 1041 1040
f 935 1041 934
f 936 1041 935
f 936 1042 1041
f 937 1042 936
f 937 1043 1042
f 938 1043 937
f 938 1044 1043
f 939 1044 938
f 939 1045 1044
f 940 1045 939
f 940 1046 1045
f 941 1046 940
f 941 1047 1046
f 942 1047 941
f 942 1048 1047
f 943 1048 942
f 943 1049 1048
f 944 1049 943
f 944 1050 1049
f 945 1050 944
f 945 1051 1050
f 946 1051 945
f 946 1052 1051
f 947 1052 946
f 947 1053 1052
f 948 1053 947
f 948 1054 1053
f 949 1054 948
f 949 1055 1054
f 950 1055 949
f 950 1056 1055
f 951 1056 950
f 951 1057 1056
f 952 1058 1057
f 952 1057 951
f 953 1059 1058
f 953 1058 952
f 954 1060 1059
f 954 1059 953
f 955 1061 1060
f 955 1060 954
f 956 1062 1061
f 956 1061 955
f 957 1063 1062
f 957 1062 956
f 958 1064 1063
f 958 1063 957
f 959 1064 958
f 959 1065 1064
f 960 1065 959
f 960 1066 1065
f 961 1066 960
f 961 1067 1066
f 962 1067 961
f 962 1068 1067
f 963 1068 962
f 963 1069 1068
f 964 1069 963
f 964 1070 1069
f 965 1070 964
f 965 1071 1070
f 966 1071 965
f 966 1072 1071
f 967 1072 966
f 967 1073 1072
f 968 1073 967
f 968 1074 1073
f 969 1074 968
f 969 1075 1074
f 970 1075 969
f 970 1076 1075
f 971 1076 970
f 971 1077 1076
f 971 1078 1077
f 972 1078 971
f 973 1078 972
f 973 1079 1078
f 974 1079 973
f 974 1080 1079
f 975 1080 974
f 975 1081 1080
f 976 1081 975
f 976 1082 1081
f 977 1082 976
f 977 1083 1082
f 978 1083 977
f 978 1084 1083
f 979 1084 978
f 979 1085 1084
f 980 1085 979
f 980 1086 1085
f 981 1086 980
f 981 1087 1086
f 982 1087 981
f 982 1088 1087
f 983 1089 1088
f 983 1088 982
f 984 1090 1089
f 984 1089 983
f 985 1090 984
f 985 1091 1090
f 986 1092 1091
f 986 1091 985
f 987 1093 1092
f 987 1092 986
f 988 1094 1093
f 988 1093 987
f 989 1095 1094
f 989 1094 988
f 990 1096 1095
f 990 1095 989
f 991 1097 1096
f 991 1096 990
f 992 1097 991
f 992 1098 1097
f 1172 1169 1170
f 1172 1170 1171
f 1157 1158 1159
f 1174 1172 1173
f 1175 1172 1174
f 1180 1176 1177
f 1180 1177 1178
f 1180 1178 1179
f 1183 1181 1182
f 1145 1146 1147
f 1145 1147 1148
f 1187 1183 1184
f 1187 1184 1185
f 1187 1185 1186
f 1142 1143 1144
f 1142 1144 1145
f 1190 1188 1189
f 1139 1140 1141
f 1139 1141 1142
f 1191 1188 1190
f 1191 1187 1188
f 1193 1191 1192
f 1136 1139 1142
f 1136 1137 1138
f 1136 1138 1139
f 1136 1148 1149
f 1136 1145 1148
f 1136 1142 1145
f 1194 1187 1191
f 1194 1191 1193
f 1134 1135 1136
f 1133 1134 1136
f 1197 1195 1196
f 1198 1187 1194
f 1198 1195 1197
f 1198 1194 1195
f 1129 1133 1136
f 1129 1130 1131
f 1129 1131 1132
f 1129 1132 1133
f 1129 1157 1159
f 1129 1169 1172
f 1129 1172 1175
f 1129 1149 1150
f 1129 1150 1151
f 1129 1151 1152
f 1129 1152 1153
f 1129 1153 1154
f 1129 1154 1155
f 1129 1155 1156
f 1129 1156 1157
f 1129 1136 1149
f 1129 1159 1160
f 1129 1160 1161
f 1129 1161 1162
f 1129 1162 1163
f 1129 1163 1164
f 1129 1164 1165
f 1129 1176 1180
f 1129 1165 1166
f 1129 1166 1167
f 1129 1167 1168
f 1129 1168 1169
f 1129 1175 1176
f 1129 1180 1181
f 1201 1199 1200
f 1202 1199 1201
f 1099 1202 1203
f 1099 1199 1202
f 1100 1199 1099
f 1124 1125 1126
f 1124 1126 1127
f 1122 1123 1124
f 1103 1101 1102
f 1121 1122 1124
f 1104 1101 1103
f 1105 1101 1104
f 1119 1120 1121
f 1119 1127 1128
f 1119 1124 1127
f 1119 1121 1124
f 1106 1101 1105
f 1107 1100 1101
f 1107 1101 1106
f 1117 1118 1119
f 1117 1128 1129
f 1117 1119 1128
f 1108 1199 1100
f 1108 1100 1107
f 1108 1198 1199
f 1109 1198 1108
f 1114 1115 1116
f 1114 1116 1117
f 1114 1117 1129
f 1111 1109 1110
f 1112 1109 1111
f 1112 1114 1129
f 1112 1113 1114
f 1112 1187 1198
f 1112 1129 1181
f 1112 1181 1183
f 1112 1198 1109
f 1112 1183 1187
f 1277 1274 1275
f 1277 1275 1276
f 1262 1263 1264
f 1279 1277 1278
f 1280 1277 1279
f 1285 1281 1282
f 1285 1282 1283
f 1285 1283 1284
f 1288 1286 1287
f 1250 1251 1252
f 1250 1252 1253
f 1292 1288 1289
f 1292 1289 1290
f 1292 1290 1291
f 1247 1248 1249
f 1247 1249 1250
f 1295 1293 1294
f 1244 1245 1246
f 1244 1246 1247
f 1296 1293 1295
f 1296 1292 1293
f 1298 1296 1297
f 1241 1244 1247
f 1241 1242 1243
f 1241 1243 1244
f 1241 1253 1254
f 1241 1250 1253
f 1241 1247 1250
f 1299 1292 1296
f 1299 1296 1298
f 1239 1240 1241
f 1238 1239 1241
f 1302 1300 1301
f 1303 1292 1299
f 1303 1300 1302
f 1303 1299 1300
f 1234 1238 1241
f 1234 1235 1236
f 1234 1236 1237
f 1234 1237 1238
f 1234 1262 1264
f 1234 1274 1277
f 1234 1277 1280
f 1234 1254 1255
f 1234 1255 1256
f 1234 1256 1257
f 1234 1257 1258
f 1234 1258 1259
f 1234 1259 1260
f 1234 1260 1261
f 1234 1261 1262
f 1234 1241 1254
f 1234 1264 1265
f 1234 1265 1266
f 1234 1266 1267
f 1234 1267 1268
f 1234 1268 1269
f 1234 1269 1270
f 1234 1281 1285
f 1234 1270 1271
f 1234 1271 1272
f 1234 1272 1273
f 1234 1273 1274
f 1234 1280 1281
f 1234 1285 1286
f 1306 1304 1305
f 1307 1304 1306
f 1204 1307 1308
f 1204 1304 1307
f 1205 1304 1204
f 1229 1230 1231
f 1229 1231 1232
f 1227 1228 1229
f 1208 1206 1207
f 1226 1227 1229
f 1209 1206 1208
f 1210 1206 1209
f 1224 1225 1226
f 1224 1232 1233
f 1224 1229 1232
f 1224 1226 1229
f 1211 1206 1210
f 1212 1205 1206
f 1212 1206 1211
f 1222 1223 1224
f 1222 1233 1234
f 1222 1224 1233
f 1213 1304 1205
f 1213 1205 1212
f 1213 1303 1304
f 1214 1303 1213
f 1219 1220 1221
f 1219 1221 1222
f 1219 1222 1234
f 1216 1214 1215
f 1217 1214 1216
f 1217 1219 1234
f 1217 1218 1219
f 1217 1292 1303
f 1217 1234 1286
f 1217 1286 1288
f 1217 1303 1214
f 1217 1288 1292
