v 0.01275 0.0798440704095 0.118682925824
v 0.0127450778569 0.0799931230782 0.118752430225
v 0.0127303290474 0.0801416421769 0.118821685818
v 0.0127058063686 0.080289096046 0.118890444686
v 0.0126715976053 0.0804349568388 0.118958460691
v 0.0126278252159 0.0805787024116 0.119025490353
v 0.0125746458943 0.0807198181924 0.119091293722
v 0.0125122500085 0.0808577990235 0.11915563524
v 0.0124408609198 0.0809921509692 0.119218284581
v 0.0123607341824 0.0811223930845 0.119279017477
v 0.0122721566294 0.0812480591364 0.119337616519
v 0.0121754453453 0.081368699273 0.119393871939
v 0.0120709465315 0.081483881634 0.119447582356
v 0.0119590342666 0.0815931938964 0.119498555501
v 0.0118401091675 0.0816962447506 0.119546608904
v 0.0117145969551 0.0817926653015 0.119591570545
v 0.0115829469306 0.0818821103883 0.119633279474
v 0.011445630367 0.081964259821 0.119671586383
v 0.0113031388218 0.0820388195258 0.119706354145
v 0.0111559823779 0.0821055225985 0.119737458298
v 0.011004687817 0.0821641302592 0.119764787499
v 0.0108497967345 0.0822144327078 0.119788243916
v 0.0106918636003 0.0822562498745 0.119807743581
v 0.0105314537739 0.0822894320648 0.119823216691
v 0.010369141481 0.0823138604951 0.119834607855
v 0.0102055077574 0.0823294477178 0.119841876296
v 0.0100411383693 0.0823361379348 0.119844995996
v 0.00987662171654 0.0823339071969 0.119843955786
v 0.00971254672601 0.0823227634894 0.119838759389
v 0.00954950074361 0.0823027467041 0.119829425409
v 0.00938806743162 0.0822739284957 0.119815987258
v 0.00922882467941 0.082236412026 0.119798493041
v 0.0090723425347 0.0821903315942 0.119777005383
v 0.00891918116295 0.0821358521563 0.119751601203
v 0.00876988884213 0.0820731687346 0.119722371444
v 0.008625 0.0820025057194 0.119689420739
v 0.00848503330101 0.0819241160659 0.119652867043
v 0.00835048978961 0.0818382803889 0.119612841209
v 0.00822185109666 0.0817453059577 0.11956948652
v 0.00809957771529 0.0816455255967 0.119522958174
v 0.00798410735247 0.0815392964936 0.119473422729
v 0.00787585336213 0.0814269989212 0.119421057511
v 0.00777520326547 0.0813090348755 0.119366049973
v 0.0076825173637 0.0811858266372 0.119308597028
v 0.0075981274483 0.0810578152599 0.119248904343
v 0.00752233561327 0.080925458991 0.119187185601
v 0.0074554131737 0.0807892316316 0.11912366174
v 0.00739759969455 0.0806496208404 0.119058560159
v 0.00734910213309 0.0805071263877 0.118992113904
v 0.00731009409798 0.0803622583666 0.118924560837
v 0.00728071522788 0.0802155353672 0.118856142779
v 0.00726107069151 0.0800674826197 0.118787104649
v 0.00725123081122 0.0799186301144 0.118717693585
v 0.00725123081122 0.0797695107047 0.118648158063
v 0.00726107069151 0.0796206581994 0.118578747
v 0.00728071522788 0.0794726054518 0.11850970887
v 0.00731009409798 0.0793258824524 0.118441290811
v 0.00734910213309 0.0791810144314 0.118373737744
v 0.00739759969455 0.0790385199787 0.118307291489
v 0.0074554131737 0.0788989091874 0.118242189908
v 0.00752233561327 0.0787626818281 0.118178666047
v 0.0075981274483 0.0786303255592 0.118116947305
v 0.0076825173637 0.0785023141818 0.11805725462
v 0.00777520326547 0.0783791059436 0.117999801675
v 0.00787585336213 0.0782611418979 0.117944794137
v 0.00798410735247 0.0781488443254 0.117892428919
v 0.00809957771529 0.0780426152223 0.117842893474
v 0.00822185109666 0.0779428348613 0.117796365128
v 0.00835048978961 0.0778498604301 0.117753010439
v 0.00848503330101 0.0777640247531 0.117712984605
v 0.008625 0.0776856350997 0.117676430909
v 0.00876988884213 0.0776149720844 0.117643480204
v 0.00891918116295 0.0775522886627 0.117614250445
v 0.0090723425347 0.0774978092248 0.117588846266
v 0.00922882467941 0.077451728793 0.117567358607
v 0.00938806743162 0.0774142123233 0.11754986439
v 0.00954950074361 0.077385394115 0.117536426239
v 0.00971254672601 0.0773653773296 0.117527092259
v 0.00987662171654 0.0773542336222 0.117521895863
v 0.0100411383693 0.0773520028842 0.117520855652
v 0.0102055077574 0.0773586931012 0.117523975352
v 0.010369141481 0.077374280324 0.117531243793
v 0.0105314537739 0.0773987087542 0.117542634957
v 0.0106918636003 0.0774318909445 0.117558108067
v 0.0108497967345 0.0774737081113 0.117577607732
v 0.011004687817 0.0775240105599 0.117601064149
v 0.0111559823779 0.0775826182206 0.11762839335
v 0.0113031388218 0.0776493212932 0.117659497503
v 0.011445630367 0.077723880998 0.117694265265
v 0.0115829469306 0.0778060304307 0.117732572174
v 0.0117145969551 0.0778954755176 0.117774281103
v 0.0118401091675 0.0779918960684 0.117819242745
v 0.0119590342666 0.0780949469227 0.117867296147
v 0.0120709465315 0.0782042591851 0.117918269292
v 0.0121754453453 0.078319441546 0.117971979709
v 0.0122721566294 0.0784400816827 0.118028235129
v 0.0123607341824 0.0785657477346 0.118086834171
v 0.0124408609198 0.0786959898498 0.118147567067
v 0.0125122500085 0.0788303417956 0.118210216408
v 0.0125746458943 0.0789683226266 0.118274557926
v 0.0126278252159 0.0791094384075 0.118340361296
v 0.0126715976053 0.0792531839802 0.118407390957
v 0.0127058063686 0.079399044773 0.118475406962
v 0.0127303290474 0.0795464986421 0.11854416583
v 0.0127450778569 0.0796950177409 0.118613421423
v 0.01275 0.0798440704095 0.118682925824
v 0.01275 0.0811119251947 0.115964002463
v 0.0127450778569 0.0812609778634 0.116033506864
v 0.0127303290474 0.0814094969622 0.116102762457
v 0.0127058063686 0.0815569508313 0.116171521325
v 0.0126715976053 0.0817028116241 0.11623953733
v 0.0126278252159 0.0818465571968 0.116306566991
v 0.0125746458943 0.0819876729776 0.116372370361
v 0.0125122500085 0.0821256538087 0.116436711879
v 0.0124408609198 0.0822600057544 0.11649936122
v 0.0123607341824 0.0823902478697 0.116560094116
v 0.0122721566294 0.0825159139216 0.116618693158
v 0.0121754453453 0.0826365540582 0.116674948578
v 0.0120709465315 0.0827517364192 0.116728658995
v 0.0119590342666 0.0828610486816 0.11677963214
v 0.0118401091675 0.0829640995359 0.116827685542
v 0.0117145969551 0.0830605200867 0.116872647184
v 0.0115829469306 0.0831499651735 0.116914356113
v 0.011445630367 0.0832321146062 0.116952663022
v 0.0113031388218 0.0833066743111 0.116987430784
v 0.0111559823779 0.0833733773837 0.117018534937
v 0.011004687817 0.0834319850444 0.117045864138
v 0.0108497967345 0.083482287493 0.117069320555
v 0.0106918636003 0.0835241046597 0.11708882022
v 0.0105314537739 0.08355728685 0.11710429333
v 0.010369141481 0.0835817152803 0.117115684494
v 0.0102055077574 0.083597302503 0.117122952935
v 0.0100411383693 0.08360399272 0.117126072635
v 0.00987662171654 0.0836017619821 0.117125032424
v 0.00971254672601 0.0835906182747 0.117119836028
v 0.00954950074361 0.0835706014893 0.117110502048
v 0.00938806743162 0.0835417832809 0.117097063897
v 0.00922882467941 0.0835042668112 0.11707956968
v 0.0090723425347 0.0834581863794 0.117058082021
v 0.00891918116295 0.0834037069416 0.117032677842
v 0.00876988884213 0.0833410235198 0.117003448083
v 0.008625 0.0832703605046 0.116970497378
v 0.00848503330101 0.0831919708512 0.116933943682
v 0.00835048978961 0.0831061351741 0.116893917848
v 0.00822185109666 0.0830131607429 0.116850563159
v 0.00809957771529 0.0829133803819 0.116804034813
v 0.00798410735247 0.0828071512789 0.116754499368
v 0.00787585336213 0.0826948537064 0.11670213415
v 0.00777520326547 0.0825768896607 0.116647126612
v 0.0076825173637 0.0824536814224 0.116589673667
v 0.0075981274483 0.0823256700451 0.116529980982
v 0.00752233561327 0.0821933137762 0.11646826224
v 0.0074554131737 0.0820570864168 0.116404738379
v 0.00739759969455 0.0819174756256 0.116339636798
v 0.00734910213309 0.0817749811729 0.116273190543
v 0.00731009409798 0.0816301131519 0.116205637476
v 0.00728071522788 0.0814833901524 0.116137219417
v 0.00726107069151 0.0813353374049 0.116068181287
v 0.00725123081122 0.0811864848996 0.115998770224
v 0.00725123081122 0.0810373654899 0.115929234702
v 0.00726107069151 0.0808885129846 0.115859823638
v 0.00728071522788 0.0807404602371 0.115790785508
v 0.00731009409798 0.0805937372376 0.11572236745
v 0.00734910213309 0.0804488692166 0.115654814383
v 0.00739759969455 0.0803063747639 0.115588368128
v 0.0074554131737 0.0801667639727 0.115523266547
v 0.00752233561327 0.0800305366133 0.115459742686
v 0.0075981274483 0.0798981803444 0.115398023944
v 0.0076825173637 0.0797701689671 0.115338331259
v 0.00777520326547 0.0796469607288 0.115280878314
v 0.00787585336213 0.0795289966831 0.115225870776
v 0.00798410735247 0.0794166991106 0.115173505558
v 0.00809957771529 0.0793104700076 0.115123970113
v 0.00822185109666 0.0792106896466 0.115077441767
v 0.00835048978961 0.0791177152154 0.115034087078
v 0.00848503330101 0.0790318795383 0.114994061244
v 0.008625 0.0789534898849 0.114957507548
v 0.00876988884213 0.0788828268697 0.114924556843
v 0.00891918116295 0.0788201434479 0.114895327084
v 0.0090723425347 0.07876566401 0.114869922904
v 0.00922882467941 0.0787195835783 0.114848435246
v 0.00938806743162 0.0786820671086 0.114830941029
v 0.00954950074361 0.0786532489002 0.114817502878
v 0.00971254672601 0.0786332321148 0.114808168898
v 0.00987662171654 0.0786220884074 0.114802972501
v 0.0100411383693 0.0786198576694 0.114801932291
v 0.0102055077574 0.0786265478865 0.114805051991
v 0.010369141481 0.0786421351092 0.114812320432
v 0.0105314537739 0.0786665635394 0.114823711596
v 0.0106918636003 0.0786997457298 0.114839184706
v 0.0108497967345 0.0787415628965 0.114858684371
v 0.011004687817 0.0787918653451 0.114882140788
v 0.0111559823779 0.0788504730058 0.114909469989
v 0.0113031388218 0.0789171760784 0.114940574142
v 0.011445630367 0.0789917357833 0.114975341904
v 0.0115829469306 0.0790738852159 0.115013648813
v 0.0117145969551 0.0791633303028 0.115055357742
v 0.0118401091675 0.0792597508536 0.115100319383
v 0.0119590342666 0.0793628017079 0.115148372786
v 0.0120709465315 0.0794721139703 0.115199345931
v 0.0121754453453 0.0795872963313 0.115253056348
v 0.0122721566294 0.0797079364679 0.115309311768
v 0.0123607341824 0.0798336025198 0.11536791081
v 0.0124408609198 0.0799638446351 0.115428643706
v 0.0125122500085 0.0800981965808 0.115491293047
v 0.0125746458943 0.0802361774118 0.115555634565
v 0.0126278252159 0.0803772931927 0.115621437934
v 0.0126715976053 0.0805210387654 0.115688467596
v 0.0127058063686 0.0806668995582 0.115756483601
v 0.0127303290474 0.0808143534273 0.115825242469
v 0.0127450778569 0.0809628725261 0.115894498062
v 0.01275 0.0811119251947 0.115964002463
v 0.01275 0.0798440704095 0.118682925824
v 0.0127450778569 0.0799931230782 0.118752430225
v 0.0127303290474 0.0801416421769 0.118821685818
v 0.0127058063686 0.080289096046 0.118890444686
v 0.0126715976053 0.0804349568388 0.118958460691
v 0.0126278252159 0.0805787024116 0.119025490353
v 0.0125746458943 0.0807198181924 0.119091293722
v 0.0125122500085 0.0808577990235 0.11915563524
v 0.0124408609198 0.0809921509692 0.119218284581
v 0.0123607341824 0.0811223930845 0.119279017477
v 0.0122721566294 0.0812480591364 0.119337616519
v 0.0121754453453 0.081368699273 0.119393871939
v 0.0120709465315 0.081483881634 0.119447582356
v 0.0119590342666 0.0815931938964 0.119498555501
v 0.0118401091675 0.0816962447506 0.119546608904
v 0.0117145969551 0.0817926653015 0.119591570545
v 0.0115829469306 0.0818821103883 0.119633279474
v 0.011445630367 0.081964259821 0.119671586383
v 0.0113031388218 0.0820388195258 0.119706354145
v 0.0111559823779 0.0821055225985 0.119737458298
v 0.011004687817 0.0821641302592 0.119764787499
v 0.0108497967345 0.0822144327078 0.119788243916
v 0.0106918636003 0.0822562498745 0.119807743581
v 0.0105314537739 0.0822894320648 0.119823216691
v 0.010369141481 0.0823138604951 0.119834607855
v 0.0102055077574 0.0823294477178 0.119841876296
v 0.0100411383693 0.0823361379348 0.119844995996
v 0.00987662171654 0.0823339071969 0.119843955786
v 0.00971254672601 0.0823227634894 0.119838759389
v 0.00954950074361 0.0823027467041 0.119829425409
v 0.00938806743162 0.0822739284957 0.119815987258
v 0.00922882467941 0.082236412026 0.119798493041
v 0.0090723425347 0.0821903315942 0.119777005383
v 0.00891918116295 0.0821358521563 0.119751601203
v 0.00876988884213 0.0820731687346 0.119722371444
v 0.008625 0.0820025057194 0.119689420739
v 0.00848503330101 0.0819241160659 0.119652867043
v 0.00835048978961 0.0818382803889 0.119612841209
v 0.00822185109666 0.0817453059577 0.11956948652
v 0.00809957771529 0.0816455255967 0.119522958174
v 0.00798410735247 0.0815392964936 0.119473422729
v 0.00787585336213 0.0814269989212 0.119421057511
v 0.00777520326547 0.0813090348755 0.119366049973
v 0.0076825173637 0.0811858266372 0.119308597028
v 0.0075981274483 0.0810578152599 0.119248904343
v 0.00752233561327 0.080925458991 0.119187185601
v 0.0074554131737 0.0807892316316 0.11912366174
v 0.00739759969455 0.0806496208404 0.119058560159
v 0.00734910213309 0.0805071263877 0.118992113904
v 0.00731009409798 0.0803622583666 0.118924560837
v 0.00728071522788 0.0802155353672 0.118856142779
v 0.00726107069151 0.0800674826197 0.118787104649
v 0.00725123081122 0.0799186301144 0.118717693585
v 0.00725123081122 0.0797695107047 0.118648158063
v 0.00726107069151 0.0796206581994 0.118578747
v 0.00728071522788 0.0794726054518 0.11850970887
v 0.00731009409798 0.0793258824524 0.118441290811
v 0.00734910213309 0.0791810144314 0.118373737744
v 0.00739759969455 0.0790385199787 0.118307291489
v 0.0074554131737 0.0788989091874 0.118242189908
v 0.00752233561327 0.0787626818281 0.118178666047
v 0.0075981274483 0.0786303255592 0.118116947305
v 0.0076825173637 0.0785023141818 0.11805725462
v 0.00777520326547 0.0783791059436 0.117999801675
v 0.00787585336213 0.0782611418979 0.117944794137
v 0.00798410735247 0.0781488443254 0.117892428919
v 0.00809957771529 0.0780426152223 0.117842893474
v 0.00822185109666 0.0779428348613 0.117796365128
v 0.00835048978961 0.0778498604301 0.117753010439
v 0.00848503330101 0.0777640247531 0.117712984605
v 0.008625 0.0776856350997 0.117676430909
v 0.00876988884213 0.0776149720844 0.117643480204
v 0.00891918116295 0.0775522886627 0.117614250445
v 0.0090723425347 0.0774978092248 0.117588846266
v 0.00922882467941 0.077451728793 0.117567358607
v 0.00938806743162 0.0774142123233 0.11754986439
v 0.00954950074361 0.077385394115 0.117536426239
v 0.00971254672601 0.0773653773296 0.117527092259
v 0.00987662171654 0.0773542336222 0.117521895863
v 0.0100411383693 0.0773520028842 0.117520855652
v 0.0102055077574 0.0773586931012 0.117523975352
v 0.010369141481 0.077374280324 0.117531243793
v 0.0105314537739 0.0773987087542 0.117542634957
v 0.0106918636003 0.0774318909445 0.117558108067
v 0.0108497967345 0.0774737081113 0.117577607732
v 0.011004687817 0.0775240105599 0.117601064149
v 0.0111559823779 0.0775826182206 0.11762839335
v 0.0113031388218 0.0776493212932 0.117659497503
v 0.011445630367 0.077723880998 0.117694265265
v 0.0115829469306 0.0778060304307 0.117732572174
v 0.0117145969551 0.0778954755176 0.117774281103
v 0.0118401091675 0.0779918960684 0.117819242745
v 0.0119590342666 0.0780949469227 0.117867296147
v 0.0120709465315 0.0782042591851 0.117918269292
v 0.0121754453453 0.078319441546 0.117971979709
v 0.0122721566294 0.0784400816827 0.118028235129
v 0.0123607341824 0.0785657477346 0.118086834171
v 0.0124408609198 0.0786959898498 0.118147567067
v 0.0125122500085 0.0788303417956 0.118210216408
v 0.0125746458943 0.0789683226266 0.118274557926
v 0.0126278252159 0.0791094384075 0.118340361296
v 0.0126715976053 0.0792531839802 0.118407390957
v 0.0127058063686 0.079399044773 0.118475406962
v 0.0127303290474 0.0795464986421 0.11854416583
v 0.0127450778569 0.0796950177409 0.118613421423
v 0.00916284210968 0.0811582167007 0.119295722304
v 0.0108371578903 0.0811582167007 0.119295722304
v 0.0116743157806 0.0798440704095 0.118682925824
v 0.0108371578903 0.0785299241183 0.118070129345
v 0.00916284210968 0.0785299241183 0.118070129345
v 0.00832568421935 0.0798440704095 0.118682925824
v 0.01275 0.0811119251947 0.115964002463
v 0.0127450778569 0.0812609778634 0.116033506864
v 0.0127303290474 0.0814094969622 0.116102762457
v 0.0127058063686 0.0815569508313 0.116171521325
v 0.0126715976053 0.0817028116241 0.11623953733
v 0.0126278252159 0.0818465571968 0.116306566991
v 0.0125746458943 0.0819876729776 0.116372370361
v 0.0125122500085 0.0821256538087 0.116436711879
v 0.0124408609198 0.0822600057544 0.11649936122
v 0.0123607341824 0.0823902478697 0.116560094116
v 0.0122721566294 0.0825159139216 0.116618693158
v 0.0121754453453 0.0826365540582 0.116674948578
v 0.0120709465315 0.0827517364192 0.116728658995
v 0.0119590342666 0.0828610486816 0.11677963214
v 0.0118401091675 0.0829640995359 0.116827685542
v 0.0117145969551 0.0830605200867 0.116872647184
v 0.0115829469306 0.0831499651735 0.116914356113
v 0.011445630367 0.0832321146062 0.116952663022
v 0.0113031388218 0.0833066743111 0.116987430784
v 0.0111559823779 0.0833733773837 0.117018534937
v 0.011004687817 0.0834319850444 0.117045864138
v 0.0108497967345 0.083482287493 0.117069320555
v 0.0106918636003 0.0835241046597 0.11708882022
v 0.0105314537739 0.08355728685 0.11710429333
v 0.010369141481 0.0835817152803 0.117115684494
v 0.0102055077574 0.083597302503 0.117122952935
v 0.0100411383693 0.08360399272 0.117126072635
v 0.00987662171654 0.0836017619821 0.117125032424
v 0.00971254672601 0.0835906182747 0.117119836028
v 0.00954950074361 0.0835706014893 0.117110502048
v 0.00938806743162 0.0835417832809 0.117097063897
v 0.00922882467941 0.0835042668112 0.11707956968
v 0.0090723425347 0.0834581863794 0.117058082021
v 0.00891918116295 0.0834037069416 0.117032677842
v 0.00876988884213 0.0833410235198 0.117003448083
v 0.008625 0.0832703605046 0.116970497378
v 0.00848503330101 0.0831919708512 0.116933943682
v 0.00835048978961 0.0831061351741 0.116893917848
v 0.00822185109666 0.0830131607429 0.116850563159
v 0.00809957771529 0.0829133803819 0.116804034813
v 0.00798410735247 0.0828071512789 0.116754499368
v 0.00787585336213 0.0826948537064 0.11670213415
v 0.00777520326547 0.0825768896607 0.116647126612
v 0.0076825173637 0.0824536814224 0.116589673667
v 0.0075981274483 0.0823256700451 0.116529980982
v 0.00752233561327 0.0821933137762 0.11646826224
v 0.0074554131737 0.0820570864168 0.116404738379
v 0.00739759969455 0.0819174756256 0.116339636798
v 0.00734910213309 0.0817749811729 0.116273190543
v 0.00731009409798 0.0816301131519 0.116205637476
v 0.00728071522788 0.0814833901524 0.116137219417
v 0.00726107069151 0.0813353374049 0.116068181287
v 0.00725123081122 0.0811864848996 0.115998770224
v 0.00725123081122 0.0810373654899 0.115929234702
v 0.00726107069151 0.0808885129846 0.115859823638
v 0.00728071522788 0.0807404602371 0.115790785508
v 0.00731009409798 0.0805937372376 0.11572236745
v 0.00734910213309 0.0804488692166 0.115654814383
v 0.00739759969455 0.0803063747639 0.115588368128
v 0.0074554131737 0.0801667639727 0.115523266547
v 0.00752233561327 0.0800305366133 0.115459742686
v 0.0075981274483 0.0798981803444 0.115398023944
v 0.0076825173637 0.0797701689671 0.115338331259
v 0.00777520326547 0.0796469607288 0.115280878314
v 0.00787585336213 0.0795289966831 0.115225870776
v 0.00798410735247 0.0794166991106 0.115173505558
v 0.00809957771529 0.0793104700076 0.115123970113
v 0.00822185109666 0.0792106896466 0.115077441767
v 0.00835048978961 0.0791177152154 0.115034087078
v 0.00848503330101 0.0790318795383 0.114994061244
v 0.008625 0.0789534898849 0.114957507548
v 0.00876988884213 0.0788828268697 0.114924556843
v 0.00891918116295 0.0788201434479 0.114895327084
v 0.0090723425347 0.07876566401 0.114869922904
v 0.00922882467941 0.0787195835783 0.114848435246
v 0.00938806743162 0.0786820671086 0.114830941029
v 0.00954950074361 0.0786532489002 0.114817502878
v 0.00971254672601 0.0786332321148 0.114808168898
v 0.00987662171654 0.0786220884074 0.114802972501
v 0.0100411383693 0.0786198576694 0.114801932291
v 0.0102055077574 0.0786265478865 0.114805051991
v 0.010369141481 0.0786421351092 0.114812320432
v 0.0105314537739 0.0786665635394 0.114823711596
v 0.0106918636003 0.0786997457298 0.114839184706
v 0.0108497967345 0.0787415628965 0.114858684371
v 0.011004687817 0.0787918653451 0.114882140788
v 0.0111559823779 0.0788504730058 0.114909469989
v 0.0113031388218 0.0789171760784 0.114940574142
v 0.011445630367 0.0789917357833 0.114975341904
v 0.0115829469306 0.0790738852159 0.115013648813
v 0.0117145969551 0.0791633303028 0.115055357742
v 0.0118401091675 0.0792597508536 0.115100319383
v 0.0119590342666 0.0793628017079 0.115148372786
v 0.0120709465315 0.0794721139703 0.115199345931
v 0.0121754453453 0.0795872963313 0.115253056348
v 0.0122721566294 0.0797079364679 0.115309311768
v 0.0123607341824 0.0798336025198 0.11536791081
v 0.0124408609198 0.0799638446351 0.115428643706
v 0.0125122500085 0.0800981965808 0.115491293047
v 0.0125746458943 0.0802361774118 0.115555634565
v 0.0126278252159 0.0803772931927 0.115621437934
v 0.0126715976053 0.0805210387654 0.115688467596
v 0.0127058063686 0.0806668995582 0.115756483601
v 0.0127303290474 0.0808143534273 0.115825242469
v 0.0127450778569 0.0809628725261 0.115894498062
v 0.01145 0.0811119251947 0.115964002463
v 0.0114474046882 0.0811905166018 0.116000650238
v 0.0114396280432 0.0812688266721 0.116037166823
v 0.0114266979035 0.0813465750758 0.116073421499
v 0.0114086605555 0.0814234834938 0.116109284484
v 0.0113855805684 0.081499276614 0.116144627396
v 0.0113575405624 0.0815736831166 0.116179323718
v 0.0113246409136 0.0816464366457 0.116213249246
v 0.0112869993941 0.0817172767626 0.116246282535
v 0.0112447507507 0.0817859498779 0.116278305334
v 0.0111980462228 0.0818522101598 0.116309203011
v 0.0111470530003 0.0819158204137 0.11633886496
v 0.0110919536257 0.0819765529313 0.116367184998
v 0.0110329453406 0.082034190306 0.116394061747
v 0.0109702393792 0.082088526211 0.116419398996
v 0.0109040602127 0.0821393661378 0.116443106043
v 0.0108346447452 0.0821865280927 0.116465098024
v 0.0107622414662 0.0822298432481 0.116485296212
v 0.0106871095606 0.082269156547 0.116503628305
v 0.010609517981 0.082304327258 0.116520028677
v 0.0105297444853 0.0823352294791 0.116534438619
v 0.0104480746418 0.0823617525884 0.116546806548
v 0.0103648008074 0.0823838016399 0.11655708819
v 0.0102802210808 0.0824012977039 0.116565246738
v 0.0101946382354 0.0824141781489 0.116571252988
v 0.0101083586357 0.0824223968664 0.116575085439
v 0.0100216911402 0.0824259244354 0.116576730372
v 0.00993494599599 0.0824247482281 0.116576181897
v 0.00984843372826 0.0824188724551 0.116573441979
v 0.00976246402845 0.0824083181501 0.116568520426
v 0.00967734464576 0.0823931230947 0.116561434855
v 0.00959338028551 0.0823733416834 0.116552210632
v 0.00951087151829 0.0823490447285 0.116540880776
v 0.0094301137041 0.0823203192067 0.116527485845
v 0.00935139593494 0.082287267948 0.11651207379
v 0.009275 0.0822500092672 0.116494699782
v 0.00920119937689 0.0822086765409 0.116475426015
v 0.0091302582527 0.0821634177293 0.116454321484
v 0.00906243057824 0.0821143948474 0.116431461739
v 0.00899795915897 0.0820617833843 0.116406928611
v 0.00893707478585 0.0820057716755 0.116380809922
v 0.00887999540912 0.0819465602282 0.116353199171
v 0.00882692535816 0.0818843610041 0.116324195196
v 0.00877805460995 0.0818193966602 0.116293901825
v 0.00873355810911 0.0817518997522 0.1162624275
v 0.00869359514154 0.0816821119013 0.116229884891
v 0.00865830876431 0.08161028293 0.116196390491
v 0.00862782529349 0.0815366699674 0.116162064203
v 0.00860225385199 0.0814615365287 0.116127028905
v 0.00858168597894 0.0813851515721 0.116091410015
v 0.00856619530197 0.0813077885361 0.116055335039
v 0.00855583727371 0.0812297243601 0.116018933116
v 0.00855064897319 0.0811512384937 0.115982334555
v 0.00855064897319 0.0810726118958 0.115945670371
v 0.00855583727371 0.0809941260294 0.11590907181
v 0.00856619530197 0.0809160618534 0.115872669887
v 0.00858168597894 0.0808386988174 0.115836594911
v 0.00860225385199 0.0807623138608 0.115800976021
v 0.00862782529349 0.0806871804221 0.115765940723
v 0.00865830876431 0.0806135674595 0.115731614434
v 0.00869359514154 0.0805417384882 0.115698120035
v 0.00873355810911 0.0804719506373 0.115665577426
v 0.00877805460995 0.0804044537292 0.115634103101
v 0.00882692535816 0.0803394893854 0.11560380973
v 0.00887999540912 0.0802772901613 0.115574805755
v 0.00893707478585 0.080218078714 0.115547195004
v 0.00899795915897 0.0801620670051 0.115521076315
v 0.00906243057824 0.0801094555421 0.115496543187
v 0.0091302582527 0.0800604326602 0.115473683442
v 0.00920119937689 0.0800151738486 0.115452578911
v 0.009275 0.0799738411223 0.115433305144
v 0.00935139593494 0.0799365824415 0.115415931136
v 0.0094301137041 0.0799035311828 0.115400519081
v 0.00951087151829 0.079874805661 0.11538712415
v 0.00959338028551 0.0798505087061 0.115375794294
v 0.00967734464576 0.0798307272948 0.115366570071
v 0.00976246402845 0.0798155322394 0.1153594845
v 0.00984843372826 0.0798049779344 0.115354562947
v 0.00993494599599 0.0797991021614 0.115351823029
v 0.0100216911402 0.0797979259541 0.115351274554
v 0.0101083586357 0.0798014535231 0.115352919487
v 0.0101946382354 0.0798096722405 0.115356751938
v 0.0102802210808 0.0798225526856 0.115362758188
v 0.0103648008074 0.0798400487496 0.115370916736
v 0.0104480746418 0.0798620978011 0.115381198378
v 0.0105297444853 0.0798886209104 0.115393566307
v 0.010609517981 0.0799195231315 0.115407976249
v 0.0106871095606 0.0799546938425 0.115424376621
v 0.0107622414662 0.0799940071414 0.115442708713
v 0.0108346447452 0.0800373222968 0.115462906902
v 0.0109040602127 0.0800844842517 0.115484898883
v 0.0109702393792 0.0801353241785 0.11550860593
v 0.0110329453406 0.0801896600835 0.115533943179
v 0.0110919536257 0.0802472974582 0.115560819928
v 0.0111470530003 0.0803080299758 0.115589139966
v 0.0111980462228 0.0803716402297 0.115618801915
v 0.0112447507507 0.0804379005116 0.115649699591
v 0.0112869993941 0.0805065736269 0.115681722391
v 0.0113246409136 0.0805774137437 0.11571475568
v 0.0113575405624 0.0806501672729 0.115748681208
v 0.0113855805684 0.0807245737755 0.11578337753
v 0.0114086605555 0.0808003668956 0.115818720442
v 0.0114266979035 0.0808772753137 0.115854583426
v 0.0114396280432 0.0809550237174 0.115890838102
v 0.0114474046882 0.0810333337876 0.115927354688
v 0.0108371578903 0.0819189295719 0.117664368287
v 0.00916284210968 0.0819189295719 0.117664368287
v 0.0108371578903 0.0811582167007 0.119295722304
v 0.00916284210968 0.0811582167007 0.119295722304
v 0.00916284210968 0.0819189295719 0.117664368287
v 0.00832568421935 0.0806047832807 0.117051571807
v 0.00916284210968 0.0811582167007 0.119295722304
v 0.00832568421935 0.0798440704095 0.118682925824
v 0.00832568421935 0.0806047832807 0.117051571807
v 0.00916284210968 0.0792906369894 0.116438775328
v 0.00832568421935 0.0798440704095 0.118682925824
v 0.00916284210968 0.0785299241183 0.118070129345
v 0.00916284210968 0.0792906369894 0.116438775328
v 0.0108371578903 0.0792906369894 0.116438775328
v 0.00916284210968 0.0785299241183 0.118070129345
v 0.0108371578903 0.0785299241183 0.118070129345
v 0.0108371578903 0.0792906369894 0.116438775328
v 0.0116743157806 0.0806047832807 0.117051571807
v 0.0108371578903 0.0785299241183 0.118070129345
v 0.0116743157806 0.0798440704095 0.118682925824
v 0.0116743157806 0.0806047832807 0.117051571807
v 0.0108371578903 0.0819189295719 0.117664368287
v 0.0116743157806 0.0798440704095 0.118682925824
v 0.0108371578903 0.0811582167007 0.119295722304
v 0.01145 0.0811119251947 0.115964002463
v 0.0114474046882 0.0811905166018 0.116000650238
v 0.0114396280432 0.0812688266721 0.116037166823
v 0.0114266979035 0.0813465750758 0.116073421499
v 0.0114086605555 0.0814234834938 0.116109284484
v 0.0113855805684 0.081499276614 0.116144627396
v 0.0113575405624 0.0815736831166 0.116179323718
v 0.0113246409136 0.0816464366457 0.116213249246
v 0.0112869993941 0.0817172767626 0.116246282535
v 0.0112447507507 0.0817859498779 0.116278305334
v 0.0111980462228 0.0818522101598 0.116309203011
v 0.0111470530003 0.0819158204137 0.11633886496
v 0.0110919536257 0.0819765529313 0.116367184998
v 0.0110329453406 0.082034190306 0.116394061747
v 0.0109702393792 0.082088526211 0.116419398996
v 0.0109040602127 0.0821393661378 0.116443106043
v 0.0108346447452 0.0821865280927 0.116465098024
v 0.0107622414662 0.0822298432481 0.116485296212
v 0.0106871095606 0.082269156547 0.116503628305
v 0.010609517981 0.082304327258 0.116520028677
v 0.0105297444853 0.0823352294791 0.116534438619
v 0.0104480746418 0.0823617525884 0.116546806548
v 0.0103648008074 0.0823838016399 0.11655708819
v 0.0102802210808 0.0824012977039 0.116565246738
v 0.0101946382354 0.0824141781489 0.116571252988
v 0.0101083586357 0.0824223968664 0.116575085439
v 0.0100216911402 0.0824259244354 0.116576730372
v 0.00993494599599 0.0824247482281 0.116576181897
v 0.00984843372826 0.0824188724551 0.116573441979
v 0.00976246402845 0.0824083181501 0.116568520426
v 0.00967734464576 0.0823931230947 0.116561434855
v 0.00959338028551 0.0823733416834 0.116552210632
v 0.00951087151829 0.0823490447285 0.116540880776
v 0.0094301137041 0.0823203192067 0.116527485845
v 0.00935139593494 0.082287267948 0.11651207379
v 0.009275 0.0822500092672 0.116494699782
v 0.00920119937689 0.0822086765409 0.116475426015
v 0.0091302582527 0.0821634177293 0.116454321484
v 0.00906243057824 0.0821143948474 0.116431461739
v 0.00899795915897 0.0820617833843 0.116406928611
v 0.00893707478585 0.0820057716755 0.116380809922
v 0.00887999540912 0.0819465602282 0.116353199171
v 0.00882692535816 0.0818843610041 0.116324195196
v 0.00877805460995 0.0818193966602 0.116293901825
v 0.00873355810911 0.0817518997522 0.1162624275
v 0.00869359514154 0.0816821119013 0.116229884891
v 0.00865830876431 0.08161028293 0.116196390491
v 0.00862782529349 0.0815366699674 0.116162064203
v 0.00860225385199 0.0814615365287 0.116127028905
v 0.00858168597894 0.0813851515721 0.116091410015
v 0.00856619530197 0.0813077885361 0.116055335039
v 0.00855583727371 0.0812297243601 0.116018933116
v 0.00855064897319 0.0811512384937 0.115982334555
v 0.00855064897319 0.0810726118958 0.115945670371
v 0.00855583727371 0.0809941260294 0.11590907181
v 0.00856619530197 0.0809160618534 0.115872669887
v 0.00858168597894 0.0808386988174 0.115836594911
v 0.00860225385199 0.0807623138608 0.115800976021
v 0.00862782529349 0.0806871804221 0.115765940723
v 0.00865830876431 0.0806135674595 0.115731614434
v 0.00869359514154 0.0805417384882 0.115698120035
v 0.00873355810911 0.0804719506373 0.115665577426
v 0.00877805460995 0.0804044537292 0.115634103101
v 0.00882692535816 0.0803394893854 0.11560380973
v 0.00887999540912 0.0802772901613 0.115574805755
v 0.00893707478585 0.080218078714 0.115547195004
v 0.00899795915897 0.0801620670051 0.115521076315
v 0.00906243057824 0.0801094555421 0.115496543187
v 0.0091302582527 0.0800604326602 0.115473683442
v 0.00920119937689 0.0800151738486 0.115452578911
v 0.009275 0.0799738411223 0.115433305144
v 0.00935139593494 0.0799365824415 0.115415931136
v 0.0094301137041 0.0799035311828 0.115400519081
v 0.00951087151829 0.079874805661 0.11538712415
v 0.00959338028551 0.0798505087061 0.115375794294
v 0.00967734464576 0.0798307272948 0.115366570071
v 0.00976246402845 0.0798155322394 0.1153594845
v 0.00984843372826 0.0798049779344 0.115354562947
v 0.00993494599599 0.0797991021614 0.115351823029
v 0.0100216911402 0.0797979259541 0.115351274554
v 0.0101083586357 0.0798014535231 0.115352919487
v 0.0101946382354 0.0798096722405 0.115356751938
v 0.0102802210808 0.0798225526856 0.115362758188
v 0.0103648008074 0.0798400487496 0.115370916736
v 0.0104480746418 0.0798620978011 0.115381198378
v 0.0105297444853 0.0798886209104 0.115393566307
v 0.010609517981 0.0799195231315 0.115407976249
v 0.0106871095606 0.0799546938425 0.115424376621
v 0.0107622414662 0.0799940071414 0.115442708713
v 0.0108346447452 0.0800373222968 0.115462906902
v 0.0109040602127 0.0800844842517 0.115484898883
v 0.0109702393792 0.0801353241785 0.11550860593
v 0.0110329453406 0.0801896600835 0.115533943179
v 0.0110919536257 0.0802472974582 0.115560819928
v 0.0111470530003 0.0803080299758 0.115589139966
v 0.0111980462228 0.0803716402297 0.115618801915
v 0.0112447507507 0.0804379005116 0.115649699591
v 0.0112869993941 0.0805065736269 0.115681722391
v 0.0113246409136 0.0805774137437 0.11571475568
v 0.0113575405624 0.0806501672729 0.115748681208
v 0.0113855805684 0.0807245737755 0.11578337753
v 0.0114086605555 0.0808003668956 0.115818720442
v 0.0114266979035 0.0808772753137 0.115854583426
v 0.0114396280432 0.0809550237174 0.115890838102
v 0.0114474046882 0.0810333337876 0.115927354688
v 0.01145 0.0811119251947 0.115964002463
v 0.01145 0.0836476347652 0.110526155741
v 0.0114474046882 0.0837262261723 0.110562803516
v 0.0114396280432 0.0838045362426 0.110599320101
v 0.0114266979035 0.0838822846463 0.110635574777
v 0.0114086605555 0.0839591930643 0.110671437762
v 0.0113855805684 0.0840349861845 0.110706780674
v 0.0113575405624 0.0841093926871 0.110741476996
v 0.0113246409136 0.0841821462162 0.110775402524
v 0.0112869993941 0.084252986333 0.110808435813
v 0.0112447507507 0.0843216594483 0.110840458612
v 0.0111980462228 0.0843879197303 0.110871356289
v 0.0111470530003 0.0844515299841 0.110901018238
v 0.0110919536257 0.0845122625017 0.110929338276
v 0.0110329453406 0.0845698998764 0.110956215025
v 0.0109702393792 0.0846242357814 0.110981552274
v 0.0109040602127 0.0846750757082 0.111005259321
v 0.0108346447452 0.0847222376631 0.111027251302
v 0.0107622414662 0.0847655528185 0.11104744949
v 0.0106871095606 0.0848048661174 0.111065781583
v 0.010609517981 0.0848400368284 0.111082181954
v 0.0105297444853 0.0848709390495 0.111096591897
v 0.0104480746418 0.0848974621588 0.111108959826
v 0.0103648008074 0.0849195112104 0.111119241467
v 0.0102802210808 0.0849370072743 0.111127400016
v 0.0101946382354 0.0849498877194 0.111133406266
v 0.0101083586357 0.0849581064368 0.111137238717
v 0.0100216911402 0.0849616340058 0.111138883649
v 0.00993494599599 0.0849604577985 0.111138335175
v 0.00984843372826 0.0849545820255 0.111135595257
v 0.00976246402845 0.0849440277205 0.111130673704
v 0.00967734464576 0.0849288326652 0.111123588133
v 0.00959338028551 0.0849090512539 0.11111436391
v 0.00951087151829 0.0848847542989 0.111103034053
v 0.0094301137041 0.0848560287771 0.111089639123
v 0.00935139593494 0.0848229775184 0.111074227068
v 0.009275 0.0847857188377 0.111056853059
v 0.00920119937689 0.0847443861113 0.111037579293
v 0.0091302582527 0.0846991272998 0.111016474762
v 0.00906243057824 0.0846501044179 0.110993615017
v 0.00899795915897 0.0845974929548 0.110969081889
v 0.00893707478585 0.0845414812459 0.1109429632
v 0.00887999540912 0.0844822697986 0.110915352449
v 0.00882692535816 0.0844200705745 0.110886348474
v 0.00877805460995 0.0843551062307 0.110856055103
v 0.00873355810911 0.0842876093226 0.110824580778
v 0.00869359514154 0.0842178214718 0.110792038169
v 0.00865830876431 0.0841459925005 0.110758543769
v 0.00862782529349 0.0840723795378 0.110724217481
v 0.00860225385199 0.0839972460991 0.110689182183
v 0.00858168597894 0.0839208611426 0.110653563293
v 0.00856619530197 0.0838434981065 0.110617488317
v 0.00855583727371 0.0837654339305 0.110581086394
v 0.00855064897319 0.0836869480641 0.110544487833
v 0.00855064897319 0.0836083214663 0.110507823648
v 0.00855583727371 0.0835298355998 0.110471225088
v 0.00856619530197 0.0834517714239 0.110434823165
v 0.00858168597894 0.0833744083878 0.110398748189
v 0.00860225385199 0.0832980234313 0.110363129298
v 0.00862782529349 0.0832228899926 0.110328094
v 0.00865830876431 0.0831492770299 0.110293767712
v 0.00869359514154 0.0830774480586 0.110260273313
v 0.00873355810911 0.0830076602077 0.110227730704
v 0.00877805460995 0.0829401632997 0.110196256378
v 0.00882692535816 0.0828751989559 0.110165963007
v 0.00887999540912 0.0828129997318 0.110136959033
v 0.00893707478585 0.0827537882845 0.110109348282
v 0.00899795915897 0.0826977765756 0.110083229593
v 0.00906243057824 0.0826451651125 0.110058696465
v 0.0091302582527 0.0825961422306 0.110035836719
v 0.00920119937689 0.0825508834191 0.110014732189
v 0.009275 0.0825095506927 0.109995458422
v 0.00935139593494 0.082472292012 0.109978084414
v 0.0094301137041 0.0824392407532 0.109962672359
v 0.00951087151829 0.0824105152314 0.109949277428
v 0.00959338028551 0.0823862182765 0.109937947572
v 0.00967734464576 0.0823664368652 0.109928723348
v 0.00976246402845 0.0823512418099 0.109921637778
v 0.00984843372826 0.0823406875049 0.109916716224
v 0.00993494599599 0.0823348117319 0.109913976306
v 0.0100216911402 0.0823336355246 0.109913427832
v 0.0101083586357 0.0823371630935 0.109915072764
v 0.0101946382354 0.082345381811 0.109918905215
v 0.0102802210808 0.082358262256 0.109924911465
v 0.0103648008074 0.08237575832 0.109933070014
v 0.0104480746418 0.0823978073716 0.109943351656
v 0.0105297444853 0.0824243304808 0.109955719585
v 0.010609517981 0.0824552327019 0.109970129527
v 0.0106871095606 0.0824904034129 0.109986529899
v 0.0107622414662 0.0825297167119 0.110004861991
v 0.0108346447452 0.0825730318673 0.11002506018
v 0.0109040602127 0.0826201938222 0.110047052161
v 0.0109702393792 0.082671033749 0.110070759208
v 0.0110329453406 0.0827253696539 0.110096096457
v 0.0110919536257 0.0827830070287 0.110122973206
v 0.0111470530003 0.0828437395463 0.110151293244
v 0.0111980462228 0.0829073498001 0.110180955192
v 0.0112447507507 0.082973610082 0.110211852869
v 0.0112869993941 0.0830422831974 0.110243875669
v 0.0113246409136 0.0831131233142 0.110276908958
v 0.0113575405624 0.0831858768433 0.110310834486
v 0.0113855805684 0.0832602833459 0.110345530808
v 0.0114086605555 0.0833360764661 0.11038087372
v 0.0114266979035 0.0834129848841 0.110416736704
v 0.0114396280432 0.0834907332878 0.11045299138
v 0.0114474046882 0.0835690433581 0.110489507966
v 0.01145 0.0836476347652 0.110526155741
v 0.0116743157806 0.0806047832807 0.117051571807
v 0.0108371578903 0.0819189295719 0.117664368287
v 0.00916284210968 0.0819189295719 0.117664368287
v 0.00832568421935 0.0806047832807 0.117051571807
v 0.00916284210968 0.0792906369894 0.116438775328
v 0.0108371578903 0.0792906369894 0.116438775328
v 0.01145 0.0836476347652 0.110526155741
v 0.0114474046882 0.0837262261723 0.110562803516
v 0.0114396280432 0.0838045362426 0.110599320101
v 0.0114266979035 0.0838822846463 0.110635574777
v 0.0114086605555 0.0839591930643 0.110671437762
v 0.0113855805684 0.0840349861845 0.110706780674
v 0.0113575405624 0.0841093926871 0.110741476996
v 0.0113246409136 0.0841821462162 0.110775402524
v 0.0112869993941 0.084252986333 0.110808435813
v 0.0112447507507 0.0843216594483 0.110840458612
v 0.0111980462228 0.0843879197303 0.110871356289
v 0.0111470530003 0.0844515299841 0.110901018238
v 0.0110919536257 0.0845122625017 0.110929338276
v 0.0110329453406 0.0845698998764 0.110956215025
v 0.0109702393792 0.0846242357814 0.110981552274
v 0.0109040602127 0.0846750757082 0.111005259321
v 0.0108346447452 0.0847222376631 0.111027251302
v 0.0107622414662 0.0847655528185 0.11104744949
v 0.0106871095606 0.0848048661174 0.111065781583
v 0.010609517981 0.0848400368284 0.111082181954
v 0.0105297444853 0.0848709390495 0.111096591897
v 0.0104480746418 0.0848974621588 0.111108959826
v 0.0103648008074 0.0849195112104 0.111119241467
v 0.0102802210808 0.0849370072743 0.111127400016
v 0.0101946382354 0.0849498877194 0.111133406266
v 0.0101083586357 0.0849581064368 0.111137238717
v 0.0100216911402 0.0849616340058 0.111138883649
v 0.00993494599599 0.0849604577985 0.111138335175
v 0.00984843372826 0.0849545820255 0.111135595257
v 0.00976246402845 0.0849440277205 0.111130673704
v 0.00967734464576 0.0849288326652 0.111123588133
v 0.00959338028551 0.0849090512539 0.11111436391
v 0.00951087151829 0.0848847542989 0.111103034053
v 0.0094301137041 0.0848560287771 0.111089639123
v 0.00935139593494 0.0848229775184 0.111074227068
v 0.009275 0.0847857188377 0.111056853059
v 0.00920119937689 0.0847443861113 0.111037579293
v 0.0091302582527 0.0846991272998 0.111016474762
v 0.00906243057824 0.0846501044179 0.110993615017
v 0.00899795915897 0.0845974929548 0.110969081889
v 0.00893707478585 0.0845414812459 0.1109429632
v 0.00887999540912 0.0844822697986 0.110915352449
v 0.00882692535816 0.0844200705745 0.110886348474
v 0.00877805460995 0.0843551062307 0.110856055103
v 0.00873355810911 0.0842876093226 0.110824580778
v 0.00869359514154 0.0842178214718 0.110792038169
v 0.00865830876431 0.0841459925005 0.110758543769
v 0.00862782529349 0.0840723795378 0.110724217481
v 0.00860225385199 0.0839972460991 0.110689182183
v 0.00858168597894 0.0839208611426 0.110653563293
v 0.00856619530197 0.0838434981065 0.110617488317
v 0.00855583727371 0.0837654339305 0.110581086394
v 0.00855064897319 0.0836869480641 0.110544487833
v 0.00855064897319 0.0836083214663 0.110507823648
v 0.00855583727371 0.0835298355998 0.110471225088
v 0.00856619530197 0.0834517714239 0.110434823165
v 0.00858168597894 0.0833744083878 0.110398748189
v 0.00860225385199 0.0832980234313 0.110363129298
v 0.00862782529349 0.0832228899926 0.110328094
v 0.00865830876431 0.0831492770299 0.110293767712
v 0.00869359514154 0.0830774480586 0.110260273313
v 0.00873355810911 0.0830076602077 0.110227730704
v 0.00877805460995 0.0829401632997 0.110196256378
v 0.00882692535816 0.0828751989559 0.110165963007
v 0.00887999540912 0.0828129997318 0.110136959033
v 0.00893707478585 0.0827537882845 0.110109348282
v 0.00899795915897 0.0826977765756 0.110083229593
v 0.00906243057824 0.0826451651125 0.110058696465
v 0.0091302582527 0.0825961422306 0.110035836719
v 0.00920119937689 0.0825508834191 0.110014732189
v 0.009275 0.0825095506927 0.109995458422
v 0.00935139593494 0.082472292012 0.109978084414
v 0.0094301137041 0.0824392407532 0.109962672359
v 0.00951087151829 0.0824105152314 0.109949277428
v 0.00959338028551 0.0823862182765 0.109937947572
v 0.00967734464576 0.0823664368652 0.109928723348
v 0.00976246402845 0.0823512418099 0.109921637778
v 0.00984843372826 0.0823406875049 0.109916716224
v 0.00993494599599 0.0823348117319 0.109913976306
v 0.0100216911402 0.0823336355246 0.109913427832
v 0.0101083586357 0.0823371630935 0.109915072764
v 0.0101946382354 0.082345381811 0.109918905215
v 0.0102802210808 0.082358262256 0.109924911465
v 0.0103648008074 0.08237575832 0.109933070014
v 0.0104480746418 0.0823978073716 0.109943351656
v 0.0105297444853 0.0824243304808 0.109955719585
v 0.010609517981 0.0824552327019 0.109970129527
v 0.0106871095606 0.0824904034129 0.109986529899
v 0.0107622414662 0.0825297167119 0.110004861991
v 0.0108346447452 0.0825730318673 0.11002506018
v 0.0109040602127 0.0826201938222 0.110047052161
v 0.0109702393792 0.082671033749 0.110070759208
v 0.0110329453406 0.0827253696539 0.110096096457
v 0.0110919536257 0.0827830070287 0.110122973206
v 0.0111470530003 0.0828437395463 0.110151293244
v 0.0111980462228 0.0829073498001 0.110180955192
v 0.0112447507507 0.082973610082 0.110211852869
v 0.0112869993941 0.0830422831974 0.110243875669
v 0.0113246409136 0.0831131233142 0.110276908958
v 0.0113575405624 0.0831858768433 0.110310834486
v 0.0113855805684 0.0832602833459 0.110345530808
v 0.0114086605555 0.0833360764661 0.11038087372
v 0.0114266979035 0.0834129848841 0.110416736704
v 0.0114396280432 0.0834907332878 0.11045299138
v 0.0114474046882 0.0835690433581 0.110489507966
f 2 1 107
f 2 107 108
f 3 108 109
f 3 2 108
f 4 109 110
f 4 3 109
f 5 110 111
f 5 4 110
f 6 111 112
f 6 112 113
f 6 5 111
f 7 6 113
f 8 113 114
f 8 7 113
f 9 114 115
f 9 8 114
f 10 115 116
f 10 9 115
f 11 116 117
f 11 10 116
f 12 117 118
f 12 11 117
f 13 118 119
f 13 12 118
f 14 119 120
f 14 13 119
f 15 120 121
f 15 14 120
f 16 121 122
f 16 15 121
f 17 122 123
f 17 16 122
f 18 123 124
f 18 124 125
f 18 17 123
f 19 18 125
f 20 125 126
f 20 19 125
f 21 126 127
f 21 20 126
f 22 127 128
f 22 128 129
f 22 21 127
f 23 22 129
f 23 129 130
f 24 23 130
f 25 24 130
f 25 130 131
f 26 25 131
f 26 131 132
f 27 26 132
f 27 132 133
f 28 27 133
f 28 133 134
f 28 134 135
f 29 28 135
f 29 135 136
f 30 29 136
f 31 30 136
f 31 136 137
f 31 137 138
f 32 138 139
f 32 31 138
f 33 32 139
f 34 139 140
f 34 33 139
f 35 140 141
f 35 141 142
f 35 34 140
f 36 35 142
f 37 142 143
f 37 36 142
f 38 143 144
f 38 37 143
f 39 144 145
f 39 38 144
f 40 145 146
f 40 39 145
f 41 146 147
f 41 40 146
f 42 147 148
f 42 41 147
f 43 148 149
f 43 42 148
f 44 149 150
f 44 43 149
f 45 150 151
f 45 44 150
f 46 151 152
f 46 45 151
f 47 152 153
f 47 46 152
f 48 153 154
f 48 47 153
f 49 48 154
f 49 154 155
f 49 155 156
f 50 49 156
f 51 50 156
f 51 156 157
f 52 51 157
f 52 157 158
f 53 52 158
f 53 158 159
f 54 53 159
f 54 159 160
f 55 54 160
f 55 160 161
f 56 55 161
f 56 161 162
f 57 56 162
f 57 162 163
f 57 163 164
f 58 57 164
f 59 58 164
f 59 164 165
f 60 59 165
f 60 165 166
f 61 60 166
f 61 166 167
f 62 61 167
f 62 167 168
f 63 62 168
f 63 168 169
f 64 63 169
f 64 169 170
f 65 64 170
f 65 170 171
f 66 171 172
f 66 65 171
f 67 172 173
f 67 173 174
f 67 66 172
f 68 67 174
f 69 174 175
f 69 68 174
f 70 175 176
f 70 176 177
f 70 69 175
f 71 70 177
f 72 177 178
f 72 71 177
f 73 72 178
f 73 178 179
f 74 73 179
f 74 179 180
f 75 74 180
f 75 180 181
f 76 75 181
f 76 181 182
f 77 76 182
f 77 182 183
f 78 77 183
f 78 183 184
f 79 78 184
f 79 184 185
f 80 79 185
f 80 185 186
f 81 80 186
f 81 186 187
f 82 81 187
f 82 187 188
f 83 82 188
f 83 188 189
f 84 83 189
f 84 189 190
f 85 84 190
f 85 190 191
f 86 85 191
f 86 191 192
f 87 86 192
f 87 192 193
f 88 87 193
f 88 193 194
f 89 88 194
f 89 194 195
f 90 89 195
f 90 195 196
f 91 90 196
f 91 196 197
f 92 91 197
f 92 197 198
f 93 92 198
f 93 198 199
f 94 93 199
f 94 199 200
f 95 94 200
f 95 200 201
f 96 95 201
f 96 201 202
f 97 202 203
f 97 96 202
f 98 203 204
f 98 97 203
f 99 98 204
f 99 204 205
f 100 205 206
f 100 99 205
f 101 206 207
f 101 100 206
f 102 207 208
f 102 101 207
f 103 208 209
f 103 102 208
f 104 209 210
f 104 210 211
f 104 103 209
f 105 104 211
f 106 211 212
f 106 105 211
f 322 274 275
f 322 275 276
f 322 276 277
f 322 277 278
f 322 278 279
f 322 279 280
f 322 280 281
f 322 281 282
f 322 282 283
f 322 283 284
f 322 284 285
f 322 285 286
f 322 286 287
f 322 287 288
f 322 288 289
f 322 289 290
f 322 290 291
f 322 291 292
f 323 260 261
f 323 261 262
f 323 262 263
f 323 263 264
f 323 264 265
f 323 265 266
f 323 266 267
f 323 267 268
f 323 268 269
f 323 269 270
f 323 274 322
f 323 270 271
f 323 271 272
f 323 272 273
f 323 273 274
f 259 260 323
f 258 259 323
f 257 258 323
f 321 292 293
f 321 322 292
f 321 293 294
f 321 294 295
f 321 295 296
f 321 296 297
f 321 297 298
f 321 298 299
f 321 299 300
f 321 300 301
f 321 301 302
f 303 321 302
f 304 321 303
f 305 321 304
f 306 321 305
f 307 321 306
f 318 257 323
f 318 250 251
f 318 251 252
f 318 252 253
f 318 253 254
f 318 254 255
f 318 255 256
f 318 256 257
f 308 321 307
f 249 250 318
f 309 321 308
f 248 249 318
f 247 248 318
f 246 247 318
f 245 246 318
f 320 321 309
f 320 309 310
f 320 310 311
f 320 311 312
f 313 320 312
f 244 245 318
f 314 320 313
f 243 244 318
f 315 320 314
f 242 243 318
f 316 320 315
f 241 242 318
f 317 320 316
f 240 241 318
f 213 320 317
f 239 318 319
f 239 240 318
f 214 320 213
f 238 239 319
f 215 320 214
f 237 238 319
f 216 320 215
f 236 237 319
f 217 320 216
f 235 236 319
f 218 320 217
f 234 235 319
f 219 320 218
f 233 234 319
f 220 320 219
f 232 233 319
f 221 320 220
f 231 232 319
f 222 319 320
f 222 320 221
f 230 231 319
f 223 319 222
f 229 230 319
f 224 319 223
f 228 229 319
f 225 319 224
f 227 228 319
f 226 319 225
f 226 227 319
f 494 495 390
f 494 390 389
f 496 390 495
f 496 391 390
f 493 389 388
f 493 494 389
f 497 392 391
f 497 391 496
f 492 388 387
f 492 493 388
f 498 393 392
f 498 392 497
f 491 492 387
f 491 387 386
f 499 394 393
f 499 393 498
f 490 386 385
f 490 491 386
f 500 395 394
f 500 396 395
f 500 394 499
f 489 385 384
f 489 490 385
f 501 396 500
f 501 397 396
f 488 489 384
f 488 384 383
f 502 397 501
f 487 488 383
f 487 383 382
f 503 397 502
f 503 398 397
f 503 399 398
f 486 487 382
f 486 382 381
f 504 399 503
f 485 380 379
f 485 381 380
f 485 486 381
f 505 400 399
f 505 399 504
f 484 485 379
f 506 401 400
f 506 400 505
f 483 484 379
f 483 379 378
f 507 401 506
f 507 402 401
f 482 483 378
f 482 378 377
f 508 402 507
f 508 403 402
f 481 482 377
f 481 377 376
f 509 403 508
f 509 404 403
f 480 481 376
f 480 376 375
f 510 404 509
f 510 405 404
f 479 375 374
f 479 480 375
f 511 406 405
f 511 407 406
f 511 405 510
f 478 374 373
f 478 479 374
f 512 407 511
f 477 373 372
f 477 478 373
f 513 407 512
f 513 408 407
f 476 372 371
f 476 477 372
f 514 408 513
f 514 409 408
f 475 370 369
f 475 371 370
f 475 476 371
f 515 409 514
f 515 410 409
f 474 475 369
f 516 410 515
f 516 411 410
f 473 368 367
f 473 369 368
f 473 474 369
f 517 411 516
f 517 412 411
f 472 367 366
f 472 473 367
f 518 412 517
f 518 413 412
f 471 472 366
f 519 414 413
f 519 413 518
f 470 366 365
f 470 471 366
f 520 415 414
f 520 414 519
f 469 365 364
f 469 470 365
f 521 415 520
f 416 415 521
f 468 469 364
f 363 468 364
f 417 416 521
f 417 521 522
f 417 522 523
f 362 468 363
f 362 466 467
f 362 467 468
f 418 417 523
f 361 466 362
f 361 465 466
f 419 418 523
f 419 523 524
f 360 464 465
f 360 465 361
f 420 525 526
f 420 419 524
f 420 524 525
f 359 464 360
f 421 526 527
f 421 420 526
f 358 462 463
f 358 463 464
f 358 464 359
f 422 421 527
f 357 462 358
f 423 527 528
f 423 528 529
f 423 422 527
f 356 461 462
f 356 462 357
f 424 423 529
f 355 461 356
f 355 460 461
f 425 529 530
f 425 424 529
f 354 460 355
f 354 458 459
f 354 459 460
f 426 530 531
f 426 425 530
f 353 458 354
f 427 531 532
f 427 426 531
f 352 457 458
f 352 458 353
f 428 532 533
f 428 427 532
f 351 456 457
f 351 457 352
f 324 533 429
f 324 428 533
f 350 455 456
f 350 456 351
f 325 429 430
f 325 430 431
f 325 324 429
f 349 454 455
f 349 455 350
f 326 325 431
f 348 453 454
f 348 454 349
f 327 431 432
f 327 326 431
f 347 453 348
f 347 452 453
f 328 432 433
f 328 327 432
f 346 451 452
f 346 452 347
f 329 433 434
f 329 434 435
f 329 328 433
f 345 450 451
f 345 451 346
f 330 329 435
f 344 448 449
f 344 449 450
f 344 450 345
f 331 435 436
f 331 436 437
f 331 330 435
f 343 448 344
f 332 437 438
f 332 331 437
f 342 448 343
f 342 447 448
f 333 332 438
f 341 447 342
f 341 446 447
f 334 333 438
f 334 438 439
f 340 446 341
f 340 445 446
f 335 334 439
f 335 439 440
f 335 440 441
f 339 445 340
f 339 443 444
f 339 444 445
f 336 335 441
f 338 443 339
f 337 441 442
f 337 442 443
f 337 336 441
f 337 443 338
f 535 534 536
f 535 536 537
f 539 538 540
f 539 540 541
f 543 542 544
f 543 544 545
f 547 546 548
f 547 548 549
f 550 552 553
f 551 550 553
f 555 554 556
f 555 556 557
f 559 558 664
f 559 664 665
f 560 665 666
f 560 559 665
f 561 666 667
f 561 560 666
f 562 667 668
f 562 561 667
f 563 668 669
f 563 669 670
f 563 562 668
f 564 563 670
f 565 670 671
f 565 564 670
f 566 671 672
f 566 565 671
f 567 672 673
f 567 566 672
f 568 673 674
f 568 567 673
f 569 674 675
f 569 568 674
f 570 675 676
f 570 569 675
f 571 676 677
f 571 570 676
f 572 677 678
f 572 571 677
f 573 678 679
f 573 572 678
f 574 679 680
f 574 573 679
f 575 680 681
f 575 681 682
f 575 574 680
f 576 575 682
f 577 682 683
f 577 576 682
f 578 683 684
f 578 577 683
f 579 684 685
f 579 685 686
f 579 578 684
f 580 579 686
f 580 686 687
f 581 580 687
f 582 581 687
f 582 687 688
f 583 582 688
f 583 688 689
f 584 583 689
f 584 689 690
f 585 584 690
f 585 690 691
f 585 691 692
f 586 585 692
f 586 692 693
f 587 586 693
f 588 587 693
f 588 693 694
f 588 694 695
f 589 695 696
f 589 588 695
f 590 589 696
f 591 696 697
f 591 590 696
f 592 697 698
f 592 698 699
f 592 591 697
f 593 592 699
f 594 699 700
f 594 593 699
f 595 700 701
f 595 594 700
f 596 701 702
f 596 595 701
f 597 702 703
f 597 596 702
f 598 703 704
f 598 597 703
f 599 704 705
f 599 598 704
f 600 705 706
f 600 599 705
f 601 706 707
f 601 600 706
f 602 707 708
f 602 601 707
f 603 708 709
f 603 602 708
f 604 709 710
f 604 603 709
f 605 710 711
f 605 604 710
f 606 605 711
f 606 711 712
f 606 712 713
f 607 606 713
f 608 607 713
f 608 713 714
f 609 608 714
f 609 714 715
f 610 609 715
f 610 715 716
f 611 610 716
f 611 716 717
f 612 611 717
f 612 717 718
f 613 612 718
f 613 718 719
f 614 613 719
f 614 719 720
f 614 720 721
f 615 614 721
f 616 615 721
f 616 721 722
f 617 616 722
f 617 722 723
f 618 617 723
f 618 723 724
f 619 618 724
f 619 724 725
f 620 619 725
f 620 725 726
f 621 620 726
f 621 726 727
f 622 621 727
f 622 727 728
f 623 728 729
f 623 622 728
f 624 729 730
f 624 730 731
f 624 623 729
f 625 624 731
f 626 731 732
f 626 625 731
f 627 732 733
f 627 733 734
f 627 626 732
f 628 627 734
f 629 734 735
f 629 628 734
f 630 629 735
f 630 735 736
f 631 630 736
f 631 736 737
f 632 631 737
f 632 737 738
f 633 632 738
f 633 738 739
f 634 633 739
f 634 739 740
f 635 634 740
f 635 740 741
f 636 635 741
f 636 741 742
f 637 636 742
f 637 742 743
f 638 637 743
f 638 743 744
f 639 638 744
f 639 744 745
f 640 639 745
f 640 745 746
f 641 640 746
f 641 746 747
f 642 641 747
f 642 747 748
f 643 642 748
f 643 748 749
f 644 643 749
f 644 749 750
f 645 644 750
f 645 750 751
f 646 645 751
f 646 751 752
f 647 646 752
f 647 752 753
f 648 647 753
f 648 753 754
f 649 648 754
f 649 754 755
f 650 649 755
f 650 755 756
f 651 650 756
f 651 756 757
f 652 651 757
f 652 757 758
f 653 652 758
f 653 758 759
f 654 759 760
f 654 653 759
f 655 760 761
f 655 654 760
f 656 655 761
f 656 761 762
f 657 762 763
f 657 656 762
f 658 763 764
f 658 657 763
f 659 764 765
f 659 658 764
f 660 765 766
f 660 659 765
f 661 766 767
f 661 767 768
f 661 660 766
f 662 661 768
f 663 768 769
f 663 662 768
f 775 773 774
f 770 773 775
f 771 772 773
f 771 773 770
f 847 846 845
f 833 835 834
f 833 836 835
f 851 850 849
f 831 833 832
f 830 836 833
f 830 833 831
f 830 837 836
f 830 838 837
f 830 839 838
f 830 840 839
f 830 841 840
f 854 852 851
f 854 853 852
f 828 830 829
f 858 857 856
f 825 827 826
f 822 824 823
f 862 861 860
f 863 859 858
f 863 860 859
f 863 862 860
f 820 822 821
f 820 825 824
f 820 824 822
f 818 820 819
f 867 866 865
f 868 867 865
f 868 864 863
f 868 865 864
f 815 817 816
f 815 818 817
f 871 870 869
f 811 813 812
f 811 814 813
f 873 871 869
f 873 869 868
f 873 872 871
f 874 873 868
f 808 814 811
f 808 810 809
f 808 811 810
f 876 875 874
f 807 818 815
f 807 815 814
f 807 814 808
f 807 820 818
f 877 876 874
f 879 878 877
f 879 877 874
f 804 806 805
f 804 807 806
f 880 879 874
f 777 776 880
f 800 825 820
f 800 802 801
f 800 803 802
f 800 804 803
f 800 820 807
f 800 828 827
f 800 807 804
f 800 827 825
f 797 799 798
f 782 778 777
f 782 779 778
f 782 780 779
f 782 781 780
f 782 868 863
f 782 874 868
f 782 880 874
f 782 777 880
f 782 858 856
f 782 855 854
f 782 856 855
f 782 863 858
f 796 800 799
f 796 799 797
f 785 784 783
f 786 783 782
f 786 785 783
f 787 786 782
f 791 793 792
f 791 794 793
f 789 794 791
f 789 788 787
f 789 791 790
f 789 795 794
f 789 796 795
f 789 830 828
f 789 847 845
f 789 851 849
f 789 854 851
f 789 800 796
f 789 841 830
f 789 828 800
f 789 842 841
f 789 843 842
f 789 844 843
f 789 845 844
f 789 848 847
f 789 849 848
f 789 787 782
f 789 782 854
