# https://github.com/mikedh/trimesh
v 0.03000000 0.06325815 0.10929372
v 0.02999374 0.06344785 0.10938218
v 0.02997496 0.06363688 0.10947032
v 0.02994375 0.06382455 0.10955783
v 0.02990022 0.06401019 0.10964440
v 0.02984450 0.06419314 0.10972971
v 0.02977682 0.06437274 0.10981346
v 0.02969741 0.06454835 0.10989535
v 0.02960655 0.06471934 0.10997508
v 0.02950457 0.06488511 0.11005238
v 0.02939184 0.06504504 0.11012696
v 0.02926875 0.06519859 0.11019856
v 0.02913575 0.06534518 0.11026692
v 0.02899332 0.06548431 0.11033179
v 0.02884196 0.06561546 0.11039295
v 0.02868221 0.06573818 0.11045017
v 0.02851466 0.06585202 0.11050326
v 0.02833989 0.06595657 0.11055201
v 0.02815854 0.06605147 0.11059626
v 0.02797125 0.06613636 0.11063585
v 0.02777869 0.06621095 0.11067063
v 0.02758156 0.06627497 0.11070049
v 0.02738055 0.06632820 0.11072530
v 0.02717640 0.06637043 0.11074500
v 0.02696982 0.06640152 0.11075949
v 0.02676156 0.06642136 0.11076875
v 0.02655236 0.06642987 0.11077272
v 0.02634297 0.06642703 0.11077139
v 0.02613415 0.06641285 0.11076478
v 0.02592664 0.06638737 0.11075290
v 0.02572118 0.06635070 0.11073580
v 0.02551850 0.06630295 0.11071353
v 0.02531935 0.06624430 0.11068618
v 0.02512441 0.06617496 0.11065385
v 0.02493440 0.06609518 0.11061665
v 0.02475000 0.06600525 0.11057471
v 0.02457186 0.06590548 0.11052819
v 0.02440062 0.06579624 0.11047725
v 0.02423690 0.06567790 0.11042207
v 0.02408128 0.06555091 0.11036285
v 0.02393432 0.06541571 0.11029980
v 0.02379654 0.06527279 0.11023316
v 0.02366844 0.06512265 0.11016315
v 0.02355048 0.06496584 0.11009003
v 0.02344307 0.06480292 0.11001405
v 0.02334661 0.06463446 0.10993550
v 0.02326143 0.06446108 0.10985465
v 0.02318785 0.06428340 0.10977180
v 0.02312613 0.06410204 0.10968723
v 0.02307648 0.06391766 0.10960125
v 0.02303909 0.06373092 0.10951418
v 0.02301409 0.06354249 0.10942631
v 0.02300157 0.06335304 0.10933797
v 0.02300157 0.06316326 0.10924947
v 0.02301409 0.06297381 0.10916113
v 0.02303909 0.06278538 0.10907326
v 0.02307648 0.06259864 0.10898618
v 0.02312613 0.06241426 0.10890021
v 0.02318785 0.06223290 0.10881564
v 0.02326143 0.06205522 0.10873278
v 0.02334661 0.06188184 0.10865193
v 0.02344307 0.06171338 0.10857338
v 0.02355048 0.06155046 0.10849741
v 0.02366844 0.06139365 0.10842429
v 0.02379654 0.06124351 0.10835428
v 0.02393432 0.06110059 0.10828763
v 0.02408128 0.06096539 0.10822459
v 0.02423690 0.06083840 0.10816537
v 0.02440062 0.06072006 0.10811019
v 0.02457186 0.06061082 0.10805925
v 0.02475000 0.06051105 0.10801272
v 0.02493440 0.06042112 0.10797079
v 0.02512441 0.06034134 0.10793358
v 0.02531935 0.06027200 0.10790125
v 0.02551850 0.06021335 0.10787390
v 0.02572118 0.06016560 0.10785164
v 0.02592664 0.06012893 0.10783454
v 0.02613415 0.06010345 0.10782266
v 0.02634297 0.06008927 0.10781604
v 0.02655236 0.06008643 0.10781472
v 0.02676156 0.06009494 0.10781869
v 0.02696982 0.06011478 0.10782794
v 0.02717640 0.06014587 0.10784244
v 0.02738055 0.06018810 0.10786213
v 0.02758156 0.06024133 0.10788695
v 0.02777869 0.06030535 0.10791680
v 0.02797125 0.06037994 0.10795158
v 0.02815854 0.06046483 0.10799117
v 0.02833989 0.06055973 0.10803542
v 0.02851466 0.06066428 0.10808418
v 0.02868221 0.06077812 0.10813726
v 0.02884196 0.06090084 0.10819448
v 0.02899332 0.06103199 0.10825564
v 0.02913575 0.06117112 0.10832052
v 0.02926875 0.06131771 0.10838888
v 0.02939184 0.06147126 0.10846047
v 0.02950457 0.06163119 0.10853506
v 0.02960655 0.06179696 0.10861235
v 0.02969741 0.06196795 0.10869209
v 0.02977682 0.06214356 0.10877398
v 0.02984450 0.06232316 0.10885773
v 0.02990022 0.06250611 0.10894304
v 0.02994375 0.06269175 0.10902960
v 0.02997496 0.06287942 0.10911711
v 0.02999374 0.06306845 0.10920526
v 0.03000000 0.06346946 0.10884056
v 0.02999374 0.06365916 0.10892902
v 0.02997496 0.06384819 0.10901717
v 0.02994375 0.06403586 0.10910468
v 0.02990022 0.06422150 0.10919124
v 0.02984450 0.06440445 0.10927655
v 0.02977682 0.06458405 0.10936030
v 0.02969741 0.06475966 0.10944219
v 0.02960655 0.06493065 0.10952193
v 0.02950457 0.06509642 0.10959923
v 0.02939184 0.06525635 0.10967381
v 0.02926875 0.06540990 0.10974540
v 0.02913575 0.06555649 0.10981376
v 0.02899332 0.06569562 0.10987864
v 0.02884196 0.06582677 0.10993980
v 0.02868221 0.06594949 0.10999702
v 0.02851466 0.06606333 0.11005010
v 0.02833989 0.06616788 0.11009886
v 0.02815854 0.06626278 0.11014311
v 0.02797125 0.06634767 0.11018270
v 0.02777869 0.06642226 0.11021748
v 0.02758156 0.06648628 0.11024733
v 0.02738055 0.06653951 0.11027215
v 0.02717640 0.06658174 0.11029184
v 0.02696982 0.06661283 0.11030634
v 0.02676156 0.06663267 0.11031559
v 0.02655236 0.06664118 0.11031956
v 0.02634297 0.06663834 0.11031824
v 0.02613415 0.06662416 0.11031162
v 0.02592664 0.06659868 0.11029974
v 0.02572118 0.06656201 0.11028264
v 0.02551850 0.06651426 0.11026038
v 0.02531935 0.06645561 0.11023303
v 0.02512441 0.06638627 0.11020070
v 0.02493440 0.06630649 0.11016349
v 0.02475000 0.06621656 0.11012156
v 0.02457186 0.06611679 0.11007503
v 0.02440062 0.06600754 0.11002409
v 0.02423690 0.06588921 0.10996891
v 0.02408128 0.06576222 0.10990970
v 0.02393432 0.06562702 0.10984665
v 0.02379654 0.06548410 0.10978000
v 0.02366844 0.06533396 0.10970999
v 0.02355048 0.06517715 0.10963687
v 0.02344307 0.06501423 0.10956090
v 0.02334661 0.06484577 0.10948235
v 0.02326143 0.06467239 0.10940150
v 0.02318785 0.06449470 0.10931864
v 0.02312613 0.06431335 0.10923408
v 0.02307648 0.06412897 0.10914810
v 0.02303909 0.06394223 0.10906102
v 0.02301409 0.06375380 0.10897315
v 0.02300157 0.06356435 0.10888481
v 0.02300157 0.06337456 0.10879631
v 0.02301409 0.06318512 0.10870797
v 0.02303909 0.06299669 0.10862011
v 0.02307648 0.06280995 0.10853303
v 0.02312613 0.06262557 0.10844705
v 0.02318785 0.06244421 0.10836248
v 0.02326143 0.06226653 0.10827963
v 0.02334661 0.06209315 0.10819878
v 0.02344307 0.06192469 0.10812023
v 0.02355048 0.06176177 0.10804425
v 0.02366844 0.06160496 0.10797113
v 0.02379654 0.06145482 0.10790112
v 0.02393432 0.06131190 0.10783448
v 0.02408128 0.06117670 0.10777143
v 0.02423690 0.06104970 0.10771221
v 0.02440062 0.06093137 0.10765703
v 0.02457186 0.06082213 0.10760609
v 0.02475000 0.06072236 0.10755957
v 0.02493440 0.06063242 0.10751763
v 0.02512441 0.06055265 0.10748043
v 0.02531935 0.06048331 0.10744810
v 0.02551850 0.06042466 0.10742075
v 0.02572118 0.06037691 0.10739849
v 0.02592664 0.06034023 0.10738138
v 0.02613415 0.06031476 0.10736950
v 0.02634297 0.06030058 0.10736289
v 0.02655236 0.06029774 0.10736156
v 0.02676156 0.06030625 0.10736554
v 0.02696982 0.06032609 0.10737479
v 0.02717640 0.06035718 0.10738928
v 0.02738055 0.06039941 0.10740898
v 0.02758156 0.06045263 0.10743379
v 0.02777869 0.06051666 0.10746365
v 0.02797125 0.06059125 0.10749843
v 0.02815854 0.06067614 0.10753802
v 0.02833989 0.06077104 0.10758227
v 0.02851466 0.06087559 0.10763102
v 0.02868221 0.06098943 0.10768411
v 0.02884196 0.06111215 0.10774133
v 0.02899332 0.06124330 0.10780249
v 0.02913575 0.06138243 0.10786736
v 0.02926875 0.06152902 0.10793572
v 0.02939184 0.06168256 0.10800732
v 0.02950457 0.06184250 0.10808190
v 0.02960655 0.06200827 0.10815920
v 0.02969741 0.06217926 0.10823893
v 0.02977682 0.06235487 0.10832082
v 0.02984450 0.06253447 0.10840457
v 0.02990022 0.06271742 0.10848988
v 0.02994375 0.06290306 0.10857645
v 0.02997496 0.06309073 0.10866396
v 0.02999374 0.06327976 0.10875210
v 0.02480076 0.06321206 0.10927222
v 0.02712108 0.06203524 0.10817178
f 92 90 91
f 198 199 94
f 37 32 33
f 53 51 52
f 47 153 48
f 132 27 131
f 132 131 130
f 124 126 125
f 186 80 185
f 103 104 102
f 92 198 93
f 198 94 93
f 95 93 94
f 95 90 92
f 92 93 95
f 39 144 40
f 38 42 51
f 40 42 38
f 38 39 40
f 38 143 144
f 144 39 38
f 14 11 13
f 212 191 171
f 49 42 47
f 51 42 49
f 47 48 49
f 50 51 49
f 49 48 153
f 41 42 40
f 50 49 155
f 155 51 50
f 155 156 51
f 150 149 151
f 46 151 47
f 64 68 61
f 74 75 76
f 74 72 73
f 79 76 78
f 76 77 78
f 158 162 159
f 161 160 159
f 159 162 161
f 9 11 8
f 107 202 191
f 107 191 212
f 118 107 126
f 126 124 118
f 126 130 129
f 132 130 133
f 133 130 126
f 133 29 28
f 133 27 132
f 133 28 27
f 31 137 32
f 31 136 137
f 25 130 131
f 25 129 130
f 24 129 25
f 125 126 21
f 21 20 125
f 23 22 128
f 24 25 23
f 23 25 22
f 53 22 30
f 37 38 30
f 32 37 30
f 30 51 53
f 30 38 51
f 22 25 30
f 30 25 27
f 27 28 30
f 28 29 30
f 30 31 32
f 121 120 119
f 119 118 121
f 121 118 124
f 124 123 121
f 121 123 122
f 122 17 16
f 16 121 122
f 191 202 195
f 90 89 195
f 195 91 90
f 195 196 91
f 90 95 98
f 98 68 72
f 201 202 96
f 189 84 83
f 85 84 189
f 86 84 85
f 85 191 86
f 191 87 86
f 90 84 86
f 83 84 82
f 81 84 90
f 90 98 81
f 81 98 72
f 81 76 79
f 79 80 81
f 81 74 76
f 72 74 81
f 81 82 84
f 80 186 81
f 186 82 81
f 101 102 100
f 100 98 99
f 102 98 100
f 163 162 164
f 164 162 165
f 165 59 164
f 59 61 57
f 57 68 53
f 57 61 68
f 76 75 181
f 181 182 77
f 181 77 76
f 173 171 176
f 172 171 173
f 165 171 168
f 35 37 33
f 152 149 165
f 152 151 149
f 152 153 47
f 47 151 152
f 143 142 138
f 137 136 138
f 126 107 138
f 138 107 212
f 138 142 140
f 138 133 126
f 136 133 138
f 212 171 138
f 138 171 165
f 165 149 138
f 144 143 145
f 40 144 145
f 44 149 150
f 148 149 44
f 47 42 44
f 66 68 64
f 60 59 165
f 165 61 60
f 60 61 59
f 6 4 5
f 6 8 11
f 3 4 6
f 6 102 104
f 6 98 102
f 11 22 6
f 22 98 6
f 2 105 1
f 1 106 2
f 106 107 2
f 3 6 2
f 2 104 105
f 2 6 104
f 12 13 11
f 107 118 111
f 112 6 111
f 10 11 9
f 10 115 11
f 9 8 114
f 114 10 9
f 115 10 114
f 117 12 11
f 117 118 13
f 13 12 117
f 127 129 128
f 126 129 127
f 128 22 127
f 141 142 37
f 140 142 141
f 141 35 140
f 26 131 27
f 27 25 26
f 26 25 131
f 136 31 135
f 31 30 135
f 135 30 29
f 125 20 19
f 19 124 125
f 20 21 19
f 19 21 22
f 15 11 14
f 15 22 11
f 200 195 202
f 200 199 198
f 202 201 200
f 200 94 199
f 200 95 94
f 96 95 200
f 200 201 96
f 196 195 197
f 197 198 92
f 197 200 198
f 195 200 197
f 191 195 192
f 192 87 191
f 194 195 89
f 193 192 194
f 194 192 195
f 207 102 101
f 101 206 207
f 103 102 207
f 203 98 202
f 96 202 97
f 202 98 97
f 97 95 96
f 97 98 95
f 211 22 53
f 211 98 22
f 53 68 211
f 68 98 211
f 188 189 83
f 186 189 188
f 190 191 85
f 85 189 190
f 190 189 191
f 88 89 90
f 90 86 88
f 88 86 87
f 53 54 55
f 55 57 53
f 59 57 58
f 163 164 58
f 58 164 59
f 58 162 163
f 58 57 162
f 176 171 179
f 171 181 179
f 179 74 73
f 75 74 179
f 184 171 191
f 184 181 171
f 191 189 184
f 184 189 186
f 184 186 185
f 183 182 184
f 182 181 184
f 185 80 184
f 184 80 79
f 184 78 183
f 79 78 184
f 169 168 171
f 165 168 167
f 34 35 33
f 157 162 158
f 165 162 157
f 157 52 51
f 51 156 157
f 147 149 148
f 148 42 147
f 146 138 149
f 149 147 146
f 143 138 146
f 146 145 143
f 45 44 150
f 45 46 47
f 47 44 45
f 43 42 148
f 148 44 43
f 43 44 42
f 68 66 67
f 172 173 67
f 67 173 68
f 67 66 171
f 67 171 172
f 72 68 71
f 176 72 71
f 71 70 176
f 176 70 175
f 174 173 175
f 175 173 176
f 69 173 174
f 68 173 69
f 69 71 68
f 70 71 69
f 3 2 108
f 108 2 107
f 7 6 112
f 8 6 7
f 112 111 113
f 111 114 113
f 113 114 8
f 118 117 116
f 115 114 116
f 11 115 116
f 116 117 11
f 116 111 118
f 116 114 111
f 37 35 36
f 36 141 37
f 35 141 36
f 29 133 134
f 134 135 29
f 134 133 136
f 136 135 134
f 18 17 122
f 122 123 18
f 18 16 17
f 18 19 22
f 18 15 16
f 22 15 18
f 202 107 210
f 210 107 106
f 105 104 210
f 210 106 1
f 1 105 210
f 205 207 206
f 205 206 101
f 101 100 205
f 187 82 186
f 186 188 187
f 83 82 187
f 187 188 83
f 57 55 56
f 161 162 56
f 162 57 56
f 176 179 177
f 73 72 177
f 177 72 176
f 180 181 75
f 75 179 180
f 180 179 181
f 171 66 65
f 65 66 64
f 64 169 65
f 166 61 165
f 165 167 166
f 62 63 64
f 64 61 62
f 33 138 139
f 139 34 33
f 139 138 140
f 154 152 165
f 165 157 154
f 154 157 156
f 156 155 154
f 153 152 154
f 154 49 153
f 154 155 49
f 109 108 107
f 202 210 204
f 210 205 204
f 204 203 202
f 207 205 208
f 208 205 210
f 103 207 208
f 178 179 73
f 73 177 178
f 178 177 179
f 170 169 171
f 171 65 170
f 170 65 169
f 110 6 5
f 110 111 6
f 107 111 110
f 110 109 107
f 209 210 104
f 209 208 210
f 159 54 53
f 53 158 159
f 14 13 118
f 119 14 118
f 143 38 142
f 142 38 37
f 23 129 24
f 128 129 23
f 182 78 77
f 183 78 182
f 32 137 138
f 33 32 138
f 22 21 127
f 127 21 126
f 15 14 119
f 119 120 15
f 120 121 15
f 121 16 15
f 91 196 197
f 92 91 197
f 87 192 88
f 88 192 193
f 193 194 88
f 88 194 89
f 54 159 55
f 55 159 160
f 63 169 64
f 168 169 63
f 157 158 53
f 53 52 157
f 40 145 146
f 146 41 40
f 42 41 146
f 146 147 42
f 151 46 45
f 150 151 45
f 69 175 70
f 174 175 69
f 8 7 113
f 113 7 112
f 124 19 18
f 18 123 124
f 56 55 160
f 56 160 161
f 62 166 167
f 61 166 62
f 168 63 62
f 62 167 168
f 35 34 139
f 140 35 139
f 3 108 109
f 109 4 3
f 98 203 204
f 99 98 204
f 204 100 99
f 204 205 100
f 4 109 110
f 5 4 110
f 103 208 209
f 209 104 103

