# https://github.com/mikedh/trimesh
v -0.03334031 0.01516485 0.03777763
v -0.03334031 0.01581903 0.03780109
v -0.03287030 0.01565680 0.03775800
v -0.03016700 0.01747851 0.03761042
v -0.03334031 0.01516485 0.04190796
v -0.03212970 0.01776926 0.03777635
v -0.03053264 0.01861656 0.03768080
v -0.03334031 0.01681767 0.03783777
v -0.03331577 0.01684084 0.03783649
v -0.03292373 0.01717899 0.03781772
v -0.03016700 0.01798135 0.03762876
v -0.03016700 0.01747851 0.04174075
v -0.03030742 0.01742268 0.04175013
v -0.03334031 0.01681767 0.04196810
v -0.03173051 0.01802173 0.03775417
v -0.03133040 0.01824681 0.03773071
v -0.03252796 0.01748835 0.03779767
v -0.03212970 0.01776926 0.04190668
v -0.03016700 0.01875210 0.03765691
v -0.03093090 0.01844485 0.03770639
v -0.03053264 0.01861656 0.04181113
v -0.03331577 0.01684084 0.04196682
v -0.03292373 0.01717899 0.04194805
v -0.03016700 0.01875210 0.04178724
v -0.03133040 0.01824681 0.04186103
v -0.03173051 0.01802173 0.04188449
v -0.03252796 0.01748835 0.04192800
v -0.03093090 0.01844485 0.04183629
f 1 2 3
f 1 3 4
f 1 4 12
f 1 12 5
f 1 5 14
f 1 14 8
f 1 8 2
f 2 6 7
f 2 7 4
f 2 4 3
f 2 8 9
f 2 9 10
f 2 10 6
f 4 7 11
f 4 11 19
f 4 19 24
f 4 24 12
f 5 12 13
f 5 13 14
f 6 15 16
f 6 16 7
f 6 10 17
f 6 17 27
f 6 27 18
f 6 18 26
f 6 26 15
f 7 19 11
f 7 16 20
f 7 20 28
f 7 28 21
f 7 21 24
f 7 24 19
f 8 14 22
f 8 22 9
f 9 22 23
f 9 23 10
f 10 23 27
f 10 27 17
f 12 24 13
f 13 24 25
f 13 25 14
f 14 25 26
f 14 26 27
f 14 27 23
f 14 23 22
f 15 26 25
f 15 25 16
f 16 25 28
f 16 28 20
f 18 27 26
f 21 28 25
f 21 25 24

