# https://github.com/mikedh/trimesh
v -0.01667254 -0.00001097 0.04003821
v -0.01545808 -0.00093685 0.03990835
v -0.01649716 -0.00001097 0.04002431
v -0.01667254 -0.00001097 0.03590766
v -0.01738863 -0.00734334 0.03982801
v -0.01715957 -0.00628971 0.03984842
v -0.01700139 -0.00734334 0.03979761
v -0.01586365 -0.00579734 0.03976374
v -0.01547509 -0.00001097 0.03994310
v -0.01556845 -0.00345609 0.03982540
v -0.01548813 -0.00221585 0.03986406
v -0.01545808 -0.00093685 0.03577781
v -0.01649716 -0.00001097 0.03589377
v -0.01665855 -0.00114714 0.03586510
v -0.01715957 -0.00628971 0.03571788
v -0.01738863 -0.00734334 0.03569790
v -0.01617417 -0.00734334 0.03973203
v -0.01606965 -0.00689045 0.03974028
v -0.01586365 -0.00579734 0.03563319
v -0.01569507 -0.00465112 0.03979196
v -0.01547509 -0.00001097 0.03581299
v -0.01556845 -0.00345609 0.03569530
v -0.01548813 -0.00221585 0.03573395
v -0.01617417 -0.00734334 0.03560149
v -0.01669805 -0.00243978 0.03582124
v -0.01700139 -0.00734334 0.03566707
v -0.01606965 -0.00689045 0.03560974
v -0.01569507 -0.00465112 0.03566186
f 1 2 3
f 1 3 9
f 1 9 21
f 1 21 13
f 1 13 4
f 1 4 16
f 1 16 5
f 1 5 6
f 1 6 7
f 1 7 8
f 1 8 2
f 2 9 3
f 2 8 10
f 2 10 11
f 2 11 23
f 2 23 12
f 2 12 21
f 2 21 9
f 4 13 14
f 4 14 15
f 4 15 16
f 5 16 26
f 5 26 24
f 5 24 17
f 5 17 7
f 5 7 6
f 7 17 18
f 7 18 8
f 8 18 27
f 8 27 19
f 8 19 28
f 8 28 20
f 8 20 10
f 10 22 23
f 10 23 11
f 10 20 28
f 10 28 22
f 12 14 13
f 12 13 21
f 12 23 19
f 12 19 24
f 12 24 14
f 14 24 25
f 14 25 15
f 15 24 26
f 15 26 16
f 15 25 24
f 17 24 27
f 17 27 18
f 19 27 24
f 19 23 22
f 19 22 28

