# https://github.com/mikedh/trimesh
v -0.02107722 0.01585772 0.04096342
v -0.02020524 0.01484482 0.04085764
v -0.02076610 0.01552370 0.04092660
v -0.02107722 0.01585772 0.03683290
v -0.02107722 0.01441006 0.04091076
v -0.02091679 0.01386061 0.04087814
v -0.02020524 0.01484482 0.03672712
v -0.01895230 0.01046932 0.04059948
v -0.01837281 0.01196192 0.04060787
v -0.01896796 0.01303138 0.04069361
v -0.01960374 0.01402335 0.04077982
v -0.02076610 0.01552370 0.03679609
v -0.02107722 0.01543845 0.03681753
v -0.02107722 0.01406752 0.04089818
v -0.01799058 0.00794057 0.04043126
v -0.01960374 0.01402335 0.03664977
v -0.01837281 0.01196192 0.03647735
v -0.01688029 0.00836758 0.04035903
v -0.01732432 0.00962072 0.04043965
v -0.01782338 0.01082270 0.04052259
v -0.01896796 0.01303138 0.03656356
v -0.01732432 0.00962072 0.03630913
v -0.02107722 0.01406752 0.03676766
v -0.01799058 0.00794057 0.03630121
v -0.01675331 0.00794057 0.04033340
v -0.01782338 0.01082270 0.03639254
v -0.01688029 0.00836758 0.03622852
v -0.01675331 0.00794057 0.03620289
v -0.01830467 0.00887209 0.03635946
v -0.01765068 0.00794057 0.03627418
f 1 2 3
f 1 3 12
f 1 12 4
f 1 4 13
f 1 13 23
f 1 23 14
f 1 14 5
f 1 5 6
f 1 6 2
f 2 7 12
f 2 12 3
f 2 6 8
f 2 8 9
f 2 9 10
f 2 10 11
f 2 11 16
f 2 16 7
f 4 12 13
f 5 14 6
f 6 14 15
f 6 15 8
f 7 16 17
f 7 17 12
f 8 15 18
f 8 18 9
f 9 18 19
f 9 19 20
f 9 20 26
f 9 26 17
f 9 17 21
f 9 21 10
f 10 21 16
f 10 16 11
f 12 17 22
f 12 22 13
f 13 22 23
f 14 23 24
f 14 24 15
f 15 24 30
f 15 30 28
f 15 28 25
f 15 25 18
f 16 21 17
f 17 26 22
f 18 25 28
f 18 28 27
f 18 27 22
f 18 22 19
f 19 22 26
f 19 26 20
f 22 27 28
f 22 28 29
f 22 29 23
f 23 29 24
f 24 29 30
f 28 30 29

