# https://github.com/mikedh/trimesh
v -0.02300350 -0.01677950 0.03992895
v -0.02671307 -0.01794916 0.04018012
v -0.02419597 -0.01742397 0.04000009
v -0.02322173 -0.01827546 0.03989208
v -0.02300350 -0.01815617 0.03987906
v -0.02300350 -0.01677950 0.03579881
v -0.02671307 -0.01862729 0.04015539
v -0.02622831 -0.01913460 0.04009856
v -0.02650391 -0.01794754 0.04016363
v -0.02671307 -0.01794916 0.03604954
v -0.02507506 -0.01896287 0.04001354
v -0.02358303 -0.01845137 0.03991420
v -0.02322173 -0.01827546 0.03576150
v -0.02300350 -0.01815617 0.03574849
v -0.02419597 -0.01742397 0.03586952
v -0.02671307 -0.01914899 0.04013630
v -0.02584196 -0.01909794 0.04006907
v -0.02545706 -0.01904061 0.04004087
v -0.02661611 -0.01915038 0.04012850
v -0.02622831 -0.01913460 0.03596799
v -0.02550826 -0.01783173 0.03595844
v -0.02671307 -0.01862729 0.03602481
v -0.02469634 -0.01886470 0.03998708
v -0.02507506 -0.01896287 0.03588340
v -0.02432051 -0.01874657 0.03996149
v -0.02394941 -0.01860872 0.03993719
v -0.02358303 -0.01845137 0.03578362
v -0.02671307 -0.01914899 0.03600616
v -0.02584196 -0.01909794 0.03593892
v -0.02545706 -0.01904061 0.03591073
v -0.02661611 -0.01915038 0.03599835
v -0.02432051 -0.01874657 0.03583134
v -0.02469634 -0.01886470 0.03585694
v -0.02394941 -0.01860872 0.03580705
f 1 2 3
f 1 3 4
f 1 4 5
f 1 5 14
f 1 14 6
f 1 6 10
f 1 10 2
f 2 7 8
f 2 8 4
f 2 4 9
f 2 9 3
f 2 10 22
f 2 22 28
f 2 28 16
f 2 16 7
f 3 9 4
f 4 8 11
f 4 11 12
f 4 12 27
f 4 27 13
f 4 13 14
f 4 14 5
f 6 14 15
f 6 15 10
f 7 16 8
f 8 17 18
f 8 18 11
f 8 16 19
f 8 19 31
f 8 31 20
f 8 20 29
f 8 29 17
f 10 15 21
f 10 21 22
f 11 23 12
f 11 18 30
f 11 30 24
f 11 24 33
f 11 33 23
f 12 23 25
f 12 25 26
f 12 26 34
f 12 34 27
f 13 27 14
f 14 27 20
f 14 20 21
f 14 21 15
f 16 28 31
f 16 31 19
f 17 29 30
f 17 30 18
f 20 31 22
f 20 22 21
f 20 27 32
f 20 32 29
f 22 31 28
f 23 33 32
f 23 32 25
f 24 30 33
f 25 32 34
f 25 34 26
f 27 34 32
f 29 32 33
f 29 33 30

