# https://github.com/mikedh/trimesh
v -0.02543393 0.01878151 0.04141411
v -0.02585236 0.01890644 0.04145183
v -0.02543393 0.01860427 0.04140768
v -0.02543393 0.01878151 0.03728367
v -0.02632027 0.01901505 0.04149254
v -0.02678047 0.01909231 0.04153198
v -0.02781804 0.01915629 0.04161641
v -0.02726659 0.01794044 0.04152855
v -0.02585236 0.01890644 0.03732139
v -0.02543393 0.01752455 0.04136825
v -0.02543393 0.01752455 0.03723781
v -0.02632027 0.01901505 0.03736211
v -0.02723251 0.01913966 0.04156926
v -0.02678047 0.01909231 0.03740154
v -0.02781804 0.01864986 0.04159798
v -0.02766261 0.01915869 0.04160398
v -0.02781804 0.01915629 0.03748598
v -0.02764838 0.01795868 0.04155941
v -0.02781804 0.01795644 0.04157269
v -0.02781804 0.01795644 0.03744226
v -0.02576998 0.01764244 0.03726867
v -0.02766261 0.01915869 0.03747355
v -0.02723251 0.01913966 0.03743883
f 1 2 3
f 1 3 10
f 1 10 11
f 1 11 4
f 1 4 9
f 1 9 2
f 2 5 6
f 2 6 7
f 2 7 8
f 2 8 3
f 2 9 12
f 2 12 5
f 3 8 10
f 4 11 12
f 4 12 9
f 5 12 14
f 5 14 6
f 6 13 7
f 6 14 23
f 6 23 13
f 7 15 8
f 7 13 16
f 7 16 22
f 7 22 17
f 7 17 20
f 7 20 19
f 7 19 15
f 8 15 18
f 8 18 10
f 10 18 19
f 10 19 20
f 10 20 11
f 11 20 21
f 11 21 12
f 12 21 22
f 12 22 23
f 12 23 14
f 13 23 22
f 13 22 16
f 15 19 18
f 17 22 20
f 20 22 21

