# https://github.com/mikedh/trimesh
v -0.02300350 -0.01677936 0.03992928
v -0.02300350 -0.01677936 0.03579871
v -0.02300350 -0.01781549 0.03989154
v -0.02183951 -0.01739446 0.03981480
v -0.02255197 -0.01646208 0.03990511
v -0.01983784 -0.01343799 0.03980038
v -0.01983784 -0.01342456 0.03980081
v -0.02300350 -0.01781549 0.03576097
v -0.01983784 -0.01342456 0.03567024
v -0.01984249 -0.01343289 0.03567024
v -0.01983784 -0.01343428 0.03566981
v -0.02300350 -0.01815639 0.03987882
v -0.02286591 -0.01808090 0.03987077
v -0.02217451 -0.01763995 0.03983218
v -0.02183951 -0.01739446 0.03568423
v -0.02151163 -0.01713277 0.03979826
v -0.02088097 -0.01656584 0.03976901
v -0.01983784 -0.01518742 0.03973679
v -0.02172484 -0.01575898 0.03986526
v -0.02300350 -0.01815639 0.03574868
v -0.02088097 -0.01656584 0.03563844
v -0.01983784 -0.01541623 0.03559774
v -0.02251695 -0.01786922 0.03985084
v -0.02286591 -0.01808090 0.03574062
v -0.02217451 -0.01763995 0.03570204
v -0.02151163 -0.01713277 0.03566812
v -0.02251695 -0.01786922 0.03572069
v -0.02119243 -0.01685625 0.03565286
v -0.02119243 -0.01685625 0.03978300
v -0.02057789 -0.01626153 0.03975587
v -0.02018772 -0.01583587 0.03974060
v -0.01983784 -0.01541623 0.03972831
v -0.02057789 -0.01626153 0.03562572
v -0.02018772 -0.01583587 0.03561046
f 1 2 8
f 1 8 20
f 1 20 12
f 1 12 3
f 1 3 4
f 1 4 5
f 1 5 6
f 1 6 7
f 1 7 9
f 1 9 2
f 2 9 10
f 2 10 11
f 2 11 8
f 3 12 13
f 3 13 4
f 4 13 14
f 4 14 25
f 4 25 15
f 4 15 26
f 4 26 16
f 4 16 17
f 4 17 18
f 4 18 5
f 5 18 19
f 5 19 6
f 6 19 18
f 6 18 32
f 6 32 22
f 6 22 11
f 6 11 9
f 6 9 7
f 8 15 20
f 8 11 21
f 8 21 15
f 9 11 10
f 11 22 21
f 12 20 24
f 12 24 13
f 13 23 14
f 13 24 27
f 13 27 23
f 14 23 27
f 14 27 25
f 15 25 27
f 15 27 20
f 15 21 28
f 15 28 26
f 16 29 17
f 16 26 28
f 16 28 29
f 17 29 28
f 17 28 21
f 17 21 33
f 17 33 30
f 17 30 31
f 17 31 32
f 17 32 18
f 20 27 24
f 21 22 33
f 22 32 31
f 22 31 34
f 22 34 33
f 30 33 34
f 30 34 31

