# https://github.com/mikedh/trimesh
v -0.02310486 0.01616969 0.03700436
v -0.02543370 0.01752431 0.03723789
v -0.02441439 0.01837702 0.03718825
v -0.02392810 0.01812849 0.03714077
v -0.02310486 0.01734047 0.03704710
v -0.02310486 0.01616969 0.04113495
v -0.02543370 0.01860432 0.03727717
v -0.02543370 0.01752431 0.04136848
v -0.02543370 0.01878151 0.03728365
v -0.02489817 0.01858872 0.03723444
v -0.02441439 0.01837702 0.04131884
v -0.02344022 0.01784212 0.03709199
v -0.02310486 0.01761866 0.03705746
v -0.02392810 0.01812849 0.04127136
v -0.02310486 0.01761866 0.04118762
v -0.02543370 0.01878151 0.04141424
v -0.02537784 0.01876463 0.03727890
v -0.02489817 0.01858872 0.04136460
v -0.02344022 0.01784212 0.04122215
v -0.02537784 0.01876463 0.04140906
f 1 2 3
f 1 3 4
f 1 4 5
f 1 5 13
f 1 13 15
f 1 15 6
f 1 6 8
f 1 8 2
f 2 7 3
f 2 8 16
f 2 16 9
f 2 9 7
f 3 7 9
f 3 9 10
f 3 10 18
f 3 18 11
f 3 11 14
f 3 14 4
f 4 12 13
f 4 13 5
f 4 14 19
f 4 19 12
f 6 15 14
f 6 14 16
f 6 16 8
f 9 17 10
f 9 16 20
f 9 20 17
f 10 17 20
f 10 20 18
f 11 18 16
f 11 16 14
f 12 19 15
f 12 15 13
f 14 15 19
f 16 18 20

