# https://github.com/mikedh/trimesh
v -0.02781804 0.01915638 0.04161603
v -0.02808357 0.01915228 0.04163687
v -0.02896823 0.01905866 0.04170365
v -0.02781804 0.01864987 0.04159774
v -0.02781804 0.01915638 0.03748586
v -0.02854544 0.01911713 0.04167218
v -0.02808357 0.01915228 0.03750671
v -0.02935331 0.01898328 0.04173130
v -0.03016646 0.01875203 0.04178745
v -0.02781804 0.01795646 0.04157265
v -0.02896823 0.01905866 0.03757349
v -0.02781804 0.01795646 0.03744205
v -0.03013635 0.01876320 0.03765473
v -0.02854544 0.01911713 0.03754201
v -0.02974299 0.01888506 0.04175853
v -0.02935331 0.01898328 0.03760113
v -0.03016646 0.01747853 0.04174109
v -0.03013635 0.01876320 0.04178532
v -0.03016646 0.01875203 0.03765686
v -0.03016646 0.01747853 0.03761049
v -0.02993059 0.01757214 0.03759518
v -0.02974299 0.01888506 0.03762836
v -0.03016646 0.01798175 0.03762878
f 1 2 3
f 1 3 4
f 1 4 10
f 1 10 12
f 1 12 5
f 1 5 7
f 1 7 2
f 2 6 3
f 2 7 14
f 2 14 6
f 3 8 9
f 3 9 10
f 3 10 4
f 3 6 14
f 3 14 11
f 3 11 16
f 3 16 8
f 5 12 13
f 5 13 7
f 7 13 14
f 8 15 9
f 8 16 22
f 8 22 15
f 9 17 10
f 9 15 18
f 9 18 13
f 9 13 19
f 9 19 23
f 9 23 20
f 9 20 17
f 10 17 20
f 10 20 12
f 11 14 16
f 12 20 21
f 12 21 13
f 13 22 16
f 13 16 14
f 13 21 20
f 13 20 23
f 13 23 19
f 13 18 15
f 13 15 22

