# https://github.com/mikedh/trimesh
v -0.03779784 -0.00771283 0.04142887
v -0.03656299 -0.00771283 0.04133119
v -0.03779784 -0.00771283 0.03729846
v -0.03744966 -0.00880964 0.04136132
v -0.03591981 -0.01230962 0.04111301
v -0.03533938 -0.01330823 0.04103085
v -0.03431391 -0.01274945 0.04097014
v -0.03656299 -0.00771283 0.03720078
v -0.03658754 -0.00771283 0.03720261
v -0.03656162 -0.00771698 0.03720033
v -0.03744966 -0.00880964 0.03723091
v -0.03699745 -0.01001710 0.04128144
v -0.03649410 -0.01117132 0.04119974
v -0.03591981 -0.01230962 0.03698260
v -0.03533938 -0.01330823 0.03690044
v -0.03476578 -0.01417545 0.04095371
v -0.03431391 -0.01477711 0.04089620
v -0.03431391 -0.01274945 0.03683973
v -0.03538917 -0.01076537 0.03699675
v -0.03431391 -0.01477711 0.03676579
v -0.03649410 -0.01117132 0.03706933
v -0.03699745 -0.01001710 0.03715149
v -0.03476578 -0.01417545 0.03682376
v -0.03431391 -0.01336218 0.03681737
v -0.03431391 -0.01411321 0.03678998
f 1 2 8
f 1 8 9
f 1 9 3
f 1 3 11
f 1 11 4
f 1 4 5
f 1 5 6
f 1 6 7
f 1 7 2
f 2 7 18
f 2 18 8
f 3 9 10
f 3 10 11
f 4 11 22
f 4 22 12
f 4 12 13
f 4 13 5
f 5 14 15
f 5 15 6
f 5 13 21
f 5 21 14
f 6 15 23
f 6 23 16
f 6 16 17
f 6 17 7
f 7 17 20
f 7 20 25
f 7 25 24
f 7 24 18
f 8 10 9
f 8 18 10
f 10 18 19
f 10 19 20
f 10 20 21
f 10 21 11
f 11 21 22
f 12 22 21
f 12 21 13
f 14 20 15
f 14 21 20
f 15 20 23
f 16 23 20
f 16 20 17
f 18 24 19
f 19 24 25
f 19 25 20

