# https://github.com/mikedh/trimesh
v -0.03900586 -0.00001097 0.04180439
v -0.03800675 -0.00001097 0.04172507
v -0.03900586 -0.00001097 0.03767368
v -0.03899414 -0.00048815 0.04178591
v -0.03892575 -0.00160458 0.04173994
v -0.03877653 -0.00305420 0.04167550
v -0.03656308 -0.00771214 0.04133120
v -0.03776283 -0.00104900 0.04166829
v -0.03780898 -0.00001097 0.04170930
v -0.03892575 -0.00160458 0.03760969
v -0.03899414 -0.00048815 0.03765565
v -0.03780898 -0.00001097 0.03757904
v -0.03656308 -0.00771214 0.03720049
v -0.03786327 -0.00750483 0.03731090
v -0.03822867 -0.00610647 0.03739067
v -0.03853644 -0.00461991 0.03746908
v -0.03877653 -0.00305420 0.03754524
v -0.03853644 -0.00461991 0.04159934
v -0.03822867 -0.00610647 0.04152093
v -0.03779774 -0.00771214 0.04142854
v -0.03779774 -0.00771214 0.03729828
v -0.03786327 -0.00750483 0.04144116
f 1 2 9
f 1 9 12
f 1 12 3
f 1 3 11
f 1 11 4
f 1 4 5
f 1 5 6
f 1 6 7
f 1 7 8
f 1 8 2
f 2 8 9
f 3 10 11
f 3 12 13
f 3 13 14
f 3 14 15
f 3 15 16
f 3 16 10
f 4 11 10
f 4 10 5
f 5 10 17
f 5 17 6
f 6 17 16
f 6 16 18
f 6 18 19
f 6 19 20
f 6 20 7
f 7 20 21
f 7 21 13
f 7 13 12
f 7 12 9
f 7 9 8
f 10 16 17
f 13 21 14
f 14 22 19
f 14 19 15
f 14 21 20
f 14 20 22
f 15 19 18
f 15 18 16
f 19 22 20

