# https://github.com/mikedh/trimesh
v -0.01799057 0.00794057 0.04043150
v -0.01616888 0.00574720 0.04020771
v -0.01675271 0.00794057 0.04033340
v -0.01799057 0.00794057 0.03630104
v -0.01667269 -0.00001019 0.04003817
v -0.01667466 0.00014703 0.04004405
v -0.01590515 0.00440456 0.04013763
v -0.01616888 0.00574720 0.03607725
v -0.01649416 0.00707194 0.04028140
v -0.01570348 0.00305492 0.04007298
v -0.01675271 0.00794057 0.03620293
v -0.01765051 0.00794057 0.03627391
v -0.01649736 -0.00001019 0.03589369
v -0.01667269 -0.00001019 0.03590771
v -0.01547497 -0.00001019 0.03994323
v -0.01556312 0.00170761 0.04001285
v -0.01590515 0.00440456 0.03600762
v -0.01649416 0.00707194 0.03615094
v -0.01570348 0.00305492 0.03594252
v -0.01547497 -0.00001019 0.03581276
v -0.01548211 0.00037431 0.03995769
v -0.01556312 0.00170761 0.03588239
v -0.01548211 0.00037431 0.03582768
f 1 2 3
f 1 3 11
f 1 11 12
f 1 12 4
f 1 4 14
f 1 14 5
f 1 5 6
f 1 6 2
f 2 7 17
f 2 17 8
f 2 8 18
f 2 18 9
f 2 9 3
f 2 6 10
f 2 10 7
f 3 9 18
f 3 18 11
f 4 12 13
f 4 13 14
f 5 14 13
f 5 13 20
f 5 20 15
f 5 15 16
f 5 16 6
f 6 16 10
f 7 10 19
f 7 19 17
f 8 17 18
f 10 16 22
f 10 22 19
f 11 18 20
f 11 20 12
f 12 20 13
f 15 20 23
f 15 23 21
f 15 21 16
f 16 21 23
f 16 23 22
f 17 19 18
f 18 19 20
f 19 22 20
f 20 22 23

