# https://github.com/mikedh/trimesh
v -0.01738896 -0.00734413 0.03982829
v -0.01617436 -0.00734413 0.03973211
v -0.01738896 -0.00734413 0.03569777
v -0.01983753 -0.01342402 0.03980069
v -0.01983753 -0.01343745 0.03980028
v -0.01899122 -0.01425690 0.03970367
v -0.01687544 -0.00984673 0.03969656
v -0.01657707 -0.00890796 0.03970702
v -0.01630884 -0.00792810 0.03972124
v -0.01617436 -0.00734413 0.03560159
v -0.01743486 -0.00755433 0.03569359
v -0.01983753 -0.01342402 0.03567017
v -0.01983753 -0.01518698 0.03973671
v -0.01983753 -0.01541614 0.03972835
v -0.01976760 -0.01533238 0.03972584
v -0.01936883 -0.01480531 0.03971329
v -0.01899122 -0.01425690 0.03557315
v -0.01863548 -0.01369111 0.03969573
v -0.01830090 -0.01310951 0.03969071
v -0.01760484 -0.01170610 0.03968653
v -0.01721719 -0.01078155 0.03968945
v -0.01687544 -0.00984673 0.03556604
v -0.01657707 -0.00890796 0.03557650
v -0.01630884 -0.00792810 0.03559113
v -0.01760484 -0.01170610 0.03555600
v -0.01976760 -0.01533238 0.03559531
v -0.01983753 -0.01541614 0.03559782
v -0.01936883 -0.01480531 0.03558319
v -0.01863548 -0.01369111 0.03556562
v -0.01830090 -0.01310951 0.03556019
v -0.01798855 -0.01251448 0.03968736
v -0.01721719 -0.01078155 0.03555935
v -0.01798855 -0.01251448 0.03555726
f 1 2 10
f 1 10 3
f 1 3 12
f 1 12 4
f 1 4 5
f 1 5 6
f 1 6 2
f 2 6 7
f 2 7 8
f 2 8 9
f 2 9 24
f 2 24 10
f 3 10 11
f 3 11 12
f 4 12 27
f 4 27 14
f 4 14 13
f 4 13 5
f 5 13 6
f 6 13 14
f 6 14 15
f 6 15 16
f 6 16 28
f 6 28 17
f 6 17 29
f 6 29 18
f 6 18 19
f 6 19 7
f 7 20 21
f 7 21 32
f 7 32 22
f 7 22 23
f 7 23 8
f 7 19 20
f 8 23 24
f 8 24 9
f 10 24 23
f 10 23 11
f 11 23 25
f 11 25 12
f 12 26 27
f 12 25 26
f 14 27 26
f 14 26 15
f 15 26 28
f 15 28 16
f 17 28 26
f 17 26 30
f 17 30 29
f 18 29 30
f 18 30 19
f 19 30 33
f 19 33 31
f 19 31 20
f 20 31 33
f 20 33 25
f 20 25 32
f 20 32 21
f 22 32 25
f 22 25 23
f 25 33 30
f 25 30 26

