# https://github.com/mikedh/trimesh
v -0.03431391 -0.01274973 0.04097022
v -0.03431391 -0.01274973 0.03683976
v -0.03431391 -0.01411368 0.04092050
v -0.03354251 -0.01570757 0.04080161
v -0.03060360 -0.01764532 0.04049873
v -0.03060360 -0.01672139 0.04053218
v -0.03431137 -0.01275391 0.03683931
v -0.03431391 -0.01275495 0.03683931
v -0.03060360 -0.01672139 0.03640172
v -0.03431391 -0.01477736 0.04089609
v -0.03414322 -0.01500417 0.04087439
v -0.03354251 -0.01570757 0.03667114
v -0.03297049 -0.01630123 0.04073470
v -0.03128203 -0.01767824 0.04055116
v -0.03060360 -0.01808847 0.04048245
v -0.03431391 -0.01376355 0.03680269
v -0.03060360 -0.01808847 0.03635199
v -0.03431391 -0.01477736 0.03676608
v -0.03414322 -0.01500417 0.03674438
v -0.03297049 -0.01630123 0.03660424
v -0.03431391 -0.01411368 0.03679003
v -0.03236977 -0.01685203 0.04066689
v -0.03180611 -0.01730616 0.04060586
v -0.03128203 -0.01767824 0.03642070
v -0.03074270 -0.01801322 0.04049601
v -0.03074270 -0.01801322 0.03636600
v -0.03236977 -0.01685203 0.03653688
v -0.03180611 -0.01730616 0.03647585
f 1 2 8
f 1 8 16
f 1 16 21
f 1 21 18
f 1 18 10
f 1 10 3
f 1 3 4
f 1 4 5
f 1 5 6
f 1 6 9
f 1 9 2
f 2 7 8
f 2 9 7
f 3 10 4
f 4 10 11
f 4 11 19
f 4 19 12
f 4 12 20
f 4 20 13
f 4 13 14
f 4 14 5
f 5 14 15
f 5 15 17
f 5 17 9
f 5 9 6
f 7 9 8
f 8 9 17
f 8 17 16
f 10 18 19
f 10 19 11
f 12 19 18
f 12 18 21
f 12 21 20
f 13 20 27
f 13 27 22
f 13 22 23
f 13 23 14
f 14 23 28
f 14 28 24
f 14 24 26
f 14 26 25
f 14 25 15
f 15 25 26
f 15 26 17
f 16 17 20
f 16 20 21
f 17 26 24
f 17 24 20
f 20 24 27
f 22 27 28
f 22 28 23
f 24 28 27

