# https://github.com/mikedh/trimesh
v -0.02107741 0.01406789 0.03676761
v -0.02310486 0.01616943 0.03700472
v -0.02310486 0.01617151 0.03700472
v -0.02310486 0.01761854 0.03705707
v -0.02134278 0.01614266 0.03686410
v -0.02107741 0.01585764 0.03683295
v -0.02107741 0.01406789 0.04089833
v -0.02310486 0.01616943 0.04113500
v -0.02295223 0.01751704 0.03704150
v -0.02246616 0.01715276 0.03699001
v -0.02193027 0.01670159 0.03693116
v -0.02310486 0.01761854 0.04118779
v -0.02134278 0.01614266 0.04099438
v -0.02107741 0.01585764 0.04096323
v -0.02107741 0.01543879 0.04094809
v -0.02281171 0.01592507 0.04110299
v -0.02295223 0.01751704 0.04117178
v -0.02246616 0.01715276 0.04112029
v -0.02193027 0.01670159 0.04106145
f 1 2 3
f 1 3 4
f 1 4 5
f 1 5 6
f 1 6 14
f 1 14 15
f 1 15 7
f 1 7 8
f 1 8 2
f 2 8 12
f 2 12 4
f 2 4 3
f 4 9 10
f 4 10 11
f 4 11 5
f 4 12 17
f 4 17 9
f 5 11 19
f 5 19 13
f 5 13 14
f 5 14 6
f 7 15 12
f 7 12 16
f 7 16 8
f 8 16 12
f 9 17 18
f 9 18 10
f 10 18 19
f 10 19 11
f 12 15 18
f 12 18 17
f 13 19 14
f 14 19 15
f 15 19 18

