# https://github.com/mikedh/trimesh
v -0.03689250 0.01167912 0.04206223
v -0.03584438 0.01286216 0.04202225
v -0.03584438 0.01364959 0.04205086
v -0.03619233 0.01309575 0.04205802
v -0.03650227 0.01250498 0.04206096
v -0.03689250 0.01167912 0.03793178
v -0.03729745 0.01070330 0.04205844
v -0.03766386 0.00968227 0.04205044
v -0.03850990 0.00640669 0.04199826
v -0.03857842 0.00600280 0.04198900
v -0.03664144 0.00902068 0.04194566
v -0.03584438 0.01115014 0.04195996
v -0.03584438 0.01370083 0.04205255
v -0.03586901 0.01366089 0.04205297
v -0.03619233 0.01309575 0.03792800
v -0.03650227 0.01250498 0.03793094
v -0.03584438 0.01370083 0.03792210
v -0.03766386 0.00968227 0.03792000
v -0.03729745 0.01070330 0.03792842
v -0.03798932 0.00862131 0.04203740
v -0.03827196 0.00752719 0.04202014
v -0.03850990 0.00640669 0.03786782
v -0.03857842 0.00600280 0.03785856
v -0.03737159 0.00600280 0.04189347
v -0.03584438 0.01115014 0.03782952
v -0.03586901 0.01366089 0.03792295
v -0.03584438 0.01247409 0.03787750
v -0.03827196 0.00752719 0.03788970
v -0.03798932 0.00862131 0.03790737
v -0.03737159 0.00600280 0.03776303
v -0.03584438 0.01168665 0.03784888
v -0.03584438 0.01190669 0.03785688
f 1 2 3
f 1 3 4
f 1 4 5
f 1 5 16
f 1 16 6
f 1 6 19
f 1 19 7
f 1 7 8
f 1 8 9
f 1 9 10
f 1 10 11
f 1 11 2
f 2 11 12
f 2 12 25
f 2 25 31
f 2 31 32
f 2 32 27
f 2 27 17
f 2 17 13
f 2 13 3
f 3 13 4
f 4 13 14
f 4 14 26
f 4 26 15
f 4 15 16
f 4 16 5
f 6 16 17
f 6 17 18
f 6 18 19
f 7 19 18
f 7 18 8
f 8 18 29
f 8 29 20
f 8 20 21
f 8 21 9
f 9 21 28
f 9 28 22
f 9 22 23
f 9 23 10
f 10 23 30
f 10 30 24
f 10 24 11
f 11 24 12
f 12 24 30
f 12 30 25
f 13 17 26
f 13 26 14
f 15 26 17
f 15 17 16
f 17 27 28
f 17 28 18
f 18 28 29
f 20 29 28
f 20 28 21
f 22 28 23
f 23 28 30
f 25 30 31
f 27 32 30
f 27 30 28
f 30 32 31

