# https://github.com/mikedh/trimesh
v -0.03584412 0.01370122 0.04205280
v -0.03584412 0.01370122 0.03792209
v -0.03584412 0.01168708 0.04197956
v -0.03334031 0.01516454 0.04190800
v -0.03408562 0.01607593 0.04200007
v -0.03518508 0.01471135 0.04203732
v -0.03553261 0.01419991 0.04204611
v -0.03584412 0.01168708 0.03784885
v -0.03553261 0.01419991 0.03791581
v -0.03482725 0.01519505 0.03789614
v -0.03446060 0.01564992 0.03788359
v -0.03408562 0.01607593 0.03786936
v -0.03584412 0.01115067 0.04195989
v -0.03522037 0.01244592 0.04195780
v -0.03334031 0.01516454 0.03777728
v -0.03334031 0.01681758 0.04196784
v -0.03370378 0.01647255 0.04198417
v -0.03446060 0.01564992 0.04201388
v -0.03482725 0.01519505 0.04202643
v -0.03518508 0.01471135 0.03790702
v -0.03584412 0.01115067 0.03782960
v -0.03370378 0.01647255 0.03785387
v -0.03334031 0.01681758 0.03783755
f 1 2 8
f 1 8 21
f 1 21 13
f 1 13 3
f 1 3 4
f 1 4 5
f 1 5 6
f 1 6 7
f 1 7 9
f 1 9 2
f 2 9 10
f 2 10 11
f 2 11 12
f 2 12 8
f 3 13 14
f 3 14 4
f 4 15 23
f 4 23 16
f 4 16 17
f 4 17 5
f 4 14 13
f 4 13 21
f 4 21 15
f 5 17 22
f 5 22 12
f 5 12 11
f 5 11 18
f 5 18 19
f 5 19 6
f 6 19 10
f 6 10 20
f 6 20 9
f 6 9 7
f 8 12 15
f 8 15 21
f 9 20 10
f 10 19 18
f 10 18 11
f 12 22 23
f 12 23 15
f 16 23 22
f 16 22 17

