# https://github.com/mikedh/trimesh
v -0.00725000 0.07984407 0.11868293
v -0.00725492 0.07999312 0.11875243
v -0.00726967 0.08014164 0.11882169
v -0.00729419 0.08028910 0.11889044
v -0.00732840 0.08043496 0.11895846
v -0.00737217 0.08057870 0.11902549
v -0.00742535 0.08071982 0.11909129
v -0.00748775 0.08085780 0.11915564
v -0.00755914 0.08099215 0.11921828
v -0.00763927 0.08112239 0.11927902
v -0.00772784 0.08124806 0.11933762
v -0.00782455 0.08136870 0.11939387
v -0.00792905 0.08148388 0.11944758
v -0.00804097 0.08159319 0.11949856
v -0.00815989 0.08169624 0.11954661
v -0.00828540 0.08179267 0.11959157
v -0.00841705 0.08188211 0.11963328
v -0.00855437 0.08196426 0.11967159
v -0.00869686 0.08203882 0.11970635
v -0.00884402 0.08210552 0.11973746
v -0.00899531 0.08216413 0.11976479
v -0.00915020 0.08221443 0.11978824
v -0.00930814 0.08225625 0.11980774
v -0.00946855 0.08228943 0.11982322
v -0.00963086 0.08231386 0.11983461
v -0.00979449 0.08232945 0.11984188
v -0.00995886 0.08233614 0.11984500
v -0.01012338 0.08233391 0.11984396
v -0.01028745 0.08232276 0.11983876
v -0.01045050 0.08230275 0.11982943
v -0.01061193 0.08227393 0.11981599
v -0.01077118 0.08223641 0.11979849
v -0.01092766 0.08219033 0.11977701
v -0.01108082 0.08213585 0.11975160
v -0.01123011 0.08207317 0.11972237
v -0.01137500 0.08200251 0.11968942
v -0.01151497 0.08192412 0.11965287
v -0.01164951 0.08183828 0.11961284
v -0.01177815 0.08174531 0.11956949
v -0.01190042 0.08164553 0.11952296
v -0.01201589 0.08153930 0.11947342
v -0.01212415 0.08142700 0.11942106
v -0.01222480 0.08130903 0.11936605
v -0.01231748 0.08118583 0.11930860
v -0.01240187 0.08105782 0.11924890
v -0.01247766 0.08092546 0.11918719
v -0.01254459 0.08078923 0.11912366
v -0.01260240 0.08064962 0.11905856
v -0.01265090 0.08050713 0.11899211
v -0.01268991 0.08036226 0.11892456
v -0.01271928 0.08021554 0.11885614
v -0.01273893 0.08006748 0.11878710
v -0.01274877 0.07991863 0.11871769
v -0.01274877 0.07976951 0.11864816
v -0.01273893 0.07962066 0.11857875
v -0.01271928 0.07947261 0.11850971
v -0.01268991 0.07932588 0.11844129
v -0.01265090 0.07918101 0.11837374
v -0.01260240 0.07903852 0.11830729
v -0.01254459 0.07889891 0.11824219
v -0.01247766 0.07876268 0.11817867
v -0.01240187 0.07863033 0.11811695
v -0.01231748 0.07850231 0.11805725
v -0.01222480 0.07837911 0.11799980
v -0.01212415 0.07826114 0.11794479
v -0.01201589 0.07814884 0.11789243
v -0.01190042 0.07804262 0.11784289
v -0.01177815 0.07794283 0.11779637
v -0.01164951 0.07784986 0.11775301
v -0.01151497 0.07776402 0.11771298
v -0.01137500 0.07768564 0.11767643
v -0.01123011 0.07761497 0.11764348
v -0.01108082 0.07755229 0.11761425
v -0.01092766 0.07749781 0.11758885
v -0.01077118 0.07745173 0.11756736
v -0.01061193 0.07741421 0.11754986
v -0.01045050 0.07738539 0.11753643
v -0.01028745 0.07736538 0.11752709
v -0.01012338 0.07735423 0.11752190
v -0.00995886 0.07735200 0.11752086
v -0.00979449 0.07735869 0.11752398
v -0.00963086 0.07737428 0.11753124
v -0.00946855 0.07739871 0.11754263
v -0.00930814 0.07743189 0.11755811
v -0.00915020 0.07747371 0.11757761
v -0.00899531 0.07752401 0.11760106
v -0.00884402 0.07758262 0.11762839
v -0.00869686 0.07764932 0.11765950
v -0.00855437 0.07772388 0.11769427
v -0.00841705 0.07780603 0.11773257
v -0.00828540 0.07789548 0.11777428
v -0.00815989 0.07799190 0.11781924
v -0.00804097 0.07809495 0.11786730
v -0.00792905 0.07820426 0.11791827
v -0.00782455 0.07831944 0.11797198
v -0.00772784 0.07844008 0.11802824
v -0.00763927 0.07856575 0.11808683
v -0.00755914 0.07869599 0.11814757
v -0.00748775 0.07883034 0.11821022
v -0.00742535 0.07896832 0.11827456
v -0.00737217 0.07910944 0.11834036
v -0.00732840 0.07925318 0.11840739
v -0.00729419 0.07939904 0.11847541
v -0.00726967 0.07954650 0.11854417
v -0.00725492 0.07969502 0.11861342
v -0.00725000 0.08111193 0.11596400
v -0.00725492 0.08126098 0.11603351
v -0.00726967 0.08140950 0.11610276
v -0.00729419 0.08155695 0.11617152
v -0.00732840 0.08170281 0.11623954
v -0.00737217 0.08184656 0.11630657
v -0.00742535 0.08198767 0.11637237
v -0.00748775 0.08212565 0.11643671
v -0.00755914 0.08226001 0.11649936
v -0.00763927 0.08239025 0.11656009
v -0.00772784 0.08251591 0.11661869
v -0.00782455 0.08263655 0.11667495
v -0.00792905 0.08275174 0.11672866
v -0.00804097 0.08286105 0.11677963
v -0.00815989 0.08296410 0.11682769
v -0.00828540 0.08306052 0.11687265
v -0.00841705 0.08314997 0.11691436
v -0.00855437 0.08323211 0.11695266
v -0.00869686 0.08330667 0.11698743
v -0.00884402 0.08337338 0.11701853
v -0.00899531 0.08343199 0.11704586
v -0.00915020 0.08348229 0.11706932
v -0.00930814 0.08352410 0.11708882
v -0.00946855 0.08355729 0.11710429
v -0.00963086 0.08358172 0.11711568
v -0.00979449 0.08359730 0.11712295
v -0.00995886 0.08360399 0.11712607
v -0.01012338 0.08360176 0.11712503
v -0.01028745 0.08359062 0.11711984
v -0.01045050 0.08357060 0.11711050
v -0.01061193 0.08354178 0.11709706
v -0.01077118 0.08350427 0.11707957
v -0.01092766 0.08345819 0.11705808
v -0.01108082 0.08340371 0.11703268
v -0.01123011 0.08334102 0.11700345
v -0.01137500 0.08327036 0.11697050
v -0.01151497 0.08319197 0.11693394
v -0.01164951 0.08310614 0.11689392
v -0.01177815 0.08301316 0.11685056
v -0.01190042 0.08291338 0.11680403
v -0.01201589 0.08280715 0.11675450
v -0.01212415 0.08269485 0.11670213
v -0.01222480 0.08257689 0.11664713
v -0.01231748 0.08245368 0.11658967
v -0.01240187 0.08232567 0.11652998
v -0.01247766 0.08219331 0.11646826
v -0.01254459 0.08205709 0.11640474
v -0.01260240 0.08191748 0.11633964
v -0.01265090 0.08177498 0.11627319
v -0.01268991 0.08163011 0.11620564
v -0.01271928 0.08148339 0.11613722
v -0.01273893 0.08133534 0.11606818
v -0.01274877 0.08118648 0.11599877
v -0.01274877 0.08103737 0.11592923
v -0.01273893 0.08088851 0.11585982
v -0.01271928 0.08074046 0.11579079
v -0.01268991 0.08059374 0.11572237
v -0.01265090 0.08044887 0.11565481
v -0.01260240 0.08030637 0.11558837
v -0.01254459 0.08016676 0.11552327
v -0.01247766 0.08003054 0.11545974
v -0.01240187 0.07989818 0.11539802
v -0.01231748 0.07977017 0.11533833
v -0.01222480 0.07964696 0.11528088
v -0.01212415 0.07952900 0.11522587
v -0.01201589 0.07941670 0.11517351
v -0.01190042 0.07931047 0.11512397
v -0.01177815 0.07921069 0.11507744
v -0.01164951 0.07911772 0.11503409
v -0.01151497 0.07903188 0.11499406
v -0.01137500 0.07895349 0.11495751
v -0.01123011 0.07888283 0.11492456
v -0.01108082 0.07882014 0.11489533
v -0.01092766 0.07876566 0.11486992
v -0.01077118 0.07871958 0.11484844
v -0.01061193 0.07868207 0.11483094
v -0.01045050 0.07865325 0.11481750
v -0.01028745 0.07863323 0.11480817
v -0.01012338 0.07862209 0.11480297
v -0.00995886 0.07861986 0.11480193
v -0.00979449 0.07862655 0.11480505
v -0.00963086 0.07864214 0.11481232
v -0.00946855 0.07866656 0.11482371
v -0.00930814 0.07869975 0.11483918
v -0.00915020 0.07874156 0.11485868
v -0.00899531 0.07879187 0.11488214
v -0.00884402 0.07885047 0.11490947
v -0.00869686 0.07891718 0.11494057
v -0.00855437 0.07899174 0.11497534
v -0.00841705 0.07907389 0.11501365
v -0.00828540 0.07916333 0.11505536
v -0.00815989 0.07925975 0.11510032
v -0.00804097 0.07936280 0.11514837
v -0.00792905 0.07947211 0.11519935
v -0.00782455 0.07958730 0.11525306
v -0.00772784 0.07970794 0.11530931
v -0.00763927 0.07983360 0.11536791
v -0.00755914 0.07996384 0.11542864
v -0.00748775 0.08009820 0.11549129
v -0.00742535 0.08023618 0.11555563
v -0.00737217 0.08037729 0.11562144
v -0.00732840 0.08052104 0.11568847
v -0.00729419 0.08066690 0.11575648
v -0.00726967 0.08081435 0.11582524
v -0.00725492 0.08096287 0.11589450
v -0.00916284 0.07852992 0.11807013
v -0.01083716 0.07852992 0.11807013
v -0.00855000 0.08364763 0.11052616
v -0.00855260 0.08372623 0.11056280
v -0.00856037 0.08380454 0.11059932
v -0.00857330 0.08388228 0.11063557
v -0.00859134 0.08395919 0.11067144
v -0.00861442 0.08403499 0.11070678
v -0.00864246 0.08410939 0.11074148
v -0.00867536 0.08418215 0.11077540
v -0.00871300 0.08425299 0.11080844
v -0.00875525 0.08432166 0.11084046
v -0.00880195 0.08438792 0.11087136
v -0.00885295 0.08445153 0.11090102
v -0.00890805 0.08451226 0.11092934
v -0.00896705 0.08456990 0.11095622
v -0.00902976 0.08462424 0.11098155
v -0.00909594 0.08467508 0.11100526
v -0.00916536 0.08472224 0.11102725
v -0.00923776 0.08476555 0.11104745
v -0.00931289 0.08480487 0.11106578
v -0.00939048 0.08484004 0.11108218
v -0.00947026 0.08487094 0.11109659
v -0.00955193 0.08489746 0.11110896
v -0.00963520 0.08491951 0.11111924
v -0.00971978 0.08493701 0.11112740
v -0.00980536 0.08494989 0.11113341
v -0.00989164 0.08495811 0.11113724
v -0.00997831 0.08496163 0.11113888
v -0.01006505 0.08496046 0.11113834
v -0.01015157 0.08495458 0.11113560
v -0.01023754 0.08494403 0.11113067
v -0.01032266 0.08492883 0.11112359
v -0.01040662 0.08490905 0.11111436
v -0.01048913 0.08488475 0.11110303
v -0.01056989 0.08485603 0.11108964
v -0.01064860 0.08482298 0.11107423
v -0.01072500 0.08478572 0.11105685
v -0.01079880 0.08474439 0.11103758
v -0.01086974 0.08469913 0.11101647
v -0.01093757 0.08465010 0.11099362
v -0.01100204 0.08459749 0.11096908
v -0.01106293 0.08454148 0.11094296
v -0.01112000 0.08448227 0.11091535
v -0.01117307 0.08442007 0.11088635
v -0.01122195 0.08435511 0.11085606
v -0.01126644 0.08428761 0.11082458
v -0.01130640 0.08421782 0.11079204
v -0.01134169 0.08414599 0.11075854
v -0.01137217 0.08407238 0.11072422
v -0.01139775 0.08399725 0.11068918
v -0.01141831 0.08392086 0.11065356
v -0.01143380 0.08384350 0.11061749
v -0.01144416 0.08376543 0.11058109
v -0.01144935 0.08368695 0.11054449
v -0.01144935 0.08360832 0.11050782
v -0.01144416 0.08352984 0.11047123
v -0.01143380 0.08345177 0.11043482
v -0.01141831 0.08337441 0.11039875
v -0.01139775 0.08329802 0.11036313
v -0.01137217 0.08322289 0.11032809
v -0.01134169 0.08314928 0.11029377
v -0.01130640 0.08307745 0.11026027
v -0.01126644 0.08300766 0.11022773
v -0.01122195 0.08294016 0.11019626
v -0.01117307 0.08287520 0.11016596
v -0.01112000 0.08281300 0.11013696
v -0.01106293 0.08275379 0.11010935
v -0.01100204 0.08269778 0.11008323
v -0.01093757 0.08264517 0.11005870
v -0.01086974 0.08259614 0.11003584
v -0.01079880 0.08255088 0.11001473
v -0.01072500 0.08250955 0.10999546
v -0.01064860 0.08247229 0.10997808
v -0.01056989 0.08243924 0.10996267
v -0.01048913 0.08241052 0.10994928
v -0.01040662 0.08238622 0.10993795
v -0.01032266 0.08236644 0.10992872
v -0.01023754 0.08235124 0.10992164
v -0.01015157 0.08234069 0.10991672
v -0.01006505 0.08233481 0.10991398
v -0.00997831 0.08233364 0.10991343
v -0.00989164 0.08233716 0.10991507
v -0.00980536 0.08234538 0.10991891
v -0.00971978 0.08235826 0.10992491
v -0.00963520 0.08237576 0.10993307
v -0.00955193 0.08239781 0.10994335
v -0.00947026 0.08242433 0.10995572
v -0.00939048 0.08245523 0.10997013
v -0.00931289 0.08249040 0.10998653
v -0.00923776 0.08252972 0.11000486
v -0.00916536 0.08257303 0.11002506
v -0.00909594 0.08262019 0.11004705
v -0.00902976 0.08267103 0.11007076
v -0.00896705 0.08272537 0.11009610
v -0.00890805 0.08278301 0.11012297
v -0.00885295 0.08284374 0.11015129
v -0.00880195 0.08290735 0.11018096
v -0.00875525 0.08297361 0.11021185
v -0.00871300 0.08304228 0.11024388
v -0.00867536 0.08311312 0.11027691
v -0.00864246 0.08318588 0.11031083
v -0.00861442 0.08326028 0.11034553
v -0.00859134 0.08333608 0.11038087
v -0.00857330 0.08341298 0.11041674
v -0.00856037 0.08349073 0.11045299
v -0.00855260 0.08356904 0.11048951
f 80 79 184
f 239 271 248
f 248 271 266
f 96 101 92
f 79 84 92
f 92 101 6
f 291 184 290
f 239 232 291
f 291 271 239
f 198 93 197
f 93 92 197
f 48 49 50
f 50 51 48
f 50 49 155
f 155 51 50
f 266 271 270
f 267 160 266
f 235 232 239
f 188 84 83
f 83 82 188
f 84 82 83
f 94 95 96
f 96 92 94
f 94 92 93
f 188 82 187
f 185 291 292
f 184 291 185
f 80 184 185
f 81 79 80
f 80 185 81
f 81 185 186
f 81 187 82
f 186 187 81
f 81 84 79
f 81 82 84
f 31 28 30
f 199 200 95
f 95 94 199
f 26 131 27
f 132 28 27
f 27 131 132
f 240 132 239
f 239 248 245
f 252 253 145
f 145 251 252
f 252 251 253
f 253 251 250
f 37 142 38
f 37 38 39
f 48 51 45
f 45 46 48
f 244 137 136
f 35 33 34
f 48 46 47
f 146 147 42
f 42 41 146
f 145 253 146
f 253 147 146
f 253 250 255
f 255 250 248
f 64 74 56
f 56 33 51
f 266 160 159
f 159 158 266
f 268 270 269
f 266 270 268
f 268 267 266
f 216 232 222
f 232 235 234
f 239 132 238
f 238 132 131
f 313 206 312
f 316 308 216
f 213 317 316
f 306 199 198
f 198 305 306
f 312 206 205
f 6 101 103
f 213 214 106
f 98 101 96
f 98 99 101
f 98 202 203
f 211 92 6
f 79 92 211
f 32 28 31
f 32 33 28
f 137 33 32
f 34 33 139
f 140 35 139
f 139 35 34
f 75 74 179
f 281 291 290
f 7 10 6
f 7 8 10
f 10 8 9
f 6 10 12
f 10 11 12
f 29 30 28
f 85 86 84
f 88 193 89
f 89 87 88
f 89 92 84
f 84 86 89
f 86 87 89
f 235 236 129
f 134 29 28
f 135 30 134
f 30 29 134
f 239 245 243
f 243 245 244
f 244 136 243
f 248 141 247
f 247 141 140
f 140 139 247
f 248 250 249
f 249 250 142
f 249 141 248
f 142 141 249
f 143 38 142
f 143 39 38
f 143 250 251
f 142 250 143
f 51 33 40
f 40 45 51
f 37 39 40
f 40 39 145
f 42 45 40
f 40 41 42
f 145 146 40
f 40 146 41
f 155 49 154
f 254 147 253
f 253 255 254
f 254 148 147
f 255 148 254
f 258 151 150
f 152 151 258
f 69 74 64
f 58 59 60
f 58 56 57
f 54 159 160
f 156 51 155
f 216 222 219
f 10 9 115
f 213 316 215
f 215 316 216
f 215 214 213
f 216 109 215
f 215 109 108
f 200 199 307
f 199 306 307
f 307 308 200
f 307 306 308
f 308 316 315
f 208 207 315
f 315 209 208
f 315 316 209
f 200 308 201
f 308 202 201
f 96 95 201
f 95 200 201
f 203 310 204
f 204 98 203
f 99 98 204
f 101 99 100
f 100 206 101
f 100 205 206
f 1 103 104
f 110 109 216
f 110 111 6
f 107 106 214
f 214 215 107
f 107 215 108
f 210 317 213
f 213 106 210
f 210 316 317
f 209 316 210
f 97 98 96
f 202 98 97
f 33 56 212
f 212 211 33
f 79 211 212
f 212 74 79
f 212 56 74
f 138 33 137
f 138 139 33
f 138 137 244
f 244 245 138
f 297 298 190
f 190 85 84
f 308 301 295
f 216 308 295
f 188 187 295
f 295 232 216
f 295 291 232
f 308 306 304
f 304 301 308
f 304 306 305
f 304 305 198
f 198 197 304
f 304 196 303
f 197 196 304
f 300 301 193
f 193 301 194
f 194 301 195
f 194 89 193
f 195 89 194
f 78 184 79
f 79 74 78
f 74 77 78
f 164 270 271
f 60 59 164
f 92 89 90
f 90 89 195
f 130 238 131
f 235 129 128
f 127 234 128
f 128 234 235
f 27 28 24
f 28 132 133
f 133 134 28
f 132 240 133
f 240 134 133
f 21 125 126
f 126 234 127
f 122 229 123
f 121 229 122
f 28 33 15
f 6 12 15
f 15 211 6
f 33 211 15
f 15 12 13
f 15 13 14
f 15 120 121
f 15 14 119
f 119 120 15
f 241 240 239
f 239 243 241
f 241 134 240
f 246 245 248
f 248 247 246
f 246 247 139
f 246 138 245
f 139 138 246
f 145 39 144
f 39 143 144
f 144 251 145
f 144 143 251
f 33 35 36
f 36 40 33
f 37 40 36
f 36 142 37
f 36 141 142
f 140 141 36
f 36 35 140
f 43 45 42
f 259 153 152
f 152 258 259
f 259 248 266
f 259 255 248
f 66 69 64
f 66 171 67
f 64 56 63
f 56 58 63
f 63 58 60
f 63 62 167
f 55 56 51
f 160 56 55
f 55 54 160
f 123 229 230
f 223 115 222
f 223 230 226
f 223 222 232
f 232 230 223
f 216 219 218
f 218 219 111
f 111 110 218
f 117 223 224
f 111 219 112
f 6 111 112
f 112 7 6
f 114 115 9
f 102 103 101
f 101 206 102
f 206 207 102
f 308 315 309
f 309 202 308
f 309 310 203
f 203 202 309
f 6 3 5
f 5 110 6
f 2 3 6
f 108 3 2
f 2 107 108
f 2 103 1
f 6 103 2
f 1 104 105
f 191 190 298
f 292 291 293
f 291 295 293
f 293 187 186
f 293 185 292
f 186 185 293
f 299 295 301
f 301 300 299
f 299 298 297
f 299 300 193
f 299 191 298
f 188 295 189
f 189 84 188
f 189 190 84
f 302 304 303
f 301 304 302
f 195 301 302
f 303 196 302
f 302 196 195
f 75 181 76
f 76 74 75
f 76 77 74
f 76 182 77
f 181 182 76
f 74 69 73
f 73 179 74
f 73 69 70
f 70 72 73
f 290 182 289
f 179 286 180
f 75 179 180
f 180 181 75
f 174 281 175
f 70 69 175
f 175 69 174
f 72 176 177
f 176 175 283
f 283 177 176
f 71 72 70
f 71 176 72
f 165 164 271
f 60 164 165
f 161 268 269
f 160 267 161
f 267 268 161
f 161 56 160
f 57 56 161
f 57 161 162
f 269 270 162
f 162 161 269
f 272 165 271
f 67 171 172
f 92 90 91
f 91 197 92
f 91 196 197
f 237 129 236
f 237 130 129
f 238 130 237
f 237 236 235
f 237 235 239
f 239 238 237
f 25 26 27
f 27 24 25
f 233 125 232
f 233 126 125
f 232 234 233
f 234 126 233
f 121 120 227
f 119 226 227
f 227 120 119
f 17 18 19
f 21 22 19
f 19 22 24
f 19 15 17
f 19 24 28
f 28 15 19
f 16 15 121
f 17 15 16
f 242 241 243
f 242 136 135
f 242 243 136
f 135 134 242
f 134 241 242
f 257 258 150
f 150 149 257
f 257 259 258
f 45 43 44
f 260 154 153
f 153 259 260
f 68 66 67
f 69 66 68
f 65 66 64
f 61 63 60
f 62 63 61
f 52 55 51
f 54 55 52
f 53 54 52
f 52 158 53
f 52 157 158
f 123 230 231
f 232 125 231
f 231 230 232
f 224 223 225
f 225 223 226
f 225 226 119
f 217 110 216
f 216 218 217
f 217 218 110
f 115 223 116
f 223 117 116
f 220 219 222
f 222 115 221
f 115 114 221
f 221 220 222
f 114 220 221
f 311 309 315
f 310 309 311
f 311 204 310
f 205 204 311
f 312 205 311
f 4 5 3
f 192 299 193
f 191 299 192
f 294 295 187
f 187 293 294
f 294 293 295
f 296 299 297
f 295 299 296
f 296 189 295
f 297 190 296
f 190 189 296
f 290 184 183
f 183 182 290
f 184 78 183
f 181 180 288
f 288 182 181
f 288 289 182
f 290 289 288
f 288 281 290
f 288 283 281
f 286 283 288
f 179 73 178
f 178 73 72
f 72 177 178
f 282 175 281
f 281 283 282
f 282 283 175
f 284 283 286
f 177 283 284
f 270 164 163
f 163 162 270
f 165 272 166
f 60 165 166
f 166 61 60
f 173 281 174
f 167 274 275
f 275 272 271
f 271 291 275
f 278 172 171
f 171 277 278
f 24 22 23
f 228 229 121
f 121 227 228
f 228 230 229
f 226 230 228
f 228 227 226
f 20 125 21
f 21 19 20
f 123 231 124
f 124 231 125
f 124 18 123
f 124 19 18
f 125 20 124
f 124 20 19
f 256 257 149
f 256 149 148
f 256 148 255
f 255 259 256
f 259 257 256
f 155 154 262
f 262 156 155
f 118 117 224
f 224 225 118
f 118 225 119
f 113 220 114
f 113 112 219
f 219 220 113
f 312 311 314
f 314 311 315
f 314 313 312
f 314 315 207
f 206 313 314
f 314 207 206
f 287 180 286
f 286 288 287
f 287 288 180
f 285 178 177
f 177 284 285
f 285 284 286
f 285 286 179
f 179 178 285
f 273 275 274
f 272 275 273
f 273 166 272
f 167 166 273
f 273 274 167
f 64 63 169
f 291 281 276
f 276 275 291
f 172 278 279
f 279 278 277
f 279 276 281
f 277 276 279
f 154 260 261
f 261 262 154
f 261 260 259
f 261 259 266
f 266 262 261
f 157 156 263
f 156 262 263
f 170 277 171
f 170 276 277
f 169 276 170
f 167 275 168
f 168 63 167
f 168 169 63
f 275 276 168
f 168 276 169
f 280 173 172
f 172 279 280
f 281 173 280
f 280 279 281
f 266 158 265
f 158 157 265
f 265 262 266
f 265 263 262
f 157 263 264
f 264 265 157
f 263 265 264
f 199 94 93
f 199 93 198
f 31 30 136
f 136 30 135
f 152 153 47
f 47 153 48
f 152 47 151
f 151 47 46
f 151 45 150
f 46 45 151
f 31 136 32
f 32 136 137
f 48 153 154
f 154 49 48
f 158 159 54
f 53 158 54
f 100 204 205
f 99 204 100
f 208 209 104
f 104 103 208
f 97 201 202
f 96 201 97
f 17 122 18
f 18 122 123
f 147 148 43
f 42 147 43
f 208 103 102
f 102 207 208
f 106 107 2
f 1 106 2
f 105 106 1
f 105 210 106
f 105 104 209
f 209 210 105
f 85 190 191
f 86 85 191
f 71 175 176
f 70 175 71
f 91 90 195
f 195 196 91
f 25 130 131
f 131 26 25
f 129 130 25
f 25 24 129
f 21 126 22
f 22 126 127
f 16 122 17
f 121 122 16
f 44 43 148
f 148 149 44
f 44 149 150
f 150 45 44
f 52 156 157
f 51 156 52
f 10 115 116
f 116 11 10
f 116 12 11
f 116 117 12
f 4 3 108
f 108 109 4
f 109 110 4
f 110 5 4
f 88 87 192
f 192 193 88
f 86 191 192
f 192 87 86
f 77 182 183
f 183 78 77
f 163 164 59
f 59 58 163
f 163 58 57
f 57 162 163
f 62 61 166
f 167 62 166
f 69 68 173
f 174 69 173
f 67 172 173
f 173 68 67
f 129 24 23
f 23 128 129
f 127 128 23
f 23 22 127
f 14 13 118
f 119 14 118
f 12 117 118
f 13 12 118
f 7 112 113
f 8 7 113
f 113 9 8
f 113 114 9
f 64 169 170
f 170 65 64
f 66 65 170
f 171 66 170

