# https://github.com/mikedh/trimesh
v -0.02300000 -0.00830868 -0.01063278
v -0.02300000 -0.00812270 -0.01078171
v -0.01900000 -0.00830868 -0.01063278
v -0.02300000 -0.00830868 -0.00116008
v -0.01900000 -0.00812270 -0.01078171
v -0.02300000 -0.00746468 -0.01124810
v -0.01900000 -0.00830868 -0.00116008
v -0.02300000 -0.00679986 -0.00000000
v -0.01900000 -0.00746468 -0.01124810
v -0.02300000 -0.00678071 -0.01167268
v -0.01900000 -0.00679986 -0.00000000
v -0.02300000 -0.00549803 -0.00000000
v -0.01900000 -0.00678071 -0.01167268
v -0.02300000 -0.00607202 -0.01205676
v -0.01900000 -0.00549803 -0.00000000
v -0.02300000 -0.00199723 -0.00512370
v -0.01900000 -0.00607202 -0.01205676
v -0.02300000 -0.00534171 -0.01239773
v -0.01900000 -0.00199723 -0.00512370
v -0.02300000 -0.00199723 -0.01334617
v -0.01900000 -0.00534171 -0.01239773
v -0.02300000 -0.00459348 -0.01269428
v -0.01900000 -0.00199723 -0.01334617
v -0.02300000 -0.00225920 -0.01330959
v -0.01900000 -0.00459348 -0.01269428
v -0.02300000 -0.00382795 -0.01294511
v -0.01900000 -0.00225920 -0.01330959
v -0.02300000 -0.00304883 -0.01315021
v -0.01900000 -0.00382795 -0.01294511
v -0.01900000 -0.00304883 -0.01315021
f 1 2 5
f 1 5 3
f 1 3 7
f 1 7 4
f 1 4 8
f 1 8 12
f 1 12 16
f 1 16 20
f 1 20 24
f 1 24 28
f 1 28 26
f 1 26 22
f 1 22 18
f 1 18 14
f 1 14 10
f 1 10 6
f 1 6 2
f 2 6 9
f 2 9 5
f 3 5 9
f 3 9 13
f 3 13 17
f 3 17 21
f 3 21 25
f 3 25 29
f 3 29 30
f 3 30 27
f 3 27 23
f 3 23 19
f 3 19 15
f 3 15 11
f 3 11 7
f 4 7 11
f 4 11 8
f 6 10 13
f 6 13 9
f 8 11 15
f 8 15 12
f 10 14 17
f 10 17 13
f 12 15 19
f 12 19 16
f 14 18 21
f 14 21 17
f 16 19 23
f 16 23 20
f 18 22 25
f 18 25 21
f 20 23 27
f 20 27 24
f 22 26 29
f 22 29 25
f 24 27 30
f 24 30 28
f 26 28 30
f 26 30 29

