# https://github.com/mikedh/trimesh
v 0.01900000 -0.00789005 -0.01094670
v 0.01900000 -0.00746476 -0.01124703
v 0.02300000 -0.00789005 -0.01094670
v 0.01900000 -0.00789005 -0.00119746
v 0.02300000 -0.00746476 -0.01124703
v 0.01900000 -0.00678042 -0.01167294
v 0.02300000 -0.00789005 -0.00119616
v 0.01913391 -0.00789005 -0.00119616
v 0.01900000 -0.00680031 -0.00000129
v 0.02300000 -0.00678042 -0.01167294
v 0.01900000 -0.00607212 -0.01205612
v 0.02300000 -0.00680031 -0.00000129
v 0.01900000 -0.00549793 -0.00000129
v 0.02300000 -0.00607212 -0.01205612
v 0.01900000 -0.00534189 -0.01239788
v 0.02300000 -0.00549793 -0.00000129
v 0.01900000 -0.00268052 -0.00480277
v 0.02300000 -0.00534189 -0.01239788
v 0.01900000 -0.00459330 -0.01269434
v 0.02300000 -0.00268052 -0.00480277
v 0.01900000 -0.00268052 -0.01322510
v 0.02300000 -0.00459330 -0.01269434
v 0.01900000 -0.00382788 -0.01294548
v 0.02300000 -0.00268052 -0.01322510
v 0.01900000 -0.00304870 -0.01315002
v 0.02300000 -0.00382788 -0.01294548
v 0.02300000 -0.00304870 -0.01315002
f 1 2 5
f 1 5 3
f 1 3 7
f 1 7 8
f 1 8 4
f 1 4 9
f 1 9 13
f 1 13 17
f 1 17 21
f 1 21 25
f 1 25 23
f 1 23 19
f 1 19 15
f 1 15 11
f 1 11 6
f 1 6 2
f 2 6 10
f 2 10 5
f 3 5 10
f 3 10 14
f 3 14 18
f 3 18 22
f 3 22 26
f 3 26 27
f 3 27 24
f 3 24 20
f 3 20 16
f 3 16 12
f 3 12 7
f 4 8 9
f 6 11 14
f 6 14 10
f 7 12 9
f 7 9 8
f 9 12 16
f 9 16 13
f 11 15 18
f 11 18 14
f 13 16 20
f 13 20 17
f 15 19 22
f 15 22 18
f 17 20 24
f 17 24 21
f 19 23 26
f 19 26 22
f 21 24 27
f 21 27 25
f 23 25 27
f 23 27 26

