# https://github.com/mikedh/trimesh
v -0.02300000 -0.01349399 0.00000000
v -0.01900000 -0.01349399 0.00000000
v -0.02300000 -0.01349399 0.00040300
v -0.02300000 -0.00919967 0.00000000
v -0.01900000 -0.01349399 0.00040300
v -0.01900000 -0.00919967 0.00000000
v -0.02300000 -0.01344567 0.00120720
v -0.02300000 -0.00775456 0.00117402
v -0.01900000 -0.01344567 0.00120720
v -0.01900000 -0.00775456 0.00117402
v -0.02300000 -0.01334959 0.00200681
v -0.02300000 -0.00775456 0.00260710
v -0.01900000 -0.01334959 0.00200681
v -0.01900000 -0.00775456 0.00260710
v -0.02300000 -0.01324115 0.00260710
v -0.01900000 -0.01324115 0.00260710
f 1 2 5
f 1 5 3
f 1 3 7
f 1 7 11
f 1 11 15
f 1 15 12
f 1 12 8
f 1 8 4
f 1 4 6
f 1 6 2
f 2 6 10
f 2 10 14
f 2 14 16
f 2 16 13
f 2 13 9
f 2 9 5
f 3 5 9
f 3 9 7
f 4 8 10
f 4 10 6
f 7 9 13
f 7 13 11
f 8 12 14
f 8 14 10
f 11 13 16
f 11 16 15
f 12 15 16
f 12 16 14

