# https://github.com/mikedh/trimesh
v -0.02300000 0.00437906 0.00332407
v -0.02300000 0.00549824 0.00000000
v -0.01900000 0.00437906 0.00332407
v -0.02300000 0.00867491 0.00332407
v -0.02300000 0.00680037 0.00000000
v -0.01900000 0.00549824 0.00000000
v -0.01900000 0.00867491 0.00332407
v -0.02300000 0.00867491 0.00099218
v -0.01900000 0.00680037 0.00000000
v -0.01900000 0.00867491 0.00099218
f 1 2 6
f 1 6 3
f 1 3 7
f 1 7 4
f 1 4 8
f 1 8 5
f 1 5 2
f 2 5 9
f 2 9 6
f 3 6 9
f 3 9 10
f 3 10 7
f 4 7 10
f 4 10 8
f 5 8 10
f 5 10 9

