# https://github.com/mikedh/trimesh
v -0.02300000 -0.00199661 0.00512339
v -0.02300000 -0.00199661 0.00868852
v -0.02300000 0.00004389 0.00549892
v -0.01900000 -0.00199661 0.00512339
v -0.02300000 -0.00098265 0.00868852
v -0.01900000 -0.00199661 0.00868852
v -0.02300000 0.00004389 0.00680108
v -0.01900000 0.00004389 0.00549892
v -0.01900000 -0.00098265 0.00868852
v -0.01900000 0.00004389 0.00680108
f 1 2 5
f 1 5 7
f 1 7 3
f 1 3 8
f 1 8 4
f 1 4 6
f 1 6 2
f 2 6 9
f 2 9 5
f 3 7 10
f 3 10 8
f 4 8 10
f 4 10 9
f 4 9 6
f 5 9 10
f 5 10 7

