# https://github.com/mikedh/trimesh
v 0.01900000 -0.01349399 -0.00040292
v 0.02300000 -0.01349399 -0.00040292
v 0.01900000 -0.01349399 -0.00000000
v 0.01900000 -0.01344572 -0.00120770
v 0.02300000 -0.01349399 -0.00000000
v 0.02300000 -0.01344572 -0.00120770
v 0.01900000 -0.00919998 -0.00000000
v 0.01900000 -0.01334972 -0.00200712
v 0.02300000 -0.00919998 -0.00000000
v 0.02300000 -0.01334972 -0.00200712
v 0.01913391 -0.00789005 -0.00119591
v 0.01900000 -0.00789005 -0.00119699
v 0.01900000 -0.01320600 -0.00280011
v 0.02300000 -0.00789005 -0.00119591
v 0.02300000 -0.01320600 -0.00280011
v 0.01900000 -0.00789005 -0.01094754
v 0.01900000 -0.01301566 -0.00358346
v 0.02300000 -0.00789005 -0.01094754
v 0.02300000 -0.01301566 -0.00358346
v 0.01900000 -0.00812318 -0.01078252
v 0.01900000 -0.01277869 -0.00435287
v 0.02300000 -0.00812318 -0.01078252
v 0.02300000 -0.01277869 -0.00435287
v 0.01900000 -0.00875181 -0.01027886
v 0.01900000 -0.01249619 -0.00510835
v 0.02300000 -0.00875181 -0.01027886
v 0.02300000 -0.01249619 -0.00510835
v 0.01900000 -0.00934973 -0.00973770
v 0.01900000 -0.01216925 -0.00584348
v 0.02300000 -0.00934973 -0.00973770
v 0.02300000 -0.01216925 -0.00584348
v 0.01900000 -0.00991363 -0.00916332
v 0.01900000 -0.01179898 -0.00655824
v 0.02300000 -0.00991363 -0.00916332
v 0.02300000 -0.01179898 -0.00655824
v 0.01900000 -0.01044298 -0.00855572
v 0.01900000 -0.01138702 -0.00725050
v 0.02300000 -0.01044298 -0.00855572
v 0.02300000 -0.01138702 -0.00725050
v 0.01900000 -0.01093393 -0.00791704
v 0.02300000 -0.01093393 -0.00791704
f 1 2 5
f 1 5 3
f 1 3 7
f 1 7 12
f 1 12 16
f 1 16 20
f 1 20 24
f 1 24 28
f 1 28 32
f 1 32 36
f 1 36 40
f 1 40 37
f 1 37 33
f 1 33 29
f 1 29 25
f 1 25 21
f 1 21 17
f 1 17 13
f 1 13 8
f 1 8 4
f 1 4 6
f 1 6 2
f 2 6 10
f 2 10 15
f 2 15 19
f 2 19 23
f 2 23 27
f 2 27 31
f 2 31 35
f 2 35 39
f 2 39 41
f 2 41 38
f 2 38 34
f 2 34 30
f 2 30 26
f 2 26 22
f 2 22 18
f 2 18 14
f 2 14 9
f 2 9 5
f 3 5 9
f 3 9 7
f 4 8 10
f 4 10 6
f 7 11 12
f 7 9 14
f 7 14 11
f 8 13 15
f 8 15 10
f 11 14 18
f 11 18 16
f 11 16 12
f 13 17 19
f 13 19 15
f 16 18 22
f 16 22 20
f 17 21 23
f 17 23 19
f 20 22 26
f 20 26 24
f 21 25 27
f 21 27 23
f 24 26 30
f 24 30 28
f 25 29 31
f 25 31 27
f 28 30 34
f 28 34 32
f 29 33 35
f 29 35 31
f 32 34 38
f 32 38 36
f 33 37 39
f 33 39 35
f 36 38 41
f 36 41 40
f 37 40 41
f 37 41 39

