# https://github.com/mikedh/trimesh
v 0.02300000 0.01164260 0.00247715
v 0.02300000 0.00779088 0.00247715
v 0.02300000 0.01164260 0.00000781
v 0.01900000 0.01164260 0.00247715
v 0.02300000 0.00779088 0.00118144
v 0.01900000 0.00779088 0.00247715
v 0.02300000 0.00920336 0.00000781
v 0.01900000 0.01164260 0.00000781
v 0.01900000 0.00779088 0.00118144
v 0.02243461 0.00919997 0.00000781
v 0.01900000 0.00919997 0.00000781
f 1 2 5
f 1 5 7
f 1 7 3
f 1 3 8
f 1 8 4
f 1 4 6
f 1 6 2
f 2 6 9
f 2 9 5
f 3 7 10
f 3 10 11
f 3 11 8
f 4 8 11
f 4 11 9
f 4 9 6
f 5 9 11
f 5 11 10
f 5 10 7

