# https://github.com/mikedh/trimesh
v 0.01900000 -0.00777640 0.00118068
v 0.01900000 -0.00680017 -0.00000000
v 0.02300000 -0.00777640 0.00118068
v 0.01900000 -0.00777640 0.01102655
v 0.02300000 -0.00680017 -0.00000000
v 0.01900000 -0.00549803 -0.00000000
v 0.02300000 -0.00777640 0.01102655
v 0.01900000 -0.00746457 0.01124744
v 0.02300000 -0.00549803 -0.00000000
v 0.01900000 -0.00282199 0.00472142
v 0.02300000 -0.00746457 0.01124744
v 0.01900000 -0.00678028 0.01167244
v 0.02300000 -0.00282199 0.00472142
v 0.01900000 -0.00282199 0.01319673
v 0.02300000 -0.00678028 0.01167244
v 0.01900000 -0.00607223 0.01205609
v 0.02300000 -0.00282199 0.01319673
v 0.01900000 -0.00304896 0.01315022
v 0.02300000 -0.00607223 0.01205609
v 0.01900000 -0.00534236 0.01239583
v 0.02300000 -0.00304896 0.01315022
v 0.01900000 -0.00382781 0.01294483
v 0.02300000 -0.00534236 0.01239583
v 0.01900000 -0.00484382 0.01259476
v 0.02300000 -0.00382781 0.01294483
v 0.01900000 -0.00459357 0.01269294
v 0.02300000 -0.00484382 0.01259476
v 0.02300000 -0.00459357 0.01269294
f 1 2 5
f 1 5 3
f 1 3 7
f 1 7 4
f 1 4 8
f 1 8 12
f 1 12 16
f 1 16 20
f 1 20 24
f 1 24 26
f 1 26 22
f 1 22 18
f 1 18 14
f 1 14 10
f 1 10 6
f 1 6 2
f 2 6 9
f 2 9 5
f 3 5 9
f 3 9 13
f 3 13 17
f 3 17 21
f 3 21 25
f 3 25 28
f 3 28 27
f 3 27 23
f 3 23 19
f 3 19 15
f 3 15 11
f 3 11 7
f 4 7 11
f 4 11 8
f 6 10 13
f 6 13 9
f 8 11 15
f 8 15 12
f 10 14 17
f 10 17 13
f 12 15 19
f 12 19 16
f 14 18 21
f 14 21 17
f 16 19 23
f 16 23 20
f 18 22 25
f 18 25 21
f 20 23 27
f 20 27 24
f 22 26 28
f 22 28 25
f 24 27 28
f 24 28 26

