# https://github.com/mikedh/trimesh
v -0.02300000 0.00274900 -0.01321270
v -0.02300000 0.00333691 -0.01308109
v -0.01900000 0.00274900 -0.01321270
v -0.02300000 0.00274900 -0.00476243
v -0.02300000 0.00411157 -0.01285882
v -0.01900000 0.00333691 -0.01308109
v -0.01900000 0.00274900 -0.00476243
v -0.02300000 0.00443319 -0.00325332
v -0.02300000 0.00487066 -0.01259072
v -0.01900000 0.00411157 -0.01285882
v -0.01900000 0.00443319 -0.00325332
v -0.02300000 0.01158062 -0.00325332
v -0.01900000 0.00487066 -0.01259072
v -0.02300000 0.00561333 -0.01227779
v -0.01900000 0.01158062 -0.00325332
v -0.02300000 0.01158062 -0.00700076
v -0.01900000 0.00561333 -0.01227779
v -0.02300000 0.00633611 -0.01192098
v -0.01900000 0.01158062 -0.00700076
v -0.02300000 0.01110510 -0.00767635
v -0.01900000 0.00633611 -0.01192098
v -0.02300000 0.00703556 -0.01152128
v -0.01900000 0.01110510 -0.00767635
v -0.02300000 0.01062699 -0.00832465
v -0.01900000 0.00703556 -0.01152128
v -0.02300000 0.00770992 -0.01108161
v -0.01900000 0.01062699 -0.00832465
v -0.02300000 0.01011171 -0.00894370
v -0.01900000 0.00770992 -0.01108161
v -0.02300000 0.00835663 -0.01060197
v -0.01900000 0.01011171 -0.00894370
v -0.02300000 0.00956011 -0.00953057
v -0.01900000 0.00835663 -0.01060197
v -0.02300000 0.00897479 -0.01008431
v -0.01900000 0.00956011 -0.00953057
v -0.01900000 0.00897479 -0.01008431
f 1 2 6
f 1 6 3
f 1 3 7
f 1 7 4
f 1 4 8
f 1 8 12
f 1 12 16
f 1 16 20
f 1 20 24
f 1 24 28
f 1 28 32
f 1 32 34
f 1 34 30
f 1 30 26
f 1 26 22
f 1 22 18
f 1 18 14
f 1 14 9
f 1 9 5
f 1 5 2
f 2 5 10
f 2 10 6
f 3 6 10
f 3 10 13
f 3 13 17
f 3 17 21
f 3 21 25
f 3 25 29
f 3 29 33
f 3 33 36
f 3 36 35
f 3 35 31
f 3 31 27
f 3 27 23
f 3 23 19
f 3 19 15
f 3 15 11
f 3 11 7
f 4 7 11
f 4 11 8
f 5 9 13
f 5 13 10
f 8 11 15
f 8 15 12
f 9 14 17
f 9 17 13
f 12 15 19
f 12 19 16
f 14 18 21
f 14 21 17
f 16 19 23
f 16 23 20
f 18 22 25
f 18 25 21
f 20 23 27
f 20 27 24
f 22 26 29
f 22 29 25
f 24 27 31
f 24 31 28
f 26 30 33
f 26 33 29
f 28 31 35
f 28 35 32
f 30 34 36
f 30 36 33
f 32 35 36
f 32 36 34

