# https://github.com/mikedh/trimesh
v 0.02299961 0.05459666 0.00700000
v 0.02299961 0.05459666 -0.00701618
v 0.01897854 0.05459666 0.00700000
v 0.02299961 0.01164346 0.00700000
v 0.01897854 0.05459666 -0.00701618
v 0.02299961 0.05009364 -0.00701618
v 0.01897854 0.05009364 0.00700000
v 0.01900019 0.01164346 0.00700000
v 0.02299961 0.01164346 -0.00699971
v 0.01897854 0.05016091 -0.00701618
v 0.01897933 0.05009364 -0.00701618
v 0.01897854 0.05009364 -0.00701206
v 0.01900019 0.01164346 -0.00699971
f 1 2 5
f 1 5 3
f 1 3 7
f 1 7 8
f 1 8 4
f 1 4 9
f 1 9 6
f 1 6 2
f 2 6 11
f 2 11 10
f 2 10 5
f 3 5 10
f 3 10 12
f 3 12 7
f 4 8 13
f 4 13 9
f 6 9 13
f 6 13 11
f 7 12 13
f 7 13 8
f 10 11 13
f 10 13 12

