# https://github.com/mikedh/trimesh
v 0.01900000 -0.01349343 0.00000108
v 0.01900000 -0.00919965 0.00000108
v 0.02300000 -0.01349343 0.00000108
v 0.01900000 -0.01349343 0.00040372
v 0.02300000 -0.00919965 0.00000108
v 0.01900000 -0.00777641 0.00117879
v 0.02300000 -0.01349343 0.00040372
v 0.01900000 -0.01344586 0.00120794
v 0.02300000 -0.00777641 0.00117879
v 0.01900000 -0.00777641 0.01102795
v 0.02300000 -0.01344586 0.00120794
v 0.01900000 -0.01334959 0.00200783
v 0.02300000 -0.00777641 0.01102795
v 0.01900000 -0.00812284 0.01078183
v 0.02300000 -0.01334959 0.00200783
v 0.01900000 -0.01320632 0.00280017
v 0.02300000 -0.00812284 0.01078183
v 0.01900000 -0.00875191 0.01027879
v 0.02300000 -0.01320632 0.00280017
v 0.01900000 -0.01301547 0.00358279
v 0.02300000 -0.00875191 0.01027879
v 0.01900000 -0.00934964 0.00973797
v 0.02300000 -0.01301547 0.00358279
v 0.01900000 -0.01277873 0.00435354
v 0.02300000 -0.00934964 0.00973797
v 0.01900000 -0.00991379 0.00916261
v 0.02300000 -0.01277873 0.00435354
v 0.01900000 -0.01249610 0.00510809
v 0.02300000 -0.00991379 0.00916261
v 0.01900000 -0.01044267 0.00855595
v 0.02300000 -0.01249610 0.00510809
v 0.01900000 -0.01216925 0.00584322
v 0.02300000 -0.01044267 0.00855595
v 0.01900000 -0.01093406 0.00791689
v 0.02300000 -0.01216925 0.00584322
v 0.01900000 -0.01179931 0.00655891
v 0.02300000 -0.01093406 0.00791689
v 0.01900000 -0.01138683 0.00725086
v 0.02300000 -0.01179931 0.00655891
v 0.02300000 -0.01138683 0.00725086
f 1 2 5
f 1 5 3
f 1 3 7
f 1 7 4
f 1 4 8
f 1 8 12
f 1 12 16
f 1 16 20
f 1 20 24
f 1 24 28
f 1 28 32
f 1 32 36
f 1 36 38
f 1 38 34
f 1 34 30
f 1 30 26
f 1 26 22
f 1 22 18
f 1 18 14
f 1 14 10
f 1 10 6
f 1 6 2
f 2 6 9
f 2 9 5
f 3 5 9
f 3 9 13
f 3 13 17
f 3 17 21
f 3 21 25
f 3 25 29
f 3 29 33
f 3 33 37
f 3 37 40
f 3 40 39
f 3 39 35
f 3 35 31
f 3 31 27
f 3 27 23
f 3 23 19
f 3 19 15
f 3 15 11
f 3 11 7
f 4 7 11
f 4 11 8
f 6 10 13
f 6 13 9
f 8 11 15
f 8 15 12
f 10 14 17
f 10 17 13
f 12 15 19
f 12 19 16
f 14 18 21
f 14 21 17
f 16 19 23
f 16 23 20
f 18 22 25
f 18 25 21
f 20 23 27
f 20 27 24
f 22 26 29
f 22 29 25
f 24 27 31
f 24 31 28
f 26 30 33
f 26 33 29
f 28 31 35
f 28 35 32
f 30 34 37
f 30 37 33
f 32 35 39
f 32 39 36
f 34 38 40
f 34 40 37
f 36 39 40
f 36 40 38

