# https://github.com/mikedh/trimesh
v 0.01900000 0.00119468 -0.00789204
v 0.01900000 -0.00102081 -0.00736913
v 0.01900000 0.00153013 -0.00789204
v 0.02300000 0.00119468 -0.00789204
v 0.02294479 -0.00102131 -0.00736990
v 0.01900000 -0.00102131 -0.00736760
v 0.01900000 0.00153013 -0.00528107
v 0.02300000 0.00153013 -0.00789204
v 0.02300000 -0.00102081 -0.00736913
v 0.02300000 -0.00102131 -0.00736760
v 0.01900000 -0.00102131 -0.00540222
v 0.02300000 0.00153013 -0.00528107
v 0.02300000 -0.00102131 -0.00540222
f 1 2 6
f 1 6 11
f 1 11 7
f 1 7 3
f 1 3 8
f 1 8 4
f 1 4 5
f 1 5 2
f 2 5 6
f 3 7 12
f 3 12 8
f 4 8 12
f 4 12 13
f 4 13 10
f 4 10 9
f 4 9 5
f 5 9 10
f 5 10 13
f 5 13 11
f 5 11 6
f 7 11 13
f 7 13 12

