# https://github.com/mikedh/trimesh
v -0.01897854 0.05460000 0.00700000
v -0.02299961 0.05460000 0.00700000
v -0.01897854 0.05009860 0.00700000
v -0.01897854 0.05460000 -0.00701618
v -0.02299961 0.05460000 -0.00701618
v -0.02299961 0.02473662 0.00700000
v -0.01897854 0.05009439 0.00699177
v -0.01900019 0.01158191 0.00700000
v -0.01897854 0.05009439 -0.00701618
v -0.02299961 0.05009439 -0.00701618
v -0.02299961 0.01158191 0.00698628
v -0.02299606 0.01158191 0.00700000
v -0.01900019 0.01158191 -0.00699971
v -0.02299961 0.01158191 -0.00699971
f 1 2 6
f 1 6 12
f 1 12 8
f 1 8 3
f 1 3 7
f 1 7 9
f 1 9 4
f 1 4 5
f 1 5 2
f 2 5 10
f 2 10 14
f 2 14 11
f 2 11 6
f 3 8 7
f 4 9 10
f 4 10 5
f 6 11 12
f 7 8 13
f 7 13 9
f 8 12 11
f 8 11 14
f 8 14 13
f 9 13 14
f 9 14 10

