# https://github.com/mikedh/trimesh
v -0.01900000 -0.00103511 -0.00860643
v -0.02300000 -0.00103511 -0.00860643
v -0.01900000 -0.00199661 -0.00860643
v -0.01900000 0.00004552 -0.00919911
v -0.02300000 -0.00199661 -0.00860643
v -0.02300000 0.00004552 -0.00919911
v -0.01900000 -0.00199661 -0.01334597
v -0.01900000 0.00004552 -0.01349677
v -0.02300000 -0.00199661 -0.01334597
v -0.02300000 0.00004552 -0.01349677
v -0.01900000 -0.00146069 -0.01342065
v -0.01900000 -0.00065771 -0.01348385
v -0.02300000 -0.00146069 -0.01342065
v -0.02300000 -0.00065771 -0.01348385
f 1 2 5
f 1 5 3
f 1 3 7
f 1 7 11
f 1 11 12
f 1 12 8
f 1 8 4
f 1 4 6
f 1 6 2
f 2 6 10
f 2 10 14
f 2 14 13
f 2 13 9
f 2 9 5
f 3 5 9
f 3 9 7
f 4 8 10
f 4 10 6
f 7 9 13
f 7 13 11
f 8 12 14
f 8 14 10
f 11 13 14
f 11 14 12

