# https://github.com/mikedh/trimesh
v -0.02300000 0.00274787 0.00476238
v -0.02300000 0.00004409 0.00549875
v -0.02300000 0.00274787 0.00801301
v -0.01900000 0.00274787 0.00476238
v -0.02300000 0.00004409 0.00680090
v -0.01900000 0.00004409 0.00549875
v -0.02300000 0.00120263 0.00801301
v -0.01900000 0.00274787 0.00801301
v -0.01900000 0.00004409 0.00680090
v -0.01927565 0.00119998 0.00801301
v -0.01900000 0.00120263 0.00801301
f 1 2 5
f 1 5 7
f 1 7 3
f 1 3 8
f 1 8 4
f 1 4 6
f 1 6 2
f 2 6 9
f 2 9 5
f 3 7 10
f 3 10 11
f 3 11 8
f 4 8 11
f 4 11 9
f 4 9 6
f 5 9 10
f 5 10 7
f 9 11 10

