# https://github.com/mikedh/trimesh
v 0.01900000 0.00153038 -0.01340710
v 0.01900000 0.00175507 -0.01338507
v 0.02300000 0.00153038 -0.01340710
v 0.01900000 0.00153038 -0.00528248
v 0.02300000 0.00175507 -0.01338507
v 0.01900000 0.00255090 -0.01325588
v 0.02300000 0.00153038 -0.00528248
v 0.01900000 0.00448703 -0.00317847
v 0.02300000 0.00255090 -0.01325588
v 0.01900000 0.00333684 -0.01308063
v 0.02300000 0.00448703 -0.00317847
v 0.01900000 0.01164260 -0.00317847
v 0.02300000 0.00333684 -0.01308063
v 0.01900000 0.00411188 -0.01285831
v 0.02300000 0.01164260 -0.00317847
v 0.01900000 0.01164260 -0.00700094
v 0.02300000 0.00411188 -0.01285831
v 0.01900000 0.00487109 -0.01258893
v 0.02300000 0.01164260 -0.00700094
v 0.01900000 0.01062603 -0.00832483
v 0.02300000 0.00487109 -0.01258893
v 0.01900000 0.00561348 -0.01227748
v 0.02300000 0.01062603 -0.00832483
v 0.01900000 0.01011131 -0.00894271
v 0.02300000 0.00561348 -0.01227748
v 0.01900000 0.00633606 -0.01191997
v 0.02300000 0.01011131 -0.00894271
v 0.01900000 0.00955997 -0.00953055
v 0.02300000 0.00633606 -0.01191997
v 0.01900000 0.00703489 -0.01152040
v 0.02300000 0.00955997 -0.00953055
v 0.01900000 0.00897399 -0.01008334
v 0.02300000 0.00703489 -0.01152040
v 0.01900000 0.00770897 -0.01108077
v 0.02300000 0.00897399 -0.01008334
v 0.01900000 0.00835632 -0.01060109
v 0.02300000 0.00770897 -0.01108077
v 0.02300000 0.00835632 -0.01060109
f 1 2 5
f 1 5 3
f 1 3 7
f 1 7 4
f 1 4 8
f 1 8 12
f 1 12 16
f 1 16 20
f 1 20 24
f 1 24 28
f 1 28 32
f 1 32 36
f 1 36 34
f 1 34 30
f 1 30 26
f 1 26 22
f 1 22 18
f 1 18 14
f 1 14 10
f 1 10 6
f 1 6 2
f 2 6 9
f 2 9 5
f 3 5 9
f 3 9 13
f 3 13 17
f 3 17 21
f 3 21 25
f 3 25 29
f 3 29 33
f 3 33 37
f 3 37 38
f 3 38 35
f 3 35 31
f 3 31 27
f 3 27 23
f 3 23 19
f 3 19 15
f 3 15 11
f 3 11 7
f 4 7 11
f 4 11 8
f 6 10 13
f 6 13 9
f 8 11 15
f 8 15 12
f 10 14 17
f 10 17 13
f 12 15 19
f 12 19 16
f 14 18 21
f 14 21 17
f 16 19 23
f 16 23 20
f 18 22 25
f 18 25 21
f 20 23 27
f 20 27 24
f 22 26 29
f 22 29 25
f 24 27 31
f 24 31 28
f 26 30 33
f 26 33 29
f 28 31 35
f 28 35 32
f 30 34 37
f 30 37 33
f 32 35 38
f 32 38 36
f 34 36 38
f 34 38 37

