# https://github.com/mikedh/trimesh
v 0.02300000 -0.00268052 -0.00480250
v 0.02300000 -0.00102147 -0.00540217
v 0.01900000 -0.00268052 -0.00480250
v 0.02300000 -0.00268052 -0.01322496
v 0.01900000 -0.00102147 -0.00540217
v 0.02300000 -0.00102147 -0.01345534
v 0.01900000 -0.00268052 -0.01322496
v 0.02300000 -0.00225857 -0.01330965
v 0.01900000 -0.00102147 -0.01345534
v 0.02300000 -0.00146080 -0.01342061
v 0.01900000 -0.00225857 -0.01330965
v 0.01900000 -0.00146080 -0.01342061
f 1 2 5
f 1 5 3
f 1 3 7
f 1 7 4
f 1 4 8
f 1 8 10
f 1 10 6
f 1 6 2
f 2 6 9
f 2 9 5
f 3 5 9
f 3 9 12
f 3 12 11
f 3 11 7
f 4 7 11
f 4 11 8
f 6 10 12
f 6 12 9
f 8 11 12
f 8 12 10

