# https://github.com/mikedh/trimesh
v 0.02300000 0.00153013 -0.00789259
v 0.01900000 0.00153013 -0.00789259
v 0.02300000 0.00119468 -0.00789259
v 0.02300000 0.00153013 -0.01340808
v 0.01900000 0.00119468 -0.00789259
v 0.01900000 0.00153013 -0.01340808
v 0.02300000 -0.00102131 -0.00862916
v 0.02300000 0.00095290 -0.01346626
v 0.01900000 -0.00102131 -0.00862916
v 0.01900000 0.00095290 -0.01346626
v 0.02300000 -0.00102131 -0.01345528
v 0.02300000 0.00014813 -0.01349919
v 0.01900000 -0.00102131 -0.01345528
v 0.01900000 0.00014813 -0.01349919
v 0.02300000 -0.00065739 -0.01348382
v 0.01900000 -0.00065739 -0.01348382
f 1 2 5
f 1 5 3
f 1 3 7
f 1 7 11
f 1 11 15
f 1 15 12
f 1 12 8
f 1 8 4
f 1 4 6
f 1 6 2
f 2 6 10
f 2 10 14
f 2 14 16
f 2 16 13
f 2 13 9
f 2 9 5
f 3 5 9
f 3 9 7
f 4 8 10
f 4 10 6
f 7 9 13
f 7 13 11
f 8 12 14
f 8 14 10
f 11 13 16
f 11 16 15
f 12 15 16
f 12 16 14

