# https://github.com/mikedh/trimesh
v -0.01900000 0.00004389 0.01349676
v -0.02300000 0.00004389 0.01349676
v -0.01900000 -0.00065765 0.01348358
v -0.01900000 0.00004389 0.00919876
v -0.02300000 -0.00065765 0.01348358
v -0.02300000 0.00004389 0.00919876
v -0.01900000 -0.00146066 0.01342050
v -0.01900000 -0.00098265 0.00868899
v -0.02300000 -0.00146066 0.01342050
v -0.02300000 -0.00098265 0.00868899
v -0.01900000 -0.00199661 0.01334613
v -0.01900000 -0.00199661 0.00868899
v -0.02300000 -0.00199661 0.01334613
v -0.02300000 -0.00199661 0.00868899
f 1 2 5
f 1 5 3
f 1 3 7
f 1 7 11
f 1 11 12
f 1 12 8
f 1 8 4
f 1 4 6
f 1 6 2
f 2 6 10
f 2 10 14
f 2 14 13
f 2 13 9
f 2 9 5
f 3 5 9
f 3 9 7
f 4 8 10
f 4 10 6
f 7 9 13
f 7 13 11
f 8 12 14
f 8 14 10
f 11 13 14
f 11 14 12

