# https://github.com/mikedh/trimesh
v 0.01897815 0.05459957 0.00700000
v 0.01698485 0.05464406 -0.01424846
v 0.00000000 0.05459957 0.00700000
v 0.01897815 0.05010045 0.00700000
v 0.01897815 0.05459957 -0.01825000
v 0.01699971 0.05464406 -0.01425340
v 0.00000000 0.05464406 -0.01424846
v 0.00000000 0.05010045 0.00700000
v 0.01897815 0.05010045 -0.01825000
v 0.01699971 0.05464406 -0.01825000
v 0.00000000 0.05464406 -0.01825000
v 0.00000000 0.05010045 -0.01825000
f 1 2 7
f 1 7 3
f 1 3 8
f 1 8 4
f 1 4 9
f 1 9 5
f 1 5 10
f 1 10 6
f 1 6 2
f 2 6 10
f 2 10 11
f 2 11 7
f 3 7 11
f 3 11 12
f 3 12 8
f 4 8 12
f 4 12 9
f 5 9 12
f 5 12 11
f 5 11 10

