# https://github.com/mikedh/trimesh
v 0.00000000 0.05459957 0.00700000
v -0.01897815 0.05459957 0.00700000
v 0.00000000 0.05010045 0.00700000
v 0.00000000 0.05464406 -0.01424846
v -0.01897815 0.05010267 0.00700000
v -0.01699971 0.05464406 -0.01424846
v -0.01897815 0.05459957 -0.01825000
v -0.01897815 0.05010045 0.00699011
v 0.00000000 0.05010045 -0.01825000
v 0.00000000 0.05464406 -0.01825000
v -0.01699971 0.05464406 -0.01825000
v -0.01897815 0.05010045 -0.01825000
f 1 2 5
f 1 5 3
f 1 3 9
f 1 9 10
f 1 10 4
f 1 4 6
f 1 6 2
f 2 6 11
f 2 11 7
f 2 7 12
f 2 12 8
f 2 8 5
f 3 5 8
f 3 8 12
f 3 12 9
f 4 10 11
f 4 11 6
f 7 11 10
f 7 10 9
f 7 9 12

