# https://github.com/mikedh/trimesh
v -0.02300000 0.00750062 -0.00325332
v -0.01900000 0.00750062 -0.00325332
v -0.02300000 0.00750062 -0.00109070
v -0.02300000 0.01158062 -0.00325332
v -0.01900000 0.00750062 -0.00109070
v -0.01900000 0.01158062 -0.00325332
v -0.02300000 0.00919972 -0.00000000
v -0.02300000 0.01158062 -0.00000000
v -0.01900000 0.00919972 -0.00000000
v -0.01900000 0.01158062 -0.00000000
f 1 2 5
f 1 5 3
f 1 3 7
f 1 7 8
f 1 8 4
f 1 4 6
f 1 6 2
f 2 6 10
f 2 10 9
f 2 9 5
f 3 5 9
f 3 9 7
f 4 8 10
f 4 10 6
f 7 9 10
f 7 10 8

