# https://github.com/mikedh/trimesh
v 0.02300000 0.00014810 0.01349919
v 0.01900000 0.00014810 0.01349919
v 0.02300000 -0.00006058 0.01349472
v 0.02300000 0.00095292 0.01346625
v 0.01900000 0.00095292 0.01346625
v 0.01900000 -0.00006058 0.01349472
v 0.02300000 -0.00006058 0.00919853
v 0.02300000 0.00153022 0.01340764
v 0.01900000 0.00153022 0.01340764
v 0.01900000 -0.00006058 0.00919853
v 0.02259162 0.00118232 0.00779679
v 0.02300000 0.00118699 0.00779679
v 0.02300000 0.00153022 0.00779679
v 0.01900000 0.00153022 0.00779679
v 0.01900000 0.00118668 0.00779679
f 1 2 6
f 1 6 3
f 1 3 7
f 1 7 12
f 1 12 13
f 1 13 8
f 1 8 4
f 1 4 5
f 1 5 2
f 2 5 9
f 2 9 14
f 2 14 15
f 2 15 10
f 2 10 6
f 3 6 10
f 3 10 7
f 4 8 9
f 4 9 5
f 7 10 11
f 7 11 12
f 8 13 14
f 8 14 9
f 10 15 11
f 11 15 14
f 11 14 13
f 11 13 12

