# https://github.com/mikedh/trimesh
v 0.01900000 0.00153022 0.00528070
v 0.01900000 -0.00006058 0.00549837
v 0.01900000 0.00153022 0.00779623
v 0.02300000 0.00153022 0.00528070
v 0.01900000 -0.00006058 0.00680194
v 0.02300000 -0.00006058 0.00549837
v 0.01900000 0.00118668 0.00779623
v 0.02300000 0.00153022 0.00779623
v 0.02300000 -0.00006058 0.00680194
v 0.02259162 0.00118232 0.00779623
v 0.02300000 0.00118699 0.00779623
f 1 2 5
f 1 5 7
f 1 7 3
f 1 3 8
f 1 8 4
f 1 4 6
f 1 6 2
f 2 6 9
f 2 9 5
f 3 7 10
f 3 10 11
f 3 11 8
f 4 8 11
f 4 11 9
f 4 9 6
f 5 9 10
f 5 10 7
f 9 11 10

