# https://github.com/mikedh/trimesh
v -0.02300000 0.00443291 -0.00325332
v -0.02300000 0.00549818 -0.00000000
v -0.02300000 0.00750022 -0.00325332
v -0.01900000 0.00443291 -0.00325332
v -0.02300000 0.00680035 -0.00000000
v -0.01900000 0.00549818 -0.00000000
v -0.02300000 0.00750022 -0.00109070
v -0.01900000 0.00750022 -0.00325332
v -0.01900000 0.00680035 -0.00000000
v -0.01900000 0.00750022 -0.00109070
f 1 2 5
f 1 5 7
f 1 7 3
f 1 3 8
f 1 8 4
f 1 4 6
f 1 6 2
f 2 6 9
f 2 9 5
f 3 7 10
f 3 10 8
f 4 8 10
f 4 10 9
f 4 9 6
f 5 9 10
f 5 10 7

