# https://github.com/mikedh/trimesh
v -0.01900000 0.00014812 0.01349919
v -0.01900000 0.00004409 0.01349704
v -0.01900000 0.00095303 0.01346589
v -0.02300000 0.00014812 0.01349919
v -0.02300000 0.00004409 0.01349704
v -0.01900000 0.00004409 0.00919874
v -0.02300000 0.00095303 0.01346589
v -0.01900000 0.00175450 0.01338534
v -0.02300000 0.00004409 0.00919874
v -0.01927565 0.00119998 0.00801301
v -0.01900000 0.00120263 0.00801301
v -0.02300000 0.00175450 0.01338534
v -0.01900000 0.00254989 0.01325646
v -0.02300000 0.00120263 0.00801301
v -0.01900000 0.00274787 0.00801301
v -0.02300000 0.00254989 0.01325646
v -0.01900000 0.00274787 0.01321242
v -0.02300000 0.00274787 0.00801301
v -0.02300000 0.00274787 0.01321242
f 1 2 6
f 1 6 11
f 1 11 15
f 1 15 17
f 1 17 13
f 1 13 8
f 1 8 3
f 1 3 7
f 1 7 4
f 1 4 5
f 1 5 2
f 2 5 9
f 2 9 6
f 3 8 12
f 3 12 7
f 4 7 12
f 4 12 16
f 4 16 19
f 4 19 18
f 4 18 14
f 4 14 9
f 4 9 5
f 6 9 10
f 6 10 11
f 8 13 16
f 8 16 12
f 9 14 10
f 10 14 18
f 10 18 15
f 10 15 11
f 13 17 19
f 13 19 16
f 15 18 19
f 15 19 17

