# https://github.com/mikedh/trimesh
v -0.02300000 0.00274900 0.00476273
v -0.01900000 0.00274900 0.00476273
v -0.02300000 0.00274900 0.01321270
v -0.02300000 0.00437872 0.00332439
v -0.01900000 0.00274900 0.01321270
v -0.01900000 0.00437872 0.00332439
v -0.02300000 0.00333691 0.01308106
v -0.02300000 0.01158062 0.00332439
v -0.01900000 0.00333691 0.01308106
v -0.01900000 0.01158062 0.00332439
v -0.02300000 0.00411157 0.01285844
v -0.02300000 0.01158062 0.00698701
v -0.01900000 0.00411157 0.01285844
v -0.01900000 0.01158062 0.00700056
v -0.02300000 0.00487066 0.01259032
v -0.02300000 0.01110510 0.00767618
v -0.02299608 0.01158062 0.00700056
v -0.01900000 0.00487066 0.01259032
v -0.01900000 0.01110510 0.00767618
v -0.02300000 0.00561333 0.01227768
v -0.02300000 0.01062699 0.00832468
v -0.01900000 0.00561333 0.01227768
v -0.01900000 0.01062699 0.00832468
v -0.02300000 0.00633611 0.01192052
v -0.02300000 0.01011171 0.00894319
v -0.01900000 0.00633611 0.01192052
v -0.01900000 0.01011171 0.00894319
v -0.02300000 0.00703556 0.01152174
v -0.02300000 0.00956011 0.00953072
v -0.01900000 0.00703556 0.01152174
v -0.01900000 0.00956011 0.00953072
v -0.02300000 0.00770992 0.01108133
v -0.02300000 0.00897479 0.01008437
v -0.01900000 0.00770992 0.01108133
v -0.01900000 0.00897479 0.01008437
v -0.02300000 0.00835663 0.01060124
v -0.01900000 0.00835663 0.01060124
f 1 2 5
f 1 5 3
f 1 3 7
f 1 7 11
f 1 11 15
f 1 15 20
f 1 20 24
f 1 24 28
f 1 28 32
f 1 32 36
f 1 36 33
f 1 33 29
f 1 29 25
f 1 25 21
f 1 21 16
f 1 16 12
f 1 12 8
f 1 8 4
f 1 4 6
f 1 6 2
f 2 6 10
f 2 10 14
f 2 14 19
f 2 19 23
f 2 23 27
f 2 27 31
f 2 31 35
f 2 35 37
f 2 37 34
f 2 34 30
f 2 30 26
f 2 26 22
f 2 22 18
f 2 18 13
f 2 13 9
f 2 9 5
f 3 5 9
f 3 9 7
f 4 8 10
f 4 10 6
f 7 9 13
f 7 13 11
f 8 12 17
f 8 17 14
f 8 14 10
f 11 13 18
f 11 18 15
f 12 16 17
f 14 17 16
f 14 16 19
f 15 18 22
f 15 22 20
f 16 21 23
f 16 23 19
f 20 22 26
f 20 26 24
f 21 25 27
f 21 27 23
f 24 26 30
f 24 30 28
f 25 29 31
f 25 31 27
f 28 30 34
f 28 34 32
f 29 33 35
f 29 35 31
f 32 34 37
f 32 37 36
f 33 36 37
f 33 37 35

