# https://github.com/mikedh/trimesh
v -0.01700000 0.05464907 -0.01825000
v -0.01700000 0.05464907 -0.01425059
v -0.01700000 0.10134543 -0.01825000
v 0.01700000 0.05464907 -0.01825000
v 0.00000000 0.05464907 -0.01425020
v -0.01700000 0.10134543 -0.01425059
v 0.00000000 0.10134543 -0.01825000
v 0.01700000 0.10134085 -0.01825000
v 0.01700000 0.05464907 -0.01425450
v 0.01698336 0.05464907 -0.01425020
v 0.00000000 0.10134085 -0.01425020
v 0.00000000 0.10134543 -0.01425059
v 0.01700000 0.10134085 -0.01425020
f 1 2 6
f 1 6 3
f 1 3 7
f 1 7 8
f 1 8 4
f 1 4 9
f 1 9 10
f 1 10 5
f 1 5 2
f 2 5 11
f 2 11 6
f 3 6 12
f 3 12 7
f 4 8 13
f 4 13 9
f 5 10 13
f 5 13 11
f 6 11 13
f 6 13 12
f 7 12 13
f 7 13 8
f 9 13 10

