# https://github.com/mikedh/trimesh
v 0.01284165 -0.00889221 0.03547467
v 0.01249592 -0.00786806 0.03553823
v 0.01293369 -0.00468357 0.03576850
v 0.01410590 -0.00889221 0.03550228
v 0.01284165 -0.00889221 0.04050319
v 0.01217121 -0.00674093 0.03560960
v 0.01188645 -0.00555323 0.03568566
v 0.01249592 -0.00786806 0.04056675
v 0.01171942 -0.00468357 0.03574245
v 0.01293369 -0.00468357 0.04079703
v 0.01410590 -0.00889221 0.04053081
v 0.01217121 -0.00674093 0.04063761
v 0.01188645 -0.00555323 0.04071367
v 0.01171942 -0.00468357 0.04077046
f 1 2 3
f 1 3 4
f 1 4 11
f 1 11 5
f 1 5 8
f 1 8 2
f 2 6 7
f 2 7 3
f 2 8 12
f 2 12 6
f 3 7 9
f 3 9 14
f 3 14 10
f 3 10 11
f 3 11 4
f 5 11 8
f 6 12 13
f 6 13 7
f 7 13 14
f 7 14 9
f 8 11 10
f 8 10 14
f 8 14 12
f 12 14 13

