# https://github.com/mikedh/trimesh
v 0.02567007 0.01817037 0.04265751
v 0.02538796 0.01825526 0.04265701
v 0.02488125 0.01837573 0.04265449
v 0.02341145 0.01854679 0.04263437
v 0.02313753 0.01734651 0.04254530
v 0.02567007 0.01781517 0.04263286
v 0.02567007 0.01817037 0.03762890
v 0.02538796 0.01825526 0.03762890
v 0.02438248 0.01846334 0.04264946
v 0.02389213 0.01851982 0.04264292
v 0.02488125 0.01837573 0.03762638
v 0.02313753 0.01854903 0.04262833
v 0.02341145 0.01854679 0.03760625
v 0.02567007 0.01691903 0.04257046
v 0.02552405 0.01697120 0.04257096
v 0.02313753 0.01734651 0.03751668
v 0.02567007 0.01781517 0.03760424
v 0.02313753 0.01854903 0.03760021
v 0.02438248 0.01846334 0.03762135
v 0.02389213 0.01851982 0.03761481
v 0.02567007 0.01691903 0.03754234
v 0.02567007 0.01740795 0.03757606
f 1 2 3
f 1 3 4
f 1 4 5
f 1 5 6
f 1 6 14
f 1 14 21
f 1 21 22
f 1 22 17
f 1 17 7
f 1 7 8
f 1 8 2
f 2 8 11
f 2 11 3
f 3 9 10
f 3 10 4
f 3 11 19
f 3 19 9
f 4 12 5
f 4 10 20
f 4 20 13
f 4 13 18
f 4 18 12
f 5 14 15
f 5 15 6
f 5 12 18
f 5 18 16
f 5 16 21
f 5 21 14
f 6 15 14
f 7 17 16
f 7 16 18
f 7 18 19
f 7 19 8
f 8 19 11
f 9 19 20
f 9 20 10
f 13 20 18
f 16 17 22
f 16 22 21
f 18 20 19

