# https://github.com/mikedh/trimesh
v 0.03486827 0.00736312 0.04210845
v 0.03361614 0.00736312 0.04208122
v 0.03446750 0.00414135 0.04187649
v 0.03616050 -0.00037140 0.04160043
v 0.03566881 0.00422994 0.04190862
v 0.03529619 0.00588664 0.04201534
v 0.03487350 0.00734798 0.04210736
v 0.03486827 0.00736312 0.03708002
v 0.03361614 0.00736312 0.03705279
v 0.03496740 -0.00037140 0.04157430
v 0.03500950 -0.00037140 0.04157539
v 0.03481347 0.00187286 0.04172676
v 0.03616050 -0.00037140 0.03657200
v 0.03610620 0.00089535 0.04168701
v 0.03566881 0.00422994 0.03688019
v 0.03593832 0.00255962 0.04179863
v 0.03529619 0.00588664 0.03698691
v 0.03487350 0.00734798 0.03707893
v 0.03362212 0.00734571 0.03705170
v 0.03496740 -0.00037140 0.03654586
v 0.03593832 0.00255962 0.03677020
v 0.03610620 0.00089535 0.03665858
v 0.03392699 0.00637198 0.03699072
f 1 2 3
f 1 3 4
f 1 4 5
f 1 5 6
f 1 6 7
f 1 7 18
f 1 18 8
f 1 8 9
f 1 9 2
f 2 9 20
f 2 20 10
f 2 10 11
f 2 11 12
f 2 12 3
f 3 12 4
f 4 11 10
f 4 10 20
f 4 20 13
f 4 13 22
f 4 22 14
f 4 14 5
f 4 12 11
f 5 15 17
f 5 17 6
f 5 14 16
f 5 16 21
f 5 21 15
f 6 17 18
f 6 18 7
f 8 18 9
f 9 18 19
f 9 19 20
f 13 20 21
f 13 21 22
f 14 22 21
f 14 21 16
f 15 18 17
f 15 21 18
f 18 21 20
f 18 20 23
f 18 23 19
f 19 23 20

