# https://github.com/mikedh/trimesh
v 0.02424956 -0.01806436 0.04011538
v 0.01959036 -0.01652009 0.04012142
v 0.02314268 -0.01798271 0.04009724
v 0.02424956 -0.01832755 0.04009724
v 0.02424956 -0.01806436 0.03508706
v 0.01959036 -0.01791449 0.04002471
v 0.02303642 -0.01917730 0.04001212
v 0.01959036 -0.01652009 0.03509311
v 0.02355087 -0.01923666 0.04001917
v 0.02424956 -0.01926190 0.04003227
v 0.02424956 -0.01926190 0.03500395
v 0.02238378 -0.01782694 0.03506288
v 0.01991326 -0.01673414 0.03508505
v 0.01988407 -0.01808906 0.04001867
v 0.02047513 -0.01839201 0.04001061
v 0.02101831 -0.01862862 0.04000608
v 0.01959036 -0.01791449 0.03499640
v 0.02201710 -0.01896406 0.04000456
v 0.02252517 -0.01908626 0.04000708
v 0.02303642 -0.01917730 0.03498381
v 0.01959036 -0.01727396 0.03504072
v 0.02406622 -0.01926378 0.04002824
v 0.02355087 -0.01923666 0.03499086
v 0.02406622 -0.01926378 0.03499992
v 0.02252517 -0.01908626 0.03497877
v 0.02151497 -0.01881124 0.03497575
v 0.02047513 -0.01839201 0.03498229
v 0.01988407 -0.01808906 0.03499086
v 0.02151497 -0.01881124 0.04000406
v 0.02101831 -0.01862862 0.03497776
v 0.02201710 -0.01896406 0.03497625
f 1 2 3
f 1 3 4
f 1 4 10
f 1 10 11
f 1 11 5
f 1 5 8
f 1 8 2
f 2 6 7
f 2 7 3
f 2 8 21
f 2 21 17
f 2 17 6
f 3 7 9
f 3 9 4
f 4 9 10
f 5 11 12
f 5 12 13
f 5 13 8
f 6 14 15
f 6 15 16
f 6 16 7
f 6 17 28
f 6 28 14
f 7 16 18
f 7 18 19
f 7 19 25
f 7 25 20
f 7 20 23
f 7 23 9
f 8 13 21
f 9 22 10
f 9 23 24
f 9 24 22
f 10 22 24
f 10 24 11
f 11 24 25
f 11 25 26
f 11 26 12
f 12 26 13
f 13 26 27
f 13 27 21
f 14 28 27
f 14 27 15
f 15 27 30
f 15 30 16
f 16 29 18
f 16 30 26
f 16 26 29
f 17 21 27
f 17 27 28
f 18 29 26
f 18 26 31
f 18 31 25
f 18 25 19
f 20 25 23
f 23 25 24
f 25 31 26
f 26 30 27

