# https://github.com/mikedh/trimesh
v 0.03030526 0.01525279 0.04255609
v 0.03096635 0.01454377 0.04252107
v 0.03035707 0.01520336 0.04255339
v 0.03030526 0.01525279 0.03752769
v 0.03030526 0.01432828 0.04249198
v 0.03333333 0.00815557 0.04212996
v 0.03486769 0.00736312 0.04210841
v 0.03334405 0.01102257 0.04232875
v 0.03155687 0.01382547 0.04248390
v 0.03096635 0.01454377 0.03749267
v 0.03212415 0.01304925 0.04244242
v 0.03035707 0.01520336 0.03752553
v 0.03030526 0.01517170 0.03752176
v 0.03030526 0.01365323 0.04244511
v 0.03363216 0.00736312 0.04208148
v 0.03486769 0.00736312 0.03708001
v 0.03442413 0.00862516 0.04218599
v 0.03391312 0.00985322 0.04225979
v 0.03334405 0.01102257 0.03730035
v 0.03272271 0.01212319 0.04239124
v 0.03155687 0.01382547 0.03745604
v 0.03212415 0.01304925 0.03741456
v 0.03030526 0.01350803 0.03740648
v 0.03442413 0.00862516 0.03715759
v 0.03361608 0.00736312 0.03705254
v 0.03030526 0.01350803 0.04243488
v 0.03361608 0.00736312 0.04208094
v 0.03391312 0.00985322 0.03723193
v 0.03272271 0.01212319 0.03736338
f 1 2 3
f 1 3 12
f 1 12 4
f 1 4 13
f 1 13 23
f 1 23 26
f 1 26 14
f 1 14 5
f 1 5 6
f 1 6 7
f 1 7 8
f 1 8 2
f 2 9 21
f 2 21 10
f 2 10 12
f 2 12 3
f 2 8 11
f 2 11 9
f 4 12 10
f 4 10 13
f 5 14 6
f 6 15 7
f 6 14 15
f 7 15 27
f 7 27 25
f 7 25 16
f 7 16 24
f 7 24 17
f 7 17 8
f 8 17 18
f 8 18 28
f 8 28 19
f 8 19 29
f 8 29 20
f 8 20 11
f 9 11 22
f 9 22 21
f 10 21 22
f 10 22 19
f 10 19 13
f 11 20 29
f 11 29 22
f 13 19 24
f 13 24 25
f 13 25 23
f 14 26 15
f 15 26 27
f 16 25 24
f 17 24 28
f 17 28 18
f 19 28 24
f 19 22 29
f 23 25 27
f 23 27 26

