# https://github.com/mikedh/trimesh
v 0.03127371 -0.01585829 0.03539243
v 0.03127371 -0.01402025 0.03552006
v 0.03176414 -0.01331580 0.03557941
v 0.03263323 -0.01182920 0.03570126
v 0.03375467 -0.01219562 0.03570021
v 0.03335833 -0.01294385 0.03563981
v 0.03292613 -0.01367434 0.03557994
v 0.03251185 -0.01430385 0.03552741
v 0.03218231 -0.01476217 0.03548855
v 0.03147591 -0.01563662 0.03541239
v 0.03127371 -0.01585829 0.04042088
v 0.03262309 -0.01182920 0.03570126
v 0.03127371 -0.01402025 0.04054798
v 0.03392854 -0.01182920 0.03572962
v 0.03375467 -0.01219562 0.04072865
v 0.03335833 -0.01294385 0.04066825
v 0.03292613 -0.01367434 0.04060838
v 0.03251185 -0.01430385 0.04055533
v 0.03183691 -0.01520709 0.03545021
v 0.03218231 -0.01476217 0.04051646
v 0.03147591 -0.01563662 0.04044083
v 0.03127371 -0.01494479 0.04048443
v 0.03262309 -0.01182920 0.04072970
v 0.03127371 -0.01402301 0.04054798
v 0.03392854 -0.01182920 0.04075807
v 0.03183691 -0.01520709 0.04047812
v 0.03176414 -0.01331580 0.04060785
f 1 2 3
f 1 3 4
f 1 4 5
f 1 5 6
f 1 6 7
f 1 7 8
f 1 8 9
f 1 9 10
f 1 10 21
f 1 21 11
f 1 11 22
f 1 22 24
f 1 24 13
f 1 13 2
f 2 12 4
f 2 4 3
f 2 13 23
f 2 23 12
f 4 12 23
f 4 23 25
f 4 25 14
f 4 14 5
f 5 14 25
f 5 25 15
f 5 15 16
f 5 16 6
f 6 16 17
f 6 17 7
f 7 17 18
f 7 18 8
f 8 18 20
f 8 20 9
f 9 19 10
f 9 20 26
f 9 26 19
f 10 19 26
f 10 26 21
f 11 21 22
f 13 24 23
f 15 25 16
f 16 25 17
f 17 25 22
f 17 22 21
f 17 21 20
f 17 20 18
f 20 21 26
f 22 25 23
f 22 23 27
f 22 27 24
f 23 24 27

