# https://github.com/mikedh/trimesh
v 0.02801070 -0.01836443 0.03514786
v 0.02801070 -0.01701652 0.03524143
v 0.02833298 -0.01682603 0.03526152
v 0.02924745 -0.01616695 0.03532707
v 0.03070778 -0.01644291 0.03533976
v 0.02944868 -0.01749785 0.03523932
v 0.02900278 -0.01780273 0.03520865
v 0.02807650 -0.01833339 0.03515156
v 0.02801070 -0.01836443 0.04017633
v 0.03127345 -0.01402050 0.03552003
v 0.02801070 -0.01701652 0.04026990
v 0.03030181 -0.01681667 0.03530540
v 0.02988179 -0.01716874 0.03527156
v 0.03127345 -0.01585868 0.03539262
v 0.03109906 -0.01604917 0.03537571
v 0.03070778 -0.01644291 0.04036823
v 0.02944868 -0.01749785 0.04026779
v 0.02854507 -0.01808167 0.03517958
v 0.02900278 -0.01780273 0.04023660
v 0.02807650 -0.01833339 0.04018003
v 0.02801070 -0.01823772 0.04018532
v 0.03127345 -0.01402050 0.04054850
v 0.03030181 -0.01681667 0.04033334
v 0.02988179 -0.01716874 0.04030003
v 0.03127345 -0.01585868 0.04042109
v 0.03109906 -0.01604917 0.04040365
v 0.02854507 -0.01808167 0.04020752
f 1 2 3
f 1 3 4
f 1 4 5
f 1 5 6
f 1 6 7
f 1 7 8
f 1 8 20
f 1 20 9
f 1 9 21
f 1 21 11
f 1 11 2
f 2 10 3
f 2 11 22
f 2 22 10
f 3 10 4
f 4 10 5
f 5 12 13
f 5 13 6
f 5 10 14
f 5 14 15
f 5 15 26
f 5 26 16
f 5 16 23
f 5 23 12
f 6 13 24
f 6 24 17
f 6 17 19
f 6 19 7
f 7 18 8
f 7 19 27
f 7 27 18
f 8 18 27
f 8 27 20
f 9 20 21
f 10 22 25
f 10 25 14
f 11 21 22
f 12 23 24
f 12 24 13
f 14 25 26
f 14 26 15
f 16 26 25
f 16 25 24
f 16 24 23
f 17 24 21
f 17 21 20
f 17 20 27
f 17 27 19
f 21 24 25
f 21 25 22

