# https://github.com/mikedh/trimesh
v 0.01738613 0.01473180 0.03721052
v 0.01738613 0.01631448 0.03732018
v 0.02062401 0.01687370 0.03742933
v 0.01738613 0.01473180 0.04223898
v 0.01767109 0.01654877 0.03734264
v 0.02062401 0.01752924 0.03747476
v 0.01738613 0.01631448 0.04234864
v 0.02062401 0.01687370 0.04245779
v 0.01920556 0.01617751 0.04237893
v 0.01738613 0.01535467 0.04228232
v 0.01818776 0.01692636 0.03738024
v 0.01870823 0.01726096 0.03741470
v 0.02062401 0.01813645 0.03751706
v 0.01767109 0.01654877 0.04237110
v 0.01738613 0.01601854 0.04232828
v 0.01818776 0.01692636 0.04240870
v 0.02062401 0.01813645 0.04254552
v 0.01922996 0.01755356 0.03744656
v 0.01975170 0.01780551 0.03747528
v 0.01870823 0.01726096 0.04244317
v 0.02027154 0.01801747 0.03750139
v 0.02027154 0.01801747 0.04252933
v 0.01975170 0.01780551 0.04250322
v 0.01922996 0.01755356 0.04247450
f 1 2 3
f 1 3 8
f 1 8 4
f 1 4 10
f 1 10 15
f 1 15 7
f 1 7 2
f 2 5 6
f 2 6 3
f 2 7 14
f 2 14 5
f 3 6 13
f 3 13 17
f 3 17 8
f 4 8 9
f 4 9 10
f 5 11 12
f 5 12 13
f 5 13 6
f 5 14 16
f 5 16 11
f 7 15 16
f 7 16 14
f 8 17 9
f 9 17 16
f 9 16 10
f 10 16 15
f 11 16 20
f 11 20 12
f 12 18 19
f 12 19 13
f 12 20 24
f 12 24 18
f 13 19 21
f 13 21 22
f 13 22 17
f 16 17 20
f 17 22 23
f 17 23 24
f 17 24 20
f 18 24 23
f 18 23 19
f 19 23 22
f 19 22 21

