# https://github.com/mikedh/trimesh
v 0.03616072 -0.00037215 0.04160049
v 0.03617666 -0.00074357 0.04157498
v 0.03616072 -0.00037215 0.03657199
v 0.03496783 -0.00037215 0.04157444
v 0.03497728 -0.00156646 0.04149192
v 0.03493706 -0.00271366 0.04141158
v 0.03561765 -0.00672584 0.04114829
v 0.03586676 -0.00533910 0.04124981
v 0.03604896 -0.00387297 0.04135512
v 0.03615498 -0.00233754 0.04146369
v 0.03617666 -0.00074357 0.03654648
v 0.03496783 -0.00037215 0.03654594
v 0.03428334 -0.00724595 0.04108315
v 0.03561765 -0.00672584 0.03611979
v 0.03549514 -0.00724595 0.04110921
v 0.03586676 -0.00533910 0.03622131
v 0.03604896 -0.00387297 0.03632716
v 0.03615498 -0.00233754 0.03643574
v 0.03428334 -0.00724595 0.03605465
v 0.03549514 -0.00724595 0.03608125
f 1 2 11
f 1 11 3
f 1 3 12
f 1 12 4
f 1 4 5
f 1 5 6
f 1 6 7
f 1 7 8
f 1 8 9
f 1 9 2
f 2 10 18
f 2 18 11
f 2 9 10
f 3 11 12
f 4 6 5
f 4 12 19
f 4 19 13
f 4 13 6
f 6 13 7
f 7 14 16
f 7 16 8
f 7 13 15
f 7 15 20
f 7 20 14
f 8 16 17
f 8 17 9
f 9 17 18
f 9 18 10
f 11 18 16
f 11 16 19
f 11 19 12
f 13 19 20
f 13 20 15
f 14 20 19
f 14 19 16
f 16 18 17

