# https://github.com/mikedh/trimesh
v 0.02793594 0.01573783 0.03750947
v 0.02567007 0.01691888 0.03754223
v 0.02595067 0.01681839 0.03754122
v 0.02567007 0.01781514 0.03760421
v 0.02793594 0.01705222 0.03760068
v 0.02793594 0.01573783 0.04253777
v 0.02567007 0.01740772 0.03757599
v 0.02567007 0.01691888 0.04257053
v 0.02567007 0.01817040 0.03762890
v 0.02746679 0.01741749 0.03761580
v 0.02793594 0.01714532 0.03760723
v 0.02793594 0.01574164 0.04253827
v 0.02677539 0.01644527 0.04256196
v 0.02590142 0.01810064 0.04265771
v 0.02567007 0.01817040 0.04265720
v 0.02590142 0.01810064 0.03762941
v 0.02642003 0.01791015 0.03762739
v 0.02694219 0.01768275 0.03762286
v 0.02746679 0.01741749 0.04264410
v 0.02793594 0.01714532 0.04263553
v 0.02642003 0.01791015 0.04265569
v 0.02694219 0.01768275 0.04265116
f 1 2 3
f 1 3 4
f 1 4 5
f 1 5 11
f 1 11 20
f 1 20 12
f 1 12 6
f 1 6 8
f 1 8 2
f 2 7 3
f 2 8 15
f 2 15 9
f 2 9 4
f 2 4 7
f 3 7 4
f 4 9 10
f 4 10 5
f 5 10 11
f 6 12 8
f 8 12 13
f 8 13 14
f 8 14 15
f 9 16 17
f 9 17 18
f 9 18 10
f 9 15 14
f 9 14 16
f 10 18 22
f 10 22 19
f 10 19 20
f 10 20 11
f 12 20 13
f 13 20 14
f 14 20 21
f 14 21 17
f 14 17 16
f 17 21 22
f 17 22 18
f 19 22 20
f 20 22 21

