# https://github.com/mikedh/trimesh
v 0.02801038 -0.01701657 0.04026997
v 0.02424956 -0.01806473 0.04011533
v 0.02424956 -0.01832760 0.04009729
v 0.02458162 -0.01925840 0.04004007
v 0.02801038 -0.01798275 0.04020296
v 0.02801038 -0.01701657 0.03524158
v 0.02424956 -0.01806473 0.03508694
v 0.02424956 -0.01926192 0.04003234
v 0.02509553 -0.01922082 0.04005347
v 0.02560649 -0.01915093 0.04006945
v 0.02611377 -0.01904916 0.04008750
v 0.02759734 -0.01855706 0.04015399
v 0.02458162 -0.01925840 0.03501168
v 0.02801038 -0.01836431 0.04017616
v 0.02801038 -0.01733965 0.03521890
v 0.02784693 -0.01711305 0.03523127
v 0.02424956 -0.01926192 0.03500395
v 0.02509553 -0.01922082 0.03502560
v 0.02560649 -0.01915093 0.03504158
v 0.02661480 -0.01891575 0.04010760
v 0.02611377 -0.01904916 0.03505962
v 0.02710994 -0.01875157 0.04012976
v 0.02759734 -0.01855706 0.03512560
v 0.02801038 -0.01836431 0.03514828
v 0.02801038 -0.01798275 0.03517457
v 0.02661480 -0.01891575 0.03507972
v 0.02710994 -0.01875157 0.03510189
f 1 2 3
f 1 3 4
f 1 4 5
f 1 5 14
f 1 14 24
f 1 24 25
f 1 25 15
f 1 15 6
f 1 6 7
f 1 7 2
f 2 7 17
f 2 17 8
f 2 8 3
f 3 8 4
f 4 9 10
f 4 10 11
f 4 11 12
f 4 12 5
f 4 8 17
f 4 17 13
f 4 13 18
f 4 18 9
f 5 12 14
f 6 15 16
f 6 16 7
f 7 16 15
f 7 15 17
f 9 18 19
f 9 19 10
f 10 19 21
f 10 21 11
f 11 20 12
f 11 21 26
f 11 26 20
f 12 20 22
f 12 22 27
f 12 27 23
f 12 23 24
f 12 24 14
f 13 17 18
f 15 25 23
f 15 23 17
f 17 23 21
f 17 21 19
f 17 19 18
f 20 26 27
f 20 27 22
f 21 23 26
f 23 27 26
f 23 25 24

