# https://github.com/mikedh/trimesh
v 0.01410617 -0.00889283 0.04053085
v 0.01410617 -0.00889283 0.03550239
v 0.01284184 -0.00889283 0.04050326
v 0.01412301 -0.01180673 0.04032922
v 0.01560086 -0.01204062 0.04034514
v 0.01650155 -0.01342200 0.04026873
v 0.01478616 -0.01049620 0.03540582
v 0.01284184 -0.00889283 0.03547479
v 0.01650155 -0.01342200 0.03524080
v 0.01650119 -0.01342138 0.03524080
v 0.01606088 -0.01278241 0.03527529
v 0.01285510 -0.00893234 0.04050061
v 0.01324310 -0.00993123 0.04043959
v 0.01365905 -0.01087493 0.04038334
v 0.01412301 -0.01180673 0.03530076
v 0.01463892 -0.01272347 0.04027669
v 0.01582908 -0.01448234 0.04018066
v 0.01643420 -0.01522477 0.04014245
v 0.01650155 -0.01441211 0.04020029
v 0.01650155 -0.01409044 0.04022257
v 0.01517632 -0.01127750 0.03536019
v 0.01650155 -0.01409044 0.03519411
v 0.01650155 -0.01519843 0.03511717
v 0.01463892 -0.01272347 0.03524823
v 0.01324310 -0.00993123 0.03541165
v 0.01285510 -0.00893234 0.03547267
v 0.01365905 -0.01087493 0.03535541
v 0.01520713 -0.01361827 0.04022682
v 0.01582908 -0.01448234 0.03515219
v 0.01643420 -0.01522477 0.03511399
v 0.01650155 -0.01529813 0.04013874
v 0.01650155 -0.01529813 0.03511027
v 0.01520713 -0.01361827 0.03519888
f 1 2 8
f 1 8 3
f 1 3 4
f 1 4 5
f 1 5 6
f 1 6 9
f 1 9 2
f 2 7 8
f 2 9 10
f 2 10 11
f 2 11 7
f 3 8 26
f 3 26 12
f 3 12 13
f 3 13 14
f 3 14 4
f 4 14 27
f 4 27 15
f 4 15 24
f 4 24 16
f 4 16 17
f 4 17 18
f 4 18 19
f 4 19 5
f 5 19 20
f 5 20 6
f 6 20 19
f 6 19 31
f 6 31 32
f 6 32 23
f 6 23 22
f 6 22 9
f 7 11 21
f 7 21 22
f 7 22 23
f 7 23 24
f 7 24 8
f 8 25 26
f 8 24 25
f 9 22 10
f 10 22 11
f 11 22 21
f 12 26 25
f 12 25 13
f 13 25 27
f 13 27 14
f 15 27 25
f 15 25 24
f 16 24 33
f 16 33 28
f 16 28 17
f 17 29 30
f 17 30 18
f 17 28 33
f 17 33 29
f 18 30 32
f 18 32 31
f 18 31 19
f 23 32 29
f 23 29 24
f 24 29 33
f 29 32 30

