# https://github.com/mikedh/trimesh
v 0.01959006 -0.01791450 0.03499608
v 0.01930766 -0.01774608 0.03500176
v 0.01762841 -0.01645324 0.03505492
v 0.01701494 -0.01585828 0.03508279
v 0.01760331 -0.01477476 0.03517054
v 0.01886774 -0.01597481 0.03511479
v 0.01958976 -0.01651964 0.03509311
v 0.01959006 -0.01652008 0.03509311
v 0.01959006 -0.01791450 0.04002434
v 0.01874831 -0.01736614 0.03501621
v 0.01930766 -0.01774608 0.04003002
v 0.01820681 -0.01695147 0.03503324
v 0.01762841 -0.01645324 0.04008318
v 0.01650155 -0.01529849 0.03511066
v 0.01650155 -0.01519911 0.03511737
v 0.01701494 -0.01585828 0.04011105
v 0.01685107 -0.01388692 0.03521596
v 0.01650155 -0.01342256 0.03524073
v 0.01958976 -0.01651964 0.04012137
v 0.01959006 -0.01652008 0.04012137
v 0.01959006 -0.01750158 0.04005324
v 0.01874831 -0.01736614 0.04004447
v 0.01820681 -0.01695147 0.04006098
v 0.01650155 -0.01529849 0.04013892
v 0.01650155 -0.01409096 0.03519428
v 0.01650155 -0.01342256 0.04026899
v 0.01650155 -0.01441285 0.04020034
f 1 2 3
f 1 3 4
f 1 4 5
f 1 5 6
f 1 6 7
f 1 7 8
f 1 8 20
f 1 20 21
f 1 21 9
f 1 9 11
f 1 11 2
f 2 10 3
f 2 11 22
f 2 22 10
f 3 10 12
f 3 12 23
f 3 23 13
f 3 13 16
f 3 16 4
f 4 14 15
f 4 15 5
f 4 16 24
f 4 24 14
f 5 15 17
f 5 17 6
f 6 17 18
f 6 18 7
f 7 18 26
f 7 26 19
f 7 19 20
f 7 20 8
f 9 21 11
f 10 22 23
f 10 23 12
f 11 21 22
f 13 23 22
f 13 22 24
f 13 24 16
f 14 24 27
f 14 27 26
f 14 26 18
f 14 18 25
f 14 25 15
f 15 25 17
f 17 25 18
f 19 26 20
f 20 26 22
f 20 22 21
f 22 26 27
f 22 27 24

