# https://github.com/mikedh/trimesh
v 0.01457149 0.01305400 0.04206186
v 0.01457149 0.01305400 0.03703341
v 0.01434037 0.01268875 0.04203109
v 0.01393284 0.01197228 0.04197285
v 0.01354847 0.01121892 0.04191241
v 0.01183041 0.00608999 0.04151956
v 0.01293019 0.00552330 0.04150418
v 0.01457149 0.01122334 0.04193494
v 0.01393284 0.01197228 0.03694440
v 0.01434037 0.01268875 0.03700319
v 0.01457149 0.01062345 0.03686474
v 0.01354847 0.01121892 0.03688397
v 0.01318979 0.01043087 0.04184977
v 0.01285846 0.00961257 0.04178604
v 0.01204032 0.00700125 0.04158714
v 0.01183041 0.00608999 0.03649112
v 0.01172015 0.00551666 0.04147726
v 0.01292908 0.00551666 0.04150363
v 0.01457149 0.01062345 0.04189318
v 0.01255532 0.00876624 0.03669221
v 0.01285846 0.00961257 0.03675760
v 0.01292908 0.00551666 0.03647518
v 0.01290870 0.00551666 0.03647464
v 0.01172015 0.00551666 0.03644881
v 0.01318979 0.01043087 0.03682188
v 0.01255532 0.00876624 0.04172066
v 0.01228233 0.00789408 0.04165417
v 0.01204032 0.00700125 0.03655870
v 0.01228233 0.00789408 0.03662628
f 1 2 10
f 1 10 3
f 1 3 4
f 1 4 5
f 1 5 6
f 1 6 7
f 1 7 8
f 1 8 19
f 1 19 11
f 1 11 2
f 2 9 10
f 2 11 9
f 3 10 9
f 3 9 4
f 4 9 12
f 4 12 5
f 5 12 25
f 5 25 13
f 5 13 14
f 5 14 6
f 6 15 28
f 6 28 16
f 6 16 24
f 6 24 17
f 6 17 7
f 6 14 15
f 7 17 18
f 7 18 19
f 7 19 8
f 9 11 20
f 9 20 21
f 9 21 12
f 11 19 18
f 11 18 22
f 11 22 23
f 11 23 24
f 11 24 20
f 12 21 25
f 13 25 21
f 13 21 14
f 14 21 20
f 14 20 26
f 14 26 15
f 15 26 27
f 15 27 29
f 15 29 28
f 16 28 24
f 17 24 23
f 17 23 22
f 17 22 18
f 20 24 28
f 20 28 29
f 20 29 27
f 20 27 26

