# https://github.com/mikedh/trimesh
v 0.01292894 0.00551666 0.04150378
v 0.01292894 0.00551666 0.03647548
v 0.01172018 0.00551666 0.04147700
v 0.01165268 0.00516504 0.04145128
v 0.01125946 0.00109313 0.04116092
v 0.01246985 -0.00037158 0.04108538
v 0.01290851 0.00551666 0.03647495
v 0.01246985 -0.00037158 0.03605708
v 0.01172018 0.00551666 0.03644923
v 0.01165268 0.00516504 0.03642352
v 0.01146685 0.00391707 0.04136074
v 0.01132695 0.00250481 0.04126003
v 0.01125946 0.00109313 0.03613262
v 0.01126158 -0.00030414 0.04106395
v 0.01143678 -0.00037158 0.04106288
v 0.01126485 -0.00037158 0.03603083
v 0.01132695 0.00250481 0.03623173
v 0.01146685 0.00391707 0.03633298
v 0.01126158 -0.00030414 0.03603565
v 0.01126485 -0.00037158 0.04105913
f 1 2 7
f 1 7 9
f 1 9 3
f 1 3 4
f 1 4 5
f 1 5 6
f 1 6 8
f 1 8 2
f 2 8 7
f 3 9 10
f 3 10 4
f 4 10 18
f 4 18 11
f 4 11 12
f 4 12 5
f 5 13 19
f 5 19 14
f 5 14 6
f 5 12 17
f 5 17 13
f 6 14 15
f 6 15 20
f 6 20 16
f 6 16 8
f 7 8 16
f 7 16 17
f 7 17 9
f 9 18 10
f 9 17 18
f 11 18 17
f 11 17 12
f 13 17 16
f 13 16 19
f 14 19 16
f 14 16 20
f 14 20 15

