# https://github.com/mikedh/trimesh
v 0.01171943 -0.00468357 0.03574194
v 0.01164756 -0.00430882 0.03576652
v 0.01146034 -0.00301446 0.03585231
v 0.01126496 -0.00037215 0.03603120
v 0.01143666 -0.00037215 0.03603486
v 0.01256287 -0.00203663 0.03594385
v 0.01290430 -0.00454304 0.03577751
v 0.01293370 -0.00468357 0.03576861
v 0.01171943 -0.00468357 0.04077031
v 0.01164756 -0.00430882 0.04079489
v 0.01132998 -0.00167748 0.03594228
v 0.01146034 -0.00301446 0.04088015
v 0.01126496 -0.00037215 0.04105905
v 0.01246992 -0.00037215 0.03605735
v 0.01247841 -0.00077392 0.03602963
v 0.01293370 -0.00468357 0.04079698
v 0.01143666 -0.00037215 0.04106323
v 0.01132998 -0.00167748 0.04097012
v 0.01246992 -0.00037215 0.04108573
f 1 2 3
f 1 3 4
f 1 4 5
f 1 5 6
f 1 6 7
f 1 7 8
f 1 8 16
f 1 16 9
f 1 9 10
f 1 10 2
f 2 10 12
f 2 12 3
f 3 11 4
f 3 12 18
f 3 18 11
f 4 11 18
f 4 18 13
f 4 13 17
f 4 17 19
f 4 19 14
f 4 14 5
f 5 14 15
f 5 15 6
f 6 15 7
f 7 15 14
f 7 14 8
f 8 14 19
f 8 19 16
f 9 16 10
f 10 16 17
f 10 17 18
f 10 18 12
f 13 18 17
f 16 19 17

