# https://github.com/mikedh/trimesh
v 0.02313753 0.01854900 0.04262872
v 0.02309816 0.01854933 0.04262770
v 0.02278992 0.01853998 0.04262007
v 0.02230110 0.01850128 0.04260684
v 0.02180417 0.01843158 0.04259157
v 0.02078792 0.01819148 0.04255289
v 0.02139802 0.01712038 0.04249182
v 0.02313753 0.01734654 0.04254526
v 0.02313753 0.01854900 0.03760033
v 0.02309816 0.01854933 0.03759931
v 0.02278992 0.01853998 0.03759219
v 0.02230110 0.01850128 0.03757895
v 0.02129912 0.01832891 0.04257325
v 0.02180417 0.01843158 0.03756318
v 0.02062433 0.01813637 0.04254526
v 0.02062433 0.01687389 0.04245772
v 0.02078792 0.01819148 0.03752450
v 0.02313753 0.01734654 0.03751686
v 0.02313753 0.01831710 0.03758404
v 0.02129912 0.01832891 0.03754486
v 0.02062433 0.01813637 0.03751686
v 0.02062433 0.01687389 0.03742932
v 0.02220541 0.01728078 0.03749192
f 1 2 3
f 1 3 4
f 1 4 5
f 1 5 6
f 1 6 7
f 1 7 8
f 1 8 18
f 1 18 19
f 1 19 9
f 1 9 10
f 1 10 2
f 2 10 11
f 2 11 3
f 3 11 12
f 3 12 4
f 4 12 14
f 4 14 5
f 5 13 6
f 5 14 20
f 5 20 13
f 6 15 16
f 6 16 7
f 6 13 20
f 6 20 17
f 6 17 21
f 6 21 15
f 7 16 8
f 8 16 22
f 8 22 18
f 9 19 10
f 10 19 20
f 10 20 14
f 10 14 12
f 10 12 11
f 15 21 22
f 15 22 16
f 17 20 21
f 18 22 23
f 18 23 19
f 19 23 20
f 20 23 22
f 20 22 21

