# https://github.com/mikedh/trimesh
v 0.03262332 -0.01182836 0.03570100
v 0.03428306 -0.00724595 0.03605466
v 0.03411579 -0.01143359 0.03576082
v 0.03392856 -0.01182836 0.03572959
v 0.03262332 -0.01182836 0.04072956
v 0.03549525 -0.00724595 0.03608113
v 0.03531083 -0.00802785 0.03602289
v 0.03428306 -0.00724595 0.04108322
v 0.03444245 -0.01066291 0.03582171
v 0.03411579 -0.01143359 0.04078938
v 0.03473566 -0.00988728 0.03588153
v 0.03392856 -0.01182836 0.04075762
v 0.03333484 -0.01025782 0.04085398
v 0.03398732 -0.00836206 0.04099957
v 0.03549525 -0.00724595 0.04110969
v 0.03499682 -0.00911031 0.03594136
v 0.03531083 -0.00802785 0.04105145
v 0.03444245 -0.01066291 0.04084974
v 0.03473566 -0.00988728 0.04091010
v 0.03499682 -0.00911031 0.04096939
f 1 2 3
f 1 3 4
f 1 4 12
f 1 12 5
f 1 5 8
f 1 8 2
f 2 6 7
f 2 7 3
f 2 8 15
f 2 15 6
f 3 9 18
f 3 18 10
f 3 10 12
f 3 12 4
f 3 7 11
f 3 11 9
f 5 12 10
f 5 10 13
f 5 13 14
f 5 14 8
f 6 15 17
f 6 17 7
f 7 16 11
f 7 17 20
f 7 20 16
f 8 14 15
f 9 11 19
f 9 19 18
f 10 18 19
f 10 19 13
f 11 16 20
f 11 20 19
f 13 19 14
f 14 19 15
f 15 19 17
f 17 19 20

