# https://github.com/mikedh/trimesh
v 0.01738613 0.01631417 0.04234888
v 0.01738613 0.01631417 0.03732043
v 0.01715996 0.01612756 0.04233063
v 0.01665692 0.01566243 0.04228768
v 0.01521834 0.01400469 0.04214166
v 0.01457205 0.01239429 0.04201605
v 0.01551503 0.01236143 0.04203430
v 0.01738613 0.01535439 0.04228231
v 0.01715996 0.01612756 0.03730272
v 0.01738613 0.01535439 0.03725387
v 0.01665692 0.01566243 0.03725923
v 0.01616408 0.01515330 0.04224151
v 0.01568391 0.01460072 0.04219266
v 0.01521834 0.01400469 0.03711322
v 0.01476985 0.01336799 0.04208745
v 0.01457205 0.01305494 0.04206168
v 0.01457205 0.01104069 0.04192210
v 0.01457205 0.01062347 0.04189311
v 0.01738530 0.01473107 0.04223883
v 0.01738613 0.01473162 0.04223883
v 0.01738613 0.01473162 0.03721092
v 0.01457205 0.01062347 0.03686467
v 0.01457205 0.01305494 0.03703323
v 0.01568391 0.01460072 0.03716475
v 0.01616408 0.01515330 0.03721360
v 0.01476985 0.01336799 0.03705953
f 1 2 9
f 1 9 3
f 1 3 4
f 1 4 5
f 1 5 6
f 1 6 7
f 1 7 8
f 1 8 20
f 1 20 21
f 1 21 10
f 1 10 2
f 2 10 11
f 2 11 9
f 3 9 11
f 3 11 4
f 4 11 25
f 4 25 12
f 4 12 5
f 5 12 13
f 5 13 24
f 5 24 14
f 5 14 26
f 5 26 15
f 5 15 16
f 5 16 6
f 6 16 23
f 6 23 22
f 6 22 18
f 6 18 17
f 6 17 7
f 7 17 18
f 7 18 19
f 7 19 8
f 8 19 20
f 10 21 22
f 10 22 11
f 11 22 23
f 11 23 14
f 11 14 24
f 11 24 25
f 12 25 24
f 12 24 13
f 14 23 26
f 15 26 23
f 15 23 16
f 18 22 21
f 18 21 20
f 18 20 19

