# https://github.com/mikedh/trimesh
v 0.03030481 0.01350870 0.03740647
v 0.02793639 0.01573757 0.03750986
v 0.02793639 0.01574149 0.03750986
v 0.02865213 0.01518578 0.03748683
v 0.02793639 0.01714517 0.03760712
v 0.02909591 0.01633849 0.03757641
v 0.03030481 0.01511423 0.03751805
v 0.03030481 0.01350870 0.04243508
v 0.02793639 0.01573757 0.04253796
v 0.02799250 0.01711277 0.03760609
v 0.02793639 0.01714517 0.04263573
v 0.02973189 0.01580201 0.03755337
v 0.03030481 0.01525378 0.03752778
v 0.02851673 0.01676853 0.03759381
v 0.02909591 0.01633849 0.04260451
v 0.03030481 0.01432891 0.04249190
v 0.02865213 0.01518578 0.04251544
v 0.02793639 0.01629755 0.04257687
v 0.02799250 0.01711277 0.04263420
v 0.02973189 0.01580201 0.04258147
v 0.02851673 0.01676853 0.04262191
v 0.03030481 0.01525378 0.04255588
f 1 2 3
f 1 3 4
f 1 4 5
f 1 5 6
f 1 6 7
f 1 7 13
f 1 13 22
f 1 22 16
f 1 16 8
f 1 8 9
f 1 9 2
f 2 9 18
f 2 18 11
f 2 11 5
f 2 5 3
f 3 5 4
f 5 10 6
f 5 11 19
f 5 19 10
f 6 12 13
f 6 13 7
f 6 10 14
f 6 14 21
f 6 21 15
f 6 15 20
f 6 20 12
f 8 16 11
f 8 11 17
f 8 17 9
f 9 17 18
f 10 19 21
f 10 21 14
f 11 18 17
f 11 16 20
f 11 20 21
f 11 21 19
f 12 20 22
f 12 22 13
f 15 21 20
f 16 22 20

