# https://github.com/mikedh/trimesh
v -0.00255982 0.00085867 0.02949875
v -0.00268035 0.00085867 0.02950000
v -0.00255997 0.00085853 0.02950000
v -0.00264231 -0.00055214 0.02950000
v -0.00255982 0.00085867 0.02630000
v -0.00415266 0.00085867 0.02950000
v -0.00415266 -0.00055214 0.02950000
v -0.00264231 -0.00055214 0.02630000
v -0.00415266 0.00085867 0.02630000
v -0.00415266 -0.00055214 0.02630000
f 1 2 3
f 1 3 4
f 1 4 8
f 1 8 5
f 1 5 9
f 1 9 6
f 1 6 2
f 2 6 7
f 2 7 4
f 2 4 3
f 4 7 10
f 4 10 8
f 5 8 10
f 5 10 9
f 6 9 10
f 6 10 7

