# https://github.com/mikedh/trimesh
v -0.02380781 0.01272573 0.02630000
v -0.02378895 0.01265884 0.02630000
v -0.02380781 0.01272573 0.02950000
v -0.02187286 0.01272573 0.02630000
v -0.02370180 0.01240641 0.02630000
v -0.02378895 0.01265884 0.02950000
v -0.02187286 0.01272573 0.02950000
v -0.02048554 0.01149003 0.02630000
v -0.02360001 0.01215953 0.02630000
v -0.02370180 0.01240641 0.02950000
v -0.02048554 0.01149003 0.02950000
v -0.02322733 0.01149003 0.02630000
v -0.02360001 0.01215953 0.02950000
v -0.02348359 0.01191919 0.02630000
v -0.02322733 0.01149003 0.02950000
v -0.02335285 0.01168622 0.02630000
v -0.02348359 0.01191919 0.02950000
v -0.02335285 0.01168622 0.02950000
f 1 2 6
f 1 6 3
f 1 3 7
f 1 7 4
f 1 4 8
f 1 8 12
f 1 12 16
f 1 16 14
f 1 14 9
f 1 9 5
f 1 5 2
f 2 5 10
f 2 10 6
f 3 6 10
f 3 10 13
f 3 13 17
f 3 17 18
f 3 18 15
f 3 15 11
f 3 11 7
f 4 7 11
f 4 11 8
f 5 9 13
f 5 13 10
f 8 11 15
f 8 15 12
f 9 14 17
f 9 17 13
f 12 15 18
f 12 18 16
f 14 16 18
f 14 18 17

