# https://github.com/mikedh/trimesh
v 0.00195245 0.00405423 0.02950000
v 0.00218578 0.00393347 0.02950000
v 0.00195245 0.00405423 0.02630000
v 0.00195245 0.00186353 0.02950000
v 0.00241513 0.00379687 0.02950000
v 0.00218578 0.00393347 0.02630000
v 0.00195245 0.00186353 0.02630000
v 0.00270006 0.00000939 0.02950000
v 0.00263624 0.00364681 0.02950000
v 0.00241513 0.00379687 0.02630000
v 0.00270006 0.00000939 0.02630000
v 0.00449892 0.00000939 0.02950000
v 0.00284789 0.00348408 0.02950000
v 0.00263624 0.00364681 0.02630000
v 0.00449892 0.00000939 0.02630000
v 0.00449319 0.00024536 0.02950000
v 0.00304956 0.00330908 0.02950000
v 0.00284789 0.00348408 0.02630000
v 0.00449319 0.00024536 0.02630000
v 0.00447075 0.00051143 0.02950000
v 0.00324027 0.00312220 0.02950000
v 0.00304956 0.00330908 0.02630000
v 0.00447075 0.00051143 0.02630000
v 0.00443261 0.00077591 0.02950000
v 0.00342000 0.00292463 0.02950000
v 0.00324027 0.00312220 0.02630000
v 0.00443261 0.00077591 0.02630000
v 0.00437876 0.00103722 0.02950000
v 0.00358728 0.00271637 0.02950000
v 0.00342000 0.00292463 0.02630000
v 0.00437876 0.00103722 0.02630000
v 0.00430946 0.00129537 0.02950000
v 0.00374233 0.00249861 0.02950000
v 0.00358728 0.00271637 0.02630000
v 0.00430946 0.00129537 0.02630000
v 0.00422495 0.00154877 0.02950000
v 0.00388393 0.00227253 0.02950000
v 0.00374233 0.00249861 0.02630000
v 0.00422495 0.00154877 0.02630000
v 0.00412574 0.00179662 0.02950000
v 0.00401181 0.00203774 0.02950000
v 0.00388393 0.00227253 0.02630000
v 0.00412574 0.00179662 0.02630000
v 0.00401181 0.00203774 0.02630000
f 1 2 6
f 1 6 3
f 1 3 7
f 1 7 4
f 1 4 8
f 1 8 12
f 1 12 16
f 1 16 20
f 1 20 24
f 1 24 28
f 1 28 32
f 1 32 36
f 1 36 40
f 1 40 41
f 1 41 37
f 1 37 33
f 1 33 29
f 1 29 25
f 1 25 21
f 1 21 17
f 1 17 13
f 1 13 9
f 1 9 5
f 1 5 2
f 2 5 10
f 2 10 6
f 3 6 10
f 3 10 14
f 3 14 18
f 3 18 22
f 3 22 26
f 3 26 30
f 3 30 34
f 3 34 38
f 3 38 42
f 3 42 44
f 3 44 43
f 3 43 39
f 3 39 35
f 3 35 31
f 3 31 27
f 3 27 23
f 3 23 19
f 3 19 15
f 3 15 11
f 3 11 7
f 4 7 11
f 4 11 8
f 5 9 14
f 5 14 10
f 8 11 15
f 8 15 12
f 9 13 18
f 9 18 14
f 12 15 19
f 12 19 16
f 13 17 22
f 13 22 18
f 16 19 23
f 16 23 20
f 17 21 26
f 17 26 22
f 20 23 27
f 20 27 24
f 21 25 30
f 21 30 26
f 24 27 31
f 24 31 28
f 25 29 34
f 25 34 30
f 28 31 35
f 28 35 32
f 29 33 38
f 29 38 34
f 32 35 39
f 32 39 36
f 33 37 42
f 33 42 38
f 36 39 43
f 36 43 40
f 37 41 44
f 37 44 42
f 40 43 44
f 40 44 41

