# https://github.com/mikedh/trimesh
v -0.02322669 0.01149003 0.02630000
v -0.02320893 0.01146109 0.02630000
v -0.02322669 0.01149003 0.02950000
v -0.01575884 0.01149003 0.02630000
v -0.02320893 0.01146109 0.02950000
v -0.02305148 0.01124510 0.02630000
v -0.01575884 0.01149003 0.02950000
v -0.01497887 0.00958302 0.02630000
v -0.02305148 0.01124510 0.02950000
v -0.02288192 0.01103899 0.02630000
v -0.01497887 0.00958302 0.02950000
v -0.02038295 0.00958302 0.02630000
v -0.02288192 0.01103899 0.02950000
v -0.02270025 0.01084316 0.02630000
v -0.02038295 0.00958302 0.02950000
v -0.02064617 0.00965023 0.02630000
v -0.02270025 0.01084316 0.02950000
v -0.02250728 0.01065834 0.02630000
v -0.02064617 0.00965023 0.02950000
v -0.02090212 0.00972621 0.02630000
v -0.02250728 0.01065834 0.02950000
v -0.02230381 0.01048565 0.02630000
v -0.02090212 0.00972621 0.02950000
v -0.02115323 0.00981731 0.02630000
v -0.02230381 0.01048565 0.02950000
v -0.02208984 0.01032510 0.02630000
v -0.02115323 0.00981731 0.02950000
v -0.02139788 0.00992316 0.02630000
v -0.02208984 0.01032510 0.02950000
v -0.02186780 0.01017743 0.02630000
v -0.02139788 0.00992316 0.02950000
v -0.02163688 0.01004339 0.02630000
v -0.02186780 0.01017743 0.02950000
v -0.02163688 0.01004339 0.02950000
f 1 2 5
f 1 5 3
f 1 3 7
f 1 7 4
f 1 4 8
f 1 8 12
f 1 12 16
f 1 16 20
f 1 20 24
f 1 24 28
f 1 28 32
f 1 32 30
f 1 30 26
f 1 26 22
f 1 22 18
f 1 18 14
f 1 14 10
f 1 10 6
f 1 6 2
f 2 6 9
f 2 9 5
f 3 5 9
f 3 9 13
f 3 13 17
f 3 17 21
f 3 21 25
f 3 25 29
f 3 29 33
f 3 33 34
f 3 34 31
f 3 31 27
f 3 27 23
f 3 23 19
f 3 19 15
f 3 15 11
f 3 11 7
f 4 7 11
f 4 11 8
f 6 10 13
f 6 13 9
f 8 11 15
f 8 15 12
f 10 14 17
f 10 17 13
f 12 15 19
f 12 19 16
f 14 18 21
f 14 21 17
f 16 19 23
f 16 23 20
f 18 22 25
f 18 25 21
f 20 23 27
f 20 27 24
f 22 26 29
f 22 29 25
f 24 27 31
f 24 31 28
f 26 30 33
f 26 33 29
f 28 31 34
f 28 34 32
f 30 32 34
f 30 34 33

