# https://github.com/mikedh/trimesh
v -0.02099186 0.01624608 0.02630000
v -0.02099186 0.01824191 0.02630000
v -0.01949015 0.01669952 0.02630000
v -0.02099186 0.01624608 0.02950000
v -0.02095173 0.01825712 0.02630000
v -0.02099186 0.01824191 0.02950000
v -0.01949015 0.01849784 0.02630000
v -0.01949015 0.01669952 0.02950000
v -0.02069667 0.01833604 0.02630000
v -0.02095173 0.01825712 0.02950000
v -0.01964304 0.01849740 0.02630000
v -0.01949015 0.01849784 0.02950000
v -0.02043719 0.01839974 0.02630000
v -0.02069667 0.01833604 0.02950000
v -0.01990957 0.01848064 0.02630000
v -0.01964304 0.01849740 0.02950000
v -0.02017463 0.01844802 0.02630000
v -0.02043719 0.01839974 0.02950000
v -0.01990957 0.01848064 0.02950000
v -0.02017463 0.01844802 0.02950000
f 1 2 5
f 1 5 9
f 1 9 13
f 1 13 17
f 1 17 15
f 1 15 11
f 1 11 7
f 1 7 3
f 1 3 8
f 1 8 4
f 1 4 6
f 1 6 2
f 2 6 10
f 2 10 5
f 3 7 12
f 3 12 8
f 4 8 12
f 4 12 16
f 4 16 19
f 4 19 20
f 4 20 18
f 4 18 14
f 4 14 10
f 4 10 6
f 5 10 14
f 5 14 9
f 7 11 16
f 7 16 12
f 9 14 18
f 9 18 13
f 11 15 19
f 11 19 16
f 13 18 20
f 13 20 17
f 15 17 20
f 15 20 19

