# https://github.com/mikedh/trimesh
v -0.00357593 0.00085867 0.02630000
v -0.00357593 0.00273495 0.02630000
v -0.00255988 0.00085867 0.02630000
v -0.00357593 0.00085867 0.02950000
v -0.00340480 0.00294200 0.02630000
v -0.00357593 0.00273495 0.02950000
v -0.00209941 0.00169756 0.02630000
v -0.00255988 0.00085867 0.02949875
v -0.00268027 0.00085867 0.02950000
v -0.00322429 0.00313897 0.02630000
v -0.00340480 0.00294200 0.02950000
v -0.00209941 0.00397847 0.02630000
v -0.00209941 0.00169756 0.02950000
v -0.00250395 0.00101045 0.02950000
v -0.00303235 0.00332464 0.02630000
v -0.00322429 0.00313897 0.02950000
v -0.00216546 0.00394457 0.02630000
v -0.00209941 0.00397847 0.02950000
v -0.00283001 0.00349871 0.02630000
v -0.00303235 0.00332464 0.02950000
v -0.00239555 0.00380929 0.02630000
v -0.00216546 0.00394457 0.02950000
v -0.00261740 0.00366026 0.02630000
v -0.00283001 0.00349871 0.02950000
v -0.00239555 0.00380929 0.02950000
v -0.00261740 0.00366026 0.02950000
f 1 2 5
f 1 5 10
f 1 10 15
f 1 15 19
f 1 19 23
f 1 23 21
f 1 21 17
f 1 17 12
f 1 12 7
f 1 7 3
f 1 3 8
f 1 8 9
f 1 9 4
f 1 4 6
f 1 6 2
f 2 6 11
f 2 11 5
f 3 7 13
f 3 13 8
f 4 9 14
f 4 14 13
f 4 13 18
f 4 18 22
f 4 22 25
f 4 25 26
f 4 26 24
f 4 24 20
f 4 20 16
f 4 16 11
f 4 11 6
f 5 11 16
f 5 16 10
f 7 12 18
f 7 18 13
f 8 13 14
f 8 14 9
f 10 16 20
f 10 20 15
f 12 17 22
f 12 22 18
f 15 20 24
f 15 24 19
f 17 21 25
f 17 25 22
f 19 24 26
f 19 26 23
f 21 23 26
f 21 26 25

