# https://github.com/mikedh/trimesh
v -0.00389342 -0.00225589 0.02630000
v -0.00375374 -0.00248195 0.02630000
v -0.00389342 -0.00225589 0.02950000
v -0.00148372 -0.00225589 0.02630000
v -0.00375374 -0.00248195 0.02950000
v -0.00359971 -0.00270012 0.02630000
v -0.00148372 -0.00225589 0.02950000
v -0.00003708 -0.00269858 0.02630000
v -0.00359971 -0.00270012 0.02950000
v -0.00343322 -0.00290906 0.02630000
v -0.00003708 -0.00269858 0.02950000
v -0.00003708 -0.00449787 0.02630000
v -0.00343322 -0.00290906 0.02950000
v -0.00325466 -0.00310769 0.02630000
v -0.00003708 -0.00449787 0.02950000
v -0.00016581 -0.00449677 0.02630000
v -0.00325466 -0.00310769 0.02950000
v -0.00306439 -0.00329512 0.02630000
v -0.00016581 -0.00449677 0.02950000
v -0.00043234 -0.00447899 0.02630000
v -0.00306439 -0.00329512 0.02950000
v -0.00286355 -0.00347093 0.02630000
v -0.00043234 -0.00447899 0.02950000
v -0.00069736 -0.00444563 0.02630000
v -0.00286355 -0.00347093 0.02950000
v -0.00265252 -0.00363488 0.02630000
v -0.00069736 -0.00444563 0.02950000
v -0.00096011 -0.00439625 0.02630000
v -0.00265252 -0.00363488 0.02950000
v -0.00243243 -0.00378588 0.02630000
v -0.00096011 -0.00439625 0.02950000
v -0.00121908 -0.00433172 0.02630000
v -0.00243243 -0.00378588 0.02950000
v -0.00220327 -0.00392349 0.02630000
v -0.00121908 -0.00433172 0.02950000
v -0.00147391 -0.00425183 0.02630000
v -0.00220327 -0.00392349 0.02950000
v -0.00196695 -0.00404728 0.02630000
v -0.00147391 -0.00425183 0.02950000
v -0.00172345 -0.00415680 0.02630000
v -0.00196695 -0.00404728 0.02950000
v -0.00172345 -0.00415680 0.02950000
f 1 2 5
f 1 5 3
f 1 3 7
f 1 7 4
f 1 4 8
f 1 8 12
f 1 12 16
f 1 16 20
f 1 20 24
f 1 24 28
f 1 28 32
f 1 32 36
f 1 36 40
f 1 40 38
f 1 38 34
f 1 34 30
f 1 30 26
f 1 26 22
f 1 22 18
f 1 18 14
f 1 14 10
f 1 10 6
f 1 6 2
f 2 6 9
f 2 9 5
f 3 5 9
f 3 9 13
f 3 13 17
f 3 17 21
f 3 21 25
f 3 25 29
f 3 29 33
f 3 33 37
f 3 37 41
f 3 41 42
f 3 42 39
f 3 39 35
f 3 35 31
f 3 31 27
f 3 27 23
f 3 23 19
f 3 19 15
f 3 15 11
f 3 11 7
f 4 7 11
f 4 11 8
f 6 10 13
f 6 13 9
f 8 11 15
f 8 15 12
f 10 14 17
f 10 17 13
f 12 15 19
f 12 19 16
f 14 18 21
f 14 21 17
f 16 19 23
f 16 23 20
f 18 22 25
f 18 25 21
f 20 23 27
f 20 27 24
f 22 26 29
f 22 29 25
f 24 27 31
f 24 31 28
f 26 30 33
f 26 33 29
f 28 31 35
f 28 35 32
f 30 34 37
f 30 37 33
f 32 35 39
f 32 39 36
f 34 38 41
f 34 41 37
f 36 39 42
f 36 42 40
f 38 40 42
f 38 42 41

