# https://github.com/mikedh/trimesh
v 0.00449895 0.00000939 0.02950000
v 0.00270003 0.00000939 0.02950000
v 0.00449995 -0.00002203 0.02950000
v 0.00449895 0.00000939 0.02630000
v 0.00270003 0.00000939 0.02630000
v 0.00195279 -0.00186389 0.02950000
v 0.00449995 -0.00002203 0.02630000
v 0.00449047 -0.00028884 0.02950000
v 0.00195279 -0.00186389 0.02630000
v 0.00195279 -0.00405289 0.02950000
v 0.00449047 -0.00028884 0.02630000
v 0.00446554 -0.00055486 0.02950000
v 0.00195279 -0.00405289 0.02630000
v 0.00214727 -0.00395467 0.02950000
v 0.00446554 -0.00055486 0.02630000
v 0.00442490 -0.00081889 0.02950000
v 0.00214727 -0.00395467 0.02630000
v 0.00237815 -0.00382027 0.02950000
v 0.00442490 -0.00081889 0.02630000
v 0.00436830 -0.00108014 0.02950000
v 0.00237815 -0.00382027 0.02630000
v 0.00260055 -0.00367235 0.02950000
v 0.00436830 -0.00108014 0.02630000
v 0.00429674 -0.00133741 0.02950000
v 0.00260055 -0.00367235 0.02630000
v 0.00281397 -0.00351170 0.02950000
v 0.00429674 -0.00133741 0.02630000
v 0.00420973 -0.00158991 0.02950000
v 0.00281397 -0.00351170 0.02630000
v 0.00301743 -0.00333833 0.02950000
v 0.00420973 -0.00158991 0.02630000
v 0.00410800 -0.00183685 0.02950000
v 0.00301743 -0.00333833 0.02630000
v 0.00321016 -0.00315343 0.02950000
v 0.00410800 -0.00183685 0.02630000
v 0.00399181 -0.00207702 0.02950000
v 0.00321016 -0.00315343 0.02630000
v 0.00339117 -0.00295739 0.02950000
v 0.00399181 -0.00207702 0.02630000
v 0.00386166 -0.00231004 0.02950000
v 0.00339117 -0.00295739 0.02630000
v 0.00356072 -0.00275102 0.02950000
v 0.00386166 -0.00231004 0.02630000
v 0.00371780 -0.00253510 0.02950000
v 0.00356072 -0.00275102 0.02630000
v 0.00371780 -0.00253510 0.02630000
f 1 2 6
f 1 6 10
f 1 10 14
f 1 14 18
f 1 18 22
f 1 22 26
f 1 26 30
f 1 30 34
f 1 34 38
f 1 38 42
f 1 42 44
f 1 44 40
f 1 40 36
f 1 36 32
f 1 32 28
f 1 28 24
f 1 24 20
f 1 20 16
f 1 16 12
f 1 12 8
f 1 8 3
f 1 3 7
f 1 7 4
f 1 4 5
f 1 5 2
f 2 5 9
f 2 9 6
f 3 8 11
f 3 11 7
f 4 7 11
f 4 11 15
f 4 15 19
f 4 19 23
f 4 23 27
f 4 27 31
f 4 31 35
f 4 35 39
f 4 39 43
f 4 43 46
f 4 46 45
f 4 45 41
f 4 41 37
f 4 37 33
f 4 33 29
f 4 29 25
f 4 25 21
f 4 21 17
f 4 17 13
f 4 13 9
f 4 9 5
f 6 9 13
f 6 13 10
f 8 12 15
f 8 15 11
f 10 13 17
f 10 17 14
f 12 16 19
f 12 19 15
f 14 17 21
f 14 21 18
f 16 20 23
f 16 23 19
f 18 21 25
f 18 25 22
f 20 24 27
f 20 27 23
f 22 25 29
f 22 29 26
f 24 28 31
f 24 31 27
f 26 29 33
f 26 33 30
f 28 32 35
f 28 35 31
f 30 33 37
f 30 37 34
f 32 36 39
f 32 39 35
f 34 37 41
f 34 41 38
f 36 40 43
f 36 43 39
f 38 41 45
f 38 45 42
f 40 44 46
f 40 46 43
f 42 45 46
f 42 46 44

