# https://github.com/mikedh/trimesh
v -0.00148363 -0.00225551 0.02950000
v -0.00264250 -0.00055227 0.02950000
v -0.00389360 -0.00225551 0.02950000
v -0.00148363 -0.00225551 0.02630000
v -0.00415281 -0.00055227 0.02950000
v -0.00264250 -0.00055227 0.02630000
v -0.00415281 -0.00223800 0.02950000
v -0.00389360 -0.00225551 0.02630000
v -0.00415281 -0.00055227 0.02630000
v -0.00415281 -0.00223800 0.02630000
f 1 2 5
f 1 5 7
f 1 7 3
f 1 3 8
f 1 8 4
f 1 4 6
f 1 6 2
f 2 6 9
f 2 9 5
f 3 7 10
f 3 10 8
f 4 8 10
f 4 10 9
f 4 9 6
f 5 9 10
f 5 10 7

