# https://github.com/mikedh/trimesh
v -0.06200000 0.08621293 0.10502487
v -0.06200000 0.08608927 0.10497165
v -0.06200000 0.08596266 0.10492592
v -0.06200000 0.08583353 0.10488785
v -0.06200000 0.08570237 0.10485757
v -0.06200000 0.08556962 0.10483518
v -0.06200000 0.08543577 0.10482078
v -0.06200000 0.08530130 0.10481440
v -0.06200000 0.08516670 0.10481608
v -0.06200000 0.08503243 0.10482581
v -0.06200000 0.08489898 0.10484354
v -0.06200000 0.08476684 0.10486923
v -0.06200000 0.08463646 0.10490277
v -0.06200000 0.08450833 0.10494405
v -0.06200000 0.08438289 0.10499292
v -0.06200000 0.08426060 0.10504921
v -0.06200000 0.08414190 0.10511270
v -0.06200000 0.08402720 0.10518319
v -0.06200000 0.08391693 0.10526040
v -0.06200000 0.08381147 0.10534407
v -0.06200000 0.08371121 0.10543390
v -0.06200000 0.08361649 0.10552956
v -0.06200000 0.08352767 0.10563072
v -0.06200000 0.08344505 0.10573701
v -0.06200000 0.08336894 0.10584805
v -0.06200000 0.08329961 0.10596344
v -0.06200000 0.08323730 0.10608277
v -0.06200000 0.08318224 0.10620561
v -0.06200000 0.08313462 0.10633153
v -0.06200000 0.08309462 0.10646007
v -0.06200000 0.08306238 0.10659077
v -0.06200000 0.08303801 0.10672317
v -0.06200000 0.08302160 0.10685678
v -0.06200000 0.08301322 0.10699114
v -0.06200000 0.08301288 0.10712576
v -0.06200000 0.08302060 0.10726016
v -0.06200000 0.08303634 0.10739386
v -0.06200000 0.08306004 0.10752637
v -0.06200000 0.08309163 0.10765723
v -0.06200000 0.08313099 0.10778597
v -0.06200000 0.08317798 0.10791212
v -0.06200000 0.08323243 0.10803524
v -0.06200000 0.08329414 0.10815488
v -0.06200000 0.08336290 0.10827062
v -0.06200000 0.08343846 0.10838203
v -0.06200000 0.08352054 0.10848873
v -0.06200000 0.08360886 0.10859033
v -0.06200000 0.08370310 0.10868647
v -0.06200000 0.08380291 0.10877679
v -0.06200000 0.08390795 0.10886099
v -0.06200000 0.08401784 0.10893875
v -0.06200000 0.08413218 0.10900981
v -0.06200000 0.08425057 0.10907389
v -0.06200000 0.08437257 0.10913079
v -0.06200000 0.08449777 0.10918028
v -0.06200000 0.08462569 0.10922220
v -0.06200000 0.08475590 0.10925639
v -0.06200000 0.08488791 0.10928274
v -0.06200000 0.08502127 0.10930114
v -0.06200000 0.08515549 0.10931154
v -0.06200000 0.08529009 0.10931389
v -0.06200000 0.08542458 0.10930818
v -0.06200000 0.08555850 0.10929444
v -0.06200000 0.08569136 0.10927272
v -0.06200000 0.08582268 0.10924309
v -0.06200000 0.08595199 0.10920566
v -0.06200000 0.08607883 0.10916057
v -0.06200000 0.08620275 0.10910797
v -0.06200000 0.08632330 0.10904805
v -0.06200000 0.08644005 0.10898103
v -0.06200000 0.08655258 0.10890715
v -0.06200000 0.08666050 0.10882667
v -0.06200000 0.08676341 0.10873988
v -0.06200000 0.08686094 0.10864710
v -0.06200000 0.08695275 0.10854864
v -0.06200000 0.08703851 0.10844487
v -0.06200000 0.08711791 0.10833616
v -0.06200000 0.08719066 0.10822290
v -0.06200000 0.08725651 0.10810548
v -0.06200000 0.08731523 0.10798434
v -0.06200000 0.08736659 0.10785990
v -0.06200000 0.08741042 0.10773262
v -0.06200000 0.08744655 0.10760294
v -0.06200000 0.08747487 0.10747133
v -0.06200000 0.08749527 0.10733827
v -0.06200000 0.08750767 0.10720422
v -0.06200000 0.08751203 0.10706967
v -0.06200000 0.08750834 0.10693510
v -0.06200000 0.08749660 0.10680099
v -0.06200000 0.08747687 0.10666783
v -0.06200000 0.08744921 0.10653608
v -0.06200000 0.08741372 0.10640622
v -0.06200000 0.08737053 0.10627872
v -0.06200000 0.08731979 0.10615403
v -0.06200000 0.08726168 0.10603260
v -0.06200000 0.08719642 0.10591486
v -0.06200000 0.08712423 0.10580123
v -0.06200000 0.08704537 0.10569212
v -0.06200000 0.08696013 0.10558793
v -0.06200000 0.08686881 0.10548902
v -0.06200000 0.08677174 0.10539574
v -0.06200000 0.08666927 0.10530844
v -0.06200000 0.08656176 0.10522743
v -0.06200000 0.08644959 0.10515298
v -0.06200000 0.08633318 0.10508538
v -0.04700000 0.08621293 0.10502487
v -0.04700000 0.08608927 0.10497165
v -0.04700000 0.08596266 0.10492592
v -0.04700000 0.08583353 0.10488785
v -0.04700000 0.08570237 0.10485757
v -0.04700000 0.08556962 0.10483518
v -0.04700000 0.08543577 0.10482078
v -0.04700000 0.08530130 0.10481440
v -0.04700000 0.08516670 0.10481608
v -0.04700000 0.08503243 0.10482581
v -0.04700000 0.08489898 0.10484354
v -0.04700000 0.08476684 0.10486923
v -0.04700000 0.08463646 0.10490277
v -0.04700000 0.08450833 0.10494405
v -0.04700000 0.08438289 0.10499292
v -0.04700000 0.08426060 0.10504921
v -0.04700000 0.08414190 0.10511270
v -0.04700000 0.08402720 0.10518319
v -0.04700000 0.08391693 0.10526040
v -0.04700000 0.08381147 0.10534407
v -0.04700000 0.08371121 0.10543390
v -0.04700000 0.08361649 0.10552956
v -0.04700000 0.08352767 0.10563072
v -0.04700000 0.08344505 0.10573701
v -0.04700000 0.08336894 0.10584805
v -0.04700000 0.08329961 0.10596344
v -0.04700000 0.08323730 0.10608277
v -0.04700000 0.08318224 0.10620561
v -0.04700000 0.08313462 0.10633153
v -0.04700000 0.08309462 0.10646007
v -0.04700000 0.08306238 0.10659077
v -0.04700000 0.08303801 0.10672317
v -0.04700000 0.08302160 0.10685678
v -0.04700000 0.08301322 0.10699114
v -0.04700000 0.08301288 0.10712576
v -0.04700000 0.08302060 0.10726016
v -0.04700000 0.08303634 0.10739386
v -0.04700000 0.08306004 0.10752637
v -0.04700000 0.08309163 0.10765723
v -0.04700000 0.08313099 0.10778597
v -0.04700000 0.08317798 0.10791212
v -0.04700000 0.08323243 0.10803524
v -0.04700000 0.08329414 0.10815488
v -0.04700000 0.08336290 0.10827062
v -0.04700000 0.08343846 0.10838203
v -0.04700000 0.08352054 0.10848873
v -0.04700000 0.08360886 0.10859033
v -0.04700000 0.08370310 0.10868647
v -0.04700000 0.08380291 0.10877679
v -0.04700000 0.08390795 0.10886099
v -0.04700000 0.08401784 0.10893875
v -0.04700000 0.08413218 0.10900981
v -0.04700000 0.08425057 0.10907389
v -0.04700000 0.08437257 0.10913079
v -0.04700000 0.08449777 0.10918028
v -0.04700000 0.08462569 0.10922220
v -0.04700000 0.08475590 0.10925639
v -0.04700000 0.08488791 0.10928274
v -0.04700000 0.08502127 0.10930114
v -0.04700000 0.08515549 0.10931154
v -0.04700000 0.08529009 0.10931389
v -0.04700000 0.08542458 0.10930818
v -0.04700000 0.08555850 0.10929444
v -0.04700000 0.08569136 0.10927272
v -0.04700000 0.08582268 0.10924309
v -0.04700000 0.08595199 0.10920566
v -0.04700000 0.08607883 0.10916057
v -0.04700000 0.08620275 0.10910797
v -0.04700000 0.08632330 0.10904805
v -0.04700000 0.08644005 0.10898103
v -0.04700000 0.08655258 0.10890715
v -0.04700000 0.08666050 0.10882667
v -0.04700000 0.08676341 0.10873988
v -0.04700000 0.08686094 0.10864710
v -0.04700000 0.08695275 0.10854864
v -0.04700000 0.08703851 0.10844487
v -0.04700000 0.08711791 0.10833616
v -0.04700000 0.08719066 0.10822290
v -0.04700000 0.08725651 0.10810548
v -0.04700000 0.08731523 0.10798434
v -0.04700000 0.08736659 0.10785990
v -0.04700000 0.08741042 0.10773262
v -0.04700000 0.08744655 0.10760294
v -0.04700000 0.08747487 0.10747133
v -0.04700000 0.08749527 0.10733827
v -0.04700000 0.08750767 0.10720422
v -0.04700000 0.08751203 0.10706967
v -0.04700000 0.08750834 0.10693510
v -0.04700000 0.08749660 0.10680099
v -0.04700000 0.08747687 0.10666783
v -0.04700000 0.08744921 0.10653608
v -0.04700000 0.08741372 0.10640622
v -0.04700000 0.08737053 0.10627872
v -0.04700000 0.08731979 0.10615403
v -0.04700000 0.08726168 0.10603260
v -0.04700000 0.08719642 0.10591486
v -0.04700000 0.08712423 0.10580123
v -0.04700000 0.08704537 0.10569212
v -0.04700000 0.08696013 0.10558793
v -0.04700000 0.08686881 0.10548902
v -0.04700000 0.08677174 0.10539574
v -0.04700000 0.08666927 0.10530844
v -0.04700000 0.08656176 0.10522743
v -0.04700000 0.08644959 0.10515298
v -0.04700000 0.08633318 0.10508538
f 11 115 116
f 10 115 11
f 12 11 117
f 117 11 116
f 128 24 23
f 129 24 128
f 46 45 151
f 151 45 150
f 149 45 44
f 150 45 149
f 146 42 41
f 147 42 146
f 143 39 38
f 144 39 143
f 140 36 35
f 141 36 140
f 107 2 1
f 1 106 107
f 107 3 2
f 108 3 107
f 109 5 4
f 110 5 109
f 4 3 109
f 109 3 108
f 120 15 14
f 120 14 119
f 18 17 123
f 123 17 122
f 8 7 112
f 113 8 112
f 114 9 8
f 114 8 113
f 10 9 114
f 114 115 10
f 14 13 118
f 119 14 118
f 118 13 12
f 12 117 118
f 48 47 152
f 153 48 152
f 152 47 46
f 46 151 152
f 43 42 148
f 148 42 147
f 44 43 148
f 148 149 44
f 37 36 142
f 142 36 141
f 38 37 142
f 142 143 38
f 139 140 34
f 34 140 35
f 138 34 33
f 139 34 138
f 26 131 132
f 26 132 27
f 25 24 130
f 130 24 129
f 130 26 25
f 131 26 130
f 1 105 210
f 210 106 1
f 105 104 210
f 210 104 209
f 208 104 103
f 209 104 208
f 205 101 100
f 206 101 205
f 182 183 77
f 77 183 78
f 181 77 76
f 182 77 181
f 164 59 58
f 164 58 163
f 166 167 62
f 61 166 62
f 62 167 168
f 168 63 62
f 66 171 172
f 66 172 67
f 64 63 169
f 169 63 168
f 173 68 67
f 67 172 173
f 53 52 157
f 157 158 53
f 157 52 51
f 51 156 157
f 51 50 155
f 155 156 51
f 121 17 16
f 122 17 121
f 16 15 121
f 15 120 121
f 6 5 111
f 111 5 110
f 111 7 6
f 111 112 7
f 21 20 125
f 126 21 125
f 19 123 124
f 18 123 19
f 124 125 19
f 19 125 20
f 22 128 23
f 22 127 128
f 126 127 22
f 22 21 126
f 145 39 144
f 145 40 39
f 145 146 41
f 41 40 145
f 204 205 99
f 99 205 100
f 203 98 97
f 203 97 202
f 203 99 98
f 204 99 203
f 197 93 92
f 198 93 197
f 92 91 197
f 91 196 197
f 195 90 89
f 195 89 194
f 91 90 195
f 195 196 91
f 97 96 201
f 202 97 201
f 201 96 95
f 95 200 201
f 192 87 86
f 86 191 192
f 86 85 190
f 190 191 86
f 75 74 180
f 180 74 179
f 180 76 75
f 180 181 76
f 176 71 70
f 176 70 175
f 72 71 176
f 176 177 72
f 58 57 162
f 163 58 162
f 54 53 159
f 53 158 159
f 159 55 54
f 160 55 159
f 154 49 48
f 154 48 153
f 50 49 154
f 154 155 50
f 137 32 31
f 137 31 136
f 137 138 33
f 33 32 137
f 31 30 135
f 136 31 135
f 135 30 29
f 29 134 135
f 27 132 133
f 133 28 27
f 29 28 133
f 133 134 29
f 207 101 206
f 207 102 101
f 207 208 103
f 103 102 207
f 199 93 198
f 199 94 93
f 199 200 95
f 95 94 199
f 189 84 83
f 83 188 189
f 85 84 189
f 189 190 85
f 179 74 178
f 74 73 178
f 72 177 178
f 178 73 72
f 82 187 188
f 82 188 83
f 186 187 82
f 82 81 186
f 78 183 79
f 183 184 79
f 56 55 161
f 161 55 160
f 161 57 56
f 161 162 57
f 165 166 61
f 61 60 165
f 59 164 165
f 165 60 59
f 171 66 170
f 66 65 170
f 64 169 170
f 170 65 64
f 175 70 174
f 70 69 174
f 68 173 174
f 174 69 68
f 193 164 163
f 113 112 193
f 193 154 153
f 141 140 193
f 193 114 113
f 144 143 193
f 168 167 193
f 158 157 193
f 202 201 193
f 129 128 193
f 147 146 193
f 206 205 193
f 193 145 144
f 193 183 182
f 193 176 175
f 110 109 193
f 124 123 193
f 193 111 110
f 193 127 126
f 150 149 193
f 193 142 141
f 193 130 129
f 193 137 136
f 193 195 194
f 193 184 183
f 193 169 168
f 193 180 179
f 193 107 106
f 193 120 119
f 116 115 193
f 193 117 116
f 119 118 193
f 193 151 150
f 153 152 193
f 193 125 124
f 193 148 147
f 193 140 139
f 132 131 193
f 106 210 193
f 193 133 132
f 198 197 193
f 175 174 193
f 182 181 193
f 188 187 193
f 193 167 166
f 172 171 193
f 171 170 193
f 108 107 193
f 193 109 108
f 193 159 158
f 193 123 122
f 122 121 193
f 115 114 193
f 193 118 117
f 128 127 193
f 193 152 151
f 149 148 193
f 143 142 193
f 139 138 193
f 131 130 193
f 136 135 193
f 193 210 209
f 209 208 193
f 193 205 204
f 193 203 202
f 193 207 206
f 193 199 198
f 193 189 188
f 163 162 193
f 193 161 160
f 166 165 193
f 193 173 172
f 193 157 156
f 156 155 193
f 193 121 120
f 112 111 193
f 126 125 193
f 146 145 193
f 204 203 193
f 193 197 196
f 196 195 193
f 193 201 200
f 193 192 191
f 191 190 193
f 181 180 193
f 177 176 193
f 193 187 186
f 179 178 193
f 186 185 193
f 160 159 193
f 155 154 193
f 138 137 193
f 193 135 134
f 134 133 193
f 208 207 193
f 200 199 193
f 190 189 193
f 193 178 177
f 193 185 184
f 162 161 193
f 193 165 164
f 193 170 169
f 193 174 173
f 194 89 193
f 89 88 193
f 87 192 193
f 193 88 87
f 80 77 78
f 35 36 80
f 80 57 58
f 80 34 35
f 23 24 80
f 80 53 54
f 80 66 67
f 83 84 80
f 72 73 80
f 6 7 80
f 1 2 80
f 80 69 70
f 89 90 80
f 80 17 18
f 80 47 48
f 10 11 80
f 80 3 4
f 80 13 14
f 44 45 80
f 80 30 31
f 80 105 1
f 80 102 103
f 54 55 80
f 41 42 80
f 80 50 51
f 48 49 80
f 67 68 80
f 51 52 80
f 14 15 80
f 80 9 10
f 80 5 6
f 80 37 38
f 80 43 44
f 80 40 41
f 80 26 27
f 100 101 80
f 80 99 100
f 103 104 80
f 95 96 80
f 80 94 95
f 61 62 80
f 80 71 72
f 46 47 80
f 80 49 50
f 80 52 53
f 80 15 16
f 12 13 80
f 8 9 80
f 80 7 8
f 80 11 12
f 4 5 80
f 80 24 25
f 18 19 80
f 80 36 37
f 80 42 43
f 80 45 46
f 38 39 80
f 80 22 23
f 31 32 80
f 27 28 80
f 80 91 92
f 80 96 97
f 75 76 80
f 80 88 89
f 58 59 80
f 80 63 64
f 70 71 80
f 64 65 80
f 2 3 80
f 16 17 80
f 80 20 21
f 39 40 80
f 33 34 80
f 25 26 80
f 80 104 105
f 97 98 80
f 80 90 91
f 92 93 80
f 86 87 80
f 80 85 86
f 76 77 80
f 80 74 75
f 80 82 83
f 56 57 80
f 80 62 63
f 80 60 61
f 80 19 20
f 21 22 80
f 80 32 33
f 29 30 80
f 80 28 29
f 101 102 80
f 98 99 80
f 93 94 80
f 80 84 85
f 80 73 74
f 80 55 56
f 59 60 80
f 80 65 66
f 68 69 80
f 87 88 80
f 81 82 80
f 78 79 80
f 186 81 80
f 80 185 186
f 184 185 80
f 80 79 184

