# https://github.com/mikedh/trimesh
v 0.00753503 0.00321699 0.02089981
v 0.00753503 0.00265906 0.02089981
v 0.00753503 0.00321699 0.01900000
v 0.00382491 0.00321699 0.02089981
v 0.00753503 0.00110626 0.01940005
v 0.00534274 0.00047036 0.02089981
v 0.00753503 0.00110626 0.01900000
v 0.00382491 0.00321699 0.01900000
v 0.00497590 0.00047036 0.02089981
v 0.00689616 0.00047036 0.01940005
v 0.00689616 0.00047036 0.01900000
v 0.00497590 0.00047036 0.01900000
f 1 2 5
f 1 5 7
f 1 7 3
f 1 3 8
f 1 8 4
f 1 4 9
f 1 9 6
f 1 6 2
f 2 6 5
f 3 7 11
f 3 11 12
f 3 12 8
f 4 8 12
f 4 12 9
f 5 6 10
f 5 10 11
f 5 11 7
f 6 9 12
f 6 12 11
f 6 11 10

