# https://github.com/mikedh/trimesh
v 0.01849993 0.00321726 0.02394240
v 0.01850238 -0.00556750 0.02337007
v 0.01850238 -0.00178697 0.02289741
v 0.01850238 -0.00177291 0.02289499
v 0.01850238 0.00321726 0.02199901
v 0.01720006 0.00321726 0.02394240
v 0.01849993 -0.00727726 0.02394240
v 0.01850238 -0.01058737 0.02360616
v 0.01850238 -0.00805712 0.02354956
v 0.01850238 0.00321726 0.01900000
v 0.01718000 0.00321726 0.02090033
v 0.01720006 -0.00728663 0.02394240
v 0.01742840 -0.01274722 0.02358004
v 0.01850238 -0.01274722 0.02357375
v 0.01850238 -0.01271753 0.02357423
v 0.01850238 -0.01059049 0.02360616
v 0.01718000 0.00321726 0.01900000
v 0.01850238 -0.01274722 0.01900000
v 0.01718000 -0.01274722 0.02090033
v 0.01720006 -0.01274722 0.02357423
v 0.01718000 -0.01274722 0.01900000
f 1 2 3
f 1 3 4
f 1 4 5
f 1 5 10
f 1 10 17
f 1 17 11
f 1 11 6
f 1 6 12
f 1 12 7
f 1 7 16
f 1 16 8
f 1 8 9
f 1 9 2
f 2 9 8
f 2 8 16
f 2 16 15
f 2 15 14
f 2 14 18
f 2 18 10
f 2 10 5
f 2 5 4
f 2 4 3
f 6 11 19
f 6 19 12
f 7 12 13
f 7 13 14
f 7 14 15
f 7 15 16
f 10 18 21
f 10 21 17
f 11 17 21
f 11 21 19
f 12 19 20
f 12 20 13
f 13 20 19
f 13 19 21
f 13 21 18
f 13 18 14

