# https://github.com/mikedh/trimesh
v -0.00187050 -0.00463513 0.02089981
v -0.00038360 -0.00498314 0.02089981
v -0.00187050 -0.00463513 0.01900000
v -0.00187050 -0.00605350 0.02089981
v -0.00038360 -0.00532866 0.02089981
v -0.00038360 -0.00498314 0.01900000
v -0.00187050 -0.00827002 0.01900000
v -0.00187050 -0.00827002 0.02009246
v -0.00038360 -0.00686339 0.01940005
v -0.00116867 -0.00827002 0.01940005
v -0.00038360 -0.00686339 0.01900000
v -0.00116867 -0.00827002 0.01900000
f 1 2 6
f 1 6 3
f 1 3 7
f 1 7 8
f 1 8 4
f 1 4 5
f 1 5 2
f 2 5 9
f 2 9 11
f 2 11 6
f 3 6 11
f 3 11 12
f 3 12 7
f 4 8 5
f 5 8 10
f 5 10 9
f 7 12 10
f 7 10 8
f 9 10 12
f 9 12 11

