# https://github.com/mikedh/trimesh
v -0.00382567 0.00321726 0.02089981
v -0.00499668 0.00017335 0.02089981
v -0.00382567 0.00321726 0.01900000
v -0.00748073 0.00321726 0.02089981
v -0.00530615 0.00017335 0.02089981
v -0.00499668 0.00017335 0.01900000
v -0.00748073 0.00321726 0.01900000
v -0.00748073 0.00264930 0.02089981
v -0.00568504 0.00017335 0.02052487
v -0.00681276 0.00017335 0.01900000
v -0.00748073 0.00108161 0.01900000
v -0.00748073 0.00108161 0.01940005
v -0.00681276 0.00017335 0.01940005
f 1 2 6
f 1 6 3
f 1 3 7
f 1 7 4
f 1 4 8
f 1 8 5
f 1 5 2
f 2 5 9
f 2 9 13
f 2 13 10
f 2 10 6
f 3 6 10
f 3 10 11
f 3 11 7
f 4 7 11
f 4 11 12
f 4 12 8
f 5 8 9
f 8 12 13
f 8 13 9
f 10 13 12
f 10 12 11

