# https://github.com/mikedh/trimesh
v -0.00322975 0.00735551 0.01900000
v -0.00322975 0.00735551 0.02089981
v -0.00322975 0.00839843 0.01900000
v -0.00101239 0.00735551 0.01900000
v -0.00322975 0.00839843 0.02089981
v -0.00262066 0.00735551 0.02089981
v -0.00113178 0.00839843 0.01900000
v -0.00101239 0.00735551 0.01940005
v -0.00267015 0.00839843 0.02089981
v -0.00113178 0.00839843 0.01940005
f 1 2 5
f 1 5 3
f 1 3 7
f 1 7 4
f 1 4 8
f 1 8 6
f 1 6 2
f 2 6 9
f 2 9 5
f 3 5 9
f 3 9 10
f 3 10 7
f 4 7 10
f 4 10 8
f 6 8 9
f 8 10 9

