# https://github.com/mikedh/trimesh
v -0.00914210 0.00036805 0.01940005
v -0.00872351 -0.00253663 0.02083863
v -0.00872351 -0.00095789 0.01940005
v -0.00914210 0.00036805 0.01900000
v -0.01067430 0.00036805 0.02089981
v -0.00892365 -0.00253663 0.02089981
v -0.00872351 -0.00253663 0.01900000
v -0.00872351 -0.00095789 0.01900000
v -0.01495665 0.00036805 0.01900000
v -0.01495665 0.00036805 0.02089981
v -0.01495665 -0.00253663 0.02089981
v -0.01495665 -0.00253663 0.01900000
f 1 2 3
f 1 3 8
f 1 8 4
f 1 4 9
f 1 9 10
f 1 10 5
f 1 5 2
f 2 6 11
f 2 11 12
f 2 12 7
f 2 7 8
f 2 8 3
f 2 5 6
f 4 8 7
f 4 7 12
f 4 12 9
f 5 10 11
f 5 11 6
f 9 12 11
f 9 11 10

