# https://github.com/mikedh/trimesh
v 0.01720000 -0.03100282 0.02386229
v 0.01800004 -0.03100282 0.02386229
v 0.01720000 -0.03025497 0.02516249
v 0.01720000 -0.01716221 0.02386229
v 0.01949980 -0.02875792 0.02516249
v 0.01917886 -0.02907901 0.02516249
v 0.01850024 -0.02975776 0.02516249
v 0.01800004 -0.03025497 0.02516249
v 0.02000000 -0.02853709 0.02386229
v 0.02000000 -0.02825393 0.02516249
v 0.01720000 -0.02219122 0.02516249
v 0.02000000 -0.02219122 0.02516249
v 0.02000000 -0.01719201 0.02386229
f 1 2 8
f 1 8 3
f 1 3 11
f 1 11 4
f 1 4 13
f 1 13 9
f 1 9 2
f 2 5 6
f 2 6 7
f 2 7 8
f 2 9 10
f 2 10 5
f 3 8 7
f 3 7 6
f 3 6 5
f 3 5 10
f 3 10 12
f 3 12 11
f 4 11 12
f 4 12 13
f 9 13 12
f 9 12 10

