# https://github.com/mikedh/trimesh
v 0.00688878 -0.00045295 0.01940005
v 0.00688878 -0.00045295 0.01900000
v 0.00533954 -0.00045295 0.02089981
v 0.00766218 -0.00115171 0.01940005
v 0.00497731 -0.00045295 0.01900000
v 0.00766218 -0.00115171 0.01900000
v 0.00497731 -0.00045295 0.02089981
v 0.00766218 -0.00267752 0.02089981
v 0.00349497 -0.00357296 0.01900000
v 0.00766218 -0.00357296 0.01900000
v 0.00349497 -0.00357296 0.02089981
v 0.00766218 -0.00357296 0.02089981
f 1 2 5
f 1 5 7
f 1 7 3
f 1 3 4
f 1 4 6
f 1 6 2
f 2 6 10
f 2 10 9
f 2 9 5
f 3 7 11
f 3 11 12
f 3 12 8
f 3 8 4
f 4 8 12
f 4 12 10
f 4 10 6
f 5 9 11
f 5 11 7
f 9 10 12
f 9 12 11

