# https://github.com/mikedh/trimesh
v 0.01720000 -0.01716242 0.02386229
v 0.02000000 -0.01719277 0.02386229
v 0.01742858 -0.01274878 0.02358015
v 0.01720000 -0.01274878 0.02357436
v 0.01720000 -0.03100271 0.02386229
v 0.02000000 -0.01274878 0.02356915
v 0.02000000 -0.02853698 0.02386229
v 0.01720000 -0.01274878 0.02090601
v 0.01720000 -0.03212556 0.02355526
v 0.01800004 -0.03100271 0.02386229
v 0.02000000 -0.01274878 0.02090601
v 0.01800004 -0.03212556 0.02355526
v 0.01850024 -0.03212556 0.02305666
v 0.01927972 -0.03212556 0.02227824
v 0.01949980 -0.03212556 0.02205802
v 0.02000000 -0.03212556 0.02155335
v 0.01720000 -0.03212556 0.02090601
v 0.02000000 -0.03212556 0.02090601
f 1 2 3
f 1 3 4
f 1 4 8
f 1 8 17
f 1 17 9
f 1 9 5
f 1 5 10
f 1 10 7
f 1 7 2
f 2 6 3
f 2 7 16
f 2 16 18
f 2 18 11
f 2 11 6
f 3 6 11
f 3 11 8
f 3 8 4
f 5 9 12
f 5 12 10
f 7 10 12
f 7 12 13
f 7 13 14
f 7 14 15
f 7 15 16
f 8 11 18
f 8 18 17
f 9 17 18
f 9 18 16
f 9 16 15
f 9 15 14
f 9 14 13
f 9 13 12

