# https://github.com/mikedh/trimesh
v 0.00148186 -0.01025591 0.02089981
v -0.00038360 -0.01067164 0.02089981
v 0.00148186 -0.01274878 0.02089981
v 0.00148186 -0.00884157 0.01990704
v -0.00038360 -0.01274878 0.02089981
v -0.00038360 -0.00913683 0.01940005
v 0.00148186 -0.01274878 0.01900000
v 0.00148186 -0.00884157 0.01900000
v 0.00085535 -0.00884157 0.01940005
v -0.00038360 -0.01274878 0.01900000
v -0.00038360 -0.00913683 0.01900000
v 0.00085535 -0.00884157 0.01900000
f 1 2 5
f 1 5 3
f 1 3 7
f 1 7 8
f 1 8 4
f 1 4 2
f 2 4 6
f 2 6 11
f 2 11 10
f 2 10 5
f 3 5 10
f 3 10 7
f 4 8 12
f 4 12 9
f 4 9 6
f 6 9 12
f 6 12 11
f 7 10 11
f 7 11 12
f 7 12 8

