# https://github.com/mikedh/trimesh
v -0.01718723 0.01424892 0.02113288
v -0.01718723 0.01424892 0.01900000
v -0.01849995 0.01424892 0.02113288
v -0.01718723 0.01144970 0.02113288
v -0.01850318 0.01424892 0.01900000
v -0.01718723 0.00321726 0.01900000
v -0.01850318 0.01424892 0.02055764
v -0.01850318 0.01395193 0.02057706
v -0.01850318 0.00321726 0.02112537
v -0.01849995 0.00321726 0.02113288
v -0.01720011 0.00321726 0.02113288
v -0.01718723 0.00321726 0.02089986
v -0.01850318 0.00321726 0.01900000
f 1 2 5
f 1 5 7
f 1 7 3
f 1 3 10
f 1 10 11
f 1 11 4
f 1 4 12
f 1 12 6
f 1 6 2
f 2 6 13
f 2 13 5
f 3 7 8
f 3 8 9
f 3 9 10
f 4 11 12
f 5 13 9
f 5 9 8
f 5 8 7
f 6 12 11
f 6 11 10
f 6 10 9
f 6 9 13

