# https://github.com/mikedh/trimesh
v -0.00002909 0.01145023 0.02105556
v -0.01715515 0.01145023 0.02113348
v -0.00002909 0.01424972 0.02105556
v 0.01719818 0.01143978 0.02105556
v -0.01715515 0.01424972 0.02113348
v -0.01715515 0.01145023 0.02990000
v 0.01850000 0.01424972 0.02105556
v 0.01850000 0.01143978 0.02105556
v 0.01719818 0.01143978 0.02990000
v -0.01715515 0.01424972 0.02990000
v 0.01850000 0.01424972 0.02990000
v 0.01850000 0.01143978 0.02990000
f 1 2 5
f 1 5 3
f 1 3 7
f 1 7 8
f 1 8 4
f 1 4 2
f 2 4 9
f 2 9 6
f 2 6 10
f 2 10 5
f 3 5 10
f 3 10 11
f 3 11 7
f 4 8 12
f 4 12 9
f 6 9 12
f 6 12 11
f 6 11 10
f 7 11 12
f 7 12 8

