# https://github.com/mikedh/trimesh
v -0.01720000 -0.03128691 0.02990000
v -0.02000000 -0.03128691 0.02990000
v -0.01720000 -0.03345276 0.02990000
v -0.01720000 -0.03128691 0.02689758
v -0.02000000 -0.03345276 0.02990000
v -0.02000000 -0.03128691 0.02898118
v -0.01720000 -0.03345276 0.02627439
v -0.01800004 -0.03128691 0.02689758
v -0.02000000 -0.03345276 0.02875617
v -0.01800004 -0.03345276 0.02627439
f 1 2 5
f 1 5 3
f 1 3 7
f 1 7 4
f 1 4 8
f 1 8 6
f 1 6 2
f 2 6 9
f 2 9 5
f 3 5 9
f 3 9 10
f 3 10 7
f 4 7 10
f 4 10 8
f 6 8 10
f 6 10 9

