# https://github.com/mikedh/trimesh
v 0.00124198 0.00560389 0.02089981
v -0.00003171 0.00530165 0.02089981
v 0.00124198 0.00484313 0.02089981
v 0.00124198 0.00804246 0.01944338
v -0.00003171 0.00567906 0.02052487
v -0.00003171 0.00499816 0.02089981
v 0.00124198 0.00484313 0.01900000
v 0.00124198 0.00804246 0.01900000
v 0.00119872 0.00804246 0.01940005
v -0.00003171 0.00642823 0.01977518
v -0.00003171 0.00499816 0.01900000
v 0.00119872 0.00804246 0.01900000
v -0.00003171 0.00680062 0.01940005
v -0.00003171 0.00680062 0.01900000
f 1 2 6
f 1 6 3
f 1 3 7
f 1 7 8
f 1 8 4
f 1 4 2
f 2 5 10
f 2 10 13
f 2 13 14
f 2 14 11
f 2 11 6
f 2 4 5
f 3 6 11
f 3 11 7
f 4 8 12
f 4 12 9
f 4 9 5
f 5 9 10
f 7 11 14
f 7 14 12
f 7 12 8
f 9 12 14
f 9 14 13
f 9 13 10

