# https://github.com/mikedh/trimesh
v 0.01850000 0.00666077 0.02417417
v 0.01720000 0.00666077 0.02417417
v 0.01850000 0.00321771 0.02417417
v 0.01850000 0.00781295 0.02355990
v 0.01720000 0.00321771 0.02417417
v 0.01720000 0.00781295 0.02355990
v 0.01850000 0.00321771 0.02200801
v 0.01850000 0.00781295 0.02200801
v 0.01720000 0.00321771 0.02200801
v 0.01720000 0.00781295 0.02200801
f 1 2 5
f 1 5 3
f 1 3 7
f 1 7 8
f 1 8 4
f 1 4 6
f 1 6 2
f 2 6 10
f 2 10 9
f 2 9 5
f 3 5 9
f 3 9 7
f 4 8 10
f 4 10 6
f 7 9 10
f 7 10 8

