# https://github.com/mikedh/trimesh
v 0.01720000 0.00321807 0.02105566
v 0.01850247 0.00321807 0.02105566
v 0.01720000 0.00321807 0.02200801
v 0.01720000 0.01143870 0.02105566
v 0.01850247 0.00321807 0.02199925
v 0.01850247 0.00869339 0.02105566
v 0.01849992 0.00321807 0.02200801
v 0.01720000 0.01143870 0.02200801
v 0.01849992 0.01143870 0.02105566
v 0.01849992 0.01143870 0.02200801
f 1 2 5
f 1 5 7
f 1 7 3
f 1 3 8
f 1 8 4
f 1 4 9
f 1 9 6
f 1 6 2
f 2 6 5
f 3 7 10
f 3 10 8
f 4 8 10
f 4 10 9
f 5 6 10
f 5 10 7
f 6 9 10

