# https://github.com/mikedh/trimesh
v 0.02000000 -0.01058737 0.02360636
v 0.02000000 -0.00805399 0.02354909
v 0.01850238 -0.00805712 0.02354954
v 0.01850238 -0.01058737 0.02360636
v 0.01850238 -0.01271753 0.02357434
v 0.01850238 -0.01274722 0.02357389
v 0.02000000 -0.01274722 0.02356893
v 0.02000000 -0.00556750 0.02337009
v 0.01850238 -0.00556750 0.02337009
v 0.01850238 -0.01274722 0.01900000
v 0.02000000 -0.01274722 0.01900000
v 0.02000000 -0.00178697 0.02289710
v 0.01850238 -0.00178697 0.02289710
v 0.01850238 0.00321726 0.01900000
v 0.02000000 0.00321726 0.01900000
v 0.01850238 -0.00177291 0.02289484
v 0.02000000 0.00321726 0.02199891
v 0.01850238 0.00321726 0.02199891
f 1 2 3
f 1 3 4
f 1 4 5
f 1 5 6
f 1 6 7
f 1 7 11
f 1 11 15
f 1 15 17
f 1 17 12
f 1 12 8
f 1 8 2
f 2 8 3
f 3 8 9
f 3 9 13
f 3 13 16
f 3 16 18
f 3 18 14
f 3 14 10
f 3 10 6
f 3 6 5
f 3 5 4
f 6 10 11
f 6 11 7
f 8 12 13
f 8 13 9
f 10 14 15
f 10 15 11
f 12 16 13
f 12 17 16
f 14 18 17
f 14 17 15
f 16 17 18

