# https://github.com/mikedh/trimesh
v 0.02000000 0.00804246 0.02105536
v 0.02000000 0.00321726 0.02105536
v 0.02000000 0.00804246 0.01900000
v 0.01719989 0.00804246 0.02105536
v 0.02000000 0.00321726 0.01900000
v 0.01719989 0.00321726 0.02105536
v 0.00124198 0.00804246 0.01900000
v 0.00269988 0.00804246 0.02089983
v 0.00124198 0.00560388 0.02089983
v 0.00382543 0.00321726 0.01900000
v 0.00124198 0.00484298 0.02089983
v 0.00382543 0.00321726 0.02089983
v 0.00124198 0.00484298 0.01900000
v 0.00124198 0.00804246 0.01944327
v 0.00232347 0.00804246 0.02052497
v 0.00200582 0.00804246 0.02020787
v 0.00157249 0.00804246 0.01977506
f 1 2 5
f 1 5 3
f 1 3 7
f 1 7 14
f 1 14 17
f 1 17 16
f 1 16 15
f 1 15 8
f 1 8 4
f 1 4 6
f 1 6 2
f 2 6 12
f 2 12 10
f 2 10 5
f 3 5 10
f 3 10 13
f 3 13 7
f 4 8 9
f 4 9 11
f 4 11 6
f 6 11 12
f 7 13 11
f 7 11 9
f 7 9 14
f 8 15 9
f 9 15 16
f 9 16 17
f 9 17 14
f 10 12 11
f 10 11 13

