# https://github.com/mikedh/trimesh
v -0.02000000 -0.02853875 0.02674073
v -0.02000000 -0.02409692 0.02674073
v -0.02000000 -0.02825428 0.02515579
v -0.01800004 -0.03100740 0.02674073
v -0.01720000 -0.02409778 0.02674073
v -0.01720000 -0.02217474 0.02515579
v -0.02000000 -0.02217820 0.02515579
v -0.01949980 -0.02875838 0.02515579
v -0.01850024 -0.02975795 0.02515579
v -0.01800004 -0.03025600 0.02515579
v -0.01720000 -0.03100740 0.02674073
v -0.01720000 -0.03025600 0.02515579
f 1 2 7
f 1 7 3
f 1 3 4
f 1 4 11
f 1 11 5
f 1 5 2
f 2 5 6
f 2 6 7
f 3 7 6
f 3 6 12
f 3 12 10
f 3 10 9
f 3 9 8
f 3 8 4
f 4 8 9
f 4 9 10
f 4 10 12
f 4 12 11
f 5 11 12
f 5 12 6

