# https://github.com/mikedh/trimesh
v -0.01715682 0.01425000 0.02552605
v -0.01715682 0.01425000 0.02113309
v -0.01849987 0.01425000 0.02552605
v -0.01715682 0.01145047 0.02552605
v -0.01849987 0.01425000 0.02113309
v -0.01715682 0.01145047 0.02113309
v -0.01849987 0.00973513 0.02552605
v -0.01720008 0.00973513 0.02552605
v -0.01720008 0.00942381 0.02428376
v -0.01849987 0.00942381 0.02113309
v -0.01720008 0.00942381 0.02113309
v -0.01849987 0.00942381 0.02428376
f 1 2 5
f 1 5 3
f 1 3 7
f 1 7 8
f 1 8 4
f 1 4 6
f 1 6 2
f 2 6 11
f 2 11 10
f 2 10 5
f 3 5 10
f 3 10 12
f 3 12 7
f 4 8 9
f 4 9 11
f 4 11 6
f 7 12 9
f 7 9 8
f 9 12 10
f 9 10 11

