# https://github.com/mikedh/trimesh
v 0.00766218 -0.01274878 0.01900000
v 0.01718000 -0.01274878 0.01900000
v 0.00766218 -0.01274878 0.02089981
v 0.00766218 -0.00115223 0.01900000
v 0.01718000 -0.01274878 0.02089981
v 0.01718000 -0.00045295 0.01900000
v 0.00766218 -0.00267838 0.02089981
v 0.00766218 -0.00115223 0.01940005
v 0.00911091 -0.00045295 0.01900000
v 0.01718000 -0.00045295 0.02089981
v 0.01066119 -0.00045295 0.02089981
v 0.00766218 -0.00115464 0.01940302
v 0.00911091 -0.00045295 0.01940005
f 1 2 5
f 1 5 3
f 1 3 7
f 1 7 12
f 1 12 8
f 1 8 4
f 1 4 9
f 1 9 6
f 1 6 2
f 2 6 10
f 2 10 5
f 3 5 10
f 3 10 11
f 3 11 7
f 4 8 13
f 4 13 9
f 6 9 13
f 6 13 11
f 6 11 10
f 7 11 12
f 8 12 11
f 8 11 13

