# https://github.com/mikedh/trimesh
v -0.01715682 0.01425000 0.02989957
v -0.01715682 0.01425000 0.02552648
v -0.01849987 0.01425000 0.02989957
v -0.01715682 0.01144946 0.02989957
v -0.01849987 0.01425000 0.02552648
v -0.01715682 0.01144946 0.02552648
v -0.01849987 0.00863831 0.02989957
v -0.01720008 0.00863831 0.02989957
v -0.01720008 0.00787798 0.02898419
v -0.01849987 0.00973545 0.02552648
v -0.01720008 0.00973545 0.02552648
v -0.01720008 0.00787798 0.02704511
v -0.01849987 0.00787798 0.02898419
v -0.01849987 0.00787798 0.02704511
f 1 2 5
f 1 5 3
f 1 3 7
f 1 7 8
f 1 8 4
f 1 4 6
f 1 6 2
f 2 6 11
f 2 11 10
f 2 10 5
f 3 5 10
f 3 10 14
f 3 14 13
f 3 13 7
f 4 8 9
f 4 9 12
f 4 12 6
f 6 12 11
f 7 13 9
f 7 9 8
f 9 13 14
f 9 14 12
f 10 11 12
f 10 12 14

