# https://github.com/mikedh/trimesh
v -0.00748073 0.00321726 0.02089981
v -0.00748073 0.00321726 0.01900000
v -0.00882431 0.00321726 0.02089981
v -0.00748073 0.00264950 0.02089981
v -0.00882431 0.00321726 0.01900000
v -0.00748073 0.00108143 0.01900000
v -0.00882431 0.00256983 0.02089981
v -0.00748073 0.00264399 0.02089461
v -0.00882431 0.00087182 0.01940005
v -0.00882431 0.00087182 0.01900000
v -0.00748073 0.00108143 0.01940005
f 1 2 5
f 1 5 3
f 1 3 7
f 1 7 4
f 1 4 8
f 1 8 11
f 1 11 6
f 1 6 2
f 2 6 10
f 2 10 5
f 3 5 10
f 3 10 9
f 3 9 7
f 4 7 9
f 4 9 8
f 6 11 9
f 6 9 10
f 8 9 11

