# https://github.com/mikedh/trimesh
v -0.02000000 -0.02853124 0.02387812
v -0.01800004 -0.03098049 0.02387812
v -0.02000000 -0.02825402 0.02515579
v -0.02000000 -0.01731854 0.02387812
v -0.01720000 -0.03098049 0.02387812
v -0.01800004 -0.03025648 0.02515579
v -0.01850024 -0.02975721 0.02515579
v -0.01918735 -0.02907089 0.02515579
v -0.01949980 -0.02875733 0.02515579
v -0.02000000 -0.02217800 0.02515579
v -0.01720000 -0.01723241 0.02387812
v -0.01720000 -0.03025648 0.02515579
v -0.01720000 -0.02217397 0.02515579
f 1 2 3
f 1 3 10
f 1 10 4
f 1 4 11
f 1 11 5
f 1 5 2
f 2 5 12
f 2 12 6
f 2 6 7
f 2 7 8
f 2 8 9
f 2 9 3
f 3 9 8
f 3 8 7
f 3 7 6
f 3 6 12
f 3 12 13
f 3 13 10
f 4 10 11
f 5 11 13
f 5 13 12
f 10 13 11

