# https://github.com/mikedh/trimesh
v 0.01999973 0.01424939 0.02102378
v 0.01999973 0.01424939 0.01900020
v 0.01849972 0.01424939 0.02105536
v 0.01999973 0.00869499 0.02105536
v 0.01999973 0.00804246 0.01900020
v -0.00003171 0.01424939 0.01900020
v -0.00003171 0.01424939 0.02105536
v 0.01999973 0.00804246 0.02105536
v 0.00119967 0.00804246 0.01900020
v -0.00003171 0.00919988 0.01900020
v -0.00003171 0.01144910 0.02105536
v 0.01719972 0.00804246 0.02105536
v 0.00119967 0.00804246 0.01940017
v -0.00003171 0.00919988 0.01940017
v -0.00003171 0.01069936 0.02089964
v 0.00270163 0.00804246 0.02089964
v 0.00157418 0.00804246 0.01977519
v 0.00194869 0.00804246 0.02014980
v 0.00232516 0.00804246 0.02052482
v -0.00003171 0.00970599 0.01990898
v -0.00003171 0.01032146 0.02052482
f 1 2 6
f 1 6 7
f 1 7 3
f 1 3 4
f 1 4 8
f 1 8 5
f 1 5 2
f 2 5 9
f 2 9 10
f 2 10 6
f 3 7 11
f 3 11 12
f 3 12 8
f 3 8 4
f 5 8 12
f 5 12 16
f 5 16 19
f 5 19 18
f 5 18 17
f 5 17 13
f 5 13 9
f 6 10 14
f 6 14 20
f 6 20 21
f 6 21 15
f 6 15 11
f 6 11 7
f 9 13 14
f 9 14 10
f 11 15 16
f 11 16 12
f 13 17 14
f 14 17 18
f 14 18 19
f 14 19 16
f 14 16 20
f 15 21 16
f 16 21 20

