# https://github.com/mikedh/trimesh
v -0.02000000 -0.03542606 0.02090633
v -0.02000000 -0.03217964 0.02090633
v -0.01720000 -0.03542606 0.02090633
v -0.02000000 -0.03542606 0.02377914
v -0.01720000 -0.03217964 0.02090633
v -0.02000000 -0.03217964 0.02155469
v -0.01720000 -0.03542606 0.02418665
v -0.01985309 -0.03542606 0.02418665
v -0.01720000 -0.03217964 0.02355917
v -0.01949980 -0.03217964 0.02205982
v -0.01720000 -0.03335013 0.02418665
v -0.01800004 -0.03335013 0.02418665
v -0.01800004 -0.03217964 0.02355917
f 1 2 5
f 1 5 3
f 1 3 7
f 1 7 8
f 1 8 4
f 1 4 6
f 1 6 2
f 2 6 10
f 2 10 13
f 2 13 9
f 2 9 5
f 3 5 9
f 3 9 11
f 3 11 7
f 4 8 6
f 6 8 10
f 7 11 12
f 7 12 8
f 8 12 13
f 8 13 10
f 9 13 12
f 9 12 11

