# https://github.com/mikedh/trimesh
v 0.01850000 0.01143950 0.02546931
v 0.01850000 0.01143950 0.02414843
v 0.01720000 0.01143950 0.02546931
v 0.01850000 0.00974120 0.02546931
v 0.01720000 0.01143950 0.02414843
v 0.01850000 0.00931813 0.02414843
v 0.01720000 0.00974120 0.02546931
v 0.01850000 0.00931792 0.02414869
v 0.01720000 0.00931813 0.02414843
v 0.01849695 0.00931792 0.02414843
v 0.01720000 0.00931792 0.02414869
f 1 2 5
f 1 5 3
f 1 3 7
f 1 7 4
f 1 4 8
f 1 8 6
f 1 6 2
f 2 6 10
f 2 10 9
f 2 9 5
f 3 5 9
f 3 9 11
f 3 11 7
f 4 7 11
f 4 11 8
f 6 8 10
f 8 11 10
f 9 10 11

