# https://github.com/mikedh/trimesh
v 0.01800004 -0.03335032 0.02418627
v 0.01800004 -0.03212588 0.02355526
v 0.01720000 -0.03335032 0.02418627
v 0.01985309 -0.03542606 0.02418627
v 0.01850024 -0.03212588 0.02305656
v 0.01720000 -0.03212588 0.02355526
v 0.01720000 -0.03542606 0.02418627
v 0.02000000 -0.03542606 0.02377941
v 0.02000000 -0.03212588 0.02155339
v 0.01949980 -0.03212588 0.02205819
v 0.01927972 -0.03212588 0.02227816
v 0.01720000 -0.03212588 0.02090601
v 0.01720000 -0.03542606 0.02091629
v 0.02000000 -0.03542606 0.02090601
v 0.02000000 -0.03212588 0.02090601
v 0.01720000 -0.03542347 0.02090601
v 0.01722522 -0.03542606 0.02090601
f 1 2 6
f 1 6 3
f 1 3 7
f 1 7 4
f 1 4 2
f 2 5 11
f 2 11 10
f 2 10 9
f 2 9 15
f 2 15 12
f 2 12 6
f 2 4 5
f 3 6 12
f 3 12 16
f 3 16 13
f 3 13 7
f 4 7 13
f 4 13 17
f 4 17 14
f 4 14 8
f 4 8 9
f 4 9 10
f 4 10 11
f 4 11 5
f 8 14 15
f 8 15 9
f 12 15 14
f 12 14 17
f 12 17 16
f 13 16 17

