# https://github.com/mikedh/trimesh
v -0.01720000 -0.01723363 0.02387812
v -0.01720000 -0.01274878 0.02358283
v -0.02000000 -0.01731732 0.02387812
v -0.01720000 -0.03097918 0.02387812
v -0.01720000 -0.01274878 0.02090630
v -0.02000000 -0.01274878 0.02357119
v -0.02000000 -0.02853134 0.02387812
v -0.01800004 -0.03097918 0.02387812
v -0.01720000 -0.03217742 0.02355927
v -0.02000000 -0.01274878 0.02090630
v -0.01720000 -0.03217742 0.02090630
v -0.02000000 -0.03217742 0.02155478
v -0.01949980 -0.03217742 0.02205983
v -0.01800004 -0.03217742 0.02355927
v -0.02000000 -0.03217742 0.02090630
f 1 2 3
f 1 3 7
f 1 7 8
f 1 8 4
f 1 4 9
f 1 9 11
f 1 11 5
f 1 5 2
f 2 5 10
f 2 10 6
f 2 6 3
f 3 6 10
f 3 10 15
f 3 15 12
f 3 12 7
f 4 8 14
f 4 14 9
f 5 11 15
f 5 15 10
f 7 12 13
f 7 13 14
f 7 14 8
f 9 14 13
f 9 13 12
f 9 12 15
f 9 15 11

