# https://github.com/mikedh/trimesh
v 0.01720000 -0.03101414 0.02674575
v 0.01720000 -0.03025568 0.02516265
v 0.01800004 -0.03101414 0.02674575
v 0.01720000 -0.02409985 0.02674575
v 0.01800004 -0.03025568 0.02516265
v 0.01720000 -0.02219159 0.02516265
v 0.01850024 -0.02975810 0.02516265
v 0.01917886 -0.02907911 0.02516265
v 0.01949980 -0.02875775 0.02516265
v 0.02000000 -0.02825326 0.02516265
v 0.02000000 -0.02854093 0.02674575
v 0.02000000 -0.02410071 0.02674575
v 0.02000000 -0.02218986 0.02516265
f 1 2 5
f 1 5 3
f 1 3 11
f 1 11 12
f 1 12 4
f 1 4 6
f 1 6 2
f 2 6 13
f 2 13 10
f 2 10 9
f 2 9 8
f 2 8 7
f 2 7 5
f 3 5 7
f 3 7 8
f 3 8 9
f 3 9 10
f 3 10 11
f 4 12 13
f 4 13 6
f 10 13 12
f 10 12 11

