# https://github.com/mikedh/trimesh
v -0.00116959 -0.00827002 0.01940005
v -0.00116959 -0.00827002 0.01900000
v -0.00212534 -0.00827002 0.02034577
v -0.00038502 -0.01067117 0.02089981
v -0.00038502 -0.00913675 0.01940005
v -0.00038502 -0.00913675 0.01900000
v -0.01495665 -0.00827002 0.01900000
v -0.00230651 -0.00827002 0.02052487
v -0.00038502 -0.01274878 0.02089981
v -0.00262319 -0.00827002 0.02083788
v -0.00268596 -0.00827002 0.02089981
v -0.00038502 -0.01274878 0.01900000
v -0.01495665 -0.01274878 0.01900000
v -0.01495665 -0.00827002 0.02089981
v -0.01495665 -0.01274878 0.02089981
f 1 2 7
f 1 7 14
f 1 14 11
f 1 11 10
f 1 10 8
f 1 8 3
f 1 3 4
f 1 4 5
f 1 5 6
f 1 6 2
f 2 6 12
f 2 12 13
f 2 13 7
f 3 8 4
f 4 9 12
f 4 12 6
f 4 6 5
f 4 8 10
f 4 10 11
f 4 11 14
f 4 14 15
f 4 15 9
f 7 13 15
f 7 15 14
f 9 15 13
f 9 13 12

