# https://github.com/mikedh/trimesh
v -0.00003171 0.01425000 0.02113288
v -0.00003171 0.01144970 0.02113288
v -0.00003171 0.01425000 0.01900000
v -0.01718710 0.01425000 0.02113288
v -0.00267152 0.00839853 0.02089986
v -0.00003171 0.01069880 0.02089986
v -0.01718710 0.01144970 0.02113288
v -0.00003171 0.00919927 0.01900000
v -0.01718710 0.01425000 0.01900000
v -0.00113163 0.00839853 0.01940006
v -0.00003171 0.00919927 0.01940006
v -0.00003171 0.00957215 0.01977506
v -0.00003171 0.00970561 0.01990890
v -0.00003171 0.01032134 0.02052486
v -0.01718710 0.00839853 0.02089986
v -0.00113163 0.00839853 0.01900000
v -0.01718710 0.00839853 0.01900000
f 1 2 6
f 1 6 14
f 1 14 13
f 1 13 12
f 1 12 11
f 1 11 8
f 1 8 3
f 1 3 9
f 1 9 4
f 1 4 7
f 1 7 2
f 2 5 6
f 2 7 15
f 2 15 5
f 3 8 16
f 3 16 17
f 3 17 9
f 4 9 17
f 4 17 15
f 4 15 7
f 5 10 11
f 5 11 12
f 5 12 13
f 5 13 14
f 5 14 6
f 5 15 17
f 5 17 16
f 5 16 10
f 8 11 10
f 8 10 16

