# https://github.com/mikedh/trimesh
v 0.02000000 -0.02719630 0.02990000
v 0.02000000 -0.02701891 0.02989722
v 0.01720000 -0.02719630 0.02990000
v 0.02000000 -0.03129169 0.02990000
v 0.01720000 -0.02693092 0.02989352
v 0.02000000 -0.02684927 0.02988919
v 0.01720000 -0.03129169 0.02990000
v 0.02000000 -0.03129169 0.02898145
v 0.01720000 -0.02668526 0.02987530
v 0.02000000 -0.02667329 0.02987376
v 0.01720000 -0.03129169 0.02690013
v 0.01800031 -0.03129169 0.02690013
v 0.02000000 -0.02854078 0.02674575
v 0.02000000 -0.02654799 0.02985863
v 0.01720000 -0.02648042 0.02984844
v 0.01720000 -0.03101365 0.02674575
v 0.01800031 -0.03101365 0.02674575
v 0.02000000 -0.02410117 0.02674575
v 0.02000000 -0.02642833 0.02983948
v 0.01720000 -0.02630936 0.02981571
v 0.01720000 -0.02410117 0.02674575
v 0.02000000 -0.02494728 0.02864583
v 0.02000000 -0.02631429 0.02981694
v 0.02000000 -0.02620589 0.02979070
v 0.01720000 -0.02616576 0.02977989
v 0.01720000 -0.02499656 0.02875606
v 0.02000000 -0.02501979 0.02880454
v 0.02000000 -0.02610312 0.02976106
v 0.01720000 -0.02604540 0.02974192
v 0.01720000 -0.02504865 0.02886135
v 0.02000000 -0.02507892 0.02891816
v 0.02000000 -0.02595881 0.02970950
v 0.01720000 -0.02589828 0.02968511
v 0.01720000 -0.02511834 0.02898608
v 0.02000000 -0.02514860 0.02903641
v 0.02000000 -0.02578283 0.02962984
v 0.01720000 -0.02575749 0.02961656
v 0.01720000 -0.02521055 0.02912873
v 0.02000000 -0.02521196 0.02913027
v 0.02000000 -0.02562656 0.02953721
v 0.01720000 -0.02564838 0.02955172
v 0.02000000 -0.02527460 0.02921333
v 0.01720000 -0.02530065 0.02924544
v 0.02000000 -0.02548719 0.02943254
v 0.01720000 -0.02555054 0.02948349
v 0.02000000 -0.02536400 0.02931553
v 0.01720000 -0.02537738 0.02933004
v 0.01720000 -0.02546044 0.02940939
f 1 2 3
f 1 3 7
f 1 7 4
f 1 4 8
f 1 8 13
f 1 13 18
f 1 18 22
f 1 22 27
f 1 27 31
f 1 31 35
f 1 35 39
f 1 39 42
f 1 42 46
f 1 46 44
f 1 44 40
f 1 40 36
f 1 36 32
f 1 32 28
f 1 28 24
f 1 24 23
f 1 23 19
f 1 19 14
f 1 14 10
f 1 10 6
f 1 6 2
f 2 5 3
f 2 6 5
f 3 5 9
f 3 9 15
f 3 15 20
f 3 20 25
f 3 25 29
f 3 29 33
f 3 33 37
f 3 37 41
f 3 41 45
f 3 45 48
f 3 48 47
f 3 47 43
f 3 43 38
f 3 38 34
f 3 34 30
f 3 30 26
f 3 26 21
f 3 21 16
f 3 16 11
f 3 11 7
f 4 7 11
f 4 11 12
f 4 12 8
f 5 6 9
f 6 10 9
f 8 12 13
f 9 10 14
f 9 14 15
f 11 16 17
f 11 17 12
f 12 17 13
f 13 17 16
f 13 16 21
f 13 21 18
f 14 19 15
f 15 19 20
f 18 21 22
f 19 23 20
f 20 23 24
f 20 24 25
f 21 26 22
f 22 26 27
f 24 28 25
f 25 28 29
f 26 30 27
f 27 30 31
f 28 32 29
f 29 32 33
f 30 34 31
f 31 34 35
f 32 36 33
f 33 36 37
f 34 38 35
f 35 38 39
f 36 40 37
f 37 40 41
f 38 42 39
f 38 43 42
f 40 44 45
f 40 45 41
f 42 43 46
f 43 47 46
f 44 46 48
f 44 48 45
f 46 47 48

