# https://github.com/mikedh/trimesh
v 0.00766157 -0.00872442 0.02089981
v 0.00766157 -0.01274878 0.02089981
v 0.00766157 -0.00872442 0.01900000
v 0.00259983 -0.00872442 0.02089981
v 0.00766157 -0.01274878 0.01900000
v 0.00148186 -0.01274878 0.02089981
v 0.00148186 -0.00872442 0.01900000
v 0.00148186 -0.00872442 0.01985106
v 0.00148186 -0.01025561 0.02089981
v 0.00148186 -0.01274878 0.01900000
f 1 2 5
f 1 5 3
f 1 3 7
f 1 7 8
f 1 8 4
f 1 4 9
f 1 9 6
f 1 6 2
f 2 6 10
f 2 10 5
f 3 5 10
f 3 10 7
f 4 8 9
f 6 9 8
f 6 8 7
f 6 7 10

