# https://github.com/mikedh/trimesh
v -0.01720000 -0.02719673 0.02990000
v -0.01720000 -0.02700391 0.02989629
v -0.02000000 -0.02719673 0.02990000
v -0.01720000 -0.03128600 0.02990000
v -0.02000000 -0.02687513 0.02989072
v -0.01720000 -0.02682094 0.02988670
v -0.02000000 -0.03128600 0.02990000
v -0.01720000 -0.03128600 0.02689783
v -0.02000000 -0.02663657 0.02987000
v -0.01720000 -0.02667950 0.02987433
v -0.02000000 -0.03128600 0.02898092
v -0.01720000 -0.03100663 0.02674073
v -0.01800031 -0.03128600 0.02689783
v -0.01720000 -0.02654438 0.02985763
v -0.02000000 -0.02643249 0.02984001
v -0.02000000 -0.02853870 0.02674073
v -0.01720000 -0.02409758 0.02674073
v -0.01800031 -0.03100663 0.02674073
v -0.01720000 -0.02641560 0.02983691
v -0.01720000 -0.02629386 0.02981217
v -0.02000000 -0.02627838 0.02980846
v -0.02000000 -0.02409758 0.02674073
v -0.01720000 -0.02495892 0.02867322
v -0.01720000 -0.02617845 0.02978310
v -0.02000000 -0.02610879 0.02976239
v -0.02000000 -0.02494555 0.02864229
v -0.02000000 -0.02502929 0.02882227
v -0.01720000 -0.02503422 0.02883248
v -0.01720000 -0.02604475 0.02974167
v -0.02000000 -0.02598141 0.02971909
v -0.02000000 -0.02511796 0.02898618
v -0.01720000 -0.02509544 0.02894659
v -0.01720000 -0.02593778 0.02970146
v -0.02000000 -0.02588149 0.02967765
v -0.02000000 -0.02521085 0.02912874
v -0.01720000 -0.02516018 0.02905421
v -0.01720000 -0.02583645 0.02965693
v -0.02000000 -0.02576186 0.02961889
v -0.01720000 -0.02522703 0.02915162
v -0.02000000 -0.02528896 0.02923141
v -0.01720000 -0.02566685 0.02956292
v -0.02000000 -0.02565067 0.02955364
v -0.01720000 -0.02532626 0.02927470
v -0.02000000 -0.02536848 0.02932047
v -0.01720000 -0.02553526 0.02947200
v -0.02000000 -0.02554863 0.02948190
v -0.01720000 -0.02542970 0.02938108
v -0.02000000 -0.02545433 0.02940428
f 1 2 3
f 1 3 7
f 1 7 4
f 1 4 8
f 1 8 12
f 1 12 17
f 1 17 23
f 1 23 28
f 1 28 32
f 1 32 36
f 1 36 39
f 1 39 43
f 1 43 47
f 1 47 45
f 1 45 41
f 1 41 37
f 1 37 33
f 1 33 29
f 1 29 24
f 1 24 20
f 1 20 19
f 1 19 14
f 1 14 10
f 1 10 6
f 1 6 2
f 2 5 3
f 2 6 5
f 3 5 9
f 3 9 15
f 3 15 21
f 3 21 25
f 3 25 30
f 3 30 34
f 3 34 38
f 3 38 42
f 3 42 46
f 3 46 48
f 3 48 44
f 3 44 40
f 3 40 35
f 3 35 31
f 3 31 27
f 3 27 26
f 3 26 22
f 3 22 16
f 3 16 11
f 3 11 7
f 4 7 11
f 4 11 13
f 4 13 8
f 5 6 9
f 6 10 9
f 8 13 18
f 8 18 12
f 9 10 14
f 9 14 15
f 11 16 13
f 12 18 16
f 12 16 22
f 12 22 17
f 13 16 18
f 14 19 15
f 15 19 20
f 15 20 21
f 17 22 23
f 20 24 21
f 21 24 25
f 22 26 23
f 23 27 28
f 23 26 27
f 24 29 25
f 25 29 30
f 27 31 32
f 27 32 28
f 29 33 30
f 30 33 34
f 31 35 36
f 31 36 32
f 33 37 34
f 34 37 38
f 35 39 36
f 35 40 39
f 37 41 38
f 38 41 42
f 39 40 43
f 40 44 43
f 41 45 42
f 42 45 46
f 43 44 47
f 44 48 47
f 45 47 48
f 45 48 46

