# https://github.com/mikedh/trimesh
v -0.00882431 0.00321726 0.02089981
v -0.00882431 0.00256966 0.02089981
v -0.00882431 0.00321726 0.01900000
v -0.01495605 0.00321726 0.02089981
v -0.00914185 0.00036833 0.01940005
v -0.00882431 0.00087202 0.01940005
v -0.01067434 0.00036833 0.02089981
v -0.00882431 0.00087202 0.01900000
v -0.01495605 0.00321726 0.01900000
v -0.01495605 0.00036833 0.02089981
v -0.00914185 0.00036833 0.01900000
v -0.01495605 0.00036833 0.01900000
f 1 2 6
f 1 6 8
f 1 8 3
f 1 3 9
f 1 9 4
f 1 4 10
f 1 10 7
f 1 7 2
f 2 5 6
f 2 7 5
f 3 8 11
f 3 11 12
f 3 12 9
f 4 9 12
f 4 12 10
f 5 11 8
f 5 8 6
f 5 7 10
f 5 10 12
f 5 12 11

