# https://github.com/mikedh/trimesh
v -0.01850332 -0.01002005 0.02363843
v -0.01850332 -0.00862912 0.02359963
v -0.02000000 -0.01002005 0.02363843
v -0.01850332 -0.01274722 0.02357608
v -0.02000000 -0.00862912 0.02359963
v -0.01850332 -0.00726632 0.02348643
v -0.02000000 -0.01274722 0.02357100
v -0.01850332 -0.01274722 0.02090460
v -0.02000000 -0.00726319 0.02348617
v -0.01850332 -0.00726319 0.02348617
v -0.02000000 -0.01274722 0.02090460
v -0.01850332 0.00321726 0.02090460
v -0.02000000 -0.00592070 0.02330473
v -0.01850332 -0.00592070 0.02330473
v -0.02000000 0.00321726 0.02090460
v -0.01850332 0.00321726 0.02112564
v -0.01850332 -0.00459854 0.02306442
v -0.02000000 -0.00460322 0.02306523
v -0.02000000 0.00321726 0.02112564
v -0.01850332 -0.00287784 0.02267774
v -0.02000000 -0.00287784 0.02267774
f 1 2 5
f 1 5 3
f 1 3 4
f 1 4 8
f 1 8 12
f 1 12 16
f 1 16 20
f 1 20 17
f 1 17 14
f 1 14 10
f 1 10 6
f 1 6 2
f 2 6 5
f 3 5 9
f 3 9 13
f 3 13 18
f 3 18 21
f 3 21 19
f 3 19 15
f 3 15 11
f 3 11 7
f 3 7 4
f 4 7 11
f 4 11 8
f 5 6 9
f 6 10 9
f 8 11 15
f 8 15 12
f 9 10 14
f 9 14 13
f 12 15 19
f 12 19 16
f 13 14 17
f 13 17 18
f 16 19 21
f 16 21 20
f 17 21 18
f 17 20 21

