# https://github.com/mikedh/trimesh
v 0.01718000 0.00321690 0.02089981
v 0.01718000 -0.00045295 0.02089981
v 0.01718000 0.00321690 0.01900000
v 0.00885421 0.00321690 0.02089981
v 0.01718000 -0.00045295 0.01900000
v 0.01066101 -0.00045295 0.02089981
v 0.00885421 0.00321690 0.01900000
v 0.00885421 0.00256053 0.02089981
v 0.00911093 -0.00045295 0.01900000
v 0.00911093 -0.00045295 0.01940005
v 0.00885421 0.00084291 0.01900000
v 0.00885421 0.00084291 0.01940005
f 1 2 5
f 1 5 3
f 1 3 7
f 1 7 4
f 1 4 8
f 1 8 6
f 1 6 2
f 2 6 10
f 2 10 9
f 2 9 5
f 3 5 9
f 3 9 11
f 3 11 7
f 4 7 11
f 4 11 12
f 4 12 8
f 6 8 10
f 8 12 10
f 9 10 12
f 9 12 11

