# https://github.com/mikedh/trimesh
v 0.02000000 -0.03345295 0.02989954
v 0.01720000 -0.03345295 0.02989954
v 0.02000000 -0.03542606 0.02989954
v 0.02000000 -0.03345295 0.02875643
v 0.01720000 -0.03542606 0.02989954
v 0.01720000 -0.03345295 0.02627453
v 0.02000000 -0.03542606 0.02682080
v 0.01968015 -0.03542606 0.02516295
v 0.01959025 -0.03533527 0.02516295
v 0.01949980 -0.03524410 0.02516295
v 0.01800004 -0.03374423 0.02516295
v 0.01800004 -0.03345295 0.02627453
v 0.01720000 -0.03542606 0.02516295
v 0.01720000 -0.03374423 0.02516295
f 1 2 5
f 1 5 3
f 1 3 7
f 1 7 4
f 1 4 12
f 1 12 6
f 1 6 2
f 2 6 14
f 2 14 13
f 2 13 5
f 3 5 13
f 3 13 8
f 3 8 7
f 4 7 8
f 4 8 9
f 4 9 10
f 4 10 11
f 4 11 12
f 6 12 11
f 6 11 14
f 8 13 14
f 8 14 11
f 8 11 10
f 8 10 9

