# https://github.com/mikedh/trimesh
v 0.02000000 -0.03129169 0.02990000
v 0.01720000 -0.03129169 0.02990000
v 0.02000000 -0.03345276 0.02990000
v 0.02000000 -0.03129169 0.02898189
v 0.01720000 -0.03345276 0.02990000
v 0.01720000 -0.03129169 0.02689971
v 0.02000000 -0.03345276 0.02875617
v 0.01800004 -0.03345276 0.02627439
v 0.01800004 -0.03129169 0.02689971
v 0.01720000 -0.03345276 0.02627439
f 1 2 5
f 1 5 3
f 1 3 7
f 1 7 4
f 1 4 9
f 1 9 6
f 1 6 2
f 2 6 10
f 2 10 5
f 3 5 10
f 3 10 8
f 3 8 7
f 4 7 8
f 4 8 9
f 6 9 8
f 6 8 10

