# https://github.com/mikedh/trimesh
v -0.00430686 -0.00253691 0.02089981
v -0.00187178 -0.00463520 0.02089981
v -0.00430686 -0.00253691 0.01900000
v -0.01495537 -0.00253691 0.02089981
v -0.00187178 -0.00605276 0.02089981
v -0.00187178 -0.00463520 0.01900000
v -0.01495537 -0.00253691 0.01900000
v -0.01495537 -0.00826946 0.02089981
v -0.00230602 -0.00826946 0.02052487
v -0.00212540 -0.00826946 0.02034577
v -0.00187178 -0.00826946 0.02009246
v -0.00268646 -0.00826946 0.02089981
v -0.00187178 -0.00826946 0.01900000
v -0.01495537 -0.00826946 0.01900000
f 1 2 6
f 1 6 3
f 1 3 7
f 1 7 4
f 1 4 8
f 1 8 12
f 1 12 5
f 1 5 2
f 2 5 11
f 2 11 13
f 2 13 6
f 3 6 13
f 3 13 14
f 3 14 7
f 4 7 14
f 4 14 8
f 5 9 10
f 5 10 11
f 5 12 9
f 8 14 13
f 8 13 11
f 8 11 10
f 8 10 9
f 8 9 12

