# https://github.com/mikedh/trimesh
v -0.00322944 0.00381708 0.01900000
v -0.00003202 0.00499794 0.01900000
v -0.00322944 0.00381708 0.02089981
v -0.00322944 0.00735550 0.01900000
v -0.00003202 0.00499794 0.02089981
v -0.00003202 0.00680058 0.01900000
v -0.00322944 0.00735550 0.02089981
v -0.00101247 0.00735550 0.01900000
v -0.00003202 0.00530138 0.02089981
v -0.00003202 0.00680058 0.01940005
v -0.00262057 0.00735550 0.02089981
v -0.00101247 0.00735550 0.01940005
v -0.00003202 0.00567895 0.02052487
v -0.00003202 0.00642786 0.01977518
f 1 2 5
f 1 5 3
f 1 3 7
f 1 7 4
f 1 4 8
f 1 8 6
f 1 6 2
f 2 6 10
f 2 10 14
f 2 14 13
f 2 13 9
f 2 9 5
f 3 5 9
f 3 9 11
f 3 11 7
f 4 7 11
f 4 11 12
f 4 12 8
f 6 8 12
f 6 12 10
f 9 13 11
f 10 12 11
f 10 11 14
f 11 13 14

