# https://github.com/mikedh/trimesh
v -0.02000000 -0.03825000 0.01900000
v -0.02000000 -0.03825000 0.02990000
v -0.02000000 -0.03542633 0.01900000
v 0.00001579 -0.03825000 0.01900000
v -0.02000000 -0.03542633 0.02990000
v 0.00001579 -0.03825000 0.02990000
v 0.00001579 -0.03542633 0.01900000
v -0.01719826 -0.03542633 0.02990000
v 0.00001579 -0.03545011 0.02990000
v 0.00001579 -0.03542633 0.02090024
f 1 2 5
f 1 5 3
f 1 3 7
f 1 7 4
f 1 4 6
f 1 6 2
f 2 6 9
f 2 9 8
f 2 8 5
f 3 5 8
f 3 8 10
f 3 10 7
f 4 7 10
f 4 10 9
f 4 9 6
f 8 9 10

