# https://github.com/mikedh/trimesh
v 0.00001579 -0.03825000 0.01900000
v 0.00001579 -0.03825000 0.02990000
v 0.00001579 -0.03542633 0.01900000
v 0.02000000 -0.03825000 0.01900000
v 0.00001579 -0.03545011 0.02990000
v 0.02000000 -0.03825000 0.02990000
v 0.00001579 -0.03542633 0.02090024
v 0.02000000 -0.03542633 0.01900000
v 0.01719877 -0.03542633 0.02990000
v 0.02000000 -0.03542633 0.02990000
f 1 2 5
f 1 5 7
f 1 7 3
f 1 3 8
f 1 8 4
f 1 4 6
f 1 6 2
f 2 6 10
f 2 10 9
f 2 9 5
f 3 7 9
f 3 9 10
f 3 10 8
f 4 8 10
f 4 10 6
f 5 9 7

