# https://github.com/mikedh/trimesh
v 0.00885421 0.00321726 0.02089981
v 0.00885421 0.00321726 0.01900000
v 0.00753552 0.00321726 0.02089981
v 0.00885421 0.00256065 0.02089981
v 0.00753552 0.00321726 0.01900000
v 0.00885421 0.00084300 0.01900000
v 0.00753552 0.00265897 0.02089981
v 0.00885421 0.00084300 0.01940005
v 0.00753552 0.00110634 0.01900000
v 0.00753552 0.00110634 0.01940005
f 1 2 5
f 1 5 3
f 1 3 7
f 1 7 4
f 1 4 8
f 1 8 6
f 1 6 2
f 2 6 9
f 2 9 5
f 3 5 9
f 3 9 10
f 3 10 7
f 4 7 8
f 6 8 10
f 6 10 9
f 7 10 8

