# https://github.com/mikedh/trimesh
v -0.01720000 -0.03345295 0.02990000
v -0.02000000 -0.03345295 0.02990000
v -0.01720000 -0.03542606 0.02990000
v -0.01720000 -0.03345295 0.02627451
v -0.02000000 -0.03542606 0.02990000
v -0.02000000 -0.03345295 0.02875621
v -0.01720000 -0.03542606 0.02515579
v -0.01720000 -0.03374385 0.02515579
v -0.01800004 -0.03345295 0.02627451
v -0.02000000 -0.03542606 0.02682063
v -0.01800004 -0.03374385 0.02515579
v -0.01949980 -0.03524410 0.02515579
v -0.01967028 -0.03541601 0.02515579
v -0.01968015 -0.03542606 0.02515579
f 1 2 5
f 1 5 3
f 1 3 7
f 1 7 8
f 1 8 4
f 1 4 9
f 1 9 6
f 1 6 2
f 2 6 10
f 2 10 5
f 3 5 10
f 3 10 14
f 3 14 7
f 4 8 11
f 4 11 9
f 6 9 11
f 6 11 12
f 6 12 13
f 6 13 14
f 6 14 10
f 7 14 13
f 7 13 12
f 7 12 11
f 7 11 8

