# https://github.com/mikedh/trimesh
v 0.01850000 0.00669919 0.02647012
v 0.01720000 0.00669919 0.02647012
v 0.01850000 0.00436495 0.02647012
v 0.01850000 0.00665949 0.02417424
v 0.01720000 0.00665949 0.02417424
v 0.01720000 0.00436495 0.02647012
v 0.01720000 -0.00728573 0.02394240
v 0.01850000 -0.00727751 0.02394240
v 0.01850000 0.00321631 0.02394240
v 0.01720000 0.00321631 0.02394240
f 1 2 6
f 1 6 3
f 1 3 8
f 1 8 9
f 1 9 4
f 1 4 5
f 1 5 2
f 2 5 10
f 2 10 7
f 2 7 6
f 3 6 7
f 3 7 8
f 4 9 10
f 4 10 5
f 7 10 9
f 7 9 8

