# https://github.com/mikedh/trimesh
v 0.02299359 -0.00000000 0.03030000
v 0.02298732 0.00020931 0.03030000
v 0.02296855 0.00041788 0.03030000
v 0.02293734 0.00062495 0.03030000
v 0.02289380 0.00082978 0.03030000
v 0.02283809 0.00103164 0.03030000
v 0.02277041 0.00122981 0.03030000
v 0.02269100 0.00142358 0.03030000
v 0.02260014 0.00161225 0.03030000
v 0.02249816 0.00179515 0.03030000
v 0.02238542 0.00197162 0.03030000
v 0.02226234 0.00214104 0.03030000
v 0.02212934 0.00230279 0.03030000
v 0.02198691 0.00245629 0.03030000
v 0.02183555 0.00260101 0.03030000
v 0.02167580 0.00273641 0.03030000
v 0.02150825 0.00286202 0.03030000
v 0.02133348 0.00297738 0.03030000
v 0.02115213 0.00308208 0.03030000
v 0.02096484 0.00317576 0.03030000
v 0.02077228 0.00325806 0.03030000
v 0.02057515 0.00332870 0.03030000
v 0.02037414 0.00338742 0.03030000
v 0.02016998 0.00343402 0.03030000
v 0.01996341 0.00346832 0.03030000
v 0.01975514 0.00349021 0.03030000
v 0.01954595 0.00349961 0.03030000
v 0.01933656 0.00349648 0.03030000
v 0.01912774 0.00348083 0.03030000
v 0.01892023 0.00345272 0.03030000
v 0.01871477 0.00341225 0.03030000
v 0.01851209 0.00335956 0.03030000
v 0.01831293 0.00329485 0.03030000
v 0.01811800 0.00321835 0.03030000
v 0.01792799 0.00313032 0.03030000
v 0.01774359 0.00303109 0.03030000
v 0.01756545 0.00292101 0.03030000
v 0.01739421 0.00280047 0.03030000
v 0.01723049 0.00266990 0.03030000
v 0.01707487 0.00252978 0.03030000
v 0.01692791 0.00238060 0.03030000
v 0.01679013 0.00222291 0.03030000
v 0.01666203 0.00205725 0.03030000
v 0.01654407 0.00188423 0.03030000
v 0.01643666 0.00170446 0.03030000
v 0.01634020 0.00151859 0.03030000
v 0.01625502 0.00132729 0.03030000
v 0.01618144 0.00113123 0.03030000
v 0.01611972 0.00093113 0.03030000
v 0.01607007 0.00072769 0.03030000
v 0.01603268 0.00052165 0.03030000
v 0.01600768 0.00031374 0.03030000
v 0.01599516 0.00010470 0.03030000
v 0.01599516 -0.00010470 0.03030000
v 0.01600768 -0.00031374 0.03030000
v 0.01603268 -0.00052165 0.03030000
v 0.01607007 -0.00072769 0.03030000
v 0.01611972 -0.00093113 0.03030000
v 0.01618144 -0.00113123 0.03030000
v 0.01625502 -0.00132729 0.03030000
v 0.01634020 -0.00151859 0.03030000
v 0.01643666 -0.00170446 0.03030000
v 0.01654407 -0.00188423 0.03030000
v 0.01666203 -0.00205725 0.03030000
v 0.01679013 -0.00222291 0.03030000
v 0.01692791 -0.00238060 0.03030000
v 0.01707487 -0.00252978 0.03030000
v 0.01723049 -0.00266990 0.03030000
v 0.01739421 -0.00280047 0.03030000
v 0.01756545 -0.00292101 0.03030000
v 0.01774359 -0.00303109 0.03030000
v 0.01792799 -0.00313032 0.03030000
v 0.01811800 -0.00321835 0.03030000
v 0.01831293 -0.00329485 0.03030000
v 0.01851209 -0.00335956 0.03030000
v 0.01871477 -0.00341225 0.03030000
v 0.01892023 -0.00345272 0.03030000
v 0.01912774 -0.00348083 0.03030000
v 0.01933656 -0.00349648 0.03030000
v 0.01954595 -0.00349961 0.03030000
v 0.01975514 -0.00349021 0.03030000
v 0.01996341 -0.00346832 0.03030000
v 0.02016998 -0.00343402 0.03030000
v 0.02037414 -0.00338742 0.03030000
v 0.02057515 -0.00332870 0.03030000
v 0.02077228 -0.00325806 0.03030000
v 0.02096484 -0.00317576 0.03030000
v 0.02115213 -0.00308208 0.03030000
v 0.02133348 -0.00297738 0.03030000
v 0.02150825 -0.00286202 0.03030000
v 0.02167580 -0.00273641 0.03030000
v 0.02183555 -0.00260101 0.03030000
v 0.02198691 -0.00245629 0.03030000
v 0.02212934 -0.00230279 0.03030000
v 0.02226234 -0.00214104 0.03030000
v 0.02238542 -0.00197162 0.03030000
v 0.02249816 -0.00179515 0.03030000
v 0.02260014 -0.00161225 0.03030000
v 0.02269100 -0.00142358 0.03030000
v 0.02277041 -0.00122981 0.03030000
v 0.02283809 -0.00103164 0.03030000
v 0.02289380 -0.00082978 0.03030000
v 0.02293734 -0.00062495 0.03030000
v 0.02296855 -0.00041788 0.03030000
v 0.02298732 -0.00020931 0.03030000
v 0.02299359 -0.00000000 0.02980000
v 0.02298732 0.00020931 0.02980000
v 0.02296855 0.00041788 0.02980000
v 0.02293734 0.00062495 0.02980000
v 0.02289380 0.00082978 0.02980000
v 0.02283809 0.00103164 0.02980000
v 0.02277041 0.00122981 0.02980000
v 0.02269100 0.00142358 0.02980000
v 0.02260014 0.00161225 0.02980000
v 0.02249816 0.00179515 0.02980000
v 0.02238542 0.00197162 0.02980000
v 0.02226234 0.00214104 0.02980000
v 0.02212934 0.00230279 0.02980000
v 0.02198691 0.00245629 0.02980000
v 0.02183555 0.00260101 0.02980000
v 0.02167580 0.00273641 0.02980000
v 0.02150825 0.00286202 0.02980000
v 0.02133348 0.00297738 0.02980000
v 0.02115213 0.00308208 0.02980000
v 0.02096484 0.00317576 0.02980000
v 0.02077228 0.00325806 0.02980000
v 0.02057515 0.00332870 0.02980000
v 0.02037414 0.00338742 0.02980000
v 0.02016998 0.00343402 0.02980000
v 0.01996341 0.00346832 0.02980000
v 0.01975514 0.00349021 0.02980000
v 0.01954595 0.00349961 0.02980000
v 0.01933656 0.00349648 0.02980000
v 0.01912774 0.00348083 0.02980000
v 0.01892023 0.00345272 0.02980000
v 0.01871477 0.00341225 0.02980000
v 0.01851209 0.00335956 0.02980000
v 0.01831293 0.00329485 0.02980000
v 0.01811800 0.00321835 0.02980000
v 0.01792799 0.00313032 0.02980000
v 0.01774359 0.00303109 0.02980000
v 0.01756545 0.00292101 0.02980000
v 0.01739421 0.00280047 0.02980000
v 0.01723049 0.00266990 0.02980000
v 0.01707487 0.00252978 0.02980000
v 0.01692791 0.00238060 0.02980000
v 0.01679013 0.00222291 0.02980000
v 0.01666203 0.00205725 0.02980000
v 0.01654407 0.00188423 0.02980000
v 0.01643666 0.00170446 0.02980000
v 0.01634020 0.00151859 0.02980000
v 0.01625502 0.00132729 0.02980000
v 0.01618144 0.00113123 0.02980000
v 0.01611972 0.00093113 0.02980000
v 0.01607007 0.00072769 0.02980000
v 0.01603268 0.00052165 0.02980000
v 0.01600768 0.00031374 0.02980000
v 0.01599516 0.00010470 0.02980000
v 0.01599516 -0.00010470 0.02980000
v 0.01600768 -0.00031374 0.02980000
v 0.01603268 -0.00052165 0.02980000
v 0.01607007 -0.00072769 0.02980000
v 0.01611972 -0.00093113 0.02980000
v 0.01618144 -0.00113123 0.02980000
v 0.01625502 -0.00132729 0.02980000
v 0.01634020 -0.00151859 0.02980000
v 0.01643666 -0.00170446 0.02980000
v 0.01654407 -0.00188423 0.02980000
v 0.01666203 -0.00205725 0.02980000
v 0.01679013 -0.00222291 0.02980000
v 0.01692791 -0.00238060 0.02980000
v 0.01707487 -0.00252978 0.02980000
v 0.01723049 -0.00266990 0.02980000
v 0.01739421 -0.00280047 0.02980000
v 0.01756545 -0.00292101 0.02980000
v 0.01774359 -0.00303109 0.02980000
v 0.01792799 -0.00313032 0.02980000
v 0.01811800 -0.00321835 0.02980000
v 0.01831293 -0.00329485 0.02980000
v 0.01851209 -0.00335956 0.02980000
v 0.01871477 -0.00341225 0.02980000
v 0.01892023 -0.00345272 0.02980000
v 0.01912774 -0.00348083 0.02980000
v 0.01933656 -0.00349648 0.02980000
v 0.01954595 -0.00349961 0.02980000
v 0.01975514 -0.00349021 0.02980000
v 0.01996341 -0.00346832 0.02980000
v 0.02016998 -0.00343402 0.02980000
v 0.02037414 -0.00338742 0.02980000
v 0.02057515 -0.00332870 0.02980000
v 0.02077228 -0.00325806 0.02980000
v 0.02096484 -0.00317576 0.02980000
v 0.02115213 -0.00308208 0.02980000
v 0.02133348 -0.00297738 0.02980000
v 0.02150825 -0.00286202 0.02980000
v 0.02167580 -0.00273641 0.02980000
v 0.02183555 -0.00260101 0.02980000
v 0.02198691 -0.00245629 0.02980000
v 0.02212934 -0.00230279 0.02980000
v 0.02226234 -0.00214104 0.02980000
v 0.02238542 -0.00197162 0.02980000
v 0.02249816 -0.00179515 0.02980000
v 0.02260014 -0.00161225 0.02980000
v 0.02269100 -0.00142358 0.02980000
v 0.02277041 -0.00122981 0.02980000
v 0.02283809 -0.00103164 0.02980000
v 0.02289380 -0.00082978 0.02980000
v 0.02293734 -0.00062495 0.02980000
v 0.02296855 -0.00041788 0.02980000
v 0.02298732 -0.00020931 0.02980000
f 104 208 209
f 103 208 104
f 1 105 210
f 210 106 1
f 105 104 210
f 210 104 209
f 175 71 70
f 176 71 175
f 70 69 175
f 175 69 174
f 173 69 68
f 174 69 173
f 82 81 187
f 187 81 186
f 83 82 187
f 187 188 83
f 91 195 196
f 90 195 91
f 96 95 200
f 201 96 200
f 95 94 200
f 200 94 199
f 198 94 93
f 199 94 198
f 202 97 96
f 202 96 201
f 205 101 100
f 206 101 205
f 100 99 205
f 205 99 204
f 207 102 101
f 207 101 206
f 103 102 207
f 207 208 103
f 107 2 1
f 1 106 107
f 107 3 2
f 108 3 107
f 4 3 109
f 109 3 108
f 7 6 112
f 112 6 111
f 55 160 161
f 161 56 55
f 169 64 63
f 63 168 169
f 76 75 180
f 181 76 180
f 177 72 71
f 177 71 176
f 73 72 177
f 177 178 73
f 172 67 66
f 172 66 171
f 68 67 172
f 172 173 68
f 182 77 76
f 182 76 181
f 78 77 182
f 182 183 78
f 188 189 84
f 83 188 84
f 190 86 85
f 191 86 190
f 85 84 190
f 190 84 189
f 90 89 194
f 194 195 90
f 89 88 194
f 88 193 194
f 87 86 192
f 192 86 191
f 192 88 87
f 192 193 88
f 92 91 197
f 197 91 196
f 93 92 197
f 197 198 93
f 203 99 98
f 204 99 203
f 98 97 203
f 97 202 203
f 8 112 113
f 7 112 8
f 129 25 24
f 130 25 129
f 24 23 129
f 129 23 128
f 126 21 20
f 126 20 125
f 123 18 17
f 17 122 123
f 117 12 11
f 117 11 116
f 13 117 118
f 12 117 13
f 119 15 14
f 120 15 119
f 14 13 119
f 119 13 118
f 58 163 164
f 58 164 59
f 162 57 56
f 162 56 161
f 162 58 57
f 163 58 162
f 61 60 165
f 166 61 165
f 165 60 59
f 59 164 165
f 66 65 170
f 171 66 170
f 65 64 170
f 64 169 170
f 167 62 61
f 167 61 166
f 167 168 63
f 63 62 167
f 43 42 147
f 147 148 43
f 78 183 79
f 183 184 79
f 185 81 80
f 186 81 185
f 80 79 185
f 185 79 184
f 111 6 110
f 6 5 110
f 4 109 110
f 110 5 4
f 9 8 114
f 114 8 113
f 10 115 116
f 116 11 10
f 10 114 115
f 9 114 10
f 127 23 22
f 128 23 127
f 22 21 127
f 21 126 127
f 132 133 28
f 27 132 28
f 30 29 134
f 135 30 134
f 29 28 134
f 134 28 133
f 131 25 130
f 131 26 25
f 27 26 131
f 131 132 27
f 20 19 124
f 125 20 124
f 124 19 18
f 18 123 124
f 16 122 17
f 16 121 122
f 120 121 16
f 16 15 120
f 158 159 54
f 53 158 54
f 160 55 54
f 54 159 160
f 146 41 40
f 146 40 145
f 42 41 146
f 146 147 42
f 43 148 149
f 149 44 43
f 155 156 51
f 50 155 51
f 53 52 157
f 157 158 53
f 52 51 157
f 157 51 156
f 49 154 155
f 49 155 50
f 153 49 48
f 154 49 153
f 73 178 179
f 179 74 73
f 179 180 75
f 75 74 179
f 136 30 135
f 136 31 30
f 32 31 136
f 136 137 32
f 152 47 46
f 46 151 152
f 48 47 152
f 152 153 48
f 143 38 37
f 37 142 143
f 141 36 35
f 35 140 141
f 37 36 141
f 141 142 37
f 32 137 33
f 137 138 33
f 35 34 139
f 139 140 35
f 34 33 139
f 139 33 138
f 46 45 150
f 150 151 46
f 44 149 150
f 150 45 44
f 39 86 87
f 39 65 66
f 1 2 39
f 63 64 39
f 39 26 27
f 100 101 39
f 87 88 39
f 39 62 63
f 39 105 1
f 73 74 39
f 39 23 24
f 39 19 20
f 93 94 39
f 39 13 14
f 66 67 39
f 46 47 39
f 76 77 39
f 90 91 39
f 103 104 39
f 20 21 39
f 30 31 39
f 39 102 103
f 14 15 39
f 39 72 73
f 39 58 59
f 35 36 39
f 39 89 90
f 39 95 96
f 39 92 93
f 96 97 39
f 39 99 100
f 39 6 7
f 4 5 39
f 39 10 11
f 39 3 4
f 39 34 35
f 39 64 65
f 39 67 68
f 70 71 39
f 39 69 70
f 39 82 83
f 85 86 39
f 39 88 89
f 80 81 39
f 39 97 98
f 101 102 39
f 39 104 105
f 83 84 39
f 7 8 39
f 17 18 39
f 39 29 30
f 39 49 50
f 11 12 39
f 56 57 39
f 59 60 39
f 40 41 39
f 39 52 53
f 39 75 76
f 71 72 39
f 68 69 39
f 39 77 78
f 39 81 82
f 39 91 92
f 39 94 95
f 98 99 39
f 2 3 39
f 39 79 80
f 39 21 22
f 24 25 39
f 18 19 39
f 27 28 39
f 39 55 56
f 39 60 61
f 61 62 39
f 39 42 43
f 53 54 39
f 50 51 39
f 39 84 85
f 39 5 6
f 39 8 9
f 22 23 39
f 25 26 39
f 32 33 39
f 39 16 17
f 12 13 39
f 57 58 39
f 39 41 42
f 43 44 39
f 39 47 48
f 39 74 75
f 78 79 39
f 9 10 39
f 39 28 29
f 15 16 39
f 39 45 46
f 39 31 32
f 39 54 55
f 39 51 52
f 48 49 39
f 37 38 39
f 39 36 37
f 44 45 39
f 39 33 34
f 206 205 144
f 106 210 144
f 128 127 144
f 176 175 144
f 144 172 171
f 144 121 120
f 144 179 178
f 195 194 144
f 204 203 144
f 144 112 111
f 144 126 125
f 144 169 168
f 174 173 144
f 144 187 186
f 199 198 144
f 144 207 206
f 120 119 144
f 144 167 166
f 181 180 144
f 144 159 158
f 158 157 144
f 196 195 144
f 201 200 144
f 144 202 201
f 209 208 144
f 144 210 209
f 144 107 106
f 186 185 144
f 130 129 144
f 125 124 144
f 161 160 144
f 144 162 161
f 171 170 144
f 144 175 174
f 144 177 176
f 144 182 181
f 144 189 188
f 188 187 144
f 191 190 144
f 144 200 199
f 144 192 191
f 144 197 196
f 144 205 204
f 208 207 144
f 108 107 144
f 144 109 108
f 113 112 144
f 116 115 144
f 135 134 144
f 144 131 130
f 144 152 151
f 144 117 116
f 164 163 144
f 166 165 144
f 144 146 145
f 140 139 144
f 144 141 140
f 178 177 144
f 173 172 144
f 183 182 144
f 144 184 183
f 144 190 189
f 144 194 193
f 193 192 144
f 198 197 144
f 144 203 202
f 111 110 144
f 144 129 128
f 144 114 113
f 144 133 132
f 144 123 122
f 122 121 144
f 118 117 144
f 144 119 118
f 160 159 144
f 163 162 144
f 144 165 164
f 144 170 169
f 168 167 144
f 148 147 144
f 144 156 155
f 155 154 144
f 144 185 184
f 144 110 109
f 115 114 144
f 144 127 126
f 144 134 133
f 132 131 144
f 144 124 123
f 151 150 144
f 144 136 135
f 147 146 144
f 144 149 148
f 144 157 156
f 154 153 144
f 180 179 144
f 137 136 144
f 144 138 137
f 153 152 144
f 144 143 142
f 142 141 144
f 144 139 138
f 144 150 149
f 145 40 144
f 40 39 144
f 38 143 144
f 144 39 38

