# https://github.com/mikedh/trimesh
v 0.02769359 0.01400000 0.03830000
v 0.02769019 0.01411363 0.03830000
v 0.02768000 0.01422685 0.03830000
v 0.02766305 0.01433926 0.03830000
v 0.02763942 0.01445045 0.03830000
v 0.02760918 0.01456003 0.03830000
v 0.02757243 0.01466761 0.03830000
v 0.02752933 0.01477280 0.03830000
v 0.02748000 0.01487522 0.03830000
v 0.02742464 0.01497451 0.03830000
v 0.02736344 0.01507031 0.03830000
v 0.02729662 0.01516228 0.03830000
v 0.02722442 0.01525008 0.03830000
v 0.02714710 0.01533342 0.03830000
v 0.02706494 0.01541198 0.03830000
v 0.02697822 0.01548548 0.03830000
v 0.02688726 0.01555367 0.03830000
v 0.02679239 0.01561629 0.03830000
v 0.02669394 0.01567313 0.03830000
v 0.02659227 0.01572398 0.03830000
v 0.02648774 0.01576866 0.03830000
v 0.02638072 0.01580701 0.03830000
v 0.02627160 0.01583889 0.03830000
v 0.02616077 0.01586418 0.03830000
v 0.02604863 0.01588280 0.03830000
v 0.02593558 0.01589469 0.03830000
v 0.02582201 0.01589979 0.03830000
v 0.02570835 0.01589809 0.03830000
v 0.02559498 0.01588959 0.03830000
v 0.02548233 0.01587433 0.03830000
v 0.02537080 0.01585236 0.03830000
v 0.02526078 0.01582376 0.03830000
v 0.02515266 0.01578863 0.03830000
v 0.02504684 0.01574710 0.03830000
v 0.02494369 0.01569932 0.03830000
v 0.02484359 0.01564545 0.03830000
v 0.02474688 0.01558569 0.03830000
v 0.02465393 0.01552025 0.03830000
v 0.02456505 0.01544938 0.03830000
v 0.02448057 0.01537331 0.03830000
v 0.02440079 0.01529233 0.03830000
v 0.02432600 0.01520672 0.03830000
v 0.02425646 0.01511679 0.03830000
v 0.02419242 0.01502287 0.03830000
v 0.02413411 0.01492528 0.03830000
v 0.02408175 0.01482438 0.03830000
v 0.02403551 0.01472053 0.03830000
v 0.02399557 0.01461410 0.03830000
v 0.02396206 0.01450547 0.03830000
v 0.02393511 0.01439503 0.03830000
v 0.02391481 0.01428318 0.03830000
v 0.02390124 0.01417031 0.03830000
v 0.02389444 0.01405684 0.03830000
v 0.02389444 0.01394316 0.03830000
v 0.02390124 0.01382969 0.03830000
v 0.02391481 0.01371682 0.03830000
v 0.02393511 0.01360497 0.03830000
v 0.02396206 0.01349453 0.03830000
v 0.02399557 0.01338590 0.03830000
v 0.02403551 0.01327947 0.03830000
v 0.02408175 0.01317562 0.03830000
v 0.02413411 0.01307472 0.03830000
v 0.02419242 0.01297713 0.03830000
v 0.02425646 0.01288321 0.03830000
v 0.02432600 0.01279328 0.03830000
v 0.02440079 0.01270767 0.03830000
v 0.02448057 0.01262669 0.03830000
v 0.02456505 0.01255062 0.03830000
v 0.02465393 0.01247975 0.03830000
v 0.02474688 0.01241431 0.03830000
v 0.02484359 0.01235455 0.03830000
v 0.02494369 0.01230068 0.03830000
v 0.02504684 0.01225290 0.03830000
v 0.02515266 0.01221137 0.03830000
v 0.02526078 0.01217624 0.03830000
v 0.02537080 0.01214764 0.03830000
v 0.02548233 0.01212567 0.03830000
v 0.02559498 0.01211041 0.03830000
v 0.02570835 0.01210191 0.03830000
v 0.02582201 0.01210021 0.03830000
v 0.02593558 0.01210531 0.03830000
v 0.02604863 0.01211720 0.03830000
v 0.02616077 0.01213582 0.03830000
v 0.02627160 0.01216111 0.03830000
v 0.02638072 0.01219299 0.03830000
v 0.02648774 0.01223134 0.03830000
v 0.02659227 0.01227602 0.03830000
v 0.02669394 0.01232687 0.03830000
v 0.02679239 0.01238371 0.03830000
v 0.02688726 0.01244633 0.03830000
v 0.02697822 0.01251452 0.03830000
v 0.02706494 0.01258802 0.03830000
v 0.02714710 0.01266658 0.03830000
v 0.02722442 0.01274992 0.03830000
v 0.02729662 0.01283772 0.03830000
v 0.02736344 0.01292969 0.03830000
v 0.02742464 0.01302549 0.03830000
v 0.02748000 0.01312478 0.03830000
v 0.02752933 0.01322720 0.03830000
v 0.02757243 0.01333239 0.03830000
v 0.02760918 0.01343997 0.03830000
v 0.02763942 0.01354955 0.03830000
v 0.02766305 0.01366074 0.03830000
v 0.02768000 0.01377315 0.03830000
v 0.02769019 0.01388637 0.03830000
v 0.02769359 0.01400000 0.03630000
v 0.02769019 0.01411363 0.03630000
v 0.02768000 0.01422685 0.03630000
v 0.02766305 0.01433926 0.03630000
v 0.02763942 0.01445045 0.03630000
v 0.02760918 0.01456003 0.03630000
v 0.02757243 0.01466761 0.03630000
v 0.02752933 0.01477280 0.03630000
v 0.02748000 0.01487522 0.03630000
v 0.02742464 0.01497451 0.03630000
v 0.02736344 0.01507031 0.03630000
v 0.02729662 0.01516228 0.03630000
v 0.02722442 0.01525008 0.03630000
v 0.02714710 0.01533342 0.03630000
v 0.02706494 0.01541198 0.03630000
v 0.02697822 0.01548548 0.03630000
v 0.02688726 0.01555367 0.03630000
v 0.02679239 0.01561629 0.03630000
v 0.02669394 0.01567313 0.03630000
v 0.02659227 0.01572398 0.03630000
v 0.02648774 0.01576866 0.03630000
v 0.02638072 0.01580701 0.03630000
v 0.02627160 0.01583889 0.03630000
v 0.02616077 0.01586418 0.03630000
v 0.02604863 0.01588280 0.03630000
v 0.02593558 0.01589469 0.03630000
v 0.02582201 0.01589979 0.03630000
v 0.02570835 0.01589809 0.03630000
v 0.02559498 0.01588959 0.03630000
v 0.02548233 0.01587433 0.03630000
v 0.02537080 0.01585236 0.03630000
v 0.02526078 0.01582376 0.03630000
v 0.02515266 0.01578863 0.03630000
v 0.02504684 0.01574710 0.03630000
v 0.02494369 0.01569932 0.03630000
v 0.02484359 0.01564545 0.03630000
v 0.02474688 0.01558569 0.03630000
v 0.02465393 0.01552025 0.03630000
v 0.02456505 0.01544938 0.03630000
v 0.02448057 0.01537331 0.03630000
v 0.02440079 0.01529233 0.03630000
v 0.02432600 0.01520672 0.03630000
v 0.02425646 0.01511679 0.03630000
v 0.02419242 0.01502287 0.03630000
v 0.02413411 0.01492528 0.03630000
v 0.02408175 0.01482438 0.03630000
v 0.02403551 0.01472053 0.03630000
v 0.02399557 0.01461410 0.03630000
v 0.02396206 0.01450547 0.03630000
v 0.02393511 0.01439503 0.03630000
v 0.02391481 0.01428318 0.03630000
v 0.02390124 0.01417031 0.03630000
v 0.02389444 0.01405684 0.03630000
v 0.02389444 0.01394316 0.03630000
v 0.02390124 0.01382969 0.03630000
v 0.02391481 0.01371682 0.03630000
v 0.02393511 0.01360497 0.03630000
v 0.02396206 0.01349453 0.03630000
v 0.02399557 0.01338590 0.03630000
v 0.02403551 0.01327947 0.03630000
v 0.02408175 0.01317562 0.03630000
v 0.02413411 0.01307472 0.03630000
v 0.02419242 0.01297713 0.03630000
v 0.02425646 0.01288321 0.03630000
v 0.02432600 0.01279328 0.03630000
v 0.02440079 0.01270767 0.03630000
v 0.02448057 0.01262669 0.03630000
v 0.02456505 0.01255062 0.03630000
v 0.02465393 0.01247975 0.03630000
v 0.02474688 0.01241431 0.03630000
v 0.02484359 0.01235455 0.03630000
v 0.02494369 0.01230068 0.03630000
v 0.02504684 0.01225290 0.03630000
v 0.02515266 0.01221137 0.03630000
v 0.02526078 0.01217624 0.03630000
v 0.02537080 0.01214764 0.03630000
v 0.02548233 0.01212567 0.03630000
v 0.02559498 0.01211041 0.03630000
v 0.02570835 0.01210191 0.03630000
v 0.02582201 0.01210021 0.03630000
v 0.02593558 0.01210531 0.03630000
v 0.02604863 0.01211720 0.03630000
v 0.02616077 0.01213582 0.03630000
v 0.02627160 0.01216111 0.03630000
v 0.02638072 0.01219299 0.03630000
v 0.02648774 0.01223134 0.03630000
v 0.02659227 0.01227602 0.03630000
v 0.02669394 0.01232687 0.03630000
v 0.02679239 0.01238371 0.03630000
v 0.02688726 0.01244633 0.03630000
v 0.02697822 0.01251452 0.03630000
v 0.02706494 0.01258802 0.03630000
v 0.02714710 0.01266658 0.03630000
v 0.02722442 0.01274992 0.03630000
v 0.02729662 0.01283772 0.03630000
v 0.02736344 0.01292969 0.03630000
v 0.02742464 0.01302549 0.03630000
v 0.02748000 0.01312478 0.03630000
v 0.02752933 0.01322720 0.03630000
v 0.02757243 0.01333239 0.03630000
v 0.02760918 0.01343997 0.03630000
v 0.02763942 0.01354955 0.03630000
v 0.02766305 0.01366074 0.03630000
v 0.02768000 0.01377315 0.03630000
v 0.02769019 0.01388637 0.03630000
v 0.02679359 0.01400000 0.02030000
v 0.02679180 0.01405980 0.02030000
v 0.02678644 0.01411939 0.02030000
v 0.02677752 0.01417856 0.02030000
v 0.02676508 0.01423708 0.02030000
v 0.02674916 0.01429476 0.02030000
v 0.02672982 0.01435137 0.02030000
v 0.02670713 0.01440674 0.02030000
v 0.02668117 0.01446064 0.02030000
v 0.02665204 0.01451290 0.02030000
v 0.02661983 0.01456332 0.02030000
v 0.02658466 0.01461172 0.02030000
v 0.02654666 0.01465794 0.02030000
v 0.02650596 0.01470180 0.02030000
v 0.02646272 0.01474314 0.02030000
v 0.02641708 0.01478183 0.02030000
v 0.02636921 0.01481772 0.02030000
v 0.02631927 0.01485068 0.02030000
v 0.02626746 0.01488060 0.02030000
v 0.02621395 0.01490736 0.02030000
v 0.02615893 0.01493087 0.02030000
v 0.02610261 0.01495106 0.02030000
v 0.02604518 0.01496783 0.02030000
v 0.02598684 0.01498115 0.02030000
v 0.02592782 0.01499095 0.02030000
v 0.02586832 0.01499720 0.02030000
v 0.02580855 0.01499989 0.02030000
v 0.02574872 0.01499899 0.02030000
v 0.02568906 0.01499452 0.02030000
v 0.02562977 0.01498649 0.02030000
v 0.02557107 0.01497493 0.02030000
v 0.02551316 0.01495988 0.02030000
v 0.02545626 0.01494139 0.02030000
v 0.02540056 0.01491953 0.02030000
v 0.02534628 0.01489438 0.02030000
v 0.02529359 0.01486603 0.02030000
v 0.02524269 0.01483457 0.02030000
v 0.02519377 0.01480013 0.02030000
v 0.02514699 0.01476283 0.02030000
v 0.02510253 0.01472279 0.02030000
v 0.02506054 0.01468017 0.02030000
v 0.02502117 0.01463512 0.02030000
v 0.02498457 0.01458779 0.02030000
v 0.02495087 0.01453835 0.02030000
v 0.02492018 0.01448699 0.02030000
v 0.02489262 0.01443388 0.02030000
v 0.02486828 0.01437923 0.02030000
v 0.02484726 0.01432321 0.02030000
v 0.02482963 0.01426604 0.02030000
v 0.02481544 0.01420791 0.02030000
v 0.02480476 0.01414904 0.02030000
v 0.02479761 0.01408964 0.02030000
v 0.02479404 0.01402992 0.02030000
v 0.02479404 0.01397008 0.02030000
v 0.02479761 0.01391036 0.02030000
v 0.02480476 0.01385096 0.02030000
v 0.02481544 0.01379209 0.02030000
v 0.02482963 0.01373396 0.02030000
v 0.02484726 0.01367679 0.02030000
v 0.02486828 0.01362077 0.02030000
v 0.02489262 0.01356612 0.02030000
v 0.02492018 0.01351301 0.02030000
v 0.02495087 0.01346165 0.02030000
v 0.02498457 0.01341221 0.02030000
v 0.02502117 0.01336488 0.02030000
v 0.02506054 0.01331983 0.02030000
v 0.02510253 0.01327721 0.02030000
v 0.02514699 0.01323717 0.02030000
v 0.02519377 0.01319987 0.02030000
v 0.02524269 0.01316543 0.02030000
v 0.02529359 0.01313397 0.02030000
v 0.02534628 0.01310562 0.02030000
v 0.02540056 0.01308047 0.02030000
v 0.02545626 0.01305861 0.02030000
v 0.02551316 0.01304012 0.02030000
v 0.02557107 0.01302507 0.02030000
v 0.02562977 0.01301351 0.02030000
v 0.02568906 0.01300548 0.02030000
v 0.02574872 0.01300101 0.02030000
v 0.02580855 0.01300011 0.02030000
v 0.02586832 0.01300280 0.02030000
v 0.02592782 0.01300905 0.02030000
v 0.02598684 0.01301885 0.02030000
v 0.02604518 0.01303217 0.02030000
v 0.02610261 0.01304894 0.02030000
v 0.02615893 0.01306913 0.02030000
v 0.02621395 0.01309264 0.02030000
v 0.02626746 0.01311940 0.02030000
v 0.02631927 0.01314932 0.02030000
v 0.02636921 0.01318228 0.02030000
v 0.02641708 0.01321817 0.02030000
v 0.02646272 0.01325686 0.02030000
v 0.02650596 0.01329820 0.02030000
v 0.02654666 0.01334206 0.02030000
v 0.02658466 0.01338828 0.02030000
v 0.02661983 0.01343668 0.02030000
v 0.02665204 0.01348710 0.02030000
v 0.02668117 0.01353936 0.02030000
v 0.02670713 0.01359326 0.02030000
v 0.02672982 0.01364863 0.02030000
v 0.02674916 0.01370524 0.02030000
v 0.02676508 0.01376292 0.02030000
v 0.02677752 0.01382144 0.02030000
v 0.02678644 0.01388061 0.02030000
v 0.02679180 0.01394020 0.02030000
f 160 159 264
f 164 270 165
f 309 205 204
f 172 171 276
f 167 273 168
f 265 160 264
f 162 267 268
f 203 309 204
f 128 127 233
f 114 219 115
f 220 221 115
f 115 219 220
f 115 221 116
f 221 117 116
f 126 125 230
f 283 178 177
f 179 178 283
f 158 157 263
f 263 157 262
f 276 171 170
f 274 170 169
f 168 273 274
f 274 169 168
f 165 270 166
f 273 167 272
f 160 265 161
f 270 164 269
f 164 268 269
f 162 268 163
f 163 268 164
f 308 203 202
f 309 203 308
f 201 306 202
f 200 306 201
f 197 302 198
f 298 193 192
f 299 194 298
f 194 193 298
f 232 233 127
f 127 126 232
f 128 233 129
f 236 130 235
f 111 217 112
f 218 114 113
f 219 114 218
f 113 112 218
f 218 112 217
f 119 118 224
f 208 313 314
f 208 207 312
f 312 313 208
f 230 125 229
f 125 124 229
f 229 124 123
f 123 228 229
f 227 123 122
f 227 228 123
f 122 226 227
f 121 226 122
f 121 120 226
f 177 176 281
f 281 176 175
f 156 155 261
f 261 262 156
f 156 262 157
f 257 153 152
f 276 170 275
f 170 274 275
f 271 166 270
f 167 166 271
f 271 272 167
f 266 161 265
f 162 161 266
f 266 267 162
f 202 306 307
f 307 308 202
f 303 199 198
f 303 304 199
f 198 302 303
f 200 199 305
f 199 304 305
f 305 306 200
f 196 195 301
f 301 197 196
f 302 197 301
f 192 191 297
f 297 298 192
f 189 294 190
f 243 137 242
f 138 137 243
f 131 236 132
f 131 130 236
f 231 126 230
f 231 232 126
f 130 129 234
f 234 235 130
f 234 129 233
f 109 215 110
f 216 217 111
f 111 110 216
f 216 110 215
f 213 108 107
f 109 108 213
f 222 117 221
f 222 118 117
f 225 120 119
f 119 224 225
f 226 120 225
f 311 207 206
f 311 312 207
f 208 314 209
f 314 210 209
f 315 210 314
f 106 210 315
f 211 106 315
f 282 283 177
f 177 281 282
f 175 174 279
f 252 147 251
f 253 147 252
f 300 301 195
f 300 195 194
f 300 194 299
f 295 191 190
f 190 294 295
f 290 185 184
f 288 183 182
f 288 184 183
f 179 283 284
f 179 284 180
f 187 292 293
f 291 186 185
f 291 185 290
f 187 186 291
f 291 292 187
f 239 135 134
f 134 133 239
f 246 142 141
f 247 142 246
f 141 140 246
f 246 140 245
f 139 138 244
f 244 138 243
f 244 140 139
f 245 140 244
f 212 213 107
f 212 107 106
f 212 106 211
f 214 215 109
f 109 213 214
f 223 224 118
f 118 222 223
f 206 205 310
f 310 311 206
f 205 309 310
f 280 281 175
f 175 279 280
f 278 174 173
f 278 279 174
f 173 172 278
f 148 147 253
f 253 149 148
f 150 255 256
f 254 149 253
f 254 150 149
f 255 150 254
f 259 154 153
f 155 154 259
f 296 297 191
f 191 295 296
f 182 286 287
f 287 288 182
f 290 184 289
f 184 288 289
f 181 286 182
f 181 180 286
f 286 180 285
f 285 180 284
f 188 293 294
f 294 189 188
f 187 293 188
f 241 136 135
f 137 136 241
f 241 242 137
f 237 133 132
f 132 236 237
f 251 145 250
f 250 145 249
f 251 147 146
f 146 145 251
f 277 172 276
f 277 278 172
f 151 150 256
f 256 257 151
f 151 257 152
f 249 143 248
f 248 143 142
f 248 142 247
f 249 145 144
f 144 143 249
f 153 257 258
f 258 259 153
f 261 155 260
f 155 259 260
f 135 239 240
f 240 241 135
f 238 239 133
f 133 237 238
f 72 178 73
f 177 178 72
f 203 98 97
f 203 97 202
f 206 101 100
f 100 205 206
f 94 93 198
f 198 199 94
f 200 95 94
f 94 199 200
f 10 9 114
f 115 10 114
f 1 106 2
f 106 107 2
f 207 102 101
f 207 101 206
f 103 102 207
f 207 208 103
f 120 15 14
f 120 14 119
f 22 127 128
f 128 23 22
f 8 114 9
f 113 114 8
f 73 178 74
f 74 178 179
f 67 66 171
f 171 172 67
f 67 172 173
f 173 68 67
f 175 70 69
f 69 174 175
f 69 68 173
f 173 174 69
f 71 70 175
f 175 176 71
f 177 72 71
f 71 176 177
f 158 263 264
f 264 159 158
f 52 158 53
f 157 158 52
f 161 57 56
f 162 57 161
f 56 55 161
f 161 55 160
f 202 97 201
f 97 96 201
f 201 95 200
f 201 96 95
f 98 203 99
f 99 203 204
f 205 100 99
f 204 205 99
f 93 92 197
f 198 93 197
f 92 91 197
f 197 91 196
f 90 89 195
f 195 89 194
f 195 91 90
f 196 91 195
f 191 86 85
f 191 85 190
f 87 86 191
f 191 192 87
f 30 29 135
f 29 134 135
f 133 28 27
f 133 27 132
f 29 28 133
f 133 134 29
f 112 8 7
f 113 8 112
f 119 14 13
f 13 118 119
f 117 118 13
f 13 12 117
f 11 10 115
f 115 116 11
f 117 12 11
f 11 116 117
f 109 4 3
f 3 108 109
f 3 2 107
f 107 108 3
f 6 112 7
f 111 112 6
f 210 106 1
f 1 105 210
f 122 123 18
f 18 17 122
f 21 20 125
f 125 126 21
f 127 22 21
f 21 126 127
f 48 47 152
f 152 153 48
f 60 164 165
f 59 164 60
f 54 158 159
f 53 158 54
f 160 55 54
f 159 160 54
f 58 164 59
f 58 163 164
f 58 57 162
f 162 163 58
f 87 192 88
f 192 193 88
f 194 89 88
f 88 193 194
f 183 78 77
f 77 182 183
f 186 81 80
f 80 185 186
f 82 81 186
f 186 187 82
f 189 85 84
f 190 85 189
f 33 32 138
f 138 32 137
f 24 23 128
f 128 129 24
f 130 25 24
f 24 129 130
f 110 6 5
f 111 6 110
f 110 5 4
f 110 4 109
f 103 208 209
f 209 104 103
f 105 104 209
f 209 210 105
f 15 120 16
f 120 121 16
f 122 17 16
f 16 121 122
f 125 20 19
f 19 124 125
f 19 18 123
f 123 124 19
f 51 50 155
f 155 156 51
f 157 52 51
f 51 156 157
f 171 66 65
f 65 170 171
f 169 170 65
f 65 64 169
f 63 167 168
f 63 62 167
f 169 64 63
f 168 169 63
f 167 62 61
f 61 166 167
f 61 60 165
f 165 166 61
f 80 79 184
f 184 185 80
f 184 79 78
f 78 183 184
f 75 74 180
f 180 74 179
f 32 31 136
f 137 32 136
f 30 135 136
f 136 31 30
f 33 138 34
f 34 138 139
f 36 35 140
f 141 36 140
f 35 34 140
f 140 34 139
f 132 27 26
f 26 131 132
f 26 25 130
f 130 131 26
f 43 42 148
f 148 42 147
f 148 44 43
f 149 44 148
f 45 44 150
f 150 44 149
f 37 36 141
f 141 142 37
f 38 37 143
f 143 37 142
f 155 50 49
f 49 154 155
f 49 48 153
f 153 154 49
f 77 76 181
f 181 182 77
f 181 76 75
f 75 180 181
f 188 83 82
f 82 187 188
f 84 83 188
f 188 189 84
f 146 42 41
f 147 42 146
f 146 41 40
f 40 145 146
f 47 46 151
f 152 47 151
f 151 46 45
f 45 150 151
f 243 242 238
f 226 225 238
f 238 262 261
f 238 244 243
f 219 218 238
f 264 263 238
f 306 305 238
f 238 307 306
f 221 220 238
f 238 227 226
f 238 265 264
f 276 275 238
f 309 308 238
f 294 293 238
f 299 298 238
f 283 282 238
f 217 216 238
f 238 254 253
f 238 271 270
f 238 268 267
f 270 269 238
f 238 295 294
f 238 237 236
f 236 235 238
f 238 220 219
f 281 280 238
f 224 223 238
f 230 229 238
f 238 300 299
f 263 262 238
f 238 274 273
f 273 272 238
f 238 269 268
f 267 266 238
f 238 303 302
f 302 301 238
f 247 246 238
f 233 232 238
f 238 231 230
f 238 234 233
f 238 218 217
f 256 255 238
f 238 222 221
f 238 314 313
f 313 312 238
f 238 229 228
f 228 227 238
f 211 315 238
f 238 257 256
f 238 275 274
f 272 271 238
f 238 266 265
f 308 307 238
f 304 303 238
f 238 305 304
f 238 252 251
f 298 297 238
f 238 287 286
f 238 284 283
f 238 291 290
f 242 241 238
f 238 277 276
f 232 231 238
f 235 234 238
f 251 250 238
f 238 216 215
f 238 212 211
f 215 214 238
f 238 225 224
f 312 311 238
f 238 315 314
f 238 282 281
f 238 310 309
f 253 252 238
f 301 300 238
f 238 258 257
f 297 296 238
f 290 289 238
f 238 293 292
f 292 291 238
f 286 285 238
f 238 246 245
f 245 244 238
f 213 212 238
f 238 214 213
f 238 223 222
f 311 310 238
f 238 280 279
f 279 278 238
f 255 254 238
f 238 248 247
f 238 296 295
f 288 287 238
f 238 289 288
f 238 285 284
f 261 260 238
f 238 240 239
f 238 250 249
f 278 277 238
f 249 248 238
f 259 258 238
f 238 260 259
f 241 240 238
f 39 32 33
f 39 83 84
f 7 8 39
f 39 58 59
f 39 92 93
f 39 3 4
f 39 96 97
f 20 21 39
f 47 48 39
f 39 79 80
f 14 15 39
f 15 16 39
f 39 52 53
f 70 71 39
f 39 100 101
f 39 86 87
f 27 28 39
f 33 34 39
f 101 102 39
f 30 31 39
f 90 91 39
f 39 76 77
f 39 72 73
f 97 98 39
f 80 81 39
f 84 85 39
f 98 99 39
f 93 94 39
f 39 29 30
f 1 2 39
f 39 102 103
f 39 105 1
f 103 104 39
f 39 9 10
f 77 78 39
f 73 74 39
f 66 67 39
f 39 69 70
f 40 41 39
f 39 46 47
f 59 60 39
f 53 54 39
f 39 81 82
f 82 83 39
f 85 86 39
f 39 89 90
f 39 94 95
f 95 96 39
f 39 28 29
f 87 88 39
f 39 13 14
f 10 11 39
f 4 5 39
f 39 6 7
f 23 24 39
f 39 22 23
f 39 8 9
f 39 74 75
f 75 76 39
f 39 67 68
f 68 69 39
f 39 71 72
f 39 19 20
f 39 26 27
f 39 42 43
f 50 51 39
f 39 55 56
f 56 57 39
f 39 99 100
f 39 91 92
f 78 79 39
f 39 49 50
f 39 61 62
f 12 13 39
f 39 11 12
f 2 3 39
f 5 6 39
f 39 104 105
f 17 18 39
f 39 21 22
f 45 46 39
f 36 37 39
f 39 65 66
f 62 63 39
f 39 54 55
f 57 58 39
f 39 88 89
f 39 31 32
f 43 44 39
f 39 35 36
f 39 24 25
f 39 16 17
f 18 19 39
f 41 42 39
f 39 51 52
f 64 65 39
f 39 63 64
f 60 61 39
f 39 34 35
f 25 26 39
f 39 44 45
f 39 37 38
f 48 49 39
f 39 145 40
f 39 144 145
f 38 143 39
f 143 144 39

