# https://github.com/mikedh/trimesh
v 0.02139359 -0.00000000 0.03230000
v 0.02139019 0.00011363 0.03230000
v 0.02138000 0.00022685 0.03230000
v 0.02136305 0.00033926 0.03230000
v 0.02133942 0.00045045 0.03230000
v 0.02130918 0.00056003 0.03230000
v 0.02127243 0.00066761 0.03230000
v 0.02122933 0.00077280 0.03230000
v 0.02118000 0.00087522 0.03230000
v 0.02112464 0.00097451 0.03230000
v 0.02106344 0.00107031 0.03230000
v 0.02099662 0.00116228 0.03230000
v 0.02092442 0.00125008 0.03230000
v 0.02084710 0.00133342 0.03230000
v 0.02076494 0.00141198 0.03230000
v 0.02067822 0.00148548 0.03230000
v 0.02058726 0.00155367 0.03230000
v 0.02049239 0.00161629 0.03230000
v 0.02039394 0.00167313 0.03230000
v 0.02029227 0.00172398 0.03230000
v 0.02018774 0.00176866 0.03230000
v 0.02008072 0.00180701 0.03230000
v 0.01997160 0.00183889 0.03230000
v 0.01986077 0.00186418 0.03230000
v 0.01974863 0.00188280 0.03230000
v 0.01963558 0.00189469 0.03230000
v 0.01952201 0.00189979 0.03230000
v 0.01940835 0.00189809 0.03230000
v 0.01929498 0.00188959 0.03230000
v 0.01918233 0.00187433 0.03230000
v 0.01907080 0.00185236 0.03230000
v 0.01896078 0.00182376 0.03230000
v 0.01885266 0.00178863 0.03230000
v 0.01874684 0.00174710 0.03230000
v 0.01864369 0.00169932 0.03230000
v 0.01854359 0.00164545 0.03230000
v 0.01844688 0.00158569 0.03230000
v 0.01835393 0.00152025 0.03230000
v 0.01826505 0.00144938 0.03230000
v 0.01818057 0.00137331 0.03230000
v 0.01810079 0.00129233 0.03230000
v 0.01802600 0.00120672 0.03230000
v 0.01795646 0.00111679 0.03230000
v 0.01789242 0.00102287 0.03230000
v 0.01783411 0.00092528 0.03230000
v 0.01778175 0.00082438 0.03230000
v 0.01773551 0.00072053 0.03230000
v 0.01769557 0.00061410 0.03230000
v 0.01766206 0.00050547 0.03230000
v 0.01763511 0.00039503 0.03230000
v 0.01761481 0.00028318 0.03230000
v 0.01760124 0.00017031 0.03230000
v 0.01759444 0.00005684 0.03230000
v 0.01759444 -0.00005684 0.03230000
v 0.01760124 -0.00017031 0.03230000
v 0.01761481 -0.00028318 0.03230000
v 0.01763511 -0.00039503 0.03230000
v 0.01766206 -0.00050547 0.03230000
v 0.01769557 -0.00061410 0.03230000
v 0.01773551 -0.00072053 0.03230000
v 0.01778175 -0.00082438 0.03230000
v 0.01783411 -0.00092528 0.03230000
v 0.01789242 -0.00102287 0.03230000
v 0.01795646 -0.00111679 0.03230000
v 0.01802600 -0.00120672 0.03230000
v 0.01810079 -0.00129233 0.03230000
v 0.01818057 -0.00137331 0.03230000
v 0.01826505 -0.00144938 0.03230000
v 0.01835393 -0.00152025 0.03230000
v 0.01844688 -0.00158569 0.03230000
v 0.01854359 -0.00164545 0.03230000
v 0.01864369 -0.00169932 0.03230000
v 0.01874684 -0.00174710 0.03230000
v 0.01885266 -0.00178863 0.03230000
v 0.01896078 -0.00182376 0.03230000
v 0.01907080 -0.00185236 0.03230000
v 0.01918233 -0.00187433 0.03230000
v 0.01929498 -0.00188959 0.03230000
v 0.01940835 -0.00189809 0.03230000
v 0.01952201 -0.00189979 0.03230000
v 0.01963558 -0.00189469 0.03230000
v 0.01974863 -0.00188280 0.03230000
v 0.01986077 -0.00186418 0.03230000
v 0.01997160 -0.00183889 0.03230000
v 0.02008072 -0.00180701 0.03230000
v 0.02018774 -0.00176866 0.03230000
v 0.02029227 -0.00172398 0.03230000
v 0.02039394 -0.00167313 0.03230000
v 0.02049239 -0.00161629 0.03230000
v 0.02058726 -0.00155367 0.03230000
v 0.02067822 -0.00148548 0.03230000
v 0.02076494 -0.00141198 0.03230000
v 0.02084710 -0.00133342 0.03230000
v 0.02092442 -0.00125008 0.03230000
v 0.02099662 -0.00116228 0.03230000
v 0.02106344 -0.00107031 0.03230000
v 0.02112464 -0.00097451 0.03230000
v 0.02118000 -0.00087522 0.03230000
v 0.02122933 -0.00077280 0.03230000
v 0.02127243 -0.00066761 0.03230000
v 0.02130918 -0.00056003 0.03230000
v 0.02133942 -0.00045045 0.03230000
v 0.02136305 -0.00033926 0.03230000
v 0.02138000 -0.00022685 0.03230000
v 0.02139019 -0.00011363 0.03230000
v 0.02139359 -0.00000000 0.03030000
v 0.02139019 0.00011363 0.03030000
v 0.02138000 0.00022685 0.03030000
v 0.02136305 0.00033926 0.03030000
v 0.02133942 0.00045045 0.03030000
v 0.02130918 0.00056003 0.03030000
v 0.02127243 0.00066761 0.03030000
v 0.02122933 0.00077280 0.03030000
v 0.02118000 0.00087522 0.03030000
v 0.02112464 0.00097451 0.03030000
v 0.02106344 0.00107031 0.03030000
v 0.02099662 0.00116228 0.03030000
v 0.02092442 0.00125008 0.03030000
v 0.02084710 0.00133342 0.03030000
v 0.02076494 0.00141198 0.03030000
v 0.02067822 0.00148548 0.03030000
v 0.02058726 0.00155367 0.03030000
v 0.02049239 0.00161629 0.03030000
v 0.02039394 0.00167313 0.03030000
v 0.02029227 0.00172398 0.03030000
v 0.02018774 0.00176866 0.03030000
v 0.02008072 0.00180701 0.03030000
v 0.01997160 0.00183889 0.03030000
v 0.01986077 0.00186418 0.03030000
v 0.01974863 0.00188280 0.03030000
v 0.01963558 0.00189469 0.03030000
v 0.01952201 0.00189979 0.03030000
v 0.01940835 0.00189809 0.03030000
v 0.01929498 0.00188959 0.03030000
v 0.01918233 0.00187433 0.03030000
v 0.01907080 0.00185236 0.03030000
v 0.01896078 0.00182376 0.03030000
v 0.01885266 0.00178863 0.03030000
v 0.01874684 0.00174710 0.03030000
v 0.01864369 0.00169932 0.03030000
v 0.01854359 0.00164545 0.03030000
v 0.01844688 0.00158569 0.03030000
v 0.01835393 0.00152025 0.03030000
v 0.01826505 0.00144938 0.03030000
v 0.01818057 0.00137331 0.03030000
v 0.01810079 0.00129233 0.03030000
v 0.01802600 0.00120672 0.03030000
v 0.01795646 0.00111679 0.03030000
v 0.01789242 0.00102287 0.03030000
v 0.01783411 0.00092528 0.03030000
v 0.01778175 0.00082438 0.03030000
v 0.01773551 0.00072053 0.03030000
v 0.01769557 0.00061410 0.03030000
v 0.01766206 0.00050547 0.03030000
v 0.01763511 0.00039503 0.03030000
v 0.01761481 0.00028318 0.03030000
v 0.01760124 0.00017031 0.03030000
v 0.01759444 0.00005684 0.03030000
v 0.01759444 -0.00005684 0.03030000
v 0.01760124 -0.00017031 0.03030000
v 0.01761481 -0.00028318 0.03030000
v 0.01763511 -0.00039503 0.03030000
v 0.01766206 -0.00050547 0.03030000
v 0.01769557 -0.00061410 0.03030000
v 0.01773551 -0.00072053 0.03030000
v 0.01778175 -0.00082438 0.03030000
v 0.01783411 -0.00092528 0.03030000
v 0.01789242 -0.00102287 0.03030000
v 0.01795646 -0.00111679 0.03030000
v 0.01802600 -0.00120672 0.03030000
v 0.01810079 -0.00129233 0.03030000
v 0.01818057 -0.00137331 0.03030000
v 0.01826505 -0.00144938 0.03030000
v 0.01835393 -0.00152025 0.03030000
v 0.01844688 -0.00158569 0.03030000
v 0.01854359 -0.00164545 0.03030000
v 0.01864369 -0.00169932 0.03030000
v 0.01874684 -0.00174710 0.03030000
v 0.01885266 -0.00178863 0.03030000
v 0.01896078 -0.00182376 0.03030000
v 0.01907080 -0.00185236 0.03030000
v 0.01918233 -0.00187433 0.03030000
v 0.01929498 -0.00188959 0.03030000
v 0.01940835 -0.00189809 0.03030000
v 0.01952201 -0.00189979 0.03030000
v 0.01963558 -0.00189469 0.03030000
v 0.01974863 -0.00188280 0.03030000
v 0.01986077 -0.00186418 0.03030000
v 0.01997160 -0.00183889 0.03030000
v 0.02008072 -0.00180701 0.03030000
v 0.02018774 -0.00176866 0.03030000
v 0.02029227 -0.00172398 0.03030000
v 0.02039394 -0.00167313 0.03030000
v 0.02049239 -0.00161629 0.03030000
v 0.02058726 -0.00155367 0.03030000
v 0.02067822 -0.00148548 0.03030000
v 0.02076494 -0.00141198 0.03030000
v 0.02084710 -0.00133342 0.03030000
v 0.02092442 -0.00125008 0.03030000
v 0.02099662 -0.00116228 0.03030000
v 0.02106344 -0.00107031 0.03030000
v 0.02112464 -0.00097451 0.03030000
v 0.02118000 -0.00087522 0.03030000
v 0.02122933 -0.00077280 0.03030000
v 0.02127243 -0.00066761 0.03030000
v 0.02130918 -0.00056003 0.03030000
v 0.02133942 -0.00045045 0.03030000
v 0.02136305 -0.00033926 0.03030000
v 0.02138000 -0.00022685 0.03030000
v 0.02139019 -0.00011363 0.03030000
v 0.02049359 -0.00000000 0.02230000
v 0.02049180 0.00005980 0.02230000
v 0.02048644 0.00011939 0.02230000
v 0.02047752 0.00017856 0.02230000
v 0.02046508 0.00023708 0.02230000
v 0.02044916 0.00029476 0.02230000
v 0.02042982 0.00035137 0.02230000
v 0.02040713 0.00040674 0.02230000
v 0.02038117 0.00046064 0.02230000
v 0.02035204 0.00051290 0.02230000
v 0.02031983 0.00056332 0.02230000
v 0.02028466 0.00061172 0.02230000
v 0.02024666 0.00065794 0.02230000
v 0.02020596 0.00070180 0.02230000
v 0.02016272 0.00074314 0.02230000
v 0.02011708 0.00078183 0.02230000
v 0.02006921 0.00081772 0.02230000
v 0.02001927 0.00085068 0.02230000
v 0.01996746 0.00088060 0.02230000
v 0.01991395 0.00090736 0.02230000
v 0.01985893 0.00093087 0.02230000
v 0.01980261 0.00095106 0.02230000
v 0.01974518 0.00096783 0.02230000
v 0.01968684 0.00098115 0.02230000
v 0.01962782 0.00099095 0.02230000
v 0.01956832 0.00099720 0.02230000
v 0.01950855 0.00099989 0.02230000
v 0.01944872 0.00099899 0.02230000
v 0.01938906 0.00099452 0.02230000
v 0.01932977 0.00098649 0.02230000
v 0.01927107 0.00097493 0.02230000
v 0.01921316 0.00095988 0.02230000
v 0.01915626 0.00094139 0.02230000
v 0.01910056 0.00091953 0.02230000
v 0.01904628 0.00089438 0.02230000
v 0.01899359 0.00086603 0.02230000
v 0.01894269 0.00083457 0.02230000
v 0.01889377 0.00080013 0.02230000
v 0.01884699 0.00076283 0.02230000
v 0.01880253 0.00072279 0.02230000
v 0.01876054 0.00068017 0.02230000
v 0.01872117 0.00063512 0.02230000
v 0.01868457 0.00058779 0.02230000
v 0.01865087 0.00053835 0.02230000
v 0.01862018 0.00048699 0.02230000
v 0.01859262 0.00043388 0.02230000
v 0.01856828 0.00037923 0.02230000
v 0.01854726 0.00032321 0.02230000
v 0.01852963 0.00026604 0.02230000
v 0.01851544 0.00020791 0.02230000
v 0.01850476 0.00014904 0.02230000
v 0.01849761 0.00008964 0.02230000
v 0.01849404 0.00002992 0.02230000
v 0.01849404 -0.00002992 0.02230000
v 0.01849761 -0.00008964 0.02230000
v 0.01850476 -0.00014904 0.02230000
v 0.01851544 -0.00020791 0.02230000
v 0.01852963 -0.00026604 0.02230000
v 0.01854726 -0.00032321 0.02230000
v 0.01856828 -0.00037923 0.02230000
v 0.01859262 -0.00043388 0.02230000
v 0.01862018 -0.00048699 0.02230000
v 0.01865087 -0.00053835 0.02230000
v 0.01868457 -0.00058779 0.02230000
v 0.01872117 -0.00063512 0.02230000
v 0.01876054 -0.00068017 0.02230000
v 0.01880253 -0.00072279 0.02230000
v 0.01884699 -0.00076283 0.02230000
v 0.01889377 -0.00080013 0.02230000
v 0.01894269 -0.00083457 0.02230000
v 0.01899359 -0.00086603 0.02230000
v 0.01904628 -0.00089438 0.02230000
v 0.01910056 -0.00091953 0.02230000
v 0.01915626 -0.00094139 0.02230000
v 0.01921316 -0.00095988 0.02230000
v 0.01927107 -0.00097493 0.02230000
v 0.01932977 -0.00098649 0.02230000
v 0.01938906 -0.00099452 0.02230000
v 0.01944872 -0.00099899 0.02230000
v 0.01950855 -0.00099989 0.02230000
v 0.01956832 -0.00099720 0.02230000
v 0.01962782 -0.00099095 0.02230000
v 0.01968684 -0.00098115 0.02230000
v 0.01974518 -0.00096783 0.02230000
v 0.01980261 -0.00095106 0.02230000
v 0.01985893 -0.00093087 0.02230000
v 0.01991395 -0.00090736 0.02230000
v 0.01996746 -0.00088060 0.02230000
v 0.02001927 -0.00085068 0.02230000
v 0.02006921 -0.00081772 0.02230000
v 0.02011708 -0.00078183 0.02230000
v 0.02016272 -0.00074314 0.02230000
v 0.02020596 -0.00070180 0.02230000
v 0.02024666 -0.00065794 0.02230000
v 0.02028466 -0.00061172 0.02230000
v 0.02031983 -0.00056332 0.02230000
v 0.02035204 -0.00051290 0.02230000
v 0.02038117 -0.00046064 0.02230000
v 0.02040713 -0.00040674 0.02230000
v 0.02042982 -0.00035137 0.02230000
v 0.02044916 -0.00029476 0.02230000
v 0.02046508 -0.00023708 0.02230000
v 0.02047752 -0.00017856 0.02230000
v 0.02048644 -0.00011939 0.02230000
v 0.02049180 -0.00005980 0.02230000
f 164 270 165
f 173 172 277
f 162 267 268
f 108 107 213
f 174 173 279
f 120 224 225
f 114 218 219
f 236 130 235
f 128 127 233
f 277 172 171
f 160 159 264
f 264 265 160
f 160 265 161
f 270 164 269
f 164 268 269
f 162 268 163
f 163 268 164
f 212 213 107
f 212 106 211
f 212 107 106
f 215 216 110
f 108 213 109
f 109 215 110
f 299 194 298
f 194 193 298
f 192 298 193
f 201 200 305
f 302 303 197
f 197 303 198
f 300 195 194
f 300 194 299
f 202 308 203
f 307 308 202
f 205 204 309
f 204 203 309
f 309 203 308
f 278 173 277
f 278 279 173
f 174 279 175
f 176 175 281
f 282 178 177
f 177 281 282
f 176 281 177
f 136 242 137
f 118 222 223
f 223 224 118
f 117 222 118
f 117 116 222
f 115 219 220
f 114 219 115
f 222 116 221
f 221 115 220
f 116 115 221
f 118 224 119
f 224 120 119
f 122 227 123
f 113 218 114
f 113 112 218
f 218 112 217
f 110 216 111
f 216 217 111
f 111 217 112
f 132 236 237
f 237 133 132
f 238 133 237
f 128 233 129
f 231 126 125
f 231 125 230
f 231 127 126
f 145 144 250
f 181 286 287
f 285 286 181
f 180 285 181
f 263 158 157
f 156 155 261
f 165 270 166
f 168 274 169
f 266 161 265
f 162 161 266
f 266 267 162
f 214 109 213
f 215 109 214
f 190 296 191
f 296 192 191
f 297 192 296
f 298 192 297
f 198 303 199
f 305 200 199
f 302 197 301
f 195 300 301
f 195 301 196
f 196 301 197
f 202 201 306
f 306 307 202
f 306 201 305
f 310 206 205
f 205 309 310
f 280 175 279
f 280 281 175
f 180 179 284
f 284 285 180
f 284 179 178
f 289 184 183
f 295 296 190
f 190 294 295
f 238 239 134
f 134 133 238
f 246 141 140
f 139 138 243
f 243 244 139
f 243 138 137
f 137 242 243
f 240 136 135
f 135 134 240
f 240 134 239
f 226 120 225
f 226 121 120
f 226 227 122
f 122 121 226
f 230 125 229
f 131 236 132
f 130 236 131
f 234 129 233
f 130 129 234
f 235 130 234
f 232 233 127
f 127 231 232
f 145 250 146
f 287 183 182
f 182 181 287
f 153 259 154
f 259 155 154
f 153 152 257
f 151 257 152
f 262 157 156
f 156 261 262
f 263 157 262
f 260 155 259
f 260 261 155
f 277 171 276
f 171 275 276
f 274 275 170
f 169 274 170
f 170 275 171
f 271 166 270
f 271 272 167
f 167 166 271
f 274 168 273
f 167 272 273
f 273 168 167
f 305 199 304
f 304 199 303
f 207 206 311
f 206 310 311
f 283 178 282
f 283 284 178
f 288 183 287
f 288 289 183
f 290 291 185
f 185 184 290
f 184 289 290
f 189 294 190
f 185 291 186
f 291 187 186
f 246 140 245
f 245 140 139
f 139 244 245
f 242 136 241
f 136 240 241
f 228 123 227
f 228 229 123
f 124 229 125
f 123 229 124
f 142 141 246
f 143 142 248
f 144 143 248
f 253 149 148
f 147 146 252
f 252 253 147
f 147 253 148
f 251 146 250
f 252 146 251
f 258 259 153
f 153 257 258
f 257 151 256
f 256 151 150
f 256 150 255
f 312 208 207
f 207 311 312
f 292 187 291
f 292 293 187
f 188 293 294
f 294 189 188
f 187 293 188
f 247 142 246
f 247 248 142
f 249 250 144
f 144 248 249
f 149 253 254
f 150 149 254
f 255 150 254
f 209 208 314
f 314 210 209
f 208 312 313
f 313 314 208
f 210 314 315
f 106 210 315
f 211 106 315
f 89 195 90
f 194 195 89
f 21 20 125
f 125 126 21
f 68 67 172
f 172 173 68
f 174 69 68
f 68 173 174
f 264 158 263
f 264 159 158
f 163 58 57
f 163 57 162
f 158 159 54
f 53 158 54
f 54 159 160
f 160 55 54
f 165 60 59
f 59 164 165
f 58 163 59
f 59 163 164
f 1 106 2
f 106 107 2
f 2 107 108
f 108 3 2
f 87 192 88
f 88 192 193
f 194 89 88
f 88 193 194
f 93 92 197
f 198 93 197
f 203 98 97
f 203 97 202
f 71 70 175
f 176 71 175
f 175 69 174
f 175 70 69
f 177 72 71
f 177 71 176
f 72 177 73
f 73 177 178
f 179 75 74
f 180 75 179
f 74 73 179
f 179 73 178
f 133 28 27
f 133 27 132
f 33 32 138
f 138 32 137
f 137 32 136
f 32 31 136
f 136 31 30
f 30 135 136
f 117 13 12
f 118 13 117
f 115 10 9
f 9 114 115
f 11 117 12
f 116 117 11
f 10 115 11
f 11 115 116
f 14 13 119
f 119 13 118
f 14 119 15
f 15 119 120
f 128 23 22
f 22 127 128
f 22 21 126
f 126 127 22
f 129 23 128
f 129 24 23
f 25 24 129
f 129 130 25
f 181 76 75
f 181 75 180
f 53 52 157
f 157 158 53
f 52 51 157
f 157 51 156
f 155 51 50
f 156 51 155
f 152 48 47
f 153 48 152
f 172 67 66
f 66 171 172
f 162 57 56
f 56 161 162
f 56 55 160
f 160 161 56
f 99 204 205
f 205 100 99
f 98 203 99
f 99 203 204
f 207 208 102
f 208 103 102
f 105 106 1
f 105 210 106
f 110 5 4
f 4 109 110
f 4 3 108
f 108 109 4
f 86 85 191
f 191 85 190
f 87 86 191
f 191 192 87
f 202 97 96
f 96 201 202
f 96 95 200
f 200 201 96
f 90 195 196
f 196 91 90
f 92 91 196
f 196 197 92
f 79 185 80
f 79 184 185
f 183 184 79
f 79 78 183
f 30 29 134
f 134 135 30
f 29 28 134
f 28 133 134
f 33 138 34
f 34 138 139
f 36 35 140
f 141 36 140
f 35 34 140
f 140 34 139
f 18 17 122
f 122 123 18
f 122 17 16
f 16 121 122
f 16 15 120
f 120 121 16
f 8 114 9
f 8 113 114
f 7 112 8
f 112 113 8
f 6 5 110
f 110 111 6
f 6 112 7
f 6 111 112
f 132 27 131
f 27 26 131
f 131 26 25
f 25 130 131
f 39 145 40
f 39 144 145
f 143 39 38
f 144 39 143
f 146 41 40
f 40 145 146
f 182 78 77
f 183 78 182
f 77 76 182
f 76 181 182
f 61 60 165
f 165 166 61
f 61 166 167
f 167 62 61
f 169 64 63
f 63 168 169
f 63 62 167
f 167 168 63
f 101 100 205
f 205 206 101
f 207 102 101
f 101 206 207
f 104 103 208
f 104 208 209
f 210 105 104
f 209 210 104
f 94 93 198
f 198 199 94
f 200 95 94
f 94 199 200
f 189 85 84
f 190 85 189
f 186 81 80
f 80 185 186
f 82 81 186
f 186 187 82
f 142 37 36
f 142 36 141
f 38 37 142
f 142 143 38
f 43 42 147
f 148 43 147
f 147 42 41
f 41 146 147
f 49 155 50
f 49 154 155
f 49 48 153
f 153 154 49
f 46 152 47
f 46 151 152
f 46 45 150
f 150 151 46
f 44 43 148
f 148 149 44
f 150 45 44
f 44 149 150
f 65 64 169
f 169 170 65
f 171 66 65
f 65 170 171
f 188 83 82
f 82 187 188
f 84 83 188
f 188 189 84
f 19 49 50
f 19 76 77
f 80 81 19
f 103 104 19
f 19 56 57
f 19 92 93
f 19 86 87
f 19 16 17
f 20 21 19
f 19 73 74
f 5 6 19
f 19 52 53
f 87 88 19
f 90 91 19
f 84 85 19
f 27 28 19
f 19 32 33
f 19 22 23
f 74 75 19
f 19 70 71
f 47 48 19
f 53 54 19
f 19 63 64
f 19 13 14
f 9 10 19
f 19 83 84
f 1 2 19
f 19 29 30
f 19 11 12
f 19 96 97
f 36 37 19
f 71 72 19
f 67 68 19
f 40 41 19
f 19 66 67
f 19 42 43
f 57 58 19
f 19 59 60
f 19 105 1
f 19 8 9
f 12 13 19
f 30 31 19
f 82 83 19
f 19 85 86
f 19 89 90
f 19 81 82
f 19 28 29
f 19 79 80
f 33 34 19
f 14 15 19
f 19 26 27
f 23 24 19
f 50 51 19
f 75 76 19
f 19 68 69
f 69 70 19
f 93 94 19
f 19 54 55
f 58 59 19
f 97 98 19
f 19 99 100
f 19 2 3
f 19 91 92
f 19 88 89
f 19 4 5
f 72 73 19
f 77 78 19
f 19 35 36
f 19 31 32
f 10 11 19
f 64 65 19
f 21 22 19
f 25 26 19
f 19 24 25
f 19 37 38
f 19 39 40
f 19 51 52
f 19 46 47
f 43 44 19
f 60 61 19
f 55 56 19
f 98 99 19
f 19 102 103
f 100 101 19
f 3 4 19
f 95 96 19
f 78 79 19
f 19 34 35
f 17 18 19
f 15 16 19
f 7 8 19
f 19 6 7
f 38 39 19
f 41 42 19
f 19 61 62
f 62 63 19
f 19 101 102
f 19 104 105
f 19 94 95
f 48 49 19
f 45 46 19
f 19 44 45
f 19 65 66
f 125 20 19
f 19 124 125
f 19 18 123
f 123 124 19
f 315 226 225
f 315 217 216
f 225 224 315
f 259 258 315
f 274 273 315
f 315 264 263
f 238 237 315
f 216 215 315
f 282 281 315
f 302 301 315
f 315 223 222
f 287 286 315
f 315 231 230
f 315 228 227
f 270 269 315
f 315 306 305
f 315 283 282
f 315 221 220
f 220 219 315
f 315 260 259
f 277 276 315
f 315 268 267
f 315 212 211
f 315 214 213
f 315 300 299
f 315 278 277
f 315 280 279
f 315 256 255
f 255 254 315
f 315 239 238
f 246 245 315
f 315 219 218
f 315 236 235
f 230 229 315
f 315 292 291
f 265 264 315
f 315 269 268
f 213 212 315
f 267 266 315
f 299 298 315
f 315 303 302
f 315 297 296
f 308 307 315
f 315 309 308
f 279 278 315
f 305 304 315
f 315 286 285
f 291 290 315
f 296 295 315
f 315 243 242
f 224 223 315
f 222 221 315
f 218 217 315
f 315 237 236
f 235 234 315
f 233 232 315
f 263 262 315
f 315 275 274
f 315 271 270
f 315 266 265
f 215 214 315
f 298 297 315
f 315 301 300
f 307 306 315
f 315 310 309
f 281 280 315
f 285 284 315
f 315 288 287
f 315 295 294
f 244 243 315
f 315 240 239
f 227 226 315
f 242 241 315
f 315 234 233
f 315 232 231
f 250 249 315
f 315 251 250
f 315 262 261
f 261 260 315
f 315 276 275
f 272 271 315
f 315 273 272
f 315 304 303
f 315 311 310
f 284 283 315
f 289 288 315
f 315 290 289
f 294 293 315
f 315 245 244
f 315 241 240
f 229 228 315
f 315 247 246
f 315 253 252
f 252 251 315
f 315 258 257
f 257 256 315
f 315 312 311
f 293 292 315
f 248 247 315
f 315 249 248
f 315 254 253
f 315 313 312
f 314 313 315

