# https://github.com/mikedh/trimesh
v 0.02829359 -0.01400000 0.03630000
v 0.02828911 -0.01385049 0.03630000
v 0.02827571 -0.01370151 0.03630000
v 0.02825341 -0.01355361 0.03630000
v 0.02822231 -0.01340730 0.03630000
v 0.02818252 -0.01326311 0.03630000
v 0.02813418 -0.01312156 0.03630000
v 0.02807745 -0.01298316 0.03630000
v 0.02801255 -0.01284839 0.03630000
v 0.02793971 -0.01271775 0.03630000
v 0.02785919 -0.01259170 0.03630000
v 0.02777127 -0.01247069 0.03630000
v 0.02767627 -0.01235515 0.03630000
v 0.02757453 -0.01224551 0.03630000
v 0.02746642 -0.01214214 0.03630000
v 0.02735231 -0.01204542 0.03630000
v 0.02723263 -0.01195570 0.03630000
v 0.02710780 -0.01187330 0.03630000
v 0.02697826 -0.01179851 0.03630000
v 0.02684448 -0.01173160 0.03630000
v 0.02670694 -0.01167282 0.03630000
v 0.02656613 -0.01162236 0.03630000
v 0.02642256 -0.01158041 0.03630000
v 0.02627673 -0.01154713 0.03630000
v 0.02612917 -0.01152263 0.03630000
v 0.02598041 -0.01150699 0.03630000
v 0.02583099 -0.01150028 0.03630000
v 0.02568143 -0.01150252 0.03630000
v 0.02553227 -0.01151370 0.03630000
v 0.02538404 -0.01153377 0.03630000
v 0.02523729 -0.01156268 0.03630000
v 0.02509252 -0.01160031 0.03630000
v 0.02495026 -0.01164653 0.03630000
v 0.02481103 -0.01170118 0.03630000
v 0.02467531 -0.01176406 0.03630000
v 0.02454359 -0.01183494 0.03630000
v 0.02441635 -0.01191357 0.03630000
v 0.02429403 -0.01199967 0.03630000
v 0.02417709 -0.01209293 0.03630000
v 0.02406593 -0.01219301 0.03630000
v 0.02396096 -0.01229957 0.03630000
v 0.02386255 -0.01241221 0.03630000
v 0.02377105 -0.01253054 0.03630000
v 0.02368679 -0.01265412 0.03630000
v 0.02361007 -0.01278253 0.03630000
v 0.02354117 -0.01291529 0.03630000
v 0.02348033 -0.01305194 0.03630000
v 0.02342777 -0.01319198 0.03630000
v 0.02338368 -0.01333491 0.03630000
v 0.02334822 -0.01348022 0.03630000
v 0.02332151 -0.01362739 0.03630000
v 0.02330365 -0.01377590 0.03630000
v 0.02329471 -0.01392521 0.03630000
v 0.02329471 -0.01407479 0.03630000
v 0.02330365 -0.01422410 0.03630000
v 0.02332151 -0.01437261 0.03630000
v 0.02334822 -0.01451978 0.03630000
v 0.02338368 -0.01466509 0.03630000
v 0.02342777 -0.01480802 0.03630000
v 0.02348033 -0.01494806 0.03630000
v 0.02354117 -0.01508471 0.03630000
v 0.02361007 -0.01521747 0.03630000
v 0.02368679 -0.01534588 0.03630000
v 0.02377105 -0.01546946 0.03630000
v 0.02386255 -0.01558779 0.03630000
v 0.02396096 -0.01570043 0.03630000
v 0.02406593 -0.01580699 0.03630000
v 0.02417709 -0.01590707 0.03630000
v 0.02429403 -0.01600033 0.03630000
v 0.02441635 -0.01608643 0.03630000
v 0.02454359 -0.01616506 0.03630000
v 0.02467531 -0.01623594 0.03630000
v 0.02481103 -0.01629882 0.03630000
v 0.02495026 -0.01635347 0.03630000
v 0.02509252 -0.01639969 0.03630000
v 0.02523729 -0.01643732 0.03630000
v 0.02538404 -0.01646623 0.03630000
v 0.02553227 -0.01648630 0.03630000
v 0.02568143 -0.01649748 0.03630000
v 0.02583099 -0.01649972 0.03630000
v 0.02598041 -0.01649301 0.03630000
v 0.02612917 -0.01647737 0.03630000
v 0.02627673 -0.01645287 0.03630000
v 0.02642256 -0.01641959 0.03630000
v 0.02656613 -0.01637764 0.03630000
v 0.02670694 -0.01632718 0.03630000
v 0.02684448 -0.01626840 0.03630000
v 0.02697826 -0.01620149 0.03630000
v 0.02710780 -0.01612670 0.03630000
v 0.02723263 -0.01604430 0.03630000
v 0.02735231 -0.01595458 0.03630000
v 0.02746642 -0.01585786 0.03630000
v 0.02757453 -0.01575449 0.03630000
v 0.02767627 -0.01564485 0.03630000
v 0.02777127 -0.01552931 0.03630000
v 0.02785919 -0.01540830 0.03630000
v 0.02793971 -0.01528225 0.03630000
v 0.02801255 -0.01515161 0.03630000
v 0.02807745 -0.01501684 0.03630000
v 0.02813418 -0.01487844 0.03630000
v 0.02818252 -0.01473689 0.03630000
v 0.02822231 -0.01459270 0.03630000
v 0.02825341 -0.01444639 0.03630000
v 0.02827571 -0.01429849 0.03630000
v 0.02828911 -0.01414951 0.03630000
v 0.02829359 -0.01400000 0.03600000
v 0.02828911 -0.01385049 0.03600000
v 0.02827571 -0.01370151 0.03600000
v 0.02825341 -0.01355361 0.03600000
v 0.02822231 -0.01340730 0.03600000
v 0.02818252 -0.01326311 0.03600000
v 0.02813418 -0.01312156 0.03600000
v 0.02807745 -0.01298316 0.03600000
v 0.02801255 -0.01284839 0.03600000
v 0.02793971 -0.01271775 0.03600000
v 0.02785919 -0.01259170 0.03600000
v 0.02777127 -0.01247069 0.03600000
v 0.02767627 -0.01235515 0.03600000
v 0.02757453 -0.01224551 0.03600000
v 0.02746642 -0.01214214 0.03600000
v 0.02735231 -0.01204542 0.03600000
v 0.02723263 -0.01195570 0.03600000
v 0.02710780 -0.01187330 0.03600000
v 0.02697826 -0.01179851 0.03600000
v 0.02684448 -0.01173160 0.03600000
v 0.02670694 -0.01167282 0.03600000
v 0.02656613 -0.01162236 0.03600000
v 0.02642256 -0.01158041 0.03600000
v 0.02627673 -0.01154713 0.03600000
v 0.02612917 -0.01152263 0.03600000
v 0.02598041 -0.01150699 0.03600000
v 0.02583099 -0.01150028 0.03600000
v 0.02568143 -0.01150252 0.03600000
v 0.02553227 -0.01151370 0.03600000
v 0.02538404 -0.01153377 0.03600000
v 0.02523729 -0.01156268 0.03600000
v 0.02509252 -0.01160031 0.03600000
v 0.02495026 -0.01164653 0.03600000
v 0.02481103 -0.01170118 0.03600000
v 0.02467531 -0.01176406 0.03600000
v 0.02454359 -0.01183494 0.03600000
v 0.02441635 -0.01191357 0.03600000
v 0.02429403 -0.01199967 0.03600000
v 0.02417709 -0.01209293 0.03600000
v 0.02406593 -0.01219301 0.03600000
v 0.02396096 -0.01229957 0.03600000
v 0.02386255 -0.01241221 0.03600000
v 0.02377105 -0.01253054 0.03600000
v 0.02368679 -0.01265412 0.03600000
v 0.02361007 -0.01278253 0.03600000
v 0.02354117 -0.01291529 0.03600000
v 0.02348033 -0.01305194 0.03600000
v 0.02342777 -0.01319198 0.03600000
v 0.02338368 -0.01333491 0.03600000
v 0.02334822 -0.01348022 0.03600000
v 0.02332151 -0.01362739 0.03600000
v 0.02330365 -0.01377590 0.03600000
v 0.02329471 -0.01392521 0.03600000
v 0.02329471 -0.01407479 0.03600000
v 0.02330365 -0.01422410 0.03600000
v 0.02332151 -0.01437261 0.03600000
v 0.02334822 -0.01451978 0.03600000
v 0.02338368 -0.01466509 0.03600000
v 0.02342777 -0.01480802 0.03600000
v 0.02348033 -0.01494806 0.03600000
v 0.02354117 -0.01508471 0.03600000
v 0.02361007 -0.01521747 0.03600000
v 0.02368679 -0.01534588 0.03600000
v 0.02377105 -0.01546946 0.03600000
v 0.02386255 -0.01558779 0.03600000
v 0.02396096 -0.01570043 0.03600000
v 0.02406593 -0.01580699 0.03600000
v 0.02417709 -0.01590707 0.03600000
v 0.02429403 -0.01600033 0.03600000
v 0.02441635 -0.01608643 0.03600000
v 0.02454359 -0.01616506 0.03600000
v 0.02467531 -0.01623594 0.03600000
v 0.02481103 -0.01629882 0.03600000
v 0.02495026 -0.01635347 0.03600000
v 0.02509252 -0.01639969 0.03600000
v 0.02523729 -0.01643732 0.03600000
v 0.02538404 -0.01646623 0.03600000
v 0.02553227 -0.01648630 0.03600000
v 0.02568143 -0.01649748 0.03600000
v 0.02583099 -0.01649972 0.03600000
v 0.02598041 -0.01649301 0.03600000
v 0.02612917 -0.01647737 0.03600000
v 0.02627673 -0.01645287 0.03600000
v 0.02642256 -0.01641959 0.03600000
v 0.02656613 -0.01637764 0.03600000
v 0.02670694 -0.01632718 0.03600000
v 0.02684448 -0.01626840 0.03600000
v 0.02697826 -0.01620149 0.03600000
v 0.02710780 -0.01612670 0.03600000
v 0.02723263 -0.01604430 0.03600000
v 0.02735231 -0.01595458 0.03600000
v 0.02746642 -0.01585786 0.03600000
v 0.02757453 -0.01575449 0.03600000
v 0.02767627 -0.01564485 0.03600000
v 0.02777127 -0.01552931 0.03600000
v 0.02785919 -0.01540830 0.03600000
v 0.02793971 -0.01528225 0.03600000
v 0.02801255 -0.01515161 0.03600000
v 0.02807745 -0.01501684 0.03600000
v 0.02813418 -0.01487844 0.03600000
v 0.02818252 -0.01473689 0.03600000
v 0.02822231 -0.01459270 0.03600000
v 0.02825341 -0.01444639 0.03600000
v 0.02827571 -0.01429849 0.03600000
v 0.02828911 -0.01414951 0.03600000
f 109 5 4
f 110 5 109
f 1 105 210
f 210 106 1
f 210 105 104
f 104 209 210
f 102 101 207
f 207 101 206
f 175 71 70
f 176 71 175
f 70 69 175
f 175 69 174
f 173 69 68
f 174 69 173
f 195 91 90
f 196 91 195
f 90 89 195
f 195 89 194
f 87 86 192
f 192 86 191
f 99 203 204
f 98 203 99
f 205 101 100
f 206 101 205
f 100 99 205
f 205 99 204
f 107 2 1
f 1 106 107
f 208 104 103
f 208 209 104
f 103 102 208
f 102 207 208
f 62 61 167
f 167 61 166
f 63 62 167
f 167 168 63
f 169 64 63
f 63 168 169
f 177 72 71
f 177 71 176
f 172 67 66
f 172 66 171
f 68 67 172
f 172 173 68
f 182 77 76
f 182 76 181
f 185 81 80
f 186 81 185
f 80 79 185
f 185 79 184
f 188 189 84
f 83 188 84
f 190 86 85
f 191 86 190
f 85 84 190
f 190 84 189
f 187 82 81
f 187 81 186
f 83 82 187
f 187 188 83
f 193 89 88
f 194 89 193
f 193 88 87
f 87 192 193
f 198 199 94
f 93 198 94
f 96 95 200
f 201 96 200
f 95 94 200
f 200 94 199
f 197 91 196
f 197 92 91
f 93 92 197
f 197 198 93
f 202 97 96
f 202 96 201
f 98 97 202
f 202 203 98
f 4 3 108
f 108 109 4
f 3 2 108
f 2 107 108
f 111 5 110
f 111 6 5
f 13 118 119
f 13 119 14
f 117 12 11
f 117 11 116
f 117 13 12
f 118 13 117
f 119 120 15
f 14 119 15
f 15 120 121
f 121 16 15
f 17 16 122
f 122 16 121
f 36 35 141
f 141 35 140
f 141 37 36
f 142 37 141
f 38 37 143
f 143 37 142
f 163 58 57
f 163 57 162
f 59 58 163
f 163 164 59
f 165 61 60
f 166 61 165
f 60 59 165
f 59 164 165
f 24 23 129
f 129 23 128
f 127 23 22
f 128 23 127
f 25 129 130
f 24 129 25
f 66 65 170
f 171 66 170
f 170 65 64
f 64 169 170
f 178 74 73
f 179 74 178
f 73 72 178
f 72 177 178
f 75 180 181
f 181 76 75
f 179 180 75
f 75 74 179
f 183 79 78
f 184 79 183
f 78 77 183
f 77 182 183
f 112 8 7
f 113 8 112
f 7 6 112
f 6 111 112
f 9 8 114
f 114 8 113
f 10 115 116
f 116 11 10
f 10 114 115
f 9 114 10
f 18 122 123
f 17 122 18
f 20 19 124
f 125 20 124
f 19 18 124
f 124 18 123
f 35 34 139
f 140 35 139
f 139 34 33
f 33 138 139
f 137 138 32
f 32 138 33
f 136 31 30
f 136 30 135
f 136 32 31
f 137 32 136
f 40 39 144
f 145 40 144
f 144 39 38
f 38 143 144
f 30 29 134
f 135 30 134
f 134 29 28
f 28 133 134
f 132 28 27
f 132 133 28
f 158 159 54
f 53 158 54
f 54 159 160
f 160 55 54
f 162 57 56
f 56 161 162
f 160 161 56
f 56 55 160
f 146 41 40
f 146 40 145
f 155 156 51
f 50 155 51
f 53 52 157
f 157 158 53
f 52 51 157
f 157 51 156
f 49 154 155
f 49 155 50
f 153 48 47
f 47 152 153
f 153 49 48
f 154 49 153
f 126 21 20
f 126 20 125
f 22 21 126
f 126 127 22
f 26 25 131
f 131 25 130
f 27 26 131
f 131 132 27
f 87 88 42
f 47 48 42
f 42 13 14
f 42 65 66
f 93 94 42
f 42 29 30
f 42 86 87
f 57 58 42
f 20 21 42
f 42 26 27
f 100 101 42
f 96 97 42
f 42 92 93
f 42 105 1
f 66 67 42
f 60 61 42
f 80 81 42
f 83 84 42
f 1 2 42
f 42 99 100
f 42 59 60
f 7 8 42
f 103 104 42
f 63 64 42
f 42 62 63
f 73 74 42
f 42 72 73
f 42 79 80
f 42 82 83
f 42 95 96
f 42 89 90
f 42 102 103
f 42 3 4
f 42 6 7
f 42 39 40
f 42 19 20
f 42 32 33
f 104 105 42
f 64 65 42
f 42 67 68
f 70 71 42
f 42 69 70
f 76 77 42
f 85 86 42
f 90 91 42
f 42 97 98
f 42 101 102
f 42 2 3
f 4 5 42
f 11 12 42
f 14 15 42
f 17 18 42
f 33 34 42
f 27 28 42
f 40 41 42
f 42 52 53
f 43 44 42
f 42 61 62
f 71 72 42
f 24 25 42
f 68 69 42
f 42 77 78
f 81 82 42
f 88 89 42
f 91 92 42
f 98 99 42
f 5 6 42
f 42 75 76
f 42 16 17
f 38 39 42
f 42 35 36
f 36 37 42
f 42 58 59
f 53 54 42
f 42 46 47
f 50 51 42
f 42 21 22
f 42 23 24
f 78 79 42
f 42 84 85
f 42 94 95
f 42 8 9
f 12 13 42
f 42 15 16
f 42 10 11
f 42 34 35
f 30 31 42
f 42 37 38
f 28 29 42
f 42 49 50
f 42 56 57
f 22 23 42
f 42 25 26
f 74 75 42
f 9 10 42
f 42 18 19
f 31 32 42
f 42 54 55
f 55 56 42
f 42 44 45
f 45 46 42
f 42 51 52
f 48 49 42
f 47 46 151
f 151 152 47
f 151 46 45
f 45 150 151
f 149 44 43
f 43 148 149
f 45 44 149
f 149 150 45
f 145 144 147
f 147 172 171
f 162 161 147
f 176 175 147
f 121 120 147
f 116 115 147
f 147 177 176
f 147 192 191
f 147 111 110
f 140 139 147
f 147 207 206
f 181 180 147
f 196 195 147
f 194 193 147
f 110 109 147
f 166 165 147
f 133 132 147
f 106 210 147
f 147 141 140
f 147 153 152
f 147 167 166
f 191 190 147
f 186 185 147
f 201 200 147
f 147 197 196
f 109 108 147
f 206 205 147
f 147 107 106
f 147 114 113
f 147 159 158
f 147 143 142
f 147 210 209
f 130 129 147
f 209 208 147
f 147 175 174
f 174 173 147
f 147 182 181
f 147 189 188
f 147 195 194
f 147 187 186
f 147 199 198
f 204 203 147
f 147 205 204
f 147 202 201
f 147 120 119
f 119 118 147
f 147 117 116
f 147 122 121
f 125 124 147
f 147 163 162
f 147 146 145
f 147 131 130
f 158 157 147
f 147 208 207
f 168 167 147
f 147 169 168
f 171 170 147
f 147 180 179
f 173 172 147
f 179 178 147
f 147 185 184
f 147 190 189
f 188 187 147
f 147 193 192
f 147 200 199
f 198 197 147
f 203 202 147
f 147 108 107
f 184 183 147
f 113 112 147
f 118 117 147
f 123 122 147
f 147 138 137
f 142 141 147
f 147 136 135
f 135 134 147
f 164 163 147
f 147 165 164
f 160 159 147
f 147 161 160
f 147 156 155
f 155 154 147
f 147 129 128
f 128 127 147
f 147 170 169
f 147 178 177
f 147 183 182
f 147 112 111
f 115 114 147
f 147 124 123
f 147 139 138
f 137 136 147
f 147 144 143
f 147 134 133
f 147 126 125
f 147 149 148
f 152 151 147
f 147 157 156
f 154 153 147
f 127 126 147
f 132 131 147
f 147 151 150
f 150 149 147
f 43 42 147
f 147 148 43
f 41 146 147
f 147 42 41

