# https://github.com/mikedh/trimesh
v 0.02180299 0.00000000 0.02305000
v 0.02180299 0.00000000 0.02465000
v 0.02064829 0.00200000 0.02465000
v 0.02064829 0.00200000 0.02305000
v 0.02064829 -0.00200000 0.02305000
v 0.02064829 -0.00200000 0.02465000
v 0.01833889 0.00200000 0.02465000
v 0.01833889 0.00200000 0.02305000
v 0.01718419 0.00000000 0.02305000
v 0.01833889 -0.00200000 0.02305000
v 0.01718419 0.00000000 0.02465000
v 0.01833889 -0.00200000 0.02465000
f 1 4 2
f 2 4 3
f 9 10 11
f 11 10 12
f 1 5 8
f 8 10 9
f 8 4 1
f 5 10 8
f 8 11 7
f 9 11 8
f 3 4 8
f 8 7 3
f 6 2 3
f 3 7 6
f 6 11 12
f 7 11 6
f 6 10 5
f 12 10 6
f 6 5 1
f 1 2 6

